<svg width="246" height="59" viewBox="0 0 246 59" fill="none" xmlns="http://www.w3.org/2000/svg">
<path fill-rule="evenodd" clip-rule="evenodd" d="M204.271 58.105H218.646C219.239 55.405 219.833 52.7054 220.426 50.0055C224.529 50.0055 228.764 50.032 232.866 50.032C234.87 50.032 236.643 49.4098 238.219 48.3452C240.121 47.0602 241.541 45.0912 242.074 42.6616C242.976 38.5524 243.883 34.444 244.79 30.3357C245.308 27.9902 245.981 25.3419 244.299 23.2236C242.752 21.2744 240.699 21.1229 238.445 21.1229C222.216 21.1407 205.986 21.1225 189.755 21.1225C188.117 21.1225 186.744 21.6524 185.312 22.3908C183.969 21.4409 182.757 21.1225 181.109 21.1225H158.833C159.441 18.3855 160.049 15.6486 160.657 12.9116H146.26C145.667 15.5818 145.073 18.2522 144.48 20.922H131.818C130.069 20.922 128.389 21.4707 126.923 22.4129C125.501 21.5285 124.405 21.1445 122.72 21.1445H80.9279C81.5658 18.3706 82.2038 15.5962 82.8415 12.8221C78.0501 12.8148 73.2583 12.8074 68.4669 12.7999C65.7044 25.1554 62.9419 37.5109 60.1797 49.8664C64.9668 49.8678 69.7539 49.8691 74.5405 49.8705C75.9807 43.5472 77.4206 37.2239 78.8604 30.9007H83.72C84.2983 30.9007 84.1845 31.2301 84.0875 31.6654C82.7255 37.7338 81.3634 43.8023 80.0016 49.8707C111.737 49.8707 143.472 49.8708 175.21 49.8708C176.826 49.8708 178.09 49.5368 179.544 48.7952C180.977 49.7527 182.243 50.0708 183.994 50.0557L206.045 49.8707C205.454 52.6156 204.862 55.3604 204.271 58.1055L204.271 58.105ZM142.087 30.9267H137.849C137.105 30.9267 136.905 31.2657 136.757 31.9322C136.226 34.312 135.696 36.6922 135.165 39.0714C135.014 39.7554 135.36 39.8672 135.959 39.8672H140.083C140.751 36.887 141.419 33.9071 142.087 30.9267ZM166.397 31.0992H170.924C171.795 31.0992 171.747 31.556 171.591 32.2617C171.072 34.5927 170.554 36.9241 170.035 39.2551C169.854 40.0692 169.347 40.0553 168.648 40.0553H164.041C163.365 40.0553 163.359 39.6552 163.479 39.1081C163.995 36.7775 164.512 34.4466 165.028 32.1161C165.219 31.2524 165.559 31.0992 166.397 31.0992ZM196.196 31.0992H200.722C201.594 31.0992 201.546 31.556 201.389 32.2617C200.871 34.5927 200.352 36.9241 199.834 39.2551C199.653 40.0692 199.146 40.0553 198.446 40.0553H193.84C193.163 40.0553 193.157 39.6552 193.277 39.1081C193.794 36.7775 194.311 34.4466 194.827 32.1161C195.018 31.2524 195.357 31.0992 196.196 31.0992ZM222.77 40.1223H227.008C227.751 40.1223 227.952 39.7833 228.099 39.1168C228.63 36.7371 229.16 34.3569 229.691 31.9776C229.842 31.2936 229.496 31.1818 228.898 31.1818H224.773C224.105 34.162 223.437 37.142 222.77 40.1223Z" fill="black"/>
<path fill-rule="evenodd" clip-rule="evenodd" d="M163.086 23.2055H181.142C183.96 23.2055 185.754 25.5111 185.13 28.3284L181.913 42.8497C181.289 45.6671 178.473 47.9727 175.656 47.9727H157.6C154.783 47.9727 152.988 45.6676 153.612 42.8497L156.829 28.3284C157.453 25.5106 160.269 23.2055 163.086 23.2055ZM166.359 29.0352H175.286C176.777 29.0352 177.727 30.2553 177.397 31.7458L175.694 39.4318C175.364 40.9222 173.873 42.1422 172.382 42.1422H163.455C161.964 42.1422 161.014 40.9225 161.344 39.4318L163.047 31.7458C163.377 30.2547 164.867 29.0352 166.359 29.0352Z" fill="#66C2E3"/>
<path fill-rule="evenodd" clip-rule="evenodd" d="M151.37 14.7188L149.524 23.0187L134.806 23.0068C131.989 23.0053 129.178 25.3105 128.554 28.1275L125.327 42.6556C124.703 45.4722 126.498 47.7763 129.316 47.7763H150.989L156.479 23.019L158.313 14.7191L151.37 14.7188ZM138.081 28.8417H148.238L145.321 41.9408H135.175C133.684 41.9408 132.737 40.7273 133.067 39.2376L134.77 31.5447C135.1 30.0549 136.59 28.8417 138.081 28.8417Z" fill="#66C2E3"/>
<path fill-rule="evenodd" clip-rule="evenodd" d="M73.5383 14.7188L70.7279 27.3892H70.7636L70.6445 27.8893C70.6 28.0342 70.5582 28.1819 70.5254 28.3299L68.1914 38.845H68.2153L66.2266 47.7763H73.1692L75.1578 38.845H75.1697L76.7416 31.7477C76.7443 31.7363 76.7393 31.7232 76.7416 31.712L77.349 29.0326H87.483C88.9736 29.0326 89.9326 30.2566 89.6026 31.7477L88.0069 38.9403L86.054 47.7764H93.0084L94.9732 38.9403H94.9851L97.331 28.3299C97.9549 25.5124 96.1594 23.1974 93.3416 23.1974H78.6113L80.4928 14.7188L73.5383 14.7188Z" fill="#66C2E3"/>
<path fill-rule="evenodd" clip-rule="evenodd" d="M122.719 47.7734H99.5574C96.74 47.7734 94.9452 45.4675 95.5693 42.6505L96.5025 38.4371H96.5068L96.6862 37.6269C97.3099 34.81 100.127 32.503 102.944 32.504L119.15 32.5112L119.39 31.4354C119.644 30.0312 118.759 28.8932 117.367 28.8362H98.6061L99.8976 23.0088L123.18 23.0154C125.939 23.0698 127.684 25.3527 127.067 28.1364L126.629 30.1142H126.633L126.101 32.5139H126.106L123.374 44.8413H123.369L122.719 47.7729L122.719 47.7734ZM104.715 41.9432H117.054L117.857 38.3334H105.729C105.671 38.3274 105.611 38.324 105.549 38.324C104.556 38.324 103.564 39.1366 103.345 40.13C103.128 41.1118 103.744 41.9167 104.717 41.9359C104.717 41.9383 104.716 41.9409 104.715 41.9432Z" fill="#66C2E3"/>
<path fill-rule="evenodd" clip-rule="evenodd" d="M192.844 23.2055H210.9C213.718 23.2055 215.512 25.5111 214.888 28.3284L211.671 42.8497C211.047 45.6671 208.231 47.9727 205.413 47.9727H187.358C184.541 47.9727 182.746 45.6676 183.37 42.8497L186.587 28.3284C187.211 25.5106 190.026 23.2055 192.844 23.2055ZM196.117 29.0352H205.044C206.535 29.0352 207.485 30.2553 207.155 31.7458L205.452 39.4318C205.122 40.9222 203.631 42.1422 202.14 42.1422H193.213C191.722 42.1422 190.772 40.9225 191.102 39.4318L192.805 31.7458C193.135 30.2547 194.625 29.0352 196.117 29.0352Z" fill="#66C2E3"/>
<path fill-rule="evenodd" clip-rule="evenodd" d="M217.114 56.2539L218.96 47.954L233.678 47.9659C236.495 47.9674 239.306 45.6621 239.93 42.8451L243.157 28.3171C243.781 25.5004 241.986 23.1964 239.168 23.1964H217.495L212.005 47.9537L210.172 56.2536L217.114 56.2539ZM230.404 42.1309H220.246L223.164 29.0319L233.309 29.0319C234.801 29.0319 235.747 30.2454 235.417 31.7351L233.714 39.428C233.384 40.9178 231.894 42.1309 230.404 42.1309Z" fill="#66C2E3"/>
<path d="M8.04074 32.6976C7.92638 33.0092 7.81148 33.3214 7.69697 33.6331L7.03859 33.3917C7.1531 33.08 7.26804 32.7678 7.38236 32.4562L8.04074 32.6976ZM7.69697 33.6331C7.52659 34.0967 7.35592 34.5609 7.18564 35.0245L6.5273 34.7831C6.69754 34.3195 6.86821 33.8552 7.03859 33.3917L7.69697 33.6331ZM7.18564 35.0245L7.10328 35.152L6.85649 34.9038L7.18564 35.0245ZM7.10328 35.152C6.72955 35.522 6.3554 35.8926 5.98152 36.2628L5.48791 35.7665C5.86178 35.3962 6.23588 35.0256 6.60966 34.6557L7.10328 35.152ZM5.98152 36.2628C5.65005 36.5912 5.31814 36.92 4.98652 37.2482L4.4929 36.7519C4.82452 36.4236 5.15638 36.0949 5.48791 35.7665L5.98152 36.2628ZM4.98652 37.2482C4.83491 37.3982 4.78346 37.4478 4.73783 37.4918L4.25231 36.9844C4.35358 36.8869 4.46537 36.7792 4.4929 36.7519L4.98652 37.2482ZM4.73783 37.4918C4.28875 37.9241 4.19991 38.0099 4.32924 38.7823L3.63794 38.8976C3.44731 37.7596 3.5803 37.6313 4.25231 36.9844L4.73783 37.4918ZM4.32924 38.7823C4.4335 39.4043 4.64033 40.0389 4.96494 40.6566L4.34224 40.9831C3.98399 40.3015 3.75473 39.595 3.63794 38.8976L4.32924 38.7823ZM4.96494 40.6566C5.26632 41.2303 5.66748 41.7859 6.17949 42.2994L5.68311 42.7931C5.11494 42.2232 4.67233 41.6113 4.34224 40.9831L4.96494 40.6566ZM6.17949 42.2994C6.83458 42.9562 7.90399 43.7699 9.01698 44.1928L8.77014 44.8485C7.55384 44.3863 6.39226 43.5038 5.68311 42.7931L6.17949 42.2994ZM9.01698 44.1928C9.7912 44.487 10.5802 44.5883 11.2396 44.2965L11.522 44.9384C10.6715 45.3148 9.70151 45.2025 8.77014 44.8485L9.01698 44.1928ZM11.2396 44.2965L11.917 43.9967L11.7196 44.7108L11.3808 44.6174L11.2396 44.2965ZM11.7196 44.7108C11.6315 45.0293 11.5285 45.3559 11.4101 45.6835L10.7491 45.4447C10.8614 45.1338 10.959 44.8248 11.042 44.5242L11.7196 44.7108ZM11.4101 45.6835C11.2995 45.989 11.1744 46.2987 11.0337 46.6073L10.3945 46.3165C10.525 46.0301 10.6432 45.7373 10.7491 45.4447L11.4101 45.6835ZM11.0337 46.6073C10.4405 47.9078 11.0621 48.5927 12.0257 49.0322L11.7348 49.6713C10.4165 49.0701 9.56947 48.1256 10.3945 46.3165L11.0337 46.6073ZM12.0257 49.0322C12.6414 49.3129 13.3864 49.5069 14.0788 49.6873L13.9033 50.3648C13.1758 50.1754 12.3931 49.9714 11.7348 49.6713L12.0257 49.0322ZM14.0788 49.6873C14.2618 49.7347 14.4391 49.781 14.5664 49.8154L14.3882 50.493C14.2006 50.4422 14.0518 50.4033 13.9033 50.3648L14.0788 49.6873ZM14.5664 49.8154C15.4014 50.0412 16.8449 50.4551 18.1424 50.5374L18.0984 51.2395C16.7387 51.1533 15.2501 50.726 14.3882 50.493L14.5664 49.8154ZM18.1424 50.5374C19.3151 50.6117 20.3606 50.4141 20.6025 49.5162L21.2801 49.6944C20.9211 51.027 19.5826 51.3336 18.0984 51.2395L18.1424 50.5374ZM20.6025 49.5162C20.7306 49.0405 20.8048 48.6732 20.8357 48.3089L21.5379 48.3663C21.5044 48.7621 21.4222 49.1666 21.2801 49.6944L20.6025 49.5162ZM20.8357 48.3089C20.8668 47.9428 20.8541 47.5874 20.809 47.1367L21.5057 47.0708C21.5565 47.5783 21.5712 47.9722 21.5379 48.3663L20.8357 48.3089ZM20.809 47.1367L20.8364 46.9612L21.1574 47.1038L20.809 47.1367ZM20.8364 46.9612C21.3087 45.9068 21.5034 45.622 21.8472 45.1185L22.4259 45.5136C22.1081 45.979 21.9281 46.2426 21.4783 47.2464L20.8364 46.9612ZM21.8472 45.1185C21.8823 45.0671 21.9123 45.0233 22.0007 44.8921L22.5821 45.2842C22.5598 45.3174 22.4867 45.4245 22.4259 45.5136L21.8472 45.1185ZM22.0007 44.8921C22.2687 44.4945 22.392 44.2289 22.4314 43.9543L23.1255 44.0504C23.069 44.4435 22.9136 44.7923 22.5821 45.2842L22.0007 44.8921ZM22.4314 43.9543C22.4726 43.6658 22.4312 43.3216 22.3687 42.7954L23.0653 42.7157C23.1339 43.2934 23.1797 43.6712 23.1255 44.0504L22.4314 43.9543ZM22.3687 42.7954C22.3515 42.6515 22.3373 42.5378 22.3275 42.4636L23.0215 42.3758C23.0425 42.5337 23.057 42.6451 23.0653 42.7157L22.3687 42.7954ZM22.3275 42.4636C22.3197 42.404 22.3022 42.2843 22.2779 42.1175L22.9719 42.016C22.9827 42.0907 22.9991 42.2072 23.0215 42.3758L22.3275 42.4636ZM22.2779 42.1175L22.2095 41.6493L22.677 41.7198L22.6249 42.0668L22.2779 42.1175ZM22.677 41.7198C23.6701 41.8691 24.6447 41.943 25.6142 41.9493L25.6115 42.6514C24.6092 42.6449 23.6009 42.5684 22.5728 42.4138L22.677 41.7198ZM25.6142 41.9493C26.5866 41.9555 27.5538 41.8941 28.5292 41.7731L28.6115 42.4698C27.6064 42.5944 26.6109 42.6577 25.6115 42.6514L25.6142 41.9493ZM28.5292 41.7731L28.7459 42.4259L28.5704 42.1214L28.5292 41.7731ZM28.7459 42.4259C28.1792 42.7561 27.6136 43.0469 26.8919 43.4177L26.5711 42.7923C27.2833 42.4263 27.8415 42.1393 28.3948 41.817L28.7459 42.4259ZM26.8919 43.4177C26.8393 43.4447 26.7852 43.4725 26.7308 43.5004L26.41 42.875C26.4644 42.8471 26.5184 42.8193 26.5711 42.7923L26.8919 43.4177ZM26.7308 43.5004C25.9891 43.8817 25.9824 44.6823 26.2443 45.5208L25.5752 45.7293C25.2163 44.5805 25.2641 43.4641 26.41 42.875L26.7308 43.5004ZM26.2443 45.5208C26.5415 46.4724 27.1726 47.4739 27.5688 48.0843L26.9817 48.4656C26.5643 47.8225 25.8987 46.7651 25.5752 45.7293L26.2443 45.5208ZM27.5688 48.0843C28.3979 49.3623 29.18 50.4383 30.078 50.9886L29.7132 51.5865C28.6977 50.9642 27.8597 49.8189 26.9817 48.4656L27.5688 48.0843ZM30.078 50.9886C30.9265 51.5087 31.9186 51.5569 33.2327 50.8459L33.5646 51.4659C31.9943 52.3158 30.7781 52.2393 29.7132 51.5865L30.078 50.9886ZM33.2327 50.8459C33.8537 50.5098 34.0621 50.1449 34.3428 49.653L34.9545 49.9986C34.6153 50.5928 34.3635 51.0335 33.5646 51.4659L33.2327 50.8459ZM34.3428 49.653C34.4545 49.4573 34.5771 49.2429 34.7565 48.9749L35.338 49.3643C35.1943 49.5788 35.0688 49.7984 34.9545 49.9986L34.3428 49.653ZM34.7565 48.9749L34.8786 48.8611L35.0473 49.1696L34.7565 48.9749ZM34.8786 48.8611C35.0835 48.7486 35.9592 48.0253 36.8108 47.3216L37.2579 47.8619C36.3773 48.5897 35.4715 49.338 35.2159 49.4781L34.8786 48.8611ZM36.8108 47.3216C37.2492 46.9594 37.6817 46.602 37.9061 46.4208L38.3476 46.9693C37.9369 47.3012 37.5989 47.5803 37.2579 47.8619L36.8108 47.3216ZM37.9061 46.4208L38.175 46.2036L38.397 46.4701L38.1268 46.6951L37.9061 46.4208ZM38.397 46.4701C38.537 46.6381 38.7585 46.7419 39.0594 46.814L38.8977 47.497C38.4489 47.3896 38.1044 47.2172 37.8566 46.92L38.397 46.4701ZM39.0594 46.814C39.4049 46.8966 39.8589 46.9372 40.4089 46.9767L40.3594 47.6788C39.783 47.6372 39.3018 47.5936 38.8977 47.497L39.0594 46.814ZM40.4089 46.9767C40.8401 47.0079 42.2179 47.0072 43.1075 47.007V47.7091C42.1986 47.7095 40.7911 47.7102 40.3594 47.6788L40.4089 46.9767ZM43.1075 47.007C43.3897 47.0068 43.6241 47.0068 43.7644 47.0076L43.7616 47.7097C43.6215 47.7089 43.3884 47.7091 43.1075 47.7091V47.007ZM43.7644 47.0076C44.5935 47.0128 45.2507 46.9759 45.6847 46.73L46.0303 47.3417C45.4576 47.6661 44.6999 47.7155 43.7616 47.7097L43.7644 47.0076ZM45.6847 46.73C46.0813 46.5053 46.3196 46.0627 46.3789 45.2351L47.081 45.2845C47.0023 46.383 46.6407 46.9959 46.0303 47.3417L45.6847 46.73ZM46.3789 45.2351C46.4092 44.8099 46.4164 44.5563 46.3686 44.3389L47.0543 44.1879C47.1219 44.4956 47.1158 44.7964 47.081 45.2845L46.3789 45.2351ZM46.3686 44.3389C46.3208 44.1213 46.2082 43.8956 45.9996 43.5248L46.6139 43.1819C46.8545 43.6094 46.9867 43.8807 47.0543 44.1879L46.3686 44.3389ZM45.9996 43.5248L45.9557 43.3616L46.3068 43.3534L45.9996 43.5248ZM45.9557 43.3616C45.9422 42.8578 45.9284 42.3537 45.9152 41.8499L46.6173 41.8335C46.6305 42.3372 46.6443 42.8414 46.6578 43.3452L45.9557 43.3616ZM45.9152 41.8499C45.9018 41.3462 45.8881 40.842 45.8748 40.3384L46.5769 40.3219C46.5902 40.8255 46.6039 41.3297 46.6173 41.8335L45.9152 41.8499ZM45.8748 40.3384C45.8603 39.7974 45.8018 39.3634 45.6948 38.9413L46.3751 38.7711C46.4954 39.2457 46.5609 39.7279 46.5769 40.3219L45.8748 40.3384ZM45.6948 38.9413C45.5869 38.5161 45.4263 38.0907 45.2093 37.574L45.8566 37.3024C46.0848 37.8458 46.2555 38.2994 46.3751 38.7711L45.6948 38.9413ZM45.2093 37.574C45.0556 37.2087 44.924 36.8537 44.795 36.5057L45.4534 36.2643C45.5763 36.5959 45.7017 36.9343 45.8566 37.3024L45.2093 37.574ZM45.4534 36.263V36.2643L45.1242 36.385L45.4534 36.263ZM44.795 36.5071C44.5944 35.9659 44.3997 35.4409 44.114 34.8768L44.7421 34.5614C45.042 35.1535 45.2447 35.6998 45.4534 36.263L44.795 36.5071ZM44.114 34.8768L44.0824 34.6588L44.4281 34.7191L44.114 34.8768ZM44.0824 34.6588C44.117 34.463 44.146 34.2813 44.168 34.1166L44.862 34.2044C44.8334 34.4187 44.8038 34.6094 44.7737 34.7795L44.0824 34.6588ZM44.168 34.1166C44.1879 33.9672 44.2081 33.78 44.2283 33.5516L44.9305 33.6091C44.9157 33.7752 44.8925 33.975 44.862 34.2044L44.168 34.1166ZM44.2283 33.5516L44.2937 32.8175L44.8222 33.3266L44.5794 33.5803L44.2283 33.5516ZM44.8222 33.3266C45.166 33.6577 45.51 33.9893 45.8538 34.3206L45.3682 34.8279C45.0244 34.4968 44.6804 34.1651 44.3367 33.834L44.8222 33.3266ZM45.8538 34.3206L46.625 35.0637L46.1395 35.5711L45.3682 34.8279L45.8538 34.3206ZM46.625 35.0637C47.1817 35.6 47.6902 36.0873 48.2546 36.4203L47.8981 37.0265C47.2662 36.6537 46.7282 36.1383 46.1395 35.5711L46.625 35.0637ZM48.2546 36.4203C48.7974 36.7405 49.4096 36.9262 50.2048 36.8886L50.2378 37.5908C49.2864 37.6358 48.5515 37.412 47.8981 37.0265L48.2546 36.4203ZM50.2048 36.8886C51.063 36.8483 51.99 36.4799 52.7605 35.9115L53.1775 36.4764C52.2999 37.1238 51.2341 37.5438 50.2378 37.5908L50.2048 36.8886ZM52.7605 35.9115C53.4959 35.3691 54.0822 34.6495 54.3203 33.8663L54.9925 34.0694C54.708 35.0046 54.0265 35.85 53.1775 36.4764L52.7605 35.9115ZM54.3203 33.8663C54.4024 33.596 54.4847 33.3254 54.5666 33.0552L55.2387 33.2583C55.1568 33.5285 55.0745 33.7991 54.9925 34.0694L54.3203 33.8663ZM54.5666 33.0552C54.662 32.7406 54.7578 32.4256 54.8533 32.1112L55.5254 32.3143C55.4299 32.6287 55.3341 32.9437 55.2387 33.2583L54.5666 33.0552ZM54.8533 32.1112L54.9448 31.8101L55.2537 31.8685L55.1893 32.2127L54.8533 32.1112ZM55.2537 31.8685C56.6754 32.1372 58.2236 32.231 59.7114 32.0751L59.78 32.7718C58.2244 32.9349 56.6079 32.837 55.1249 32.5569L55.2537 31.8685ZM59.7114 32.0751C61.0185 31.9381 62.2792 31.6062 63.3629 31.028L63.6921 31.648C62.5278 32.2693 61.1777 32.6252 59.78 32.7718L59.7114 32.0751ZM63.3629 31.028C64.9502 30.1809 66.1423 28.9296 67.0007 27.4427L67.6096 27.7911C66.6873 29.3887 65.4039 30.7345 63.6921 31.648L63.3629 31.028ZM67.0007 27.4427V27.4413L67.3052 27.6168L67.0007 27.4427ZM67.0007 27.4413C67.9815 25.7424 68.5309 23.7379 68.74 21.673L69.4368 21.7389C69.2175 23.9035 68.6404 26.007 67.6096 27.7925L67.0007 27.4413ZM68.74 21.673C68.9104 19.9902 68.8161 17.6952 68.4638 15.4755L69.1551 15.3658C69.5164 17.6421 69.6126 20.0027 69.4368 21.7389L68.74 21.673ZM68.4638 15.4755C68.1531 13.5176 67.6421 11.6242 66.9368 10.2744L67.5596 9.95067C68.2996 11.3672 68.8332 13.3367 69.1551 15.3658L68.4638 15.4755ZM66.9368 10.2744C66.8816 10.1686 66.7898 10.0531 66.6719 9.93676L67.1629 9.4347C67.3322 9.60204 67.4693 9.77766 67.5596 9.95067L66.9368 10.2744ZM66.6719 9.93676C66.3709 9.63981 65.9238 9.35859 65.4606 9.19926L65.6883 8.5355C66.2508 8.72898 66.7952 9.07193 67.1629 9.4347L66.6719 9.93676ZM65.4606 9.19926C65.031 9.05141 64.598 9.01063 64.2887 9.17225L63.965 8.54955C64.4639 8.28881 65.0923 8.33053 65.6883 8.5355L65.4606 9.19926ZM64.2887 9.17225C64.224 9.20602 64.1635 9.25003 64.1097 9.30458L63.6077 8.81362C63.7152 8.70469 63.8355 8.61704 63.965 8.54955L64.2887 9.17225ZM64.1097 9.30458C63.8227 9.59557 63.5707 9.96348 63.3182 10.3324L62.7395 9.93729C63.0123 9.5387 63.2846 9.14119 63.6077 8.81362L64.1097 9.30458ZM63.3182 10.3324C62.9861 10.8175 62.6524 11.3048 62.2205 11.6738L61.7652 11.1389C62.1305 10.8268 62.4357 10.381 62.7395 9.93729L63.3182 10.3324ZM62.2205 11.6738C61.6918 12.1256 61.0788 12.3715 60.5095 12.5998L60.2489 11.9471C60.7666 11.7396 61.3239 11.5158 61.7652 11.1389L62.2205 11.6738ZM60.5095 12.5998C60.4102 12.6395 60.3129 12.6786 60.251 12.704L59.9851 12.054C60.0941 12.0092 60.1718 11.978 60.2489 11.9471L60.5095 12.5998ZM60.251 12.704L59.9158 12.8422L59.7889 12.4997L60.1181 12.379L60.251 12.704ZM59.7889 12.4997C59.5619 11.8868 59.2833 11.3392 58.9609 10.8245L59.5561 10.4516C59.9011 11.0022 60.2006 11.5921 60.4473 12.2583L59.7889 12.4997ZM58.9609 10.8245C58.6351 10.3043 58.2657 9.81968 57.8601 9.3363L58.3978 8.88641C58.8258 9.39651 59.2146 9.90651 59.5561 10.4516L58.9609 10.8245ZM57.8601 9.3363C57.5467 8.9631 57.2426 8.68359 56.9143 8.43356L57.3393 7.87673C57.7076 8.15729 58.048 8.47 58.3978 8.88641L57.8601 9.3363ZM56.9143 8.43356C56.5866 8.18387 56.2142 7.94989 55.7797 7.67796L56.1526 7.08279C56.5925 7.3582 56.9701 7.59546 57.3393 7.87673L56.9143 8.43356ZM55.7797 7.67796C54.5555 6.91145 53.5295 6.01138 52.4828 5.09307L52.9435 4.56382C53.9682 5.4628 54.9726 6.34381 56.1526 7.08279L55.7797 7.67796ZM52.4828 5.09307C52.0421 4.70667 51.5975 4.31656 51.1004 3.90677L51.5477 3.36371C52.0077 3.74301 52.4778 4.15536 52.9435 4.56382L52.4828 5.09307ZM51.1004 3.90677C48.7819 1.99503 46.6346 1.06876 44.3537 0.925095L44.3977 0.222988C46.8319 0.376221 49.1076 1.35203 51.5477 3.36371L51.1004 3.90677ZM44.3537 0.925095C42.0559 0.780483 39.6005 1.424 36.6853 2.65108L36.4136 2.00379C39.4273 0.735233 41.9804 0.0709419 44.3977 0.222988L44.3537 0.925095ZM36.6853 2.65108C35.3114 3.22924 34.2947 3.90949 33.4125 4.7253L32.938 4.20952C33.8787 3.33956 34.959 2.61597 36.4136 2.00379L36.6853 2.65108ZM33.4125 4.7253C32.5236 5.5473 31.7594 6.51839 30.9024 7.66486L30.3402 7.24522C31.218 6.07092 32.0041 5.07325 32.938 4.20952L33.4125 4.7253ZM30.9024 7.66486L30.8033 7.79757L30.6391 7.80609L30.6213 7.45504L30.9024 7.66486ZM30.6391 7.80609C30.1509 7.83148 29.742 7.8905 29.3355 8.05307L29.0749 7.40036C29.5672 7.20349 30.0431 7.13299 30.6035 7.10398L30.6391 7.80609ZM29.3355 8.05307C28.9227 8.21803 28.4973 8.49415 27.9761 8.95419L27.5124 8.42761C28.0991 7.90979 28.5887 7.5948 29.0749 7.40036L29.3355 8.05307ZM27.9761 8.95419C27.5747 9.30834 27.1835 9.67116 26.7995 10.0426L26.3112 9.53788C26.6966 9.16511 27.0958 8.79514 27.5124 8.42761L27.9761 8.95419ZM26.7995 10.0426L26.7981 10.044L26.5554 9.79034L26.7995 10.0426ZM26.7981 10.044C26.4178 10.4118 26.0464 10.7867 25.681 11.1681L25.1736 10.6825C25.545 10.2948 25.9236 9.9128 26.3126 9.53664L26.7981 10.044ZM25.681 11.1681L25.4821 11.271L25.4273 10.9253L25.681 11.1681ZM25.4821 11.271C22.7378 11.7083 20.514 12.1883 18.5277 12.9577L18.2754 12.302C20.3062 11.5155 22.5748 11.0255 25.3727 10.5797L25.4821 11.271ZM18.5277 12.9577C16.5585 13.7204 14.8206 14.7719 13.0332 16.3565L12.5696 15.8299C14.4235 14.1863 16.2281 13.095 18.2754 12.302L18.5277 12.9577ZM13.0332 16.3565C12.309 16.9985 11.6844 17.6743 11.1395 18.3877L10.5827 17.9627C11.1567 17.2109 11.8121 16.5013 12.5696 15.8299L13.0332 16.3565ZM11.1395 18.3877C10.5945 19.1015 10.1261 19.8572 9.7148 20.6584L9.08938 20.3403C9.51808 19.5052 10.0089 18.7143 10.5827 17.9627L11.1395 18.3877ZM9.7148 20.6584L9.66269 20.7339L9.40209 20.4993L9.7148 20.6584ZM9.66269 20.7339C9.26343 21.175 8.86498 21.6222 8.43762 22.0069L7.96858 21.483C8.38117 21.1114 8.7609 20.6854 9.14149 20.2649L9.66269 20.7339ZM8.43762 22.0069C7.98963 22.4102 7.50397 22.7531 6.94266 22.9694L6.69044 22.3136C7.15882 22.1333 7.57646 21.836 7.96858 21.483L8.43762 22.0069ZM6.94266 22.9694H6.94133L6.81658 22.6415L6.94266 22.9694ZM6.94133 22.9694C6.49086 23.1425 6.27066 23.2292 6.02115 23.1235L6.29281 22.4762C6.30414 22.481 6.41732 22.4191 6.69178 22.3136L6.94133 22.9694ZM6.02115 23.1235L6.01977 23.1221L6.15696 22.7998L6.02115 23.1235ZM6.01977 23.1221C5.75665 23.0105 5.6832 22.7943 5.52034 22.3597L6.17873 22.1155C6.27118 22.3626 6.26932 22.467 6.29414 22.4775L6.01977 23.1221ZM5.52034 22.3597L5.42879 22.1152L5.63971 21.9565L5.84953 22.2376L5.52034 22.3597ZM5.63971 21.9565C6.28485 21.4717 6.34601 20.5064 6.40474 19.5766L7.10685 19.6206C7.03826 20.7078 6.96657 21.837 6.05936 22.5187L5.63971 21.9565ZM6.40474 19.5766C6.41232 19.4549 6.42013 19.334 6.42675 19.2417L7.12886 19.2911C7.11966 19.4182 7.11319 19.5197 7.10685 19.6206L6.40474 19.5766ZM6.42675 19.2417L6.45171 18.8992L6.79428 18.9154L6.7778 19.2664L6.42675 19.2417ZM6.79428 18.9154C7.3734 18.9429 7.63724 19.3515 7.92185 19.7922L7.33206 20.1708C7.1502 19.8892 6.98143 19.6279 6.76132 19.6175L6.79428 18.9154ZM7.92185 19.7922C8.00126 19.9152 8.08309 20.0419 8.16964 20.1511L7.62114 20.5872C7.51206 20.4495 7.4208 20.3082 7.33206 20.1708L7.92185 19.7922ZM8.23823 20.4446L8.07766 21.1631L7.62114 20.5872L7.89537 20.3692L8.23823 20.4446ZM7.55255 20.2937C7.67111 19.7635 7.76199 19.0682 7.63358 18.4991L8.31654 18.3454C8.47344 19.0405 8.37284 19.8424 8.23823 20.4446L7.55255 20.2937ZM7.63358 18.4991C7.55203 18.1372 7.37731 17.8261 7.05245 17.6579L7.37326 17.0325C7.91037 17.3108 8.19202 17.7931 8.31654 18.3454L7.63358 18.4991ZM7.05245 17.6579L6.77485 17.5141L6.88364 17.2232L7.21283 17.3452L7.05245 17.6579ZM6.88364 17.2232C6.93552 17.0845 7.01101 16.8919 7.08861 16.6941L7.74132 16.9493C7.68059 17.1042 7.61967 17.2599 7.54203 17.4673L6.88364 17.2232ZM7.08861 16.6941C7.19207 16.43 7.29834 16.1592 7.41013 15.841L8.07389 16.0714C7.97396 16.3556 7.85597 16.6565 7.74132 16.9493L7.08861 16.6941ZM7.68302 15.6106L8.27195 15.5084L8.07389 16.0714L7.74199 15.9562L7.68302 15.6106ZM7.80101 16.3019C7.12119 16.4199 5.62404 17.26 4.53725 18.388L4.02981 17.9025C5.21544 16.6719 6.89946 15.7465 7.68302 15.6106L7.80101 16.3019ZM4.53725 18.388C4.14337 18.7968 3.80946 19.2384 3.59859 19.6884L2.96236 19.3948C3.21091 18.8644 3.58954 18.3595 4.02981 17.9025L4.53725 18.388ZM3.59859 19.6884C3.39739 20.1175 3.30556 20.5567 3.37958 20.9831L2.68824 21.1011C2.58792 20.5232 2.70376 19.9464 2.96236 19.3948L3.59859 19.6884ZM3.37958 20.9831C3.44669 21.3705 3.65475 21.7599 4.04658 22.1374L3.56101 22.6448C3.0531 22.1554 2.78045 21.6333 2.68824 21.1011L3.37958 20.9831ZM4.04658 22.1374L4.14394 22.3074L3.8038 22.3911L4.04658 22.1374ZM4.14394 22.3074C4.23306 22.6701 4.31299 22.9767 4.39992 23.2538L3.73078 23.4623C3.64018 23.1736 3.55673 22.8534 3.4637 22.4748L4.14394 22.3074ZM4.39992 23.2538C4.48309 23.5188 4.57383 23.7572 4.68767 23.994L4.05416 24.2956C3.92707 24.0312 3.82514 23.7628 3.73078 23.4623L4.39992 23.2538ZM4.68767 23.994C4.94017 24.5192 5.33967 24.8389 5.80009 24.9868L5.58622 25.6559C4.94975 25.4516 4.39926 25.0134 4.05416 24.2956L4.68767 23.994ZM5.80009 24.9868C6.33725 25.1592 6.96224 25.1064 7.54607 24.8788L7.80129 25.5315C7.07137 25.8161 6.27942 25.8785 5.58622 25.6559L5.80009 24.9868ZM7.54607 24.8788L8.15573 24.641L8.0165 25.2791L7.67368 25.2051L7.54607 24.8788ZM8.0165 25.2791C7.85112 26.0378 7.75132 26.833 7.71784 27.731L7.01573 27.7064C7.05069 26.7687 7.15601 25.9333 7.33087 25.1311L8.0165 25.2791ZM7.71784 27.731C7.68449 28.6293 7.71851 29.6371 7.8202 30.821L7.11805 30.8785C7.01492 29.6779 6.98086 28.6436 7.01573 27.7064L7.71784 27.731ZM7.8202 30.821C7.84611 31.1223 7.87717 31.3999 7.9128 31.6538L7.21879 31.747C7.17463 31.432 7.14062 31.1416 7.11805 30.8785L7.8202 30.821ZM7.9128 31.6538C7.9521 31.9335 8.00016 32.2198 8.05594 32.5108L7.36759 32.6425C7.31115 32.3484 7.26118 32.0497 7.21879 31.747L7.9128 31.6538ZM8.05594 32.5108L8.04074 32.6976L7.71174 32.5767" fill="black"/>
<path fill-rule="evenodd" clip-rule="evenodd" d="M25.6204 11.4784L20.9982 12.2296L16.7804 14.0784L13.1981 16.3318L9.7892 20.4918L7.86336 22.5315L6.00125 23.2178L5.50872 22.0141L6.36988 20.771L6.56336 19.0181L7.1402 19.0413L7.77047 19.6162L7.60047 17.8305L6.90184 17.3619L6.92304 16.6814L5.26808 17.6176L3.76945 19.3857L3.45703 20.966L4.09784 22.2315L4.69558 24.3813L5.91122 24.9569L7.19002 24.8941L8.40252 24.1896L7.59371 28.2918L8.40252 32.8562L7.51216 34.9638L4.59593 38.1059L5.11442 39.9831L6.49587 42.1584L9.10081 43.9916L10.4825 44.1807L12.0187 44.2328L11.0603 48.1673L14.5848 49.6118L18.976 50.1896L20.4781 49.2074L20.5937 46.5497L22.2693 43.7763L22.3849 41.5807L26.4293 41.8696L30.1848 41.5229L26.4293 43.7763L27.0649 46.4918L29.4337 50.1896L31.7449 51.1719L33.5937 50.4208L34.3449 48.9185L38.216 45.9719L38.9671 46.6075L45.0336 46.8385L46.247 45.8563L46.3625 44.1229L45.9581 43.3719L45.6692 38.6919L43.647 34.6475L43.9936 32.8562L45.207 33.4918L48.6159 36.6697L50.2914 36.7851L52.1403 36.034L53.9893 34.6475L54.9136 31.6429L60.3447 31.9895L63.6381 30.7184L66.2959 28.234L68.2025 24.6517L68.6648 20.434L68.2603 15.5231L67.2204 11.132L66.1803 9.74536L64.7359 9.28304L62.1936 12.0564L59.8826 12.8653L57.8603 9.5142L55.8381 7.66533L54.7402 6.97199L50.3492 3.33192L46.8247 1.42528L43.3002 1.13633L39.1981 1.82969L35.6158 3.1586L33.1314 5.1808L31.1669 7.54977L29.1447 8.12751L25.6204 11.4784Z" fill="#FEEB50" stroke="#1F1917" stroke-width="0.858719" stroke-miterlimit="10"/>
<path fill-rule="evenodd" clip-rule="evenodd" d="M12.2149 21.9112C8.25549 26.5291 9.13503 32.1299 10.2323 37.6172C9.64675 36.1376 9.06101 34.6582 8.47546 33.1786L7.82812 29.1097C7.88971 27.7226 7.9514 26.3355 8.01313 24.9485C8.56791 23.6231 9.12274 22.2977 9.67752 20.9722C10.5098 19.7393 11.3421 18.5063 12.1744 17.2732C13.469 16.1944 14.7636 15.1156 16.0581 14.0368C17.476 13.4512 18.894 12.8654 20.3119 12.2798C21.9763 12.0641 23.6409 11.8483 25.3052 11.6325C23.7639 13.3894 22.2228 15.1465 20.6815 16.9036C16.9691 18.1077 14.7799 18.9186 12.2149 21.9112Z" fill="#FDF7BA"/>
<path fill-rule="evenodd" clip-rule="evenodd" d="M30.8535 7.84055C28.1009 10.526 26.5975 12.5513 24.846 15.6957C23.5931 17.9451 22.1876 20.1114 20.8703 22.329C20.204 23.4517 20.1411 24.393 19.9419 25.6875C19.2946 24.9169 18.6473 24.1463 18 23.3758C18.3083 22.451 18.6165 21.5262 18.9248 20.6016C19.9728 18.7213 21.0209 16.8409 22.0688 14.9609C24.2882 12.7723 26.5075 10.5839 28.7269 8.39519C29.4358 8.21018 30.1445 8.02551 30.8535 7.84055Z" fill="#FDF7BA"/>
<path fill-rule="evenodd" clip-rule="evenodd" d="M44.4476 1.18015C42.2431 2.00672 38.5821 2.27894 38.3277 4.80925C38.1468 6.60615 38.4632 7.50903 39.5463 9.41016C36.8711 6.64192 36.2095 7.07033 31.0391 7.93058C31.7788 6.88252 32.5186 5.8345 33.2584 4.78643C34.553 3.9851 35.8477 3.18358 37.1423 2.38221C38.8067 2.01229 40.4713 1.64242 42.1357 1.2725C42.9062 1.24169 43.677 1.21092 44.4476 1.18015Z" fill="#FDF7BA"/>
<path fill-rule="evenodd" clip-rule="evenodd" d="M50.5287 35.4082C51.2626 35.8612 51.2469 36.1894 51.1241 36.5C51.7031 36.2683 52.2819 36.0367 52.8609 35.8053C53.236 35.3017 53.611 34.7982 53.986 34.2944C54.2645 33.5769 54.5429 32.8594 54.8213 32.1417C54.4655 31.8743 54.1099 31.6068 53.7541 31.3392C52.1993 31.5377 50.6444 31.7361 49.0896 31.9346C48.9739 32.249 48.858 32.5633 48.7422 32.8775C48.7754 33.3241 48.8085 33.7706 48.8416 34.2173C48.9904 34.4819 49.1393 34.7467 49.2881 35.0112C49.5198 35.1271 49.7513 35.2429 49.9828 35.3586C50.1649 35.3752 50.3468 35.3919 50.5287 35.4082Z" fill="#EDD749"/>
<path fill-rule="evenodd" clip-rule="evenodd" d="M50.0962 27.4328C47.7582 28.1078 47.7764 28.2937 47.0859 30.6133C47.9974 29.1509 48.6723 28.4128 50.0962 27.4328Z" fill="#EDD749"/>
<path fill-rule="evenodd" clip-rule="evenodd" d="M65.6426 10.0744C65.227 10.2664 64.8224 10.3588 64.5626 10.7391C64.0032 11.5575 63.5239 12.2459 62.5988 12.8205C62.133 13.1099 61.6511 13.2973 61.157 13.4513C60.7472 13.5787 60.5012 13.4649 60.1523 13.7155C60.3593 13.7517 60.5662 13.7879 60.7731 13.8242H62.1419C62.7044 13.4768 63.2668 13.1294 63.8291 12.7821C64.1601 12.4347 64.4907 12.0874 64.8216 11.74C65.0952 11.1848 65.3689 10.6294 65.6426 10.0744Z" fill="#EDD749"/>
<path fill-rule="evenodd" clip-rule="evenodd" d="M28.3984 15.2614C27.4785 17.7784 26.6748 19.936 25.2812 22.2148C27.0669 20.291 28.1493 18.6559 29.172 16.4808C29.5692 15.636 29.6442 14.6445 30.7507 15.0132C30.8004 15.8569 30.9788 16.7003 31.0285 17.544C31.6264 13.2582 33.3122 11.466 37.2312 9.80266C36.123 9.93513 35.0147 10.0673 33.9066 10.1996C32.8645 10.4313 31.8224 10.6628 30.7803 10.8943C30.2675 11.6387 29.7546 12.3831 29.242 13.1273C28.9607 13.8386 28.6796 14.5502 28.3984 15.2614Z" fill="#EDD749"/>
<path fill-rule="evenodd" clip-rule="evenodd" d="M35.9952 15.1614C36.8403 19.1393 38.0571 22.957 38.5857 26.9977C38.9291 29.6235 38.9666 30.885 37.6454 33.1504C36.2016 33.0571 35.3052 33.22 33.9086 33.6775C28.3489 35.5001 25.1604 38.1798 21.4141 32.7805C22.6099 33.3439 23.8059 33.9075 25.0017 34.4713L27.5593 33.9685C29.0645 33.0918 30.5698 32.2153 32.075 31.3386C33.2494 31.1069 34.4238 30.8754 35.5981 30.6439C35.9786 29.056 36.359 27.468 36.7395 25.8801C36.4582 23.7793 36.177 21.6786 35.8959 19.5778C35.8629 18.5854 35.8298 17.593 35.7966 16.6005C35.8629 16.1207 35.9291 15.6411 35.9952 15.1614Z" fill="#EDD749"/>
<path fill-rule="evenodd" clip-rule="evenodd" d="M45.5625 39.7763C45.0955 43.008 46.6378 44.7453 45.9993 45.638C45.8184 45.8907 45.5733 46.3316 45.2998 46.4524C44.3225 46.8841 42.979 46.3717 42.8829 46.6244H39.6573C39.2274 46.4423 38.7974 46.2604 38.3672 46.0785C39.0288 45.3011 39.6905 44.5236 40.3521 43.7463C40.9971 42.3403 41.6423 40.9342 42.2874 39.5283C42.701 38.1059 43.1146 36.6834 43.5279 35.2608H44.173C44.6363 36.7661 45.0994 38.271 45.5625 39.7763Z" fill="#EDD749"/>
<path fill-rule="evenodd" clip-rule="evenodd" d="M40.1455 30.3809C40.4075 31.8483 40.8624 32.1969 41.5527 33.6173C41.0932 35.9346 40.3552 38.6902 39.467 40.7351C39.0925 41.5974 38.7901 42.0727 38.1297 42.7391C37.0148 43.8649 35.8877 44.8457 34.6232 45.8215C33.7132 46.5231 33.0779 46.1712 31.9549 46.0122C31.4773 46.8779 31.3454 47.3589 30.4664 47.7984C29.1146 48.4743 27.9048 47.0177 26.8438 46.161C27.6097 47.3574 28.3757 48.5538 29.1416 49.7502C29.671 50.2464 30.2003 50.7427 30.7296 51.239C31.1761 51.305 31.6228 51.3712 32.0694 51.4375C32.6649 51.0735 33.2603 50.7096 33.8557 50.3457C34.1701 49.7502 34.4844 49.1548 34.7986 48.5594C35.4602 48.0631 36.122 47.5669 36.7834 47.0706C37.5941 46.3759 38.4046 45.6812 39.2151 44.9865C39.7279 44.2586 40.2405 43.5309 40.7534 42.8031C41.2164 41.943 41.6796 41.0828 42.1427 40.2227C42.7382 38.4363 43.3336 36.6499 43.9292 34.8635C43.9788 34.1852 44.0285 33.5071 44.078 32.829C43.3336 32.498 42.5894 32.1672 41.845 31.8364C41.2991 31.3236 40.6914 30.8935 40.1455 30.3809Z" fill="#EDD749"/>
<path fill-rule="evenodd" clip-rule="evenodd" d="M22.3427 40.7168C24.8473 40.7168 27.4923 40.5779 29.7859 39.5259C30.435 38.552 31.0758 37.7567 31.8701 36.896C31.1472 38.2613 30.9205 39.0331 30.7288 40.568C30.4805 40.9318 30.2325 41.2958 29.9843 41.6597C28.0986 41.7094 26.2131 41.7589 24.3275 41.8086C23.7154 41.7423 23.1033 41.6762 22.4914 41.6101C22.4253 41.5438 22.3591 41.4777 22.293 41.4116C22.3095 41.1799 22.3263 40.9484 22.3427 40.7168Z" fill="#EDD749"/>
<path fill-rule="evenodd" clip-rule="evenodd" d="M21.9943 38.9802C21.9295 38.3931 21.8647 37.8058 21.7999 37.2185C21.372 39.794 21.4749 41.52 20.2895 43.827C19.404 44.8531 18.3139 45.7866 17.0652 46.2862C17.1706 46.9188 17.2021 47.314 17.1409 47.7778C16.921 49.446 13.5838 48.709 12.2109 48.6426C14.4134 49.2097 16.6159 49.7766 18.8181 50.3438C19.3143 50.1453 19.8105 49.9468 20.3069 49.7483C20.4723 48.789 20.6377 47.8295 20.8031 46.8702C21.2662 46.0101 21.7295 45.1499 22.1925 44.2899C22.2751 43.7605 22.3579 43.2312 22.4406 42.7019C22.2917 41.4613 22.1432 40.2208 21.9943 38.9802Z" fill="#EDD749"/>
<path fill-rule="evenodd" clip-rule="evenodd" d="M18.2759 24.4408C18.2067 25.6931 18.1258 26.2153 18.678 27.3214C19.3801 28.7272 20.2424 30.048 21.0053 31.4375C21.0879 30.5111 21.1705 29.5849 21.2533 28.6586C20.2609 27.2526 19.2684 25.8466 18.2759 24.4408Z" fill="#EDD749"/>
<path fill-rule="evenodd" clip-rule="evenodd" d="M8.08594 33.9028C7.87112 34.36 7.65629 34.8173 7.44147 35.2745C8.03274 37.2659 8.55822 38.5274 9.68407 40.2674C9.48801 40.9723 9.34126 41.2807 8.89013 41.8553C7.89932 41.7028 7.01954 41.6588 6.01562 41.6618C7.12404 42.5218 8.23232 43.3819 9.34045 44.2422C9.88618 44.1429 10.4321 44.0437 10.978 43.9444C11.5237 43.3986 12.0696 42.8528 12.6155 42.3069C11.8379 41.0994 11.0606 39.8919 10.2833 38.6844C9.5508 37.0906 8.8183 35.4964 8.08594 33.9028Z" fill="#EDD749"/>
<path fill-rule="evenodd" clip-rule="evenodd" d="M65.6491 9.41363C66.324 12.4504 67.1945 15.2525 67.1137 18.3624C67.0146 22.178 66.2709 26.9978 62.7356 29.2989C58.7765 31.8757 54.1288 30.6569 49.7852 29.5529C51.5551 30.2806 53.325 31.0083 55.0948 31.7362C56.7489 31.8189 58.4031 31.9016 60.0572 31.9844C61.1821 31.6534 62.3068 31.3226 63.4316 30.9919C64.3082 30.2641 65.185 29.5363 66.0615 28.8085C66.7231 27.4191 67.3847 26.0296 68.0465 24.6402C68.2945 23.0356 68.5427 21.4312 68.7907 19.8269C68.5922 18.2554 68.3938 16.6841 68.1953 15.1128C67.8314 13.5578 67.4674 12.0029 67.1036 10.4483C66.6189 10.1034 66.134 9.75845 65.6491 9.41363Z" fill="#EDD749"/>
<path fill-rule="evenodd" clip-rule="evenodd" d="M6.5649 18.4617C4.76747 19.6315 4.06155 20.1452 4.25856 22.3132C4.43761 22.9626 4.61676 23.612 4.79596 24.2613C5.04965 24.4331 5.30348 24.6047 5.55722 24.7765C5.87074 24.8808 6.18426 24.9853 6.49778 25.0898C7.065 24.9555 7.63226 24.8211 8.19961 24.6868C8.4907 23.7836 8.78183 22.8805 9.07291 21.9773C8.26672 22.3729 7.46063 22.7686 6.65454 23.1641H6.09471C5.8857 22.8432 5.67669 22.5222 5.46767 22.2013C5.72151 21.8281 5.97525 21.4549 6.22908 21.0817C6.36341 20.3726 6.49778 19.6634 6.63211 18.9544C6.80373 19.0067 6.97549 19.0588 7.14711 19.1111C7.35613 19.2754 7.56514 19.4395 7.77415 19.6037C7.74429 19.2305 7.71447 18.8573 7.68451 18.4841C7.5427 18.2453 7.40095 18.0064 7.25905 17.7676C7.11725 17.6481 6.97549 17.5287 6.83359 17.4092C6.74404 17.7601 6.65454 18.111 6.5649 18.4617Z" fill="#EDD749"/>
<path fill-rule="evenodd" clip-rule="evenodd" d="M46.8906 1.38121C48.4857 2.8624 50.4436 4.14997 51.7196 5.96026C52.2134 6.66113 52.7621 7.01947 51.7113 8.00918C52.8215 7.69204 53.234 7.72648 54.1228 7.83422C55.7395 8.02985 57.2549 10.3281 57.3516 11.9751C57.3325 12.1291 56.9025 12.4787 55.6524 12.8238C55.6276 12.8719 54.9469 12.7306 54.9638 12.7767C55.0937 13.1322 55.2673 13.1866 55.5324 13.353C55.5899 13.7483 55.6269 14.3579 55.8961 14.7902C56.6828 14.7764 57.4515 14.862 58.2218 15.0146C58.481 15.4445 58.4418 15.8744 58.4203 16.3047C58.718 16.2551 59.0157 16.2055 59.3134 16.1559C59.2306 15.4775 59.148 14.7995 59.0654 14.1214C59.3299 13.6747 59.5946 13.2281 59.8593 12.7816C59.4787 11.9215 59.0983 11.0614 58.718 10.2011C57.9901 9.50647 57.2623 8.81175 56.5345 8.11693C56.4646 8.11359 56.3942 8.10992 56.3243 8.10654C55.5058 7.60411 54.6874 7.10196 53.869 6.59968C52.5341 5.5075 51.1991 4.41518 49.8642 3.32296C48.873 2.67568 47.8817 2.0284 46.8906 1.38121Z" fill="#EDD749"/>
<path fill-rule="evenodd" clip-rule="evenodd" d="M49.5775 13.6051C49.4934 13.7523 49.3663 13.9875 49.2035 14.1504C49.8679 14.7789 50.1957 15.1997 50.4325 16.0886C49.6814 16.4615 48.9304 16.8344 48.1793 17.2074C47.5437 17.8166 46.9082 18.4259 46.2727 19.0352C45.4362 18.5849 45.2277 18.2391 44.8229 17.3806C44.3515 17.5054 43.9049 17.6256 43.5156 17.4827C43.7626 17.4846 43.9144 17.4229 44.161 17.2703C44.5655 16.8501 44.9699 16.4299 45.3744 16.0097C46.0887 15.4687 46.8031 14.9277 47.5174 14.3868C47.9849 14.2343 48.4524 14.082 48.9199 13.9297C49.0984 13.8563 49.3988 13.6787 49.5775 13.6051Z" fill="#EDD749"/>
<path fill-rule="evenodd" clip-rule="evenodd" d="M51.6503 15.8507C49.2606 17.1373 46.9719 18.4314 45.75 20.875C45.75 17.7733 48.8643 16.4079 51.6503 15.8507Z" fill="#EDD749"/>
<path fill-rule="evenodd" clip-rule="evenodd" d="M45.2772 9.74655C43.5029 10.9564 42.2481 13.3978 42.4058 15.7773C41.8278 13.717 42.0326 11.7701 43.8073 10.3472C44.1068 10.2016 44.4062 10.0561 44.7055 9.91055C44.8962 9.85596 45.0867 9.80123 45.2772 9.74655Z" fill="#EDD749"/>
<path fill-rule="evenodd" clip-rule="evenodd" d="M48.6673 28.1126C49.0341 27.913 49.6998 27.6385 50.0666 27.4389C49.6893 27.5027 49.013 27.6413 48.6357 27.7049C47.6281 27.8751 47.5095 28.1173 47.3532 29.1094C47.2794 29.5766 47.1779 30.1562 47.1042 30.6236C47.3017 30.0952 47.5394 29.4811 47.7696 28.9772C48.0132 28.4443 48.1503 28.3941 48.6673 28.1126ZM29.9705 2.56086C30.7624 1.37303 31.2183 0.986633 32.4369 0.234127C30.7823 0.632721 30.4668 0.939098 29.9705 2.56086ZM29.7099 5.1777C31.0956 2.39194 32.1449 1.36617 35.0462 -0.00189209C31.7646 0.802437 30.8 1.37441 29.7099 5.1777ZM0.034614 19.6776C0.338702 18.2827 0.622117 17.7565 1.48218 16.6114C0.0870091 17.5861 -0.0948522 17.9865 0.034614 19.6776ZM31.0955 43.0244C31.0536 42.6859 31.0114 42.3472 30.9692 42.0086C30.8931 41.3954 30.8961 40.897 30.945 40.2797C30.9921 39.6822 31.039 39.0847 31.086 38.4871C30.9119 39.0945 30.5641 39.7018 30.3902 40.3091C30.3206 40.5522 30.263 40.7488 30.23 40.9305C27.6334 41.461 25.0557 41.4942 22.4583 41.0308C22.2926 40.0693 22.0909 39.0673 21.9217 38.3492C21.8704 39.1536 21.9034 41.3776 21.8992 42.6227C21.896 43.5876 21.8554 43.9179 21.358 44.7385C20.8921 45.5069 20.6949 45.6812 20.0429 46.9794C20.097 47.7984 20.0981 48.3401 19.8804 49.1176C19.5184 50.4099 15.8675 49.4086 14.9042 49.1449C13.7182 48.8202 11.266 48.3377 11.8827 46.7565C12.4254 45.3649 12.7694 43.8978 13.0345 41.9503C10.8615 38.82 8.8405 34.53 8.45282 30.7289C8.15173 27.7775 8.3324 25.9609 8.97107 24.1556C9.98303 21.2953 11.3986 18.8193 13.6704 16.8254C16.7346 14.1367 19.5992 13.0567 24.0839 12.3741C23.0054 13.5813 21.9384 14.8581 20.7753 16.227C19.5979 17.613 18.8982 19.0127 18.1507 20.5285C17.118 22.6222 17.1401 23.4188 18.5092 25.2567C19.689 26.8407 20.3259 27.5539 20.841 29.1035C20.4156 29.9805 20.261 30.7215 20.1179 31.919C21.5625 33.4979 22.6359 34.58 24.0385 34.9134C25.4143 35.2404 26.5633 35.1769 27.794 34.5479C30.5278 33.1501 33.0574 31.3455 36.1412 31.2709C37.5678 27.7634 37.4237 24.8328 36.7387 21.4395C36.2709 19.1219 36.0834 16.9275 35.9378 14.5646C35.3594 16.9979 35.251 19.1377 35.68 21.5614C36.1973 24.4824 36.5995 27.7094 35.1604 30.2763C32.3721 30.4898 29.9822 32.1862 27.4691 33.4878C26.459 34.0112 25.4073 34.0621 24.289 33.7552C23.2511 33.4702 22.5508 32.7836 21.4326 31.494C21.4152 30.1993 21.7073 29.6017 22.3018 28.4292C23.2571 26.5462 24.3116 24.7935 25.4686 22.9405C24.0517 24.6508 22.7094 26.0795 21.5943 27.799C21.168 26.5845 20.5586 25.968 19.5489 24.6006C18.5628 23.2652 18.4594 22.6802 19.1968 21.1348C19.9382 19.5816 20.567 18.2164 21.8289 16.8539C24.0094 14.4992 26.0068 11.8786 28.3913 9.55983C29.6859 8.30075 30.2116 8.34425 31.9289 8.08393C33.481 7.84872 34.9966 7.55163 36.5796 7.18386C35.0486 7.32657 33.5688 7.37911 32.0784 7.41607C32.0629 7.4165 32.0476 7.41702 32.0322 7.41702C33.4986 5.54429 34.3496 4.5008 36.7311 3.46602C42.5947 0.919331 46.3206 0.643909 50.9267 4.5158C52.1204 5.51928 53.163 6.49347 54.3735 7.35925C53.9347 7.39678 53.5565 7.47547 53.0562 7.67196C53.665 7.55597 54.3681 7.67101 54.9999 7.78646C55.1773 7.9015 55.3594 8.01367 55.5463 8.12385C56.4006 8.62723 56.8856 8.90526 57.4635 9.7105C58.0743 10.5614 58.5834 11.4117 59.0322 12.3488C58.7381 12.2438 58.4915 12.155 58.2718 12.0896C58.11 12.0155 57.934 11.9665 57.7475 11.9485C57.3779 11.913 57.0243 12.0039 56.7296 12.1852C56.7178 12.1907 56.706 12.1961 56.694 12.2019C56.2214 12.432 55.4892 12.6944 54.9992 12.7739C55.249 12.8602 55.8018 12.8925 56.0625 12.7893C56.0975 12.7754 56.133 12.7649 56.1694 12.7561C56.0518 12.9562 55.975 13.1836 55.9514 13.4291C55.9201 13.7546 55.9862 14.067 56.1262 14.3383L56.1277 14.3411C56.172 14.4452 56.2334 14.5413 56.301 14.6105C56.0769 14.6929 55.8484 14.7872 55.6128 14.8896C56.7054 14.7231 57.6907 14.6945 58.7572 14.835C58.8276 15.1712 58.8985 15.5274 58.9641 15.8898C58.8319 15.9003 58.7001 15.9103 58.5681 15.9207C58.5574 15.9217 58.5466 15.9226 58.5359 15.9236C58.0314 15.5203 57.4691 15.5881 56.7011 15.7634C54.3655 16.296 54.9144 17.6067 53.8397 19.5814C54.9554 18.2175 54.8728 16.7906 56.6909 16.36C57.1146 16.2597 57.403 16.1342 57.6897 16.1773C57.1736 16.437 56.727 16.8673 56.55 17.367C56.051 18.7762 56.3609 19.9636 55.8127 21.2798C56.4918 20.1032 56.5327 18.9548 57.14 17.717C57.358 17.2722 58.1674 16.5604 58.6643 16.5494C58.8007 16.5466 58.9368 16.5436 59.0733 16.5407C59.1931 17.324 59.2659 18.1017 59.2194 18.7468C59.1348 19.9239 58.8289 21.6711 58.6459 22.3396C59.261 21.5489 59.5412 19.8741 59.8113 18.6952C60.0928 17.4675 60.0217 15.9944 59.7754 14.6756C59.4375 12.866 61.3011 13.1604 62.383 12.3076C63.1783 11.6805 63.7257 10.6795 64.4549 9.97034C65.1782 9.26713 66.3167 10.3005 66.6011 10.988C67.8348 13.9723 68.3967 18.6674 68.0709 21.6759C67.7053 25.0516 66.0746 28.737 63.0971 30.3989C59.3016 32.5173 54.8261 31.223 51.0555 29.9526C50.2507 29.6815 49.691 29.2863 48.9834 28.8406C49.1761 29.708 49.2636 30.626 49.0074 31.4923C48.6005 32.8667 47.9435 35.1155 49.8097 35.5303C50.5199 35.6881 50.8419 35.6653 51.8447 35.1479C51.0331 35.3314 50.624 35.2864 50.0662 35.1834C49.5607 35.0903 49.2927 34.769 49.1514 34.3904C49.328 34.518 49.6161 34.5874 50.1082 34.7059C51.4916 35.0393 52.81 34.3735 53.0678 33.4141C53.2181 32.8536 53.1925 32.5592 53.511 31.7955C53.7971 31.8837 54.0933 31.9644 54.3968 32.0378C54.2256 32.5964 54.0541 33.1556 53.8828 33.7142C53.4381 35.1646 51.7059 36.3342 50.1763 36.3073C48.7623 36.2822 47.8659 35.3965 46.8898 34.5281C46.2173 33.9297 45.5701 33.3572 44.9286 32.7903C43.1688 32.235 41.7583 31.5861 40.1253 30.377C41.2875 31.743 42.0761 32.4992 43.697 33.1788C43.4612 35.5835 42.6255 37.3367 41.913 39.6379C41.5907 40.6786 39.0448 44.8479 38.3394 45.2547C37.8363 45.5445 34.6854 48.1986 34.0925 48.5486C33.6511 49.135 33.2636 49.945 32.6 50.2958C30.5776 51.3651 29.278 49.3175 28.1896 47.588C27.6939 46.8002 26.3181 44.531 27.5176 43.8953C28.6518 43.2944 29.2869 42.8654 30.4441 42.1057C30.6141 42.4156 30.906 42.7145 31.0961 43.0241L31.0955 43.0244ZM38.1261 46.6908C37.1023 47.518 35.3805 48.9821 35.0464 49.1655C34.4416 50.0684 34.3669 50.6271 33.3978 51.1517C30.5131 52.7127 28.9821 50.9023 27.2746 48.2707C26.461 47.0168 24.6819 44.1539 26.5698 43.1835C27.3652 42.7746 27.9681 42.4682 28.5695 42.1179C26.5889 42.3637 24.6452 42.3666 22.6239 42.0625C22.6597 42.3064 22.6909 42.5385 22.7162 42.7513C22.8475 43.8556 22.8906 44.1943 22.2907 45.0841C21.8534 45.733 21.6849 45.9208 21.1567 47.0997C21.2528 48.0581 21.211 48.5975 20.9406 49.6012C20.3395 51.8319 16.174 50.6092 14.4764 50.1501C12.434 49.5978 9.51589 49.0836 10.7131 46.4578C10.9937 45.8426 11.2141 45.2134 11.3799 44.6134C9.5941 45.4038 7.11238 43.7271 5.93023 42.5421C4.806 41.4149 4.1953 40.106 3.98252 38.8359C3.80133 37.7549 3.96723 37.7602 4.73865 36.9959C5.44437 36.2974 6.14987 35.5979 6.8554 34.8997C7.1403 34.1242 7.42571 33.3493 7.71046 32.5742C7.59948 31.9953 7.51698 31.4178 7.46782 30.8458C7.26285 28.4612 7.33173 26.763 7.6724 25.2018C6.4298 25.6867 5.00396 25.4596 4.36978 24.1408C4.12861 23.6395 3.98495 23.1288 3.8028 22.3874C1.0309 19.7166 6.22536 16.2156 7.74071 15.9522C7.56747 16.4445 7.37765 16.8948 7.2106 17.3413C8.23828 17.8733 8.11229 19.3892 7.89409 20.3651C7.52441 19.8986 7.32011 19.2886 6.77638 19.2624C6.69674 20.3661 6.7105 21.5857 5.84854 22.2337C6.10371 22.9158 6.09032 22.9164 6.81553 22.6375C7.8455 22.241 8.62106 21.3576 9.40124 20.4955C10.2415 18.8588 11.3186 17.4029 12.8003 16.0892C16.4414 12.861 19.8833 11.8048 25.4249 10.9215C26.1625 10.1517 26.9249 9.40898 27.7431 8.68677C28.8516 7.70853 29.5714 7.50543 30.6199 7.45075C32.3548 5.13012 33.7199 3.51403 36.5483 2.32355C42.4771 -0.172035 46.564 -0.292358 51.3226 3.6314C52.8952 4.92788 54.2363 6.29417 55.9646 7.37649C56.8392 7.92417 57.4643 8.31786 58.1274 9.10751C58.9613 10.1012 59.6423 11.095 60.1164 12.3741C60.7289 12.122 61.4273 11.8845 61.9913 11.4025C62.7195 10.7803 63.1828 9.73885 63.8572 9.05522C64.7524 8.14805 66.7945 9.24318 67.2467 10.1087C68.7846 13.0519 69.4138 18.4763 69.0869 21.702C68.6829 25.6895 67.0391 29.459 63.5262 31.3339C61.1375 32.6083 57.9318 32.727 55.1881 32.2084C55.0103 32.7935 54.8331 33.3785 54.6553 33.9636C54.1218 35.7167 52.0394 37.1497 50.2202 37.2357C48.4736 37.3181 47.5268 36.4166 46.3813 35.3133C45.7803 34.7343 45.1789 34.1557 44.5779 33.5767C44.543 33.9711 44.4914 34.3493 44.4264 34.7154C44.8995 35.6496 45.1268 36.4709 45.5317 37.434C45.9773 38.4947 46.1942 39.1908 46.2248 40.326C46.2516 41.3336 46.2787 42.3416 46.3057 43.3492C46.7551 44.1478 46.7944 44.3421 46.729 45.2559C46.5906 47.1819 45.5298 47.3656 43.762 47.3545C43.173 47.3508 40.9499 47.3645 40.3832 47.3236C39.2567 47.2422 38.5144 47.1561 38.1261 46.6908ZM44.0869 36.1844C43.7313 37.4544 43.2533 38.6533 42.8169 40.0274C42.404 41.3282 40.2861 45.1055 39.0394 46.021C39.2821 46.2017 39.7275 46.2725 40.5208 46.341C41.0821 46.3894 43.295 46.3997 43.8507 46.4093C45.0739 46.4306 45.5382 46.3387 45.6619 44.9457C45.7223 44.2639 45.669 44.1364 45.3279 43.5387C45.2977 42.4725 45.2675 41.4061 45.2374 40.34C45.209 39.3292 45.015 38.747 44.6176 37.8051C44.3797 37.2414 44.2506 36.7151 44.0869 36.1844ZM6.82659 18.7375C7.10119 18.7063 7.27105 18.8503 7.48344 19.0626C7.44415 18.5555 7.35045 18.1794 6.9944 17.9721C6.96944 18.0546 6.94595 18.137 6.9238 18.2207C6.8807 18.384 6.84993 18.5574 6.82659 18.7375ZM8.55204 22.4017C8.35436 22.9131 8.17098 23.4403 7.99831 23.985C7.96968 24.075 7.94224 24.1657 7.91552 24.2558C6.87098 24.6989 5.49753 24.9804 4.97176 23.8826C4.71645 23.3498 4.57236 22.827 4.38616 22.1535C2.666 20.3715 5.23736 18.0189 6.63796 17.175C6.43528 17.6107 6.29134 17.9405 6.19307 18.2801C5.76718 19.7518 6.38584 21.0653 5.05007 22.1323C5.67782 23.399 5.64891 23.9042 7.10943 23.3188C7.67288 23.0931 8.13749 22.7762 8.55204 22.4017ZM8.14954 34.3942C8.94129 37.1325 10.2896 39.823 11.7845 42.085C11.7843 42.0981 11.7842 42.1111 11.7841 42.1244C11.6905 42.5133 11.5821 42.8923 11.3549 43.1965C10.2865 44.6259 7.56866 42.5277 6.782 41.7245C5.92204 40.8465 5.34644 39.8065 5.2094 38.8314C5.10975 38.1199 5.20645 38.1027 5.70278 37.5995C6.37169 36.9223 7.04127 36.2446 7.70989 35.5676C7.85627 35.1763 8.00317 34.7854 8.14954 34.3942ZM58.7452 12.416C58.8976 12.5666 59.0206 12.746 59.1054 12.9445C59.1516 12.9021 59.201 12.862 59.2527 12.824C59.1901 12.6829 59.1263 12.5438 59.0613 12.4068C58.953 12.4091 58.8478 12.4121 58.7452 12.416ZM45.6576 17.3412C45.5182 17.049 45.4516 16.7407 45.4491 16.4363C44.9363 16.8459 44.3788 17.2343 43.8002 17.4587C44.599 16.7453 45.6841 15.063 46.4703 14.5319C47.3625 13.929 48.5734 14.0464 49.6136 13.5651C49.2585 13.8879 48.8033 14.1479 48.3399 14.3954C48.8505 14.5822 49.2916 14.9603 49.5433 15.488C49.6494 15.7105 49.7128 15.9429 49.7385 16.1754C50.4374 15.9458 51.1237 15.8372 51.7033 15.8455C49.6298 16.4276 47.4242 17.7889 45.9035 19.5916C46.0744 19.1215 46.3131 18.6972 46.6007 18.3183C46.2021 18.11 45.8655 17.7769 45.6576 17.3412ZM36.0419 9.83997C34.8969 10.2868 33.8525 10.622 32.7363 10.9025C31.7178 12.241 31.0974 12.9345 30.863 14.7287C30.5873 12.9637 30.5299 12.636 31.3155 11.3186C31.0878 11.4343 30.8761 11.5934 30.5727 11.8527C29.4753 12.7912 28.0447 16.4789 27.4727 17.7973C27.8358 16.2104 28.9715 12.2438 30.1412 11.0878C30.9104 10.3273 31.0848 10.3447 32.1695 10.2421C33.4614 10.1197 34.7507 9.98591 36.0419 9.83997ZM59.9412 13.6878C60.8701 13.7757 61.4011 13.9191 62.2329 13.5077C63.7832 12.7405 64.9239 11.4881 65.6635 9.9901C65.2111 11.7772 64.3005 13.2959 62.4116 13.9695C61.484 14.3 60.8859 13.9587 59.9412 13.6878ZM42.1146 13.8624C42.4646 12.3126 43.086 10.8194 45.4929 9.66415C42.3027 10.463 41.7046 11.8028 42.1146 13.8624ZM0.748344 22.2087C1.02204 19.1093 1.62479 17.7714 3.82686 15.4391C1.06482 17.3853 0.375569 18.2696 0.748344 22.2087Z" fill="black"/>
<path fill-rule="evenodd" clip-rule="evenodd" d="M46.0717 17.841C45.8585 17.3951 46.0491 16.8579 46.4961 16.6452C46.9431 16.4323 47.4815 16.6225 47.6947 17.0687C47.7149 17.1109 47.731 17.1544 47.7441 17.198C47.3173 17.5146 46.9259 17.8879 46.5979 18.3203C46.3767 18.2315 46.1812 18.07 46.0717 17.841Z" fill="#EDD749"/>
<path fill-rule="evenodd" clip-rule="evenodd" d="M56.057 13.9791C56.0927 13.6097 56.4077 13.3373 56.777 13.373C57.1463 13.4087 57.4189 13.7388 57.3834 14.1083C57.3758 14.1869 57.3545 14.2606 57.3226 14.3285C56.9845 14.386 56.6465 14.4852 56.2982 14.6133C56.1525 14.4642 56.0366 14.192 56.057 13.9791Z" fill="#EDD749"/>
</svg>
