<svg width="138" height="71" viewBox="0 0 138 71" fill="none" xmlns="http://www.w3.org/2000/svg">
<path d="M0 64.6681H4.54346V46.7825L11.5769 62.3745C12.407 64.2615 13.543 64.9295 15.7709 64.9295C17.9991 64.9295 19.0912 64.2618 19.9216 62.3745L26.9551 46.7825V64.6678H31.4985V46.8117C31.4985 45.0694 30.7994 44.2275 29.3581 43.7923C25.9068 42.718 23.5912 43.647 22.5425 45.9698L15.6399 61.3581L8.95602 45.9698C7.95123 43.647 5.59212 42.718 2.14083 43.7923C0.699103 44.2275 0 45.0698 0 46.8114V64.6681ZM35.2764 50.1102H39.8184V59.9638C39.776 60.4992 39.9907 61.7556 42.4797 61.7943C43.7495 61.8145 52.2799 61.7943 52.3595 61.7943V50.0622H56.9121C56.933 50.0622 56.9075 66.062 56.9079 66.1301C56.9327 70.0761 51.9965 70.9331 49.7212 70.9994H35.3747V67.9521C35.4002 67.9521 49.7106 67.9553 49.7467 67.9518C52.6708 67.6439 52.3255 66.195 52.3252 65.7072V64.5193H42.6679C38.1747 64.478 35.3139 62.523 35.2785 60.2746C35.275 60.0661 35.3755 50.2086 35.276 50.1098L35.2764 50.1102Z" fill="#00618A"/>
<path d="M60.4144 64.6668H73.4766C75.0057 64.6668 76.491 64.3477 77.6709 63.7957C79.6366 62.896 80.5978 61.6767 80.5978 60.0793V56.7696C80.5978 55.4628 79.5057 54.2432 77.3648 53.4306C76.2288 52.9947 74.8309 52.7626 73.4766 52.7626H67.9715C66.1374 52.7626 65.2636 52.211 65.0453 50.9917C65.0014 50.8464 65.0014 50.73 65.0014 50.585V48.5238C65.0014 48.4075 65.0014 48.2911 65.0453 48.1461C65.2636 47.2171 65.7444 46.9554 67.3605 46.8104C67.4914 46.8104 67.6662 46.7812 67.7975 46.7812H80.7726V43.7621H68.0157C66.181 43.7621 65.2197 43.8781 64.3462 44.1391C61.6375 44.9813 60.4579 46.317 60.4579 48.6395V51.282C60.4579 53.3146 62.7735 55.0565 66.6614 55.4628C67.0987 55.4918 67.5353 55.5207 67.9719 55.5207H72.6901C72.8652 55.5207 73.04 55.5207 73.1709 55.55C74.6126 55.6663 75.224 55.9273 75.6613 56.45C75.9231 56.711 76.0105 56.9727 76.0105 57.263V59.9047C76.0105 60.2246 75.7922 60.6313 75.3556 60.9794C74.9622 61.3279 74.307 61.5603 73.4331 61.6185C73.2583 61.6185 73.1274 61.6474 72.9526 61.6474H60.4141V64.6665L60.4144 64.6668ZM108.941 59.4116C108.941 62.5182 111.256 64.2605 115.931 64.609C116.368 64.6379 116.805 64.6668 117.242 64.6668H129.081V61.6474H117.154C114.489 61.6474 113.485 60.9794 113.485 59.3827V43.7617H108.941V59.4116ZM83.4975 59.57V48.8046C83.4975 46.0698 85.424 44.411 89.2322 43.8873C89.6383 43.8295 90.048 43.8004 90.4581 43.8002H99.0823C99.52 43.8002 99.9144 43.8294 100.352 43.8873C104.161 44.411 106.087 46.0698 106.087 48.8046V59.5697C106.087 61.7881 105.269 62.976 103.383 63.7498L107.859 67.7769H102.583L98.9627 64.5187L95.3176 64.749H90.4581C89.6264 64.749 88.7511 64.6323 87.7877 64.3706C84.8986 63.5851 83.4975 62.072 83.4975 59.5697V59.57ZM88.4012 59.3083C88.4012 59.454 88.445 59.5993 88.4889 59.7739C88.7514 61.0249 89.9335 61.7232 91.7283 61.7232H95.856L92.0644 58.3109H97.3395L100.647 61.2869C101.256 60.9632 101.657 60.468 101.797 59.8321C101.841 59.6867 101.841 59.5411 101.841 59.3958V49.067C101.841 48.9506 101.841 48.805 101.797 48.6593C101.534 47.4954 100.352 46.8267 98.6015 46.8267H91.7283C89.7148 46.8267 88.4015 47.6996 88.4015 49.067V59.3083H88.4012Z" fill="#E48E00"/>
<path d="M133.079 38.7545C130.287 38.679 128.153 38.9379 126.33 39.7047C125.811 39.9227 124.985 39.9283 124.9 40.5759C125.185 40.8735 125.229 41.3179 125.456 41.684C125.891 42.3866 126.626 43.328 127.282 43.8217C127.999 44.3614 128.738 44.938 129.506 45.4054C130.873 46.236 132.399 46.7103 133.715 47.5427C134.491 48.0333 135.261 48.6512 136.018 49.205C136.392 49.4787 136.643 49.9044 137.13 50.0761V49.9968C136.874 49.6727 136.808 49.2268 136.574 48.8883L135.541 47.8591C134.532 46.5234 133.25 45.3503 131.888 44.3758C130.802 43.5985 128.371 42.5489 127.918 41.2883L127.838 41.209C128.608 41.1225 129.51 40.8446 130.221 40.6552C131.415 40.3357 132.482 40.4182 133.715 40.1008C134.27 39.9424 134.827 39.7837 135.383 39.6257V39.309C134.759 38.6713 134.315 37.8276 133.635 37.2506C131.857 35.7411 129.916 34.2329 127.918 32.9756C126.809 32.2779 125.439 31.8247 124.265 31.2336C123.87 31.035 123.175 30.9317 122.914 30.6001C122.297 29.8161 121.961 28.8218 121.485 27.9083C120.488 25.995 119.509 23.9049 118.626 21.8913C118.024 20.5186 117.63 19.165 116.879 17.933C113.273 12.0228 109.392 8.45598 103.379 4.94946C102.1 4.20385 100.559 3.909 98.9315 3.52455L96.3109 3.36584C95.7777 3.14364 95.223 2.49362 94.7224 2.17831C92.7305 0.924111 87.6216 -1.80472 86.1463 1.78258C85.2148 4.0469 87.5385 6.25656 88.3696 7.40388C88.953 8.20874 89.6998 9.11094 90.1166 10.0163C90.3908 10.6113 90.4382 11.2077 90.6728 11.8373C91.2502 13.3881 91.7519 15.0751 92.4991 16.5081C92.8766 17.2332 93.2927 17.9972 93.7699 18.6454C94.0625 19.0436 94.5639 19.2189 94.6431 19.8333C94.1527 20.5176 94.1248 21.5792 93.8492 22.4458C92.6081 26.3473 93.0761 31.1962 94.8816 34.0837C95.4356 34.9701 96.7404 36.8711 98.5345 36.1421C100.104 35.5048 99.7533 33.53 100.202 31.788C100.304 31.393 100.241 31.1024 100.44 30.8379V30.9172L101.87 33.767C102.928 35.4653 104.806 37.2404 106.397 38.4382C107.222 39.0593 107.871 40.1332 108.938 40.4965V40.4171H108.858C108.652 40.0962 108.328 39.9629 108.064 39.7047C107.443 39.0973 106.752 38.3422 106.238 37.6463C104.791 35.6878 103.512 33.5445 102.347 31.3129C101.79 30.2478 101.307 29.0719 100.837 27.9877C100.657 27.5698 100.659 26.9377 100.282 26.7208C99.7682 27.5154 99.0114 28.1581 98.6141 29.0962C97.9787 30.5959 97.8966 32.4246 97.6613 34.3211C97.5219 34.3708 97.5835 34.3366 97.5021 34.4001C96.3962 34.1342 96.0073 32.9992 95.5966 32.0254C94.5564 29.5629 94.3636 25.5975 95.2782 22.7628C95.5152 22.0292 96.5851 19.719 96.152 19.0419C95.9454 18.3657 95.2633 17.9746 94.8816 17.4583C94.4092 16.8195 93.9376 15.9787 93.6107 15.2412C92.7598 13.3211 92.3625 11.1658 91.4667 9.22486C91.0386 8.29692 90.3144 7.35803 89.7197 6.53307C89.0612 5.61958 88.3239 4.94593 87.8138 3.84093C87.6323 3.44837 87.3857 2.81986 87.6545 2.41602C87.7405 2.14374 87.8612 2.02982 88.1315 1.94094C88.5921 1.58718 89.875 2.05874 90.3547 2.25766C91.6284 2.78495 92.6912 3.28719 93.7699 3.99929C94.2879 4.34176 94.8115 5.00377 95.4374 5.18717H96.152C97.27 5.44323 98.5225 5.26653 99.5669 5.5829C101.413 6.14228 103.067 7.01204 104.57 7.95797C109.147 10.8392 112.89 14.9407 115.45 19.8333C115.862 20.6209 116.04 21.3728 116.403 22.2084C117.135 23.8936 118.057 25.6274 118.785 27.2753C119.511 28.9188 120.22 30.5783 121.247 31.9464C121.787 32.6655 123.873 33.0514 124.82 33.4503C125.485 33.7303 126.574 34.022 127.203 34.4001C128.405 35.1231 129.57 35.9837 130.697 36.7755C131.261 37.1713 132.993 38.0392 133.079 38.7545Z" fill="#00618A"/>
<path fill-rule="evenodd" clip-rule="evenodd" d="M97.5781 8.59085C96.9958 8.58027 96.584 8.65434 96.1484 8.74886V8.82822H96.228C96.5058 9.39712 96.9958 9.76322 97.3397 10.2531C97.6042 10.8074 97.869 11.3616 98.1339 11.9157L98.2132 11.8367C98.705 11.4911 98.9303 10.9384 98.9279 10.0951C98.7308 9.88843 98.7014 9.62884 98.5309 9.38231C98.3038 9.05359 97.8644 8.86737 97.5781 8.59085Z" fill="#00618A"/>
<path fill-rule="evenodd" clip-rule="evenodd" d="M131.211 61.5641C131.211 63.5583 132.792 64.9021 134.56 64.9021C136.328 64.9021 137.908 63.5583 137.908 61.5641C137.908 59.5703 136.328 58.2266 134.56 58.2266C132.792 58.2266 131.211 59.5703 131.211 61.5641H131.211ZM137.158 61.5641C137.158 63.0772 135.997 64.208 134.56 64.208C133.104 64.208 131.961 63.0772 131.961 61.5641C131.961 60.0511 133.104 58.9203 134.56 58.9203C135.997 58.9203 137.158 60.0511 137.158 61.5641ZM135.462 63.4687H136.212L135.114 61.7959C135.703 61.7334 136.149 61.4485 136.149 60.7544C136.149 59.9798 135.658 59.6596 134.712 59.6596H133.221V63.4687H133.863V61.8223H134.461L135.462 63.4687ZM133.863 61.2883V60.1936H134.604C134.988 60.1936 135.453 60.2648 135.453 60.7099C135.453 61.2435 135.033 61.2883 134.55 61.2883H133.863Z" fill="#E48E00"/>
</svg>
