<svg width="42" height="92" viewBox="0 0 42 92" fill="none" xmlns="http://www.w3.org/2000/svg">
<path d="M40.6204 36.6118C35.7664 15.2304 25.6493 9.53839 23.0685 5.51473C22.0043 3.74221 21.0615 1.89975 20.2467 0C20.1104 1.89945 19.8599 3.0961 18.243 4.53651C14.9963 7.42684 1.20778 18.6462 0.0473762 42.9402C-1.03377 65.5911 16.7243 79.5583 19.0705 81.0019C20.8745 81.8883 23.0716 81.0209 24.1433 80.2073C32.7037 74.3412 44.3997 58.7024 40.6299 36.6118" fill="#10AA50"/>
<path d="M20.9804 68.9414C20.5334 74.5479 20.2132 77.8055 19.0781 81.0092C19.0781 81.0092 19.8232 86.3467 20.3463 92.0007H22.1979C22.6396 88.0192 23.3139 84.0669 24.2175 80.164C21.8206 78.9863 21.0724 73.861 20.9804 68.9414Z" fill="#B8C4C2"/>
<path d="M24.2156 80.1654C21.7933 79.0479 21.0926 73.815 20.9848 68.9397C21.5838 60.8976 21.7585 52.8296 21.5079 44.7692C21.3811 40.5398 21.5682 5.59631 20.4648 0.480469C21.2196 2.21315 22.0892 3.89367 23.0678 5.51084C25.6486 9.53767 35.7689 15.2297 40.6198 36.6111C44.399 58.6637 32.7664 74.2613 24.2156 80.1654Z" fill="#12924F"/>
</svg>
