<svg width="221" height="33" viewBox="0 0 221 33" fill="none" xmlns="http://www.w3.org/2000/svg">
<g clip-path="url(#clip0_746_38066)">
<path fill-rule="evenodd" clip-rule="evenodd" d="M53.7671 10.0742C51.3926 10.0742 49.3573 10.9281 47.6612 12.2942V10.4158H41.8945V32.4452H47.8308V18.442C48.6789 17.2466 50.7142 15.7097 53.2583 15.7097C54.1063 15.7097 54.9544 15.8804 55.6328 16.0512V10.4158C54.9544 10.245 54.276 10.0742 53.7671 10.0742Z" fill="#293E40"/>
<path fill-rule="evenodd" clip-rule="evenodd" d="M2.71374 25.6133C4.24022 26.9794 6.61474 27.8333 8.65004 27.8333C10.1765 27.8333 11.5334 26.9794 11.5334 25.9548C11.5334 22.5394 0.848043 23.7348 0.848043 16.7332C0.848043 12.4639 4.91865 9.90234 9.15886 9.90234C12.0422 9.90234 15.0952 10.927 16.6216 12.1224L13.9079 16.3916C12.7206 15.7085 11.3638 14.8547 9.66769 14.8547C7.9716 14.8547 6.78434 15.5378 6.78434 16.7332C6.78434 19.6363 17.4697 18.4409 17.4697 26.1256C17.4697 30.3948 13.3991 32.9564 8.81965 32.9564C5.76669 32.9564 2.54413 31.9318 0 30.0533L2.71374 25.6133Z" fill="#293E40"/>
<path fill-rule="evenodd" clip-rule="evenodd" d="M39.3479 21.1732C39.3479 15.0255 35.1077 9.90234 29.0017 9.90234C22.5566 9.90234 18.3164 15.367 18.3164 21.344C18.3164 28.3456 23.2351 32.7856 29.6802 32.7856C33.0724 32.7856 36.4645 31.4195 38.6694 28.8579L35.2773 25.4425C34.2596 26.6379 32.2243 28.004 29.8498 28.004C26.7968 28.004 24.2527 25.784 23.9135 22.7101H39.0087C39.3479 22.3686 39.3479 21.8563 39.3479 21.1732ZM24.4223 18.6117C24.7615 16.5624 26.7968 14.6839 29.1714 14.6839C31.5459 14.6839 33.242 16.5624 33.5812 18.6117H24.4223Z" fill="#293E40"/>
<path fill-rule="evenodd" clip-rule="evenodd" d="M81.4125 10.418L71.4056 32.4474H67.335L57.3281 10.418H63.2644L69.3703 23.9089L75.3066 10.418H81.4125Z" fill="#293E40"/>
<path fill-rule="evenodd" clip-rule="evenodd" d="M86.329 0C88.534 0 90.23 1.70771 90.23 3.75696C90.23 5.97698 88.534 7.51391 86.329 7.51391C84.1241 7.51391 82.5977 5.80621 82.5977 3.75696C82.5977 1.53694 84.1241 0 86.329 0Z" fill="#293E40"/>
<path d="M89.3855 10.418H83.4492V32.4474H89.3855V10.418Z" fill="#293E40"/>
<path fill-rule="evenodd" clip-rule="evenodd" d="M113.47 27.8333C110.926 31.2487 107.703 32.7856 103.633 32.7856C96.8483 32.7856 91.9297 27.6625 91.9297 21.344C91.9297 14.8547 97.0179 9.90234 103.633 9.90234C107.534 9.90234 110.756 11.7808 112.792 14.3424L108.891 17.9286C107.703 16.3916 106.007 15.367 103.972 15.367C100.58 15.367 98.0356 18.0993 98.0356 21.344C98.0356 24.7594 100.41 27.321 103.972 27.321C106.346 27.321 108.212 25.9548 109.23 24.4179L113.47 27.8333Z" fill="#293E40"/>
<path fill-rule="evenodd" clip-rule="evenodd" d="M134.669 28.8579C132.465 31.4195 129.072 32.7856 125.68 32.7856C119.235 32.7856 114.316 28.3456 114.316 21.344C114.316 15.1962 118.387 9.90234 125.002 9.90234C130.938 9.90234 135.348 15.0255 135.348 21.1732C135.348 21.8563 135.348 22.3686 135.178 22.8809H119.913C120.253 25.9548 122.797 28.1748 125.85 28.1748C128.224 28.1748 130.26 26.8086 131.277 25.6133L134.669 28.8579ZM129.242 18.6117C129.072 16.7332 127.376 14.6839 124.832 14.6839C122.458 14.6839 120.422 16.5624 120.083 18.6117H129.242Z" fill="#293E40"/>
<path fill-rule="evenodd" clip-rule="evenodd" d="M137.551 32.4413V10.4119H143.148V12.2903C144.844 10.9242 146.879 10.0703 149.254 10.0703C152.307 10.0703 155.02 11.4365 156.886 13.6565C158.243 15.3642 159.261 17.5842 159.261 21.3412V32.612H153.324V20.8289C153.324 18.6088 152.816 17.4135 151.968 16.7304C151.119 15.8765 150.102 15.3642 148.575 15.3642C146.201 15.3642 144.166 16.9011 143.148 18.0965V32.4413H137.551Z" fill="#293E40"/>
<path fill-rule="evenodd" clip-rule="evenodd" d="M174.357 9.90625C167.234 9.90625 161.637 15.5417 161.637 22.7141C161.637 26.471 163.163 29.8864 165.538 32.2772C166.386 33.1311 167.912 33.1311 168.93 32.448C170.287 31.2526 172.322 30.5695 174.357 30.5695C176.562 30.5695 178.258 31.2526 179.785 32.448C180.802 33.3018 182.159 33.1311 183.177 32.1064C185.552 29.7157 187.078 26.471 187.078 22.7141C186.908 15.7125 181.311 9.90625 174.357 9.90625ZM174.188 29.3741C170.287 29.3741 167.743 26.471 167.743 22.8848C167.743 19.2986 170.287 16.3955 174.188 16.3955C178.089 16.3955 180.633 19.2986 180.633 22.8848C180.633 26.471 178.089 29.3741 174.188 29.3741Z" fill="#81B5A1"/>
<path fill-rule="evenodd" clip-rule="evenodd" d="M185.551 10.418H191.317L196.067 23.055L200.816 10.418H205.734L210.314 23.055L215.063 10.418H220.999L212.349 32.4474H207.939L203.19 19.9811L198.611 32.4474H194.201L185.551 10.418Z" fill="#293E40"/>
</g>
<defs>
<clipPath id="clip0_746_38066">
<rect width="221" height="33" fill="white"/>
</clipPath>
</defs>
</svg>
