<svg width="108" height="76" viewBox="0 0 108 76" fill="none" xmlns="http://www.w3.org/2000/svg">
<g clip-path="url(#clip0_746_38041)">
<mask id="mask0_746_38041" style="mask-type:luminance" maskUnits="userSpaceOnUse" x="0" y="0" width="108" height="76">
<path d="M0.0234375 0.199219H107.628V75.8013H0.0234375V0.199219Z" fill="white"/>
</mask>
<g mask="url(#mask0_746_38041)">
<path fill-rule="evenodd" clip-rule="evenodd" d="M44.7045 8.4745C48.1779 4.83764 53.0122 2.58549 58.3528 2.58549C65.4737 2.58549 71.6452 6.56455 74.9682 12.4933C77.918 11.167 81.113 10.4823 84.3441 10.4839C97.1616 10.4839 107.566 21.0284 107.566 34.0399C107.566 47.0515 97.1616 57.596 84.3441 57.596C82.7775 57.596 81.2504 57.4376 79.7551 57.1384C76.8474 62.3509 71.2891 65.8923 64.9594 65.8923C62.3824 65.8974 59.8384 65.3094 57.5221 64.1733C54.5748 71.1367 47.7111 76.0309 39.7199 76.0309C31.3726 76.0309 24.2913 70.7388 21.5616 63.298C20.3467 63.5558 19.1084 63.6855 17.8667 63.6847C7.93702 63.6847 -0.09375 55.4879 -0.09375 45.4208C-0.09375 38.6564 3.52207 32.7674 8.88647 29.5842C7.74841 26.9473 7.16261 24.1028 7.16559 21.2282C7.16559 9.60933 16.5414 0.21875 28.0931 0.21875C34.8579 0.21875 40.9106 3.46168 44.7085 8.49519" fill="#00A1E0"/>
</g>
<path fill-rule="evenodd" clip-rule="evenodd" d="M15.587 39.5111C15.5193 39.6886 15.6111 39.7256 15.6329 39.757C15.835 39.9042 16.0403 40.0109 16.246 40.1306C17.3458 40.7156 18.3823 40.8867 19.4663 40.8867C21.6737 40.8867 23.0465 39.7049 23.0465 37.8029V37.7655C23.0465 36.0067 21.4957 35.3661 20.0478 34.9085L19.8583 34.8468C18.7625 34.4895 17.817 34.1784 17.817 33.4542V33.4172C17.817 32.7964 18.3708 32.3388 19.2253 32.3388C20.1748 32.3388 21.3062 32.6568 22.0302 33.0591C22.0302 33.0591 22.2446 33.1983 22.3225 32.9902C22.3649 32.8776 22.734 31.884 22.7735 31.7726C22.8155 31.656 22.7419 31.5681 22.6663 31.5227C21.8355 31.0134 20.6883 30.6672 19.5015 30.6672L19.2811 30.668C17.2596 30.668 15.8473 31.8976 15.8473 33.6563V33.6941C15.8473 35.5484 17.406 36.1532 18.8618 36.571L19.096 36.6442C20.1562 36.9721 21.074 37.257 21.074 38.005V38.0424C21.074 38.7308 20.4766 39.2441 19.5193 39.2441C19.147 39.2441 17.9606 39.2377 16.6749 38.4204C16.5194 38.3293 16.4308 38.2637 16.3109 38.1901C16.2476 38.1515 16.0894 38.0818 16.0205 38.2903L15.5854 39.5079M47.9063 39.5079C47.8386 39.6854 47.9304 39.7224 47.9529 39.7538C48.1543 39.901 48.3604 40.0077 48.5661 40.1275C49.6659 40.7124 50.7024 40.8835 51.7864 40.8835C53.9938 40.8835 55.3666 39.7017 55.3666 37.7997V37.7623C55.3666 36.0036 53.8198 35.3629 52.3679 34.9053L52.1784 34.8437C51.0826 34.4863 50.1371 34.1752 50.1371 33.451V33.414C50.1371 32.7933 50.6909 32.3357 51.5454 32.3357C52.4949 32.3357 53.6223 32.6536 54.3503 33.0559C54.3503 33.0559 54.5647 33.1951 54.643 32.987C54.6849 32.8744 55.0544 31.8809 55.09 31.7694C55.1324 31.6529 55.0584 31.5649 54.9832 31.5196C54.1525 31.0102 53.0052 30.6641 51.8184 30.6641L51.5976 30.6649C49.5761 30.6649 48.1638 31.8944 48.1638 33.6531V33.6909C48.1638 35.5452 49.7225 36.15 51.1783 36.5678L51.4121 36.641C52.4763 36.9689 53.3901 37.2538 53.3901 38.0018V38.0392C53.3901 38.7276 52.7928 39.2409 51.8354 39.2409C51.4623 39.2409 50.2728 39.2346 48.991 38.4173C48.8355 38.3261 48.7445 38.2633 48.6267 38.1869C48.5867 38.1614 48.4004 38.0882 48.3367 38.2871L47.9015 39.5047M69.9762 35.7803C69.9762 36.8547 69.7769 37.7022 69.3868 38.3031C68.9975 38.8959 68.4096 39.1864 67.5907 39.1864C66.7718 39.1864 66.1863 38.8983 65.8026 38.307C65.4161 37.7102 65.2211 36.8587 65.2211 35.7843C65.2211 34.71 65.4173 33.8664 65.8026 33.2735C66.1856 32.6846 66.7679 32.4021 67.5907 32.4021C68.4136 32.4021 68.9991 32.6874 69.3868 33.2735C69.7792 33.8664 69.9762 34.71 69.9762 35.7843M71.8198 33.7908C71.6382 33.1741 71.3569 32.6329 70.9811 32.1793C70.6049 31.7257 70.1305 31.3596 69.5648 31.097C69.0031 30.8324 68.3384 30.6991 67.5868 30.6991C66.8351 30.6991 66.1745 30.8332 65.6088 31.097C65.047 31.3612 64.5683 31.7257 64.1925 32.1793C63.8175 32.6329 63.5358 33.1741 63.3538 33.7908C63.1738 34.4036 63.0824 35.0721 63.0824 35.7843C63.0824 36.4966 63.1738 37.165 63.3538 37.7778C63.5346 38.3946 63.8167 38.9357 64.1925 39.3893C64.5687 39.843 65.047 40.205 65.6088 40.4637C66.1745 40.7215 66.8391 40.8528 67.5868 40.8528C68.3345 40.8528 68.9991 40.7215 69.5609 40.4637C70.1226 40.2058 70.6013 39.843 70.9771 39.3893C71.3525 38.9357 71.6338 38.3946 71.8158 37.7778C71.9954 37.165 72.0868 36.4966 72.0868 35.7843C72.0868 35.076 71.9954 34.4036 71.8158 33.7908M86.9674 38.884C86.9069 38.7037 86.7321 38.7718 86.7321 38.7718C86.4642 38.8748 86.1782 38.9703 85.8736 39.0181C85.5666 39.0666 85.2248 39.0909 84.8648 39.0909C83.9747 39.0909 83.2626 38.8239 82.7562 38.2951C82.2459 37.7659 81.9611 36.9144 81.965 35.7604C81.9678 34.71 82.2202 33.9221 82.6732 33.3173C83.1202 32.7204 83.8085 32.4101 84.7184 32.4101C85.478 32.4101 86.0595 32.4988 86.6688 32.6906C86.6688 32.6906 86.8132 32.7539 86.8824 32.5625C87.0442 32.1128 87.1637 31.7905 87.3373 31.2971C87.3864 31.1559 87.2661 31.0962 87.2222 31.0791C86.9833 30.9852 86.4191 30.8312 85.9919 30.7663C85.5923 30.705 85.1295 30.6732 84.6073 30.6732C83.8319 30.6732 83.1435 30.8065 82.5541 31.0707C81.9646 31.3345 81.4662 31.6994 81.0706 32.153C80.675 32.6066 80.3743 33.1478 80.1725 33.7645C79.9728 34.3773 79.8719 35.0498 79.8719 35.762C79.8719 37.2979 80.2833 38.5434 81.0983 39.4546C81.9132 40.3698 83.1396 40.8313 84.7378 40.8313C85.6833 40.8313 86.6525 40.6392 87.3488 40.3618C87.3488 40.3618 87.4817 40.2974 87.424 40.1414L86.969 38.884M90.1932 34.7458C90.2814 34.1489 90.444 33.6515 90.6996 33.2656C91.0821 32.6767 91.6649 32.3544 92.4838 32.3544C93.3027 32.3544 93.8446 32.6783 94.2323 33.2656C94.4895 33.6535 94.6018 34.1688 94.6438 34.7458L90.1734 34.745L90.1932 34.7458ZM96.4042 33.4327C96.2471 32.8398 95.8583 32.239 95.6051 31.9644C95.2016 31.5307 94.8099 31.2243 94.4183 31.0572C93.8528 30.8154 93.2446 30.6912 92.6301 30.6923C91.8508 30.6923 91.1427 30.8248 90.569 31.0942C89.9954 31.3656 89.5128 31.7348 89.133 32.1964C88.7536 32.658 88.4684 33.2031 88.2864 33.8278C88.1044 34.4446 88.0126 35.121 88.0126 35.8293C88.0126 36.5535 88.108 37.2259 88.2955 37.8347C88.485 38.4475 88.79 38.9847 89.2014 39.4303C89.6129 39.88 90.139 40.2301 90.772 40.4768C91.401 40.7215 92.1645 40.8485 93.0388 40.8457C94.8427 40.8397 95.7922 40.4358 96.1799 40.217C96.2491 40.178 96.3144 40.1107 96.2329 39.917L95.8254 38.767C95.7629 38.5955 95.5904 38.6576 95.5904 38.6576C95.1434 38.8255 94.5104 39.1271 93.0269 39.1231C92.0577 39.1215 91.3416 38.8339 90.8907 38.383C90.4318 37.9215 90.2023 37.249 90.1667 36.294L96.4172 36.2988C96.4172 36.2988 96.5818 36.2972 96.5988 36.1357C96.6056 36.0688 96.8129 34.8464 96.4125 33.4339L96.4042 33.4327ZM40.2284 34.7458C40.3166 34.1489 40.4796 33.6515 40.7347 33.2656C41.1177 32.6767 41.7 32.3544 42.5189 32.3544C43.3378 32.3544 43.8798 32.6783 44.2675 33.2656C44.5242 33.6535 44.6366 34.1688 44.6789 34.7458L40.2086 34.745L40.2284 34.7458ZM46.4394 33.4327C46.2827 32.8398 45.8934 32.239 45.6402 31.9644C45.2367 31.5307 44.8451 31.2243 44.4534 31.0572C43.888 30.8154 43.2797 30.6912 42.6653 30.6923C41.886 30.6923 41.1778 30.8248 40.6042 31.0942C40.0306 31.3656 39.5479 31.7348 39.1682 32.1964C38.7896 32.658 38.5035 33.2031 38.3216 33.8278C38.14 34.4446 38.0486 35.121 38.0486 35.8293C38.0486 36.5535 38.1431 37.2259 38.3318 37.8347C38.5209 38.4475 38.8264 38.9847 39.2338 39.4303C39.6453 39.88 40.1714 40.2301 40.8044 40.4768C41.4334 40.7215 42.1929 40.8485 43.0712 40.8457C44.8751 40.8397 45.8246 40.4358 46.2123 40.217C46.2811 40.178 46.3468 40.1107 46.2649 39.917L45.8574 38.767C45.7945 38.5955 45.622 38.6576 45.622 38.6576C45.175 38.8255 44.542 39.1271 43.0585 39.1231C42.0933 39.1215 41.3732 38.8339 40.9223 38.383C40.4634 37.9215 40.2339 37.249 40.1983 36.294L46.4489 36.2988C46.4489 36.2988 46.6134 36.2972 46.6304 36.1357C46.6372 36.0688 46.8445 34.8464 46.4437 33.4339L46.4394 33.4327ZM26.7383 38.8442C26.4934 38.6476 26.4594 38.5995 26.3783 38.4718C26.2544 38.2796 26.1911 38.0062 26.1911 37.6561C26.1911 37.107 26.3731 36.709 26.7489 36.4424C26.745 36.4432 27.287 35.9729 28.5608 35.9888C29.1278 35.999 29.6935 36.0476 30.254 36.1341V38.9871H30.2548C30.2548 38.9871 29.4636 39.1586 28.5695 39.2127C27.2996 39.2895 26.7379 38.845 26.7418 38.8462L26.7383 38.8442ZM29.2227 34.4275C28.9695 34.4088 28.6411 34.3996 28.2495 34.3996C27.7154 34.3996 27.1972 34.4665 26.7145 34.5978C26.2279 34.7299 25.7888 34.9344 25.413 35.2066C25.0361 35.477 24.7262 35.8309 24.5071 36.2411C24.2859 36.6549 24.1732 37.1404 24.1732 37.6895C24.1732 38.2466 24.2693 38.728 24.4592 39.1219C24.6453 39.5127 24.9254 39.8505 25.2741 40.1048C25.6211 40.3586 26.0495 40.5464 26.544 40.6579C27.0346 40.7705 27.5884 40.8274 28.1976 40.8274C28.8385 40.8274 29.4754 40.7733 30.0926 40.6686C30.6182 40.5774 31.1419 40.475 31.6631 40.3614C31.8712 40.3133 32.1023 40.25 32.1023 40.25C32.2565 40.2106 32.2447 40.0447 32.2447 40.0447L32.2411 34.3148C32.2411 33.0575 31.9072 32.1224 31.2482 31.5454C30.5914 30.9685 29.6301 30.678 28.384 30.678C27.9172 30.678 27.1616 30.7417 26.7106 30.8328C26.7106 30.8328 25.3497 31.0986 24.7879 31.541C24.7879 31.541 24.6645 31.6174 24.7318 31.7905L25.1748 32.9843C25.2298 33.139 25.3798 33.0861 25.3798 33.0861C25.3798 33.0861 25.4268 33.0674 25.4822 33.0344C26.6809 32.3778 28.2 32.3977 28.2 32.3977C28.8725 32.3977 29.3947 32.535 29.7429 32.8036C30.0835 33.0666 30.2572 33.4641 30.2572 34.2997V34.5651C29.7231 34.4871 29.2286 34.4422 29.2286 34.4422L29.2227 34.4275ZM79.4644 31.1925C79.4734 31.1715 79.4781 31.1489 79.4782 31.1261C79.4784 31.1032 79.4739 31.0806 79.4652 31.0595C79.4564 31.0384 79.4436 31.0193 79.4273 31.0033C79.4111 30.9873 79.3918 30.9748 79.3707 30.9665C79.2642 30.9259 78.7337 30.8133 78.3263 30.7878C77.543 30.7385 77.1078 30.8714 76.7162 31.048C76.3293 31.2235 75.9012 31.5056 75.6638 31.8319L75.6631 31.0679C75.6631 30.9629 75.5891 30.8781 75.4838 30.8781H73.8856C73.782 30.8781 73.7068 30.9629 73.7068 31.0679V40.4187C73.7069 40.4692 73.7269 40.5177 73.7624 40.5534C73.7979 40.5891 73.8461 40.6092 73.8963 40.6093H75.5341C75.5843 40.6092 75.6324 40.5891 75.6678 40.5534C75.7033 40.5176 75.7232 40.4692 75.7232 40.4187V35.7234C75.7232 35.0947 75.792 34.47 75.9293 34.0761C76.0646 33.6866 76.2485 33.3758 76.4752 33.153C76.6915 32.9377 76.9561 32.7781 77.2467 32.6874C77.5193 32.6087 77.8016 32.5688 78.0853 32.5688C78.4117 32.5688 78.7697 32.6532 78.7697 32.6532C78.89 32.6667 78.9569 32.5927 78.9976 32.4837C79.1048 32.1968 79.409 31.3377 79.4684 31.1666" fill="#FFFFFE"/>
<path fill-rule="evenodd" clip-rule="evenodd" d="M64.1661 26.8776C63.9637 26.8161 63.7577 26.7669 63.5493 26.7304C63.2691 26.6834 62.9853 26.6612 62.7012 26.6643C61.5725 26.6643 60.6828 26.9851 60.0581 27.6185C59.4378 28.2472 59.0157 29.205 58.8041 30.4651L58.7277 30.8905H57.3111C57.3111 30.8905 57.1382 30.8833 57.1018 31.0731L56.8692 32.3783C56.853 32.5032 56.9064 32.5812 57.0725 32.5804H58.4516L57.0523 40.4363C56.9428 41.0689 56.8174 41.5894 56.6785 41.9837C56.5416 42.3729 56.4079 42.6645 56.2433 42.8762C56.0839 43.0811 55.9328 43.232 55.6721 43.3199C55.4569 43.3927 55.2092 43.4261 54.9378 43.4261C54.7867 43.4261 54.5857 43.4007 54.4374 43.3708C54.289 43.3414 54.2119 43.308 54.1007 43.261C54.1007 43.261 53.9389 43.1989 53.8752 43.3621C53.8234 43.4954 53.4559 44.512 53.4124 44.6378C53.3681 44.7619 53.4302 44.8598 53.5085 44.888C53.6921 44.9541 53.8286 44.9963 54.0786 45.0556C54.4259 45.1379 54.7187 45.1431 54.9928 45.1431C55.5672 45.1431 56.0906 45.0619 56.5246 44.9044C56.9613 44.7456 57.3415 44.469 57.6778 44.0946C58.0414 43.6907 58.27 43.2678 58.4888 42.6908C58.7052 42.119 58.8895 41.4091 59.0371 40.5819L60.4431 32.5804H62.4986C62.4986 32.5804 62.6719 32.5868 62.7079 32.3978L62.9405 31.0926C62.9567 30.9677 62.9037 30.8897 62.7368 30.8905H60.7417C60.7516 30.8451 60.8422 30.1393 61.0713 29.4748C61.169 29.191 61.353 28.9623 61.5088 28.8051C61.6543 28.6554 61.8336 28.5432 62.0314 28.478C62.2482 28.4106 62.4742 28.3778 62.7012 28.3809C62.8891 28.3809 63.0734 28.4036 63.2139 28.433C63.4073 28.4744 63.4825 28.4963 63.5331 28.5114C63.7365 28.5739 63.7638 28.5134 63.8037 28.4143L64.2808 27.0965C64.3299 26.9548 64.2104 26.8951 64.1661 26.8776ZM36.2863 40.453C36.2863 40.558 36.2119 40.6436 36.1075 40.6436H34.4526C34.3478 40.6436 34.2734 40.558 34.2734 40.453V27.0563C34.2734 26.9516 34.3478 26.8669 34.4526 26.8669H36.1075C36.2119 26.8669 36.2863 26.9516 36.2863 27.0563V40.453Z" fill="#FFFFFE"/>
</g>
<defs>
<clipPath id="clip0_746_38041">
<rect width="108" height="76" fill="white"/>
</clipPath>
</defs>
</svg>
