<svg width="82" height="82" viewBox="0 0 82 82" fill="none" xmlns="http://www.w3.org/2000/svg">
<path d="M41.9542 46.8574C54.5926 46.8574 64.8381 36.368 64.8381 23.4287C64.8381 10.4894 54.5926 0 41.9542 0C29.3158 0 19.0703 10.4894 19.0703 23.4287C19.0703 36.368 29.3158 46.8574 41.9542 46.8574Z" fill="#036C70"/>
<path d="M61.0238 66.3784C72.609 66.3784 82.0007 56.7631 82.0007 44.9021C82.0007 33.0411 72.609 23.4258 61.0238 23.4258C49.4386 23.4258 40.0469 33.0411 40.0469 44.9021C40.0469 56.7631 49.4386 66.3784 61.0238 66.3784Z" fill="#1A9BA1"/>
<path d="M44.8149 81.9992C53.7671 81.9992 61.0243 74.5693 61.0243 65.4039C61.0243 56.2386 53.7671 48.8086 44.8149 48.8086C35.8627 48.8086 28.6055 56.2386 28.6055 65.4039C28.6055 74.5693 35.8627 81.9992 44.8149 81.9992Z" fill="#37C6D0"/>
<path d="M3.49551 19.5234H38.4583C40.3888 19.5234 41.9538 21.1257 41.9538 23.1022V58.8973C41.9538 60.8738 40.3888 62.476 38.4583 62.476H3.49551C1.56499 62.476 0 60.8738 0 58.8973V23.1022C0 21.1257 1.56499 19.5234 3.49551 19.5234Z" fill="url(#paint0_linear_746_38056)"/>
<path d="M15.6133 40.5605C14.7941 40.0042 14.1099 39.2636 13.6129 38.3953C13.1313 37.4875 12.8912 36.4661 12.9168 35.4335C12.8739 34.0353 13.3348 32.6698 14.2116 31.597C15.1331 30.5229 16.3241 29.7275 17.6557 29.2971C19.1732 28.7857 20.7627 28.5337 22.3602 28.5513C24.461 28.4727 26.5589 28.7734 28.5579 29.4396V33.9302C27.6893 33.3915 26.7433 32.9961 25.7546 32.7587C24.6818 32.4894 23.5811 32.3543 22.4765 32.3565C21.3117 32.3127 20.1544 32.5635 19.1069 33.0867C18.2981 33.4438 17.7737 34.2585 17.772 35.1602C17.7687 35.7072 17.9739 36.2339 18.3441 36.6284C18.7813 37.0935 19.2984 37.472 19.8697 37.7452C20.5053 38.0692 21.4588 38.5001 22.7302 39.0377C22.8701 39.083 23.0066 39.1391 23.1382 39.2056C24.3895 39.7062 25.5966 40.3157 26.7463 41.0272C27.6169 41.5768 28.3477 42.3302 28.8783 43.2255C29.4223 44.2404 29.686 45.3878 29.6411 46.5446C29.7032 47.9801 29.2743 49.3928 28.4283 50.5392C27.585 51.5932 26.4576 52.3699 25.1864 52.7727C23.6911 53.2526 22.1306 53.4845 20.5638 53.46C19.1581 53.4665 17.7544 53.3489 16.3684 53.1085C15.1982 52.9125 14.0561 52.5689 12.9683 52.0855V47.3509C14.0081 48.1112 15.1698 48.6795 16.4009 49.03C17.6278 49.4214 18.9032 49.6305 20.1882 49.6509C21.3774 49.728 22.5646 49.47 23.6207 48.9051C24.3606 48.4776 24.8106 47.668 24.7916 46.7984C24.7966 46.1934 24.5628 45.6119 24.1433 45.1857C23.6216 44.6614 23.0175 44.2304 22.3565 43.9108C21.5937 43.5203 20.4704 43.0056 18.9868 42.3665C17.8065 41.8807 16.6764 41.2757 15.6133 40.5605Z" fill="white"/>
<defs>
<linearGradient id="paint0_linear_746_38056" x1="7.28822" y1="16.7271" x2="35.6431" y2="64.6946" gradientUnits="userSpaceOnUse">
<stop stop-color="#058F92"/>
<stop offset="0.5" stop-color="#038489"/>
<stop offset="1" stop-color="#026D71"/>
</linearGradient>
</defs>
</svg>
