<svg width="1436" height="98" viewBox="0 0 1436 98" fill="none" xmlns="http://www.w3.org/2000/svg">
<mask id="path-1-outside-1_2919_10884" maskUnits="userSpaceOnUse" x="0" y="0" width="1436" height="98" fill="black">
<rect fill="white" width="1436" height="98"/>
<path d="M61.7329 78.5447H29.8736L24.7664 94.5777H3L33.8865 3.81018H57.9633L88.8498 94.5777H66.8401L61.7329 78.5447ZM56.3825 61.4773L45.8033 28.2476L35.3457 61.4773H56.3825ZM123.908 3.81018V94.5777H103.114V3.81018H123.908ZM239.773 94.5777L231.869 86.4319C224.005 92.8106 214.602 96 203.657 96C197.091 96 191.376 94.8794 186.512 92.6382C181.648 90.3109 177.878 87.0784 175.203 82.9408C172.609 78.7171 171.312 73.8038 171.312 68.2008C171.312 62.5117 172.73 57.3828 175.568 52.8143C178.486 48.1596 182.823 44.3668 188.579 41.436C186.471 38.6777 184.972 36.0486 184.08 33.5488C183.188 30.9629 182.742 28.1614 182.742 25.1444C182.742 20.8345 183.796 16.9124 185.904 13.3783C188.012 9.84411 191.052 7.08574 195.024 5.10316C199.077 3.03439 203.86 2 209.373 2C214.966 2 219.709 3.07749 223.6 5.23246C227.491 7.38744 230.41 10.2751 232.355 13.8955C234.301 17.5158 235.192 21.481 235.03 25.7909H215.453C215.534 23.4635 214.966 21.6965 213.75 20.4897C212.615 19.1967 211.075 18.5502 209.129 18.5502C207.184 18.5502 205.563 19.1536 204.265 20.3604C202.968 21.5672 202.32 23.1188 202.32 25.0151C202.32 26.8253 202.847 28.7217 203.901 30.7043C205.036 32.6868 206.779 34.9711 209.129 37.5571L229.923 59.1499C230.085 58.7189 230.288 58.2017 230.531 57.5983C230.855 56.995 231.18 56.3054 231.504 55.5296L236.003 47.3838H256.797L250.96 58.6327C248.771 63.7185 246.258 68.5456 243.421 73.1142L263.971 94.5777H239.773ZM204.63 78.1568C210.062 78.1568 214.885 76.519 219.101 73.2435L200.131 53.7194C194.294 56.9088 191.376 61.2187 191.376 66.6492C191.376 69.9248 192.551 72.6832 194.902 74.9243C197.334 77.0793 200.577 78.1568 204.63 78.1568ZM403.661 3.81018V94.5777H382.868V40.1431L363.776 94.5777H346.996L327.783 40.0138V94.5777H306.989V3.81018H331.552L355.508 66.6492L379.22 3.81018H403.661ZM444.272 77.5103H471.51V94.5777H423.478V3.81018H444.272V77.5103ZM548.906 3.81018C557.905 3.81018 565.768 5.70656 572.497 9.49931C579.225 13.2921 584.413 18.6364 588.061 25.5323C591.79 32.342 593.655 40.2293 593.655 49.194C593.655 58.0724 591.79 65.9596 588.061 72.8556C584.413 79.7515 579.185 85.0958 572.375 88.8886C565.646 92.6813 557.823 94.5777 548.906 94.5777H516.925V3.81018H548.906ZM547.569 75.4415C555.432 75.4415 561.553 73.1573 565.93 68.5887C570.308 64.0202 572.497 57.5553 572.497 49.194C572.497 40.8326 570.308 34.3246 565.93 29.6699C561.553 25.0151 555.432 22.6878 547.569 22.6878H537.719V75.4415H547.569ZM630.933 21.5241V39.8845H658.78V56.9519H630.933V76.8638H662.428V94.5777H610.139V3.81018H662.428V21.5241H630.933ZM760.926 3.81018L730.647 94.5777H704.625L674.346 3.81018H696.477L717.636 72.3384L738.916 3.81018H760.926ZM795.274 21.5241V39.8845H823.12V56.9519H795.274V76.8638H826.768V94.5777H774.48V3.81018H826.768V21.5241H795.274ZM865.926 77.5103H893.164V94.5777H845.132V3.81018H865.926V77.5103ZM948.317 95.4828C940.292 95.4828 932.915 93.5002 926.186 89.5351C919.539 85.5699 914.229 80.0532 910.256 72.9849C906.365 65.8304 904.42 57.8139 904.42 48.9354C904.42 40.0569 906.365 32.0834 910.256 25.0151C914.229 17.9468 919.539 12.4301 926.186 8.46493C932.915 4.49977 940.292 2.51719 948.317 2.51719C956.343 2.51719 963.679 4.49977 970.327 8.46493C977.055 12.4301 982.325 17.9468 986.135 25.0151C990.026 32.0834 991.972 40.0569 991.972 48.9354C991.972 57.8139 990.026 65.8304 986.135 72.9849C982.244 80.0532 976.974 85.5699 970.327 89.5351C963.679 93.5002 956.343 95.4828 948.317 95.4828ZM948.317 75.3122C955.127 75.3122 960.558 72.8987 964.612 68.0715C968.746 63.2444 970.813 56.8657 970.813 48.9354C970.813 40.9188 968.746 34.5401 964.612 29.7992C960.558 24.972 955.127 22.5585 948.317 22.5585C941.427 22.5585 935.914 24.9289 931.78 29.6699C927.726 34.4108 925.7 40.8326 925.7 48.9354C925.7 56.9519 927.726 63.3737 931.78 68.2008C935.914 72.9418 941.427 75.3122 948.317 75.3122ZM1073.46 33.0316C1073.46 38.2898 1072.33 43.1169 1070.06 47.5131C1067.79 51.823 1064.3 55.3141 1059.6 57.9862C1054.9 60.6584 1049.06 61.9945 1042.09 61.9945H1029.2V94.5777H1008.4V3.81018H1042.09C1048.9 3.81018 1054.65 5.06006 1059.35 7.55983C1064.06 10.0596 1067.58 13.5076 1069.93 17.9037C1072.28 22.2999 1073.46 27.3425 1073.46 33.0316ZM1040.51 44.4099C1044.48 44.4099 1047.44 43.4186 1049.38 41.436C1051.33 39.4535 1052.3 36.652 1052.3 33.0316C1052.3 29.4113 1051.33 26.6098 1049.38 24.6272C1047.44 22.6447 1044.48 21.6534 1040.51 21.6534H1029.2V44.4099H1040.51ZM1185.82 3.81018V94.5777H1165.03V40.1431L1145.94 94.5777H1129.16L1109.94 40.0138V94.5777H1089.15V3.81018H1113.71L1137.67 66.6492L1161.38 3.81018H1185.82ZM1226.43 21.5241V39.8845H1254.28V56.9519H1226.43V76.8638H1257.93V94.5777H1205.64V3.81018H1257.93V21.5241H1226.43ZM1352.66 94.5777H1331.86L1297.08 38.5915V94.5777H1276.29V3.81018H1297.08L1331.86 60.055V3.81018H1352.66V94.5777ZM1434 3.81018V21.5241H1411.38V94.5777H1390.59V21.5241H1367.97V3.81018H1434Z"/>
</mask>
<path d="M61.7329 78.5447H29.8736L24.7664 94.5777H3L33.8865 3.81018H57.9633L88.8498 94.5777H66.8401L61.7329 78.5447ZM56.3825 61.4773L45.8033 28.2476L35.3457 61.4773H56.3825ZM123.908 3.81018V94.5777H103.114V3.81018H123.908ZM239.773 94.5777L231.869 86.4319C224.005 92.8106 214.602 96 203.657 96C197.091 96 191.376 94.8794 186.512 92.6382C181.648 90.3109 177.878 87.0784 175.203 82.9408C172.609 78.7171 171.312 73.8038 171.312 68.2008C171.312 62.5117 172.73 57.3828 175.568 52.8143C178.486 48.1596 182.823 44.3668 188.579 41.436C186.471 38.6777 184.972 36.0486 184.08 33.5488C183.188 30.9629 182.742 28.1614 182.742 25.1444C182.742 20.8345 183.796 16.9124 185.904 13.3783C188.012 9.84411 191.052 7.08574 195.024 5.10316C199.077 3.03439 203.86 2 209.373 2C214.966 2 219.709 3.07749 223.6 5.23246C227.491 7.38744 230.41 10.2751 232.355 13.8955C234.301 17.5158 235.192 21.481 235.03 25.7909H215.453C215.534 23.4635 214.966 21.6965 213.75 20.4897C212.615 19.1967 211.075 18.5502 209.129 18.5502C207.184 18.5502 205.563 19.1536 204.265 20.3604C202.968 21.5672 202.32 23.1188 202.32 25.0151C202.32 26.8253 202.847 28.7217 203.901 30.7043C205.036 32.6868 206.779 34.9711 209.129 37.5571L229.923 59.1499C230.085 58.7189 230.288 58.2017 230.531 57.5983C230.855 56.995 231.18 56.3054 231.504 55.5296L236.003 47.3838H256.797L250.96 58.6327C248.771 63.7185 246.258 68.5456 243.421 73.1142L263.971 94.5777H239.773ZM204.63 78.1568C210.062 78.1568 214.885 76.519 219.101 73.2435L200.131 53.7194C194.294 56.9088 191.376 61.2187 191.376 66.6492C191.376 69.9248 192.551 72.6832 194.902 74.9243C197.334 77.0793 200.577 78.1568 204.63 78.1568ZM403.661 3.81018V94.5777H382.868V40.1431L363.776 94.5777H346.996L327.783 40.0138V94.5777H306.989V3.81018H331.552L355.508 66.6492L379.22 3.81018H403.661ZM444.272 77.5103H471.51V94.5777H423.478V3.81018H444.272V77.5103ZM548.906 3.81018C557.905 3.81018 565.768 5.70656 572.497 9.49931C579.225 13.2921 584.413 18.6364 588.061 25.5323C591.79 32.342 593.655 40.2293 593.655 49.194C593.655 58.0724 591.79 65.9596 588.061 72.8556C584.413 79.7515 579.185 85.0958 572.375 88.8886C565.646 92.6813 557.823 94.5777 548.906 94.5777H516.925V3.81018H548.906ZM547.569 75.4415C555.432 75.4415 561.553 73.1573 565.93 68.5887C570.308 64.0202 572.497 57.5553 572.497 49.194C572.497 40.8326 570.308 34.3246 565.93 29.6699C561.553 25.0151 555.432 22.6878 547.569 22.6878H537.719V75.4415H547.569ZM630.933 21.5241V39.8845H658.78V56.9519H630.933V76.8638H662.428V94.5777H610.139V3.81018H662.428V21.5241H630.933ZM760.926 3.81018L730.647 94.5777H704.625L674.346 3.81018H696.477L717.636 72.3384L738.916 3.81018H760.926ZM795.274 21.5241V39.8845H823.12V56.9519H795.274V76.8638H826.768V94.5777H774.48V3.81018H826.768V21.5241H795.274ZM865.926 77.5103H893.164V94.5777H845.132V3.81018H865.926V77.5103ZM948.317 95.4828C940.292 95.4828 932.915 93.5002 926.186 89.5351C919.539 85.5699 914.229 80.0532 910.256 72.9849C906.365 65.8304 904.42 57.8139 904.42 48.9354C904.42 40.0569 906.365 32.0834 910.256 25.0151C914.229 17.9468 919.539 12.4301 926.186 8.46493C932.915 4.49977 940.292 2.51719 948.317 2.51719C956.343 2.51719 963.679 4.49977 970.327 8.46493C977.055 12.4301 982.325 17.9468 986.135 25.0151C990.026 32.0834 991.972 40.0569 991.972 48.9354C991.972 57.8139 990.026 65.8304 986.135 72.9849C982.244 80.0532 976.974 85.5699 970.327 89.5351C963.679 93.5002 956.343 95.4828 948.317 95.4828ZM948.317 75.3122C955.127 75.3122 960.558 72.8987 964.612 68.0715C968.746 63.2444 970.813 56.8657 970.813 48.9354C970.813 40.9188 968.746 34.5401 964.612 29.7992C960.558 24.972 955.127 22.5585 948.317 22.5585C941.427 22.5585 935.914 24.9289 931.78 29.6699C927.726 34.4108 925.7 40.8326 925.7 48.9354C925.7 56.9519 927.726 63.3737 931.78 68.2008C935.914 72.9418 941.427 75.3122 948.317 75.3122ZM1073.46 33.0316C1073.46 38.2898 1072.33 43.1169 1070.06 47.5131C1067.79 51.823 1064.3 55.3141 1059.6 57.9862C1054.9 60.6584 1049.06 61.9945 1042.09 61.9945H1029.2V94.5777H1008.4V3.81018H1042.09C1048.9 3.81018 1054.65 5.06006 1059.35 7.55983C1064.06 10.0596 1067.58 13.5076 1069.93 17.9037C1072.28 22.2999 1073.46 27.3425 1073.46 33.0316ZM1040.51 44.4099C1044.48 44.4099 1047.44 43.4186 1049.38 41.436C1051.33 39.4535 1052.3 36.652 1052.3 33.0316C1052.3 29.4113 1051.33 26.6098 1049.38 24.6272C1047.44 22.6447 1044.48 21.6534 1040.51 21.6534H1029.2V44.4099H1040.51ZM1185.82 3.81018V94.5777H1165.03V40.1431L1145.94 94.5777H1129.16L1109.94 40.0138V94.5777H1089.15V3.81018H1113.71L1137.67 66.6492L1161.38 3.81018H1185.82ZM1226.43 21.5241V39.8845H1254.28V56.9519H1226.43V76.8638H1257.93V94.5777H1205.64V3.81018H1257.93V21.5241H1226.43ZM1352.66 94.5777H1331.86L1297.08 38.5915V94.5777H1276.29V3.81018H1297.08L1331.86 60.055V3.81018H1352.66V94.5777ZM1434 3.81018V21.5241H1411.38V94.5777H1390.59V21.5241H1367.97V3.81018H1434Z" stroke="#060606" stroke-opacity="0.16" stroke-width="4" mask="url(#path-1-outside-1_2919_10884)"/>
</svg>
