<svg width="42" height="42" viewBox="0 0 42 42" fill="none" xmlns="http://www.w3.org/2000/svg">
<mask id="mask0_2445_11619" style="mask-type:alpha" maskUnits="userSpaceOnUse" x="0" y="0" width="42" height="42">
<rect x="0.520508" y="0.515625" width="40.96" height="40.96" fill="#D9D9D9"/>
</mask>
<g mask="url(#mask0_2445_11619)">
<path d="M7.34729 9.44104V7.73438H24.414V9.44104H7.34729ZM13.9768 29.7243H17.7844V25.4577H22.0511V21.6501H17.7844V17.3834H13.9768V21.6501H9.71017V25.4577H13.9768V29.7243ZM8.39774 34.6472C7.61211 34.6472 6.95618 34.3841 6.42996 33.8579C5.90374 33.3317 5.64062 32.6757 5.64062 31.8901V15.2177C5.64062 14.432 5.90374 13.7761 6.42996 13.2499C6.95618 12.7237 7.61211 12.4606 8.39774 12.4606H23.3635C24.1491 12.4606 24.8051 12.7237 25.3313 13.2499C25.8575 13.7761 26.1206 14.432 26.1206 15.2177V31.8901C26.1206 32.6757 25.8575 33.3317 25.3313 33.8579C24.8051 34.3841 24.1491 34.6472 23.3635 34.6472H8.39774ZM8.39774 32.9406H23.3635C23.6263 32.9406 23.8671 32.8312 24.0858 32.6125C24.3046 32.3937 24.414 32.1529 24.414 31.8901V15.2177C24.414 14.9549 24.3046 14.7141 24.0858 14.4953C23.8671 14.2766 23.6263 14.1672 23.3635 14.1672H8.39774C8.13492 14.1672 7.89414 14.2766 7.6754 14.4953C7.45666 14.7141 7.34729 14.9549 7.34729 15.2177V31.8901C7.34729 32.1529 7.45666 32.3937 7.6754 32.6125C7.89414 32.8312 8.13492 32.9406 8.39774 32.9406ZM32.5535 24.2758C31.5579 23.7923 30.7401 23.0379 30.1001 22.0128C29.4601 20.9879 29.1401 19.7995 29.1401 18.4475C29.1401 16.7449 29.5542 15.3214 30.3822 14.177C31.2105 13.0327 32.2187 12.4606 33.4068 12.4606C34.5949 12.4606 35.603 13.033 36.431 14.1779C37.2593 15.3228 37.6735 16.7415 37.6735 18.4339C37.6735 19.795 37.3535 20.9879 36.7135 22.0128C36.0735 23.0379 35.2557 23.7923 34.2601 24.2758V33.7939C34.2601 34.0357 34.1782 34.2383 34.0144 34.4019C33.8505 34.5655 33.6476 34.6472 33.4055 34.6472C33.1635 34.6472 32.9609 34.5655 32.798 34.4019C32.635 34.2383 32.5535 34.0357 32.5535 33.7939V24.2758ZM33.4119 22.7006C33.9248 22.7006 34.4789 22.3184 35.0742 21.5541C35.6693 20.7898 35.9668 19.7499 35.9668 18.4343C35.9668 17.1191 35.6676 16.079 35.0691 15.3141C34.4706 14.5495 33.9148 14.1672 33.4017 14.1672C32.8888 14.1672 32.3347 14.5494 31.7394 15.3137C31.1443 16.078 30.8468 17.1179 30.8468 18.4335C30.8468 19.7487 31.146 20.7888 31.7445 21.5537C32.343 22.3183 32.8988 22.7006 33.4119 22.7006Z" fill="white"/>
</g>
</svg>
