<svg width="42" height="42" viewBox="0 0 42 42" fill="none" xmlns="http://www.w3.org/2000/svg">
<mask id="mask0_2445_11637" style="mask-type:alpha" maskUnits="userSpaceOnUse" x="0" y="0" width="42" height="42">
<rect x="0.520508" y="0.515625" width="40.96" height="40.96" fill="#D9D9D9"/>
</mask>
<g mask="url(#mask0_2445_11637)">
<path d="M7.3457 22.6959V10.0931C7.3457 9.30742 7.60881 8.65149 8.13504 8.12527C8.66126 7.59905 9.31719 7.33594 10.1028 7.33594H19.2924V22.6959H7.3457ZM22.7057 7.33594H31.8953C32.6809 7.33594 33.3368 7.59905 33.863 8.12527C34.3893 8.65149 34.6524 9.31098 34.6524 10.1037V15.8693H22.7057V7.33594ZM22.7057 34.6426V19.2826H34.6524V31.8855C34.6524 32.6711 34.3893 33.3271 33.863 33.8533C33.3368 34.3795 32.6809 34.6426 31.8953 34.6426H22.7057ZM7.3457 26.1093H19.2924V34.6426H10.1028C9.31719 34.6426 8.66126 34.3795 8.13504 33.8533C7.60881 33.3271 7.3457 32.6676 7.3457 31.8748V26.1093ZM9.05237 20.9893H17.5857V9.0426H10.1028C9.79648 9.0426 9.54474 9.14102 9.34762 9.33786C9.15079 9.53498 9.05237 9.78671 9.05237 10.0931V20.9893ZM24.4124 14.1626H32.9457V10.0931C32.9457 9.78671 32.8473 9.53498 32.6505 9.33786C32.4533 9.14102 32.2016 9.0426 31.8953 9.0426H24.4124V14.1626ZM24.4124 20.9893V32.9359H31.8953C32.2016 32.9359 32.4533 32.8375 32.6505 32.6407C32.8473 32.4436 32.9457 32.1918 32.9457 31.8855V20.9893H24.4124ZM9.05237 27.8159V31.8855C9.05237 32.1918 9.15079 32.4436 9.34762 32.6407C9.54474 32.8375 9.79648 32.9359 10.1028 32.9359H17.5857V27.8159H9.05237Z" fill="white"/>
</g>
</svg>
