<svg width="1440" height="981" viewBox="0 0 1440 981" fill="none" xmlns="http://www.w3.org/2000/svg">
<g clip-path="url(#clip0_1402_9210)">
<rect width="1440" height="981" fill="#353535"/>
<path d="M221.375 60.5779C344.572 21.5819 460.24 -5.75373 615.637 22.2309C771.709 50.3388 900.6 156.578 1096.74 103.423C1210.61 72.5659 1298.93 30.4134 1450.79 35.757C1609.95 41.3497 1709.31 93.5328 1860.38 104.542C1873.58 85.6703 1883.26 66.3208 1889.24 46.6139C1794.6 46.5289 1701.64 38.8903 1619.63 21.0258C1577.72 11.8968 1541.96 -2.48514 1497.16 -9.62968C1429.89 -20.3645 1370.66 -10.854 1302.69 -5.24743C1227.53 0.946042 1157.1 2.20637 1083.24 -4.13442C897.246 -20.1014 742.974 -75.5224 540.621 -46.9932C348.811 -19.9531 200.601 -0.875027 0.399218 -22.9884C-58.9618 -29.5404 -132.217 -38.2698 -204.206 -49.6931C-216.078 -28.723 -223.805 -7.25801 -226.769 14.612C-76.1139 48.6405 27.6412 121.909 221.375 60.5779Z" fill="#FFFEF6"/>
</g>
<defs>
<clipPath id="clip0_1402_9210">
<rect width="1440" height="981" fill="white"/>
</clipPath>
</defs>
</svg>
