<svg width="88" height="88" viewBox="0 0 88 88" fill="none" xmlns="http://www.w3.org/2000/svg">
<g filter="url(#filter0_d_912_6103)">
<circle cx="44" cy="43" r="42" fill="white"/>
</g>
<mask id="mask0_912_6103" style="mask-type:alpha" maskUnits="userSpaceOnUse" x="12" y="11" width="64" height="64">
<rect x="12" y="11" width="64" height="64" fill="#D9D9D9"/>
</mask>
<g mask="url(#mask0_912_6103)">
<path d="M66.6817 40.0573V61.3593C66.6817 62.5869 66.2706 63.6118 65.4483 64.434C64.6261 65.2562 63.6015 65.6673 62.3743 65.6673H25.6563C24.4288 65.6673 23.4039 65.2562 22.5817 64.434C21.7595 63.6118 21.3483 62.5869 21.3483 61.3593V39.9546C20.2235 39.124 19.4003 38.0351 18.879 36.688C18.3577 35.3409 18.3466 33.9033 18.8457 32.3753L21.441 23.8213C21.7966 22.7342 22.3699 21.8811 23.161 21.262C23.9526 20.6433 24.9312 20.334 26.097 20.334H61.8303C62.9961 20.334 63.9721 20.6238 64.7583 21.2033C65.545 21.7829 66.1212 22.6213 66.487 23.7187L69.1843 32.3753C69.6834 33.9033 69.6723 35.3529 69.151 36.724C68.6297 38.0946 67.8066 39.2058 66.6817 40.0573ZM49.8817 39.0007C51.5946 39.0007 52.8732 38.5211 53.7177 37.562C54.5621 36.6033 54.9177 35.6129 54.7843 34.5906L53.0097 23.0007H45.3483V34.2007C45.3483 35.51 45.7961 36.6373 46.6917 37.5826C47.5877 38.528 48.651 39.0007 49.8817 39.0007ZM37.8817 39.0007C39.3141 39.0007 40.4723 38.528 41.3563 37.5826C42.2399 36.6373 42.6817 35.51 42.6817 34.2007V23.0007H35.0203L33.2457 34.7953C33.1363 35.6229 33.4979 36.5307 34.3303 37.5187C35.1628 38.5067 36.3466 39.0007 37.8817 39.0007ZM26.015 39.0007C27.191 39.0007 28.1901 38.6007 29.0123 37.8006C29.8346 37.0007 30.3466 36.0024 30.5483 34.806L32.2203 23.0007H26.097C25.5157 23.0007 25.0541 23.1289 24.7123 23.3853C24.3706 23.6418 24.1141 24.0264 23.943 24.5393L21.4817 32.9593C21.0439 34.3611 21.231 35.7184 22.043 37.0313C22.855 38.3442 24.179 39.0007 26.015 39.0007ZM62.015 39.0007C63.6115 39.0007 64.8868 38.3784 65.841 37.134C66.7948 35.8895 67.0306 34.498 66.5483 32.9593L63.9537 24.4366C63.7826 23.9238 63.5261 23.5562 63.1843 23.334C62.8426 23.1118 62.381 23.0007 61.7997 23.0007H55.8097L57.4817 34.806C57.6834 36.0024 58.1955 37.0007 59.0177 37.8006C59.8399 38.6007 60.839 39.0007 62.015 39.0007ZM25.6563 63.0006H62.3743C62.8526 63.0006 63.2457 62.8469 63.5537 62.5393C63.8612 62.2313 64.015 61.838 64.015 61.3593V41.3287C63.6559 41.4518 63.3148 41.5391 62.9917 41.5907C62.669 41.6418 62.3435 41.6673 62.015 41.6673C60.815 41.6673 59.7594 41.4331 58.8483 40.9646C57.9372 40.4962 57.0715 39.7493 56.251 38.724C55.5537 39.592 54.6939 40.2995 53.6717 40.8467C52.6495 41.3938 51.4066 41.6673 49.943 41.6673C48.8799 41.6673 47.8688 41.4195 46.9097 40.924C45.951 40.428 44.9861 39.6946 44.015 38.724C43.1226 39.6946 42.1337 40.428 41.0483 40.924C39.963 41.4195 38.9279 41.6673 37.943 41.6673C36.8252 41.6673 35.7357 41.4535 34.6743 41.026C33.6126 40.5989 32.6817 39.8315 31.8817 38.724C30.5723 40.0333 29.4279 40.8511 28.4483 41.1773C27.4688 41.504 26.6577 41.6673 26.015 41.6673C25.687 41.6673 25.3563 41.6418 25.023 41.5907C24.6897 41.5391 24.3537 41.4518 24.015 41.3287V61.3593C24.015 61.838 24.1688 62.2313 24.4763 62.5393C24.7843 62.8469 25.1777 63.0006 25.6563 63.0006Z" fill="#1C1B1F"/>
</g>
<defs>
<filter id="filter0_d_912_6103" x="0" y="0" width="88" height="88" filterUnits="userSpaceOnUse" color-interpolation-filters="sRGB">
<feFlood flood-opacity="0" result="BackgroundImageFix"/>
<feColorMatrix in="SourceAlpha" type="matrix" values="0 0 0 0 0 0 0 0 0 0 0 0 0 0 0 0 0 0 127 0" result="hardAlpha"/>
<feOffset dy="1"/>
<feGaussianBlur stdDeviation="1"/>
<feComposite in2="hardAlpha" operator="out"/>
<feColorMatrix type="matrix" values="0 0 0 0 0 0 0 0 0 0 0 0 0 0 0 0 0 0 0.25 0"/>
<feBlend mode="normal" in2="BackgroundImageFix" result="effect1_dropShadow_912_6103"/>
<feBlend mode="normal" in="SourceGraphic" in2="effect1_dropShadow_912_6103" result="shape"/>
</filter>
</defs>
</svg>
