<svg width="88" height="88" viewBox="0 0 88 88" fill="none" xmlns="http://www.w3.org/2000/svg">
<g filter="url(#filter0_d_746_17848)">
<circle cx="44" cy="43" r="42" fill="white"/>
</g>
<mask id="mask0_746_17848" style="mask-type:alpha" maskUnits="userSpaceOnUse" x="12" y="11" width="64" height="64">
<rect x="12" y="11" width="64" height="64" fill="#D9D9D9"/>
</mask>
<g mask="url(#mask0_746_17848)">
<path d="M30.6667 24.6667V22H57.3333V24.6667H30.6667ZM41.0253 56.3593H46.9747V49.6927H53.6413V43.7433H46.9747V37.0767H41.0253V43.7433H34.3587V49.6927H41.0253V56.3593ZM32.308 64.0513C31.0804 64.0513 30.0556 63.6402 29.2333 62.818C28.4111 61.9958 28 60.9709 28 59.7433V33.6927C28 32.4651 28.4111 31.4402 29.2333 30.618C30.0556 29.7958 31.0804 29.3847 32.308 29.3847H55.692C56.9196 29.3847 57.9444 29.7958 58.7667 30.618C59.5889 31.4402 60 32.4651 60 33.6927V59.7433C60 60.9709 59.5889 61.9958 58.7667 62.818C57.9444 63.6402 56.9196 64.0513 55.692 64.0513H32.308ZM32.308 61.3847H55.692C56.1027 61.3847 56.4789 61.2138 56.8207 60.872C57.1624 60.5302 57.3333 60.154 57.3333 59.7433V33.6927C57.3333 33.282 57.1624 32.9058 56.8207 32.564C56.4789 32.2222 56.1027 32.0513 55.692 32.0513H32.308C31.8973 32.0513 31.5211 32.2222 31.1793 32.564C30.8376 32.9058 30.6667 33.282 30.6667 33.6927V59.7433C30.6667 60.154 30.8376 60.5302 31.1793 60.872C31.5211 61.2138 31.8973 61.3847 32.308 61.3847Z" fill="#1C1B1F"/>
</g>
<defs>
<filter id="filter0_d_746_17848" x="0" y="0" width="88" height="88" filterUnits="userSpaceOnUse" color-interpolation-filters="sRGB">
<feFlood flood-opacity="0" result="BackgroundImageFix"/>
<feColorMatrix in="SourceAlpha" type="matrix" values="0 0 0 0 0 0 0 0 0 0 0 0 0 0 0 0 0 0 127 0" result="hardAlpha"/>
<feOffset dy="1"/>
<feGaussianBlur stdDeviation="1"/>
<feComposite in2="hardAlpha" operator="out"/>
<feColorMatrix type="matrix" values="0 0 0 0 0 0 0 0 0 0 0 0 0 0 0 0 0 0 0.25 0"/>
<feBlend mode="normal" in2="BackgroundImageFix" result="effect1_dropShadow_746_17848"/>
<feBlend mode="normal" in="SourceGraphic" in2="effect1_dropShadow_746_17848" result="shape"/>
</filter>
</defs>
</svg>
