<svg width="88" height="88" viewBox="0 0 88 88" fill="none" xmlns="http://www.w3.org/2000/svg">
<g filter="url(#filter0_d_746_17856)">
<circle cx="44" cy="43" r="42" fill="white"/>
</g>
<mask id="mask0_746_17856" style="mask-type:alpha" maskUnits="userSpaceOnUse" x="12" y="11" width="64" height="64">
<rect x="12" y="11" width="64" height="64" fill="#D9D9D9"/>
</mask>
<g mask="url(#mask0_746_17856)">
<path d="M21.846 35.7176C21.4682 35.7176 21.1516 35.5896 20.896 35.3336C20.6404 35.0776 20.5127 34.7605 20.5127 34.3822C20.5127 34.004 20.6404 33.6876 20.896 33.4329C21.1516 33.1782 21.4682 33.0509 21.846 33.0509H30.154C31.0051 33.0509 31.7649 33.2996 32.4333 33.7969C33.1018 34.2942 33.5727 34.9345 33.846 35.7176H21.846ZM27.282 59.6149C29.6753 59.6149 31.7096 58.7774 33.3847 57.1022C35.0598 55.4271 35.8973 53.3929 35.8973 50.9996C35.8973 48.6062 35.0598 46.572 33.3847 44.8969C31.7096 43.2218 29.6753 42.3842 27.282 42.3842C24.8887 42.3842 22.8544 43.2218 21.1793 44.8969C19.5042 46.572 18.6667 48.6062 18.6667 50.9996C18.6667 53.3929 19.5042 55.4271 21.1793 57.1022C22.8544 58.7774 24.8887 59.6149 27.282 59.6149ZM64 59.6149C65.4529 59.6149 66.7051 59.0894 67.7567 58.0382C68.8078 56.9867 69.3333 55.7345 69.3333 54.2816C69.3333 52.8287 68.8078 51.5765 67.7567 50.5249C66.7051 49.4738 65.4529 48.9482 64 48.9482C62.5471 48.9482 61.2949 49.4738 60.2433 50.5249C59.1922 51.5765 58.6667 52.8287 58.6667 54.2816C58.6667 55.7345 59.1922 56.9867 60.2433 58.0382C61.2949 59.0894 62.5471 59.6149 64 59.6149ZM27.27 53.9742C26.4402 53.9742 25.7391 53.6838 25.1667 53.1029C24.5942 52.522 24.308 51.8169 24.308 50.9876C24.308 50.1578 24.5982 49.4567 25.1787 48.8842C25.7596 48.3114 26.4647 48.0249 27.294 48.0249C28.1238 48.0249 28.8249 48.3154 29.3973 48.8962C29.9702 49.4771 30.2567 50.1822 30.2567 51.0116C30.2567 51.8414 29.9662 52.5425 29.3853 53.1149C28.8049 53.6878 28.0998 53.9742 27.27 53.9742ZM65.2307 46.3482C65.7711 46.4678 66.2309 46.5969 66.61 46.7356C66.9896 46.8738 67.4187 47.1089 67.8973 47.4409V33.3582C67.8973 32.1738 67.4756 31.1598 66.632 30.3162C65.7884 29.4727 64.7744 29.0509 63.59 29.0509H49.8667L47.0667 26.1176L50.8 22.3842L48.9333 20.5176L39.4667 29.9842L41.4667 31.8509L45.2 28.1176L48 30.9176V34.9996C48 37.0302 47.2769 38.7687 45.8307 40.2149C44.3844 41.6611 42.646 42.3842 40.6153 42.3842H34.5487C35.058 42.8322 35.47 43.2511 35.7847 43.6409C36.0993 44.0302 36.448 44.5002 36.8307 45.0509H40.6153C43.4118 45.0509 45.7862 44.0749 47.7387 42.1229C49.6907 40.1705 50.6667 37.796 50.6667 34.9996V31.7176H63.59C64.0687 31.7176 64.4618 31.8714 64.7693 32.1789C65.0769 32.4869 65.2307 32.88 65.2307 33.3582V46.3482ZM56.2207 52.3329C56.3847 51.7827 56.5518 51.3165 56.722 50.9342C56.8922 50.552 57.1576 50.1294 57.518 49.6662H38.4513C38.5264 50.1782 38.564 50.6234 38.564 51.0016C38.564 51.3798 38.5264 51.8236 38.4513 52.3329H56.2207ZM64 62.2816C61.764 62.2816 59.8718 61.5071 58.3233 59.9582C56.7744 58.4098 56 56.5176 56 54.2816C56 52.0456 56.7744 50.1534 58.3233 48.6049C59.8718 47.056 61.764 46.2816 64 46.2816C66.236 46.2816 68.1282 47.056 69.6767 48.6049C71.2256 50.1534 72 52.0456 72 54.2816C72 56.5176 71.2256 58.4098 69.6767 59.9582C68.1282 61.5071 66.236 62.2816 64 62.2816ZM27.282 62.2816C24.1607 62.2816 21.5 61.1816 19.3 58.9816C17.1 56.7816 16 54.1209 16 50.9996C16 47.8782 17.1 45.2176 19.3 43.0176C21.5 40.8176 24.1607 39.7176 27.282 39.7176C30.4033 39.7176 33.064 40.8176 35.264 43.0176C37.464 45.2176 38.564 47.8802 38.564 51.0016C38.564 54.1229 37.464 56.7816 35.264 58.9816C33.064 61.1816 30.4033 62.2816 27.282 62.2816Z" fill="#1C1B1F"/>
</g>
<defs>
<filter id="filter0_d_746_17856" x="0" y="0" width="88" height="88" filterUnits="userSpaceOnUse" color-interpolation-filters="sRGB">
<feFlood flood-opacity="0" result="BackgroundImageFix"/>
<feColorMatrix in="SourceAlpha" type="matrix" values="0 0 0 0 0 0 0 0 0 0 0 0 0 0 0 0 0 0 127 0" result="hardAlpha"/>
<feOffset dy="1"/>
<feGaussianBlur stdDeviation="1"/>
<feComposite in2="hardAlpha" operator="out"/>
<feColorMatrix type="matrix" values="0 0 0 0 0 0 0 0 0 0 0 0 0 0 0 0 0 0 0.25 0"/>
<feBlend mode="normal" in2="BackgroundImageFix" result="effect1_dropShadow_746_17856"/>
<feBlend mode="normal" in="SourceGraphic" in2="effect1_dropShadow_746_17856" result="shape"/>
</filter>
</defs>
</svg>
