<svg width="88" height="88" viewBox="0 0 88 88" fill="none" xmlns="http://www.w3.org/2000/svg">
<g filter="url(#filter0_d_912_6105)">
<circle cx="44" cy="43" r="42" fill="white"/>
</g>
<mask id="mask0_912_6105" style="mask-type:alpha" maskUnits="userSpaceOnUse" x="12" y="11" width="64" height="64">
<rect x="12" y="11" width="64" height="64" fill="#D9D9D9"/>
</mask>
<g mask="url(#mask0_912_6105)">
<path d="M50.354 49.3594C49.1709 46.9492 47.2287 45.3552 44.5274 44.5774C41.8265 43.7996 39.0354 43.4107 36.154 43.4107C33.2891 43.4107 30.4849 43.7996 27.7414 44.5774C24.9974 45.3552 23.0683 46.9492 21.954 49.3594H50.354ZM18.5127 52.026C18.5127 48.1389 20.3469 45.2869 24.0154 43.47C27.6838 41.6527 31.73 40.744 36.154 40.744C40.578 40.744 44.624 41.6527 48.292 43.47C51.9605 45.2869 53.7947 48.1389 53.7947 52.026H18.5127ZM18.5127 60.8467V58.18H53.7947V60.8467H18.5127ZM59.128 69.6674V67.0007H62.8614L66.5947 30.6927H42.564L42.2054 28.026H54.5127V17.3594H57.1794V28.026H69.4874L65.4974 67.2367C65.3983 67.9718 65.0803 68.5607 64.5434 69.0034C64.0069 69.446 63.3711 69.6674 62.636 69.6674H59.128ZM20.154 69.6674C19.6891 69.6674 19.2994 69.51 18.9847 69.1954C18.67 68.8812 18.5127 68.4914 18.5127 68.026V67.0007H53.7947V68.026C53.7947 68.4914 53.6376 68.8812 53.3234 69.1954C53.0087 69.51 52.6189 69.6674 52.154 69.6674H20.154Z" fill="#1C1B1F"/>
</g>
<defs>
<filter id="filter0_d_912_6105" x="0" y="0" width="88" height="88" filterUnits="userSpaceOnUse" color-interpolation-filters="sRGB">
<feFlood flood-opacity="0" result="BackgroundImageFix"/>
<feColorMatrix in="SourceAlpha" type="matrix" values="0 0 0 0 0 0 0 0 0 0 0 0 0 0 0 0 0 0 127 0" result="hardAlpha"/>
<feOffset dy="1"/>
<feGaussianBlur stdDeviation="1"/>
<feComposite in2="hardAlpha" operator="out"/>
<feColorMatrix type="matrix" values="0 0 0 0 0 0 0 0 0 0 0 0 0 0 0 0 0 0 0.25 0"/>
<feBlend mode="normal" in2="BackgroundImageFix" result="effect1_dropShadow_912_6105"/>
<feBlend mode="normal" in="SourceGraphic" in2="effect1_dropShadow_912_6105" result="shape"/>
</filter>
</defs>
</svg>
