<svg width="88" height="88" viewBox="0 0 88 88" fill="none" xmlns="http://www.w3.org/2000/svg">
<g filter="url(#filter0_d_912_6106)">
<circle cx="44" cy="43" r="42" fill="white"/>
</g>
<mask id="mask0_912_6106" style="mask-type:alpha" maskUnits="userSpaceOnUse" x="12" y="11" width="64" height="64">
<rect x="12" y="11" width="64" height="64" fill="#D9D9D9"/>
</mask>
<g mask="url(#mask0_912_6106)">
<path d="M31.9997 54.9993C31.9997 53.8745 32.3852 52.9267 33.1563 52.156C33.927 51.3849 34.8748 50.9993 35.9997 50.9993C37.1246 50.9993 38.0723 51.3849 38.843 52.156C39.6141 52.9267 39.9997 53.8745 39.9997 54.9993C39.9997 56.1242 39.6141 57.072 38.843 57.8427C38.0723 58.6138 37.1246 58.9993 35.9997 58.9993C34.8748 58.9993 33.927 58.6138 33.1563 57.8427C32.3852 57.072 31.9997 56.1242 31.9997 54.9993ZM43.9997 50.9993H58.3583C59.5859 50.9993 60.6108 51.4105 61.433 52.2327C62.2552 53.0549 62.6663 54.0798 62.6663 55.3073V70.9993H59.9997V64.3327H27.9997V70.9993H25.333V48.3327H27.9997V61.666H43.9997V50.9993ZM53.9997 45.666L46.133 31.3993L39.0663 38.466L39.7843 43.0507L37.7843 45.0507L34.5483 39.184L28.6303 35.984L30.6303 33.984L35.215 34.584L42.333 27.466L27.9997 19.666L30.533 17.1327L48.133 21.666L55.333 14.466C55.8663 13.9327 56.5108 13.666 57.2663 13.666C58.0219 13.666 58.6663 13.9327 59.1997 14.466C59.733 14.9993 59.9997 15.6438 59.9997 16.3993C59.9997 17.1549 59.733 17.7993 59.1997 18.3327L51.9997 25.5327L56.533 43.1327L53.9997 45.666ZM59.9997 61.666V55.3073C59.9997 54.8287 59.8459 54.4353 59.5383 54.1273C59.2303 53.8198 58.837 53.666 58.3583 53.666H46.6663V61.666H59.9997Z" fill="#1C1B1F"/>
</g>
<defs>
<filter id="filter0_d_912_6106" x="0" y="0" width="88" height="88" filterUnits="userSpaceOnUse" color-interpolation-filters="sRGB">
<feFlood flood-opacity="0" result="BackgroundImageFix"/>
<feColorMatrix in="SourceAlpha" type="matrix" values="0 0 0 0 0 0 0 0 0 0 0 0 0 0 0 0 0 0 127 0" result="hardAlpha"/>
<feOffset dy="1"/>
<feGaussianBlur stdDeviation="1"/>
<feComposite in2="hardAlpha" operator="out"/>
<feColorMatrix type="matrix" values="0 0 0 0 0 0 0 0 0 0 0 0 0 0 0 0 0 0 0.25 0"/>
<feBlend mode="normal" in2="BackgroundImageFix" result="effect1_dropShadow_912_6106"/>
<feBlend mode="normal" in="SourceGraphic" in2="effect1_dropShadow_912_6106" result="shape"/>
</filter>
</defs>
</svg>
