<svg width="42" height="42" viewBox="0 0 42 42" fill="none" xmlns="http://www.w3.org/2000/svg">
<path d="M31.9895 10.0086V5.91885H30.3281L33.4591 2.85156L36.5262 5.91885H34.8649V10.0086" stroke="black" stroke-miterlimit="10" stroke-linecap="round" stroke-linejoin="round"/>
<path d="M7.134 10.0086V5.91885H5.47266L8.53975 2.85156L11.6707 5.91885H10.0094V10.0086" stroke="black" stroke-miterlimit="10" stroke-linecap="round" stroke-linejoin="round"/>
<path d="M3.10938 37.1024V15.1202C3.10938 14.0977 3.94005 13.2031 5.02631 13.2031H16.2723" stroke="black" stroke-miterlimit="10" stroke-linecap="round" stroke-linejoin="round"/>
<path d="M25.793 13.2031H36.9751C38.0613 13.2031 38.892 14.0977 38.892 15.1202V37.0385" stroke="black" stroke-miterlimit="10" stroke-linecap="round" stroke-linejoin="round"/>
<path d="M26.4961 15.8281H36.3364V37.1074" stroke="black" stroke-miterlimit="10" stroke-linecap="round" stroke-linejoin="round"/>
<path d="M5.66406 37.1074V15.8281H15.5043" stroke="black" stroke-miterlimit="10" stroke-linecap="round" stroke-linejoin="round"/>
<path d="M41 37.1016C41 38.1879 40.5527 39.1464 39.8498 39.8493C39.147 40.5523 38.1885 40.9996 37.1022 40.9996H4.89776C2.72524 40.9996 1 39.2742 1 37.1016H16.0799L16.3994 37.8045C16.7827 38.5713 17.5495 39.0186 18.3802 39.0186H23.5559C24.3866 39.0186 25.1534 38.5074 25.5367 37.8045L25.8562 37.1016H41Z" stroke="black" stroke-miterlimit="10" stroke-linecap="round" stroke-linejoin="round"/>
<path d="M21.0012 1C15.9533 2.59754 13.7808 12.4384 19.3399 22.0237H22.7265C28.2217 12.4384 26.0492 2.59754 21.0012 1Z" stroke="black" stroke-miterlimit="10" stroke-linecap="round" stroke-linejoin="round"/>
<path d="M18.3789 20.2969H23.6185" stroke="black" stroke-miterlimit="10" stroke-linecap="round" stroke-linejoin="round"/>
<path d="M19.3405 22.0859L18.0625 24.5781H23.9411L22.6631 22.0859" stroke="black" stroke-miterlimit="10" stroke-linecap="round" stroke-linejoin="round"/>
<path d="M20.9987 12.6306C22.4456 12.6306 23.6185 11.4576 23.6185 10.0106C23.6185 8.56363 22.4456 7.39062 20.9987 7.39062C19.5518 7.39062 18.3789 8.56363 18.3789 10.0106C18.3789 11.4576 19.5518 12.6306 20.9987 12.6306Z" stroke="black" stroke-miterlimit="10" stroke-linecap="round" stroke-linejoin="round"/>
<path d="M25.4077 15.1875C27.069 15.8904 28.2831 17.488 28.2831 19.4689C28.2831 20.8748 27.6441 22.0889 26.6856 22.9196C26.7495 22.7279 26.7495 22.4723 26.7495 22.2167C26.7495 20.5552 25.855 19.0216 24.4492 18.2548" stroke="black" stroke-miterlimit="10" stroke-linecap="round" stroke-linejoin="round"/>
<path d="M17.4848 18.2548C16.143 19.0855 15.2484 20.5552 15.2484 22.2167C15.2484 22.4723 15.2484 22.664 15.3123 22.9196C14.3538 22.0889 13.7148 20.8748 13.7148 19.4689C13.7148 17.5519 14.9289 15.8904 16.5902 15.1875" stroke="black" stroke-miterlimit="10" stroke-linecap="round" stroke-linejoin="round"/>
<path d="M17.2305 4.64062H24.7704" stroke="black" stroke-miterlimit="10" stroke-linecap="round" stroke-linejoin="round"/>
<path d="M29.6279 30.8409C30.7141 30.8409 31.5448 31.7356 31.5448 32.758C31.5448 33.7804 30.6502 34.675 29.6279 34.675C28.5416 34.675 27.7109 33.7804 27.7109 32.758V28.4766" stroke="black" stroke-miterlimit="10" stroke-linecap="round" stroke-linejoin="round"/>
<path d="M12.374 30.8409C11.2877 30.8409 10.457 31.7356 10.457 32.758C10.457 33.7804 11.3516 34.675 12.374 34.675C13.4602 34.675 14.2909 33.7804 14.2909 32.758V28.4766" stroke="black" stroke-miterlimit="10" stroke-linecap="round" stroke-linejoin="round"/>
<path d="M24.0693 28.8616C24.7083 29.0533 25.2194 29.6284 25.2194 30.3313C25.2194 31.162 24.5166 31.8649 23.6859 31.8649C22.8552 31.8649 22.1523 31.162 22.1523 30.3313V26.625" stroke="black" stroke-miterlimit="10" stroke-linecap="round" stroke-linejoin="round"/>
<path d="M17.9314 28.8616C17.2924 29.0533 16.7812 29.6284 16.7812 30.3313C16.7812 31.162 17.4841 31.8649 18.3148 31.8649C19.1455 31.8649 19.8483 31.162 19.8483 30.3313V26.625" stroke="black" stroke-miterlimit="10" stroke-linecap="round" stroke-linejoin="round"/>
<path d="M16.4609 34.6813H16.7165C18.4418 34.6813 19.9114 33.2754 19.9114 31.4862V30.3359" stroke="black" stroke-miterlimit="10" stroke-linecap="round" stroke-linejoin="round"/>
<path d="M25.5364 34.6813H25.2808C23.5556 34.6813 22.0859 33.2754 22.0859 31.4862V30.3359" stroke="black" stroke-miterlimit="10" stroke-linecap="round" stroke-linejoin="round"/>
<path d="M21 34.6803V34.2969" stroke="black" stroke-miterlimit="10" stroke-linecap="round" stroke-linejoin="round"/>
<path d="M30.3281 22.6016V25.541" stroke="black" stroke-miterlimit="10" stroke-linecap="round" stroke-linejoin="round"/>
<path d="M32.0547 24.2656V25.5437" stroke="black" stroke-miterlimit="10" stroke-linecap="round" stroke-linejoin="round"/>
<path d="M11.6719 22.6016V25.541" stroke="black" stroke-miterlimit="10" stroke-linecap="round" stroke-linejoin="round"/>
<path d="M9.94531 24.2656V25.5437" stroke="black" stroke-miterlimit="10" stroke-linecap="round" stroke-linejoin="round"/>
</svg>
