<svg width="40" height="40" viewBox="0 0 40 40" fill="none" xmlns="http://www.w3.org/2000/svg">
<path d="M16.7756 9.6749C16.7756 5.762 13.5917 2.57812 9.67881 2.57812C5.7659 2.57812 2.58203 5.762 2.58203 9.6749C2.58203 13.5878 5.7659 16.7717 9.67881 16.7717C13.5917 16.7717 16.7756 13.5878 16.7756 9.6749ZM3.87235 9.6749C3.87235 6.47361 6.47751 3.86845 9.67881 3.86845C12.8801 3.86845 15.4853 6.47361 15.4853 9.6749C15.4853 12.8762 12.8801 15.4813 9.67881 15.4813C6.47751 15.4813 3.87235 12.8762 3.87235 9.6749Z" fill="black"/>
<path d="M9.67629 12.9055C7.89758 12.9055 6.45048 11.4584 6.45048 9.67969H5.16016C5.16016 12.17 7.18596 14.1958 9.67629 14.1958V12.9055Z" fill="black"/>
<path d="M40 34.9806V23.0839L32.9942 24.4852L31.6174 23.7968C31.6394 22.3858 32.2845 21.0839 33.4013 20.2148L33.6581 20.0148C36.0484 18.1561 37.4194 15.3523 37.4194 12.3245C37.4194 6.95161 33.0484 2.58065 27.6755 2.58065H26.5174C23.4548 2.58065 20.6039 4.02065 18.7755 6.41226C17.4323 2.68065 13.8665 0 9.67742 0C4.34129 0 0 4.34129 0 9.67742C0 14.1187 3.01161 17.8613 7.09677 18.9948V19.0877L5.4271 20.7574C4.0071 22.1768 3.22581 24.0639 3.22581 26.071C3.22581 26.3452 3.24129 26.6245 3.27161 26.9006L3.79871 31.6432C3.85742 32.1742 4.00839 32.6858 4.24774 33.1639L5.11742 34.9026L4.02968 38.7097H0V40H27.0968C29.5871 40 31.6129 37.9742 31.6129 35.4839V34.2697L32.9942 33.5794L40 34.9806ZM29.4084 33.5484H26.9774C27.0503 33.3458 27.0968 33.1303 27.0968 32.9032C27.0968 32.4058 26.9026 31.9561 26.5935 31.6129C26.9032 31.2697 27.0968 30.82 27.0968 30.3226C27.0968 29.9781 26.9955 29.649 26.8265 29.3568C26.9935 29.071 27.0968 28.7419 27.0968 28.3871V27.0968H27.3748C27.9258 27.9019 28.8335 28.3871 29.8297 28.3871H30.9677V27.0968H29.8297C29.1858 27.0968 28.6071 26.7387 28.3194 26.1632L28.1406 25.8064H25.8064V28.3871C25.8064 28.7426 25.5168 29.0323 25.1613 29.0323C24.8058 29.0323 24.5161 28.7426 24.5161 28.3871V25.1613C24.5161 24.8058 24.8058 24.5161 25.1613 24.5161H29.4084C29.9065 24.5161 30.4052 24.6342 30.851 24.8568L32.2574 25.56V32.5045L30.851 33.2077C30.4058 33.4303 29.9065 33.5484 29.4084 33.5484ZM22.5806 33.5484C22.2252 33.5484 21.9355 33.2587 21.9355 32.9032C21.9355 32.5477 22.2252 32.2581 22.5806 32.2581H25.1613C25.5168 32.2581 25.8064 32.5477 25.8064 32.9032C25.8064 33.2587 25.5168 33.5484 25.1613 33.5484H24.5161H22.5806ZM21.9355 25.1613C21.9355 24.8058 22.2252 24.5161 22.5806 24.5161H23.3445C23.2723 24.7187 23.2258 24.9342 23.2258 25.1613V25.8064H22.5806C22.2252 25.8064 21.9355 25.5168 21.9355 25.1613ZM27.7419 23.2258H26.4516V18.531L22.7123 12.2981L23.871 10.7529L25.9168 13.4806L27.0968 11.12L28.2768 13.4806L30.3226 10.7529L31.4813 12.2987L27.7419 18.531V23.2258ZM25.7826 30.211C25.789 30.249 25.8064 30.2839 25.8064 30.3226C25.8064 30.6781 25.5168 30.9677 25.1613 30.9677H22.5806C22.2252 30.9677 21.9355 30.6781 21.9355 30.3226C21.9355 29.9671 22.2252 29.6774 22.5806 29.6774H23.729C24.0832 30.0703 24.5916 30.3226 25.1613 30.3226C25.38 30.3226 25.5865 30.2781 25.7826 30.211ZM21.9355 27.7419C21.9355 27.3865 22.2252 27.0968 22.5806 27.0968H23.2258V28.3871H22.5806C22.2252 28.3871 21.9355 28.0974 21.9355 27.7419ZM33.5484 25.6903L38.7097 24.6581V33.4064L33.5484 32.3742V25.6903ZM26.5181 3.87097H27.6761C32.3368 3.87097 36.129 7.66323 36.129 12.3245C36.129 14.9516 34.9394 17.3839 32.8652 18.9974L32.6084 19.1974C31.2994 20.2155 30.4994 21.7013 30.3529 23.3316C30.0426 23.2645 29.7258 23.2258 29.4084 23.2258H29.0323V18.8884L33.0348 12.2181L30.3226 8.60194L28.4974 11.0355L27.0968 8.23484L25.6961 11.0355L23.871 8.60194L21.1587 12.2174L25.1613 18.8884V23.2258H23.8342C23.6632 21.6361 22.8658 20.1935 21.5852 19.1968L21.3277 18.9961C19.7632 17.78 18.6852 16.0529 18.2645 14.1206C18.9568 12.789 19.3548 11.28 19.3548 9.67742C19.3548 9.13161 19.2987 8.6 19.2116 8.07871C20.7245 5.48 23.5032 3.87097 26.5181 3.87097ZM1.29032 9.67742C1.29032 5.0529 5.0529 1.29032 9.67742 1.29032C14.3019 1.29032 18.0645 5.0529 18.0645 9.67742C18.0645 14.3019 14.3019 18.0645 9.67742 18.0645C5.0529 18.0645 1.29032 14.3019 1.29032 9.67742ZM9.36064 25.0729L8.60774 29.589C8.57871 29.7639 8.5 29.9194 8.3871 30.0413V19.2587C8.81032 19.3155 9.23871 19.3548 9.67742 19.3548C10.1161 19.3548 10.5445 19.3155 10.9677 19.2587V22.9052C10.1394 23.32 9.52258 24.1026 9.36064 25.0729ZM4.55419 26.7594C4.52903 26.531 4.51613 26.3013 4.51613 26.071C4.51613 24.4084 5.16323 22.8452 6.33935 21.6697L7.09677 20.9123V31.6129H7.74194C8.80645 31.6129 9.70581 30.851 9.88064 29.8013L10.6335 25.2852C10.7697 24.4658 11.4716 23.871 12.3026 23.871L12.829 31.2458C12.8703 31.8226 12.7555 32.4013 12.4968 32.9181L11.8594 34.1935H6.20516L5.40194 32.5871C5.23097 32.2458 5.12323 31.88 5.08065 31.5006L4.55419 26.7594ZM6.2929 35.4839H11.771L12.6929 38.7097H5.37161L6.2929 35.4839ZM14.0348 38.7097L12.9471 34.9026L13.651 33.4955C14.0129 32.771 14.1742 31.9619 14.1161 31.1542L13.5897 23.7787C13.5413 23.1071 12.9761 22.5806 12.3026 22.5806C12.2877 22.5806 12.2735 22.5845 12.2581 22.5845V18.9948C14.3045 18.4271 16.0761 17.2058 17.3387 15.5671C17.9561 17.3155 19.0555 18.8645 20.5355 20.0155L20.7929 20.2161C21.7581 20.9671 22.369 22.0426 22.5323 23.2316C21.4877 23.2574 20.6452 24.1103 20.6452 25.1613C20.6452 25.6587 20.8394 26.1084 21.1484 26.4516C20.8387 26.7948 20.6452 27.2445 20.6452 27.7419C20.6452 28.2394 20.8394 28.689 21.1484 29.0323C20.8387 29.3755 20.6452 29.8252 20.6452 30.3226C20.6452 30.82 20.8394 31.2697 21.1484 31.6129C20.8387 31.9561 20.6452 32.4058 20.6452 32.9032C20.6452 33.9703 21.5135 34.8387 22.5806 34.8387V35.4839C22.5806 36.7471 23.1032 37.889 23.9419 38.7097H14.0348ZM27.0968 38.7097C25.3181 38.7097 23.871 37.2626 23.871 35.4839V34.8387H24.5161H25.1613H29.4084C29.7155 34.8387 30.0213 34.8013 30.3226 34.7394V35.4839C30.3226 37.2626 28.8755 38.7097 27.0968 38.7097Z" fill="black"/>
</svg>
