<svg width="32" height="28" viewBox="0 0 32 28" fill="none" xmlns="http://www.w3.org/2000/svg">
<path d="M20.786 13.8497C20.786 13.8497 20.8234 13.8497 20.8607 14.0045C20.9355 14.1205 21.0103 14.2753 21.085 14.4687C21.1972 14.7008 21.3093 14.9329 21.4215 15.2811C21.5336 15.5905 21.6458 15.9774 21.7206 16.4416C21.8701 17.3314 21.9075 18.4532 21.6458 19.7298C21.571 20.0393 21.4963 20.3875 21.3841 20.6969C21.272 21.0064 21.1598 21.3546 21.0103 21.7027C20.7112 22.3604 20.3 23.018 19.814 23.6757C19.328 24.2946 18.7299 24.9136 18.0944 25.4551C17.4215 25.9967 16.6738 26.4996 15.8514 26.8865C15.029 27.2733 14.1318 27.5828 13.1598 27.7762C12.2252 27.9697 11.2159 28.047 10.2065 27.9697C9.94485 27.9697 9.68317 27.9697 9.45887 27.8923C9.34672 27.8923 9.19718 27.8923 9.08504 27.8149H8.7112C8.7112 27.8149 8.59905 27.7375 8.52429 27.7375H8.33737C8.22522 27.6602 8.07569 27.6215 7.96354 27.5828C7.70186 27.5054 7.44018 27.4281 7.21588 27.312C6.7299 27.1186 6.20653 26.8865 5.75793 26.6157C5.27195 26.3449 4.82335 26.0354 4.41214 25.6873C3.55233 24.9909 2.80466 24.1399 2.16915 23.2114C1.53363 22.283 1.04765 21.2772 0.67382 20.194C-0.0364607 18.0664 -0.185993 15.7453 0.22896 13.5789C0.341109 13.0374 0.453259 12.4958 0.640175 11.9542C0.827091 11.4126 1.05139 10.9097 1.31307 10.4068C1.83644 9.43968 2.50933 8.54993 3.29438 7.8536C4.07943 7.11859 4.93924 6.53832 5.83644 6.15147C6.73363 5.72594 7.7056 5.49383 8.64018 5.37778C9.57476 5.26173 10.472 5.30041 11.3318 5.49383C11.743 5.5712 12.1542 5.68726 12.5654 5.842H12.7149C12.7149 5.88068 12.8645 5.91937 12.8645 5.91937C12.9392 5.95805 13.0514 5.99674 13.1635 6.03542C13.2757 6.07411 13.3505 6.11279 13.4626 6.15147C13.5374 6.19016 13.6495 6.22884 13.7243 6.30621C14.4346 6.69306 15.0701 7.19596 15.5561 7.73755C16.0794 8.27913 16.4533 8.8594 16.7523 9.43968C17.0514 10.0199 17.2383 10.6002 17.3878 11.1418C17.5 11.6834 17.5748 12.1863 17.5748 12.6505V13.3081C17.5748 13.5016 17.5748 13.695 17.5 13.8497C17.4252 14.0045 17.4252 14.1979 17.4252 14.314C17.4252 14.4687 17.3505 14.5847 17.3131 14.7008C17.3131 14.8169 17.2383 14.8942 17.2009 15.0103C17.2009 15.0876 17.1262 15.165 17.1262 15.2037C17.1262 15.3198 17.0514 15.3584 17.0514 15.3584V13.7724C17.0514 13.4242 16.9766 13.076 16.9019 12.6505C16.8271 12.225 16.6776 11.7994 16.4906 11.3352C16.3037 10.871 16.042 10.4068 15.7056 9.98126C15.0701 9.09151 14.0981 8.27913 12.9019 7.8536C12.8271 7.81492 12.7523 7.81492 12.6776 7.77623C12.6776 7.77623 12.6028 7.73755 12.5654 7.73755H12.4533C12.3785 7.66018 12.3037 7.66018 12.229 7.62149H12.0794C12.0794 7.58281 12.0047 7.58281 12.0047 7.58281C11.6682 7.50544 11.3318 7.46676 10.9953 7.42807C10.3224 7.38939 9.61214 7.42807 8.90186 7.58281C7.4813 7.89229 6.1355 8.6273 5.05139 9.74915C4.52803 10.3294 4.07943 10.9484 3.7056 11.6834C3.36915 12.4184 3.14485 13.1534 2.99532 14.0045C2.73363 15.6679 2.88317 17.4474 3.40653 19.0722C3.96728 20.6969 4.90186 22.1669 6.1355 23.2114C6.43457 23.4822 6.77102 23.7143 7.10747 23.9464C7.44391 24.1786 7.78036 24.3333 8.15419 24.488C8.40342 24.5912 8.59033 24.6686 8.71494 24.7201C8.78971 24.7201 8.90186 24.7975 8.97662 24.7975H9.08877C9.08877 24.7975 9.16354 24.8749 9.23831 24.8749H9.49999C9.61214 24.8749 9.6869 24.8749 9.79905 24.9522C9.98597 24.9522 10.1729 25.0296 10.3972 25.0683C11.9673 25.2617 13.5374 25.0683 14.9206 24.5654C16.3037 24.0625 17.5374 23.2501 18.472 22.283C19.4065 21.3159 20.0794 20.2327 20.4906 19.1882C20.9019 18.1437 21.0514 17.1379 21.0888 16.2869C21.0888 15.4358 21.014 14.7782 20.9019 14.314C20.8645 14.0818 20.8271 13.9271 20.7897 13.811C20.6776 13.8884 20.6776 13.811 20.6776 13.811L20.7897 13.8497H20.786Z" fill="black"/>
<mask id="mask0_331_7852" style="mask-type:luminance" maskUnits="userSpaceOnUse" x="21" y="3" width="6" height="8">
<path d="M21.1562 3.60547C21.1562 3.60547 23.0628 4.99812 23.2123 6.85499C23.3619 8.71185 22.3151 9.98845 24.0348 10.53C25.5675 11.0329 26.5768 9.25344 26.4273 7.62868L26.0534 7.89947C26.0534 7.89947 25.7918 5.96524 25.1189 4.84338L24.9693 5.61707C24.9693 5.61707 23.8478 4.14705 23.0628 3.72152L23.1376 4.18574C23.1749 4.22442 22.4273 3.68284 21.1562 3.60547Z" fill="white"/>
</mask>
<g mask="url(#mask0_331_7852)">
<path d="M23.2869 12.1181L27.6234 10.1065L24.1841 2.21484L19.8477 4.22645L23.2869 12.1181Z" fill="url(#paint0_linear_331_7852)"/>
</g>
<mask id="mask1_331_7852" style="mask-type:luminance" maskUnits="userSpaceOnUse" x="21" y="3" width="5" height="8">
<path d="M21.1562 3.60547C21.1562 3.60547 23.0628 4.99812 23.2123 6.85499C23.3619 8.71185 22.3525 9.94976 24.0348 10.53C26.1282 9.36949 25.0815 5.77181 21.1562 3.60547Z" fill="white"/>
</mask>
<g mask="url(#mask1_331_7852)">
<path d="M22.8383 11.1107L26.6514 9.33119L23.6607 2.44531L19.8477 4.22481L22.8383 11.1107Z" fill="url(#paint1_linear_331_7852)"/>
</g>
<path fill-rule="evenodd" clip-rule="evenodd" d="M26.8396 16.0578C26.9517 15.3228 26.5779 14.0075 26.2788 13.3112C26.391 13.6207 26.4284 13.8528 26.4658 14.0849C26.2415 13.582 25.8302 13.0017 25.2321 12.4988C23.3256 10.8741 21.1947 11.6478 20.148 12.6149C19.1013 13.582 17.0078 15.4775 17.0078 15.4775C17.0078 15.4775 18.5779 13.6594 19.8489 11.9572C19.9611 5.88374 29.7181 9.44273 27.8489 14.4717C27.8489 13.9302 27.6246 13.4659 27.6246 13.4659C27.8863 14.6265 27.5499 15.2454 26.8396 16.0578Z" fill="#561F5B"/>
<mask id="mask2_331_7852" style="mask-type:luminance" maskUnits="userSpaceOnUse" x="20" y="10" width="7" height="5">
<path d="M26.4607 14.083C26.2364 13.5801 25.8252 12.9999 25.227 12.497C23.5822 11.1043 21.7878 11.4912 20.6289 12.2262C22.685 8.89928 25.8252 10.8722 26.4607 14.083Z" fill="white"/>
</mask>
<g mask="url(#mask2_331_7852)">
<path d="M22.2742 16.0542L27.0966 13.7718L24.592 8.00781L19.7695 10.2902L22.2742 16.0542Z" fill="url(#paint2_linear_331_7852)"/>
</g>
<mask id="mask3_331_7852" style="mask-type:luminance" maskUnits="userSpaceOnUse" x="23" y="0" width="7" height="13">
<path d="M25.3826 0.933594C25.3826 0.933594 26.9153 3.98969 25.9433 6.46551C24.9714 8.94133 22.8405 9.83108 24.6723 11.6879C26.3172 13.3514 28.7097 11.804 29.5321 9.63766L28.8966 9.75371C28.8966 9.75371 29.7938 7.12315 29.6443 5.26628L28.9714 6.11735C28.9714 6.11735 28.4854 3.48679 27.7751 2.40361L27.5882 3.06125C27.5508 3.06125 26.9527 1.86203 25.3826 0.933594Z" fill="white"/>
</mask>
<g mask="url(#mask3_331_7852)">
<path d="M24.7081 14.0851L31.9978 10.7196L27.3249 0.00390625L20.0352 3.40816L24.7081 14.0851Z" fill="url(#paint3_linear_331_7852)"/>
</g>
<mask id="mask4_331_7852" style="mask-type:luminance" maskUnits="userSpaceOnUse" x="23" y="0" width="5" height="12">
<path d="M25.3822 0.933594C25.3822 0.933594 26.9149 3.98969 25.9429 6.46551C24.971 8.90265 22.8775 9.7924 24.6345 11.6493C27.999 11.6106 28.971 6.34946 25.3822 0.933594Z" fill="white"/>
</mask>
<g mask="url(#mask4_331_7852)">
<path d="M24.3694 13.3121L30.6871 10.3334L26.3881 0.46875L20.0703 3.40879L24.3694 13.3121Z" fill="url(#paint4_linear_331_7852)"/>
</g>
<path fill-rule="evenodd" clip-rule="evenodd" d="M21.0847 10.2188C21.0847 10.2188 21.0473 10.5669 20.8604 10.7217C20.6735 10.8764 20.4492 10.8377 20.4865 11.0698C20.7482 11.2632 21.0847 10.8764 21.0847 10.2188Z" fill="#F9F9FA"/>
<mask id="mask5_331_7852" style="mask-type:luminance" maskUnits="userSpaceOnUse" x="20" y="10" width="2" height="2">
<path d="M20.3418 10.332C20.3418 10.332 20.6782 10.4094 20.7904 10.6415C20.9025 10.8736 20.8278 11.067 21.0521 11.067C21.2764 10.8349 20.9399 10.4094 20.3418 10.332Z" fill="white"/>
</mask>
<g mask="url(#mask5_331_7852)">
<path d="M20.4858 10.1576L20.3418 11.1914L21.0078 11.2907L21.1518 10.2569L20.4858 10.1576Z" fill="#F9F9FA"/>
</g>
<path d="M16.932 16.8291C16.3713 16.8291 15.6984 17.0999 15.6984 18.3378V20.5042C15.6984 21.7807 14.4647 21.9355 13.6797 21.8968V21.7034C14.2778 21.7034 15.0255 21.51 15.0255 20.272V18.1057C15.0255 17.2546 15.5488 16.9065 16.147 16.7517C15.5488 16.597 15.0255 16.2488 15.0255 15.3978V13.2314C15.0255 12.0322 14.2778 11.7614 13.6797 11.8001V11.6067C14.4647 11.568 15.6984 11.7227 15.6984 12.9993V15.4365C15.6984 16.5196 16.446 16.6744 17.0442 16.6744V16.8678H16.932V16.8291Z" fill="url(#paint5_linear_331_7852)"/>
<path d="M5.23047 16.8287V16.6353C5.8286 16.6353 6.57626 16.4806 6.57626 15.3974V12.9603C6.57626 11.6837 7.80991 11.5289 8.59496 11.5676V11.761C7.99682 11.7223 7.24916 11.9931 7.24916 13.1924V15.3587C7.24916 16.2485 6.7258 16.5579 6.12767 16.7127C6.7258 16.8287 7.24916 17.2156 7.24916 18.0666V20.233C7.24916 21.4709 7.99682 21.703 8.59496 21.6643V21.8577C7.77253 21.8577 6.57626 21.7417 6.57626 20.4651V18.2987C6.57626 17.0608 5.90337 16.8287 5.34262 16.79H5.23047V16.8287Z" fill="url(#paint6_linear_331_7852)"/>
<path d="M13.53 16.0562L10.7637 14.3928L10.016 13.9286C9.71692 13.7738 9.38048 13.7738 9.08141 13.9286C8.78234 14.0833 8.63281 14.3928 8.63281 14.7409V18.9576C8.63281 19.3057 8.81973 19.6152 9.08141 19.7699C9.23094 19.8473 9.38048 19.886 9.53001 19.886C9.67954 19.886 9.82907 19.886 9.97861 19.7699L10.5767 19.4218L11.3992 18.9189L13.4552 17.681C13.7543 17.5262 13.9038 17.2168 13.9038 16.8686C14.016 16.5204 13.8291 16.211 13.53 16.0562ZM13.1562 17.0233L10.9506 18.3386L10.6515 18.532L9.64216 19.151H9.45524C9.41786 19.151 9.38048 19.0736 9.38048 18.9963V14.7796C9.38048 14.6636 9.45524 14.6249 9.45524 14.6249H9.60478L10.7263 15.2825L13.1562 16.7139C13.2309 16.7139 13.2309 16.8299 13.2309 16.8686C13.2683 16.8686 13.2683 16.9846 13.1562 17.0233Z" fill="url(#paint7_linear_331_7852)"/>
<path d="M11.4756 18.9221L10.0177 19.7732C9.86814 19.8506 9.7186 19.8893 9.56907 19.8893C9.41954 19.8893 9.23262 19.8893 9.12047 19.7732C8.82141 19.6185 8.67188 19.309 8.67188 18.9608V15.75L9.41954 16.6011V18.9995C9.41954 19.1156 9.4943 19.1543 9.4943 19.1543H9.68122L10.9896 18.3806L11.4756 18.9221Z" fill="url(#paint8_linear_331_7852)"/>
<path d="M14.0146 16.8668C14.0146 17.215 13.8277 17.5245 13.566 17.6792L11.5099 18.9171L10.6875 19.42V18.5303L11.0239 18.3368L13.2296 17.0216C13.3043 17.0216 13.3043 16.9055 13.3043 16.8668C13.3043 16.8281 13.3043 16.7508 13.2296 16.7121L10.7996 15.2808V14.4297L13.6034 16.0931C13.8277 16.2092 14.0146 16.5187 14.0146 16.8668Z" fill="url(#paint9_linear_331_7852)"/>
<defs>
<linearGradient id="paint0_linear_331_7852" x1="25.2349" y1="10.0646" x2="22.18" y2="4.54443" gradientUnits="userSpaceOnUse">
<stop stop-color="#03A672"/>
<stop offset="1" stop-color="#68C4A3"/>
</linearGradient>
<linearGradient id="paint1_linear_331_7852" x1="21.883" y1="3.68754" x2="25.125" y2="10.5333" gradientUnits="userSpaceOnUse">
<stop stop-color="#03A672"/>
<stop offset="1" stop-color="#65C3A1"/>
</linearGradient>
<linearGradient id="paint2_linear_331_7852" x1="21.767" y1="10.9605" x2="26.1756" y2="13.5996" gradientUnits="userSpaceOnUse">
<stop stop-color="#F9A13A"/>
<stop offset="1" stop-color="#B9539F"/>
</linearGradient>
<linearGradient id="paint3_linear_331_7852" x1="26.0808" y1="11.7987" x2="25.9486" y2="2.77322" gradientUnits="userSpaceOnUse">
<stop stop-color="#03A672"/>
<stop offset="1" stop-color="#68C4A3"/>
</linearGradient>
<linearGradient id="paint4_linear_331_7852" x1="25.6433" y1="1.47626" x2="25.0752" y2="12.2911" gradientUnits="userSpaceOnUse">
<stop stop-color="#03A672"/>
<stop offset="1" stop-color="#72C7A9"/>
</linearGradient>
<linearGradient id="paint5_linear_331_7852" x1="12.5133" y1="21.39" x2="16.5114" y2="12.5153" gradientUnits="userSpaceOnUse">
<stop stop-color="#03A672"/>
<stop offset="1" stop-color="#68C4A3"/>
</linearGradient>
<linearGradient id="paint6_linear_331_7852" x1="5.97439" y1="21.1189" x2="9.9336" y2="12.2425" gradientUnits="userSpaceOnUse">
<stop stop-color="#03A672"/>
<stop offset="1" stop-color="#68C4A3"/>
</linearGradient>
<linearGradient id="paint7_linear_331_7852" x1="9.52627" y1="19.9982" x2="11.8622" y2="14.7565" gradientUnits="userSpaceOnUse">
<stop stop-color="#F8951D"/>
<stop offset="1" stop-color="#FFD056"/>
</linearGradient>
<linearGradient id="paint8_linear_331_7852" x1="9.05318" y1="19.7771" x2="10.4783" y2="16.6019" gradientUnits="userSpaceOnUse">
<stop stop-color="#F8951D"/>
<stop offset="1" stop-color="#FFD056"/>
</linearGradient>
<linearGradient id="paint9_linear_331_7852" x1="10.837" y1="19.5361" x2="12.7377" y2="15.2505" gradientUnits="userSpaceOnUse">
<stop stop-color="#F8951D"/>
<stop offset="1" stop-color="#FFD056"/>
</linearGradient>
</defs>
</svg>
