<svg width="102" height="107" viewBox="0 0 102 107" fill="none" xmlns="http://www.w3.org/2000/svg">
<path d="M79.3388 49.6402C79.3388 33.6897 65.6947 20.8462 49.1716 21.6191C34.7783 22.2926 22.8681 33.6719 21.8994 47.699C21.4014 54.8959 23.6942 61.5494 27.8227 66.7522C32.4651 72.6042 35.2695 79.6398 35.2695 87.0398V88.0402H65.8985V87.0287C65.8985 79.8297 68.3452 72.8051 72.9808 67.2049C76.9554 62.4019 79.3388 56.296 79.3388 49.6402Z" fill="#FDBB33"/>
<path d="M65.9021 89.2517H35.2731C34.5873 89.2517 34.0327 88.7084 34.0327 88.0415V87.0412C34.0327 80.18 31.5475 73.4204 26.8441 67.4955C22.3624 61.8467 20.1669 54.789 20.6625 47.6187C21.6675 33.0616 34.1663 21.1103 49.1141 20.4125C57.4277 20.0084 65.2864 22.8814 71.2823 28.4573C77.2804 34.0355 80.5851 41.5591 80.5851 49.6437C80.5851 56.2907 78.2288 62.7986 73.9509 67.9682C69.5598 73.2703 67.1447 80.0409 67.1447 87.0324V88.0438C67.1424 88.7107 66.5857 89.2517 65.9021 89.2517ZM36.5135 86.8291H64.6617C64.7093 79.3585 67.3167 72.1264 72.0179 66.4445C75.9993 61.6348 78.102 55.8248 78.102 49.6415C78.102 42.2283 75.0713 35.3274 69.5689 30.2086C64.0687 25.0942 56.8302 22.4751 49.2341 22.8307C35.5244 23.4711 24.0623 34.4308 23.1388 47.7799C22.6839 54.3584 24.6961 60.8331 28.8065 66.0115C33.7996 72.3052 36.4614 79.4998 36.5135 86.8291Z" fill="black"/>
<path d="M69.6612 83.0859H31.5312V98.1952H69.6612V83.0859Z" fill="white"/>
<path d="M69.6533 99.4066H31.5255C30.8397 99.4066 30.2852 98.8633 30.2852 98.1942V83.0851C30.2852 82.416 30.842 81.875 31.5255 81.875H69.6555C70.3414 81.875 70.8959 82.4182 70.8959 83.0851V98.1942C70.8959 98.8655 70.3391 99.4066 69.6533 99.4066ZM32.7659 96.9841H68.4129V84.2975H32.7659V96.9841Z" fill="black"/>
<path d="M63.9561 104.894H37.2361L34.7734 98.1719H66.4187L63.9561 104.894Z" fill="#C4C6C8"/>
<path d="M63.956 106.105H37.2383C36.7155 106.105 36.2469 105.783 36.0704 105.302L33.6078 98.5797C33.472 98.2087 33.5285 97.7957 33.7617 97.4732C33.9948 97.1508 34.3728 96.9609 34.778 96.9609H66.4232C66.8261 96.9609 67.2063 97.153 67.4372 97.4732C67.6703 97.7957 67.727 98.2087 67.5912 98.5797L65.1285 105.302C64.9497 105.783 64.4811 106.105 63.956 106.105ZM38.1143 103.683H63.0846L64.66 99.3835H36.5367L38.1143 103.683Z" fill="black"/>
<path d="M43.7429 83.8988C43.3264 83.8988 42.9711 83.594 42.9213 83.181L38.2042 42.4116C38.1544 41.9677 38.4804 41.568 38.9353 41.5194C39.3518 41.4775 39.7978 41.7865 39.8498 42.2304L44.5668 83C44.6166 83.4439 44.2907 83.8436 43.8357 83.8922C43.8063 83.8966 43.7746 83.8988 43.7429 83.8988Z" fill="black"/>
<path d="M57.4383 83.8966C57.4066 83.8966 57.3749 83.8944 57.3455 83.8922C56.8905 83.8414 56.5646 83.4417 56.6144 83L61.3314 42.2306C61.3834 41.7867 61.8157 41.4775 62.2458 41.5194C62.7007 41.5702 63.0267 41.9699 62.9769 42.4116L58.2599 83.1812C58.2101 83.5919 57.8525 83.8966 57.4383 83.8966Z" fill="black"/>
<path d="M61.8276 43.7487C60.5442 43.7487 60.044 42.4082 59.6411 41.3305C59.4781 40.8933 59.1748 40.0828 58.9643 39.9636C58.8443 40.0828 58.541 40.8934 58.3781 41.3284C57.9752 42.406 57.4772 43.7464 56.1916 43.7464C54.9082 43.7464 54.408 42.406 54.0051 41.3284C53.8421 40.8912 53.5388 40.0807 53.3306 39.9614C53.2106 40.0785 52.9051 40.8911 52.7421 41.3261C52.3392 42.4037 51.839 43.7443 50.5533 43.7443C49.27 43.7443 48.7697 42.4037 48.3668 41.3261C48.2039 40.8889 47.9006 40.0785 47.6923 39.9593C47.5701 40.0763 47.2646 40.8889 47.1016 41.3239C46.6987 42.4016 46.1962 43.742 44.9105 43.742C43.6249 43.742 43.1224 42.4015 42.7195 41.3261C42.5566 40.8889 42.251 40.0763 42.0405 39.9593C41.9138 40.0763 41.6082 40.8889 41.4453 41.3261C41.0401 42.4015 40.5376 43.742 39.2542 43.742C38.797 43.742 38.4258 43.3799 38.4258 42.9338C38.4258 42.4877 38.797 42.1255 39.2542 42.1255C39.4217 42.0173 39.7273 41.207 39.8902 40.7697C40.2931 39.6921 40.7979 38.3516 42.0835 38.3516C43.3691 38.3516 43.8717 39.692 44.2746 40.7674C44.4375 41.2047 44.7431 42.0174 44.9536 42.1344C45.0803 42.0174 45.3836 41.2047 45.5466 40.7674C45.9495 39.6898 46.4497 38.3516 47.7353 38.3516C49.0187 38.3516 49.519 39.6921 49.9218 40.7697C50.0848 41.207 50.3881 42.0195 50.5964 42.1366C50.7186 42.0195 51.0241 41.207 51.1871 40.7697C51.59 39.6943 52.0902 38.3537 53.3736 38.3537C54.657 38.3537 55.1572 39.6942 55.5601 40.7719C55.723 41.2091 56.0264 42.0218 56.2346 42.1388C56.3568 42.0196 56.6579 41.2091 56.8208 40.7719C57.2237 39.6942 57.7217 38.3537 59.0073 38.3537C60.2907 38.3537 60.7909 39.6942 61.1938 40.7719C61.3567 41.2091 61.66 42.0218 61.8683 42.1388C62.3255 42.1388 62.6741 42.4943 62.6741 42.9404C62.6786 43.3909 62.2848 43.7487 61.8276 43.7487Z" fill="black"/>
<path d="M51.772 0H49.2891V14.0271H51.772V0Z" fill="black"/>
<path d="M26.2792 6.03092L24.1289 7.24219L31.3176 19.3896L33.4679 18.1784L26.2792 6.03092Z" fill="black"/>
<path d="M7.34308 23.7615L6.10156 25.8594L18.5544 32.8741L19.7959 30.7761L7.34308 23.7615Z" fill="black"/>
<path d="M14.3774 48.2188H0V50.6414H14.3774V48.2188Z" fill="black"/>
<path d="M18.6696 66.0632L6.21875 73.0781L7.46048 75.176L19.9113 68.161L18.6696 66.0632Z" fill="black"/>
<path d="M74.7121 6.01663L67.5234 18.1641L69.6737 19.3753L76.8624 7.22786L74.7121 6.01663Z" fill="black"/>
<path d="M93.7673 23.6647L81.3164 30.6797L82.5582 32.7777L95.0091 25.7627L93.7673 23.6647Z" fill="black"/>
<path d="M101.077 48.2188H86.6992V50.6414H101.077V48.2188Z" fill="black"/>
<path d="M82.4055 66.035L81.1641 68.1328L93.6149 75.1463L94.8564 73.0485L82.4055 66.035Z" fill="black"/>
<path d="M58.1074 89.4062H32.2656V91.8289H58.1074V89.4062Z" fill="black"/>
</svg>
