<svg width="40" height="40" viewBox="0 0 40 40" fill="none" xmlns="http://www.w3.org/2000/svg">
<path d="M37.3062 0H2.75415C1.25189 0 0 1.26382 0 2.78041V37.2196C0 38.7362 1.25189 40 2.75415 40H37.2436C38.7459 40 39.9978 38.7362 39.9978 37.2196V2.78041C40.0603 1.26382 38.8085 0 37.3062 0ZM2.75415 1.26382H37.2436C38.0573 1.26382 38.7459 1.95893 38.7459 2.78041V8.46761H1.25189V2.78041C1.25189 1.95893 1.94042 1.26382 2.75415 1.26382ZM37.3062 38.7994H2.75415C1.94042 38.7994 1.25189 38.1043 1.25189 37.2828V9.73144H38.8085V37.2196C38.8085 38.1043 38.1199 38.7994 37.3062 38.7994Z" fill="black"/>
<path d="M24.4482 22.8833L22.32 22.7569C22.1322 22.1882 21.8819 21.6194 21.5063 21.1139L22.7582 19.3446C22.946 19.0918 22.8834 18.7127 22.6956 18.5231L20.5048 16.5642C20.2544 16.3746 19.8789 16.3746 19.6911 16.5642L18.1262 18.0807C17.8132 17.8912 17.4377 17.7648 17.0621 17.7016L16.8743 15.5531C16.8743 15.2371 16.5614 14.9844 16.2484 14.9844H13.3065C12.9935 14.9844 12.7431 15.2371 12.6805 15.5531L12.4927 17.7016C11.9294 17.8912 11.3034 18.1439 10.8027 18.4599L9.11264 17.1329C8.86226 16.9433 8.48669 16.9433 8.29891 17.1961L6.29589 19.3446C6.04551 19.5973 6.04551 19.9765 6.29589 20.166L7.73556 21.809C7.42259 22.3777 7.23481 22.9465 7.10962 23.5152L4.98141 23.8311C4.66844 23.8943 4.41806 24.1471 4.41806 24.463L4.35547 27.3698C4.35547 27.6858 4.60585 27.9386 4.98141 28.0018L7.10962 28.1281C7.2974 28.6969 7.54778 29.2656 7.92334 29.7711L6.67146 31.5405C6.48367 31.7932 6.54627 32.1724 6.73405 32.3619L8.92485 34.3209C9.17523 34.5104 9.5508 34.5104 9.73858 34.3209L11.3034 32.8043C11.6164 32.9939 11.992 33.1202 12.3675 33.1834L12.5553 35.3319C12.5553 35.6479 12.8683 35.9006 13.1813 35.9006H16.1232C16.4362 35.9006 16.6865 35.6479 16.7491 35.3319L16.9369 33.1834C17.5003 32.9939 18.1262 32.7411 18.627 32.4251L20.317 33.7521C20.5674 33.9417 20.943 33.9417 21.1307 33.689L23.1338 31.5405C23.3841 31.2877 23.3841 30.9085 23.1338 30.719L21.6941 29.076C22.0071 28.5073 22.1948 27.9386 22.32 27.3698L24.4482 27.0539C24.7612 26.9907 25.0116 26.7379 25.0116 26.422V23.452C25.0116 23.136 24.7612 22.8833 24.4482 22.8833ZM21.8819 26.1692C21.6315 26.2324 21.3811 26.422 21.3811 26.6747C21.2559 27.433 20.943 28.1913 20.5674 28.8864C20.4422 29.1392 20.4422 29.392 20.63 29.6447L21.9445 31.1613L20.6926 32.4883L19.1277 31.2245C18.9399 31.0349 18.627 31.0349 18.3766 31.1613C17.7506 31.6036 16.9995 31.9196 16.2484 32.046C15.998 32.1092 15.8102 32.3619 15.7476 32.6147L15.5598 34.6368H13.7446L13.5568 32.6147C13.5568 32.3619 13.369 32.1092 13.0561 32.046C12.4927 31.9196 11.9294 31.73 11.4286 31.4141C11.1782 31.2877 10.9279 31.3509 10.6775 31.5405L9.23782 32.9307L7.92334 31.73L9.11264 30.0871C9.30042 29.8975 9.30042 29.5815 9.11264 29.3288C8.67447 28.6969 8.29891 28.0018 8.11113 27.2435C8.04853 26.9907 7.79815 26.8011 7.54778 26.8011L5.54476 26.6747L5.48217 24.8422L7.48518 24.5894C7.73556 24.5262 7.98594 24.3367 7.98594 24.0839C8.11113 23.3256 8.4241 22.5673 8.79966 21.8722C8.92485 21.6194 8.92485 21.3667 8.73707 21.1139L7.42259 19.5973L8.67447 18.2703L10.2393 19.5341C10.4271 19.7237 10.7401 19.7237 10.9905 19.5973C11.6164 19.155 12.3675 18.839 13.1187 18.7127C13.369 18.6495 13.5568 18.3967 13.6194 18.1439L13.8072 16.1218H15.6224L15.8102 18.1439C15.8102 18.3967 15.998 18.6495 16.311 18.7127C16.8743 18.839 17.4377 19.0286 17.9384 19.3446C18.1888 19.4709 18.4392 19.4078 18.6896 19.2182L20.1292 17.828L21.4437 19.0286L20.1918 20.7348C20.004 20.9243 20.004 21.2403 20.1918 21.4931C20.63 22.125 21.0056 22.8201 21.1933 23.5784C21.2559 23.8311 21.5063 24.0207 21.7567 24.0207L23.7597 24.1471L23.8223 25.9796L21.8819 26.1692Z" fill="black"/>
<path d="M14.7097 20.8516C12.2685 20.8516 10.3281 22.8105 10.3281 25.2749C10.3281 27.7394 12.2685 29.6983 14.7097 29.6983C17.1509 29.6983 19.0913 27.7394 19.0913 25.2749C19.0913 22.8105 17.1509 20.8516 14.7097 20.8516ZM14.7097 28.4345C12.9571 28.4345 11.58 26.9811 11.58 25.2749C11.58 23.5056 13.0197 22.1154 14.7097 22.1154C16.3998 22.1154 17.8394 23.5688 17.8394 25.2749C17.8394 27.0443 16.4624 28.4345 14.7097 28.4345Z" fill="black"/>
<path d="M5.58877 7.04928C6.65287 7.04928 7.46659 6.16461 7.46659 5.15355C7.46659 4.0793 6.59027 3.25781 5.58877 3.25781C4.52466 3.25781 3.71094 4.14249 3.71094 5.15355C3.71094 6.16461 4.58726 7.04928 5.58877 7.04928ZM5.58877 4.45844C5.96433 4.45844 6.21471 4.7744 6.21471 5.09036C6.21471 5.4695 5.90174 5.72227 5.58877 5.72227C5.2132 5.72227 4.96282 5.40631 4.96282 5.09036C4.96282 4.7744 5.27579 4.45844 5.58877 4.45844Z" fill="black"/>
<path d="M11.5614 7.04928C12.6255 7.04928 13.4393 6.16461 13.4393 5.15355C13.4393 4.0793 12.5629 3.25781 11.5614 3.25781C10.4973 3.25781 9.68359 4.14249 9.68359 5.15355C9.68359 6.16461 10.5599 7.04928 11.5614 7.04928ZM11.5614 4.45844C11.937 4.45844 12.1874 4.7744 12.1874 5.09036C12.1874 5.4695 11.8744 5.72227 11.5614 5.72227C11.1859 5.72227 10.9355 5.40631 10.9355 5.09036C10.9355 4.7744 11.2485 4.45844 11.5614 4.45844Z" fill="black"/>
<path d="M17.5333 7.04928C18.5974 7.04928 19.4112 6.16461 19.4112 5.15355C19.4112 4.0793 18.5348 3.25781 17.5333 3.25781C16.4692 3.25781 15.6555 4.14249 15.6555 5.15355C15.5929 6.16461 16.4692 7.04928 17.5333 7.04928ZM17.5333 4.45844C17.9089 4.45844 18.1593 4.7744 18.1593 5.09036C18.1593 5.4695 17.8463 5.72227 17.5333 5.72227C17.1578 5.72227 16.9074 5.40631 16.9074 5.09036C16.8448 4.7744 17.1578 4.45844 17.5333 4.45844Z" fill="black"/>
<path d="M22.2509 5.4982H34.8324C35.208 5.4982 35.4583 5.24543 35.4583 4.86629C35.4583 4.48714 35.208 4.23438 34.8324 4.23438H22.2509C21.8754 4.23438 21.625 4.48714 21.625 4.86629C21.625 5.24543 21.8754 5.4982 22.2509 5.4982Z" fill="black"/>
<path d="M31.9514 14.671C31.5132 14.6078 31.1377 14.9869 31.2003 15.4293L31.9514 19.4103L28.8843 20.0422L28.1332 15.998C28.0706 15.5557 27.5698 15.3661 27.1942 15.6188C25.3164 16.8827 24.3149 18.9048 24.5653 21.0533C24.8157 23.0754 26.0675 24.7184 27.9454 25.5399L29.698 34.513C29.7606 34.7026 29.8232 34.829 29.9484 34.8921C30.0736 34.9553 30.1988 35.0185 30.324 35.0185H30.4491L36.2078 33.8811C36.5208 33.8179 36.7712 33.5019 36.7086 33.1228L35.0185 24.1496C38.1482 20.9269 36.5208 15.6188 31.9514 14.671ZM30.7621 33.6283L29.0721 24.9711C29.0095 24.7816 28.8843 24.592 28.6965 24.5288C27.0691 23.8969 26.005 22.5699 25.8172 20.9269C25.6294 19.5999 26.1301 18.2729 27.1317 17.325L27.8202 20.8637C27.8828 21.1797 28.1958 21.4324 28.5713 21.3692L32.8903 20.5478C33.2033 20.4846 33.4537 20.1686 33.3911 19.7895L32.6399 16.1876C35.5819 17.4514 36.333 21.2429 33.8292 23.5177C33.7041 23.6441 33.5789 23.9601 33.6415 24.0865L35.3315 32.7436L30.7621 33.6283Z" fill="black"/>
</svg>
