<svg width="42" height="42" viewBox="0 0 42 42" fill="none" xmlns="http://www.w3.org/2000/svg">
<path d="M19.0039 6.63281H15.6797V13.0215H19.0039" stroke="black" stroke-miterlimit="10" stroke-linecap="round" stroke-linejoin="round"/>
<path d="M18.7588 9.82812H15.6797" stroke="black" stroke-miterlimit="10" stroke-linecap="round" stroke-linejoin="round"/>
<path d="M26.5557 7.24093C26.5557 7.24093 25.127 6.26845 23.4422 6.6794C21.8952 7.05678 21.6789 8.50121 22.798 9.09211C22.798 9.09211 23.8963 9.48889 25.1144 9.85268C28.0465 10.7285 26.7835 13.0256 24.423 13.0256C23.241 13.0256 22.2489 12.6065 21.6484 12.0699" stroke="black" stroke-miterlimit="10" stroke-linecap="round" stroke-linejoin="round"/>
<path d="M29.6172 6.57812H34.0143" stroke="black" stroke-miterlimit="10" stroke-linecap="round" stroke-linejoin="round"/>
<path d="M31.8047 6.78125V13.0229" stroke="black" stroke-miterlimit="10" stroke-linecap="round" stroke-linejoin="round"/>
<path d="M7.98828 6.57812H12.3854" stroke="black" stroke-miterlimit="10" stroke-linecap="round" stroke-linejoin="round"/>
<path d="M10.1797 6.78125V13.0229" stroke="black" stroke-miterlimit="10" stroke-linecap="round" stroke-linejoin="round"/>
<path d="M24.2461 19.1562H35.0064" stroke="black" stroke-miterlimit="10" stroke-linecap="round" stroke-linejoin="round"/>
<path d="M24.2461 24.1484H35.0064" stroke="black" stroke-miterlimit="10" stroke-linecap="round" stroke-linejoin="round"/>
<path d="M24.2461 29.375H35.0064" stroke="black" stroke-miterlimit="10" stroke-linecap="round" stroke-linejoin="round"/>
<path d="M24.2461 34.3672H35.0064" stroke="black" stroke-miterlimit="10" stroke-linecap="round" stroke-linejoin="round"/>
<path d="M18.2 18.5642C17.4178 17.9405 16.1592 17.9484 15.3891 18.582L12.0315 21.3437L10.3369 20.0618C9.53478 19.4549 8.27694 19.4894 7.52736 20.1392C6.77799 20.7888 6.82082 21.8074 7.62297 22.4143L10.7325 24.7666C11.1153 25.0562 11.6026 25.2 12.0892 25.2C12.6037 25.2 13.1174 25.0392 13.5059 24.7196L18.2219 20.8405C18.9921 20.207 18.9823 19.1879 18.2 18.5642Z" stroke="black" stroke-miterlimit="10" stroke-linecap="round" stroke-linejoin="round"/>
<path d="M18.2 28.783C17.4178 28.1592 16.1592 28.1672 15.3891 28.8007L12.0315 31.5624L10.3369 30.2805C9.53478 29.6737 8.27694 29.7082 7.52736 30.3579C6.77799 31.0075 6.82082 32.0262 7.62297 32.633L10.7325 34.9854C11.1153 35.2749 11.6026 35.4188 12.0892 35.4188C12.6037 35.4188 13.1174 35.258 13.5059 34.9384L18.2219 31.0593C18.9921 30.4258 18.9823 29.4066 18.2 28.783Z" stroke="black" stroke-miterlimit="10" stroke-linecap="round" stroke-linejoin="round"/>
<path d="M1 34.6904V38.3602C1 39.8181 2.4595 41 4.25989 41H37.7401C39.5405 41 41 39.8181 41 38.3602V3.63984C41 2.18189 39.5405 1 37.7401 1H33.5637" stroke="black" stroke-miterlimit="10" stroke-linecap="round" stroke-linejoin="round"/>
<path d="M30.085 1H4.25989C2.4595 1 1 2.18189 1 3.63984V31.8734" stroke="black" stroke-miterlimit="10" stroke-linecap="round" stroke-linejoin="round"/>
</svg>
