<svg width="40" height="40" viewBox="0 0 40 40" fill="none" xmlns="http://www.w3.org/2000/svg">
<path d="M29.9986 14.9974C27.7003 14.9974 25.832 13.1274 25.832 10.8307C25.832 8.53406 27.7003 6.66406 29.9986 6.66406C32.2969 6.66406 34.1652 8.53406 34.1652 10.8307C34.1652 13.1274 32.2969 14.9974 29.9986 14.9974ZM29.9986 8.33073C28.6203 8.33073 27.4987 9.4524 27.4987 10.8307C27.4987 12.2091 28.6203 13.3307 29.9986 13.3307C31.3769 13.3307 32.4985 12.2091 32.4985 10.8307C32.4985 9.4524 31.3769 8.33073 29.9986 8.33073Z" fill="black"/>
<path d="M31.2902 21.6667H28.7086C27.8586 21.6667 27.1553 21.02 27.0736 20.1617L26.8686 18.04C26.3837 17.8183 25.922 17.5417 25.487 17.215L23.6187 18.0833C22.8321 18.445 21.9288 18.1467 21.5071 17.3917L20.2155 15.09C19.8021 14.3533 19.9988 13.42 20.6738 12.9183L22.3404 11.685C22.3088 11.425 22.2854 11.135 22.2854 10.8317C22.2854 10.5283 22.3104 10.2383 22.3404 9.97833L20.6738 8.745C19.9988 8.24333 19.8022 7.31167 20.2171 6.57333L21.5054 4.27167C21.9288 3.51667 22.8371 3.22 23.6171 3.58L25.487 4.44833C25.922 4.12167 26.3837 3.845 26.8686 3.62333L27.0736 1.5C27.157 0.646667 27.8603 0 28.7103 0H31.2919C32.1419 0 32.8452 0.646667 32.9268 1.505L33.1318 3.62667C33.6168 3.85 34.0785 4.125 34.5135 4.45167L36.3818 3.58333C37.1667 3.22333 38.0717 3.52 38.4934 4.275L39.785 6.57667C40.1983 7.31333 40.0017 8.24667 39.3267 8.74833L37.6601 9.98167C37.6917 10.2417 37.7151 10.5317 37.7151 10.835C37.7151 11.1383 37.6901 11.4283 37.6601 11.6883L39.3267 12.9217C40.0017 13.4233 40.1983 14.355 39.7833 15.0933L38.495 17.395C38.07 18.15 37.1651 18.4483 36.3834 18.0867L34.5135 17.2183C34.0785 17.545 33.6168 17.8217 33.1318 18.0433L32.9268 20.1667C32.8435 21.02 32.1402 21.6667 31.2902 21.6667ZM25.6053 15.4083C25.802 15.4083 25.9953 15.4783 26.1503 15.6117C26.6937 16.0817 27.297 16.4433 27.942 16.685C28.2403 16.7967 28.4486 17.0683 28.4786 17.385L28.7319 20.0033L31.2902 20L31.5202 17.3833C31.5519 17.0667 31.7602 16.795 32.0569 16.6833C32.7018 16.4417 33.3052 16.08 33.8485 15.61C34.0951 15.3967 34.4435 15.345 34.7451 15.485L37.0834 16.5717L38.3284 14.275L36.2634 12.7283C36.0118 12.5417 35.8851 12.2283 35.9384 11.9183C36.0001 11.565 36.0468 11.2067 36.0468 10.835C36.0468 10.4633 36.0001 10.105 35.9384 9.75167C35.8868 9.44167 36.0118 9.12833 36.2634 8.94167L38.3334 7.40833L37.0401 5.09L34.7468 6.18167C34.4468 6.32 34.0968 6.27 33.8501 6.055C33.3085 5.585 32.7035 5.225 32.0585 4.98167C31.7602 4.87 31.5519 4.59833 31.5219 4.28167L31.2669 1.665L28.7103 1.66667L28.4803 4.28333C28.4486 4.6 28.2403 4.87167 27.9436 4.98333C27.2986 5.225 26.6953 5.58667 26.152 6.05667C25.9053 6.27 25.552 6.32 25.2554 6.18167L22.9171 5.095L21.6721 7.39167L23.7371 8.93833C23.9887 9.125 24.1154 9.43833 24.062 9.74833C24.0004 10.1017 23.9537 10.46 23.9537 10.8317C23.9537 11.2033 24.0004 11.5617 24.062 11.915C24.1137 12.225 23.9887 12.5383 23.7371 12.725L21.6671 14.2583L22.9604 16.5767L25.2537 15.485C25.367 15.4333 25.487 15.4083 25.6053 15.4083Z" fill="black"/>
<path d="M34.1658 40H4.16657C1.86829 40 0 38.1317 0 35.8333V9.16667C0 6.87 1.86829 5 4.16657 5H15.833C16.2929 5 16.6663 5.37333 16.6663 5.83333C16.6663 6.29333 16.2929 6.66667 15.833 6.66667H4.16657C2.78827 6.66667 1.66663 7.78833 1.66663 9.16667V35.8333C1.66663 37.2117 2.78827 38.3333 4.16657 38.3333H34.1658C35.5442 38.3333 36.6658 37.2117 36.6658 35.8333V22.5C36.6658 22.04 37.0391 21.6667 37.4991 21.6667C37.9591 21.6667 38.3324 22.04 38.3324 22.5V35.8333C38.3324 38.1317 36.4641 40 34.1658 40Z" fill="black"/>
<path d="M15.833 13.3307H0.833313C0.373324 13.3307 0 12.9574 0 12.4974C0 12.0374 0.373324 11.6641 0.833313 11.6641H15.833C16.2929 11.6641 16.6663 12.0374 16.6663 12.4974C16.6663 12.9574 16.2929 13.3307 15.833 13.3307Z" fill="black"/>
<path d="M14.167 31.668C13.9537 31.668 13.7403 31.5864 13.577 31.4247L10.2437 28.0914C9.91875 27.7664 9.91875 27.238 10.2437 26.913L13.577 23.5797C13.902 23.2547 14.4303 23.2547 14.7553 23.5797C15.0803 23.9047 15.0803 24.433 14.7553 24.758L12.012 27.5014L14.7553 30.2447C15.0803 30.5697 15.0803 31.098 14.7553 31.423C14.5936 31.5864 14.3803 31.668 14.167 31.668Z" fill="black"/>
<path d="M24.1658 31.6664C23.9524 31.6664 23.7391 31.5847 23.5758 31.423C23.2508 31.098 23.2508 30.5697 23.5758 30.2447L26.319 27.5014L23.5758 24.758C23.2508 24.433 23.2508 23.9047 23.5758 23.5797C23.9008 23.2547 24.4291 23.2547 24.7541 23.5797L28.0873 26.913C28.4123 27.238 28.4123 27.7664 28.0873 28.0914L24.7541 31.4247C24.5924 31.5847 24.3791 31.6664 24.1658 31.6664Z" fill="black"/>
<path d="M18.3323 32.5013C18.2773 32.5013 18.2223 32.4963 18.1673 32.4846C17.7157 32.3946 17.4223 31.9563 17.5123 31.5046L19.179 23.1713C19.2706 22.718 19.7256 22.4263 20.1589 22.5163C20.6106 22.6063 20.9039 23.0446 20.8139 23.4963L19.1473 31.8296C19.0673 32.228 18.7206 32.5013 18.3323 32.5013Z" fill="black"/>
</svg>
