<svg width="40" height="40" viewBox="0 0 40 40" fill="none" xmlns="http://www.w3.org/2000/svg">
<path fill-rule="evenodd" clip-rule="evenodd" d="M33.9417 39.9764H11.6546C11.3869 39.9764 11.168 39.7655 11.168 39.5077V33.3203C11.168 33.0625 11.3869 32.8516 11.6546 32.8516H33.9417C35.2556 32.8516 36.3261 33.8828 36.3261 35.1484V37.6796C36.3261 38.9452 35.2556 39.9764 33.9417 39.9764ZM12.1412 39.0389H33.9417C34.7203 39.0389 35.3529 38.4296 35.3529 37.6796V35.1484C35.3529 34.3984 34.7203 33.789 33.9417 33.789H12.1412V39.0389Z" fill="black"/>
<path fill-rule="evenodd" clip-rule="evenodd" d="M11.6554 40.0024C11.3878 40.0024 4.79411 37.19 3.99119 36.8619C3.6019 36.6978 3.6019 36.1588 3.99119 35.9947L11.4608 32.901C11.7771 32.7604 12.142 32.9948 12.142 33.3229V39.5337C12.142 39.7915 11.9231 40.0024 11.6554 40.0024ZM5.40238 36.44L11.1688 38.8306V34.026L5.40238 36.44Z" fill="black"/>
<path fill-rule="evenodd" clip-rule="evenodd" d="M30.3186 39.9803C30.051 39.9803 29.832 39.7694 29.832 39.5116V33.3242C29.832 32.7148 30.8053 32.7148 30.8053 33.3242V39.5116C30.8053 39.7694 30.5863 39.9803 30.3186 39.9803Z" fill="black"/>
<path fill-rule="evenodd" clip-rule="evenodd" d="M27.7113 36.8828H11.6529C10.9959 36.8828 10.9959 35.9453 11.6529 35.9453H27.7113C28.3439 35.9453 28.3439 36.8828 27.7113 36.8828Z" fill="black"/>
<path fill-rule="evenodd" clip-rule="evenodd" d="M27.7132 39.9803C27.4455 39.9803 27.2266 39.7694 27.2266 39.5116V33.3242C27.2266 32.7148 28.1998 32.7148 28.1998 33.3242V39.5116C28.1998 39.7694 27.9808 39.9803 27.7132 39.9803Z" fill="black"/>
<path fill-rule="evenodd" clip-rule="evenodd" d="M27.981 26.7106H19.0516C18.419 26.7106 18.419 25.7731 19.0516 25.7731H27.981C28.6136 25.7731 28.6136 26.7106 27.981 26.7106ZM16.5698 26.7106H12.9202C12.6526 26.7106 12.4336 26.4997 12.4336 26.2419V11.9453C12.4336 11.6875 12.6526 11.4766 12.9202 11.4766H27.981C28.2487 11.4766 28.4677 11.6875 28.4677 11.9453V14.0546C28.4677 14.664 27.4944 14.664 27.4944 14.0546V12.414H13.4068V25.7731H16.5698C17.2025 25.7731 17.2025 26.7106 16.5698 26.7106Z" fill="black"/>
<path fill-rule="evenodd" clip-rule="evenodd" d="M33.4803 18.953H22.4827C22.2151 18.953 21.9961 18.7421 21.9961 18.4843V14.0547C21.9961 13.7969 22.2151 13.5859 22.4827 13.5859H33.4803C33.7479 13.5859 33.9669 13.7969 33.9669 14.0547V18.5077C33.9669 18.7421 33.7479 18.953 33.4803 18.953ZM22.9693 18.0155H32.9937V14.5234H22.9693V18.0155Z" fill="black"/>
<path fill-rule="evenodd" clip-rule="evenodd" d="M25.9607 10.328H14.9632C14.6712 10.328 14.4766 10.1171 14.4766 9.85927V5.42968C14.4766 5.14843 14.6712 4.96094 14.9632 4.96094H25.9607C26.2284 4.96094 26.4474 5.14843 26.4474 5.42968V9.85927C26.4474 10.1171 26.2284 10.328 25.9607 10.328ZM15.4498 9.39053H25.4741V5.89842H15.4498V9.39053Z" fill="black"/>
<path fill-rule="evenodd" clip-rule="evenodd" d="M27.9806 21.414H12.9198C12.2872 21.414 12.2872 20.4766 12.9198 20.4766H27.9806C28.6132 20.4766 28.6132 21.414 27.9806 21.414Z" fill="black"/>
<path fill-rule="evenodd" clip-rule="evenodd" d="M27.006 24.4593C26.4951 24.4593 25.7408 24.5765 25.7408 23.9906C25.7408 23.4047 26.4951 23.5218 27.006 23.5218C27.6386 23.5218 27.6386 24.4593 27.006 24.4593ZM24.7919 24.4593C24.2566 24.4593 23.478 24.5765 23.478 23.9906C23.478 23.3812 24.2566 23.5218 24.7919 23.5218C25.4245 23.5218 25.4245 24.4593 24.7919 24.4593ZM22.7968 24.4593H20.0474C19.3905 24.4593 19.3905 23.5218 20.0474 23.5218H22.7968C23.4294 23.5218 23.4294 24.4593 22.7968 24.4593Z" fill="black"/>
<path fill-rule="evenodd" clip-rule="evenodd" d="M26.9839 28.9593C26.4729 28.9593 25.743 29.0765 25.743 28.4906C25.743 27.9047 26.4729 28.0218 26.9839 28.0218C27.6165 28.0218 27.6165 28.9593 26.9839 28.9593ZM24.7698 28.9593C24.2345 28.9593 23.4559 29.0765 23.4559 28.4906C23.4559 27.8812 24.2345 28.0218 24.7698 28.0218C25.4267 28.0218 25.4267 28.9593 24.7698 28.9593ZM22.7746 28.9593H20.0252C19.3926 28.9593 19.3926 28.0218 20.0252 28.0218H22.7746C23.4316 28.0218 23.4316 28.9593 22.7746 28.9593Z" fill="black"/>
<path fill-rule="evenodd" clip-rule="evenodd" d="M20.4632 12.4101C20.1955 12.4101 19.9766 12.2226 19.9766 11.9414V9.85546C19.9766 9.2461 20.9498 9.2461 20.9498 9.85546V11.9414C20.9498 12.2226 20.7308 12.4101 20.4632 12.4101Z" fill="black"/>
<path fill-rule="evenodd" clip-rule="evenodd" d="M0.510056 27.201C0.218085 27.201 0.0234375 26.9901 0.0234375 26.7322V5.49832C0.0234375 2.47494 2.55385 0.0140589 5.69254 0.0140589C7.785 0.0140589 7.3957 -0.38437 7.3957 3.06087C7.3957 3.69367 6.42246 3.69367 6.42246 3.06087V0.951539H5.69254C3.08913 0.951539 0.996674 2.99056 0.996674 5.49832V26.7322C0.996674 26.9901 0.777695 27.201 0.510056 27.201Z" fill="black"/>
<path fill-rule="evenodd" clip-rule="evenodd" d="M39.5134 31.3041H5.15815C2.31144 31.3041 0 29.0776 0 26.3354C0 23.6167 2.31144 21.3902 5.15815 21.3902H6.42336V3.06249C6.42336 2.80468 6.64234 2.59375 6.90998 2.59375H39.4891C39.7567 2.59375 39.9757 2.80468 39.9757 3.06249L40 21.859V30.8353C40 31.0931 39.781 31.3041 39.5134 31.3041ZM5.15815 22.3277C2.84672 22.3277 0.973236 24.1324 0.973236 26.3354C0.973236 28.562 2.84672 30.3666 5.15815 30.3666H39.0268L39.0024 3.53123H7.39659V21.859C7.39659 22.1168 7.17762 22.3277 6.90998 22.3277H5.15815Z" fill="black"/>
</svg>
