<svg width="1108" height="165" viewBox="0 0 1108 165" fill="none" xmlns="http://www.w3.org/2000/svg">
<g opacity="0.04">
<mask id="path-1-outside-1_3228_11453" maskUnits="userSpaceOnUse" x="0.191406" y="0" width="1107" height="165" fill="black">
<rect fill="white" x="0.191406" width="1107" height="165"/>
<path d="M61.6914 5.56C77.9714 5.56 92.1981 8.78666 104.371 15.24C116.545 21.6933 125.931 30.7867 132.531 42.52C139.278 54.1067 142.651 67.5267 142.651 82.78C142.651 97.8867 139.278 111.307 132.531 123.04C125.931 134.773 116.471 143.867 104.151 150.32C91.9781 156.773 77.8247 160 61.6914 160H3.83141V5.56H61.6914ZM59.2714 127.44C73.4981 127.44 84.5714 123.553 92.4914 115.78C100.411 108.007 104.371 97.0067 104.371 82.78C104.371 68.5533 100.411 57.48 92.4914 49.56C84.5714 41.64 73.4981 37.68 59.2714 37.68H41.4514V127.44H59.2714ZM245.295 5.56V160H207.675V5.56H245.295ZM419.078 54.4C416.291 49.2667 412.258 45.38 406.978 42.74C401.845 39.9533 395.758 38.56 388.718 38.56C376.545 38.56 366.791 42.5933 359.458 50.66C352.125 58.58 348.458 69.2133 348.458 82.56C348.458 96.7867 352.271 107.933 359.898 116C367.671 123.92 378.305 127.88 391.798 127.88C401.038 127.88 408.811 125.533 415.118 120.84C421.571 116.147 426.265 109.4 429.198 100.6H381.458V72.88H463.298V107.86C460.511 117.247 455.745 125.973 448.998 134.04C442.398 142.107 433.965 148.633 423.698 153.62C413.431 158.607 401.845 161.1 388.938 161.1C373.685 161.1 360.045 157.8 348.018 151.2C336.138 144.453 326.825 135.14 320.078 123.26C313.478 111.38 310.178 97.8133 310.178 82.56C310.178 67.3067 313.478 53.74 320.078 41.86C326.825 29.8333 336.138 20.52 348.018 13.92C359.898 7.17333 373.465 3.79999 388.718 3.79999C407.198 3.79999 422.745 8.27332 435.358 17.22C448.118 26.1667 456.551 38.56 460.658 54.4H419.078ZM565.756 5.56V160H528.136V5.56H565.756ZM748.119 5.56V35.7H707.199V160H669.579V35.7H628.659V5.56H748.119ZM907.139 132.72H849.499L840.259 160H800.879L856.759 5.56H900.319L956.199 160H916.379L907.139 132.72ZM897.459 103.68L878.319 47.14L859.399 103.68H897.459ZM1054.83 130.96H1104.11V160H1017.21V5.56H1054.83V130.96Z"/>
</mask>
<path d="M104.371 15.24L105.777 12.5894L104.371 15.24ZM132.531 42.52L129.917 43.9908L129.928 44.0103L129.939 44.0296L132.531 42.52ZM132.531 123.04L129.931 121.545L129.924 121.557L129.917 121.569L132.531 123.04ZM104.151 150.32L102.759 147.663L102.753 147.666L102.746 147.669L104.151 150.32ZM3.83141 160H0.831407V163H3.83141V160ZM3.83141 5.56V2.56H0.831407V5.56H3.83141ZM41.4514 37.68V34.68H38.4514V37.68H41.4514ZM41.4514 127.44H38.4514V130.44H41.4514V127.44ZM61.6914 5.56V8.56C77.5704 8.56 91.298 11.705 102.966 17.8906L104.371 15.24L105.777 12.5894C93.0982 5.86834 78.3724 2.56 61.6914 2.56V5.56ZM104.371 15.24L102.966 17.8906C114.644 24.0813 123.605 32.7708 129.917 43.9908L132.531 42.52L135.146 41.0492C128.257 28.8025 118.445 19.3053 105.777 12.5894L104.371 15.24ZM132.531 42.52L129.939 44.0296C136.384 55.0977 139.651 67.9827 139.651 82.78H142.651H145.651C145.651 67.0706 142.173 53.1156 135.124 41.0104L132.531 42.52ZM142.651 82.78H139.651C139.651 97.4242 136.386 110.317 129.931 121.545L132.531 123.04L135.132 124.535C142.17 112.296 145.651 98.3492 145.651 82.78H142.651ZM132.531 123.04L129.917 121.569C123.611 132.78 114.584 141.469 102.759 147.663L104.151 150.32L105.543 152.977C118.359 146.264 128.252 136.767 135.146 124.511L132.531 123.04ZM104.151 150.32L102.746 147.669C91.0743 153.857 77.4187 157 61.6914 157V160V163C78.2308 163 92.8819 159.69 105.557 152.971L104.151 150.32ZM61.6914 160V157H3.83141V160V163H61.6914V160ZM3.83141 160H6.83141V5.56H3.83141H0.831407V160H3.83141ZM3.83141 5.56V8.56H61.6914V5.56V2.56H3.83141V5.56ZM59.2714 127.44V130.44C74.0526 130.44 85.9659 126.388 94.5928 117.921L92.4914 115.78L90.39 113.639C83.1769 120.718 72.9436 124.44 59.2714 124.44V127.44ZM92.4914 115.78L94.5928 117.921C103.238 109.436 107.371 97.5735 107.371 82.78H104.371H101.371C101.371 96.4398 97.5848 106.577 90.39 113.639L92.4914 115.78ZM104.371 82.78H107.371C107.371 67.9835 103.237 56.063 94.6127 47.4387L92.4914 49.56L90.3701 51.6813C97.5857 58.8969 101.371 69.1231 101.371 82.78H104.371ZM92.4914 49.56L94.6127 47.4387C85.9883 38.8143 74.0679 34.68 59.2714 34.68V37.68V40.68C72.9283 40.68 83.1545 44.4657 90.3701 51.6813L92.4914 49.56ZM59.2714 37.68V34.68H41.4514V37.68V40.68H59.2714V37.68ZM41.4514 37.68H38.4514V127.44H41.4514H44.4514V37.68H41.4514ZM41.4514 127.44V130.44H59.2714V127.44V124.44H41.4514V127.44ZM245.295 5.56H248.295V2.56H245.295V5.56ZM245.295 160V163H248.295V160H245.295ZM207.675 160H204.675V163H207.675V160ZM207.675 5.56V2.56H204.675V5.56H207.675ZM245.295 5.56H242.295V160H245.295H248.295V5.56H245.295ZM245.295 160V157H207.675V160V163H245.295V160ZM207.675 160H210.675V5.56H207.675H204.675V160H207.675ZM207.675 5.56V8.56H245.295V5.56V2.56H207.675V5.56ZM419.078 54.4L416.441 55.8313L417.293 57.4H419.078V54.4ZM406.978 42.74L405.547 45.3765L405.591 45.4007L405.636 45.4233L406.978 42.74ZM359.458 50.66L361.659 52.6982L361.669 52.6882L361.678 52.678L359.458 50.66ZM359.898 116L357.718 118.061L357.737 118.081L357.757 118.101L359.898 116ZM415.118 120.84L413.353 118.414L413.34 118.423L413.327 118.433L415.118 120.84ZM429.198 100.6L432.044 101.549L433.36 97.6H429.198V100.6ZM381.458 100.6H378.458V103.6H381.458V100.6ZM381.458 72.88V69.88H378.458V72.88H381.458ZM463.298 72.88H466.298V69.88H463.298V72.88ZM463.298 107.86L466.174 108.714L466.298 108.296V107.86H463.298ZM448.998 134.04L446.697 132.115L446.686 132.128L446.676 132.14L448.998 134.04ZM423.698 153.62L422.387 150.921L423.698 153.62ZM348.018 151.2L346.536 153.809L346.556 153.819L346.575 153.83L348.018 151.2ZM320.078 123.26L317.456 124.717L317.462 124.729L317.469 124.741L320.078 123.26ZM320.078 41.86L317.462 40.3922L317.456 40.4031L320.078 41.86ZM348.018 13.92L349.475 16.5425L349.487 16.5356L349.499 16.5287L348.018 13.92ZM435.358 17.22L433.622 19.6669L433.629 19.6717L433.636 19.6764L435.358 17.22ZM460.658 54.4V57.4H464.535L463.562 53.6471L460.658 54.4ZM419.078 54.4L421.715 52.9687C418.631 47.2891 414.143 42.9684 408.32 40.0567L406.978 42.74L405.636 45.4233C410.373 47.7916 413.951 51.2442 416.441 55.8313L419.078 54.4ZM406.978 42.74L408.409 40.1034C402.755 37.0339 396.156 35.56 388.718 35.56V38.56V41.56C395.36 41.56 400.934 42.8728 405.547 45.3765L406.978 42.74ZM388.718 38.56V35.56C375.809 35.56 365.21 39.8732 357.238 48.642L359.458 50.66L361.678 52.678C368.373 45.3135 377.28 41.56 388.718 41.56V38.56ZM359.458 50.66L357.257 48.6218C349.295 57.22 345.458 68.6449 345.458 82.56H348.458H351.458C351.458 69.7818 354.954 59.94 361.659 52.6982L359.458 50.66ZM348.458 82.56H345.458C345.458 97.3291 349.429 109.293 357.718 118.061L359.898 116L362.078 113.939C355.114 106.573 351.458 96.2442 351.458 82.56H348.458ZM359.898 116L357.757 118.101C366.212 126.717 377.685 130.88 391.798 130.88V127.88V124.88C378.924 124.88 369.13 121.123 362.039 113.899L359.898 116ZM391.798 127.88V130.88C401.566 130.88 409.998 128.39 416.909 123.247L415.118 120.84L413.327 118.433C407.625 122.677 400.51 124.88 391.798 124.88V127.88ZM415.118 120.84L416.883 123.266C423.92 118.148 428.946 110.842 432.044 101.549L429.198 100.6L426.352 99.6513C423.583 107.958 419.222 114.145 413.353 118.414L415.118 120.84ZM429.198 100.6V97.6H381.458V100.6V103.6H429.198V100.6ZM381.458 100.6H384.458V72.88H381.458H378.458V100.6H381.458ZM381.458 72.88V75.88H463.298V72.88V69.88H381.458V72.88ZM463.298 72.88H460.298V107.86H463.298H466.298V72.88H463.298ZM463.298 107.86L460.422 107.006C457.76 115.972 453.2 124.339 446.697 132.115L448.998 134.04L451.299 135.965C458.289 127.608 463.262 118.521 466.174 108.714L463.298 107.86ZM448.998 134.04L446.676 132.14C440.377 139.84 432.301 146.106 422.387 150.921L423.698 153.62L425.009 156.319C435.629 151.16 444.419 144.374 451.32 135.94L448.998 134.04ZM423.698 153.62L422.387 150.921C412.58 155.685 401.45 158.1 388.938 158.1V161.1V164.1C402.239 164.1 414.283 161.528 425.009 156.319L423.698 153.62ZM388.938 161.1V158.1C374.132 158.1 360.998 154.901 349.461 148.57L348.018 151.2L346.575 153.83C359.092 160.699 373.238 164.1 388.938 164.1V161.1ZM348.018 151.2L349.499 148.591C338.09 142.112 329.166 133.188 322.687 121.779L320.078 123.26L317.469 124.741C324.483 137.092 334.186 146.795 346.536 153.809L348.018 151.2ZM320.078 123.26L322.7 121.803C316.377 110.421 313.178 97.367 313.178 82.56H310.178H307.178C307.178 98.2597 310.579 112.339 317.456 124.717L320.078 123.26ZM310.178 82.56H313.178C313.178 67.753 316.377 54.6988 322.7 43.3169L320.078 41.86L317.456 40.4031C310.579 52.7811 307.178 66.8603 307.178 82.56H310.178ZM320.078 41.86L322.694 43.3278C329.173 31.7785 338.088 22.8683 349.475 16.5425L348.018 13.92L346.561 11.2975C334.188 18.1717 324.476 27.8882 317.462 40.3923L320.078 41.86ZM348.018 13.92L349.499 16.5287C360.877 10.0674 373.922 6.79999 388.718 6.79999V3.79999V0.799988C373.007 0.799988 358.919 4.27928 346.536 11.3113L348.018 13.92ZM388.718 3.79999V6.79999C406.7 6.79999 421.609 11.1457 433.622 19.6669L435.358 17.22L437.094 14.773C423.88 5.4009 407.696 0.799988 388.718 0.799988V3.79999ZM435.358 17.22L433.636 19.6764C445.781 28.192 453.817 39.9656 457.754 55.1529L460.658 54.4L463.562 53.6471C459.286 37.1544 450.455 24.1414 437.08 14.7636L435.358 17.22ZM460.658 54.4V51.4H419.078V54.4V57.4H460.658V54.4ZM565.756 5.56H568.756V2.56H565.756V5.56ZM565.756 160V163H568.756V160H565.756ZM528.136 160H525.136V163H528.136V160ZM528.136 5.56V2.56H525.136V5.56H528.136ZM565.756 5.56H562.756V160H565.756H568.756V5.56H565.756ZM565.756 160V157H528.136V160V163H565.756V160ZM528.136 160H531.136V5.56H528.136H525.136V160H528.136ZM528.136 5.56V8.56H565.756V5.56V2.56H528.136V5.56ZM748.119 5.56H751.119V2.56H748.119V5.56ZM748.119 35.7V38.7H751.119V35.7H748.119ZM707.199 35.7V32.7H704.199V35.7H707.199ZM707.199 160V163H710.199V160H707.199ZM669.579 160H666.579V163H669.579V160ZM669.579 35.7H672.579V32.7H669.579V35.7ZM628.659 35.7H625.659V38.7H628.659V35.7ZM628.659 5.56V2.56H625.659V5.56H628.659ZM748.119 5.56H745.119V35.7H748.119H751.119V5.56H748.119ZM748.119 35.7V32.7H707.199V35.7V38.7H748.119V35.7ZM707.199 35.7H704.199V160H707.199H710.199V35.7H707.199ZM707.199 160V157H669.579V160V163H707.199V160ZM669.579 160H672.579V35.7H669.579H666.579V160H669.579ZM669.579 35.7V32.7H628.659V35.7V38.7H669.579V35.7ZM628.659 35.7H631.659V5.56H628.659H625.659V35.7H628.659ZM628.659 5.56V8.56H748.119V5.56V2.56H628.659V5.56ZM907.139 132.72L909.981 131.758L909.291 129.72H907.139V132.72ZM849.499 132.72V129.72H847.348L846.658 131.758L849.499 132.72ZM840.259 160V163H842.411L843.101 160.962L840.259 160ZM800.879 160L798.058 158.979L796.604 163H800.879V160ZM856.759 5.56V2.56H854.655L853.938 4.53928L856.759 5.56ZM900.319 5.56L903.14 4.53928L902.424 2.56H900.319V5.56ZM956.199 160V163H960.475L959.02 158.979L956.199 160ZM916.379 160L913.538 160.962L914.228 163H916.379V160ZM897.459 103.68V106.68H901.642L900.301 102.718L897.459 103.68ZM878.319 47.14L881.161 46.1781L878.303 37.7354L875.474 46.188L878.319 47.14ZM859.399 103.68L856.554 102.728L855.232 106.68H859.399V103.68ZM907.139 132.72V129.72H849.499V132.72V135.72H907.139V132.72ZM849.499 132.72L846.658 131.758L837.418 159.038L840.259 160L843.101 160.962L852.341 133.682L849.499 132.72ZM840.259 160V157H800.879V160V163H840.259V160ZM800.879 160L803.7 161.021L859.58 6.5807L856.759 5.56L853.938 4.53928L798.058 158.979L800.879 160ZM856.759 5.56V8.56H900.319V5.56V2.56H856.759V5.56ZM900.319 5.56L897.498 6.5807L953.378 161.021L956.199 160L959.02 158.979L903.14 4.53928L900.319 5.56ZM956.199 160V157H916.379V160V163H956.199V160ZM916.379 160L919.221 159.038L909.981 131.758L907.139 132.72L904.298 133.682L913.538 160.962L916.379 160ZM897.459 103.68L900.301 102.718L881.161 46.1781L878.319 47.14L875.478 48.1019L894.618 104.642L897.459 103.68ZM878.319 47.14L875.474 46.188L856.554 102.728L859.399 103.68L862.244 104.632L881.164 48.092L878.319 47.14ZM859.399 103.68V106.68H897.459V103.68V100.68H859.399V103.68ZM1054.83 130.96H1051.83V133.96H1054.83V130.96ZM1104.11 130.96H1107.11V127.96H1104.11V130.96ZM1104.11 160V163H1107.11V160H1104.11ZM1017.21 160H1014.21V163H1017.21V160ZM1017.21 5.56V2.56H1014.21V5.56H1017.21ZM1054.83 5.56H1057.83V2.56H1054.83V5.56ZM1054.83 130.96V133.96H1104.11V130.96V127.96H1054.83V130.96ZM1104.11 130.96H1101.11V160H1104.11H1107.11V130.96H1104.11ZM1104.11 160V157H1017.21V160V163H1104.11V160ZM1017.21 160H1020.21V5.56H1017.21H1014.21V160H1017.21ZM1017.21 5.56V8.56H1054.83V5.56V2.56H1017.21V5.56ZM1054.83 5.56H1051.83V130.96H1054.83H1057.83V5.56H1054.83Z" fill="black" mask="url(#path-1-outside-1_3228_11453)"/>
</g>
</svg>
