<svg width="35" height="24" viewBox="0 0 35 24" fill="none" xmlns="http://www.w3.org/2000/svg">
<path d="M0.277344 12.0017C2.78896 5.17265 9.35953 0.296875 17.0652 0.296875C23.1881 0.296127 28.5943 3.37482 31.817 8.06625L31.8092 8.05431C32.6458 9.27037 33.3359 10.5946 33.8532 12.0017C33.3359 13.4082 32.6456 14.7324 31.8092 15.9485L31.817 15.9369C28.5943 20.628 23.1881 23.7066 17.0652 23.706C9.35953 23.7059 2.78896 18.8304 0.277344 12.0017Z" fill="#FFE4C3"/>
<path d="M17.0668 0.414062C10.6699 0.414062 5.48438 5.59905 5.48438 11.9961C5.48438 18.3922 10.6699 23.5774 17.0668 23.5774C23.4625 23.5774 28.6479 18.3922 28.6479 11.9961C28.6479 5.59925 23.4625 0.414062 17.0668 0.414062Z" fill="white"/>
<path d="M17.0619 19.6226C12.8577 19.6226 9.4375 16.2028 9.4375 11.9992C9.4375 7.79506 12.8577 4.375 17.0619 4.375C21.2652 4.375 24.6853 7.79522 24.6853 11.9992C24.6853 16.2028 21.2652 19.6226 17.0619 19.6226Z" fill="#FF8C00"/>
<path d="M17.0636 17.7981C13.8686 17.7981 11.2695 15.1992 11.2695 12.0048C11.2695 8.80998 13.8686 6.21094 17.0636 6.21094C20.2578 6.21094 22.8567 8.81017 22.8567 12.0048C22.8567 15.1992 20.2578 17.7981 17.0636 17.7981ZM17.0636 8.65109C15.2143 8.65109 13.7099 10.1555 13.7099 12.0046C13.7099 13.8534 15.2142 15.3576 17.0636 15.3576C18.9124 15.3576 20.4164 13.8534 20.4164 12.0046C20.4164 10.1555 18.9124 8.65109 17.0636 8.65109Z" fill="#FFE4C3"/>
<path d="M14.3983 9.17116C14.5737 8.80154 14.672 8.38893 14.672 7.95337C14.672 6.38097 13.3928 5.10156 11.8206 5.10156C10.2479 5.10156 8.96875 6.38097 8.96875 7.95337C8.96875 9.5258 10.2479 10.8048 11.8206 10.8048C12.4199 10.8048 12.9766 10.6185 13.4361 10.3012C13.5275 10.7208 13.9017 11.036 14.3483 11.036C14.8632 11.036 15.2822 10.617 15.2822 10.1022C15.2822 9.60424 14.8899 9.19739 14.3983 9.17116Z" fill="white"/>
<path fill-rule="evenodd" clip-rule="evenodd" d="M0.592724 12.0003C3.09075 18.6629 9.52552 23.409 17.0653 23.409C20.5494 23.4094 23.7976 22.396 26.5304 20.6481C26.6678 20.5602 26.8507 20.6004 26.9385 20.7378C27.0264 20.8752 26.9862 21.0581 26.8488 21.146C24.0241 22.9527 20.6666 24.0004 17.0652 24C9.23221 24 2.55314 19.0438 0 12.1023V11.8983C2.5531 4.95641 9.23221 1.49291e-07 17.0652 1.49291e-07C23.2779 -0.000787784 28.7648 3.11742 32.0431 7.87239C32.0465 7.87661 32.0496 7.88098 32.0527 7.88543C32.9031 9.12166 33.6046 10.4679 34.1305 11.8983C34.1547 11.9641 34.1547 12.0364 34.1305 12.1023C33.6046 13.5321 32.9029 14.8783 32.0527 16.1146C31.9603 16.2489 31.7762 16.283 31.6418 16.1906C31.5075 16.0982 31.4734 15.9141 31.5658 15.7797C32.368 14.6132 33.0336 13.3455 33.5379 12.0003C33.0366 10.6624 32.3761 9.40181 31.58 8.24111L31.5735 8.23216C28.4039 3.61819 23.087 0.590241 17.0652 0.59095C9.52552 0.59091 3.09075 5.33722 0.592724 12.0003Z" fill="#FF8C00"/>
</svg>
