<svg width="84" height="174" viewBox="0 0 84 174" fill="none" xmlns="http://www.w3.org/2000/svg">
<path fill-rule="evenodd" clip-rule="evenodd" d="M1.52821 162.008L0.511719 173.494H21.8582C21.8582 173.494 21.831 172.979 21.8048 172.481C21.7746 171.908 21.4584 171.388 20.9632 171.098C18.5874 169.706 11.6932 165.667 11.6932 165.667L11.7949 162.109L1.52821 162.008Z" fill="white"/>
<path fill-rule="evenodd" clip-rule="evenodd" d="M12.2063 165.381L21.2166 170.66C21.8592 171.036 22.2697 171.711 22.3088 172.455C22.335 172.953 22.3621 173.468 22.3621 173.468C22.3695 173.607 22.3193 173.743 22.2234 173.844C22.1274 173.945 21.9941 174.003 21.8547 174.003H0.508202C0.36569 174.003 0.229583 173.943 0.133321 173.838C0.0370586 173.733 -0.0106142 173.592 0.00199036 173.45L1.01848 161.963C1.04186 161.699 1.26458 161.497 1.52978 161.5L11.7965 161.602C11.9329 161.603 12.0631 161.659 12.1576 161.758C12.2523 161.856 12.3033 161.988 12.2994 162.124L12.2063 165.381ZM11.2685 162.613L1.98954 162.521L1.0633 172.986H21.3188L21.2937 172.508C21.2724 172.106 21.0504 171.741 20.7027 171.537C18.3269 170.145 11.4327 166.106 11.4327 166.106C11.2726 166.012 11.1762 165.839 11.1815 165.653L11.2685 162.613Z" fill="black"/>
<path fill-rule="evenodd" clip-rule="evenodd" d="M11.3206 165.32L9.41947 167.384C9.22949 167.59 9.2426 167.912 9.44894 168.102C9.65519 168.292 9.97712 168.279 10.1671 168.073L12.0684 166.009C12.2583 165.802 12.2452 165.481 12.0389 165.291C11.8324 165.101 11.5107 165.114 11.3206 165.32Z" fill="black"/>
<path fill-rule="evenodd" clip-rule="evenodd" d="M14.3637 167.133L12.4625 169.196C12.2724 169.403 12.2855 169.724 12.492 169.914C12.6983 170.105 13.0201 170.091 13.2101 169.885L15.1113 167.821C15.3013 167.615 15.2882 167.293 15.0818 167.103C14.8755 166.913 14.5536 166.926 14.3637 167.133Z" fill="black"/>
<path fill-rule="evenodd" clip-rule="evenodd" d="M45.5469 146.055L47.58 157.541H67.4016C67.4016 157.541 67.3789 157.11 67.355 156.655C67.3206 156.001 66.9656 155.406 66.4063 155.064C64.0139 153.603 57.6434 149.714 57.6434 149.714L56.5252 146.156L45.5469 146.055Z" fill="white"/>
<path fill-rule="evenodd" clip-rule="evenodd" d="M58.0674 149.38L66.6676 154.631C67.37 155.06 67.8158 155.807 67.8591 156.629C67.8829 157.084 67.9056 157.515 67.9056 157.515C67.9129 157.654 67.8628 157.79 67.7669 157.891C67.6709 157.992 67.5375 158.05 67.3981 158.05H47.5764C47.3298 158.05 47.1189 157.873 47.0759 157.63L45.0429 146.144C45.0166 145.995 45.0579 145.842 45.1555 145.727C45.253 145.611 45.397 145.545 45.5481 145.547L56.5263 145.649C56.7464 145.651 56.9403 145.794 57.0063 146.004L58.0674 149.38ZM56.1475 146.661L46.1506 146.569L48.0028 157.033H66.8626L66.8441 156.682C66.8185 156.195 66.5544 155.752 66.1381 155.498C63.7457 154.038 57.3751 150.148 57.3751 150.148C57.2701 150.084 57.192 149.984 57.1551 149.867L56.1475 146.661Z" fill="black"/>
<path fill-rule="evenodd" clip-rule="evenodd" d="M57.2034 149.883L55.3023 151.946C55.1123 152.153 55.1254 152.474 55.3317 152.665C55.5381 152.855 55.8599 152.841 56.0499 152.635L57.9512 150.571C58.1411 150.365 58.128 150.043 57.9217 149.853C57.7152 149.663 57.3935 149.676 57.2034 149.883Z" fill="black"/>
<path fill-rule="evenodd" clip-rule="evenodd" d="M60.2504 151.687L58.3492 153.751C58.1592 153.957 58.1723 154.279 58.3786 154.469C58.5851 154.659 58.9068 154.646 59.0969 154.44L60.998 152.376C61.188 152.17 61.1749 151.848 60.9686 151.658C60.7623 151.468 60.4405 151.481 60.2504 151.687Z" fill="black"/>
<path fill-rule="evenodd" clip-rule="evenodd" d="M5.07554 80.5337L23.1777 77.4297L25.7983 94.1625L13.3869 162.014H1.01953L5.07554 80.5337Z" fill="black"/>
<path fill-rule="evenodd" clip-rule="evenodd" d="M4.98617 80.0331C4.75167 80.0734 4.57633 80.2711 4.56454 80.5089L0.508425 161.989C0.501614 162.128 0.551824 162.264 0.647883 162.365C0.74384 162.466 0.876904 162.523 1.01616 162.523H13.3835C13.629 162.523 13.8393 162.348 13.8834 162.106L26.2949 94.2544C26.3053 94.1982 26.306 94.1407 26.2971 94.0842L23.6765 77.3515C23.6553 77.2171 23.5813 77.0967 23.4708 77.0173C23.3603 76.9379 23.2225 76.9062 23.0884 76.9292L4.98617 80.0331ZM5.55948 80.9662L1.55023 161.506H12.9598L25.2795 94.1564L22.7518 78.0183L5.55948 80.9662Z" fill="black"/>
<path fill-rule="evenodd" clip-rule="evenodd" d="M20.332 101.144L21.4825 77.4297H37.4076L54.1896 108.152L57.4896 146.065H44.7834L40.2924 114.572L20.332 101.144Z" fill="black"/>
<path fill-rule="evenodd" clip-rule="evenodd" d="M39.8216 114.867L20.0488 101.566C19.9011 101.466 19.8162 101.297 19.8248 101.119L20.9753 77.4054C20.9885 77.1346 21.2118 76.9219 21.4829 76.9219H37.408C37.594 76.9219 37.765 77.0233 37.8541 77.1865L54.636 107.909C54.6696 107.971 54.6903 108.038 54.6963 108.109L57.9963 146.021C58.0086 146.163 57.9608 146.303 57.8646 146.408C57.7683 146.513 57.6324 146.573 57.4899 146.573H44.7837C44.5307 146.573 44.3162 146.387 44.2805 146.137L39.8216 114.867ZM45.2248 145.557H56.9356L53.6929 108.303L37.1065 77.9383H21.9671L20.8539 100.882L40.5764 114.15C40.6958 114.231 40.7756 114.358 40.7959 114.5L45.2248 145.557Z" fill="black"/>
<path fill-rule="evenodd" clip-rule="evenodd" d="M24.7244 104.872L27.2381 89.8736C27.2844 89.5969 27.0975 89.3347 26.8208 89.2883C26.5441 89.242 26.2819 89.4289 26.2356 89.7056L23.7219 104.704C23.6755 104.981 23.8625 105.243 24.1392 105.29C24.4157 105.336 24.678 105.149 24.7244 104.872Z" fill="white"/>
<path fill-rule="evenodd" clip-rule="evenodd" d="M17.264 19.8594C17.264 19.8594 16.9442 26.1484 16.719 30.5801C16.6623 31.6929 28.2799 33.1475 27.7827 32.0197C26.5873 29.3079 26.9208 23.9252 26.9208 23.9252L17.264 19.8594Z" fill="white"/>
<path fill-rule="evenodd" clip-rule="evenodd" d="M17.4618 19.3914C17.3092 19.3271 17.1347 19.3413 16.9943 19.4294C16.8541 19.5176 16.7654 19.6685 16.757 19.834C16.757 19.834 16.4372 26.123 16.2118 30.5549C16.2032 30.7245 16.2552 30.9066 16.4089 31.0801C16.5565 31.2466 16.8646 31.4374 17.3134 31.6052C19.3225 32.3559 24.6265 33.0562 26.8496 32.9176C27.363 32.8856 27.7385 32.7954 27.9332 32.6846C28.1419 32.5659 28.2449 32.4061 28.2859 32.2499C28.3209 32.1165 28.3168 31.971 28.248 31.8152C27.0877 29.1832 27.4283 23.9572 27.4283 23.9572C27.4417 23.7416 27.3174 23.5411 27.1183 23.4573L17.4618 19.3914ZM26.3977 24.2568L17.7354 20.6095L17.2354 30.4406C17.3847 30.5141 17.7841 30.7033 18.1526 30.8125C19.9821 31.3556 23.3885 31.8326 25.6194 31.9089C26.2006 31.9287 26.8203 31.8734 27.1622 31.8349C26.2844 29.4137 26.3529 25.465 26.3977 24.2568Z" fill="black"/>
<path fill-rule="evenodd" clip-rule="evenodd" d="M32.0069 10.333C32.0069 10.333 32.2484 15.9264 32.4594 20.8178C32.5366 22.6066 31.824 24.3389 30.5104 25.5555C29.1968 26.772 27.4149 27.35 25.6374 27.136C24.7981 27.0349 23.9644 26.9345 23.1861 26.8409C20.6902 26.5404 18.6344 24.7393 18.0082 22.3046C16.9985 18.3778 17.2677 17.3213 17.1406 15.2884C17.1406 15.2884 17.1135 12.2058 21.3337 10.7141C25.7534 9.15189 27.3056 7.13099 32.0069 10.333Z" fill="white"/>
<path fill-rule="evenodd" clip-rule="evenodd" d="M31.4951 10.3583C31.4951 10.3583 31.7365 15.9519 31.9476 20.8431C32.0185 22.4829 31.3652 24.0709 30.1609 25.1861C28.9568 26.3013 27.3234 26.8311 25.6941 26.6349C25.4155 26.6014 25.1621 26.8002 25.1287 27.0788C25.0951 27.3573 25.2941 27.6106 25.5726 27.6441C27.4983 27.8759 29.4287 27.2498 30.8518 25.9319C32.2748 24.6139 33.047 22.7372 32.9633 20.7993C32.7522 15.9081 32.5108 10.3145 32.5108 10.3145C32.4986 10.0342 32.2613 9.81651 31.9811 9.82861C31.7007 9.8408 31.4831 10.0781 31.4951 10.3583Z" fill="black"/>
<path fill-rule="evenodd" clip-rule="evenodd" d="M17.1098 22.8711C14.599 20.6766 12.0273 14.7656 12.0273 10.6573C12.0273 4.80658 16.0933 4.80658 16.0933 4.80658C16.0933 4.80658 16.3169 -0.356601 21.684 0.0196035C26.5409 0.360129 32.0168 3.33358 35.7986 3.32046C36.098 3.28834 36.3951 3.39894 36.6006 3.61921C36.806 3.83938 36.8959 4.14342 36.8432 4.43993C36.1612 7.40962 32.532 10.9377 29.816 11.1892C26.7122 11.4769 22.077 11.9655 21.1757 14.9125C20.2745 17.8594 21.2978 21.5544 17.1098 22.8711Z" fill="black"/>
<path fill-rule="evenodd" clip-rule="evenodd" d="M21.5862 14.9709C20.002 13.8981 17.9682 14.131 17.0474 15.4907C16.1265 16.8504 16.6652 18.8254 18.2494 19.8982C19.8336 20.971 21.8674 20.7382 22.7882 19.3784C23.709 18.0188 23.1703 16.0437 21.5862 14.9709Z" fill="white"/>
<path fill-rule="evenodd" clip-rule="evenodd" d="M21.8764 14.5498C21.6647 14.4066 21.4459 14.284 21.223 14.1816C19.5137 13.3976 17.5748 13.8127 16.6317 15.2053C15.5664 16.7785 16.1367 19.0775 17.9696 20.3187C18.377 20.5946 18.811 20.7937 19.2503 20.919C19.5201 20.9958 19.8014 20.8393 19.8783 20.5695C19.9552 20.2997 19.7986 20.0182 19.5288 19.9413C19.1894 19.8446 18.8543 19.6902 18.5395 19.477C17.2036 18.5723 16.6969 16.9218 17.4733 15.7752C18.1534 14.7709 19.5663 14.5399 20.799 15.1054C20.9721 15.1848 21.1419 15.2801 21.3063 15.3914C21.5385 15.5486 21.8549 15.4878 22.0122 15.2556C22.1695 15.0234 22.1087 14.7071 21.8764 14.5498Z" fill="black"/>
<path fill-rule="evenodd" clip-rule="evenodd" d="M18.7148 15.9062C19.7313 16.245 20.8325 17.6003 20.9173 18.4474L18.7148 15.9062Z" fill="white"/>
<path fill-rule="evenodd" clip-rule="evenodd" d="M18.5507 16.3734C19.0727 16.5474 19.6107 17.0466 19.9812 17.5651C20.2108 17.8861 20.3812 18.2136 20.4081 18.483C20.4359 18.7621 20.6853 18.966 20.9644 18.9381C21.2435 18.9101 21.4474 18.6609 21.4196 18.3817C21.3788 17.9734 21.1562 17.4608 20.8083 16.974C20.3128 16.2808 19.5701 15.6416 18.8721 15.409C18.606 15.3203 18.3179 15.4643 18.2293 15.7305C18.1406 15.9966 18.2847 16.2846 18.5507 16.3734Z" fill="black"/>
<path fill-rule="evenodd" clip-rule="evenodd" d="M31.8594 47.3679L38.8714 54.2335C38.8714 54.2335 41.3598 51.8161 42.9993 50.2234C43.926 49.3233 44.6248 48.2155 45.038 46.9915C46.971 40.8708 48.8145 31.9337 51.1748 25.3821C51.1748 25.3821 52.93 21.8572 53.7641 20.1817C54.0444 19.6188 54.1438 18.9831 54.0488 18.3616C53.8675 17.1758 53.5561 15.139 53.342 13.7379C53.2903 13.4007 53.0731 13.1118 52.7635 12.9687C52.4537 12.8256 52.093 12.8475 51.8028 13.0269C49.9449 14.1752 46.7632 16.1417 46.7632 16.1417C46.7632 16.1417 46.0575 15.9608 45.3052 15.768C44.9471 15.6761 44.5675 15.7858 44.3138 16.0547C44.06 16.3235 43.972 16.7088 44.0842 17.061C44.6972 18.9864 45.597 21.8126 45.597 21.8126L31.8594 47.3679Z" fill="white"/>
<path fill-rule="evenodd" clip-rule="evenodd" d="M46.6803 15.5804L51.5359 12.5793C51.9711 12.3103 52.5124 12.2775 52.977 12.4921C53.4415 12.7067 53.7674 13.14 53.8448 13.6459C54.059 15.047 54.3703 17.0838 54.5516 18.2696C54.6624 18.9946 54.5464 19.7364 54.2195 20.3929L51.6436 25.5662C49.29 32.1097 47.4516 41.0226 45.5199 47.1388C45.0809 48.4393 44.3383 49.6165 43.3538 50.5727C41.7143 52.1654 39.2258 54.5828 39.2258 54.5828C39.028 54.7749 38.7132 54.7744 38.5162 54.5815L31.5042 47.7158C31.3426 47.5575 31.305 47.3113 31.4121 47.112L45.0477 21.7464L43.6002 17.1999C43.432 16.6715 43.5639 16.0935 43.9446 15.6905C44.3253 15.2874 44.8947 15.1227 45.4317 15.2603L46.6803 15.5804ZM38.8732 53.5084L42.6456 49.8437C43.5144 48.9998 44.1695 47.9612 44.5539 46.8233C46.4885 40.6971 48.3346 31.7521 50.6972 25.1946C50.7039 25.1761 50.7115 25.158 50.7203 25.1403C50.7203 25.1403 52.4755 21.6154 53.3096 19.94C53.5432 19.471 53.626 18.9412 53.5469 18.4232C53.3657 17.2375 53.0543 15.2007 52.8401 13.7995C52.8143 13.6309 52.7058 13.4864 52.5508 13.415C52.396 13.3434 52.2156 13.3543 52.0705 13.444C50.2127 14.5923 47.0309 16.5587 47.0309 16.5587C46.9134 16.6314 46.7714 16.653 46.6375 16.6187C46.6375 16.6187 45.9317 16.4377 45.1794 16.2449C45.0004 16.199 44.8106 16.254 44.6837 16.3882C44.5568 16.5226 44.5129 16.7152 44.569 16.8914C45.182 18.8167 46.0818 21.6431 46.0818 21.6431C46.1234 21.7742 46.1103 21.9167 46.0451 22.0379L32.4885 47.2566L38.8732 53.5084Z" fill="black"/>
<path fill-rule="evenodd" clip-rule="evenodd" d="M4.40755 51.8303L35.7918 49.2891L39.0955 80.4192L2.88281 82.1981L4.40755 51.8303Z" fill="#FF8C00"/>
<path fill-rule="evenodd" clip-rule="evenodd" d="M38.5377 79.9462L35.2908 49.351C35.2611 49.0721 35.4636 48.8216 35.7425 48.7919C36.0214 48.7624 36.2719 48.9647 36.3016 49.2438L39.6052 80.3739C39.6199 80.5129 39.5768 80.6519 39.4858 80.758C39.3949 80.8642 39.2643 80.9284 39.1247 80.9351L2.91209 82.714C2.76866 82.721 2.629 82.667 2.52756 82.5654C2.42611 82.4639 2.37233 82.3242 2.37955 82.1807L3.90419 51.813C3.91832 51.5328 4.1572 51.3167 4.43724 51.3308C4.71749 51.3449 4.93349 51.5838 4.91936 51.8639L3.42277 81.671L38.5377 79.9462Z" fill="black"/>
<path fill-rule="evenodd" clip-rule="evenodd" d="M35.043 13.2181L81.0185 9.8125V21.4522L35.043 18.0465V13.2181Z" fill="#B2BFEB"/>
<path fill-rule="evenodd" clip-rule="evenodd" d="M35.0097 12.7196C34.7443 12.7392 34.5391 12.9603 34.5391 13.2264V18.0547C34.5391 18.3208 34.7444 18.5419 35.0097 18.5617L80.9852 21.9672C81.1261 21.9777 81.2651 21.929 81.3686 21.8328C81.4722 21.7367 81.531 21.6018 81.531 21.4604V9.82082C81.531 9.67943 81.4721 9.54454 81.3686 9.44838C81.2651 9.35222 81.1261 9.30343 80.9852 9.3139L35.0097 12.7196ZM35.5555 13.6984V17.5828L80.5146 20.9132V10.3681L35.5555 13.6984Z" fill="black"/>
<path d="M36.3188 12.4609H33.5234V18.814H36.3188V12.4609Z" fill="#E2E8F0"/>
<path fill-rule="evenodd" clip-rule="evenodd" d="M36.8236 12.4614C36.8236 12.1807 36.596 11.9531 36.3153 11.9531H33.52C33.2392 11.9531 33.0117 12.1807 33.0117 12.4614V18.8145C33.0117 19.0952 33.2392 19.3227 33.52 19.3227H36.3153C36.596 19.3227 36.8236 19.0952 36.8236 18.8145V12.4614ZM34.0282 12.9697V18.3063H35.8071V12.9697H34.0282Z" fill="black"/>
<path d="M51.9907 10.6797H49.1953V20.5905H51.9907V10.6797Z" fill="#E2E8F0"/>
<path fill-rule="evenodd" clip-rule="evenodd" d="M52.4954 10.6879C52.4954 10.4072 52.2679 10.1797 51.9872 10.1797H49.1918C48.9112 10.1797 48.6836 10.4072 48.6836 10.6879V20.5988C48.6836 20.8794 48.9112 21.107 49.1918 21.107H51.9872C52.268 21.107 52.4954 20.8795 52.4954 20.5988V10.6879ZM49.7001 11.1961V20.0904H51.479V11.1961H49.7001Z" fill="black"/>
<path d="M67.6586 9.53906H64.8633V21.737H67.6586V9.53906Z" fill="#E2E8F0"/>
<path fill-rule="evenodd" clip-rule="evenodd" d="M68.1712 9.54731C68.1712 9.26655 67.9436 9.03906 67.663 9.03906H64.8676C64.587 9.03906 64.3594 9.26655 64.3594 9.54731V21.7452C64.3594 22.0259 64.5869 22.2535 64.8676 22.2535H67.663C67.9436 22.2535 68.1712 22.026 68.1712 21.7452V9.54731ZM65.3759 10.0555V21.2369H67.1547V10.0555H65.3759Z" fill="black"/>
<path d="M83.3344 8.52344H80.5391V22.7545H83.3344V8.52344Z" fill="#E2E8F0"/>
<path fill-rule="evenodd" clip-rule="evenodd" d="M83.8391 8.52377C83.8391 8.24312 83.6115 8.01562 83.3308 8.01562H80.5355C80.2548 8.01562 80.0273 8.24312 80.0273 8.52377V22.7548C80.0273 23.0354 80.2548 23.263 80.5355 23.263H83.3308C83.6115 23.263 83.8391 23.0354 83.8391 22.7548V8.52377ZM81.0437 9.03202V22.2464H82.8226V9.03202H81.0437Z" fill="black"/>
<path fill-rule="evenodd" clip-rule="evenodd" d="M55.3159 48.4665C53.8575 51.0791 51.0825 52.6799 48.0908 52.6342C45.936 52.6012 43.8789 52.5696 43.8789 52.5696L46.999 41.2891L61.6695 22.6738C61.6695 22.6738 62.1847 19.4854 62.4691 17.7259C62.5827 17.0226 63.0563 16.43 63.7174 16.1642C65.5874 15.412 69.5029 13.8371 72.0425 12.8157C72.429 12.6602 72.8709 12.7562 73.1581 13.0578C73.4453 13.3595 73.5194 13.8057 73.3451 14.184C71.5477 18.0857 68.1164 25.5336 68.1164 25.5336C68.1164 25.5336 59.5811 40.8251 55.3159 48.4665Z" fill="white"/>
<path fill-rule="evenodd" clip-rule="evenodd" d="M61.1854 22.4631L61.9639 17.6454C62.1061 16.7661 62.698 16.0255 63.5243 15.6931C65.3943 14.941 69.3098 13.3661 71.8494 12.3446C72.4289 12.1115 73.0922 12.2554 73.5228 12.708C73.9534 13.1604 74.0647 13.8299 73.8032 14.3972C72.0057 18.2989 68.5745 25.7468 68.5745 25.7468C68.569 25.7587 68.563 25.7704 68.5566 25.7819C68.5566 25.7819 60.0215 41.0732 55.7563 48.7146C54.2068 51.4906 51.2582 53.1913 48.0795 53.1428C45.9248 53.1097 43.8677 53.0782 43.8677 53.0782C43.7103 53.0759 43.5629 53.0008 43.4686 52.8747C43.3743 52.7488 43.3437 52.5861 43.3856 52.4345L46.5057 41.1539C46.5237 41.0888 46.5546 41.0279 46.5963 40.9748L61.1854 22.4631ZM67.6596 25.3036L72.8801 13.9719C72.9672 13.7828 72.9303 13.5596 72.7866 13.4087C72.6431 13.2579 72.422 13.2099 72.2289 13.2876C69.6893 14.309 65.7738 15.8839 63.9038 16.6361C63.408 16.8355 63.0528 17.2798 62.9675 17.8075C62.6832 19.567 62.1679 22.7553 62.1679 22.7553C62.1542 22.8406 62.1189 22.921 62.0654 22.9888L47.4583 41.5236L44.5408 52.072L48.0954 52.1264C50.9001 52.1693 53.5018 50.6686 54.869 48.2193L67.6596 25.3036Z" fill="black"/>
<path fill-rule="evenodd" clip-rule="evenodd" d="M4.41016 51.8399C4.54149 48.7889 4.91271 46.0749 5.42665 43.7079C7.72565 33.1199 17.1163 28.9688 17.1163 28.9688L28.2978 32.0182C35.5827 35.9149 46.9084 41.2365 46.9084 41.2365L43.4804 54.8933L19.6576 52.3481L4.41016 51.8399Z" fill="#FF8C00"/>
<path fill-rule="evenodd" clip-rule="evenodd" d="M17.16 29.4932C15.9356 30.0871 7.98807 34.2755 5.91991 43.8006C5.41136 46.1426 5.04461 48.8279 4.9145 51.8466C4.9024 52.1268 4.66514 52.3446 4.3849 52.3325C4.10455 52.3204 3.88692 52.0831 3.89891 51.8029C4.03177 48.7197 4.40717 45.9771 4.9266 43.5849C7.28181 32.7377 16.9075 28.4887 16.9075 28.4887C17.0142 28.4415 17.134 28.4325 17.2467 28.4633L28.4281 31.5128L28.534 31.5549C35.8097 35.4466 47.1213 40.7614 47.1213 40.7614C47.3412 40.8648 47.4572 41.1095 47.398 41.3452L43.97 55.002C43.9083 55.2477 43.6749 55.4105 43.423 55.3836L26.0254 53.5249C25.7465 53.4951 25.5442 53.2445 25.574 52.9655C25.6037 52.6866 25.8544 52.4843 26.1334 52.5141L43.0917 54.3259L46.3104 41.5029C44.2876 40.5475 34.61 35.9546 28.1055 32.4784L17.16 29.4932Z" fill="black"/>
</svg>
