<svg width="291" height="470" viewBox="0 0 291 470" fill="none" xmlns="http://www.w3.org/2000/svg">
<path d="M128.993 135.016C127.949 134.692 83.4705 140.677 67.5334 184.23C52.8801 224.274 69.1196 271.584 73.5375 270.144C78.9481 268.38 79.1953 240.695 96.7701 214.356C103.004 205.017 119.226 200.019 119.226 200.019L128.993 135.016Z" fill="#FFAB45"/>
<path opacity="0.1" d="M119.233 200.016C119.233 200.016 112.196 202.182 105.616 206.334C103.802 191.619 100.433 164.154 98.2673 146.36C113.733 136.686 128.399 134.83 128.991 135.014L119.233 200.016Z" fill="black"/>
<path d="M228.082 165.61C229.126 165.933 262.49 195.948 251.102 240.904C240.63 282.24 200.547 312.163 197.708 308.482C194.233 303.975 209.634 280.97 209.968 249.306C210.087 238.08 199.504 224.803 199.504 224.803L228.082 165.61Z" fill="#FFAB45"/>
<path opacity="0.1" d="M247.154 192.506C235.245 206.103 216.972 226.957 207.31 237.971C204.209 230.709 199.503 224.799 199.503 224.799L228.077 165.605C228.673 165.789 239.837 175.677 247.154 192.506Z" fill="black"/>
<path d="M176.646 261.176L117.901 243.039C117.901 243.039 105.461 185.014 126.911 127.009C137.635 98.0642 154.468 70.7746 171.292 49.0867C194.48 19.1161 217.647 -0.0689737 224.476 2.04204C231.336 4.15969 239.626 33.0584 241.913 70.8919C243.552 98.2777 242.071 130.308 234.611 160.26C219.63 220.262 176.646 261.176 176.646 261.176Z" fill="#F6F4F4"/>
<path d="M218.267 146.868C212.49 165.578 192.64 176.064 173.93 170.287C155.22 164.51 144.734 144.66 150.511 125.95C156.288 107.24 176.138 96.7534 194.848 102.531C213.56 108.307 224.045 128.158 218.267 146.868Z" fill="#E9E9E9"/>
<path d="M218.131 143.049C212.353 161.758 192.503 172.245 173.793 166.468C155.084 160.691 144.597 140.84 150.374 122.131C156.151 103.421 176.002 92.9341 194.711 98.7113C213.423 104.485 223.907 124.336 218.131 143.049Z" fill="#FFAB45"/>
<path d="M207.753 139.825C203.756 152.803 189.993 160.088 177.014 156.088C164.035 152.091 156.75 138.328 160.747 125.35C164.745 112.371 178.507 105.086 191.487 109.086C204.466 113.086 211.75 126.846 207.753 139.825Z" fill="white"/>
<path d="M207.755 139.823C206.832 142.822 205.385 145.528 203.543 147.847L186.025 157.116C183.071 157.335 180.021 157.01 177.021 156.084C174.84 155.41 172.828 154.46 170.999 153.285L208.828 133.27C208.772 135.443 208.428 137.642 207.755 139.823Z" fill="#E9E9E9"/>
<path d="M194.856 110.409L159.939 128.885C160.117 127.712 160.384 126.526 160.742 125.36C164.741 112.371 178.499 105.092 191.488 109.091C192.656 109.448 193.784 109.894 194.856 110.409Z" fill="#E9E9E9"/>
<path d="M208.321 127.541L166.548 149.645C166.029 149.122 165.549 148.575 165.083 147.984L207.768 125.397C207.984 126.094 208.162 126.812 208.321 127.541Z" fill="#E9E9E9"/>
<path d="M241.911 70.8929L171.287 49.0888C194.475 19.1181 217.643 -0.0669047 224.472 2.0441C231.334 4.16067 239.624 33.0566 241.911 70.8929Z" fill="#FFAB45"/>
<path d="M185.697 45.547C185.361 46.6402 184.2 47.2501 183.11 46.9132C182.019 46.5762 181.404 45.4171 181.743 44.3255C182.08 43.235 183.241 42.6224 184.331 42.9594C185.422 43.2963 186.033 44.4538 185.697 45.547Z" fill="white"/>
<path d="M198.262 49.4232C197.926 50.5164 196.766 51.129 195.675 50.7893C194.581 50.4535 193.971 49.2922 194.308 48.2017C194.644 47.1085 195.804 46.4958 196.896 46.8355C197.986 47.1725 198.599 48.3327 198.262 49.4232Z" fill="white"/>
<path d="M210.828 53.303C210.491 54.3935 209.331 55.0061 208.24 54.6691C207.147 54.3333 206.537 53.172 206.874 52.0815C207.211 50.991 208.371 50.3784 209.462 50.7153C210.552 51.0523 211.164 52.2098 210.828 53.303Z" fill="white"/>
<path d="M223.386 57.1806C223.049 58.271 221.889 58.8836 220.799 58.5467C219.706 58.2108 219.093 57.0506 219.433 55.959C219.768 54.8658 220.929 54.2532 222.02 54.5929C223.113 54.9287 223.726 56.089 223.386 57.1806Z" fill="white"/>
<path d="M235.951 61.0597C235.615 62.1529 234.454 62.7628 233.364 62.4259C232.27 62.09 231.66 60.9287 231.997 59.8382C232.333 58.745 233.495 58.1351 234.585 58.472C235.675 58.809 236.29 59.9654 235.951 61.0597Z" fill="white"/>
<path d="M126.976 235.942C126.639 237.033 125.479 237.645 124.388 237.308C123.298 236.971 122.685 235.811 123.022 234.721C123.359 233.63 124.518 233.015 125.61 233.355C126.7 233.691 127.312 234.849 126.976 235.942Z" fill="#E9E9E9"/>
<path d="M139.537 239.821C139.2 240.911 138.041 241.527 136.95 241.187C135.856 240.851 135.246 239.69 135.583 238.599C135.92 237.509 137.079 236.893 138.171 237.233C139.265 237.572 139.877 238.729 139.537 239.821Z" fill="#E9E9E9"/>
<path d="M152.101 243.7C151.765 244.793 150.605 245.406 149.513 245.066C148.423 244.729 147.81 243.569 148.147 242.478C148.483 241.385 149.644 240.775 150.735 241.112C151.825 241.449 152.438 242.609 152.101 243.7Z" fill="#E9E9E9"/>
<path d="M164.669 247.579C164.332 248.669 163.172 249.282 162.081 248.945C160.991 248.608 160.378 247.448 160.715 246.357C161.052 245.267 162.212 244.654 163.303 244.991C164.393 245.328 165.005 246.486 164.669 247.579Z" fill="#E9E9E9"/>
<path d="M177.228 251.457C176.891 252.547 175.731 253.16 174.641 252.823C173.547 252.487 172.935 251.327 173.274 250.235C173.61 249.142 174.77 248.53 175.862 248.869C176.952 249.206 177.565 250.366 177.228 251.457Z" fill="#E9E9E9"/>
<path opacity="0.2" d="M221.832 2.07104C199.681 18.5336 168.484 58.241 147.356 118.405C131.747 162.848 136.317 220.275 140.306 249.956L117.892 243.036C117.892 243.036 105.45 185.011 126.904 127.008C137.623 98.0592 154.463 70.7701 171.285 49.0888C192.068 22.2207 212.827 4.03927 221.832 2.07104Z" fill="white"/>
<path d="M165.773 277.17L117.998 262.418L121.207 244.069L173.468 260.205L165.773 277.17Z" fill="#FFAB45"/>
<path opacity="0.1" d="M173.464 260.206L169.711 268.469L119.978 251.089L121.208 244.075L173.464 260.206Z" fill="black"/>
<path d="M244.221 75.461L231.239 82.5815L232.957 98.1768L225.057 84.6205L210.382 86.622L223.041 78.7112L221.648 63.9025L229.34 76.6319L244.221 75.461Z" fill="#FCFCFC"/>
<path d="M211.803 31.4203L204.543 35.3982L205.504 44.1152L201.089 36.5379L192.888 37.6552L199.962 33.2346L199.183 24.9587L203.483 32.0743L211.803 31.4203Z" fill="#FCFCFC"/>
<path d="M245.736 208.769L238.481 212.749L239.441 221.466L235.027 213.888L226.825 215.006L233.901 210.588L233.12 202.309L237.421 209.425L245.736 208.769Z" fill="#FCFCFC"/>
<path d="M82.579 226.329L75.3232 230.308L76.284 239.025L71.8668 231.449L63.665 232.566L70.742 228.145L69.9627 219.869L74.2636 226.984L82.579 226.329Z" fill="#FCFCFC"/>
<path opacity="0.6" d="M155.201 273.82C148.006 290.403 143.791 308.395 143.934 326.576C144.042 344.708 148.601 363.002 158.084 378.885C162.847 386.79 168.805 394.05 175.777 400.33C182.745 406.614 190.723 411.909 199.368 416.027C208.014 420.153 217.314 423.102 226.899 424.927C236.486 426.757 246.351 427.475 256.25 427.297C246.447 428.619 236.457 429.071 226.453 428.344C216.454 427.625 206.446 425.715 196.78 422.418C187.117 419.129 177.816 414.444 169.329 408.42C160.841 402.406 153.184 395.058 146.718 386.701C133.81 369.928 125.913 349.284 123.299 328.048C120.625 306.763 123.081 284.945 129.281 264.395L155.201 273.82Z" fill="#FFAB45"/>
<path d="M145.965 306.988L141.58 311.082L143.814 317.029L139.358 312.5L133.799 314.751L137.976 310.381L135.949 304.71L140.241 308.937L145.965 306.988Z" fill="white"/>
<path d="M190.304 416.793L187.851 419.081L189.101 422.405L186.611 419.874L183.505 421.133L185.839 418.689L184.705 415.521L187.103 417.883L190.304 416.793Z" fill="white"/>
<path d="M172.585 392.324L170.135 394.611L171.383 397.937L168.892 395.406L165.786 396.664L168.12 394.22L166.987 391.052L169.387 393.413L172.585 392.324Z" fill="white"/>
<path d="M131.86 293.001L129.41 295.289L130.657 298.614L128.167 296.083L125.06 297.339L127.395 294.897L126.26 291.727L128.659 294.091L131.86 293.001Z" fill="white"/>
<path d="M200.915 418.933C199.879 419.595 200.905 421.205 201.944 420.543C202.981 419.884 201.954 418.27 200.915 418.933Z" fill="white"/>
<path d="M144.296 279.537C143.259 280.199 144.285 281.81 145.324 281.147C146.36 280.486 145.335 278.875 144.296 279.537Z" fill="white"/>
<path d="M146.78 379.042C145.744 379.704 146.77 381.315 147.809 380.652C148.845 379.99 147.816 378.381 146.78 379.042Z" fill="white"/>
<path d="M196.814 415.657C196.081 416.126 196.806 417.267 197.542 416.797C198.275 416.329 197.549 415.188 196.814 415.657Z" fill="white"/>
<path d="M128.525 351.086C127.792 351.554 128.517 352.695 129.253 352.226C129.986 351.758 129.258 350.618 128.525 351.086Z" fill="white"/>
<path d="M171.528 405.66C169.541 406.927 171.51 410.02 173.499 408.749C175.488 407.481 173.519 404.388 171.528 405.66Z" fill="white"/>
<path d="M132.479 341.191C130.492 342.458 132.461 345.551 134.45 344.28C136.438 343.009 134.47 339.919 132.479 341.191Z" fill="white"/>
</svg>
