<svg width="82" height="82" viewBox="0 0 82 82" fill="none" xmlns="http://www.w3.org/2000/svg">
<path d="M22.8695 8.83984H59.0648C66.8164 8.83984 73.0945 15.118 73.0945 22.8695V59.0648C73.0945 66.8164 66.8164 73.0945 59.0648 73.0945H22.8695C15.118 73.0945 8.83984 66.8164 8.83984 59.0648V22.8695C8.83984 15.118 15.118 8.83984 22.8695 8.83984Z" fill="url(#paint0_linear_746_37835)"/>
<path d="M57.975 12.3008H23.9578C17.4875 12.3008 12.2344 17.5539 12.2344 24.0242V58.0414C12.2344 64.5117 17.4875 69.7648 23.9578 69.7648H57.975C64.4453 69.7648 69.6984 64.5117 69.6984 58.0414V23.9602C69.6984 17.4898 64.4453 12.3008 57.975 12.3008ZM68.7375 58.1695C68.7375 64.0633 63.9969 68.8039 58.1031 68.8039H23.8297C18 68.8039 13.1953 64.0633 13.1953 58.1695V23.832C13.1953 17.9383 17.9359 13.1977 23.8297 13.1977H58.1672C63.9969 13.1977 68.8016 17.9383 68.8016 23.832V58.1695H68.7375Z" fill="white"/>
<path d="M41.0625 14.6055C26.5844 14.6055 14.7969 26.393 14.7969 40.8711C14.7969 55.3492 26.5844 67.1367 41.0625 67.1367C55.6047 67.1367 67.3281 55.3492 67.3281 40.8711C67.3281 26.393 55.5406 14.6055 41.0625 14.6055ZM41.0625 66.7523C26.7766 66.7523 15.1813 55.157 15.1813 40.8711C15.1813 26.5852 26.7766 14.9898 41.0625 14.9898C55.3484 14.9898 66.9438 26.5852 66.9438 40.8711C66.9438 55.157 55.3484 66.7523 41.0625 66.7523Z" fill="#69C5F3"/>
<path d="M41.0656 19.9883C29.4703 19.9883 20.1172 29.3414 20.1172 40.9367C20.1172 52.532 29.4703 61.8211 41.0656 61.8211C52.6609 61.8211 62.0141 52.468 62.0141 40.8727C62.0141 29.2773 52.5969 19.9883 41.0656 19.9883ZM41.0656 61.3727C29.7266 61.3727 20.5656 52.2117 20.5656 40.8727C20.5656 29.5336 29.7266 20.3727 41.0656 20.3727C52.4047 20.3727 61.5656 29.5336 61.5656 40.8727C61.5656 52.2117 52.3406 61.3727 41.0656 61.3727Z" fill="#68C5F4"/>
<path d="M21.0116 45.6758H60.9866C62.6522 45.6758 63.9334 47.0211 63.9334 48.6227C63.9334 50.2883 62.5881 51.5695 60.9866 51.5695H21.0116C19.3459 51.5695 18.0647 50.2242 18.0647 48.6227C18.0006 47.0211 19.3459 45.6758 21.0116 45.6758Z" fill="white"/>
<path d="M20.8859 46.2539H60.9891C62.2703 46.2539 63.3594 47.2789 63.3594 48.6242V48.6883C63.3594 49.9695 62.3344 51.0586 60.9891 51.0586H20.8859C19.6047 51.0586 18.5156 50.0336 18.5156 48.6883V48.5602C18.5797 47.2789 19.6047 46.2539 20.8859 46.2539Z" fill="#0A93E9"/>
<path d="M19.9219 50.8016H62.0109L62.3313 50.6094H19.6016L19.9219 50.8016Z" fill="#1694EA"/>
<path d="M18.9641 50.032H62.9109L63.0391 49.8398H18.8359L18.9641 50.032Z" fill="#319DEC"/>
<path d="M18.5781 48.8148H63.3578V48.5586H18.5781V48.8148Z" fill="#65B1EE"/>
<path d="M19.0266 47.2148H62.9734L63.0375 47.343L63.1016 47.4711H18.8984L18.9625 47.343L19.0266 47.2148Z" fill="#8EC6F3"/>
<path d="M19.9859 46.4453H62.0109L62.2031 46.5094L62.3953 46.6375H19.6016L19.7937 46.5094L19.9859 46.4453Z" fill="#95CAF3"/>
<path d="M59.8359 46.2539H59.5156C59.5156 46.2539 60.6047 47.0227 60.6047 48.7523C60.6047 50.3539 59.5156 51.0586 59.5156 51.0586H59.8359C59.8359 51.0586 60.925 50.5461 60.925 48.7523C60.925 46.8305 59.8359 46.2539 59.8359 46.2539Z" fill="url(#paint1_linear_746_37835)"/>
<path d="M56.7578 46.2539H56.4375C56.4375 46.2539 57.3984 47.1508 57.3984 48.7523C57.3984 50.1617 56.4375 51.0586 56.4375 51.0586H56.7578C56.7578 51.0586 57.7188 50.3539 57.7188 48.7523C57.6547 47.0227 56.7578 46.2539 56.7578 46.2539Z" fill="url(#paint2_linear_746_37835)"/>
<path d="M40.8086 46.2539H41.1289V51.0586H40.8086V46.2539Z" fill="url(#paint3_linear_746_37835)"/>
<path d="M37.6672 46.2539H37.9875C37.9875 46.2539 37.8594 47.4711 37.8594 48.7523C37.8594 49.9055 37.9875 51.0586 37.9875 51.0586H37.6672C37.6672 51.0586 37.5391 49.9055 37.5391 48.7523C37.5391 47.4711 37.6672 46.2539 37.6672 46.2539Z" fill="url(#paint4_linear_746_37835)"/>
<path d="M34.5938 46.2539H34.9141C34.9141 46.2539 34.5938 47.4711 34.5938 48.7523C34.5938 49.9055 34.9141 51.0586 34.9141 51.0586H34.5938C34.5938 51.0586 34.2734 49.9055 34.2734 48.7523C34.2734 47.4711 34.5938 46.2539 34.5938 46.2539Z" fill="url(#paint5_linear_746_37835)"/>
<path d="M31.4562 46.2539H31.7766C31.7766 46.2539 31.3281 47.4711 31.3281 48.7523C31.3281 49.9055 31.7766 51.0586 31.7766 51.0586H31.4562C31.4562 51.0586 31.0078 49.9055 31.0078 48.7523C31.0078 47.4711 31.4562 46.2539 31.4562 46.2539Z" fill="url(#paint6_linear_746_37835)"/>
<path d="M28.3164 46.2539H28.6367C28.6367 46.2539 27.9961 47.2789 27.9961 48.7523C27.9961 50.0336 28.6367 51.0586 28.6367 51.0586H28.3164C28.3164 51.0586 27.6758 50.0336 27.6758 48.7523C27.6758 47.2789 28.3164 46.2539 28.3164 46.2539Z" fill="url(#paint7_linear_746_37835)"/>
<path d="M25.1758 46.2539H25.4961C25.4961 46.2539 24.5352 47.1508 24.5352 48.7523C24.5352 50.1617 25.4961 51.0586 25.4961 51.0586H25.1758C25.1758 51.0586 24.2148 50.3539 24.2148 48.7523C24.2789 47.0227 25.1758 46.2539 25.1758 46.2539Z" fill="url(#paint8_linear_746_37835)"/>
<path d="M22.1008 46.2539H22.4211C22.4211 46.2539 21.332 47.0227 21.332 48.7523C21.332 50.3539 22.4211 51.0586 22.4211 51.0586H22.1008C22.1008 51.0586 21.0117 50.5461 21.0117 48.7523C21.0117 46.8305 22.1008 46.2539 22.1008 46.2539Z" fill="url(#paint9_linear_746_37835)"/>
<path d="M39.7175 21.8456L59.705 56.4394C60.5378 57.8488 60.0253 59.6425 58.616 60.4753C57.2066 61.3081 55.4128 60.7956 54.58 59.3863L34.5925 24.7925C33.7597 23.3831 34.2722 21.5894 35.6816 20.7566C37.091 19.9238 38.8847 20.4363 39.7175 21.8456Z" fill="white"/>
<path d="M39.2054 22.102L59.257 56.8238C59.8976 57.9129 59.5132 59.3863 58.4241 60.027L58.296 60.091C57.207 60.7317 55.7335 60.3473 55.0929 59.2582L35.0413 24.4723C34.4007 23.3832 34.7851 21.9098 35.8741 21.2692L35.9382 21.2051C37.0913 20.5645 38.5648 20.9488 39.2054 22.102Z" fill="url(#paint10_linear_746_37835)"/>
<path d="M34.7227 23.5113L55.7352 59.9629L55.8633 60.027L55.9914 60.091L56.1195 60.1551L34.7227 23.127V23.5113Z" fill="url(#paint11_linear_746_37835)"/>
<path d="M34.9141 22.2937L56.8875 60.3469H57.1437L35.0422 22.1016L34.9781 22.2297L34.9141 22.2937Z" fill="url(#paint12_linear_746_37835)"/>
<path d="M35.8125 21.3332L58.2344 60.091L58.4266 59.9629L36.0047 21.2051L35.8125 21.3332Z" fill="url(#paint13_linear_746_37835)"/>
<path d="M37.4141 20.9488L59.3234 58.9379L59.2594 59.066L59.1953 59.1941L37.0938 20.8848H37.2219L37.4141 20.9488Z" fill="url(#paint14_linear_746_37835)"/>
<path d="M38.5641 21.3328L59.5766 57.7203V58.1047L38.1797 21.1406L38.3078 21.2047L38.4359 21.2688L38.5641 21.3328Z" fill="url(#paint15_linear_746_37835)"/>
<path d="M58.6187 55.6695L58.4906 55.4133C58.4906 55.4133 58.3625 56.6945 56.9531 57.5914C55.6078 58.4242 54.3906 57.8477 54.3906 57.8477L54.5187 58.1039C54.5187 58.1039 55.5437 58.8086 57.0812 57.8477C58.6187 56.9508 58.6187 55.6695 58.6187 55.6695ZM57.0172 52.9789L56.8891 52.7227C56.8891 52.7227 56.5687 54.0039 55.2234 54.7727C54.0062 55.5414 52.7891 55.157 52.7891 55.157L52.9172 55.4133C52.9172 55.4133 54.0062 55.8617 55.4156 55.0289C56.825 54.1961 57.0172 52.9789 57.0172 52.9789Z" fill="#3C98EA"/>
<path d="M55.4781 50.2895L55.35 50.0332C55.35 50.0332 54.7734 51.1223 53.5562 51.827C52.4672 52.4676 51.25 52.4676 51.25 52.4676L51.3781 52.7238C51.3781 52.7238 52.5313 52.7238 53.6844 52.0832C54.9016 51.3785 55.4781 50.2895 55.4781 50.2895Z" fill="#4CA4ED"/>
<path d="M53.9406 47.598L53.8125 47.3418C53.8125 47.3418 52.9797 48.4309 51.8906 49.0074C50.8656 49.584 49.6484 49.7762 49.6484 49.7762L49.7766 50.0324C49.7766 50.0324 50.9937 49.8402 52.0187 49.2637C53.0437 48.6871 53.9406 47.598 53.9406 47.598Z" fill="#4DA7EE"/>
<path d="M47.6 36.707L47.7281 36.9633C47.7281 36.9633 46.6391 37.4758 45.55 38.0523C44.525 38.6289 43.6281 39.3977 43.6281 39.3977L43.5 39.1414C43.5 39.1414 44.4609 38.3727 45.4219 37.7961C46.5109 37.2195 47.6 36.707 47.6 36.707Z" fill="url(#paint16_linear_746_37835)"/>
<path d="M46.0609 34.0176L46.1891 34.2738C46.1891 34.2738 44.9719 34.6582 43.9469 35.2988C42.9219 35.8754 42.0891 36.7723 42.0891 36.7723L41.9609 36.516C41.9609 36.516 42.7938 35.6191 43.8188 35.0426C44.8438 34.3379 46.0609 34.0176 46.0609 34.0176Z" fill="url(#paint17_linear_746_37835)"/>
<path d="M43.1777 31.9023C44.0106 31.6461 44.6512 31.518 44.6512 31.518L44.5231 31.2617C44.5231 31.2617 43.9465 31.3258 43.3059 31.582C42.9215 31.7102 42.8574 32.0305 43.1777 31.9023Z" fill="#9DD4F7"/>
<path d="M41.3852 25.9452L41.5133 26.2014C41.5133 26.2014 40.2961 25.8811 38.8867 26.6498C37.6695 27.4186 37.4133 28.6358 37.4133 28.6358L37.2852 28.3795C37.2852 28.3795 37.4133 27.2905 38.7586 26.4577C40.168 25.5608 41.3852 25.9452 41.3852 25.9452Z" fill="url(#paint18_linear_746_37835)"/>
<path d="M39.8464 23.1911L40.0386 23.4473C40.0386 23.4473 38.7573 22.9348 37.2839 23.7676C35.8745 24.6645 35.8745 25.8817 35.8745 25.8817L35.6823 25.6254C35.6823 25.6254 35.5542 24.5364 37.0917 23.5754C38.6932 22.6145 39.8464 23.1911 39.8464 23.1911Z" fill="url(#paint19_linear_746_37835)"/>
<path d="M35.5535 45.6757C41.1269 36.0663 47.5331 24.9195 47.5331 24.9195C48.366 23.5101 47.8535 21.7163 46.4441 20.8835C45.0347 20.0507 43.241 20.5632 42.4081 21.9726C42.4081 21.9726 34.5925 35.5538 28.6988 45.6757H35.5535ZM32.0941 51.5695C29.4035 56.182 27.5456 59.5132 27.5456 59.5132C26.7128 60.9226 24.9191 61.4351 23.5097 60.6023C22.1003 59.7695 21.5878 57.9757 22.4206 56.5663C22.4206 56.5663 23.5097 54.5804 25.2394 51.6335C27.4175 51.5695 31.3894 51.5695 32.0941 51.5695Z" fill="white"/>
<path d="M34.8491 45.6761C40.4866 35.9386 47.021 24.5995 47.021 24.5995C47.6616 23.5105 47.2773 22.037 46.1882 21.3964L46.1241 21.3323C45.0351 20.6917 43.5616 21.0761 42.921 22.1652C42.921 22.1652 35.2335 35.4902 29.3398 45.6761H34.8491ZM31.4538 51.5698C28.8913 56.0542 27.0335 59.2573 27.0335 59.2573C26.3929 60.3464 24.9835 60.7308 23.8304 60.0902H23.7023C22.6132 59.4495 22.2288 58.0402 22.8695 56.887C22.8695 56.887 24.0866 54.773 25.9445 51.5698H31.4538Z" fill="url(#paint20_linear_746_37835)"/>
<path d="M34.6578 45.6758L47.4062 23.6383V23.2539C47.4062 23.2539 40.3594 35.4898 34.4656 45.6758H34.6578ZM31.1984 51.5695L26.3297 60.0258L26.1375 60.1539L25.9453 60.218C25.9453 60.218 28.1234 56.4383 30.9422 51.5695H31.1984Z" fill="url(#paint21_linear_746_37835)"/>
<path d="M33.6984 45.677L47.1516 22.4223L47.0875 22.2941L47.0234 22.166C47.0234 22.166 39.6562 34.9145 33.5062 45.6129L33.6984 45.677ZM30.3031 51.5707L25.1781 60.4113H24.9219C24.9219 60.4113 27.1 56.6316 30.0469 51.5066C30.175 51.5707 30.3031 51.5707 30.3031 51.5707Z" fill="url(#paint22_linear_746_37835)"/>
<path d="M32.2875 45.6758C38.6297 34.7211 46.2531 21.4602 46.2531 21.4602L46.0609 21.332L31.9672 45.6758H32.2875ZM28.8281 51.6336C26.0094 56.5664 23.8953 60.218 23.8953 60.218L23.7031 60.0898C23.7031 60.0898 25.7531 56.5023 28.5719 51.6336C28.7 51.5695 28.6359 51.5695 28.8281 51.6336Z" fill="url(#paint23_linear_746_37835)"/>
<path d="M30.75 45.6758C37.0922 34.7211 44.9719 21.0117 44.9719 21.0117H44.7156C44.7156 21.0117 36.8359 34.657 30.4937 45.6758H30.75ZM27.0344 51.5695C24.4719 55.9898 22.7422 59.0008 22.7422 59.0008L22.8062 59.1289L22.8703 59.257C22.8703 59.257 24.7281 56.0539 27.3547 51.5695H27.0344Z" fill="url(#paint24_linear_746_37835)"/>
<path d="M29.7898 45.6773L43.8836 21.2695L43.7555 21.3336L43.6273 21.3977L43.5633 21.4617C43.5633 21.4617 35.7477 34.9789 29.5977 45.6773H29.7898ZM26.3945 51.5711C24.1523 55.4789 22.5508 58.2336 22.5508 58.2336V57.7211C22.5508 57.7211 23.9602 55.2867 26.1383 51.507C26.2664 51.5711 26.2664 51.5711 26.3945 51.5711Z" fill="url(#paint25_linear_746_37835)"/>
<path d="M42.2805 23.1904L42.1523 23.4467C42.1523 23.4467 43.3055 22.8701 44.843 23.7029C46.2523 24.4717 46.3164 25.817 46.3164 25.817L46.4445 25.5607C46.4445 25.5607 46.5727 24.3435 44.9711 23.4467C43.3695 22.5498 42.2805 23.1904 42.2805 23.1904Z" fill="url(#paint26_linear_746_37835)"/>
<path d="M40.7453 25.9448L40.6172 26.201C40.6172 26.201 41.8984 25.8167 43.2437 26.5854C44.525 27.2901 44.7813 28.5073 44.7813 28.5073L44.9094 28.251C44.9094 28.251 44.7812 27.0979 43.3719 26.3292C41.8984 25.4963 40.7453 25.9448 40.7453 25.9448Z" fill="url(#paint27_linear_746_37835)"/>
<path d="M39.1437 28.6367L39.0156 28.893C39.0156 28.893 40.1687 28.8289 41.45 29.5977C42.6031 30.2383 43.1797 31.2633 43.1797 31.2633L43.3078 31.007C43.3078 31.007 42.7313 29.982 41.5781 29.3414C40.3609 28.6367 39.1437 28.6367 39.1437 28.6367Z" fill="url(#paint28_linear_746_37835)"/>
<path d="M37.6047 31.3906L37.4766 31.6469C37.4766 31.6469 38.7578 31.8391 39.8469 32.4797C40.8719 33.0563 41.6406 34.0172 41.6406 34.0172L41.7687 33.7609C41.7687 33.7609 41 32.8 39.975 32.2234C38.8859 31.5828 37.6047 31.3906 37.6047 31.3906Z" fill="url(#paint29_linear_746_37835)"/>
<path d="M36.0031 34.082L35.875 34.3383C35.875 34.3383 37.0922 34.6586 38.1812 35.2992C39.2062 35.8758 40.0391 36.7086 40.0391 36.7086L40.1672 36.4523C40.1672 36.4523 39.3344 35.6195 38.3094 35.043C37.2844 34.4664 36.0031 34.082 36.0031 34.082Z" fill="url(#paint30_linear_746_37835)"/>
<path d="M34.4656 36.7715L34.2734 37.0277C34.2734 37.0277 35.4266 37.4762 36.5156 38.1168C37.5406 38.6934 38.4375 39.398 38.4375 39.398L38.5656 39.1418C38.5656 39.1418 37.6688 38.4371 36.6438 37.8605C35.6188 37.284 34.4656 36.7715 34.4656 36.7715Z" fill="url(#paint31_linear_746_37835)"/>
<path d="M32.7344 39.7836L32.8625 39.5273L37.0266 41.8977L36.8984 42.1539L32.7344 39.7836Z" fill="url(#paint32_linear_746_37835)"/>
<path d="M31.1992 42.5375L31.3273 42.2812C31.3273 42.2812 32.3523 43.05 33.4414 43.6266C34.4664 44.2031 35.4914 44.6516 35.4914 44.6516L35.3633 44.8438C35.3633 44.8438 34.2742 44.3953 33.2492 43.8188C32.1602 43.2422 31.1992 42.5375 31.1992 42.5375Z" fill="url(#paint33_linear_746_37835)"/>
<path d="M30.1727 45.6773C29.8523 45.4211 29.6602 45.2289 29.6602 45.2289L29.7883 44.9727C29.7883 44.9727 30.1727 45.293 30.6852 45.6773H30.1727Z" fill="#73B9F1"/>
<path d="M27.6734 51.5703C27.9297 51.7625 28.1859 51.9547 28.5063 52.1469C29.6594 52.7875 30.8125 52.7234 30.8125 52.7234L30.6844 52.9797C30.6844 52.9797 29.5313 53.0438 28.3781 52.4031C27.9297 52.1469 27.5453 51.8266 27.2891 51.5703H27.6734Z" fill="url(#paint34_linear_746_37835)"/>
<path d="M24.9219 53.3637L25.05 53.1074C25.05 53.1074 25.3703 54.3887 26.7797 55.1574C28.0609 55.8621 29.2141 55.4777 29.2141 55.4777L29.0859 55.734C29.0859 55.734 28.0609 56.1824 26.6516 55.4137C25.1781 54.5809 24.9219 53.3637 24.9219 53.3637Z" fill="url(#paint35_linear_746_37835)"/>
<path d="M23.3203 56.1195L23.4484 55.8633C23.4484 55.8633 23.5766 57.2086 25.1141 58.0414C26.5234 58.8102 27.6125 58.2336 27.6125 58.2336L27.4203 58.4898C27.4203 58.4898 26.4594 59.1945 24.9219 58.2977C23.3203 57.4008 23.3203 56.1195 23.3203 56.1195Z" fill="url(#paint36_linear_746_37835)"/>
<path d="M44.0758 73.1602L71.4945 15.568L64.5758 12.3008L36.0039 72.1992C36.0039 72.1992 36.9008 72.6477 38.0539 73.1602H44.0758Z" fill="url(#paint37_linear_746_37835)"/>
<path d="M60.2828 8.83984L73.0953 14.9258V33.3117C68.675 31.1977 39.0781 17.1039 39.0781 17.1039C39.0781 17.1039 41.1281 12.8117 43.05 8.83984H60.2828Z" fill="url(#paint38_radial_746_37835)"/>
<path d="M28.5076 70.5978C28.3154 70.9822 27.9951 71.4306 28.0591 72.1353C28.1232 74.7619 32.4154 77.1963 34.9138 77.1963C36.6435 77.1963 37.2201 76.4916 37.8607 75.2103C38.5013 73.9291 29.2122 69.0603 28.5076 70.5978Z" fill="url(#paint39_radial_746_37835)"/>
<path d="M58.0422 16.0801C58.0422 16.0801 64.6406 17.6816 65.1531 18.1301C65.6656 18.5785 64.3203 21.141 64.0641 21.5254C61.95 24.0879 55.3516 38.2457 55.3516 38.2457L49.2656 34.7863C49.2656 34.7863 54.7109 24.6645 56.6328 21.077C57.85 18.6426 58.0422 16.0801 58.0422 16.0801Z" fill="url(#paint40_linear_746_37835)"/>
<path d="M73.2871 12.7488C74.4402 13.5816 75.9777 13.3894 77.1949 13.1973C78.0277 13.0691 76.7465 14.2863 75.3371 17.1051C73.9277 19.9238 73.9918 20.116 73.7996 19.9238C73.6074 19.7316 67.2652 16.1441 67.4574 15.8238C67.7137 15.5035 68.7387 8.52069 69.2512 8.71288C71.109 9.16132 71.4293 11.4035 73.2871 12.7488Z" fill="url(#paint41_linear_746_37835)"/>
<path d="M63.4229 20.6273C63.8713 19.9227 65.9213 15.5664 69.1885 15.5664C70.662 15.5664 73.4807 19.282 73.737 19.7945C73.9292 20.243 73.2885 22.0367 72.9682 21.2039C72.5838 20.243 70.9823 18.193 69.2526 18.193C67.5229 18.193 65.1526 20.1789 64.576 20.8836C63.9995 21.5242 62.9745 21.332 63.4229 20.6273Z" fill="url(#paint42_linear_746_37835)"/>
<path d="M63.2925 20.3711C63.6128 19.8586 65.0862 17.6164 65.7909 16.9117C66.4956 16.207 68.2893 14.3492 69.8268 14.093C71.3643 13.8367 72.9659 16.9758 72.4534 17.6164C72.069 18.0648 71.4284 17.5523 70.6596 16.9117C69.8909 16.3352 69.3784 15.182 66.944 17.0398C66.1112 17.6805 65.2784 18.193 63.3565 20.9477C62.844 21.6523 62.9721 20.8836 63.2925 20.3711Z" fill="url(#paint43_linear_746_37835)"/>
<path d="M55.3501 39.0783C55.6063 38.5658 55.9266 37.7971 55.2219 37.2205C54.4532 36.644 50.8657 34.7221 50.2251 34.594C49.5844 34.4658 49.0719 34.594 48.8157 35.0424C48.5594 35.4908 28.8922 69.1877 28.5079 70.1487C28.1235 71.1096 28.0594 71.8143 28.636 72.0065C29.2126 72.1987 35.811 75.3377 36.4516 76.0424C37.0922 76.7471 37.4126 75.9783 37.6688 75.594C38.886 74.0565 55.0298 39.5908 55.3501 39.0783Z" fill="url(#paint44_linear_746_37835)"/>
<path d="M63.743 20.2437C64.0633 19.7953 64.832 18.5141 65.793 17.3609C66.4336 16.5922 69.893 14.9266 70.6617 12.2359C71.1102 10.7625 70.4055 9.28906 69.4445 8.64844C66.1773 6.6625 60.5398 3.52344 52.2758 3.52344C46.7023 3.52344 44.332 5.38125 44.332 5.38125H47.1508L56.9523 9.225L58.1695 14.35C58.1695 14.35 58.2977 16.0797 57.7211 18.0656C57.3367 19.6672 57.2086 20.6281 56.632 22.2297C57.0805 22.4219 58.1055 21.7172 59.2586 22.0375C60.2836 22.2938 60.9242 23.7031 61.6289 22.8703C62.8461 21.2688 63.2305 20.9484 63.743 20.2437Z" fill="url(#paint45_linear_746_37835)"/>
<path d="M57.975 16.271C57.4625 11.5304 56.3094 7.04598 44.2656 7.11005C45.0344 6.3413 46.8922 5.57255 46.8922 5.57255L44.2656 5.38036C44.2656 5.38036 44.65 5.06005 45.4188 4.99598C52.4656 4.41942 58.7438 5.89286 58.2953 15.0538C58.2313 16.5272 58.1031 17.1679 57.975 16.271Z" fill="url(#paint46_linear_746_37835)"/>
<path d="M44.2656 7.11129C45.0984 6.79098 46.2516 6.59879 48.4297 6.72691C51.1203 6.85504 54.5156 7.88004 55.925 9.16129C56.6297 9.80191 56.5656 9.28941 55.7969 8.4566C53.8109 6.15035 50.8 5.63785 46.8922 5.57379C46.4437 5.50973 44.9703 6.34254 44.2656 7.11129Z" fill="url(#paint47_linear_746_37835)"/>
<path d="M77.3219 13.1973L80.8453 14.991C80.8453 14.991 79.5 16.7848 78.4109 18.8348C77.2578 21.0129 76.4891 23.3832 76.4891 23.3832L73.0938 21.3332C73.0938 21.3332 73.9266 19.027 75.1438 16.7848C76.1047 14.927 77.3219 13.1973 77.3219 13.1973Z" fill="url(#paint48_linear_746_37835)"/>
<path d="M80.848 14.9908C81.1042 15.119 80.2714 17.1049 79.0543 19.4111C77.8371 21.7174 76.6839 23.5111 76.4918 23.383C76.2355 23.2549 77.0683 21.269 78.2855 18.9627C79.4386 16.6565 80.5917 14.8627 80.848 14.9908Z" fill="#BFC0D0"/>
<defs>
<linearGradient id="paint0_linear_746_37835" x1="40.9653" y1="73.1362" x2="40.9653" y2="8.82959" gradientUnits="userSpaceOnUse">
<stop stop-color="#1578E4"/>
<stop offset="1" stop-color="#00C3F2"/>
</linearGradient>
<linearGradient id="paint1_linear_746_37835" x1="60.244" y1="51.0368" x2="60.244" y2="46.2437" gradientUnits="userSpaceOnUse">
<stop stop-color="#1492E7"/>
<stop offset="1" stop-color="#DBEDFB"/>
</linearGradient>
<linearGradient id="paint2_linear_746_37835" x1="57.041" y1="51.0368" x2="57.041" y2="46.2437" gradientUnits="userSpaceOnUse">
<stop stop-color="#1492E7"/>
<stop offset="1" stop-color="#DBEDFB"/>
</linearGradient>
<linearGradient id="paint3_linear_746_37835" x1="40.9668" y1="51.0368" x2="40.9668" y2="46.2437" gradientUnits="userSpaceOnUse">
<stop stop-color="#1492E7"/>
<stop offset="1" stop-color="#DBEDFB"/>
</linearGradient>
<linearGradient id="paint4_linear_746_37835" x1="37.7646" y1="51.0368" x2="37.7646" y2="46.2437" gradientUnits="userSpaceOnUse">
<stop stop-color="#1492E7"/>
<stop offset="1" stop-color="#DBEDFB"/>
</linearGradient>
<linearGradient id="paint5_linear_746_37835" x1="34.5668" y1="51.0368" x2="34.5668" y2="46.2437" gradientUnits="userSpaceOnUse">
<stop stop-color="#1492E7"/>
<stop offset="1" stop-color="#DBEDFB"/>
</linearGradient>
<linearGradient id="paint6_linear_746_37835" x1="31.3685" y1="51.0368" x2="31.3685" y2="46.2437" gradientUnits="userSpaceOnUse">
<stop stop-color="#1492E7"/>
<stop offset="1" stop-color="#DBEDFB"/>
</linearGradient>
<linearGradient id="paint7_linear_746_37835" x1="28.1678" y1="51.0368" x2="28.1678" y2="46.2437" gradientUnits="userSpaceOnUse">
<stop stop-color="#1492E7"/>
<stop offset="1" stop-color="#DBEDFB"/>
</linearGradient>
<linearGradient id="paint8_linear_746_37835" x1="24.8888" y1="51.0368" x2="24.8888" y2="46.2437" gradientUnits="userSpaceOnUse">
<stop stop-color="#1492E7"/>
<stop offset="1" stop-color="#DBEDFB"/>
</linearGradient>
<linearGradient id="paint9_linear_746_37835" x1="21.6889" y1="51.0368" x2="21.6889" y2="46.2437" gradientUnits="userSpaceOnUse">
<stop stop-color="#1492E7"/>
<stop offset="1" stop-color="#DBEDFB"/>
</linearGradient>
<linearGradient id="paint10_linear_746_37835" x1="47.1363" y1="60.3793" x2="47.1363" y2="20.9117" gradientUnits="userSpaceOnUse">
<stop stop-color="#1285E7"/>
<stop offset="1" stop-color="#00B5EF"/>
</linearGradient>
<linearGradient id="paint11_linear_746_37835" x1="56.0324" y1="60.205" x2="34.6464" y2="23.1628" gradientUnits="userSpaceOnUse">
<stop stop-color="#2B90E7"/>
<stop offset="1" stop-color="#00B6EF"/>
</linearGradient>
<linearGradient id="paint12_linear_746_37835" x1="57.0624" y1="60.4282" x2="34.9672" y2="22.1586" gradientUnits="userSpaceOnUse">
<stop stop-color="#3795EA"/>
<stop offset="1" stop-color="#49C4F2"/>
</linearGradient>
<linearGradient id="paint13_linear_746_37835" x1="58.3151" y1="60.0494" x2="35.9227" y2="21.2647" gradientUnits="userSpaceOnUse">
<stop stop-color="#3696EA"/>
<stop offset="1" stop-color="#90D9F6"/>
</linearGradient>
<linearGradient id="paint14_linear_746_37835" x1="59.3119" y1="59.1506" x2="37.1994" y2="20.8508" gradientUnits="userSpaceOnUse">
<stop stop-color="#3097EA"/>
<stop offset="1" stop-color="#B5E5F9"/>
</linearGradient>
<linearGradient id="paint15_linear_746_37835" x1="59.6297" y1="58.0957" x2="38.27" y2="21.0996" gradientUnits="userSpaceOnUse">
<stop stop-color="#3A98EA"/>
<stop offset="1" stop-color="#BCE7FA"/>
</linearGradient>
<linearGradient id="paint16_linear_746_37835" x1="43.5519" y1="39.2221" x2="47.7006" y2="36.8268" gradientUnits="userSpaceOnUse">
<stop stop-color="#00A4EC"/>
<stop offset="1" stop-color="#B9DFF6"/>
</linearGradient>
<linearGradient id="paint17_linear_746_37835" x1="41.9526" y1="36.4558" x2="46.1007" y2="34.0605" gradientUnits="userSpaceOnUse">
<stop stop-color="#00A4EC"/>
<stop offset="1" stop-color="#B9DFF6"/>
</linearGradient>
<linearGradient id="paint18_linear_746_37835" x1="37.1122" y1="28.0714" x2="41.234" y2="25.6921" gradientUnits="userSpaceOnUse">
<stop stop-color="#00B4EF"/>
<stop offset="1" stop-color="#C3E9FA"/>
</linearGradient>
<linearGradient id="paint19_linear_746_37835" x1="35.5055" y1="25.2904" x2="39.6542" y2="22.8951" gradientUnits="userSpaceOnUse">
<stop stop-color="#00B4EF"/>
<stop offset="1" stop-color="#C3E9FA"/>
</linearGradient>
<linearGradient id="paint20_linear_746_37835" x1="34.9555" y1="60.4752" x2="34.9555" y2="21.0082" gradientUnits="userSpaceOnUse">
<stop stop-color="#1285E7"/>
<stop offset="1" stop-color="#00B5EF"/>
</linearGradient>
<linearGradient id="paint21_linear_746_37835" x1="26.0613" y1="60.3019" x2="47.4472" y2="23.261" gradientUnits="userSpaceOnUse">
<stop stop-color="#3194E9"/>
<stop offset="1" stop-color="#71CFF4"/>
</linearGradient>
<linearGradient id="paint22_linear_746_37835" x1="25.0263" y1="60.5279" x2="47.124" y2="22.2531" gradientUnits="userSpaceOnUse">
<stop stop-color="#5AA6EC"/>
<stop offset="1" stop-color="#A2DEF8"/>
</linearGradient>
<linearGradient id="paint23_linear_746_37835" x1="23.7787" y1="60.1443" x2="46.1711" y2="21.3596" gradientUnits="userSpaceOnUse">
<stop stop-color="#66ABEE"/>
<stop offset="1" stop-color="#BEE8FA"/>
</linearGradient>
<linearGradient id="paint24_linear_746_37835" x1="22.7857" y1="59.2455" x2="44.8982" y2="20.9457" gradientUnits="userSpaceOnUse">
<stop stop-color="#7BB6F0"/>
<stop offset="1" stop-color="#B1E3F9"/>
</linearGradient>
<linearGradient id="paint25_linear_746_37835" x1="22.4585" y1="58.2157" x2="43.8291" y2="21.2003" gradientUnits="userSpaceOnUse">
<stop stop-color="#5AA6EC"/>
<stop offset="1" stop-color="#AFE3F9"/>
</linearGradient>
<linearGradient id="paint26_linear_746_37835" x1="42.5124" y1="22.8631" x2="46.6611" y2="25.2584" gradientUnits="userSpaceOnUse">
<stop stop-color="#C1E7FA"/>
<stop offset="1" stop-color="#89D4F5"/>
</linearGradient>
<linearGradient id="paint27_linear_746_37835" x1="40.9093" y1="25.6437" x2="45.058" y2="28.0383" gradientUnits="userSpaceOnUse">
<stop stop-color="#C1E7FA"/>
<stop offset="1" stop-color="#89D4F5"/>
</linearGradient>
<linearGradient id="paint28_linear_746_37835" x1="39.2546" y1="28.5118" x2="43.4026" y2="30.9065" gradientUnits="userSpaceOnUse">
<stop stop-color="#C1E7FA"/>
<stop offset="1" stop-color="#89D4F5"/>
</linearGradient>
<linearGradient id="paint29_linear_746_37835" x1="37.6438" y1="31.2977" x2="41.7918" y2="33.693" gradientUnits="userSpaceOnUse">
<stop stop-color="#B0DFF8"/>
<stop offset="1" stop-color="#52BDF2"/>
</linearGradient>
<linearGradient id="paint30_linear_746_37835" x1="36.0352" y1="34.0846" x2="40.1845" y2="36.4799" gradientUnits="userSpaceOnUse">
<stop stop-color="#B4DEF8"/>
<stop offset="1" stop-color="#4EB5F0"/>
</linearGradient>
<linearGradient id="paint31_linear_746_37835" x1="34.4272" y1="36.8695" x2="38.5752" y2="39.2642" gradientUnits="userSpaceOnUse">
<stop stop-color="#B4DEF8"/>
<stop offset="1" stop-color="#4EB5F0"/>
</linearGradient>
<linearGradient id="paint32_linear_746_37835" x1="32.8234" y1="39.6465" x2="36.9708" y2="42.0412" gradientUnits="userSpaceOnUse">
<stop stop-color="#B5DDF8"/>
<stop offset="1" stop-color="#46AEEE"/>
</linearGradient>
<linearGradient id="paint33_linear_746_37835" x1="31.2216" y1="42.4222" x2="35.3703" y2="44.8175" gradientUnits="userSpaceOnUse">
<stop stop-color="#96CEF4"/>
<stop offset="1" stop-color="#46AAEE"/>
</linearGradient>
<linearGradient id="paint34_linear_746_37835" x1="27.3653" y1="51.3365" x2="30.5441" y2="53.1719" gradientUnits="userSpaceOnUse">
<stop stop-color="#8FC1F2"/>
<stop offset="1" stop-color="#3193EA"/>
</linearGradient>
<linearGradient id="paint35_linear_746_37835" x1="24.7515" y1="53.6308" x2="28.9002" y2="56.0261" gradientUnits="userSpaceOnUse">
<stop stop-color="#8FC1F2"/>
<stop offset="1" stop-color="#3193EA"/>
</linearGradient>
<linearGradient id="paint36_linear_746_37835" x1="23.1435" y1="56.4161" x2="27.2915" y2="58.8114" gradientUnits="userSpaceOnUse">
<stop stop-color="#8FC1F2"/>
<stop offset="1" stop-color="#3193EA"/>
</linearGradient>
<linearGradient id="paint37_linear_746_37835" x1="49.1508" y1="41.5985" x2="57.1311" y2="45.4903" gradientUnits="userSpaceOnUse">
<stop offset="0.001"/>
<stop offset="1" stop-opacity="0"/>
</linearGradient>
<radialGradient id="paint38_radial_746_37835" cx="0" cy="0" r="1" gradientUnits="userSpaceOnUse" gradientTransform="translate(61.0131 16.0982) rotate(116.706) scale(10.3657 17.9364)">
<stop/>
<stop offset="1" stop-opacity="0"/>
</radialGradient>
<radialGradient id="paint39_radial_746_37835" cx="0" cy="0" r="1" gradientUnits="userSpaceOnUse" gradientTransform="translate(32.8043 73.6456) rotate(26.1166) scale(5.06158 2.88121)">
<stop offset="0.417" stop-color="#0C0C12"/>
<stop offset="1" stop-color="#3D4651"/>
</radialGradient>
<linearGradient id="paint40_linear_746_37835" x1="54.2997" y1="25.0962" x2="60.5547" y2="28.2833" gradientUnits="userSpaceOnUse">
<stop stop-color="#344351"/>
<stop offset="0.1" stop-color="#9697A0"/>
<stop offset="0.181" stop-color="#8B8C95"/>
<stop offset="0.351" stop-color="#787A83"/>
<stop offset="0.47" stop-color="#71747D"/>
<stop offset="0.591" stop-color="#777982"/>
<stop offset="0.749" stop-color="#87898F"/>
<stop offset="0.8" stop-color="#8E8F94"/>
<stop offset="0.849" stop-color="#3D3B42"/>
<stop offset="0.9" stop-color="#606E84"/>
</linearGradient>
<linearGradient id="paint41_linear_746_37835" x1="75.519" y1="18.7431" x2="68.4587" y2="9.20232" gradientUnits="userSpaceOnUse">
<stop offset="0.27" stop-color="#262B33"/>
<stop offset="0.45" stop-color="#74747E"/>
<stop offset="0.54" stop-color="#B0B0BC"/>
<stop offset="0.73" stop-color="#74747E"/>
</linearGradient>
<linearGradient id="paint42_linear_746_37835" x1="63.1295" y1="19.4896" x2="73.5544" y2="18.143" gradientUnits="userSpaceOnUse">
<stop offset="0.14" stop-color="#606E84"/>
<stop offset="0.4" stop-color="#9899A5"/>
<stop offset="0.73" stop-color="#475768"/>
<stop offset="0.92" stop-color="#262B33"/>
</linearGradient>
<linearGradient id="paint43_linear_746_37835" x1="67.987" y1="20.3762" x2="66.9754" y2="14.6401" gradientUnits="userSpaceOnUse">
<stop stop-color="#101215" stop-opacity="0.1"/>
<stop offset="0.46" stop-color="#101215" stop-opacity="0.7"/>
<stop offset="0.7" stop-color="#474951"/>
<stop offset="0.91" stop-color="#7B7D88"/>
</linearGradient>
<linearGradient id="paint44_linear_746_37835" x1="37.2402" y1="52.3527" x2="46.9175" y2="57.1145" gradientUnits="userSpaceOnUse">
<stop offset="0.115" stop-color="#2C3952"/>
<stop offset="0.374" stop-color="#3D414E"/>
<stop offset="0.55" stop-color="#474A54"/>
<stop offset="0.754" stop-color="#4E5057"/>
<stop offset="0.892" stop-color="#323945"/>
<stop offset="1" stop-color="#143052"/>
</linearGradient>
<linearGradient id="paint45_linear_746_37835" x1="52.2168" y1="20.2944" x2="59.7006" y2="3.87386" gradientUnits="userSpaceOnUse">
<stop offset="0.118" stop-color="#6D7078" stop-opacity="0"/>
<stop offset="0.2" stop-color="#6D7078" stop-opacity="0.7"/>
<stop offset="0.34" stop-color="#35363A"/>
<stop offset="0.374" stop-color="#1D1F22"/>
<stop offset="0.4" stop-color="#101215"/>
<stop offset="0.5" stop-color="#16171A"/>
<stop offset="0.56" stop-color="#292A2E"/>
<stop offset="0.688" stop-color="#4B4D51"/>
<stop offset="0.807" stop-color="#63666B"/>
<stop offset="0.915" stop-color="#72757B"/>
<stop offset="1" stop-color="#777A80"/>
</linearGradient>
<linearGradient id="paint46_linear_746_37835" x1="44.2426" y1="10.7853" x2="58.312" y2="10.7853" gradientUnits="userSpaceOnUse">
<stop stop-color="#4A4D56"/>
<stop offset="1" stop-color="#29292D"/>
</linearGradient>
<linearGradient id="paint47_linear_746_37835" x1="44.2426" y1="7.49374" x2="56.408" y2="7.49374" gradientUnits="userSpaceOnUse">
<stop stop-color="#767880"/>
<stop offset="0.41" stop-color="#0C0A0B"/>
</linearGradient>
<linearGradient id="paint48_linear_746_37835" x1="74.5236" y1="22.266" x2="79.2482" y2="14.0826" gradientUnits="userSpaceOnUse">
<stop stop-color="#858997"/>
<stop offset="0.23" stop-color="#244668"/>
<stop offset="0.282" stop-color="#1A3249"/>
<stop offset="0.4" stop-color="#040506"/>
<stop offset="0.464" stop-color="#313236"/>
<stop offset="0.546" stop-color="#65656E"/>
<stop offset="0.607" stop-color="#868691"/>
<stop offset="0.64" stop-color="#92929E"/>
</linearGradient>
</defs>
</svg>
