<svg width="82" height="82" viewBox="0 0 82 82" fill="none" xmlns="http://www.w3.org/2000/svg">
<path d="M77.9438 11.7452C77.6781 5.39801 71.5822 4.06665 71.5822 4.06665C71.5822 4.06665 50.4537 1.15279 41.1978 0.0950309C31.9389 -0.968338 32.5152 7.24319 32.5152 7.24319C32.5152 7.24319 34.6178 67.092 34.8361 74.5052C35.0841 83.3371 44.0921 81.9157 44.0921 81.9157L75.9247 76.8778C81.7133 75.8174 82 69.2022 82 69.2022C82 69.2022 78.2398 18.6743 77.9438 11.7452C78.2395 18.6743 77.6781 5.39801 77.9438 11.7452ZM70.8234 62.5847L47.1534 64.8286C47.1534 64.8286 40.26 65.7908 40.1049 58.1261C39.9914 52.479 38.6263 20.1314 38.6263 20.1314C38.6263 20.1314 38.1513 14.1998 45.2449 14.6862C52.4847 15.1782 69.8321 16.3864 69.8321 16.3864C69.8321 16.3864 74.4765 17.3979 74.6793 22.2416C74.8973 27.5062 76.9015 56.7431 76.9015 56.7431C76.9015 56.7431 77.424 61.5485 70.8234 62.5847ZM12.8776 53.8647L8.50472 54.1492C8.50472 54.1492 4.09315 54.6958 3.99189 50.2785C3.92029 47.0232 3.47817 28.5448 3.47817 28.5448C3.47817 28.5448 3.17342 25.1254 7.71044 25.4043C8.86042 25.4725 10.4909 25.5681 12.292 25.6667C12.2294 22.6023 12.1759 19.9233 12.1339 17.8846C9.63696 17.7122 7.30121 17.5263 5.63171 17.3651C-0.362932 16.761 0.00437743 21.3668 0.00437743 21.3668C0.00437743 21.3668 0.727708 55.2562 0.862184 59.4111C1.02665 64.3641 6.8536 63.5604 6.8536 63.5604L13.075 62.951C13.0211 60.4934 12.9492 57.3611 12.8779 53.865L12.8776 53.8647ZM30.2695 23.0615C30.2522 22.6619 30.1789 22.2659 30.0515 21.8833C28.1369 21.7414 23.3309 20.5959 21.7901 22.0858C20.8133 23.0234 21.2164 24.9996 21.2402 26.1232L24.726 26.3033C24.726 26.3033 27.6976 26.8856 27.8263 29.6737C27.9637 32.7136 27.9456 49.7399 27.9456 49.7399C27.9456 49.7399 28.2801 52.5171 24.0629 53.105L21.8497 53.2555C21.8617 53.8594 21.8736 54.346 21.8794 54.7067C21.9723 59.5617 27.6141 58.0063 31.1534 57.6917C31.4581 52.5419 30.9173 47.2363 30.7922 42.0838C30.6397 35.7449 30.5829 29.3951 30.2695 23.0615C30.4604 26.9375 30.2485 22.6297 30.2695 23.0615Z" fill="black"/>
<path d="M32.0461 59.8161L25.6573 60.3821C25.6573 60.3821 19.6994 61.1676 19.5709 54.8653C19.4781 50.214 18.8794 23.8504 18.8794 23.8504C18.8794 23.8504 18.4665 18.9767 24.5801 19.3667C26.1509 19.4658 28.3118 19.6278 30.6639 19.801C30.4872 14.7431 30.3463 10.7537 30.2746 8.69887C27.0549 8.41024 24.0205 8.11925 21.7763 7.88312C13.6964 7.04187 14.2056 13.5999 14.2056 13.5999C14.2056 13.5999 15.1661 61.9587 15.3545 67.8682C15.5729 74.9317 23.4341 73.7971 23.4341 73.7971L32.48 72.7336C32.3902 69.9838 32.2377 65.3652 32.0461 59.8158V59.8161ZM45.045 16.6469C43.9142 16.5644 42.5404 16.6332 41.7026 17.4437C40.8167 18.2953 40.8019 19.5041 40.8529 20.5975C44.0576 20.8532 46.3826 21.0424 46.3826 21.0424C46.3826 21.0424 50.3864 21.8697 50.5689 25.8532C50.7544 30.1859 51.9007 53.728 51.9007 53.728C51.9007 53.728 52.3495 57.6869 46.6579 58.5412L42.3488 58.9203C42.9207 65.1045 51.6312 62.4947 56.0867 62.0717C55.6292 52.7719 54.2108 24.01 53.8906 17.2568C50.9428 17.0446 47.9943 16.8413 45.045 16.6469C47.2863 16.7922 44.8237 16.6306 45.045 16.6469Z" fill="black"/>
</svg>
