<svg width="200" height="90" viewBox="0 0 200 90" fill="none" xmlns="http://www.w3.org/2000/svg">
<path d="M87.9085 32.0527L86.031 36.9452H86.9149L87.374 35.6502H89.3269L89.786 36.9452H90.7042L88.8199 32.0527H87.9085ZM87.607 34.9992L88.3471 32.8956H88.3676L89.1008 34.9992H87.607Z" fill="#444444"/>
<path d="M91.1755 32.0527V36.9452H92.0321V35.0677H93.334C93.6766 35.0677 93.9576 35.0198 94.1837 34.9238C94.3961 34.8279 94.5674 34.6977 94.6907 34.547C94.8072 34.4031 94.8895 34.2386 94.9306 34.0604C94.9717 33.8823 94.9922 33.7247 94.9991 33.5671C94.9991 33.4163 94.9717 33.2519 94.9306 33.0737C94.8895 32.8956 94.8072 32.7311 94.6907 32.5804C94.5674 32.4296 94.4029 32.3063 94.1837 32.2035C93.9644 32.1076 93.6766 32.0527 93.334 32.0527H91.1755ZM92.0321 34.3688V32.7517H93.2997C93.4094 32.7517 93.519 32.7654 93.6218 32.7859C93.7177 32.8133 93.8068 32.8544 93.889 32.9161C93.9644 32.9778 94.0261 33.06 94.074 33.1628C94.1152 33.2724 94.1357 33.4026 94.1426 33.5602C94.1426 33.7178 94.1152 33.848 94.0603 33.9508C94.0055 34.0536 93.937 34.1358 93.8548 34.1975C93.7725 34.2592 93.6766 34.3003 93.5807 34.3277C93.4779 34.3551 93.382 34.3688 93.286 34.3688H92.0321Z" fill="#444444"/>
<path d="M96.553 32.0527L94.6755 36.9452H95.5595L96.0186 35.6502H97.9715L98.4306 36.9452H99.3488L97.4644 32.0527H96.553ZM96.2516 34.9992L96.9916 32.8956H97.0121L97.7453 34.9992H96.2516Z" fill="#444444"/>
<path d="M103.125 33.6075H103.982C103.954 33.3471 103.879 33.1073 103.769 32.9017C103.653 32.6961 103.502 32.5248 103.317 32.3809C103.132 32.237 102.92 32.1274 102.68 32.052C102.433 31.9767 102.18 31.9355 101.905 31.9355C101.535 31.9355 101.207 32.0041 100.919 32.1411C100.631 32.2782 100.384 32.4632 100.186 32.6961C99.98 32.9291 99.8292 33.2032 99.7196 33.5116C99.61 33.8268 99.562 34.1557 99.562 34.4983C99.562 34.8546 99.61 35.1835 99.7196 35.4919C99.8292 35.8071 99.98 36.0743 100.186 36.3073C100.384 36.5403 100.631 36.7253 100.919 36.8623C101.207 36.9994 101.535 37.061 101.905 37.061C102.2 37.061 102.474 37.0131 102.721 36.9171C102.968 36.8212 103.18 36.691 103.365 36.5128C103.543 36.3347 103.687 36.1291 103.797 35.8824C103.906 35.6426 103.968 35.3754 103.989 35.0807H103.153C103.132 35.2589 103.091 35.4302 103.036 35.5809C102.974 35.7385 102.892 35.8756 102.789 35.9921C102.68 36.1086 102.556 36.1976 102.413 36.2662C102.262 36.3347 102.097 36.3621 101.905 36.3621C101.645 36.3621 101.419 36.3141 101.227 36.2045C101.035 36.1017 100.884 35.9647 100.768 35.7865C100.645 35.6084 100.556 35.4096 100.501 35.1835C100.446 34.9642 100.419 34.7381 100.419 34.4983C100.412 34.2722 100.446 34.0392 100.501 33.8131C100.556 33.5938 100.645 33.3951 100.768 33.2169C100.884 33.0388 101.035 32.9017 101.227 32.7921C101.419 32.6893 101.638 32.6413 101.905 32.6345C102.077 32.6345 102.234 32.6619 102.371 32.7099C102.508 32.7578 102.625 32.8263 102.728 32.9086C102.824 32.9976 102.906 33.1004 102.974 33.2169C103.036 33.3403 103.084 33.4705 103.125 33.6075Z" fill="#444444"/>
<path d="M104.754 32.0527V36.9452H105.61V34.7388H107.837V36.9452H108.694V32.0527H107.837V33.9988H105.61V32.0527H104.754Z" fill="#444444"/>
<path d="M109.726 32.0527V36.9452H113.296V36.2052H110.583V34.7731H113.05V34.0741H110.583V32.7928H113.248V32.0527H109.726Z" fill="#444444"/>
<path d="M96.6354 43.9688C96.5146 43.4519 96.3132 42.9925 96.0312 42.5714C95.7492 42.1502 95.427 41.8057 95.0242 41.5185C94.6214 41.2505 94.1984 41.04 93.715 40.8868C93.2317 40.7337 92.7483 40.6571 92.2246 40.6571C91.2579 40.6571 90.4523 40.8294 89.7675 41.174C89.0827 41.5185 88.5188 41.978 88.0757 42.5522C87.6326 43.1265 87.3103 43.7582 87.1089 44.4665C86.9075 45.1939 86.8068 45.9213 86.8068 46.6678C86.8068 47.4144 86.9075 48.1418 87.1089 48.8692C87.3103 49.5966 87.6326 50.2283 88.0757 50.8026C88.5188 51.3768 89.0827 51.8171 89.7675 52.1617C90.4523 52.5062 91.2579 52.6785 92.2246 52.6785C92.8893 52.6785 93.4935 52.5637 94.0373 52.3339C94.5609 52.1234 95.0242 51.798 95.427 51.396C95.8097 51.0131 96.1118 50.5537 96.3736 50.0177C96.5951 49.4817 96.7563 48.9075 96.8368 48.2949H98.2064C98.1057 49.1372 97.9043 49.9029 97.582 50.5729C97.2598 51.262 96.8368 51.8362 96.3333 52.2957C95.8097 52.7742 95.2054 53.1379 94.5207 53.3868C93.8359 53.6548 93.0705 53.7696 92.2246 53.7696C91.0968 53.7696 90.0897 53.5782 89.2438 53.1954C88.3979 52.8125 87.693 52.2765 87.1291 51.6257C86.5651 50.9748 86.1422 50.2283 85.8602 49.3669C85.5782 48.5246 85.4373 47.6249 85.4373 46.6678C85.4373 45.7298 85.5782 44.8302 85.8602 43.9688C86.1422 43.1265 86.5651 42.3608 87.1291 41.71C87.6729 41.0591 88.3979 40.5231 89.2438 40.1403C90.0897 39.7574 91.0968 39.566 92.2246 39.5469C92.9094 39.5469 93.5741 39.6426 94.2186 39.834C94.8631 40.0254 95.4673 40.3126 95.9909 40.6954C96.5146 41.0783 96.9577 41.5377 97.3202 42.0737C97.6827 42.6288 97.9043 43.2605 98.005 43.9688H96.6354Z" fill="#444444"/>
<path d="M100.889 46.6678C100.889 47.4144 100.99 48.1418 101.191 48.8692C101.392 49.5966 101.715 50.2283 102.158 50.8026C102.601 51.3768 103.165 51.8171 103.85 52.1617C104.534 52.5062 105.34 52.6785 106.307 52.6785C107.253 52.6785 108.059 52.5062 108.744 52.1617C109.428 51.8171 109.972 51.3768 110.415 50.8026C110.858 50.2283 111.181 49.5966 111.382 48.8692C111.584 48.1418 111.684 47.4144 111.704 46.6678C111.704 45.9213 111.584 45.1939 111.382 44.4665C111.181 43.7582 110.858 43.1265 110.415 42.5522C109.972 41.978 109.428 41.5185 108.744 41.174C108.059 40.8294 107.253 40.6571 106.307 40.6571C105.34 40.6571 104.534 40.8294 103.85 41.174C103.165 41.5185 102.601 41.978 102.158 42.5522C101.715 43.1265 101.392 43.7582 101.191 44.4665C100.99 45.1939 100.889 45.9213 100.889 46.6678ZM99.5193 46.6678C99.5193 45.7298 99.6603 44.8302 99.9422 43.9688C100.224 43.1265 100.647 42.3608 101.211 41.71C101.755 41.0591 102.48 40.5231 103.326 40.1403C104.172 39.7574 105.179 39.566 106.307 39.5469C107.435 39.5469 108.421 39.7574 109.267 40.1403C110.113 40.5231 110.818 41.0591 111.382 41.71C111.946 42.3608 112.369 43.1265 112.651 43.9688C112.933 44.8302 113.074 45.7298 113.074 46.6678C113.074 47.6249 112.933 48.5246 112.651 49.3669C112.369 50.2283 111.946 50.9748 111.382 51.6257C110.818 52.2765 110.113 52.8125 109.267 53.1954C108.421 53.5782 107.435 53.7696 106.307 53.7696C105.179 53.7696 104.172 53.5782 103.326 53.1954C102.48 52.8125 101.775 52.2765 101.211 51.6257C100.647 50.9748 100.224 50.2283 99.9422 49.3669C99.6603 48.5246 99.5193 47.6249 99.5193 46.6678Z" fill="#444444"/>
<path d="M116.561 46.3232H121.676C122.079 46.3232 122.482 46.2658 122.865 46.151C123.227 46.0361 123.55 45.8447 123.852 45.615C124.113 45.3853 124.355 45.1173 124.516 44.7918C124.677 44.4664 124.758 44.0836 124.778 43.6624C124.778 42.8393 124.516 42.1694 124.013 41.6716C123.489 41.1931 122.724 40.9634 121.676 40.9442H116.561V46.3232ZM115.191 39.834H121.777C122.361 39.834 122.925 39.9106 123.449 40.0446C123.972 40.1977 124.436 40.4083 124.839 40.6954C125.241 40.9825 125.543 41.3462 125.785 41.8056C126.027 42.2651 126.148 42.7819 126.148 43.3945C126.148 44.275 125.906 45.0216 125.443 45.6533C124.959 46.3041 124.275 46.7061 123.348 46.8784V46.9166C123.811 46.9932 124.194 47.1081 124.516 47.2803C124.818 47.4526 125.06 47.6632 125.261 47.9312C125.463 48.1992 125.604 48.5246 125.684 48.8692C125.765 49.2137 125.825 49.5966 125.866 49.9986C125.866 50.2283 125.886 50.5154 125.906 50.8408C125.906 51.1854 125.946 51.5108 125.987 51.8554C126.007 52.1999 126.087 52.5062 126.168 52.8125C126.248 53.1188 126.369 53.3485 126.53 53.5016H125.02C124.939 53.3867 124.859 53.2336 124.818 53.0422C124.778 52.8508 124.738 52.6593 124.718 52.4679C124.698 52.2765 124.677 52.0659 124.677 51.8745C124.657 51.6831 124.637 51.5299 124.637 51.3768C124.597 50.8982 124.557 50.4197 124.496 49.9411C124.436 49.4626 124.315 49.0414 124.113 48.6586C123.912 48.2757 123.63 47.9886 123.268 47.7398C122.905 47.5292 122.401 47.4143 121.757 47.4335H116.561V53.5016H115.191V39.834Z" fill="#444444"/>
<path d="M128.644 39.834H133.619C135.794 39.8914 137.446 40.4848 138.553 41.5951C139.661 42.7053 140.225 44.409 140.225 46.6678C140.225 48.9457 139.661 50.6494 138.553 51.7597C137.446 52.8699 135.794 53.4633 133.619 53.5016H128.644V39.834ZM130.014 52.3913H132.934C133.961 52.3913 134.848 52.2956 135.593 52.0851C136.338 51.8745 136.962 51.5299 137.446 51.0705C137.909 50.6111 138.271 50.0177 138.513 49.2903C138.735 48.5629 138.835 47.7015 138.856 46.6678C138.856 45.6533 138.735 44.7727 138.513 44.0453C138.271 43.3179 137.929 42.7245 137.446 42.2651C136.962 41.8056 136.338 41.4802 135.593 41.2697C134.848 41.0591 133.961 40.9442 132.934 40.9442H130.014V52.3913Z" fill="#444444"/>
<path d="M143.057 46.6678C143.057 47.4144 143.158 48.1418 143.359 48.8692C143.561 49.5966 143.883 50.2283 144.326 50.8026C144.769 51.3768 145.333 51.8171 146.018 52.1617C146.703 52.5062 147.508 52.6785 148.475 52.6785C149.421 52.6785 150.227 52.5062 150.912 52.1617C151.597 51.8171 152.14 51.3768 152.584 50.8026C153.027 50.2283 153.349 49.5966 153.55 48.8692C153.752 48.1418 153.852 47.4144 153.873 46.6678C153.873 45.9213 153.752 45.1939 153.55 44.4665C153.349 43.7582 153.027 43.1265 152.584 42.5522C152.14 41.978 151.597 41.5185 150.912 41.174C150.227 40.8294 149.421 40.6571 148.475 40.6571C147.508 40.6571 146.703 40.8294 146.018 41.174C145.333 41.5185 144.769 41.978 144.326 42.5522C143.883 43.1265 143.561 43.7582 143.359 44.4665C143.158 45.1939 143.057 45.9213 143.057 46.6678ZM141.688 46.6678C141.688 45.7298 141.828 44.8302 142.11 43.9688C142.392 43.1265 142.815 42.3608 143.379 41.71C143.923 41.0591 144.648 40.5231 145.494 40.1403C146.34 39.7574 147.347 39.566 148.475 39.5469C149.603 39.5469 150.59 39.7574 151.436 40.1403C152.281 40.5231 152.986 41.0591 153.55 41.71C154.114 42.3608 154.537 43.1265 154.819 43.9688C155.101 44.8302 155.242 45.7298 155.242 46.6678C155.242 47.6249 155.101 48.5246 154.819 49.3669C154.537 50.2283 154.114 50.9748 153.55 51.6257C152.986 52.2765 152.281 52.8125 151.436 53.1954C150.59 53.5782 149.603 53.7696 148.475 53.7696C147.347 53.7696 146.34 53.5782 145.494 53.1954C144.648 52.8125 143.943 52.2765 143.379 51.6257C142.815 50.9748 142.392 50.2283 142.11 49.3669C141.828 48.5246 141.688 47.6249 141.688 46.6678Z" fill="#444444"/>
<path d="M155.789 39.834H157.239L161.912 52.0659H161.952L166.584 39.834H168.034L162.697 53.5016H161.106L155.789 39.834Z" fill="#444444"/>
<path d="M170.253 48.1418H175.913L173.133 41.1357L170.253 48.1418ZM172.429 39.834H173.959L179.599 53.5016H178.128L176.376 49.252H169.83L168.098 53.5016H166.648L172.429 39.834Z" fill="#444444"/>
<path d="M178.094 39.5195V40.0056H179.111V42.733H179.673V40.0056H180.695V39.5195H178.094Z" fill="#444444"/>
<path d="M181.062 39.5195V42.733H181.598V40.2531H181.607L182.498 42.733H182.962L183.853 40.2531H183.862V42.733H184.397V39.5195H183.614L182.75 42.0354H182.741L181.854 39.5195H181.062Z" fill="#444444"/>
<path fill-rule="evenodd" clip-rule="evenodd" d="M26.7789 13.0625L12.4688 35.8603L18.3243 72.9687H28.3909L27.5685 64.3495H32.7335L33.3913 72.9687H54.4787L55.1365 64.3495H60.2687L59.4463 72.9687H69.5785L75.3684 35.8603L61.058 13.0625H26.7789ZM29.674 24.4119H38.7864L38.2932 28.6885H49.6099L49.0177 24.4119H58.2946L63.9531 35.8603L61.1567 58.7569H26.7789L23.8841 35.8603L29.674 24.4119Z" fill="#444444"/>
<path d="M53.2355 51.1054C54.0127 51.1054 54.6428 48.7479 54.6428 45.8398C54.6428 42.9317 54.0127 40.5742 53.2355 40.5742C52.4582 40.5742 51.8281 42.9317 51.8281 45.8398C51.8281 48.7479 52.4582 51.1054 53.2355 51.1054Z" fill="#444444"/>
<path d="M35.1847 51.5234C35.962 51.5234 36.592 49.1659 36.592 46.2578C36.592 43.3497 35.962 40.9922 35.1847 40.9922C34.4074 40.9922 33.7773 43.3497 33.7773 46.2578C33.7773 49.1659 34.4074 51.5234 35.1847 51.5234Z" fill="#444444"/>
</svg>
