<svg width="64" height="64" viewBox="0 0 64 64" fill="currentColor" xmlns="http://www.w3.org/2000/svg">
<mask id="mask0_2445_9924" style="mask-type:alpha" maskUnits="userSpaceOnUse" x="0" y="0" width="64" height="64">
<rect width="64" height="64" fill="currentColor"/>
</mask>
<g mask="url(#mask0_2445_9924)">
<path d="M40.308 36.5153H55.3847V25.8486H40.308V36.5153ZM37.6413 43.1306V25.3359C37.6413 24.7173 37.8456 24.2035 38.254 23.7946C38.6624 23.3862 39.176 23.1819 39.7947 23.1819H55.8973C56.516 23.1819 57.0298 23.3862 57.4387 23.7946C57.8471 24.2035 58.0513 24.7173 58.0513 25.3359V37.0279C58.0513 37.647 57.8471 38.1608 57.4387 38.5693C57.0298 38.9777 56.516 39.1819 55.8973 39.1819H41.59L37.6413 43.1306ZM20.308 58.6693C19.1147 58.6693 18.0982 58.2497 17.2587 57.4106C16.4196 56.571 16 55.5546 16 54.3613V9.64394C16 8.4506 16.4196 7.43416 17.2587 6.5946C18.0982 5.75549 19.1147 5.33594 20.308 5.33594H43.692C44.8853 5.33594 45.9018 5.75549 46.7413 6.5946C47.5804 7.43416 48 8.4506 48 9.64394V18.4639H45.3333V14.6693H18.6667V49.3359H45.3333V45.5413H48V54.3613C48 55.5546 47.5804 56.571 46.7413 57.4106C45.9018 58.2497 44.8853 58.6693 43.692 58.6693H20.308ZM18.6667 52.0026V54.3613C18.6667 54.7719 18.8376 55.1482 19.1793 55.4899C19.5211 55.8317 19.8973 56.0026 20.308 56.0026H43.692C44.1027 56.0026 44.4789 55.8317 44.8207 55.4899C45.1624 55.1482 45.3333 54.7719 45.3333 54.3613V52.0026H18.6667ZM18.6667 12.0026H45.3333V9.64394C45.3333 9.23327 45.1624 8.85705 44.8207 8.51527C44.4789 8.17349 44.1027 8.0026 43.692 8.0026H20.308C19.8973 8.0026 19.5211 8.17349 19.1793 8.51527C18.8376 8.85705 18.6667 9.23327 18.6667 9.64394V12.0026Z" fill="currentColor"/>
</g>
</svg>
