<svg width="64" height="64" viewBox="0 0 64 64" fill="currentColor" xmlns="http://www.w3.org/2000/svg">
<mask id="mask0_2445_9916" style="mask-type:alpha" maskUnits="userSpaceOnUse" x="0" y="0" width="64" height="64">
<rect width="64" height="64" fill="currentColor"/>
</mask>
<g mask="url(#mask0_2445_9916)">
<path d="M14.976 53.3307C13.7911 53.3307 12.7769 52.909 11.9333 52.0654C11.0897 51.2218 10.668 50.2076 10.668 49.0227V14.9721C10.668 13.7872 11.0897 12.773 11.9333 11.9294C12.7769 11.0858 13.7911 10.6641 14.976 10.6641H49.0266C50.2115 10.6641 51.2257 11.0858 52.0693 11.9294C52.9129 12.773 53.3346 13.7872 53.3346 14.9721V49.0227C53.3346 50.2076 52.9129 51.2218 52.0693 52.0654C51.2257 52.909 50.2115 53.3307 49.0266 53.3307H14.976ZM14.976 50.6641H49.0266C49.5053 50.6641 49.8986 50.5103 50.2066 50.2027C50.5142 49.8947 50.668 49.5014 50.668 49.0227V18.6641H13.3346V49.0227C13.3346 49.5014 13.4884 49.8947 13.796 50.2027C14.104 50.5103 14.4973 50.6641 14.976 50.6641ZM32.0013 42.6641C29.1089 42.6641 26.5029 41.923 24.1833 40.4407C21.8637 38.959 20.1109 37.0334 18.9246 34.6641C20.1109 32.2947 21.8637 30.3692 24.1833 28.8874C26.5029 27.4052 29.1089 26.6641 32.0013 26.6641C34.8937 26.6641 37.4997 27.4052 39.8193 28.8874C42.1389 30.3692 43.8918 32.2947 45.078 34.6641C43.8918 37.0334 42.1389 38.959 39.8193 40.4407C37.4997 41.923 34.8937 42.6641 32.0013 42.6641ZM32.0013 40.3054C34.1142 40.3054 36.0817 39.8105 37.904 38.8207C39.7262 37.831 41.2664 36.4454 42.5246 34.6641C41.2664 32.8827 39.7262 31.4972 37.904 30.5074C36.0817 29.5176 34.1142 29.0227 32.0013 29.0227C29.8884 29.0227 27.9209 29.5176 26.0986 30.5074C24.2764 31.4972 22.7362 32.8827 21.478 34.6641C22.7362 36.4454 24.2764 37.831 26.0986 38.8207C27.9209 39.8105 29.8884 40.3054 32.0013 40.3054ZM32.0133 37.6387C32.8431 37.6387 33.5442 37.3483 34.1166 36.7674C34.6895 36.1865 34.976 35.4814 34.976 34.6521C34.976 33.8223 34.6855 33.1212 34.1046 32.5487C33.5237 31.9758 32.8186 31.6894 31.9893 31.6894C31.1595 31.6894 30.4584 31.9798 29.886 32.5607C29.3131 33.1416 29.0266 33.8467 29.0266 34.6761C29.0266 35.5058 29.3171 36.207 29.898 36.7794C30.4789 37.3523 31.184 37.6387 32.0133 37.6387Z" fill=" currentColor"/>
</g>
</svg>
