<svg width="64" height="64" viewBox="0 0 64 64" fill="currentColor" xmlns="http://www.w3.org/2000/svg">
<mask id="mask0_2445_9938" style="mask-type:alpha" maskUnits="userSpaceOnUse" x="0" y="0" width="64" height="64">
<rect width="64" height="64" fill="currentColor"/>
</mask>
<g mask="url(#mask0_2445_9938)">
<path d="M29.2846 38.6645H34.7206L33.2386 30.4231C34.0248 30.1498 34.6735 29.6678 35.1846 28.9771C35.6957 28.2865 35.9513 27.5156 35.9513 26.6645C35.9513 25.5738 35.5657 24.6431 34.7946 23.8725C34.0239 23.1013 33.0933 22.7158 32.0026 22.7158C30.9119 22.7158 29.9813 23.1013 29.2106 23.8725C28.4395 24.6431 28.0539 25.5738 28.0539 26.6645C28.0539 27.5156 28.3095 28.2865 28.8206 28.9771C29.3317 29.6678 29.9804 30.1498 30.7666 30.4231L29.2846 38.6645ZM32.0026 55.8951C26.6453 54.3054 22.1948 51.06 18.6513 46.1591C15.1077 41.2582 13.3359 35.7378 13.3359 29.5978V15.1771L32.0026 8.20312L50.6693 15.1771V29.5978C50.6693 35.7378 48.8975 41.2582 45.3539 46.1591C41.8104 51.06 37.3599 54.3054 32.0026 55.8951ZM32.0026 53.0645C36.6248 51.5978 40.447 48.6645 43.4693 44.2645C46.4915 39.8645 48.0026 34.9756 48.0026 29.5978V16.9978L32.0026 11.0491L16.0026 16.9978V29.5978C16.0026 34.9756 17.5137 39.8645 20.5359 44.2645C23.5582 48.6645 27.3804 51.5978 32.0026 53.0645Z" fill="currentColor"/>
</g>
</svg>
