<svg width="64" height="64" viewBox="0 0 64 64" fill="currentColor" xmlns="http://www.w3.org/2000/svg">
<mask id="mask0_2445_9931" style="mask-type:alpha" maskUnits="userSpaceOnUse" x="0" y="0" width="64" height="64">
<rect width="64" height="64" fill="currentColor"/>
</mask>
<g mask="url(#mask0_2445_9931)">
<path d="M19.6284 44.2541C18.0964 45.5358 16.5006 46.1101 14.8411 45.9767C13.1815 45.8434 11.75 45.2743 10.5464 44.2694C9.34284 43.2641 8.53173 41.947 8.11307 40.3181C7.6944 38.6887 7.99262 37.0296 9.00773 35.3407L14.2131 26.7154C13.1362 25.9087 12.2755 24.8814 11.6311 23.6334C10.9866 22.3854 10.6644 21.0367 10.6644 19.5874C10.6644 17.0985 11.5293 14.989 13.2591 13.2587C14.9893 11.529 17.0988 10.6641 19.5877 10.6641C22.0766 10.6641 24.186 11.529 25.9157 13.2587C27.6455 14.989 28.5104 17.0985 28.5104 19.5874C28.5104 22.0763 27.6455 24.1856 25.9157 25.9154C24.186 27.6452 22.0766 28.5101 19.5877 28.5101C19.0508 28.5101 18.5311 28.4707 18.0284 28.3921C17.5257 28.3134 17.0455 28.1785 16.5877 27.9874L11.3004 36.7561C10.6746 37.7956 10.4848 38.8154 10.7311 39.8154C10.9773 40.8154 11.4753 41.6276 12.2251 42.2521C12.9748 42.8761 13.8688 43.2307 14.9071 43.3161C15.9453 43.401 16.9448 43.047 17.9057 42.2541L44.4184 19.7254C45.9091 18.4436 47.4715 17.8634 49.1057 17.9847C50.7395 18.1061 52.1793 18.6685 53.4251 19.6721C54.6713 20.6756 55.5142 21.9927 55.9537 23.6234C56.3933 25.2541 56.0884 26.931 55.0391 28.6541L49.7824 37.3307C50.8593 38.1374 51.72 39.1527 52.3644 40.3767C53.0088 41.6007 53.3311 42.9443 53.3311 44.4074C53.3311 46.8963 52.4537 49.0058 50.6991 50.7361C48.9444 52.4658 46.8351 53.3307 44.3711 53.3307C41.9066 53.3307 39.8095 52.457 38.0797 50.7094C36.35 48.9618 35.4851 46.861 35.4851 44.4067C35.4851 41.9525 36.3537 39.8521 38.0911 38.1054C39.8284 36.3583 41.9168 35.4847 44.3564 35.4847C44.8986 35.4847 45.4257 35.5325 45.9377 35.6281C46.4497 35.7241 46.9346 35.8676 47.3924 36.0587L52.6951 27.2387C53.3208 26.1992 53.5186 25.1803 53.2884 24.1821C53.0586 23.1838 52.5697 22.371 51.8217 21.7434C51.0742 21.1163 50.1806 20.7523 49.1411 20.6514C48.102 20.5505 47.102 20.9136 46.1411 21.7407L19.6284 44.2541ZM19.5877 25.8434C21.3277 25.8434 22.8055 25.2358 24.0211 24.0207C25.2362 22.8052 25.8437 21.3274 25.8437 19.5874C25.8437 17.8469 25.2362 16.3692 24.0211 15.1541C22.8055 13.9385 21.3277 13.3307 19.5877 13.3307C17.8473 13.3307 16.3695 13.9385 15.1544 15.1541C13.9388 16.3692 13.3311 17.8469 13.3311 19.5874C13.3311 21.3274 13.9388 22.8052 15.1544 24.0207C16.3695 25.2358 17.8473 25.8434 19.5877 25.8434ZM44.3511 50.6641C46.0871 50.6641 47.5733 50.0563 48.8097 48.8407C50.0462 47.6256 50.6644 46.1478 50.6644 44.4074C50.6644 42.6674 50.0462 41.1896 48.8097 39.9741C47.5733 38.759 46.0871 38.1514 44.3511 38.1514C42.6146 38.1514 41.1473 38.759 39.9491 39.9741C38.7508 41.1896 38.1517 42.6674 38.1517 44.4074C38.1517 46.1478 38.7508 47.6256 39.9491 48.8407C41.1473 50.0563 42.6146 50.6641 44.3511 50.6641Z" fill="currentColor"/>
</g>
</svg>
