<svg width="64" height="64" viewBox="0 0 64 64" fill="currentColor" xmlns="http://www.w3.org/2000/svg">
<mask id="mask0_2445_9902" style="mask-type:alpha" maskUnits="userSpaceOnUse" x="0" y="0" width="64" height="64">
<rect width="64" height="64" fill="currentColor"/>
</mask>
<g mask="url(#mask0_2445_9902)">
<path d="M14.976 53.3307C13.7484 53.3307 12.7235 52.9196 11.9013 52.0974C11.0791 51.2752 10.668 50.2503 10.668 49.0227V14.9721C10.668 13.7445 11.0791 12.7196 11.9013 11.8974C12.7235 11.0752 13.7484 10.6641 14.976 10.6641H49.0266C50.2542 10.6641 51.2791 11.0752 52.1013 11.8974C52.9235 12.7196 53.3346 13.7445 53.3346 14.9721V49.0227C53.3346 50.2503 52.9235 51.2752 52.1013 52.0974C51.2791 52.9196 50.2542 53.3307 49.0266 53.3307H14.976ZM13.3346 43.2487V49.0227C13.3346 49.4334 13.5055 49.8096 13.8473 50.1514C14.1891 50.4932 14.5653 50.6641 14.976 50.6641H49.0266C49.4373 50.6641 49.8135 50.4932 50.1553 50.1514C50.4971 49.8096 50.668 49.4334 50.668 49.0227V25.5874L35.314 42.6641L24.6166 31.9667L13.3346 43.2487ZM13.3346 39.4434L24.6166 28.1614L35.2526 38.7974L50.668 21.5874V14.9721C50.668 14.5614 50.4971 14.1852 50.1553 13.8434C49.8135 13.5016 49.4373 13.3307 49.0266 13.3307H14.976C14.5653 13.3307 14.1891 13.5016 13.8473 13.8434C13.5055 14.1852 13.3346 14.5614 13.3346 14.9721V39.4434ZM13.3346 25.5874V21.5874V38.7974V28.1614V43.2487V31.9667V42.6641V25.5874ZM13.3346 39.4434V13.3307V38.7974V28.1614V39.4434ZM13.3346 43.2487V31.9667V42.6641V25.5874V50.6641V43.2487Z" fill="currentColor"/>
</g>
</svg>
