<svg width="64" height="64" viewBox="0 0 64 64" fill="currentColor" xmlns="http://www.w3.org/2000/svg">
<mask id="mask0_2445_9895" style="mask-type:alpha" maskUnits="userSpaceOnUse" x="0" y="0" width="64" height="64">
<rect width="64" height="64" fill="currentColor"/>
</mask>
<g mask="url(#mask0_2445_9895)">
<path d="M22.9352 42.3206L12.6172 32.0026L22.9352 21.6846L24.8225 23.6026L16.4225 32.0026L24.8225 40.4026L22.9352 42.3206ZM16.0019 45.3359H18.6685V49.3359H45.3352V45.3359H48.0019V54.3613C48.0019 55.5888 47.5907 56.6137 46.7685 57.4359C45.9463 58.2582 44.9214 58.6693 43.6939 58.6693H20.3099C19.0823 58.6693 18.0574 58.2582 17.2352 57.4359C16.413 56.6137 16.0019 55.5888 16.0019 54.3613V45.3359ZM18.6685 18.6693H16.0019V9.64394C16.0019 8.41638 16.413 7.39149 17.2352 6.56927C18.0574 5.74705 19.0823 5.33594 20.3099 5.33594H43.6939C44.9214 5.33594 45.9463 5.74705 46.7685 6.56927C47.5907 7.39149 48.0019 8.41638 48.0019 9.64394V18.6693H45.3352V14.6693H18.6685V18.6693ZM18.6685 52.0026V54.3613C18.6685 54.7719 18.8394 55.1482 19.1812 55.4899C19.523 55.8317 19.8992 56.0026 20.3099 56.0026H43.6939C44.1045 56.0026 44.4807 55.8317 44.8225 55.4899C45.1643 55.1482 45.3352 54.7719 45.3352 54.3613V52.0026H18.6685ZM18.6685 12.0026H45.3352V9.64394C45.3352 9.23327 45.1643 8.85705 44.8225 8.51527C44.4807 8.17349 44.1045 8.0026 43.6939 8.0026H20.3099C19.8992 8.0026 19.523 8.17349 19.1812 8.51527C18.8394 8.85705 18.6685 9.23327 18.6685 9.64394V12.0026ZM41.0685 42.3206L39.1812 40.4026L47.5812 32.0026L39.1812 23.6026L41.0685 21.6846L51.3865 32.0026L41.0685 42.3206Z" fill="currentColor"/>
</g>
</svg>
