<svg width="52" height="52" viewBox="0 0 52 52" fill="none" xmlns="http://www.w3.org/2000/svg">
<g filter="url(#filter0_d_746_18535)">
<circle cx="26" cy="25" r="22" fill="white"/>
</g>
<mask id="mask0_746_18535" style="mask-type:alpha" maskUnits="userSpaceOnUse" x="14" y="13" width="24" height="24">
<rect x="14" y="13" width="24" height="24" fill="#D9D9D9"/>
</mask>
<g mask="url(#mask0_746_18535)">
<path d="M18 33C17.45 33 16.9792 32.8042 16.5875 32.4125C16.1958 32.0208 16 31.55 16 31V19C16 18.45 16.1958 17.9792 16.5875 17.5875C16.9792 17.1958 17.45 17 18 17H34C34.55 17 35.0208 17.1958 35.4125 17.5875C35.8042 17.9792 36 18.45 36 19V31C36 31.55 35.8042 32.0208 35.4125 32.4125C35.0208 32.8042 34.55 33 34 33H18ZM26 26L34 21V19L26 24L18 19V21L26 26Z" fill="#FF8C00"/>
</g>
<defs>
<filter id="filter0_d_746_18535" x="0" y="0" width="52" height="52" filterUnits="userSpaceOnUse" color-interpolation-filters="sRGB">
<feFlood flood-opacity="0" result="BackgroundImageFix"/>
<feColorMatrix in="SourceAlpha" type="matrix" values="0 0 0 0 0 0 0 0 0 0 0 0 0 0 0 0 0 0 127 0" result="hardAlpha"/>
<feOffset dy="1"/>
<feGaussianBlur stdDeviation="2"/>
<feComposite in2="hardAlpha" operator="out"/>
<feColorMatrix type="matrix" values="0 0 0 0 0 0 0 0 0 0 0 0 0 0 0 0 0 0 0.16 0"/>
<feBlend mode="normal" in2="BackgroundImageFix" result="effect1_dropShadow_746_18535"/>
<feBlend mode="normal" in="SourceGraphic" in2="effect1_dropShadow_746_18535" result="shape"/>
</filter>
</defs>
</svg>
