<svg width="91" height="76" viewBox="0 0 91 76" fill="none" xmlns="http://www.w3.org/2000/svg">
<g clip-path="url(#clip0_746_14570)">
<path d="M59.1101 37.5944C59.1101 37.5944 59.2164 37.5944 59.3227 38.0144C59.5353 38.3294 59.748 38.7494 59.9606 39.2744C60.2795 39.9044 60.5984 40.5344 60.9174 41.4794C61.2363 42.3194 61.5552 43.3694 61.7678 44.6295C62.1931 47.0445 62.2994 50.0895 61.5552 53.5546C61.3426 54.3946 61.13 55.3396 60.8111 56.1796C60.4921 57.0196 60.1732 57.9646 59.748 58.9096C58.8975 60.6947 57.7281 62.4797 56.3461 64.2647C54.9641 65.9447 53.2632 67.6248 51.4559 69.0948C49.5424 70.5648 47.4162 71.9298 45.0774 72.9798C42.7386 74.0298 40.1872 74.8699 37.4232 75.3949C34.7655 75.9199 31.8952 76.1299 29.0248 75.9199C28.2807 75.9199 27.5365 75.9199 26.8987 75.7099C26.5797 75.7099 26.1545 75.7099 25.8356 75.4999H24.7725C24.7725 75.4999 24.4536 75.2899 24.2409 75.2899H23.7094C23.3905 75.0799 22.9652 74.9749 22.6463 74.8699C21.9022 74.6599 21.158 74.4498 20.5202 74.1348C19.1381 73.6098 17.6498 72.9798 16.3741 72.2448C14.9921 71.5098 13.7164 70.6698 12.547 69.7248C10.1019 67.8348 7.97576 65.5247 6.16851 63.0047C4.36127 60.4847 2.97926 57.7546 1.91618 54.8146C-0.103685 49.0395 -0.528919 42.7394 0.651105 36.8594C0.97003 35.3893 1.28896 33.9193 1.8205 32.4493C2.35204 30.9793 2.98989 29.6143 3.73405 28.2492C5.22237 25.6242 7.13592 23.2092 9.3684 21.3192C11.6009 19.3241 14.046 17.7491 16.5974 16.6991C19.1488 15.5441 21.9128 14.9141 24.5705 14.5991C27.2282 14.2841 29.7796 14.3891 32.2247 14.9141C33.3941 15.1241 34.5635 15.4391 35.7329 15.8591H36.1581C36.1581 15.9641 36.5834 16.0691 36.5834 16.0691C36.796 16.1741 37.1149 16.2791 37.4338 16.3841C37.7528 16.4891 37.9654 16.5941 38.2843 16.6991C38.4969 16.8041 38.8158 16.9091 39.0285 17.1191C41.0483 18.1691 42.8556 19.5341 44.2376 21.0041C45.7259 22.4742 46.789 24.0492 47.6394 25.6242C48.4899 27.1992 49.0214 28.7743 49.4467 30.2443C49.7656 31.7143 49.9782 33.0793 49.9782 34.3393V36.1243C49.9782 36.6494 49.9782 37.1744 49.7656 37.5944C49.553 38.0144 49.553 38.5394 49.553 38.8544C49.553 39.2744 49.3404 39.5894 49.2341 39.9044C49.2341 40.2194 49.0214 40.4294 48.9151 40.7444C48.9151 40.9544 48.7025 41.1644 48.7025 41.2694C48.7025 41.5844 48.4899 41.6894 48.4899 41.6894V37.3844C48.4899 36.4394 48.2773 35.4943 48.0647 34.3393C47.8521 33.1843 47.4268 32.0293 46.8953 30.7693C46.3637 29.5093 45.6196 28.2492 44.6628 27.0942C42.8556 24.6792 40.0915 22.4742 36.6897 21.3192C36.477 21.2142 36.2644 21.2142 36.0518 21.1092C36.0518 21.1092 35.8392 21.0041 35.7329 21.0041H35.414C35.2013 20.7941 34.9887 20.7941 34.7761 20.6891H34.3509C34.3509 20.5841 34.1383 20.5841 34.1383 20.5841C33.1815 20.3741 32.2247 20.2691 31.2679 20.1641C29.3544 20.0591 27.3345 20.1641 25.3147 20.5841C21.2749 21.4242 17.4478 23.4192 14.3649 26.4642C12.8766 28.0392 11.6009 29.7193 10.5378 31.7143C9.58101 33.7093 8.94316 35.7043 8.51793 38.0144C7.77377 42.5294 8.199 47.3595 9.68732 51.7696C11.2819 56.1796 13.9397 60.1697 17.4478 63.0047C18.2983 63.7397 19.2551 64.3697 20.2119 64.9997C21.1686 65.6297 22.1254 66.0497 23.1885 66.4697C23.8972 66.7497 24.4288 66.9598 24.7831 67.0998C24.9957 67.0998 25.3147 67.3098 25.5273 67.3098H25.8462C25.8462 67.3098 26.0588 67.5198 26.2714 67.5198H27.0156C27.3345 67.5198 27.5471 67.5198 27.8661 67.7298C28.3976 67.7298 28.9291 67.9398 29.567 68.0448C34.032 68.5698 38.4969 68.0448 42.4303 66.6797C46.3637 65.3147 49.8719 63.1097 52.5296 60.4847C55.1873 57.8596 57.1009 54.9196 58.2703 52.0846C59.4397 49.2495 59.8649 46.5195 59.9712 44.2095C59.9712 41.8994 59.7586 40.1144 59.4397 38.8544C59.3334 38.2244 59.2271 37.8044 59.1207 37.4894C58.8018 37.6994 58.8018 37.4894 58.8018 37.4894L59.1207 37.5944H59.1101Z" fill="white"/>
<mask id="mask0_746_14570" style="mask-type:luminance" maskUnits="userSpaceOnUse" x="60" y="9" width="16" height="20">
<path d="M60.1641 9.78223C60.1641 9.78223 65.5858 13.5623 66.011 18.6023C66.4363 23.6424 63.4596 27.1075 68.3498 28.5775C72.7085 29.9425 75.5788 25.1124 75.1536 20.7024L74.0905 21.4374C74.0905 21.4374 73.3463 16.1873 71.4328 13.1423L71.0075 15.2423C71.0075 15.2423 67.8183 11.2522 65.5858 10.0972L65.7984 11.3572C65.9047 11.4622 63.7785 9.99223 60.1641 9.78223Z" fill="white"/>
</mask>
<g mask="url(#mask0_746_14570)">
<path d="M66.2257 32.8843L78.5575 27.4242L68.7771 6.00391L56.4453 11.464L66.2257 32.8843Z" fill="url(#paint0_linear_746_14570)"/>
</g>
<mask id="mask1_746_14570" style="mask-type:luminance" maskUnits="userSpaceOnUse" x="60" y="9" width="12" height="20">
<path d="M60.1641 9.78223C60.1641 9.78223 65.5858 13.5623 66.011 18.6023C66.4363 23.6424 63.5659 27.0025 68.3498 28.5775C74.3031 25.4274 71.3264 15.6623 60.1641 9.78223Z" fill="white"/>
</mask>
<g mask="url(#mask1_746_14570)">
<path d="M64.95 30.1492L75.7935 25.3192L67.2888 6.62891L56.4453 11.459L64.95 30.1492Z" fill="url(#paint1_linear_746_14570)"/>
</g>
<path fill-rule="evenodd" clip-rule="evenodd" d="M76.3263 43.5877C76.6452 41.5927 75.5821 38.0227 74.7317 36.1326C75.0506 36.9726 75.1569 37.6027 75.2632 38.2327C74.6254 36.8676 73.456 35.2926 71.755 33.9276C66.3333 29.5175 60.2737 31.6176 57.2971 34.2426C54.3205 36.8676 48.3672 42.0127 48.3672 42.0127C48.3672 42.0127 52.8321 37.0776 56.4466 32.4576C56.7656 15.9724 84.512 25.6325 79.1966 39.2827C79.1966 37.8127 78.5588 36.5526 78.5588 36.5526C79.3029 39.7027 78.3462 41.3827 76.3263 43.5877Z" fill="#561F5B"/>
<mask id="mask2_746_14570" style="mask-type:luminance" maskUnits="userSpaceOnUse" x="58" y="28" width="18" height="11">
<path d="M75.2521 38.2226C74.6142 36.8576 73.4448 35.2825 71.7439 33.9175C67.0663 30.1375 61.9635 31.1875 58.668 33.1825C64.5149 24.1524 73.4448 29.5075 75.2521 38.2226Z" fill="white"/>
</mask>
<g mask="url(#mask2_746_14570)">
<path d="M63.3495 43.5747L77.0633 37.3796L69.9406 21.7344L56.2268 27.9295L63.3495 43.5747Z" fill="url(#paint2_linear_746_14570)"/>
</g>
<mask id="mask3_746_14570" style="mask-type:luminance" maskUnits="userSpaceOnUse" x="68" y="2" width="17" height="32">
<path d="M72.1822 2.53223C72.1822 2.53223 76.5408 10.8273 73.7768 17.5474C71.0128 24.2675 64.9532 26.6825 70.1623 31.7226C74.8399 36.2377 81.6436 32.0376 83.9824 26.1575L82.1752 26.4725C82.1752 26.4725 84.7266 19.3325 84.3014 14.2924L82.3878 16.6024C82.3878 16.6024 81.0058 9.46232 78.9859 6.52228L78.4544 8.3073C78.3481 8.3073 76.6471 5.05226 72.1822 2.53223Z" fill="white"/>
</mask>
<g mask="url(#mask3_746_14570)">
<path d="M70.2651 38.2312L90.9953 29.0961L77.7067 0.0107422L56.9766 9.25086L70.2651 38.2312Z" fill="url(#paint3_linear_746_14570)"/>
</g>
<mask id="mask4_746_14570" style="mask-type:luminance" maskUnits="userSpaceOnUse" x="68" y="2" width="11" height="30">
<path d="M72.1833 2.53223C72.1833 2.53223 76.5419 10.8273 73.7779 17.5474C71.0139 24.1625 65.0606 26.5775 70.0571 31.6176C79.6249 31.5126 82.3889 17.2324 72.1833 2.53223Z" fill="white"/>
</mask>
<g mask="url(#mask4_746_14570)">
<path d="M69.3036 36.13L87.2697 28.0449L75.0442 1.26953L57.0781 9.24963L69.3036 36.13Z" fill="url(#paint4_linear_746_14570)"/>
</g>
<path fill-rule="evenodd" clip-rule="evenodd" d="M59.9588 27.7324C59.9588 27.7324 59.8524 28.6774 59.3209 29.0974C58.7894 29.5174 58.1515 29.4124 58.2578 30.0425C59.002 30.5675 59.9588 29.5174 59.9588 27.7324Z" fill="#F9F9FA"/>
<mask id="mask5_746_14570" style="mask-type:luminance" maskUnits="userSpaceOnUse" x="57" y="28" width="4" height="3">
<path d="M57.8477 28.0391C57.8477 28.0391 58.8044 28.2491 59.1234 28.8791C59.4423 29.5091 59.2297 30.0341 59.8675 30.0341C60.5054 29.4041 59.5486 28.2491 57.8477 28.0391Z" fill="white"/>
</mask>
<g mask="url(#mask5_746_14570)">
<path d="M58.2559 27.5581L57.8477 30.3643L59.7415 30.6346L60.1498 27.8284L58.2559 27.5581Z" fill="#F9F9FA"/>
</g>
<path d="M48.1512 45.6754C46.5566 45.6754 44.643 46.4104 44.643 49.7704V55.6505C44.643 59.1155 41.1348 59.5355 38.9023 59.4305V58.9055C40.6033 58.9055 42.7294 58.3805 42.7294 55.0205V49.1404C42.7294 46.8304 44.2178 45.8854 45.9187 45.4654C44.2178 45.0454 42.7294 44.1003 42.7294 41.7903V35.9102C42.7294 32.6552 40.6033 31.9202 38.9023 32.0252V31.5002C41.1348 31.3952 44.643 31.8152 44.643 35.2802V41.8953C44.643 44.8354 46.7692 45.2554 48.4701 45.2554V45.7804H48.1512V45.6754Z" fill="url(#paint5_linear_746_14570)"/>
<path d="M14.875 45.6729V45.1479C16.5759 45.1479 18.7021 44.7279 18.7021 41.7879V35.1728C18.7021 31.7078 22.2103 31.2878 24.4428 31.3928V31.9178C22.7418 31.8128 20.6157 32.5478 20.6157 35.8028V41.6829C20.6157 44.0979 19.1273 44.9379 17.4264 45.3579C19.1273 45.6729 20.6157 46.723 20.6157 49.033V54.9131C20.6157 58.2731 22.7418 58.9031 24.4428 58.7981V59.3231C22.104 59.3231 18.7021 59.0081 18.7021 55.5431V49.663C18.7021 46.303 16.7886 45.6729 15.1939 45.5679H14.875V45.6729Z" fill="url(#paint6_linear_746_14570)"/>
<path d="M38.4735 43.5774L30.6067 39.0623L28.4805 37.8023C27.6301 37.3823 26.6733 37.3823 25.8228 37.8023C24.9724 38.2223 24.5471 39.0623 24.5471 40.0073V51.4525C24.5471 52.3975 25.0787 53.2375 25.8228 53.6575C26.2481 53.8675 26.6733 53.9725 27.0985 53.9725C27.5238 53.9725 27.949 53.9725 28.3742 53.6575L30.0752 52.7125L32.4139 51.3475L38.2609 47.9874C39.1114 47.5674 39.5366 46.7274 39.5366 45.7824C39.8555 44.8374 39.324 43.9974 38.4735 43.5774ZM37.4104 46.2024L31.1382 49.7725L30.2878 50.2975L27.4174 51.9775H26.8859C26.7796 51.9775 26.6733 51.7675 26.6733 51.5575V40.1123C26.6733 39.7973 26.8859 39.6923 26.8859 39.6923H27.3111L30.5004 41.4774L37.4104 45.3624C37.6231 45.3624 37.6231 45.6774 37.6231 45.7824C37.7294 45.7824 37.7294 46.0974 37.4104 46.2024Z" fill="url(#paint7_linear_746_14570)"/>
<path d="M32.6294 51.3503L28.4834 53.6604C28.0581 53.8704 27.6329 53.9754 27.2077 53.9754C26.7824 53.9754 26.2509 53.9754 25.9319 53.6604C25.0815 53.2404 24.6562 52.4004 24.6562 51.4553V42.7402L26.7824 45.0503V51.5603C26.7824 51.8754 26.995 51.9804 26.995 51.9804H27.5266L31.2474 49.8803L32.6294 51.3503Z" fill="url(#paint8_linear_746_14570)"/>
<path d="M39.8523 45.7811C39.8523 46.7261 39.3208 47.5661 38.5766 47.9861L32.7297 51.3462L30.3909 52.7112V50.2962L31.3476 49.7712L37.6198 46.2011C37.8325 46.2011 37.8325 45.8861 37.8325 45.7811C37.8325 45.6761 37.8325 45.4661 37.6198 45.3611L30.7098 41.476V39.166L38.6829 43.6811C39.3208 43.9961 39.8523 44.8361 39.8523 45.7811Z" fill="url(#paint9_linear_746_14570)"/>
</g>
<defs>
<linearGradient id="paint0_linear_746_14570" x1="71.7653" y1="27.3103" x2="63.6824" y2="12.0078" gradientUnits="userSpaceOnUse">
<stop stop-color="#03A672"/>
<stop offset="1" stop-color="#68C4A3"/>
</linearGradient>
<linearGradient id="paint1_linear_746_14570" x1="62.2334" y1="10.0007" x2="70.7716" y2="28.89" gradientUnits="userSpaceOnUse">
<stop stop-color="#03A672"/>
<stop offset="1" stop-color="#65C3A1"/>
</linearGradient>
<linearGradient id="paint2_linear_746_14570" x1="61.9071" y1="29.7488" x2="74.1293" y2="37.4142" gradientUnits="userSpaceOnUse">
<stop stop-color="#F9A13A"/>
<stop offset="1" stop-color="#B9539F"/>
</linearGradient>
<linearGradient id="paint3_linear_746_14570" x1="74.1689" y1="32.0251" x2="73.8263" y2="7.52697" gradientUnits="userSpaceOnUse">
<stop stop-color="#03A672"/>
<stop offset="1" stop-color="#68C4A3"/>
</linearGradient>
<linearGradient id="paint4_linear_746_14570" x1="72.9263" y1="4.00421" x2="71.4543" y2="33.3658" gradientUnits="userSpaceOnUse">
<stop stop-color="#03A672"/>
<stop offset="1" stop-color="#72C7A9"/>
</linearGradient>
<linearGradient id="paint5_linear_746_14570" x1="35.5855" y1="58.055" x2="46.1012" y2="33.5995" gradientUnits="userSpaceOnUse">
<stop stop-color="#03A672"/>
<stop offset="1" stop-color="#68C4A3"/>
</linearGradient>
<linearGradient id="paint6_linear_746_14570" x1="16.9905" y1="57.3176" x2="27.4014" y2="32.8636" gradientUnits="userSpaceOnUse">
<stop stop-color="#03A672"/>
<stop offset="1" stop-color="#68C4A3"/>
</linearGradient>
<linearGradient id="paint7_linear_746_14570" x1="27.0879" y1="54.277" x2="33.2303" y2="39.8366" gradientUnits="userSpaceOnUse">
<stop stop-color="#F8951D"/>
<stop offset="1" stop-color="#FFD056"/>
</linearGradient>
<linearGradient id="paint8_linear_746_14570" x1="25.7406" y1="53.6709" x2="29.4887" y2="44.9219" gradientUnits="userSpaceOnUse">
<stop stop-color="#F8951D"/>
<stop offset="1" stop-color="#FFD056"/>
</linearGradient>
<linearGradient id="paint9_linear_746_14570" x1="30.8161" y1="53.0262" x2="35.8132" y2="41.2213" gradientUnits="userSpaceOnUse">
<stop stop-color="#F8951D"/>
<stop offset="1" stop-color="#FFD056"/>
</linearGradient>
<clipPath id="clip0_746_14570">
<rect width="91" height="76" fill="white"/>
</clipPath>
</defs>
</svg>
