<svg width="24" height="24" viewBox="0 0 24 24" fill="none" xmlns="http://www.w3.org/2000/svg">
<path d="M7.18142 9.99747C7.63965 9.53889 8.216 9.27193 8.81476 9.19241C9.34835 9.1231 9.90027 9.20665 10.3951 9.44312L11.2127 8.98083C11.7442 8.68023 12.125 8.17005 12.262 7.5749C12.0258 7.07758 11.9443 6.52734 12.0135 5.99133C12.0909 5.39421 12.3598 4.81535 12.818 4.35678C13.3699 3.80445 14.0929 3.5293 14.8179 3.5293C15.5409 3.5293 16.2659 3.80445 16.8178 4.35678C17.3697 4.91112 17.6467 5.63464 17.6467 6.36024C17.6467 7.08376 17.3697 7.80929 16.8178 8.36162C16.3595 8.82019 15.7832 9.08722 15.1844 9.16667C14.6508 9.23598 14.0989 9.15244 13.6041 8.91596C13.0094 9.05302 12.4997 9.43378 12.1997 9.96519L11.7372 10.7842C11.9205 11.1693 12.0101 11.5851 12.0101 11.9988C12.0101 12.4146 11.9184 12.8304 11.7372 13.2136L12.0006 13.7169C12.3383 14.3623 12.913 14.8515 13.6041 15.0818C14.0989 14.8454 14.6508 14.7639 15.1844 14.8332C15.7832 14.9106 16.3595 15.1796 16.8178 15.6382C17.3697 16.1905 17.6467 16.9141 17.6467 17.6396C17.6467 18.3631 17.3697 19.0886 16.8178 19.641C16.2659 20.1933 15.5409 20.4705 14.8179 20.4705C14.0929 20.4705 13.3699 20.1933 12.818 19.641C12.3598 19.1824 12.0909 18.6056 12.0135 18.0064C11.9443 17.4724 12.0258 16.9201 12.262 16.4249C12.0319 15.7333 11.5426 15.158 10.8971 14.8197L10.3951 14.5566C9.90027 14.793 9.34835 14.8746 8.81476 14.8053C8.216 14.7278 7.63965 14.4588 7.18142 14.0023C6.6295 13.448 6.35254 12.7244 6.35254 11.9988C6.35254 11.2753 6.6295 10.5498 7.18142 9.99747Z" fill="#FF8C00"/>
</svg>
