<svg width="42" height="36" viewBox="0 0 42 36" fill="none" xmlns="http://www.w3.org/2000/svg">
<path d="M3.02351 15.992C3.79151 15.912 4.37551 15.68 4.77551 15.296C5.19151 14.912 5.39951 14.408 5.39951 13.784C5.39951 13.208 5.33551 12.152 5.20751 10.616C5.06351 9.176 4.99151 8.024 4.99151 7.16C4.99151 6.024 5.31951 5.136 5.97551 4.496C6.64751 3.856 7.52751 3.536 8.61551 3.536H10.2235V5.912H9.16751C8.65551 5.912 8.27151 6.032 8.01551 6.272C7.77551 6.496 7.65551 6.864 7.65551 7.376C7.65551 7.76 7.67951 8.272 7.72751 8.912C7.77551 9.552 7.80751 10.008 7.82351 10.28C7.96751 11.752 8.03951 12.952 8.03951 13.88C8.03951 14.696 7.83151 15.376 7.41551 15.92C7.01551 16.464 6.39151 16.824 5.54351 17V17.048C6.39151 17.224 7.01551 17.584 7.41551 18.128C7.83151 18.672 8.03951 19.352 8.03951 20.168C8.03951 21.096 7.96751 22.296 7.82351 23.768C7.80751 24.04 7.77551 24.496 7.72751 25.136C7.67951 25.776 7.65551 26.288 7.65551 26.672C7.65551 27.184 7.77551 27.552 8.01551 27.776C8.27151 28.016 8.65551 28.136 9.16751 28.136H10.2235V30.512H8.61551C7.52751 30.512 6.64751 30.192 5.97551 29.552C5.31951 28.912 4.99151 28.024 4.99151 26.888C4.99151 26.024 5.06351 24.872 5.20751 23.432C5.33551 21.896 5.39951 20.84 5.39951 20.264C5.39951 19.64 5.19151 19.136 4.77551 18.752C4.37551 18.368 3.79151 18.136 3.02351 18.056V15.992Z" fill="white"/>
<path d="M38.3595 18.056C37.5915 18.136 36.9995 18.368 36.5835 18.752C36.1835 19.136 35.9835 19.64 35.9835 20.264C35.9835 20.84 36.0475 21.896 36.1755 23.432C36.3195 24.872 36.3915 26.024 36.3915 26.888C36.3915 28.024 36.0555 28.912 35.3835 29.552C34.7275 30.192 33.8555 30.512 32.7675 30.512H31.1595V28.136H32.2155C32.7275 28.136 33.1035 28.016 33.3435 27.776C33.5995 27.552 33.7275 27.184 33.7275 26.672C33.7275 26.288 33.7035 25.776 33.6555 25.136C33.6075 24.496 33.5755 24.04 33.5595 23.768C33.4155 22.296 33.3435 21.096 33.3435 20.168C33.3435 19.352 33.5435 18.672 33.9435 18.128C34.3595 17.584 34.9915 17.224 35.8395 17.048V17C34.9915 16.824 34.3595 16.464 33.9435 15.92C33.5435 15.376 33.3435 14.696 33.3435 13.88C33.3435 12.952 33.4155 11.752 33.5595 10.28C33.5755 10.008 33.6075 9.552 33.6555 8.912C33.7035 8.272 33.7275 7.76 33.7275 7.376C33.7275 6.864 33.5995 6.496 33.3435 6.272C33.1035 6.032 32.7275 5.912 32.2155 5.912H31.1595V3.536H32.7675C33.8555 3.536 34.7275 3.856 35.3835 4.496C36.0555 5.136 36.3915 6.024 36.3915 7.16C36.3915 8.024 36.3195 9.176 36.1755 10.616C36.0475 12.152 35.9835 13.208 35.9835 13.784C35.9835 14.408 36.1835 14.912 36.5835 15.296C36.9995 15.68 37.5915 15.912 38.3595 15.992V18.056Z" fill="white"/>
<path d="M25.2495 11H16.7495C16.3353 11 15.9995 11.3358 15.9995 11.75C15.9995 12.1642 16.3353 12.5 16.7495 12.5H25.2495C25.6637 12.5 25.9995 12.1642 25.9995 11.75C25.9995 11.3358 25.6637 11 25.2495 11Z" fill="white"/>
<path d="M28.2495 16.5H13.7495C13.3353 16.5 12.9995 16.8358 12.9995 17.25C12.9995 17.6642 13.3353 18 13.7495 18H28.2495C28.6637 18 28.9995 17.6642 28.9995 17.25C28.9995 16.8358 28.6637 16.5 28.2495 16.5Z" fill="white"/>
<path d="M25.2495 22H16.7495C16.3353 22 15.9995 22.3358 15.9995 22.75C15.9995 23.1642 16.3353 23.5 16.7495 23.5H25.2495C25.6637 23.5 25.9995 23.1642 25.9995 22.75C25.9995 22.3358 25.6637 22 25.2495 22Z" fill="white"/>
</svg>
