<svg width="65" height="53" viewBox="0 0 65 53" fill="none" xmlns="http://www.w3.org/2000/svg">
<path d="M26.4988 52.396C40.8036 52.396 52.4 40.7997 52.4 26.4949C52.4 12.1901 40.8036 0.59375 26.4988 0.59375C12.194 0.59375 0.597656 12.1901 0.597656 26.4949C0.597656 40.7997 12.194 52.396 26.4988 52.396Z" fill="#FF9F2B"/>
<path fill-rule="evenodd" clip-rule="evenodd" d="M1.19454 26.4985C1.19454 12.5329 12.5329 1.19454 26.4984 1.19454C37.3495 1.19454 46.6145 8.03962 50.2074 17.6435C50.3229 17.9522 50.6673 18.1091 50.9761 17.9935C51.2849 17.878 51.4417 17.5336 51.3262 17.2248C47.5637 7.16784 37.8615 0 26.4984 0C11.8735 0 0 11.8736 0 26.4985C0 26.8281 0.267578 27.0958 0.597271 27.0958C0.926965 27.0958 1.19442 26.8281 1.19454 26.4985Z" fill="#FF8C00"/>
<path fill-rule="evenodd" clip-rule="evenodd" d="M50.0684 35.7232C46.3793 45.1348 37.2123 51.8068 26.4993 51.8068C24.1979 51.8068 21.9677 51.4989 19.8479 50.9222C19.5298 50.8356 19.2014 51.0236 19.1148 51.3416C19.0283 51.6597 19.2162 51.9882 19.5342 52.0748C21.754 52.6789 24.0894 53.0014 26.4995 53.0014C37.718 53.0014 47.3176 46.0147 51.1807 36.1591C51.301 35.8523 51.1494 35.5053 50.8427 35.3851C50.5356 35.2647 50.1887 35.4162 50.0684 35.7232Z" fill="#FF8C00"/>
<path d="M26.5033 47.6628C38.1958 47.6628 47.6745 38.1841 47.6745 26.4916C47.6745 14.799 38.1958 5.32031 26.5033 5.32031C14.8107 5.32031 5.33203 14.799 5.33203 26.4916C5.33203 38.1841 14.8107 47.6628 26.5033 47.6628Z" fill="white"/>
<path d="M26.4993 42.9361C35.5793 42.9361 42.94 35.5754 42.94 26.4954C42.94 17.4154 35.5793 10.0547 26.4993 10.0547C17.4193 10.0547 10.0586 17.4154 10.0586 26.4954C10.0586 35.5754 17.4193 42.9361 26.4993 42.9361Z" fill="#EBD4B2"/>
<path d="M26.5001 38.2034C32.9679 38.2034 38.2112 32.9601 38.2112 26.4923C38.2112 20.0245 32.9679 14.7812 26.5001 14.7812C20.0323 14.7812 14.7891 20.0245 14.7891 26.4923C14.7891 32.9601 20.0323 38.2034 26.5001 38.2034Z" fill="white"/>
<path d="M19.5195 26.5036C19.5195 30.3583 22.6439 33.4835 26.5003 33.4835C30.3553 33.4835 33.4796 30.3583 33.4796 26.5036C33.4796 22.6472 30.3553 19.5234 26.5003 19.5234C22.6439 19.5233 19.5195 22.6472 19.5195 26.5036Z" fill="#FF9F2B"/>
<path d="M24.25 26.5015C24.25 27.7437 25.2575 28.7512 26.5009 28.7512C27.7431 28.7512 28.7506 27.7437 28.7506 26.5015C28.7506 25.2581 27.7434 24.25 26.5009 24.25C25.2578 24.2504 24.25 25.258 24.25 26.5015Z" fill="white"/>
<path d="M60.5112 25.8203H26.5V27.3092H60.5112V25.8203Z" fill="#FF8C00"/>
<path d="M60.5061 25.8162L63.6202 21.6586C64.0292 21.1127 63.8057 20.6641 63.123 20.6641H55.3649C54.6818 20.6641 53.7885 21.1124 53.3802 21.6586L50.2656 25.8162H60.5061Z" fill="#EBD4B2"/>
<path fill-rule="evenodd" clip-rule="evenodd" d="M63.1698 21.2672C63.155 21.2656 63.1404 21.2647 63.1265 21.2647H55.3684C54.85 21.2647 54.172 21.6051 53.862 22.0196L50.7471 26.1777C50.5495 26.4415 50.1748 26.4952 49.911 26.2976C49.6472 26.1 49.5934 25.7253 49.7911 25.4615C49.7911 25.4615 52.9055 21.3039 52.9053 21.3045C53.4119 20.6265 54.5208 20.0703 55.3684 20.0703H63.1265C63.7643 20.0703 64.1506 20.3563 64.3188 20.6933C64.4869 21.03 64.4834 21.5105 64.1017 22.0202C63.9041 22.284 63.5294 22.3378 63.2655 22.1401C63.0017 21.9424 62.9479 21.5678 63.1456 21.3039C63.154 21.2929 63.1622 21.2804 63.1698 21.2672Z" fill="#FF8C00"/>
<path d="M60.5061 27.3125L63.6202 31.4701C64.0292 32.0167 63.8057 32.4642 63.123 32.4642H55.3649C54.6818 32.4642 53.7885 32.0166 53.3802 31.4701L50.2656 27.3125H60.5061Z" fill="#EBD4B2"/>
<path fill-rule="evenodd" clip-rule="evenodd" d="M63.1722 31.8524C63.1646 31.8393 63.1564 31.8269 63.1483 31.8159L60.0341 27.6583C59.8365 27.3944 59.8902 27.02 60.154 26.8223C60.4179 26.6247 60.7925 26.6784 60.9902 26.9422C60.9902 26.9422 64.1043 31.0998 64.1046 31.1C64.4862 31.6102 64.4894 32.0906 64.3214 32.4269C64.1532 32.7637 63.7669 33.0494 63.1291 33.0494H55.371C54.5233 33.0494 53.4146 32.4937 52.9077 31.8154C52.7105 31.5513 52.7647 31.1767 53.0288 30.9795C53.2928 30.7823 53.6674 30.8364 53.8647 31.1005C54.1747 31.5153 54.8527 31.8549 55.371 31.8549H63.1291C63.1428 31.8547 63.1575 31.8539 63.1722 31.8524Z" fill="#FF8C00"/>
</svg>
