<svg width="74" height="287" viewBox="0 0 74 287" fill="none" xmlns="http://www.w3.org/2000/svg">
<g opacity="0.24">
<mask id="path-1-outside-1_2871_13711" maskUnits="userSpaceOnUse" x="0" y="-1" width="74" height="288" fill="black">
<rect fill="white" y="-1" width="74" height="288"/>
<path d="M39.78 249.878C40.44 246.338 42.21 243.428 45.09 241.148C47.97 238.868 51.27 237.728 54.99 237.728C58.35 237.728 61.32 238.568 63.9 240.248C66.42 241.868 68.4 244.238 69.84 247.358C71.28 250.478 72 254.168 72 258.428V285.518H9.18V259.598C9.18 255.338 9.87 251.678 11.25 248.618C12.63 245.498 14.55 243.158 17.01 241.598C19.47 239.978 22.26 239.168 25.38 239.168C29.04 239.168 32.1 240.158 34.56 242.138C37.02 244.058 38.76 246.638 39.78 249.878ZM35.1 272.918V261.398C35.1 258.398 34.44 256.088 33.12 254.468C31.74 252.848 29.79 252.038 27.27 252.038C24.75 252.038 22.8 252.848 21.42 254.468C20.04 256.088 19.35 258.398 19.35 261.398V272.918H35.1ZM61.74 260.228C61.74 257.168 61.02 254.798 59.58 253.118C58.14 251.378 56.1 250.508 53.46 250.508C50.76 250.508 48.66 251.408 47.16 253.208C45.6 255.008 44.82 257.438 44.82 260.498V272.918H61.74V260.228ZM22.14 180.616H72V193.306H65.7C67.86 194.926 69.57 197.056 70.83 199.696C72.03 202.276 72.63 205.096 72.63 208.156C72.63 212.056 71.82 215.506 70.2 218.506C68.52 221.506 66.09 223.876 62.91 225.616C59.67 227.296 55.83 228.136 51.39 228.136H22.14V215.536H49.59C53.55 215.536 56.61 214.546 58.77 212.566C60.87 210.586 61.92 207.886 61.92 204.466C61.92 200.986 60.87 198.256 58.77 196.276C56.61 194.296 53.55 193.306 49.59 193.306H22.14V180.616ZM16.2 161.794C16.2 164.014 15.51 165.874 14.13 167.374C12.69 168.814 10.92 169.534 8.82 169.534C6.72 169.534 4.98 168.814 3.6 167.374C2.16 165.874 1.44 164.014 1.44 161.794C1.44 159.574 2.16 157.744 3.6 156.304C4.98 154.804 6.72 154.054 8.82 154.054C10.92 154.054 12.69 154.804 14.13 156.304C15.51 157.744 16.2 159.574 16.2 161.794ZM22.14 155.584H72V168.184H22.14V155.584ZM5.4 130.535H72V143.135H5.4V130.535ZM46.89 121.326C41.85 121.326 37.38 120.336 33.48 118.356C29.58 116.316 26.58 113.556 24.48 110.076C22.38 106.596 21.33 102.726 21.33 98.4659C21.33 95.2259 22.05 92.1359 23.49 89.1959C24.87 86.2559 26.73 83.9159 29.07 82.1759H5.4V69.3959H72V82.1759H64.62C67.08 83.7359 69.06 85.9259 70.56 88.7459C72.06 91.5659 72.81 94.8359 72.81 98.5559C72.81 102.756 71.73 106.596 69.57 110.076C67.41 113.556 64.38 116.316 60.48 118.356C56.52 120.336 51.99 121.326 46.89 121.326ZM47.07 82.0859C44.01 82.0859 41.4 82.6859 39.24 83.8859C37.02 85.0859 35.34 86.7059 34.2 88.7459C33 90.7859 32.4 92.9759 32.4 95.3159C32.4 97.6559 32.97 99.8159 34.11 101.796C35.25 103.776 36.93 105.396 39.15 106.656C41.31 107.856 43.89 108.456 46.89 108.456C49.89 108.456 52.53 107.856 54.81 106.656C57.03 105.396 58.74 103.776 59.94 101.796C61.14 99.7559 61.74 97.5959 61.74 95.3159C61.74 92.9759 61.17 90.7859 60.03 88.7459C58.83 86.7059 57.15 85.0859 54.99 83.8859C52.77 82.6859 50.13 82.0859 47.07 82.0859ZM10.26 5.94449L18.36 1.44449L22.59 13.1445L26.82 1.44449L35.19 6.12449L27.18 15.8445L39.6 13.7745V23.1345L27.18 21.1545L35.37 30.7845L26.73 35.7345L22.5 24.0345L18.45 35.6445L10.17 31.0545L18.09 21.0645L5.58 23.1345V13.6845L18.09 15.8445L10.26 5.94449Z"/>
</mask>
<path d="M39.78 249.878L38.8261 250.178L40.7631 250.061L39.78 249.878ZM45.09 241.148L44.4693 240.363L44.4693 240.363L45.09 241.148ZM63.9 240.248L63.3543 241.086L63.3592 241.089L63.9 240.248ZM69.84 247.358L70.748 246.938L70.748 246.938L69.84 247.358ZM72 285.518V286.518H73V285.518H72ZM9.18 285.518H8.18V286.518H9.18V285.518ZM11.25 248.618L12.1616 249.029L12.1645 249.022L11.25 248.618ZM17.01 241.598L17.5455 242.442L17.5528 242.437L17.56 242.433L17.01 241.598ZM34.56 242.138L33.933 242.917L33.9388 242.921L33.9447 242.926L34.56 242.138ZM35.1 272.918V273.918H36.1V272.918H35.1ZM33.12 254.468L33.8952 253.836L33.8883 253.827L33.8812 253.819L33.12 254.468ZM21.42 254.468L20.6588 253.819L20.6588 253.819L21.42 254.468ZM19.35 272.918H18.35V273.918H19.35V272.918ZM59.58 253.118L58.8096 253.755L58.8151 253.762L58.8207 253.768L59.58 253.118ZM47.16 253.208L47.9157 253.862L47.922 253.855L47.9282 253.848L47.16 253.208ZM44.82 272.918H43.82V273.918H44.82V272.918ZM61.74 272.918V273.918H62.74V272.918H61.74ZM40.7631 250.061C41.3778 246.763 43.0159 244.065 45.7107 241.932L44.4693 240.363C41.4041 242.79 39.5022 245.912 38.7969 249.694L40.7631 250.061ZM45.7107 241.932C48.4116 239.793 51.4922 238.728 54.99 238.728V236.728C51.0478 236.728 47.5284 237.942 44.4693 240.363L45.7107 241.932ZM54.99 238.728C58.1747 238.728 60.9515 239.521 63.3543 241.086L64.4457 239.41C61.6885 237.614 58.5253 236.728 54.99 236.728V238.728ZM63.3592 241.089C65.6967 242.591 67.5598 244.803 68.932 247.777L70.748 246.938C69.2402 243.672 67.1433 241.144 64.4408 239.406L63.3592 241.089ZM68.932 247.777C70.2987 250.738 71 254.278 71 258.428H73C73 254.057 72.2613 250.217 70.748 246.938L68.932 247.777ZM71 258.428V285.518H73V258.428H71ZM72 284.518H9.18V286.518H72V284.518ZM10.18 285.518V259.598H8.18V285.518H10.18ZM10.18 259.598C10.18 255.442 10.8533 251.93 12.1616 249.029L10.3384 248.206C8.88669 251.425 8.18 255.233 8.18 259.598H10.18ZM12.1645 249.022C13.4785 246.051 15.2796 243.879 17.5455 242.442L16.4745 240.753C13.8204 242.436 11.7815 244.944 10.3355 248.213L12.1645 249.022ZM17.56 242.433C19.8468 240.927 22.4433 240.168 25.38 240.168V238.168C22.0767 238.168 19.0932 239.028 16.46 240.762L17.56 242.433ZM25.38 240.168C28.8499 240.168 31.6782 241.102 33.933 242.917L35.187 241.359C32.5218 239.213 29.2301 238.168 25.38 238.168V240.168ZM33.9447 242.926C36.2308 244.71 37.8613 247.113 38.8261 250.178L40.7338 249.577C39.6587 246.162 37.8092 243.405 35.1753 241.349L33.9447 242.926ZM36.1 272.918V261.398H34.1V272.918H36.1ZM36.1 261.398C36.1 258.265 35.4123 255.698 33.8952 253.836L32.3448 255.099C33.4677 256.477 34.1 258.53 34.1 261.398H36.1ZM33.8812 253.819C32.2758 251.934 30.0234 251.038 27.27 251.038V253.038C29.5566 253.038 31.2042 253.761 32.3588 255.116L33.8812 253.819ZM27.27 251.038C24.5166 251.038 22.2642 251.934 20.6588 253.819L22.1812 255.116C23.3358 253.761 24.9834 253.038 27.27 253.038V251.038ZM20.6588 253.819C19.072 255.682 18.35 258.256 18.35 261.398H20.35C20.35 258.539 21.008 256.493 22.1812 255.116L20.6588 253.819ZM18.35 261.398V272.918H20.35V261.398H18.35ZM19.35 273.918H35.1V271.918H19.35V273.918ZM62.74 260.228C62.74 257.02 61.9851 254.387 60.3393 252.467L58.8207 253.768C60.0549 255.208 60.74 257.315 60.74 260.228H62.74ZM60.3504 252.48C58.6874 250.47 56.3419 249.508 53.46 249.508V251.508C55.8581 251.508 57.5926 252.285 58.8096 253.755L60.3504 252.48ZM53.46 249.508C50.5137 249.508 48.1119 250.503 46.3918 252.567L47.9282 253.848C49.2081 252.312 51.0063 251.508 53.46 251.508V249.508ZM46.4043 252.553C44.6462 254.581 43.82 257.267 43.82 260.498H45.82C45.82 257.608 46.5538 255.434 47.9157 253.862L46.4043 252.553ZM43.82 260.498V272.918H45.82V260.498H43.82ZM44.82 273.918H61.74V271.918H44.82V273.918ZM62.74 272.918V260.228H60.74V272.918H62.74ZM22.14 180.616V179.616H21.14V180.616H22.14ZM72 180.616H73V179.616H72V180.616ZM72 193.306V194.306H73V193.306H72ZM65.7 193.306V192.306H62.7L65.1 194.106L65.7 193.306ZM70.83 199.696L71.7368 199.274L71.7325 199.265L70.83 199.696ZM70.2 218.506L71.0725 218.994L71.0763 218.987L71.0799 218.981L70.2 218.506ZM62.91 225.616L63.3703 226.503L63.3802 226.498L63.39 226.493L62.91 225.616ZM22.14 228.136H21.14V229.136H22.14V228.136ZM22.14 215.536V214.536H21.14V215.536H22.14ZM58.77 212.566L59.4458 213.303L59.456 213.293L58.77 212.566ZM58.77 196.276L59.4561 195.548L59.4457 195.538L58.77 196.276ZM22.14 193.306H21.14V194.306H22.14V193.306ZM22.14 181.616H72V179.616H22.14V181.616ZM71 180.616V193.306H73V180.616H71ZM72 192.306H65.7V194.306H72V192.306ZM65.1 194.106C67.1202 195.621 68.7311 197.619 69.9275 200.126L71.7325 199.265C70.4089 196.492 68.5998 194.23 66.3 192.506L65.1 194.106ZM69.9233 200.117C71.0573 202.555 71.63 205.23 71.63 208.156H73.63C73.63 204.961 73.0027 201.996 71.7367 199.274L69.9233 200.117ZM71.63 208.156C71.63 211.914 70.8506 215.196 69.3201 218.03L71.0799 218.981C72.7894 215.815 73.63 212.197 73.63 208.156H71.63ZM69.3275 218.017C67.7443 220.844 65.4546 223.083 62.43 224.738L63.39 226.493C66.7254 224.668 69.2957 222.167 71.0725 218.994L69.3275 218.017ZM62.4497 224.728C59.3795 226.32 55.7041 227.136 51.39 227.136V229.136C55.9559 229.136 59.9605 228.271 63.3703 226.503L62.4497 224.728ZM51.39 227.136H22.14V229.136H51.39V227.136ZM23.14 228.136V215.536H21.14V228.136H23.14ZM22.14 216.536H49.59V214.536H22.14V216.536ZM49.59 216.536C53.711 216.536 57.0447 215.504 59.4457 213.303L58.0943 211.828C56.1753 213.587 53.389 214.536 49.59 214.536V216.536ZM59.456 213.293C61.7933 211.089 62.92 208.106 62.92 204.466H60.92C60.92 207.665 59.9467 210.082 58.084 211.838L59.456 213.293ZM62.92 204.466C62.92 200.771 61.7969 197.755 59.456 195.548L58.084 197.003C59.9431 198.756 60.92 201.2 60.92 204.466H62.92ZM59.4457 195.538C57.0447 193.337 53.711 192.306 49.59 192.306V194.306C53.389 194.306 56.1753 195.254 58.0943 197.013L59.4457 195.538ZM49.59 192.306H22.14V194.306H49.59V192.306ZM23.14 193.306V180.616H21.14V193.306H23.14ZM14.13 167.374L14.8371 168.081L14.8518 168.066L14.8659 168.051L14.13 167.374ZM3.6 167.374L4.32198 166.682L4.32138 166.681L3.6 167.374ZM3.6 156.304L4.3071 157.011L4.32183 156.996L4.33593 156.981L3.6 156.304ZM14.13 156.304L14.852 155.612L14.8514 155.611L14.13 156.304ZM22.14 155.584V154.584H21.14V155.584H22.14ZM72 155.584H73V154.584H72V155.584ZM72 168.184V169.184H73V168.184H72ZM22.14 168.184H21.14V169.184H22.14V168.184ZM15.2 161.794C15.2 163.787 14.5885 165.398 13.3941 166.696L14.8659 168.051C16.4315 166.349 17.2 164.24 17.2 161.794H15.2ZM13.4229 166.666C12.1769 167.912 10.664 168.534 8.82 168.534V170.534C11.176 170.534 13.2031 169.715 14.8371 168.081L13.4229 166.666ZM8.82 168.534C6.97645 168.534 5.50249 167.913 4.32198 166.682L2.87801 168.065C4.4575 169.714 6.46355 170.534 8.82 170.534V168.534ZM4.32138 166.681C3.07305 165.381 2.44 163.775 2.44 161.794H0.439996C0.439996 164.252 1.24694 166.366 2.87861 168.066L4.32138 166.681ZM2.44 161.794C2.44 159.812 3.07247 158.245 4.3071 157.011L2.89289 155.596C1.24752 157.242 0.439996 159.335 0.439996 161.794H2.44ZM4.33593 156.981C5.52016 155.693 6.99007 155.054 8.82 155.054V153.054C6.44993 153.054 4.43983 153.914 2.86406 155.626L4.33593 156.981ZM8.82 155.054C10.6508 155.054 12.1593 155.695 13.4086 156.996L14.8514 155.611C13.2207 153.912 11.1892 153.054 8.82 153.054V155.054ZM13.408 156.995C14.5888 158.228 15.2 159.8 15.2 161.794H17.2C17.2 159.347 16.4312 157.26 14.852 155.612L13.408 156.995ZM22.14 156.584H72V154.584H22.14V156.584ZM71 155.584V168.184H73V155.584H71ZM72 167.184H22.14V169.184H72V167.184ZM23.14 168.184V155.584H21.14V168.184H23.14ZM5.4 130.535V129.535H4.4V130.535H5.4ZM72 130.535H73V129.535H72V130.535ZM72 143.135V144.135H73V143.135H72ZM5.4 143.135H4.4V144.135H5.4V143.135ZM5.4 131.535H72V129.535H5.4V131.535ZM71 130.535V143.135H73V130.535H71ZM72 142.135H5.4V144.135H72V142.135ZM6.4 143.135V130.535H4.4V143.135H6.4ZM33.48 118.356L33.0165 119.242L33.0273 119.248L33.48 118.356ZM24.48 110.076L25.3362 109.559L25.3362 109.559L24.48 110.076ZM23.49 89.1959L24.3881 89.6358L24.3917 89.6283L24.3952 89.6208L23.49 89.1959ZM29.07 82.1759L29.6667 82.9784L32.0907 81.1759H29.07V82.1759ZM5.4 82.1759H4.4V83.1759H5.4V82.1759ZM5.4 69.3959V68.3959H4.4V69.3959H5.4ZM72 69.3959H73V68.3959H72V69.3959ZM72 82.1759V83.1759H73V82.1759H72ZM64.62 82.1759V81.1759H61.1758L64.0845 83.0204L64.62 82.1759ZM70.56 88.7459L69.6771 89.2155L69.6771 89.2155L70.56 88.7459ZM69.57 110.076L68.7204 109.549L68.7204 109.549L69.57 110.076ZM60.48 118.356L60.9272 119.25L60.9354 119.246L60.9435 119.242L60.48 118.356ZM39.24 83.8859L39.7155 84.7657L39.7256 84.7601L39.24 83.8859ZM34.2 88.7459L35.0619 89.2529L35.0675 89.2434L35.0729 89.2337L34.2 88.7459ZM34.11 101.796L33.2434 102.295L33.2434 102.295L34.11 101.796ZM39.15 106.656L38.6564 107.526L38.6644 107.53L39.15 106.656ZM54.81 106.656L55.2757 107.541L55.2898 107.533L55.3036 107.526L54.81 106.656ZM59.94 101.796L60.7953 102.314L60.8019 102.303L59.94 101.796ZM60.03 88.7459L60.9029 88.2581L60.8975 88.2484L60.8919 88.2389L60.03 88.7459ZM54.99 83.8859L55.4757 83.0117L55.4655 83.0062L54.99 83.8859ZM46.89 120.326C41.9833 120.326 37.6724 119.363 33.9327 117.464L33.0273 119.248C37.0875 121.309 41.7167 122.326 46.89 122.326V120.326ZM33.9435 117.47C30.1918 115.507 27.3338 112.87 25.3362 109.559L23.6238 110.593C25.8262 114.242 28.9682 117.124 33.0165 119.242L33.9435 117.47ZM25.3362 109.559C23.3349 106.243 22.33 102.553 22.33 98.4659H20.33C20.33 102.899 21.4251 106.949 23.6238 110.593L25.3362 109.559ZM22.33 98.4659C22.33 95.38 23.0144 92.4403 24.3881 89.6358L22.5919 88.756C21.0856 91.8315 20.33 95.0718 20.33 98.4659H22.33ZM24.3952 89.6208C25.7132 86.8129 27.4736 84.6091 29.6667 82.9784L28.4733 81.3734C25.9863 83.2227 24.0268 85.6989 22.5848 88.771L24.3952 89.6208ZM29.07 81.1759H5.4V83.1759H29.07V81.1759ZM6.4 82.1759V69.3959H4.4V82.1759H6.4ZM5.4 70.3959H72V68.3959H5.4V70.3959ZM71 69.3959V82.1759H73V69.3959H71ZM72 81.1759H64.62V83.1759H72V81.1759ZM64.0845 83.0204C66.3843 84.4789 68.2504 86.5333 69.6771 89.2155L71.4429 88.2763C69.8696 85.3185 67.7757 82.9929 65.1555 81.3314L64.0845 83.0204ZM69.6771 89.2155C71.0884 91.8688 71.81 94.9726 71.81 98.5559H73.81C73.81 94.6992 73.0316 91.263 71.4429 88.2763L69.6771 89.2155ZM71.81 98.5559C71.81 102.575 70.7795 106.231 68.7204 109.549L70.4196 110.603C72.6805 106.961 73.81 102.937 73.81 98.5559H71.81ZM68.7204 109.549C66.6617 112.865 63.7703 115.506 60.0165 117.47L60.9435 119.242C64.9897 117.126 68.1583 114.247 70.4196 110.603L68.7204 109.549ZM60.0328 117.461C56.2313 119.362 51.8584 120.326 46.89 120.326V122.326C52.1216 122.326 56.8087 121.31 60.9272 119.25L60.0328 117.461ZM47.07 81.0859C43.8801 81.0859 41.0944 81.7117 38.7544 83.0117L39.7256 84.7601C41.7056 83.6601 44.1399 83.0859 47.07 83.0859V81.0859ZM38.7645 83.0062C36.3914 84.2889 34.5671 86.0391 33.3271 88.2581L35.0729 89.2337C36.1129 87.3727 37.6486 85.8829 39.7155 84.7656L38.7645 83.0062ZM33.3381 88.2389C32.0488 90.4307 31.4 92.7955 31.4 95.3159H33.4C33.4 93.1563 33.9512 91.1411 35.0619 89.2529L33.3381 88.2389ZM31.4 95.3159C31.4 97.8266 32.0138 100.159 33.2434 102.295L34.9766 101.297C33.9262 99.4725 33.4 97.4852 33.4 95.3159H31.4ZM33.2434 102.295C34.4825 104.447 36.2998 106.188 38.6564 107.526L39.6436 105.786C37.5602 104.604 36.0175 103.105 34.9766 101.297L33.2434 102.295ZM38.6644 107.53C41.0016 108.829 43.7562 109.456 46.89 109.456V107.456C44.0238 107.456 41.6184 106.883 39.6356 105.782L38.6644 107.53ZM46.89 109.456C50.0255 109.456 52.8302 108.828 55.2757 107.541L54.3443 105.771C52.2298 106.884 49.7545 107.456 46.89 107.456V109.456ZM55.3036 107.526C57.6566 106.19 59.4978 104.455 60.7952 102.314L59.0848 101.278C57.9822 103.097 56.4034 104.602 54.3164 105.786L55.3036 107.526ZM60.8019 102.303C62.0887 100.115 62.74 97.7812 62.74 95.3159H60.74C60.74 97.4106 60.1913 99.3964 59.0781 101.289L60.8019 102.303ZM62.74 95.3159C62.74 92.8053 62.1264 90.4474 60.9029 88.2581L59.1571 89.2337C60.2136 91.1244 60.74 93.1464 60.74 95.3159H62.74ZM60.8919 88.2389C59.5974 86.0382 57.7844 84.2944 55.4756 83.0117L54.5044 84.7601C56.5156 85.8774 58.0626 87.3736 59.1681 89.2529L60.8919 88.2389ZM55.4655 83.0062C53.0715 81.7121 50.261 81.0859 47.07 81.0859V83.0859C49.999 83.0859 52.4685 83.6597 54.5145 84.7656L55.4655 83.0062ZM10.26 5.94449L9.77435 5.07033L8.74565 5.64183L9.47566 6.56483L10.26 5.94449ZM18.36 1.44449L19.3004 1.10449L18.9011 -7.17643e-05L17.8744 0.570332L18.36 1.44449ZM22.59 13.1445L21.6496 13.4845L22.59 16.0857L23.5304 13.4845L22.59 13.1445ZM26.82 1.44449L27.308 0.571664L26.28 -0.00313661L25.8796 1.10449L26.82 1.44449ZM35.19 6.12449L35.9617 6.76045L36.7234 5.83617L35.678 5.25166L35.19 6.12449ZM27.18 15.8445L26.4083 15.2085L24.7094 17.27L27.3444 16.8309L27.18 15.8445ZM39.6 13.7745H40.6V12.594L39.4356 12.7881L39.6 13.7745ZM39.6 23.1345L39.4426 24.122L40.6 24.3065V23.1345H39.6ZM27.18 21.1545L27.3374 20.167L24.6651 19.7409L26.4182 21.8023L27.18 21.1545ZM35.37 30.7845L35.8671 31.6522L36.9117 31.0537L36.1318 30.1366L35.37 30.7845ZM26.73 35.7345L25.7896 36.0745L26.1943 37.1939L27.2271 36.6022L26.73 35.7345ZM22.5 24.0345L23.4404 23.6945L22.4832 21.0467L21.5558 23.7051L22.5 24.0345ZM18.45 35.6445L17.9652 36.5191L19.0033 37.0946L19.3942 35.9739L18.45 35.6445ZM10.17 31.0545L9.38638 30.4332L8.65376 31.3573L9.68516 31.9291L10.17 31.0545ZM18.09 21.0645L18.8736 21.6857L20.4837 19.6548L17.9267 20.0779L18.09 21.0645ZM5.58 23.1345H4.58V24.3136L5.74324 24.1211L5.58 23.1345ZM5.58 13.6845L5.75014 12.6991L4.58 12.497V13.6845H5.58ZM18.09 15.8445L17.9199 16.8299L20.4962 17.2747L18.8743 15.2242L18.09 15.8445ZM10.7456 6.81865L18.8456 2.31865L17.8744 0.570332L9.77435 5.07033L10.7456 6.81865ZM17.4196 1.78449L21.6496 13.4845L23.5304 12.8045L19.3004 1.10449L17.4196 1.78449ZM23.5304 13.4845L27.7604 1.78449L25.8796 1.10449L21.6496 12.8045L23.5304 13.4845ZM26.332 2.31732L34.702 6.99732L35.678 5.25166L27.308 0.571664L26.332 2.31732ZM34.4183 5.48853L26.4083 15.2085L27.9517 16.4804L35.9617 6.76045L34.4183 5.48853ZM27.3444 16.8309L39.7644 14.7609L39.4356 12.7881L27.0156 14.8581L27.3444 16.8309ZM38.6 13.7745V23.1345H40.6V13.7745H38.6ZM39.7574 22.147L27.3374 20.167L27.0226 22.142L39.4426 24.122L39.7574 22.147ZM26.4182 21.8023L34.6082 31.4323L36.1318 30.1366L27.9418 20.5066L26.4182 21.8023ZM34.8729 29.9168L26.2329 34.8668L27.2271 36.6022L35.8671 31.6522L34.8729 29.9168ZM27.6704 35.3945L23.4404 23.6945L21.5596 24.3745L25.7896 36.0745L27.6704 35.3945ZM21.5558 23.7051L17.5058 35.3151L19.3942 35.9739L23.4442 24.3639L21.5558 23.7051ZM18.9348 34.7699L10.6548 30.1799L9.68516 31.9291L17.9652 36.5191L18.9348 34.7699ZM10.9536 31.6757L18.8736 21.6857L17.3064 20.4432L9.38638 30.4332L10.9536 31.6757ZM17.9267 20.0779L5.41675 22.1479L5.74324 24.1211L18.2532 22.0511L17.9267 20.0779ZM6.58 23.1345V13.6845H4.58V23.1345H6.58ZM5.40985 14.6699L17.9199 16.8299L18.2601 14.8591L5.75014 12.6991L5.40985 14.6699ZM18.8743 15.2242L11.0443 5.32415L9.47566 6.56483L17.3057 16.4648L18.8743 15.2242Z" fill="black" mask="url(#path-1-outside-1_2871_13711)"/>
</g>
</svg>
