<svg width="98" height="374" viewBox="0 0 98 374" fill="none" xmlns="http://www.w3.org/2000/svg">
<g opacity="0.24">
<mask id="path-1-outside-1_2871_13706" maskUnits="userSpaceOnUse" x="0" y="0" width="98" height="374" fill="black">
<rect fill="white" width="98" height="374"/>
<path d="M9.18 350.668C9.18 344.068 10.47 338.278 13.05 333.298C15.63 328.258 19.32 324.388 24.12 321.688C28.86 318.928 34.38 317.548 40.68 317.548C46.98 317.548 52.5 318.928 57.24 321.688C61.92 324.388 65.55 328.258 68.13 333.298C70.71 338.278 72 344.068 72 350.668V372.628H9.18V350.668ZM61.29 351.118C61.29 344.518 59.49 339.418 55.89 335.818C52.29 332.218 47.22 330.418 40.68 330.418C34.14 330.418 29.04 332.218 25.38 335.818C21.66 339.418 19.8 344.518 19.8 351.118V360.028H61.29V351.118ZM45.99 261.766C47.79 261.766 49.41 261.886 50.85 262.126L50.85 298.576C54.45 298.276 57.27 297.016 59.31 294.796C61.35 292.576 62.37 289.846 62.37 286.606C62.37 281.926 60.36 278.596 56.34 276.616V263.026C61.14 264.466 65.1 267.226 68.22 271.306C71.28 275.386 72.81 280.396 72.81 286.336C72.81 291.136 71.76 295.456 69.66 299.296C67.5 303.076 64.47 306.046 60.57 308.206C56.67 310.306 52.17 311.356 47.07 311.356C41.91 311.356 37.38 310.306 33.48 308.206C29.58 306.106 26.58 303.166 24.48 299.386C22.38 295.606 21.33 291.256 21.33 286.336C21.33 281.596 22.35 277.366 24.39 273.646C26.43 269.866 29.34 266.956 33.12 264.916C36.84 262.816 41.13 261.766 45.99 261.766ZM42.39 274.816C39.15 274.876 36.57 276.046 34.65 278.326C32.67 280.606 31.68 283.396 31.68 286.696C31.68 289.816 32.64 292.456 34.56 294.616C36.42 296.716 39.03 298.006 42.39 298.486V274.816ZM72.81 233.489C72.81 237.569 72.09 241.229 70.65 244.469C69.15 247.709 67.14 250.289 64.62 252.209C62.1 254.069 59.31 255.089 56.25 255.269V242.579C58.17 242.339 59.76 241.409 61.02 239.789C62.28 238.109 62.91 236.039 62.91 233.579C62.91 231.179 62.43 229.319 61.47 227.999C60.51 226.619 59.28 225.929 57.78 225.929C56.16 225.929 54.96 226.769 54.18 228.449C53.34 230.069 52.44 232.679 51.48 236.279C50.58 239.999 49.65 243.059 48.69 245.459C47.73 247.799 46.26 249.839 44.28 251.579C42.3 253.259 39.63 254.099 36.27 254.099C33.51 254.099 30.99 253.319 28.71 251.759C26.43 250.139 24.63 247.859 23.31 244.919C21.99 241.919 21.33 238.409 21.33 234.389C21.33 228.449 22.83 223.709 25.83 220.169C28.77 216.629 32.76 214.679 37.8 214.319V226.379C35.82 226.559 34.26 227.399 33.12 228.899C31.92 230.339 31.32 232.289 31.32 234.749C31.32 237.029 31.74 238.799 32.58 240.059C33.42 241.259 34.59 241.859 36.09 241.859C37.77 241.859 39.06 241.019 39.96 239.339C40.8 237.659 41.67 235.049 42.57 231.509C43.47 227.909 44.4 224.939 45.36 222.599C46.32 220.259 47.82 218.249 49.86 216.569C51.84 214.829 54.48 213.929 57.78 213.869C60.66 213.869 63.24 214.679 65.52 216.299C67.8 217.859 69.6 220.139 70.92 223.139C72.18 226.079 72.81 229.529 72.81 233.489ZM16.2 197.136C16.2 199.356 15.51 201.216 14.13 202.716C12.69 204.156 10.92 204.876 8.82 204.876C6.72 204.876 4.98 204.156 3.6 202.716C2.16 201.216 1.44 199.356 1.44 197.136C1.44 194.916 2.16 193.086 3.6 191.646C4.98 190.146 6.72 189.396 8.82 189.396C10.92 189.396 12.69 190.146 14.13 191.646C15.51 193.086 16.2 194.916 16.2 197.136ZM22.14 190.926H72V203.526H22.14V190.926ZM21.33 158.947C21.33 155.227 22.08 151.957 23.58 149.137C25.02 146.317 26.91 144.097 29.25 142.477H22.14V129.787H72.36C76.98 129.787 81.09 130.717 84.69 132.577C88.35 134.437 91.23 137.227 93.33 140.947C95.49 144.667 96.57 149.167 96.57 154.447C96.57 161.527 94.92 167.347 91.62 171.907C88.32 176.407 83.82 178.957 78.12 179.557V167.047C80.4 166.387 82.2 164.977 83.52 162.817C84.9 160.597 85.59 157.927 85.59 154.807C85.59 151.147 84.48 148.177 82.26 145.897C80.1 143.617 76.8 142.477 72.36 142.477H64.62C66.96 144.097 68.91 146.347 70.47 149.227C72.03 152.047 72.81 155.287 72.81 158.947C72.81 163.147 71.73 166.987 69.57 170.467C67.41 173.947 64.38 176.707 60.48 178.748C56.52 180.728 51.99 181.718 46.89 181.718C41.85 181.718 37.38 180.728 33.48 178.748C29.58 176.707 26.58 173.977 24.48 170.557C22.38 167.077 21.33 163.207 21.33 158.947ZM47.07 142.477C44.01 142.477 41.4 143.077 39.24 144.277C37.02 145.477 35.34 147.097 34.2 149.137C33 151.177 32.4 153.367 32.4 155.707C32.4 158.047 32.97 160.207 34.11 162.188C35.25 164.167 36.93 165.787 39.15 167.047C41.31 168.247 43.89 168.847 46.89 168.847C49.89 168.847 52.53 168.247 54.81 167.047C57.03 165.787 58.74 164.167 59.94 162.188C61.14 160.147 61.74 157.987 61.74 155.707C61.74 153.367 61.17 151.177 60.03 149.137C58.83 147.097 57.15 145.477 54.99 144.277C52.77 143.077 50.13 142.477 47.07 142.477ZM21.42 89.8514C21.42 83.9114 23.31 79.1114 27.09 75.4514C30.81 71.7914 36.03 69.9614 42.75 69.9614H72V82.5614H44.46C40.5 82.5614 37.47 83.5514 35.37 85.5314C33.21 87.5114 32.13 90.2114 32.13 93.6314C32.13 97.1114 33.21 99.8714 35.37 101.911C37.47 103.891 40.5 104.881 44.46 104.881H72V117.481H22.14V104.881H28.35C26.19 103.201 24.51 101.071 23.31 98.4914C22.05 95.8514 21.42 92.9714 21.42 89.8514ZM10.26 6.83414L18.36 2.33414L22.59 14.0341L26.82 2.33414L35.19 7.01414L27.18 16.7341L39.6 14.6641V24.0241L27.18 22.0441L35.37 31.6741L26.73 36.6241L22.5 24.9241L18.45 36.5341L10.17 31.9441L18.09 21.9541L5.58 24.0241V14.5741L18.09 16.7341L10.26 6.83414Z"/>
</mask>
<path d="M13.05 333.298L13.9379 333.758L13.9401 333.754L13.05 333.298ZM24.12 321.688L24.6103 322.559L24.6168 322.556L24.6232 322.552L24.12 321.688ZM57.24 321.688L56.7368 322.552L56.7403 322.554L57.24 321.688ZM68.13 333.298L67.2398 333.754L67.2421 333.758L68.13 333.298ZM72 372.628V373.628H73V372.628H72ZM9.18 372.628H8.18V373.628H9.18V372.628ZM55.89 335.818L55.1829 336.525L55.1829 336.525L55.89 335.818ZM25.38 335.818L26.0754 336.537L26.0812 336.531L25.38 335.818ZM19.8 360.028H18.8V361.028H19.8V360.028ZM61.29 360.028V361.028H62.29V360.028H61.29ZM10.18 350.668C10.18 344.2 11.4435 338.573 13.9379 333.758L12.1621 332.838C9.49646 337.983 8.18 343.936 8.18 350.668H10.18ZM13.9401 333.754C16.4333 328.883 19.9866 325.16 24.6103 322.559L23.6297 320.816C18.6534 323.615 14.8267 327.633 12.1598 332.842L13.9401 333.754ZM24.6232 322.552C29.1889 319.894 34.5301 318.548 40.68 318.548V316.548C34.2299 316.548 28.5311 317.962 23.6168 320.824L24.6232 322.552ZM40.68 318.548C46.8299 318.548 52.1711 319.894 56.7368 322.552L57.7432 320.824C52.8289 317.962 47.1301 316.548 40.68 316.548V318.548ZM56.7403 322.554C61.2451 325.153 64.7433 328.877 67.2399 333.754L69.0201 332.842C66.3567 327.639 62.5949 323.623 57.7397 320.822L56.7403 322.554ZM67.2421 333.758C69.7365 338.573 71 344.2 71 350.668H73C73 343.936 71.6835 337.983 69.0179 332.838L67.2421 333.758ZM71 350.668V372.628H73V350.668H71ZM72 371.628H9.18V373.628H72V371.628ZM10.18 372.628V350.668H8.18V372.628H10.18ZM62.29 351.118C62.29 344.335 60.4356 338.949 56.5971 335.111L55.1829 336.525C58.5444 339.886 60.29 344.701 60.29 351.118H62.29ZM56.5971 335.111C52.7603 331.274 47.4062 329.418 40.68 329.418V331.418C47.0338 331.418 51.8197 333.162 55.1829 336.525L56.5971 335.111ZM40.68 329.418C33.9529 329.418 28.5733 331.274 24.6788 335.105L26.0812 336.531C29.5067 333.162 34.3271 331.418 40.68 331.418V329.418ZM24.6846 335.099C20.7199 338.936 18.8 344.326 18.8 351.118H20.8C20.8 344.71 22.6001 339.9 26.0754 336.536L24.6846 335.099ZM18.8 351.118V360.028H20.8V351.118H18.8ZM19.8 361.028H61.29V359.028H19.8V361.028ZM62.29 360.028V351.118H60.29V360.028H62.29ZM50.85 262.126H51.85V261.279L51.0144 261.14L50.85 262.126ZM50.85 298.576H49.85V299.663L50.933 299.573L50.85 298.576ZM59.31 294.796L60.0463 295.473L60.0463 295.473L59.31 294.796ZM56.34 276.616H55.34V277.238L55.8981 277.513L56.34 276.616ZM56.34 263.026L56.6273 262.068L55.34 261.682L55.34 263.026H56.34ZM68.22 271.306L69.02 270.706L69.0144 270.699L68.22 271.306ZM69.66 299.296L70.5282 299.792L70.5329 299.784L70.5374 299.776L69.66 299.296ZM60.57 308.206L61.0441 309.087L61.0545 309.081L60.57 308.206ZM33.48 308.206L33.0059 309.087L33.0059 309.087L33.48 308.206ZM24.48 299.386L25.3542 298.901L25.3542 298.901L24.48 299.386ZM24.39 273.646L25.2668 274.127L25.27 274.121L24.39 273.646ZM33.12 264.916L33.5949 265.796L33.6033 265.792L33.6116 265.787L33.12 264.916ZM42.39 274.816H43.39V273.797L42.3715 273.816L42.39 274.816ZM34.65 278.326L35.405 278.982L35.41 278.976L35.4149 278.97L34.65 278.326ZM34.56 294.616L35.3086 293.953L35.3074 293.952L34.56 294.616ZM42.39 298.486L42.2486 299.476L43.39 299.639V298.486H42.39ZM45.99 262.766C47.7471 262.766 49.3107 262.883 50.6856 263.113L51.0144 261.14C49.5093 260.889 47.8329 260.766 45.99 260.766V262.766ZM49.85 262.126L49.85 298.576H51.85L51.85 262.126H49.85ZM50.933 299.573C54.7308 299.256 57.8039 297.913 60.0463 295.473L58.5737 294.12C56.7361 296.119 54.1692 297.296 50.767 297.58L50.933 299.573ZM60.0463 295.473C62.2692 293.054 63.37 290.076 63.37 286.606H61.37C61.37 289.616 60.4308 292.099 58.5737 294.12L60.0463 295.473ZM63.37 286.606C63.37 284.121 62.8353 281.932 61.7186 280.082C60.6004 278.229 58.9368 276.78 56.7818 275.719L55.8981 277.513C57.7632 278.432 59.1146 279.638 60.0064 281.115C60.8997 282.595 61.37 284.411 61.37 286.606H63.37ZM57.34 276.616V263.026H55.34V276.616H57.34ZM56.0527 263.984C60.6457 265.362 64.4301 267.996 67.4256 271.914L69.0144 270.699C65.7699 266.456 61.6343 263.57 56.6273 262.068L56.0527 263.984ZM67.42 271.906C70.3296 275.786 71.81 280.576 71.81 286.336H73.81C73.81 280.217 72.2304 274.987 69.02 270.706L67.42 271.906ZM71.81 286.336C71.81 290.985 70.7946 295.137 68.7826 298.816L70.5374 299.776C72.7254 295.775 73.81 291.287 73.81 286.336H71.81ZM68.7918 298.8C66.7249 302.417 63.8294 305.258 60.0855 307.331L61.0545 309.081C65.1106 306.834 68.2751 303.735 70.5282 299.792L68.7918 298.8ZM60.0959 307.326C56.3623 309.336 52.0298 310.356 47.07 310.356V312.356C52.3102 312.356 56.9777 311.276 61.0441 309.087L60.0959 307.326ZM47.07 310.356C42.0481 310.356 37.686 309.335 33.9541 307.326L33.0059 309.087C37.074 311.277 41.7719 312.356 47.07 312.356V310.356ZM33.9541 307.326C30.2181 305.314 27.3589 302.509 25.3542 298.901L23.6058 299.872C25.8011 303.823 28.9419 306.898 33.0059 309.087L33.9541 307.326ZM25.3542 298.901C23.3475 295.289 22.33 291.11 22.33 286.336H20.33C20.33 291.402 21.4125 295.924 23.6058 299.872L25.3542 298.901ZM22.33 286.336C22.33 281.744 23.3168 277.683 25.2668 274.127L23.5132 273.165C21.3832 277.049 20.33 281.448 20.33 286.336H22.33ZM25.27 274.121C27.2174 270.513 29.9866 267.744 33.5949 265.796L32.6451 264.036C28.6934 266.169 25.6426 269.22 23.51 273.171L25.27 274.121ZM33.6116 265.787C37.1619 263.783 41.2782 262.766 45.99 262.766V260.766C40.9818 260.766 36.5181 261.85 32.6284 264.045L33.6116 265.787ZM42.3715 273.816C38.8714 273.881 36.0084 275.161 33.8851 277.682L35.4149 278.97C37.1316 276.932 39.4286 275.871 42.4085 275.816L42.3715 273.816ZM33.895 277.67C31.7419 280.15 30.68 283.179 30.68 286.696H32.68C32.68 283.613 33.5981 281.063 35.405 278.982L33.895 277.67ZM30.68 286.696C30.68 290.04 31.7164 292.922 33.8126 295.281L35.3074 293.952C33.5636 291.99 32.68 289.592 32.68 286.696H30.68ZM33.8114 295.279C35.8599 297.592 38.7052 298.97 42.2486 299.476L42.5314 297.496C39.3548 297.042 36.9801 295.84 35.3086 293.953L33.8114 295.279ZM43.39 298.486V274.816H41.39V298.486H43.39ZM70.65 244.469L71.5575 244.889L71.5607 244.882L71.5638 244.875L70.65 244.469ZM64.62 252.209L65.2139 253.014L65.22 253.009L65.226 253.005L64.62 252.209ZM56.25 255.269H55.25V256.33L56.3087 256.268L56.25 255.269ZM56.25 242.579L56.126 241.587L55.25 241.697V242.579H56.25ZM61.02 239.789L61.8094 240.403L61.8147 240.396L61.82 240.389L61.02 239.789ZM61.47 227.999L60.6491 228.57L60.6551 228.579L60.6613 228.587L61.47 227.999ZM54.18 228.449L55.0678 228.91L55.0778 228.89L55.087 228.87L54.18 228.449ZM51.48 236.279L50.5138 236.022L50.5108 236.033L50.508 236.044L51.48 236.279ZM48.69 245.459L49.6152 245.839L49.6185 245.831L48.69 245.459ZM44.28 251.579L44.927 252.342L44.9336 252.336L44.9401 252.33L44.28 251.579ZM28.71 251.759L28.1308 252.574L28.138 252.58L28.1453 252.585L28.71 251.759ZM23.31 244.919L22.3947 245.322L22.3977 245.329L23.31 244.919ZM25.83 220.169L26.5929 220.816L26.5993 220.808L25.83 220.169ZM37.8 214.319H38.8V213.245L37.7288 213.322L37.8 214.319ZM37.8 226.379L37.8905 227.375L38.8 227.293V226.379H37.8ZM33.12 228.899L33.8882 229.539L33.9026 229.522L33.9162 229.504L33.12 228.899ZM32.58 240.059L31.7479 240.614L31.7543 240.623L31.7608 240.633L32.58 240.059ZM39.96 239.339L40.8415 239.812L40.8481 239.799L40.8544 239.787L39.96 239.339ZM42.57 231.509L43.5392 231.756L43.5401 231.752L42.57 231.509ZM49.86 216.569L50.4957 217.341L50.5081 217.331L50.5201 217.32L49.86 216.569ZM57.78 213.869V212.869H57.7709L57.7618 212.869L57.78 213.869ZM65.52 216.299L64.9408 217.114L64.948 217.12L64.9553 217.125L65.52 216.299ZM70.92 223.139L71.8392 222.745L71.8353 222.737L70.92 223.139ZM71.81 233.489C71.81 237.45 71.1114 240.969 69.7362 244.063L71.5638 244.875C73.0686 241.49 73.81 237.688 73.81 233.489H71.81ZM69.7425 244.049C68.3022 247.16 66.3887 249.605 64.014 251.414L65.226 253.005C67.8913 250.974 69.9978 248.258 71.5575 244.889L69.7425 244.049ZM64.0261 251.405C61.6584 253.152 59.0535 254.103 56.1913 254.271L56.3087 256.268C59.5665 256.076 62.5416 254.986 65.2139 253.014L64.0261 251.405ZM57.25 255.269V242.579H55.25V255.269H57.25ZM56.374 243.572C58.5744 243.297 60.3975 242.218 61.8094 240.403L60.2306 239.175C59.1225 240.6 57.7656 241.382 56.126 241.587L56.374 243.572ZM61.82 240.389C63.2311 238.508 63.91 236.217 63.91 233.579H61.91C61.91 235.861 61.3289 237.711 60.22 239.189L61.82 240.389ZM63.91 233.579C63.91 231.063 63.4092 228.965 62.2787 227.411L60.6613 228.587C61.4508 229.673 61.91 231.296 61.91 233.579H63.91ZM62.2909 227.428C61.1702 225.817 59.6508 224.929 57.78 224.929V226.929C58.9092 226.929 59.8498 227.421 60.6491 228.57L62.2909 227.428ZM57.78 224.929C56.7876 224.929 55.8773 225.19 55.0915 225.74C54.3138 226.284 53.7178 227.07 53.273 228.028L55.087 228.87C55.4222 228.149 55.8162 227.674 56.2385 227.379C56.6527 227.089 57.1524 226.929 57.78 226.929V224.929ZM53.2922 227.989C52.3997 229.71 51.4773 232.408 50.5138 236.022L52.4462 236.537C53.4027 232.95 54.2803 230.428 55.0678 228.91L53.2922 227.989ZM50.508 236.044C49.6145 239.738 48.6976 242.748 47.7615 245.088L49.6185 245.831C50.6024 243.371 51.5455 240.261 52.452 236.514L50.508 236.044ZM47.7648 245.08C46.8658 247.271 45.4891 249.185 43.6199 250.828L44.9401 252.33C47.0309 250.493 48.5942 248.328 49.6152 245.839L47.7648 245.08ZM43.633 250.817C41.8814 252.303 39.464 253.099 36.27 253.099V255.099C39.796 255.099 42.7186 254.216 44.927 252.342L43.633 250.817ZM36.27 253.099C33.7117 253.099 31.3885 252.38 29.2747 250.934L28.1453 252.585C30.5915 254.258 33.3083 255.099 36.27 255.099V253.099ZM29.2892 250.944C27.1753 249.442 25.4806 247.312 24.2223 244.51L22.3977 245.329C23.7794 248.406 25.6847 250.836 28.1308 252.574L29.2892 250.944ZM24.2253 244.517C22.9723 241.669 22.33 238.301 22.33 234.389H20.33C20.33 238.517 21.0077 242.17 22.3947 245.322L24.2253 244.517ZM22.33 234.389C22.33 228.618 23.7848 224.129 26.5929 220.816L25.0671 219.523C21.8752 223.289 20.33 228.28 20.33 234.389H22.33ZM26.5993 220.808C29.3472 217.5 33.0736 215.659 37.8712 215.317L37.7288 213.322C32.4464 213.699 28.1928 215.759 25.0607 219.53L26.5993 220.808ZM36.8 214.319V226.379H38.8V214.319H36.8ZM37.7095 225.383C35.4672 225.587 33.6441 226.557 32.3238 228.294L33.9162 229.504C34.8759 228.242 36.1728 227.531 37.8905 227.375L37.7095 225.383ZM32.3518 228.259C30.9607 229.928 30.32 232.129 30.32 234.749H32.32C32.32 232.449 32.8793 230.75 33.8882 229.539L32.3518 228.259ZM30.32 234.749C30.32 237.133 30.7561 239.126 31.7479 240.614L33.412 239.505C32.7239 238.472 32.32 236.925 32.32 234.749H30.32ZM31.7608 240.633C32.7932 242.108 34.273 242.859 36.09 242.859V240.859C34.907 240.859 34.0468 240.411 33.3992 239.486L31.7608 240.633ZM36.09 242.859C37.1053 242.859 38.041 242.603 38.8632 242.067C39.6788 241.536 40.3307 240.765 40.8415 239.812L39.0785 238.867C38.6893 239.594 38.2462 240.082 37.7718 240.391C37.304 240.696 36.7547 240.859 36.09 240.859V242.859ZM40.8544 239.787C41.7439 238.008 42.6348 235.313 43.5392 231.756L41.6008 231.263C40.7052 234.786 39.8561 237.311 39.0656 238.892L40.8544 239.787ZM43.5401 231.752C44.4333 228.179 45.3497 225.259 46.2852 222.979L44.4348 222.22C43.4503 224.62 42.5067 227.639 41.5999 231.267L43.5401 231.752ZM46.2852 222.979C47.1797 220.798 48.5772 218.921 50.4957 217.341L49.2243 215.797C47.0628 217.577 45.4603 219.72 44.4348 222.22L46.2852 222.979ZM50.5201 217.32C52.281 215.773 54.6734 214.926 57.7982 214.869L57.7618 212.869C54.2866 212.933 51.399 213.886 49.1999 215.818L50.5201 217.32ZM57.78 214.869C60.459 214.869 62.8353 215.618 64.9408 217.114L66.0992 215.484C63.6447 213.74 60.861 212.869 57.78 212.869V214.869ZM64.9553 217.125C67.0546 218.561 68.7457 220.681 70.0047 223.542L71.8353 222.737C70.4543 219.598 68.5454 217.158 66.0847 215.474L64.9553 217.125ZM70.0009 223.533C71.1964 226.323 71.81 229.633 71.81 233.489H73.81C73.81 229.425 73.1636 225.836 71.8391 222.745L70.0009 223.533ZM14.13 202.716L14.8371 203.423L14.8518 203.409L14.8659 203.393L14.13 202.716ZM3.6 202.716L4.32198 202.024L4.32138 202.024L3.6 202.716ZM3.6 191.646L4.3071 192.353L4.32183 192.339L4.33593 192.323L3.6 191.646ZM14.13 191.646L14.852 190.954L14.8514 190.954L14.13 191.646ZM22.14 190.926V189.926H21.14V190.926H22.14ZM72 190.926H73V189.926H72V190.926ZM72 203.526V204.526H73V203.526H72ZM22.14 203.526H21.14V204.526H22.14V203.526ZM15.2 197.136C15.2 199.13 14.5885 200.741 13.3941 202.039L14.8659 203.393C16.4315 201.692 17.2 199.583 17.2 197.136H15.2ZM13.4229 202.009C12.1769 203.255 10.664 203.876 8.82 203.876L8.82 205.876C11.176 205.876 13.2031 205.057 14.8371 203.423L13.4229 202.009ZM8.82 203.876C6.97645 203.876 5.50249 203.256 4.32198 202.024L2.87801 203.408C4.4575 205.056 6.46355 205.876 8.82 205.876L8.82 203.876ZM4.32138 202.024C3.07305 200.723 2.44 199.117 2.44 197.136H0.439996C0.439996 199.595 1.24694 201.709 2.87861 203.409L4.32138 202.024ZM2.44 197.136C2.44 195.155 3.07247 193.588 4.3071 192.353L2.89289 190.939C1.24752 192.585 0.439996 194.677 0.439996 197.136H2.44ZM4.33593 192.323C5.52016 191.036 6.99007 190.396 8.82 190.396V188.396C6.44993 188.396 4.43983 189.256 2.86406 190.969L4.33593 192.323ZM8.82 190.396C10.6508 190.396 12.1593 191.037 13.4086 192.339L14.8514 190.954C13.2207 189.255 11.1892 188.396 8.82 188.396V190.396ZM13.408 192.338C14.5888 193.57 15.2 195.142 15.2 197.136H17.2C17.2 194.69 16.4312 192.602 14.852 190.954L13.408 192.338ZM22.14 191.926H72V189.926H22.14V191.926ZM71 190.926V203.526H73V190.926H71ZM72 202.526H22.14V204.526H72V202.526ZM23.14 203.526V190.926H21.14V203.526H23.14ZM23.58 149.137L24.4629 149.607L24.4668 149.6L24.4706 149.592L23.58 149.137ZM29.25 142.477L29.8192 143.3L32.4513 141.477H29.25V142.477ZM22.14 142.477H21.14V143.477H22.14V142.477ZM22.14 129.787V128.787H21.14V129.787H22.14ZM84.69 132.577L84.231 133.466L84.237 133.469L84.69 132.577ZM93.33 140.947L92.4591 141.439L92.4652 141.45L93.33 140.947ZM91.62 171.907L92.4264 172.499L92.4301 172.494L91.62 171.907ZM78.12 179.557H77.12V180.668L78.2247 180.552L78.12 179.557ZM78.12 167.047L77.8419 166.087L77.12 166.296V167.047H78.12ZM83.52 162.817L82.6707 162.29L82.6667 162.296L83.52 162.817ZM82.26 145.897L81.534 146.585L81.5435 146.595L82.26 145.897ZM64.62 142.477V141.477H61.4187L64.0508 143.3L64.62 142.477ZM70.47 149.227L69.5907 149.704L69.595 149.712L70.47 149.227ZM69.57 170.467L68.7204 169.94L68.7204 169.94L69.57 170.467ZM60.48 178.748L60.9272 179.642L60.9354 179.638L60.9435 179.634L60.48 178.748ZM33.48 178.748L33.0165 179.634L33.0273 179.639L33.48 178.748ZM24.48 170.557L23.6238 171.074L23.6278 171.081L24.48 170.557ZM39.24 144.277L39.7155 145.157L39.7256 145.152L39.24 144.277ZM34.2 149.137L35.0619 149.645L35.0675 149.635L35.0729 149.625L34.2 149.137ZM34.11 162.188L33.2434 162.686L33.2434 162.686L34.11 162.188ZM39.15 167.047L38.6564 167.917L38.6644 167.922L39.15 167.047ZM54.81 167.047L55.2757 167.932L55.2898 167.925L55.3036 167.917L54.81 167.047ZM59.94 162.188L60.7953 162.706L60.8019 162.695L59.94 162.188ZM60.03 149.137L60.9029 148.65L60.8975 148.64L60.8919 148.63L60.03 149.137ZM54.99 144.277L55.4757 143.403L55.4655 143.398L54.99 144.277ZM22.33 158.947C22.33 155.364 23.0516 152.26 24.4629 149.607L22.6971 148.668C21.1084 151.655 20.33 155.091 20.33 158.947H22.33ZM24.4706 149.592C25.8441 146.903 27.6298 144.815 29.8192 143.3L28.6808 141.655C26.1902 143.38 24.1959 145.732 22.6894 148.683L24.4706 149.592ZM29.25 141.477H22.14V143.477H29.25V141.477ZM23.14 142.477V129.787H21.14V142.477H23.14ZM22.14 130.787H72.36V128.787H22.14V130.787ZM72.36 130.787C76.8428 130.787 80.7916 131.689 84.231 133.466L85.149 131.689C81.3884 129.746 77.1172 128.787 72.36 128.787V130.787ZM84.237 133.469C87.714 135.236 90.4519 137.883 92.4592 141.439L94.2008 140.456C92.0081 136.572 88.986 133.639 85.1431 131.686L84.237 133.469ZM92.4652 141.45C94.5186 144.986 95.57 149.304 95.57 154.447H97.57C97.57 149.031 96.4614 144.349 94.1948 140.445L92.4652 141.45ZM95.57 154.447C95.57 161.372 93.9578 166.971 90.8099 171.321L92.4301 172.494C95.8822 167.724 97.57 161.683 97.57 154.447H95.57ZM90.8136 171.316C87.6853 175.582 83.4437 177.992 78.0153 178.563L78.2247 180.552C84.1963 179.923 88.9547 177.233 92.4264 172.499L90.8136 171.316ZM79.12 179.557V167.047H77.12V179.557H79.12ZM78.3981 168.008C80.9348 167.274 82.9325 165.697 84.3733 163.339L82.6667 162.296C81.4675 164.258 79.8652 165.501 77.8419 166.087L78.3981 168.008ZM84.3693 163.345C85.8654 160.939 86.59 158.078 86.59 154.807H84.59C84.59 157.777 83.9346 160.256 82.6707 162.29L84.3693 163.345ZM86.59 154.807C86.59 150.929 85.4058 147.695 82.9765 145.2L81.5435 146.595C83.5542 148.66 84.59 151.366 84.59 154.807H86.59ZM82.986 145.21C80.57 142.66 76.9587 141.477 72.36 141.477V143.477C76.6413 143.477 79.63 144.575 81.534 146.585L82.986 145.21ZM72.36 141.477H64.62V143.477H72.36V141.477ZM64.0508 143.3C66.2435 144.818 68.0942 146.941 69.5907 149.704L71.3493 148.751C69.7258 145.754 67.6765 143.377 65.1892 141.655L64.0508 143.3ZM69.595 149.712C71.0624 152.364 71.81 155.434 71.81 158.947H73.81C73.81 155.141 72.9976 151.731 71.345 148.743L69.595 149.712ZM71.81 158.947C71.81 162.966 70.7795 166.623 68.7204 169.94L70.4196 170.995C72.6805 167.352 73.81 163.329 73.81 158.947H71.81ZM68.7204 169.94C66.6617 173.257 63.7703 175.898 60.0165 177.861L60.9435 179.634C64.9897 177.517 68.1583 174.638 70.4196 170.995L68.7204 169.94ZM60.0328 177.853C56.2313 179.754 51.8584 180.718 46.89 180.718V182.718C52.1216 182.718 56.8087 181.701 60.9272 179.642L60.0328 177.853ZM46.89 180.718C41.9833 180.718 37.6724 179.754 33.9327 177.856L33.0273 179.639C37.0875 181.701 41.7167 182.718 46.89 182.718V180.718ZM33.9435 177.861C30.1875 175.897 27.3287 173.286 25.3322 170.034L23.6278 171.081C25.8313 174.669 28.9725 177.518 33.0165 179.634L33.9435 177.861ZM25.3362 170.041C23.3349 166.724 22.33 163.035 22.33 158.947H20.33C20.33 163.38 21.4251 167.431 23.6238 171.074L25.3362 170.041ZM47.07 141.477C43.8801 141.477 41.0944 142.103 38.7544 143.403L39.7256 145.152C41.7056 144.052 44.1399 143.477 47.07 143.477V141.477ZM38.7645 143.398C36.3914 144.681 34.5671 146.431 33.3271 148.65L35.0729 149.625C36.1129 147.764 37.6486 146.274 39.7155 145.157L38.7645 143.398ZM33.3381 148.63C32.0488 150.822 31.4 153.187 31.4 155.707H33.4C33.4 153.548 33.9512 151.533 35.0619 149.645L33.3381 148.63ZM31.4 155.707C31.4 158.218 32.0138 160.551 33.2434 162.686L34.9766 161.689C33.9262 159.864 33.4 157.877 33.4 155.707H31.4ZM33.2434 162.686C34.4825 164.839 36.2998 166.58 38.6564 167.917L39.6436 166.178C37.5602 164.995 36.0175 163.496 34.9766 161.689L33.2434 162.686ZM38.6644 167.922C41.0016 169.22 43.7562 169.847 46.89 169.847V167.847C44.0238 167.847 41.6184 167.275 39.6356 166.173L38.6644 167.922ZM46.89 169.847C50.0255 169.847 52.8302 169.22 55.2757 167.932L54.3443 166.163C52.2298 167.275 49.7545 167.847 46.89 167.847V169.847ZM55.3036 167.917C57.6566 166.582 59.4978 164.846 60.7952 162.706L59.0848 161.669C57.9822 163.489 56.4034 164.993 54.3164 166.178L55.3036 167.917ZM60.8019 162.695C62.0887 160.507 62.74 158.173 62.74 155.707H60.74C60.74 157.802 60.1913 159.788 59.0781 161.68L60.8019 162.695ZM62.74 155.707C62.74 153.197 62.1264 150.839 60.9029 148.65L59.1571 149.625C60.2136 151.516 60.74 153.538 60.74 155.707H62.74ZM60.8919 148.63C59.5974 146.43 57.7844 144.686 55.4756 143.403L54.5044 145.152C56.5156 146.269 58.0626 147.765 59.1681 149.645L60.8919 148.63ZM55.4655 143.398C53.0715 142.104 50.261 141.477 47.07 141.477V143.477C49.999 143.477 52.4685 144.051 54.5145 145.157L55.4655 143.398ZM27.09 75.4514L27.7856 76.1698L27.7913 76.1642L27.09 75.4514ZM72 69.9614H73V68.9614H72V69.9614ZM72 82.5614V83.5614H73V82.5614H72ZM35.37 85.5314L36.0458 86.2686L36.056 86.259L35.37 85.5314ZM35.37 101.911L34.6834 102.638L34.684 102.639L35.37 101.911ZM72 104.881H73V103.881H72V104.881ZM72 117.481V118.481H73V117.481H72ZM22.14 117.481H21.14V118.481H22.14V117.481ZM22.14 104.881V103.881H21.14V104.881H22.14ZM28.35 104.881V105.881H31.2645L28.9639 104.092L28.35 104.881ZM23.31 98.4914L24.2168 98.0697L24.2125 98.0607L23.31 98.4914ZM22.42 89.8514C22.42 84.1439 24.226 79.6164 27.7856 76.1698L26.3944 74.733C22.394 78.6064 20.42 83.6789 20.42 89.8514H22.42ZM27.7913 76.1642C31.2748 72.737 36.2137 70.9614 42.75 70.9614V68.9614C35.8463 68.9614 30.3452 70.8458 26.3887 74.7386L27.7913 76.1642ZM42.75 70.9614H72V68.9614H42.75V70.9614ZM71 69.9614V82.5614H73V69.9614H71ZM72 81.5614H44.46V83.5614H72V81.5614ZM44.46 81.5614C40.3411 81.5614 37.0294 82.5925 34.684 84.8038L36.056 86.259C37.9106 84.5103 40.6589 83.5614 44.46 83.5614V81.5614ZM34.6943 84.7942C32.2926 86.9958 31.13 89.9824 31.13 93.6314H33.13C33.13 90.4404 34.1274 88.0271 36.0457 86.2686L34.6943 84.7942ZM31.13 93.6314C31.13 97.3352 32.2889 100.377 34.6834 102.638L36.0566 101.184C34.1311 99.3658 33.13 96.8876 33.13 93.6314H31.13ZM34.684 102.639C37.0294 104.85 40.3411 105.881 44.46 105.881V103.881C40.6589 103.881 37.9106 102.932 36.056 101.184L34.684 102.639ZM44.46 105.881H72V103.881H44.46V105.881ZM71 104.881V117.481H73V104.881H71ZM72 116.481H22.14V118.481H72V116.481ZM23.14 117.481V104.881H21.14V117.481H23.14ZM22.14 105.881H28.35V103.881H22.14V105.881ZM28.9639 104.092C26.9344 102.514 25.3525 100.512 24.2167 98.0697L22.4033 98.9131C23.6675 101.631 25.4456 103.889 27.7361 105.671L28.9639 104.092ZM24.2125 98.0607C23.0209 95.564 22.42 92.8325 22.42 89.8514H20.42C20.42 93.1103 21.0791 96.1388 22.4075 98.9221L24.2125 98.0607ZM10.26 6.83414L9.77435 5.95998L8.74565 6.53148L9.47566 7.45448L10.26 6.83414ZM18.36 2.33414L19.3004 1.99414L18.9011 0.889577L17.8744 1.45998L18.36 2.33414ZM22.59 14.0341L21.6496 14.3741L22.59 16.9753L23.5304 14.3741L22.59 14.0341ZM26.82 2.33414L27.308 1.46131L26.28 0.886512L25.8796 1.99414L26.82 2.33414ZM35.19 7.01414L35.9617 7.6501L36.7234 6.72582L35.678 6.14131L35.19 7.01414ZM27.18 16.7341L26.4083 16.0982L24.7094 18.1597L27.3444 17.7205L27.18 16.7341ZM39.6 14.6641H40.6V13.4837L39.4356 13.6777L39.6 14.6641ZM39.6 24.0241L39.4426 25.0117L40.6 25.1962V24.0241H39.6ZM27.18 22.0441L27.3374 21.0566L24.6651 20.6306L26.4182 22.692L27.18 22.0441ZM35.37 31.6741L35.8671 32.5418L36.9117 31.9434L36.1318 31.0263L35.37 31.6741ZM26.73 36.6241L25.7896 36.9641L26.1943 38.0836L27.2271 37.4918L26.73 36.6241ZM22.5 24.9241L23.4404 24.5841L22.4832 21.9364L21.5558 24.5948L22.5 24.9241ZM18.45 36.5341L17.9652 37.4087L19.0033 37.9842L19.3942 36.8635L18.45 36.5341ZM10.17 31.9441L9.38638 31.3229L8.65376 32.247L9.68516 32.8187L10.17 31.9441ZM18.09 21.9541L18.8736 22.5754L20.4837 20.5445L17.9267 20.9676L18.09 21.9541ZM5.58 24.0241H4.58V25.2032L5.74324 25.0107L5.58 24.0241ZM5.58 14.5741L5.75014 13.5887L4.58 13.3867V14.5741H5.58ZM18.09 16.7341L17.9199 17.7196L20.4962 18.1644L18.8743 16.1138L18.09 16.7341ZM10.7456 7.7083L18.8456 3.2083L17.8744 1.45998L9.77435 5.95998L10.7456 7.7083ZM17.4196 2.67414L21.6496 14.3741L23.5304 13.6941L19.3004 1.99414L17.4196 2.67414ZM23.5304 14.3741L27.7604 2.67414L25.8796 1.99414L21.6496 13.6941L23.5304 14.3741ZM26.332 3.20696L34.702 7.88697L35.678 6.14131L27.308 1.46131L26.332 3.20696ZM34.4183 6.37818L26.4083 16.0982L27.9517 17.3701L35.9617 7.6501L34.4183 6.37818ZM27.3444 17.7205L39.7644 15.6505L39.4356 13.6777L27.0156 15.7477L27.3444 17.7205ZM38.6 14.6641V24.0241H40.6V14.6641H38.6ZM39.7574 23.0366L27.3374 21.0566L27.0226 23.0317L39.4426 25.0117L39.7574 23.0366ZM26.4182 22.692L34.6082 32.322L36.1318 31.0263L27.9418 21.3963L26.4182 22.692ZM34.8729 30.8065L26.2329 35.7565L27.2271 37.4918L35.8671 32.5418L34.8729 30.8065ZM27.6704 36.2841L23.4404 24.5841L21.5596 25.2641L25.7896 36.9641L27.6704 36.2841ZM21.5558 24.5948L17.5058 36.2048L19.3942 36.8635L23.4442 25.2535L21.5558 24.5948ZM18.9348 35.6595L10.6548 31.0695L9.68516 32.8187L17.9652 37.4087L18.9348 35.6595ZM10.9536 32.5654L18.8736 22.5754L17.3064 21.3329L9.38638 31.3229L10.9536 32.5654ZM17.9267 20.9676L5.41675 23.0376L5.74324 25.0107L18.2532 22.9407L17.9267 20.9676ZM6.58 24.0241V14.5741H4.58V24.0241H6.58ZM5.40985 15.5596L17.9199 17.7196L18.2601 15.7487L5.75014 13.5887L5.40985 15.5596ZM18.8743 16.1138L11.0443 6.2138L9.47566 7.45448L17.3057 17.3545L18.8743 16.1138Z" fill="black" mask="url(#path-1-outside-1_2871_13706)"/>
</g>
</svg>
