<svg width="98" height="356" viewBox="0 0 98 356" fill="none" xmlns="http://www.w3.org/2000/svg">
<g opacity="0.24">
<mask id="path-1-outside-1_2871_13709" maskUnits="userSpaceOnUse" x="0" y="0" width="98" height="356" fill="black">
<rect fill="white" width="98" height="356"/>
<path d="M9.18 332.615C9.18 326.015 10.47 320.225 13.05 315.245C15.63 310.205 19.32 306.335 24.12 303.635C28.86 300.875 34.38 299.495 40.68 299.495C46.98 299.495 52.5 300.875 57.24 303.635C61.92 306.335 65.55 310.205 68.13 315.245C70.71 320.225 72 326.015 72 332.615V354.575H9.18V332.615ZM61.29 333.065C61.29 326.465 59.49 321.365 55.89 317.765C52.29 314.165 47.22 312.365 40.68 312.365C34.14 312.365 29.04 314.165 25.38 317.765C21.66 321.365 19.8 326.465 19.8 333.065V341.975H61.29V333.065ZM16.2 283.673C16.2 285.893 15.51 287.753 14.13 289.253C12.69 290.693 10.92 291.413 8.82 291.413C6.72 291.413 4.98 290.693 3.6 289.253C2.16 287.753 1.44 285.893 1.44 283.673C1.44 281.453 2.16 279.623 3.6 278.183C4.98 276.683 6.72 275.933 8.82 275.933C10.92 275.933 12.69 276.683 14.13 278.183C15.51 279.623 16.2 281.453 16.2 283.673ZM22.14 277.463H72V290.063H22.14V277.463ZM21.33 245.485C21.33 241.765 22.08 238.495 23.58 235.675C25.02 232.855 26.91 230.635 29.25 229.015H22.14V216.325H72.36C76.98 216.325 81.09 217.255 84.69 219.115C88.35 220.975 91.23 223.765 93.33 227.485C95.49 231.205 96.57 235.705 96.57 240.985C96.57 248.065 94.92 253.885 91.62 258.445C88.32 262.945 83.82 265.495 78.12 266.095V253.585C80.4 252.925 82.2 251.515 83.52 249.355C84.9 247.135 85.59 244.465 85.59 241.345C85.59 237.685 84.48 234.715 82.26 232.435C80.1 230.155 76.8 229.015 72.36 229.015H64.62C66.96 230.635 68.91 232.885 70.47 235.765C72.03 238.585 72.81 241.825 72.81 245.485C72.81 249.685 71.73 253.525 69.57 257.005C67.41 260.485 64.38 263.245 60.48 265.285C56.52 267.265 51.99 268.255 46.89 268.255C41.85 268.255 37.38 267.265 33.48 265.285C29.58 263.245 26.58 260.515 24.48 257.095C22.38 253.615 21.33 249.745 21.33 245.485ZM47.07 229.015C44.01 229.015 41.4 229.615 39.24 230.815C37.02 232.015 35.34 233.635 34.2 235.675C33 237.715 32.4 239.905 32.4 242.245C32.4 244.585 32.97 246.745 34.11 248.725C35.25 250.705 36.93 252.325 39.15 253.585C41.31 254.785 43.89 255.385 46.89 255.385C49.89 255.385 52.53 254.785 54.81 253.585C57.03 252.325 58.74 250.705 59.94 248.725C61.14 246.685 61.74 244.525 61.74 242.245C61.74 239.905 61.17 237.715 60.03 235.675C58.83 233.635 57.15 232.015 54.99 230.815C52.77 229.615 50.13 229.015 47.07 229.015ZM16.2 197.629C16.2 199.849 15.51 201.709 14.13 203.209C12.69 204.649 10.92 205.369 8.82 205.369C6.72 205.369 4.98 204.649 3.6 203.209C2.16 201.709 1.44 199.849 1.44 197.629C1.44 195.409 2.16 193.579 3.6 192.139C4.98 190.639 6.72 189.889 8.82 189.889C10.92 189.889 12.69 190.639 14.13 192.139C15.51 193.579 16.2 195.409 16.2 197.629ZM22.14 191.419H72V204.019H22.14V191.419ZM32.49 164.3H56.61C58.29 164.3 59.52 163.91 60.3 163.13C61.02 162.29 61.38 160.91 61.38 158.99V153.14H72V161.06C72 171.68 66.84 176.99 56.52 176.99H32.49V182.93H22.14V176.99H9.81V164.3H22.14V153.14H32.49V164.3ZM46.89 147.317C41.85 147.317 37.38 146.327 33.48 144.347C29.58 142.307 26.58 139.577 24.48 136.157C22.38 132.677 21.33 128.807 21.33 124.547C21.33 120.827 22.08 117.587 23.58 114.827C25.08 112.007 26.97 109.757 29.25 108.077H22.14V95.3871H72V108.077H64.71C67.05 109.697 69 111.947 70.56 114.827C72.06 117.647 72.81 120.917 72.81 124.637C72.81 128.837 71.73 132.677 69.57 136.157C67.41 139.577 64.38 142.307 60.48 144.347C56.52 146.327 51.99 147.317 46.89 147.317ZM47.07 108.077C44.01 108.077 41.4 108.677 39.24 109.877C37.02 111.077 35.34 112.697 34.2 114.737C33 116.777 32.4 118.967 32.4 121.307C32.4 123.647 32.97 125.807 34.11 127.787C35.25 129.767 36.93 131.387 39.15 132.647C41.31 133.847 43.89 134.447 46.89 134.447C49.89 134.447 52.53 133.847 54.81 132.647C57.03 131.387 58.74 129.767 59.94 127.787C61.14 125.747 61.74 123.587 61.74 121.307C61.74 118.967 61.17 116.777 60.03 114.737C58.83 112.697 57.15 111.077 54.99 109.877C52.77 108.677 50.13 108.077 47.07 108.077ZM5.4 70.481H72V83.081H5.4L5.4 70.481ZM10.26 6.88687L18.36 2.38687L22.59 14.0869L26.82 2.38687L35.19 7.06687L27.18 16.7869L39.6 14.7169V24.0769L27.18 22.0969L35.37 31.7269L26.73 36.6769L22.5 24.9769L18.45 36.5869L10.17 31.9969L18.09 22.0069L5.58 24.0769V14.6269L18.09 16.7869L10.26 6.88687Z"/>
</mask>
<path d="M13.05 315.245L13.9379 315.705L13.9401 315.701L13.05 315.245ZM24.12 303.635L24.6103 304.507L24.6168 304.503L24.6232 304.499L24.12 303.635ZM57.24 303.635L56.7368 304.499L56.7403 304.501L57.24 303.635ZM68.13 315.245L67.2398 315.701L67.2421 315.705L68.13 315.245ZM72 354.575V355.575H73V354.575H72ZM9.18 354.575H8.18V355.575H9.18V354.575ZM55.89 317.765L55.1829 318.472L55.1829 318.472L55.89 317.765ZM25.38 317.765L26.0754 318.484L26.0812 318.478L25.38 317.765ZM19.8 341.975H18.8V342.975H19.8V341.975ZM61.29 341.975V342.975H62.29V341.975H61.29ZM10.18 332.615C10.18 326.147 11.4435 320.52 13.9379 315.705L12.1621 314.785C9.49646 319.93 8.18 325.883 8.18 332.615H10.18ZM13.9401 315.701C16.4333 310.831 19.9866 307.108 24.6103 304.507L23.6297 302.764C18.6534 305.563 14.8267 309.58 12.1598 314.789L13.9401 315.701ZM24.6232 304.499C29.1889 301.841 34.5301 300.495 40.68 300.495V298.495C34.2299 298.495 28.5311 299.909 23.6168 302.771L24.6232 304.499ZM40.68 300.495C46.8299 300.495 52.1711 301.841 56.7368 304.499L57.7432 302.771C52.8289 299.909 47.1301 298.495 40.68 298.495V300.495ZM56.7403 304.501C61.2451 307.1 64.7433 310.824 67.2399 315.701L69.0201 314.789C66.3567 309.587 62.5949 305.57 57.7397 302.769L56.7403 304.501ZM67.2421 315.705C69.7365 320.52 71 326.147 71 332.615H73C73 325.883 71.6835 319.93 69.0179 314.785L67.2421 315.705ZM71 332.615V354.575H73V332.615H71ZM72 353.575H9.18V355.575H72V353.575ZM10.18 354.575V332.615H8.18V354.575H10.18ZM62.29 333.065C62.29 326.282 60.4356 320.897 56.5971 317.058L55.1829 318.472C58.5444 321.834 60.29 326.648 60.29 333.065H62.29ZM56.5971 317.058C52.7603 313.221 47.4062 311.365 40.68 311.365V313.365C47.0338 313.365 51.8197 315.109 55.1829 318.472L56.5971 317.058ZM40.68 311.365C33.9529 311.365 28.5733 313.221 24.6788 317.052L26.0812 318.478C29.5067 315.109 34.3271 313.365 40.68 313.365V311.365ZM24.6846 317.047C20.7199 320.883 18.8 326.273 18.8 333.065H20.8C20.8 326.657 22.6001 321.847 26.0754 318.484L24.6846 317.047ZM18.8 333.065V341.975H20.8V333.065H18.8ZM19.8 342.975H61.29V340.975H19.8V342.975ZM62.29 341.975V333.065H60.29V341.975H62.29ZM14.13 289.253L14.8371 289.961L14.8518 289.946L14.8659 289.93L14.13 289.253ZM3.6 289.253L4.32198 288.562L4.32138 288.561L3.6 289.253ZM3.6 278.183L4.3071 278.891L4.32183 278.876L4.33593 278.86L3.6 278.183ZM14.13 278.183L14.852 277.492L14.8514 277.491L14.13 278.183ZM22.14 277.463V276.463H21.14V277.463H22.14ZM72 277.463H73V276.463H72V277.463ZM72 290.063V291.063H73V290.063H72ZM22.14 290.063H21.14V291.063H22.14V290.063ZM15.2 283.673C15.2 285.667 14.5885 287.278 13.3941 288.576L14.8659 289.93C16.4315 288.229 17.2 286.12 17.2 283.673H15.2ZM13.4229 288.546C12.1769 289.792 10.664 290.413 8.82 290.413V292.413C11.176 292.413 13.2031 291.595 14.8371 289.961L13.4229 288.546ZM8.82 290.413C6.97645 290.413 5.50249 289.793 4.32198 288.562L2.87801 289.945C4.4575 291.594 6.46355 292.413 8.82 292.413V290.413ZM4.32138 288.561C3.07305 287.261 2.44 285.655 2.44 283.673H0.439996C0.439996 286.132 1.24694 288.246 2.87861 289.946L4.32138 288.561ZM2.44 283.673C2.44 281.692 3.07247 280.125 4.3071 278.891L2.89289 277.476C1.24752 279.122 0.439996 281.215 0.439996 283.673H2.44ZM4.33593 278.86C5.52016 277.573 6.99007 276.933 8.82 276.933V274.933C6.44993 274.933 4.43983 275.794 2.86406 277.506L4.33593 278.86ZM8.82 276.933C10.6508 276.933 12.1593 277.575 13.4086 278.876L14.8514 277.491C13.2207 275.792 11.1892 274.933 8.82 274.933V276.933ZM13.408 278.875C14.5888 280.107 15.2 281.68 15.2 283.673H17.2C17.2 281.227 16.4312 279.139 14.852 277.492L13.408 278.875ZM22.14 278.463H72V276.463H22.14V278.463ZM71 277.463V290.063H73V277.463H71ZM72 289.063H22.14V291.063H72V289.063ZM23.14 290.063V277.463H21.14V290.063H23.14ZM23.58 235.675L24.4629 236.144L24.4668 236.137L24.4706 236.129L23.58 235.675ZM29.25 229.015L29.8192 229.837L32.4513 228.015H29.25V229.015ZM22.14 229.015H21.14V230.015H22.14V229.015ZM22.14 216.325V215.325H21.14V216.325H22.14ZM84.69 219.115L84.231 220.003L84.237 220.006L84.69 219.115ZM93.33 227.485L92.4591 227.976L92.4652 227.987L93.33 227.485ZM91.62 258.445L92.4264 259.036L92.4301 259.031L91.62 258.445ZM78.12 266.095H77.12V267.205L78.2247 267.089L78.12 266.095ZM78.12 253.585L77.8419 252.624L77.12 252.833V253.585H78.12ZM83.52 249.355L82.6707 248.827L82.6667 248.833L83.52 249.355ZM82.26 232.435L81.534 233.122L81.5435 233.132L82.26 232.435ZM64.62 229.015V228.015H61.4187L64.0508 229.837L64.62 229.015ZM70.47 235.765L69.5907 236.241L69.595 236.249L70.47 235.765ZM69.57 257.005L68.7204 256.477L68.7204 256.477L69.57 257.005ZM60.48 265.285L60.9272 266.179L60.9354 266.175L60.9435 266.171L60.48 265.285ZM33.48 265.285L33.0165 266.171L33.0273 266.176L33.48 265.285ZM24.48 257.095L23.6238 257.611L23.6278 257.618L24.48 257.095ZM39.24 230.815L39.7155 231.694L39.7256 231.689L39.24 230.815ZM34.2 235.675L35.0619 236.182L35.0675 236.172L35.0729 236.162L34.2 235.675ZM34.11 248.725L33.2434 249.224L33.2434 249.224L34.11 248.725ZM39.15 253.585L38.6564 254.454L38.6644 254.459L39.15 253.585ZM54.81 253.585L55.2757 254.47L55.2898 254.462L55.3036 254.454L54.81 253.585ZM59.94 248.725L60.7953 249.243L60.8019 249.232L59.94 248.725ZM60.03 235.675L60.9029 235.187L60.8975 235.177L60.8919 235.168L60.03 235.675ZM54.99 230.815L55.4757 229.94L55.4655 229.935L54.99 230.815ZM22.33 245.485C22.33 241.901 23.0516 238.797 24.4629 236.144L22.6971 235.205C21.1084 238.192 20.33 241.628 20.33 245.485H22.33ZM24.4706 236.129C25.8441 233.44 27.6298 231.353 29.8192 229.837L28.6808 228.192C26.1902 229.917 24.1959 232.27 22.6894 235.22L24.4706 236.129ZM29.25 228.015H22.14V230.015H29.25V228.015ZM23.14 229.015V216.325H21.14V229.015H23.14ZM22.14 217.325H72.36V215.325H22.14V217.325ZM72.36 217.325C76.8428 217.325 80.7916 218.226 84.231 220.003L85.149 218.226C81.3884 216.283 77.1172 215.325 72.36 215.325V217.325ZM84.237 220.006C87.714 221.773 90.4519 224.42 92.4592 227.976L94.2008 226.993C92.0081 223.109 88.986 220.176 85.1431 218.223L84.237 220.006ZM92.4652 227.987C94.5186 231.523 95.57 235.841 95.57 240.985H97.57C97.57 235.568 96.4614 230.886 94.1948 226.982L92.4652 227.987ZM95.57 240.985C95.57 247.909 93.9578 253.508 90.8099 257.858L92.4301 259.031C95.8822 254.261 97.57 248.22 97.57 240.985H95.57ZM90.8136 257.853C87.6853 262.119 83.4437 264.529 78.0153 265.1L78.2247 267.089C84.1963 266.461 88.9547 263.77 92.4264 259.036L90.8136 257.853ZM79.12 266.095V253.585H77.12V266.095H79.12ZM78.3981 254.545C80.9348 253.811 82.9325 252.234 84.3733 249.876L82.6667 248.833C81.4675 250.796 79.8652 252.038 77.8419 252.624L78.3981 254.545ZM84.3693 249.883C85.8654 247.476 86.59 244.615 86.59 241.345H84.59C84.59 244.314 83.9346 246.793 82.6707 248.827L84.3693 249.883ZM86.59 241.345C86.59 237.466 85.4058 234.232 82.9765 231.737L81.5435 233.132C83.5542 235.197 84.59 237.903 84.59 241.345H86.59ZM82.986 231.747C80.57 229.197 76.9587 228.015 72.36 228.015V230.015C76.6413 230.015 79.63 231.113 81.534 233.122L82.986 231.747ZM72.36 228.015H64.62V230.015H72.36V228.015ZM64.0508 229.837C66.2435 231.355 68.0942 233.478 69.5907 236.241L71.3493 235.288C69.7258 232.291 67.6765 229.914 65.1892 228.192L64.0508 229.837ZM69.595 236.249C71.0624 238.901 71.81 241.971 71.81 245.485H73.81C73.81 241.679 72.9976 238.268 71.345 235.281L69.595 236.249ZM71.81 245.485C71.81 249.503 70.7795 253.16 68.7204 256.477L70.4196 257.532C72.6805 253.889 73.81 249.866 73.81 245.485H71.81ZM68.7204 256.477C66.6617 259.794 63.7703 262.435 60.0165 264.399L60.9435 266.171C64.9897 264.054 68.1583 261.175 70.4196 257.532L68.7204 256.477ZM60.0328 264.39C56.2313 266.291 51.8584 267.255 46.89 267.255V269.255C52.1216 269.255 56.8087 268.238 60.9272 266.179L60.0328 264.39ZM46.89 267.255C41.9833 267.255 37.6724 266.292 33.9327 264.393L33.0273 266.176C37.0875 268.238 41.7167 269.255 46.89 269.255V267.255ZM33.9435 264.399C30.1875 262.434 27.3287 259.823 25.3322 256.571L23.6278 257.618C25.8313 261.206 28.9725 264.055 33.0165 266.171L33.9435 264.399ZM25.3362 256.578C23.3349 253.262 22.33 249.572 22.33 245.485H20.33C20.33 249.918 21.4251 253.968 23.6238 257.611L25.3362 256.578ZM47.07 228.015C43.8801 228.015 41.0944 228.64 38.7544 229.94L39.7256 231.689C41.7056 230.589 44.1399 230.015 47.07 230.015V228.015ZM38.7645 229.935C36.3914 231.218 34.5671 232.968 33.3271 235.187L35.0729 236.162C36.1129 234.301 37.6486 232.812 39.7155 231.694L38.7645 229.935ZM33.3381 235.168C32.0488 237.359 31.4 239.724 31.4 242.245H33.4C33.4 240.085 33.9512 238.07 35.0619 236.182L33.3381 235.168ZM31.4 242.245C31.4 244.755 32.0138 247.088 33.2434 249.224L34.9766 248.226C33.9262 246.401 33.4 244.414 33.4 242.245H31.4ZM33.2434 249.224C34.4825 251.376 36.2998 253.117 38.6564 254.454L39.6436 252.715C37.5602 251.532 36.0175 250.033 34.9766 248.226L33.2434 249.224ZM38.6644 254.459C41.0016 255.757 43.7562 256.385 46.89 256.385V254.385C44.0238 254.385 41.6184 253.812 39.6356 252.71L38.6644 254.459ZM46.89 256.385C50.0255 256.385 52.8302 255.757 55.2757 254.47L54.3443 252.7C52.2298 253.813 49.7545 254.385 46.89 254.385V256.385ZM55.3036 254.454C57.6566 253.119 59.4978 251.384 60.7952 249.243L59.0848 248.206C57.9822 250.026 56.4034 251.53 54.3164 252.715L55.3036 254.454ZM60.8019 249.232C62.0887 247.044 62.74 244.71 62.74 242.245H60.74C60.74 244.339 60.1913 246.325 59.0781 248.218L60.8019 249.232ZM62.74 242.245C62.74 239.734 62.1264 237.376 60.9029 235.187L59.1571 236.162C60.2136 238.053 60.74 240.075 60.74 242.245H62.74ZM60.8919 235.168C59.5974 232.967 57.7844 231.223 55.4756 229.94L54.5044 231.689C56.5156 232.806 58.0626 234.302 59.1681 236.182L60.8919 235.168ZM55.4655 229.935C53.0715 228.641 50.261 228.015 47.07 228.015V230.015C49.999 230.015 52.4685 230.588 54.5145 231.694L55.4655 229.935ZM14.13 203.209L14.8371 203.916L14.8518 203.901L14.8659 203.886L14.13 203.209ZM3.6 203.209L4.32198 202.517L4.32138 202.516L3.6 203.209ZM3.6 192.139L4.3071 192.846L4.32183 192.831L4.33593 192.816L3.6 192.139ZM14.13 192.139L14.852 191.447L14.8514 191.446L14.13 192.139ZM22.14 191.419V190.419H21.14V191.419H22.14ZM72 191.419H73V190.419H72V191.419ZM72 204.019V205.019H73V204.019H72ZM22.14 204.019H21.14V205.019H22.14V204.019ZM15.2 197.629C15.2 199.622 14.5885 201.233 13.3941 202.531L14.8659 203.886C16.4315 202.184 17.2 200.075 17.2 197.629H15.2ZM13.4229 202.501C12.1769 203.747 10.664 204.369 8.82 204.369V206.369C11.176 206.369 13.2031 205.55 14.8371 203.916L13.4229 202.501ZM8.82 204.369C6.97645 204.369 5.50249 203.748 4.32198 202.517L2.87801 203.9C4.4575 205.549 6.46355 206.369 8.82 206.369V204.369ZM4.32138 202.516C3.07305 201.216 2.44 199.61 2.44 197.629H0.439996C0.439996 200.087 1.24694 202.201 2.87861 203.901L4.32138 202.516ZM2.44 197.629C2.44 195.647 3.07247 194.08 4.3071 192.846L2.89289 191.431C1.24752 193.077 0.439996 195.17 0.439996 197.629H2.44ZM4.33593 192.816C5.52016 191.528 6.99007 190.889 8.82 190.889V188.889C6.44993 188.889 4.43983 189.749 2.86406 191.461L4.33593 192.816ZM8.82 190.889C10.6508 190.889 12.1593 191.53 13.4086 192.831L14.8514 191.446C13.2207 189.747 11.1892 188.889 8.82 188.889V190.889ZM13.408 192.83C14.5888 194.063 15.2 195.635 15.2 197.629H17.2C17.2 195.182 16.4312 193.094 14.852 191.447L13.408 192.83ZM22.14 192.419H72V190.419H22.14V192.419ZM71 191.419V204.019H73V191.419H71ZM72 203.019H22.14V205.019H72V203.019ZM23.14 204.019V191.419H21.14V204.019H23.14ZM32.49 164.3H31.49V165.3H32.49V164.3ZM60.3 163.13L61.0071 163.837L61.0343 163.81L61.0593 163.78L60.3 163.13ZM61.38 153.14V152.14H60.38V153.14H61.38ZM72 153.14H73V152.14H72V153.14ZM32.49 176.99V175.99H31.49V176.99H32.49ZM32.49 182.93V183.93H33.49V182.93H32.49ZM22.14 182.93H21.14V183.93H22.14V182.93ZM22.14 176.99H23.14V175.99H22.14V176.99ZM9.81 176.99H8.81V177.99H9.81V176.99ZM9.81 164.3V163.3H8.81V164.3H9.81ZM22.14 164.3V165.3H23.14V164.3H22.14ZM22.14 153.14V152.14H21.14V153.14H22.14ZM32.49 153.14H33.49V152.14H32.49V153.14ZM32.49 165.3H56.61V163.3H32.49V165.3ZM56.61 165.3C58.419 165.3 59.9613 164.883 61.0071 163.837L59.5929 162.423C59.0787 162.937 58.161 163.3 56.61 163.3V165.3ZM61.0593 163.78C62.0139 162.667 62.38 160.989 62.38 158.99H60.38C60.38 160.831 60.0261 161.913 59.5407 162.479L61.0593 163.78ZM62.38 158.99V153.14H60.38V158.99H62.38ZM61.38 154.14H72V152.14H61.38V154.14ZM71 153.14V161.06H73V153.14H71ZM71 161.06C71 166.223 69.7455 169.91 67.4128 172.31C65.0853 174.705 61.5185 175.99 56.52 175.99V177.99C61.8415 177.99 66.0146 176.619 68.8472 173.704C71.6745 170.795 73 166.517 73 161.06H71ZM56.52 175.99H32.49V177.99H56.52V175.99ZM31.49 176.99V182.93H33.49V176.99H31.49ZM32.49 181.93H22.14V183.93H32.49V181.93ZM23.14 182.93V176.99H21.14V182.93H23.14ZM22.14 175.99H9.81V177.99H22.14V175.99ZM10.81 176.99V164.3H8.81V176.99H10.81ZM9.81 165.3H22.14V163.3H9.81V165.3ZM23.14 164.3V153.14H21.14V164.3H23.14ZM22.14 154.14H32.49V152.14H22.14V154.14ZM31.49 153.14V164.3H33.49V153.14H31.49ZM33.48 144.347L33.0165 145.233L33.0273 145.239L33.48 144.347ZM24.48 136.157L23.6238 136.674L23.6278 136.68L24.48 136.157ZM23.58 114.827L24.4587 115.305L24.4629 115.297L23.58 114.827ZM29.25 108.077L29.8432 108.882L32.2929 107.077H29.25V108.077ZM22.14 108.077H21.14V109.077H22.14V108.077ZM22.14 95.3871V94.3871H21.14V95.3871H22.14ZM72 95.3871H73V94.3871H72V95.3871ZM72 108.077V109.077H73V108.077H72ZM64.71 108.077V107.077H61.5087L64.1408 108.899L64.71 108.077ZM70.56 114.827L71.4429 114.357L71.4393 114.351L70.56 114.827ZM69.57 136.157L70.4155 136.691L70.4196 136.684L69.57 136.157ZM60.48 144.347L60.9272 145.242L60.9354 145.237L60.9435 145.233L60.48 144.347ZM39.24 109.877L39.7155 110.757L39.7256 110.751L39.24 109.877ZM34.2 114.737L35.0619 115.244L35.0675 115.235L35.0729 115.225L34.2 114.737ZM34.11 127.787L33.2434 128.286L33.2434 128.286L34.11 127.787ZM39.15 132.647L38.6564 133.517L38.6644 133.521L39.15 132.647ZM54.81 132.647L55.2757 133.532L55.2898 133.525L55.3036 133.517L54.81 132.647ZM59.94 127.787L60.7953 128.305L60.8019 128.294L59.94 127.787ZM60.03 114.737L60.9029 114.249L60.8975 114.24L60.8919 114.23L60.03 114.737ZM54.99 109.877L55.4757 109.003L55.4655 108.997L54.99 109.877ZM46.89 146.317C41.9833 146.317 37.6724 145.354 33.9327 143.455L33.0273 145.239C37.0875 147.3 41.7167 148.317 46.89 148.317V146.317ZM33.9435 143.461C30.1875 141.496 27.3287 138.885 25.3322 135.634L23.6278 136.68C25.8313 140.269 28.9725 143.118 33.0165 145.233L33.9435 143.461ZM25.3362 135.64C23.3349 132.324 22.33 128.634 22.33 124.547H20.33C20.33 128.98 21.4251 133.03 23.6238 136.674L25.3362 135.64ZM22.33 124.547C22.33 120.963 23.0518 117.893 24.4586 115.305L22.7014 114.35C21.1082 117.281 20.33 120.691 20.33 124.547H22.33ZM24.4629 115.297C25.9016 112.592 27.6982 110.463 29.8432 108.882L28.6568 107.272C26.2418 109.052 24.2583 111.422 22.6971 114.357L24.4629 115.297ZM29.25 107.077H22.14V109.077H29.25V107.077ZM23.14 108.077V95.3871H21.14V108.077H23.14ZM22.14 96.3871H72V94.3871H22.14V96.3871ZM71 95.3871V108.077H73V95.3871H71ZM72 107.077H64.71V109.077H72V107.077ZM64.1408 108.899C66.3335 110.417 68.1842 112.541 69.6807 115.303L71.4393 114.351C69.8158 111.354 67.7665 108.977 65.2792 107.255L64.1408 108.899ZM69.6771 115.297C71.0884 117.95 71.81 121.054 71.81 124.637H73.81C73.81 120.78 73.0316 117.344 71.4429 114.357L69.6771 115.297ZM71.81 124.637C71.81 128.656 70.7795 132.312 68.7204 135.63L70.4196 136.684C72.6805 133.042 73.81 129.018 73.81 124.637H71.81ZM68.7245 135.623C66.6668 138.881 63.7746 141.495 60.0165 143.461L60.9435 145.233C64.9854 143.119 68.1532 140.273 70.4155 136.691L68.7245 135.623ZM60.0328 143.453C56.2313 145.353 51.8584 146.317 46.89 146.317V148.317C52.1216 148.317 56.8087 147.301 60.9272 145.242L60.0328 143.453ZM47.07 107.077C43.8801 107.077 41.0944 107.703 38.7544 109.003L39.7256 110.751C41.7056 109.651 44.1399 109.077 47.07 109.077V107.077ZM38.7645 108.997C36.3914 110.28 34.5671 112.03 33.3271 114.249L35.0729 115.225C36.1129 113.364 37.6486 111.874 39.7155 110.757L38.7645 108.997ZM33.3381 114.23C32.0488 116.422 31.4 118.787 31.4 121.307H33.4C33.4 119.148 33.9512 117.132 35.0619 115.244L33.3381 114.23ZM31.4 121.307C31.4 123.818 32.0138 126.151 33.2434 128.286L34.9766 127.288C33.9262 125.464 33.4 123.476 33.4 121.307H31.4ZM33.2434 128.286C34.4825 130.438 36.2998 132.179 38.6564 133.517L39.6436 131.777C37.5602 130.595 36.0175 129.096 34.9766 127.288L33.2434 128.286ZM38.6644 133.521C41.0016 134.82 43.7562 135.447 46.89 135.447V133.447C44.0238 133.447 41.6184 132.874 39.6356 131.773L38.6644 133.521ZM46.89 135.447C50.0255 135.447 52.8302 134.819 55.2757 133.532L54.3443 131.762C52.2298 132.875 49.7545 133.447 46.89 133.447V135.447ZM55.3036 133.517C57.6566 132.181 59.4978 130.446 60.7952 128.305L59.0848 127.269C57.9822 129.088 56.4034 130.593 54.3164 131.777L55.3036 133.517ZM60.8019 128.294C62.0887 126.107 62.74 123.772 62.74 121.307H60.74C60.74 123.402 60.1913 125.388 59.0781 127.28L60.8019 128.294ZM62.74 121.307C62.74 118.797 62.1264 116.439 60.9029 114.249L59.1571 115.225C60.2136 117.116 60.74 119.138 60.74 121.307H62.74ZM60.8919 114.23C59.5974 112.029 57.7844 110.286 55.4756 109.003L54.5044 110.751C56.5156 111.869 58.0626 113.365 59.1681 115.244L60.8919 114.23ZM55.4655 108.997C53.0715 107.703 50.261 107.077 47.07 107.077V109.077C49.999 109.077 52.4685 109.651 54.5145 110.757L55.4655 108.997ZM5.4 70.481V69.481H4.4V70.481H5.4ZM72 70.481H73V69.481H72V70.481ZM72 83.081V84.081H73V83.081H72ZM5.4 83.081H4.4V84.081H5.4V83.081ZM5.4 71.481H72V69.481H5.4L5.4 71.481ZM71 70.481V83.081H73V70.481H71ZM72 82.081H5.4V84.081H72V82.081ZM6.4 83.081L6.4 70.481H4.4V83.081H6.4ZM10.26 6.88687L9.77435 6.01272L8.74565 6.58421L9.47566 7.50721L10.26 6.88687ZM18.36 2.38687L19.3004 2.04687L18.9011 0.942311L17.8744 1.51271L18.36 2.38687ZM22.59 14.0869L21.6496 14.4269L22.59 17.0281L23.5304 14.4269L22.59 14.0869ZM26.82 2.38687L27.308 1.51405L26.28 0.939246L25.8796 2.04687L26.82 2.38687ZM35.19 7.06687L35.9617 7.70283L36.7234 6.77855L35.678 6.19405L35.19 7.06687ZM27.18 16.7869L26.4083 16.1509L24.7094 18.2124L27.3444 17.7733L27.18 16.7869ZM39.6 14.7169H40.6V13.5364L39.4356 13.7305L39.6 14.7169ZM39.6 24.0769L39.4426 25.0644L40.6 25.2489V24.0769H39.6ZM27.18 22.0969L27.3374 21.1093L24.6651 20.6833L26.4182 22.7447L27.18 22.0969ZM35.37 31.7269L35.8671 32.5946L36.9117 31.9961L36.1318 31.079L35.37 31.7269ZM26.73 36.6769L25.7896 37.0169L26.1943 38.1363L27.2271 37.5446L26.73 36.6769ZM22.5 24.9769L23.4404 24.6369L22.4832 21.9891L21.5558 24.6475L22.5 24.9769ZM18.45 36.5869L17.9652 37.4615L19.0033 38.0369L19.3942 36.9162L18.45 36.5869ZM10.17 31.9969L9.38638 31.3756L8.65376 32.2997L9.68516 32.8715L10.17 31.9969ZM18.09 22.0069L18.8736 22.6281L20.4837 20.5972L17.9267 21.0203L18.09 22.0069ZM5.58 24.0769H4.58V25.2559L5.74324 25.0635L5.58 24.0769ZM5.58 14.6269L5.75014 13.6415L4.58 13.4394V14.6269H5.58ZM18.09 16.7869L17.9199 17.7723L20.4962 18.2171L18.8743 16.1665L18.09 16.7869ZM10.7456 7.76103L18.8456 3.26103L17.8744 1.51271L9.77435 6.01272L10.7456 7.76103ZM17.4196 2.72687L21.6496 14.4269L23.5304 13.7469L19.3004 2.04687L17.4196 2.72687ZM23.5304 14.4269L27.7604 2.72687L25.8796 2.04687L21.6496 13.7469L23.5304 14.4269ZM26.332 3.2597L34.702 7.9397L35.678 6.19405L27.308 1.51405L26.332 3.2597ZM34.4183 6.43092L26.4083 16.1509L27.9517 17.4228L35.9617 7.70283L34.4183 6.43092ZM27.3444 17.7733L39.7644 15.7033L39.4356 13.7305L27.0156 15.8005L27.3444 17.7733ZM38.6 14.7169V24.0769H40.6V14.7169H38.6ZM39.7574 23.0893L27.3374 21.1093L27.0226 23.0844L39.4426 25.0644L39.7574 23.0893ZM26.4182 22.7447L34.6082 32.3747L36.1318 31.079L27.9418 21.449L26.4182 22.7447ZM34.8729 30.8592L26.2329 35.8092L27.2271 37.5446L35.8671 32.5946L34.8729 30.8592ZM27.6704 36.3369L23.4404 24.6369L21.5596 25.3169L25.7896 37.0169L27.6704 36.3369ZM21.5558 24.6475L17.5058 36.2575L19.3942 36.9162L23.4442 25.3062L21.5558 24.6475ZM18.9348 35.7123L10.6548 31.1223L9.68516 32.8715L17.9652 37.4615L18.9348 35.7123ZM10.9536 32.6181L18.8736 22.6281L17.3064 21.3856L9.38638 31.3756L10.9536 32.6181ZM17.9267 21.0203L5.41675 23.0903L5.74324 25.0635L18.2532 22.9935L17.9267 21.0203ZM6.58 24.0769V14.6269H4.58V24.0769H6.58ZM5.40985 15.6123L17.9199 17.7723L18.2601 15.8015L5.75014 13.6415L5.40985 15.6123ZM18.8743 16.1665L11.0443 6.26654L9.47566 7.50721L17.3057 17.4072L18.8743 16.1665Z" fill="black" mask="url(#path-1-outside-1_2871_13709)"/>
</g>
</svg>
