<svg width="88" height="119" viewBox="0 0 88 119" fill="none" xmlns="http://www.w3.org/2000/svg">
<path d="M62.8593 56.1392V80.3809C62.8597 82.9387 62.0805 85.4358 60.6257 87.539C59.1709 89.6423 57.1096 91.2516 54.7169 92.1522L46.1335 95.3851C45.753 95.5288 45.3433 95.5779 44.9396 95.5282C44.536 95.4785 44.1504 95.3316 43.816 95.0999C43.4817 94.8683 43.2085 94.5589 43.02 94.1983C42.8315 93.8377 42.7333 93.4368 42.7338 93.0299V63.4975L25.9237 69.641C24.9579 69.9971 24.1245 70.6412 23.5361 71.4862C22.9476 72.3312 22.6325 73.3365 22.6331 74.3663V113.964C22.6331 117.46 26.1022 119.89 29.3878 118.69L79.7436 100.279C82.1644 99.3953 84.2549 97.788 85.7319 95.6752C87.2088 93.5625 88.0006 91.0464 88 88.4681V38.1599C87.9982 40.737 87.2053 43.2513 85.7287 45.3628C84.252 47.4744 82.1628 49.0812 79.7436 49.9659L62.8593 56.1392ZM62.8593 53.5013V46.2273C62.8592 43.6676 62.0788 41.1689 60.6221 39.0647C59.1655 36.9605 57.1019 35.351 54.707 34.451L46.1434 31.228C45.7628 31.0856 45.3535 31.0374 44.9503 31.0876C44.5472 31.1378 44.1621 31.2849 43.8281 31.5163C43.494 31.7477 43.221 32.0566 43.0321 32.4165C42.8433 32.7764 42.7443 33.1768 42.7437 33.5833V56.3425C42.7437 59.8183 39.2994 62.2479 36.0286 61.0827L3.3402 49.4007C2.36272 49.0518 1.517 48.409 0.919007 47.5603C0.32101 46.7117 4.27811e-06 45.6988 0 44.6604V5.03263C0 1.55677 3.44428 -0.872856 6.72005 0.297333L79.6594 26.3588C81.7058 27.0905 83.5278 28.3402 84.9478 29.986C86.3678 31.6319 87.3374 33.6178 87.7621 35.7501C87.0881 40.0193 82.5585 46.3016 78.8913 47.6404L62.8593 53.5013Z" fill="#0B53CE"/>
</svg>
