<svg width="100" height="100" viewBox="0 0 100 100" fill="none" xmlns="http://www.w3.org/2000/svg">
<rect width="100" height="100" rx="8" fill="#FFFEFA"/>
<path d="M30.5157 33.7502C30.4214 30.7586 32.532 28 35.385 28H64.6187C67.4716 28 69.5822 30.7586 69.4879 33.7502C69.3973 36.6239 69.5149 40.3464 70.3633 43.3817C71.2144 46.4263 72.6495 48.3508 75 48.598V51.402C72.6495 51.6492 71.2144 53.5737 70.3633 56.6183C69.5149 59.6536 69.3973 63.3761 69.4879 66.2499C69.5822 69.2414 67.4716 72 64.6187 72H35.385C32.532 72 30.4214 69.2414 30.5158 66.2499C30.6063 63.3761 30.4887 59.6536 29.6402 56.6183C28.7893 53.5737 27.3506 51.6492 25 51.402V48.598C27.3505 48.3508 28.7893 46.4263 29.6402 43.3817C30.4887 40.3464 30.6063 36.6239 30.5157 33.7502Z" fill="url(#paint0_linear_897_5588)"/>
<g filter="url(#filter0_d_897_5588)">
<path d="M51.0861 61.6969C55.705 61.6969 58.4883 59.1995 58.4883 55.0802C58.4883 51.9664 56.5023 49.7122 53.5535 49.3553V49.2256C55.72 48.8364 57.4201 46.6146 57.4201 44.1333C57.4201 40.5979 54.8926 38.2949 51.041 38.2949H42.375V61.6969H51.0861ZM45.7451 41.2628H50.2286C52.6659 41.2628 54.05 42.4628 54.05 44.636C54.05 46.9552 52.4402 48.2525 49.5215 48.2525H45.7451V41.2628ZM45.7451 58.7291V51.0258H50.1984C53.388 51.0258 55.043 52.3232 55.043 54.8532C55.043 57.383 53.4332 58.7291 50.394 58.7291H45.7451Z" fill="url(#paint1_linear_897_5588)"/>
<path d="M51.0861 61.6969C55.705 61.6969 58.4883 59.1995 58.4883 55.0802C58.4883 51.9664 56.5023 49.7122 53.5535 49.3553V49.2256C55.72 48.8364 57.4201 46.6146 57.4201 44.1333C57.4201 40.5979 54.8926 38.2949 51.041 38.2949H42.375V61.6969H51.0861ZM45.7451 41.2628H50.2286C52.6659 41.2628 54.05 42.4628 54.05 44.636C54.05 46.9552 52.4402 48.2525 49.5215 48.2525H45.7451V41.2628ZM45.7451 58.7291V51.0258H50.1984C53.388 51.0258 55.043 52.3232 55.043 54.8532C55.043 57.383 53.4332 58.7291 50.394 58.7291H45.7451Z" stroke="white"/>
</g>
<defs>
<filter id="filter0_d_897_5588" x="25.875" y="25.7949" width="49.1133" height="56.4023" filterUnits="userSpaceOnUse" color-interpolation-filters="sRGB">
<feFlood flood-opacity="0" result="BackgroundImageFix"/>
<feColorMatrix in="SourceAlpha" type="matrix" values="0 0 0 0 0 0 0 0 0 0 0 0 0 0 0 0 0 0 127 0" result="hardAlpha"/>
<feOffset dy="4"/>
<feGaussianBlur stdDeviation="8"/>
<feColorMatrix type="matrix" values="0 0 0 0 0 0 0 0 0 0 0 0 0 0 0 0 0 0 0.15 0"/>
<feBlend mode="normal" in2="BackgroundImageFix" result="effect1_dropShadow_897_5588"/>
<feBlend mode="normal" in="SourceGraphic" in2="effect1_dropShadow_897_5588" result="shape"/>
</filter>
<linearGradient id="paint0_linear_897_5588" x1="32.4296" y1="29.1645" x2="79.3884" y2="62.9193" gradientUnits="userSpaceOnUse">
<stop stop-color="#9013FE"/>
<stop offset="1" stop-color="#6610F2"/>
</linearGradient>
<linearGradient id="paint1_linear_897_5588" x1="43.8991" y1="39.8352" x2="55.1683" y2="57.0936" gradientUnits="userSpaceOnUse">
<stop stop-color="white"/>
<stop offset="1" stop-color="#F1E5FC"/>
</linearGradient>
</defs>
</svg>
