<svg width="100" height="100" viewBox="0 0 100 100" fill="none" xmlns="http://www.w3.org/2000/svg">
<rect width="100" height="100" rx="8" fill="#FFFEFA"/>
<g clip-path="url(#clip0_897_5569)">
<rect width="44" height="44" transform="translate(28 28)" fill="white"/>
<path d="M72 28H28V72H72V28Z" fill="#F7DF1E"/>
<path d="M57.5565 62.3751C58.4428 63.8222 59.5959 64.8858 61.6352 64.8858C63.3485 64.8858 64.4429 64.0296 64.4429 62.8465C64.4429 61.4287 63.3184 60.9265 61.4327 60.1017L60.3991 59.6582C57.4154 58.3871 55.4333 56.7947 55.4333 53.4284C55.4333 50.3274 57.7961 47.9668 61.4886 47.9668C64.1174 47.9668 66.0073 48.8817 67.3692 51.2773L64.1495 53.3446C63.4406 52.0735 62.6759 51.5727 61.4886 51.5727C60.2775 51.5727 59.51 52.341 59.51 53.3446C59.51 54.585 60.2782 55.0871 62.0522 55.8554L63.0858 56.2982C66.5989 57.8046 68.5824 59.3404 68.5824 62.7934C68.5824 66.5159 65.6581 68.5553 61.7309 68.5553C57.8911 68.5553 55.4103 66.7255 54.1965 64.3271L57.5565 62.3751ZM42.9506 62.7333C43.6001 63.8857 44.191 64.86 45.6116 64.86C46.97 64.86 47.8269 64.3285 47.8269 62.2619V48.2029H51.9615V62.3178C51.9615 66.5991 49.4514 68.5476 45.7876 68.5476C42.4771 68.5476 40.5599 66.8344 39.585 64.771L42.9506 62.7333Z" fill="black"/>
</g>
<defs>
<clipPath id="clip0_897_5569">
<rect width="44" height="44" fill="white" transform="translate(28 28)"/>
</clipPath>
</defs>
</svg>
