<svg width="100" height="100" viewBox="0 0 100 100" fill="none" xmlns="http://www.w3.org/2000/svg">
<rect width="100" height="100" rx="8" fill="#FFFEFA"/>
<path d="M72 28L67.9915 67.5954L49.9731 72L32.0043 67.6016L28 28H72Z" fill="#264DE4"/>
<path d="M64.5598 65.0744L67.9853 31.2383H50V68.6336L64.5598 65.0744Z" fill="#2965F1"/>
<path d="M37.1797 45.9258L37.6734 50.7827H50V45.9258H37.1797Z" fill="#EBEBEB"/>
<path d="M49.9998 36.0957H49.9808H36.1875L36.6882 40.9527H49.9998V36.0957Z" fill="#EBEBEB"/>
<path d="M49.9985 63.5928V58.5395L49.9743 58.5452L43.8396 57.0846L43.4475 53.2109H40.4665H37.918L38.6897 60.8371L49.9731 63.599L49.9985 63.5928Z" fill="#EBEBEB"/>
<path d="M56.7634 50.7833L56.124 57.0824L49.9805 58.5445V63.5976L61.2729 60.838L61.3557 60.0174L62.6501 47.2306L62.7845 45.9263L63.7789 36.0957H49.9805V40.9527H57.7423L57.2411 45.9263H49.9805V50.7833H56.7634Z" fill="white"/>
</svg>
