<svg width="44" height="44" viewBox="0 0 44 44" fill="currentColor" xmlns="http://www.w3.org/2000/svg">
<path d="M43.3736 11.5512C43.3735 11.5512 43.3735 11.5512 43.3734 11.5512L43.3719 11.5497L40.5319 11.1444C40.1327 11.0875 39.8551 10.7177 39.912 10.3184C39.9393 10.1265 40.0418 9.95345 40.1967 9.83715L42.4922 8.1151C42.8148 7.8731 42.8801 7.41538 42.6382 7.09268L40.0098 3.58724C39.7679 3.26454 39.3103 3.19918 38.9877 3.44118L36.693 5.16323C36.3718 5.40706 35.9138 5.34425 35.6701 5.02292C35.5517 4.86691 35.501 4.66982 35.5293 4.47602L35.9352 1.63515C35.9924 1.23585 35.7152 0.865864 35.3162 0.808536C35.3159 0.808536 35.3156 0.808445 35.3153 0.808445L30.9815 0.18915C30.5824 0.131821 30.2124 0.40897 30.155 0.808262C30.155 0.808353 30.155 0.808353 30.155 0.808445L29.7491 3.64931C29.6923 4.04861 29.3226 4.32621 28.9234 4.26934C28.7315 4.24204 28.5585 4.13953 28.4422 3.98452L26.7214 1.68846C26.4795 1.36576 26.0219 1.30039 25.6993 1.5424L23.5054 3.18923C22.5128 3.0837 21.5118 3.0837 20.5193 3.18923C14.0191 3.9324 8.92165 9.11771 8.28802 15.6314C8.26831 15.838 8.261 16.0432 8.25078 16.2485H8.03176C7.68533 16.2491 7.38699 16.4932 7.31772 16.8327L6.81323 19.2325L4.79233 17.8383C4.5023 17.6381 4.11061 17.6738 3.86146 17.923L1.67118 20.1139C1.42241 20.3631 1.38681 20.7543 1.58649 21.0443L2.97367 23.0622L0.573855 23.5668C0.238195 23.6404 -0.000728425 23.9381 1.66865e-06 24.2818V27.203C-0.000180855 27.5484 0.241754 27.8467 0.579696 27.9179L2.97951 28.4226L1.59233 30.4404C1.39265 30.7304 1.42825 31.1217 1.67703 31.3708L3.86731 33.5617C4.11645 33.8109 4.50814 33.8466 4.79817 33.6464L6.81542 32.2552L7.31991 34.6557C7.38918 34.9952 7.68752 35.2393 8.03395 35.2399H10.9543C11.2997 35.2401 11.5979 34.9981 11.6691 34.6601L12.1736 32.2596L14.1908 33.6472C14.4808 33.8469 14.8719 33.8113 15.121 33.5624L16.2548 32.4246V34.506C16.2581 35.5449 16.8145 36.5034 17.715 37.0211V41.0787C17.715 42.692 19.0225 43.9999 20.6354 43.9999H23.5557C25.1686 43.9999 26.4761 42.692 26.4761 41.0787V37.0211C27.3766 36.5034 27.933 35.5449 27.9363 34.506V31.6155C27.9561 30.3992 28.5922 29.2764 29.625 28.6344C30.2309 28.2412 30.8055 27.8016 31.3436 27.3198L30.3697 26.2317C29.8883 26.6633 29.3739 27.0566 28.8314 27.4082C27.3817 28.3183 26.4943 29.9034 26.4761 31.6155V34.506C26.4761 35.3127 25.8224 35.9666 25.0159 35.9666H19.1752C18.3687 35.9666 17.715 35.3127 17.715 34.506V31.5548C17.6981 29.8752 16.8246 28.3207 15.3991 27.433C9.6125 23.7959 7.86904 16.1553 11.5051 10.367C13.7611 6.77564 17.6983 4.58976 21.9386 4.57461C21.9277 4.60062 21.9181 4.62719 21.9101 4.65421C21.883 4.84591 21.9332 5.04063 22.0495 5.19536L23.7704 7.4907C23.9518 7.72558 23.9692 8.04819 23.8142 8.30133C23.6649 8.55602 23.3762 8.69496 23.0841 8.65261L20.244 8.24656C19.8448 8.18932 19.475 8.46656 19.4176 8.86576C19.4176 8.86604 19.4176 8.86631 19.4176 8.86658L18.7977 13.2038C18.7405 13.603 19.0177 13.9731 19.4167 14.0304C19.417 14.0304 19.4173 14.0305 19.4176 14.0305L22.2576 14.4366C22.6568 14.4935 22.9343 14.8633 22.8775 15.2626C22.8502 15.4544 22.7477 15.6275 22.5927 15.7438L20.298 17.4651C19.9754 17.7071 19.9101 18.1649 20.152 18.4876L22.7804 21.993C23.0223 22.3157 23.4799 22.3811 23.8025 22.1391L26.0979 20.4178C26.4208 20.1762 26.8784 20.2422 27.1199 20.5653C27.2354 20.7198 27.2851 20.9139 27.258 21.105L26.8528 23.9458C26.7955 24.345 27.0726 24.7152 27.4718 24.7725C27.4719 24.7725 27.4719 24.7725 27.4719 24.7725L31.8087 25.3926C31.8428 25.3969 31.8772 25.3991 31.9116 25.3991C32.2751 25.3996 32.5835 25.1325 32.6352 24.7725L33.0404 21.9317C33.0972 21.5324 33.4669 21.2548 33.8661 21.3116C34.0579 21.3389 34.231 21.4415 34.3472 21.5965L36.0688 23.8918C36.3107 24.2145 36.7683 24.2799 37.0909 24.0379L40.5954 21.4088C40.918 21.1668 40.9833 20.709 40.7414 20.3863L39.0206 18.091C38.84 17.8558 38.8225 17.5337 38.9768 17.2804C39.1229 17.0223 39.4142 16.8825 39.7068 16.9298L42.5469 17.3352C42.946 17.3925 43.3161 17.1152 43.3734 16.716C43.3734 16.7159 43.3734 16.7159 43.3734 16.7159L43.9925 12.3779C44.0498 11.9786 43.7727 11.6085 43.3736 11.5512ZM19.1752 37.4272H25.0159V38.8878H19.1752V37.4272ZM19.1752 40.3484H25.0159V41.0787C25.0159 41.8854 24.3622 42.5393 23.5557 42.5393H20.6354C19.8289 42.5393 19.1752 41.8854 19.1752 41.0787V40.3484ZM13.3629 27.7544C13.7615 28.0804 14.178 28.3841 14.6106 28.6636C15.3005 29.0997 15.8198 29.7594 16.0818 30.5324L14.5157 32.096L12.9993 31.0502C12.3353 30.5925 11.4261 30.7599 10.9684 31.4241C10.8587 31.5834 10.7817 31.7629 10.7419 31.9521L10.3593 33.7757H8.62386L8.24129 31.955C8.0752 31.1657 7.30084 30.6604 6.5117 30.8265C6.32252 30.8663 6.1431 30.9434 5.98384 31.0531L4.46671 32.096L3.13648 30.7683L4.18125 29.2522C4.63929 28.5883 4.47246 27.6787 3.80872 27.2205C3.64937 27.1105 3.46977 27.0333 3.28031 26.9934L1.46019 26.61V24.8748L3.28031 24.4914C4.06918 24.324 4.57312 23.5487 4.40584 22.7596C4.36614 22.5723 4.29012 22.3948 4.18198 22.2369L3.13648 20.7164L4.46671 19.3888L5.98457 20.4345C6.64887 20.8918 7.55811 20.7238 8.01524 20.0594C8.12475 19.9002 8.20159 19.721 8.24129 19.5319L8.36906 18.9243C8.48606 19.7658 8.6798 20.5947 8.94802 21.4007C6.54574 21.6872 4.83048 23.8675 5.11686 26.2705C5.40324 28.6734 7.58293 30.3892 9.98521 30.1027C11.4313 29.9302 12.6972 29.0501 13.3629 27.7544ZM12.2291 26.7254C11.6839 28.2412 10.0135 29.0279 8.4981 28.4826C6.9827 27.9373 6.19621 26.2665 6.74132 24.7506C7.15838 23.591 8.25909 22.8186 9.49112 22.8212C9.50061 22.8212 9.50937 22.8212 9.51886 22.8212C10.1903 24.2693 11.1072 25.5901 12.2291 26.7254ZM42.0271 15.784L39.9098 15.4816C38.7123 15.3106 37.6029 16.143 37.4319 17.3408C37.3497 17.916 37.4994 18.5003 37.848 18.9652L39.1308 20.6763L36.7945 22.429L35.511 20.7186C34.7853 19.7505 33.4124 19.5542 32.4447 20.2801C31.98 20.6286 31.6727 21.1476 31.5904 21.7228L31.2947 23.8436L28.4043 23.4302L28.7065 21.3124C28.878 20.1146 28.0463 19.0045 26.8488 18.8331C26.2734 18.7507 25.689 18.9004 25.224 19.2493L23.5134 20.5324L21.7612 18.1954L23.471 16.9116C24.4389 16.1857 24.6352 14.8124 23.9095 13.8444C23.561 13.3796 23.0422 13.0722 22.4672 12.9899L20.3499 12.6875L20.7631 9.79626L22.8804 10.0986C24.0778 10.2701 25.1876 9.43814 25.359 8.24035C25.4414 7.66478 25.2917 7.08018 24.9429 6.61507L23.6558 4.90251L25.9921 3.14979L27.2756 4.86088C28.0013 5.82899 29.3741 6.02535 30.3419 5.29943C30.8066 4.95089 31.1138 4.43192 31.1962 3.85672L31.4984 1.73885L34.3889 2.15147L34.0866 4.26934C33.9156 5.46722 34.7477 6.57691 35.9452 6.74798C36.5203 6.83014 37.1044 6.68043 37.5691 6.33171L39.2797 5.04857L41.032 7.38553L39.3214 8.6694C38.3535 9.39532 38.1572 10.7686 38.8829 11.7366C39.2314 12.2014 39.7502 12.5088 40.3252 12.5911L42.4425 12.8935L42.0271 15.784Z" fill="currentColor"/>
<path d="M31.3935 6.94727C28.1677 6.94727 25.5527 9.56302 25.5527 12.7897C25.5527 16.0163 28.1677 18.6321 31.3935 18.6321C34.6192 18.6321 37.2342 16.0163 37.2342 12.7897C37.2306 9.56448 34.6178 6.95083 31.3935 6.94727ZM31.3935 17.1715C28.9741 17.1715 27.0129 15.2097 27.0129 12.7897C27.0129 10.3696 28.9741 8.40787 31.3935 8.40787C33.8128 8.40787 35.774 10.3696 35.774 12.7897C35.7712 15.2085 33.8116 17.1686 31.3935 17.1715Z" fill="currentColor"/>
<path d="M18.8993 25.1433C14.3923 23.3822 12.166 18.2998 13.9267 13.7916C14.609 12.0447 15.8334 10.5628 17.4201 9.56379L16.6396 8.32812C11.8634 11.338 10.4307 17.651 13.4396 22.4286C14.605 24.2789 16.3327 25.7067 18.3692 26.5024C20.1718 27.1933 21.3622 28.9241 21.3626 30.855H22.8228C22.8251 28.3216 21.2643 26.0495 18.8993 25.1433Z" fill="currentColor"/>
<path d="M41.0755 27.2031H35.9648V28.6637H41.0755V27.2031Z" fill="currentColor"/>
<path d="M35.7081 31.0233L34.7734 32.1455L39.1543 35.7964L40.089 34.6742L35.7081 31.0233Z" fill="currentColor"/>
<path d="M33.0442 33.0449H31.584V38.157H33.0442V33.0449Z" fill="currentColor"/>
<path d="M6.58448 11.1568L0.744141 12.6172L1.09806 14.0334L6.9384 12.5731L6.58448 11.1568Z" fill="currentColor"/>
<path d="M2.80722 3.97031L1.95898 5.1582L7.06923 8.80933L7.91747 7.62143L2.80722 3.97031Z" fill="currentColor"/>
<path d="M9.62947 0.000513662L8.21484 0.362305L9.70807 6.20426L11.1227 5.84247L9.62947 0.000513662Z" fill="currentColor"/>
</svg>
