<svg width="82" height="100" viewBox="0 0 82 100" fill="none" xmlns="http://www.w3.org/2000/svg">
<g clip-path="url(#clip0_746_37506)">
<path d="M13.6964 78.2617L4.11328 80.4467V18.4258L13.6964 20.6149V78.2617Z" fill="#F68536"/>
<path d="M25.6519 81.9236L13.6953 85.3192V13.6406L25.6519 17.0321V81.9236Z" fill="#F68536"/>
<path d="M40.9902 85.6851L25.6523 91.2945V7.66602L40.9902 13.2729V85.6851Z" fill="#F68536"/>
<path d="M82.0031 78.4493L40.9922 98.941V0L82.0031 20.4917V78.4493Z" fill="#F68536"/>
<path d="M32.8125 4.08541L40.9875 0V98.941L32.8125 94.8569V4.08541Z" fill="#9D5025"/>
<path d="M19.3242 10.826L25.6526 7.66406V91.2775L19.3242 88.1156V10.826Z" fill="#9D5025"/>
<path d="M8.65234 16.1575L13.6934 13.6387V85.3022L8.65234 82.7818V16.1575Z" fill="#9D5025"/>
<path d="M4.11153 18.4258L0 20.4802V78.4608L4.11153 80.5139V18.4258Z" fill="#9D5025"/>
</g>
<defs>
<clipPath id="clip0_746_37506">
<rect width="82" height="99.2304" fill="white"/>
</clipPath>
</defs>
</svg>
