<svg width="100" height="100" viewBox="0 0 100 100" fill="none" xmlns="http://www.w3.org/2000/svg">
<rect width="100" height="100" rx="8" fill="#FFFEFA"/>
<path d="M49.7172 53.7251C51.9816 53.7251 53.8172 51.9883 53.8172 49.8459C53.8172 47.7035 51.9816 45.9668 49.7172 45.9668C47.4528 45.9668 45.6172 47.7035 45.6172 49.8459C45.6172 51.9883 47.4528 53.7251 49.7172 53.7251Z" fill="#61DAFB"/>
<path d="M50 57.9478C62.1503 57.9478 72 54.3895 72 50.0002C72 45.611 62.1503 42.0527 50 42.0527C37.8497 42.0527 28 45.611 28 50.0002C28 54.3895 37.8497 57.9478 50 57.9478Z" stroke="#61DAFB"/>
<path d="M42.7242 53.9738C48.7993 63.9294 56.9812 70.2209 60.9988 68.0262C65.0165 65.8316 63.3486 55.9819 57.2734 46.0262C51.1983 36.0706 43.0165 29.7791 38.9988 31.9738C34.9812 34.1684 36.6491 44.0181 42.7242 53.9738Z" stroke="#61DAFB"/>
<path d="M42.7242 46.026C36.6491 55.9816 34.9812 65.8313 38.9988 68.026C43.0165 70.2206 51.1983 63.9291 57.2734 53.9735C63.3486 44.0179 65.0165 34.1682 60.9988 31.9735C56.9812 29.7789 48.7993 36.0704 42.7242 46.026Z" stroke="#61DAFB"/>
</svg>
