<svg width="100" height="100" viewBox="0 0 100 100" fill="none" xmlns="http://www.w3.org/2000/svg">
<rect width="100" height="100" rx="8" fill="#FFFEFA"/>
<path d="M55.1577 28.015L72 28L43.7432 50.8621L36.3789 56.79L28 49.999L55.1577 28.015ZM55.0009 48.4281C55.2195 48.1944 55.6217 48.3096 55.9269 48.2795L71.9856 48.2829L57.3498 60.1187L48.9276 53.3428L55.0009 48.4281Z" fill="#44D1FD"/>
<path d="M40.5352 60.1314L48.9305 53.3438L57.3527 60.1197L57.3878 60.1498L48.9326 66.9308L40.5352 60.1314Z" fill="#1FBCFD"/>
<path d="M48.9297 66.9294L57.3849 60.1484L71.9917 71.9843C66.4897 71.9943 60.9897 71.981 55.4897 71.991C55.1762 72.0477 54.9824 71.8157 54.7823 71.6721L48.9297 66.9294Z" fill="#08589C"/>
</svg>
