<svg width="109" height="109" viewBox="0 0 109 109" fill="none" xmlns="http://www.w3.org/2000/svg">
<g opacity="0.6">
<path d="M24.2172 90.3805C15.7074 90.3805 8.78516 83.4583 8.78516 74.9485C8.78516 66.4387 15.7082 59.5156 24.2172 59.5156C32.727 59.5156 39.6501 66.4387 39.6501 74.9485C39.6501 83.4583 32.727 90.3805 24.2172 90.3805ZM24.2172 62.3538C17.2728 62.3538 11.6233 68.0033 11.6233 74.9485C11.6233 81.8929 17.2728 87.5424 24.2172 87.5424C31.1616 87.5424 36.8111 81.8929 36.8111 74.9485C36.8111 68.0033 31.1616 62.3538 24.2172 62.3538Z" fill="#F1F1F1"/>
<path d="M32.8073 93.375H15.6268C7.78108 93.375 1.42188 99.735 1.42188 107.58H47.0131C47.0131 99.735 40.653 93.375 32.8073 93.375Z" fill="white"/>
<path d="M47.0107 108.998H1.41952C0.635649 108.998 0 108.362 0 107.578C0 98.9622 7.00905 91.9531 15.6245 91.9531H32.8057C41.4211 91.9531 48.4302 98.9622 48.4302 107.578C48.4302 108.362 47.7946 108.998 47.0107 108.998ZM2.91705 106.159H45.5124C44.8042 99.7736 39.3755 94.7921 32.8049 94.7921H15.6237C9.0539 94.7921 3.626 99.7736 2.91705 106.159Z" fill="#F1F1F1"/>
<path d="M84.7844 30.8649C76.2747 30.8649 69.3516 23.9418 69.3516 15.4321C69.3516 6.92229 76.2747 0 84.7844 0C93.2942 0 100.217 6.92229 100.217 15.4321C100.217 23.941 93.2942 30.8649 84.7844 30.8649ZM84.7844 2.83816C77.84 2.83816 72.1905 8.48766 72.1905 15.4321C72.1905 22.3772 77.8408 28.0268 84.7844 28.0268C91.7288 28.0268 97.3783 22.3772 97.3783 15.4321C97.3783 8.48766 91.7288 2.83816 84.7844 2.83816Z" fill="#F1F1F1"/>
<path d="M93.3784 33.8594H76.1972C68.3522 33.8594 61.9922 40.2194 61.9922 48.0644H107.583C107.584 40.2186 101.224 33.8594 93.3784 33.8594Z" fill="white"/>
<path d="M107.582 49.4815H61.9898C61.2059 49.4815 60.5703 48.8458 60.5703 48.062C60.5703 39.4458 67.5794 32.4375 76.1948 32.4375H93.376C101.991 32.4375 109.001 39.4466 109.001 48.062C109.001 48.8458 108.366 49.4815 107.582 49.4815ZM63.4881 46.6425H106.084C105.376 40.2572 99.9474 35.2757 93.3768 35.2757H76.1956C69.625 35.2757 64.1963 40.258 63.4881 46.6425Z" fill="#F1F1F1"/>
<path d="M54.4976 100.482C53.7138 100.482 53.0781 99.8467 53.0781 99.0628C53.0781 98.279 53.7138 97.6434 54.4976 97.6434C78.2881 97.6434 97.6434 78.288 97.6434 54.4976C97.6434 53.7137 98.279 53.0781 99.0629 53.0781C99.8467 53.0781 100.482 53.7137 100.482 54.4976C100.482 79.8542 79.8534 100.482 54.4976 100.482Z" fill="#F1F1F1"/>
<path d="M9.93509 55.9206C9.15123 55.9206 8.51562 55.285 8.51562 54.5011C8.51562 29.1453 29.1446 8.51562 54.5004 8.51562C55.2842 8.51562 55.9198 9.15123 55.9198 9.93509C55.9198 10.719 55.2842 11.3546 54.5004 11.3546C30.7099 11.3546 11.3546 30.7099 11.3546 54.5011C11.3546 55.2858 10.719 55.9206 9.93509 55.9206Z" fill="#F1F1F1"/>
</g>
</svg>
