<svg width="126" height="169" viewBox="0 0 126 169" fill="none" xmlns="http://www.w3.org/2000/svg">
<g opacity="0.6">
<path d="M5.51941 114.638C2.34102 114.638 0.335612 111.155 1.88697 108.322L11.1086 91.4789V90.6437V79.4004V79.2031H11.1141C11.2249 71.8652 18.0087 38.2109 58.6954 38.2109C84.9767 38.2109 106.282 58.4029 106.282 83.3085C106.282 106.982 93.2983 116.852 84.8929 127.885C83.2712 130.014 78.0091 138.506 77.9631 146.047C77.9631 146.104 77.955 146.155 77.955 146.209V159.236C77.955 163.423 74.628 166.817 70.5225 166.817H39.0223C34.9169 166.817 31.5898 163.423 31.5898 159.236V146.622L22.5628 146.579C15.8546 146.579 11.3006 141.436 11.3006 135.071L11.1762 120.893H11.1086V114.633H5.51941V114.638Z" fill="white"/>
<path d="M70.5239 168.171H39.0237C34.1805 168.171 30.2399 164.163 30.2399 159.239V147.971L22.5615 147.933C15.3749 147.933 9.9506 142.406 9.9506 135.074L9.75867 115.99H5.52354C3.56948 115.99 1.80455 114.976 0.799142 113.279C-0.230594 111.541 -0.268442 109.446 0.704537 107.673L9.76139 91.1327V79.4002C9.93437 68.2028 19.2966 36.8594 58.6968 36.8594C85.6808 36.8594 107.635 57.6973 107.635 83.311C107.635 103.138 98.7457 113.538 90.9051 122.717C89.1484 124.771 87.4889 126.711 85.97 128.706C84.5754 130.538 79.3618 138.852 79.3186 146.057L79.3105 159.239C79.3078 164.163 75.3672 168.171 70.5239 168.171ZM12.4614 119.738L12.5289 120.882L12.6533 135.06C12.6533 140.957 16.8236 145.23 22.5669 145.23L32.9426 145.282V159.241C32.9426 162.676 35.6724 165.471 39.0237 165.471H70.5239C73.8753 165.471 76.6051 162.676 76.6051 159.241V146.214C76.6591 138.225 81.9619 129.506 83.8186 127.071C85.3835 125.014 87.0646 123.046 88.8457 120.963C96.3863 112.141 104.93 102.144 104.93 83.3138C104.93 59.192 84.1862 39.5648 58.6941 39.5648C21.4479 39.5648 12.6209 68.938 12.4668 79.2272L12.4614 91.8273L3.07214 108.976C2.56403 109.9 2.58298 110.995 3.12353 111.903C3.64515 112.784 4.52083 113.29 5.52354 113.29H12.4614V119.738Z" fill="black"/>
<path d="M60.566 0H57.8633V10.3406H60.566V0Z" fill="black"/>
<path d="M106.281 48.5H96.6914V51.2027H106.281V48.5Z" fill="black"/>
<path d="M20.6596 48.5H11.0703V51.2027H20.6596V48.5Z" fill="black"/>
<path d="M94.22 15.5747L87.0547 22.8906L88.9874 24.7836L96.1528 17.4677L94.22 15.5747Z" fill="black"/>
<path d="M23.1312 15.5278L21.1992 17.4219L28.3687 24.7347L30.3006 22.8406L23.1312 15.5278Z" fill="black"/>
<path d="M59.7474 25.0156C76.4718 25.0156 86.5178 38.513 87.28 53.678C87.7476 62.9835 84.1043 71.4295 78.0367 77.2971C72.8015 82.3593 69.5015 89.1323 69.0799 96.4242H50.4121C49.9905 89.1323 46.6932 82.362 41.4553 77.2971C35.3877 71.4295 31.7445 62.9835 32.2121 53.678C32.9769 38.5103 43.0229 25.0156 59.7474 25.0156Z" fill="#FFF4D3"/>
<path d="M70.355 97.7727H49.136L49.063 96.4997C48.6684 89.6915 45.6359 83.2158 40.517 78.2671C33.9169 71.8833 30.398 62.8968 30.8655 53.6102C31.5899 39.1885 40.9386 23.6641 59.7468 23.6641C78.5578 23.6641 87.9038 39.1885 88.6281 53.6102C89.0984 62.8941 85.5794 71.8833 78.9766 78.2671C73.8604 83.2158 70.8253 89.6942 70.4307 96.4997L70.355 97.7727ZM51.6603 95.0699H67.8307C68.5496 88.0537 71.8091 81.4401 77.0956 76.3239C83.1389 70.4806 86.3578 62.2535 85.9281 53.7454C85.2659 40.5588 76.7902 26.3668 59.7441 26.3668C42.698 26.3668 34.225 40.5588 33.5602 53.7454C33.1358 62.2535 36.3521 70.4806 42.3927 76.3239C47.6846 81.4374 50.944 88.051 51.6603 95.0699Z" fill="black"/>
<path d="M52.3516 110.298C53.3299 113.488 56.2516 115.801 59.7002 115.801C63.2678 115.801 66.2678 113.326 67.1408 109.969L52.3516 110.298Z" fill="white"/>
<path d="M59.7004 117.152C55.7165 117.152 52.2463 114.557 51.0625 110.695L53.6436 109.901C54.4814 112.62 56.9138 114.449 59.7004 114.449C62.5733 114.449 65.095 112.466 65.8355 109.625L68.4491 110.309C67.3977 114.339 63.8004 117.152 59.7004 117.152Z" fill="black"/>
<path d="M68.1858 35.7422L49.1641 59.5721H61.1776L51.4992 77.6154L74.1075 53.3585L60.8425 53.445L68.1858 35.7422Z" fill="white"/>
<path d="M52.4905 78.5339L50.3094 76.9744L58.9175 60.9229H49.1661L48.1094 58.7283L67.1285 34.8984L69.4339 36.2579L62.8744 52.0796L74.1015 52.0067L75.0987 54.2797L52.4905 78.5339ZM51.9716 58.2175H61.1744L62.3636 60.2067L57.6095 69.069L70.9798 54.7256L60.8473 54.7905L59.5906 52.9229L63.2635 44.0607L51.9716 58.2175Z" fill="black"/>
<path d="M120.392 128.145C120.357 128.145 120.322 128.153 120.292 128.175C119.678 128.55 119.013 128.829 118.313 128.999C118.227 129.021 118.165 129.099 118.165 129.191L118.154 131.159L115.105 131.142L115.116 129.175C115.116 129.083 115.057 129.005 114.97 128.98C114.27 128.802 113.608 128.518 113 128.134C112.924 128.086 112.827 128.099 112.762 128.161L111.392 129.545L109.246 127.334L110.616 125.95C110.681 125.886 110.692 125.786 110.646 125.707C110.278 125.083 110.005 124.405 109.838 123.688C109.816 123.599 109.738 123.537 109.648 123.537L107.719 123.526L107.735 120.415L109.665 120.426C109.754 120.426 109.832 120.364 109.851 120.277C110.027 119.567 110.305 118.891 110.681 118.269C110.73 118.191 110.716 118.091 110.654 118.026L109.297 116.626L111.465 114.437L112.821 115.837C112.884 115.902 112.984 115.915 113.059 115.867C113.67 115.491 114.335 115.213 115.038 115.042C115.124 115.021 115.186 114.942 115.186 114.85L115.197 112.883L118.249 112.899L118.238 114.867C118.238 114.959 118.297 115.037 118.384 115.061C119.081 115.24 119.743 115.523 120.351 115.907C120.427 115.956 120.527 115.945 120.589 115.88L121.962 114.496L124.105 116.707L122.732 118.094C122.67 118.159 122.657 118.259 122.703 118.337C123.073 118.961 123.343 119.642 123.511 120.356C123.532 120.445 123.611 120.507 123.7 120.507L125.627 120.518L125.611 123.629L123.684 123.618C123.594 123.618 123.516 123.68 123.495 123.769C123.322 124.477 123.043 125.153 122.665 125.777C122.619 125.856 122.63 125.956 122.692 126.021L124.049 127.421L121.881 129.61L120.524 128.21C120.495 128.167 120.443 128.145 120.392 128.145Z" fill="#FFF1C1"/>
<path d="M78.578 142.99C77.8456 141.746 77.3077 140.398 76.9726 138.979C76.9294 138.8 76.7753 138.676 76.5969 138.676L72.7617 138.654L72.7941 132.468L76.6293 132.49H76.632C76.8077 132.49 76.9645 132.368 77.005 132.192C77.351 130.779 77.905 129.433 78.6536 128.2C78.7482 128.044 78.7239 127.846 78.5996 127.717L75.9022 124.933L80.2131 120.581L82.9104 123.365C83.0348 123.495 83.232 123.519 83.3834 123.425C84.5996 122.676 85.9213 122.127 87.3159 121.787C87.4889 121.744 87.6105 121.587 87.6132 121.406L87.6321 117.492L93.697 117.525L93.6754 121.438C93.6754 121.619 93.7943 121.779 93.9673 121.825C95.3565 122.179 96.6727 122.744 97.8835 123.506C98.0349 123.6 98.2322 123.579 98.3592 123.452L101.086 120.698L105.351 125.095L102.624 127.849C102.497 127.979 102.473 128.176 102.565 128.333C103.3 129.576 103.84 130.927 104.17 132.344C104.211 132.519 104.367 132.646 104.543 132.646L108.378 132.668L108.346 138.855L104.511 138.833C104.332 138.833 104.178 138.957 104.135 139.133C103.789 140.541 103.235 141.884 102.486 143.127C102.392 143.282 102.416 143.482 102.54 143.611L105.24 146.392L100.929 150.744L98.2295 147.96C98.1565 147.882 98.0538 147.844 97.9538 147.844C97.8862 147.844 97.816 147.863 97.7538 147.901C96.5322 148.649 95.2105 149.2 93.8213 149.538C93.6483 149.582 93.5268 149.738 93.5268 149.919L93.5051 153.83L87.4402 153.798L87.4618 149.887C87.4645 149.706 87.3429 149.546 87.1699 149.503C85.7807 149.146 84.4618 148.582 83.251 147.822C83.0997 147.728 82.905 147.749 82.778 147.879L80.0509 150.63L75.786 146.23L78.5131 143.479C78.6455 143.346 78.6699 143.146 78.578 142.99ZM90.5754 143.1C94.6051 143.1 97.8727 139.768 97.8727 135.657C97.8727 131.546 94.6051 128.211 90.5754 128.211C86.5456 128.211 83.278 131.544 83.278 135.657C83.278 139.765 86.5456 143.1 90.5754 143.1Z" fill="#FFF1C1"/>
<path d="M94.8524 155.184L86.0847 155.136L86.1118 150.601C85.1064 150.29 84.1361 149.874 83.2118 149.36L80.0469 152.555L73.9009 146.214L77.0549 143.033C76.5522 142.079 76.1496 141.074 75.8496 140.025L71.4062 140.001L71.4549 131.111L75.8955 131.136C76.2063 130.092 76.6198 129.09 77.136 128.141L74.0144 124.919L80.2307 118.649L83.3604 121.879C84.2847 121.373 85.2604 120.971 86.2712 120.671L86.2983 116.133L95.0659 116.181L95.0389 120.719C96.0497 121.033 97.02 121.449 97.9389 121.963L101.106 118.765L107.25 125.103L104.096 128.29C104.604 129.246 105.007 130.255 105.301 131.298L109.744 131.322L109.696 140.211L105.255 140.187C104.944 141.228 104.528 142.23 104.015 143.182L107.136 146.398L100.923 152.671L97.7903 149.441C96.8659 149.944 95.893 150.349 94.8767 150.649L94.8524 155.184ZM88.8037 152.449L92.1658 152.465L92.1794 149.906C92.1902 149.098 92.7361 148.409 93.5037 148.219C94.7631 147.911 95.9551 147.417 97.0524 146.744L97.3767 146.544L97.9605 146.487C98.4335 146.487 98.8929 146.682 99.2146 147.025L100.947 148.806L103.355 146.376L101.579 144.544C101.023 143.963 100.928 143.09 101.344 142.411C102.015 141.298 102.52 140.079 102.834 138.803C103.02 138.025 103.715 137.476 104.52 137.476L107.012 137.49L107.028 134.006L104.547 133.992C103.75 133.992 103.055 133.441 102.866 132.655C102.566 131.36 102.077 130.138 101.409 129.014C101.009 128.336 101.115 127.463 101.669 126.895L103.469 125.076L101.088 122.619L99.3308 124.395C98.7551 124.973 97.8767 125.076 97.1794 124.646C96.0848 123.954 94.8983 123.446 93.6469 123.125C92.8767 122.933 92.3362 122.236 92.3362 121.43L92.3497 118.86L88.9875 118.844L88.9739 121.406C88.9739 122.203 88.4307 122.9 87.6496 123.092C86.3902 123.398 85.1983 123.895 84.101 124.568C83.3956 124.998 82.5144 124.882 81.9468 124.298L80.2091 122.503L77.7982 124.933L79.5739 126.768C80.1279 127.336 80.228 128.211 79.8118 128.895C79.1388 130.009 78.6361 131.225 78.3198 132.509C78.1334 133.287 77.4414 133.836 76.636 133.836L74.1415 133.822L74.1252 137.306L76.6063 137.319C77.4225 137.328 78.1144 137.884 78.2928 138.679C78.5928 139.957 79.082 141.179 79.7415 142.301V142.303C80.1442 142.987 80.036 143.86 79.4793 144.422L77.6847 146.233L80.0685 148.692L81.8225 146.919C82.4009 146.338 83.2901 146.236 83.9766 146.674C85.0685 147.357 86.2604 147.868 87.5118 148.19C88.2956 148.395 88.828 149.098 88.8172 149.903L88.8037 152.449ZM86.1145 149.871C86.1145 149.876 86.1145 149.882 86.1145 149.887V149.871ZM82.5388 148.96C82.5415 148.963 82.5415 148.963 82.5442 148.963C82.5415 148.963 82.5388 148.96 82.5388 148.96ZM97.2659 148.895C97.2687 148.901 97.274 148.903 97.2794 148.909L97.2659 148.895ZM105.455 139.444C105.452 139.446 105.452 139.449 105.452 139.452C105.452 139.449 105.452 139.444 105.455 139.444ZM104.55 131.29H104.561C104.558 131.29 104.552 131.29 104.55 131.29ZM77.6252 128.649C77.6279 128.652 77.6307 128.654 77.6334 128.657L77.6252 128.649ZM77.4982 127.498C77.4955 127.5 77.4955 127.503 77.4928 127.503C77.4982 127.503 77.4982 127.5 77.4982 127.498ZM86.2659 121.39C86.2659 121.392 86.2659 121.398 86.2659 121.4V121.39ZM94.301 120.508C94.3037 120.508 94.3091 120.511 94.3118 120.511C94.3091 120.509 94.3037 120.508 94.301 120.508ZM90.5713 144.452C85.8037 144.452 81.9252 140.506 81.9252 135.657C81.9252 130.809 85.8064 126.863 90.5713 126.863C95.3416 126.863 99.22 130.809 99.22 135.657C99.2227 140.506 95.3416 144.452 90.5713 144.452ZM90.5713 129.563C87.2929 129.563 84.628 132.295 84.628 135.655C84.628 139.014 87.2929 141.746 90.5713 141.746C93.8497 141.746 96.5173 139.014 96.5173 135.655C96.52 132.295 93.8497 129.563 90.5713 129.563Z" fill="black"/>
<path d="M46.7264 110.094H72.7617V94.9288H46.7264V110.094Z" fill="#EBEBEB"/>
<path d="M74.117 111.446H45.3789V93.5781H74.117V111.446ZM48.0816 108.743H71.4143V96.2808H48.0816V108.743Z" fill="black"/>
</g>
</svg>
