<svg width="43" height="42" viewBox="0 0 43 42" fill="none" xmlns="http://www.w3.org/2000/svg">
<path d="M37.2084 27.998C36.4383 28.0014 35.6997 28.2835 35.1484 28.7847C34.598 28.285 33.8617 28.0031 33.0934 27.998C31.405 27.998 30.0312 29.3521 30.0312 31.0168C30.0312 32.356 30.6659 33.6752 31.8663 34.8322C32.7387 35.6542 33.7516 36.3352 34.8635 36.8475C34.9534 36.8864 35.0514 36.9065 35.1505 36.9065C35.2496 36.9065 35.3476 36.8864 35.4375 36.8475C36.5495 36.3353 37.5624 35.6543 38.4347 34.8322C39.6352 33.6756 40.2698 32.356 40.2698 31.0168C40.27 29.3521 38.8964 27.998 37.2084 27.998ZM37.4534 33.9475C36.7735 34.5849 35.9976 35.1265 35.1501 35.5553C34.3028 35.1268 33.5272 34.5852 32.8481 33.9475C31.8849 33.0197 31.3962 32.0335 31.3962 31.0169C31.3962 30.0543 32.1574 29.2707 33.0929 29.2707C33.6922 29.2707 34.2368 29.592 34.5507 30.1295C34.6095 30.2303 34.6966 30.3145 34.8025 30.373C34.9085 30.4315 35.0295 30.4622 35.1527 30.4618C35.2758 30.4614 35.3966 30.43 35.5021 30.3708C35.6077 30.3117 35.6941 30.227 35.7522 30.1258C35.889 29.8736 36.0966 29.6609 36.3531 29.5102C36.6095 29.3596 36.905 29.2768 37.208 29.2707C38.1435 29.2707 38.9045 30.0543 38.9045 31.0169C38.9052 32.0335 38.4166 33.0197 37.4533 33.9475H37.4534Z" fill="white"/>
<path d="M20.4102 19.6882L19.1764 20.8384C19.0484 20.9577 18.9764 21.1195 18.9764 21.2883C18.9764 21.4571 19.0483 21.6189 19.1763 21.7382C19.3043 21.8576 19.4779 21.9246 19.6589 21.9246C19.8399 21.9246 20.0136 21.8576 20.1416 21.7383L21.3754 20.5881C21.5034 20.4688 21.5753 20.307 21.5753 20.1382C21.5753 19.9695 21.5034 19.8076 21.3754 19.6883C21.2474 19.569 21.0738 19.502 20.8928 19.502C20.7118 19.502 20.5382 19.5689 20.4102 19.6882Z" fill="white"/>
<path d="M16.5078 16.6871V18.9876C16.5078 19.1563 16.5797 19.3182 16.7077 19.4375C16.8357 19.5569 17.0093 19.6239 17.1904 19.6239C17.3714 19.6239 17.545 19.5569 17.673 19.4375C17.801 19.3182 17.8729 19.1563 17.8729 18.9876V16.6871C17.8729 16.5183 17.801 16.3565 17.673 16.2372C17.545 16.1178 17.3714 16.0508 17.1904 16.0508C17.0093 16.0508 16.8357 16.1178 16.7077 16.2372C16.5797 16.3565 16.5078 16.5183 16.5078 16.6871Z" fill="white"/>
<path d="M22.1279 22.9531C21.9468 22.9531 21.7732 23.0202 21.6452 23.1395C21.5172 23.2588 21.4453 23.4207 21.4453 23.5894C21.4453 23.7582 21.5172 23.9201 21.6452 24.0394C21.7732 24.1587 21.9468 24.2258 22.1279 24.2258H24.5955C24.7765 24.2258 24.9502 24.1587 25.0782 24.0394C25.2062 23.9201 25.2781 23.7582 25.2781 23.5894C25.2781 23.4207 25.2062 23.2588 25.0782 23.1395C24.9502 23.0202 24.7765 22.9531 24.5955 22.9531H22.1279Z" fill="white"/>
<path d="M22.9718 28.0781L12.378 18.2024C11.6539 17.5263 10.3907 17.5263 9.66409 18.2024C9.4865 18.3679 9.34579 18.5645 9.25004 18.7808C9.1543 18.9972 9.10542 19.2291 9.10622 19.4632C9.10252 23.1408 7.1945 27.1135 4.00161 30.0906L1.63867 32.2926L0.851055 33.0271C0.306065 33.5364 0 34.2264 0 34.9457C0 35.6651 0.306065 36.3551 0.851055 36.8643L2.79278 38.6739C3.06299 38.9259 3.3838 39.1257 3.73689 39.2621C4.08997 39.3985 4.46842 39.4687 4.85061 39.4687C5.23279 39.4687 5.61124 39.3985 5.96433 39.2621C6.31741 39.1257 6.63822 38.9259 6.90843 38.6739L7.36441 38.249L11.7498 41.6163C12.0948 41.8823 12.5342 42.0183 12.9814 41.9976C13.4286 41.9769 13.8513 41.8009 14.1664 41.5044L14.8123 40.9023C15.0443 40.6854 15.1746 40.3917 15.1746 40.0854C15.1746 39.7792 15.0443 39.4854 14.8123 39.2686L12.9233 37.5079C13.5006 36.94 13.8719 36.2173 13.9847 35.442C14.0975 34.6666 13.946 33.8779 13.5518 33.1871C15.9858 31.83 18.7705 31.1171 21.6066 31.1249C22.116 31.1243 22.6047 30.9373 22.9678 30.6042C23.3271 30.2695 23.5293 29.8155 23.5301 29.342C23.5308 28.8684 23.3301 28.4139 22.9718 28.0781ZM5.9429 37.7741C5.64857 38.0361 5.25724 38.1824 4.85025 38.1824C4.44327 38.1824 4.05193 38.0361 3.75761 37.7741L1.81606 35.9645C1.52662 35.6941 1.36406 35.3277 1.36406 34.9457C1.36406 34.5637 1.52662 34.1973 1.81606 33.9269L2.12096 33.6423L2.68807 34.1711L6.24735 37.4901L5.9429 37.7741ZM13.7577 40.0857L13.2005 40.6046C13.1246 40.6763 13.0227 40.7191 12.9148 40.7245C12.8068 40.7299 12.7006 40.6975 12.6169 40.6338L8.33364 37.3453L9.57618 36.187L13.7577 40.0857ZM10.5526 35.2977C11.328 34.6022 11.6014 34.4118 12.4015 33.8868C12.6279 34.3304 12.7072 34.8268 12.6293 35.3126C12.5515 35.7984 12.32 36.2516 11.9645 36.6142L10.5526 35.2977ZM21.615 29.8523C16.1259 29.8523 12.4145 31.9426 9.09319 34.8373L7.21298 36.5901L3.08614 32.7428L4.96654 30.9904C8.4607 27.7324 10.4671 23.531 10.4711 19.4557C10.4731 19.3549 10.5069 19.2568 10.5683 19.1737C10.6297 19.0906 10.7159 19.0262 10.8163 18.9885C10.9167 18.9508 11.0268 18.9415 11.1328 18.9617C11.2388 18.9819 11.3361 19.0308 11.4126 19.1022L22.0063 28.9779C22.3664 29.3136 22.0705 29.869 21.615 29.8523Z" fill="white"/>
<path d="M2.72852 1.90895V10.8176C2.72919 11.3237 2.94516 11.8089 3.32904 12.1667C3.71292 12.5246 4.23339 12.7259 4.77627 12.7265H8.34514L12.5485 15.774C12.6435 15.8429 12.7563 15.8872 12.8756 15.9024C12.9948 15.9175 13.1162 15.903 13.2275 15.8603C13.3388 15.8176 13.436 15.7481 13.5092 15.6591C13.5824 15.57 13.6291 15.4645 13.6444 15.3532L14.0066 12.7265H14.3322C14.8751 12.7259 15.3956 12.5246 15.7794 12.1667C16.1633 11.8089 16.3793 11.3237 16.38 10.8176V1.90895C16.3793 1.40283 16.1633 0.917622 15.7794 0.559756C15.3955 0.20189 14.875 0.0005861 14.3321 0H4.77627C4.23339 0.000607805 3.71292 0.201921 3.32904 0.559785C2.94516 0.917649 2.72919 1.40284 2.72852 1.90895ZM4.09371 1.90895C4.09388 1.74024 4.16584 1.57847 4.29381 1.45917C4.42178 1.33987 4.59529 1.27279 4.77627 1.27263H14.3322C14.5132 1.27279 14.6867 1.33987 14.8147 1.45917C14.9426 1.57847 15.0146 1.74024 15.0148 1.90895V10.8176C15.0146 10.9863 14.9426 11.148 14.8147 11.2673C14.6867 11.3866 14.5132 11.4537 14.3322 11.4539H13.4059C13.24 11.4539 13.0798 11.5102 12.9553 11.6124C12.8307 11.7145 12.7503 11.8554 12.7291 12.0088L12.4424 14.0856L8.99796 11.5881C8.87822 11.5011 8.7308 11.4539 8.57903 11.4539H4.77627C4.59529 11.4537 4.42178 11.3866 4.29381 11.2673C4.16584 11.148 4.09388 10.9863 4.09371 10.8176V1.90895Z" fill="white"/>
<path d="M42.9995 27.3623C42.9988 26.8562 42.7828 26.3711 42.399 26.0132C42.0151 25.6553 41.4947 25.454 40.9518 25.4534H38.3602L31.0819 21.0997C30.9714 21.0336 30.8427 20.9987 30.7114 20.999C30.5801 20.9994 30.4517 21.035 30.3415 21.1017C30.2314 21.1683 30.1442 21.2632 30.0905 21.3749C30.0367 21.4866 30.0186 21.6103 30.0384 21.7314L30.6463 25.4536H29.3484C28.8056 25.4543 28.2851 25.6556 27.9013 26.0134C27.5174 26.3713 27.3015 26.8565 27.3008 27.3626V37.3081C27.3061 37.881 27.5549 38.4284 27.9926 38.8305C28.4304 39.2325 29.0213 39.4562 29.6357 39.4526H40.6642C41.2787 39.4563 41.8697 39.2326 42.3075 38.8305C42.7453 38.4285 42.9942 37.881 42.9995 37.3081V27.3623ZM41.6344 37.3081C41.6294 37.5436 41.5245 37.7676 41.3427 37.931C41.1608 38.0944 40.9168 38.1839 40.6642 38.1799H29.6355C29.383 38.1839 29.139 38.0943 28.9572 37.9309C28.7754 37.7675 28.6706 37.5435 28.6656 37.3081V27.3623C28.6658 27.1936 28.7379 27.0318 28.8659 26.9125C28.9939 26.7933 29.1675 26.7262 29.3484 26.7261H31.4408C31.5391 26.726 31.6362 26.7062 31.7255 26.6679C31.8148 26.6296 31.8942 26.5738 31.9583 26.5043C32.0224 26.4348 32.0696 26.3533 32.0968 26.2652C32.1239 26.1771 32.1304 26.0847 32.1157 25.994L31.6155 22.9311L37.7916 26.6254C37.9015 26.6912 38.0295 26.7262 38.1602 26.7261H40.9521C41.133 26.7263 41.3065 26.7934 41.4345 26.9127C41.5625 27.032 41.6344 27.1937 41.6346 27.3624L41.6344 37.3081Z" fill="white"/>
<path d="M21.8398 1.90895V13.3629C21.8405 13.869 22.0564 14.3542 22.4403 14.7121C22.8242 15.07 23.3446 15.2713 23.8875 15.2719H25.7609L25.3359 18.3373C25.3198 18.4548 25.3392 18.5743 25.392 18.6821C25.4448 18.7899 25.5288 18.8819 25.6345 18.9476C25.7403 19.0133 25.8637 19.0503 25.9908 19.0542C26.1178 19.0581 26.2435 19.0289 26.3538 18.9698L33.2361 15.2719H36.8561C37.3991 15.2713 37.9196 15.0701 38.3036 14.7122C38.6876 14.3543 38.9036 13.8691 38.9042 13.3629V1.90895C38.9036 1.4028 38.6876 0.917569 38.3036 0.559698C37.9197 0.201828 37.3992 0.000542687 36.8562 0H23.8875C23.3446 0.000629509 22.8242 0.201953 22.4403 0.559814C22.0565 0.917675 21.8405 1.40286 21.8398 1.90895ZM37.5388 1.90895V13.3629C37.5386 13.5316 37.4666 13.6934 37.3387 13.8127C37.2107 13.932 37.0372 13.9991 36.8562 13.9993H33.0535C32.9338 13.9992 32.8162 14.0286 32.7125 14.0844L26.8664 17.2257L27.2143 14.717C27.2267 14.6273 27.2184 14.5362 27.1901 14.4497C27.1617 14.3633 27.1139 14.2834 27.0499 14.2155C26.9859 14.1476 26.907 14.0932 26.8187 14.0559C26.7303 14.0186 26.6345 13.9993 26.5375 13.9993H23.8875C23.7065 13.9991 23.533 13.932 23.4051 13.8127C23.2771 13.6934 23.2051 13.5316 23.205 13.3629V1.90895C23.2051 1.74024 23.2771 1.57849 23.4051 1.4592C23.533 1.3399 23.7065 1.27281 23.8875 1.27263H36.8562C37.0372 1.27281 37.2107 1.3399 37.3387 1.4592C37.4666 1.57849 37.5386 1.74024 37.5388 1.90895Z" fill="white"/>
<path d="M7.76435 30.7277C7.70075 30.6688 7.62532 30.6222 7.54237 30.5905C7.45941 30.5588 7.37057 30.5426 7.28091 30.543C7.19126 30.5433 7.10256 30.5602 7.0199 30.5925C6.93723 30.6249 6.86222 30.6721 6.79916 30.7315L5.65632 31.8061C5.59291 31.8654 5.54266 31.9357 5.50847 32.0131C5.47427 32.0905 5.45679 32.1734 5.45703 32.2571C5.45728 32.3409 5.47523 32.4237 5.50988 32.5009C5.54452 32.5781 5.59517 32.6482 5.65893 32.7072C5.72268 32.7661 5.79828 32.8128 5.8814 32.8444C5.96453 32.8761 6.05353 32.8921 6.14332 32.8917C6.23311 32.8912 6.32191 32.8742 6.40465 32.8417C6.48738 32.8092 6.56242 32.7617 6.62546 32.7021L7.76831 31.6275C7.83142 31.5682 7.88139 31.4979 7.91535 31.4205C7.94931 31.3432 7.9666 31.2604 7.96623 31.1769C7.96587 31.0933 7.94785 31.0106 7.91321 30.9336C7.87857 30.8565 7.82798 30.7866 7.76435 30.7277Z" fill="white"/>
<path d="M8.38536 32.2031L7.24252 33.2777C7.12035 33.3984 7.05364 33.5589 7.05661 33.7249C7.05959 33.8909 7.13201 34.0492 7.25844 34.1661C7.38487 34.283 7.55528 34.3492 7.73333 34.3505C7.91138 34.3519 8.08297 34.2884 8.21149 34.1735L9.35433 33.0989C9.41744 33.0396 9.46739 32.9693 9.50135 32.8919C9.5353 32.8146 9.55258 32.7318 9.5522 32.6482C9.55183 32.5647 9.5338 32.482 9.49916 32.405C9.46451 32.3279 9.41392 32.258 9.35028 32.1991C9.28664 32.1403 9.21119 32.0937 9.12825 32.0621C9.0453 32.0304 8.95648 32.0143 8.86685 32.0147C8.77723 32.015 8.68855 32.0318 8.60589 32.0641C8.52323 32.0964 8.44821 32.1436 8.3851 32.2029L8.38536 32.2031Z" fill="white"/>
<path d="M6.14154 7.14023C5.96051 7.14023 5.7869 7.20727 5.6589 7.3266C5.5309 7.44593 5.45898 7.60778 5.45898 7.77655C5.45898 7.94531 5.5309 8.10716 5.6589 8.22649C5.7869 8.34582 5.96051 8.41286 6.14154 8.41286H7.0534L6.83747 9.41955C6.80194 9.58502 6.83837 9.75686 6.93875 9.89729C7.03913 10.0377 7.19524 10.1352 7.37273 10.1683C7.55022 10.2015 7.73455 10.1675 7.88518 10.0739C8.0358 9.98033 8.14039 9.8348 8.17592 9.66934L8.44553 8.41286H9.78362L9.56769 9.41955C9.5501 9.50148 9.54999 9.58584 9.56736 9.66781C9.58474 9.74978 9.61927 9.82776 9.66897 9.89729C9.76935 10.0377 9.92546 10.1352 10.1029 10.1683C10.2804 10.2015 10.4648 10.1675 10.6154 10.0739C10.69 10.0276 10.754 9.968 10.8039 9.89858C10.8538 9.82916 10.8885 9.75127 10.9061 9.66934L11.1757 8.41286H12.9672C13.1482 8.41286 13.3218 8.34582 13.4498 8.22649C13.5778 8.10716 13.6497 7.94531 13.6497 7.77655C13.6497 7.60778 13.5778 7.44593 13.4498 7.3266C13.3218 7.20727 13.1482 7.14023 12.9672 7.14023H11.4488L11.7824 5.58483H12.9672C13.1482 5.58483 13.3218 5.51779 13.4498 5.39846C13.5778 5.27913 13.6497 5.11728 13.6497 4.94852C13.6497 4.77975 13.5778 4.6179 13.4498 4.49857C13.3218 4.37924 13.1482 4.3122 12.9672 4.3122H12.0555L12.2712 3.30608C12.2888 3.22415 12.289 3.1398 12.2716 3.05783C12.2542 2.97586 12.2197 2.89788 12.17 2.82835C12.1203 2.75882 12.0564 2.69909 11.9819 2.65259C11.9074 2.60608 11.8239 2.5737 11.736 2.5573C11.6481 2.5409 11.5576 2.5408 11.4697 2.557C11.3818 2.5732 11.2981 2.60539 11.2235 2.65172C11.149 2.69806 11.0849 2.75764 11.035 2.82705C10.9851 2.89647 10.9504 2.97437 10.9328 3.0563L10.6634 4.3122H9.32527L9.54103 3.30608C9.57656 3.14062 9.54013 2.96877 9.43975 2.82835C9.33937 2.68792 9.18326 2.59043 9.00577 2.5573C8.82828 2.52418 8.64395 2.55814 8.49332 2.65172C8.34269 2.7453 8.23811 2.89083 8.20258 3.0563L7.93306 4.3122H6.14154C5.96051 4.3122 5.7869 4.37924 5.6589 4.49857C5.5309 4.6179 5.45898 4.77975 5.45898 4.94852C5.45898 5.11728 5.5309 5.27913 5.6589 5.39846C5.7869 5.51779 5.96051 5.58483 6.14154 5.58483H7.66011L7.32635 7.14023H6.14154ZM9.05214 5.58483H10.3904L10.0567 7.14023H8.71848L9.05214 5.58483Z" fill="white"/>
<path d="M25.2509 12.0898H27.1052C27.6501 12.5928 28.7647 12.7262 28.9784 12.7262H33.6257C34.7155 12.7262 35.6423 12.0104 35.7815 11.0609L36.1541 8.51623C36.1908 8.25581 36.1673 7.99108 36.0851 7.73983C36.003 7.48859 35.8641 7.25665 35.6778 7.0596C35.4674 6.83849 35.2087 6.66193 34.919 6.54178C34.6293 6.42163 34.3154 6.36067 33.9984 6.36299H33.5232L33.6881 5.51807C33.7552 5.16673 33.7384 4.80593 33.639 4.46133C33.5395 4.11673 33.3598 3.7968 33.1127 3.52429C32.0817 2.37167 30.589 2.56543 30.4691 2.54492C30.3092 2.54492 30.1544 2.59724 30.0317 2.69275C29.9089 2.78825 29.8261 2.9209 29.7975 3.06754L29.2973 5.62963C29.2157 6.04799 28.7581 6.36291 28.2326 6.36291H25.2509C25.1613 6.36288 25.0725 6.37933 24.9897 6.4113C24.9069 6.44327 24.8316 6.49014 24.7682 6.54923C24.7048 6.60832 24.6546 6.67848 24.6203 6.75569C24.586 6.8329 24.5683 6.91565 24.5684 6.99922V11.4535C24.5683 11.5371 24.586 11.6198 24.6203 11.6971C24.6546 11.7743 24.7048 11.8444 24.7682 11.9035C24.8316 11.9626 24.9069 12.0095 24.9897 12.0414C25.0725 12.0734 25.1613 12.0899 25.2509 12.0898ZM28.8279 7.57221C29.75 7.37066 30.4733 6.71146 30.6405 5.85776L31.0365 3.83076C31.8555 3.92748 32.4875 4.56519 32.3456 5.29043L32.0344 6.88561C32.0166 6.97729 32.0206 7.0715 32.0461 7.16158C32.0717 7.25166 32.1181 7.33542 32.1821 7.40695C32.2462 7.47848 32.3263 7.53603 32.4168 7.57554C32.5073 7.61505 32.606 7.63556 32.706 7.63562H33.9987C34.121 7.63327 34.2423 7.65535 34.3546 7.70037C34.467 7.7454 34.5676 7.81232 34.6499 7.89664C34.7087 7.95635 34.7529 8.02733 34.7792 8.10462C34.8055 8.18191 34.8134 8.26363 34.8022 8.34404L34.4296 10.8887C34.3823 11.2106 34.037 11.4536 33.6264 11.4536H28.9784C28.7129 11.4301 28.4534 11.3668 28.2096 11.266L28.8279 7.57221ZM25.9335 7.63554H27.4352L26.9027 10.8172H25.9335V7.63554Z" fill="white"/>
</svg>
