<svg width="42" height="42" viewBox="0 0 42 42" fill="none" xmlns="http://www.w3.org/2000/svg">
<path d="M38.0937 12.5705H25.4339C25.4271 11.9768 25.3822 11.3908 25.2967 10.8268C25.2467 10.4957 24.9622 10.2509 24.6277 10.2509H23.3372C23.0688 9.084 22.6106 7.98056 21.9704 6.95672L22.8833 6.04382C23.1204 5.80671 23.1484 5.4324 22.9494 5.16311C22.1948 4.14181 21.2955 3.24246 20.2751 2.48877C20.0058 2.28976 19.6316 2.31771 19.3945 2.55482L18.4824 3.46688C17.462 2.82836 16.357 2.36937 15.1858 2.09922V0.808631C15.1858 0.47328 14.9402 0.187894 14.6083 0.138777C13.3626 -0.0458353 12.0848 -0.0466821 10.829 0.138777C10.497 0.187894 10.2506 0.472434 10.2506 0.808631V2.09922C9.07863 2.37021 7.97439 2.82836 6.95399 3.46688L6.04198 2.55482C5.80487 2.31771 5.43058 2.28976 5.1613 2.48877C4.14597 3.23907 3.24666 4.13842 2.48708 5.16226C2.28723 5.43156 2.31517 5.80671 2.55228 6.04382L3.46514 6.95672C2.83511 7.9687 2.37022 9.08992 2.10008 10.2509H0.808702C0.473366 10.2509 0.187991 10.4974 0.138877 10.8293C0.0465744 11.4552 0 12.0911 0 12.7187C0 13.3462 0.0465744 13.9847 0.139723 14.6088C0.188838 14.9408 0.474213 15.1864 0.809549 15.1864H2.10008C2.37022 16.3592 2.82834 17.4635 3.46599 18.4831L2.55313 19.396C2.31602 19.6331 2.28808 20.0083 2.48792 20.2776C3.24751 21.3014 4.14682 22.2016 5.16214 22.9519C5.3586 23.0976 5.6118 23.1213 5.82604 23.0315V38.0994C5.82604 40.2504 7.57724 42 9.72898 42H38.0971C40.2496 42 42 40.2504 42 38.0994V16.4736C42 14.3209 40.2488 12.5705 38.0971 12.5705H38.0937ZM25.2967 14.6122C25.3314 14.3869 25.3568 14.1566 25.3788 13.9246H38.0937C39.4994 13.9246 40.6426 15.0678 40.6426 16.4736V20.3191H22.9163C22.9265 20.3047 22.9383 20.2911 22.9485 20.2776C23.1475 20.0083 23.1196 19.634 22.8825 19.3969L21.9696 18.484C22.6098 17.4601 23.0679 16.355 23.3363 15.1872H24.6269C24.9614 15.1872 25.2459 14.9425 25.2959 14.6122H25.2967ZM5.5051 21.5064C4.93181 21.0355 4.4051 20.5079 3.93004 19.9304L4.81072 19.0505C5.04274 18.8185 5.07492 18.4526 4.88693 18.1833C4.08839 17.0418 3.55914 15.7656 3.3161 14.392C3.25852 14.0685 2.97822 13.8331 2.64966 13.8331H1.40486C1.36929 13.4622 1.35066 13.0896 1.35066 12.7195C1.35066 12.3494 1.36844 11.9768 1.40486 11.6059H2.64966C2.97822 11.6059 3.25852 11.3705 3.3161 11.047C3.55575 9.69373 4.0994 8.38281 4.88693 7.25735C5.07492 6.98806 5.04274 6.62307 4.81072 6.39103L3.93004 5.51116C4.40425 4.93361 4.93181 4.40687 5.5051 3.93518L6.38578 4.8159C6.61781 5.04794 6.98363 5.08012 7.25291 4.89212C8.3961 4.091 9.67224 3.56172 11.0441 3.31868C11.3676 3.26109 11.603 2.98079 11.603 2.65221V1.40735C12.3473 1.33537 13.0908 1.33537 13.8301 1.40735V2.65221C13.8301 2.98079 14.0655 3.26194 14.389 3.31868C15.7608 3.56172 17.0369 4.091 18.1801 4.89212C18.4494 5.08096 18.8144 5.04878 19.0473 4.8159L19.9279 3.93518C20.5038 4.40772 21.0305 4.93446 21.503 5.51031L20.6223 6.39103C20.3903 6.62307 20.3581 6.98806 20.5461 7.25735C21.3489 8.40737 21.8773 9.68187 22.1169 11.0461C22.1737 11.3696 22.4548 11.6059 22.7834 11.6059H24.029C24.0646 11.9709 24.0824 12.3435 24.0824 12.7195C24.0824 13.0955 24.0646 13.4698 24.0299 13.8331H22.7842C22.4557 13.8331 22.1745 14.0694 22.1178 14.3929C21.8781 15.7588 21.3497 17.0342 20.547 18.1842C20.359 18.4535 20.3911 18.8185 20.6232 19.0505L21.5038 19.9312C21.0313 20.5071 20.5046 21.0338 19.9288 21.5064L19.0481 20.6256C18.8161 20.3936 18.4503 20.3614 18.181 20.5494C17.0378 21.3505 15.7616 21.8798 14.3898 22.1229C14.0663 22.1805 13.8309 22.4608 13.8309 22.7893V24.0342C13.0908 24.1062 12.3482 24.1062 11.6038 24.0342V22.7893C11.6038 22.4608 11.3684 22.1796 11.0449 22.1229C9.67309 21.8798 8.39695 21.3505 7.25376 20.5494C6.98447 20.3606 6.6195 20.3928 6.38663 20.6256L5.50595 21.5064H5.5051ZM38.0937 40.6467H9.72559C8.31989 40.6467 7.1767 39.5043 7.1767 38.0994V22.1076C8.13444 22.6759 9.16247 23.0908 10.2489 23.3415V24.6321C10.2489 24.9674 10.4953 25.2528 10.8273 25.3019C11.4539 25.3942 12.0899 25.4416 12.7165 25.4416C13.3432 25.4416 13.9825 25.3951 14.6066 25.3019C14.9385 25.2528 15.1841 24.9674 15.1841 24.6321V23.3415C16.3553 23.0705 17.4603 22.6123 18.4807 21.9738L19.3928 22.8859C19.6299 23.123 20.0042 23.1509 20.2734 22.9519C20.7993 22.5632 21.2922 22.1356 21.7511 21.6732H40.6426V38.0994C40.6426 39.5035 39.4994 40.6467 38.0937 40.6467ZM19.8754 35.0821C19.7501 35.2998 19.5223 35.4209 19.2886 35.4209C19.1734 35.4209 19.0574 35.3921 18.9507 35.3303L13.8089 32.3629C13.4134 32.1351 13.1772 31.7261 13.1772 31.2705C13.1772 30.8149 13.4134 30.4059 13.8089 30.1772L18.9499 27.2082C19.2742 27.021 19.6874 27.132 19.8746 27.4554C20.0617 27.7789 19.9508 28.193 19.6273 28.3802L14.6235 31.2696L19.6265 34.1565C19.95 34.3437 20.0609 34.7569 19.8746 35.0813L19.8754 35.0821ZM34.6421 31.2705C34.6421 31.7269 34.4058 32.1351 34.0104 32.3629L28.8685 35.3303C28.7618 35.3921 28.6458 35.4209 28.5307 35.4209C28.2969 35.4209 28.0692 35.2998 27.9438 35.0821C27.7567 34.7586 27.8676 34.3445 28.1919 34.1574L33.1949 31.2705L28.1911 28.381C27.8676 28.1939 27.7567 27.7798 27.9438 27.4563C28.131 27.1328 28.5451 27.0219 28.8685 27.209L34.0095 30.178C34.405 30.4059 34.6412 30.8149 34.6412 31.2713L34.6421 31.2705ZM26.3061 24.9403L22.8206 37.9512C22.7393 38.2536 22.4658 38.4534 22.1669 38.4534C22.1093 38.4534 22.05 38.4458 21.9916 38.4305C21.6309 38.334 21.4158 37.9622 21.5132 37.6015L24.9986 24.5906C25.0952 24.2298 25.4669 24.0147 25.8277 24.1121C26.1884 24.2086 26.4035 24.5804 26.3061 24.9412V24.9403ZM25.9166 17.1222C25.9166 16.7479 26.2197 16.4456 26.5932 16.4456H28.6789C29.0531 16.4456 29.3555 16.7488 29.3555 17.1222C29.3555 17.4957 29.0523 17.7989 28.6789 17.7989H26.5932C26.2189 17.7989 25.9166 17.4957 25.9166 17.1222ZM33.3719 17.1222C33.3719 16.7479 33.675 16.4456 34.0485 16.4456H36.1342C36.5084 16.4456 36.8108 16.7488 36.8108 17.1222C36.8108 17.4957 36.5076 17.7989 36.1342 17.7989H34.0485C33.6742 17.7989 33.3719 17.4957 33.3719 17.1222ZM12.7165 19.2275C16.3044 19.2275 19.2242 16.3084 19.2242 12.7195C19.2242 9.13057 16.3053 6.21404 12.7165 6.21404C9.12775 6.21404 6.21134 9.13227 6.21134 12.7195C6.21134 16.3067 9.12944 19.2275 12.7165 19.2275ZM12.7165 7.56814C15.5584 7.56814 17.8702 9.87918 17.8702 12.7195C17.8702 15.5598 15.5584 17.8734 12.7165 17.8734C9.87463 17.8734 7.56539 15.5615 7.56539 12.7195C7.56539 9.87749 9.87633 7.56814 12.7165 7.56814ZM9.98387 13.1472C9.71967 12.8829 9.71967 12.4536 9.98387 12.1894C10.2481 11.9252 10.6774 11.926 10.9416 12.1894L11.9993 13.2488L14.494 10.754C14.7582 10.4898 15.1867 10.4898 15.4509 10.754C15.7151 11.0182 15.7151 11.4467 15.4509 11.7109L12.4769 14.685C12.3499 14.8121 12.178 14.8832 11.9984 14.8832C11.8189 14.8832 11.6462 14.8121 11.52 14.6842L9.98387 13.1455V13.1472Z" fill="white"/>
</svg>
