<svg width="115" height="82" viewBox="0 0 115 82" fill="none" xmlns="http://www.w3.org/2000/svg">
<mask id="mask0_746_36814" style="mask-type:luminance" maskUnits="userSpaceOnUse" x="2" y="4" width="111" height="74">
<path d="M2.29688 40.6706C2.29688 60.836 27.0113 77.1836 57.4969 77.1836C87.9825 77.1836 112.697 60.836 112.697 40.6706C112.697 20.5054 87.9825 4.15754 57.4969 4.15754C27.0113 4.15754 2.29688 20.5054 2.29688 40.6706Z" fill="white"/>
</mask>
<g mask="url(#mask0_746_36814)">
<path d="M2.29688 40.6706C2.29688 60.836 27.0113 77.1836 57.4969 77.1836C87.9825 77.1836 112.697 60.836 112.697 40.6706C112.697 20.5054 87.9825 4.15754 57.4969 4.15754C27.0113 4.15754 2.29688 20.5054 2.29688 40.6706Z" fill="url(#paint0_radial_746_36814)"/>
</g>
<mask id="mask1_746_36814" style="mask-type:luminance" maskUnits="userSpaceOnUse" x="0" y="0" width="115" height="82">
<path d="M0 0.000335693H115V81.3418H0V0.000335693Z" fill="white"/>
</mask>
<g mask="url(#mask1_746_36814)">
<path d="M57.4969 74.4727C86.7917 74.4727 110.541 59.3389 110.541 40.6705C110.541 22.0024 86.7917 6.86836 57.4969 6.86836C28.202 6.86836 4.45312 22.0024 4.45312 40.6705C4.45312 59.3389 28.202 74.4727 57.4969 74.4727Z" fill="#777BB3"/>
</g>
<mask id="mask2_746_36814" style="mask-type:luminance" maskUnits="userSpaceOnUse" x="0" y="0" width="115" height="82">
<path d="M0 0.000335693H115V81.3418H0V0.000335693Z" fill="white"/>
</mask>
<g mask="url(#mask2_746_36814)">
<path d="M32.2911 44.8622C34.6999 44.8622 36.4981 44.3036 37.636 43.2025C38.7616 42.1126 39.5391 40.2245 39.9465 37.5907C40.3265 35.1288 40.1817 33.4099 39.5165 32.4822C38.8363 31.5347 37.3656 31.0542 35.1455 31.0542H31.296L29.1619 44.8622H32.2911ZM19.7004 61.8711C19.5217 61.8711 19.352 61.7707 19.2384 61.5969C19.1246 61.4235 19.0784 61.195 19.1126 60.9743L24.7683 24.383C24.823 24.0292 25.0696 23.7737 25.3563 23.7737H37.5459C41.3769 23.7737 44.2283 25.0816 46.0206 27.6617C47.8224 30.2554 48.3789 33.8808 47.6743 38.4372C47.3876 40.2935 46.8945 42.0175 46.2087 43.561C45.522 45.1062 44.6146 46.536 43.5111 47.8113C42.1902 49.3658 40.6952 50.4931 39.0717 51.1564C37.4738 51.8109 35.4218 52.1428 32.9727 52.1428H28.0369L26.6273 61.2615C26.5726 61.6155 26.3262 61.8711 26.0395 61.8711H19.7004Z" fill="black"/>
<path d="M31.7872 31.8062H35.1429C37.8225 31.8062 38.7532 32.5455 39.0695 32.9861C39.5942 33.7177 39.6932 35.2602 39.356 37.4466C38.9771 39.8944 38.2747 41.6299 37.268 42.6045C36.2374 43.6022 34.5619 44.1078 32.2885 44.1078H29.8859L31.7872 31.8062ZM37.5434 23.0193H25.3536C24.7802 23.0193 24.2872 23.5304 24.1778 24.2382L18.522 60.8295C18.4538 61.2711 18.546 61.7278 18.7734 62.075C19.001 62.4222 19.34 62.623 19.6978 62.623H26.0368C26.6104 62.623 27.1033 62.1119 27.2127 61.4042L28.528 52.8947H32.9701C35.4821 52.8947 37.5969 52.5503 39.255 51.8712C40.9602 51.1745 42.5291 49.9933 43.9177 48.3604C45.0661 47.0318 46.012 45.5406 46.7288 43.9276C47.4457 42.314 47.9608 40.5147 48.2597 38.5796C49.0014 33.7835 48.3989 29.9429 46.469 27.1652C44.558 24.4142 41.5548 23.0193 37.5434 23.0193ZM28.4326 45.6141H32.2885C34.8442 45.6141 36.7479 45.0089 37.9988 43.798C39.2498 42.5869 40.0935 40.5657 40.532 37.7333C40.9514 35.0139 40.7604 33.0948 39.9588 31.9769C39.1561 30.859 37.5511 30.2999 35.1429 30.2999H30.7997L28.4326 45.6141ZM37.5434 24.5256C41.2104 24.5256 43.8855 25.7357 45.567 28.1561C47.2483 30.5765 47.7546 33.955 47.0838 38.2924C46.8076 40.0792 46.3407 41.7128 45.6832 43.1927C45.0249 44.6737 44.1654 46.0279 43.1033 47.2558C41.8375 48.7453 40.4313 49.8067 38.884 50.4389C37.3367 51.0728 35.3659 51.3884 32.9701 51.3884H27.5403L26.0368 61.1167H19.6978L25.3536 24.5256H37.5434Z" fill="white"/>
<path d="M62.2079 52.1406C62.029 52.1406 61.8595 52.0402 61.7459 51.8665C61.6319 51.693 61.5858 51.4648 61.62 51.2439L64.1218 35.0536C64.3598 33.5139 64.3011 32.4088 63.9567 31.9418C63.7459 31.6564 63.1126 31.1776 61.24 31.1776H56.7075L53.562 51.5311C53.5073 51.8851 53.2607 52.1406 52.974 52.1406H46.6849C46.506 52.1406 46.3365 52.0402 46.2227 51.8665C46.1089 51.693 46.0628 51.4645 46.097 51.2439L51.7527 14.6525C51.8074 14.2988 52.054 14.0432 52.3407 14.0432H58.6298C58.8086 14.0432 58.9782 14.1436 59.092 14.3171C59.2058 14.4908 59.2519 14.719 59.2177 14.94L57.8529 23.7715H62.7288C66.4434 23.7715 68.9622 24.595 70.4292 26.2891C71.9246 28.0174 72.3912 30.7807 71.8162 34.5033L69.1848 51.5311C69.1301 51.8851 68.8837 52.1406 68.5968 52.1406H62.2079Z" fill="black"/>
<path d="M58.6272 13.2908H52.3381C51.7645 13.2908 51.2716 13.8019 51.1622 14.5096L45.5064 51.101C45.4381 51.5426 45.5304 51.9993 45.758 52.3465C45.9856 52.6937 46.3246 52.8945 46.6824 52.8945H52.9714C53.5448 52.8945 54.038 52.3834 54.1474 51.6757L57.1987 31.9315H61.2374C63.1068 31.9315 63.4991 32.4336 63.5149 32.4552C63.6283 32.6086 63.7774 33.3191 63.5313 34.9108L61.0294 51.101C60.9611 51.5426 61.0534 51.9993 61.281 52.3465C61.5086 52.6937 61.8476 52.8945 62.2054 52.8945H68.5943C69.1677 52.8945 69.6608 52.3834 69.7702 51.6757L72.4014 34.6479C73.019 30.6509 72.4907 27.6526 70.832 25.7355C69.2491 23.9076 66.5977 23.0191 62.7263 23.0191H58.5767L59.8031 15.0846C59.8712 14.643 59.7792 14.186 59.5516 13.8391C59.324 13.4919 58.985 13.2908 58.6272 13.2908ZM58.6272 14.7971L57.1236 24.5254H62.7263C66.2515 24.5254 68.6831 25.2992 70.0214 26.8447C71.3596 28.3912 71.7605 30.8969 71.2257 34.3607L68.5943 51.3882H62.2054L64.7072 35.1982C64.9919 33.3565 64.8873 32.1002 64.393 31.4304C63.8984 30.7606 62.8464 30.4252 61.2374 30.4252H56.211L52.9714 51.3882H46.6824L52.3381 14.7971H58.6272Z" fill="white"/>
<path d="M81.7676 44.8622C84.1764 44.8622 85.9747 44.3036 87.1125 43.2025C88.2381 42.1129 89.0156 40.2247 89.4233 37.5907C89.8032 35.1288 89.6585 33.4099 88.993 32.4822C88.3128 31.5347 86.8422 31.0542 84.622 31.0542H80.7725L78.6384 44.8622H81.7676ZM69.1771 61.8711C68.9984 61.8711 68.8287 61.7707 68.7151 61.5969C68.6013 61.4235 68.555 61.195 68.5891 60.9743L74.2449 24.383C74.2998 24.0292 74.5462 23.7737 74.8331 23.7737H87.0225C90.8536 23.7737 93.7048 25.0816 95.4973 27.6617C97.2992 30.2551 97.8554 33.8806 97.151 38.4372C96.8639 40.2935 96.371 42.0175 95.6852 43.561C94.9986 45.1062 94.0912 46.536 92.9877 47.8113C91.6668 49.3658 90.1718 50.4931 88.5482 51.1564C86.9504 51.8109 84.8984 52.1428 82.4492 52.1428H77.5132L76.1042 61.2615C76.0493 61.6155 75.803 61.8711 75.5161 61.8711H69.1771Z" fill="black"/>
<path d="M81.2635 31.8062H84.6193C87.2988 31.8062 88.2296 32.5455 88.5459 32.9861C89.0708 33.7177 89.1698 35.2602 88.8324 37.4464C88.4534 39.8944 87.7508 41.6299 86.7444 42.6045C85.7138 43.6022 84.0383 44.1078 81.7649 44.1078H79.3624L81.2635 31.8062ZM87.0197 23.0193H74.8301C74.2567 23.0193 73.7638 23.5304 73.6544 24.2382L67.9986 60.8295C67.9303 61.2711 68.0226 61.7278 68.25 62.075C68.4776 62.4222 68.8166 62.623 69.1744 62.623H75.5133C76.0867 62.623 76.5799 62.1119 76.6893 61.4042L78.0044 52.8947H82.4465C84.9585 52.8947 87.0732 52.5503 88.7313 51.8712C90.4366 51.1745 92.0058 49.993 93.3944 48.3599C94.5428 47.0316 95.4884 45.5406 96.2051 43.9276C96.9221 42.314 97.4372 40.5147 97.7361 38.5796C98.4778 33.7832 97.8752 29.9426 95.9454 27.1649C94.0343 24.4142 91.0313 23.0193 87.0197 23.0193ZM77.9092 45.6141H81.7649C84.3206 45.6141 86.2243 45.0089 87.4751 43.798C88.7263 42.5869 89.5699 40.5657 90.0083 37.7333C90.428 35.0139 90.2369 33.0948 89.4351 31.9769C88.6325 30.859 87.0275 30.2999 84.6193 30.2999H80.276L77.9092 45.6141ZM87.0197 24.5256C90.6867 24.5256 93.3619 25.7357 95.0434 28.1561C96.7248 30.5765 97.231 33.955 96.5601 38.2924C96.284 40.0792 95.817 41.7128 95.1596 43.1927C94.5013 44.6737 93.6418 46.0279 92.5796 47.2558C91.3139 48.7453 89.9077 49.8067 88.3604 50.4389C86.8131 51.0728 84.8423 51.3884 82.4465 51.3884H77.0167L75.5133 61.1167H69.1744L74.8301 24.5256H87.0197Z" fill="white"/>
</g>
<defs>
<radialGradient id="paint0_radial_746_36814" cx="0" cy="0" r="1" gradientUnits="userSpaceOnUse" gradientTransform="translate(35.4392 16.9944) scale(72.4855 91.1471)">
<stop stop-color="#AEB2D5"/>
<stop offset="0.3" stop-color="#AEB2D5"/>
<stop offset="0.75" stop-color="#484C89"/>
<stop offset="1" stop-color="#484C89"/>
</radialGradient>
</defs>
</svg>
