<svg width="235" height="83" viewBox="0 0 235 83" fill="none" xmlns="http://www.w3.org/2000/svg">
<path d="M139.08 40.6016H127.506C119.255 40.6016 116.465 48.081 116.465 51.6427V82.629H128.04V75.2089H138.902V82.629H150.121V51.6427C150.121 42.6198 141.93 40.6016 139.08 40.6016ZM138.843 63.218H127.98V52.9486C127.98 52.9486 127.98 50.6335 131.601 50.6335H135.578C138.784 50.6335 138.843 52.9486 138.843 52.9486V63.218Z" fill="#D30001"/>
<path d="M110.943 54.9648C110.943 41.5493 98.3586 40.3027 98.3586 40.3027H75.6836V82.627H87.0804V72.4169L96.934 82.627H113.792L100.555 69.2708C100.555 69.2708 110.943 68.3804 110.943 54.9648ZM96.1623 60.6041H87.0804V50.9283H96.2217C96.2217 50.9283 98.7741 51.8781 98.7741 55.7365C98.7741 59.595 96.1623 60.6041 96.1623 60.6041Z" fill="#D30001"/>
<path d="M220.441 66.625C220.639 66.6262 220.706 66.6262 220.441 66.625V66.625Z" fill="#D30001"/>
<path d="M223.965 56.3915H214.289V51.4052H233.462V40.6016H215.061C210.312 40.6016 203.961 44.5194 203.961 51.8207V55.5605C203.961 62.8618 210.253 66.6016 215.061 66.6016C218.544 66.617 219.99 66.6247 220.447 66.6271C219.677 66.6223 216.941 66.6016 224.202 66.6016V71.8253L204.555 71.8847V82.629H223.965C227.942 82.629 234.768 79.7203 235.005 71.5879V67.4326C235.005 60.4874 229.307 56.3915 223.965 56.3915Z" fill="#D30001"/>
<path d="M155.402 40.6016H167.452V82.629H155.402V40.6016Z" fill="#D30001"/>
<path d="M184.369 40.6016H172.379V82.629H200.574V71.766H184.369V40.6016Z" fill="#D30001"/>
<path d="M102.093 5.57763C101.559 5.28082 100.075 4.56849 96.3351 3.5L96.0977 7.41781C98.0565 8.07078 99.956 8.78311 101.855 9.5548L102.093 5.57763Z" fill="#D30001"/>
<path d="M69.3874 6.23332C52.0547 7.7767 30.8043 23.5073 18.339 44.2836C5.87374 65.0598 4.15234 82.6306 4.15234 82.6306H51.0456C51.0456 82.6306 42.0825 41.7311 71.7617 25.1694C78.2318 22.0233 98.8293 10.2699 132.545 35.2014C133.613 34.311 134.622 33.5986 134.622 33.5986C134.622 33.5986 103.756 2.7904 69.3874 6.23332Z" fill="#D30001"/>
<path d="M27.7203 27.4851L23.5058 23.8047C21.9625 25.2887 20.4785 26.7727 19.1133 28.2567L23.6839 32.1746C24.9304 30.5718 26.2957 28.9691 27.7203 27.4851Z" fill="#D30001"/>
<path d="M50.1566 9.8537L47.4854 5.75781C46.0015 6.5295 44.4581 7.36055 42.8555 8.31032L45.586 12.4656C47.1293 11.5158 48.6133 10.6254 50.1566 9.8537Z" fill="#D30001"/>
<path d="M9.79416 54.0205L2.96793 51.5273C1.84012 54.0799 0.593586 57.0479 0 58.6506L6.82624 61.1438C7.5979 59.1255 8.84443 56.2168 9.79416 54.0205Z" fill="#D30001"/>
<path d="M74.2569 3.62101H74.8504L73.6633 0C71.8232 0 69.9237 0.118722 67.9648 0.356165L69.0927 3.85845C70.8141 3.68037 72.5355 3.62101 74.2569 3.62101Z" fill="#D30001"/>
<path d="M52.8281 70.7578C52.9468 73.9039 53.2436 76.4564 53.5404 78.2373L60.6635 80.7898C60.1292 78.4747 59.595 75.8628 59.2389 73.0729L52.8281 70.7578Z" fill="#D30001"/>
<path d="M77.1055 25.466L78.4707 29.5618C80.1921 28.7308 81.9135 28.0185 83.6349 27.4842L82.329 23.5664C80.3108 24.16 78.5894 24.813 77.1055 25.466Z" fill="#D30001"/>
<path d="M95.9805 25.8823C97.9393 25.9417 99.8981 26.1791 101.857 26.5946L102.094 22.9143C100.076 22.4987 98.1174 22.2613 96.2179 22.1426L95.9805 25.8823Z" fill="#D30001"/>
<path d="M55.4956 49.1504C54.7239 51.3467 54.1897 53.5431 53.7148 55.6801L58.5229 59.4792C58.7603 57.1641 59.1758 54.849 59.7694 52.534L55.4956 49.1504Z" fill="#D30001"/>
<path d="M62.3242 36.567L65.1734 40.841C66.1825 39.357 67.3697 37.9917 68.6756 36.6264L66.0044 32.5898C64.6392 33.8364 63.3927 35.2017 62.3242 36.567Z" fill="#D30001"/>
</svg>
