<svg width="188" height="94" viewBox="0 0 188 94" fill="none" xmlns="http://www.w3.org/2000/svg">
<g style="mix-blend-mode:luminosity">
<path d="M27.7395 91.4646H0.633712C0.28376 91.4646 0 91.1808 0 90.8309V49.1806C0 48.8306 0.28376 48.5469 0.633712 48.5469H27.7395C28.0895 48.5469 28.3732 48.8306 28.3732 49.1806V90.8309C28.3732 91.1808 28.0898 91.4646 27.7395 91.4646ZM1.26779 90.1972H27.1062V49.8143H1.26779V90.1972Z" fill="#666666"/>
</g>
<g style="mix-blend-mode:luminosity">
<path d="M27.7395 54.6714H0.633712C0.28376 54.6714 0 54.3876 0 54.0377V49.1806C0 48.8306 0.28376 48.5469 0.633712 48.5469H27.7395C28.0895 48.5469 28.3732 48.8306 28.3732 49.1806V54.0377C28.3732 54.3876 28.0898 54.6714 27.7395 54.6714ZM1.26779 53.404H27.1062V49.8143H1.26779V53.404Z" fill="#666666"/>
</g>
<g style="mix-blend-mode:luminosity">
<path d="M27.7386 84.4375H0.632812V90.8282H27.7386V84.4375Z" fill="#D5D4D4"/>
</g>
<g style="mix-blend-mode:luminosity">
<path d="M27.7395 91.4628H0.633712C0.28376 91.4628 0 91.179 0 90.8291V84.4384C0 84.0884 0.28376 83.8047 0.633712 83.8047H27.7395C28.0895 83.8047 28.3732 84.0884 28.3732 84.4384V90.8291C28.3732 91.179 28.0898 91.4628 27.7395 91.4628ZM1.26779 90.1954H27.1062V85.0718H1.26779V90.1954Z" fill="#666666"/>
</g>
<g style="mix-blend-mode:luminosity">
<path d="M14.1871 89.7258C13.0327 89.7258 12.0938 88.7869 12.0938 87.6324C12.0938 86.478 13.0331 85.5391 14.1871 85.5391C15.3415 85.5391 16.2808 86.478 16.2808 87.6324C16.2808 88.7869 15.3415 89.7258 14.1871 89.7258ZM14.1871 86.8061C13.7315 86.8061 13.3608 87.1769 13.3608 87.6324C13.3608 88.088 13.7315 88.4587 14.1871 88.4587C14.6427 88.4587 15.0134 88.088 15.0134 87.6324C15.0134 87.1769 14.6427 86.8061 14.1871 86.8061Z" fill="#666666"/>
</g>
<g style="mix-blend-mode:luminosity">
<path d="M17.2731 52.244H11.1025C10.7525 52.244 10.4688 51.9602 10.4688 51.6103C10.4688 51.2603 10.7525 50.9766 11.1025 50.9766H17.2731C17.623 50.9766 17.9068 51.2603 17.9068 51.6103C17.9068 51.9602 17.623 52.244 17.2731 52.244Z" fill="#666666"/>
</g>
<g style="mix-blend-mode:luminosity">
<path d="M2.79006 61.4767C2.62776 61.4767 2.4658 61.4147 2.34188 61.2911C2.09437 61.0436 2.09437 60.6423 2.34188 60.3948L6.86379 55.8729C7.11129 55.6257 7.51265 55.6257 7.76016 55.8729C8.00766 56.1204 8.00766 56.5217 7.76016 56.7692L3.23822 61.2911C3.11429 61.4147 2.95201 61.4767 2.79006 61.4767Z" fill="#666666"/>
</g>
<g style="mix-blend-mode:luminosity">
<path d="M3.43068 65.5453C3.26873 65.5453 3.10643 65.4834 2.9825 65.3598C2.735 65.1126 2.735 64.7113 2.9825 64.4638L10.7448 56.7011C10.9923 56.454 11.3937 56.4536 11.6412 56.7011C11.8887 56.9486 11.8887 57.35 11.6412 57.5975L3.87886 65.3598C3.75529 65.4834 3.59298 65.5453 3.43068 65.5453Z" fill="#666666"/>
</g>
<g style="mix-blend-mode:luminosity">
<path d="M179.606 90.8383H99.4868C95.2007 90.8383 91.7266 87.3638 91.7266 83.0781H187.367C187.367 87.3642 183.892 90.8383 179.606 90.8383Z" fill="#D5D4D4"/>
</g>
<g style="mix-blend-mode:luminosity">
<path d="M179.607 91.473H99.4877C94.8591 91.473 91.0938 87.7076 91.0938 83.079C91.0938 82.7291 91.3775 82.4453 91.7275 82.4453H187.368C187.718 82.4453 188.001 82.7291 188.001 83.079C188.001 87.7076 184.236 91.473 179.607 91.473ZM92.389 83.7128C92.7108 87.3468 95.7716 90.2055 99.4877 90.2055H179.607C183.323 90.2055 186.384 87.3468 186.706 83.7128H92.389Z" fill="#666666"/>
</g>
<g style="mix-blend-mode:luminosity">
<path d="M182.193 83.7099H96.8994C96.5494 83.7099 96.2656 83.4261 96.2656 83.0762V30.7118C96.2656 30.3619 96.5494 30.0781 96.8994 30.0781H182.193C182.543 30.0781 182.826 30.3619 182.826 30.7118V83.0762C182.826 83.4261 182.543 83.7099 182.193 83.7099ZM97.5331 82.4424H181.559V31.3456H97.5331V82.4424Z" fill="#666666"/>
</g>
<g style="mix-blend-mode:luminosity">
<path d="M178.928 80.532H100.165C99.815 80.532 99.5312 80.2483 99.5312 79.8983V33.9775C99.5312 33.6275 99.815 33.3438 100.165 33.3438H178.928C179.278 33.3438 179.561 33.6275 179.561 33.9775V79.8983C179.561 80.2483 179.278 80.532 178.928 80.532ZM100.799 79.2646H178.294V34.6112H100.799V79.2646Z" fill="#666666"/>
</g>
<g style="mix-blend-mode:luminosity">
<path d="M149.75 83.0781H129.336V86.7836H149.75V83.0781Z" fill="white"/>
</g>
<g style="mix-blend-mode:luminosity">
<path d="M149.751 87.4179H129.337C128.987 87.4179 128.703 87.1341 128.703 86.7841V83.079C128.703 82.7291 128.987 82.4453 129.337 82.4453H149.751C150.101 82.4453 150.385 82.7291 150.385 83.079V86.7841C150.385 87.1341 150.101 87.4179 149.751 87.4179ZM129.971 86.1504H149.118V83.7124H129.971V86.1504Z" fill="#666666"/>
</g>
<g style="mix-blend-mode:luminosity">
<path d="M114.612 44.3984C116.613 44.3984 118.104 44.9427 119.086 46.0313C120.068 47.1199 120.559 48.5901 120.559 50.4416C120.559 52.528 120.04 54.133 119.002 55.2565C117.964 56.3799 116.471 56.9414 114.523 56.9414H111.93V44.3984H114.612ZM113.291 45.4391V55.9011H114.308C115.807 55.9011 116.978 55.4381 117.821 54.5122C118.665 53.5863 119.086 52.2189 119.086 50.4099C119.086 48.8249 118.69 47.6005 117.898 46.7358C117.105 45.8711 115.919 45.4391 114.34 45.4391H113.291Z" fill="#666666"/>
</g>
<g style="mix-blend-mode:luminosity">
<path d="M122.797 56.9414V44.3984H124.158V56.9414H122.797Z" fill="#666666"/>
</g>
<g style="mix-blend-mode:luminosity">
<path d="M131.653 55.9891C132.646 55.9891 133.5 55.861 134.215 55.605V51.9471H132.454V50.9064H135.575V56.1331C134.3 56.8055 132.953 57.1418 131.533 57.1418C129.858 57.1418 128.583 56.5147 127.711 55.2607C126.839 54.0066 126.402 52.4407 126.402 50.562C126.402 48.6996 126.877 47.1523 127.827 45.9194C128.777 44.6868 130.063 44.0703 131.685 44.0703C133.217 44.0703 134.393 44.5372 135.215 45.4712L134.334 46.3837C133.678 45.6099 132.779 45.223 131.637 45.223C130.527 45.223 129.616 45.6807 128.903 46.5957C128.191 47.5107 127.835 48.7637 127.835 50.3536C127.835 51.9707 128.173 53.3138 128.847 54.3841C129.523 55.454 130.458 55.9891 131.653 55.9891Z" fill="#666666"/>
</g>
<g style="mix-blend-mode:luminosity">
<path d="M137.43 56.9414V44.3984H138.79V56.9414H137.43Z" fill="#666666"/>
</g>
<g style="mix-blend-mode:luminosity">
<path d="M149.391 45.5511H145.493V56.9414H144.132V45.5511H140.25V44.3984H149.391V45.5511Z" fill="#666666"/>
</g>
<g style="mix-blend-mode:luminosity">
<path d="M153.236 44.3984H154.556L158.719 56.9414H157.214L155.877 52.667H151.643L150.298 56.9414H148.945L153.236 44.3984ZM151.923 51.6985H155.597L153.796 45.9672L151.923 51.6985Z" fill="#666666"/>
</g>
<g style="mix-blend-mode:luminosity">
<path d="M167.145 56.9414H160.133V44.3984H161.494V55.837H167.145V56.9414Z" fill="#666666"/>
</g>
<g style="mix-blend-mode:luminosity">
<path d="M115.68 69.675H114.871L112.812 63.5491V69.675H111.93V61.5469H112.843L115.275 68.7674L117.677 61.5469H118.585V69.675H117.703V63.5491L115.68 69.675Z" fill="#666666"/>
</g>
<g style="mix-blend-mode:luminosity">
<path d="M122.315 61.5469H123.171L125.868 69.675H124.893L124.027 66.905H121.283L120.412 69.675H119.535L122.315 61.5469ZM121.465 66.2776H123.846L122.679 62.5636L121.465 66.2776Z" fill="#666666"/>
</g>
<g style="mix-blend-mode:luminosity">
<path d="M127.663 69.675H126.781V61.5469H128.986C129.847 61.5469 130.497 61.7518 130.936 62.1616C131.375 62.5714 131.595 63.1273 131.595 63.8293C131.595 64.3479 131.425 64.8098 131.084 65.2143C130.743 65.6189 130.352 65.8868 129.909 66.0184L132.181 69.6753H131.133L129.038 66.1896C128.993 66.1966 128.535 66.2033 127.664 66.2103L127.663 69.675ZM127.663 65.5407H128.509C129.204 65.5407 129.741 65.3833 130.12 65.0686C130.498 64.7538 130.687 64.3493 130.687 63.8547C130.687 63.2875 130.529 62.8777 130.213 62.6252C129.896 62.3728 129.375 62.2464 128.649 62.2464H127.664L127.663 65.5407Z" fill="#666666"/>
</g>
<g style="mix-blend-mode:luminosity">
<path d="M133.066 69.675V61.5469H133.948V65.4111L137.221 61.5469H138.264L134.861 65.3699L138.409 69.6753H137.248L134.291 65.9977L133.949 66.3867V69.6753H133.066V69.675Z" fill="#666666"/>
</g>
<g style="mix-blend-mode:luminosity">
<path d="M143.877 62.2626H140.417V65.0327H143.177V65.7122H140.417V68.9592H144.032V69.675H139.535V61.5469H143.877V62.2626Z" fill="#666666"/>
</g>
<g style="mix-blend-mode:luminosity">
<path d="M150.588 62.294H148.062V69.6753H147.18V62.294H144.664V61.5469H150.588V62.294Z" fill="#666666"/>
</g>
<g style="mix-blend-mode:luminosity">
<path d="M151.531 69.675V61.5469H152.413V69.675H151.531Z" fill="#666666"/>
</g>
<g style="mix-blend-mode:luminosity">
<path d="M154.847 62.9991V69.675H153.97L153.965 61.5469H154.847L158.887 68.2537V61.5469H159.769V69.675H158.924L154.847 62.9991Z" fill="#666666"/>
</g>
<g style="mix-blend-mode:luminosity">
<path d="M164.629 69.0514C165.272 69.0514 165.826 68.9683 166.289 68.8024V66.432H165.148V65.7578H167.171V69.145C166.344 69.5809 165.471 69.7985 164.551 69.7985C163.466 69.7985 162.64 69.3922 162.075 68.5796C161.509 67.767 161.227 66.752 161.227 65.5349C161.227 64.3281 161.534 63.3254 162.15 62.5265C162.765 61.7277 163.599 61.3281 164.65 61.3281C165.643 61.3281 166.405 61.6305 166.937 62.2357L166.367 62.8272C165.941 62.3259 165.359 62.0752 164.619 62.0752C163.899 62.0752 163.309 62.3716 162.847 62.9649C162.386 63.5581 162.155 64.3696 162.155 65.4001C162.155 66.4478 162.374 67.3185 162.811 68.0117C163.248 68.7049 163.854 69.0514 164.629 69.0514Z" fill="#666666"/>
</g>
<mask id="mask0_3255_25310" style="mask-type:luminance" maskUnits="userSpaceOnUse" x="7" y="0" width="114" height="94">
<g style="mix-blend-mode:luminosity">
<path d="M120.209 30.0603H96.1916V76.5012L86.3626 93.2309L62.23 90.833H34.5655L27.7386 82.0117V49.1827H7.3125V0H120.373L120.209 30.0603Z" fill="white"/>
</g>
</mask>
<g mask="url(#mask0_3255_25310)">
<g style="mix-blend-mode:luminosity">
<path d="M118.943 68.283H9.21576C8.86581 68.283 8.58203 67.9992 8.58203 67.6492V4.65716C8.58203 4.30721 8.86581 4.02344 9.21576 4.02344H118.943C119.293 4.02344 119.577 4.30721 119.577 4.65716V67.6492C119.577 67.9992 119.293 68.283 118.943 68.283ZM9.84948 67.0155H118.31V5.29052H9.84948V67.0155Z" fill="#666666"/>
</g>
<g style="mix-blend-mode:luminosity">
<path d="M118.946 67.6484H9.21875V73.6378H118.946V67.6484Z" fill="#D5D4D4"/>
</g>
<g style="mix-blend-mode:luminosity">
<path d="M118.943 74.2724H9.21576C8.86581 74.2724 8.58203 73.9886 8.58203 73.6387V67.6493C8.58203 67.2994 8.86581 67.0156 9.21576 67.0156H118.943C119.293 67.0156 119.577 67.2994 119.577 67.6493V73.6387C119.577 73.989 119.293 74.2724 118.943 74.2724ZM9.84948 73.0053H118.31V68.2834H9.84948V73.0053Z" fill="#666666"/>
</g>
<g style="mix-blend-mode:luminosity">
<path d="M118.946 1.48438H9.21875V4.65225H118.946V1.48438Z" fill="#D5D4D4"/>
</g>
<g style="mix-blend-mode:luminosity">
<path d="M118.943 5.28722H9.21576C8.86581 5.28722 8.58203 5.00346 8.58203 4.65351V1.48529C8.58203 1.13533 8.86581 0.851562 9.21576 0.851562H118.943C119.293 0.851562 119.577 1.13533 119.577 1.48529V4.65351C119.577 5.00382 119.293 5.28722 118.943 5.28722ZM9.84948 4.02014H118.31V2.11935H9.84948V4.02014Z" fill="#666666"/>
</g>
<g style="mix-blend-mode:luminosity">
<path d="M64.3539 55.8738C61.7113 55.8738 59.5373 53.7237 59.5081 51.0808C59.4782 48.4083 61.6282 46.21 64.3008 46.18L64.3557 46.1797C66.9983 46.1797 69.1719 48.3297 69.2015 50.9723C69.2314 53.6445 67.0817 55.8435 64.4092 55.8731L64.3539 55.8738ZM64.3557 47.4471H64.3148C62.3412 47.4693 60.7534 49.0927 60.7755 51.0663C60.7974 53.0178 62.4028 54.606 64.3539 54.606H64.3948C66.3681 54.5838 67.9559 52.9601 67.9341 50.9864C67.9122 49.0349 66.3068 47.4471 64.3557 47.4471Z" fill="#666666"/>
</g>
<g style="mix-blend-mode:luminosity">
<path d="M40.0635 27.9324C39.9037 27.9324 39.7439 27.8725 39.6206 27.7521C39.3703 27.5075 39.3654 27.1061 39.6101 26.8561C46.081 20.2324 54.7306 16.528 63.9649 16.4245C73.1889 16.3128 81.9194 19.8279 88.5354 26.2974C88.7857 26.5421 88.7903 26.9434 88.5456 27.1934C88.301 27.4441 87.8996 27.4483 87.6496 27.2036C81.2752 20.9703 72.8689 17.5965 63.9793 17.6915C55.0837 17.7912 46.7514 21.3601 40.517 27.7416C40.3927 27.8687 40.2279 27.9324 40.0635 27.9324Z" fill="#666666"/>
</g>
<g style="mix-blend-mode:luminosity">
<path d="M47.1415 34.8773C46.982 34.8773 46.8222 34.8175 46.699 34.6974C46.4487 34.4531 46.4434 34.0517 46.6877 33.8014C51.3057 29.0672 57.4806 26.4197 64.0748 26.3457C70.651 26.2627 76.8825 28.7732 81.6023 33.3884C81.8526 33.6331 81.8572 34.0345 81.6125 34.2845C81.3678 34.5351 80.9665 34.539 80.7165 34.2947C76.239 29.916 70.3338 27.5459 64.0889 27.6128C57.8337 27.6829 51.9764 30.1949 47.595 34.6862C47.4711 34.8136 47.3063 34.8773 47.1415 34.8773Z" fill="#666666"/>
</g>
<g style="mix-blend-mode:luminosity">
<path d="M54.2234 41.8144C54.0643 41.8144 53.9048 41.7549 53.7819 41.6352C53.5309 41.3913 53.5253 40.9899 53.7689 40.7392C56.5337 37.8942 60.2339 36.3032 64.1886 36.2588C68.1127 36.2127 71.8502 37.7108 74.6731 40.4716C74.9234 40.7163 74.928 41.1177 74.6833 41.3677C74.4386 41.618 74.0372 41.6226 73.7873 41.3779C71.2063 38.8539 67.793 37.49 64.2027 37.5263C60.588 37.5668 57.2054 39.0215 54.6779 41.6226C54.5536 41.7504 54.3889 41.8144 54.2234 41.8144Z" fill="#666666"/>
</g>
<g style="mix-blend-mode:luminosity">
<path d="M74.474 83.706H53.6884C53.3385 83.706 53.0547 83.4222 53.0547 83.0722V73.6337C53.0547 73.2838 53.3385 73 53.6884 73H74.474C74.8239 73 75.1077 73.2838 75.1077 73.6337V83.0722C75.1073 83.4222 74.8239 83.706 74.474 83.706ZM54.3221 82.4385H73.8402V74.2674H54.3221V82.4385Z" fill="#666666"/>
</g>
<g style="mix-blend-mode:luminosity">
<path d="M83.0679 87.41H45.0907C44.7408 87.41 44.457 87.1263 44.457 86.7763V83.0712C44.457 82.7213 44.7408 82.4375 45.0907 82.4375H83.0679C83.4179 82.4375 83.7017 82.7213 83.7017 83.0712V86.7763C83.7017 87.1263 83.4179 87.41 83.0679 87.41ZM45.7245 86.1426H82.4342V83.7046H45.7245V86.1426Z" fill="#666666"/>
</g>
<g style="mix-blend-mode:luminosity">
<path d="M14.1846 21.7214C14.0226 21.7214 13.8603 21.6594 13.7364 21.5358C13.4889 21.2883 13.4889 20.887 13.7364 20.6395L24.1593 10.2166C24.4068 9.96946 24.8081 9.96946 25.0556 10.2166C25.3031 10.4641 25.3031 10.8655 25.0556 11.113L14.6328 21.5358C14.5088 21.6594 14.3465 21.7214 14.1846 21.7214Z" fill="#666666"/>
</g>
<g style="mix-blend-mode:luminosity">
<path d="M14.1846 29.7748C14.0226 29.7748 13.8603 29.7129 13.7364 29.5893C13.4889 29.3418 13.4889 28.9405 13.7364 28.693L32.2127 10.2166C32.4602 9.96946 32.8616 9.96946 33.1091 10.2166C33.3566 10.4641 33.3566 10.8655 33.1091 11.113L14.6328 29.5893C14.5088 29.7129 14.3465 29.7748 14.1846 29.7748Z" fill="#666666"/>
</g>
</g>
</svg>
