<svg width="100" height="100" viewBox="0 0 100 100" fill="none" xmlns="http://www.w3.org/2000/svg">
<rect width="100" height="100" rx="8" fill="#FFFEFA"/>
<path fill-rule="evenodd" clip-rule="evenodd" d="M42.1689 62.0278C42.1689 62.0278 39.8902 63.0056 43.7922 63.336C48.5208 63.7342 50.936 63.6769 56.1451 62.9501C56.1451 62.9501 57.5166 63.5834 59.431 64.1313C47.7502 67.8225 32.9954 63.9178 42.1689 62.0278ZM40.741 57.2109C40.741 57.2109 38.1847 58.6063 42.0902 58.9042C47.1414 59.2889 51.1286 59.3203 58.0323 58.3406C58.0323 58.3406 58.9855 59.0542 60.4856 59.444C46.3649 62.4899 30.6381 59.6838 40.741 57.2109Z" fill="#3174B9"/>
<path fill-rule="evenodd" clip-rule="evenodd" d="M52.7718 49.0383C55.6511 51.4827 52.0171 53.681 52.0171 53.681C52.0171 53.681 59.3247 50.8994 55.9684 47.4148C52.8347 44.1667 50.431 42.553 63.4423 36.9883C63.4423 36.9883 43.0179 40.7488 52.7718 49.0383Z" fill="#CA3132"/>
<path fill-rule="evenodd" clip-rule="evenodd" d="M68.2224 65.5905C68.2224 65.5905 69.9091 66.6161 66.3644 67.4093C59.624 68.9149 38.305 69.3689 32.3832 67.4691C30.256 66.7858 34.2471 65.8387 35.5027 65.6387C36.8123 65.4299 37.5596 65.4678 37.5596 65.4678C35.1924 64.2385 22.2585 67.8823 30.991 68.9276C54.8029 71.775 74.3981 67.6458 68.2224 65.5905ZM43.2666 52.2192C43.2666 52.2192 32.4238 54.119 39.4275 54.8096C42.3857 55.1012 48.2783 55.034 53.7715 54.6942C58.2595 54.4165 62.7643 53.8222 62.7643 53.8222C62.7643 53.8222 61.183 54.3227 60.0373 54.8986C49.0246 57.0349 27.7536 56.04 33.8779 53.8562C39.0558 52.0089 43.2666 52.2192 43.2666 52.2192ZM62.7193 60.2371C73.913 55.9484 68.7376 51.8261 65.1241 52.3816C64.2407 52.5178 63.8442 52.6353 63.8442 52.6353C63.8442 52.6353 64.1739 52.255 64.8004 52.0914C71.9477 50.2391 77.4434 57.5562 62.4961 60.4539C62.4956 60.4539 62.6678 60.3393 62.7193 60.2371Z" fill="#3174B9"/>
<path fill-rule="evenodd" clip-rule="evenodd" d="M55.9704 28C55.9704 28 62.168 32.5738 50.0906 39.6047C40.405 45.2468 47.8824 48.4628 50.0876 52.1387C44.4329 48.3767 40.2852 45.0643 43.0675 41.9823C47.1524 37.4582 58.4711 35.2642 55.9704 28Z" fill="#CA3132"/>
<path fill-rule="evenodd" clip-rule="evenodd" d="M44.3647 71.8611C55.1076 72.3677 71.608 71.5797 71.9995 67.8301C71.9995 67.8301 71.2482 69.2514 63.12 70.3789C53.9495 71.652 42.6369 71.5038 35.9297 70.6873C35.9297 70.6873 37.3041 71.526 44.3647 71.8611Z" fill="#3174B9"/>
</svg>
