<svg width="100" height="100" viewBox="0 0 100 100" fill="none" xmlns="http://www.w3.org/2000/svg">
<rect width="100" height="100" rx="8" fill="#FFFEFA"/>
<path d="M49.7379 28.0004C47.9234 28.0086 46.1909 28.1617 44.6666 28.4287C40.1757 29.2136 39.3603 30.856 39.3603 33.8854V37.8861H49.973V39.2196H35.3771C32.2929 39.2196 29.5918 41.0534 28.7471 44.5416C27.7726 48.54 27.7295 51.035 28.7471 55.21C29.5016 58.3177 31.3034 60.532 34.3876 60.532H38.0366V55.7362C38.0366 52.2714 41.0674 49.2154 44.6666 49.2154H55.2671C58.2179 49.2154 60.5735 46.8123 60.5735 43.8812V33.885C60.5735 31.0404 58.1471 28.9032 55.2671 28.4283C53.4435 28.1284 51.5523 27.9918 49.7379 28.0004ZM43.9985 31.2177C45.0949 31.2177 45.9899 32.1178 45.9899 33.2242C45.9899 34.3266 45.0945 35.2185 43.9985 35.2185C42.8985 35.2185 42.0071 34.327 42.0071 33.2242C42.0071 32.1178 42.8985 31.2177 43.9985 31.2177Z" fill="url(#paint0_linear_897_5732)"/>
<path d="M61.8962 39.2188V43.8799C61.8962 47.4939 58.7985 50.5354 55.2662 50.5354H44.6657C41.762 50.5354 39.3594 52.9933 39.3594 55.8696V65.865C39.3594 68.71 41.8602 70.3833 44.6657 71.1992C48.0251 72.1764 51.2466 72.3529 55.2662 71.1992C57.938 70.4342 60.5726 68.894 60.5726 65.865V61.8647H49.9721V60.5312H65.8789C68.9635 60.5312 70.1126 58.403 71.1853 55.2092C72.2936 51.9214 72.2465 48.7588 71.1853 44.5408C70.4229 41.5039 68.9671 39.2188 65.8789 39.2188H61.8962ZM55.9339 64.5316C57.0339 64.5316 57.9253 65.423 57.9253 66.5259C57.9253 67.6322 57.0339 68.5323 55.9339 68.5323C54.8375 68.5323 53.9426 67.6322 53.9426 66.5259C53.9426 65.4234 54.8379 64.5316 55.9339 64.5316Z" fill="url(#paint1_linear_897_5732)"/>
<defs>
<linearGradient id="paint0_linear_897_5732" x1="26.9533" y1="29.2496" x2="51.1999" y2="50.1364" gradientUnits="userSpaceOnUse">
<stop stop-color="#5A9FD4"/>
<stop offset="1" stop-color="#306998"/>
</linearGradient>
<linearGradient id="paint1_linear_897_5732" x1="60.6082" y1="62.7302" x2="51.9551" y2="50.472" gradientUnits="userSpaceOnUse">
<stop stop-color="#FFD43B"/>
<stop offset="1" stop-color="#FFE873"/>
</linearGradient>
</defs>
</svg>
