<svg width="577" height="68" viewBox="0 0 577 68" fill="none" xmlns="http://www.w3.org/2000/svg">
<path d="M148.899 32.248C150.63 32.5707 152.053 33.436 153.167 34.844C154.282 36.252 154.839 37.8653 154.839 39.684C154.839 41.3267 154.429 42.7787 153.607 44.04C152.815 45.272 151.657 46.24 150.131 46.944C148.606 47.648 146.802 48 144.719 48H131.475V17.288H144.147C146.23 17.288 148.019 17.6253 149.515 18.3C151.041 18.9747 152.185 19.9133 152.947 21.116C153.739 22.3187 154.135 23.6827 154.135 25.208C154.135 26.9973 153.651 28.4933 152.683 29.696C151.745 30.8987 150.483 31.7493 148.899 32.248ZM137.635 29.96H143.267C144.734 29.96 145.863 29.6373 146.655 28.992C147.447 28.3173 147.843 27.364 147.843 26.132C147.843 24.9 147.447 23.9467 146.655 23.272C145.863 22.5973 144.734 22.26 143.267 22.26H137.635V29.96ZM143.839 42.984C145.335 42.984 146.494 42.632 147.315 41.928C148.166 41.224 148.591 40.2267 148.591 38.936C148.591 37.616 148.151 36.5893 147.271 35.856C146.391 35.0933 145.203 34.712 143.707 34.712H137.635V42.984H143.839ZM165.821 17.288V36.296C165.821 38.3787 166.364 39.9773 167.449 41.092C168.534 42.1773 170.06 42.72 172.025 42.72C174.02 42.72 175.56 42.1773 176.645 41.092C177.73 39.9773 178.273 38.3787 178.273 36.296V17.288H184.477V36.252C184.477 38.8627 183.905 41.0773 182.761 42.896C181.646 44.6853 180.136 46.0347 178.229 46.944C176.352 47.8533 174.254 48.308 171.937 48.308C169.649 48.308 167.566 47.8533 165.689 46.944C163.841 46.0347 162.374 44.6853 161.289 42.896C160.204 41.0773 159.661 38.8627 159.661 36.252V17.288H165.821ZM201.033 48.308C198.891 48.308 196.955 47.9413 195.225 47.208C193.523 46.4747 192.174 45.4187 191.177 44.04C190.179 42.6613 189.666 41.0333 189.637 39.156H196.237C196.325 40.4173 196.765 41.4147 197.557 42.148C198.378 42.8813 199.493 43.248 200.901 43.248C202.338 43.248 203.467 42.9107 204.289 42.236C205.11 41.532 205.521 40.6227 205.521 39.508C205.521 38.5987 205.242 37.8507 204.685 37.264C204.127 36.6773 203.423 36.2227 202.573 35.9C201.751 35.548 200.607 35.1667 199.141 34.756C197.146 34.1693 195.518 33.5973 194.257 33.04C193.025 32.4533 191.954 31.588 191.045 30.444C190.165 29.2707 189.725 27.716 189.725 25.78C189.725 23.9613 190.179 22.3773 191.089 21.028C191.998 19.6787 193.274 18.652 194.917 17.948C196.559 17.2147 198.437 16.848 200.549 16.848C203.717 16.848 206.283 17.6253 208.249 19.18C210.243 20.7053 211.343 22.8467 211.549 25.604H204.773C204.714 24.548 204.259 23.6827 203.409 23.008C202.587 22.304 201.487 21.952 200.109 21.952C198.906 21.952 197.938 22.26 197.205 22.876C196.501 23.492 196.149 24.3867 196.149 25.56C196.149 26.3813 196.413 27.0707 196.941 27.628C197.498 28.156 198.173 28.596 198.965 28.948C199.786 29.2707 200.93 29.652 202.397 30.092C204.391 30.6787 206.019 31.2653 207.281 31.852C208.542 32.4387 209.627 33.3187 210.537 34.492C211.446 35.6653 211.901 37.2053 211.901 39.112C211.901 40.7547 211.475 42.28 210.625 43.688C209.774 45.096 208.527 46.2253 206.885 47.076C205.242 47.8973 203.291 48.308 201.033 48.308ZM223.401 17.288V48H217.241V17.288H223.401ZM255.755 48H249.595L235.647 26.924V48H229.487V17.244H235.647L249.595 38.364V17.244H255.755V48ZM268.003 22.26V29.96H278.343V34.844H268.003V42.984H279.663V48H261.843V17.244H279.663V22.26H268.003ZM295.865 48.308C293.723 48.308 291.787 47.9413 290.057 47.208C288.355 46.4747 287.006 45.4187 286.009 44.04C285.011 42.6613 284.498 41.0333 284.469 39.156H291.069C291.157 40.4173 291.597 41.4147 292.389 42.148C293.21 42.8813 294.325 43.248 295.733 43.248C297.17 43.248 298.299 42.9107 299.121 42.236C299.942 41.532 300.353 40.6227 300.353 39.508C300.353 38.5987 300.074 37.8507 299.517 37.264C298.959 36.6773 298.255 36.2227 297.405 35.9C296.583 35.548 295.439 35.1667 293.973 34.756C291.978 34.1693 290.35 33.5973 289.089 33.04C287.857 32.4533 286.786 31.588 285.877 30.444C284.997 29.2707 284.557 27.716 284.557 25.78C284.557 23.9613 285.011 22.3773 285.921 21.028C286.83 19.6787 288.106 18.652 289.749 17.948C291.391 17.2147 293.269 16.848 295.381 16.848C298.549 16.848 301.115 17.6253 303.081 19.18C305.075 20.7053 306.175 22.8467 306.381 25.604H299.605C299.546 24.548 299.091 23.6827 298.241 23.008C297.419 22.304 296.319 21.952 294.941 21.952C293.738 21.952 292.77 22.26 292.037 22.876C291.333 23.492 290.981 24.3867 290.981 25.56C290.981 26.3813 291.245 27.0707 291.773 27.628C292.33 28.156 293.005 28.596 293.797 28.948C294.618 29.2707 295.762 29.652 297.229 30.092C299.223 30.6787 300.851 31.2653 302.113 31.852C303.374 32.4387 304.459 33.3187 305.369 34.492C306.278 35.6653 306.733 37.2053 306.733 39.112C306.733 40.7547 306.307 42.28 305.457 43.688C304.606 45.096 303.359 46.2253 301.717 47.076C300.074 47.8973 298.123 48.308 295.865 48.308ZM322.677 48.308C320.536 48.308 318.6 47.9413 316.869 47.208C315.168 46.4747 313.818 45.4187 312.821 44.04C311.824 42.6613 311.31 41.0333 311.281 39.156H317.881C317.969 40.4173 318.409 41.4147 319.201 42.148C320.022 42.8813 321.137 43.248 322.545 43.248C323.982 43.248 325.112 42.9107 325.933 42.236C326.754 41.532 327.165 40.6227 327.165 39.508C327.165 38.5987 326.886 37.8507 326.329 37.264C325.772 36.6773 325.068 36.2227 324.217 35.9C323.396 35.548 322.252 35.1667 320.785 34.756C318.79 34.1693 317.162 33.5973 315.901 33.04C314.669 32.4533 313.598 31.588 312.689 30.444C311.809 29.2707 311.369 27.716 311.369 25.78C311.369 23.9613 311.824 22.3773 312.733 21.028C313.642 19.6787 314.918 18.652 316.561 17.948C318.204 17.2147 320.081 16.848 322.193 16.848C325.361 16.848 327.928 17.6253 329.893 19.18C331.888 20.7053 332.988 22.8467 333.193 25.604H326.417C326.358 24.548 325.904 23.6827 325.053 23.008C324.232 22.304 323.132 21.952 321.753 21.952C320.55 21.952 319.582 22.26 318.849 22.876C318.145 23.492 317.793 24.3867 317.793 25.56C317.793 26.3813 318.057 27.0707 318.585 27.628C319.142 28.156 319.817 28.596 320.609 28.948C321.43 29.2707 322.574 29.652 324.041 30.092C326.036 30.6787 327.664 31.2653 328.925 31.852C330.186 32.4387 331.272 33.3187 332.181 34.492C333.09 35.6653 333.545 37.2053 333.545 39.112C333.545 40.7547 333.12 42.28 332.269 43.688C331.418 45.096 330.172 46.2253 328.529 47.076C326.886 47.8973 324.936 48.308 322.677 48.308ZM366.794 32.248C368.525 32.5707 369.947 33.436 371.062 34.844C372.177 36.252 372.734 37.8653 372.734 39.684C372.734 41.3267 372.323 42.7787 371.502 44.04C370.71 45.272 369.551 46.24 368.026 46.944C366.501 47.648 364.697 48 362.614 48H349.37V17.288H362.042C364.125 17.288 365.914 17.6253 367.41 18.3C368.935 18.9747 370.079 19.9133 370.842 21.116C371.634 22.3187 372.03 23.6827 372.03 25.208C372.03 26.9973 371.546 28.4933 370.578 29.696C369.639 30.8987 368.378 31.7493 366.794 32.248ZM355.53 29.96H361.162C362.629 29.96 363.758 29.6373 364.55 28.992C365.342 28.3173 365.738 27.364 365.738 26.132C365.738 24.9 365.342 23.9467 364.55 23.272C363.758 22.5973 362.629 22.26 361.162 22.26H355.53V29.96ZM361.734 42.984C363.23 42.984 364.389 42.632 365.21 41.928C366.061 41.224 366.486 40.2267 366.486 38.936C366.486 37.616 366.046 36.5893 365.166 35.856C364.286 35.0933 363.098 34.712 361.602 34.712H355.53V42.984H361.734ZM393.483 48L386.707 36.032H383.803V48H377.643V17.288H389.171C391.547 17.288 393.571 17.7133 395.243 18.564C396.915 19.3853 398.162 20.5147 398.983 21.952C399.834 23.36 400.259 24.944 400.259 26.704C400.259 28.728 399.673 30.5613 398.499 32.204C397.326 33.8173 395.581 34.932 393.263 35.548L400.611 48H393.483ZM383.803 31.412H388.951C390.623 31.412 391.87 31.016 392.691 30.224C393.513 29.4027 393.923 28.2733 393.923 26.836C393.923 25.428 393.513 24.3427 392.691 23.58C391.87 22.788 390.623 22.392 388.951 22.392H383.803V31.412ZM424.663 42.148H412.431L410.407 48H403.939L414.983 17.244H422.155L433.199 48H426.687L424.663 42.148ZM422.991 37.22L418.547 24.372L414.103 37.22H422.991ZM463.595 48H457.435L443.487 26.924V48H437.327V17.244H443.487L457.435 38.364V17.244H463.595V48ZM480.418 17.288C483.645 17.288 486.476 17.9187 488.91 19.18C491.374 20.4413 493.266 22.2453 494.586 24.592C495.936 26.9093 496.61 29.608 496.61 32.688C496.61 35.768 495.936 38.4667 494.586 40.784C493.266 43.072 491.374 44.8467 488.91 46.108C486.476 47.3693 483.645 48 480.418 48H469.682V17.288H480.418ZM480.198 42.764C483.425 42.764 485.918 41.884 487.678 40.124C489.438 38.364 490.318 35.8853 490.318 32.688C490.318 29.4907 489.438 26.9973 487.678 25.208C485.918 23.3893 483.425 22.48 480.198 22.48H475.842V42.764H480.198ZM507.382 17.288V48H501.222V17.288H507.382ZM539.736 48H533.576L519.628 26.924V48H513.468V17.244H519.628L533.576 38.364V17.244H539.736V48ZM567.207 26.528C566.503 25.2373 565.535 24.2547 564.303 23.58C563.071 22.9053 561.634 22.568 559.991 22.568C558.172 22.568 556.559 22.9787 555.151 23.8C553.743 24.6213 552.643 25.7947 551.851 27.32C551.059 28.8453 550.663 30.6053 550.663 32.6C550.663 34.6533 551.059 36.4427 551.851 37.968C552.672 39.4933 553.802 40.6667 555.239 41.488C556.676 42.3093 558.348 42.72 560.255 42.72C562.602 42.72 564.523 42.104 566.019 40.872C567.515 39.6107 568.498 37.8653 568.967 35.636H558.407V30.928H575.039V36.296C574.628 38.4373 573.748 40.4173 572.399 42.236C571.05 44.0547 569.304 45.5213 567.163 46.636C565.051 47.7213 562.675 48.264 560.035 48.264C557.072 48.264 554.388 47.604 551.983 46.284C549.607 44.9347 547.73 43.072 546.351 40.696C545.002 38.32 544.327 35.6213 544.327 32.6C544.327 29.5787 545.002 26.88 546.351 24.504C547.73 22.0987 549.607 20.236 551.983 18.916C554.388 17.5667 557.058 16.892 559.991 16.892C563.452 16.892 566.459 17.7427 569.011 19.444C571.563 21.116 573.323 23.4773 574.291 26.528H567.207Z" fill="white"/>
<path d="M6.78719 21.4434L32 6.88675L57.2128 21.4434V50.5566L32 65.1133L6.78719 50.5566V21.4434Z" stroke="white" stroke-width="5"/>
<path d="M16.7465 27.1934L32 18.3868L47.2535 27.1934V44.8066L32 53.6133L16.7465 44.8066V27.1934Z" stroke="white" stroke-width="5"/>
<path d="M26.3116 32.7156L31.9995 29.4317L37.6873 32.7156V39.2834L31.9995 42.5673L26.3116 39.2834V32.7156Z" fill="white" stroke="white" stroke-width="5"/>
</svg>
