<svg width="561" height="68" viewBox="0 0 561 68" fill="none" xmlns="http://www.w3.org/2000/svg">
<path d="M141.774 17.288C145.001 17.288 147.831 17.9187 150.266 19.18C152.73 20.4413 154.622 22.2453 155.942 24.592C157.291 26.9093 157.966 29.608 157.966 32.688C157.966 35.768 157.291 38.4667 155.942 40.784C154.622 43.072 152.73 44.8467 150.266 46.108C147.831 47.3693 145.001 48 141.774 48H131.038V17.288H141.774ZM141.554 42.764C144.781 42.764 147.274 41.884 149.034 40.124C150.794 38.364 151.674 35.8853 151.674 32.688C151.674 29.4907 150.794 26.9973 149.034 25.208C147.274 23.3893 144.781 22.48 141.554 22.48H137.198V42.764H141.554ZM168.737 17.288V48H162.577V17.288H168.737ZM196.207 26.528C195.503 25.2373 194.535 24.2547 193.303 23.58C192.071 22.9053 190.634 22.568 188.991 22.568C187.172 22.568 185.559 22.9787 184.151 23.8C182.743 24.6213 181.643 25.7947 180.851 27.32C180.059 28.8453 179.663 30.6053 179.663 32.6C179.663 34.6533 180.059 36.4427 180.851 37.968C181.672 39.4933 182.802 40.6667 184.239 41.488C185.676 42.3093 187.348 42.72 189.255 42.72C191.602 42.72 193.523 42.104 195.019 40.872C196.515 39.6107 197.498 37.8653 197.967 35.636H187.407V30.928H204.039V36.296C203.628 38.4373 202.748 40.4173 201.399 42.236C200.05 44.0547 198.304 45.5213 196.163 46.636C194.051 47.7213 191.675 48.264 189.035 48.264C186.072 48.264 183.388 47.604 180.983 46.284C178.607 44.9347 176.73 43.072 175.351 40.696C174.002 38.32 173.327 35.6213 173.327 32.6C173.327 29.5787 174.002 26.88 175.351 24.504C176.73 22.0987 178.607 20.236 180.983 18.916C183.388 17.5667 186.058 16.892 188.991 16.892C192.452 16.892 195.459 17.7427 198.011 19.444C200.563 21.116 202.323 23.4773 203.291 26.528H196.207ZM214.757 17.288V48H208.597V17.288H214.757ZM241.743 17.288V22.26H233.559V48H227.399V22.26H219.215V17.288H241.743ZM265.069 42.148H252.837L250.813 48H244.345L255.389 17.244H262.561L273.605 48H267.093L265.069 42.148ZM263.397 37.22L258.953 24.372L254.509 37.22H263.397ZM283.893 43.116H294.013V48H277.733V17.288H283.893V43.116ZM341.897 17.288V48H335.737V28.024L327.509 48H322.845L314.573 28.024V48H308.413V17.288H315.409L325.177 40.124L334.945 17.288H341.897ZM366.819 42.148H354.587L352.563 48H346.095L357.139 17.244H364.311L375.355 48H368.843L366.819 42.148ZM365.147 37.22L360.703 24.372L356.259 37.22H365.147ZM395.323 48L388.547 36.032H385.643V48H379.483V17.288H391.011C393.387 17.288 395.411 17.7133 397.083 18.564C398.755 19.3853 400.002 20.5147 400.823 21.952C401.674 23.36 402.099 24.944 402.099 26.704C402.099 28.728 401.513 30.5613 400.339 32.204C399.166 33.8173 397.421 34.932 395.103 35.548L402.451 48H395.323ZM385.643 31.412H390.791C392.463 31.412 393.71 31.016 394.531 30.224C395.353 29.4027 395.763 28.2733 395.763 26.836C395.763 25.428 395.353 24.3427 394.531 23.58C393.71 22.788 392.463 22.392 390.791 22.392H385.643V31.412ZM425.007 48L413.831 34.316V48H407.671V17.288H413.831V31.06L425.007 17.288H432.443L419.771 32.512L432.795 48H425.007ZM443.007 22.26V29.96H453.347V34.844H443.007V42.984H454.667V48H436.847V17.244H454.667V22.26H443.007ZM481.165 17.288V22.26H472.981V48H466.821V22.26H458.637V17.288H481.165ZM491.819 17.288V48H485.659V17.288H491.819ZM524.173 48H518.013L504.065 26.924V48H497.905V17.244H504.065L518.013 38.364V17.244H524.173V48ZM551.645 26.528C550.941 25.2373 549.973 24.2547 548.741 23.58C547.509 22.9053 546.071 22.568 544.429 22.568C542.61 22.568 540.997 22.9787 539.589 23.8C538.181 24.6213 537.081 25.7947 536.289 27.32C535.497 28.8453 535.101 30.6053 535.101 32.6C535.101 34.6533 535.497 36.4427 536.289 37.968C537.11 39.4933 538.239 40.6667 539.677 41.488C541.114 42.3093 542.786 42.72 544.693 42.72C547.039 42.72 548.961 42.104 550.457 40.872C551.953 39.6107 552.935 37.8653 553.405 35.636H542.845V30.928H559.477V36.296C559.066 38.4373 558.186 40.4173 556.837 42.236C555.487 44.0547 553.742 45.5213 551.601 46.636C549.489 47.7213 547.113 48.264 544.473 48.264C541.51 48.264 538.826 47.604 536.421 46.284C534.045 44.9347 532.167 43.072 530.789 40.696C529.439 38.32 528.765 35.6213 528.765 32.6C528.765 29.5787 529.439 26.88 530.789 24.504C532.167 22.0987 534.045 20.236 536.421 18.916C538.826 17.5667 541.495 16.892 544.429 16.892C547.89 16.892 550.897 17.7427 553.449 19.444C556.001 21.116 557.761 23.4773 558.729 26.528H551.645Z" fill="white"/>
<path d="M6.78719 21.4434L32 6.88675L57.2128 21.4434V50.5566L32 65.1133L6.78719 50.5566V21.4434Z" stroke="white" stroke-width="5"/>
<path d="M16.7465 27.1934L32 18.3868L47.2535 27.1934V44.8066L32 53.6133L16.7465 44.8066V27.1934Z" stroke="white" stroke-width="5"/>
<path d="M26.3116 32.7156L31.9995 29.4317L37.6873 32.7156V39.2834L31.9995 42.5673L26.3116 39.2834V32.7156Z" fill="white" stroke="white" stroke-width="5"/>
</svg>
