<svg width="282" height="85" viewBox="0 0 282 85" fill="none" xmlns="http://www.w3.org/2000/svg">
<path d="M8.17788 35.0391V66.678H1.87988V35.0391H8.17788Z" fill="black"/>
<path d="M36.284 44.1055C38.07 45.9944 39.01 48.6388 39.01 52.0388V66.7722H32.712V52.7944C32.712 50.8111 32.242 49.3 31.208 48.1666C30.174 47.1277 28.858 46.5611 27.166 46.5611C25.474 46.5611 24.064 47.1277 23.03 48.1666C21.996 49.2055 21.526 50.8111 21.526 52.7944V66.6777H15.228V41.5555H21.62V44.6722C22.466 43.5388 23.5 42.6888 24.816 42.1222C26.132 41.4611 27.542 41.1777 29.14 41.1777C32.054 41.2722 34.498 42.2166 36.284 44.1055Z" fill="black"/>
<path d="M67.0218 44.1055C68.8078 45.9944 69.7478 48.6388 69.7478 52.0388V66.7722H63.4498V52.7944C63.4498 50.8111 62.9798 49.3 61.9458 48.1666C60.9118 47.1277 59.5958 46.5611 57.9038 46.5611C56.2118 46.5611 54.8018 47.1277 53.7678 48.1666C52.7338 49.2055 52.2638 50.8111 52.2638 52.7944V66.6777H45.9658V41.5555H52.2638V44.6722C53.1098 43.5388 54.1438 42.6888 55.4598 42.1222C56.7758 41.4611 58.1858 41.1777 59.7838 41.1777C62.7918 41.2722 65.1418 42.2166 67.0218 44.1055Z" fill="black"/>
<path d="M145.23 60.8223L151.528 41.5557H158.202L148.99 66.6779H141.282L132.164 41.5557H138.932L145.23 60.8223Z" fill="black"/>
<path d="M162.62 47.3166C163.654 45.3333 164.97 43.8222 166.756 42.7833C168.448 41.7444 170.422 41.1777 172.584 41.1777C174.746 41.1777 176.062 41.5555 177.472 42.3111C178.882 43.0666 180.01 44.0111 180.856 45.1444V41.5555H187.248V66.6777H180.856V62.9944C180.01 64.1277 178.882 65.1666 177.472 65.9222C176.062 66.6777 174.37 67.0555 172.49 67.0555C170.61 67.0555 168.448 66.4889 166.756 65.45C165.064 64.3166 163.654 62.8055 162.62 60.8222C161.586 58.8389 161.116 56.5722 161.116 54.0222C161.116 51.4722 161.586 49.3 162.62 47.3166ZM179.822 50.15C179.258 49.0166 178.412 48.1666 177.378 47.6C176.344 47.0333 175.216 46.75 174.088 46.75C172.96 46.75 171.832 47.0333 170.798 47.6C169.764 48.1666 169.012 49.0166 168.354 50.15C167.696 51.2833 167.414 52.5111 167.414 54.0222C167.414 55.5333 167.696 56.8555 168.354 57.9889C169.012 59.1222 169.764 59.9722 170.798 60.6333C171.832 61.2 172.866 61.5777 173.994 61.5777C175.122 61.5777 176.25 61.2944 177.284 60.7277C178.318 60.1611 179.07 59.3111 179.728 58.1777C180.292 57.0444 180.668 55.7222 180.668 54.2111C180.668 52.7 180.48 51.2833 179.822 50.15Z" fill="black"/>
<path d="M201.536 46.8445V59.0278C201.536 59.8778 201.724 60.4445 202.1 60.8223C202.476 61.2 203.228 61.3889 204.168 61.3889H207.082V66.7723H203.134C197.776 66.7723 195.144 64.2223 195.144 59.0278V46.8445H192.136V41.5556H195.144V35.3223H201.536V41.5556H207.082V46.75H201.536V46.8445Z" fill="black"/>
<path d="M217.14 65.45C215.26 64.4111 213.662 62.9 212.628 60.9166C211.5 58.9333 210.936 56.6666 210.936 54.1166C210.936 51.5666 211.5 49.3 212.628 47.3166C213.756 45.3333 215.26 43.8222 217.234 42.7833C219.208 41.7444 221.37 41.1777 223.814 41.1777C226.258 41.1777 228.42 41.7444 230.394 42.7833C232.368 43.8222 233.872 45.3333 235 47.3166C236.128 49.3 236.692 51.5666 236.692 54.1166C236.692 56.6666 236.128 58.9333 235 60.9166C233.872 62.9 232.274 64.4111 230.3 65.45C228.326 66.4889 226.164 67.0555 223.72 67.0555C221.276 67.0555 219.114 66.5833 217.14 65.45ZM226.916 60.7277C227.95 60.1611 228.702 59.3111 229.36 58.1777C229.924 57.0444 230.3 55.7222 230.3 54.1166C230.3 51.7555 229.642 49.8666 228.42 48.6388C227.198 47.3166 225.694 46.75 223.814 46.75C221.934 46.75 220.524 47.4111 219.302 48.6388C218.08 49.9611 217.516 51.7555 217.516 54.1166C217.516 56.4777 218.08 58.3666 219.302 59.5944C220.524 60.9166 222.028 61.4833 223.814 61.4833C224.754 61.4833 225.882 61.2944 226.916 60.7277Z" fill="black"/>
<path d="M251.732 42.4058C253.048 41.6502 254.552 41.2725 256.244 41.2725V47.8836H254.552C252.578 47.8836 251.074 48.3558 250.04 49.3002C249.006 50.2447 248.536 51.8502 248.536 54.2114V66.678H242.238V41.5558H248.536V45.428C249.382 44.2002 250.416 43.1614 251.732 42.4058Z" fill="black"/>
<path d="M265.362 66.0173C263.764 65.2618 262.448 64.3173 261.508 62.9951C260.568 61.7673 260.004 60.3507 259.91 58.7451H266.302C266.396 59.6895 266.866 60.5395 267.712 61.1062C268.558 61.7673 269.592 62.0506 270.814 62.0506C272.036 62.0506 272.976 61.7673 273.634 61.2951C274.292 60.8229 274.668 60.1618 274.668 59.4062C274.668 58.6507 274.292 57.9895 273.446 57.6118C272.6 57.234 271.284 56.7618 269.498 56.2895C267.618 55.8173 266.114 55.3451 264.892 54.8729C263.67 54.4006 262.73 53.6451 261.79 52.7007C260.944 51.6618 260.474 50.3395 260.474 48.6395C260.474 46.9395 260.85 45.9951 261.696 44.8618C262.448 43.7284 263.67 42.784 265.08 42.1229C266.584 41.4618 268.276 41.084 270.344 41.084C273.352 41.084 275.702 41.8395 277.488 43.3507C279.274 44.8618 280.214 46.8451 280.402 49.3951H274.48C274.386 48.3562 274.01 47.6007 273.258 47.034C272.506 46.4673 271.566 46.184 270.344 46.184C269.122 46.184 268.276 46.3729 267.712 46.8451C267.054 47.2229 266.772 47.884 266.772 48.6395C266.772 49.3951 267.148 50.1507 267.994 50.5284C268.84 51.0007 270.156 51.3784 271.942 51.8507C273.728 52.3229 275.232 52.7951 276.36 53.2673C277.488 53.7395 278.522 54.4951 279.368 55.534C280.214 56.5729 280.684 57.8951 280.684 59.5007C280.684 61.1062 280.308 62.2395 279.462 63.3729C278.71 64.5062 277.488 65.4507 276.078 66.1118C274.574 66.7729 272.882 67.0562 270.908 67.0562C268.84 67.0562 267.054 66.6784 265.362 66.0173Z" fill="black"/>
<path d="M125.678 34.0947C125.678 34.0947 125.772 34.0947 125.866 34.4724C126.054 34.7558 126.242 35.1336 126.43 35.6058C126.712 36.1724 126.994 36.7391 127.276 37.5891C127.558 38.3447 127.84 39.2891 128.028 40.4224C128.404 42.5947 128.498 45.3335 127.84 48.4502C127.652 49.2058 127.464 50.0558 127.182 50.8113C126.9 51.5669 126.618 52.4169 126.242 53.2669C125.49 54.8724 124.456 56.478 123.234 58.0835C122.012 59.5947 120.508 61.1058 118.91 62.428C117.218 63.7502 115.338 64.978 113.27 65.9224C111.202 66.8669 108.946 67.6224 106.502 68.0947C104.152 68.5669 101.614 68.7558 99.0759 68.5669C98.4179 68.5669 97.7599 68.5669 97.1959 68.378C96.9139 68.378 96.5379 68.378 96.2559 68.1891H95.3159C95.3159 68.1891 95.0339 68.0002 94.8459 68.0002H94.3759C94.0939 67.8113 93.7179 67.7169 93.4359 67.6224C92.7779 67.4335 92.1199 67.2447 91.5559 66.9613C90.3339 66.4891 89.0179 65.9224 87.8899 65.2613C86.6679 64.6002 85.5399 63.8447 84.5059 62.9947C82.3439 61.2947 80.4639 59.2169 78.8659 56.9502C77.2679 54.6835 76.0459 52.228 75.1059 49.5835C73.3199 44.3891 72.9439 38.7224 73.9779 33.4336C74.2599 32.1113 74.5419 30.7891 75.0119 29.4669C75.4819 28.1447 76.0459 26.9169 76.7039 25.6891C78.0199 23.328 79.7119 21.1558 81.6859 19.4558C83.6599 17.6613 85.8219 16.2447 88.0779 15.3002C90.3339 14.2613 92.7779 13.6947 95.1279 13.4113C97.4779 13.128 99.7339 13.2224 101.896 13.6947C102.93 13.8836 103.964 14.1669 104.998 14.5447H105.374C105.374 14.6391 105.75 14.7336 105.75 14.7336C105.938 14.828 106.22 14.9224 106.502 15.0169C106.784 15.1113 106.972 15.2058 107.254 15.3002C107.442 15.3947 107.724 15.4891 107.912 15.678C109.698 16.6224 111.296 17.8502 112.518 19.1724C113.834 20.4947 114.774 21.9113 115.526 23.328C116.278 24.7447 116.748 26.1613 117.124 27.4836C117.406 28.8058 117.594 30.0336 117.594 31.1669V32.7724C117.594 33.2447 117.594 33.7169 117.406 34.0947C117.218 34.4724 117.218 34.9447 117.218 35.228C117.218 35.6058 117.03 35.8891 116.936 36.1724C116.936 36.4558 116.748 36.6447 116.654 36.928C116.654 37.1169 116.466 37.3058 116.466 37.4002C116.466 37.6835 116.278 37.778 116.278 37.778C116.278 37.778 116.278 37.5891 116.278 37.3058C116.278 37.1169 116.278 37.0224 116.278 36.7391C116.278 36.5502 116.278 36.2669 116.278 35.9835V33.9058C116.278 33.0558 116.09 32.2058 115.902 31.1669C115.714 30.128 115.338 29.0891 114.868 27.9558C114.398 26.8224 113.74 25.6891 112.894 24.6502C111.296 22.478 108.852 20.4947 105.844 19.4558C105.656 19.3613 105.468 19.3613 105.28 19.2669C105.28 19.2669 105.092 19.1724 104.998 19.1724H104.716C104.528 18.9835 104.34 18.9836 104.152 18.8891H103.776C103.776 18.7947 103.588 18.7947 103.588 18.7947C102.742 18.6058 101.896 18.5113 101.05 18.4169C99.3579 18.3224 97.5719 18.4169 95.7859 18.7947C92.2139 19.5502 88.8299 21.3447 86.1039 24.0836C84.7879 25.5002 83.6599 27.0113 82.7199 28.8058C81.8739 30.6002 81.3099 32.3947 80.9339 34.4724C80.2759 38.5336 80.6519 42.878 81.9679 46.8447C83.3779 50.8113 85.7279 54.4002 88.8299 56.9502C89.5819 57.6113 90.4279 58.178 91.2739 58.7447C92.1199 59.3113 92.9659 59.6891 93.9059 60.0669C94.8459 60.4447 94.8459 60.4447 95.3159 60.6335C95.5039 60.6335 95.7859 60.8224 95.9739 60.8224H96.2559C96.2559 60.8224 96.4439 61.0113 96.6319 61.0113H97.0079H97.2899C97.5719 61.0113 97.7599 61.0113 98.0419 61.2002C98.5119 61.2002 98.9819 61.3891 99.5459 61.4835C103.494 61.9558 107.442 61.4835 110.92 60.2558C114.398 59.028 117.5 57.0447 119.85 54.6836C122.2 52.3224 123.892 49.678 124.926 47.128C125.96 44.578 126.336 42.1224 126.43 40.0447C126.43 37.9669 126.242 36.3613 125.96 35.228C125.866 34.6613 125.772 34.2836 125.678 34.0002C125.396 34.1891 125.396 34.0002 125.396 34.0002L125.678 34.0947Z" fill="black"/>
<mask id="mask0_746_10682" style="mask-type:luminance" maskUnits="userSpaceOnUse" x="126" y="9" width="14" height="18">
<path d="M126.618 9.06641C126.618 9.06641 131.412 12.4664 131.788 16.9997C132.164 21.5331 129.532 24.6497 133.856 25.972C137.71 27.1997 140.248 22.8553 139.872 18.8886L138.932 19.5497C138.932 19.5497 138.274 14.8275 136.582 12.0886L136.206 13.9775C136.206 13.9775 133.386 10.3886 131.412 9.34974L131.6 10.4831C131.694 10.5775 129.814 9.2553 126.618 9.06641Z" fill="white"/>
</mask>
<g mask="url(#mask0_746_10682)">
<path d="M131.976 29.8438L142.88 24.9327L134.232 5.66602L123.328 10.5771L131.976 29.8438Z" fill="url(#paint0_linear_746_10682)"/>
</g>
<mask id="mask1_746_10682" style="mask-type:luminance" maskUnits="userSpaceOnUse" x="126" y="9" width="11" height="17">
<path d="M126.618 9.06641C126.618 9.06641 131.412 12.4664 131.788 16.9997C132.164 21.5331 129.626 24.5553 133.856 25.972C139.12 23.1386 136.488 14.3553 126.618 9.06641Z" fill="white"/>
</mask>
<g mask="url(#mask1_746_10682)">
<path d="M130.848 27.389L140.436 23.0445L132.916 6.2334L123.328 10.5778L130.848 27.389Z" fill="url(#paint1_linear_746_10682)"/>
</g>
<path fill-rule="evenodd" clip-rule="evenodd" d="M140.906 39.4774C141.188 37.683 140.248 34.4719 139.496 32.7719C139.778 33.5274 139.872 34.0941 139.966 34.6608C139.402 33.433 138.368 32.0163 136.864 30.7885C132.07 26.8219 126.712 28.7108 124.08 31.0719C121.448 33.433 116.184 38.0608 116.184 38.0608C116.184 38.0608 120.132 33.6219 123.328 29.4663C123.61 14.6385 148.144 23.3274 143.444 35.6052C143.444 34.283 142.88 33.1496 142.88 33.1496C143.538 35.983 142.692 37.4941 140.906 39.4774Z" fill="#561F5B"/>
<mask id="mask2_746_10682" style="mask-type:luminance" maskUnits="userSpaceOnUse" x="125" y="25" width="15" height="10">
<path d="M139.966 34.6609C139.402 33.4331 138.368 32.0164 136.864 30.7887C132.728 27.3887 128.216 28.3331 125.302 30.1276C130.472 22.0053 138.368 26.822 139.966 34.6609Z" fill="white"/>
</mask>
<g mask="url(#mask2_746_10682)">
<path d="M129.438 39.4775L141.564 33.9052L135.266 19.833L123.14 25.4052L129.438 39.4775Z" fill="url(#paint2_linear_746_10682)"/>
</g>
<mask id="mask3_746_10682" style="mask-type:luminance" maskUnits="userSpaceOnUse" x="133" y="2" width="15" height="29">
<path d="M137.24 2.5498C137.24 2.5498 141.094 10.0109 138.65 16.0554C136.206 22.0998 130.848 24.272 135.454 28.8054C139.59 32.8665 145.606 29.0887 147.674 23.7998L146.076 24.0831C146.076 24.0831 148.332 17.6609 147.956 13.1276L146.264 15.2054C146.264 15.2054 145.042 8.78314 143.256 6.13869L142.786 7.74425C142.692 7.74425 141.188 4.81647 137.24 2.5498Z" fill="white"/>
</mask>
<g mask="url(#mask3_746_10682)">
<path d="M135.548 34.661L153.878 26.4443L142.128 0.283203L123.798 8.59431L135.548 34.661Z" fill="url(#paint3_linear_746_10682)"/>
</g>
<mask id="mask4_746_10682" style="mask-type:luminance" maskUnits="userSpaceOnUse" x="133" y="2" width="10" height="27">
<path d="M137.24 2.5498C137.24 2.5498 141.094 10.0109 138.65 16.0554C136.206 22.0054 130.942 24.1776 135.36 28.7109C143.82 28.6165 146.264 15.772 137.24 2.5498Z" fill="white"/>
</mask>
<g mask="url(#mask4_746_10682)">
<path d="M134.702 32.7716L150.588 25.4993L139.778 1.41602L123.892 8.59379L134.702 32.7716Z" fill="url(#paint4_linear_746_10682)"/>
</g>
<path fill-rule="evenodd" clip-rule="evenodd" d="M126.43 25.2168C126.43 25.2168 126.336 26.0668 125.866 26.4446C125.396 26.8224 124.832 26.7279 124.926 27.2946C125.584 27.7668 126.43 26.8224 126.43 25.2168Z" fill="#F9F9FA"/>
<mask id="mask5_746_10682" style="mask-type:luminance" maskUnits="userSpaceOnUse" x="124" y="25" width="3" height="3">
<path d="M124.55 25.5C124.55 25.5 125.396 25.6889 125.678 26.2556C125.96 26.8222 125.772 27.2944 126.336 27.2944C126.9 26.7278 126.054 25.6889 124.55 25.5Z" fill="white"/>
</mask>
<g mask="url(#mask5_746_10682)">
<path d="M124.905 25.0708L124.543 27.5947L126.218 27.8372L126.58 25.3133L124.905 25.0708Z" fill="#F9F9FA"/>
</g>
<path d="M115.996 41.367C114.586 41.367 112.894 42.0281 112.894 45.0503V50.3392C112.894 53.4558 109.792 53.8336 107.818 53.7392V53.267C109.322 53.267 111.202 52.7947 111.202 49.7725V44.4836C111.202 42.4058 112.518 41.5558 114.022 41.1781C112.518 40.8003 111.202 39.9503 111.202 37.8725V32.5836C111.202 29.6558 109.322 28.9947 107.818 29.0892V28.617C109.792 28.5225 112.894 28.9003 112.894 32.017V37.967C112.894 40.6114 114.774 40.9892 116.278 40.9892V41.4614H115.996V41.367Z" fill="url(#paint5_linear_746_10682)"/>
<path d="M86.5737 41.3667V40.8944C88.0777 40.8944 89.9577 40.5167 89.9577 37.8722V31.9222C89.9577 28.8056 93.0597 28.4278 95.0337 28.5222V28.9944C93.5297 28.9 91.6497 29.5611 91.6497 32.4889V37.7778C91.6497 39.95 90.3337 40.7056 88.8297 41.0833C90.3337 41.3667 91.6497 42.3111 91.6497 44.3889V49.6778C91.6497 52.7 93.5297 53.2667 95.0337 53.1722V53.6444C92.9657 53.6444 89.9577 53.3611 89.9577 50.2445V44.9556C89.9577 41.9333 88.2657 41.3667 86.8557 41.2722H86.5737V41.3667Z" fill="url(#paint6_linear_746_10682)"/>
<path d="M107.442 39.4778L100.486 35.4167L98.6059 34.2833C97.8539 33.9056 97.0079 33.9056 96.2559 34.2833C95.5039 34.6611 95.1279 35.4167 95.1279 36.2667V46.5611C95.1279 47.4111 95.5979 48.1667 96.2559 48.5444C96.6319 48.7333 97.0079 48.8278 97.3839 48.8278C97.7599 48.8278 98.1359 48.8278 98.5119 48.5444L100.016 47.6944L102.084 46.4667L107.254 43.4444C108.006 43.0667 108.382 42.3111 108.382 41.4611C108.664 40.6111 108.194 39.8556 107.442 39.4778ZM106.502 41.8389L100.956 45.05L100.204 45.5222L97.6659 47.0333C97.4779 47.0333 97.2899 47.0333 97.1959 47.0333C97.1019 47.0333 97.0079 46.8444 97.0079 46.6556V36.3611C97.0079 36.0778 97.1959 35.9833 97.1959 35.9833C97.1959 35.9833 97.1959 35.9833 97.3839 35.9833C97.5719 35.9833 97.5719 35.9833 97.5719 35.9833L100.392 37.5889L106.502 41.0833C106.69 41.0833 106.69 41.3667 106.69 41.4611C106.784 41.4611 106.784 41.7444 106.502 41.8389Z" fill="url(#paint7_linear_746_10682)"/>
<path d="M102.272 46.4671L98.6062 48.5449C98.2302 48.7338 97.8542 48.8282 97.4782 48.8282C97.1022 48.8282 96.6322 48.8282 96.3502 48.5449C95.5982 48.1671 95.2222 47.4115 95.2222 46.5615V38.7227L97.1022 40.8004V46.656C97.1022 46.9393 97.2902 47.0338 97.2902 47.0338C97.2902 47.0338 97.5722 47.0338 97.7602 47.0338L101.05 45.1449L102.272 46.4671Z" fill="url(#paint8_linear_746_10682)"/>
<path d="M108.664 41.4607C108.664 42.3107 108.194 43.0663 107.536 43.4441L102.366 46.4663L100.298 47.6941V45.5219L101.144 45.0496L106.69 41.8385C106.878 41.8385 106.878 41.5552 106.878 41.4607C106.878 41.3663 106.878 41.1774 106.69 41.083L100.58 37.5885V35.5107L107.63 39.5719C108.194 39.8552 108.664 40.6107 108.664 41.4607Z" fill="url(#paint9_linear_746_10682)"/>
<path d="M9.11812 74.7998V75.8387H6.20412V83.9609H4.98212V75.8387H1.97412V74.7998H9.11812Z" fill="black"/>
<path d="M28.764 74.7998V75.8387H24.346V78.8609H27.918V79.8054H24.346V82.922H28.764V83.9609H23.124V74.7998H28.764Z" fill="black"/>
<path d="M49.6323 82.0722C49.6323 82.0722 49.6949 82.0722 49.8203 82.0722L50.2903 82.6388C49.9143 83.111 49.4443 83.3944 48.9743 83.6777C48.4103 83.8666 47.7523 83.961 47.0003 83.961C46.2483 83.961 45.7783 83.961 45.2143 83.5833C44.6503 83.3944 44.1803 83.0166 43.8043 82.6388C43.4283 82.261 43.1463 81.6944 42.9583 81.1277C42.7703 80.561 42.6763 79.8999 42.6763 79.2388C42.6763 78.5777 42.6763 77.9166 43.0523 77.3499C43.2403 76.7833 43.6163 76.311 43.9923 75.8388C44.3683 75.461 44.8383 75.0833 45.4023 74.8944C45.9663 74.7055 46.6243 74.5166 47.2823 74.5166C47.9403 74.5166 48.5043 74.5166 48.9743 74.7999C49.4443 74.9888 49.9143 75.2722 50.2903 75.6499L49.8203 76.311C49.8203 76.311 49.8203 76.311 49.6323 76.311C49.4443 76.311 49.6323 76.311 49.4443 76.311C49.4443 76.311 49.4443 76.311 49.2563 76.1222C49.2563 76.1222 49.0683 76.1222 48.9743 75.9333C48.8803 75.7444 48.6923 75.9333 48.5983 75.7444C48.4103 75.7444 48.2223 75.7444 48.0343 75.5555C47.8463 75.5555 47.5643 75.5555 47.2823 75.5555C46.8123 75.5555 46.3423 75.5555 45.9663 75.8388C45.5903 76.0277 45.2143 76.2166 44.9323 76.5944C44.6503 76.8777 44.3683 77.2555 44.2743 77.7277C44.0863 78.1999 43.9923 78.6722 43.9923 79.2388C43.9923 79.8055 43.9923 80.2777 44.2743 80.7499C44.5563 81.2222 44.6503 81.5999 44.9323 81.8833C45.2143 82.1666 45.5903 82.4499 45.9663 82.5444C46.3423 82.7333 46.8123 82.8277 47.1883 82.8277C47.5643 82.8277 47.6583 82.8277 47.9403 82.8277C48.1283 82.8277 48.3163 82.8277 48.5043 82.6388C48.6923 82.6388 48.8803 82.4499 48.9743 82.3555C49.1623 82.3555 49.2563 82.1666 49.4443 81.9777C49.5383 82.261 49.6323 82.1666 49.7263 82.1666L49.6323 82.0722Z" fill="black"/>
<path d="M72.0041 83.9609H70.7821V79.8054H65.8001V83.9609H64.5781V74.7998H65.8001V78.8609H70.6881V74.7998H71.9101V83.9609H72.0041Z" fill="black"/>
<path d="M113.646 76.2167C113.646 76.2167 113.646 76.2168 113.646 76.4056C113.646 76.4056 113.646 76.4056 113.458 76.4056C113.27 76.4056 113.27 76.4056 113.176 76.4056C113.176 76.4056 112.988 76.2167 112.8 76.1223C112.612 76.1223 112.518 75.9334 112.236 75.839C112.048 75.839 111.766 75.839 111.484 75.839C111.202 75.839 110.92 75.839 110.732 75.839C110.544 75.839 110.356 76.0279 110.168 76.1223C109.98 76.1223 109.886 76.4056 109.886 76.5945C109.886 76.7834 109.886 76.9723 109.886 77.1612C109.886 77.4445 109.886 77.6334 110.074 77.8223C110.262 78.0112 110.356 78.1056 110.544 78.2945C110.732 78.2945 111.014 78.4834 111.202 78.5779C111.484 78.5779 111.766 78.7668 112.048 78.8612C112.33 78.8612 112.612 79.0501 112.894 79.1445C113.176 79.1445 113.364 79.4279 113.552 79.6168C113.74 79.8056 113.928 79.9945 114.022 80.2779C114.022 80.5612 114.21 80.8445 114.21 81.2223C114.21 81.6001 114.21 81.9779 114.022 82.3556C114.022 82.7334 113.646 83.0167 113.458 83.3001C113.176 83.5834 112.894 83.7723 112.518 83.9612C112.142 84.1501 111.672 84.1501 111.202 84.1501C110.732 84.1501 110.074 84.1501 109.604 83.8668C109.134 83.6779 108.664 83.3945 108.382 83.0168L108.758 82.4501C108.758 82.4501 108.758 82.2612 108.946 82.2612C109.134 82.2612 109.134 82.2612 109.228 82.4501C109.228 82.4501 109.51 82.639 109.698 82.7334C109.886 82.7334 110.074 82.9223 110.356 83.0168C110.638 83.0168 110.92 83.2056 111.296 83.2056C111.672 83.2056 111.86 83.2056 112.048 83.2056C112.236 83.2056 112.518 83.0167 112.612 82.8279C112.8 82.639 112.894 82.5445 112.988 82.2612C112.988 82.0723 112.988 81.789 112.988 81.6001C112.988 81.3168 112.988 81.1279 112.8 80.939C112.612 80.7501 112.518 80.6556 112.33 80.4667C112.142 80.4667 111.86 80.2779 111.672 80.1834C111.39 80.1834 111.108 79.9945 110.826 79.9001C110.544 79.8056 110.262 79.7112 109.98 79.6168C109.698 79.6168 109.51 79.3334 109.322 79.1445C109.134 78.9556 108.946 78.7667 108.852 78.4834C108.852 78.2001 108.664 77.8223 108.664 77.4445C108.664 77.0668 108.664 76.7834 108.852 76.5001C109.04 76.2168 109.134 75.9334 109.416 75.6501C109.698 75.4612 109.98 75.2723 110.262 75.0834C110.638 75.0834 111.014 74.8945 111.484 74.8945C111.954 74.8945 112.424 74.8945 112.894 75.1779C113.27 75.3667 113.646 75.5556 114.022 75.839L113.646 76.3112V76.2167Z" fill="black"/>
<path d="M136.864 79.4273C136.864 80.0884 136.77 80.7495 136.582 81.3162C136.394 81.8829 136.018 82.3551 135.642 82.8273C135.266 83.2051 134.796 83.5829 134.232 83.7717C133.668 83.9606 133.104 84.1495 132.352 84.1495C131.6 84.1495 131.036 84.1495 130.472 83.7717C129.908 83.5829 129.438 83.2051 129.062 82.8273C128.686 82.4495 128.404 81.8829 128.122 81.3162C127.934 80.7495 127.84 80.0884 127.84 79.4273C127.84 78.7662 127.934 78.1051 128.122 77.5384C128.31 76.9717 128.686 76.4995 129.062 76.0273C129.438 75.6495 129.908 75.2717 130.472 75.0829C131.036 74.894 131.6 74.7051 132.352 74.7051C133.104 74.7051 133.668 74.7051 134.232 75.0829C134.796 75.4606 135.266 75.6495 135.642 76.0273C136.018 76.4051 136.3 76.9717 136.582 77.5384C136.77 78.1051 136.864 78.6717 136.864 79.4273ZM135.548 79.4273C135.548 78.8606 135.454 78.3884 135.36 77.9162C135.172 77.444 134.984 77.0662 134.702 76.7829C134.42 76.4995 134.044 76.2162 133.668 76.0273C133.292 75.8384 132.822 75.744 132.352 75.744C131.882 75.744 131.412 75.744 131.036 76.0273C130.66 76.2162 130.284 76.4051 130.002 76.7829C129.72 77.0662 129.532 77.444 129.344 77.9162C129.156 78.3884 129.156 78.8606 129.156 79.4273C129.156 79.994 129.25 80.4662 129.344 80.9384C129.532 81.4106 129.72 81.7884 130.002 82.0717C130.284 82.3551 130.66 82.6384 131.036 82.8273C131.412 83.0162 131.882 83.1106 132.352 83.1106C132.822 83.1106 133.292 83.1106 133.668 82.8273C134.044 82.6384 134.42 82.4495 134.702 82.0717C134.984 81.694 135.172 81.4106 135.36 80.9384C135.454 80.4662 135.548 79.994 135.548 79.4273Z" fill="black"/>
<path d="M152.468 82.922H156.416V83.9609H151.246V74.7998H152.468V82.922Z" fill="black"/>
<path d="M173.994 83.0165C174.37 83.0165 174.746 83.0165 175.028 82.8276C175.31 82.6387 175.592 82.5443 175.78 82.2609C175.968 82.072 176.156 81.7887 176.25 81.4109C176.344 81.1276 176.438 80.7498 176.438 80.372V74.7998H177.66V80.372C177.66 80.9387 177.566 81.4109 177.378 81.8831C177.19 82.3554 177.002 82.7331 176.626 83.0165C176.344 83.3943 175.968 83.5831 175.498 83.772C175.028 83.9609 174.558 84.0554 173.994 84.0554C173.43 84.0554 172.96 84.0554 172.49 83.772C172.02 83.5831 171.644 83.2998 171.362 83.0165C171.08 82.6387 170.798 82.2609 170.61 81.8831C170.422 81.4109 170.328 80.9387 170.328 80.372V74.7998H171.55V80.372C171.55 80.7498 171.644 81.1276 171.738 81.4109C171.832 81.6942 172.02 81.9776 172.208 82.2609C172.396 82.4498 172.678 82.6387 172.96 82.8276C173.242 82.8276 173.618 83.0165 173.994 83.0165Z" fill="black"/>
<path d="M198.622 74.7998V75.8387H195.708V83.9609H194.486V75.8387H191.478V74.7998H198.622Z" fill="black"/>
<path d="M214.038 83.9609H212.816V74.7998H214.038V83.9609Z" fill="black"/>
<path d="M237.632 79.4273C237.632 80.0884 237.538 80.7495 237.35 81.3162C237.162 81.8829 236.786 82.3551 236.41 82.8273C236.034 83.2051 235.564 83.5829 235 83.7717C234.436 83.9606 233.872 84.1495 233.12 84.1495C232.368 84.1495 231.804 84.1495 231.24 83.7717C230.676 83.5829 230.206 83.2051 229.83 82.8273C229.454 82.4495 229.172 81.8829 228.89 81.3162C228.702 80.7495 228.608 80.0884 228.608 79.4273C228.608 78.7662 228.702 78.1051 228.89 77.5384C229.078 76.9717 229.454 76.4995 229.83 76.0273C230.206 75.6495 230.676 75.2717 231.24 75.0829C231.804 74.894 232.368 74.7051 233.12 74.7051C233.872 74.7051 234.436 74.7051 235 75.0829C235.564 75.2717 236.034 75.6495 236.41 76.0273C236.786 76.4051 237.068 76.9717 237.35 77.5384C237.538 78.1051 237.632 78.6717 237.632 79.4273ZM236.316 79.4273C236.316 78.8606 236.222 78.3884 236.128 77.9162C235.94 77.444 235.752 77.0662 235.47 76.7829C235.188 76.4995 234.812 76.2162 234.436 76.0273C234.06 75.8384 233.59 75.744 233.12 75.744C232.65 75.744 232.18 75.744 231.804 76.0273C231.428 76.2162 231.052 76.4051 230.77 76.7829C230.488 77.0662 230.3 77.444 230.112 77.9162C229.924 78.3884 229.924 78.8606 229.924 79.4273C229.924 79.994 230.018 80.4662 230.112 80.9384C230.3 81.4106 230.488 81.7884 230.77 82.0717C231.052 82.3551 231.428 82.6384 231.804 82.8273C232.18 83.0162 232.65 83.1106 233.12 83.1106C233.59 83.1106 234.06 83.1106 234.436 82.8273C234.812 82.6384 235.188 82.4495 235.47 82.0717C235.752 81.694 235.94 81.4106 236.128 80.9384C236.222 80.4662 236.316 79.994 236.316 79.4273Z" fill="black"/>
<path d="M252.86 74.8945C252.954 74.8945 252.954 74.8945 253.048 75.0834L258.312 81.9779V74.8945H259.44V84.0556H258.782C258.688 84.0556 258.594 84.0556 258.5 84.0556C258.406 84.0556 258.406 84.0556 258.312 83.8668L253.048 76.9723V84.0556H251.92V74.8945H252.578C252.578 74.8945 252.766 74.8945 252.86 74.8945Z" fill="black"/>
<path d="M278.898 76.2165C278.898 76.2165 278.804 76.2165 278.804 76.4054C278.804 76.4054 278.71 76.4054 278.616 76.4054C278.522 76.4054 278.428 76.4054 278.334 76.4054C278.24 76.4054 278.146 76.2165 277.958 76.122C277.77 76.122 277.676 75.9331 277.394 75.8387C277.206 75.8387 276.924 75.8387 276.642 75.8387C276.36 75.8387 276.078 75.8387 275.89 75.8387C275.702 75.8387 275.514 76.0276 275.326 76.122C275.138 76.122 275.044 76.4054 275.044 76.5943C274.95 76.7831 274.95 76.972 274.95 77.1609C274.95 77.4442 275.044 77.6331 275.138 77.822C275.232 78.0109 275.42 78.1054 275.608 78.2943C275.796 78.2943 276.078 78.4831 276.266 78.5776C276.548 78.5776 276.83 78.7665 277.112 78.8609C277.394 78.8609 277.676 79.0498 277.958 79.1443C278.24 79.1443 278.428 79.4276 278.616 79.6165C278.804 79.8054 278.992 79.9943 279.086 80.2776C279.18 80.5609 279.274 80.8443 279.274 81.222C279.274 81.5998 279.18 81.9776 279.086 82.3554C278.992 82.7331 278.71 83.0165 278.522 83.2998C278.24 83.5831 277.958 83.772 277.582 83.9609C277.3 84.0554 276.83 84.0554 276.36 84.0554C275.89 84.0554 275.232 84.0554 274.762 83.772C274.292 83.5831 273.822 83.2998 273.54 82.922L273.916 82.3554H274.01C274.104 82.3554 274.104 82.1665 274.198 82.1665C274.292 82.1665 274.386 82.1665 274.48 82.3554C274.574 82.3554 274.762 82.5443 274.95 82.6387C275.138 82.6387 275.326 82.8276 275.608 82.922C275.89 82.922 276.172 83.1109 276.548 83.1109C276.924 83.1109 277.112 83.1109 277.3 83.1109C277.488 83.1109 277.77 82.922 277.864 82.7331C278.052 82.5443 278.146 82.4498 278.24 82.1665C278.334 81.9776 278.334 81.6943 278.334 81.5054C278.334 81.222 278.24 81.0331 278.146 80.8443C278.052 80.6554 277.864 80.5609 277.676 80.372C277.488 80.372 277.206 80.1831 277.018 80.0887C276.736 80.0887 276.454 79.8998 276.172 79.8054C275.89 79.8054 275.608 79.6165 275.326 79.522C275.044 79.522 274.856 79.2387 274.668 79.0498C274.48 78.8609 274.292 78.672 274.198 78.3887C274.104 78.1054 274.01 77.7276 274.01 77.3498C274.01 76.972 274.104 76.6887 274.198 76.4054C274.292 76.122 274.48 75.8387 274.762 75.5554C275.044 75.3665 275.326 75.1776 275.608 74.9887C275.984 74.9887 276.36 74.7998 276.83 74.7998C277.3 74.7998 277.77 74.7998 278.24 75.0831C278.616 75.272 278.992 75.4609 279.368 75.7442L278.898 76.3109V76.2165Z" fill="black"/>
<defs>
<linearGradient id="paint0_linear_746_10682" x1="136.99" y1="24.7636" x2="129.65" y2="11.1033" gradientUnits="userSpaceOnUse">
<stop stop-color="#03A672"/>
<stop offset="1" stop-color="#68C4A3"/>
</linearGradient>
<linearGradient id="paint1_linear_746_10682" x1="128.557" y1="9.21203" x2="136.323" y2="26.1026" gradientUnits="userSpaceOnUse">
<stop stop-color="#03A672"/>
<stop offset="1" stop-color="#65C3A1"/>
</linearGradient>
<linearGradient id="paint2_linear_746_10682" x1="128.193" y1="26.9928" x2="139.104" y2="33.7197" gradientUnits="userSpaceOnUse">
<stop stop-color="#F9A13A"/>
<stop offset="1" stop-color="#B9539F"/>
</linearGradient>
<linearGradient id="paint3_linear_746_10682" x1="139.134" y1="29.0763" x2="138.82" y2="7.04141" gradientUnits="userSpaceOnUse">
<stop stop-color="#03A672"/>
<stop offset="1" stop-color="#68C4A3"/>
</linearGradient>
<linearGradient id="paint4_linear_746_10682" x1="138.022" y1="3.88104" x2="136.676" y2="30.2883" gradientUnits="userSpaceOnUse">
<stop stop-color="#03A672"/>
<stop offset="1" stop-color="#72C7A9"/>
</linearGradient>
<linearGradient id="paint5_linear_746_10682" x1="104.904" y1="52.5114" x2="114.473" y2="30.6333" gradientUnits="userSpaceOnUse">
<stop stop-color="#03A672"/>
<stop offset="1" stop-color="#68C4A3"/>
</linearGradient>
<linearGradient id="paint6_linear_746_10682" x1="88.4537" y1="51.85" x2="97.9288" y2="29.9714" gradientUnits="userSpaceOnUse">
<stop stop-color="#03A672"/>
<stop offset="1" stop-color="#68C4A3"/>
</linearGradient>
<linearGradient id="paint7_linear_746_10682" x1="97.3839" y1="49.1111" x2="102.974" y2="36.1914" gradientUnits="userSpaceOnUse">
<stop stop-color="#F8951D"/>
<stop offset="1" stop-color="#FFD056"/>
</linearGradient>
<linearGradient id="paint8_linear_746_10682" x1="96.1622" y1="48.5449" x2="99.5731" y2="40.7177" gradientUnits="userSpaceOnUse">
<stop stop-color="#F8951D"/>
<stop offset="1" stop-color="#FFD056"/>
</linearGradient>
<linearGradient id="paint9_linear_746_10682" x1="100.674" y1="47.9774" x2="105.222" y2="37.4152" gradientUnits="userSpaceOnUse">
<stop stop-color="#F8951D"/>
<stop offset="1" stop-color="#FFD056"/>
</linearGradient>
</defs>
</svg>
