<svg width="458" height="312" viewBox="0 0 458 312" fill="none" xmlns="http://www.w3.org/2000/svg">
<path d="M227.177 222.209H134.374C131.869 222.209 129.706 220.446 129.184 217.979L112.653 139.751C111.951 136.427 114.468 133.297 117.843 133.297H213.553C216.13 133.297 218.334 135.161 218.779 137.716L232.403 215.944C232.973 219.214 230.474 222.209 227.177 222.209Z" fill="#C8C8C8"/>
<path d="M225.355 285.448C218.416 281.924 215.216 274.067 218.848 266.832C222.472 259.598 231.043 256.59 237.978 260.118C244.922 263.654 247.609 272.374 243.97 279.613C240.337 286.853 232.292 288.988 225.355 285.448Z" fill="#F8A583"/>
<path d="M231.464 287.089C195.536 280.171 176.14 272.51 162.081 267.207C157.061 265.307 163.325 252.19 168.657 252.777C168.657 252.777 201.98 258.766 230.234 263.497L231.464 287.089Z" fill="#F8A583"/>
<path d="M174.418 268.748C170.568 271.949 162.064 273.063 155.389 270.056C155.389 270.056 150.944 267.12 150.511 262.541C150.002 257.248 153.662 252.193 156.244 251.203C160.606 249.529 165.919 253.2 171.794 254.449C180.771 256.353 176.386 267.122 174.418 268.748Z" fill="#F8A583"/>
<path d="M158.258 252.247C158.197 252.179 158.068 252.243 158.089 252.335C159.251 257.453 165.318 262.529 170.467 261.765C170.731 261.724 170.755 261.318 170.503 261.24C168.129 260.394 165.915 259.871 163.758 258.451C161.333 256.857 159.844 254.653 158.258 252.247Z" fill="#EF8564"/>
<path d="M161.521 262.642C159.924 262.82 158.664 265.594 158.698 267.053C159.312 266.468 159.604 265.652 160.046 264.977C160.547 264.221 161.169 263.656 161.712 262.966C161.839 262.811 161.67 262.622 161.521 262.642Z" fill="#EF8564"/>
<path d="M264.596 228.467C274.652 210.711 269.13 188.284 257.927 195.868C228.151 216.044 219.059 277.236 219.059 277.236L241.948 282.929C241.948 282.929 257.744 240.597 264.596 228.467Z" fill="#F8A583"/>
<path d="M223.891 262.167C223.844 251.398 231.688 218.434 233.358 212.843C240.116 190.258 253.897 187.807 261.692 185.195C266.681 195.483 267.347 237.902 254.735 268.767C246.971 271.949 228.606 268.649 223.891 262.167Z" fill="#FFFCEE"/>
<path d="M249.269 302.285H323.915C323.527 297.503 323.248 288.72 323.206 280.141C330.607 236.498 340.648 196.814 330.838 190.371C309.298 176.226 280.164 170.142 252.57 188.424C252.598 188.405 253.967 200.723 249.911 208.29C243.411 220.412 237.505 235.559 247.193 258.204C250.07 264.93 249.189 290.219 249.269 302.285Z" fill="#FFFCEE"/>
<path d="M302.583 161.452L281.283 160.531L279.654 179.929C285.441 183.251 295.535 183.436 302.533 180.924L302.583 161.452Z" fill="#F8A583"/>
<path d="M324.765 232.655C319.326 212.962 330.127 192.574 339.149 202.686C363.121 229.58 357.079 291.153 357.079 291.153L333.501 291.039C333.501 291.039 328.465 246.103 324.765 232.655Z" fill="#F8A583"/>
<path d="M357.026 291.689C356.109 298.211 350.749 302.903 344.035 301.942C337.326 300.984 332.631 294.916 333.557 288.395C334.477 281.868 340.658 277.355 347.376 278.317C354.089 279.279 357.954 285.164 357.026 291.689Z" fill="#F8A583"/>
<path d="M360.987 279.542C362.299 262.545 353.61 222.946 351.792 217.404C345.309 197.656 332.005 189.825 324.223 187.18C319.185 197.447 321.714 245.849 328.806 273.406C331.549 284.062 357.622 284.126 360.987 279.542Z" fill="#FFFCEE"/>
<path d="M277.438 184.018C279.242 189.256 284.809 190.321 289.687 190.113C295.071 189.884 302.153 188.408 303.889 182.411C305.082 178.275 303.986 173.603 303.834 169.384C303.732 166.582 303.734 163.771 303.873 160.966C303.955 159.245 304.09 157.524 304.281 155.811C304.437 154.428 304.619 153.045 304.83 151.667C304.974 150.74 305.127 149.816 305.298 148.897C305.414 148.253 306.124 146.507 305.373 146.089C304.679 145.703 303.318 146.957 302.76 147.321C294.555 152.631 285.961 157.338 277.067 161.383C276.717 161.54 276.352 161.715 276.153 162.044C275.964 162.355 275.968 162.743 275.978 163.113C276.067 166.058 276.159 169.007 276.245 171.952C276.276 173.097 276.282 174.247 276.302 175.392C276.339 178.308 276.473 181.216 277.436 184.016L277.438 184.018Z" fill="#F7A08D"/>
<path d="M276.302 175.397C284.056 172.982 291.472 169.513 298.201 164.975C300.072 163.714 301.999 162.383 303.87 160.969C303.952 159.248 304.087 157.527 304.278 155.814C304.434 154.431 304.616 153.048 304.827 151.67C304.971 150.743 305.124 149.819 305.295 148.9C305.411 148.256 306.121 146.51 305.371 146.092C304.676 145.706 302.4 144.943 301.842 145.306C293.637 150.616 285.958 157.341 277.064 161.386C276.714 161.543 276.349 161.718 276.15 162.046C275.961 162.358 275.965 162.746 275.976 163.115C276.064 166.06 276.156 169.009 276.242 171.955C276.273 173.1 276.279 174.249 276.3 175.395L276.302 175.397Z" fill="#D9897D"/>
<path d="M269.726 142.686C268.605 146.653 264.501 148.95 260.562 147.821C256.622 146.692 254.339 142.56 255.462 138.594C256.583 134.627 260.687 132.33 264.626 133.459C268.566 134.588 270.849 138.72 269.726 142.686Z" fill="#F7A08D"/>
<path d="M262.152 117.134C260.25 125.433 257.054 144.5 266.181 159.685C268.243 163.115 271.608 168.539 277.274 169.412C283.007 170.297 287.915 166.034 290.999 163.355C299.192 156.239 301.468 146.93 301.842 145.304C303.989 135.973 304.136 117.057 291.103 110.713C282.473 106.512 270.886 109.199 262.152 117.134Z" fill="#F7A08D"/>
<path d="M267.931 134.707C267.66 135.822 266.543 136.505 265.434 136.23C264.327 135.958 263.649 134.833 263.922 133.716C264.192 132.602 265.309 131.919 266.416 132.193C267.523 132.466 268.201 133.591 267.929 134.707H267.931Z" fill="#141414"/>
<path d="M285.376 134.77C285.106 135.884 283.989 136.567 282.88 136.293C281.773 136.02 281.094 134.896 281.367 133.779C281.637 132.665 282.754 131.981 283.863 132.256C284.97 132.529 285.649 133.653 285.376 134.77Z" fill="#141414"/>
<path d="M272.43 136.656L268.765 142.067L272.024 144.026" stroke="#895250" stroke-width="6.5244" stroke-miterlimit="10"/>
<path d="M270.219 153.117L279.74 153.809C279.74 153.809 279.598 156.776 274.744 156.454C269.891 156.134 270.221 153.117 270.221 153.117H270.219Z" fill="#C8C8C8"/>
<path d="M309.624 142.399C309.607 142.679 309.57 142.959 309.512 143.242C309.482 143.395 309.444 143.548 309.401 143.701C308.97 145.22 308.013 146.443 306.785 147.228C306.301 147.538 305.772 147.78 305.217 147.944C304.577 148.136 303.9 148.222 303.212 148.188C302.745 148.168 302.274 148.095 301.802 147.959C298.537 147.021 296.644 143.596 297.573 140.308C298.503 137.021 301.907 135.115 305.172 136.051C306.059 136.305 306.845 136.743 307.501 137.315C308.94 138.563 309.75 140.444 309.624 142.399Z" fill="#F7A08D"/>
<path d="M264.15 123.561C264.386 120.69 262.266 118.17 259.414 117.932C256.563 117.694 254.06 119.829 253.824 122.7C253.588 125.571 255.708 128.091 258.559 128.329C261.411 128.566 263.914 126.432 264.15 123.561Z" fill="#11153B"/>
<path d="M270.479 124.969C271.035 122.599 269.577 120.224 267.223 119.664C264.869 119.105 262.51 120.572 261.954 122.943C261.398 125.313 262.856 127.688 265.21 128.248C267.564 128.807 269.923 127.34 270.479 124.969Z" fill="#11153B"/>
<path d="M269.826 119.985C271.537 118.263 271.537 115.471 269.826 113.749C268.116 112.027 265.343 112.027 263.632 113.749C261.922 115.471 261.922 118.263 263.632 119.985C265.343 121.708 268.116 121.708 269.826 119.985Z" fill="#11153B"/>
<path d="M286.943 121.918C287.869 119.668 286.808 117.088 284.573 116.156C282.338 115.224 279.776 116.293 278.85 118.543C277.924 120.793 278.986 123.373 281.22 124.305C283.455 125.237 286.017 124.168 286.943 121.918Z" fill="#11153B"/>
<path d="M289.248 116.524C289.804 114.154 288.346 111.779 285.992 111.219C283.638 110.659 281.279 112.127 280.723 114.497C280.167 116.868 281.625 119.243 283.979 119.802C286.333 120.362 288.692 118.894 289.248 116.524Z" fill="#11153B"/>
<path d="M293.42 126.39C295.839 126.39 297.8 124.416 297.8 121.98C297.8 119.545 295.839 117.57 293.42 117.57C291.001 117.57 289.04 119.545 289.04 121.98C289.04 124.416 291.001 126.39 293.42 126.39Z" fill="#11153B"/>
<path d="M301.171 130.782C301.727 128.412 300.269 126.036 297.915 125.477C295.561 124.917 293.202 126.385 292.646 128.755C292.09 131.125 293.548 133.501 295.902 134.06C298.256 134.62 300.615 133.152 301.171 130.782Z" fill="#11153B"/>
<path d="M296.341 139.281C298.76 139.281 300.721 137.306 300.721 134.871C300.721 132.435 298.76 130.461 296.341 130.461C293.922 130.461 291.961 132.435 291.961 134.871C291.961 137.306 293.922 139.281 296.341 139.281Z" fill="#11153B"/>
<path d="M304.776 125.614C305.702 123.363 304.641 120.784 302.406 119.851C300.171 118.919 297.609 119.988 296.683 122.238C295.757 124.488 296.819 127.068 299.053 128C301.288 128.932 303.851 127.864 304.776 125.614Z" fill="#11153B"/>
<path d="M273.064 113.493C273.62 111.123 272.162 108.747 269.808 108.188C267.454 107.628 265.095 109.096 264.539 111.466C263.983 113.836 265.441 116.212 267.795 116.771C270.149 117.331 272.508 115.863 273.064 113.493Z" fill="#11153B"/>
<path d="M255.187 121.984C257.606 121.984 259.566 120.01 259.566 117.574C259.566 115.138 257.606 113.164 255.187 113.164C252.768 113.164 250.807 115.138 250.807 117.574C250.807 120.01 252.768 121.984 255.187 121.984Z" fill="#11153B"/>
<path d="M261.834 121.984C264.253 121.984 266.214 120.01 266.214 117.574C266.214 115.138 264.253 113.164 261.834 113.164C259.415 113.164 257.454 115.138 257.454 117.574C257.454 120.01 259.415 121.984 261.834 121.984Z" fill="#11153B"/>
<path d="M259.779 115.82C262.198 115.82 264.159 113.845 264.159 111.41C264.159 108.974 262.198 107 259.779 107C257.36 107 255.399 108.974 255.399 111.41C255.399 113.845 257.36 115.82 259.779 115.82Z" fill="#11153B"/>
<path d="M266.215 113.539C268.634 113.539 270.595 111.564 270.595 109.129C270.595 106.693 268.634 104.719 266.215 104.719C263.796 104.719 261.835 106.693 261.835 109.129C261.835 111.564 263.796 113.539 266.215 113.539Z" fill="#11153B"/>
<path d="M271.113 109.773C273.532 109.773 275.493 107.799 275.493 105.363C275.493 102.928 273.532 100.953 271.113 100.953C268.694 100.953 266.733 102.928 266.733 105.363C266.733 107.799 268.694 109.773 271.113 109.773Z" fill="#11153B"/>
<path d="M277.422 107.429C279.841 107.429 281.802 105.455 281.802 103.019C281.802 100.584 279.841 98.6094 277.422 98.6094C275.003 98.6094 273.042 100.584 273.042 103.019C273.042 105.455 275.003 107.429 277.422 107.429Z" fill="#11153B"/>
<path d="M286.943 101.996C287.869 99.7461 286.808 97.1664 284.573 96.2343C282.338 95.3022 279.776 96.3708 278.85 98.621C277.924 100.871 278.986 103.451 281.22 104.383C283.455 105.315 286.017 104.247 286.943 101.996Z" fill="#11153B"/>
<path d="M291.92 102.68C294.154 101.748 295.216 99.1679 294.29 96.9177C293.364 94.6675 290.802 93.599 288.567 94.5311C286.332 95.4631 285.271 98.0429 286.197 100.293C287.122 102.543 289.685 103.612 291.92 102.68Z" fill="#11153B"/>
<path d="M295.131 102.265C297.55 102.265 299.511 100.291 299.511 97.8553C299.511 95.4197 297.55 93.4453 295.131 93.4453C292.712 93.4453 290.751 95.4197 290.751 97.8553C290.751 100.291 292.712 102.265 295.131 102.265Z" fill="#11153B"/>
<path d="M301.73 105.317C302.656 103.066 301.595 100.487 299.36 99.5546C297.125 98.6225 294.563 99.6911 293.637 101.941C292.711 104.191 293.773 106.771 296.008 107.703C298.242 108.635 300.805 107.567 301.73 105.317Z" fill="#11153B"/>
<path d="M306.934 110.821C307.49 108.451 306.032 106.076 303.678 105.516C301.324 104.956 298.965 106.424 298.409 108.794C297.853 111.164 299.311 113.54 301.665 114.099C304.019 114.659 306.378 113.191 306.934 110.821Z" fill="#11153B"/>
<path d="M305.76 107.837C307.47 106.115 307.47 103.323 305.76 101.6C304.049 99.8783 301.276 99.8783 299.566 101.6C297.855 103.323 297.855 106.115 299.566 107.837C301.276 109.559 304.049 109.559 305.76 107.837Z" fill="#11153B"/>
<path d="M312.396 113.493C312.952 111.123 311.494 108.747 309.14 108.188C306.786 107.628 304.427 109.096 303.871 111.466C303.315 113.836 304.773 116.212 307.127 116.771C309.481 117.331 311.84 115.863 312.396 113.493Z" fill="#11153B"/>
<path d="M316.07 119.641C316.626 117.271 315.168 114.896 312.814 114.336C310.459 113.776 308.1 115.244 307.545 117.614C306.989 119.985 308.446 122.36 310.801 122.92C313.155 123.479 315.514 122.012 316.07 119.641Z" fill="#11153B"/>
<path d="M317.791 126.616C318.492 124.285 317.184 121.824 314.868 121.118C312.553 120.412 310.108 121.729 309.407 124.06C308.706 126.392 310.015 128.853 312.33 129.559C314.645 130.265 317.09 128.948 317.791 126.616Z" fill="#11153B"/>
<path d="M316.99 133.653C317.916 131.402 316.855 128.823 314.62 127.891C312.385 126.958 309.823 128.027 308.897 130.277C307.971 132.527 309.032 135.107 311.267 136.039C313.502 136.971 316.064 135.903 316.99 133.653Z" fill="#11153B"/>
<path d="M315.805 139.278C315.805 141.713 313.845 143.687 311.427 143.687C311.107 143.687 310.797 143.652 310.497 143.586C310.152 143.512 309.822 143.396 309.514 143.245C309.571 142.962 309.608 142.682 309.625 142.401C309.751 140.447 308.942 138.566 307.502 137.318C308.217 135.864 309.706 134.867 311.426 134.867C313.845 134.867 315.805 136.841 315.805 139.278Z" fill="#11153B"/>
<path d="M310.814 145.06C310.814 146.587 309.859 147.89 308.516 148.392C308.132 148.537 307.714 148.617 307.282 148.617C306.511 148.617 305.799 148.367 305.219 147.944C305.774 147.78 306.303 147.538 306.787 147.228C308.014 146.443 308.972 145.22 309.403 143.701C309.445 143.548 309.484 143.395 309.514 143.242C309.572 142.959 309.608 142.679 309.625 142.398C309.992 142.726 310.289 143.127 310.497 143.583C310.701 144.031 310.814 144.532 310.814 145.06Z" fill="#11153B"/>
<path d="M309.307 150.635C309.307 152.6 307.724 154.191 305.775 154.191C303.823 154.191 302.242 152.6 302.242 150.635C302.242 149.686 302.613 148.823 303.213 148.187C303.9 148.221 304.577 148.135 305.218 147.943C305.773 147.779 306.302 147.537 306.786 147.227C307.473 147.432 308.073 147.843 308.515 148.391C309.009 149.002 309.307 149.785 309.307 150.635Z" fill="#11153B"/>
<path d="M271.79 123.074C273.741 123.074 275.322 121.481 275.322 119.517C275.322 117.553 273.741 115.961 271.79 115.961C269.839 115.961 268.258 117.553 268.258 119.517C268.258 121.481 269.839 123.074 271.79 123.074Z" fill="#11153B"/>
<path d="M276.97 123.074C278.92 123.074 280.502 121.481 280.502 119.517C280.502 117.553 278.92 115.961 276.97 115.961C275.019 115.961 273.438 117.553 273.438 119.517C273.438 121.481 275.019 123.074 276.97 123.074Z" fill="#11153B"/>
<path d="M289.394 119.042C291.345 119.042 292.927 117.45 292.927 115.486C292.927 113.522 291.345 111.93 289.394 111.93C287.444 111.93 285.862 113.522 285.862 115.486C285.862 117.45 287.444 119.042 289.394 119.042Z" fill="#11153B"/>
<path d="M290.233 100.312L277.423 103.016L260.392 112.453L256.719 121.273L271.112 120.922L279.796 120.228L286.672 115.961L290.751 116.387L293.421 121.983L296.341 131.277V134.863L302.054 136.38C302.475 136.215 304.082 135.64 305.92 136.318C308.303 137.196 309.112 139.452 309.217 139.76C310.675 137.501 312.134 135.243 313.593 132.984V121.983L307.046 112.784L295.808 100.959L290.233 100.312Z" fill="#11153B"/>
<path d="M266.653 103.211C266.115 103.359 265.473 103.6 264.808 104.007C262.928 105.156 262.077 106.885 261.748 107.682C263.383 106.655 265.018 105.627 266.653 104.6L274.732 102.414L266.653 103.211Z" fill="#FFFCEE"/>
<path d="M265.182 104.695C265.182 104.695 282.31 103.743 292.618 112.361C302.925 120.979 300.992 145.441 300.992 145.441L306.146 145.064C306.146 145.064 309.566 121.786 297.679 111.527C285.793 101.268 272.555 102.508 272.555 102.508L265.182 104.695Z" fill="#FFFCEE"/>
<path d="M266.654 103.21C266.654 103.21 283.783 102.258 294.09 110.876C304.398 119.493 302.465 143.956 302.465 143.956L307.619 143.579C307.619 143.579 311.038 118.819 299.152 108.559C287.266 98.2999 274.027 101.023 274.027 101.023L266.654 103.21Z" fill="#FFFCEE"/>
<path d="M306.738 155.446C312.004 155.446 316.274 150.304 316.274 143.961C316.274 137.618 312.004 132.477 306.738 132.477C301.472 132.477 297.203 137.618 297.203 143.961C297.203 150.304 301.472 155.446 306.738 155.446Z" fill="#103644"/>
<path d="M307.345 153.917C311.997 153.917 315.768 149.374 315.768 143.771C315.768 138.168 311.997 133.625 307.345 133.625C302.692 133.625 298.921 138.168 298.921 143.771C298.921 149.374 302.692 153.917 307.345 153.917Z" fill="#FFFCEE"/>
<path d="M310.289 153.917C314.941 153.917 318.713 149.374 318.713 143.771C318.713 138.168 314.941 133.625 310.289 133.625C305.637 133.625 301.865 138.168 301.865 143.771C301.865 149.374 305.637 153.917 310.289 153.917Z" fill="#FFFCEE"/>
<path d="M311.432 149.424C314.024 149.424 316.125 146.893 316.125 143.77C316.125 140.648 314.024 138.117 311.432 138.117C308.84 138.117 306.738 140.648 306.738 143.77C306.738 146.893 308.84 149.424 311.432 149.424Z" fill="#FFFCEE"/>
<path d="M311.883 143.492C308.199 148.08 302.177 154.291 293.218 159.072C289.67 160.965 286.284 162.302 283.257 163.259" stroke="#092A33" stroke-width="5.9002" stroke-miterlimit="10" stroke-linecap="round"/>
<path d="M324.359 300.125H198.683C195.535 300.125 192.96 302.718 192.96 305.888C192.96 309.057 195.535 311.65 198.683 311.65H325.868C328.195 311.65 330.082 309.75 330.082 307.406V305.888C330.082 302.718 327.507 300.125 324.359 300.125Z" fill="#C8C8C8"/>
<path d="M260.538 311.648H138.072C134.746 311.648 131.873 309.306 131.181 306.031L109.369 202.812C108.436 198.399 111.779 194.242 116.26 194.242H242.561C245.983 194.242 248.909 196.717 249.5 200.11L267.477 303.33C268.233 307.671 264.915 311.648 260.538 311.648Z" fill="#C8C8C8"/>
<path d="M255.962 311.648H133.418C130.111 311.648 127.254 309.319 126.566 306.062L104.737 202.764C103.81 198.376 107.134 194.242 111.59 194.242H237.972C241.375 194.242 244.285 196.704 244.873 200.078L262.863 303.376C263.615 307.693 260.316 311.648 255.962 311.648Z" fill="#595959"/>
<path d="M326.128 96.7821C326.128 86.2969 334.57 77.7969 344.984 77.7969H393.578C403.992 77.7969 412.434 86.2969 412.434 96.7821V126.298C412.434 136.783 403.992 145.283 393.578 145.283H346.125L331.122 158.317V139.137C328.031 135.756 326.128 131.256 326.128 126.298V96.7821Z" fill="#FFFCEE"/>
<path d="M395.827 99.8685H343.588C341.755 99.8685 340.255 98.3583 340.255 96.5124C340.255 94.6665 341.755 93.1562 343.588 93.1562H395.827C397.66 93.1562 399.16 94.6665 399.16 96.5124C399.16 98.3583 397.66 99.8685 395.827 99.8685Z" fill="#C8C8C8"/>
<path d="M395.827 114.993H343.588C341.755 114.993 340.255 113.483 340.255 111.637C340.255 109.791 341.755 108.281 343.588 108.281H395.827C397.66 108.281 399.16 109.791 399.16 111.637C399.16 113.483 397.66 114.993 395.827 114.993Z" fill="#C8C8C8"/>
<path d="M395.827 130.04H343.588C341.755 130.04 340.255 128.53 340.255 126.684C340.255 124.838 341.755 123.328 343.588 123.328H395.827C397.66 123.328 399.16 124.838 399.16 126.684C399.16 128.53 397.66 130.04 395.827 130.04Z" fill="#C8C8C8"/>
<path d="M36.8389 10.638L113.838 0.0078125L55.2143 24.5929L36.8389 10.638Z" fill="#FFFCEE"/>
<path d="M113.836 0.0078125L80.883 44.0798L62.9121 30.4404L113.836 0.0078125Z" fill="#FFFCEE"/>
<path d="M55.8985 50.5606L55.2002 24.5925L113.84 0L62.8384 30.4797L55.8985 50.5606Z" fill="#FBF2A8"/>
<path d="M55.8994 50.5637L72.0123 37.3355L62.8992 30.4297L55.8994 50.5637Z" fill="#FFFCEE"/>
<path d="M289.769 290.296L277.422 286.961L268.697 283.21L261.86 266.353C264.682 263.548 269.016 262.958 272.482 264.906L285.263 272.091L290.948 273.667L289.769 290.296Z" fill="#F79F8C"/>
<path d="M264.964 275.313L262.958 268.625L261.43 268.891L244.762 274.1C243.858 274.384 243.456 275.439 243.941 276.254L244.438 277.089C245.171 278.322 247.02 279.202 248.421 278.907L264.964 275.313Z" fill="#F79F8C"/>
<path d="M264.693 274.672L251.976 280.72C251.401 280.993 251.181 281.698 251.498 282.251C252.221 283.511 253.857 284.238 255.249 283.828L266.752 280.271L264.693 274.672Z" fill="#F79F8C"/>
<path d="M262.315 269.984L262.558 270.95L262.565 270.95L262.315 269.984Z" fill="#F79F8C"/>
<path d="M245.742 267.472C244.51 267.76 243.946 269.194 244.651 270.247L244.717 270.347C245.658 271.752 247.327 272.484 248.995 272.222L262.56 270.951L262.316 269.985L262.566 270.951L262.56 270.951L266.122 285.091C266.122 285.091 267.898 284.333 269.755 283.392L266.844 263.938L245.742 267.472Z" fill="#F79F8C"/>
<path d="M266.6 280.094L259.574 283.665C258.654 284.157 258.593 285.536 259.335 286.27C260.048 286.976 261.114 287.185 262.04 286.802L270.411 283.338L270.286 282.257L266.6 280.094Z" fill="#F79F8C"/>
<path d="M340.968 280.418C334.534 283.304 331.688 290.956 334.583 297.518C337.466 304.06 345.012 307.028 351.439 304.141C357.848 301.254 360.698 293.597 357.813 287.049C354.921 280.489 347.376 277.531 340.968 280.418Z" fill="#F79F8C"/>
<path d="M284.264 288.233L286.644 272.641C318.224 274.883 325.142 277.261 348.254 279.51L345.062 305.174C334.987 304.765 304.911 298.451 284.265 288.231L284.264 288.233Z" fill="#F79F8C"/>
<path d="M52.2233 271.666C52.8744 272.319 53.4815 272.823 54.1137 273.097C54.6629 272.477 54.9052 271.573 55.0595 270.434C55.4037 267.898 55.6011 265.378 55.2672 262.828C54.8343 259.527 54.1435 256.259 53.184 253.073C50.6261 244.581 45.5149 236.069 43.9605 236.625C43.0931 236.935 43.5311 239.993 42.9537 240.046C42.5431 240.083 41.9151 238.572 41.2617 236.964C40.8492 236.563 40.4425 236.276 40.1173 236.381C38.4705 236.914 39.5876 247.281 42.82 255.996C44.0326 259.266 45.5206 262.432 47.2451 265.46C48.5772 267.799 50.3342 269.773 52.2233 271.666Z" fill="#FFFCEE"/>
<path d="M6.98192 241.678C7.08371 241.948 7.20184 242.233 7.44273 242.391C7.76959 242.605 8.16267 242.539 8.35368 242.505C9.5671 242.288 10.1738 242.179 10.845 241.976C12.998 241.327 15.8026 243.408 15.6777 243.81C15.6429 243.923 15.3899 243.863 14.4303 243.881C14.4303 243.881 11.6241 243.933 9.7189 244.95C9.5495 245.04 9.25746 245.211 9.1475 245.529C9.03126 245.868 9.19739 246.234 9.36226 246.553C10.5317 248.815 11.8336 251.008 13.258 253.116C13.4939 253.465 13.7601 253.832 14.157 253.965C14.7583 254.167 15.3152 253.793 15.686 253.639C17.6289 252.835 20.9027 255.239 20.6842 255.985C20.5122 256.572 18.3252 255.691 17.5438 256.713C16.3033 258.337 19.9464 263.008 21.0506 264.423C23.438 267.486 25.268 268.468 27.2173 269.518C29.4253 270.706 31.1562 267.03 32.4606 267.732C33.3821 268.227 32.8381 269.605 33.4875 271.095C35.0329 274.638 41.414 274.533 51.667 274.046C52.4396 274.009 53.0321 273.856 53.4892 273.595C53.1657 273.42 52.8582 273.202 52.5633 272.96C52.5633 272.96 52.1115 272.601 51.7121 272.177C50.7122 271.114 49.9286 265.4 49.9286 265.4C49.3591 261.246 45.4847 261.838 42.1414 256.245C40.978 254.298 40.7828 255.614 39.0783 244.336C38.7395 242.095 38.287 238.093 39.0649 236.476C39.2643 236.062 39.5434 235.795 39.8958 235.681C39.9361 235.668 39.9781 235.657 40.0199 235.648C40.2739 235.596 40.5182 235.628 40.7553 235.719C40.569 235.276 40.3847 234.854 40.2068 234.488C40.1504 234.373 40.0376 234.14 39.8524 233.856C39.6033 233.475 39.2628 233.068 38.6944 232.536C36.4322 230.42 33.7486 228.825 31.0878 227.247C29.6697 226.406 28.2523 225.566 26.8342 224.725C26.6639 224.624 26.4895 224.522 26.2958 224.484C25.7564 224.38 25.2346 224.829 25.0563 225.351C24.8191 226.046 25.25 226.435 25.0345 226.993C24.7843 227.641 23.7808 227.98 23.0904 227.966C20.9663 227.924 20.9005 224.533 17.8902 222.886C16.4611 222.103 15.056 221.96 12.2548 222.088C10.6912 222.159 9.13217 222.318 7.58285 222.539C6.55604 222.685 4.45078 222.638 3.6699 223.443C2.90008 224.236 3.44082 225.872 3.58068 226.813C4.3309 231.861 5.16054 236.879 6.98192 241.678Z" fill="#FFFCEE"/>
<path d="M11.2031 235.136C13.602 235.235 16.0027 235.256 18.4031 235.226C15.3399 232.878 12.2108 230.617 9.03446 228.426C8.57641 228.11 9.14454 227.456 9.59769 227.769C12.8919 230.041 16.1349 232.393 19.3074 234.837C19.3347 233.681 18.9159 232.486 18.6507 231.393C18.2858 229.888 17.9207 228.383 17.5558 226.878C17.4253 226.34 18.2395 226.053 18.3713 226.596C18.7651 228.219 19.1586 229.843 19.5521 231.466C19.8654 232.758 20.3158 234.122 20.1167 235.464C23.5856 238.165 26.9596 240.987 30.2046 243.957C29.832 240.715 29.2271 237.507 28.3682 234.359C28.2219 233.822 29.0365 233.537 29.1838 234.077C30.1401 237.583 30.806 241.163 31.1721 244.78C31.1743 244.802 31.1636 244.821 31.1623 244.842C31.4385 245.1 31.7199 245.351 31.9942 245.611C33.9793 247.491 35.9089 249.435 37.7749 251.439C37.8743 251.438 37.9735 251.437 38.0728 251.435C38.1154 248.433 38.158 245.431 38.2007 242.428C38.2085 241.874 39.0694 241.815 39.0614 242.375C39.0167 245.529 38.9719 248.683 38.9272 251.837C38.9242 252.052 38.7838 252.259 38.5597 252.287C40.828 254.769 42.9932 257.346 45.0334 260.019C45.0546 259.746 45.0533 259.41 45.0628 259.316C45.1256 258.685 45.1827 258.054 45.2339 257.423C45.3551 255.926 45.4411 254.427 45.4944 252.926C45.5942 250.122 45.5742 247.314 45.4459 244.51C45.4204 243.953 46.281 243.897 46.3066 244.457C46.5238 249.198 46.4192 253.95 45.9857 258.676C45.932 259.262 45.8836 259.85 45.8091 260.433C45.7876 260.601 45.759 260.76 45.6956 260.898C47.0675 262.734 48.3807 264.615 49.6257 266.543C49.635 266.524 49.6453 266.507 49.6542 266.486C49.7927 266.157 49.8404 265.753 49.9284 265.407C50.1112 264.687 50.2939 263.968 50.4767 263.248C50.8651 261.72 51.2535 260.191 51.6419 258.662C51.7789 258.123 52.6254 258.29 52.4873 258.834C52.0418 260.587 51.5963 262.341 51.1508 264.094C50.9338 264.948 50.7349 265.808 50.4997 266.657C50.4217 266.938 50.3237 267.193 50.1702 267.399C50.2658 267.55 50.3641 267.7 50.4591 267.853C53.3281 272.457 55.7987 277.312 57.7774 282.37C57.9809 282.89 57.1647 283.171 56.9618 282.652C54.9383 277.478 52.3879 272.541 49.4333 267.856C48.7925 268.022 48.0442 267.988 47.3942 268.011C46.6054 268.039 45.8158 268.041 45.0268 268.016C43.4109 267.964 41.8013 267.803 40.2057 267.542C39.6579 267.452 39.8278 266.601 40.376 266.691C43.1287 267.141 45.928 267.284 48.7103 267.07C48.7838 267.064 48.8513 267.056 48.9162 267.046C47.6559 265.092 46.3247 263.182 44.9321 261.32C44.7147 261.316 44.4923 261.268 44.2854 261.234C43.6504 261.127 43.0161 261.018 42.3822 260.905C39.9825 260.48 37.5908 260.009 35.2084 259.494C32.5111 258.912 29.8269 258.271 27.1558 257.577C26.6207 257.438 26.7867 256.586 27.3261 256.726C32.8465 258.159 38.4254 259.361 44.0475 260.314C44.0882 260.321 44.1408 260.333 44.1973 260.348C43.569 259.527 42.9311 258.714 42.2798 257.912C40.7184 255.99 39.0904 254.126 37.4099 252.311C33.8652 252.332 30.326 252.033 26.834 251.409C26.2876 251.311 26.457 250.46 27.0043 250.558C30.1719 251.123 33.3734 251.417 36.5861 251.443C34.5429 249.279 32.4288 247.183 30.2453 245.162C26.7143 244.583 23.2587 243.621 19.9313 242.296C19.4146 242.09 19.7969 241.312 20.3105 241.517C23.1353 242.641 26.057 243.489 29.0369 244.065C26.7218 241.969 24.3475 239.939 21.9181 237.982C21.1226 237.341 20.317 236.714 19.5111 236.087C16.7589 236.143 14.0061 236.116 11.2557 236.003C10.7073 235.98 10.6474 235.113 11.2031 235.136Z" fill="#092A18"/>
<path d="M61.1428 270.274C60.6339 271.045 60.1388 271.661 59.5734 272.056C58.9125 271.558 58.4962 270.72 58.1198 269.636C57.2808 267.22 56.5887 264.79 56.4114 262.223C56.1827 258.902 56.2131 255.561 56.5229 252.246C57.3496 243.412 60.6743 234.045 62.3075 234.278C63.2189 234.407 63.3947 237.493 63.971 237.429C64.3807 237.383 64.6971 235.776 65.0192 234.069C65.3442 233.593 65.6859 233.23 66.0254 233.268C67.7446 233.46 68.7009 243.843 67.2574 253.032C66.7159 256.479 65.8842 259.881 64.7933 263.194C63.9508 265.753 62.6195 268.04 61.1428 270.274Z" fill="#FFFCEE"/>
<path d="M99.5451 231.822C99.4988 232.107 99.4394 232.41 99.2346 232.613C98.9566 232.888 98.5585 232.903 98.3645 232.907C97.1323 232.938 96.5163 232.953 95.8185 232.889C93.5802 232.685 91.2435 235.286 91.4455 235.655C91.5019 235.759 91.7379 235.65 92.6819 235.475C92.6819 235.475 95.4421 234.962 97.5102 235.577C97.694 235.631 98.014 235.74 98.1849 236.03C98.3658 236.339 98.2754 236.73 98.177 237.076C97.4784 239.527 96.6366 241.937 95.6579 244.289C95.4958 244.679 95.3075 245.092 94.9449 245.302C94.3955 245.619 93.7758 245.365 93.382 245.289C91.3189 244.89 88.5862 247.902 88.9482 248.59C89.2327 249.13 91.2016 247.829 92.1694 248.673C93.7062 250.016 91.0605 255.324 90.2583 256.933C88.5247 260.412 86.9256 261.742 85.223 263.162C83.2945 264.769 80.8709 261.514 79.7315 262.463C78.9265 263.134 79.7323 264.375 79.3906 265.965C78.5769 269.747 72.303 270.924 62.1591 272.503C61.3947 272.622 60.7837 272.591 60.2842 272.427C60.8488 271.953 61.3171 271.328 61.745 270.68C63.0712 268.673 64.5522 266.242 65.4795 263.425C66.5943 260.04 67.4326 256.582 67.9718 253.148C68.577 249.297 68.8123 244.819 68.6175 240.864C68.506 238.599 68.1578 234.587 67.0756 233.158C66.7984 232.793 66.4719 232.587 66.1041 232.546C66.0621 232.542 66.0186 232.539 65.9759 232.539C65.7168 232.539 65.4837 232.619 65.2694 232.756C65.3643 232.284 65.4612 231.833 65.5633 231.439C65.5959 231.315 65.6604 231.064 65.7855 230.749C65.9542 230.325 66.2075 229.859 66.6593 229.223C68.4574 226.695 70.7716 224.594 73.0672 222.515C74.2905 221.406 75.5131 220.298 76.7366 219.19C76.8835 219.057 77.0341 218.922 77.2165 218.846C77.7247 218.636 78.3247 218.971 78.6027 219.447C78.9725 220.08 78.6273 220.548 78.9488 221.051C79.3222 221.637 80.3727 221.767 81.0466 221.615C83.1198 221.148 82.5133 217.811 85.1374 215.594C86.3832 214.54 87.7317 214.118 90.5021 213.682C92.0484 213.438 93.6077 213.281 95.1698 213.187C96.205 213.124 98.2587 212.656 99.183 213.287C100.094 213.911 99.8881 215.622 99.9373 216.572C100.201 221.67 100.38 226.753 99.5451 231.822Z" fill="#FFFCEE"/>
<path d="M94.1138 226.253C91.7824 226.831 89.434 227.333 87.0758 227.785C89.6131 224.87 92.2322 222.027 94.9113 219.243C95.2976 218.841 94.6115 218.314 94.2294 218.711C91.4508 221.599 88.7381 224.554 86.1126 227.585C85.8571 226.458 86.0313 225.203 86.0747 224.079C86.1347 222.531 86.1945 220.983 86.2544 219.434C86.2758 218.881 85.4211 218.763 85.3995 219.322C85.3349 220.992 85.2703 222.661 85.2058 224.331C85.1544 225.66 84.983 227.087 85.4434 228.362C82.5784 231.705 79.8302 235.147 77.238 238.709C76.9617 235.457 76.9198 232.192 77.1385 228.934C77.1758 228.379 76.321 228.263 76.2836 228.822C76.0399 232.449 76.0956 236.091 76.4525 239.708C76.4547 239.731 76.4689 239.747 76.4745 239.768C76.2548 240.076 76.0286 240.378 75.8113 240.688C74.238 242.929 72.7317 245.221 71.2995 247.558C71.2018 247.577 71.1044 247.596 71.0068 247.614C70.371 244.681 69.7353 241.747 69.0996 238.814C68.9822 238.272 68.1269 238.387 68.2456 238.935C68.9133 242.016 69.5811 245.098 70.249 248.18C70.2946 248.39 70.4732 248.565 70.6983 248.548C68.9666 251.435 67.3545 254.394 65.8841 257.423C65.809 257.159 65.7439 256.83 65.7159 256.739C65.5296 256.134 65.3489 255.527 65.1737 254.919C64.7589 253.476 64.3778 252.025 64.0289 250.565C63.3762 247.836 62.8402 245.081 62.4113 242.308C62.3262 241.757 61.4717 241.874 61.5573 242.428C62.2824 247.118 63.325 251.753 64.6848 256.298C64.8532 256.861 65.017 257.427 65.2053 257.984C65.2596 258.144 65.3192 258.294 65.4085 258.417C64.4275 260.492 63.5128 262.598 62.6741 264.737C62.661 264.72 62.6477 264.705 62.6348 264.686C62.4342 264.392 62.3071 264.005 62.1526 263.684C61.8311 263.016 61.5097 262.347 61.1884 261.679C60.5054 260.259 59.8222 258.838 59.1391 257.418C58.8984 256.918 58.1019 257.251 58.3447 257.756C59.1282 259.385 59.9116 261.014 60.6951 262.643C61.0766 263.436 61.4418 264.239 61.8403 265.024C61.9722 265.284 62.1186 265.514 62.3099 265.685C62.2462 265.852 62.1796 266.019 62.1166 266.187C60.216 271.275 58.7554 276.528 57.8171 281.882C57.7206 282.432 58.5759 282.543 58.672 281.994C59.6316 276.518 61.1539 271.168 63.1226 265.985C63.7832 266.019 64.51 265.836 65.1514 265.728C65.9299 265.597 66.7041 265.44 67.4723 265.257C69.0458 264.883 70.5911 264.402 72.1031 263.826C72.6222 263.628 72.2872 262.828 71.7678 263.026C69.1594 264.02 66.4444 264.721 63.6756 265.069C63.6025 265.079 63.5348 265.084 63.4693 265.087C64.3177 262.919 65.2443 260.781 66.2406 258.677C66.4528 258.629 66.6614 258.538 66.8573 258.463C67.4585 258.231 68.0586 257.997 68.6575 257.759C70.9247 256.861 73.1755 255.92 75.4083 254.938C77.9362 253.826 80.4398 252.659 82.9202 251.444C83.417 251.2 83.0857 250.398 82.5849 250.644C77.4587 253.156 72.2292 255.452 66.9085 257.513C66.8699 257.528 66.8209 257.551 66.7682 257.577C67.2216 256.646 67.6858 255.722 68.1655 254.805C69.3153 252.608 70.5419 250.455 71.8296 248.34C75.3075 247.649 78.7166 246.646 82.0151 245.334C82.5312 245.129 82.1968 244.329 81.6799 244.534C78.6878 245.724 75.6082 246.654 72.4651 247.323C74.0392 244.793 75.6965 242.316 77.4363 239.897C80.7819 238.621 83.978 236.986 86.9766 235.02C87.4422 234.715 86.9137 234.029 86.4508 234.332C83.9053 236.001 81.2095 237.417 78.4034 238.579C80.2575 236.061 82.1826 233.595 84.1762 231.191C84.829 230.403 85.4943 229.627 86.1599 228.851C88.868 228.353 91.5604 227.776 94.2334 227.113C94.7665 226.981 94.6537 226.119 94.1138 226.253Z" fill="#092A18"/>
<path d="M49.0263 281.914C49.0263 281.914 46.5946 282.593 41.0397 278.177C38.1813 275.904 32.2963 280.306 30.615 284.115C28.9336 287.924 25.5709 287.67 23.301 286.993C21.0311 286.316 19.3496 286.485 17.332 290.633C15.3144 294.78 11.8675 298.928 8.2525 297.066C4.63751 295.204 6.3189 291.225 5.73041 287.924C5.14193 284.623 4.21716 282.21 8.08436 279.946C11.9516 277.682 13.8703 276.92 13.8358 274.296C13.8012 271.672 15.1093 268.564 20.1905 268.117C26.9162 267.524 39.8095 256.759 50.7921 281.491L49.0263 281.914Z" fill="#353535"/>
<path d="M42.1874 276.58C38.871 276.328 39.2082 273.816 35.9174 272.989C31.9055 271.98 29.1098 275.131 27.6705 278.176C26.2313 281.221 23.7284 282.565 20.5997 282.505C17.4711 282.445 16.5325 285.274 16.0945 287.794C15.6566 290.314 15.5939 294.598 12.96 296.441C14.7057 295.153 16.2315 292.894 17.3318 290.632C19.3495 286.485 21.0309 286.315 23.3008 286.992C25.5707 287.67 28.9334 287.923 30.6148 284.114C32.2962 280.305 38.1811 275.904 41.0395 278.176C46.5945 282.592 49.0261 281.914 49.0261 281.914L50.7916 281.49C49.5721 279.281 45.5038 276.832 42.1874 276.58Z" fill="#FFFCEE"/>
<path d="M9.51654 294.047C9.50486 294.047 9.49317 294.045 9.48111 294.044C9.35896 294.024 9.27552 293.908 9.29475 293.785C10.9472 283.303 15.7015 277.021 23.4257 275.115C32.8206 272.796 44.4041 277.228 48.2478 280.362C48.344 280.44 48.3587 280.582 48.2809 280.679C48.203 280.776 48.0617 280.791 47.9655 280.712C44.8645 278.185 33.4302 273.11 23.5323 275.553C16.0002 277.412 11.3592 283.57 9.73771 293.856C9.72012 293.967 9.62474 294.047 9.51654 294.047Z" fill="#FFFCEE"/>
<path d="M61.7043 276.453C58.8584 279.288 58.8584 279.288 58.8584 279.288H76.5431L79.4452 275.727L61.7043 276.453Z" fill="#092A18"/>
<path d="M39.8076 284.359H75.6644" stroke="#00253E" stroke-width="4.5452" stroke-miterlimit="10" stroke-linecap="round" stroke-linejoin="round"/>
<path d="M61.7041 276.449C61.7041 276.449 70.0225 268.624 77.4818 269.225C83.5488 259.411 97.4617 270.527 98.0639 274.432C108.015 277.737 107.021 293.759 107.021 293.759C107.021 293.759 92.4999 289.179 89.715 284.359C82.4124 284.446 75.791 278.966 74.7964 276.449C71.2159 277.537 61.7041 276.449 61.7041 276.449Z" fill="#FFFCEE"/>
<path d="M67.9735 253.148C67.4342 256.583 66.596 260.04 65.4812 263.425C64.5539 266.242 63.0729 268.673 61.7467 270.681C61.3188 271.329 60.8505 271.953 60.2859 272.427C60.0195 272.34 59.7842 272.216 59.5742 272.058C60.1396 271.663 60.6347 271.047 61.1436 270.277C62.6203 268.043 63.9516 265.756 64.7942 263.196C65.8851 259.884 66.7169 256.482 67.2584 253.034C68.7017 243.846 67.7456 233.462 66.0263 233.271C65.6868 233.233 65.3451 233.596 65.0201 234.071C65.1027 233.631 65.1859 233.185 65.2714 232.756C65.4856 232.619 65.7187 232.539 65.9778 232.539C66.0206 232.539 66.0639 232.542 66.106 232.546C66.4737 232.587 66.8002 232.794 67.0775 233.159C68.1598 234.587 68.508 238.6 68.6194 240.864C68.814 244.819 68.5787 249.297 67.9735 253.148Z" fill="#092A18"/>
<path d="M67.2589 253.029C66.7174 256.477 65.8856 259.878 64.7947 263.191C63.9522 265.751 62.6209 268.038 61.1442 270.272C60.6352 271.042 60.1401 271.658 59.5748 272.053C58.7322 272.643 57.7339 272.741 56.3013 272.124C46.4079 267.863 40.3403 265.024 40.4908 260.97C40.5545 259.265 41.6932 258.216 41.0489 257.324C40.1376 256.061 36.8344 258.733 35.2918 256.596C33.9287 254.707 32.6488 252.938 31.7868 248.951C31.3887 247.107 30.0733 241.022 31.9808 240.062C33.1818 239.457 34.8452 241.295 35.2731 240.821C35.8189 240.217 33.8217 236.442 31.6233 236.307C31.2042 236.281 30.5085 236.377 30.0329 235.911C29.7187 235.602 29.6348 235.133 29.5703 234.696C29.1845 232.05 28.9522 229.382 28.8754 226.71C28.8646 226.333 28.8739 225.912 29.1381 225.646C29.3865 225.396 29.7397 225.369 29.9395 225.362C32.1987 225.28 34.8707 226.523 34.8707 226.523C35.7835 226.948 35.9949 227.12 36.0789 227.03C36.3793 226.708 34.6788 223.454 32.3523 223.075C31.6277 222.957 31.0058 222.78 29.7622 222.427C29.5668 222.371 29.1664 222.253 28.9543 221.899C28.7994 221.64 28.8174 221.317 28.8436 221.015C29.3054 215.648 30.8002 210.533 32.3848 205.426C32.6801 204.473 32.9132 202.681 33.9999 202.287C35.1023 201.888 37.067 202.901 38.1014 203.236C39.6643 203.741 41.207 204.308 42.7148 204.961C45.415 206.13 46.676 206.912 47.6692 208.307C49.7612 211.248 48.2823 214.478 50.2672 215.495C50.9128 215.826 52.0131 215.968 52.5438 215.472C53.0006 215.045 52.7704 214.479 53.3097 213.934C53.7151 213.522 54.4114 213.34 54.8726 213.686C55.0384 213.81 55.1564 213.988 55.2715 214.161C56.227 215.607 57.1834 217.052 58.1388 218.498C59.9327 221.211 61.7408 223.952 62.9135 226.99C63.2082 227.754 63.3449 228.294 63.4065 228.768C63.4521 229.122 63.4529 229.393 63.4535 229.528C63.4622 231.843 62.9005 235.793 63.5238 236.03C63.8908 236.17 64.4279 234.932 65.0208 234.066C65.3458 233.591 65.6875 233.228 66.027 233.266C67.746 233.457 68.7023 243.841 67.2589 253.029Z" fill="#DAD9ED"/>
<path d="M35.7988 216.785C38.0171 217.982 40.2724 219.107 42.5506 220.184C40.7271 216.558 38.8016 212.985 36.8001 209.456C36.5114 208.947 37.3444 208.591 37.6299 209.095C39.7058 212.755 41.6971 216.467 43.5806 220.233C44.1313 219.155 44.2786 217.835 44.5248 216.682C44.864 215.094 45.2031 213.506 45.5423 211.918C45.6637 211.35 46.5619 211.455 46.4395 212.028C46.0739 213.74 45.7081 215.453 45.3422 217.166C45.0511 218.528 44.8564 220.023 44.0593 221.197C46.1053 225.342 48.0071 229.558 49.7193 233.854C50.8401 230.624 51.7263 227.319 52.3459 223.953C52.4513 223.38 53.3493 223.486 53.2432 224.063C52.5534 227.811 51.556 231.495 50.2587 235.075C50.2505 235.098 50.2321 235.11 50.221 235.13C50.3647 235.5 50.5161 235.867 50.6568 236.238C51.6756 238.926 52.6133 241.648 53.4638 244.398C53.5581 244.442 53.6522 244.487 53.7466 244.531C55.1501 241.718 56.5537 238.906 57.9573 236.093C58.2165 235.574 59.0555 235.914 58.7934 236.439C57.319 239.394 55.8445 242.349 54.3701 245.304C54.2695 245.505 54.0429 245.636 53.8188 245.559C54.8316 248.945 55.704 252.373 56.4149 255.834C56.5593 255.586 56.7104 255.269 56.7623 255.184C57.1078 254.618 57.4483 254.049 57.7834 253.477C58.5772 252.121 59.3394 250.746 60.071 249.355C61.4389 246.755 62.6951 244.097 63.8472 241.393C64.0761 240.855 64.9135 241.199 64.6834 241.739C62.7352 246.312 60.4788 250.746 57.9235 255.005C57.6071 255.533 57.2945 256.065 56.9594 256.581C56.8629 256.73 56.7635 256.867 56.6413 256.968C57.1014 259.332 57.4862 261.711 57.7852 264.103C57.8029 264.089 57.8201 264.078 57.8382 264.062C58.1179 263.816 58.3468 263.456 58.5869 263.17C59.0861 262.576 59.5852 261.981 60.0842 261.386C61.1448 260.123 62.2056 258.859 63.2662 257.596C63.6401 257.151 64.3628 257.698 63.9858 258.147C62.7693 259.596 61.5527 261.045 60.336 262.495C59.7437 263.2 59.1652 263.921 58.5579 264.613C58.3567 264.842 58.1487 265.037 57.9102 265.161C57.9316 265.348 57.9562 265.535 57.9766 265.722C58.5923 271.387 58.7186 277.104 58.2882 282.787C58.2439 283.371 57.3467 283.26 57.391 282.677C57.8312 276.865 57.6674 271.032 57.0073 265.253C56.3276 265.114 55.6368 264.738 55.0133 264.46C54.2565 264.124 53.5107 263.761 52.7778 263.375C51.2766 262.582 49.8315 261.689 48.4448 260.708C47.9688 260.371 48.5155 259.647 48.9919 259.984C51.3842 261.676 53.9602 263.099 56.6823 264.178C56.7542 264.207 56.8216 264.23 56.8872 264.251C56.5858 261.826 56.197 259.412 55.7292 257.014C55.5259 256.91 55.3376 256.763 55.158 256.635C54.6072 256.242 54.0585 255.847 53.5116 255.449C51.4411 253.943 49.3983 252.398 47.3845 250.815C45.1045 249.024 42.8634 247.183 40.6585 245.299C40.2168 244.922 40.7604 244.194 41.2056 244.575C45.7627 248.469 50.4803 252.17 55.3514 255.658C55.3867 255.683 55.4306 255.719 55.4775 255.759C55.2573 254.695 55.0248 253.634 54.7745 252.578C54.1743 250.046 53.4851 247.538 52.7238 245.052C49.37 243.44 46.167 241.528 43.156 239.332C42.6849 238.988 43.2313 238.263 43.7032 238.607C46.4345 240.6 49.3218 242.35 52.3409 243.853C51.3959 240.872 50.353 237.921 49.2111 235.009C46.143 232.837 43.3195 230.339 40.7821 227.557C40.3882 227.125 41.1022 226.567 41.4938 226.996C43.6479 229.358 46.0197 231.502 48.5693 233.417C47.3369 230.374 46.0188 227.366 44.6154 224.402C44.1558 223.431 43.6808 222.468 43.2053 221.506C40.5836 220.291 37.9984 218.999 35.4551 217.626C34.9478 217.353 35.2849 216.507 35.7988 216.785Z" fill="#282929"/>
<path d="M77.5993 288.113H36.3078C36.0947 288.113 35.9219 287.939 35.9219 287.724V278.365C35.9219 278.151 36.0947 277.977 36.3078 277.977H77.5994C77.8126 277.977 77.9854 278.151 77.9854 278.365V287.724C77.9854 287.939 77.8126 288.113 77.5993 288.113Z" fill="#DAD9ED"/>
<path d="M65.6229 311.858H48.2837C47.0446 311.858 45.96 311.02 45.6393 309.815L39.8643 288.117H74.0423L68.2671 309.815C67.9464 311.02 66.8618 311.858 65.6229 311.858Z" fill="#212229"/>
<path d="M411.669 120.065C430.57 120.065 445.892 104.637 445.892 85.6066C445.892 66.5759 430.57 51.1484 411.669 51.1484C392.768 51.1484 377.445 66.5759 377.445 85.6066C377.445 104.637 392.768 120.065 411.669 120.065Z" fill="#383A4F"/>
<path d="M435.754 108.477C448.04 96.1062 448.04 76.05 435.754 63.6797C423.468 51.3094 403.549 51.3094 391.263 63.6797C378.976 76.05 378.976 96.1062 391.263 108.477C403.549 120.847 423.468 120.847 435.754 108.477Z" fill="#073028"/>
<path d="M411.67 117.29C429.045 117.29 443.131 103.108 443.131 85.614C443.131 68.1195 429.045 53.9375 411.67 53.9375C394.294 53.9375 380.209 68.1195 380.209 85.614C380.209 103.108 394.294 117.29 411.67 117.29Z" fill="#C8C8C8"/>
<path d="M411.973 54.8125V58.3675" stroke="#2B2B2B" stroke-width="1.7423" stroke-miterlimit="10"/>
<path d="M411.973 113.461V117.016" stroke="#2B2B2B" stroke-width="1.7423" stroke-miterlimit="10"/>
<path d="M442.863 85.9141H439.332" stroke="#2B2B2B" stroke-width="1.7423" stroke-miterlimit="10"/>
<path d="M384.615 85.9141H381.084" stroke="#2B2B2B" stroke-width="1.7423" stroke-miterlimit="10"/>
<path d="M433.816 63.9297L431.319 66.4434" stroke="#2B2B2B" stroke-width="1.7423" stroke-miterlimit="10"/>
<path d="M392.629 105.406L390.132 107.92" stroke="#2B2B2B" stroke-width="1.7423" stroke-miterlimit="10"/>
<path d="M433.816 107.92L431.319 105.406" stroke="#2B2B2B" stroke-width="1.7423" stroke-miterlimit="10"/>
<path d="M392.628 66.4435L390.132 63.9297" stroke="#2B2B2B" stroke-width="1.7423" stroke-miterlimit="10"/>
<path d="M399.85 57.3047L401.236 60.5744" stroke="#2B2B2B" stroke-width="1.7423" stroke-miterlimit="10"/>
<path d="M422.716 111.242L424.102 114.512" stroke="#2B2B2B" stroke-width="1.7423" stroke-miterlimit="10"/>
<path d="M440.388 73.7031L437.141 75.0987" stroke="#2B2B2B" stroke-width="1.7423" stroke-miterlimit="10"/>
<path d="M386.815 96.7266L383.567 98.1222" stroke="#2B2B2B" stroke-width="1.7423" stroke-miterlimit="10"/>
<path d="M423.492 57.0547L422.176 60.3536" stroke="#2B2B2B" stroke-width="1.7423" stroke-miterlimit="10"/>
<path d="M401.779 111.477L400.463 114.775" stroke="#2B2B2B" stroke-width="1.7423" stroke-miterlimit="10"/>
<path d="M440.639 97.5049L437.362 96.1797" stroke="#2B2B2B" stroke-width="1.7423" stroke-miterlimit="10"/>
<path d="M386.589 75.6454L383.312 74.3203" stroke="#2B2B2B" stroke-width="1.7423" stroke-miterlimit="10"/>
<path d="M411.52 85.7039C413.882 83.1577 416.641 80.2267 419.046 77.7115C420.916 75.7005 422.797 73.6997 424.874 71.9009C425.559 71.2932 426.256 70.6969 426.985 70.1328L427.043 70.1919C425.346 72.3599 423.487 74.3903 421.505 76.2941C420.348 77.3777 418.699 78.971 417.544 80.0908C416.119 81.4602 414.007 83.4677 412.578 84.8227L411.578 85.7628L411.52 85.7039Z" fill="#FFFCEE"/>
<path d="M411.44 85.2271C411.107 82.564 410.848 79.8385 410.664 77.1604C410.603 76.1532 410.402 75.1477 410.396 74.1354C410.397 73.1145 410.544 72.115 410.768 71.1105C410.933 70.4195 411.126 69.7478 411.44 69.0938H411.661C411.975 69.7475 412.168 70.4195 412.333 71.1105C412.557 72.115 412.704 73.1145 412.704 74.1354C412.699 75.1477 412.497 76.1532 412.436 77.1604C412.402 77.6625 412.327 78.6755 412.287 79.1771C412.112 81.1827 411.915 83.2298 411.661 85.2272L411.44 85.2271Z" fill="#FFFCEE"/>
<path d="M411.626 85.6562C414.96 88.372 418.316 91.2109 421.556 94.0438C422.772 95.118 424.084 96.0886 425.264 97.2058C426.444 98.3303 427.513 99.5538 428.532 100.835C429.213 101.709 429.864 102.595 430.42 103.565L430.267 103.727C429.763 103.475 429.288 103.189 428.821 102.897C427.439 102.021 426.13 101.028 424.884 99.9786C424.055 99.2805 423.276 98.53 422.542 97.7319C421.492 96.5677 420.313 95.2945 419.212 94.1679C418.211 93.1232 416.853 91.6792 415.868 90.6193C414.395 89.0276 412.919 87.4386 411.474 85.8181L411.626 85.6562Z" fill="#FFFCEE"/>
<path d="M414.997 86.5803C415.445 84.6694 414.27 82.7545 412.372 82.3033C410.474 81.8521 408.572 83.0354 408.124 84.9463C407.676 86.8572 408.851 88.772 410.749 89.2232C412.647 89.6745 414.549 88.4912 414.997 86.5803Z" fill="#383A4F"/>
<path d="M177.315 150.906C179.64 152.012 181.421 153.613 182.66 155.71C183.897 157.808 184.517 160.317 184.517 163.235C184.517 165.242 184.12 167.077 183.325 168.738C182.529 170.401 181.467 171.708 180.139 172.661C178.809 173.614 177.38 174.09 175.851 174.09C174.502 174.09 173.409 173.776 172.574 173.147C171.738 172.519 171.26 171.535 171.14 170.198C170.455 171.455 169.605 172.417 168.588 173.087C167.572 173.755 166.339 174.09 164.889 174.09C163.641 174.09 162.539 173.791 161.583 173.193C160.626 172.595 159.881 171.753 159.348 170.669C158.815 169.586 158.548 168.334 158.548 166.915C158.548 166.468 158.558 166.134 158.579 165.911C158.699 164.168 159.187 162.602 160.042 161.214C160.899 159.826 162.025 158.741 163.425 157.96C164.824 157.181 166.369 156.79 168.059 156.79C170.254 156.79 172.001 157.383 173.299 158.569C174.597 159.754 175.246 161.361 175.246 163.388C175.246 163.813 175.217 164.258 175.156 164.725L174.674 168.008C174.632 168.373 174.612 168.617 174.612 168.738C174.612 169.327 174.739 169.741 174.991 169.985C175.241 170.228 175.628 170.35 176.153 170.35C176.857 170.35 177.516 170.082 178.13 169.543C178.744 169.008 179.243 168.217 179.625 167.173C180.008 166.129 180.199 164.867 180.199 163.388C180.199 161.26 179.746 159.394 178.84 157.793C177.935 156.192 176.6 154.95 174.84 154.068C173.078 153.188 170.929 152.746 168.393 152.746C165.413 152.746 162.851 153.364 160.707 154.6C158.563 155.837 156.937 157.53 155.83 159.679C154.723 161.826 154.169 164.229 154.169 166.884C154.169 170.573 155.252 173.425 157.415 175.442C159.579 177.459 162.736 178.468 166.883 178.468L166.097 181.964C162.674 181.923 159.766 181.305 157.37 180.11C154.975 178.914 153.153 177.195 151.905 174.956C150.656 172.717 150.032 170.026 150.032 166.884C150.032 163.378 150.868 160.291 152.539 157.626C154.21 154.96 156.49 152.898 159.379 151.438C162.268 149.98 165.483 149.25 169.027 149.25C172.227 149.249 174.99 149.803 177.315 150.906ZM170.083 161.517C169.399 160.839 168.482 160.499 167.336 160.499C166.489 160.499 165.709 160.726 164.995 161.183C164.28 161.639 163.711 162.304 163.288 163.175C162.866 164.045 162.654 165.08 162.654 166.276C162.654 167.573 163.002 168.576 163.696 169.286C164.391 169.995 165.272 170.35 166.339 170.35C167.164 170.35 167.939 170.121 168.664 169.666C169.389 169.209 169.978 168.54 170.431 167.659C170.883 166.777 171.11 165.708 171.11 164.451C171.11 163.175 170.767 162.197 170.083 161.517Z" fill="#FFFCEE"/>
<path d="M116.449 172.141C116.214 172.256 115.979 172.369 115.743 172.48" stroke="#C8C8C8" stroke-width="4.1481" stroke-miterlimit="10"/>
<path d="M114.316 173.137C90.8421 183.515 65.7461 176.73 55.2569 160.232C44.6857 143.605 48.3253 116.13 63.4159 108.067C71.658 103.663 84.7795 104.268 91.5647 112.174C98.6904 120.478 95.8919 133.415 92.3806 140.516C82.5724 160.352 48.8368 171.798 25.4764 157.768C9.02509 147.887 2.42544 128.197 3.03893 112.585C4.01472 87.7557 23.5655 64.8513 52.1135 56.7266" stroke="#C8C8C8" stroke-width="4.1481" stroke-miterlimit="10" stroke-dasharray="12.48 12.48"/>
<path d="M52.8691 56.5154C53.1203 56.4466 53.3722 56.3789 53.6248 56.3125" stroke="#C8C8C8" stroke-width="4.1481" stroke-miterlimit="10"/>
<path d="M235.924 8.30498L204.03 46.6881L198.799 52.9972C196.04 56.3879 191.407 57.5697 187.378 55.9108L179.794 52.8708L133.561 34.4684C134.964 30.8521 138.021 28.1442 141.762 27.2023L225.334 5.88251C229.045 4.939 232.982 5.83949 235.924 8.30498Z" fill="#FFF9DD"/>
<path d="M133.56 34.4766L179.794 52.8789L151.507 100.689C148.779 99.0484 146.811 96.3829 146.036 93.2799L133.096 41.8583C132.469 39.4102 132.631 36.8251 133.56 34.4766Z" fill="#C8C8C8"/>
<path d="M239.882 14.6157L252.822 66.0374C253.608 69.1378 253.138 72.4255 251.515 75.1763L204.03 46.6957L235.924 8.3125C237.876 9.93621 239.262 12.1442 239.882 14.6157Z" fill="#C8C8C8"/>
<path d="M204.032 46.6875L198.801 52.9966C196.042 56.3873 191.409 57.5691 187.38 55.9102L179.796 52.8701L151.51 100.681C154.242 102.315 157.507 102.788 160.586 101.997L171.049 99.3273L233.187 83.4756L244.158 80.6768C247.24 79.8963 249.887 77.9146 251.517 75.1678L204.032 46.6875Z" fill="#E6E6E6"/>
</svg>
