<svg width="200" height="100" viewBox="0 0 200 100" fill="none" xmlns="http://www.w3.org/2000/svg">
<rect width="200" height="100" fill="white"/>
<g style="mix-blend-mode:luminosity">
<g style="mix-blend-mode:overlay">
<path d="M111.457 86.4278C111.457 86.4278 111.436 86.4922 111.436 86.5351C111.457 86.5351 111.5 86.578 111.522 86.5995C112.23 87.5225 113.926 88.1236 114.978 88.4885C116.115 88.8749 117.274 89.2184 118.412 89.6047C119.7 90.0341 121.009 90.2058 122.34 90.2917C123.5 89.7335 124.938 89.6047 126.226 89.3472C126.333 89.3257 126.462 89.3042 126.569 89.2613C126.741 89.2184 126.891 89.1754 127.063 89.1325C128.093 88.8105 129.145 88.51 130.197 88.2739C130.455 88.2095 130.734 88.1665 131.013 88.1236C130.991 87.9304 130.97 87.7372 130.948 87.5225C130.948 87.4367 130.948 87.3508 130.948 87.2649C130.948 87.2435 130.948 87.222 130.948 87.2006C130.948 87.2006 130.948 87.2006 130.948 87.1791C130.819 84.6461 130.819 82.0916 131.013 79.5372C131.077 78.6571 131.163 77.7985 131.249 76.9398C131.335 76.9613 131.399 74.0419 131.957 72.1529C132.816 72.389 133.653 72.6037 134.512 72.8398C137.796 73.7199 141.188 74.6215 144.601 75.2011C144.751 75.2011 144.88 75.2225 145.03 75.244C145.76 75.4801 146.919 75.1581 147.584 75.0723C148.486 74.9649 149.388 74.8361 150.268 74.6215C150.783 74.4927 151.298 74.4927 151.77 74.278C151.835 74.278 151.899 74.278 151.963 74.278C152.071 73.999 152.221 73.7414 152.328 73.4838C152.328 73.4838 152.328 73.4838 152.307 73.4838C153.015 71.4445 153.724 69.3838 154.411 67.323C154.711 66.4215 154.99 65.4984 155.269 64.5754C155.269 64.5539 155.269 64.511 155.269 64.4681C155.462 63.8455 155.613 63.223 155.784 62.6005C155.548 62.5361 155.334 62.4717 155.14 62.3429C152.264 61.2267 149.023 60.5398 146.275 59.767C143.141 58.9084 139.964 58.3502 136.723 58.1571C136.615 58.1571 136.508 58.1141 136.379 58.1141C137.56 55.667 138.891 53.3057 140.372 51.0518C140.565 51.0947 140.78 51.1162 140.973 51.1591C144.343 51.8246 147.627 52.8335 150.933 53.7136C151.169 53.7136 151.405 53.778 151.641 53.8639C151.641 53.8639 151.641 53.8639 151.641 53.8424C153.208 54.3576 156.493 54.6581 157.673 54.5293C157.781 54.5508 157.888 54.5722 157.995 54.6152C158.081 54.3361 158.167 54.057 158.253 53.778C158.253 53.7351 158.274 53.7136 158.317 53.6707C159.219 50.7727 160.206 47.8963 160.893 44.934C160.893 44.934 160.893 44.934 160.915 44.934C160.958 44.7623 160.958 44.5905 161.001 44.4188V44.3759C161.001 44.3759 161.001 44.3759 161.001 44.3544C160.85 44.2471 160.722 44.1398 160.55 44.0754C160.55 44.0754 160.55 44.0754 160.528 44.0539C156.901 42.401 153.402 40.6408 149.473 39.4816C148.057 39.0523 146.597 38.6659 145.137 38.3225C145.202 38.3654 145.266 38.3869 145.33 38.4298C144.365 38.0649 143.356 37.7214 142.347 37.4209C137.431 35.9827 132.322 34.7162 127.192 34.845C126.998 34.845 126.848 35.0811 126.891 35.2099C124.144 37.6356 122.405 41.0272 120.645 44.1612C118.391 48.111 116.673 52.4471 115.321 56.7832C112.337 66.3356 110.47 76.4246 111.457 86.4278Z" fill="#0F123D"/>
</g>
<path d="M151.536 73.9125C152.244 71.8732 152.952 69.8125 153.639 67.7517C153.94 66.8502 154.219 65.9271 154.498 65.0041C154.498 64.9826 154.498 64.9397 154.498 64.8968C154.691 64.2743 154.841 63.6517 155.013 63.0292C154.777 62.9863 154.562 62.9004 154.369 62.7716C151.493 61.6554 148.251 60.947 145.482 60.1957C142.348 59.3371 139.171 58.8004 135.93 58.5858C135.823 58.5858 135.715 58.5428 135.586 58.5428C136.767 56.0957 138.098 53.7344 139.579 51.4805C139.772 51.5235 139.987 51.5449 140.18 51.5878C143.55 52.2533 146.835 53.2622 150.14 54.1423C150.376 54.1423 150.613 54.2067 150.849 54.2926C152.416 54.7863 155.7 55.0868 156.881 54.958C156.988 54.9795 157.095 55.0009 157.203 55.0439C157.289 54.7648 157.396 54.4858 157.46 54.2067C157.46 54.1638 157.482 54.1423 157.525 54.0994C158.426 51.2015 159.414 48.325 160.101 45.3627C160.101 45.3627 160.101 45.3627 160.122 45.3627C160.165 45.191 160.165 45.0193 160.208 44.8475V44.8046C160.208 44.8046 160.208 44.8046 160.208 44.7831C160.058 44.6758 159.929 44.5685 159.757 44.5041C159.757 44.5041 159.757 44.5041 159.736 44.4826C156.108 42.8297 152.609 41.0695 148.681 39.9103C147.264 39.481 145.804 39.0946 144.345 38.7512C144.409 38.7941 144.473 38.8156 144.538 38.8585C143.572 38.4936 142.563 38.1501 141.554 37.8496C136.638 36.4114 131.529 35.1449 126.399 35.2737C126.206 35.2737 126.055 35.5098 126.098 35.6386C123.351 38.0643 121.612 41.4559 119.852 44.5899C117.598 48.5397 115.881 52.8758 114.528 57.2119C111.544 66.7643 109.677 76.8533 110.664 86.8565C110.664 86.878 110.643 86.9209 110.643 86.9638C110.664 86.9638 110.707 87.0067 110.729 87.0282C111.437 87.9513 113.133 88.5523 114.185 88.9172C115.322 89.3036 116.482 89.6471 117.619 90.0335C118.907 90.4628 120.217 90.6345 121.548 90.7204C122.707 90.1623 124.145 90.0335 125.433 89.7759C125.54 89.7544 125.648 89.7329 125.776 89.69C125.948 89.6471 126.098 89.6041 126.27 89.5612C127.301 89.2392 128.352 88.9387 129.404 88.7026C129.662 88.6382 129.941 88.5952 130.22 88.5523C130.198 88.3591 130.177 88.1659 130.156 87.9513C130.156 87.8654 130.156 87.7795 130.156 87.6937C130.156 87.6722 130.156 87.6507 130.156 87.6293C130.156 87.6293 130.156 87.6293 130.156 87.6078C130.027 85.0748 130.027 82.5204 130.22 79.9874C130.284 79.1073 130.37 78.2486 130.456 77.39C130.542 77.4114 130.628 74.4921 131.164 72.6031C132.023 72.8392 132.86 73.0539 133.719 73.29C137.003 74.1701 140.395 75.0717 143.808 75.6512C143.958 75.6512 144.087 75.6727 144.237 75.6942C144.967 75.9303 146.126 75.6083 146.792 75.5224C147.693 75.4151 148.595 75.2863 149.475 75.0717C149.99 74.9429 150.505 74.9429 150.978 74.7282C151.042 74.7282 151.106 74.7282 151.171 74.7282C151.278 74.4491 151.428 74.1915 151.536 73.934C151.536 73.934 151.536 73.934 151.514 73.934L151.536 73.9125Z" fill="#5F2D90"/>
<path d="M139 51.3956C137.497 53.3704 136.231 55.6244 135.157 57.9212C135.157 57.9427 135.157 57.9856 135.136 58.0071C135.072 58.1574 135.007 58.2862 134.943 58.4364C132.431 58.093 129.877 58.093 127.365 58.093C128.653 55.4097 130.134 52.7909 131.766 50.3223C134.148 50.7731 136.596 50.9662 139 51.3741V51.3956Z" fill="#5F2D90"/>
<path d="M159.78 45.1695C159.78 45.1695 159.865 45.2125 159.93 45.2554C159.2 48.003 158.213 50.6433 157.268 53.3051C157.29 53.3481 157.075 54.0135 156.86 54.4858C155.937 54.3355 154.971 54.2496 154.048 54.1423C153.469 54.0779 152.91 54.0135 152.331 53.9706C151.923 53.9276 151.429 53.9706 151 53.9062C151.064 53.7345 151.107 53.5627 151.15 53.391C151.15 53.3481 151.193 53.3051 151.215 53.2837C152.159 50.1926 153.211 47.1659 153.962 43.9889C153.984 43.8386 154.005 43.7098 154.048 43.5596C154.757 43.8386 155.529 44.0104 156.216 44.225C157.332 44.5685 158.62 45.0837 159.78 45.191V45.1695Z" fill="#5F2D90"/>
<path d="M129.382 80.5031C129.189 82.9717 129.103 85.5905 129.404 88.1021C126.999 88.5528 124.638 89.1754 122.277 89.8623C122.17 89.8623 122.084 89.8623 121.976 89.8623C121.912 88.7246 121.783 87.5869 121.719 86.4706C121.633 84.7104 121.654 82.9717 121.719 81.2115C121.633 78.2921 121.89 75.3942 122.685 72.5821C122.685 72.4748 122.706 72.3675 122.728 72.2816C122.835 71.6591 122.942 71.0581 123.093 70.4355C123.973 70.7146 124.939 70.8649 125.518 71.0366C127.193 71.5088 128.867 71.9596 130.541 72.4104C130.498 72.5821 130.477 72.7539 130.455 72.9256C130.391 73.1188 130.327 73.312 130.284 73.4837C130.155 74.1706 130.026 74.8575 129.94 75.5659C129.704 77.2188 129.532 78.8717 129.404 80.546L129.382 80.5031Z" fill="#5F2D90"/>
<path d="M135.049 72.8394C131.12 71.8519 127.106 70.9718 123.199 69.8127C123.006 69.7912 122.792 69.7483 122.598 69.6839C122.555 69.8771 122.491 70.0703 122.448 70.242C122.448 70.242 122.448 70.242 122.47 70.242C122.362 70.6713 122.276 71.0792 122.19 71.5085C121.847 73.0326 121.525 74.621 121.418 76.2095C121.16 77.7765 120.988 79.365 120.924 80.9964C120.838 82.8425 120.86 84.7101 120.924 86.5776C120.967 87.6509 120.988 88.7671 121.096 89.8619C120.774 89.8619 120.43 89.819 120.108 89.776C119.486 89.5828 118.863 89.3896 118.241 89.2179C117.06 88.8959 115.751 88.6383 114.463 88.2734C114.27 88.1876 114.055 88.1232 113.862 88.0373C113.54 87.9085 113.046 87.7797 112.552 87.5865C112.144 87.4148 111.758 87.2001 111.393 86.964C111.35 86.9211 111.307 86.8781 111.264 86.8352C111.243 86.7923 111.178 86.7708 111.135 86.7708C110.792 77.476 112.509 68.0739 115.021 59.1655C117.275 51.1158 120.881 42.0786 126.548 35.7676C131.915 36.2184 137.002 37.2273 142.175 38.7728C144.622 39.5027 147.005 40.3828 149.345 41.4131C150.869 42.0786 152.307 42.9372 153.81 43.6885C152.93 46.9943 151.728 50.1498 150.59 53.3482C144.601 51.6095 138.483 50.6435 132.301 50.021C132 50.021 131.678 50.021 131.378 50.021C131.271 50.1283 131.185 50.2357 131.077 50.3645C129.446 52.5111 128.072 54.9582 126.913 57.4697C126.913 57.5126 126.913 57.5341 126.892 57.577C126.741 57.899 126.612 58.221 126.462 58.543C126.999 58.5859 127.493 58.7147 128.008 58.865C128.008 58.865 128.008 58.865 128.029 58.865C131.292 59.3158 134.533 59.788 137.775 60.6467C141.081 61.5268 144.279 62.7289 147.499 63.8666C147.113 65.2833 146.705 66.7001 146.232 68.0954C145.503 70.3064 144.816 72.5388 144.15 74.7498C141.124 74.2561 138.118 73.6551 135.092 72.8823L135.049 72.8394Z" fill="#D84097"/>
<path style="mix-blend-mode:screen" d="M114.291 65.1765C117.704 60.9047 121.482 56.9335 125.818 53.5634C133.074 47.8963 141.338 44.333 150.096 42.2078C149.796 42.0576 149.517 41.9288 149.216 41.8C146.941 40.8125 144.622 39.9324 142.24 39.2241C137.217 37.7429 132.237 36.734 127.042 36.3047C121.525 42.4654 118.048 51.2236 115.837 59.0801C115.278 61.0979 114.763 63.1157 114.291 65.1765Z" fill="url(#paint0_linear_746_14820)"/>
<g style="mix-blend-mode:screen">
<path d="M120.817 48.8617C122.255 46.3931 123.737 43.9245 125.325 41.5632C126.42 39.9104 127.686 38.279 129.683 37.7423C130.541 37.5062 131.486 37.3988 132.43 37.3559C130.713 37.0769 128.996 36.8622 127.236 36.7334C122.449 42.0784 119.186 49.3983 116.975 56.3748C118.155 53.8203 119.422 51.3088 120.839 48.8832L120.817 48.8617Z" fill="#AED68E"/>
</g>
<path d="M148.165 62.8792C148.014 62.8363 147.886 62.7719 147.735 62.6861C144.601 61.4625 141.102 60.7112 138.097 59.874C136.337 59.3803 134.577 58.9939 132.795 58.7148C133.375 58.7578 133.933 58.8007 134.512 58.8651C134.791 58.8866 135.135 58.9724 135.435 58.9939C135.671 59.0368 135.907 59.1012 136.144 59.1871C139.149 59.6164 142.133 60.0457 145.116 60.8185C147.284 61.3981 149.388 62.1065 151.492 62.8578C150.376 62.7934 149.281 62.7719 148.143 62.8578L148.165 62.8792Z" fill="#5F2D90"/>
<path d="M147.778 74.8145C146.748 74.9863 145.524 75.3297 144.451 75.3297C144.537 75.158 144.623 74.9863 144.687 74.7931C144.687 74.7931 144.687 74.7931 144.666 74.7931C145.439 72.5606 146.211 70.3496 146.963 68.0957C147.285 67.1082 147.585 66.1208 147.886 65.1119C147.886 65.069 147.886 65.0475 147.886 64.9831C148.036 64.4894 148.165 63.9957 148.294 63.502C149.195 63.6093 150.183 63.502 151.106 63.5878C152.007 63.6737 152.93 63.6308 153.832 63.6737L154.089 63.7595C153.724 65.069 153.36 66.3784 152.93 67.6664C152.308 69.5983 151.707 71.5302 151.106 73.4622C151.084 73.6768 151.041 73.8915 150.998 74.1276C150.097 74.5569 148.766 74.6428 147.778 74.7931V74.8145Z" fill="#5F2D90"/>
<g style="mix-blend-mode:multiply">
<path d="M140.115 71.5077C140.115 71.5077 139.986 71.4004 139.921 71.3789C139.9 71.3789 139.857 71.3789 139.814 71.3789C139.75 71.3789 139.664 71.4433 139.642 71.5721C139.578 71.8082 139.857 71.8941 140.007 71.7868C140.115 71.7224 140.179 71.5936 140.115 71.4862V71.5077Z" fill="#7A287B"/>
</g>
<g style="mix-blend-mode:multiply">
<path d="M138.762 71.3788C138.762 71.3788 138.698 71.3145 138.634 71.3145C138.634 71.3145 138.591 71.3145 138.569 71.3145C138.526 71.3145 138.483 71.3574 138.462 71.4218C138.419 71.572 138.591 71.615 138.677 71.5506C138.741 71.5076 138.784 71.4218 138.741 71.3788H138.762Z" fill="#7A287B"/>
</g>
<g style="mix-blend-mode:multiply">
<path d="M137.775 64.5966C137.775 64.5966 137.646 64.4892 137.582 64.4678C137.56 64.4678 137.517 64.4678 137.474 64.4678C137.41 64.4678 137.345 64.5322 137.302 64.6395C137.238 64.8756 137.517 64.9615 137.667 64.8542C137.775 64.7898 137.839 64.661 137.775 64.5536V64.5966Z" fill="#7A287B"/>
</g>
<g style="mix-blend-mode:multiply">
<path d="M140.779 66.4637C140.693 66.3134 140.522 66.249 140.371 66.2275C140.307 66.2275 140.243 66.2275 140.157 66.2705C140.007 66.2919 139.878 66.3993 139.813 66.6354C139.685 67.1076 140.264 67.2794 140.543 67.0862C140.758 66.9359 140.887 66.6783 140.758 66.4851L140.779 66.4637Z" fill="#7A287B"/>
</g>
<g style="mix-blend-mode:multiply">
<path d="M140.954 69.5765C140.782 69.4048 140.332 69.6409 140.46 69.9414C140.632 70.3278 141.276 69.8985 140.954 69.5765Z" fill="#7A287B"/>
</g>
<g style="mix-blend-mode:multiply">
<path d="M137.561 68.46C137.561 68.46 137.432 68.46 137.368 68.4814C137.218 68.4814 137.046 68.5673 136.981 68.8034C136.917 69.0825 137.11 69.2542 137.261 69.3401C137.454 69.4474 137.754 69.4903 137.969 69.2542C138.398 68.8034 137.797 68.5029 137.561 68.46Z" fill="#7A287B"/>
</g>
<g style="mix-blend-mode:multiply">
<path d="M144.708 66.6574C144.58 66.593 144.322 66.5501 144.172 66.636C144.129 66.636 144.107 66.6789 144.064 66.7004C144.064 66.7004 144.043 66.7004 144.022 66.7004C143.85 66.7648 143.828 67.0224 143.893 67.1512C143.893 67.1512 143.893 67.1726 143.914 67.1941C143.914 67.237 143.957 67.2585 143.979 67.28C144.022 67.3229 144.065 67.3444 144.107 67.3658C144.322 67.4946 144.623 67.5375 144.837 67.3444C145.116 67.0868 144.859 66.7433 144.708 66.6789V66.6574Z" fill="#7A287B"/>
</g>
<g style="mix-blend-mode:multiply">
<path d="M142.628 67.6233C142.628 67.6233 142.37 67.5589 142.284 67.6233C142.263 67.6233 142.241 67.6448 142.22 67.6663C142.22 67.6663 142.22 67.6663 142.198 67.6663C142.091 67.7092 142.07 67.8809 142.113 67.9453C142.113 67.9453 142.113 67.9453 142.113 67.9668C142.113 67.9883 142.134 68.0097 142.155 68.0312C142.177 68.0527 142.198 68.0741 142.241 68.0741C142.392 68.16 142.585 68.1815 142.714 68.0741C142.907 67.9024 142.714 67.6877 142.628 67.6233Z" fill="#7A287B"/>
</g>
<g style="mix-blend-mode:multiply">
<path d="M142.689 74.0194C142.689 74.0194 142.56 73.9121 142.496 73.8906C142.474 73.8906 142.431 73.8906 142.388 73.8906C142.324 73.8906 142.238 73.955 142.217 74.0838C142.152 74.3199 142.431 74.4058 142.581 74.2985C142.689 74.2341 142.753 74.1053 142.689 73.998V74.0194Z" fill="#7A287B"/>
</g>
<g style="mix-blend-mode:multiply">
<path d="M141.315 73.8906C141.315 73.8906 141.251 73.8262 141.186 73.8262C141.186 73.8262 141.143 73.8262 141.122 73.8262C141.079 73.8262 141.036 73.8691 141.015 73.9335C140.972 74.0838 141.143 74.1267 141.229 74.0623C141.294 74.0194 141.337 73.9335 141.294 73.8906H141.315Z" fill="#7A287B"/>
</g>
<g style="mix-blend-mode:multiply">
<path d="M143.505 72.0873C143.333 71.9155 142.882 72.1517 143.011 72.4522C143.183 72.8386 143.827 72.4092 143.505 72.0873Z" fill="#7A287B"/>
</g>
<g style="mix-blend-mode:multiply">
<path d="M115.751 84.4315C115.751 84.4315 115.623 84.3242 115.558 84.3027C115.515 84.3027 115.494 84.3027 115.451 84.3027C115.387 84.3027 115.301 84.3671 115.279 84.4959C115.215 84.7321 115.494 84.8179 115.644 84.7106C115.752 84.6462 115.816 84.5174 115.751 84.4101V84.4315Z" fill="#71287B"/>
</g>
<g style="mix-blend-mode:multiply">
<path d="M114.378 84.2812C114.378 84.2812 114.313 84.2168 114.271 84.2168C114.271 84.2168 114.228 84.2168 114.206 84.2168C114.163 84.2168 114.12 84.2597 114.099 84.3241C114.056 84.4744 114.228 84.5173 114.313 84.4529C114.378 84.41 114.421 84.3241 114.378 84.2812Z" fill="#71287B"/>
</g>
<g style="mix-blend-mode:multiply">
<path d="M113.39 77.498C113.39 77.498 113.261 77.3906 113.197 77.3906C113.176 77.3906 113.133 77.3906 113.09 77.3906C113.025 77.3906 112.961 77.455 112.918 77.5623C112.854 77.7985 113.133 77.8843 113.283 77.777C113.39 77.7126 113.455 77.5838 113.39 77.4765V77.498Z" fill="#71287B"/>
</g>
<g style="mix-blend-mode:multiply">
<path d="M116.395 79.366C116.309 79.2157 116.137 79.1513 115.987 79.1299C115.923 79.1299 115.858 79.1299 115.772 79.1728C115.622 79.1943 115.493 79.3016 115.429 79.5377C115.3 80.01 115.88 80.1817 116.159 79.9885C116.373 79.8383 116.481 79.5807 116.373 79.3875L116.395 79.366Z" fill="#71287B"/>
</g>
<g style="mix-blend-mode:multiply">
<path d="M116.568 82.4779C116.396 82.3061 115.945 82.5423 116.074 82.8428C116.246 83.2292 116.89 82.7999 116.568 82.4779Z" fill="#71287B"/>
</g>
<g style="mix-blend-mode:multiply">
<path d="M113.177 81.3838C113.177 81.3838 113.048 81.3838 112.983 81.4053C112.833 81.4053 112.661 81.4911 112.597 81.7272C112.533 82.0063 112.726 82.178 112.876 82.2639C113.069 82.3712 113.37 82.4142 113.584 82.178C114.014 81.7272 113.413 81.4267 113.155 81.3838H113.177Z" fill="#71287B"/>
</g>
<g style="mix-blend-mode:multiply">
<path d="M120.347 79.5588C120.218 79.4944 119.961 79.4515 119.811 79.5373C119.768 79.5373 119.746 79.5803 119.725 79.6017C119.725 79.6017 119.703 79.6017 119.682 79.6017C119.51 79.6661 119.467 79.9237 119.553 80.0525C119.553 80.0525 119.553 80.074 119.574 80.0955C119.574 80.1384 119.617 80.1599 119.639 80.1813C119.682 80.2243 119.725 80.2457 119.768 80.2672C119.982 80.396 120.283 80.4389 120.497 80.2457C120.777 79.9881 120.519 79.6447 120.369 79.5803L120.347 79.5588Z" fill="#71287B"/>
</g>
<g style="mix-blend-mode:multiply">
<path d="M118.264 80.5247C118.264 80.5247 118.028 80.4603 117.899 80.5247C117.878 80.5247 117.857 80.5462 117.835 80.5676C117.835 80.5676 117.835 80.5676 117.814 80.5676C117.706 80.6106 117.685 80.7823 117.728 80.8467C117.728 80.8467 117.728 80.8467 117.728 80.8682C117.728 80.8896 117.749 80.9111 117.771 80.9326C117.792 80.954 117.814 80.9755 117.857 80.9755C118.007 81.0614 118.2 81.0828 118.329 80.9755C118.522 80.8038 118.329 80.5891 118.243 80.5247H118.264Z" fill="#71287B"/>
</g>
<g style="mix-blend-mode:multiply">
<path d="M118.308 86.9433C118.308 86.9433 118.179 86.8359 118.115 86.8145C118.072 86.8145 118.051 86.8145 118.008 86.8145C117.943 86.8145 117.857 86.8789 117.836 87.0076C117.772 87.2438 118.051 87.3296 118.201 87.2223C118.308 87.1579 118.373 87.0291 118.308 86.9218V86.9433Z" fill="#71287B"/>
</g>
<g style="mix-blend-mode:multiply">
<path d="M116.934 86.7929C116.934 86.7929 116.87 86.7285 116.806 86.7285C116.806 86.7285 116.763 86.7285 116.741 86.7285C116.698 86.7285 116.655 86.7715 116.634 86.8359C116.591 86.9861 116.763 87.029 116.849 86.9646C116.913 86.9217 116.956 86.8359 116.913 86.7929H116.934Z" fill="#71287B"/>
</g>
<g style="mix-blend-mode:multiply">
<path d="M119.146 84.9896C118.974 84.8179 118.523 85.054 118.652 85.3545C118.824 85.7409 119.468 85.3116 119.146 84.9896Z" fill="#71287B"/>
</g>
<g style="mix-blend-mode:overlay">
<path d="M90.2066 89.6483C90.2066 89.6483 90.2066 89.7127 90.2066 89.7556C90.2281 89.7556 90.2711 89.7556 90.2925 89.7771C91.2156 90.3782 92.9328 90.3782 93.9632 90.3567C95.1009 90.3567 96.2386 90.2708 97.3763 90.2494C98.6642 90.2064 99.8878 89.9703 101.09 89.6054C101.949 88.7467 103.172 88.1672 104.245 87.5232C104.331 87.4588 104.439 87.4158 104.524 87.3515C104.653 87.2656 104.804 87.1797 104.911 87.0939C105.748 86.4928 106.564 85.8703 107.422 85.3336C107.637 85.2049 107.873 85.0761 108.109 84.9473C108.023 84.7755 107.938 84.6038 107.852 84.4321C107.809 84.3462 107.787 84.2818 107.766 84.1959C107.766 84.1959 107.766 84.153 107.744 84.1315C107.744 84.1315 107.744 84.1316 107.744 84.1101C106.821 81.8776 106.006 79.6022 105.362 77.2839C105.147 76.4897 104.932 75.6954 104.739 74.8797C104.825 74.8797 103.966 72.2394 103.859 70.3718C104.696 70.3074 105.512 70.243 106.349 70.1572C109.548 69.8996 112.875 69.6205 116.116 69.041C116.245 68.998 116.374 68.9766 116.502 68.9551C117.232 68.9551 118.155 68.2682 118.735 67.9891C119.508 67.6027 120.259 67.1949 120.989 66.7226C121.397 66.4436 121.869 66.2718 122.234 65.9499C122.298 65.9499 122.363 65.9284 122.427 65.9069C122.427 65.6279 122.492 65.3488 122.492 65.0697C122.492 65.0697 122.492 65.0697 122.47 65.0697C122.47 63.009 122.427 60.9697 122.384 58.909C122.363 58.0074 122.32 57.0844 122.277 56.1828C122.277 56.1614 122.255 56.1184 122.255 56.0755C122.255 55.453 122.17 54.8519 122.127 54.2509C121.912 54.2723 121.676 54.2723 121.483 54.2509C118.542 54.1865 115.451 54.5943 112.746 54.7875C109.676 55.0237 106.65 55.5603 103.73 56.3975C103.73 56.3975 103.516 56.4404 103.408 56.4619C103.687 53.9074 104.117 51.3744 104.718 48.8844C104.911 48.8629 105.104 48.82 105.297 48.7985C108.517 48.3263 111.759 48.176 115 47.8969C115.215 47.8325 115.451 47.8111 115.687 47.7896C115.687 47.7896 115.687 47.7896 115.687 47.7681C117.254 47.7252 120.28 46.9524 121.289 46.4587C121.397 46.4587 121.504 46.4373 121.611 46.4373C121.611 46.1582 121.611 45.8791 121.568 45.6001C121.568 45.5571 121.568 45.5142 121.568 45.4927C121.44 42.6163 121.397 39.7399 121.075 36.8634C121.075 36.8634 121.075 36.8634 121.096 36.8634C121.075 36.6917 121.032 36.5414 121.01 36.3697C121.01 36.3697 120.989 36.3482 120.989 36.3268C120.989 36.3268 120.989 36.3268 120.989 36.3053C120.839 36.2624 120.667 36.198 120.495 36.198C120.495 36.198 120.495 36.198 120.474 36.198C116.696 35.876 113.025 35.4252 109.161 35.6399C107.766 35.7257 106.328 35.833 104.932 35.9833C104.997 35.9833 105.083 36.0048 105.147 36.0262C104.16 36.0262 103.172 36.0262 102.163 36.0906C97.3334 36.3697 92.3532 36.8849 87.8239 38.6451C87.6522 38.7095 87.5878 38.9671 87.6737 39.0744C85.9993 42.1011 85.5485 45.7074 84.9475 49.0561C84.2176 53.3064 84.0459 57.7284 84.2176 62.0216C84.604 71.4881 86.1496 81.1048 90.2281 89.7127L90.2066 89.6483Z" fill="#0F123D"/>
</g>
<path d="M121.954 65.6918C121.954 63.6311 121.911 61.5918 121.869 59.5311C121.869 58.6295 121.804 57.7065 121.761 56.8049C121.761 56.7834 121.74 56.7405 121.74 56.6976C121.74 56.075 121.654 55.474 121.611 54.8729C121.396 54.8944 121.16 54.8944 120.967 54.8729C118.026 54.7871 114.935 55.1949 112.23 55.4096C109.161 55.6457 106.134 56.1824 103.215 57.0195C103.215 57.0195 103 57.0625 102.893 57.0839C103.172 54.5295 103.601 51.9965 104.202 49.5064C104.395 49.485 104.588 49.442 104.782 49.4206C108.002 48.9483 111.243 48.7981 114.484 48.519C114.699 48.4546 114.935 48.4331 115.171 48.4117C116.738 48.3473 119.765 47.5745 120.774 47.0808C120.881 47.0808 120.988 47.0593 121.096 47.0593C121.096 46.7803 121.096 46.5012 121.053 46.2221C121.053 46.1792 121.053 46.1363 121.053 46.1148C120.924 43.2384 120.903 40.3619 120.559 37.4855H120.581C120.559 37.3138 120.516 37.1635 120.495 36.9918C120.495 36.9918 120.495 36.9703 120.473 36.9488C120.473 36.9488 120.473 36.9488 120.473 36.9274C120.302 36.8844 120.151 36.82 119.98 36.82C119.98 36.82 119.98 36.82 119.958 36.82C116.18 36.498 112.509 36.0473 108.645 36.2619C107.25 36.3478 105.812 36.4551 104.417 36.6054C104.481 36.6054 104.567 36.6268 104.631 36.6483C103.644 36.6483 102.656 36.6483 101.648 36.7127C96.8177 36.9918 91.8376 37.507 87.3083 39.2672C87.1366 39.3316 87.0722 39.5892 87.158 39.6965C85.4837 42.7232 85.0329 46.3295 84.4318 49.6782C83.702 53.9284 83.5303 58.3504 83.702 62.6436C84.0884 72.1101 85.634 81.7269 89.7125 90.3348C89.7125 90.3777 89.7125 90.3992 89.7125 90.4421C89.734 90.4421 89.7769 90.4421 89.7983 90.4636C90.7214 91.0646 92.4387 91.0646 93.469 91.0432C94.6067 91.0432 95.7444 90.9573 96.8821 90.9358C98.1701 90.8929 99.3936 90.6568 100.596 90.2918C101.454 89.4332 102.699 88.8536 103.751 88.2096C103.837 88.1453 103.944 88.1023 104.03 88.0379C104.159 87.9521 104.309 87.8662 104.417 87.7803C105.232 87.1793 106.07 86.5568 106.928 86.0201C107.143 85.8913 107.379 85.7625 107.615 85.6337C107.529 85.462 107.443 85.2903 107.358 85.1185C107.315 85.0327 107.293 84.9683 107.272 84.8824C107.272 84.8824 107.272 84.8395 107.25 84.818C107.25 84.818 107.25 84.818 107.25 84.7966C106.327 82.5641 105.511 80.2887 104.867 77.9704C104.653 77.1761 104.438 76.3819 104.245 75.5662C104.331 75.5662 103.472 72.9259 103.365 71.0583C104.202 70.9939 105.018 70.9295 105.855 70.8436C109.053 70.5861 112.381 70.307 115.622 69.7274C115.751 69.6845 115.88 69.663 116.008 69.6416C116.738 69.6416 117.661 68.9546 118.241 68.6756C119.014 68.2892 119.765 67.8813 120.495 67.4091C120.903 67.13 121.375 66.9583 121.74 66.6363C121.804 66.6363 121.869 66.6148 121.933 66.5934C121.933 66.3143 121.976 66.0353 121.997 65.7562C121.997 65.7562 121.997 65.7562 121.976 65.7562L121.954 65.6918Z" fill="#0F123D"/>
<path d="M103.6 49.5703C102.892 51.8242 102.484 54.2284 102.269 56.6111C102.269 56.6326 102.269 56.6755 102.269 56.697C102.269 56.8473 102.248 56.9975 102.227 57.1478C99.8868 57.6415 97.6114 58.4572 95.3574 59.2729C95.6579 56.4609 96.1517 53.6703 96.7957 50.9227C99.0711 50.5577 101.325 49.9567 103.6 49.5488V49.5703Z" fill="#0F123D"/>
<path d="M120.149 37.4004C120.149 37.4004 120.257 37.4004 120.3 37.4219C120.536 40.1051 120.493 42.7669 120.493 45.4501C120.536 45.4931 120.557 46.1371 120.493 46.6522C119.613 46.8025 118.733 47.0386 117.874 47.2533C117.337 47.3821 116.822 47.5109 116.286 47.6397C115.921 47.7255 115.491 47.9187 115.062 48.0046C115.062 47.8329 115.062 47.6611 115.041 47.4894C115.041 47.4465 115.041 47.4035 115.062 47.3606C114.933 44.291 114.89 41.2643 114.547 38.1946C114.525 38.0658 114.504 37.9156 114.482 37.7868C115.191 37.8297 115.964 37.7224 116.629 37.6794C117.724 37.6151 119.055 37.6794 120.128 37.4004H120.149Z" fill="#0F123D"/>
<path d="M104.285 78.6361C104.908 80.89 105.659 83.2513 106.732 85.3979C104.715 86.5785 102.804 87.8665 100.937 89.2403C100.851 89.2832 100.765 89.3047 100.658 89.3261C100.25 88.3387 99.756 87.3513 99.3482 86.3853C98.7257 84.8397 98.1676 83.2727 97.6524 81.7057C96.6435 79.1298 95.9351 76.4465 95.7634 73.6989C95.7634 73.5916 95.7204 73.5057 95.699 73.3984C95.5916 72.8188 95.5058 72.2392 95.4199 71.6382C96.2786 71.5952 97.2016 71.4235 97.7812 71.402C99.434 71.2947 101.065 71.1659 102.718 71.0371C102.74 71.1874 102.761 71.3591 102.804 71.5094C102.804 71.7026 102.804 71.8958 102.826 72.0675C102.933 72.7329 103.04 73.3769 103.169 74.0209C103.491 75.5664 103.856 77.112 104.264 78.6361H104.285Z" fill="#0F123D"/>
<path d="M106.909 69.9845C103.088 70.3495 99.224 70.8646 95.3816 71.0578C95.1884 71.1008 94.9952 71.1222 94.802 71.1222C94.802 71.3154 94.8234 71.4872 94.8449 71.6804C94.8449 71.6804 94.8449 71.6804 94.8664 71.6804C94.9093 72.0882 94.9522 72.4961 95.0166 72.9039C95.2098 74.3636 95.4245 75.8877 95.8323 77.3474C96.1114 78.8285 96.4548 80.3097 96.9056 81.7694C97.4208 83.4437 98.0219 85.1181 98.6873 86.728C99.0737 87.6725 99.4386 88.66 99.8894 89.6045C99.5889 89.6903 99.2884 89.7762 98.9664 89.8621C98.3439 89.8835 97.7428 89.9265 97.1203 89.9694C95.9611 90.0552 94.7161 90.2484 93.4496 90.3343C93.2349 90.3343 93.0418 90.3343 92.8271 90.3343C92.5051 90.3343 92.0114 90.3558 91.5177 90.3343C91.1098 90.2914 90.6805 90.2484 90.2941 90.1411C90.2512 90.1196 90.1868 90.0982 90.1438 90.0767C90.1009 90.0552 90.058 90.0552 90.0151 90.0767C86.7308 81.8982 85.2711 72.9468 84.6486 64.2102C84.0904 56.2892 84.4124 47.1018 87.4606 39.6531C92.3763 38.3437 97.2706 37.6138 102.358 37.3348C104.762 37.206 107.188 37.2274 109.592 37.3991C111.159 37.5065 112.726 37.807 114.293 38.0002C114.572 41.2201 114.486 44.4185 114.508 47.6599C108.626 48.0248 102.852 49.1196 97.1203 50.5363C96.8412 50.6437 96.5622 50.7295 96.2831 50.8154C96.2402 50.9442 96.1758 51.073 96.1328 51.2018C95.3601 53.6489 94.9093 56.2678 94.6732 58.8651C94.6732 58.8866 94.6732 58.9295 94.6732 58.9725C94.6517 59.3159 94.6303 59.6379 94.5873 59.9814C95.0596 59.8526 95.5747 59.8097 96.0685 59.7667C96.0685 59.7667 96.0685 59.7667 96.0899 59.7667C99.1381 59.1442 102.186 58.5217 105.342 58.2426C108.583 57.9636 111.803 58.028 115.044 58.0065C115.152 59.4018 115.238 60.7971 115.281 62.1924C115.345 64.4034 115.452 66.5929 115.538 68.8039C112.683 69.3191 109.807 69.7484 106.866 70.0275L106.909 69.9845Z" fill="#5985C4"/>
<path style="mix-blend-mode:screen" d="M85.9355 69.7712C87.6313 64.8769 89.735 60.1115 92.5041 55.7324C97.1622 48.3696 103.409 42.5523 110.536 37.8512C110.235 37.8083 109.935 37.7868 109.613 37.7654C107.273 37.5936 104.911 37.5722 102.572 37.701C97.613 37.98 92.869 38.6669 88.0821 39.9549C85.1198 47.2104 84.8193 56.1403 85.3559 63.8466C85.4847 65.8214 85.6779 67.7963 85.914 69.7712H85.9355Z" fill="url(#paint1_linear_746_14820)"/>
<g style="mix-blend-mode:screen">
<path d="M86.5581 53.1345C87.0518 50.4727 87.5884 47.7895 88.2539 45.1706C88.7047 43.346 89.3057 41.4785 90.9157 40.3622C91.6026 39.8685 92.4183 39.4821 93.2555 39.1387C91.6455 39.4392 90.0356 39.8041 88.4041 40.2334C85.8282 46.5444 85.2701 54.1219 85.5062 61.034C85.7424 58.3722 86.0644 55.7319 86.5581 53.113V53.1345Z" fill="#AED68E"/>
</g>
<path d="M115.448 56.9131C115.298 56.9131 115.148 56.9131 115.019 56.8702C111.842 56.7844 108.472 57.2351 105.531 57.4498C103.814 57.5786 102.118 57.7933 100.443 58.0938C100.959 57.965 101.495 57.8147 102.01 57.6859C102.268 57.6215 102.59 57.5786 102.869 57.5142C103.105 57.4927 103.32 57.4713 103.556 57.4498C106.368 56.8702 109.159 56.2906 112.078 56.0545C114.203 55.8828 116.307 55.8398 118.432 55.8398C117.423 56.1404 116.436 56.4624 115.448 56.9131Z" fill="#0F123D"/>
<path d="M118.907 67.6891C118.049 68.1613 117.061 68.8697 116.095 69.2132C116.095 69.02 116.138 68.8482 116.138 68.655C116.138 68.655 116.138 68.655 116.117 68.655C116.117 66.4226 116.074 64.1901 116.031 61.9577C116.01 60.9702 115.967 59.9828 115.902 58.9953C115.902 58.9739 115.881 58.9309 115.859 58.888C115.859 58.3943 115.795 57.922 115.752 57.4498C116.611 57.2566 117.448 56.8702 118.285 56.6341C119.122 56.4194 119.916 56.076 120.732 55.8398H120.99C121.076 57.1278 121.161 58.4158 121.204 59.6823C121.247 61.5927 121.355 63.5247 121.44 65.4351C121.483 65.6283 121.526 65.843 121.548 66.0577C120.882 66.7446 119.723 67.2168 118.886 67.6676L118.907 67.6891Z" fill="#0F123D"/>
<g style="mix-blend-mode:multiply">
<path d="M111.005 67.1723C111.005 67.1723 110.855 67.1079 110.791 67.1294C110.769 67.1294 110.726 67.1508 110.705 67.1723C110.64 67.2152 110.597 67.2796 110.619 67.387C110.619 67.6231 110.919 67.6016 111.027 67.4728C111.091 67.387 111.113 67.2367 111.027 67.1723H111.005Z" fill="#7A287B"/>
</g>
<g style="mix-blend-mode:multiply">
<path d="M109.738 67.4943C109.738 67.4943 109.652 67.4513 109.609 67.4728C109.609 67.4728 109.566 67.4728 109.566 67.4943C109.523 67.5157 109.502 67.5587 109.502 67.6231C109.502 67.7519 109.674 67.7519 109.738 67.666C109.781 67.6016 109.781 67.5372 109.738 67.4943Z" fill="#7A287B"/>
</g>
<g style="mix-blend-mode:multiply">
<path d="M106.712 61.7416C106.712 61.7416 106.562 61.6773 106.498 61.6987C106.476 61.6987 106.433 61.7202 106.412 61.7416C106.347 61.7846 106.304 61.849 106.326 61.9563C106.326 62.1924 106.626 62.171 106.712 62.0422C106.777 61.9563 106.798 61.806 106.712 61.7416Z" fill="#7A287B"/>
</g>
<g style="mix-blend-mode:multiply">
<path d="M109.975 62.4503C109.846 62.343 109.675 62.3215 109.546 62.3645C109.482 62.3645 109.417 62.4074 109.374 62.4718C109.245 62.5362 109.16 62.6865 109.181 62.9011C109.224 63.3734 109.782 63.3305 109.975 63.0514C110.126 62.8582 110.147 62.5791 109.975 62.4289V62.4503Z" fill="#7A287B"/>
</g>
<g style="mix-blend-mode:multiply">
<path d="M111.135 65.1765C110.941 65.0692 110.598 65.4341 110.813 65.6702C111.07 65.9708 111.521 65.3697 111.135 65.1765Z" fill="#7A287B"/>
</g>
<g style="mix-blend-mode:multiply">
<path d="M107.745 65.2842C107.745 65.2842 107.637 65.3272 107.573 65.3701C107.423 65.4345 107.315 65.5418 107.337 65.7779C107.358 66.0355 107.594 66.1429 107.766 66.1643C107.959 66.2073 108.26 66.1429 108.367 65.8638C108.603 65.3057 107.981 65.2413 107.745 65.2842Z" fill="#7A287B"/>
</g>
<g style="mix-blend-mode:multiply">
<path d="M113.559 61.3769C113.409 61.3769 113.194 61.3984 113.066 61.5272C113.044 61.5487 113.023 61.5916 113.001 61.6131C113.001 61.6131 113.001 61.6131 112.98 61.6345C112.851 61.7633 112.894 61.978 113.001 62.0639C113.001 62.0639 113.023 62.0638 113.044 62.0853C113.066 62.1068 113.087 62.1282 113.13 62.1497C113.173 62.1497 113.216 62.1712 113.259 62.1712C113.495 62.2356 113.774 62.1712 113.903 61.9136C114.075 61.5916 113.731 61.3769 113.559 61.3555V61.3769Z" fill="#7A287B"/>
</g>
<g style="mix-blend-mode:multiply">
<path d="M112.013 62.9003C112.013 62.9003 111.777 62.9003 111.691 62.9862C111.691 62.9862 111.67 63.0291 111.648 63.0506C111.563 63.1365 111.584 63.2867 111.648 63.3297C111.648 63.3297 111.648 63.3297 111.67 63.3297C111.67 63.3297 111.713 63.3511 111.734 63.3726C111.756 63.3726 111.799 63.3726 111.82 63.3726C111.97 63.4155 112.164 63.3726 112.249 63.2009C112.357 62.9862 112.142 62.8359 112.035 62.8359L112.013 62.9003Z" fill="#7A287B"/>
</g>
<g style="mix-blend-mode:multiply">
<path d="M114.099 68.6118C114.099 68.6118 113.949 68.5474 113.884 68.5688C113.863 68.5688 113.82 68.5903 113.798 68.6118C113.734 68.6547 113.691 68.7191 113.713 68.8264C113.713 69.0626 114.013 69.0411 114.12 68.9123C114.185 68.8264 114.206 68.6762 114.12 68.6118H114.099Z" fill="#7A287B"/>
</g>
<g style="mix-blend-mode:multiply">
<path d="M112.832 68.9122C112.832 68.9122 112.746 68.8693 112.703 68.8908C112.703 68.8908 112.66 68.8908 112.66 68.9122C112.617 68.9337 112.596 68.9766 112.596 69.041C112.596 69.1698 112.767 69.1698 112.832 69.084C112.875 69.0196 112.875 68.9552 112.832 68.9122Z" fill="#7A287B"/>
</g>
<g style="mix-blend-mode:multiply">
<path d="M114.228 66.615C114.035 66.5077 113.691 66.8726 113.906 67.1087C114.164 67.3878 114.614 66.8082 114.228 66.615Z" fill="#7A287B"/>
</g>
<g style="mix-blend-mode:multiply">
<path d="M93.3822 86.4711C93.3822 86.4711 93.2319 86.4067 93.1676 86.4282C93.1461 86.4282 93.1031 86.4497 93.0817 86.4711C93.0173 86.5141 92.9744 86.5785 92.9958 86.6858C92.9958 86.9219 93.2963 86.9005 93.4037 86.7717C93.4681 86.6858 93.4895 86.5355 93.4037 86.4711H93.3822Z" fill="#71287B"/>
</g>
<g style="mix-blend-mode:multiply">
<path d="M92.115 86.7931C92.115 86.7931 92.0292 86.7502 91.9862 86.7716C91.9862 86.7716 91.9433 86.7716 91.9433 86.7931C91.9004 86.8146 91.8789 86.8575 91.8789 86.9219C91.8789 87.0722 92.0506 87.0507 92.115 86.9648C92.158 86.9004 92.158 86.836 92.115 86.7931Z" fill="#71287B"/>
</g>
<g style="mix-blend-mode:multiply">
<path d="M89.0677 81.0405C89.0677 81.0405 88.9175 80.9761 88.8531 80.9975C88.8316 80.9975 88.7887 81.019 88.7672 81.0405C88.7028 81.0834 88.6599 81.1478 88.6814 81.2551C88.6814 81.4913 88.9819 81.4698 89.0677 81.341C89.1321 81.2551 89.1536 81.1049 89.0677 81.0405Z" fill="#71287B"/>
</g>
<g style="mix-blend-mode:multiply">
<path d="M92.3522 81.7492C92.2234 81.6418 92.0517 81.6204 91.9229 81.6633C91.8585 81.6633 91.7941 81.7062 91.7512 81.7706C91.6224 81.835 91.5365 81.9853 91.558 82.2C91.6009 82.6722 92.159 82.6293 92.3522 82.3502C92.5025 82.157 92.5239 81.878 92.3522 81.7277V81.7492Z" fill="#71287B"/>
</g>
<g style="mix-blend-mode:multiply">
<path d="M93.5133 84.4753C93.3201 84.368 92.9766 84.7329 93.1912 84.9691C93.4488 85.2696 93.8996 84.6685 93.5133 84.4753Z" fill="#71287B"/>
</g>
<g style="mix-blend-mode:multiply">
<path d="M90.1194 84.5828C90.1194 84.5828 90.012 84.6258 89.9691 84.6687C89.8188 84.7331 89.7115 84.8404 89.733 85.0765C89.7544 85.3341 89.9905 85.4415 90.1623 85.4629C90.3555 85.5059 90.656 85.4415 90.7633 85.1624C90.9994 84.6258 90.3769 84.5399 90.1408 84.5828H90.1194Z" fill="#71287B"/>
</g>
<g style="mix-blend-mode:multiply">
<path d="M95.9364 80.6758C95.7861 80.6758 95.5714 80.6972 95.4426 80.826C95.4212 80.8475 95.3997 80.8904 95.3783 80.9119C95.3783 80.9119 95.3782 80.9119 95.3568 80.9334C95.228 81.0622 95.2709 81.2768 95.3783 81.3627C95.3783 81.3627 95.3997 81.3627 95.4212 81.3841C95.4427 81.4056 95.4641 81.4271 95.507 81.4485C95.55 81.4485 95.5929 81.47 95.6358 81.47C95.872 81.5344 96.151 81.47 96.2798 81.2124C96.4515 80.8904 96.1081 80.6758 95.9364 80.6543V80.6758Z" fill="#71287B"/>
</g>
<g style="mix-blend-mode:multiply">
<path d="M94.3688 82.1992C94.3688 82.1992 94.1327 82.1992 94.0468 82.285C94.0468 82.285 94.0254 82.328 94.0039 82.3494C93.918 82.4353 93.9395 82.5856 94.0039 82.6285C94.0039 82.6285 94.0039 82.6285 94.0254 82.6285C94.0254 82.6285 94.0683 82.6499 94.0683 82.6714C94.0898 82.6714 94.1327 82.6714 94.1541 82.6714C94.3044 82.7143 94.4976 82.6714 94.5835 82.4997C94.6908 82.285 94.4761 82.1348 94.3688 82.1348V82.1992Z" fill="#71287B"/>
</g>
<g style="mix-blend-mode:multiply">
<path d="M96.474 87.9106C96.474 87.9106 96.3237 87.8462 96.2593 87.8677C96.2379 87.8677 96.1949 87.8891 96.1735 87.9106C96.1091 87.9535 96.0662 88.0179 96.0876 88.1253C96.0876 88.3614 96.3881 88.3399 96.474 88.2111C96.5384 88.1253 96.5599 87.975 96.474 87.9106Z" fill="#71287B"/>
</g>
<g style="mix-blend-mode:multiply">
<path d="M95.2071 88.2101C95.2071 88.2101 95.1212 88.1672 95.0783 88.1886C95.0783 88.1886 95.0353 88.1886 95.0353 88.2101C94.9924 88.2101 94.9709 88.2745 94.9709 88.3389C94.9709 88.4677 95.1427 88.4677 95.2071 88.3818C95.25 88.3174 95.25 88.253 95.2071 88.2101Z" fill="#71287B"/>
</g>
<g style="mix-blend-mode:multiply">
<path d="M96.5816 85.9138C96.3884 85.8065 96.0449 86.1714 96.2596 86.4075C96.5172 86.6866 96.968 86.107 96.5816 85.9138Z" fill="#71287B"/>
</g>
<g style="mix-blend-mode:overlay">
<path d="M42.1865 55.7101C42.4012 59.531 42.7661 63.352 43.4101 67.13C44.0755 70.9724 44.9986 74.7934 46.1577 78.507C47.231 81.963 48.4761 85.4834 50.2792 88.6389C50.3221 88.6604 50.3865 88.7033 50.4295 88.7677C50.4724 88.8107 50.5154 88.8751 50.5368 88.918C50.9232 89.0468 51.3311 89.1756 51.7175 89.3259C54.2934 89.9913 56.9552 90.4206 59.5955 90.7211C62.6222 91.0861 65.6274 91.2363 68.6541 90.7855C69.4484 90.6567 70.2641 90.485 71.0369 90.2704C72.6897 89.9698 74.2997 89.4546 75.9096 88.918C77.8416 88.2955 79.7306 87.6515 81.5766 86.7285C83.3154 85.8484 84.9897 84.7536 86.5138 83.53C86.7929 83.3154 87.0719 83.0793 87.3295 82.8431C87.3295 82.8861 87.3295 82.929 87.3295 82.9719C87.5227 82.7573 87.7159 82.5426 87.8876 82.3279C88.4672 81.7269 88.9609 81.0829 89.2615 80.3101C91.6442 75.9525 91.1934 70.586 88.1238 66.6578C84.9468 62.6007 79.6233 60.819 74.6217 61.3771C77.4767 59.1661 79.7091 55.9248 80.5463 52.5331C81.5981 48.2829 79.6662 43.453 76.6395 40.4692C73.8489 37.7216 69.7918 36.9273 65.9709 36.9917C64.4897 36.8415 62.9227 37.1635 61.4845 37.3781C59.7028 37.6572 57.9426 38.1509 56.1824 38.5802C53.2844 39.2886 50.3651 40.1258 47.6389 41.3708C45.707 42.0363 43.8823 42.9593 42.2724 44.1829C42.208 44.2258 42.208 44.3117 42.2295 44.376C41.6284 48.1541 42.0148 51.9321 42.2295 55.7101H42.1865Z" fill="#2B7138"/>
</g>
<path d="M87.3935 65.9703C84.2166 61.9132 78.893 60.1315 73.8914 60.6896C76.7464 58.4786 78.9789 55.2373 79.816 51.8456C80.8679 47.5954 78.9359 42.7655 75.9092 39.7817C73.1186 37.0341 69.0616 36.2398 65.2406 36.3042C63.7595 36.154 62.1925 36.476 60.7542 36.6906C58.9726 36.9697 57.2123 37.4634 55.4521 37.8927C52.5542 38.6011 49.6348 39.4383 46.9087 40.6833C44.9767 41.3488 43.1521 42.2718 41.5422 43.4954C41.4778 43.5383 41.4778 43.6242 41.4992 43.6885C40.8982 47.4666 41.2846 51.2446 41.4992 55.0226C41.7139 58.8435 42.0788 62.6645 42.7228 66.4425C43.3882 70.2849 44.3113 74.1059 45.4704 77.8195C46.5437 81.2755 47.7673 84.7959 49.5919 87.9514C49.6563 87.9729 49.6992 88.0158 49.7422 88.0802C49.7851 88.1232 49.828 88.1876 49.8495 88.2305C50.2359 88.3593 50.6437 88.4881 51.0301 88.6383C53.6061 89.3038 56.2678 89.7331 58.9082 90.0336C61.9349 90.3986 64.9401 90.5488 67.9668 90.098C68.761 89.9692 69.5768 89.7975 70.3495 89.5829C72.0024 89.2823 73.6124 88.7671 75.2223 88.2305C77.1543 87.608 79.0433 86.964 80.8893 86.041C82.6281 85.1609 84.3024 84.0661 85.8265 82.8425C86.1056 82.6279 86.3846 82.3918 86.6422 82.1556C86.6422 82.1986 86.6422 82.2415 86.6422 82.2844C86.8354 82.0698 87.0286 81.8551 87.2004 81.6404C87.7799 81.0394 88.2737 80.3954 88.5742 79.6226C90.9569 75.265 90.5061 69.8985 87.4365 65.9703H87.3935Z" fill="url(#paint2_linear_746_14820)"/>
<path d="M55.4305 38.4938C57.0405 38.1288 58.6719 37.6995 60.3033 37.4205C61.9777 37.1414 63.652 37.1199 65.3263 36.9053C68.5248 36.9053 71.7232 37.5063 74.385 39.3739C77.9484 41.8854 79.9232 46.7796 79.3866 51.0514C78.9573 54.4859 76.596 57.899 73.7196 60.153C73.6766 60.1959 73.6337 60.2174 73.6122 60.2603C73.5693 60.2603 73.5478 60.2603 73.5049 60.2603C72.0237 60.7969 70.4782 61.1833 68.9756 61.6985C68.2886 61.9346 67.3871 62.1493 66.5714 62.4498C68.9112 60.3032 70.6928 57.4697 71.4227 54.5074C72.4745 50.2571 70.5426 45.4273 67.5159 42.4435C64.3389 39.3095 59.4661 38.7084 55.2158 39.0304C54.0996 39.1163 52.9619 39.2451 51.8457 39.4168C53.0263 39.0733 54.2284 38.7514 55.4305 38.4723V38.4938Z" fill="#307539"/>
<path d="M67.0442 89.6686C64.2107 90.0336 61.3557 89.7545 58.5651 89.4325C55.796 89.1105 53.0698 88.7241 50.3866 87.9728C50.3866 87.9728 50.3866 87.9728 50.3866 87.9513C46.8232 81.533 44.8913 74.2346 43.4531 67.0864C42.6803 63.244 42.2939 59.3157 41.9934 55.4089C41.6929 51.545 41.1991 47.5953 41.7143 43.7314C45.5138 41.5633 49.5065 40.3183 53.8426 39.8031C58.007 39.3094 62.5149 39.5884 66.0568 42.057C69.6201 44.5686 71.595 49.4628 71.0583 53.7345C70.629 57.1691 68.2678 60.5822 65.3913 62.8361C65.0264 63.1796 64.6185 63.5016 64.2321 63.8236C64.8976 63.6948 65.5845 63.6518 66.2714 63.7162C66.6793 63.7162 67.0657 63.7162 67.4735 63.7162C68.8903 63.7377 70.2212 64.0167 71.5735 64.4461C73.9348 65.1759 76.0814 66.5068 77.8416 68.267C81.727 72.1524 82.0704 78.1414 79.3657 82.778C76.8971 87.0068 71.7238 89.1105 67.0871 89.7116L67.0442 89.6686Z" fill="url(#paint3_linear_746_14820)"/>
<path style="mix-blend-mode:screen" d="M50.1275 84.3239C50.4924 81.4474 51.1793 78.5924 52.1667 75.8663C54.0772 70.4998 56.8249 65.3694 60.0877 60.6898C63.0715 56.3966 66.5275 52.4039 70.3699 48.8406C69.5542 46.5222 68.0945 44.3971 66.1411 43.0233C62.6851 40.5976 58.2845 40.34 54.206 40.8123C49.9557 41.306 46.0489 42.5295 42.3353 44.6547C41.8416 48.4542 42.3353 52.2966 42.6144 56.0746C42.9149 59.8955 43.2798 63.7165 44.0526 67.4945C45.3405 73.8699 47.0149 80.3741 49.9557 86.2129C49.9987 85.5689 50.0845 84.9249 50.1704 84.3453L50.1275 84.3239Z" fill="url(#paint4_linear_746_14820)"/>
<path d="M87.692 80.0732C87.692 80.0732 87.6491 80.1376 87.6491 80.1591C85.6956 82.5203 82.9909 84.2376 80.3077 85.6544C78.6333 86.5345 76.8946 87.114 75.1344 87.7795C74.705 87.9298 74.2543 88.1015 73.8249 88.2517C76.2506 87.0067 78.3758 85.225 79.814 82.9282C82.6046 78.4632 82.2396 72.7748 79.0412 68.6533C75.8642 64.5962 70.5406 62.8145 65.5391 63.3726C65.582 63.3512 65.6249 63.3082 65.6464 63.2868C66.8914 62.8575 68.2438 62.5784 69.4888 62.1705C70.6909 61.7842 71.9789 61.4836 73.2024 61.0543C73.6747 61.0114 74.147 60.9899 74.6192 61.0543C75.0271 61.0543 75.4134 61.0543 75.8213 61.0543C77.2381 61.0758 78.569 61.3548 79.9213 61.7842C82.2826 62.514 84.4506 63.8449 86.1894 65.6051C90.0747 69.4905 90.4182 75.4795 87.7134 80.1161L87.692 80.0732Z" fill="#307539"/>
<path d="M75.6309 40.4043C74.021 40.8765 72.3896 41.3917 70.844 42.0142C69.9639 42.3792 69.0624 42.7656 68.1822 43.1519C70.844 46.1572 72.411 50.5792 71.4451 54.5289C70.7152 57.4912 68.9335 60.3247 66.5938 62.4713C67.4095 62.1708 68.311 61.9562 68.9979 61.72C70.4791 61.1834 72.0461 60.8185 73.5273 60.2818C73.5702 60.2818 73.5917 60.2818 73.6346 60.2818C73.6775 60.2389 73.7205 60.2174 73.7419 60.1745C76.5969 57.9206 78.9796 54.5075 79.409 51.0729C79.8812 47.3163 78.4215 43.109 75.6524 40.4258L75.6309 40.4043Z" fill="#1E341A"/>
<path d="M86.7077 67.5799C84.3035 68.1165 81.8993 68.6961 79.4951 69.2972C82.2642 73.3328 82.4574 78.6778 79.7956 82.9066C78.3574 85.2035 76.2323 86.9852 73.8066 88.2302C74.236 88.0799 74.6867 87.9082 75.1161 87.7579C76.8763 87.114 78.615 86.5129 80.2894 85.6328C82.9726 84.2375 85.6773 82.4988 87.6307 80.1375C87.6307 80.116 87.6737 80.0946 87.6737 80.0516C89.992 76.0804 90.0564 71.1433 87.6093 67.3652C87.2873 67.4296 86.9868 67.494 86.6862 67.5584L86.7077 67.5799Z" fill="#1E341A"/>
<path d="M55.6665 50.8582C53.9278 50.1069 52.0173 50.9441 50.4503 51.6739C50.3 51.7383 50.2571 51.9315 50.3 52.0388C50.1927 54.5933 50.4503 57.6629 51.4163 60.0671C51.4163 60.0886 51.4163 60.1101 51.4377 60.153C51.4807 60.2603 51.5665 60.2603 51.6524 60.1959C52.2749 60.3677 53.0477 60.1101 53.6487 59.9813C54.443 59.831 55.087 59.5734 55.7095 59.0368C57.0189 57.942 57.8775 56.3535 57.8775 54.6577C57.8775 53.0907 57.1262 51.4807 55.645 50.8367L55.6665 50.8582Z" fill="url(#paint5_linear_746_14820)"/>
<path d="M55.9017 58.1787C54.9357 59.2949 53.1969 59.7886 51.7372 59.853C51.6728 58.6509 51.1791 57.4274 51.0289 56.2253C50.8357 54.8729 50.6425 53.542 50.5352 52.1682C50.5566 52.1682 50.5781 52.1682 50.5996 52.1682C51.8875 51.5672 53.0467 51.0734 54.5063 51.1808C56.3095 51.2881 57.1896 52.8336 57.3828 54.4651C57.5545 55.9248 56.8461 57.1483 55.9231 58.2001L55.9017 58.1787Z" fill="#1E341A"/>
<path d="M63.6083 77.5832C63.3936 76.0162 62.3203 74.6424 60.9679 73.8696C59.358 72.9466 57.2328 73.1612 55.5156 73.5691C55.4297 73.5691 55.3868 73.6764 55.3868 73.7408C55.3868 73.7408 55.3868 73.7408 55.3868 73.7623C55.2794 74.4921 55.537 75.179 55.6873 75.8874C55.8805 77.068 56.2025 78.2272 56.5889 79.3649C56.7606 79.923 56.9752 80.4811 57.1899 81.0178C57.3402 81.3827 57.4905 81.7476 57.6193 82.1125C57.6193 82.134 57.6407 82.134 57.6622 82.1555C57.7266 82.2843 57.7695 82.4131 57.8339 82.5419C57.8983 82.6707 57.9627 82.7994 58.0486 82.9282C59.3151 83.1214 61.0538 82.456 61.9983 81.6403C63.2648 80.567 63.8229 79.2361 63.6083 77.5832Z" fill="url(#paint6_linear_746_14820)"/>
<path d="M63.1596 77.8843C63.0952 77.3691 62.945 76.8324 62.6874 76.3387C61.1847 73.5052 58.4371 73.634 55.668 73.8272C56.1188 75.1366 56.3334 76.5104 56.7198 77.8413C57.1491 79.344 57.7072 80.7822 58.3297 82.1989C59.9611 80.7607 61.6141 79.3654 63.1811 77.8843H63.1596Z" fill="#1E341A"/>
<path d="M58.5645 82.5414C59.187 82.4556 60.2603 82.1336 60.3461 82.0906C61.0116 81.8116 61.677 81.4681 62.1708 80.91C62.8147 80.1802 63.1367 79.343 63.1797 78.4629C61.677 79.8582 60.11 81.1891 58.5645 82.5414Z" fill="#307539"/>
<g style="mix-blend-mode:screen">
<path d="M42.8291 44.998C42.8291 44.998 41.8631 60.9687 47.4658 78.442C47.4658 78.442 41.9275 54.164 45.126 43.7959L42.8506 44.998H42.8291Z" fill="#AED68E"/>
</g>
<g style="mix-blend-mode:multiply">
<path d="M73.3786 80.0735C73.3786 80.0735 73.1425 79.9876 73.0137 80.0306C72.9708 80.0306 72.9279 80.0735 72.8849 80.1164C72.7991 80.1808 72.7346 80.2882 72.7561 80.4814C72.8205 80.8677 73.2713 80.7819 73.4216 80.5672C73.5289 80.3955 73.5289 80.1808 73.3786 80.0735Z" fill="#307F3E"/>
</g>
<g style="mix-blend-mode:multiply">
<path d="M71.3593 80.7179C71.3593 80.7179 71.209 80.675 71.1446 80.6964C71.1232 80.6964 71.0802 80.7179 71.0588 80.7608C70.9944 80.8038 70.9729 80.8682 70.9944 80.9755C71.0373 81.1902 71.2949 81.1472 71.3808 81.0184C71.4451 80.9326 71.4452 80.7823 71.3593 80.7179Z" fill="#307F3E"/>
</g>
<g style="mix-blend-mode:multiply">
<path d="M65.7358 71.7874C65.7358 71.7874 65.4997 71.7015 65.3924 71.7444C65.3494 71.7444 65.3065 71.7874 65.2636 71.8303C65.1777 71.8947 65.1133 72.002 65.1348 72.1952C65.1992 72.5602 65.6499 72.4958 65.7787 72.2811C65.8861 72.1094 65.8861 71.8947 65.7358 71.7874Z" fill="#307F3E"/>
</g>
<g style="mix-blend-mode:multiply">
<path d="M71.1431 72.5389C70.9284 72.3886 70.6494 72.3886 70.4347 72.453C70.3489 72.4745 70.2415 72.5603 70.1771 72.6462C69.9839 72.775 69.8766 73.0111 69.9196 73.376C70.0483 74.1273 70.9499 73.9771 71.229 73.5478C71.4436 73.2258 71.4436 72.775 71.1431 72.5603V72.5389Z" fill="#307F3E"/>
</g>
<g style="mix-blend-mode:multiply">
<path d="M73.3359 76.8329C72.9925 76.6826 72.4988 77.3266 72.8852 77.6701C73.3574 78.0994 74.0014 77.112 73.3359 76.8329Z" fill="#307F3E"/>
</g>
<g style="mix-blend-mode:multiply">
<path d="M67.8606 77.3905C67.8606 77.3905 67.6889 77.4763 67.603 77.5407C67.3884 77.648 67.2166 77.8627 67.281 78.2491C67.3454 78.6784 67.7533 78.8072 68.0109 78.8287C68.3543 78.8716 68.7837 78.7213 68.9554 78.2706C69.2774 77.3475 68.247 77.3046 67.8606 77.3905Z" fill="#307F3E"/>
</g>
<g style="mix-blend-mode:multiply">
<path d="M76.8121 70.3711C76.5759 70.3711 76.211 70.457 76.0393 70.6716C75.9963 70.7145 75.9749 70.7789 75.9534 70.8219C75.9534 70.8219 75.932 70.8433 75.9105 70.8648C75.7173 71.0795 75.8246 71.4229 76.0178 71.5732C76.0178 71.5732 76.0608 71.5947 76.0822 71.6161C76.1251 71.6591 76.1681 71.6805 76.2325 71.702C76.2969 71.7235 76.3827 71.7449 76.4471 71.7449C76.8335 71.8093 77.2843 71.6805 77.456 71.2512C77.6922 70.7145 77.1126 70.3926 76.855 70.3926L76.8121 70.3711Z" fill="#307F3E"/>
</g>
<g style="mix-blend-mode:multiply">
<path d="M74.472 73.0117C74.3218 73.0117 74.0857 73.0547 73.9569 73.2049C73.9354 73.2264 73.9139 73.2693 73.8924 73.3122C73.8924 73.3122 73.8925 73.3122 73.871 73.3337C73.7422 73.484 73.8066 73.6986 73.9354 73.7845C73.9354 73.7845 73.9569 73.7845 73.9783 73.806C73.9998 73.8274 74.0427 73.8489 74.0642 73.8704C74.1071 73.8704 74.1715 73.8918 74.2145 73.8918C74.472 73.9348 74.7511 73.8489 74.8799 73.5698C75.0302 73.2264 74.6652 73.0117 74.472 73.0117Z" fill="#307F3E"/>
</g>
<g style="mix-blend-mode:multiply">
<path d="M78.5544 82.0061C78.5544 82.0061 78.3183 81.9203 78.1895 81.9632C78.1465 81.9632 78.1036 82.0061 78.0607 82.0491C77.9748 82.1134 77.9104 82.2208 77.9319 82.414C77.9963 82.8004 78.4471 82.7145 78.5973 82.4998C78.7047 82.3281 78.7047 82.1135 78.5544 82.0061Z" fill="#307F3E"/>
</g>
<g style="mix-blend-mode:multiply">
<path d="M76.5351 82.671C76.5351 82.671 76.3848 82.6281 76.3204 82.6496C76.2989 82.6496 76.256 82.671 76.2346 82.714C76.1702 82.7569 76.1487 82.8213 76.1702 82.9286C76.2131 83.1433 76.4707 83.1003 76.5565 82.9716C76.6209 82.8857 76.6209 82.7354 76.5351 82.671Z" fill="#307F3E"/>
</g>
<g style="mix-blend-mode:multiply">
<path d="M78.5117 78.7645C78.1683 78.6143 77.6745 79.2583 78.0609 79.6017C78.5332 80.031 79.1772 79.0436 78.5117 78.7645Z" fill="#307F3E"/>
</g>
<g style="mix-blend-mode:multiply">
<path d="M53.7769 84.3882C53.7769 84.3882 53.5837 84.3023 53.4978 84.3238C53.4549 84.3238 53.412 84.3667 53.3905 84.3882C53.3046 84.4311 53.2617 84.517 53.2617 84.6672C53.2832 84.9677 53.6481 84.9463 53.7769 84.7745C53.8627 84.6457 53.8842 84.474 53.7769 84.3667V84.3882Z" fill="#307F3E"/>
</g>
<g style="mix-blend-mode:multiply">
<path d="M52.1031 84.7959C52.1031 84.7959 51.9958 84.7529 51.9314 84.7529C51.9099 84.7529 51.8884 84.7529 51.867 84.7959C51.824 84.8173 51.7811 84.8817 51.8026 84.9676C51.8026 85.1608 52.0387 85.1393 52.1031 85.032C52.1675 84.9676 52.1675 84.8603 52.1031 84.7959Z" fill="#307F3E"/>
</g>
<g style="mix-blend-mode:multiply">
<path d="M48.1109 77.2612C48.1109 77.2612 47.9177 77.1753 47.8318 77.1968C47.7889 77.1968 47.746 77.2397 47.7245 77.2612C47.6387 77.3041 47.5957 77.39 47.5957 77.5403C47.6172 77.8408 47.9821 77.8193 48.1109 77.6476C48.1968 77.5188 48.2182 77.3471 48.1109 77.2397V77.2612Z" fill="#307F3E"/>
</g>
<g style="mix-blend-mode:multiply">
<path d="M52.404 78.2056C52.2537 78.0768 52.0176 78.0553 51.8459 78.0982C51.76 78.0982 51.6956 78.1626 51.6097 78.227C51.4595 78.3129 51.3307 78.5061 51.3736 78.8066C51.4165 79.4291 52.1678 79.3647 52.4254 79.0213C52.6186 78.7637 52.6401 78.4202 52.4254 78.227L52.404 78.2056Z" fill="#307F3E"/>
</g>
<g style="mix-blend-mode:multiply">
<path d="M53.9287 81.7688C53.6711 81.64 53.2418 82.1123 53.4993 82.4128C53.8428 82.7992 54.4224 82.0264 53.9287 81.7688Z" fill="#307F3E"/>
</g>
<g style="mix-blend-mode:multiply">
<path d="M49.4843 81.8978C49.4843 81.8978 49.334 81.9408 49.2697 82.0051C49.0765 82.0695 48.9477 82.2413 48.9691 82.5418C48.9906 82.8853 49.3126 83.014 49.5272 83.057C49.7848 83.0999 50.1712 83.014 50.3215 82.6491C50.6435 81.9407 49.8063 81.8334 49.4843 81.8763V81.8978Z" fill="#307F3E"/>
</g>
<g style="mix-blend-mode:multiply">
<path d="M55.0652 78.7636C54.9364 78.7636 54.7432 78.7637 54.6359 78.8924C54.6144 78.9139 54.5929 78.9354 54.5715 78.9783C54.5715 78.9783 54.5715 78.9783 54.55 78.9783C54.4427 79.0856 54.4856 79.2788 54.5715 79.3432C54.5715 79.3432 54.5715 79.3432 54.5929 79.3647C54.5929 79.3862 54.6359 79.4076 54.6573 79.4076C54.7003 79.4076 54.7432 79.4291 54.7647 79.4291C54.9579 79.472 55.194 79.4291 55.3228 79.2144C55.473 78.9354 55.1725 78.7422 55.0437 78.7422L55.0652 78.7636Z" fill="#307F3E"/>
</g>
<g style="mix-blend-mode:multiply">
<path d="M57.816 86.2553C57.816 86.2553 57.6228 86.1695 57.5369 86.1909C57.494 86.1909 57.451 86.2339 57.4296 86.2553C57.3437 86.2983 57.3008 86.3841 57.3008 86.5344C57.3222 86.8349 57.6872 86.8135 57.816 86.6417C57.9018 86.5129 57.9233 86.3412 57.816 86.2339V86.2553Z" fill="#307F3E"/>
</g>
<g style="mix-blend-mode:multiply">
<path d="M56.1617 86.664C56.1617 86.664 56.0544 86.6211 55.99 86.6211C55.9685 86.6211 55.947 86.6211 55.9256 86.664C55.8826 86.6855 55.8397 86.7499 55.8612 86.8358C55.8612 87.0075 56.0973 87.0075 56.1617 86.9002C56.2261 86.8358 56.2261 86.7284 56.1617 86.664Z" fill="#307F3E"/>
</g>
<g style="mix-blend-mode:multiply">
<path d="M57.9658 83.637C57.7082 83.5082 57.2789 83.9805 57.5365 84.281C57.8799 84.6674 58.4595 83.8946 57.9658 83.637Z" fill="#307F3E"/>
</g>
<path style="mix-blend-mode:overlay" d="M77.6272 69.3197C74.0639 65.6061 69.835 64.3182 64.7476 64.8548C64.6188 64.8548 64.5759 65.1124 64.7262 65.1124C73.9995 64.5543 82.4141 72.4752 78.2283 81.8774C78.0136 82.3496 78.5932 82.4569 78.8293 82.092C81.2335 78.3355 80.7827 72.5826 77.6272 69.2983V69.3197Z" fill="url(#paint7_linear_746_14820)"/>
<path style="mix-blend-mode:overlay" d="M69.0198 46.6725C66.7229 42.4867 62.7302 41.1343 58.3297 40.5977C58.2224 40.5977 58.1795 40.7479 58.2868 40.7694C60.3046 41.1987 62.3009 41.4992 64.1041 42.5725C65.6067 43.4741 67.0234 45.084 68.0109 46.4793C70.136 49.4202 70.7156 53.7134 69.2344 57.0191C69.1056 57.2982 69.4491 57.3841 69.5993 57.1479C71.4669 53.928 70.7156 49.7851 68.9983 46.6725H69.0198Z" fill="url(#paint8_linear_746_14820)"/>
<path fill-rule="evenodd" clip-rule="evenodd" d="M40.1466 9.85864C39.7602 9.66545 39.3738 9.47225 39.0089 9.27906C38.9015 9.21466 38.7728 9.15026 38.6654 9.08586C39.3309 9.90157 39.9534 10.7602 40.5759 11.6189C40.533 11.3613 40.5115 11.1037 40.49 10.8246C40.49 10.5241 40.4042 10.245 40.2324 9.98744C40.211 9.9445 40.1681 9.90157 40.1466 9.85864ZM38.0858 9.75131C38.0858 9.49372 38.1288 9.25759 38.1502 9C38.6654 9.64398 39.1806 10.288 39.6743 10.9534C39.5885 10.9105 39.5241 10.8675 39.4382 10.8246C39.2021 10.7173 38.923 10.6314 38.6869 10.5241C38.4078 10.3738 38.2147 10.1806 38.1288 9.88011C38.1288 9.83717 38.1288 9.79424 38.1073 9.75131H38.0858ZM38.0215 10.9749C38.0215 10.7602 38.0429 10.5241 38.0644 10.3094C38.1717 10.4382 38.3005 10.567 38.4508 10.6529C38.6869 10.7817 38.966 10.8675 39.2235 10.9534C39.3523 10.9963 39.4812 11.0607 39.61 11.1251C39.7387 11.1895 39.8246 11.2754 39.9319 11.3613C39.9319 11.3613 39.9534 11.3613 39.9749 11.3613C40.2539 11.7476 40.533 12.134 40.812 12.5419C40.4901 12.3272 40.1251 12.1555 39.7602 12.0052C39.4167 11.855 39.0518 11.7262 38.7083 11.5759C38.4293 11.4471 38.1717 11.2754 38.0429 10.9963L38.0215 10.9749ZM38 13.1859C38 12.6063 38 12.0052 38 11.4257C38.3435 11.7476 38.9445 11.9408 39.3309 12.0911C39.9749 12.3272 40.6403 12.6063 41.177 13.0571C41.4346 13.422 41.6707 13.7869 41.9282 14.1518C41.9497 14.2162 41.9927 14.2806 42.0141 14.345C41.8424 14.2806 41.6707 14.2162 41.4989 14.1733C41.0267 14.023 40.5544 13.9157 40.0607 13.8513C39.6099 13.7869 39.1377 13.7655 38.7083 13.6581C38.4937 13.5937 38.279 13.4864 38.1073 13.3361C38.0644 13.2932 38.0429 13.2503 38 13.2073V13.1859ZM38.0858 15.0105C38.1717 15.1178 38.279 15.2251 38.3864 15.2895C38.7942 15.5471 39.3094 15.5901 39.7816 15.633C40.3398 15.6974 40.8979 15.7618 41.456 15.8262C41.9068 15.8691 42.3361 15.9335 42.7654 16.0838C43.0015 16.1696 43.2377 16.277 43.4309 16.4058C43.1304 15.9335 42.8084 15.4613 42.5078 15.0105C42.4649 14.9246 42.4005 14.8602 42.3361 14.7744C41.9712 14.5382 41.5633 14.4094 41.134 14.3021C40.6403 14.1733 40.1251 14.0874 39.6314 14.0445C39.1806 14.0016 38.7084 13.9801 38.3005 13.7655C38.2147 13.7225 38.1073 13.6581 38.0215 13.5937C38.0215 14.066 38.0644 14.5382 38.0858 15.0105ZM38.1717 16.0623C38.1502 15.8477 38.1288 15.633 38.1073 15.4398C38.4722 15.7189 38.9445 15.8262 39.3953 15.8906C39.9749 15.955 40.5544 16.0194 41.134 16.0838C42.0785 16.1911 43.0874 16.277 43.7958 16.9854C43.9031 17.1571 44.0105 17.3073 44.1178 17.4791C44.1607 17.6079 44.2466 17.7367 44.3325 17.844C44.3325 17.844 44.3539 17.8655 44.3754 17.8655C44.4827 18.0157 44.5901 18.1874 44.6974 18.3377C44.4183 18.166 44.1178 18.0157 43.7958 17.9084C42.7225 17.5435 41.5634 17.5435 40.4471 17.4576C39.889 17.4147 39.2665 17.3717 38.7513 17.1571C38.5796 17.0927 38.4078 16.9854 38.279 16.8351C38.2361 16.5775 38.2146 16.2984 38.1717 16.0408V16.0623ZM38.601 18.6597C38.9874 19.6257 40.3612 19.7759 41.3057 19.8189C41.9712 19.8403 42.6152 19.8189 43.2806 19.8189C43.8817 19.8189 44.4827 19.7759 45.0838 19.9262C45.4057 20.0121 45.7063 20.1194 45.9853 20.2911C45.6633 19.7974 45.3199 19.2822 44.9979 18.7885C44.1178 18.166 43.023 17.9513 41.9712 17.8655C41.3701 17.8225 40.7476 17.8011 40.1466 17.7367C39.5885 17.6937 38.9659 17.6293 38.4722 17.3717C38.4293 17.3717 38.3864 17.3288 38.3649 17.3073C38.4293 17.7581 38.5152 18.2089 38.6225 18.6597H38.601ZM39.0304 20.3126C38.9445 19.9906 38.8586 19.6901 38.7728 19.3681C38.923 19.4969 39.0733 19.6042 39.245 19.6901C39.7602 19.9477 40.3827 19.9906 40.9623 20.0335C41.6492 20.055 42.3361 20.0765 43.0015 20.0335C44.1178 19.9906 45.3414 19.9262 46.2429 20.6775C46.6508 21.2786 47.0372 21.9011 47.445 22.5021C47.1016 22.266 46.6937 22.1372 46.3073 22.0728C45.6848 21.9655 45.0408 21.9655 44.3969 21.9655C43.6026 21.9655 42.8298 21.944 42.0356 21.9225C41.3701 21.9225 40.6618 21.944 40.0393 21.7079C39.6958 21.5791 39.4167 21.343 39.245 21.0424C39.1591 20.8063 39.0948 20.5702 39.0304 20.334C39.0304 20.334 39.0304 20.3341 39.0304 20.3126ZM41.0911 23.9403C41.6921 24.155 42.3576 24.1335 42.9801 24.155C43.7099 24.155 44.4398 24.1979 45.1696 24.1979C45.8351 24.1979 46.522 24.1979 47.1874 24.2623C47.767 24.3053 48.3251 24.3911 48.8618 24.6487C48.5183 24.1335 48.1749 23.6183 47.8314 23.0817H47.7885C47.5738 22.867 47.3377 22.6953 47.0586 22.5665C46.7796 22.4377 46.4791 22.3733 46.1785 22.3304C45.4916 22.2231 44.7832 22.2445 44.0963 22.2445C43.3021 22.2445 42.5079 22.2231 41.7136 22.2016C41.0696 22.2016 40.3827 22.2016 39.7816 21.9011C39.6743 21.8581 39.5885 21.7937 39.4811 21.7293C39.8031 22.6094 40.1251 23.6183 41.0696 23.9618L41.0911 23.9403ZM42.7225 26.3445C41.778 26.2157 41.4775 25.7435 40.9838 24.9707C40.7691 24.6487 40.6188 24.3482 40.4686 23.9833C40.5974 24.0691 40.7476 24.1335 40.8979 24.1979C41.4989 24.4126 42.1429 24.4341 42.7654 24.4341C43.5167 24.4341 44.268 24.4555 45.0194 24.477C45.7277 24.477 46.4361 24.477 47.1445 24.5199C47.767 24.5414 48.3895 24.6272 48.9476 24.9278C48.9476 24.9278 48.9906 24.9278 49.012 24.9278C49.1838 25.1854 49.3555 25.4644 49.5272 25.722C49.5272 25.722 49.5272 25.722 49.5272 25.7435C49.6131 25.8723 49.699 26.0011 49.7848 26.1299C49.377 25.9581 48.9262 25.8723 48.4754 25.8293C47.1874 25.722 45.9424 26.0869 44.6974 26.2801C44.0319 26.3875 43.3665 26.4304 42.701 26.3445H42.7225ZM43.1948 27.8901C43.4094 28.0618 43.7314 28.1047 44.0105 28.1691C44.633 28.2765 45.2984 28.1691 45.9209 28.0618C47.123 27.8257 48.3251 27.3964 49.5702 27.5037C50.0424 27.5466 50.4932 27.654 50.9011 27.8472C50.6005 27.3749 50.3 26.9456 49.9995 26.4519V26.4089C47.5524 25.3356 44.955 27.0744 42.4649 26.6021C42.3146 26.5807 42.1429 26.5163 41.9927 26.4733C42.1429 26.6665 42.6581 27.4608 43.1948 27.9115V27.8901ZM44.912 29.5C44.4183 29.2424 43.7099 28.4267 43.6241 28.3623C43.6885 28.3623 43.7314 28.4053 43.7958 28.4053C44.4183 28.5555 45.0623 28.4911 45.6848 28.3623C46.3502 28.2335 46.9943 28.0618 47.6597 27.9115C48.7974 27.654 50.0424 27.5466 51.1157 28.1262C51.2445 28.3409 51.3948 28.5341 51.5236 28.7487C51.5236 28.7917 51.545 28.8131 51.5665 28.8561C51.5665 28.8561 51.588 28.8775 51.6094 28.8775C51.6094 28.8775 51.6094 28.899 51.6094 28.9205C51.3089 28.7702 50.9869 28.7058 50.6435 28.6843C49.4414 28.6843 48.3895 29.3283 47.2518 29.6288C46.4791 29.8435 45.5775 29.8864 44.8906 29.5H44.912ZM48.4969 30.7451C49.5058 30.466 50.4288 29.7147 51.5236 29.8006C51.8026 29.822 52.1031 29.9079 52.3607 30.0581C52.189 29.8006 52.0387 29.5644 51.867 29.3068C50.9869 28.6199 49.7848 28.9848 48.8618 29.3498C47.7885 29.7576 46.6722 30.2513 45.4916 29.9723C46.4361 30.6377 47.2518 31.0885 48.4969 30.7451ZM48.7974 31.7754C48.2393 31.6466 47.7026 31.3032 47.3592 31.1314C47.7026 31.1529 48.0246 31.1314 48.3681 31.0456C48.9047 30.9383 49.3984 30.6807 49.8922 30.466C50.3859 30.2513 50.8796 30.0367 51.4377 30.0367C51.9314 30.0367 52.3607 30.2084 52.7042 30.5304C52.8759 30.788 53.0262 31.0241 53.1979 31.2817C53.0691 31.2173 52.9188 31.1744 52.7686 31.1744C52.2319 31.1314 51.7382 31.3461 51.2445 31.5178C50.7079 31.711 50.1498 31.8613 49.5702 31.8828C49.3126 31.8828 49.055 31.8613 48.8189 31.7754H48.7974ZM51.4592 32.9346C51.8885 32.9561 52.2964 32.8702 52.7257 32.8058C53.2194 32.7199 53.7775 32.6985 54.2283 32.8917C54.078 32.6555 53.9278 32.4194 53.7775 32.1833C53.4126 31.6037 53.1335 31.3032 52.3607 31.432C51.8241 31.5178 51.3304 31.7754 50.8152 31.9257C50.3859 32.0545 49.9136 32.1404 49.4628 32.1189C49.9995 32.5267 50.8796 32.9346 51.5021 32.9346H51.4592ZM53.477 34.0508C52.9189 33.7288 52.3178 33.4498 51.7168 33.1707C51.91 33.1707 52.1032 33.1493 52.3178 33.1063C52.9833 32.999 53.8634 32.7843 54.4429 33.2566C54.7005 33.6859 54.9796 34.0938 55.2157 34.5231C55.044 34.3299 54.8293 34.1796 54.5717 34.1582C54.2712 34.1152 53.9922 34.1582 53.6916 34.1152C53.6272 34.1152 53.5628 34.0723 53.4984 34.0508H53.477ZM54.3571 34.6304C54.8293 34.9739 55.2586 35.4032 55.5806 35.8969C55.7524 36.1545 55.8812 36.4121 55.9885 36.6911C56.1173 36.9917 56.2246 37.2922 56.4393 37.5283C56.4822 37.5712 56.5037 37.5927 56.5466 37.6142C56.5896 37.6571 56.6539 37.6786 56.6969 37.7215C56.6969 37.7215 56.7398 37.743 56.7613 37.7644C56.3963 36.6697 55.9456 35.5534 55.1299 34.6948C55.0225 34.5875 54.8937 34.4801 54.7649 34.4372C54.6147 34.3728 54.4644 34.3728 54.2927 34.3728C54.2068 34.3728 54.1209 34.3728 54.0136 34.3728C54.1209 34.4372 54.2283 34.5231 54.3356 34.6089L54.3571 34.6304ZM55.9241 34.244C56.1817 35.4676 56.611 36.6697 57.1906 37.7644V37.8074C57.1906 37.8074 57.1906 37.8074 57.1477 37.8074C57.1047 37.8074 57.0618 37.8074 57.0403 37.8074C56.5466 36.4121 56.0744 35.5964 55.4089 34.2011C55.3016 33.8576 55.2801 33.4927 55.3445 33.1493C55.4089 32.8273 55.5592 32.5482 55.688 32.2477C55.7309 32.8917 55.8168 33.5356 55.9456 34.1796L55.9241 34.244ZM55.5806 30.788C55.5806 30.788 55.5806 30.7451 55.5806 30.7236C55.5806 30.6163 55.5806 30.5089 55.5806 30.4016C55.5806 30.4016 55.5806 30.4016 55.5806 30.3801C55.5162 30.5519 55.4519 30.7236 55.366 30.8953C55.1728 31.3246 54.8937 31.7325 54.7435 32.1833C54.6361 32.5267 54.5932 32.9131 54.7435 33.2566C54.8079 33.3424 54.8508 33.4283 54.9152 33.5356C54.9796 33.643 55.044 33.7288 55.1084 33.8362C55.1084 33.6644 55.0869 33.5142 55.1084 33.3424C55.1084 33.1493 55.1513 32.9775 55.2157 32.8058C55.2801 32.5911 55.3875 32.3979 55.4733 32.1833C55.6451 31.7325 55.5806 31.2388 55.5592 30.788H55.5806ZM55.5592 29.1995C55.5377 29.3927 55.5163 29.5644 55.4733 29.7576C55.366 30.2299 55.1942 30.6592 54.9796 31.11C54.7649 31.5393 54.5503 31.9686 54.4859 32.4409C54.4859 32.5697 54.4859 32.6985 54.4859 32.8273C54.3356 32.5911 54.2068 32.3765 54.0566 32.1618C53.9278 31.9257 53.5199 31.2602 53.799 30.5733C53.9063 30.2943 54.078 30.0581 54.2068 29.8006C54.3571 29.5215 54.4859 29.2424 54.6362 28.9419C54.8937 28.3838 55.1728 27.8042 55.3445 27.2246C55.3445 27.1817 55.366 27.1173 55.3874 27.0744C55.4948 27.7828 55.5377 28.5126 55.5592 29.2424V29.1995ZM55.1084 25.5718C55.1084 25.5718 55.1084 25.5503 55.1084 25.5288C54.9581 24.8848 54.7864 24.2623 54.5932 23.6398C54.5717 24.155 54.4859 24.6487 54.3571 25.121C54.2068 25.722 53.9707 26.3231 53.7131 26.9026C53.4555 27.4822 53.112 28.0189 52.8974 28.5985C52.6827 29.1351 52.6613 29.7362 52.833 30.2728C53.0691 30.6377 53.3052 31.0027 53.5414 31.3676C53.5199 31.2602 53.4984 31.1744 53.477 31.0671C53.434 30.6377 53.6272 30.2728 53.8204 29.9079C54.0566 29.4571 54.2712 29.0063 54.4859 28.5341C54.6791 28.0833 54.8937 27.6325 55.044 27.1602C55.1942 26.6451 55.1298 26.1299 55.1084 25.5932V25.5718ZM54.2068 22.6094C53.9921 22.0513 53.7346 21.5147 53.477 20.978C53.477 21.1068 53.4984 21.2142 53.5199 21.3215C53.5628 21.9225 53.477 22.5236 53.3482 23.1032C53.0262 24.3911 52.3607 25.5718 51.867 26.7953C51.6953 27.2461 51.5236 27.7613 51.5665 28.255C51.8885 28.7487 52.2105 29.2424 52.511 29.7147C52.4681 29.5 52.4681 29.2639 52.511 29.0278C52.5969 28.4053 52.9403 27.8686 53.1979 27.3105C53.7346 26.1943 54.1853 25.0351 54.2712 23.7901C54.2927 23.3822 54.2712 22.9744 54.2283 22.588L54.2068 22.6094ZM52.833 19.7974C52.9403 20.0979 53.0691 20.3984 53.1335 20.7204C53.1979 21.0639 53.2408 21.4074 53.2408 21.7293C53.2408 23.0602 52.6827 24.3053 52.1461 25.4859C51.8241 26.2157 51.3518 27.0744 51.3518 27.9115C51.0942 27.5252 50.8581 27.1388 50.6005 26.7524C50.5361 26.2372 50.5576 25.7006 50.6649 25.2068C50.9011 23.9403 51.545 22.8026 51.9744 21.6005C52.189 20.9995 52.3607 20.377 52.4037 19.733C52.4037 19.4969 52.4037 19.2393 52.3607 18.9817C52.5325 19.2393 52.7042 19.4969 52.8545 19.7759L52.833 19.7974ZM51.6738 18.0372C51.4806 17.7796 51.2874 17.5435 51.0942 17.2859C51.0084 17.1785 50.9225 17.0927 50.8367 16.9854C50.8796 17.2215 50.9011 17.4361 50.9011 17.6508C50.9011 18.2948 50.7508 18.9388 50.6005 19.5827C50.2785 20.8492 49.7848 22.0943 49.5487 23.3822C49.4414 23.9189 49.377 24.5199 49.4628 25.078C49.7419 25.5074 50.0209 25.9581 50.3215 26.3875C50.1283 24.2838 51.6953 22.2875 52.0173 20.2482C52.0817 19.8833 52.1031 19.5183 52.0602 19.1534C52.0173 18.767 51.8456 18.445 51.6738 18.1016C51.6738 18.0587 51.6738 18.0372 51.6738 18.0157V18.0372ZM50.0853 16.1696C50.3215 16.4487 50.5147 16.7492 50.5791 17.1356C50.6435 17.5005 50.622 17.8869 50.5791 18.2518C50.4074 19.5398 49.9565 20.7848 49.6131 22.0299C49.4414 22.6524 49.2911 23.2749 49.2267 23.9189C49.2052 24.1765 49.1838 24.4341 49.2267 24.6702C48.9262 24.1979 48.6042 23.7257 48.3037 23.2534C48.089 22.7382 48.1105 22.1587 48.1749 21.6005C48.3037 20.3126 48.6257 19.0676 48.9476 17.8225C49.0979 17.2429 49.3126 16.6419 49.377 16.0194C49.377 15.8047 49.377 15.5901 49.334 15.3754C49.5916 15.6115 49.8492 15.8691 50.1068 16.1267C50.1068 16.1267 50.1068 16.1267 50.1068 16.1482L50.0853 16.1696ZM48.6042 14.8173C48.6042 14.8173 48.6042 14.7744 48.6042 14.7529C48.2607 14.4524 47.8958 14.1733 47.5094 13.8942C47.5953 14.0874 47.6597 14.2806 47.7026 14.4738C47.8314 15.0319 47.8314 15.6115 47.7456 16.1911C47.5524 17.3932 46.9943 18.5094 46.8869 19.733C46.844 20.2911 46.8869 20.8707 47.0801 21.3859C47.3806 21.8367 47.6597 22.2875 47.9602 22.7168C47.9388 22.5021 47.9173 22.3089 47.9173 22.0943C47.9173 21.4932 48.0246 20.8707 48.1319 20.2697C48.3466 19.0246 48.6901 17.8225 48.9906 16.599C49.0764 16.277 49.1409 15.955 49.0979 15.6115C49.0765 15.4398 49.0121 15.2895 48.9262 15.1393C48.8403 15.0105 48.7115 14.9032 48.6257 14.7744L48.6042 14.8173ZM46.9513 13.5079C47.0801 13.6796 47.2089 13.8513 47.2948 14.0445C47.4235 14.345 47.5094 14.667 47.5309 14.989C47.6597 16.2126 47.166 17.3717 46.8654 18.5524C46.6722 19.2822 46.5649 20.0765 46.7152 20.8278C46.522 20.5272 46.3073 20.2053 46.1141 19.9047C46.0712 19.8189 46.0068 19.7545 45.9639 19.6686C45.8351 19.1964 45.7707 18.7026 45.7707 18.2089C45.7707 17.6508 45.8565 17.1141 46.0068 16.5775C46.1571 16.0408 46.3717 15.5257 46.4147 14.9675C46.4576 14.4524 46.3932 13.9157 46.2214 13.422C46.1571 13.2288 46.0712 13.0571 45.9853 12.8639C46.3073 13.0785 46.6508 13.2717 46.9728 13.5079H46.9513ZM45.4272 12.5634C45.1482 12.3916 44.8691 12.2414 44.59 12.0911C44.8476 12.4131 44.8691 12.8639 44.8476 13.2717C44.8047 13.7655 44.7188 14.2592 44.6115 14.7314C44.5042 15.2037 44.3539 15.6545 44.2681 16.1267C44.2037 16.4272 44.1822 16.7278 44.2251 17.0283C44.6974 17.7367 45.1696 18.4665 45.6204 19.1749C45.4701 18.445 45.4701 17.7152 45.6204 16.9854C45.7277 16.4487 45.9424 15.9335 46.0498 15.3969C46.1571 14.8602 46.1571 14.3236 46.0283 13.8084C45.9639 13.5293 45.8565 13.2503 45.7063 12.9927C45.6204 12.8424 45.5131 12.6922 45.4058 12.5419L45.4272 12.5634ZM43.5811 11.5545C43.667 11.6833 43.7958 11.7906 43.9032 11.8764C44.0963 12.0267 44.311 12.1555 44.4398 12.3487C44.6974 12.7566 44.59 13.2932 44.5257 13.7225C44.4613 14.2162 44.3754 14.71 44.2466 15.2037C44.1393 15.6545 43.989 16.1696 43.989 16.6634C43.6885 16.1911 43.3665 15.7403 43.066 15.2681C43.0016 14.5168 43.4309 13.7869 43.5597 13.0571C43.6456 12.6063 43.6241 12.134 43.4309 11.7047C43.388 11.5974 43.3236 11.4901 43.2592 11.3827C43.3665 11.4471 43.4738 11.4901 43.5811 11.5545ZM42.5078 11.0178C42.2932 10.9105 42.0571 10.8031 41.8424 10.6958C41.8424 10.7173 41.8853 10.7602 41.8853 10.7817C42.0785 11.1251 42.1644 11.4901 42.2073 11.8764C42.2503 12.2843 42.1858 12.6707 42.1 13.0785C42.057 13.3361 42.0356 13.5723 42.0785 13.8084C42.1644 13.9372 42.2717 14.0874 42.3576 14.2162C42.5293 14.4738 42.701 14.7314 42.8728 14.989C42.8728 14.4309 43.1304 13.8513 43.2592 13.3147C43.3665 12.8853 43.4094 12.456 43.2592 12.0267C43.1733 11.7906 43.066 11.5974 42.9157 11.4042C42.7869 11.2539 42.6366 11.1466 42.4864 11.0178H42.5078ZM41.3916 10.567C41.4989 10.6958 41.6063 10.8461 41.6707 11.0178C41.8424 11.3613 41.9282 11.7476 41.9282 12.1126C41.9282 12.5204 41.8209 12.9068 41.7995 13.3147C41.7995 13.3361 41.7995 13.3791 41.7995 13.4005C41.4989 12.9712 41.1984 12.5204 40.8979 12.0911C40.8335 11.8979 40.7691 11.6833 40.7476 11.4686C40.7047 11.1895 40.7476 10.889 40.6833 10.61C40.6618 10.4168 40.5974 10.2236 40.5115 10.0518C40.7262 10.1592 40.9408 10.2665 41.177 10.3738C41.2414 10.4382 41.3272 10.5026 41.3916 10.5885V10.567Z" fill="#D5DD9D"/>
<path fill-rule="evenodd" clip-rule="evenodd" d="M77.9921 12.4562C78.0565 12.0268 78.0994 11.619 78.1638 11.1897C78.1638 11.0609 78.2068 10.9321 78.2282 10.8033C77.6701 11.7048 77.0691 12.5849 76.468 13.4436C76.7042 13.3148 76.9403 13.2075 77.1979 13.1001C77.4769 12.9713 77.7131 12.8211 77.9062 12.5849C77.9492 12.542 77.9706 12.4991 77.9921 12.4562ZM77.434 10.4813C77.6701 10.4169 77.9277 10.3525 78.1638 10.2881C77.7345 10.9965 77.2837 11.6834 76.8115 12.3703C76.8115 12.2844 76.8329 12.1986 76.8544 12.1127C76.8759 11.8336 76.8544 11.576 76.8973 11.297C76.9403 10.9965 77.0691 10.7389 77.3267 10.5457C77.3696 10.5242 77.3911 10.5027 77.434 10.4813ZM76.2534 10.8247C76.468 10.7603 76.6827 10.6959 76.8973 10.6315C76.79 10.7603 76.7256 10.9321 76.7042 11.1038C76.6612 11.3829 76.6827 11.6619 76.6612 11.9195C76.6612 12.0698 76.6612 12.1986 76.6398 12.3488C76.6183 12.4776 76.5539 12.6064 76.5324 12.7352C76.5324 12.7352 76.5324 12.7567 76.5324 12.7781C76.2534 13.1645 75.9743 13.5724 75.6952 13.9588C75.8026 13.5724 75.8455 13.186 75.867 12.7781C75.8884 12.3918 75.8884 12.0268 75.9314 11.6404C75.9528 11.3185 76.0387 11.0179 76.2534 10.8247ZM74.1497 11.5116C74.7078 11.3185 75.2659 11.1253 75.824 10.9535C75.6308 11.3829 75.6523 12.0268 75.6309 12.4132C75.6094 13.1001 75.5664 13.83 75.3088 14.474C75.0513 14.8389 74.7937 15.1823 74.5146 15.5473C74.4502 15.5902 74.4073 15.6546 74.3429 15.6975C74.3429 15.5258 74.3429 15.3326 74.3429 15.1609C74.3214 14.6672 74.257 14.1734 74.1711 13.7012C74.0853 13.2504 73.935 12.7996 73.9136 12.3488C73.9136 12.1127 73.9136 11.8766 74.0209 11.6619C74.0424 11.619 74.0638 11.5546 74.1068 11.5331L74.1497 11.5116ZM72.4539 12.1986C72.368 12.3059 72.3251 12.4562 72.2821 12.5849C72.1748 13.0572 72.2822 13.5509 72.411 14.0017C72.5397 14.5384 72.6685 15.0965 72.7759 15.6331C72.8832 16.0624 72.9691 16.5132 72.9691 16.964C72.9691 17.2216 72.9476 17.4577 72.8832 17.6939C73.2267 17.2431 73.5701 16.8138 73.9136 16.363C73.978 16.2771 74.0209 16.2127 74.0853 16.1268C74.1926 15.6975 74.1711 15.2682 74.1282 14.8389C74.0853 14.3237 73.9994 13.83 73.8921 13.3363C73.7847 12.9069 73.656 12.4347 73.7204 11.9839C73.7204 11.8766 73.7633 11.7692 73.8062 11.6619C73.3554 11.8336 72.9261 12.0054 72.4753 12.1986H72.4539ZM71.4879 12.6279C71.6811 12.542 71.8743 12.4562 72.0675 12.3703C71.9172 12.7996 71.9816 13.2719 72.0675 13.7226C72.1963 14.2808 72.3251 14.8603 72.4539 15.4185C72.6685 16.3415 72.9261 17.3289 72.4539 18.2305C72.3251 18.3808 72.2177 18.5525 72.0889 18.7028C71.9816 18.7886 71.8958 18.896 71.8099 19.0247C71.8099 19.0247 71.8099 19.0677 71.8099 19.0891C71.7026 19.2394 71.5738 19.3897 71.4664 19.5399C71.5308 19.2179 71.5738 18.8745 71.5738 18.5525C71.5738 17.4148 71.1874 16.32 70.9083 15.2467C70.758 14.7101 70.5863 14.109 70.6293 13.5509C70.6293 13.3577 70.6937 13.1645 70.7795 12.9928C71.0156 12.864 71.2518 12.7567 71.4879 12.6279ZM69.1911 13.8729C68.4183 14.5598 68.7188 15.9122 68.9764 16.7923C69.1696 17.4148 69.3842 18.0373 69.6204 18.6598C69.835 19.2179 70.0497 19.7975 70.1141 20.3986C70.157 20.7206 70.1355 21.064 70.0711 21.386C70.4361 20.9138 70.801 20.42 71.1874 19.9478C71.4879 18.9174 71.3376 17.8227 71.08 16.7923C70.9298 16.2127 70.7366 15.6117 70.5863 15.0321C70.4575 14.4954 70.2858 13.8944 70.3717 13.3363C70.3717 13.2933 70.3717 13.2504 70.3931 13.2075C69.9853 13.4221 69.5774 13.6582 69.1911 13.8944V13.8729ZM67.7528 14.8174C68.0104 14.6242 68.2895 14.4525 68.5685 14.2808C68.5041 14.4525 68.4397 14.6457 68.4183 14.8389C68.3539 15.4185 68.5041 15.998 68.6544 16.5562C68.8476 17.2216 69.0623 17.8656 69.3198 18.4881C69.7277 19.5399 70.1785 20.6776 69.7706 21.7724C69.3198 22.352 68.8905 22.9316 68.4397 23.5111C68.5471 23.1248 68.5256 22.674 68.4612 22.2876C68.3753 21.6651 68.1392 21.064 67.946 20.463C67.7099 19.7117 67.4523 18.9604 67.2162 18.2305C67.0015 17.608 66.7439 16.9425 66.7654 16.2771C66.7654 15.9122 66.9156 15.5687 67.1303 15.3111C67.3235 15.1609 67.5167 15.0106 67.7313 14.8818C67.7313 14.8818 67.7314 14.8818 67.7528 14.8818V14.8174ZM65.0052 17.9514C65.0052 18.5954 65.2413 19.1965 65.413 19.7975C65.6277 20.4844 65.8638 21.1928 66.0785 21.8797C66.2931 22.5237 66.5078 23.1677 66.6795 23.8117C66.8298 24.3698 66.9156 24.9494 66.8512 25.5075C67.2376 25.0138 67.6025 24.52 67.9889 24.0263V23.9834C68.1177 23.7043 68.2036 23.4253 68.2465 23.1248C68.268 22.8242 68.2465 22.5237 68.1821 22.2232C68.0534 21.5363 67.7958 20.8923 67.5811 20.2268C67.3235 19.4755 67.0874 18.7242 66.8298 17.9514C66.6366 17.3289 66.4005 16.685 66.4863 16.041C66.4863 15.9336 66.5292 15.8263 66.5507 15.6975C65.8209 16.2986 64.9622 16.9211 64.9622 17.93L65.0052 17.9514ZM63.2664 20.2698C63.0947 19.3253 63.4167 18.896 63.9963 18.1876C64.2324 17.8871 64.4685 17.6295 64.769 17.3719C64.7261 17.5221 64.7046 17.6939 64.7046 17.8441C64.7046 18.4881 64.8764 19.0891 65.091 19.6902C65.3272 20.3986 65.5633 21.107 65.7994 21.8368C66.0141 22.5022 66.2502 23.1677 66.4649 23.8546C66.6366 24.4556 66.7654 25.0782 66.6795 25.7007C66.6795 25.7221 66.6795 25.7436 66.6795 25.7651C66.4863 26.0227 66.2931 26.2588 66.0999 26.5164C66.0999 26.5164 66.0999 26.5164 66.0999 26.5378C66.0141 26.6666 65.9067 26.7954 65.8209 26.9028C65.8423 26.452 65.7994 26.0012 65.6706 25.5504C65.3486 24.3054 64.5973 23.2536 64.0177 22.1373C63.7172 21.5577 63.4382 20.9352 63.3094 20.2698H63.2664ZM61.957 21.2357C61.8497 21.4933 61.9141 21.8153 61.957 22.0944C62.0643 22.7169 62.3649 23.3179 62.6869 23.8546C63.3094 24.9064 64.1036 25.9153 64.4256 27.1174C64.5329 27.5682 64.5973 28.0405 64.5329 28.4913C64.8764 28.0405 65.1983 27.6326 65.5418 27.1818L65.5847 27.1389C65.8209 24.4986 63.3094 22.631 62.9444 20.1195C62.923 19.9478 62.9015 19.7975 62.923 19.6258C62.7942 19.819 62.1931 20.5918 61.957 21.2357ZM60.991 23.3823C61.0769 22.8457 61.6135 21.9012 61.6565 21.7939C61.6565 21.8583 61.6565 21.9012 61.6565 21.9656C61.7209 22.5881 61.9999 23.1892 62.3005 23.7473C62.6224 24.3483 63.0303 24.885 63.3738 25.4645C63.9963 26.452 64.5115 27.6111 64.2968 28.7918C64.1465 28.985 63.9963 29.1782 63.846 29.3928C63.8245 29.4143 63.8031 29.4358 63.7602 29.4787C63.7602 29.4787 63.7602 29.5002 63.7602 29.5216C63.7602 29.5216 63.7601 29.5216 63.7387 29.5431C63.7816 29.2211 63.7387 28.8776 63.6313 28.5557C63.2449 27.418 62.279 26.6237 61.635 25.6792C61.1842 25.0138 60.8622 24.1766 60.991 23.4038V23.3823ZM60.991 27.1818C61.5921 28.0619 62.5795 28.663 62.8586 29.7363C62.923 30.0153 62.9659 30.3159 62.9015 30.6164C63.0732 30.3803 63.2664 30.1441 63.4381 29.908C63.8031 28.8562 63.0732 27.8473 62.4292 27.0745C61.6994 26.1944 60.8622 25.2928 60.7334 24.0907C60.4115 25.207 60.2397 26.13 60.991 27.2033V27.1818ZM60.1109 27.8043C60.0465 27.2248 60.1968 26.6022 60.2612 26.2373C60.3471 26.5593 60.4973 26.8813 60.669 27.1604C60.9481 27.6326 61.3559 27.9975 61.7209 28.4054C62.0858 28.7918 62.4507 29.1996 62.6224 29.7148C62.7942 30.1656 62.7727 30.6379 62.558 31.0672C62.3648 31.3033 62.1931 31.5394 61.9999 31.7756C61.9999 31.6253 61.9999 31.475 61.9785 31.3248C61.8497 30.8096 61.4847 30.4017 61.1628 29.9939C60.8193 29.5431 60.4758 29.0708 60.2826 28.5342C60.1968 28.2981 60.1539 28.0405 60.1324 27.8043H60.1109ZM59.8963 30.7023C60.0036 31.1101 60.2397 31.475 60.4329 31.84C60.669 32.2693 60.8837 32.7845 60.8408 33.2782C61.0125 33.0635 61.1842 32.8274 61.3774 32.6127C61.8067 32.0761 61.9999 31.7326 61.6136 31.0242C61.356 30.552 60.9696 30.1656 60.6476 29.7148C60.39 29.3499 60.1539 28.942 60.0036 28.4913C59.8104 29.1352 59.7031 30.1012 59.8963 30.6808V30.7023ZM59.4884 32.9776C59.6172 32.3337 59.6816 31.6682 59.746 31.0242C59.8104 31.2174 59.8963 31.3892 60.0036 31.5609C60.3256 32.1619 60.8193 32.9347 60.5617 33.6216C60.2397 34.008 59.9392 34.3944 59.6172 34.7808C59.746 34.5447 59.8104 34.3085 59.7675 34.0509C59.7031 33.7504 59.5528 33.4928 59.5099 33.1923C59.5099 33.1279 59.5099 33.042 59.5099 32.9776H59.4884ZM59.2523 33.9866C59.0806 34.5447 58.823 35.1028 58.4581 35.5536C58.2649 35.7897 58.0502 36.0044 57.8355 36.1975C57.5994 36.4122 57.3418 36.6054 57.1915 36.9059C57.1701 36.9489 57.1486 36.9918 57.1271 37.0347C57.1271 37.0991 57.1057 37.1421 57.0842 37.2065C57.0842 37.2279 57.0842 37.2494 57.0842 37.2709C58.0073 36.5625 58.9088 35.7897 59.4455 34.7379C59.5099 34.6091 59.5528 34.4588 59.5743 34.3085C59.5743 34.1583 59.5314 34.008 59.467 33.8578C59.424 33.7719 59.4025 33.686 59.3811 33.6002C59.3381 33.729 59.3167 33.8578 59.2737 33.9866H59.2523ZM60.1324 35.3389C59.0591 35.9829 58.0717 36.7771 57.213 37.6787C57.213 37.6787 57.1701 37.6787 57.1486 37.6787C57.1486 37.6787 57.1486 37.6787 57.1486 37.6572C57.1486 37.6143 57.1486 37.5714 57.1271 37.5499C58.2863 36.6269 58.8874 35.9185 60.0036 34.8452C60.3041 34.652 60.6261 34.5017 60.991 34.4373C61.313 34.3944 61.635 34.4373 61.9355 34.4588C61.3345 34.7164 60.7549 34.9955 60.1968 35.3389H60.1324ZM63.2879 33.8792C63.2879 33.8792 63.3308 33.8792 63.3523 33.8792C63.4596 33.8363 63.5455 33.8148 63.6528 33.7719C63.6528 33.7719 63.6528 33.7719 63.6743 33.7719C63.5025 33.7719 63.3094 33.7719 63.1376 33.7504C62.6654 33.7075 62.1931 33.5787 61.7209 33.5787C61.3559 33.5787 60.9695 33.686 60.712 33.9222C60.6476 34.008 60.5832 34.0939 60.5188 34.1797C60.4544 34.2656 60.3685 34.3729 60.3041 34.4588C60.4544 34.3944 60.6046 34.33 60.7549 34.2871C60.9266 34.2441 61.1198 34.2227 61.313 34.2012C61.5277 34.2012 61.7638 34.2441 61.9785 34.2441C62.4507 34.2441 62.9015 34.0295 63.3308 33.8578L63.2879 33.8792ZM64.769 33.3426C64.5973 33.3855 64.4041 33.407 64.2109 33.4284C63.7387 33.4714 63.2664 33.4714 62.7727 33.407C62.3005 33.3426 61.8282 33.2782 61.3559 33.3855C61.2271 33.407 61.0984 33.4714 60.991 33.5143C61.1628 33.2996 61.313 33.085 61.4847 32.8918C61.6565 32.6986 62.1502 32.0975 62.9015 32.119C63.202 32.119 63.4811 32.2049 63.7602 32.2478C64.0821 32.2907 64.3826 32.3337 64.7046 32.3766C65.3271 32.441 65.9497 32.5054 66.5722 32.4839C66.6366 32.4839 66.6795 32.4839 66.7439 32.4839C66.0999 32.8059 65.4345 33.085 64.769 33.364V33.3426ZM68.0534 31.7326C68.0534 31.7326 68.0748 31.7326 68.0963 31.7326C68.6544 31.3892 69.191 31.0242 69.7062 30.6164C69.2125 30.7667 68.7188 30.8311 68.2465 30.874C67.624 30.9169 66.98 30.9169 66.3575 30.874C65.735 30.8096 65.1125 30.6808 64.49 30.6379C63.9319 30.6164 63.3308 30.7881 62.88 31.1316C62.601 31.475 62.3434 31.8185 62.0643 32.1619C62.1502 32.0975 62.236 32.0546 62.3219 32.0117C62.7083 31.8185 63.1162 31.9044 63.5455 31.9688C64.0392 32.0331 64.5544 32.0975 65.0481 32.1405C65.5418 32.1834 66.0355 32.2263 66.5293 32.2049C67.0659 32.2049 67.5382 31.9473 68.0319 31.7541L68.0534 31.7326ZM70.5434 29.9295C70.9942 29.5431 71.4235 29.1352 71.8528 28.7059C71.7455 28.7488 71.6382 28.8132 71.5308 28.8562C70.9727 29.0923 70.3717 29.2211 69.7921 29.264C68.4612 29.3928 67.1518 29.1352 65.8209 29.0708C65.3486 29.0494 64.7905 29.0708 64.3397 29.264C63.9748 29.7148 63.6313 30.1871 63.2664 30.6379C63.4596 30.5305 63.6743 30.4447 63.9104 30.4017C64.5114 30.2729 65.134 30.4017 65.7565 30.4876C66.98 30.6164 68.2251 30.6808 69.4272 30.3588C69.8136 30.2515 70.2 30.1012 70.5649 29.908L70.5434 29.9295ZM72.7759 27.697C72.5183 27.9117 72.2822 28.1263 72.0031 28.2981C71.7026 28.4698 71.402 28.6201 71.08 28.7274C69.8135 29.1352 68.4612 29.0279 67.1518 28.9206C66.3575 28.8562 65.3916 28.6845 64.5973 28.9635C64.8764 28.5986 65.1554 28.2337 65.4345 27.8902C65.8853 27.6541 66.4004 27.5038 66.9156 27.4394C68.2036 27.2462 69.4701 27.4824 70.7581 27.5038C71.402 27.5038 72.046 27.4824 72.6685 27.2892C72.8832 27.2248 73.1408 27.1174 73.3769 27.0101C73.1837 27.2462 72.9905 27.5038 72.7973 27.7399L72.7759 27.697ZM74.0424 26.0441C74.2141 25.7865 74.3858 25.5289 74.5576 25.2499C74.622 25.1426 74.6863 25.0138 74.7507 24.9064C74.5575 25.0352 74.3429 25.1211 74.1282 25.1855C73.5057 25.4002 72.8617 25.4646 72.2177 25.5289C70.9083 25.6363 69.5774 25.5933 68.2895 25.7865C67.7528 25.8724 67.1518 25.9797 66.658 26.2588C66.3361 26.6666 66.0141 27.0745 65.6921 27.4824C67.624 26.6237 70.0068 27.4394 72.046 27.096C72.411 27.0316 72.7544 26.9457 73.0764 26.774C73.4198 26.6022 73.6774 26.3447 73.935 26.0656C73.9565 26.0441 73.9994 26.0227 74.0209 26.0441H74.0424ZM75.2874 23.919C75.0942 24.241 74.8795 24.52 74.5361 24.6918C74.2141 24.885 73.8492 24.9923 73.4843 25.0567C72.1963 25.3143 70.8868 25.2928 69.5989 25.3787C68.9549 25.4216 68.3109 25.486 67.6884 25.6363C67.4523 25.7007 67.1947 25.7651 66.9801 25.8724C67.3235 25.4216 67.667 24.9923 68.0104 24.5415C68.4183 24.1766 68.9978 23.9834 69.5345 23.8761C70.801 23.597 72.089 23.4682 73.3769 23.3609C73.978 23.3179 74.6219 23.3179 75.223 23.1677C75.4377 23.1033 75.6309 23.0389 75.8026 22.9101C75.6523 23.2321 75.502 23.5541 75.3518 23.8761C75.3518 23.8761 75.3518 23.8761 75.3518 23.8975L75.2874 23.919ZM76.0816 22.0729L76.1246 22.0515C76.2963 21.6221 76.4251 21.1928 76.5753 20.742C76.4251 20.8923 76.2534 21.0211 76.1031 21.1284C75.6094 21.4504 75.0727 21.6221 74.4932 21.7295C73.2911 21.9441 72.046 21.7724 70.8654 22.0729C70.3287 22.2017 69.7921 22.4378 69.3628 22.8028C69.0408 23.2321 68.7188 23.6399 68.3753 24.0693C68.5685 23.9619 68.7617 23.8975 68.9549 23.8331C69.5345 23.6399 70.1356 23.5326 70.7366 23.4253C71.9816 23.2106 73.2267 23.1462 74.4932 23.0389C74.8151 23.0174 75.1586 22.953 75.4591 22.8028C75.6094 22.7169 75.7382 22.631 75.8455 22.4808C75.9528 22.352 75.9958 22.2017 76.0816 22.0729ZM76.79 20.0766C76.6612 20.2483 76.5324 20.42 76.3821 20.5703C76.146 20.785 75.867 20.9782 75.5879 21.107C74.4717 21.6221 73.2052 21.5363 72.0031 21.6436C71.2518 21.708 70.4575 21.8583 69.7921 22.2446C70.0282 21.9441 70.2429 21.6651 70.479 21.3645C70.5434 21.3001 70.5863 21.2143 70.6507 21.1499C71.0586 20.8708 71.5094 20.6347 71.9602 20.4844C72.4753 20.2912 73.0335 20.2054 73.5701 20.1839C74.1282 20.1624 74.6863 20.1839 75.223 20.0337C75.7167 19.9049 76.2104 19.6687 76.6183 19.3467C76.7685 19.2179 76.9188 19.0891 77.0691 18.9389C76.9832 19.3253 76.8973 19.6902 76.79 20.0766ZM77.1764 18.3378C77.2408 18.0158 77.2837 17.6939 77.3481 17.3933C77.112 17.7583 76.7041 17.9085 76.3177 18.0158C75.8455 18.1446 75.3518 18.209 74.8581 18.2734C74.3858 18.3378 73.8921 18.3378 73.4199 18.4022C73.1193 18.4452 72.8188 18.531 72.5612 18.6598C72.046 19.3253 71.5094 20.0122 70.9942 20.6776C71.6167 20.2912 72.3251 20.0551 73.0764 19.9478C73.613 19.8834 74.1711 19.9049 74.7078 19.8405C75.2444 19.7761 75.7596 19.6043 76.2104 19.3038C76.4465 19.1535 76.6827 18.9604 76.8759 18.7457C77.0047 18.6169 77.112 18.4666 77.1979 18.3164L77.1764 18.3378ZM77.5198 16.2771C77.434 16.3844 77.3696 16.5562 77.3267 16.685C77.2623 16.9211 77.1978 17.1572 77.0476 17.3504C76.7471 17.7153 76.2104 17.8012 75.7811 17.8871C75.2874 17.9944 74.7937 18.0588 74.2785 18.1017C73.8062 18.1446 73.291 18.1876 72.8188 18.3378C73.1622 17.8871 73.5057 17.4577 73.8277 17.0069C74.5146 16.7064 75.3518 16.8567 76.0816 16.7494C76.5539 16.685 76.9617 16.4918 77.3052 16.1698C77.3911 16.0839 77.4769 15.998 77.5413 15.8907C77.5413 16.0195 77.5199 16.1268 77.4984 16.2556L77.5198 16.2771ZM77.6916 15.075C77.713 14.8174 77.756 14.5813 77.7775 14.3237C77.756 14.3452 77.7345 14.3666 77.7131 14.4096C77.4555 14.6886 77.1335 14.9033 76.79 15.075C76.4251 15.2467 76.0172 15.3111 75.6309 15.3755C75.3733 15.4185 75.1371 15.4829 74.9225 15.5902C74.8151 15.719 74.7293 15.8478 74.6219 15.9766C74.4288 16.2342 74.2355 16.4703 74.0638 16.7279C74.6005 16.5562 75.223 16.5991 75.7811 16.5562C76.2104 16.5132 76.6397 16.4059 76.9832 16.1483C77.1764 15.998 77.3266 15.8263 77.4554 15.6117C77.5628 15.4399 77.6057 15.2682 77.6701 15.075H77.6916ZM77.7345 13.8729C77.6486 14.0232 77.5413 14.152 77.4125 14.2808C77.1335 14.5598 76.8115 14.753 76.468 14.9033C76.0816 15.0535 75.6738 15.075 75.2874 15.1609C75.2659 15.1609 75.2444 15.1609 75.2015 15.1823C75.5235 14.753 75.824 14.3237 76.146 13.8944C76.3177 13.7656 76.4895 13.6368 76.6827 13.5509C76.9403 13.4221 77.2193 13.3363 77.4769 13.2075C77.6487 13.1216 77.8204 12.9928 77.9492 12.864C77.9277 13.1001 77.8848 13.3577 77.8633 13.5939C77.8204 13.6797 77.7774 13.787 77.7345 13.8514V13.8729Z" fill="#D5DD9D"/>
</g>
<defs>
<linearGradient id="paint0_linear_746_14820" x1="125.813" y1="37.1602" x2="133.265" y2="56.673" gradientUnits="userSpaceOnUse">
<stop stop-color="#AED68E"/>
<stop offset="1" stop-color="#010101"/>
</linearGradient>
<linearGradient id="paint1_linear_746_14820" x1="87.3737" y1="41.1141" x2="100.253" y2="56.1617" gradientUnits="userSpaceOnUse">
<stop stop-color="#AED68E"/>
<stop offset="1" stop-color="#010101"/>
</linearGradient>
<linearGradient id="paint2_linear_746_14820" x1="23.1243" y1="19.8828" x2="76.7679" y2="79.4295" gradientUnits="userSpaceOnUse">
<stop stop-color="#41A948"/>
<stop offset="0.47" stop-color="#4FB848"/>
<stop offset="1" stop-color="#1F361A"/>
</linearGradient>
<linearGradient id="paint3_linear_746_14820" x1="43.496" y1="43.9675" x2="74.3856" y2="87.0712" gradientUnits="userSpaceOnUse">
<stop stop-color="#41A948"/>
<stop offset="0.51" stop-color="#4FB848"/>
<stop offset="0.79" stop-color="#45B249"/>
<stop offset="1" stop-color="#2A6833"/>
</linearGradient>
<linearGradient id="paint4_linear_746_14820" x1="41.7343" y1="48.218" x2="54.8285" y2="61.3123" gradientUnits="userSpaceOnUse">
<stop stop-color="#AED68E"/>
<stop offset="1" stop-color="#010101"/>
</linearGradient>
<linearGradient id="paint5_linear_746_14820" x1="44.0534" y1="44.5687" x2="56.3749" y2="58.4786" gradientUnits="userSpaceOnUse">
<stop stop-color="#41A948"/>
<stop offset="0.47" stop-color="#4FB848"/>
<stop offset="1" stop-color="#1F361A"/>
</linearGradient>
<linearGradient id="paint6_linear_746_14820" x1="40.5752" y1="50.6434" x2="62.0197" y2="81.533" gradientUnits="userSpaceOnUse">
<stop stop-color="#41A948"/>
<stop offset="0.47" stop-color="#4FB848"/>
<stop offset="1" stop-color="#1F361A"/>
</linearGradient>
<linearGradient id="paint7_linear_746_14820" x1="78.4214" y1="69.8135" x2="72.1963" y2="73.2695" gradientUnits="userSpaceOnUse">
<stop stop-color="#AED68E"/>
<stop offset="1" stop-color="#010101"/>
</linearGradient>
<linearGradient id="paint8_linear_746_14820" x1="69.3847" y1="45.8783" x2="63.7606" y2="48.9909" gradientUnits="userSpaceOnUse">
<stop stop-color="#AED68E"/>
<stop offset="1" stop-color="#010101"/>
</linearGradient>
</defs>
</svg>
