<svg width="200" height="100" viewBox="0 0 200 100" fill="none" xmlns="http://www.w3.org/2000/svg">
<rect width="200" height="100" fill="white"/>
<g style="mix-blend-mode:luminosity">
<path d="M57.0571 61.482L66.9476 44.8372H58.0271C57.4375 44.8372 57.1142 44.4947 57.1142 43.9241V42.7637C57.1142 42.174 57.4565 41.8506 58.0271 41.8506H70.8848C71.5505 41.8506 71.8358 42.3071 71.4935 42.9159L61.622 59.5227H71.2082C71.8168 59.5227 72.1021 59.8841 71.9119 60.4738L71.5125 61.8244C71.3984 62.281 71.094 62.5283 70.5615 62.5283H57.6657C57 62.5283 56.6957 62.0717 57.0191 61.482H57.0571Z" fill="url(#paint0_linear_746_14752)"/>
<path d="M72.3117 48.7754C72.3117 48.1857 72.6541 47.8623 73.2247 47.8623H74.442C75.0316 47.8623 75.355 48.2047 75.355 48.7754V56.0801C75.355 58.458 76.7054 59.9227 78.7976 59.9227C80.8899 59.9227 82.2403 58.458 82.2403 56.0801V48.7754C82.2403 48.1857 82.5826 47.8623 83.1533 47.8623H84.3706C84.9602 47.8623 85.2835 48.2047 85.2835 48.7754V56.0801C85.2835 60.2271 82.6587 62.8522 78.7786 62.8522C74.8985 62.8522 72.2737 60.2271 72.2737 56.0801V48.7754H72.3117Z" fill="url(#paint1_linear_746_14752)"/>
<path d="M96.7336 62.0152L91.1416 55.5474V61.6347C91.1416 62.2244 90.7993 62.5478 90.2287 62.5478H89.0304C88.4408 62.5478 88.1174 62.2054 88.1174 61.6347V42.7832C88.1174 42.1935 88.4598 41.8701 89.0304 41.8701H90.2287C90.8183 41.8701 91.1416 42.2125 91.1416 42.7832V54.6343L96.6385 48.3949C96.9048 48.0335 97.2281 47.8813 97.6846 47.8813H99.2062C100.005 47.8813 100.252 48.4329 99.7198 49.0036L94.4702 54.9958L99.967 61.4064C100.481 61.9961 100.233 62.5288 99.4535 62.5288H97.7797C97.3232 62.5288 97.0189 62.3766 96.7336 62.0152Z" fill="url(#paint2_linear_746_14752)"/>
<path d="M100.899 54.9579C100.899 50.5637 104.17 47.5391 108.412 47.5391C112.653 47.5391 115.887 50.4686 115.887 55.2433V61.6349C115.887 62.2246 115.544 62.548 114.974 62.548H113.756C113.167 62.548 112.843 62.2056 112.843 61.6349V55.3384C112.843 52.1996 110.922 50.4876 108.393 50.4876C105.863 50.4876 103.999 52.2947 103.999 54.9389C103.999 57.583 105.806 59.6375 108.944 59.6375H110.009C110.523 59.6375 110.865 59.9799 110.675 60.5886L110.276 61.8632C110.124 62.3577 109.857 62.529 109.363 62.529H108.564C105.045 62.529 100.899 59.9989 100.899 54.9579Z" fill="url(#paint3_linear_746_14752)"/>
<path d="M119.406 67.5698L122.183 61.3684L116.572 48.9276C116.306 48.2808 116.572 47.8623 117.276 47.8623H118.684C119.178 47.8623 119.501 48.0525 119.692 48.5091L123.781 57.7922L127.908 48.5091C128.099 48.0525 128.422 47.8623 128.916 47.8623H130.229C130.895 47.8623 131.18 48.2808 130.895 48.9276L122.431 67.9313C122.221 68.3878 121.879 68.6351 121.365 68.6351H120.11C119.406 68.6351 119.14 68.2166 119.406 67.5698Z" fill="url(#paint4_linear_746_14752)"/>
<path d="M138.938 61.8249L138.539 60.5694C138.348 59.9226 138.653 59.5231 139.299 59.5231H141.316C143.37 59.5231 146.622 58.4579 146.622 55.186C146.622 51.9141 145.919 52.2565 143.199 49.7835C140.365 47.2155 138.805 45.5415 138.805 42.7261C138.767 42.1364 139.147 41.832 139.718 41.832H141.373C141.981 41.832 142.229 42.1744 142.267 42.7832C142.267 44.5523 143.313 45.5985 145.633 47.71C148.562 50.4303 149.97 52.5038 149.97 55.1099C149.97 59.5992 146.603 62.5287 141.354 62.5287H139.889C139.395 62.5287 139.071 62.2814 138.938 61.8249Z" fill="url(#paint5_linear_746_14752)"/>
<path d="M151.701 67.7216V55.2237C151.701 50.4681 154.878 47.5195 159.176 47.5195C163.475 47.5195 166.689 50.5441 166.689 54.9384C166.689 59.3326 162.543 62.5094 159.024 62.5094H158.225C157.731 62.5094 157.465 62.3192 157.312 61.8436L156.913 60.5691C156.723 59.9604 157.065 59.618 157.579 59.618H158.644C161.782 59.618 163.589 57.4494 163.589 54.9194C163.589 52.3893 161.63 50.4681 159.195 50.4681C156.761 50.4681 154.745 52.1801 154.745 55.3188V67.7216C154.745 68.3113 154.402 68.6347 153.832 68.6347H152.614C152.025 68.6347 151.701 68.2923 151.701 67.7216Z" fill="url(#paint6_linear_746_14752)"/>
<path d="M168.174 54.9579C168.174 50.5637 171.446 47.5391 175.687 47.5391C179.929 47.5391 183.162 50.4686 183.162 55.2433V61.6349C183.162 62.2246 182.82 62.548 182.249 62.548H181.032C180.442 62.548 180.119 62.2056 180.119 61.6349V55.3384C180.119 52.1996 178.198 50.4876 175.668 50.4876C173.138 50.4876 171.274 52.2947 171.274 54.9389C171.274 57.583 173.081 59.6375 176.22 59.6375H177.285C177.798 59.6375 178.141 59.9799 177.95 60.5886L177.551 61.8632C177.399 62.3577 177.133 62.529 176.638 62.529H175.839C172.32 62.529 168.174 59.9989 168.174 54.9579Z" fill="url(#paint7_linear_746_14752)"/>
<path fill-rule="evenodd" clip-rule="evenodd" d="M41.6312 56.0231C38.9304 53.9686 36.0393 53.455 33.0151 54.4822C29.9718 53.455 27.0807 53.9686 24.3799 56.0421C23.1816 56.9552 23.1055 56.2323 23.4098 55.129C24.6461 50.4494 27.347 46.4356 30.9609 43.5442C32.92 41.9843 33.3955 42.0794 35.8491 44.248C37.1234 45.3703 38.2646 46.6449 39.2537 48.0335C40.7183 50.107 41.8405 52.4468 42.5252 55.0149C42.8105 56.0992 42.9817 57.0503 41.6502 56.0231M45.9488 40.3293C46.6906 42.0604 47.1091 43.9627 47.1091 45.9601C47.1091 47.9574 46.6336 50.145 45.7586 51.9712C44.5033 54.6344 44.3131 53.9306 43.7995 52.5229C43.0578 50.5065 42.0687 48.6232 40.8514 46.9112C39.6531 45.2372 38.2646 43.7154 36.705 42.4028C35.2785 41.2044 34.86 40.919 37.0664 40.1011C39.0635 39.3782 41.1747 38.9216 43.3811 38.8075C45.0359 38.7124 45.2641 38.8075 45.9298 40.3484L45.9488 40.3293ZM38.6451 57.7731C37.8082 56.5557 36.2865 55.7567 35.1453 55.5285C39.6151 55.167 40.0145 58.6101 46.2532 58.7623C40.8894 61.5396 36.3246 61.9201 33.89 57.9824C34.6128 58.7814 36.0203 59.4471 37.3897 59.5042C36.3056 59.1238 34.879 58.3058 34.4035 57.5068C33.928 56.6889 34.2704 56.3655 35.2785 56.4986C36.1154 56.6128 37.5609 57.1644 38.626 57.7731H38.6451ZM27.3851 57.7731C28.2219 56.5557 29.7245 55.7567 30.8848 55.5285C26.415 55.167 26.0156 58.6101 19.777 58.7623C25.1407 61.5396 29.7055 61.9201 32.1401 57.9824C31.4174 58.7814 30.0099 59.4471 28.6404 59.5042C29.7246 59.1238 31.1511 58.3058 31.6266 57.5068C32.1021 56.6889 31.7597 56.3655 30.7516 56.4986C29.9148 56.6128 28.4692 57.1644 27.4041 57.7731H27.3851ZM32.8249 63.3088C32.5966 62.643 32.5205 60.5695 32.2352 59.9037C31.5505 60.3793 30.9418 60.9309 30.3903 61.5587C29.8006 62.2245 29.8197 62.2625 30.3712 63.2327C30.8467 64.0697 31.3983 64.8496 32.007 65.5915C32.3303 65.9719 32.6537 66.3524 33.0151 66.7138C33.4145 66.3143 33.7949 65.8958 34.1372 65.4393C34.7269 64.7164 35.2594 63.9175 35.7159 63.0995C36.2105 62.2054 36.1724 62.1674 35.6589 61.5777C35.1073 60.9499 34.4606 60.3793 33.7759 59.8847C33.3194 60.9499 33.2623 61.9581 33.1102 63.0615C33.0721 62.8903 33.0531 61.863 33.0341 61.6918C32.958 61.9962 32.8819 63.1185 32.8249 63.2897V63.3088ZM33.0151 31.8452C36.2675 31.8452 39.2727 32.9485 41.6693 34.8127C44.275 36.8482 43.1909 36.7531 41.6312 36.9623C37.1995 37.514 33.0911 39.3021 29.7055 42.0033C26.5292 44.5333 23.9995 47.8623 22.4398 51.7239C21.7931 53.3218 21.8121 55.2431 20.2715 52.0093C19.3966 50.1831 18.902 48.1286 18.902 45.9601C18.902 38.1607 25.2168 31.8452 33.0151 31.8452ZM44.4272 57.0313C46.0629 57.4688 46.9189 57.5829 48.916 57.7922C47.8889 59.7896 46.0629 61.1782 43.0197 62.0913C41.2889 62.6049 39.52 62.8712 37.8652 62.662C37.7891 63.0805 37.5989 63.518 37.3136 64.0126C36.8001 64.9257 36.2105 65.7817 35.5638 66.5997C35.1643 67.0943 34.7459 67.5508 34.3084 68.0074L32.977 69.358L31.6456 68.0074C31.2081 67.5508 30.7897 67.0943 30.3903 66.5997C29.7436 65.7817 29.1539 64.9257 28.6404 64.0126C28.3551 63.518 28.1649 63.0805 28.0888 62.662C26.434 62.8712 24.6652 62.6239 22.9343 62.0913C19.9101 61.1782 18.0842 59.7896 17.038 57.7922C19.0352 57.5829 19.8911 57.4498 21.5268 57.0313C21.4317 56.6698 21.3747 56.004 21.4317 55.6236C19.8911 55.6426 19.0922 53.9686 18.5216 52.7512C17.5135 50.6206 17 48.2998 17 45.9601C17 37.2857 24.2277 30 32.958 30C41.6883 30 48.916 37.2857 48.916 45.9601C48.916 54.6344 48.4024 50.6396 47.3944 52.7512C46.8238 53.9686 46.0249 55.6426 44.4843 55.6236C44.5223 56.004 44.4843 56.6698 44.3892 57.0313H44.4272Z" fill="url(#paint8_linear_746_14752)"/>
</g>
<defs>
<linearGradient id="paint0_linear_746_14752" x1="64.456" y1="41.8506" x2="64.456" y2="62.5283" gradientUnits="userSpaceOnUse">
<stop offset="0.3" stop-color="#FF84A6"/>
<stop offset="1" stop-color="#7F6300"/>
</linearGradient>
<linearGradient id="paint1_linear_746_14752" x1="78.8166" y1="47.8623" x2="78.8166" y2="62.8712" gradientUnits="userSpaceOnUse">
<stop offset="0.3" stop-color="#FF84A6"/>
<stop offset="1" stop-color="#7F6300"/>
</linearGradient>
<linearGradient id="paint2_linear_746_14752" x1="94.1849" y1="-1.93917" x2="94.1849" y2="-1.93917" gradientUnits="userSpaceOnUse">
<stop offset="0.3" stop-color="#FF84A6"/>
<stop offset="1" stop-color="#7F6300"/>
</linearGradient>
<linearGradient id="paint3_linear_746_14752" x1="108.393" y1="47.5391" x2="108.393" y2="62.529" gradientUnits="userSpaceOnUse">
<stop offset="0.3" stop-color="#FF84A6"/>
<stop offset="1" stop-color="#7F6300"/>
</linearGradient>
<linearGradient id="paint4_linear_746_14752" x1="123.724" y1="47.8623" x2="123.724" y2="68.6351" gradientUnits="userSpaceOnUse">
<stop offset="0.3" stop-color="#FF84A6"/>
<stop offset="1" stop-color="#7F6300"/>
</linearGradient>
<linearGradient id="paint5_linear_746_14752" x1="144.226" y1="-1.9392" x2="144.226" y2="-1.9392" gradientUnits="userSpaceOnUse">
<stop offset="0.3" stop-color="#FF84A6"/>
<stop offset="1" stop-color="#7F6300"/>
</linearGradient>
<linearGradient id="paint6_linear_746_14752" x1="159.214" y1="47.5386" x2="159.214" y2="68.6347" gradientUnits="userSpaceOnUse">
<stop offset="0.3" stop-color="#FF84A6"/>
<stop offset="1" stop-color="#7F6300"/>
</linearGradient>
<linearGradient id="paint7_linear_746_14752" x1="175.668" y1="47.5391" x2="175.668" y2="62.529" gradientUnits="userSpaceOnUse">
<stop offset="0.3" stop-color="#FF84A6"/>
<stop offset="1" stop-color="#7F6300"/>
</linearGradient>
<linearGradient id="paint8_linear_746_14752" x1="33.0151" y1="30" x2="33.0151" y2="69.358" gradientUnits="userSpaceOnUse">
<stop offset="0.3" stop-color="#FF84A6"/>
<stop offset="1" stop-color="#7F6300"/>
</linearGradient>
</defs>
</svg>
