<svg width="200" height="100" viewBox="0 0 200 100" fill="none" xmlns="http://www.w3.org/2000/svg">
<rect width="200" height="100" fill="white"/>
<g style="mix-blend-mode:luminosity">
<path d="M9 28.4941H19.8324C26.6821 28.4941 30.0292 32.2932 30.0292 39.2559V61.2738C30.0292 68.2364 26.6679 72.0355 19.8324 72.0355H9V28.4941ZM15.8497 34.7224V65.8355H19.7053C21.8802 65.8355 23.1937 64.7198 23.1937 61.5986V38.9452C23.1937 35.8381 21.8944 34.7083 19.7053 34.7083H15.8497V34.7224Z" fill="#00ACE6"/>
<path d="M34.0684 47.165H46.5108V53.3933H34.0684V47.165Z" fill="#00ACE6"/>
<path d="M60.3798 28C67.0318 28 70.4637 31.9827 70.4637 38.9454V40.3153H63.9953V38.5076C63.9953 35.4005 62.7525 34.2141 60.5776 34.2141C58.4026 34.2141 57.1598 35.4005 57.1598 38.5076C57.1598 47.4616 70.5343 49.1422 70.5343 61.5846C70.5343 68.5473 67.0459 72.53 60.3375 72.53C53.629 72.53 50.1406 68.5473 50.1406 61.5846V58.9154H56.609V62.0224C56.609 65.1295 57.9789 66.2594 60.1539 66.2594C62.3288 66.2594 63.6988 65.1436 63.6988 62.0224C63.6988 53.0684 50.3242 51.3878 50.3242 38.9454C50.3242 31.9827 53.742 28 60.4081 28H60.3798Z" fill="#00ACE6"/>
<path d="M81.2813 72.0496H74.4316V28.4941H81.2813V47.1507H89.0631V28.4941H96.0258V72.0496H89.0631V53.379H81.2813V72.0496Z" fill="#00ACE6"/>
<path d="M100.998 28.4941H107.848V72.0496H100.998V28.4941Z" fill="#00ACE6"/>
<path d="M119.668 46.8541H129.06V53.0824H119.668V65.8355H131.489V72.0638H112.818V28.4941H131.489V34.7083H119.668V46.84V46.8541Z" fill="#00ACE6"/>
<path d="M135.711 28.4941H142.561V65.8214H153.817V72.0496H135.711V28.4941Z" fill="#00ACE6"/>
<path d="M156.799 28.4941H167.631C174.481 28.4941 177.828 32.2932 177.828 39.2559V61.2738C177.828 68.2364 174.467 72.0355 167.631 72.0355H156.799V28.4941ZM163.649 34.7224V65.8355H167.504C169.679 65.8355 170.992 64.7198 170.992 61.5986V38.9452C170.992 35.8381 169.693 34.7083 167.504 34.7083H163.649V34.7224Z" fill="#00ACE6"/>
<path d="M180.102 28.1699H184.31V29.4128H182.884V36.8274H181.528V29.4128H180.102V28.1699Z" fill="#00ACE6"/>
<path d="M187.784 34.3135L188.716 28.1699H190.609V36.8274H189.323V30.6132L188.377 36.8274H187.092L186.075 30.7121V36.8274H184.889V28.1699H186.781L187.784 34.3135Z" fill="#00ACE6"/>
</g>
</svg>
