<svg width="200" height="100" viewBox="0 0 200 100" fill="none" xmlns="http://www.w3.org/2000/svg">
<rect width="200" height="100" fill="white"/>
<g style="mix-blend-mode:luminosity">
<path d="M50.3317 61.7607L37.1504 46.5883V61.7607H29V26H37.1504V40.6149L49.4157 26H59.305L44.9158 42.9512L61.5616 61.7607H50.3317Z" fill="#034B73"/>
<path d="M71.2656 54.6192H83.5841V61.774H63.1152V26H71.2656V54.6192Z" fill="#034B73"/>
<path d="M93.5132 26L100.973 37.4424L108.42 26H118.216L105.035 45.7255V61.7607H96.8848V45.7255L83.7168 26H93.5132Z" fill="#034B73"/>
<path d="M129.885 26C139.681 26 147.924 33.4601 147.924 43.8671C147.924 54.2741 139.734 61.774 129.885 61.774H119.518V26H129.885ZM128.929 54.4865C134.955 54.4865 139.07 49.8936 139.124 43.9069C139.124 37.9202 135.009 33.2875 128.929 33.2875H127.668V54.4865H128.929Z" fill="#034B73"/>
<path d="M171.977 33.1548H159.658V40.2698H171.446V47.4246H159.658V54.6192H171.977V61.774H151.508V26H171.977V33.1548Z" fill="#034B73"/>
<path d="M59.3312 66.3799C60.9109 66.3799 62.1056 67.2029 62.1056 68.8754C62.1056 70.548 60.9109 71.4905 59.3312 71.4905H58.2162V74.5037H56.3711V66.3799H59.3312ZM58.7472 70.0037C59.4773 70.0037 60.1675 69.7515 60.1675 68.9285C60.1675 68.1055 59.4773 67.84 58.7472 67.84H58.2295V69.9905H58.7472V70.0037Z" fill="#034B73"/>
<path d="M67.5737 67.9999H64.7729V69.6194H67.4542V71.2388H64.7729V72.8716H67.5737V74.491H62.9277V66.3672H67.5737V67.9866V67.9999Z" fill="#034B73"/>
<path d="M71.5446 66.3799C73.0578 66.3799 74.1994 67.2029 74.1994 68.7958C74.1994 70.017 73.5357 70.84 72.5401 71.1453L75.341 74.5037H72.9915L70.5092 71.2913V74.5037H68.6641V66.3799H71.5711H71.5446ZM70.7083 69.9772C71.4118 69.9772 72.2481 69.9241 72.2481 68.9153C72.2481 67.9064 71.4118 67.8533 70.7083 67.8533H70.4959V69.9772H70.7083Z" fill="#034B73"/>
<path d="M80.3831 67.9993H77.5424V69.6188H80.1707V71.2382H77.5424V74.5037H75.6973V66.3799H80.3963V67.9993H80.3831Z" fill="#034B73"/>
<path d="M85.0041 66.2207C87.2607 66.2207 89.0925 68.0525 89.0925 70.4286C89.0925 72.8047 87.3403 74.6498 85.0041 74.6498C82.6678 74.6498 80.9023 72.8047 80.9023 70.4286C80.9023 68.0525 82.7607 66.2207 85.0041 66.2207ZM85.0041 72.8578C86.4775 72.8578 87.0881 71.6499 87.0881 70.4286C87.0881 69.2074 86.4377 67.9994 85.0041 67.9994C83.5705 67.9994 82.9068 69.2074 82.9068 70.4286C82.9068 71.6499 83.4908 72.8578 85.0041 72.8578Z" fill="#034B73"/>
<path d="M92.8102 66.3799C94.3234 66.3799 95.465 67.2029 95.465 68.7958C95.465 70.017 94.8013 70.84 93.8058 71.1453L96.6066 74.5037H94.2571L91.7748 71.2913V74.5037H89.9297V66.3799H92.8367H92.8102ZM91.9739 69.9772C92.6774 69.9772 93.5137 69.9241 93.5137 68.9153C93.5137 67.9064 92.6774 67.8533 91.9739 67.8533H91.7615V69.9772H91.9739Z" fill="#034B73"/>
<path d="M103.296 69.6852H103.243L101.583 74.4506H100.481L98.8222 69.6852H98.7691L98.3842 74.5037H96.5391L97.2691 66.3799H99.2337L101.039 71.0657L102.844 66.3799H104.809L105.539 74.5037H103.694L103.309 69.6852H103.296Z" fill="#034B73"/>
<path d="M113.676 74.5037H111.685L111.088 72.8842H107.995L107.397 74.5037H105.406L108.685 66.3799H110.397L113.676 74.5037ZM109.548 68.8887H109.521L108.619 71.2515H110.45L109.548 68.8887Z" fill="#034B73"/>
<path d="M115.841 74.5037H113.996V66.3799H115.841L119.067 71.4241H119.08V66.3799H120.925V74.5037H119.08L115.854 69.4595H115.841V74.5037Z" fill="#034B73"/>
<path d="M128.038 72.3272L128.821 73.9069C128.821 73.9069 127.919 74.6502 126.153 74.6502C123.857 74.6502 121.746 72.7786 121.746 70.4556C121.746 68.1326 123.843 66.2344 126.153 66.2344C127.919 66.2344 128.821 66.9777 128.821 66.9777L128.038 68.5574C128.038 68.5574 127.388 68.0529 126.445 68.0529C124.587 68.0529 123.764 69.3538 123.764 70.4423C123.764 71.5308 124.587 72.8317 126.445 72.8317C127.388 72.8317 128.038 72.3272 128.038 72.3272Z" fill="#034B73"/>
<path d="M134.185 67.9999H131.384V69.6194H134.066V71.2388H131.384V72.8716H134.185V74.491H129.539V66.3672H134.185V67.9866V67.9999Z" fill="#034B73"/>
<path d="M143.463 66.9906L142.719 68.464C142.719 68.464 141.909 67.9065 141.073 67.9065C140.449 67.9065 140.104 68.1986 140.104 68.6366C140.104 69.0747 140.874 69.4198 141.803 69.8047C142.706 70.1897 143.701 70.9596 143.701 72.0215C143.701 73.9596 142.228 74.6366 140.635 74.6366C138.737 74.6366 137.582 73.5613 137.582 73.5613L138.511 72.0083C138.511 72.0083 139.6 72.9242 140.502 72.9242C140.901 72.9242 141.67 72.8844 141.67 72.1277C141.67 71.5304 140.808 71.2649 139.839 70.787C138.87 70.3092 138.299 69.5525 138.299 68.703C138.299 67.1897 139.64 66.2207 140.954 66.2207C142.427 66.2207 143.476 66.9906 143.476 66.9906H143.463Z" fill="#034B73"/>
<path d="M149.21 67.9999H146.41V69.6194H149.091V71.2388H146.41V72.8716H149.21V74.491H144.564V66.3672H149.21V67.9866V67.9999Z" fill="#034B73"/>
<path d="M153.168 66.3799C154.681 66.3799 155.822 67.2029 155.822 68.7958C155.822 70.017 155.159 70.84 154.163 71.1453L156.964 74.5037H154.614L152.132 71.2913V74.5037H150.287V66.3799H153.194H153.168ZM152.331 69.9772C153.035 69.9772 153.871 69.9241 153.871 68.9153C153.871 67.9064 153.035 67.8533 152.331 67.8533H152.119V69.9772H152.331Z" fill="#034B73"/>
<path d="M159.167 74.5037H157.322V66.3799H159.167V74.5037Z" fill="#034B73"/>
<path d="M165.007 67.9999H162.206V69.6194H164.888V71.2388H162.206V72.8716H165.007V74.491H160.361V66.3672H165.007V67.9866V67.9999Z" fill="#034B73"/>
<path d="M171.578 66.9906L170.834 68.464C170.834 68.464 170.025 67.9065 169.188 67.9065C168.564 67.9065 168.219 68.1986 168.219 68.6366C168.219 69.0747 168.989 69.4198 169.918 69.8047C170.821 70.1897 171.817 70.9596 171.817 72.0215C171.817 73.9596 170.343 74.6366 168.75 74.6366C166.852 74.6366 165.697 73.5613 165.697 73.5613L166.626 72.0083C166.626 72.0083 167.715 72.9242 168.618 72.9242C169.016 72.9242 169.786 72.8844 169.786 72.1277C169.786 71.5304 168.923 71.2649 167.954 70.787C166.985 70.3092 166.414 69.5525 166.414 68.703C166.414 67.1897 167.755 66.2207 169.069 66.2207C170.542 66.2207 171.591 66.9906 171.591 66.9906H171.578Z" fill="#034B73"/>
</g>
</svg>
