<svg width="200" height="100" viewBox="0 0 200 100" fill="none" xmlns="http://www.w3.org/2000/svg">
<rect width="200" height="100" fill="white"/>
<g style="mix-blend-mode:luminosity">
<path d="M58.7497 34.5914H76.7334C77.3567 34.5914 77.9433 34.5914 78.5116 34.5547V40.4943H77.9067C77.65 40.4943 77.4117 40.4026 77.2284 40.201C77.0451 40.0176 76.8984 39.7793 76.8068 39.486C76.7151 39.1927 76.6418 38.8444 76.5868 38.4228C76.4951 38.0194 76.4035 37.6711 76.2935 37.3595C76.2018 37.0478 76.0551 36.8095 75.8902 36.6079C75.7068 36.4246 75.4868 36.3146 75.1935 36.3146H60.2712C59.9779 36.3146 59.7579 36.4062 59.5746 36.6079C59.3913 36.7912 59.263 37.0478 59.153 37.3595C59.043 37.6711 58.9513 38.0194 58.878 38.4228C58.8047 38.8261 58.7313 39.1744 58.6397 39.4677C58.548 39.761 58.4197 39.9993 58.2547 40.201C58.0714 40.3843 57.8514 40.4943 57.5947 40.4943H56.9531V34.5547C57.5214 34.573 58.108 34.5914 58.7313 34.5914H58.7497ZM66.7058 63.0427H64.3959V62.4011C64.3959 62.0711 64.4693 61.8145 64.6159 61.6128C64.7626 61.4295 65.0192 61.2462 65.4042 61.0812C65.8075 60.9162 66.0642 60.7512 66.1925 60.5679C66.3025 60.3846 66.3758 60.1096 66.3758 59.7246V35.508H69.1073V59.7246C69.1073 60.1096 69.1806 60.3846 69.3273 60.5679C69.4739 60.7512 69.7122 60.9162 70.0789 61.0812C70.4822 61.2462 70.7572 61.4295 70.9222 61.6128C71.0688 61.7961 71.1605 62.0711 71.1605 62.4011V63.0427H66.7608H66.7058Z" fill="url(#paint0_linear_746_14957)"/>
<path d="M82.948 63.0423H80.9132V62.474C80.9132 62.1623 80.9682 61.9423 81.0782 61.7957C81.1882 61.649 81.4081 61.5024 81.7381 61.374C82.0498 61.2274 82.2697 61.0807 82.3981 60.9341C82.5264 60.7874 82.5997 60.5674 82.5997 60.2741V49.6782C82.5997 49.4582 82.5631 49.2749 82.4714 49.1282C82.3797 48.9816 82.2697 48.8532 82.1231 48.7982C81.9764 48.7249 81.8298 48.6516 81.7198 48.5416C81.5548 48.4866 81.4081 48.4316 81.2615 48.3399C81.1148 48.2483 81.0048 48.1566 80.9498 48.0283C80.8765 47.9 80.8398 47.6983 80.8398 47.4417V46.8734L85.1845 46.6534V60.2741C85.1845 60.5674 85.2579 60.7691 85.3862 60.9341C85.5145 61.0807 85.7162 61.2274 86.0095 61.374C86.3395 61.5207 86.5778 61.6674 86.7061 61.7957C86.8344 61.9423 86.9078 62.1623 86.9078 62.474V63.0423H83.003H82.948ZM82.4164 40.8605C82.1598 40.7138 81.9581 40.5121 81.8114 40.2372C81.6648 39.9622 81.5915 39.6689 81.5915 39.3572C81.5915 39.0456 81.6648 38.7339 81.8298 38.4773C81.9764 38.2206 82.1781 38.019 82.4347 37.8723C82.6914 37.7257 83.003 37.6523 83.3697 37.6523C83.7363 37.6523 83.9746 37.7257 84.2496 37.8723C84.5246 38.019 84.7262 38.2206 84.8546 38.4773C84.9829 38.7339 85.0562 39.0272 85.0562 39.3572C85.0562 39.6872 84.9829 39.9622 84.8546 40.2372C84.7262 40.5121 84.5246 40.7138 84.2496 40.8605C83.9746 41.0071 83.663 41.0804 83.3147 41.0804C82.9664 41.0804 82.6914 41.0071 82.4347 40.8605H82.4164Z" fill="url(#paint1_linear_746_14957)"/>
<path d="M92.3328 63.0419H90.2979V62.4736C90.2979 62.162 90.3529 61.942 90.4629 61.7953C90.5729 61.6487 90.7929 61.502 91.1229 61.3737C91.4345 61.227 91.6545 61.0804 91.7828 60.9337C91.9112 60.7871 91.9845 60.5671 91.9845 60.2738V49.6778C91.9845 49.4579 91.9478 49.2745 91.8562 49.1279C91.7645 48.9812 91.6545 48.8529 91.5079 48.7979C91.3612 48.7246 91.2145 48.6512 91.1045 48.5413C90.9396 48.4863 90.7929 48.4313 90.6462 48.3396C90.4996 48.2479 90.3896 48.1563 90.3346 48.0279C90.2613 47.8996 90.2246 47.698 90.2246 47.4413V46.873L94.001 46.653L93.9277 51.8044L93.891 53.2343C93.891 53.2893 93.891 53.3259 93.946 53.3443C93.9827 53.3626 94.0193 53.3809 94.0377 53.3809C94.2577 52.0243 94.606 50.8328 95.1193 49.7878C95.6326 48.7429 96.2559 47.9363 96.9891 47.3497C97.7224 46.763 98.529 46.4697 99.409 46.4697C100.289 46.4697 100.436 46.5981 100.876 46.8364C101.297 47.093 101.645 47.4047 101.884 47.808C102.14 48.2113 102.25 48.6696 102.25 49.1645C102.25 49.6595 102.085 50.3011 101.774 50.6311C101.462 50.9794 101.022 51.1444 100.472 51.1444C99.9223 51.1444 99.8673 51.0711 99.5923 50.9061C99.299 50.7594 99.0973 50.5394 98.9507 50.2461C98.804 49.9528 98.7307 49.6412 98.7307 49.2929C98.7307 48.9446 98.8224 48.5779 99.024 48.2296C99.2073 47.8813 99.5006 47.5513 99.9039 47.2397L100.014 48.0279C99.024 47.8446 98.1074 48.1379 97.2825 48.9079C96.4575 49.6962 95.7976 50.8511 95.3026 52.4093C94.8076 53.9675 94.5693 55.6908 94.5693 57.6156V60.2371C94.5693 60.5304 94.6426 60.7321 94.8076 60.8971C94.9543 61.0437 95.2109 61.1904 95.5409 61.337C95.9625 61.4837 96.2559 61.6304 96.4025 61.7587C96.5492 61.9053 96.6225 62.1253 96.6225 62.437V63.0053H92.3878L92.3328 63.0419Z" fill="url(#paint2_linear_746_14957)"/>
<path d="M106.797 62.9319C106.1 62.6019 105.587 62.1253 105.239 61.5204C104.89 60.9154 104.707 60.2004 104.707 59.3755C104.707 58.1473 105.11 57.1023 105.917 56.2224C106.724 55.3608 107.915 54.7008 109.473 54.2242C111.032 53.7659 112.956 53.5276 115.23 53.5276L115.083 54.9575C113.433 54.9575 112.022 55.1225 110.867 55.4524C109.712 55.7824 108.85 56.2591 108.245 56.864C107.658 57.469 107.365 58.2206 107.365 59.1189C107.365 60.0171 107.622 60.5304 108.117 61.0071C108.612 61.4837 109.29 61.722 110.152 61.722C111.013 61.722 111.6 61.5387 112.26 61.1537C112.938 60.7687 113.488 60.2738 113.91 59.6505C114.331 59.0272 114.551 58.3489 114.551 57.634L115.431 58.0189C115.321 59.0455 114.973 59.9621 114.405 60.7871C113.836 61.612 113.103 62.2536 112.187 62.7303C111.27 63.1886 110.262 63.4269 109.143 63.4269C108.025 63.4269 107.494 63.2619 106.797 62.9319ZM114.771 58.8805L114.551 58.4222V54.4442L114.515 54.0592V52.9593C114.515 51.2361 114.185 49.9528 113.543 49.1095C112.883 48.2663 111.893 47.8446 110.537 47.8446C109.18 47.8446 109.125 47.9546 108.52 48.1563C107.915 48.3763 107.384 48.6879 106.907 49.1095L107.054 47.9363C107.457 48.2479 107.75 48.5779 107.933 48.9446C108.117 49.3112 108.208 49.6778 108.208 50.0628C108.208 50.4478 108.135 50.7594 108.007 51.0344C107.878 51.3094 107.677 51.5294 107.42 51.676C107.164 51.8227 106.87 51.9144 106.54 51.9144C106.21 51.9144 105.899 51.841 105.642 51.676C105.367 51.5294 105.165 51.3094 105.019 51.0527C104.872 50.7961 104.799 50.4844 104.799 50.1361C104.799 49.4945 105.074 48.8896 105.624 48.3213C106.174 47.753 106.889 47.2947 107.805 46.9647C108.722 46.6347 109.748 46.4697 110.885 46.4697C112.022 46.4697 113.378 46.708 114.295 47.203C115.211 47.698 115.926 48.3946 116.403 49.3295C116.88 50.2645 117.136 51.4011 117.136 52.721V60.2554C117.136 60.5488 117.191 60.7504 117.301 60.9154C117.411 61.0621 117.613 61.227 117.924 61.392C118.273 61.502 118.511 61.6487 118.639 61.777C118.749 61.9237 118.823 62.1436 118.823 62.4553V63.0236H116.788L114.9 63.0602L114.79 58.8622L114.771 58.8805Z" fill="url(#paint3_linear_746_14957)"/>
<path d="M137.632 63.2626C136.972 63.1526 136.404 63.0243 135.89 62.8593C135.377 62.6943 134.882 62.511 134.424 62.3277C134.112 62.2177 133.819 62.1077 133.544 62.016C133.25 61.9244 132.994 61.8694 132.756 61.8694C132.517 61.8694 132.316 61.9244 132.169 62.0344C132.022 62.1444 131.857 62.2727 131.692 62.4377C131.509 62.621 131.326 62.7676 131.179 62.8776C131.032 62.9876 130.831 63.0426 130.592 63.0426H129.914V56.3331H130.592C130.886 56.3331 131.106 56.4247 131.307 56.5897C131.491 56.7547 131.692 57.048 131.876 57.4697C132.371 58.8262 133.269 59.8528 134.57 60.5861C135.872 61.3011 137.467 61.6677 139.373 61.6677C141.28 61.6677 142.82 61.2461 143.901 60.4028C144.983 59.5595 145.515 58.3679 145.515 56.7914C145.515 55.2148 145.276 54.8665 144.8 54.0782C144.323 53.29 143.553 52.5017 142.49 51.7501C141.427 50.9985 139.96 50.1185 138.109 49.1469C136.22 48.2486 134.68 47.3687 133.507 46.5254C132.334 45.6638 131.472 44.7655 130.922 43.8306C130.372 42.8773 130.097 41.8324 130.097 40.6958C130.097 39.5592 130.427 38.2577 131.106 37.2677C131.784 36.2778 132.756 35.5262 134.02 35.0129C135.285 34.4996 136.77 34.2246 138.475 34.2246C140.18 34.2246 141.097 34.4263 142.215 34.8296C143.333 35.2329 144.286 35.8195 145.093 36.6078L143.003 35.3979H146.816V40.5125H146.138C145.881 40.5125 145.643 40.4392 145.46 40.2742C145.276 40.1275 145.093 39.8342 144.928 39.3943C144.36 38.1293 143.535 37.2311 142.435 36.6994C141.353 36.1495 140.107 35.8745 138.732 35.8745C137.357 35.8745 136.422 36.0395 135.542 36.3878C134.68 36.7361 134.002 37.2311 133.525 37.8544C133.049 38.496 132.811 39.2476 132.811 40.0909C132.811 40.9341 133.049 41.7591 133.507 42.4924C133.965 43.2073 134.699 43.9223 135.689 44.6189C136.679 45.3155 137.999 46.0855 139.63 46.9104C141.757 47.937 143.461 48.9086 144.726 49.8435C145.991 50.7785 146.926 51.7684 147.495 52.795C148.081 53.8216 148.374 54.9765 148.374 56.2598C148.374 57.543 148.026 58.9912 147.311 60.0545C146.596 61.1178 145.588 61.9427 144.286 62.5293C142.985 63.116 141.463 63.4093 139.74 63.4093C138.017 63.4093 138.237 63.3543 137.595 63.2443L137.632 63.2626Z" fill="url(#paint4_linear_746_14957)"/>
<path d="M153.655 70.1367H151.62V69.5684C151.62 69.2568 151.675 69.0368 151.785 68.8902C151.895 68.7435 152.115 68.5968 152.445 68.4685C152.757 68.3219 152.977 68.1752 153.105 68.0286C153.233 67.8819 153.307 67.6619 153.307 67.3686V49.6598C153.307 49.4398 153.27 49.2565 153.178 49.1099C153.087 48.9632 152.977 48.8349 152.83 48.7799C152.683 48.7065 152.537 48.6332 152.427 48.5232C152.262 48.4682 152.115 48.4132 151.969 48.3216C151.822 48.2299 151.712 48.1383 151.657 48.0099C151.584 47.8816 151.547 47.68 151.547 47.4233V46.855L155.562 46.635V49.5865L155.855 51.4014V67.3686C155.855 67.6619 155.928 67.8819 156.093 68.0469C156.24 68.2119 156.497 68.3585 156.863 68.4685C157.248 68.6152 157.505 68.7618 157.67 68.8902C157.816 69.0368 157.908 69.2568 157.908 69.5684V70.1367H153.71H153.655ZM157.505 62.8039C156.662 62.3823 156.002 61.814 155.488 61.0807C154.993 60.3474 154.7 59.5225 154.627 58.5875L155.8 58.4775C155.8 59.1008 155.983 59.6508 156.332 60.1641C156.68 60.6774 157.193 61.0807 157.816 61.3923C158.458 61.704 159.155 61.8506 159.906 61.8506C160.658 61.8506 161.721 61.5757 162.454 61.0074C163.169 60.4574 163.738 59.6508 164.159 58.6059C164.581 57.5609 164.783 56.3144 164.783 54.8661C164.783 53.4179 164.581 52.208 164.178 51.163C163.774 50.1181 163.206 49.3115 162.473 48.7615C161.74 48.2116 160.878 47.9183 159.906 47.9183C158.935 47.9183 158.476 48.0649 157.853 48.3766C157.211 48.6882 156.717 49.1099 156.35 49.6598C155.983 50.2098 155.8 50.7781 155.8 51.3647L154.847 51.218C154.865 50.3198 155.14 49.5132 155.653 48.7799C156.167 48.0649 156.845 47.4783 157.688 47.0567C158.55 46.635 159.485 46.415 160.493 46.415C161.501 46.415 163.059 46.7634 164.141 47.46C165.223 48.1566 166.066 49.1465 166.671 50.4114C167.276 51.6763 167.569 53.1246 167.569 54.7745C167.569 56.4244 167.276 57.9642 166.671 59.2658C166.066 60.5857 165.223 61.594 164.123 62.3089C163.041 63.0239 161.795 63.3722 160.383 63.3722C158.971 63.3722 158.33 63.1706 157.486 62.7489L157.505 62.8039Z" fill="url(#paint5_linear_746_14957)"/>
<path d="M172.994 62.9319C172.298 62.6019 171.784 62.1253 171.436 61.5204C171.088 60.9154 170.904 60.2004 170.904 59.3755C170.904 58.1473 171.308 57.1023 172.114 56.2224C172.921 55.3608 174.112 54.7008 175.671 54.2242C177.229 53.7659 179.154 53.5276 181.427 53.5276L181.28 54.9575C179.63 54.9575 178.219 55.1225 177.064 55.4524C175.909 55.7824 175.047 56.2591 174.442 56.864C173.856 57.469 173.562 58.2206 173.562 59.1189C173.562 60.0171 173.819 60.5304 174.314 61.0071C174.809 61.4837 175.487 61.722 176.349 61.722C177.211 61.722 177.797 61.5387 178.457 61.1537C179.135 60.7687 179.685 60.2738 180.107 59.6505C180.529 59.0272 180.749 58.3489 180.749 57.634L181.629 58.0189C181.519 59.0455 181.17 59.9621 180.602 60.7871C180.034 61.612 179.3 62.2536 178.384 62.7303C177.467 63.1886 176.459 63.4269 175.341 63.4269C174.222 63.4269 173.691 63.2619 172.994 62.9319ZM180.95 58.8805L180.73 58.4222V54.4442L180.694 54.0592V52.9593C180.694 51.2361 180.364 49.9528 179.722 49.1095C179.062 48.2663 178.072 47.8446 176.716 47.8446C175.359 47.8446 175.304 47.9546 174.699 48.1563C174.094 48.3763 173.562 48.6879 173.086 49.1095L173.232 47.9363C173.636 48.2479 173.929 48.5779 174.112 48.9446C174.296 49.3112 174.387 49.6778 174.387 50.0628C174.387 50.4478 174.314 50.7594 174.186 51.0344C174.057 51.3094 173.856 51.5294 173.599 51.676C173.342 51.8227 173.049 51.9144 172.719 51.9144C172.389 51.9144 172.078 51.841 171.821 51.676C171.546 51.5294 171.344 51.3094 171.198 51.0527C171.051 50.7961 170.978 50.4844 170.978 50.1361C170.978 49.4945 171.253 48.8896 171.803 48.3213C172.353 47.753 173.067 47.2947 173.984 46.9647C174.901 46.6347 175.927 46.4697 177.064 46.4697C178.2 46.4697 179.557 46.708 180.474 47.203C181.39 47.698 182.105 48.3946 182.582 49.3295C183.058 50.2645 183.315 51.4011 183.315 52.721V60.2554C183.315 60.5488 183.37 60.7504 183.48 60.9154C183.59 61.0621 183.792 61.227 184.103 61.392C184.452 61.502 184.69 61.6487 184.818 61.777C184.928 61.9237 185.002 62.1436 185.002 62.4553V63.0236H182.967L181.079 63.0602L180.969 58.8622L180.95 58.8805Z" fill="url(#paint6_linear_746_14957)"/>
<mask id="mask0_746_14957" style="mask-type:luminance" maskUnits="userSpaceOnUse" x="14" y="29" width="42" height="42">
<path d="M33.102 44.3989C30.3705 41.4291 27.6574 41.5575 24.9259 43.6107C26.5758 44.7656 28.024 46.1588 29.2339 47.772C29.6189 48.2853 29.9856 48.817 30.3155 49.3669C30.3522 49.2386 30.3705 49.1103 30.4072 48.982C30.8655 47.2771 31.7271 45.7738 32.9737 44.5273L33.102 44.3989ZM24.3576 45.6455V49.6786C24.3576 51.9701 25.1276 54.1699 26.5575 55.9665C27.9324 57.708 29.8572 58.9546 32.0204 59.5046C32.6071 59.6696 33.1937 59.8345 33.7803 59.9812C33.5237 59.7612 33.2853 59.5229 33.047 59.2846C31.8188 58.038 30.9388 56.4614 30.4622 54.7749C30.4439 54.7016 30.4255 54.6466 30.4072 54.5732C29.8389 52.5384 28.904 50.6318 27.6391 48.9453C26.7041 47.6987 25.5859 46.5805 24.3576 45.6272V45.6455ZM35.9068 44.3989C38.6383 41.4291 41.3514 41.5575 44.0829 43.6107C42.433 44.7656 40.9848 46.1588 39.7749 47.772C39.3899 48.2853 39.0233 48.817 38.6933 49.3669C38.6566 49.2386 38.6383 49.1103 38.6016 48.982C38.1433 47.2771 37.2817 45.7738 36.0351 44.5273L35.9068 44.3989ZM34.4953 45.7922L34.6236 45.9205C35.6135 46.9104 36.3101 48.1387 36.6768 49.4953C37.0801 50.9802 37.0617 52.5567 36.6768 54.0233C36.6584 54.1149 36.6218 54.1883 36.6034 54.2799C36.2185 55.6365 35.5035 56.9197 34.5136 57.928C34.5136 57.928 34.5136 57.928 34.4953 57.9463C34.4953 57.9463 34.4953 57.9463 34.4769 57.928C33.4687 56.9197 32.772 55.6365 32.3871 54.2799C32.3687 54.2066 32.3504 54.1149 32.3137 54.0233C31.9288 52.5384 31.9104 50.9618 32.3137 49.4953C32.6804 48.1387 33.377 46.9288 34.3669 45.9205L34.4953 45.7922ZM44.6512 45.6455V49.6786C44.6512 51.9701 43.8813 54.1699 42.4514 55.9665C41.0765 57.708 39.1516 58.9546 36.9884 59.5046C36.4018 59.6696 35.8152 59.8345 35.2285 59.9812C35.4852 59.7612 35.7235 59.5229 35.9618 59.2846C37.1901 58.038 38.07 56.4614 38.5466 54.7749C38.565 54.7016 38.5833 54.6466 38.6016 54.5732C39.1699 52.5384 40.1049 50.6318 41.3698 48.9453C42.3047 47.6987 43.423 46.5805 44.6512 45.6272V45.6455ZM48.8493 61.1911V37.8361C48.8493 37.1028 48.556 36.4428 48.061 35.9479C47.5844 35.4712 46.9061 35.1596 46.1728 35.1596H22.8177C22.0844 35.1596 21.4245 35.4529 20.9295 35.9479C20.4529 36.4245 20.1412 37.1028 20.1412 37.8361V61.1911C20.1412 61.9244 20.4346 62.5844 20.9295 63.0793C21.4062 63.556 22.0844 63.8676 22.8177 63.8676H46.1728C46.9061 63.8676 47.566 63.5743 48.061 63.0793C48.5376 62.6027 48.8493 61.9244 48.8493 61.1911ZM29.8939 33.8397H39.1149L36.3835 31.1082C35.8702 30.5949 35.1735 30.3382 34.4953 30.3382C33.817 30.3382 33.1204 30.5949 32.6071 31.1082L29.8756 33.8397H29.8939ZM18.8213 54.1333V44.9122L16.0899 47.6437C15.5766 48.157 15.3199 48.8536 15.3199 49.5319C15.3199 50.2102 15.5766 50.9068 16.0899 51.4201L18.8213 54.1516V54.1333ZM39.1149 65.1875H29.8939L32.6254 67.919C33.1387 68.4323 33.8353 68.6889 34.5136 68.6889C35.1919 68.6889 35.8885 68.4323 36.4018 67.919L39.1333 65.1875H39.1149ZM50.1875 44.9122V54.1333L52.919 51.4018C53.4323 50.8885 53.6889 50.1919 53.6889 49.5136C53.6889 48.8353 53.4323 48.1387 52.919 47.6254L50.1875 44.8939V44.9122ZM50.1875 37.8361V43.024L53.8539 46.6904C54.6239 47.4604 55.0272 48.487 55.0272 49.5136C55.0272 50.5402 54.6422 51.5668 53.8539 52.3367L50.1875 56.0031V61.1911C50.1875 62.291 49.7292 63.2993 49.0143 64.0143C48.281 64.7475 47.291 65.1875 46.1911 65.1875H41.0031L37.3367 68.8539C36.5668 69.6239 35.5402 70.0272 34.5136 70.0272C33.487 70.0272 32.4604 69.6422 31.6905 68.8539L28.024 65.1875H22.8361C21.7361 65.1875 20.7279 64.7292 20.0129 64.0143C19.2796 63.281 18.8397 62.291 18.8397 61.1911V56.0031L15.1733 52.3367C14.4033 51.5668 14 50.5402 14 49.5136C14 48.487 14.385 47.4604 15.1733 46.6904L18.8397 43.024V37.8361C18.8397 36.7361 19.298 35.7279 20.0129 35.0129C20.7462 34.2796 21.7361 33.8397 22.8361 33.8397H28.024L31.6905 30.1733C32.4604 29.4033 33.487 29 34.5136 29C35.5402 29 36.5668 29.385 37.3367 30.1733L41.0031 33.8397H46.1911C47.291 33.8397 48.2993 34.298 49.0143 35.0129C49.7475 35.7462 50.1875 36.7361 50.1875 37.8361ZM34.4953 39.046L32.5337 41.0075L34.4953 42.969L36.4568 41.0075L34.4953 39.046Z" fill="white"/>
</mask>
<g mask="url(#mask0_746_14957)">
<path d="M55.0088 29H14V70.0088H55.0088V29Z" fill="url(#paint7_linear_746_14957)"/>
</g>
</g>
<defs>
<linearGradient id="paint0_linear_746_14957" x1="67.2191" y1="63.0977" x2="67.8057" y2="34.3347" gradientUnits="userSpaceOnUse">
<stop stop-color="#A06F61"/>
<stop offset="1" stop-color="#D4AA93"/>
</linearGradient>
<linearGradient id="paint1_linear_746_14957" x1="83.663" y1="63.0973" x2="84.1946" y2="37.6707" gradientUnits="userSpaceOnUse">
<stop stop-color="#A06F61"/>
<stop offset="1" stop-color="#D4AA93"/>
</linearGradient>
<linearGradient id="paint2_linear_746_14957" x1="95.8892" y1="63.1519" x2="96.2375" y2="46.3964" gradientUnits="userSpaceOnUse">
<stop stop-color="#A06F61"/>
<stop offset="1" stop-color="#D4AA93"/>
</linearGradient>
<linearGradient id="paint3_linear_746_14957" x1="111.637" y1="63.4819" x2="111.985" y2="46.4881" gradientUnits="userSpaceOnUse">
<stop stop-color="#A06F61"/>
<stop offset="1" stop-color="#D4AA93"/>
</linearGradient>
<linearGradient id="paint4_linear_746_14957" x1="138.97" y1="63.4093" x2="139.557" y2="34.2246" gradientUnits="userSpaceOnUse">
<stop stop-color="#A06F61"/>
<stop offset="1" stop-color="#D4AA93"/>
</linearGradient>
<linearGradient id="paint5_linear_746_14957" x1="159.155" y1="70.3017" x2="159.65" y2="46.4517" gradientUnits="userSpaceOnUse">
<stop stop-color="#A06F61"/>
<stop offset="1" stop-color="#D4AA93"/>
</linearGradient>
<linearGradient id="paint6_linear_746_14957" x1="177.815" y1="63.4819" x2="178.164" y2="46.4881" gradientUnits="userSpaceOnUse">
<stop stop-color="#A06F61"/>
<stop offset="1" stop-color="#D4AA93"/>
</linearGradient>
<linearGradient id="paint7_linear_746_14957" x1="34.1836" y1="65.1875" x2="34.7152" y2="39.046" gradientUnits="userSpaceOnUse">
<stop stop-color="#A06F61"/>
<stop offset="1" stop-color="#D4AA93"/>
</linearGradient>
</defs>
</svg>
