<svg width="200" height="100" viewBox="0 0 200 100" fill="none" xmlns="http://www.w3.org/2000/svg">
<rect width="200" height="100" fill="white"/>
<g style="mix-blend-mode:luminosity">
<path d="M22.029 43.5239L24.6351 43.5345L28.9468 36.0658L27.6331 33.8199L26.6373 32.1037L25.5885 30.3027L17.9609 43.5027L20.0479 43.5133L22.029 43.5239Z" fill="#EC4237"/>
<path d="M29.9001 37.6973L26.5312 43.5451L33.3325 43.5769L29.9001 37.6973Z" fill="#EC4237"/>
<path d="M55.4629 43.5772L62.0417 43.5454L58.7576 37.9307L55.4629 43.5772Z" fill="#EC4237"/>
<path d="M61.1623 33.81L59.7109 36.2889L63.9485 43.5351L66.7665 43.5245L68.7475 43.514L70.7815 43.5034L63.1434 30.4199L62.1581 32.0938L61.1623 33.81Z" fill="#EC4237"/>
<path d="M51.9364 24H36.8613L44.3936 37.1894L51.9364 24Z" fill="#EC4237"/>
<path d="M73.1127 47.4866L71.7885 45.2301H69.1294L68.7481 45.2407H67.7522L59.828 45.2831H57.8364L52.4547 45.3149L55.1667 40.6642L56.1731 38.9374L60.167 32.1043L60.6649 31.2462L62.1375 28.7249L60.8132 26.4684C59.934 24.9323 58.3025 24 56.5439 24H53.9166L45.378 38.9268H54.7006L53.7048 40.6536H35.0913L34.0849 38.9268H43.4075L34.8794 24H32.0721C30.3029 24 28.6714 24.9429 27.7921 26.479L26.5738 28.5871L27.9298 30.9178L28.1311 31.2462L28.629 32.1043L32.6229 38.948L33.6294 40.6748L36.3414 45.3255L30.9491 45.3043H28.9575L21.0438 45.2725H20.048H19.6666H16.9652L15.6621 47.5078C14.7723 49.0439 14.7828 50.9402 15.6727 52.4763L16.997 54.7434L34.3497 54.6693L29.6778 46.5967H31.6695L40.9815 62.7206L39.9963 64.4474L35.3244 56.3749L26.648 71.2593L27.9722 73.5158C28.8621 75.0307 30.483 75.963 32.2416 75.963H34.8794L36.3096 73.4522L36.7969 72.5941L40.7273 65.7187L41.7125 63.9919L44.3821 59.3094L47.0518 63.9813L48.0476 65.7187L51.9674 72.5941L52.4653 73.4522L52.6454 73.7806L53.8954 75.963H56.7028C58.472 75.963 60.1035 75.0201 60.9827 73.484L62.201 71.3758L60.845 69.0452L60.6543 68.7168L60.1564 67.8587L53.4505 56.3643L48.7892 64.4368L47.804 62.6994L57.116 46.5861H59.1076L54.4463 54.6481L67.7628 54.7116H68.7587H69.14H71.8415L73.1445 52.4763C74.0344 50.9402 74.0238 49.0439 73.1339 47.5078L73.1127 47.4866Z" fill="#EC4237"/>
<path d="M18.0137 56.4277L25.6519 69.5111L33.3324 56.3535L18.0137 56.4277Z" fill="#EC4237"/>
<path d="M66.7666 56.4065L55.4629 56.3535L61.1624 66.1105L62.1582 67.8267L63.207 69.6276L70.8346 56.4277L68.7476 56.4171L66.7666 56.4065Z" fill="#EC4237"/>
<path d="M41.1836 68.3781H47.6141L44.4041 62.7422L41.1836 68.3781Z" fill="#EC4237"/>
<path d="M49.9969 72.5621L48.5561 70.0195L40.2399 70.0301L38.7886 72.5515L37.814 74.2783L36.8711 75.9309H51.925L50.9927 74.2783L49.9969 72.5621Z" fill="#EC4237"/>
<path d="M109.927 49.9649C111.569 51.7023 112.385 53.8634 112.385 56.4695C112.385 58.4294 111.887 60.2092 110.891 61.8194C109.895 63.4297 108.391 64.701 106.389 65.6438C104.387 66.5867 101.939 67.0634 99.0472 67.0634C96.6424 67.0634 94.3224 66.7138 92.0871 66.0252C89.8517 65.3366 87.9554 64.3831 86.377 63.1649L89.0784 58.3023C90.2967 59.3299 91.7798 60.1456 93.5278 60.7389C95.2758 61.3321 97.0874 61.6287 98.9413 61.6287C101.155 61.6287 102.893 61.1732 104.164 60.2515C105.435 59.3405 106.071 58.0904 106.071 56.5225C106.071 54.9546 105.467 53.7257 104.27 52.8358C103.062 51.9565 101.23 51.5116 98.7612 51.5116H95.6784V47.2211L103.338 38.1209H88.0296V32.877H110.997V37.0615L102.808 46.7867C105.923 47.1681 108.296 48.2275 109.938 49.9649H109.927Z" fill="#EC4237"/>
<path d="M140.893 58.7798H124.038L120.711 66.5769H114.26L129.43 32.8672H135.596L150.809 66.5769H144.262L140.893 58.7798ZM138.816 53.8643L132.46 39.1282L126.157 53.8643H138.816Z" fill="#EC4237"/>
<path d="M166.699 52.4659L161.349 57.9535V66.5769H155.088V32.8672H161.349V50.1564L178.013 32.8672H185.047L170.894 47.9423L185.916 66.5769H178.596L166.699 52.4659Z" fill="#EC4237"/>
</g>
</svg>
