<svg width="200" height="100" viewBox="0 0 200 100" fill="none" xmlns="http://www.w3.org/2000/svg">
<rect width="200" height="100" fill="white"/>
<g style="mix-blend-mode:luminosity">
<path d="M110.792 58.4561V66.8671H109.412V58.4561H110.792Z" fill="#010101"/>
<path d="M117.376 60.415C117.799 60.6375 118.111 60.9491 118.355 61.3941C118.578 61.8169 118.711 62.3286 118.711 62.9517V66.8902H117.354V63.1519C117.354 62.5512 117.198 62.1061 116.909 61.7724C116.62 61.4608 116.197 61.3051 115.685 61.3051C115.173 61.3051 114.751 61.4608 114.461 61.7724C114.15 62.0839 114.016 62.5512 114.016 63.1519V66.8902H112.637V60.2148H114.016V60.9713C114.239 60.7043 114.528 60.4818 114.884 60.326C115.24 60.1703 115.618 60.1035 115.997 60.1035C116.531 60.1035 116.998 60.2148 117.399 60.4373L117.376 60.415Z" fill="#010101"/>
<path d="M120.425 61.7269C120.693 61.2151 121.093 60.8145 121.56 60.5253C122.05 60.236 122.584 60.1025 123.162 60.1025C123.607 60.1025 124.03 60.1915 124.453 60.3918C124.876 60.592 125.21 60.8368 125.454 61.1483V57.9219H126.856V66.8892H125.454V65.8879C125.232 66.2216 124.92 66.4664 124.52 66.6889C124.119 66.8892 123.652 67.0004 123.14 67.0004C122.562 67.0004 122.028 66.8447 121.538 66.5554C121.049 66.2661 120.67 65.8433 120.403 65.3093C120.136 64.7753 119.98 64.1745 119.98 63.507C119.98 62.8394 120.114 62.2386 120.403 61.7269H120.425ZM125.187 62.3276C124.987 61.9939 124.742 61.7269 124.453 61.5488C124.141 61.3708 123.808 61.2818 123.452 61.2818C123.096 61.2818 122.762 61.3708 122.45 61.5488C122.139 61.7269 121.894 61.9716 121.716 62.3054C121.516 62.6392 121.427 63.0397 121.427 63.507C121.427 63.9742 121.516 64.3748 121.716 64.7085C121.916 65.0645 122.161 65.3093 122.473 65.5096C122.784 65.6876 123.118 65.7766 123.452 65.7766C123.785 65.7766 124.141 65.6876 124.453 65.5096C124.765 65.3316 125.009 65.0646 125.187 64.7308C125.388 64.397 125.477 63.9965 125.477 63.5292C125.477 63.0619 125.388 62.6614 125.187 62.3276Z" fill="#010101"/>
<path d="M128.749 59.0572C128.571 58.8792 128.504 58.679 128.504 58.4342C128.504 58.1894 128.593 57.9669 128.749 57.8112C128.904 57.6554 129.127 57.5664 129.372 57.5664C129.616 57.5664 129.817 57.6554 129.995 57.8112C130.173 57.9669 130.24 58.1894 130.24 58.4342C130.24 58.679 130.151 58.9015 129.995 59.0572C129.817 59.2353 129.616 59.302 129.372 59.302C129.127 59.302 128.904 59.213 128.749 59.0572ZM130.062 60.1921V66.8675H128.682V60.1921H130.062Z" fill="#010101"/>
<path d="M131.819 61.7279C132.109 61.2161 132.487 60.8156 132.954 60.5263C133.444 60.237 133.955 60.1035 134.556 60.1035C135.09 60.1035 135.535 60.2148 135.936 60.415C136.336 60.6153 136.648 60.8823 136.87 61.1938V60.2148H138.272V66.8902H136.87V65.8889C136.626 66.2004 136.314 66.4674 135.914 66.6677C135.513 66.8679 135.046 66.9792 134.534 66.9792C133.955 66.9792 133.444 66.8234 132.954 66.5341C132.487 66.2449 132.109 65.8221 131.819 65.2881C131.552 64.754 131.396 64.1533 131.396 63.4857C131.396 62.8182 131.53 62.2174 131.819 61.7056V61.7279ZM136.581 62.3286C136.381 61.9949 136.136 61.7279 135.847 61.5499C135.535 61.3718 135.201 61.2828 134.845 61.2828C134.489 61.2828 134.156 61.3718 133.844 61.5499C133.533 61.7279 133.288 61.9726 133.11 62.3064C132.91 62.6402 132.821 63.0407 132.821 63.508C132.821 63.9752 132.91 64.3758 133.11 64.7095C133.31 65.0656 133.555 65.3103 133.866 65.5106C134.178 65.6886 134.512 65.7776 134.845 65.7776C135.179 65.7776 135.535 65.6886 135.847 65.5106C136.158 65.3326 136.403 65.0656 136.581 64.7318C136.781 64.398 136.87 63.9975 136.87 63.5302C136.87 63.0629 136.781 62.6624 136.581 62.3286Z" fill="#010101"/>
<path d="M148.795 62.173C148.595 62.5513 148.261 62.8628 147.816 63.1076C147.371 63.3523 146.792 63.4636 146.102 63.4636H144.567V66.868H143.188V58.457H146.102C146.748 58.457 147.304 58.5683 147.749 58.7908C148.194 59.0133 148.528 59.3026 148.75 59.7031C148.973 60.0814 149.084 60.5042 149.084 60.9714C149.084 61.3942 148.973 61.7947 148.773 62.173H148.795ZM147.304 61.9727C147.571 61.728 147.682 61.3942 147.682 60.9714C147.682 60.0591 147.17 59.5918 146.125 59.5918H144.589V62.351H146.125C146.659 62.351 147.037 62.2398 147.304 61.995V61.9727Z" fill="#010101"/>
<path d="M153.003 65.6442L154.894 60.2148H156.362L153.826 66.8902H152.179L149.643 60.2148H151.111L153.003 65.6442Z" fill="#010101"/>
<path d="M159.01 61.3259V65.0196C159.01 65.2644 159.077 65.4424 159.188 65.5537C159.299 65.6649 159.499 65.7094 159.789 65.7094H160.634V66.8665H159.544C158.921 66.8665 158.454 66.7107 158.12 66.4215C157.786 66.1322 157.63 65.6649 157.63 64.9974V61.3037H156.852V60.1688H157.63V58.5H159.032V60.1688H160.657V61.3037H159.032L159.01 61.3259Z" fill="#010101"/>
<path d="M161.835 66.6901C161.657 66.512 161.59 66.3118 161.59 66.067C161.59 65.8223 161.679 65.5997 161.835 65.444C162.013 65.266 162.213 65.1992 162.458 65.1992C162.702 65.1992 162.903 65.2882 163.081 65.444C163.259 65.5997 163.325 65.8223 163.325 66.067C163.325 66.3118 163.236 66.5343 163.081 66.6901C162.903 66.8681 162.702 66.9348 162.458 66.9348C162.213 66.9348 161.99 66.8458 161.835 66.6901Z" fill="#010101"/>
<path d="M169.333 65.7555H172.181V66.868H167.953V58.457H169.333V65.7555Z" fill="#010101"/>
<path d="M174.944 61.3259V65.0196C174.944 65.2644 175.01 65.4424 175.122 65.5537C175.233 65.6649 175.433 65.7094 175.722 65.7094H176.568V66.8665H175.478C174.855 66.8665 174.387 66.7107 174.053 66.4215C173.72 66.1322 173.564 65.6649 173.564 64.9974V61.3037H172.785V60.1688H173.564V58.5H174.966V60.1688H176.59V61.3037H174.966L174.944 61.3259Z" fill="#010101"/>
<path d="M177.791 61.7269C178.08 61.2151 178.458 60.8145 178.926 60.5253C179.415 60.236 179.949 60.1025 180.528 60.1025C180.973 60.1025 181.395 60.1915 181.818 60.3918C182.241 60.592 182.575 60.8368 182.82 61.1483V57.9219H184.221V66.8892H182.82V65.8879C182.597 66.2216 182.285 66.4664 181.885 66.6889C181.484 66.8892 181.017 67.0004 180.505 67.0004C179.927 67.0004 179.393 66.8447 178.903 66.5554C178.414 66.2661 178.035 65.8433 177.768 65.3093C177.501 64.7753 177.346 64.1745 177.346 63.507C177.346 62.8394 177.479 62.2386 177.768 61.7269H177.791ZM182.553 62.3276C182.352 61.9939 182.107 61.7269 181.818 61.5488C181.507 61.3708 181.173 61.2818 180.817 61.2818C180.461 61.2818 180.127 61.3708 179.816 61.5488C179.504 61.7269 179.259 61.9716 179.081 62.3054C178.881 62.6392 178.792 63.0397 178.792 63.507C178.792 63.9742 178.881 64.3748 179.081 64.7085C179.282 65.0645 179.526 65.3093 179.838 65.5096C180.149 65.6876 180.483 65.7766 180.817 65.7766C181.151 65.7766 181.507 65.6876 181.818 65.5096C182.13 65.3316 182.375 65.0646 182.553 64.7308C182.753 64.397 182.842 63.9965 182.842 63.5292C182.842 63.0619 182.753 62.6614 182.553 62.3276Z" fill="#010101"/>
<path d="M185.977 66.6901C185.799 66.512 185.732 66.3118 185.732 66.067C185.732 65.8223 185.821 65.5997 185.977 65.444C186.155 65.266 186.355 65.1992 186.6 65.1992C186.845 65.1992 187.045 65.2882 187.223 65.444C187.401 65.5997 187.468 65.8223 187.468 66.067C187.468 66.3118 187.379 66.5343 187.223 66.6901C187.045 66.8681 186.845 66.9348 186.6 66.9348C186.355 66.9348 186.133 66.8458 185.977 66.6901Z" fill="#010101"/>
<path fill-rule="evenodd" clip-rule="evenodd" d="M33.8061 52.1358C29.8898 52.9368 26.1961 50.1332 25.9958 46.1502C25.8401 43.0127 28.1097 40.0533 31.1804 39.4303C34.0063 38.8517 36.7877 40.6764 37.3663 43.5023C37.7668 45.4381 37.0325 47.374 35.6084 48.5533C35.0521 48.4421 34.4958 48.2863 33.9396 48.1306C34.4958 48.3086 35.0521 48.4421 35.6084 48.5533C34.9631 49.1096 34.1843 49.4879 33.2943 49.6881C30.6464 50.1554 28.2432 48.0415 28.3767 45.3491C28.8218 47.4853 30.9134 48.8648 33.0495 48.4198C35.1856 47.9748 36.5652 45.8832 36.1202 43.747C35.6752 41.6109 33.5835 40.2313 31.4474 40.6764C24.7498 42.0559 26.5966 52.2916 33.539 50.8452C34.9854 50.5559 36.2092 49.7994 37.0992 48.7536C37.6333 48.7981 38.1451 48.8203 38.6791 48.7981C37.5888 50.4447 35.8754 51.6685 33.7838 52.1135L33.8061 52.1358Z" fill="#F79149"/>
<path d="M35.6084 48.5533C37.0325 47.374 37.7668 45.4381 37.3663 43.5023C36.7877 40.6764 34.0063 38.8517 31.1804 39.4303C28.1097 40.0533 25.8401 43.0127 25.9958 46.1502C26.1961 50.1332 29.8898 52.9368 33.8061 52.1358L33.7838 52.1135C35.8754 51.6685 37.5888 50.4447 38.6791 48.7981C38.1451 48.8203 37.6333 48.7981 37.0992 48.7536C36.2092 49.7994 34.9854 50.5559 33.539 50.8452C26.5966 52.2916 24.7498 42.0559 31.4474 40.6764C33.5835 40.2313 35.6752 41.6109 36.1202 43.747C36.5652 45.8832 35.1856 47.9748 33.0495 48.4198C30.9134 48.8648 28.8218 47.4853 28.3767 45.3491C28.2432 48.0415 30.6464 50.1554 33.2943 49.6881C34.1843 49.4879 34.9631 49.1096 35.6084 48.5533ZM35.6084 48.5533C35.0521 48.4421 34.4958 48.2863 33.9396 48.1306C34.4958 48.3086 35.0521 48.4421 35.6084 48.5533Z" stroke="#F7934C" stroke-width="0.25" stroke-miterlimit="10"/>
<path d="M41.4805 45.2163C41.4805 41.033 44.3954 38.3184 48.4006 38.3184C52.4059 38.3184 55.4098 41.211 55.4098 45.194C55.4098 49.177 52.4949 51.9584 48.6899 51.9584C46.22 51.9584 44.1951 50.8014 43.2383 48.8432V57.1652H41.4805V45.2163ZM53.6297 45.1495C53.6297 42.1678 51.5381 39.9427 48.4229 39.9427C45.3077 39.9427 43.2161 42.1456 43.2161 45.1495C43.2161 48.1534 45.2854 50.3563 48.4229 50.3563C51.5603 50.3563 53.6297 48.1534 53.6297 45.1495Z" fill="#010101" stroke="#010101" stroke-width="0.25" stroke-miterlimit="10"/>
<path d="M58.2812 45.2163C58.2812 41.033 61.1962 38.3184 65.2014 38.3184C69.2067 38.3184 72.2106 41.211 72.2106 45.194C72.2106 49.177 69.2957 51.9584 65.4907 51.9584C63.0208 51.9584 60.9959 50.8014 60.0391 48.8432V57.1652H58.2812V45.2163ZM70.4305 45.1495C70.4305 42.1678 68.3389 39.9427 65.2237 39.9427C62.1085 39.9427 60.0169 42.1456 60.0169 45.1495C60.0169 48.1534 62.0862 50.3563 65.2237 50.3563C68.3611 50.3563 70.4305 48.1534 70.4305 45.1495Z" fill="#010101" stroke="#010101" stroke-width="0.25" stroke-miterlimit="10"/>
<path d="M74.5898 45.2163C74.5898 41.1665 77.4825 38.3184 81.5768 38.3184C85.671 38.3184 88.5414 41.122 88.5414 45.2163V51.6247H86.9171V48.4205C86.0048 50.7346 83.8464 51.9584 81.332 51.9584C77.6828 51.9584 74.6121 49.355 74.6121 45.2163H74.5898ZM86.7613 45.1495C86.7613 42.1678 84.6697 39.9427 81.5545 39.9427C78.4393 39.9427 76.3477 42.1456 76.3477 45.1495C76.3477 48.1534 78.4393 50.3563 81.5545 50.3563C84.6697 50.3563 86.7613 48.1534 86.7613 45.1495Z" fill="#010101" stroke="#010101" stroke-width="0.25" stroke-miterlimit="10"/>
<path d="M100.201 34.4688H108.501C111.616 34.4688 113.329 36.2711 113.329 38.83C113.329 40.6324 112.417 42.0565 110.86 42.724V42.7685C112.884 43.3025 114.108 44.9714 114.108 47.1075C114.108 49.7332 112.35 51.6468 109.168 51.6468H100.201V34.491V34.4688ZM108.367 42.012C110.326 42.012 111.438 40.8104 111.438 39.097C111.438 37.3837 110.504 36.1821 108.278 36.1821H102.093V42.012H108.367ZM108.946 49.8889C111.149 49.8889 112.195 48.5983 112.195 46.8182C112.195 45.0381 110.993 43.7476 108.99 43.7476H102.093V49.8889H108.946Z" fill="#010101" stroke="#010101" stroke-width="0.25" stroke-miterlimit="10"/>
<path d="M116.4 45.2163C116.4 41.1665 119.293 38.3184 123.387 38.3184C127.482 38.3184 130.352 41.122 130.352 45.2163V51.6247H128.728V48.4205C127.815 50.7346 125.657 51.9584 123.143 51.9584C119.493 51.9584 116.423 49.355 116.423 45.2163H116.4ZM128.572 45.1495C128.572 42.1678 126.48 39.9427 123.365 39.9427C120.25 39.9427 118.158 42.1456 118.158 45.1495C118.158 48.1534 120.25 50.3563 123.365 50.3563C126.48 50.3563 128.572 48.1534 128.572 45.1495Z" fill="#010101" stroke="#010101" stroke-width="0.25" stroke-miterlimit="10"/>
<path d="M134.246 33H136.004V44.4594L142.88 38.6518H145.35L137.873 44.949L145.617 51.6244H143.124L136.004 45.4607V51.6244H134.246V33Z" fill="#010101" stroke="#010101" stroke-width="0.25" stroke-miterlimit="10"/>
<path d="M147.021 45.1495C147.021 41.211 149.914 38.3184 154.008 38.3184C158.102 38.3184 160.928 41.211 160.928 45.1495V45.7281H148.823C149.068 48.4205 151.071 50.3563 153.986 50.3563C156.033 50.3563 157.613 49.5108 158.436 48.0199H160.35C159.348 50.4008 156.99 51.9807 153.963 51.9807C149.869 51.9807 146.977 49.088 146.977 45.1495H147.021ZM159.081 44.1482C158.659 41.5226 156.611 39.9427 153.986 39.9427C151.36 39.9427 149.268 41.5893 148.868 44.1482H159.081Z" fill="#010101" stroke="#010101" stroke-width="0.25" stroke-miterlimit="10"/>
<path d="M163.795 43.8589C163.795 40.143 166.02 38.3184 169.246 38.3184C172.473 38.3184 174.676 40.1207 174.676 43.8812V44.037H172.94V43.8589C172.94 41.1665 171.449 39.9427 169.246 39.9427C167.044 39.9427 165.553 41.1443 165.553 43.8589V51.6247H163.795V43.8589Z" fill="#010101" stroke="#010101" stroke-width="0.25" stroke-miterlimit="10"/>
<path d="M176.703 47.9752H178.483C178.572 49.3771 179.818 50.3561 181.999 50.3561C184.18 50.3561 185.515 49.3103 185.515 47.9085C185.515 46.3286 183.868 46.1506 181.999 45.9059C179.663 45.6166 177.015 45.2383 177.015 42.3901C177.015 39.9425 178.928 38.2959 181.977 38.2959C185.025 38.2959 186.894 39.9647 186.939 42.1899H185.203C185.114 40.8993 183.935 39.898 181.954 39.898C179.974 39.898 178.772 40.8993 178.772 42.2344C178.772 43.8365 180.441 44.0145 182.288 44.2593C184.313 44.5263 187.295 44.8378 187.295 47.775C187.295 50.2449 185.225 51.9582 181.999 51.9582C178.773 51.9582 176.77 50.2449 176.703 47.9752Z" fill="#010101" stroke="#010101" stroke-width="0.25" stroke-miterlimit="10"/>
<path d="M20.188 39.1406H21.1893V51.1786C21.1893 51.7794 20.6998 52.2689 20.099 52.2689H19.0977V40.2309C19.0977 39.6302 19.5872 39.1406 20.188 39.1406Z" fill="#010101"/>
<path d="M24.9961 35.915H15.25V38.0067H24.9961V35.915Z" fill="#010101"/>
<path d="M24.7734 35.915H28.3114V36.9164C28.3114 37.5171 27.8219 38.0067 27.2211 38.0067H24.7957V35.915H24.7734Z" fill="#010101"/>
<path d="M12 35.915H15.538V38.0067H13.0903C12.4895 38.0067 12 37.5171 12 36.9164V35.915Z" fill="#010101"/>
</g>
</svg>
