<svg width="200" height="100" viewBox="0 0 200 100" fill="none" xmlns="http://www.w3.org/2000/svg">
<rect width="200" height="100" fill="white"/>
<g style="mix-blend-mode:luminosity">
<path d="M64.373 75.6406V81.2721H64.3416L61.809 75.6406H60V84.8271H61.6989V78.708H61.7303L64.4517 84.8271H66.0719V75.6406H64.373Z" fill="#ED372F"/>
<path d="M70.1633 77.4181H71.1072C71.6577 77.4181 72.0824 77.6856 72.3656 78.2047C72.6487 78.708 72.7903 79.3844 72.7903 80.2496C72.7903 81.0991 72.6487 81.7755 72.3656 82.2946C72.0824 82.7979 71.6577 83.0653 71.1072 83.0811H70.1633V77.4496V77.4181ZM68.2285 84.8271H71.1229C71.9094 84.8271 72.5858 84.6069 73.1207 84.1979C73.6555 83.7889 74.0645 83.2384 74.3476 82.5462C74.6308 81.8541 74.7566 81.0833 74.7723 80.2339C74.7723 79.3844 74.6308 78.6137 74.3476 77.9215C74.0645 77.2294 73.6555 76.6788 73.1207 76.2698C72.5858 75.8608 71.9094 75.6406 71.1229 75.6406H68.2285V84.8271Z" fill="#ED372F"/>
<path d="M81.0789 77.4181V75.6406H75.998V77.4181H77.5711V84.8271H79.5059V77.4181H81.0789Z" fill="#ED372F"/>
<path d="M84.9799 80.4229H81.8181V82.0273H84.9799V80.4229Z" fill="#ED372F"/>
<path d="M88.5175 84.8266V79.903C88.5175 79.6356 88.5962 79.4311 88.7378 79.321C88.8793 79.2109 89.0838 79.1637 89.3355 79.1637C89.5872 79.1637 89.7917 79.2266 89.9018 79.3525C90.0119 79.4783 90.0749 79.6986 90.0749 79.9974V84.8266H91.7737V79.903C91.7737 79.6356 91.8524 79.4311 91.994 79.321C92.1355 79.2109 92.34 79.1637 92.5917 79.1637C92.8434 79.1637 93.0479 79.2266 93.158 79.3525C93.2838 79.4783 93.331 79.6986 93.331 79.9974V84.8266H95.0299V79.6985C95.0299 79.321 94.9513 78.9592 94.8097 78.6289C94.6524 78.2985 94.4164 78.0154 94.1018 77.7952C93.7872 77.575 93.3782 77.4648 92.8749 77.4648C92.5288 77.4648 92.1985 77.5278 91.8996 77.6536C91.6007 77.7794 91.3805 77.9839 91.2232 78.2514C91.0973 77.9682 90.9243 77.7794 90.6883 77.6536C90.4524 77.5278 90.1692 77.4648 89.8546 77.4648C89.4614 77.4648 89.1468 77.5435 88.9108 77.7008C88.6749 77.8581 88.5018 78.1098 88.4074 78.4559H88.376V77.6221H86.7715V84.8266H88.4704H88.5175Z" fill="#ED372F"/>
<path d="M102.017 84.8276V77.6231H100.476V78.3624H100.444C100.334 78.0321 100.145 77.7961 99.8937 77.6703C99.642 77.5444 99.3746 77.4658 99.0757 77.4815C98.3364 77.4815 97.7701 77.8118 97.3926 78.441C96.9993 79.086 96.8105 80.0141 96.8105 81.241C96.8105 82.5309 97.0465 83.4747 97.4555 84.0882C97.8802 84.7017 98.415 85.0006 99.0757 85.0006C99.4061 85.0006 99.6892 84.9377 99.9094 84.7961C100.13 84.6545 100.303 84.45 100.46 84.1512H100.491V84.8433H102.033L102.017 84.8276ZM100.318 82.059C100.318 82.4837 100.24 82.7826 100.082 82.9871C99.9252 83.1916 99.7049 83.286 99.4061 83.286C99.1386 83.286 98.9341 83.1601 98.7611 82.8613C98.5881 82.5624 98.5094 82.0118 98.4937 81.2253C98.4937 80.4388 98.5881 79.904 98.7611 79.5894C98.9341 79.2905 99.1386 79.1489 99.4061 79.1646C99.7049 79.1646 99.9252 79.259 100.082 79.4635C100.24 79.668 100.318 79.9669 100.318 80.3916V82.0747V82.059Z" fill="#ED372F"/>
<path d="M105.886 77.6224V76.2539H104.187V77.6224H103.432V79.2112H104.187V84.8269H105.886V79.2112H106.641V77.6224H105.886Z" fill="#ED372F"/>
<path d="M113.091 81.712V81.0199C113.091 79.9188 112.871 79.0536 112.43 78.4244C111.99 77.7952 111.329 77.4806 110.464 77.4648C109.835 77.4648 109.316 77.6379 108.907 77.9525C108.498 78.2828 108.183 78.7233 107.994 79.2738C107.79 79.8401 107.695 80.4851 107.695 81.2087C107.695 81.9323 107.79 82.5772 107.994 83.1435C108.199 83.7098 108.498 84.1502 108.907 84.4648C109.316 84.7952 109.835 84.9525 110.464 84.9525C110.778 84.9525 111.125 84.8896 111.486 84.7637C111.848 84.6379 112.163 84.3862 112.462 84.0244C112.745 83.6626 112.949 83.1435 113.044 82.4671H111.345C111.282 82.766 111.172 83.0019 111.014 83.1435C110.857 83.2851 110.668 83.3637 110.448 83.3637C110.149 83.3637 109.913 83.2693 109.74 83.0806C109.567 82.8918 109.473 82.5615 109.473 82.0896V81.6806H113.075L113.091 81.712ZM109.489 80.4851V80.1547C109.489 79.7772 109.583 79.4626 109.756 79.2266C109.929 78.9907 110.181 78.8648 110.495 78.8491C110.81 78.8491 111.03 78.9907 111.172 79.2266C111.313 79.4626 111.392 79.7929 111.392 80.1705V80.4693H109.489V80.4851Z" fill="#ED372F"/>
<path d="M114.9 77.6231V84.8276H116.599V80.486C116.599 80.0456 116.694 79.7152 116.882 79.5107C117.071 79.3062 117.307 79.2119 117.59 79.2119C117.716 79.2119 117.826 79.2276 117.936 79.259C118.046 79.2905 118.157 79.3377 118.267 79.3849V77.3242H118.062C117.653 77.3242 117.307 77.3871 117.055 77.5287C116.804 77.686 116.599 77.9692 116.473 78.4096H116.442V77.5916H114.9V77.6231Z" fill="#ED372F"/>
<path d="M121.506 75.6406H119.807V77.0564H121.506V75.6406ZM121.506 77.6226H119.807V84.8271H121.506V77.6226Z" fill="#ED372F"/>
<path d="M128.537 84.8276V77.6231H126.995V78.3624H126.964C126.854 78.0321 126.665 77.7961 126.413 77.6703C126.162 77.5444 125.894 77.4658 125.595 77.4815C124.856 77.4815 124.29 77.8118 123.912 78.441C123.519 79.086 123.33 80.0141 123.33 81.241C123.33 82.5309 123.566 83.4747 123.975 84.0882C124.4 84.7017 124.935 85.0006 125.595 85.0006C125.926 85.0006 126.209 84.9377 126.429 84.7961C126.649 84.6545 126.822 84.45 126.98 84.1512H127.011V84.8433H128.553L128.537 84.8276ZM126.838 82.059C126.838 82.4837 126.759 82.7826 126.602 82.9871C126.445 83.1916 126.224 83.286 125.926 83.286C125.658 83.286 125.454 83.1601 125.281 82.8613C125.108 82.5624 125.029 82.0118 125.013 81.2253C125.013 80.4388 125.108 79.904 125.281 79.5894C125.454 79.2905 125.658 79.1489 125.926 79.1646C126.224 79.1646 126.445 79.259 126.602 79.4635C126.759 79.668 126.838 79.9669 126.838 80.3916V82.0747V82.059Z" fill="#ED372F"/>
<path d="M132.408 75.6406H130.709V84.8271H132.408V75.6406Z" fill="#ED372F"/>
<path d="M133.963 82.5143C134.057 83.3637 134.34 83.9772 134.812 84.3862C135.284 84.7794 135.882 84.9839 136.59 84.9839C137.345 84.9839 137.958 84.748 138.415 84.3075C138.886 83.8671 139.122 83.3165 139.138 82.6244C139.122 81.9008 138.949 81.3817 138.635 81.0671C138.32 80.7525 137.943 80.5323 137.518 80.4221C137.093 80.312 136.716 80.2019 136.401 80.0918C136.086 79.9817 135.913 79.7929 135.898 79.4941C135.898 79.321 135.945 79.1952 136.055 79.0851C136.165 78.9907 136.307 78.9278 136.511 78.9278C136.763 78.9278 136.952 78.9907 137.077 79.1323C137.203 79.2738 137.266 79.4783 137.266 79.7457H138.965C138.918 79.0379 138.698 78.4873 138.32 78.0783C137.927 77.6693 137.345 77.4648 136.558 77.4648C135.74 77.4648 135.127 77.6693 134.718 78.0626C134.309 78.4401 134.104 78.9435 134.089 79.557C134.104 80.2648 134.277 80.7682 134.592 81.0985C134.907 81.4132 135.284 81.6334 135.709 81.7592C136.134 81.8851 136.511 81.9952 136.826 82.1053C137.14 82.2154 137.313 82.4199 137.329 82.7188C137.329 82.9075 137.282 83.0648 137.188 83.2064C137.093 83.348 136.904 83.4266 136.637 83.4424C136.354 83.4424 136.118 83.348 135.945 83.1907C135.772 83.0334 135.677 82.8132 135.662 82.53H133.963V82.5143Z" fill="#ED372F"/>
<path d="M98.9011 73.7368H88.9438V41.6941L83.1236 73.7368H75.4L68.7303 41.6941V73.7368H60V16.6514H74.3775L79.4899 46.2716L83.9258 16.6514H98.9011V73.7368Z" fill="#ED372F"/>
<path d="M126.869 58.2896L127.011 52.0289C127.011 46.9637 124.698 43.8177 120.089 42.5907C124.698 41.0334 127.011 38.0289 127.011 33.5929V26.7502C127.011 24.2491 126.413 22.2514 125.218 20.7098C124.793 20.9457 124.305 21.0873 123.786 21.0873C122.15 21.0873 120.813 19.7502 120.813 18.1143C120.813 17.957 120.829 17.7997 120.86 17.6581C119.177 16.9817 117.321 16.6514 115.292 16.6514H101.48V73.7368H112.68V46.3345C114.961 46.3345 116.094 47.3098 116.094 49.2446C116.094 49.3547 116.062 51.7772 116 56.5278L115.937 59.957V60.0356C115.937 67.6019 116.534 72.1952 117.746 73.8154H132.689C127.042 73.0289 126.838 67.4132 126.838 58.2738L126.869 58.2896ZM116.11 36.3772C116.11 38.3907 114.977 39.3974 112.696 39.3974V23.9817C114.977 23.9817 116.11 24.9727 116.11 26.9705V36.3772Z" fill="#ED372F"/>
<path d="M123.079 16.6989V17.8629H123.503C123.975 17.8629 124.29 17.8472 124.431 17.8C124.541 17.7685 124.636 17.7056 124.699 17.5955C124.762 17.5011 124.809 17.391 124.809 17.2809C124.809 17.1236 124.746 16.982 124.62 16.8719C124.494 16.7618 124.195 16.6989 123.708 16.6989H123.079ZM122.654 16.3371H123.944C124.416 16.3371 124.746 16.4157 124.95 16.5888C125.155 16.7618 125.249 16.982 125.249 17.2337C125.249 17.5011 125.139 17.7371 124.935 17.9101C124.777 18.036 124.557 18.1303 124.258 18.1775C124.384 18.2404 124.479 18.3034 124.541 18.3506C124.604 18.3978 124.683 18.5079 124.793 18.6652C124.903 18.8225 124.998 18.964 125.061 19.0742L125.407 19.6876H124.872L124.557 19.1371C124.305 18.7124 124.117 18.4449 123.991 18.3663C123.865 18.2876 123.645 18.2404 123.346 18.2404H123.063V19.6876H122.638V16.3371H122.654ZM126.555 18.1146C126.555 17.3596 126.287 16.6989 125.753 16.164C125.218 15.6292 124.557 15.3618 123.802 15.3618C123.047 15.3618 122.386 15.6292 121.852 16.164C121.317 16.6989 121.049 17.3596 121.049 18.1146C121.049 18.8697 121.317 19.5303 121.852 20.0652C122.386 20.6 123.031 20.8674 123.802 20.8674C124.573 20.8674 125.218 20.6 125.753 20.0652C126.287 19.5303 126.555 18.8854 126.555 18.1146ZM126.901 18.1146C126.901 18.964 126.602 19.7034 125.989 20.3169C125.391 20.9303 124.652 21.2292 123.802 21.2292C122.953 21.2292 122.213 20.9303 121.6 20.3169C120.986 19.7034 120.688 18.9798 120.688 18.1146C120.688 17.2494 120.986 16.5258 121.6 15.9124C122.213 15.2989 122.937 15 123.802 15C124.667 15 125.391 15.2989 125.989 15.9124C126.602 16.5258 126.901 17.2494 126.901 18.1146Z" fill="#7B7F80"/>
<path d="M136.26 63.6396C136.968 64.1902 137.471 64.7407 137.786 65.2913C138.101 65.8418 138.305 66.3452 138.384 66.7857C138.462 67.2261 138.494 67.5565 138.478 67.7609C138.478 68.6261 138.242 69.4284 137.802 70.1677C137.361 70.9227 136.763 71.5205 136.008 71.9924C135.253 72.4643 134.42 72.7003 133.492 72.716C132.611 72.716 131.777 72.4801 131.022 72.0396C130.267 71.5992 129.653 71.0171 129.181 70.2778C128.71 69.5385 128.474 68.7048 128.458 67.7767C128.458 67.525 128.489 67.1632 128.584 66.6913C128.678 66.2194 128.883 65.716 129.181 65.1654C129.496 64.6306 129.952 64.143 130.597 63.7025V62.3812C130.22 62.5385 129.779 62.8531 129.276 63.3093C128.788 63.7812 128.348 64.3789 127.97 65.134C127.593 65.889 127.404 66.7542 127.388 67.7609C127.388 68.8935 127.671 69.916 128.19 70.8284C128.71 71.7565 129.433 72.4801 130.345 73.0306C131.258 73.5812 132.296 73.8643 133.46 73.88C134.624 73.88 135.662 73.5812 136.575 73.0149C137.487 72.4486 138.195 71.7093 138.714 70.7969C139.233 69.8688 139.501 68.8621 139.516 67.7452C139.516 67.1003 139.406 66.4553 139.17 65.7789C138.934 65.1025 138.588 64.4733 138.101 63.8756C137.613 63.2778 136.999 62.7587 136.229 62.334V63.6553L136.26 63.6396Z" fill="#7B7F80"/>
<path d="M139.328 60.4451V59.2654H133.823V53.1934H139.328V52.0137H127.594V53.1934H132.769V59.2654H127.594V60.4451H139.328Z" fill="#7B7F80"/>
<path d="M139.328 49.7031V43.2852H138.274V48.5391H133.933V43.4582H132.879V48.5391H128.647V43.2852H127.594V49.7031H139.328Z" fill="#7B7F80"/>
<path d="M139.328 41.1138V39.934H128.868V39.9025L139.328 35.5452V34.5385L128.868 30.1497V30.1183H139.328V28.9385H127.594V30.7475L137.582 35.0418L127.594 39.3048V41.1138H139.328Z" fill="#7B7F80"/>
<path d="M139.328 25.3516H127.594V26.5313H139.328V25.3516Z" fill="#7B7F80"/>
<path d="M139.328 23.0391V16.6211H138.274V21.875H133.933V16.7941H132.879V21.875H128.647V16.6211H127.594V23.0391H139.328Z" fill="#7B7F80"/>
</g>
</svg>
