<svg width="30" height="25" viewBox="0 0 30 25" fill="none" xmlns="http://www.w3.org/2000/svg">
<g style="mix-blend-mode:screen" opacity="0.45">
<path d="M28.8594 0.0383286L0.195888 14.4812C-0.0652959 14.6146 -0.0652959 14.9925 0.195888 15.1203C1.59072 15.8038 5.06946 17.5043 8.72048 19.2826C8.85385 19.3492 9.015 19.3215 9.12059 19.2214L21.8074 7.35147L10.8544 19.8216C10.6988 19.9994 10.7544 20.2773 10.9655 20.3773C14.7944 22.2445 18.3732 23.995 19.479 24.5285C19.668 24.6174 19.8902 24.5285 19.968 24.3395L29.3484 0.488454C29.4707 0.182813 29.1484 -0.106156 28.8538 0.0383286H28.8594Z" fill="#7E7E7E" fill-opacity="0.36"/>
<path d="M7.93072 20.427L11.515 22.0275C11.8207 22.1664 11.8207 22.6054 11.515 22.7388L7.9974 24.2781C7.74178 24.3892 7.45836 24.2059 7.45281 23.928L7.39168 20.7882C7.38612 20.5048 7.68065 20.3103 7.93627 20.427H7.93072Z" fill="#7E7E7E" fill-opacity="0.36"/>
</g>
</svg>
