<svg width="25" height="35" viewBox="0 0 25 35" fill="none" xmlns="http://www.w3.org/2000/svg">
<g style="mix-blend-mode:screen" opacity="0.45" filter="url(#filter0_d_746_9522)">
<path d="M22.7508 11.2309C22.7508 5.02917 17.6549 0 11.3754 0C5.09586 0 0 5.02917 0 11.2309C0 13.3315 0.583495 15.2931 1.60044 16.9714C1.60044 16.9714 1.61156 16.9936 1.61712 16.9992C1.63379 17.027 1.65046 17.0547 1.66713 17.077C4.31231 21.5171 11.3809 32.3034 11.3809 32.3034C11.3809 32.3034 18.444 21.5171 21.0892 17.077C21.1059 17.0492 21.1225 17.0214 21.1392 16.9936C21.1392 16.9825 21.1503 16.9769 21.1559 16.9658C22.1728 15.2876 22.7563 13.3259 22.7563 11.2253L22.7508 11.2309ZM11.3754 15.5432C8.9636 15.5432 7.0075 13.6093 7.0075 11.2309C7.0075 8.85246 8.9636 6.91859 11.3754 6.91859C13.7872 6.91859 15.7433 8.85246 15.7433 11.2309C15.7433 13.6093 13.7872 15.5432 11.3754 15.5432Z" fill="#7E7E7E" fill-opacity="0.36"/>
</g>
<defs>
<filter id="filter0_d_746_9522" x="0" y="0" width="24.8159" height="34.3637" filterUnits="userSpaceOnUse" color-interpolation-filters="sRGB">
<feFlood flood-opacity="0" result="BackgroundImageFix"/>
<feColorMatrix in="SourceAlpha" type="matrix" values="0 0 0 0 0 0 0 0 0 0 0 0 0 0 0 0 0 0 127 0" result="hardAlpha"/>
<feOffset dx="2.06" dy="2.06"/>
<feColorMatrix type="matrix" values="0 0 0 0 0 0 0 0 0 0 0 0 0 0 0 0 0 0 0.12 0"/>
<feBlend mode="normal" in2="BackgroundImageFix" result="effect1_dropShadow_746_9522"/>
<feBlend mode="normal" in="SourceGraphic" in2="effect1_dropShadow_746_9522" result="shape"/>
</filter>
</defs>
</svg>
