<svg width="28" height="29" viewBox="0 0 28 29" fill="none" xmlns="http://www.w3.org/2000/svg">
<g style="mix-blend-mode:screen" opacity="0.45">
<path d="M13.6205 0C6.10725 0 0 6.43512 0 14.3484C0 22.2617 6.10725 28.6969 13.6205 28.6969C21.1336 28.6969 27.2409 22.2617 27.2409 14.3484C27.2409 6.43512 21.1281 0 13.6205 0ZM23.3843 22.334C22.9675 21.9228 21.8727 20.9947 19.9944 20.2334C20.5668 18.0161 20.7391 15.9822 20.7947 14.9875H25.9517C25.8238 17.7494 24.8902 20.2834 23.3898 22.3395L23.3843 22.334ZM3.73437 6.52403C4.22339 6.94637 5.207 7.6299 6.9297 8.19672C6.49069 9.73604 6.19061 11.5588 6.14059 13.7149H1.28925C1.4115 11.0253 2.30064 8.54682 3.73437 6.52403ZM12.8758 1.79494L12.648 1.31703C12.7535 1.30592 12.8591 1.2948 12.9592 1.28925V7.85774C11.1698 7.80217 9.71381 7.59655 8.55238 7.3187C10.1139 3.18977 12.7202 1.86719 12.8758 1.78939V1.79494ZM14.2817 9.14698C16.1211 9.12476 17.6104 8.9247 18.8163 8.63017C19.2164 10.0472 19.4943 11.7255 19.5388 13.7149H14.2817V9.14698ZM14.2817 7.87441V1.91164C14.943 2.31175 17.077 3.8344 18.4162 7.41873C17.3326 7.67435 15.9711 7.85218 14.2817 7.87441ZM14.2817 1.36149V1.28925C14.2817 1.28925 14.304 1.28925 14.3151 1.28925L14.2817 1.36149ZM12.9592 9.13587V13.7149H7.41317C7.46318 11.681 7.74104 9.97499 8.15226 8.54126C9.4304 8.85246 11.0142 9.0803 12.9592 9.14143V9.13587ZM6.15171 14.9819C6.20728 15.9878 6.38511 18.0495 6.9686 20.3001C5.29592 20.9336 4.17894 21.656 3.64546 22.045C2.2673 20.0445 1.40595 17.616 1.28925 14.9875H6.15171V14.9819ZM7.42984 14.9819H12.9592V19.1275C11.1142 19.1942 9.52487 19.4943 8.19672 19.8833C7.6688 17.8272 7.49097 15.9266 7.42984 14.9819ZM12.9592 20.4057V27.1131C10.6919 26.0128 9.34148 23.5732 8.54682 21.117C9.77494 20.7558 11.2476 20.4724 12.9592 20.4057ZM14.2817 26.9686V20.4001C15.9155 20.4446 17.2937 20.6946 18.4273 21.0392C17.6716 23.4232 16.4046 25.7961 14.2817 26.9686ZM14.2817 19.122V14.9819H19.5165C19.4554 15.9211 19.2831 17.7827 18.7719 19.8055C17.5382 19.4332 16.0433 19.1664 14.2762 19.122H14.2817ZM20.8058 13.7094C20.7558 11.5866 20.4668 9.78049 20.0389 8.25785C21.8338 7.61878 22.7897 6.7741 23.262 6.19617C24.8347 8.28008 25.8183 10.8752 25.9461 13.7038H20.8058V13.7094ZM22.4285 5.20144C22.2062 5.53487 21.4837 6.39622 19.6499 7.05196C18.5774 4.11781 16.9936 2.40622 15.8877 1.50042C18.4218 2.00056 20.6891 3.3287 22.4285 5.20144ZM10.953 1.58377C9.86385 2.50069 8.36343 4.17894 7.32426 6.97972C5.70714 6.44624 4.86246 5.81828 4.52348 5.5182C6.20728 3.57321 8.43568 2.17283 10.953 1.58377ZM4.41789 23.0564C4.87358 22.7285 5.84607 22.095 7.32426 21.5282C7.97999 23.551 8.99694 25.5849 10.5696 27.0186C8.15782 26.3684 6.02945 24.9625 4.41789 23.0564ZM16.2601 27.1186C17.9105 25.6682 18.9664 23.5621 19.6388 21.4726C21.4393 22.2284 22.384 23.1286 22.5785 23.3287C20.9058 25.2014 18.7163 26.5518 16.2601 27.1186Z" fill="#7E7E7E" fill-opacity="0.36"/>
</g>
</svg>
