<svg width="32" height="25" viewBox="0 0 32 25" fill="none" xmlns="http://www.w3.org/2000/svg">
<g style="mix-blend-mode:screen" opacity="0.45">
<path d="M31.4492 8.24673C30.0932 0.255627 22.8634 0 22.8634 0H8.66504C8.66504 0 1.43526 0.255627 0.0737698 8.24673C-0.398584 11.0253 1.55196 10.7419 1.55196 10.7419H5.04737C7.23687 10.7419 7.16463 8.26341 7.16463 8.26341C7.50917 6.32398 8.68727 3.94554 12.4216 3.94554H19.1068C22.8356 3.94554 24.0193 6.31842 24.3638 8.26341C24.3638 8.26341 24.2861 10.7419 26.4811 10.7419H29.9765C29.9765 10.7419 31.9271 11.0253 31.4547 8.24673H31.4492Z" fill="#7E7E7E" fill-opacity="0.36"/>
<path d="M26.5917 17.3646C23.0407 11.0518 21.2624 8.48438 21.2624 8.48438H10.4094L4.68559 18.1537C4.68559 18.1537 0.740049 24.8667 9.22574 24.8667H24.819C24.819 24.8667 30.1482 23.683 26.5917 17.3646ZM15.9832 21.538C13.2491 21.538 11.0374 19.3207 11.0374 16.5922C11.0374 13.8636 13.2491 11.6464 15.9832 11.6464C18.7173 11.6464 20.929 13.8581 20.929 16.5922C20.929 19.3263 18.7173 21.538 15.9832 21.538Z" fill="#7E7E7E" fill-opacity="0.36"/>
</g>
</svg>
