<svg width="30" height="31" viewBox="0 0 30 31" fill="none" xmlns="http://www.w3.org/2000/svg">
<g style="mix-blend-mode:screen" opacity="0.45">
<path d="M27.5966 0H5.33482C4.08447 0 3.06196 1.02251 3.06196 2.27285V5.57933H1.17255C0.527924 5.57933 0.0055571 6.10725 0.0055571 6.74632C0.0055571 7.38538 0.533481 7.91331 1.17255 7.91331H5.5571C5.99055 7.91331 6.34065 8.26341 6.34065 8.69686C6.34065 9.13031 5.99055 9.48041 5.5571 9.48041H1.16699C0.522367 9.48041 0 10.0083 0 10.6474C0 11.2865 0.527924 11.8144 1.16699 11.8144H5.55154C5.985 11.8144 6.33509 12.1645 6.33509 12.5979C6.33509 13.0314 5.985 13.3815 5.55154 13.3815H1.16699C0.522367 13.3815 0 13.9094 0 14.5485C0 15.1876 0.527924 15.7155 1.16699 15.7155H5.55154C5.985 15.7155 6.33509 16.0656 6.33509 16.499C6.33509 16.9325 5.985 17.2826 5.55154 17.2826H1.16699C0.522367 17.2826 0 17.8105 0 18.4496C0 19.0886 0.527924 19.6166 1.16699 19.6166H5.55154C5.985 19.6166 6.33509 19.9667 6.33509 20.4001C6.33509 20.8336 5.985 21.1837 5.55154 21.1837H1.16699C0.522367 21.1837 0 21.7116 0 22.3507C0 22.9897 0.527924 23.5176 1.16699 23.5176H5.55154C5.985 23.5176 6.33509 23.8677 6.33509 24.3012C6.33509 24.7346 5.985 25.0847 5.55154 25.0847H1.16699C0.522367 25.0847 0 25.6127 0 26.2517C0 26.8908 0.527924 27.4187 1.16699 27.4187H3.0564V27.9467C3.0564 29.197 4.07891 30.2195 5.32926 30.2195H27.591C28.8413 30.2195 29.8639 29.197 29.8639 27.9467V2.27285C29.8639 1.02251 28.8413 0 27.591 0H27.5966ZM24.9903 19.5665L22.8619 21.6838C22.7674 21.7894 22.6396 21.8839 22.484 21.9561C22.3284 22.0283 22.1784 22.0784 22.0283 22.1006C22.0172 22.1006 21.9839 22.1006 21.9339 22.1061C21.8783 22.1061 21.8116 22.1117 21.7283 22.1117C21.5226 22.1117 21.1948 22.0784 20.7447 22.0061C20.289 21.9394 19.7333 21.7672 19.0775 21.4949C18.4218 21.2226 17.6771 20.8113 16.8436 20.2667C16.01 19.7221 15.1264 18.9719 14.1817 18.0217C13.4315 17.2826 12.8147 16.5824 12.3256 15.9044C11.8366 15.232 11.4365 14.6096 11.142 14.0372C10.8419 13.4649 10.6196 12.948 10.4696 12.4812C10.3195 12.0144 10.2195 11.6143 10.1639 11.2809C10.1084 10.9419 10.0917 10.6807 10.0972 10.4862C10.1084 10.2917 10.1139 10.1862 10.1139 10.1639C10.1361 10.0139 10.1806 9.86385 10.2584 9.70825C10.3306 9.55265 10.4251 9.4304 10.5307 9.33037L12.6591 7.202C12.8091 7.05196 12.9814 6.97972 13.1703 6.97972C13.3093 6.97972 13.4315 7.01862 13.5371 7.10197C13.6427 7.17977 13.7371 7.2798 13.8094 7.3965L15.5265 10.6474C15.621 10.8197 15.6488 11.0031 15.6043 11.2087C15.5599 11.4087 15.471 11.581 15.332 11.7199L14.5485 12.5035C14.5485 12.5035 14.5096 12.559 14.4929 12.6091C14.4762 12.6591 14.4707 12.698 14.4707 12.7313C14.5151 12.9536 14.6096 13.2148 14.7597 13.4982C14.8875 13.7538 15.0875 14.065 15.3543 14.4373C15.621 14.8097 15.9989 15.232 16.4935 15.7099C16.9714 16.1989 17.3993 16.5824 17.7772 16.8547C18.1495 17.127 18.4607 17.327 18.7163 17.4548C18.9664 17.5827 19.1609 17.6605 19.2942 17.6882L19.4943 17.7271C19.4943 17.7271 19.5499 17.7216 19.5999 17.7049C19.6499 17.6882 19.6832 17.6716 19.7055 17.6493L20.6168 16.7213C20.8113 16.549 21.0336 16.4657 21.2892 16.4657C21.4726 16.4657 21.6171 16.499 21.7227 16.5602H21.7394L24.8291 18.3884C25.0514 18.5274 25.1848 18.7052 25.2292 18.9164C25.2626 19.1609 25.1848 19.3776 25.0069 19.5554L24.9903 19.5665Z" fill="#7E7E7E" fill-opacity="0.36"/>
</g>
</svg>
