<svg width="236" height="240" viewBox="0 0 236 240" fill="none" xmlns="http://www.w3.org/2000/svg">
<path d="M180.629 30.7495C161.09 3.43118 139.377 17.5315 133.844 25.2949C83.5066 95.9131 7.99504 110.072 0.526321 154.127C-3.51411 177.959 13.8509 237.665 118 238.516C226.691 239.405 252.07 166.472 227.236 119.86C202.427 73.2991 200.183 58.0933 180.629 30.7495Z" fill="#FB994D"/>
<path d="M171.345 81.4497C166.599 38.8036 142.787 44.2411 108.661 73.8551C74.5876 103.426 64.3186 117.979 41.9116 119.116C19.5251 120.255 19.2897 135.182 23.3323 138.962C45.6065 159.78 106.175 163.17 145.565 156.04C165.947 152.351 185.457 125.824 200.94 127.678C200.94 127.678 175.188 115.968 171.345 81.4497Z" fill="#FEF5BD"/>
<path d="M128.885 236.279C110.962 236.279 98.5383 222.398 92.8863 209.407C85.6667 192.809 87.5961 175.95 97.8038 166.46C106.532 158.345 117.611 157.024 128.323 155.746C144.79 153.782 160.343 151.927 169.079 127.874C183.605 87.8821 160.469 21.6091 160.233 20.9443L161.136 20.6602C161.372 21.3284 184.608 87.8882 169.98 128.164C161.05 152.745 144.474 154.723 128.443 156.636C117.887 157.895 106.971 159.195 98.4721 167.099C88.5385 176.331 86.6919 192.806 93.7673 209.067C99.3013 221.788 111.433 235.382 128.885 235.382V236.279Z" fill="#301C0C"/>
<path d="M41.7643 219.788C24.4493 213.851 16.9367 192.382 17.2831 174.945C17.5844 159.849 23.62 141.984 39.6551 137.123C50.7011 133.773 59.0991 133.653 66.5077 133.547C79.9147 133.356 91.4954 133.192 113.614 114.58C147.691 85.9082 147.994 22.6307 147.993 21.9939L148.943 21.9922C148.945 22.632 148.643 86.3077 114.247 115.249C91.8642 134.083 80.1204 134.251 66.5217 134.444C58.8202 134.553 50.8559 134.667 39.9462 137.975C24.3874 142.694 18.5294 160.176 18.2343 174.962C17.8926 192.091 25.2127 213.16 42.0888 218.945L41.7643 219.788Z" fill="#301C0C"/>
<path d="M144.047 234.044C148.663 233.527 153.22 232.617 157.71 231.513C162.201 230.399 166.619 229.037 170.937 227.441C179.57 224.258 187.817 220.08 195.146 214.744C202.447 209.394 208.817 202.879 213.526 195.375C218.263 187.891 221.277 179.497 222.723 170.9C222.882 169.821 223.107 168.75 223.215 167.665L223.579 164.414C223.714 162.237 223.882 160.062 223.867 157.88C223.94 155.699 223.797 153.518 223.727 151.338C223.547 149.164 223.43 146.981 223.121 144.815C222.645 140.471 221.798 136.169 220.876 131.888C219.856 127.626 218.753 123.377 217.41 119.191C214.777 110.803 211.521 102.591 207.859 94.5462C204.222 86.4881 200.172 78.5963 195.854 70.8359C200.31 78.527 204.501 86.3592 208.286 94.3708C212.042 102.393 215.384 110.598 218.111 118.992C220.857 127.38 222.918 135.986 223.982 144.723C224.296 146.902 224.423 149.1 224.613 151.291C224.691 153.489 224.842 155.687 224.777 157.887C224.797 160.09 224.634 162.287 224.504 164.484L224.151 167.771C224.042 168.867 223.822 169.95 223.66 171.042C222.169 179.734 219.089 188.227 214.267 195.793C209.467 203.365 203.027 209.975 195.589 215.288C188.141 220.604 179.808 224.737 171.103 227.848C166.739 229.383 162.285 230.678 157.767 231.724C153.249 232.761 148.672 233.599 144.047 234.044Z" fill="#301C0C"/>
<path d="M103.964 129.526V105.553H110.022V129.022C110.274 128.768 103.964 129.526 103.964 129.526Z" fill="#B6B6B3"/>
<path d="M66.0219 118.88C72.0186 114.463 76.9202 114.987 87.644 109.151C98.0179 103.507 117.873 96.8618 128.484 102.046C130.132 106.509 131.159 111.261 130.907 116.012C130.656 120.763 129.056 125.522 125.933 129.112C120.714 135.116 112.986 138.965 105.04 139.365C97.0931 139.766 87.7909 139.407 80.5327 139.295C82.2126 136.119 69.277 117.355 66.0219 118.88Z" fill="white"/>
<path d="M51.8762 213.25C57.0107 213.079 62.9942 217.575 62.9942 217.575C62.9942 217.575 63.3323 229.548 66.2313 236.321C67.2048 238.594 63.7642 239.271 62.4298 239.238C52.1766 238.983 46.2448 239.179 37.9017 239.251C36.067 239.266 35.5715 236.643 37.3181 236.079C37.3352 236.075 37.3514 236.068 37.3694 236.063C37.9723 235.876 39.4905 235.813 41.3103 235.72C45.1455 235.525 47.8796 232.496 51.4386 231.25C54.9971 230.004 50.7935 216.409 51.8762 213.25Z" fill="#EAE1A2"/>
<path d="M65.3392 239.562L37.1074 239.577C36.3453 239.577 35.7296 238.956 35.7371 238.194C35.7441 237.328 35.9322 236.302 36.6987 235.88C38.3782 234.957 40.3932 234.6 42.4678 234.532C43.9898 234.484 46.8388 232.972 48.2495 232.169C48.6328 231.951 49.0945 232.111 49.3182 232.493C49.6725 233.096 50.5539 233.914 52.7293 234.489C56.0853 235.375 62.901 232.944 64.6432 232.288C64.8945 232.193 65.1699 232.278 65.3225 232.499C65.7698 233.146 66.6424 234.54 66.8586 235.81C67.0454 236.895 66.6863 238.095 66.3929 238.839C66.2219 239.275 65.8071 239.561 65.3392 239.562Z" fill="black"/>
<path d="M46.0854 140.621C47.0637 136.896 48.4209 133.212 50.6678 130.083C53.1769 126.591 56.6833 123.941 60.3172 121.64C71.7641 114.388 84.876 109.837 97.2517 104.467C101.809 111.095 104.374 119.427 103.931 127.459C94.3566 134.329 83.6065 140.178 72.4894 144.089C72.8292 169.294 72.3991 194.832 71.5291 220.024C62.8935 223.537 52.8967 223.565 44.241 220.101C45.0667 205.513 43.5442 190.899 43.4709 176.287C43.4113 164.388 43.0386 152.231 46.0854 140.621Z" fill="black"/>
<path d="M93.3954 119.659C90.3517 117.747 86.3393 117.355 83.0842 118.881C91.408 112.144 104.298 110.713 114.981 109.999C123.694 102.026 134.935 96.8621 145.546 102.046C147.194 106.509 148.222 111.261 147.97 116.012C147.719 120.763 146.119 125.522 142.998 129.112C137.776 135.116 130.048 138.965 122.102 139.365C114.155 139.766 104.854 139.407 97.595 139.295C99.2758 136.118 99.7717 131.961 99.135 128.422C98.4983 124.884 96.4391 121.572 93.3954 119.659Z" fill="black"/>
<path d="M86.4123 239.398C82.2622 239.011 79.0414 239.186 75.9771 239.207C73.4776 239.223 68.8105 236.322 76.6116 232.618C80.4262 230.807 78.3713 219.51 79.1878 215.92C83.0064 215.752 88.105 216.593 87.7695 218.656C85.7094 231.363 86.3364 230.821 88.8728 234.639C90.4291 236.982 90.4444 239.774 86.4123 239.398Z" fill="#EAE1A2"/>
<path d="M71.7566 239.817C71.3049 239.817 70.9348 239.447 70.9528 238.995C71.0089 237.543 71.4948 235.921 72.3911 234.897C73.301 233.856 74.5902 232.943 75.9544 232.644C76.3973 232.546 76.8126 232.365 77.195 232.123C78.086 231.557 79.2652 231.466 80.3281 231.646C81.6147 231.863 82.8198 232.414 84.0835 232.74C85.2018 233.027 86.4423 233.118 87.4846 232.665C87.7315 232.558 88.0209 232.575 88.2121 232.764C89.8315 234.364 90.7213 236.678 90.6121 238.949C90.5889 239.432 90.1955 239.816 89.7114 239.816L71.7566 239.817Z" fill="black"/>
<path d="M76.0815 135.565C78.2481 131.122 81.0244 126.869 84.8859 123.782C88.073 121.234 91.8665 119.58 95.611 117.955C104.422 114.131 113.236 110.307 122.047 106.483C126.606 113.112 129.172 121.444 128.728 129.476C120.466 135.405 111.329 140.572 101.836 144.388C99.1085 145.486 97.3146 148.107 97.3435 151.047C97.5672 174.644 97.1396 198.494 96.3262 222.041C87.6906 225.554 77.693 225.582 69.0377 222.118C69.8634 207.529 68.3413 192.914 68.2676 178.303C68.1953 163.691 69.6766 148.7 76.0815 135.565Z" fill="black"/>
<path d="M67.7624 217.834C67.7707 218.008 67.637 218.152 67.4651 218.159H67.452C67.2862 218.159 67.1485 218.029 67.141 217.862L64.6836 158.282C64.4065 151.576 64.0631 143.232 67.8948 136.578C71.8713 129.676 79.1554 126.001 87.5638 122.241C87.7173 122.173 87.9037 122.242 87.9751 122.397C88.0444 122.554 87.9751 122.738 87.8173 122.808C79.5097 126.524 72.3172 130.148 68.4351 136.888C64.6915 143.387 65.0314 151.632 65.3037 158.256L67.7624 217.834Z" fill="white"/>
<path d="M117.595 102.223C114.557 102.223 108.097 103.752 103.027 104.272C99.0806 104.676 95.9764 104.097 95.9764 104.097C95.9764 104.097 92.3363 61.5559 98.1816 48.7312C100.147 44.4215 106.223 39.6812 113.038 37.0278C117.332 35.3527 120.834 34.2871 120.834 34.2871C120.834 34.2871 124.324 35.3233 128.645 36.959C135.648 39.6106 144.833 43.83 144.833 47.7446L145.692 104.097C145.692 104.097 139.732 104.754 135.464 104.41C128.689 103.865 121.905 102.223 117.595 102.223Z" fill="#FFA867"/>
<path d="M144.471 126.085C138.464 128.951 131.391 129.509 125.01 127.618C121.145 126.473 117.168 125.749 113.891 123.4C110.614 121.051 107.632 118.264 104.101 116.316C97.0014 112.397 88.5018 112.263 80.3907 112.227C78.7217 112.218 77.2978 110.728 77.4557 109.066C77.6127 107.405 78.8975 106.044 80.3481 105.218C81.7992 104.392 83.4401 103.977 84.9827 103.339C90.1436 101.209 94.1213 96.4178 95.2667 90.9518C95.7859 88.4707 95.7741 85.8269 96.8984 83.5532C98.1218 81.0818 100.565 79.3869 103.169 78.4726C105.772 77.5592 108.558 77.3312 111.307 77.1115C118.047 76.5721 125.216 76.1169 131.178 79.304C138.966 83.4677 143.944 88.5671 147.207 96.7739C149.361 102.189 150.767 107.9 151.373 113.696C151.595 115.809 151.698 118.009 150.945 119.997C149.868 122.836 147.211 124.777 144.471 126.085Z" fill="#FFA867"/>
<path d="M121.421 47.1312C121.137 47.1536 120.853 47.165 120.569 47.165C117.575 47.165 114.588 45.967 112.441 43.8748C112.318 43.756 112.315 43.5587 112.436 43.4354C112.555 43.3122 112.75 43.3113 112.874 43.4297C115.1 45.5977 118.276 46.7396 121.374 46.5116C124.471 46.2739 127.435 44.6479 129.301 42.1659C129.405 42.0269 129.6 42.0011 129.737 42.1028C129.875 42.2067 129.902 42.401 129.799 42.5382C127.825 45.1627 124.695 46.8795 121.421 47.1312Z" fill="black"/>
<path d="M64.3384 104.941C62.2791 104.738 54.207 110.235 57.2586 102.637C58.1277 100.474 61.3854 96.5184 62.3563 96.0334C65.8359 94.2912 69.2063 93.3436 71.7163 93.5743C74.6377 93.844 74.8775 96.161 75.5274 99.2324C76.0352 101.63 72.453 104.416 70.5161 105.029C68.5788 105.642 66.4165 105.145 64.3384 104.941Z" fill="#EAE1A2"/>
<path d="M63.5684 107.548C62.958 107.631 62.1704 107.52 61.9968 106.93C61.8415 106.409 62.2932 105.919 62.7124 105.571C64.0271 104.488 65.4812 103.513 67.1313 103.089C68.6911 102.69 70.7078 102.807 71.9492 103.945C71.2029 105.449 68.342 105.956 66.8787 106.528C65.8039 106.958 64.7155 107.391 63.5684 107.548Z" fill="#EAE1A2"/>
<path d="M56.8783 107.573C56.4754 107.798 55.9899 108.048 55.5777 107.837C55.2892 107.691 55.1414 107.347 55.1528 107.024C55.1655 106.7 55.3124 106.397 55.4896 106.126C56.4162 104.704 58.1522 104.007 59.8383 103.8C60.1909 103.758 60.5544 103.733 60.8977 103.829C62.3961 104.252 61.4678 105.739 60.5338 106.149C59.3301 106.675 58.0575 106.914 56.8783 107.573Z" fill="#EAE1A2"/>
<path d="M102.201 93.4827C102.201 93.4827 84.3011 102.798 80.0993 103.895C75.8988 104.991 71.9496 103.945 71.9496 103.945C71.9496 103.945 71.3322 102.616 71.3322 98.9619C71.3322 95.3095 65.8521 95.1275 65.8521 95.1275C65.8521 95.1275 65.6697 92.2044 71.3322 88.3688C76.9942 84.5322 86.8581 79.7836 86.8581 79.7836C86.8581 79.7836 92.5201 54.3934 95.4424 49.8267C98.3646 45.2601 107.196 39.9756 107.196 39.9756C107.196 39.9756 107.863 77.9568 107.315 83.9841C106.768 90.0123 102.201 93.4827 102.201 93.4827Z" fill="#FFA867"/>
<path d="M97.6983 78.3016C96.5902 72.1707 98.5288 65.5199 102.757 60.9427C102.876 60.8168 103.072 60.8085 103.197 60.9256C103.323 61.0431 103.331 61.2395 103.214 61.3658C99.1147 65.8009 97.2357 72.2484 98.3105 78.1919C98.3881 78.6186 98.4762 79.0514 98.5674 79.4891C99.0599 81.8693 99.569 84.3293 98.2815 86.3702C97.8307 87.0854 97.1988 87.6563 96.5876 88.2071C95.8355 88.8855 95.1251 89.5248 94.7642 90.3896C94.3937 91.2797 94.4516 92.2598 94.5125 93.2995C94.5634 94.1559 94.6147 95.043 94.4134 95.9012C93.953 97.8543 92.0937 99.3689 90.0866 99.4238H90.0787C89.9108 99.4238 89.7731 99.2904 89.7678 99.1216C89.763 98.9506 89.8981 98.8076 90.0695 98.8033C91.8043 98.7546 93.411 97.4456 93.8078 95.7591C93.9889 94.9891 93.942 94.1862 93.8916 93.3355C93.8293 92.2725 93.7644 91.1727 94.1907 90.151C94.6055 89.1565 95.4009 88.4395 96.171 87.7449C96.7779 87.1976 97.351 86.6815 97.7549 86.04C98.909 84.2096 98.4258 81.8737 97.9588 79.614C97.8667 79.172 97.7759 78.7331 97.6983 78.3016Z" fill="black"/>
<path d="M129.391 37.2441C136.363 38.8789 144.039 43.7933 147.257 46.2196C151.753 49.611 155.62 53.8242 158.708 58.529C164.817 67.8316 167.96 78.847 169.149 89.9119C169.434 92.5579 169.48 95.5854 167.586 97.4548C166.139 98.8812 163.963 99.2022 161.946 99.45C154.734 100.335 147.523 101.219 140.312 102.105C136.768 102.539 133.149 102.971 129.655 102.241C125.282 101.327 120.957 97.781 121.192 93.3196C121.357 90.2066 123.73 87.5558 126.519 86.1609C129.309 84.7673 132.479 84.3968 135.578 84.0486C139.06 83.6561 147.127 82.6221 147.127 82.6221C147.127 82.6221 140.372 64.6853 135.735 58.4944C134.672 52.3543 129.444 43.4548 129.391 37.2441Z" fill="#FFA867"/>
<path d="M135.614 84.3567C132.572 84.7 129.428 85.0548 126.658 86.4396C124.279 87.6288 121.676 90.0652 121.502 93.3365C121.494 93.5031 121.357 93.6307 121.193 93.6307H121.176C121.005 93.6211 120.873 93.4746 120.882 93.3032C121.07 89.7666 123.845 87.15 126.38 85.8823C129.247 84.4488 132.449 84.0879 135.544 83.7393C138.117 83.4498 143.198 82.8087 145.263 82.5461C145.427 82.5263 145.589 82.6465 145.611 82.8166C145.632 82.9872 145.512 83.1424 145.342 83.1639C143.275 83.4266 138.191 84.0673 135.614 84.3567Z" fill="black"/>
<path d="M114.16 104.947C113.643 105.14 113.298 105.076 112.897 104.436C112.495 103.797 113.298 102.646 114.792 100.151C116.285 97.6567 118.696 95.9307 120.649 95.1633C122.602 94.3955 124.308 93.5715 128.672 93.6342C133.037 93.6987 132.995 98.6166 132.939 99.1919C132.881 99.7681 130.756 100.534 129.148 100.919C127.54 101.302 126.335 101.623 124.669 103.541C123.004 105.459 123.233 106.355 122.602 107.314C121.97 108.273 121.513 108.732 120.84 108.492C120.004 108.192 120.764 106.611 121.11 105.587C121.454 104.564 122.43 103.157 121.855 103.669C121.282 104.181 120.363 105.523 119.961 106.035C119.559 106.546 118.467 108.21 117.893 108.593C117.32 108.976 116.744 108.721 116.342 108.21C115.941 107.698 117.031 106.355 117.031 106.355L118.926 103.477C118.926 103.477 118.065 104.436 117.549 105.204C117.031 105.97 116.286 106.739 115.655 107.058C115.021 107.379 114.562 106.802 114.332 106.227C114.104 105.652 115.997 102.901 115.997 102.901C115.997 102.901 114.677 104.756 114.16 104.947Z" fill="#EAE1A2"/>
<path d="M145.358 78.5043C145.231 78.5043 145.112 78.4258 145.067 78.2996C144.336 76.3035 143.371 74.3929 142.194 72.6222C142.1 72.4801 142.139 72.2858 142.282 72.1907C142.426 72.0951 142.619 72.1354 142.713 72.2779C143.915 74.0903 144.904 76.0443 145.651 78.086C145.71 78.2474 145.627 78.4258 145.466 78.4846C145.43 78.4969 145.394 78.5043 145.358 78.5043Z" fill="black"/>
<path d="M122.415 32.9745C121.6 33.2007 127.19 28.203 127.168 27.3291C127.15 26.7024 127.522 26.1416 127.88 25.6281C128.726 24.4117 129.996 23.6706 130.721 21.835C130.887 22.0389 131.51 22.3257 130.816 25.2838C130.556 26.4021 125.908 32.0045 122.415 32.9745Z" fill="black"/>
<path d="M114.126 29.0401C113.315 28.2262 112.399 26.566 111.903 25.5303C110.611 22.8286 110.664 22.5791 110.727 22.3252C112.166 23.6767 113.632 23.8039 114.916 24.5432C115.458 24.855 116.035 25.2045 116.286 25.7772C116.639 26.5779 116.197 28.3363 115.74 29.0476C115.097 30.0447 116.563 31.4909 114.126 29.0401Z" fill="black"/>
<path d="M130.174 15.0157C129.827 15.2481 129.394 15.2989 128.978 15.3393C124.303 15.7927 119.586 15.8063 114.909 15.3853C113.483 15.2564 111.085 15.4572 110.084 14.2237C108.959 12.8371 108.662 10.0316 108.298 8.33452C108.044 7.15054 107.838 5.90648 108.183 4.74618C108.58 3.41004 109.674 2.36682 110.915 1.73274C112.158 1.10084 113.548 0.828528 114.924 0.602257C120.163 -0.258101 125.795 -0.490512 130.521 1.92656C131.787 2.57468 133.042 3.51265 133.419 4.88432C133.76 6.11916 133.312 7.41935 132.871 8.62306C132.252 10.3065 131.636 11.9899 131.017 13.6729C130.831 14.1768 130.621 14.7153 130.174 15.0157Z" fill="black"/>
<path d="M113.035 37.0278C117.329 35.3527 120.832 34.2871 120.832 34.2871C120.832 34.2871 124.322 35.3237 128.643 36.9594C127.873 40.5666 124.669 43.2722 120.832 43.2722C117.018 43.2722 113.828 40.6008 113.035 37.0278Z" fill="#EAE1A2"/>
<path d="M105.595 16.4615C105.446 14.3741 106.638 12.5881 108.258 12.4736C109.877 12.3583 111.31 13.9567 111.459 16.0431C111.608 18.1304 111.745 21.068 110.126 21.1833C108.506 21.2995 105.743 18.5479 105.595 16.4615Z" fill="#EAE1A2"/>
<path d="M107.142 14.1505C106.971 14.1308 106.85 13.9764 106.87 13.8063C106.889 13.6366 107.034 13.505 107.214 13.5331C108.345 13.6638 109.617 14.286 110.475 17.9059C110.51 18.0603 110.425 18.2177 110.277 18.2708C110.242 18.2826 110.207 18.2883 110.171 18.2883C110.056 18.2883 109.946 18.2243 109.892 18.1151C109.754 17.8327 109.665 17.5354 109.58 17.2468C109.431 16.75 109.302 16.3207 108.975 16.1431C108.69 15.9909 108.224 16.0098 107.586 16.2019C107.423 16.2497 107.248 16.1576 107.199 15.9927C107.149 15.8296 107.243 15.6555 107.408 15.6059C108.045 15.4156 108.541 15.3696 108.941 15.4695C108.358 14.4632 107.725 14.2189 107.142 14.1505Z" fill="black"/>
<path d="M128.926 16.0431C129.075 13.9567 130.509 12.3583 132.128 12.4736C133.747 12.5881 134.939 14.3741 134.79 16.4615C134.642 18.5479 131.88 21.2995 130.26 21.1833C128.641 21.068 128.777 18.1304 128.926 16.0431Z" fill="#EAE1A2"/>
<path d="M132.977 15.6052C133.141 15.6547 133.234 15.8288 133.185 15.9919C133.137 16.1568 132.963 16.2498 132.798 16.2011C132.159 16.009 131.692 15.9902 131.409 16.1423C131.081 16.3199 130.953 16.7492 130.805 17.2461C130.718 17.5346 130.63 17.8324 130.492 18.1143C130.438 18.2235 130.328 18.2875 130.213 18.2875C130.178 18.2875 130.142 18.2818 130.107 18.2704C129.958 18.2174 129.874 18.0595 129.91 17.9052C130.767 14.2852 132.039 13.663 133.171 13.5323C133.334 13.5078 133.496 13.6358 133.515 13.8055C133.535 13.9757 133.413 14.13 133.242 14.1497C132.659 14.2182 132.025 14.4628 131.444 15.4688C131.843 15.3688 132.342 15.4148 132.977 15.6052Z" fill="black"/>
<path d="M115.926 32.341L115.993 31.5846L116.313 27.9199H124.787L125.231 31.7012L126.027 38.574H115.382L115.926 32.341Z" fill="#EAE1A2"/>
<path d="M109.762 11.4198C109.762 5.69814 114.724 1.05957 120.844 1.05957C126.964 1.05957 131.926 5.69814 131.926 11.4198C131.926 17.1424 126.964 21.7801 120.844 21.7801C114.724 21.7801 109.762 17.1424 109.762 11.4198Z" fill="black"/>
<path d="M110.007 17.3413C110.007 9.72609 114.797 3.55273 120.706 3.55273C126.615 3.55273 131.405 9.72609 131.405 17.3413C131.405 24.9564 126.615 31.1298 120.706 31.1298C114.797 31.1298 110.007 24.9564 110.007 17.3413Z" fill="#EAE1A2"/>
<path d="M121.714 20.4943C122.259 20.4846 122.797 20.3347 123.268 20.0562C123.416 19.9676 123.606 20.0185 123.693 20.1659C123.781 20.3132 123.731 20.5053 123.583 20.5916C123.02 20.9245 122.377 21.1047 121.723 21.1157C121.709 21.1165 121.695 21.1165 121.68 21.1165C121.477 21.1165 121.228 21.092 121.016 20.9425C120.563 20.6215 120.609 19.994 120.63 19.7243L120.92 15.9544C120.932 15.7834 121.084 15.6492 121.252 15.6689C121.424 15.6812 121.553 15.8312 121.539 16.0022L121.25 19.7721C121.232 20.0255 121.228 20.3303 121.375 20.4338C121.456 20.4917 121.603 20.4925 121.714 20.4943Z" fill="black"/>
<path d="M116.367 15.2529C116.367 14.5859 116.694 14.0439 117.098 14.0439C117.502 14.0439 117.828 14.5859 117.828 15.2529C117.828 15.9208 117.502 16.4628 117.098 16.4628C116.694 16.4628 116.367 15.9208 116.367 15.2529Z" fill="black"/>
<path d="M124.742 15.2529C124.742 14.5859 125.069 14.0439 125.472 14.0439C125.875 14.0439 126.203 14.5859 126.203 15.2529C126.203 15.9208 125.875 16.4628 125.472 16.4628C125.069 16.4628 124.742 15.9208 124.742 15.2529Z" fill="black"/>
<path d="M118.473 13.3201C117.782 13.0074 117.078 13.0342 116.499 13.4065C116.145 13.6336 115.84 13.9914 115.604 14.4414C115.465 14.7053 115.147 14.3471 115.23 14.0199C115.386 13.4148 115.674 12.9197 116.047 12.5869C116.691 12.012 117.52 11.9221 118.351 12.0475C118.454 12.0638 118.555 12.1997 118.582 12.3659C118.616 12.5729 118.65 12.7873 118.685 12.9991C118.72 13.221 118.614 13.385 118.473 13.3201Z" fill="black"/>
<path d="M127.435 14.4413C127.198 13.9914 126.892 13.6344 126.539 13.4073C125.961 13.0345 125.257 13.0078 124.565 13.3205C124.424 13.3854 124.317 13.2213 124.353 12.9995C124.388 12.7877 124.422 12.5732 124.457 12.3658C124.483 12.2001 124.582 12.0637 124.688 12.0475C125.518 11.922 126.346 12.0124 126.992 12.5873C127.364 12.9205 127.652 13.4152 127.808 14.0203C127.892 14.3474 127.573 14.7057 127.435 14.4413Z" fill="black"/>
<path d="M118.377 33.3105C117.543 33.0294 116.74 32.6712 115.925 32.3419L115.992 31.585L116.312 27.9199H124.786L125.23 31.7012C125.23 31.7012 124.068 32.8255 123.632 33.058C123.099 33.3583 122.527 33.5925 121.925 33.7087C120.743 33.9407 119.511 33.6973 118.377 33.3105Z" fill="black"/>
<path d="M110.513 19.444C110.513 19.444 110.213 16.3512 109.989 12.7019C109.761 8.97854 113.72 5.6748 114.392 5.6748C115.063 5.6748 113.563 9.57536 113.563 13.7912C113.563 18.007 110.513 19.444 110.513 19.444Z" fill="black"/>
<path d="M129.025 5.6748C129.508 5.6748 131.371 9.5758 131.371 13.7916C131.371 18.0079 131.166 19.644 131.166 19.644C131.166 19.644 129.621 18.0079 129.621 13.7916C129.621 9.5758 128.542 5.6748 129.025 5.6748Z" fill="black"/>
<path d="M117.144 31.4708C116.164 30.9296 115.126 30.3284 114.634 29.3221C114.019 28.0662 114.435 26.573 114.861 25.2413C115.271 23.9556 115.789 22.5392 116.996 21.9349C118.049 21.4087 119.301 21.6683 120.473 21.7863C122.138 21.9542 123.72 21.7415 125.34 21.3745C126.846 21.0333 127.315 21.7034 127.727 23.1711C128.134 24.6203 128.539 26.0674 128.946 27.5154C129.174 28.3293 124.145 32.6644 122.415 32.9749C120.58 33.3029 118.778 32.3715 117.144 31.4708Z" fill="black"/>
<path d="M116.965 9.44297C116.667 9.85341 116.097 10.042 115.615 9.88893C115.201 9.75738 114.892 9.41885 114.575 9.12066C113.361 7.97922 111.858 9.64644 112.328 7.2662C112.597 5.89848 113.457 4.64303 114.583 3.83441C116.359 2.55835 118.657 2.23297 120.842 2.33339C124.354 2.49345 128.118 3.93001 129.733 7.05221C130.086 7.73409 130.327 8.52078 130.149 9.26668C129.971 10.013 129.261 10.6686 128.5 10.5686C127.041 10.3766 126.841 7.9836 125.418 7.61306C125.374 8.29451 125.33 8.97727 125.286 9.66003C124.694 10.0161 123.919 9.56619 123.535 8.99086C123.15 8.41641 122.968 7.71216 122.509 7.1956C122.049 6.67815 121.114 6.46548 120.713 7.02896C121.324 7.42845 121.492 8.36774 121.058 8.9549C120.624 9.54251 119.677 9.65608 119.116 9.18907C118.742 8.87641 118.561 8.38484 118.217 8.04061C117.872 7.69506 117.182 7.58543 116.966 8.02263C117.263 8.43351 117.262 9.0334 116.965 9.44297Z" fill="black"/>
<path d="M121.645 26.5703C120.28 26.5703 118.911 26.2528 117.705 25.6297C117.552 25.5503 117.493 25.3631 117.572 25.2105C117.65 25.0583 117.837 24.9995 117.991 25.0772C119.896 26.0625 122.239 26.223 124.259 25.5082C124.421 25.4543 124.599 25.5363 124.656 25.6972C124.714 25.8586 124.628 26.0375 124.466 26.0954C123.565 26.4133 122.606 26.5703 121.645 26.5703Z" fill="#F4F4F4"/>
<path d="M97.3041 123.654C97.3041 123.814 97.4335 123.944 97.594 123.943L147.433 123.835C147.752 123.835 148.009 123.576 148.008 123.258L148.006 121.865L97.3006 121.974L97.3041 123.654Z" fill="#3F2C1C"/>
<path d="M141.494 121.292L141.494 121.879L143.273 121.873L143.273 121.094L141.687 121.097C141.58 121.097 141.493 121.185 141.494 121.292Z" fill="#3F2C1C"/>
<path d="M139.429 121.296L139.431 121.883L141.211 121.879L141.209 121.098L139.623 121.102C139.516 121.102 139.43 121.19 139.429 121.296Z" fill="#3F2C1C"/>
<path d="M137.366 121.3L137.367 121.887L139.146 121.883L139.145 121.104L137.56 121.107C137.452 121.107 137.365 121.193 137.366 121.3Z" fill="#3F2C1C"/>
<path d="M128.766 121.319L128.767 121.905L130.547 121.901L130.546 121.122L128.959 121.125C128.853 121.126 128.766 121.212 128.766 121.319Z" fill="#3F2C1C"/>
<path d="M126.702 121.323L126.703 121.909L128.482 121.906L128.481 121.126L126.895 121.129C126.788 121.129 126.702 121.217 126.702 121.323Z" fill="#3F2C1C"/>
<path d="M102.47 121.376L102.471 121.962L104.25 121.959L104.248 121.179L102.664 121.182C102.557 121.182 102.469 121.269 102.47 121.376Z" fill="#3F2C1C"/>
<path d="M100.405 121.38L100.408 121.967L102.188 121.963L102.185 121.184L100.601 121.188C100.494 121.188 100.406 121.275 100.405 121.38Z" fill="#3F2C1C"/>
<path d="M130.889 121.315L130.89 121.9L137.008 121.887L137.006 121.107L131.084 121.121C130.977 121.121 130.888 121.207 130.889 121.315Z" fill="#3F2C1C"/>
<path d="M93.7063 121.395L93.7085 121.981L99.8262 121.968L99.8235 121.188L93.9015 121.201C93.7931 121.201 93.7063 121.289 93.7063 121.395Z" fill="#3F2C1C"/>
<path d="M104.729 121.372L104.73 121.957L125.971 121.911L125.969 121.131L104.922 121.177C104.815 121.177 104.729 121.264 104.729 121.372Z" fill="#3F2C1C"/>
<path d="M89.4388 121.2L94.3869 121.189L94.3887 121.99L89.4405 122.001L89.4388 121.2Z" fill="#7F7F7F"/>
<path d="M83.4804 121.213L88.4299 121.202L88.4316 122.003L83.4822 122.014L83.4804 121.213Z" fill="#7F7F7F"/>
<path d="M77.5227 121.226L82.4709 121.215L82.4727 122.016L77.5245 122.027L77.5227 121.226Z" fill="#7F7F7F"/>
<path d="M71.5657 121.239L76.5139 121.229L76.5156 122.03L71.5675 122.041L71.5657 121.239Z" fill="#7F7F7F"/>
<path d="M66.606 121.255L69.5002 121.248L69.502 122.04L66.6078 122.046L66.606 121.255Z" fill="#7F7F7F"/>
<path d="M63.0932 121.261L65.9865 121.255L65.9883 122.046L63.095 122.053L63.0932 121.261Z" fill="#7F7F7F"/>
<path d="M59.7868 121.268L62.6818 121.262L62.6836 122.054L59.7885 122.06L59.7868 121.268Z" fill="#7F7F7F"/>
<path d="M101.345 84.7411C100.93 83.166 99.4295 81.9434 97.8066 81.9702L109.386 123.682C109.386 123.682 111.324 123.024 110.807 120.898C110.376 119.122 103.578 93.2381 101.345 84.7411Z" fill="#3F2C1C"/>
<path d="M97.9148 81.5967L44.8318 81.7103C44.0903 81.712 43.5469 82.4114 43.7316 83.1315L53.5853 121.708L109.43 121.586L99.4794 82.8092C99.2979 82.094 98.6524 81.5949 97.9148 81.5967Z" fill="white"/>
<path d="M109.672 121.773L109.61 121.539L99.6607 82.7619C99.4581 81.9625 98.7385 81.4065 97.9136 81.4082L44.8302 81.5222C44.4188 81.5231 44.0369 81.7112 43.7852 82.0366C43.5317 82.3628 43.4462 82.7794 43.5484 83.178L53.4399 121.895H53.5859L109.672 121.773ZM97.9154 81.784C98.567 81.7831 99.1362 82.223 99.2967 82.8549L109.186 121.399L53.7311 121.519L43.9132 83.0851C43.8404 82.7983 43.9014 82.501 44.0829 82.2677C44.2632 82.0335 44.5346 81.8998 44.8319 81.8985L97.9154 81.784Z" fill="black"/>
<path d="M99.7392 82.7421C99.527 81.9059 98.7745 81.3244 97.9132 81.3262L44.8302 81.4411C44.3917 81.4419 43.9878 81.6401 43.719 81.9874C43.4506 82.3334 43.3594 82.7746 43.4677 83.1982L53.3233 121.773L53.3741 121.977L109.775 121.856L99.7392 82.7421ZM43.9913 83.0649C43.9247 82.8031 43.9812 82.5308 44.1461 82.3172C44.3119 82.105 44.5601 81.9809 44.8302 81.9809L97.9141 81.8669C98.528 81.8647 99.0639 82.2795 99.2152 82.8763L109.079 121.317L53.7933 121.436L43.9913 83.0649Z" fill="black"/>
<path d="M53.344 123.748C53.3448 123.909 53.4738 124.039 53.6325 124.038L108.405 123.919C108.724 123.919 108.981 123.661 108.98 123.341L108.977 121.577L53.3387 121.697L53.344 123.748Z" fill="black"/>
<path d="M147.377 122.195L108.35 122.281L108.349 121.619L147.375 121.534L147.377 122.195Z" fill="black"/>
<path d="M98.877 122.301L53.3424 122.4L53.3402 121.738L98.8761 121.641L98.877 122.301Z" fill="#3F2C1C"/>
</svg>
