<svg width="34" height="34" viewBox="0 0 34 34" fill="none" xmlns="http://www.w3.org/2000/svg">
<mask id="mask0_746_18023" style="mask-type:alpha" maskUnits="userSpaceOnUse" x="0" y="0" width="34" height="34">
<rect width="34" height="34" fill="#D9D9D9"/>
</mask>
<g mask="url(#mask0_746_18023)">
<path d="M12.9026 16.6566L16.139 13.4117L13.2295 10.4941L11.5894 12.1342L10.5868 11.1316L12.2188 9.49145L9.45342 6.72612L6.2089 9.97099L12.9026 16.6566ZM24.0015 27.7636L27.2464 24.5191L24.4811 21.7538L22.8409 23.3858L21.8386 22.3831L23.4703 20.743L20.5799 17.8608L17.3432 21.0971L24.0015 27.7636ZM10.1345 28.3331H5.66667V23.8653L11.8919 17.6401L4.25 9.97099L9.45342 4.76758L17.158 12.4445L23.4866 6.10775C23.6429 5.95168 23.8073 5.83905 23.9799 5.76987C24.1523 5.70092 24.3366 5.66645 24.5328 5.66645C24.729 5.66645 24.9134 5.70092 25.086 5.76987C25.2586 5.83905 25.4229 5.95168 25.579 6.10775L27.892 8.51077C28.0481 8.66684 28.1561 8.83117 28.2161 9.00377C28.2761 9.17636 28.3061 9.36076 28.3061 9.55697C28.3061 9.75295 28.2761 9.93133 28.2161 10.0921C28.1561 10.2529 28.0481 10.4113 27.892 10.5674L21.6176 16.8772L29.2322 24.5464L24.0288 29.7498L16.3597 22.1079L10.1345 28.3331ZM7.08333 26.9165H9.52992L23.4405 13.014L20.9858 10.5593L7.08333 24.4699V26.9165ZM22.2307 11.7772L20.9858 10.5593L23.4405 13.014L22.2307 11.7772Z" fill="#1C1B1F"/>
</g>
</svg>
