<svg width="113" height="173" viewBox="0 0 113 173" fill="none" xmlns="http://www.w3.org/2000/svg">
<g opacity="0.44">
<path opacity="0.9" d="M56.5151 0.000933076V0C56.5012 0 56.4857 0 56.47 0C56.4567 0 56.4425 0 56.4261 0V0.000933076C25.2602 0.0420086 0.00679161 24.9233 1.23911e-06 55.6182C-0.00524587 79.4337 16.655 85.1583 30.7728 120.92C35.209 132.157 42.8905 142.379 56.3947 142.428V142.429C56.411 142.429 56.4252 142.428 56.4385 142.428C56.4542 142.428 56.4697 142.429 56.4836 142.429V142.428C69.989 142.386 77.6742 132.167 82.1163 120.932C96.2498 85.1759 112.911 79.4587 112.917 55.6432C112.924 24.9486 87.6792 0.0559064 56.5151 0.000933076Z" fill="#525252"/>
<path d="M71.6164 70.368L61.7667 135.666C61.7009 136.112 62.009 136.526 62.454 136.59C62.9004 136.655 63.3143 136.346 63.3782 135.901L74.5138 70.6704C74.3937 69.6737 72.6955 68.3828 71.6164 70.368Z" fill="white"/>
<path d="M40.9196 70.4145C40.4702 69.5168 38.438 68.8725 38.0898 71.1057L50.7882 135.91C50.8777 136.351 51.3083 136.637 51.7484 136.548C52.1898 136.459 52.475 136.029 52.387 135.588L40.9196 70.4145Z" fill="white"/>
<path d="M70.2979 63.1068L66.6616 66.1893L63.5708 63.0484C63.3183 62.7918 62.3905 62.4826 61.7445 63.276L56.6085 68.9099L50.8842 58.0835C50.8428 57.9587 50.7786 57.8401 50.6928 57.7336C50.4629 57.376 50.0052 57.2252 49.5663 57.3454C49.5601 57.3463 49.5536 57.3482 49.5462 57.35C49.5363 57.3534 49.5255 57.3562 49.515 57.3596C49.3236 57.4146 49.1437 57.5205 48.9998 57.6786L41.7092 65.6775C41.2946 66.1331 41.3261 66.8388 41.7817 67.2554C42.2376 67.6702 42.9425 67.6378 43.3574 67.1819L49.6209 60.3105L55.0884 70.6461C55.5909 71.4791 56.5791 71.9989 57.4458 71.3129C57.5415 71.2373 62.792 65.4407 62.792 65.4407L65.5591 68.2514C65.6048 68.3221 66.536 69.2054 67.1394 68.7107L71.7405 64.8106C72.0143 64.5784 72.2134 63.797 71.8158 63.3264C71.4167 62.8557 70.5723 62.8748 70.2979 63.1068Z" fill="white"/>
<path opacity="0.51" d="M58.6886 6.25092V6.25C58.6759 6.25 58.6617 6.25 58.6475 6.25C58.6355 6.25 58.6225 6.25 58.6074 6.25V6.25092C55.94 6.25432 53.3198 6.45753 50.7617 6.84543C52.3075 6.70615 53.8717 6.62987 55.4535 6.62802V6.62709C55.4684 6.62709 55.4813 6.62709 55.4937 6.62709C55.5079 6.62709 55.5221 6.62709 55.5347 6.62709V6.62802C83.9688 6.67774 107.002 29.3901 106.996 57.3962C106.991 79.1255 91.7888 84.3418 78.8933 116.966C75.3277 125.983 75.3052 132.568 65.5592 134.46C77.2229 133.903 78.1124 126.54 82.0471 116.589C94.9427 83.9647 110.144 78.7484 110.149 57.0191C110.156 29.013 87.1226 6.30065 58.6886 6.25092Z" fill="white"/>
<path d="M72.4884 164.552C72.514 164.342 72.5334 164.131 72.5334 163.917C72.5334 163.704 72.514 163.493 72.4887 163.282L72.4905 154.835L40.3381 154.828L40.3359 164.577H40.3847C40.9888 169.282 47.9393 172.994 56.4332 172.996C64.9245 172.997 71.8778 169.289 72.484 164.584H72.4887L72.4884 164.552Z" fill="#191313"/>
<path d="M73.568 163.915L39.2998 163.907C38.8275 163.907 38.4411 163.52 38.4414 163.048L38.4473 136.789C38.4473 136.316 38.8337 135.929 39.3063 135.93L73.5745 135.937C74.0467 135.937 74.4332 136.324 74.4332 136.797L74.4273 163.056C74.4267 163.528 74.0403 163.915 73.568 163.915Z" fill="#191313"/>
<g opacity="0.9">
<path d="M73.5955 141.958C62.1334 142.305 50.7425 142.303 39.2788 141.95C38.8208 141.932 38.4637 141.592 38.4853 141.196C38.5069 140.799 38.8977 140.491 39.3538 140.509C50.7678 140.86 62.1093 140.862 73.5215 140.516C73.9776 140.498 74.3681 140.808 74.3897 141.203C74.4107 141.6 74.0536 141.94 73.5955 141.958Z" fill="#525252"/>
</g>
<g opacity="0.9">
<path d="M73.5955 147.02C62.1334 147.368 50.7425 147.365 39.2788 147.012C38.8208 146.994 38.4637 146.654 38.4853 146.258C38.5069 145.862 38.8977 145.553 39.3535 145.571C50.7675 145.922 62.109 145.924 73.5212 145.578C73.977 145.561 74.3678 145.87 74.3894 146.266C74.411 146.662 74.0536 147.002 73.5955 147.02Z" fill="#525252"/>
</g>
<g opacity="0.9">
<path d="M73.5956 152.098C62.1334 152.446 50.7426 152.443 39.2789 152.091C38.8208 152.073 38.4637 151.733 38.4853 151.336C38.5069 150.94 38.8977 150.631 39.3535 150.649C50.7675 151 62.109 151.003 73.5212 150.657C73.9771 150.639 74.3678 150.948 74.3891 151.344C74.4107 151.741 74.0536 152.08 73.5956 152.098Z" fill="#525252"/>
</g>
<g opacity="0.9">
<path d="M73.5917 157.169C62.1295 157.516 50.7387 157.514 39.275 157.161C38.8169 157.143 38.4598 156.803 38.4814 156.407C38.503 156.01 38.8938 155.702 39.3497 155.719C50.7637 156.071 62.1051 156.073 73.5173 155.727C73.9732 155.709 74.3639 156.018 74.3852 156.415C74.4068 156.811 74.0497 157.151 73.5917 157.169Z" fill="#525252"/>
</g>
</g>
</svg>
