<svg width="209" height="155" viewBox="0 0 209 155" fill="none" xmlns="http://www.w3.org/2000/svg">
<path d="M63.0678 108.757L63.3903 109.621C61.6076 110.286 59.8467 110.905 58.1567 111.461L57.8687 110.585C59.5474 110.033 61.2965 109.418 63.0678 108.757Z" fill="#C5C5C5"/>
<path d="M113.107 85.4103L113.524 86.2323C111.881 87.068 110.236 87.9 108.589 88.7286L108.174 87.9047C109.82 87.0765 111.464 86.2452 113.107 85.4103Z" fill="#C5C5C5"/>
<path d="M123.367 81.1727C121.731 82.0222 120.093 82.8681 118.453 83.7104L118.031 82.8904C119.671 82.0483 121.307 81.2028 122.943 80.354L123.367 81.1727Z" fill="#C5C5C5"/>
<path d="M142.938 70.8624C141.312 71.7318 139.686 72.5988 138.058 73.464L137.625 72.6499C139.252 71.7851 140.878 70.9186 142.503 70.0492L142.938 70.8624Z" fill="#C5C5C5"/>
<path d="M152.677 65.6193C151.055 66.4954 149.433 67.3708 147.809 68.2437L147.372 67.4312C148.996 66.5583 150.617 65.6837 152.239 64.8077L152.677 65.6193Z" fill="#C5C5C5"/>
<path d="M162.399 60.344C160.78 61.2251 159.16 62.106 157.54 62.9847L157.101 62.1739C158.72 61.2952 160.339 60.4145 161.958 59.5336L162.399 60.344Z" fill="#C5C5C5"/>
<path d="M73.2843 104.587L73.6542 105.432C71.8566 106.22 70.1886 106.928 68.555 107.598L68.2052 106.745C69.8323 106.078 71.4938 105.372 73.2843 104.587Z" fill="#C5C5C5"/>
<path d="M82.0185 100.608L83.3276 99.9953L83.7187 100.83L82.4084 101.443C81.1765 102.018 79.9407 102.591 78.7 103.16L78.3164 102.321C79.554 101.755 80.7883 101.183 82.0185 100.608Z" fill="#C5C5C5"/>
<path d="M93.3094 95.2436L93.711 96.0737C92.0514 96.8769 90.3885 97.6751 88.7239 98.4688L88.3273 97.6359C89.9904 96.8431 91.6509 96.046 93.3094 95.2436Z" fill="#C5C5C5"/>
<path d="M103.234 90.3789L103.644 91.2048C101.993 92.0251 100.339 92.8418 98.684 93.6533L98.2784 92.8251C99.932 92.0146 101.584 91.1987 103.234 90.3789Z" fill="#C5C5C5"/>
<path d="M133.165 76.0491C131.535 76.9095 129.903 77.7673 128.269 78.6223L127.842 77.8052C129.475 76.9509 131.106 76.0935 132.735 75.2339L133.165 76.0491Z" fill="#C5C5C5"/>
<path d="M3.70778 52.3359L3.44382 51.4528C5.2043 50.926 7.06048 50.5778 8.96054 50.4182L9.03771 51.337C7.20063 51.491 5.40745 51.8273 3.70778 52.3359Z" fill="#C5C5C5"/>
<path d="M172.107 55.0436C170.489 55.9283 168.872 56.8122 167.254 57.6948L166.812 56.8851C168.43 56.0025 170.047 55.1182 171.664 54.2341L172.107 55.0436Z" fill="#C5C5C5"/>
<path d="M42.0469 74.415C41.5294 72.6553 40.8789 70.9391 40.1138 69.3145L40.9472 68.9214C41.7325 70.5891 42.4001 72.3492 42.9309 74.1545L42.0469 74.415Z" fill="#C5C5C5"/>
<path d="M181.808 49.7417L176.958 52.3976L176.515 51.5881L181.365 48.9328L181.808 49.7417Z" fill="#C5C5C5"/>
<path d="M33.8803 60.451L34.5245 59.7916C35.8806 61.1179 37.1013 62.5575 38.1526 64.0703L37.3962 64.5966C36.3779 63.1318 35.1951 61.7366 33.8803 60.451Z" fill="#C5C5C5"/>
<path d="M14.4738 51.4019L14.5674 50.4849C16.4027 50.6725 18.2543 51.0245 20.0707 51.5315L19.8232 52.4198C18.0569 51.9271 16.2571 51.5844 14.4738 51.4019Z" fill="#C5C5C5"/>
<path d="M24.9344 54.3093L25.3227 53.4733C27.0227 54.2644 28.6607 55.1969 30.1908 56.2444L29.6705 57.0053C28.1819 55.9862 26.5886 55.079 24.9344 54.3093Z" fill="#C5C5C5"/>
<path d="M42.4346 96.0715C42.8445 94.2857 43.1532 92.4697 43.3518 90.6731L44.2679 90.7748C44.0656 92.6063 43.7507 94.4579 43.333 96.2781L42.4346 96.0715Z" fill="#C5C5C5"/>
<path d="M-1.26075 140.101C0.000115929 139.578 1.2575 139.032 2.47595 138.478L2.85756 139.317C1.62998 139.876 0.363063 140.427 -0.9076 140.953C-1.3526 141.137 -1.79875 141.319 -2.24547 141.499L-2.5888 140.643C-2.14489 140.465 -1.70252 140.284 -1.26075 140.101Z" fill="#C5C5C5"/>
<path d="M12.715 134.208C11.1592 135.126 9.52349 136.03 7.85384 136.895L7.43018 136.076C9.085 135.219 10.7057 134.323 12.2468 133.414L12.715 134.208Z" fill="#C5C5C5"/>
<path d="M-4.05378 101.941C-2.79046 103.216 -1.40767 104.426 0.0559612 105.537L-0.501133 106.271C-1.99867 105.134 -3.41438 103.896 -4.70807 102.59L-4.05378 101.941Z" fill="#C5C5C5"/>
<path d="M25.4256 114.971C27.2324 115.155 29.0759 115.259 30.9039 115.282L30.8925 116.204C29.0369 116.181 27.1663 116.075 25.3321 115.888L25.4256 114.971Z" fill="#C5C5C5"/>
<path d="M36.9399 111.684C35.9633 113.233 34.8872 114.768 33.7409 116.247L33.0124 115.682C34.1403 114.226 35.1995 112.715 36.1604 111.192L36.9399 111.684Z" fill="#C5C5C5"/>
<path d="M44.1175 79.6274C44.3793 81.441 44.5233 83.3154 44.5459 85.1994L43.6248 85.2107C43.6023 83.3669 43.4613 81.5332 43.2058 79.7594L44.1175 79.6274Z" fill="#C5C5C5"/>
<path d="M41.8486 114.495L41.9848 115.407C40.134 115.683 38.2751 115.894 36.4598 116.032L36.3892 115.113C38.1833 114.976 40.0196 114.768 41.8486 114.495Z" fill="#C5C5C5"/>
<path d="M52.6006 112.176L52.8462 113.064C51.0262 113.567 49.2116 114.015 47.4535 114.395L47.2585 113.493C48.9997 113.117 50.7972 112.673 52.6006 112.176Z" fill="#C5C5C5"/>
<path d="M41.7804 101.639C41.1651 103.393 40.4462 105.127 39.6429 106.794L38.813 106.394C39.6009 104.757 40.3072 103.055 40.911 101.334L41.7804 101.639Z" fill="#C5C5C5"/>
<path d="M21.9115 127.976C20.4835 129.09 18.9697 130.188 17.4124 131.241L16.8959 130.478C18.4357 129.436 19.9325 128.35 21.3444 127.248L21.9115 127.976Z" fill="#C5C5C5"/>
<path d="M9.52695 110.98L9.16748 111.829C7.43334 111.093 5.75027 110.259 4.16477 109.353L4.6219 108.552C6.17575 109.441 7.82613 110.258 9.52695 110.98Z" fill="#C5C5C5"/>
<path d="M30.1287 120.481C28.8873 121.814 27.5545 123.129 26.1672 124.391L25.5473 123.708C26.9159 122.464 28.2304 121.167 29.4546 119.852L30.1287 120.481Z" fill="#C5C5C5"/>
<path d="M14.6811 112.839C16.4007 113.359 18.1912 113.805 20.0027 114.162L19.8244 115.067C17.9836 114.704 16.1636 114.251 14.4143 113.722L14.6811 112.839Z" fill="#C5C5C5"/>
<path d="M164.888 81.9296L159.42 62.0409L145.176 47.1243L196.792 40.8629L164.888 81.9296Z" fill="#C5C5C5"/>
<path d="M159.418 62.0416L160.333 65.3709L196.635 41.0629L196.79 40.8637L196.699 40.8746L157.07 59.5827L159.418 62.0416Z" fill="#C5C5C5"/>
</svg>
