<svg width="34" height="34" viewBox="0 0 34 34" fill="none" xmlns="http://www.w3.org/2000/svg">
<mask id="mask0_3116_7188" style="mask-type:alpha" maskUnits="userSpaceOnUse" x="0" y="0" width="34" height="34">
<rect width="34" height="34" fill="#D9D9D9"/>
</mask>
<g mask="url(#mask0_3116_7188)">
<path d="M10.9805 20.6803H12.6695V15.7223H10.9805V17.3568H8.85547V19.0458H10.9805V20.6803ZM14.0862 19.0458H25.1471V17.3568H14.0862V19.0458ZM21.3331 15.4496H23.0221V13.8151H25.1471V12.1261H23.0221V10.4916H21.3331V15.4496ZM8.85547 13.8151H19.9164V12.1261H8.85547V13.8151ZM12.043 29.0443V26.2109H6.10395C5.3883 26.2109 4.78255 25.963 4.28672 25.4672C3.79089 24.9714 3.54297 24.3656 3.54297 23.65V7.52192C3.54297 6.80626 3.79089 6.20052 4.28672 5.70469C4.78255 5.20885 5.3883 4.96094 6.10395 4.96094H27.8987C28.6143 4.96094 29.2201 5.20885 29.7159 5.70469C30.2117 6.20052 30.4596 6.80626 30.4596 7.52192V23.65C30.4596 24.3656 30.2117 24.9714 29.7159 25.4672C29.2201 25.963 28.6143 26.2109 27.8987 26.2109H21.9596V29.0443H12.043ZM6.10395 24.0859H27.8987C28.0077 24.0859 28.1076 24.0405 28.1983 23.9496C28.2892 23.8589 28.3346 23.759 28.3346 23.65V7.52192C28.3346 7.41283 28.2892 7.31296 28.1983 7.22229C28.1076 7.13139 28.0077 7.08594 27.8987 7.08594H6.10395C5.99486 7.08594 5.89499 7.13139 5.80432 7.22229C5.71342 7.31296 5.66797 7.41283 5.66797 7.52192V23.65C5.66797 23.759 5.71342 23.8589 5.80432 23.9496C5.89499 24.0405 5.99486 24.0859 6.10395 24.0859Z" fill="white"/>
</g>
</svg>
