<svg width="34" height="34" viewBox="0 0 34 34" fill="none" xmlns="http://www.w3.org/2000/svg">
<mask id="mask0_3116_7703" style="mask-type:alpha" maskUnits="userSpaceOnUse" x="0" y="0" width="34" height="34">
<rect width="34" height="34" fill="#D9D9D9"/>
</mask>
<g mask="url(#mask0_3116_7703)">
<path d="M13.5987 21.5822L15.0915 20.0458L12.0457 17L15.0915 13.9542L13.5987 12.4178L9.01649 17L13.5987 21.5822ZM20.3987 21.5822L24.9809 17L20.3987 12.4178L18.9059 13.9542L21.9517 17L18.9059 20.0458L20.3987 21.5822ZM7.51801 29.0417C6.81157 29.0417 6.20807 28.7915 5.70751 28.2912C5.20719 27.7906 4.95703 27.1871 4.95703 26.4807V7.51931C4.95703 6.81287 5.20719 6.20937 5.70751 5.70881C6.20807 5.20849 6.81157 4.95833 7.51801 4.95833H13.8222C13.9112 4.17185 14.2545 3.50306 14.8521 2.95198C15.4495 2.40066 16.165 2.125 16.9987 2.125C17.8414 2.125 18.5615 2.40066 19.1591 2.95198C19.7567 3.50306 20.0954 4.17185 20.1752 4.95833H26.4794C27.1858 4.95833 27.7893 5.20849 28.2899 5.70881C28.7902 6.20937 29.0404 6.81287 29.0404 7.51931V26.4807C29.0404 27.1871 28.7902 27.7906 28.2899 28.2912C27.7893 28.7915 27.1858 29.0417 26.4794 29.0417H7.51801ZM7.51801 26.9167H26.4794C26.5885 26.9167 26.6883 26.8712 26.779 26.7803C26.8699 26.6896 26.9154 26.5898 26.9154 26.4807V7.51931C26.9154 7.41023 26.8699 7.31035 26.779 7.21969C26.6883 7.12878 26.5885 7.08333 26.4794 7.08333H7.51801C7.40893 7.08333 7.30905 7.12878 7.21839 7.21969C7.12748 7.31035 7.08203 7.41023 7.08203 7.51931V26.4807C7.08203 26.5898 7.12748 26.6896 7.21839 26.7803C7.30905 26.8712 7.40893 26.9167 7.51801 26.9167ZM16.9987 6.15719C17.3056 6.15719 17.5595 6.05684 17.7602 5.85614C17.9609 5.65545 18.0612 5.40163 18.0612 5.09469C18.0612 4.78774 17.9609 4.53392 17.7602 4.33323C17.5595 4.13253 17.3056 4.03219 16.9987 4.03219C16.6918 4.03219 16.4379 4.13253 16.2372 4.33323C16.0365 4.53392 15.9362 4.78774 15.9362 5.09469C15.9362 5.40163 16.0365 5.65545 16.2372 5.85614C16.4379 6.05684 16.6918 6.15719 16.9987 6.15719Z" fill="white"/>
</g>
</svg>
