<svg width="170" height="175" viewBox="0 0 170 175" fill="none" xmlns="http://www.w3.org/2000/svg">
<g opacity="0.6">
<path d="M142.115 12.055L82.8516 52.6641L84.2391 54.6889L143.503 14.0798L142.115 12.055Z" fill="white"/>
<path d="M71.4464 60.4736L14.082 99.7812L15.4695 101.806L72.8339 62.4985L71.4464 60.4736Z" fill="white"/>
<path d="M197.52 79.0456L195.495 80.4331C170.644 44.1658 121.522 33.1913 83.666 55.4505L82.421 53.334C121.385 30.4254 171.942 41.7172 197.52 79.0456Z" fill="white"/>
<path d="M56.8698 175.428L54.8449 176.816C29.3331 139.585 36.9739 88.4203 72.238 60.3375L73.7651 62.2578C39.5026 89.5442 32.0822 139.254 56.8698 175.428Z" fill="white"/>
<path d="M13.936 110.008C10.6942 112.23 6.24926 111.401 4.02789 108.159C1.80651 104.918 2.63839 100.473 5.8802 98.252C9.122 96.0306 13.5649 96.8605 15.7863 100.102C18.0097 103.343 17.1778 107.787 13.936 110.008ZM7.26769 100.277C5.14158 101.734 4.59727 104.648 6.05275 106.772C7.50822 108.896 10.4224 109.44 12.5485 107.983C14.6726 106.528 15.2169 103.614 13.7614 101.49C12.3059 99.3657 9.39379 98.82 7.26769 100.277Z" fill="white"/>
<path d="M151.452 15.7818C148.21 18.0031 143.765 17.1747 141.544 13.9329C139.322 10.6911 140.154 6.24679 143.396 4.02542C146.638 1.80404 151.081 2.6339 153.302 5.8757C155.523 9.11751 154.693 13.5604 151.452 15.7818ZM144.783 6.05028C142.657 7.50714 142.113 10.4213 143.568 12.5454C145.024 14.6694 147.938 15.2138 150.064 13.7569C152.188 12.3014 152.732 9.38727 151.277 7.26319C149.822 5.13911 146.907 4.5948 144.783 6.05028Z" fill="white"/>
<path d="M178.592 168.384L145.062 191.359L152.996 202.938L186.526 179.962L178.592 168.384Z" fill="white"/>
<path d="M188.231 180.279L152.677 204.642L143.355 191.039L178.91 166.676L188.231 180.279ZM153.314 201.23L184.819 179.642L178.273 170.088L146.768 191.676L153.314 201.23Z" fill="white"/>
<path d="M100.116 85.4483L134.049 134.97C134.825 134.817 135.64 134.794 136.462 134.948C139.926 135.595 142.209 138.928 141.562 142.391C140.915 145.858 137.582 148.142 134.115 147.494C130.65 146.845 128.366 143.512 129.013 140.049C129.167 139.227 129.482 138.475 129.905 137.807L95.9727 88.2871L102.152 168.245L102.593 168.454C115.373 163.425 130.378 167.644 138.471 179.455C140.168 181.931 141.431 184.574 142.304 187.294L175.485 164.557C173.262 162.763 171.249 160.637 169.551 158.158C161.387 146.244 162.956 130.552 172.48 120.459L172.451 120.074L100.116 85.4483Z" fill="white"/>
<path d="M177.541 164.64L141.642 189.239L141.14 187.673C140.277 184.985 139.041 182.455 137.462 180.151C129.804 168.975 115.653 164.639 103.047 169.596L102.55 169.791L100.986 169.05L94.3956 83.8162L131.376 137.785L130.94 138.468C130.58 139.033 130.336 139.64 130.219 140.274C129.697 143.068 131.548 145.764 134.34 146.288C137.134 146.808 139.831 144.959 140.356 142.165C140.608 140.814 140.319 139.441 139.541 138.305C138.763 137.169 137.59 136.405 136.237 136.154C135.605 136.036 134.951 136.044 134.287 136.174L133.493 136.331L96.5136 82.3649L173.624 119.277L173.743 120.91L173.373 121.303C164.116 131.122 162.933 146.331 170.564 157.468C172.132 159.756 174.049 161.82 176.258 163.606L177.541 164.64ZM142.936 185.377L173.47 164.454C171.593 162.774 169.94 160.895 168.541 158.854C160.512 147.136 161.477 131.261 170.704 120.6L103.718 88.5362L134.631 133.65C135.325 133.585 136.014 133.619 136.687 133.744C138.683 134.117 140.416 135.244 141.565 136.921C142.714 138.598 143.141 140.62 142.768 142.619C141.997 146.745 138.015 149.474 133.889 148.704C129.765 147.932 127.036 143.949 127.806 139.827C127.932 139.151 128.151 138.498 128.46 137.876L97.5483 92.7639L103.278 166.894C116.663 162.2 131.405 166.977 139.482 178.766C140.891 180.818 142.049 183.036 142.936 185.377Z" fill="white"/>
<path d="M87.5217 59.308L76.144 67.1043L68.3477 55.7266L79.7253 47.9303L87.5217 59.308ZM76.7813 63.6919L84.1093 58.6706L79.088 51.3426L71.76 56.3639L76.7813 63.6919Z" fill="white"/>
</g>
</svg>
