<svg width="136" height="110" viewBox="0 0 136 110" fill="none" xmlns="http://www.w3.org/2000/svg">
<g opacity="0.6">
<path d="M90.6732 102.797H27.9922V108.282H90.6732V102.797Z" fill="white"/>
<path d="M91.5806 109.186H27.0898V101.891H91.5806V109.186ZM28.8997 107.376H89.7708V103.7H28.8997V107.376Z" fill="black"/>
<path d="M71.6608 89.8359H45.1797V102.791H71.6608V89.8359Z" fill="white"/>
<path d="M72.5662 103.696H44.2734V89.8359H46.0832V101.886H70.7564V89.8359H72.5662V103.696Z" fill="black"/>
<path d="M117.771 13.9844H0.90625V89.839H117.771V13.9844Z" fill="#FFFCF1"/>
<path d="M118.675 90.7425H0V13.0781H118.675V90.7425ZM1.80981 88.9327H116.865V14.8879H1.80981V88.9327Z" fill="black"/>
<path d="M91.4275 78.5312H0.90625V80.3411H91.4275V78.5312Z" fill="black"/>
<path d="M111.54 19.5625H7.125V73.3048H111.54V19.5625Z" fill="white"/>
<path d="M112.448 74.2084H6.22266V18.6562H112.448V74.2084ZM8.03247 72.3986H110.638V20.4661H8.03247V72.3986Z" fill="black"/>
<path d="M135.094 1.54688H75.0625V79.6872H135.094V1.54688Z" fill="#FFFCF1"/>
<path d="M135.999 80.589H74.1562V0.640625H135.999V80.589ZM75.9661 78.7792H134.189V2.45044H75.9661V78.7792Z" fill="black"/>
<path d="M127.007 37.6406H83.1484V46.0707H127.007V37.6406Z" fill="white"/>
<path d="M127.913 46.9743H82.2461V36.7344H127.913V46.9743ZM84.0559 45.1645H126.103V38.5442H84.0559V45.1645Z" fill="black"/>
<path d="M127.007 50.6016H83.1484V59.0316H127.007V50.6016Z" fill="white"/>
<path d="M127.913 59.937H82.2461V49.6953H127.913V59.937ZM84.0559 58.1272H126.103V51.5051H84.0559V58.1272Z" fill="black"/>
<path d="M127.005 63.3203H82.8438V73.2924H127.005V63.3203Z" fill="#CFFFC2"/>
<path d="M127.912 74.1959H81.9414V62.4141H127.912V74.1959ZM83.7512 72.3861H126.103V64.2239H83.7512V72.3861Z" fill="black"/>
<path d="M118.675 8.40625H91.3125V10.2161H118.675V8.40625Z" fill="black"/>
<path d="M135.092 1.42969H125.148V11.3728H135.092V1.42969Z" fill="white"/>
<path d="M135.999 12.2764H124.246V0.523438H135.999V12.2764ZM126.056 10.4665H134.189V2.33325H126.056V10.4665Z" fill="black"/>
<path d="M114.057 22.9659C114.057 27.7674 110.166 31.6585 105.364 31.6585C100.565 31.6585 96.6719 27.7674 96.6719 22.9659C96.6719 18.1663 100.563 14.2734 105.364 14.2734C110.166 14.2734 114.057 18.1645 114.057 22.9659Z" fill="#FFC7C4"/>
<path d="M105.363 32.562C100.071 32.562 95.7656 28.2565 95.7656 22.9646C95.7656 17.6727 100.071 13.3672 105.363 13.3672C110.655 13.3672 114.961 17.6727 114.961 22.9646C114.961 28.2565 110.655 32.562 105.363 32.562ZM105.363 15.177C101.07 15.177 97.5754 18.6699 97.5754 22.9646C97.5754 27.2593 101.07 30.7522 105.363 30.7522C109.656 30.7522 113.151 27.2593 113.151 22.9646C113.151 18.6699 109.658 15.177 105.363 15.177Z" fill="black"/>
<path d="M58.1058 24.5156H12.5547V26.3254H58.1058V24.5156Z" fill="black"/>
<path d="M30.9044 36.5703H12.5547V38.3801H30.9044V36.5703Z" fill="black"/>
<path d="M39.539 42.5938H12.5547V44.4036H39.539V42.5938Z" fill="black"/>
<path d="M58.1058 54.6484H12.5547V56.4582H58.1058V54.6484Z" fill="black"/>
<path d="M32.9549 48.625H19.4609V50.4348H32.9549V48.625Z" fill="black"/>
<path d="M75.0607 60.6797H19V62.4895H75.0607V60.6797Z" fill="black"/>
<path d="M72.8299 42.5938H45.8438V44.4036H72.8299V42.5938Z" fill="black"/>
<path d="M40.7817 66.7031H28.332V68.5129H40.7817V66.7031Z" fill="black"/>
<path d="M43.1024 48.625H35.4922V50.4348H43.1024V48.625Z" fill="black"/>
<path d="M58.124 87.4278C56.269 87.4278 54.7578 85.9166 54.7578 84.0616C54.7578 82.2065 56.269 80.6953 58.124 80.6953C59.9791 80.6953 61.4903 82.2047 61.4903 84.0616C61.4903 85.9166 59.9791 87.4278 58.124 87.4278ZM58.124 82.5051C57.2644 82.5051 56.5676 83.2037 56.5676 84.0616C56.5676 84.9194 57.2662 85.618 58.124 85.618C58.9819 85.618 59.6805 84.9194 59.6805 84.0616C59.6805 83.2037 58.9837 82.5051 58.124 82.5051Z" fill="black"/>
<path d="M34.5567 30.5469H25.3828V32.3567H34.5567V30.5469Z" fill="black"/>
<path d="M116.078 67.3984H95.0859V69.2082H116.078V67.3984Z" fill="black"/>
</g>
</svg>
