<svg width="28" height="29" viewBox="0 0 28 29" fill="none" xmlns="http://www.w3.org/2000/svg">
<g style="mix-blend-mode:screen" opacity="0.45">
<path d="M20.2779 26.9797C17.8216 28.0856 15.6988 28.4523 12.7535 28.4523C5.96832 28.4523 0 23.5899 0 15.5765C0 7.56321 6.09058 0 15.2876 0C22.5229 0 27.6744 4.94582 27.6744 11.8144C27.6744 17.8216 24.3234 21.5838 19.9055 21.5838C17.9828 21.5838 16.5935 20.5613 16.3879 18.4329H16.3045C14.9986 20.4779 13.1981 21.5838 10.9919 21.5838C8.37455 21.5838 6.41289 19.5832 6.41289 16.2267C6.41289 11.1976 10.1306 6.70186 16.0211 6.70186C17.8216 6.70186 19.8611 7.15199 20.8836 7.68547L19.6555 15.2876C19.2442 17.6994 19.5332 18.8052 20.678 18.8441C22.434 18.9275 24.6402 16.6769 24.6402 11.9366C24.6402 6.5796 21.2059 2.49514 14.8708 2.49514C8.5357 2.49514 3.15088 7.3576 3.15088 15.2098C3.15088 22.0784 7.48541 25.9183 13.576 25.9183C15.6599 25.9183 17.9105 25.4682 19.5443 24.6513L20.2834 26.9797H20.2779ZM16.638 10.0972C16.3101 10.0139 15.86 9.93609 15.3709 9.93609C12.6702 9.93609 10.5474 12.5924 10.5474 15.7433C10.5474 17.2992 11.242 18.2773 12.5924 18.2773C14.1039 18.2773 15.6988 16.3545 16.0656 13.9872L16.638 10.1028V10.0972Z" fill="#7E7E7E" fill-opacity="0.36"/>
</g>
</svg>
