<svg width="153" height="164" viewBox="0 0 153 164" fill="none" xmlns="http://www.w3.org/2000/svg">
<g style="mix-blend-mode:luminosity">
<path d="M94.9856 2.40157L81.6094 8.86719L121.222 90.8195L134.599 84.3539L94.9856 2.40157Z" fill="#D4D4D4"/>
<path d="M135.383 85.9749L122.007 92.4405C121.112 92.8731 120.035 92.4982 119.603 91.6033L79.9904 9.65185C79.5578 8.75691 79.9327 7.68046 80.8277 7.24788L94.2039 0.782262C95.0989 0.349681 96.1753 0.724556 96.6079 1.61949L136.22 83.5709C136.653 84.4659 136.278 85.5423 135.383 85.9749ZM122.06 88.4164L132.196 83.517L94.1497 4.80589L84.0136 9.70531L122.06 88.4164Z" fill="#666666"/>
<path d="M122.008 92.4413C121.429 92.7211 120.73 92.6755 120.187 92.2917C119.984 92.1499 101.842 79.9205 69.7682 95.4238C35.1412 112.161 23.3689 94.6747 20.5855 88.9162C17.802 83.1576 11.4114 63.0685 46.0384 46.331C78.2849 30.7442 79.8023 8.9909 79.8137 8.77324C79.8569 7.95265 80.4516 7.26871 81.2561 7.10417C82.0616 6.94142 82.8746 7.34591 83.2319 8.08509L122.844 90.0365C123.202 90.7757 123.014 91.6641 122.386 92.1941C122.268 92.2945 122.141 92.3769 122.008 92.4413ZM82.2994 14.4281C79.8625 22.4567 72.1204 37.7224 47.6051 49.5723C16.8487 64.4389 20.7294 80.944 23.8258 87.3499C26.9217 93.7549 37.4441 107.05 68.2015 92.1825C92.7168 80.3327 109.49 83.7486 117.295 86.8278L82.2994 14.4281Z" fill="#666666"/>
<path d="M91.6403 146.39L81.2766 151.399C77.2989 153.322 72.499 151.65 70.5763 147.672L48.0295 101.027C47.5969 100.132 47.9717 99.0555 48.8666 98.6229C49.7616 98.1904 50.8381 98.5653 51.2707 99.4602L73.8175 146.106C74.8763 148.296 77.5194 149.217 79.7099 148.158L90.0736 143.149C91.0577 142.673 91.6865 141.738 91.7562 140.646C91.8254 139.555 91.3205 138.547 90.405 137.949L87.6839 136.176C83.0134 133.131 79.2622 128.867 76.836 123.848L63.5169 96.2931C63.0843 95.3981 63.4591 94.3218 64.3541 93.8892C65.249 93.4566 66.3255 93.8315 66.7581 94.7264L80.0776 122.282C82.2187 126.712 85.5299 130.474 89.6511 133.161L92.3721 134.935C94.39 136.251 95.5033 138.471 95.3508 140.877C95.1965 143.28 93.8101 145.341 91.6403 146.39Z" fill="#666666"/>
<path d="M66.5299 135.161L63.1302 136.804C62.2353 137.236 61.1588 136.861 60.7262 135.967L54.4943 123.074C54.0617 122.179 54.4367 121.102 55.3316 120.67L58.7313 119.026C59.6262 118.594 60.7026 118.969 61.1351 119.864L67.3671 132.757C67.7988 133.652 67.4248 134.728 66.5299 135.161ZM63.1832 132.78L63.3426 132.703L58.6773 123.051L58.5179 123.128L63.1832 132.78Z" fill="#666666"/>
<path d="M22.2041 88.1338C24.5607 93.0091 35.2193 110.124 68.9838 93.8037C71.4777 92.5982 73.8789 91.5731 76.2072 90.6753L53.7644 44.2449C53.7644 44.2449 53.7555 44.2403 53.7529 44.2394C51.6057 45.5049 49.3124 46.7489 46.8212 47.9531C13.0567 64.2737 19.8475 83.2585 22.2041 88.1338Z" fill="#D4D4D4"/>
<path d="M76.9907 92.2987C76.9465 92.3201 76.9016 92.3396 76.8557 92.3573C74.392 93.3083 72.0739 94.3122 69.7681 95.4267C35.1411 112.164 23.3689 94.6776 20.5854 88.9191C17.8019 83.1605 11.4114 63.0715 46.0384 46.334C48.3594 45.212 50.5848 44.0208 52.8389 42.6914C53.297 42.4189 53.846 42.369 54.345 42.542C54.4261 42.5695 54.5155 42.6096 54.5914 42.6473C54.937 42.8268 55.2154 43.1132 55.3847 43.4635L77.8275 89.8939C78.0464 90.3468 78.0662 90.8703 77.8815 91.3384C77.7148 91.761 77.3958 92.1029 76.9907 92.2987ZM52.982 46.7652C51.2091 47.7643 49.4364 48.69 47.6051 49.5752C16.8486 64.4418 20.7293 80.9469 23.8257 87.3528C26.9217 93.7578 37.4441 107.053 68.2014 92.1855C70.0219 91.3055 71.849 90.4923 73.7441 89.7184L52.982 46.7652Z" fill="#666666"/>
</g>
</svg>
