<svg width="135" height="135" viewBox="0 0 135 135" fill="none" xmlns="http://www.w3.org/2000/svg">
<path d="M132.511 121.566H14.5461C13.5521 121.566 12.7461 120.76 12.7461 119.766V1.8C12.7461 0.805995 13.5521 0 14.5461 0C15.5401 0 16.3462 0.805995 16.3462 1.8V117.966H132.511C133.505 117.966 134.311 118.772 134.311 119.766C134.311 120.76 133.506 121.566 132.511 121.566Z" fill="#9A9A9A"/>
<path d="M14.5506 121.564C14.0646 121.564 13.5847 121.368 13.2347 120.992C12.6477 120.365 12.5877 119.41 13.0887 118.713L41.8327 78.7575C42.1477 78.3185 42.6457 78.0444 43.1867 78.0115C43.7407 77.9795 44.2527 78.1924 44.6197 78.5904L51.7337 86.3334L73.4746 57.0944C73.7816 56.6814 74.2506 56.4194 74.7636 56.3755C75.2776 56.3344 75.7846 56.5084 76.1586 56.8634L88.1826 68.2714L128.05 10.8524C128.616 10.0364 129.738 9.83145 130.555 10.4005C131.371 10.9675 131.575 12.0885 131.007 12.9055L89.9436 72.0474C89.6436 72.4794 89.1716 72.7575 88.6486 72.8115C88.1286 72.8655 87.6076 72.6885 87.2256 72.3265L75.1526 60.8715L53.3246 90.2275C53.0046 90.6575 52.5097 90.9234 51.9737 90.9504C51.4357 90.9774 50.9176 90.7654 50.5546 90.3704L43.4637 82.6535L21.2986 113.464L44.0257 99.3814C44.4797 99.0994 45.0366 99.0334 45.5436 99.2044L59.0166 103.695L75.5866 86.2344C76.2696 85.5164 77.4036 85.4834 78.1256 86.1634L89.5526 96.9174L125.463 61.3464C126.169 60.6474 127.31 60.6525 128.008 61.3585C128.708 62.0645 128.702 63.2044 127.996 63.9035L90.8506 100.698C90.1616 101.382 89.0556 101.394 88.3506 100.73L76.9627 90.0135L60.8387 107.005C60.3587 107.512 59.6277 107.696 58.9637 107.473L45.2046 102.887L15.4976 121.295C15.2046 121.476 14.8756 121.564 14.5506 121.564Z" fill="#9A9A9A"/>
<path d="M27.2932 16.3497C26.8322 16.3497 26.3723 16.1747 26.0213 15.8227L14.5473 4.34769L3.07229 15.8227C2.36929 16.5247 1.23025 16.5247 0.52725 15.8227C-0.17575 15.1197 -0.17575 13.9797 0.52725 13.2767L13.2743 0.529688C13.9483 -0.145312 15.1452 -0.145312 15.8192 0.529688L28.5653 13.2767C29.2683 13.9797 29.2683 15.1197 28.5653 15.8227C28.2143 16.1737 27.7542 16.3497 27.2932 16.3497Z" fill="#9A9A9A"/>
<path d="M119.768 134.313C119.307 134.313 118.847 134.138 118.496 133.786C117.793 133.083 117.793 131.943 118.496 131.24L129.969 119.766L118.496 108.292C117.793 107.589 117.793 106.449 118.496 105.746C119.199 105.044 120.338 105.043 121.041 105.746L133.787 118.493C134.49 119.196 134.49 120.336 133.787 121.039L121.041 133.786C120.689 134.137 120.229 134.313 119.768 134.313Z" fill="#9A9A9A"/>
</svg>
