<svg width="206" height="404" viewBox="0 0 206 404" fill="none" xmlns="http://www.w3.org/2000/svg">
<g style="mix-blend-mode:luminosity">
<path d="M121.855 113.647L68.28 97.7439L68.6877 96.3706L122.263 112.274L121.855 113.647Z" fill="#6A7B8A"/>
</g>
<g style="mix-blend-mode:luminosity">
<path d="M121.449 115.022L67.8737 99.1189L68.2815 97.7456L121.857 113.649L121.449 115.022Z" fill="#AEAEAE"/>
</g>
<g style="mix-blend-mode:luminosity">
<path d="M122.265 112.272L126.84 115.125L121.449 115.019L120.861 113.347L122.265 112.272Z" fill="#F5F7F9"/>
</g>
<g style="mix-blend-mode:luminosity">
<path d="M126.984 115.505L125.6 115.094L125.786 114.468L127.17 114.879C127.343 114.931 127.441 115.112 127.39 115.285C127.339 115.458 127.157 115.556 126.984 115.505Z" fill="#AEAEAE"/>
</g>
<g style="mix-blend-mode:luminosity">
<path d="M69.9493 99.7347L67.8745 99.1192L68.6902 96.3722L70.7647 96.9876L69.9493 99.7347Z" fill="#6A7B8A"/>
</g>
<g style="mix-blend-mode:luminosity">
<path d="M67.8773 99.1171L65.879 98.5239C65.1206 98.2987 64.6883 97.5013 64.9135 96.7428C65.1386 95.9843 65.9359 95.5516 66.6947 95.7769L68.6926 96.37L67.8773 99.1171Z" fill="white"/>
</g>
<mask id="mask0_3255_24816" style="mask-type:luminance" maskUnits="userSpaceOnUse" x="2" y="59" width="200" height="192">
<g style="mix-blend-mode:luminosity">
<path d="M67.7822 59.5547L201.326 133.835L136.331 250.687L2.78657 176.406L67.7822 59.5547Z" fill="white"/>
</g>
</mask>
<g mask="url(#mask0_3255_24816)">
<g opacity="0.1">
<g style="mix-blend-mode:luminosity">
<path d="M141.923 208.607L43.6611 175.751C42.9709 175.52 42.5988 174.774 42.8294 174.084L63.424 112.492C63.6545 111.802 64.4008 111.429 65.0911 111.66L163.353 144.516C164.043 144.747 164.415 145.493 164.184 146.183L143.59 207.775C143.36 208.465 142.613 208.838 141.923 208.607Z" fill="black"/>
</g>
</g>
<g style="mix-blend-mode:luminosity">
<path d="M130.65 201.161L32.3876 168.306C31.6973 168.075 31.3254 167.329 31.5559 166.639L52.1505 105.047C52.3811 104.356 53.1274 103.984 53.8177 104.215L152.079 137.071C152.769 137.302 153.142 138.048 152.911 138.737L132.316 200.33C132.086 201.02 131.34 201.392 130.65 201.161Z" fill="white"/>
</g>
<g style="mix-blend-mode:luminosity">
<path d="M142.032 194.896L131.532 195.459C131.366 195.468 131.2 195.446 131.043 195.393L42.0565 165.639C41.3662 165.408 40.9942 164.662 41.2249 163.972L61.8194 102.379C62.0501 101.689 62.7966 101.317 63.4864 101.548L152.677 131.37C152.837 131.424 153.006 131.446 153.174 131.436L162.408 130.875C163.34 130.818 164.034 131.722 163.738 132.607L143.211 193.998C143.039 194.511 142.572 194.867 142.032 194.896Z" fill="#D8D8D8"/>
</g>
<g style="mix-blend-mode:luminosity">
<path d="M65.7388 150.09L57.1137 147.207C55.707 146.736 54.9478 145.214 55.4184 143.807L58.249 135.341C58.7194 133.935 60.2414 133.175 61.6481 133.646L70.2731 136.53C71.6798 137 72.439 138.522 71.9685 139.929L69.138 148.394C68.6674 149.801 67.1457 150.561 65.7388 150.09Z" fill="#FF8C00"/>
</g>
<g style="mix-blend-mode:luminosity">
<path d="M65.5283 118.938L137.899 143.411" stroke="#6A7B8A" stroke-width="2" stroke-linecap="round"/>
</g>
<g style="mix-blend-mode:luminosity">
<path d="M64.0713 124.141L136.465 148.622" stroke="#6A7B8A" stroke-width="2" stroke-linecap="round"/>
</g>
<g style="mix-blend-mode:luminosity">
<path d="M62.7002 129.203L135.113 153.691" stroke="#6A7B8A" stroke-width="2" stroke-linecap="round"/>
</g>
<g style="mix-blend-mode:luminosity">
<path d="M77.5205 141.117L88.3843 144.791" stroke="#6A7B8A" stroke-width="2" stroke-linecap="round"/>
</g>
<g style="mix-blend-mode:luminosity">
<path d="M75.8057 146.172L86.6696 149.846" stroke="#6A7B8A" stroke-width="2" stroke-linecap="round"/>
</g>
<g style="mix-blend-mode:luminosity">
<path d="M129.702 170.358L93.0615 151.953L111.466 115.313L148.106 133.718L129.702 170.358Z" fill="white"/>
</g>
<g style="mix-blend-mode:luminosity">
<path d="M131.211 160.339L100.201 144.762L112.869 119.542L143.879 135.119L131.211 160.339Z" fill="#FFF1E0"/>
</g>
<g style="mix-blend-mode:luminosity">
<path d="M121.651 129.007L123.53 127.23C124.025 126.762 124.969 126.872 125.042 127.405L125.523 130.952" fill="#FF8C00"/>
</g>
<g style="mix-blend-mode:luminosity">
<path d="M116.264 151.313L105.915 146.115C104.52 145.414 104.356 143.24 105.588 141.774L111.508 134.736C112.324 133.766 116.481 129.204 117.406 129.668L120.985 137.169C121.909 137.633 122.344 138.799 122.053 140.033L119.941 148.984C119.501 150.847 117.66 152.014 116.264 151.313Z" fill="#FF8C00"/>
</g>
<g style="mix-blend-mode:luminosity">
<path d="M111.416 148.833L107.517 146.874C106.799 146.514 106.51 145.64 106.87 144.923C107.231 144.205 108.104 143.916 108.822 144.276L111.954 138.041L115.351 139.748L111.106 148.199L111.416 148.833Z" fill="#FFD9AB"/>
</g>
<g style="mix-blend-mode:luminosity">
<path d="M117.095 140.625L112.658 149.459L110.118 148.183C109.401 147.823 109.112 146.949 109.472 146.231C109.832 145.514 110.706 145.224 111.423 145.585L114.555 139.349" fill="#FF8C00"/>
</g>
<g style="mix-blend-mode:luminosity">
<path d="M117.73 137.242L121.021 138.896C123.31 140.046 126.099 139.122 127.249 136.833C128.399 134.543 127.475 131.755 125.186 130.605L121.688 128.848L120.45 128.226C118.16 127.076 115.372 128 114.222 130.289C113.224 132.276 113.788 134.638 115.45 135.979" fill="#FFD9AB"/>
</g>
<g style="mix-blend-mode:luminosity">
<path d="M122.808 138.088L123.157 138.263C123.989 138.681 125.003 138.345 125.421 137.513C125.839 136.681 125.503 135.668 124.671 135.25L124.322 135.074C123.49 134.656 122.476 134.992 122.058 135.824C121.64 136.656 121.976 137.67 122.808 138.088Z" fill="#FFF1E0"/>
</g>
<g style="mix-blend-mode:luminosity">
<path d="M119.441 136.4L119.79 136.575C120.622 136.993 121.636 136.658 122.054 135.826C122.472 134.993 122.136 133.98 121.304 133.562L120.955 133.387C120.123 132.969 119.109 133.305 118.691 134.137C118.273 134.969 118.609 135.982 119.441 136.4Z" fill="#FFF1E0"/>
</g>
<g style="mix-blend-mode:luminosity">
<path d="M124.317 135.075L121.303 133.562L122.215 135.565L124.317 135.075Z" fill="#FF8C00"/>
</g>
<g style="mix-blend-mode:luminosity">
<path d="M124.4 133.187C124.266 133.454 124.373 133.778 124.64 133.912C124.906 134.046 125.231 133.938 125.364 133.672C125.498 133.406 125.391 133.081 125.125 132.947C124.858 132.813 124.534 132.921 124.4 133.187Z" fill="#AEAEAE"/>
</g>
<g style="mix-blend-mode:luminosity">
<path d="M121.122 131.539C120.989 131.805 121.096 132.13 121.363 132.263C121.629 132.397 121.953 132.29 122.087 132.023C122.221 131.757 122.114 131.432 121.847 131.299C121.581 131.165 121.256 131.273 121.122 131.539Z" fill="#AEAEAE"/>
</g>
<g style="mix-blend-mode:luminosity">
<path d="M121.039 153.667L114.577 150.421C113.546 149.903 113.13 148.647 113.648 147.615C114.166 146.584 115.422 146.168 116.453 146.686L122.915 149.932C123.947 150.45 124.363 151.706 123.845 152.738C123.327 153.769 122.071 154.185 121.039 153.667Z" fill="#FFD9AB"/>
</g>
<g style="mix-blend-mode:luminosity">
<path d="M118.597 127.876L120.757 125.833C121.251 125.366 122.196 125.475 122.268 126.008L122.749 129.555" fill="#FFD9AB"/>
</g>
<g style="mix-blend-mode:luminosity">
<path d="M136.262 125.883L136.55 125.022C136.757 124.404 137.425 124.07 138.043 124.276C138.661 124.483 138.995 125.152 138.788 125.77L135.525 135.531C135.102 136.796 133.733 137.478 132.468 137.055C131.203 136.632 130.521 135.264 130.943 133.999L134.025 124.785" stroke="#AEAEAE" stroke-linecap="round" stroke-linejoin="round"/>
</g>
</g>
<g style="mix-blend-mode:luminosity">
<path d="M36.4453 292.682L-56.0396 241.239C-58.288 239.989 -59.0968 237.152 -57.8462 234.904L-35.5252 194.774C-34.2746 192.526 -31.438 191.717 -29.1897 192.968L63.2952 244.41C65.5436 245.661 66.3524 248.497 65.1018 250.746L42.7808 290.875C41.5302 293.123 38.6937 293.932 36.4453 292.682Z" fill="black" fill-opacity="0.1"/>
</g>
<g style="mix-blend-mode:luminosity">
<path d="M34.7773 288.791L-57.7076 237.349C-59.9559 236.098 -60.7648 233.261 -59.5142 231.013L-37.1932 190.884C-35.9425 188.635 -33.106 187.826 -30.8576 189.077L61.6272 240.519C63.8756 241.77 64.6845 244.607 63.4339 246.855L41.1128 286.984C39.8622 289.233 37.0257 290.042 34.7773 288.791Z" fill="#AEAEAE"/>
</g>
<g style="mix-blend-mode:luminosity">
<path d="M36.6992 285.346L-55.7857 233.903C-58.0341 232.653 -58.8429 229.816 -57.5923 227.568L-35.2713 187.438C-34.0207 185.19 -31.1841 184.381 -28.9358 185.632L63.5491 237.074C65.7975 238.325 66.6063 241.161 65.3557 243.41L43.0347 283.539C41.7841 285.787 38.9476 286.596 36.6992 285.346Z" fill="#D9DFE6"/>
</g>
<g style="mix-blend-mode:luminosity">
<path d="M2.11212 213.546L-1.22304 211.691C-2.02286 211.246 -2.31062 210.237 -1.86574 209.437L-1.78505 209.292C-1.34017 208.492 -0.331054 208.204 0.468772 208.649L3.80392 210.504C4.60375 210.949 4.89151 211.958 4.44663 212.758L4.36594 212.903C3.92106 213.703 2.91194 213.991 2.11212 213.546Z" fill="#AEAEAE"/>
</g>
<g style="mix-blend-mode:luminosity">
<path d="M10.2332 218.062L6.89806 216.207C6.09823 215.762 5.81047 214.753 6.25536 213.953L6.33604 213.808C6.78092 213.008 7.79004 212.72 8.58987 213.165L11.925 215.02C12.7248 215.465 13.0126 216.474 12.5677 217.274L12.487 217.419C12.0422 218.219 11.033 218.507 10.2332 218.062Z" fill="#AEAEAE"/>
</g>
<g style="mix-blend-mode:luminosity">
<path d="M18.3543 222.577L15.0192 220.722C14.2193 220.277 13.9316 219.268 14.3764 218.468L14.4571 218.323C14.902 217.523 15.9111 217.236 16.711 217.681L20.0461 219.536C20.8459 219.981 21.1337 220.99 20.6888 221.789L20.6081 221.935C20.1632 222.734 19.1541 223.022 18.3543 222.577Z" fill="#AEAEAE"/>
</g>
<g style="mix-blend-mode:luminosity">
<path d="M26.4754 227.093L23.1402 225.238C22.3404 224.793 22.0527 223.784 22.4975 222.984L22.5782 222.839C23.0231 222.039 24.0322 221.751 24.8321 222.196L28.1672 224.051C28.967 224.496 29.2548 225.505 28.8099 226.305L28.7292 226.45C28.2843 227.25 27.2752 227.538 26.4754 227.093Z" fill="#AEAEAE"/>
</g>
<g style="mix-blend-mode:luminosity">
<path d="M34.5965 231.608L31.2613 229.753C30.4615 229.309 30.1738 228.299 30.6186 227.5L30.6993 227.355C31.1442 226.555 32.1533 226.267 32.9531 226.712L36.2883 228.567C37.0881 229.012 37.3759 230.021 36.931 230.821L36.8503 230.966C36.4054 231.766 35.3963 232.053 34.5965 231.608Z" fill="#AEAEAE"/>
</g>
<g style="mix-blend-mode:luminosity">
<path d="M42.7176 236.124L39.3824 234.269C38.5826 233.824 38.2948 232.815 38.7397 232.015L38.8204 231.87C39.2653 231.07 40.2744 230.783 41.0742 231.227L44.4094 233.083C45.2092 233.527 45.497 234.537 45.0521 235.336L44.9714 235.481C44.5265 236.281 43.5174 236.569 42.7176 236.124Z" fill="#AEAEAE"/>
</g>
<g style="mix-blend-mode:luminosity">
<path d="M50.8426 240.648L47.5074 238.792C46.7076 238.348 46.4198 237.338 46.8647 236.539L46.9454 236.394C47.3903 235.594 48.3994 235.306 49.1992 235.751L52.5344 237.606C53.3342 238.051 53.622 239.06 53.1771 239.86L53.0964 240.005C52.6515 240.805 51.6424 241.092 50.8426 240.648Z" fill="#AEAEAE"/>
</g>
<g style="mix-blend-mode:luminosity">
<path d="M3.76837 220.851L0.433214 218.996C-0.366612 218.551 -0.654372 217.542 -0.209488 216.742L-0.128804 216.597C0.31608 215.797 1.3252 215.509 2.12502 215.954L5.46017 217.809C6.26 218.254 6.54776 219.263 6.10288 220.063L6.02219 220.208C5.57731 221.008 4.56819 221.296 3.76837 220.851Z" fill="#AEAEAE"/>
</g>
<g style="mix-blend-mode:luminosity">
<path d="M11.8856 225.366L8.5504 223.511C7.75058 223.066 7.46282 222.057 7.9077 221.257L7.98838 221.112C8.43327 220.313 9.44238 220.025 10.2422 220.47L13.5774 222.325C14.3772 222.77 14.6649 223.779 14.2201 224.579L14.1394 224.724C13.6945 225.523 12.6854 225.811 11.8856 225.366Z" fill="#AEAEAE"/>
</g>
<g style="mix-blend-mode:luminosity">
<path d="M20.0066 229.89L16.6715 228.035C15.8717 227.59 15.5839 226.581 16.0288 225.781L16.1095 225.636C16.5544 224.836 17.5635 224.548 18.3633 224.993L21.6985 226.848C22.4983 227.293 22.786 228.302 22.3412 229.102L22.2605 229.247C21.8156 230.047 20.8065 230.335 20.0066 229.89Z" fill="#AEAEAE"/>
</g>
<g style="mix-blend-mode:luminosity">
<path d="M28.1277 234.405L24.7926 232.55C23.9928 232.105 23.705 231.096 24.1499 230.296L24.2306 230.151C24.6755 229.352 25.6846 229.064 26.4844 229.509L29.8195 231.364C30.6194 231.809 30.9071 232.818 30.4623 233.618L30.3816 233.763C29.9367 234.562 28.9276 234.85 28.1277 234.405Z" fill="#AEAEAE"/>
</g>
<g style="mix-blend-mode:luminosity">
<path d="M36.2488 238.921L32.9137 237.066C32.1139 236.621 31.8261 235.612 32.271 234.812L32.3517 234.667C32.7965 233.867 33.8057 233.579 34.6055 234.024L37.9406 235.879C38.7405 236.324 39.0282 237.333 38.5833 238.133L38.5027 238.278C38.0578 239.078 37.0487 239.366 36.2488 238.921Z" fill="#AEAEAE"/>
</g>
<g style="mix-blend-mode:luminosity">
<path d="M48.1266 245.527L40.2884 241.167C39.4886 240.722 39.2011 239.713 39.646 238.914L39.7267 238.769C40.1715 237.969 41.1804 237.681 41.9802 238.126L49.8184 242.486C50.6183 242.93 50.9057 243.939 50.4609 244.739L50.3802 244.884C49.9353 245.684 48.9265 245.972 48.1266 245.527Z" fill="#AEAEAE"/>
</g>
<g style="mix-blend-mode:luminosity">
<path d="M-3.0871 222.89L-6.42225 221.035C-7.22208 220.59 -7.50984 219.581 -7.06496 218.781L-6.98427 218.636C-6.53939 217.836 -5.53027 217.548 -4.73045 217.993L-1.39529 219.848C-0.595468 220.293 -0.307708 221.302 -0.752592 222.102L-0.833276 222.247C-1.27816 223.047 -2.28728 223.335 -3.0871 222.89Z" fill="#AEAEAE"/>
</g>
<g style="mix-blend-mode:luminosity">
<path d="M5.03399 227.413L1.69884 225.558C0.899013 225.113 0.611253 224.104 1.05614 223.304L1.13682 223.159C1.5817 222.359 2.59082 222.072 3.39065 222.516L6.7258 224.372C7.52563 224.816 7.81339 225.826 7.3685 226.625L7.28782 226.77C6.84293 227.57 5.83382 227.858 5.03399 227.413Z" fill="#AEAEAE"/>
</g>
<g style="mix-blend-mode:luminosity">
<path d="M13.1551 231.929L9.81993 230.074C9.02011 229.629 8.73235 228.62 9.17723 227.82L9.25791 227.675C9.7028 226.875 10.7119 226.587 11.5117 227.032L14.8469 228.887C15.6467 229.332 15.9345 230.341 15.4896 231.141L15.4089 231.286C14.964 232.086 13.9549 232.374 13.1551 231.929Z" fill="#AEAEAE"/>
</g>
<g style="mix-blend-mode:luminosity">
<path d="M21.2762 236.444L17.941 234.589C17.1412 234.144 16.8534 233.135 17.2983 232.336L17.379 232.19C17.8239 231.391 18.833 231.103 19.6328 231.548L22.968 233.403C23.7678 233.848 24.0556 234.857 23.6107 235.657L23.53 235.802C23.0851 236.602 22.076 236.889 21.2762 236.444Z" fill="#AEAEAE"/>
</g>
<g style="mix-blend-mode:luminosity">
<path d="M29.3934 240.96L26.0582 239.105C25.2584 238.66 24.9706 237.651 25.4155 236.851L25.4962 236.706C25.9411 235.906 26.9502 235.618 27.75 236.063L31.0852 237.918C31.885 238.363 32.1728 239.372 31.7279 240.172L31.6472 240.317C31.2023 241.117 30.1932 241.405 29.3934 240.96Z" fill="#AEAEAE"/>
</g>
<g style="mix-blend-mode:luminosity">
<path d="M37.5184 245.476L34.1832 243.621C33.3834 243.176 33.0956 242.167 33.5405 241.367L33.6212 241.222C34.0661 240.422 35.0752 240.134 35.875 240.579L39.2102 242.434C40.01 242.879 40.2978 243.888 39.8529 244.688L39.7722 244.833C39.3273 245.633 38.3182 245.921 37.5184 245.476Z" fill="#AEAEAE"/>
</g>
<g style="mix-blend-mode:luminosity">
<path d="M45.6395 249.999L42.3043 248.144C41.5045 247.699 41.2167 246.69 41.6616 245.89L41.7423 245.745C42.1872 244.945 43.1963 244.658 43.9961 245.102L47.3313 246.958C48.1311 247.402 48.4189 248.412 47.974 249.211L47.8933 249.356C47.4484 250.156 46.4393 250.444 45.6395 249.999Z" fill="#AEAEAE"/>
</g>
<g style="mix-blend-mode:luminosity">
<path d="M16.0138 245.91L-11.684 230.503C-12.4838 230.059 -12.7716 229.049 -12.3267 228.25L-12.246 228.105C-11.8011 227.305 -10.792 227.017 -9.99216 227.462L17.7056 242.868C18.5054 243.313 18.7932 244.322 18.3483 245.122L18.2676 245.267C17.8227 246.067 16.8136 246.354 16.0138 245.91Z" fill="#AEAEAE"/>
</g>
<g style="mix-blend-mode:luminosity">
<path d="M4.72425 263.717L-20.8641 249.484C-21.7529 248.989 -22.0726 247.868 -21.5784 246.98L-14.6713 234.562C-14.1769 233.673 -13.056 233.354 -12.1672 233.848L13.4212 248.081C14.3099 248.575 14.6295 249.696 14.1352 250.585L7.228 263.003C6.73381 263.891 5.61301 264.211 4.72425 263.717Z" fill="white"/>
</g>
<g style="mix-blend-mode:luminosity">
<path d="M24.1316 250.421L20.7965 248.566C19.9967 248.121 19.7089 247.112 20.1538 246.312L20.2345 246.167C20.6794 245.367 21.6885 245.079 22.4883 245.524L25.8235 247.379C26.6233 247.824 26.911 248.833 26.4662 249.633L26.3855 249.778C25.9406 250.578 24.9315 250.866 24.1316 250.421Z" fill="#AEAEAE"/>
</g>
<g style="mix-blend-mode:luminosity">
<path d="M32.2527 254.944L28.9176 253.089C28.1178 252.644 27.83 251.635 28.2749 250.836L28.3556 250.69C28.8005 249.891 29.8096 249.603 30.6094 250.048L33.9445 251.903C34.7444 252.348 35.0321 253.357 34.5873 254.157L34.5066 254.302C34.0617 255.102 33.0526 255.389 32.2527 254.944Z" fill="#AEAEAE"/>
</g>
<g style="mix-blend-mode:luminosity">
<path d="M40.3777 259.46L37.0426 257.605C36.2428 257.16 35.955 256.151 36.3999 255.351L36.4806 255.206C36.9255 254.406 37.9346 254.118 38.7344 254.563L42.0695 256.418C42.8694 256.863 43.1571 257.872 42.7123 258.672L42.6316 258.817C42.1867 259.617 41.1776 259.905 40.3777 259.46Z" fill="#AEAEAE"/>
</g>
<g style="mix-blend-mode:luminosity">
<path d="M-1.43476 230.202L-4.76991 228.347C-5.56974 227.902 -5.8575 226.893 -5.41261 226.093L-5.33193 225.948C-4.88705 225.148 -3.87793 224.861 -3.0781 225.306L0.25705 227.161C1.05688 227.606 1.34464 228.615 0.899752 229.414L0.819068 229.56C0.374183 230.359 -0.634932 230.647 -1.43476 230.202Z" fill="#AEAEAE"/>
</g>
<g style="mix-blend-mode:luminosity">
<path d="M6.68243 234.718L3.34728 232.863C2.54745 232.418 2.25969 231.409 2.70457 230.609L2.78526 230.464C3.23014 229.664 4.23926 229.376 5.03908 229.821L8.37424 231.676C9.17406 232.121 9.46182 233.13 9.01694 233.93L8.93626 234.075C8.49137 234.875 7.48226 235.163 6.68243 234.718Z" fill="#AEAEAE"/>
</g>
<g style="mix-blend-mode:luminosity">
<path d="M14.8074 239.233L11.4723 237.378C10.6725 236.934 10.3847 235.924 10.8296 235.125L10.9103 234.98C11.3551 234.18 12.3643 233.892 13.1641 234.337L16.4992 236.192C17.2991 236.637 17.5868 237.646 17.1419 238.446L17.0613 238.591C16.6164 239.391 15.6073 239.678 14.8074 239.233Z" fill="#AEAEAE"/>
</g>
<g style="mix-blend-mode:luminosity">
<path d="M22.9285 243.757L19.5934 241.902C18.7935 241.457 18.5058 240.448 18.9507 239.648L19.0314 239.503C19.4762 238.703 20.4854 238.415 21.2852 238.86L24.6203 240.715C25.4202 241.16 25.7079 242.169 25.263 242.969L25.1823 243.114C24.7375 243.914 23.7283 244.202 22.9285 243.757Z" fill="#AEAEAE"/>
</g>
<g style="mix-blend-mode:luminosity">
<path d="M31.0496 248.273L27.7145 246.417C26.9146 245.973 26.6269 244.963 27.0718 244.164L27.1524 244.019C27.5973 243.219 28.6064 242.931 29.4063 243.376L32.7414 245.231C33.5413 245.676 33.829 246.685 33.3841 247.485L33.3034 247.63C32.8586 248.43 31.8494 248.717 31.0496 248.273Z" fill="#AEAEAE"/>
</g>
<g style="mix-blend-mode:luminosity">
<path d="M42.9235 254.879L35.0853 250.519C34.2854 250.074 33.998 249.065 34.4429 248.265L34.5235 248.12C34.9684 247.32 35.9773 247.032 36.7771 247.477L44.6153 251.837C45.4151 252.282 45.7026 253.291 45.2577 254.091L45.177 254.236C44.7322 255.036 43.7233 255.324 42.9235 254.879Z" fill="#AEAEAE"/>
</g>
<g style="mix-blend-mode:luminosity">
<path d="M55.66 235.391L-23.3467 191.446L-21.3779 187.906L57.6287 231.852L55.66 235.391Z" fill="#AEAEAE"/>
</g>
<g style="mix-blend-mode:luminosity">
<path d="M64.9998 234.512L-27.485 183.07C-29.7334 181.819 -30.5423 178.983 -29.2917 176.734L0.235718 123.649C1.48632 121.401 4.3227 120.592 6.57108 121.843L99.0559 173.285C101.304 174.536 102.113 177.372 100.863 179.62L71.3353 232.706C70.0847 234.954 67.2482 235.763 64.9998 234.512Z" fill="#E3EBF1"/>
</g>
<g style="mix-blend-mode:luminosity">
<path d="M64.0389 236.239L-28.446 184.796C-30.6944 183.546 -31.5032 180.709 -30.2526 178.461L-0.725219 125.375C0.525387 123.127 3.36177 122.319 5.61014 123.569L98.095 175.012C100.343 176.262 101.152 179.098 99.9018 181.347L70.3744 234.432C69.1238 236.68 66.2873 237.489 64.0389 236.239Z" fill="#AEAEAE"/>
</g>
<g style="mix-blend-mode:luminosity">
<path d="M66.7055 230.276L-24.7856 179.387L2.94531 129.531L94.4364 180.421L66.7055 230.276Z" fill="white"/>
</g>
<g style="mix-blend-mode:luminosity">
<path d="M92.897 183.189L1.40591 132.299L2.94531 129.531L94.4364 180.421L92.897 183.189Z" fill="#6A7B8A"/>
</g>
<g style="mix-blend-mode:luminosity">
<path d="M66.654 230.369L-24.8371 179.48L-24.2227 178.375L67.2684 229.265L66.654 230.369Z" fill="#D9DFE6"/>
</g>
<g style="mix-blend-mode:luminosity">
<path d="M22.5611 168.814C21.7453 170.28 19.8949 170.808 18.4279 169.992C16.9612 169.176 16.4335 167.326 17.2493 165.859C18.0651 164.392 19.9158 163.865 21.3825 164.68C22.8495 165.496 23.3769 167.347 22.5611 168.814Z" fill="#FFC176"/>
</g>
<g style="mix-blend-mode:luminosity">
<path d="M29.2564 172.54C28.4406 174.007 26.5902 174.535 25.1232 173.719C23.6565 172.903 23.1288 171.052 23.9446 169.586C24.7604 168.119 26.6111 167.591 28.0778 168.407C29.5448 169.223 30.0722 171.074 29.2564 172.54Z" fill="#FF8C00"/>
</g>
<g style="mix-blend-mode:luminosity">
<path d="M35.9478 176.259C35.132 177.726 33.2816 178.254 31.8146 177.438C30.3479 176.622 29.8202 174.771 30.636 173.304C31.4518 171.838 33.3025 171.31 34.7692 172.126C36.2362 172.942 36.7636 174.792 35.9478 176.259Z" fill="#FF8C00"/>
</g>
<g style="mix-blend-mode:luminosity">
<path d="M42.6431 179.985C41.8273 181.452 39.9769 181.98 38.5099 181.164C37.0432 180.348 36.5155 178.498 37.3313 177.031C38.1471 175.564 39.9978 175.036 41.4645 175.852C42.9315 176.668 43.4589 178.519 42.6431 179.985Z" fill="#FFC176"/>
</g>
<g style="mix-blend-mode:luminosity">
<path d="M49.3385 183.712C48.5226 185.179 46.6722 185.707 45.2052 184.891C43.7386 184.075 43.2108 182.224 44.0266 180.757C44.8424 179.291 46.6931 178.763 48.1598 179.579C49.6268 180.395 50.1543 182.245 49.3385 183.712Z" fill="#FCA338"/>
</g>
<g style="mix-blend-mode:luminosity">
<path d="M56.0338 187.431C55.218 188.897 53.3675 189.425 51.9006 188.609C50.4339 187.794 49.9061 185.943 50.7219 184.476C51.5377 183.01 53.3885 182.482 54.8551 183.298C56.3221 184.114 56.8496 185.964 56.0338 187.431Z" fill="#FF8C00"/>
</g>
<g style="mix-blend-mode:luminosity">
<path d="M43.9125 201.409L11.7704 183.531C9.33317 182.175 8.45619 179.1 9.81181 176.663C11.1676 174.226 14.2424 173.349 16.6796 174.705L48.8218 192.583C51.2589 193.939 52.1355 197.013 50.7797 199.451C49.4241 201.888 46.3497 202.765 43.9125 201.409Z" fill="#D9DFE6"/>
</g>
<g opacity="0.120345">
<g style="mix-blend-mode:luminosity">
<path d="M14.4704 182.39C13.7287 181.977 13.4616 181.042 13.8743 180.3L15.1015 178.093C15.5142 177.351 16.4502 177.085 17.1918 177.497C17.9335 177.91 18.2006 178.845 17.7879 179.587L16.5607 181.794C16.148 182.536 15.212 182.802 14.4704 182.39Z" fill="#AEAEAE"/>
</g>
</g>
<g style="mix-blend-mode:luminosity">
<path d="M46.5483 207.411L43.5204 206.495C43.3984 206.458 43.2688 206.453 43.1447 206.482L40.0608 207.188C39.4742 207.323 38.9849 206.732 39.2262 206.182L42.9532 197.665C43.2188 197.058 44.0896 197.088 44.3135 197.712L47.4501 206.462C47.6533 207.029 47.1241 207.585 46.5483 207.411Z" fill="#AEAEAE"/>
</g>
<g style="mix-blend-mode:luminosity">
<path d="M41.9812 205.445L41.951 209.903L45.0081 209.814L44.9412 205.537L41.9812 205.445Z" fill="#AEAEAE"/>
</g>
<mask id="mask1_3255_24816" style="mask-type:luminance" maskUnits="userSpaceOnUse" x="-90" y="182" width="197" height="200">
<g style="mix-blend-mode:luminosity">
<path d="M-17.2568 182.969L106.502 251.807L34.4623 381.321L-89.2964 312.484L-17.2568 182.969Z" fill="white"/>
</g>
</mask>
<g mask="url(#mask1_3255_24816)">
<g style="mix-blend-mode:luminosity">
<path d="M7.62598 265.742L-36.1274 345.498L-6.64004 361.9L26.6105 301.026C30.4313 294.157 31.7886 286.188 30.4571 278.441L7.62598 265.742Z" fill="black" fill-opacity="0.1"/>
</g>
<g style="mix-blend-mode:luminosity">
<path d="M2.77086 266L30.3978 281.367L33.9092 275.054L6.28223 259.688L2.77086 266Z" fill="#FFBD8C"/>
</g>
<g style="mix-blend-mode:luminosity">
<path d="M21.7781 282.325L27.958 285.762L33.6379 275.551C34.5871 273.844 33.9731 271.691 32.2667 270.742C30.5603 269.793 28.4072 270.407 27.4581 272.113L21.7781 282.325Z" fill="#FFEFD8"/>
</g>
<g style="mix-blend-mode:luminosity">
<path d="M13.2905 280.725L19.4704 284.162L27.802 269.184C28.7513 267.477 28.1372 265.324 26.4308 264.375C24.7243 263.426 22.5714 264.039 21.6221 265.746L13.2905 280.725Z" fill="#FFEFD8"/>
</g>
<g style="mix-blend-mode:luminosity">
<path d="M7.23973 274.67L13.4196 278.108L21.7512 263.129C22.7005 261.422 22.0864 259.269 20.38 258.32C18.6735 257.371 16.5207 257.985 15.5713 259.691L7.23973 274.67Z" fill="#FFEFD8"/>
</g>
<g style="mix-blend-mode:luminosity">
<path d="M4.24172 263.29L10.4216 266.728L16.8254 255.215C17.7748 253.508 17.1606 251.355 15.4542 250.406C13.7478 249.457 11.5949 250.071 10.6456 251.777L4.24172 263.29Z" fill="#FFEFD8"/>
</g>
<g style="mix-blend-mode:luminosity">
<path d="M11.6481 253.008L15.2501 255.012L15.4175 254.711C15.9708 253.716 15.6132 252.461 14.6185 251.908C13.6238 251.355 12.3688 251.713 11.8156 252.707L11.6481 253.008Z" fill="#FFD8BB"/>
</g>
<g style="mix-blend-mode:luminosity">
<path d="M-6.62735 285.834L-13.6544 265.063C-14.1545 263.585 -13.48 261.965 -12.0784 261.278C-10.7565 260.631 -9.16203 261.001 -8.25948 262.163L1.52869 274.773L-6.62735 285.834Z" fill="#FFEFD8"/>
</g>
<g style="mix-blend-mode:luminosity">
<path d="M-10.2278 289.366L17.3992 304.733L32.5342 277.523L4.90723 262.156L-10.2278 289.366Z" fill="#FFEFD8"/>
</g>
<g style="mix-blend-mode:luminosity">
<path d="M8.45951 288.287C16.6023 292.816 21.7973 299.015 20.0629 302.133L-9.74187 356.812L-39.2292 340.41L-9.42446 285.732C-7.69007 282.613 0.316763 283.758 8.45951 288.287Z" fill="white"/>
</g>
<g style="mix-blend-mode:luminosity">
<path d="M4.13919 296.06C12.2819 300.589 17.477 306.789 15.7426 309.907L-9.74109 356.817L-39.2285 340.415L-13.7448 293.505C-12.0104 290.387 -4.00355 291.531 4.13919 296.06Z" fill="#FF8C00"/>
</g>
</g>
<g style="mix-blend-mode:luminosity">
<path d="M103.93 266.195L84.7234 255.449C82.9018 254.429 82.2514 252.126 83.2706 250.305L106.278 209.199C107.297 207.378 109.6 206.727 111.422 207.746L130.628 218.493C132.449 219.512 133.1 221.814 132.08 223.636L109.073 264.741C108.054 266.563 105.751 267.214 103.93 266.195Z" fill="black" fill-opacity="0.1"/>
</g>
<g style="mix-blend-mode:luminosity">
<path d="M101.758 264.991L82.5515 254.245C80.7299 253.226 80.0795 250.923 81.0987 249.102L104.106 207.996C105.125 206.175 107.428 205.524 109.25 206.543L128.456 217.29C130.277 218.309 130.928 220.611 129.908 222.433L106.901 263.538C105.882 265.36 103.579 266.011 101.758 264.991Z" fill="#6A7B8A"/>
</g>
<g style="mix-blend-mode:luminosity">
<path d="M102.984 262.796L83.7781 252.05C81.9565 251.031 81.3061 248.728 82.3253 246.906L105.332 205.801C106.352 203.979 108.655 203.329 110.476 204.348L129.682 215.094C131.504 216.113 132.154 218.416 131.135 220.238L108.128 261.343C107.109 263.165 104.806 263.815 102.984 262.796Z" fill="#D8D8D8"/>
</g>
<g style="mix-blend-mode:luminosity">
<path d="M108.498 257.529L85.3914 244.602L106.206 207.415L129.313 220.343L108.498 257.529Z" fill="white"/>
</g>
<g style="mix-blend-mode:luminosity">
<path d="M121.415 214.444L117.035 211.993C116.748 211.833 116.645 211.47 116.806 211.184C116.967 210.897 117.329 210.794 117.617 210.954L121.997 213.405C122.283 213.566 122.386 213.928 122.225 214.215C122.065 214.502 121.702 214.605 121.415 214.444Z" fill="#6A7B8A"/>
</g>
<g style="mix-blend-mode:luminosity">
<path d="M115.417 211.088L115.359 211.055C115.072 210.895 114.97 210.532 115.13 210.245C115.291 209.958 115.654 209.856 115.94 210.017L115.998 210.049C116.285 210.21 116.388 210.572 116.227 210.859C116.067 211.146 115.704 211.248 115.417 211.088Z" fill="#6A7B8A"/>
</g>
<g style="mix-blend-mode:luminosity">
<path d="M97.533 255.559C96.8017 256.867 95.1489 257.333 93.8421 256.602C92.5349 255.871 92.0681 254.218 92.7993 252.911C93.5308 251.604 95.1834 251.137 96.4904 251.869C97.7976 252.6 98.2642 254.252 97.533 255.559Z" fill="#D9DFE6"/>
</g>
<g style="mix-blend-mode:luminosity">
<path d="M107.652 210.21C107.518 210.45 107.214 210.536 106.974 210.401C106.734 210.267 106.649 209.963 106.783 209.723C106.917 209.483 107.221 209.398 107.461 209.532C107.701 209.666 107.787 209.97 107.652 210.21Z" fill="#D8D8D8"/>
</g>
<g style="mix-blend-mode:luminosity">
<path d="M109.125 211.038C108.991 211.278 108.687 211.364 108.447 211.229C108.207 211.095 108.121 210.791 108.256 210.551C108.39 210.311 108.693 210.226 108.933 210.36C109.174 210.494 109.259 210.798 109.125 211.038Z" fill="#D8D8D8"/>
</g>
<g style="mix-blend-mode:luminosity">
<path d="M110.598 211.858C110.464 212.098 110.16 212.184 109.92 212.05C109.679 211.915 109.594 211.612 109.728 211.372C109.863 211.132 110.166 211.046 110.406 211.18C110.646 211.315 110.732 211.618 110.598 211.858Z" fill="#D8D8D8"/>
</g>
<g style="mix-blend-mode:luminosity">
<path d="M112.074 212.686C111.94 212.926 111.636 213.012 111.396 212.878C111.156 212.744 111.07 212.44 111.205 212.2C111.339 211.96 111.643 211.874 111.883 212.008C112.123 212.143 112.208 212.446 112.074 212.686Z" fill="#D8D8D8"/>
</g>
<g style="mix-blend-mode:luminosity">
<path d="M53.585 264.607L55.9145 265.907C56.9993 266.512 58.3697 266.123 58.975 265.038L59.8347 263.497C60.44 262.412 60.0514 261.042 58.9666 260.437L56.6368 259.137L53.585 264.607Z" fill="#AEAEAE"/>
</g>
<g style="mix-blend-mode:luminosity">
<path d="M89.3326 257.877L88.0322 260.207C87.4269 261.291 87.816 262.662 88.9008 263.267L90.4418 264.127C91.5266 264.732 92.8973 264.343 93.5026 263.258L94.8024 260.929L89.3326 257.877Z" fill="#AEAEAE"/>
</g>
<g style="mix-blend-mode:luminosity">
<path d="M59.4101 264.262L70.2749 270.306C77.0042 274.049 85.4933 271.628 89.2363 264.899L90.2922 263" stroke="#AEAEAE" stroke-miterlimit="10"/>
</g>
<g style="mix-blend-mode:luminosity">
<path d="M95.3281 239.371L102.853 225.844" stroke="#F78800" stroke-width="13.903"/>
</g>
<g style="mix-blend-mode:luminosity">
<path d="M101.372 242.736L108.474 229.969" stroke="#A45A00" stroke-width="17.4017"/>
</g>
<g style="mix-blend-mode:luminosity">
<path d="M107.558 246.176L113.31 235.836" stroke="#FFC37A" stroke-width="14.0637"/>
</g>
<g style="mix-blend-mode:luminosity">
<path d="M84.4415 342.431L95.3229 329.145L79.583 313.359L65.3859 330.693L77.4577 342.8C79.7857 342.679 82.1131 342.544 84.4415 342.431Z" fill="black" fill-opacity="0.1"/>
</g>
<g style="mix-blend-mode:luminosity">
<path d="M84.3017 340.131L96.401 328.067L80.6611 312.281L64.8751 328.021L76.9467 340.128C79.3982 340.131 81.8502 340.12 84.3017 340.131Z" fill="#FFF1E0"/>
</g>
<g style="mix-blend-mode:luminosity">
<path d="M84.3087 340.127L80.6611 336.469L76.9607 340.158C78.2422 340.156 83.1408 340.135 84.3087 340.127Z" fill="white"/>
</g>
<g style="mix-blend-mode:luminosity">
<path d="M93.5805 330.88L77.8406 315.094L80.6611 312.281L96.401 328.067L93.5805 330.88Z" fill="#FF8C00"/>
</g>
<g style="mix-blend-mode:luminosity">
<path d="M84.7129 329.314L77.2127 321.792C76.8444 321.423 76.8453 320.825 77.2149 320.456C77.5843 320.088 78.1824 320.089 78.5507 320.458L86.0509 327.98C86.4192 328.35 86.4184 328.948 86.0489 329.316C85.6793 329.684 85.0813 329.684 84.7129 329.314Z" fill="#6A7B8A"/>
</g>
<g style="mix-blend-mode:luminosity">
<path d="M83.5286 334.441L74.0602 324.944C73.694 324.577 73.6965 323.981 74.0661 323.613C74.4356 323.244 75.0321 323.243 75.3981 323.61L84.8668 333.106C85.2328 333.474 85.2301 334.071 84.8607 334.439C84.491 334.808 83.8946 334.808 83.5286 334.441Z" fill="#6A7B8A"/>
</g>
<g style="mix-blend-mode:luminosity">
<path d="M76.8396 334.038L70.903 328.084C70.547 327.727 70.5557 327.138 70.9254 326.769C71.2948 326.401 71.8845 326.392 72.241 326.75L78.1775 332.704C78.5341 333.062 78.5273 333.644 78.1579 334.013C77.7883 334.381 77.1953 334.395 76.8396 334.038Z" fill="#6A7B8A"/>
</g>
</svg>
