<svg width="100" height="100" viewBox="0 0 100 100" fill="none" xmlns="http://www.w3.org/2000/svg">
<rect width="100" height="100" rx="8" fill="#FFFEFA"/>
<path fill-rule="evenodd" clip-rule="evenodd" d="M71.9753 37.9533C71.9915 38.0119 71.9999 38.0724 72 38.1332V47.5776C71.9998 47.699 71.9668 47.8183 71.9042 47.9232C71.8417 48.0281 71.7518 48.115 71.6439 48.175L63.484 52.739V61.7848C63.4837 61.9061 63.4505 62.0252 63.388 62.1299C63.3255 62.2347 63.2357 62.3214 63.1279 62.3813L46.0959 71.9079C46.057 71.9303 46.0137 71.9433 45.9722 71.958C45.9554 71.9632 45.9404 71.9727 45.9245 71.977C45.8051 72.0077 45.6798 72.0077 45.5604 71.977C45.541 71.9718 45.5233 71.9615 45.5047 71.9546C45.465 71.9416 45.4252 71.9286 45.3881 71.9079L28.3552 62.3831C28.2473 62.3229 28.1576 62.2359 28.0952 62.1308C28.0328 62.0257 27.9999 61.9063 28 61.7848V33.4516C28.0001 33.3908 28.0085 33.3304 28.0247 33.2718C28.03 33.251 28.0424 33.2329 28.0495 33.2138C28.0636 33.1775 28.076 33.1403 28.0954 33.1066C28.1087 33.0842 28.1281 33.066 28.1432 33.0461C28.1644 33.0184 28.182 32.9891 28.2068 32.9648C28.2271 32.945 28.2536 32.9303 28.2766 32.913C28.3022 32.8939 28.3252 32.8715 28.3544 32.855L28.3552 32.8542L36.8721 28.0913C36.9799 28.0315 37.1017 28 37.2256 28C37.3495 28 37.4713 28.0315 37.579 28.0913L46.0959 32.8542H46.0977C46.126 32.8715 46.1489 32.8939 46.1755 32.913C46.1984 32.9303 46.2241 32.945 46.2444 32.9648C46.2691 32.9891 46.2868 33.0184 46.308 33.0452C46.3239 33.066 46.3433 33.0842 46.3566 33.1066C46.376 33.1403 46.3884 33.1775 46.4026 33.2138C46.4096 33.2329 46.4211 33.251 46.4273 33.2718C46.4433 33.3304 46.4513 33.3909 46.4512 33.4516V51.1482L53.5488 47.179V38.1332C53.5487 38.0724 53.5567 38.012 53.5727 37.9533C53.5789 37.9326 53.5904 37.9153 53.5983 37.8954C53.6116 37.8591 53.624 37.8219 53.6434 37.7882C53.6567 37.7657 53.6761 37.7476 53.692 37.7277C53.7132 37.7 53.7309 37.6706 53.7556 37.6473C53.7759 37.6274 53.8016 37.6127 53.8246 37.5954C53.8511 37.5755 53.874 37.5522 53.9032 37.5366V37.5357L62.4201 32.7729C62.5279 32.7127 62.6499 32.6811 62.774 32.6811C62.8981 32.6811 63.0201 32.7127 63.1279 32.7729L71.6439 37.5357C71.6739 37.553 71.6978 37.5755 71.7243 37.5945C71.7464 37.6118 71.7729 37.6274 71.7932 37.6464C71.818 37.6706 71.8356 37.7 71.856 37.7268C71.8719 37.7476 71.8913 37.7657 71.9046 37.7882C71.9249 37.8219 71.9364 37.8591 71.9505 37.8954C71.9585 37.9153 71.97 37.9326 71.9753 37.9533ZM70.5808 47.179V39.3254L67.6002 40.9922L63.484 43.2945V51.1482L70.5808 47.179ZM62.0648 61.3862V53.5274L58.0141 55.7735L46.4512 62.1842V70.1165L62.0648 61.3845V61.3862ZM29.4192 34.6438V61.3862L45.032 70.1182V62.1868L36.8756 57.7032L36.8739 57.7006L36.8703 57.6998C36.8421 57.6842 36.82 57.6617 36.7943 57.6427C36.7714 57.6254 36.7466 57.6116 36.7263 57.5926L36.7245 57.59C36.7016 57.5684 36.6857 57.5416 36.6662 57.5173C36.6485 57.4949 36.6273 57.475 36.6132 57.4508L36.6123 57.4482C36.5964 57.4222 36.5867 57.3911 36.5752 57.3617C36.5637 57.3367 36.5487 57.3124 36.5416 57.2848C36.5319 57.2519 36.531 57.2165 36.5266 57.1828C36.5239 57.1568 36.516 57.1318 36.516 57.105V38.6121L32.4007 36.3107L29.4192 34.6438ZM37.2256 29.4841L30.1323 33.4525L37.2256 37.419L44.3197 33.4516L37.2256 29.4841ZM40.9158 54.2433L45.032 51.9418V34.6438L42.0522 36.3107L37.9352 38.613V55.9101L40.9158 54.2433ZM62.7744 34.1666L55.6803 38.1332L62.7744 42.1006L69.8677 38.1332L62.7744 34.1666ZM62.0648 43.2945L57.9478 40.9922L54.968 39.3254V47.179L59.0842 49.4813L62.0648 51.1482V43.2945ZM45.7407 60.992L56.146 55.222L61.3473 52.3378L54.2584 48.3729L46.0959 52.9378L38.6571 57.098L45.7407 60.992Z" fill="#FF2D20"/>
</svg>
