<svg width="100" height="100" viewBox="0 0 100 100" fill="none" xmlns="http://www.w3.org/2000/svg">
<rect width="100" height="100" rx="8" fill="#FFFEFA"/>
<path d="M49.6784 72.0007C49.4936 72.0007 49.31 71.9385 49.148 71.8188L47.4596 70.5365C47.2075 70.3556 47.3305 70.2916 47.4137 70.2547C47.7499 70.1037 47.8181 70.0696 48.177 69.8081C48.2148 69.7805 48.2641 69.7903 48.3027 69.8195L49.5998 70.8069C49.6466 70.8394 49.7131 70.8394 49.7565 70.8069L54.8138 67.0619C54.8606 67.0278 54.891 66.9579 54.891 66.8865V59.3997C54.891 59.325 54.8606 59.2584 54.8128 59.221L49.7575 55.4793C49.7107 55.4435 49.6486 55.4435 49.6018 55.4793L44.5475 59.221C44.4985 59.2568 44.4674 59.3266 44.4674 59.398V66.8849C44.4674 66.9563 44.4978 67.0245 44.5459 67.0586L45.9308 68.085C46.6827 68.5674 47.1423 67.9989 47.1423 67.4273V60.0379C47.1423 59.9324 47.2068 59.8512 47.2891 59.8512H47.9297C48.0094 59.8512 48.0752 59.9324 48.0752 60.0379V67.4305C48.0752 68.7168 47.5284 69.4557 46.5777 69.4557C46.2853 69.4557 46.0549 69.4557 45.4118 69.0497L44.0851 68.0688C43.7572 67.8252 43.5547 67.3704 43.5547 66.8849V59.398C43.5547 58.9108 43.7572 58.4561 44.0851 58.2158L49.1475 54.4691C49.4677 54.2369 49.8931 54.2369 50.2108 54.4691L55.2669 58.2174C55.5935 58.4594 55.7973 58.9125 55.7973 59.3997V66.8865C55.7973 67.3721 55.5935 67.8252 55.2669 68.0688L50.2108 71.8154C50.0488 71.9356 49.8652 71.9973 49.6779 71.9973" fill="#689F63"/>
<path d="M51.2432 66.8412C49.0304 66.8412 48.5664 65.5381 48.5664 64.4451C48.5664 64.3411 48.6317 64.2583 48.7129 64.2583H49.3661C49.4382 64.2583 49.499 64.3257 49.5104 64.4172C49.6091 65.2711 49.9028 65.7018 51.2409 65.7018C52.3068 65.7018 52.76 65.3929 52.76 64.6677C52.76 64.2504 52.6309 63.9402 50.9751 63.7323C49.5901 63.5569 48.7344 63.1655 48.7344 61.7445C48.7344 60.4355 49.5952 59.656 51.0371 59.656C52.6562 59.656 53.4588 60.377 53.56 61.9264C53.5638 61.98 53.5486 62.0319 53.5208 62.0709C53.4929 62.1083 53.4537 62.131 53.4132 62.131H52.7562C52.6878 62.131 52.6283 62.0693 52.6144 61.9848C52.4562 61.0867 52.0739 60.7993 51.0345 60.7993C49.8712 60.7993 49.7357 61.319 49.7357 61.7087C49.7357 62.1813 49.8952 62.3194 51.465 62.5857C53.0195 62.8504 53.7575 63.224 53.7575 64.6255C53.7575 66.0384 52.8385 66.8488 51.2358 66.8488M57.3957 58.9089H57.5654C57.7046 58.9089 57.7312 58.7839 57.7312 58.7108C57.7312 58.5191 57.6287 58.5191 57.5717 58.5191H57.397L57.3957 58.9089ZM57.1894 58.295H57.5654C57.6945 58.295 57.9477 58.295 57.9477 58.6653C57.9477 58.9235 57.8186 58.9771 57.7413 59.0096C57.892 59.0226 57.9021 59.1493 57.9224 59.3279C57.9325 59.44 57.9489 59.6332 57.9793 59.6982H57.7477C57.7413 59.6332 57.7059 59.2759 57.7059 59.2564C57.6907 59.1769 57.6692 59.1379 57.592 59.1379H57.4008V59.6998H57.1894V58.295ZM56.7375 58.9934C56.7375 59.5748 57.1033 60.0457 57.5527 60.0457C58.0059 60.0457 58.3718 59.565 58.3718 58.9934C58.3718 58.4103 58.0008 57.9475 57.5514 57.9475C57.1084 57.9475 56.7362 58.4038 56.7362 58.9917M58.5287 58.9966C58.5287 59.6852 58.0895 60.2471 57.554 60.2471C57.0223 60.2471 56.5792 59.6917 56.5792 58.9966C56.5792 58.2885 57.0324 57.7461 57.554 57.7461C58.0793 57.7461 58.5275 58.2901 58.5275 58.9966" fill="#689F63"/>
<path fill-rule="evenodd" clip-rule="evenodd" d="M34.018 42.7056C34.018 42.4068 33.8952 42.1323 33.6942 41.9837L28.3323 38.026C28.2418 37.9577 28.1404 37.922 28.0376 37.9171H27.9822C27.8794 37.922 27.778 37.9577 27.686 38.026L22.3243 41.9837C22.1246 42.1331 22 42.4076 22 42.7064L22.0118 53.3666C22.0118 53.5144 22.0713 53.6524 22.1725 53.7255C22.2713 53.8035 22.3953 53.8035 22.4941 53.7255L25.6816 51.3837C25.8829 51.23 26.0057 50.9585 26.0057 50.6626V45.6825C26.0057 45.3853 26.1285 45.1108 26.3292 44.963L27.6862 43.9604C27.787 43.8856 27.8976 43.8486 28.0103 43.8486C28.1212 43.8486 28.2343 43.8853 28.3323 43.9602L29.6887 44.9625C29.8895 45.1103 30.0128 45.3848 30.0128 45.682V50.6618C30.0128 50.9573 30.1373 51.2302 30.3375 51.3828L33.5231 53.7231C33.6231 53.7994 33.7475 53.7994 33.8471 53.7231C33.9454 53.65 34.0076 53.512 34.0076 53.3642L34.018 42.7056ZM59.3195 48.2559C59.3195 48.3301 59.2887 48.3988 59.2385 48.4355L57.3968 49.7975C57.3468 49.8343 57.285 49.8343 57.2352 49.7975L55.3933 48.4355C55.3426 48.3987 55.3123 48.33 55.3123 48.2559V45.5282C55.3123 45.4538 55.3426 45.3853 55.392 45.3479L57.2326 43.9837C57.2833 43.9464 57.3453 43.9464 57.3959 43.9837L59.2378 45.3479C59.2885 45.3853 59.3189 45.4538 59.3189 45.5282L59.3195 48.2559ZM59.817 28.0526C59.7165 27.9808 59.5942 27.9828 59.4949 28.057C59.3962 28.1317 59.3352 28.2681 59.3352 28.4159V38.9721C59.3352 39.0761 59.2921 39.1719 59.222 39.2238C59.1524 39.2758 59.0657 39.2758 58.9954 39.2238L57.6523 38.2314C57.4523 38.083 57.2059 38.083 57.0052 38.2314L51.6415 42.2027C51.4411 42.3504 51.3174 42.6249 51.3174 42.9205V50.8653C51.3174 51.1625 51.4411 51.4353 51.6415 51.5847L57.0052 55.5587C57.2054 55.7065 57.452 55.7065 57.6529 55.5587L63.0166 51.5831C63.2166 51.4337 63.3407 51.1608 63.3407 50.8636V31.0634C63.3407 30.762 63.2128 30.4847 63.0077 30.3374L59.817 28.0526ZM77.6781 45.4564C77.8773 45.308 78 45.0338 78 44.7383V42.8128C78 42.5166 77.8772 42.2433 77.6776 42.0942L72.3481 38.125C72.1468 37.9756 71.9 37.9756 71.6987 38.125L66.3363 42.0958C66.135 42.2452 66.0122 42.518 66.0122 42.8152V50.7568C66.0122 51.0556 66.1376 51.3317 66.3388 51.4795L71.667 55.3755C71.8633 55.5201 72.1038 55.5217 72.3025 55.3804L75.5255 53.0824C75.6268 53.0093 75.6914 52.8713 75.6914 52.7219C75.6914 52.5725 75.6293 52.4328 75.5281 52.3597L70.1328 48.3873C70.0315 48.3142 69.9695 48.1762 69.9695 48.0284V45.5371C69.9695 45.3884 70.0302 45.2513 70.1315 45.1772L71.8101 43.9349C71.9101 43.8601 72.0329 43.8601 72.1329 43.9349L73.8128 45.1772C73.9128 45.2503 73.9748 45.3884 73.9748 45.5362V47.4947C73.9748 47.6425 74.0368 47.7806 74.1368 47.8553C74.2368 47.9284 74.3609 47.9284 74.4609 47.8537L77.6781 45.4564Z" fill="#333333"/>
<path fill-rule="evenodd" clip-rule="evenodd" d="M71.9473 45.0841C71.9853 45.0553 72.0329 45.0553 72.0714 45.0841L73.1006 45.8457C73.139 45.8743 73.1626 45.9269 73.1626 45.9838V47.5087C73.1626 47.5656 73.139 47.6182 73.1006 47.6468L72.0714 48.4085C72.0329 48.4372 71.9853 48.4372 71.9473 48.4085L70.9188 47.6468C70.8795 47.6182 70.8555 47.5656 70.8555 47.5087V45.9838C70.8555 45.9269 70.8783 45.8743 70.9175 45.8457L71.9473 45.0841Z" fill="#689F63"/>
<mask id="mask0_897_5737" style="mask-type:luminance" maskUnits="userSpaceOnUse" x="36" y="38" width="13" height="18">
<path d="M42.3431 38.1651L37.0098 42.1143C36.81 42.2621 36.6875 42.5349 36.6875 42.8298V50.7337C36.6875 51.0288 36.81 51.3015 37.0098 51.4493L42.3435 55.4015C42.5428 55.5488 42.7887 55.5488 42.9878 55.4015L48.3206 51.4493C48.5193 51.3015 48.6421 51.0286 48.6421 50.7337V42.8298C48.6421 42.5349 48.5193 42.2621 48.3193 42.1143L42.9873 38.1651C42.8873 38.0916 42.7759 38.0547 42.6645 38.0547C42.5531 38.0547 42.4417 38.0916 42.3417 38.1651" fill="white"/>
</mask>
<g mask="url(#mask0_897_5737)">
<path d="M54.0307 41.4444L39.0025 31.9941L31.2969 52.1605L46.3247 61.6112L54.0307 41.4444Z" fill="url(#paint0_linear_897_5737)"/>
</g>
<mask id="mask1_897_5737" style="mask-type:luminance" maskUnits="userSpaceOnUse" x="36" y="38" width="13" height="18">
<path d="M36.8242 51.2356C36.8752 51.3205 36.939 51.3941 37.0141 51.4493L41.5891 54.8395L42.3512 55.4014C42.4651 55.4859 42.595 55.5216 42.7226 55.5094C42.7651 55.505 42.8077 55.4948 42.8492 55.4797L48.4741 42.2665C48.4311 42.2064 48.3807 42.1561 48.3242 42.1139L44.8321 39.5268L42.9862 38.1642C42.9337 38.1252 42.8769 38.0976 42.8191 38.0781L36.8242 51.2356Z" fill="white"/>
</mask>
<g mask="url(#mask1_897_5737)">
<path d="M30.3281 44.2388L40.9396 62.664L54.9735 49.3622L44.3614 30.9375L30.3281 44.2388Z" fill="url(#paint1_linear_897_5737)"/>
</g>
<mask id="mask2_897_5737" style="mask-type:luminance" maskUnits="userSpaceOnUse" x="37" y="38" width="12" height="18">
<path d="M42.603 38.0578C42.5135 38.0691 42.4261 38.1049 42.3454 38.1637L37.0273 42.1015L42.7619 55.5014C42.8417 55.4868 42.9201 55.4527 42.991 55.4001L48.3243 51.4478C48.4889 51.3253 48.6015 51.1181 48.6357 50.8833L42.7898 38.0713C42.7467 38.0604 42.7037 38.0547 42.6594 38.0547C42.6416 38.0547 42.6239 38.0558 42.6062 38.0579" fill="white"/>
</mask>
<g mask="url(#mask2_897_5737)">
<path d="M37.0273 38.0547V55.5017H48.6336V38.0547H37.0273Z" fill="url(#paint2_linear_897_5737)"/>
</g>
<defs>
<linearGradient id="paint0_linear_897_5737" x1="46.5121" y1="36.7044" x2="35.2411" y2="54.6269" gradientUnits="userSpaceOnUse">
<stop offset="0.3" stop-color="#3E863D"/>
<stop offset="0.5" stop-color="#55934F"/>
<stop offset="0.8" stop-color="#5AAD45"/>
</linearGradient>
<linearGradient id="paint1_linear_897_5737" x1="35.6975" y1="53.5571" x2="51.9896" y2="44.1737" gradientUnits="userSpaceOnUse">
<stop offset="0.57" stop-color="#3E863D"/>
<stop offset="0.72" stop-color="#619857"/>
<stop offset="1" stop-color="#76AC64"/>
</linearGradient>
<linearGradient id="paint2_linear_897_5737" x1="37.0313" y1="46.7787" x2="48.6358" y2="46.7787" gradientUnits="userSpaceOnUse">
<stop offset="0.16" stop-color="#6BBF47"/>
<stop offset="0.38" stop-color="#79B461"/>
<stop offset="0.47" stop-color="#75AC64"/>
<stop offset="0.7" stop-color="#659E5A"/>
<stop offset="0.9" stop-color="#3E863D"/>
</linearGradient>
</defs>
</svg>
