<svg width="100" height="100" viewBox="0 0 100 100" fill="none" xmlns="http://www.w3.org/2000/svg">
<rect width="100" height="100" rx="8" fill="#FFFEFA"/>
<mask id="mask0_897_5686" style="mask-type:luminance" maskUnits="userSpaceOnUse" x="23" y="30" width="54" height="40">
<path d="M23.1211 49.999C23.1211 60.9071 35.1559 69.75 50.0011 69.75C64.8462 69.75 76.8812 60.9071 76.8812 49.999C76.8812 39.0911 64.8462 30.2481 50.0011 30.2481C35.1559 30.2481 23.1211 39.0911 23.1211 49.999Z" fill="white"/>
</mask>
<g mask="url(#mask0_897_5686)">
<path d="M23.125 49.999C23.125 60.9071 35.1598 69.75 50.005 69.75C64.8502 69.75 76.8851 60.9071 76.8851 49.999C76.8851 39.0911 64.8502 30.2481 50.005 30.2481C35.1598 30.2481 23.125 39.0911 23.125 49.999Z" fill="url(#paint0_radial_897_5686)"/>
</g>
<mask id="mask1_897_5686" style="mask-type:luminance" maskUnits="userSpaceOnUse" x="22" y="28" width="56" height="44">
<path d="M22 28H78V72H22V28Z" fill="white"/>
</mask>
<g mask="url(#mask1_897_5686)">
<path d="M50.0058 68.2852C64.2711 68.2852 75.8358 60.0988 75.8358 50.0006C75.8358 39.9024 64.2711 31.716 50.0058 31.716C35.7405 31.716 24.1758 39.9024 24.1758 50.0006C24.1758 60.0988 35.7405 68.2852 50.0058 68.2852Z" fill="#777BB3"/>
</g>
<mask id="mask2_897_5686" style="mask-type:luminance" maskUnits="userSpaceOnUse" x="22" y="28" width="56" height="44">
<path d="M22 28H78V72H22V28Z" fill="white"/>
</mask>
<g mask="url(#mask2_897_5686)">
<path d="M37.7274 52.2681C38.9004 52.2681 39.7761 51.966 40.3301 51.3703C40.8783 50.7808 41.2569 49.7595 41.4553 48.3347C41.6403 47.0031 41.5698 46.0732 41.2459 45.5714C40.9146 45.0589 40.1985 44.799 39.1174 44.799H37.2428L36.2036 52.2681H37.7274ZM31.5963 61.4688C31.5093 61.4688 31.4266 61.4144 31.3713 61.3205C31.3159 61.2266 31.2934 61.103 31.3101 60.9837L34.0642 41.1903C34.0908 40.999 34.2109 40.8607 34.3505 40.8607H40.2863C42.1518 40.8607 43.5403 41.5683 44.4131 42.9639C45.2905 44.3669 45.5615 46.328 45.2184 48.7927C45.0788 49.7968 44.8386 50.7294 44.5047 51.5643C44.1703 52.4001 43.7284 53.1735 43.1911 53.8634C42.5479 54.7043 41.8199 55.314 41.0293 55.6728C40.2512 56.0269 39.2519 56.2064 38.0593 56.2064H35.6558L34.9694 61.139C34.9428 61.3305 34.8228 61.4688 34.6832 61.4688H31.5963Z" fill="black"/>
<path d="M37.482 45.2052H39.1161C40.4209 45.2052 40.8742 45.6052 41.0282 45.8435C41.2837 46.2392 41.3319 47.0736 41.1677 48.2563C40.9832 49.5804 40.6411 50.5192 40.1509 51.0464C39.6491 51.5861 38.8332 51.8596 37.7261 51.8596H36.5561L37.482 45.2052ZM40.285 40.4522H34.3491C34.0699 40.4522 33.8298 40.7287 33.7766 41.1115L31.0224 60.9048C30.9892 61.1437 31.0341 61.3907 31.1449 61.5785C31.2557 61.7664 31.4208 61.875 31.595 61.875H34.6818C34.9611 61.875 35.2012 61.5985 35.2544 61.2157L35.8949 56.6127H38.058C39.2813 56.6127 40.3111 56.4263 41.1185 56.059C41.9489 55.6821 42.7128 55.0432 43.389 54.1599C43.9482 53.4413 44.4089 52.6346 44.7579 51.7621C45.107 50.8893 45.3579 49.916 45.5034 48.8692C45.8646 46.2748 45.5712 44.1973 44.6314 42.6948C43.7008 41.2067 42.2384 40.4522 40.285 40.4522ZM35.8485 52.6744H37.7261C38.9707 52.6744 39.8977 52.347 40.5068 51.692C41.116 51.0369 41.5268 49.9435 41.7403 48.4114C41.9446 46.9404 41.8515 45.9023 41.4612 45.2976C41.0704 44.6929 40.2888 44.3904 39.1161 44.3904H37.0011L35.8485 52.6744ZM40.285 41.267C42.0707 41.267 43.3734 41.9215 44.1922 43.2308C45.0109 44.5401 45.2574 46.3676 44.9308 48.7138C44.7963 49.6803 44.5689 50.564 44.2488 51.3646C43.9282 52.1657 43.5097 52.8982 42.9924 53.5624C42.3761 54.3681 41.6913 54.9423 40.9379 55.2842C40.1844 55.6271 39.2247 55.7978 38.058 55.7978H35.414L34.6818 61.0602H31.595L34.3491 41.267H40.285Z" fill="white"/>
<path d="M52.296 56.2051C52.2089 56.2051 52.1264 56.1508 52.0711 56.0568C52.0155 55.9629 51.9931 55.8395 52.0097 55.72L53.228 46.9622C53.3439 46.1293 53.3153 45.5315 53.1476 45.279C53.0449 45.1245 52.7365 44.8656 51.8247 44.8656H49.6176L48.0858 55.8753C48.0592 56.0668 47.9391 56.2051 47.7995 56.2051H44.737C44.6499 56.2051 44.5673 56.1508 44.5119 56.0568C44.4565 55.9629 44.4341 55.8394 44.4507 55.72L47.2048 35.9266C47.2314 35.7353 47.3515 35.597 47.4911 35.597H50.5536C50.6407 35.597 50.7233 35.6514 50.7787 35.7452C50.8341 35.8392 50.8566 35.9626 50.8399 36.0821L50.1753 40.8594H52.5497C54.3585 40.8594 55.5851 41.3048 56.2994 42.2212C57.0276 43.1561 57.2548 44.6509 56.9748 46.6645L55.6935 55.8753C55.6668 56.0668 55.5468 56.2051 55.4071 56.2051H52.296Z" fill="black"/>
<path d="M50.5484 35.1904H47.4859C47.2066 35.1904 46.9666 35.4669 46.9133 35.8498L44.1592 55.6431C44.1259 55.882 44.1708 56.129 44.2817 56.3168C44.3925 56.5046 44.5576 56.6133 44.7318 56.6133H47.7943C48.0735 56.6133 48.3137 56.3368 48.3669 55.954L49.8528 45.2738H51.8195C52.7298 45.2738 52.9208 45.5454 52.9285 45.5571C52.9837 45.64 53.0564 46.0244 52.9365 46.8853L51.7182 55.6431C51.6849 55.882 51.7299 56.129 51.8407 56.3168C51.9515 56.5046 52.1166 56.6133 52.2908 56.6133H55.4019C55.6812 56.6133 55.9213 56.3368 55.9746 55.954L57.2559 46.7432C57.5566 44.581 57.2993 42.9592 56.4916 41.9222C55.7208 40.9334 54.4297 40.4528 52.5445 40.4528H50.5238L51.1211 36.1607C51.1542 35.9219 51.1094 35.6747 50.9986 35.487C50.8877 35.2992 50.7226 35.1904 50.5484 35.1904ZM50.5484 36.0053L49.8162 41.2676H52.5445C54.2611 41.2676 55.4452 41.6861 56.0969 42.5221C56.7486 43.3587 56.9438 44.7141 56.6833 46.5878L55.4019 55.7985H52.2908L53.5091 47.0408C53.6478 46.0446 53.5968 45.365 53.3561 45.0027C53.1153 44.6404 52.603 44.459 51.8195 44.459H49.3718L47.7943 55.7985H44.7318L47.4859 36.0053H50.5484Z" fill="white"/>
<path d="M61.8172 52.2681C62.9902 52.2681 63.8659 51.966 64.42 51.3703C64.9681 50.781 65.3467 49.7596 65.5452 48.3347C65.7302 47.0031 65.6597 46.0732 65.3357 45.5714C65.0045 45.0589 64.2883 44.799 63.2072 44.799H61.3327L60.2935 52.2681H61.8172ZM55.6862 61.4688C55.5992 61.4688 55.5166 61.4144 55.4612 61.3205C55.4058 61.2266 55.3833 61.103 55.3999 60.9837L58.154 41.1903C58.1807 40.999 58.3007 40.8607 58.4404 40.8607H64.3761C66.2417 40.8607 67.6301 41.5683 68.503 42.9639C69.3804 44.3667 69.6513 46.3279 69.3083 48.7927C69.1685 49.7968 68.9285 50.7294 68.5945 51.5643C68.2601 52.4001 67.8183 53.1735 67.2809 53.8634C66.6377 54.7043 65.9097 55.314 65.1191 55.6728C64.341 56.0269 63.3418 56.2064 62.1491 56.2064H59.7455L59.0594 61.139C59.0327 61.3305 58.9127 61.4688 58.773 61.4688H55.6862Z" fill="black"/>
<path d="M61.5717 45.2052H63.2058C64.5107 45.2052 64.9639 45.6052 65.1179 45.8435C65.3735 46.2392 65.4217 47.0736 65.2574 48.2562C65.0729 49.5804 64.7308 50.5192 64.2407 51.0464C63.7388 51.5861 62.9229 51.8596 61.8159 51.8596H60.646L61.5717 45.2052ZM64.3748 40.4522H58.4389C58.1597 40.4522 57.9197 40.7287 57.8664 41.1115L55.1123 60.9048C55.079 61.1437 55.124 61.3907 55.2347 61.5785C55.3455 61.7664 55.5106 61.875 55.6848 61.875H58.7716C59.0509 61.875 59.291 61.5985 59.3443 61.2157L59.9847 56.6127H62.1478C63.371 56.6127 64.4008 56.4263 65.2082 56.059C66.0386 55.6821 66.8028 55.043 67.479 54.1597C68.0382 53.4411 68.4986 52.6346 68.8477 51.7621C69.1968 50.8893 69.4476 49.916 69.5932 48.8692C69.9543 46.2747 69.6609 44.1972 68.7212 42.6947C67.7906 41.2067 66.3282 40.4522 64.3748 40.4522ZM59.9383 52.6744H61.8159C63.0604 52.6744 63.9874 52.347 64.5965 51.692C65.2058 51.0369 65.6166 49.9435 65.8301 48.4114C66.0344 46.9404 65.9414 45.9023 65.5509 45.2976C65.1601 44.6929 64.3785 44.3904 63.2058 44.3904H61.0909L59.9383 52.6744ZM64.3748 41.267C66.1604 41.267 67.4631 41.9215 68.2819 43.2308C69.1007 44.5401 69.3472 46.3676 69.0205 48.7138C68.8861 49.6803 68.6587 50.564 68.3385 51.3646C68.018 52.1657 67.5994 52.8982 67.0822 53.5624C66.4658 54.3681 65.7811 54.9423 65.0276 55.2842C64.2741 55.6271 63.3144 55.7978 62.1478 55.7978H59.5037L58.7716 61.0602H55.6848L58.4389 41.267H64.3748Z" fill="white"/>
</g>
<defs>
<radialGradient id="paint0_radial_897_5686" cx="0" cy="0" r="1" gradientUnits="userSpaceOnUse" gradientTransform="translate(39.2639 37.1919) scale(35.2973 49.3042)">
<stop stop-color="#AEB2D5"/>
<stop offset="0.3" stop-color="#AEB2D5"/>
<stop offset="0.75" stop-color="#484C89"/>
<stop offset="1" stop-color="#484C89"/>
</radialGradient>
</defs>
</svg>
