<svg width="100" height="100" viewBox="0 0 100 100" fill="none" xmlns="http://www.w3.org/2000/svg">
<rect width="100" height="100" rx="8" fill="#FFFEFA"/>
<path d="M71.9978 40.936C71.9974 40.1962 71.8196 39.5424 71.4599 38.9813C71.1067 38.4296 70.5776 37.9672 69.868 37.6015C64.0104 34.5964 58.1471 31.6004 52.2914 28.5922C50.7127 27.7813 49.1821 27.8109 47.6151 28.6334C45.2836 29.8568 33.6106 35.8072 30.1322 37.5999C28.6996 38.3377 28.0026 39.4669 28.0022 40.9346C28 46.9782 28.0022 53.0215 28 59.0652C28 59.7888 28.1706 60.4299 28.5144 60.9825C28.8678 61.551 29.4043 62.0261 30.1303 62.4C33.6088 64.1926 45.2834 70.1426 47.6144 71.3663C49.1821 72.1893 50.7127 72.2187 52.2919 71.4075C58.1478 68.3991 64.0114 65.4033 69.8699 62.3982C70.5959 62.0244 71.1323 61.549 71.4858 60.981C71.829 60.4283 72 59.7873 72 59.0635C72 59.0635 72 46.9797 71.9978 40.936Z" fill="#A179DC"/>
<path d="M50.0685 49.9414L28.5156 60.9829C28.8691 61.5513 29.4055 62.0265 30.1315 62.4004C33.6101 64.193 45.2847 70.1429 47.6157 71.3666C49.1833 72.1897 50.7139 72.2191 52.2931 71.4078C58.149 68.3995 64.0127 65.4037 69.8711 62.3985C70.5971 62.0248 71.1336 61.5493 71.487 60.9814L50.0685 49.9414Z" fill="#280068"/>
<path d="M71.9969 40.9351C71.9965 40.1953 71.8187 39.5415 71.459 38.9805L50.0664 49.9402L71.4849 60.9801C71.8281 60.4275 71.9987 59.7864 71.9991 59.0627C71.9991 59.0627 71.9991 46.9788 71.9969 40.9351Z" fill="#390091"/>
<path d="M62.7567 45.8125V47.8763H65.0763V45.8125H66.2361V47.8763H68.5557V48.9083H66.2361V50.9721H68.5557V52.004H66.2361V54.0678H65.0763V52.004H62.7567V54.0678H61.5969V52.004H59.2773V50.9721H61.5969V48.9083H59.2773V47.8763H61.5969V45.8125H62.7567ZM65.0763 48.9083H62.7567V50.9721H65.0763V48.9083Z" fill="white"/>
<path d="M50.1166 35.4492C56.1669 35.4492 61.4492 38.3728 64.2785 42.7183L64.2509 42.6765L57.1325 46.3233C55.73 44.2105 53.1589 42.7847 50.2095 42.7553L50.1166 42.7548C45.619 42.7548 41.9726 45.999 41.9726 50.0008C41.9726 51.3095 42.3647 52.5362 43.0467 53.5957C44.4505 55.7762 47.0894 57.2469 50.1166 57.2469C53.1626 57.2469 55.8165 55.7575 57.2132 53.5537L57.1793 53.6066L64.287 57.2703C61.4887 61.579 56.2787 64.4935 50.2988 64.5516L50.1166 64.5525C44.0474 64.5525 38.75 61.611 35.9278 57.2425C34.55 55.1098 33.7617 52.6373 33.7617 50.0008C33.7617 41.9643 41.0839 35.4492 50.1166 35.4492Z" fill="white"/>
</svg>
