<svg width="100" height="100" viewBox="0 0 100 100" fill="none" xmlns="http://www.w3.org/2000/svg">
<rect width="100" height="100" rx="8" fill="#FFFEFA"/>
<path d="M62.2161 28H37.7839C32.3804 28 28 32.5145 28 38.0834V61.9166C28 67.4855 32.3804 72 37.7839 72H62.2161C67.6196 72 72 67.4855 72 61.9166V38.0834C72 32.5145 67.6196 28 62.2161 28Z" fill="#271302"/>
<path d="M62.2181 30.0996H37.7859C33.5074 30.0996 30.0391 33.6742 30.0391 38.0836V61.9169C30.0391 66.3263 33.5074 69.9008 37.7859 69.9008H62.2181C66.4966 69.9008 69.965 66.3263 69.965 61.9169V38.0836C69.965 33.6742 66.4966 30.0996 62.2181 30.0996Z" fill="#271302"/>
<path d="M43.4146 53.6919L42.173 57.6387C42.1558 57.7017 42.1182 57.7569 42.0666 57.795C42.015 57.8332 41.9523 57.8521 41.8888 57.8487H38.8873C38.706 57.8487 38.654 57.7437 38.6835 57.582L43.8576 42.1956C43.9595 41.9028 44.0613 41.5826 44.1163 40.5697C44.114 40.5238 44.1289 40.4789 44.1579 40.4441C44.187 40.4093 44.2279 40.3873 44.2722 40.3828H48.4114C48.5408 40.3828 48.5927 40.4091 48.6151 40.5424L54.4889 57.6083C54.5409 57.7416 54.5144 57.8487 54.3596 57.8487H50.9985C50.937 57.8578 50.8744 57.8439 50.8219 57.8097C50.7694 57.7754 50.7305 57.723 50.7123 57.6618L49.3882 53.6887L43.4146 53.6919ZM48.4348 50.3591C47.9174 48.5988 46.8816 45.372 46.3907 43.4794H46.3642C45.9507 45.2639 45.0187 48.203 44.3465 50.3591H48.4348Z" fill="#FF7C01"/>
<path d="M56.0391 41.1059C56.0391 39.9061 56.8926 39.0527 58.0567 39.0527C59.2983 39.0527 60.049 39.9061 60.049 41.1059C60.049 42.3593 59.2474 43.1854 58.0313 43.1854C56.8152 43.1854 56.0391 42.3593 56.0391 41.1059ZM56.2193 44.8124C56.2193 44.6791 56.2713 44.6025 56.423 44.6025H59.6049C59.7607 44.6025 59.8086 44.6549 59.8086 44.8124V57.6113C59.8086 57.7719 59.7831 57.8517 59.5764 57.8517H56.478C56.2978 57.8517 56.2193 57.7719 56.2193 57.6113V44.8124Z" fill="#FF7C01"/>
</svg>
