<svg width="100" height="100" viewBox="0 0 100 100" fill="none" xmlns="http://www.w3.org/2000/svg">
<rect width="100" height="100" rx="8" fill="#FFFEFA"/>
<path d="M39.0002 78.0007C45.0723 78.0007 50.0004 73.8193 50.0004 68.6673V59.334H39.0002C32.9281 59.334 28 63.5153 28 68.6673C28 73.8193 32.9281 78.0007 39.0002 78.0007Z" fill="#0ACF83"/>
<path d="M28 49.9994C28 44.8474 32.9281 40.666 39.0002 40.666H50.0004V59.3327H39.0002C32.9281 59.3327 28 55.1514 28 49.9994Z" fill="#A259FF"/>
<path d="M28 31.3333C28 26.1813 32.9281 22 39.0002 22H50.0004V40.6667H39.0002C32.9281 40.6667 28 36.4853 28 31.3333Z" fill="#F24E1E"/>
<path d="M50 22H61.0002C67.0723 22 72.0004 26.1813 72.0004 31.3333C72.0004 36.4853 67.0723 40.6667 61.0002 40.6667H50V22Z" fill="#FF7262"/>
<path d="M72.0004 49.9994C72.0004 55.1514 67.0723 59.3327 61.0002 59.3327C54.9281 59.3327 50 55.1514 50 49.9994C50 44.8474 54.9281 40.666 61.0002 40.666C67.0723 40.666 72.0004 44.8474 72.0004 49.9994Z" fill="#1ABCFE"/>
</svg>
