<svg width="100" height="100" viewBox="0 0 100 100" fill="none" xmlns="http://www.w3.org/2000/svg">
<rect width="100" height="100" rx="8" fill="#FFFEFA"/>
<path d="M67.8095 28H32.1905C29.8798 28 28 29.7944 28 32V68C28 70.2056 29.8798 72 32.1905 72H67.8095C70.1202 72 72 70.2056 72 68V32C72 29.7944 70.1202 28 67.8095 28Z" fill="black"/>
<path d="M69.9033 68C69.9033 69.1 68.9604 70 67.808 70H32.189C31.0366 70 30.0938 69.1 30.0938 68V34C30.0938 32.9 31.0366 32 32.189 32H67.808C68.9604 32 69.9033 32.9 69.9033 34V68Z" fill="url(#paint0_linear_894_3206)"/>
<path d="M67.808 32H32.189C31.0366 32 30.0938 32.9 30.0938 34V35C30.0938 33.9 31.0366 33 32.189 33H67.808C68.9604 33 69.9033 33.9 69.9033 35V34C69.9033 32.9 68.9604 32 67.808 32Z" fill="url(#paint1_linear_894_3206)"/>
<path d="M67.808 30H32.189C31.0366 30 30.0938 30.9 30.0938 32V34C30.0938 32.9 31.0366 32 32.189 32H67.808C68.9604 32 69.9033 32.9 69.9033 34V32C69.9033 30.9 68.9604 30 67.808 30Z" fill="url(#paint2_linear_894_3206)"/>
<path d="M39.3814 42.4102H45.1285L51.4476 60.9998H46.8444L45.5099 56.866H38.4553L37.1207 60.9998H32.9805L39.3814 42.4102ZM39.4086 53.876H44.5566L41.9962 45.8422L39.4086 53.876Z" fill="#9999FF"/>
<path d="M52.4844 54.3696V54.1616C52.4844 49.8718 55.6711 47.0898 59.8112 47.0898C63.4882 47.0898 66.7567 49.1438 66.7567 54.0057V55.0455H56.4882C56.5971 57.3076 57.8773 58.6074 60.029 58.6074C61.854 58.6074 62.7528 57.8535 62.998 56.7095H66.7295C66.2664 59.6474 63.8151 61.2855 59.9201 61.2855C55.6167 61.2856 52.4844 58.7116 52.4844 54.3696ZM62.9163 52.7317C62.7801 50.6778 61.6906 49.6898 59.8112 49.6898C58.0407 49.6898 56.8423 50.8077 56.5426 52.7317H62.9163Z" fill="#9999FF"/>
<defs>
<linearGradient id="paint0_linear_894_3206" x1="49.9985" y1="32.067" x2="49.9985" y2="69.0268" gradientUnits="userSpaceOnUse">
<stop stop-color="#4747A7"/>
<stop offset="1" stop-color="#00005B"/>
</linearGradient>
<linearGradient id="paint1_linear_894_3206" x1="30.0938" y1="33.5" x2="69.9033" y2="33.5" gradientUnits="userSpaceOnUse">
<stop stop-color="#4747A7"/>
<stop offset="0.5" stop-color="#8484C4"/>
<stop offset="1" stop-color="#4747A7"/>
</linearGradient>
<linearGradient id="paint2_linear_894_3206" x1="30.0938" y1="32" x2="69.9033" y2="32" gradientUnits="userSpaceOnUse">
<stop stop-color="#00005B"/>
<stop offset="0.5" stop-color="#4D4D98"/>
<stop offset="1" stop-color="#00005B"/>
</linearGradient>
</defs>
</svg>
