<svg width="356" height="98" viewBox="0 0 356 98" fill="none" xmlns="http://www.w3.org/2000/svg">
<g opacity="0.24">
<mask id="path-1-outside-1_2871_13709" maskUnits="userSpaceOnUse" x="0" y="0" width="356" height="98" fill="black">
<rect fill="white" width="356" height="98"/>
<path d="M23.3848 9.18C29.9848 9.18 35.7748 10.47 40.7548 13.05C45.7948 15.63 49.6648 19.32 52.3648 24.12C55.1248 28.86 56.5048 34.38 56.5048 40.68C56.5048 46.98 55.1248 52.5 52.3648 57.24C49.6648 61.92 45.7948 65.55 40.7548 68.13C35.7748 70.71 29.9848 72 23.3848 72H1.42484V9.18H23.3848ZM22.9348 61.29C29.5348 61.29 34.6348 59.49 38.2348 55.89C41.8348 52.29 43.6348 47.22 43.6348 40.68C43.6348 34.14 41.8348 29.04 38.2348 25.38C34.6348 21.66 29.5348 19.8 22.9348 19.8H14.0248V61.29H22.9348ZM72.3266 16.2C70.1066 16.2 68.2466 15.51 66.7466 14.13C65.3066 12.69 64.5866 10.92 64.5866 8.82C64.5866 6.72 65.3066 4.98 66.7466 3.6C68.2466 2.16 70.1066 1.44 72.3266 1.44C74.5466 1.44 76.3766 2.16 77.8166 3.6C79.3166 4.98 80.0666 6.72 80.0666 8.82C80.0666 10.92 79.3166 12.69 77.8166 14.13C76.3766 15.51 74.5466 16.2 72.3266 16.2ZM78.5366 22.14V72H65.9366V22.14H78.5366ZM110.515 21.33C114.235 21.33 117.505 22.08 120.325 23.58C123.145 25.02 125.365 26.91 126.985 29.25V22.14H139.675V72.36C139.675 76.98 138.745 81.09 136.885 84.69C135.025 88.35 132.235 91.23 128.515 93.33C124.795 95.49 120.295 96.57 115.015 96.57C107.935 96.57 102.115 94.92 97.5554 91.62C93.0554 88.32 90.5054 83.82 89.9054 78.12H102.415C103.075 80.4 104.485 82.2 106.645 83.52C108.865 84.9 111.535 85.59 114.655 85.59C118.315 85.59 121.285 84.48 123.565 82.26C125.845 80.1 126.985 76.8 126.985 72.36V64.62C125.365 66.96 123.115 68.91 120.235 70.47C117.415 72.03 114.175 72.81 110.515 72.81C106.315 72.81 102.475 71.73 98.9954 69.57C95.5154 67.41 92.7554 64.38 90.7154 60.48C88.7354 56.52 87.7454 51.99 87.7454 46.89C87.7454 41.85 88.7354 37.38 90.7154 33.48C92.7554 29.58 95.4854 26.58 98.9054 24.48C102.385 22.38 106.255 21.33 110.515 21.33ZM126.985 47.07C126.985 44.01 126.385 41.4 125.185 39.24C123.985 37.02 122.365 35.34 120.325 34.2C118.285 33 116.095 32.4 113.755 32.4C111.415 32.4 109.255 32.97 107.275 34.11C105.295 35.25 103.675 36.93 102.415 39.15C101.215 41.31 100.615 43.89 100.615 46.89C100.615 49.89 101.215 52.53 102.415 54.81C103.675 57.03 105.295 58.74 107.275 59.94C109.315 61.14 111.475 61.74 113.755 61.74C116.095 61.74 118.285 61.17 120.325 60.03C122.365 58.83 123.985 57.15 125.185 54.99C126.385 52.77 126.985 50.13 126.985 47.07ZM158.371 16.2C156.151 16.2 154.291 15.51 152.791 14.13C151.351 12.69 150.631 10.92 150.631 8.82C150.631 6.72 151.351 4.98 152.791 3.6C154.291 2.16 156.151 1.44 158.371 1.44C160.591 1.44 162.421 2.16 163.861 3.6C165.361 4.98 166.111 6.72 166.111 8.82C166.111 10.92 165.361 12.69 163.861 14.13C162.421 15.51 160.591 16.2 158.371 16.2ZM164.581 22.14V72H151.981V22.14H164.581ZM191.7 32.49V56.61C191.7 58.29 192.09 59.52 192.87 60.3C193.71 61.02 195.09 61.38 197.01 61.38H202.86V72H194.94C184.32 72 179.01 66.84 179.01 56.52V32.49H173.07V22.14H179.01V9.81H191.7V22.14H202.86V32.49H191.7ZM208.683 46.89C208.683 41.85 209.673 37.38 211.653 33.48C213.693 29.58 216.423 26.58 219.843 24.48C223.323 22.38 227.193 21.33 231.453 21.33C235.173 21.33 238.413 22.08 241.173 23.58C243.993 25.08 246.243 26.97 247.923 29.25V22.14H260.613V72H247.923V64.71C246.303 67.05 244.053 69 241.173 70.56C238.353 72.06 235.083 72.81 231.363 72.81C227.163 72.81 223.323 71.73 219.843 69.57C216.423 67.41 213.693 64.38 211.653 60.48C209.673 56.52 208.683 51.99 208.683 46.89ZM247.923 47.07C247.923 44.01 247.323 41.4 246.123 39.24C244.923 37.02 243.303 35.34 241.263 34.2C239.223 33 237.033 32.4 234.693 32.4C232.353 32.4 230.193 32.97 228.213 34.11C226.233 35.25 224.613 36.93 223.353 39.15C222.153 41.31 221.553 43.89 221.553 46.89C221.553 49.89 222.153 52.53 223.353 54.81C224.613 57.03 226.233 58.74 228.213 59.94C230.253 61.14 232.413 61.74 234.693 61.74C237.033 61.74 239.223 61.17 241.263 60.03C243.303 58.83 244.923 57.15 246.123 54.99C247.323 52.77 247.923 50.13 247.923 47.07ZM285.519 5.4V72H272.919V5.4H285.519ZM349.113 10.26L353.613 18.36L341.913 22.59L353.613 26.82L348.933 35.19L339.213 27.18L341.283 39.6H331.923L333.903 27.18L324.273 35.37L319.323 26.73L331.023 22.5L319.413 18.45L324.003 10.17L333.993 18.09L331.923 5.58H341.373L339.213 18.09L349.113 10.26Z"/>
</mask>
<path d="M40.7548 13.05L40.2948 13.9379L40.2992 13.9401L40.7548 13.05ZM52.3648 24.12L51.4933 24.6103L51.4969 24.6168L51.5007 24.6232L52.3648 24.12ZM52.3648 57.24L51.5007 56.7368L51.4987 56.7403L52.3648 57.24ZM40.7548 68.13L40.2992 67.2398L40.2948 67.2421L40.7548 68.13ZM1.42484 72H0.424844V73H1.42484V72ZM1.42484 9.18V8.18H0.424844V9.18H1.42484ZM38.2348 55.89L37.5277 55.1829L38.2348 55.89ZM38.2348 25.38L37.5162 26.0754L37.5219 26.0812L38.2348 25.38ZM14.0248 19.8V18.8H13.0248V19.8H14.0248ZM14.0248 61.29H13.0248V62.29H14.0248V61.29ZM23.3848 10.18C29.853 10.18 35.4801 11.4435 40.2948 13.9379L41.2149 12.1621C36.0696 9.49646 30.1167 8.18 23.3848 8.18V10.18ZM40.2992 13.9401C45.1695 16.4333 48.8924 19.9865 51.4933 24.6103L53.2364 23.6297C50.4373 18.6534 46.4202 14.8267 41.2105 12.1598L40.2992 13.9401ZM51.5007 24.6232C54.1592 29.1889 55.5048 34.5301 55.5048 40.68H57.5048C57.5048 34.2299 56.0905 28.5311 53.229 23.6168L51.5007 24.6232ZM55.5048 40.68C55.5048 46.8299 54.1592 52.1711 51.5007 56.7368L53.229 57.7432C56.0905 52.8289 57.5048 47.1301 57.5048 40.68H55.5048ZM51.4987 56.7403C48.8997 61.2451 45.1762 64.7433 40.2992 67.2399L41.2105 69.0201C46.4135 66.3567 50.4299 62.5949 53.231 57.7397L51.4987 56.7403ZM40.2948 67.2421C35.4801 69.7365 29.853 71 23.3848 71V73C30.1167 73 36.0696 71.6835 41.2149 69.0179L40.2948 67.2421ZM23.3848 71H1.42484V73H23.3848V71ZM2.42484 72V9.18H0.424844V72H2.42484ZM1.42484 10.18H23.3848V8.18H1.42484V10.18ZM22.9348 62.29C29.7181 62.29 35.1035 60.4356 38.942 56.5971L37.5277 55.1829C34.1662 58.5444 29.3516 60.29 22.9348 60.29V62.29ZM38.942 56.5971C42.7788 52.7603 44.6348 47.4062 44.6348 40.68H42.6348C42.6348 47.0338 40.8909 51.8197 37.5277 55.1829L38.942 56.5971ZM44.6348 40.68C44.6348 33.9529 42.7785 28.5733 38.9478 24.6788L37.5219 26.0812C40.8912 29.5067 42.6348 34.3271 42.6348 40.68H44.6348ZM38.9534 24.6846C35.1166 20.7199 29.7272 18.8 22.9348 18.8V20.8C29.3425 20.8 34.153 22.6001 37.5162 26.0754L38.9534 24.6846ZM22.9348 18.8H14.0248V20.8H22.9348V18.8ZM13.0248 19.8V61.29H15.0248V19.8H13.0248ZM14.0248 62.29H22.9348V60.29H14.0248V62.29ZM66.7466 14.13L66.0395 14.8371L66.0542 14.8518L66.0695 14.8659L66.7466 14.13ZM66.7466 3.59999L67.4385 4.32198L67.4391 4.32138L66.7466 3.59999ZM77.8166 3.59999L77.1095 4.3071L77.1242 4.32183L77.1395 4.33593L77.8166 3.59999ZM77.8166 14.13L78.5085 14.852L78.5091 14.8514L77.8166 14.13ZM78.5366 22.14H79.5366V21.14H78.5366V22.14ZM78.5366 72V73H79.5366V72H78.5366ZM65.9366 72H64.9366V73H65.9366V72ZM65.9366 22.14V21.14H64.9366V22.14H65.9366ZM72.3266 15.2C70.333 15.2 68.7219 14.5885 67.4236 13.3941L66.0695 14.8659C67.7712 16.4315 69.8801 17.2 72.3266 17.2V15.2ZM67.4537 13.4229C66.2076 12.1769 65.5866 10.664 65.5866 8.82H63.5866C63.5866 11.176 64.4055 13.2031 66.0395 14.8371L67.4537 13.4229ZM65.5866 8.82C65.5866 6.97645 66.2066 5.50249 67.4385 4.32198L66.0547 2.87801C64.4065 4.4575 63.5866 6.46355 63.5866 8.82H65.5866ZM67.4391 4.32138C68.7394 3.07305 70.3455 2.44 72.3266 2.44V0.439997C69.8676 0.439997 67.7537 1.24694 66.054 2.87861L67.4391 4.32138ZM72.3266 2.44C74.3077 2.44 75.8748 3.07247 77.1095 4.3071L78.5237 2.89289C76.8783 1.24752 74.7855 0.439997 72.3266 0.439997V2.44ZM77.1395 4.33593C78.4267 5.52016 79.0666 6.99007 79.0666 8.82H81.0666C81.0666 6.44993 80.2064 4.43983 78.4936 2.86407L77.1395 4.33593ZM79.0666 8.82C79.0666 10.6508 78.4254 12.1593 77.124 13.4086L78.5091 14.8514C80.2077 13.2207 81.0666 11.1892 81.0666 8.82H79.0666ZM77.1247 13.408C75.8925 14.5888 74.3204 15.2 72.3266 15.2V17.2C74.7727 17.2 76.8606 16.4312 78.5085 14.852L77.1247 13.408ZM77.5366 22.14V72H79.5366V22.14H77.5366ZM78.5366 71H65.9366V73H78.5366V71ZM66.9366 72V22.14H64.9366V72H66.9366ZM65.9366 23.14H78.5366V21.14H65.9366V23.14ZM120.325 23.58L119.856 24.4629L119.863 24.4668L119.871 24.4706L120.325 23.58ZM126.985 29.25L126.163 29.8192L127.985 32.4513V29.25H126.985ZM126.985 22.14V21.14H125.985V22.14H126.985ZM139.675 22.14H140.675V21.14H139.675V22.14ZM136.885 84.69L135.997 84.231L135.994 84.237L136.885 84.69ZM128.515 93.33L128.024 92.4591L128.013 92.4652L128.515 93.33ZM97.5554 91.62L96.964 92.4264L96.9691 92.4301L97.5554 91.62ZM89.9054 78.12V77.12H88.7946L88.9109 78.2247L89.9054 78.12ZM102.415 78.12L103.376 77.8419L103.167 77.12H102.415V78.12ZM106.645 83.52L107.173 82.6707L107.167 82.6667L106.645 83.52ZM123.565 82.26L122.878 81.534L122.868 81.5435L123.565 82.26ZM126.985 64.62H127.985V61.4187L126.163 64.0508L126.985 64.62ZM120.235 70.47L119.759 69.5907L119.751 69.595L120.235 70.47ZM98.9954 69.57L99.5228 68.7204L98.9954 69.57ZM90.7154 60.48L89.821 60.9272L89.8251 60.9354L89.8293 60.9435L90.7154 60.48ZM90.7154 33.48L89.8292 33.0165L89.8237 33.0273L90.7154 33.48ZM98.9054 24.48L98.3887 23.6238L98.3821 23.6278L98.9054 24.48ZM125.185 39.24L124.306 39.7155L124.311 39.7256L125.185 39.24ZM120.325 34.2L119.818 35.0619L119.828 35.0675L119.838 35.0729L120.325 34.2ZM107.275 34.11L106.776 33.2434L107.275 34.11ZM102.415 39.15L101.546 38.6564L101.541 38.6644L102.415 39.15ZM102.415 54.81L101.53 55.2757L101.538 55.2898L101.546 55.3036L102.415 54.81ZM107.275 59.94L106.757 60.7953L106.768 60.8019L107.275 59.94ZM120.325 60.03L120.813 60.9029L120.823 60.8975L120.832 60.8919L120.325 60.03ZM125.185 54.99L126.06 55.4757L126.065 55.4655L125.185 54.99ZM110.515 22.33C114.099 22.33 117.202 23.0516 119.856 24.4629L120.795 22.6971C117.808 21.1084 114.372 20.33 110.515 20.33V22.33ZM119.871 24.4706C122.56 25.8441 124.647 27.6298 126.163 29.8192L127.808 28.6808C126.083 26.1902 123.73 24.1959 120.78 22.6894L119.871 24.4706ZM127.985 29.25V22.14H125.985V29.25H127.985ZM126.985 23.14H139.675V21.14H126.985V23.14ZM138.675 22.14V72.36H140.675V22.14H138.675ZM138.675 72.36C138.675 76.8428 137.774 80.7916 135.997 84.231L137.774 85.149C139.717 81.3884 140.675 77.1172 140.675 72.36H138.675ZM135.994 84.237C134.227 87.714 131.58 90.4519 128.024 92.4592L129.007 94.2008C132.891 92.0081 135.824 88.986 137.777 85.1431L135.994 84.237ZM128.013 92.4652C124.477 94.5186 120.159 95.57 115.015 95.57V97.57C120.432 97.57 125.114 96.4614 129.018 94.1948L128.013 92.4652ZM115.015 95.57C108.091 95.57 102.492 93.9578 98.1417 90.8099L96.9691 92.4301C101.739 95.8822 107.78 97.57 115.015 97.57V95.57ZM98.1468 90.8136C93.8809 87.6853 91.4713 83.4437 90.8999 78.0153L88.9109 78.2247C89.5395 84.1963 92.2299 88.9547 96.964 92.4264L98.1468 90.8136ZM89.9054 79.12H102.415V77.12H89.9054V79.12ZM101.455 78.3981C102.189 80.9348 103.766 82.9325 106.124 84.3733L107.167 82.6667C105.204 81.4675 103.962 79.8652 103.376 77.8419L101.455 78.3981ZM106.117 84.3693C108.524 85.8654 111.385 86.59 114.655 86.59V84.59C111.686 84.59 109.207 83.9346 107.173 82.6707L106.117 84.3693ZM114.655 86.59C118.534 86.59 121.768 85.4058 124.263 82.9765L122.868 81.5435C120.803 83.5542 118.097 84.59 114.655 84.59V86.59ZM124.253 82.986C126.803 80.57 127.985 76.9587 127.985 72.36H125.985C125.985 76.6413 124.887 79.63 122.878 81.534L124.253 82.986ZM127.985 72.36V64.62H125.985V72.36H127.985ZM126.163 64.0508C124.645 66.2435 122.522 68.0942 119.759 69.5907L120.712 71.3493C123.709 69.7258 126.086 67.6765 127.808 65.1892L126.163 64.0508ZM119.751 69.595C117.099 71.0624 114.029 71.81 110.515 71.81V73.81C114.321 73.81 117.732 72.9976 120.719 71.345L119.751 69.595ZM110.515 71.81C106.497 71.81 102.84 70.7795 99.5228 68.7204L98.468 70.4196C102.111 72.6805 106.134 73.81 110.515 73.81V71.81ZM99.5228 68.7204C96.206 66.6617 93.565 63.7703 91.6015 60.0165L89.8293 60.9435C91.9458 64.9897 94.8247 68.1583 98.468 70.4196L99.5228 68.7204ZM91.6098 60.0328C89.7091 56.2313 88.7454 51.8584 88.7454 46.89H86.7454C86.7454 52.1216 87.7617 56.8087 89.821 60.9272L91.6098 60.0328ZM88.7454 46.89C88.7454 41.9833 89.7084 37.6724 91.6071 33.9327L89.8237 33.0273C87.7624 37.0875 86.7454 41.7167 86.7454 46.89H88.7454ZM91.6015 33.9435C93.5662 30.1875 96.1771 27.3287 99.4287 25.3322L98.3821 23.6278C94.7937 25.8313 91.9446 28.9725 89.8293 33.0165L91.6015 33.9435ZM99.4221 25.3362C102.738 23.3349 106.428 22.33 110.515 22.33V20.33C106.082 20.33 102.032 21.4251 98.3887 23.6238L99.4221 25.3362ZM127.985 47.07C127.985 43.8801 127.36 41.0944 126.06 38.7544L124.311 39.7256C125.411 41.7056 125.985 44.1399 125.985 47.07H127.985ZM126.065 38.7645C124.782 36.3914 123.032 34.5671 120.813 33.3271L119.838 35.0729C121.699 36.1129 123.188 37.6486 124.306 39.7155L126.065 38.7645ZM120.832 33.3381C118.641 32.0488 116.276 31.4 113.755 31.4V33.4C115.915 33.4 117.93 33.9512 119.818 35.0619L120.832 33.3381ZM113.755 31.4C111.245 31.4 108.912 32.0138 106.776 33.2434L107.774 34.9766C109.599 33.9262 111.586 33.4 113.755 33.4V31.4ZM106.776 33.2434C104.624 34.4825 102.883 36.2998 101.546 38.6564L103.285 39.6436C104.468 37.5602 105.967 36.0175 107.774 34.9766L106.776 33.2434ZM101.541 38.6644C100.243 41.0016 99.6154 43.7562 99.6154 46.89H101.615C101.615 44.0238 102.188 41.6184 103.29 39.6356L101.541 38.6644ZM99.6154 46.89C99.6154 50.0255 100.243 52.8302 101.53 55.2757L103.3 54.3443C102.187 52.2298 101.615 49.7545 101.615 46.89H99.6154ZM101.546 55.3036C102.881 57.6566 104.616 59.4978 106.757 60.7952L107.794 59.0848C105.974 57.9822 104.47 56.4034 103.285 54.3164L101.546 55.3036ZM106.768 60.8019C108.956 62.0887 111.29 62.74 113.755 62.74V60.74C111.661 60.74 109.675 60.1913 107.782 59.0781L106.768 60.8019ZM113.755 62.74C116.266 62.74 118.624 62.1264 120.813 60.9029L119.838 59.1571C117.947 60.2136 115.925 60.74 113.755 60.74V62.74ZM120.832 60.8919C123.033 59.5974 124.777 57.7844 126.06 55.4756L124.311 54.5044C123.194 56.5156 121.698 58.0626 119.818 59.1681L120.832 60.8919ZM126.065 55.4655C127.359 53.0715 127.985 50.261 127.985 47.07H125.985C125.985 49.999 125.412 52.4685 124.306 54.5145L126.065 55.4655ZM152.791 14.13L152.084 14.8371L152.099 14.8518L152.114 14.8659L152.791 14.13ZM152.791 3.59999L153.483 4.32198L153.484 4.32138L152.791 3.59999ZM163.861 3.59999L163.154 4.3071L163.169 4.32183L163.184 4.33593L163.861 3.59999ZM163.861 14.13L164.553 14.852L164.554 14.8514L163.861 14.13ZM164.581 22.14H165.581V21.14H164.581V22.14ZM164.581 72V73H165.581V72H164.581ZM151.981 72H150.981V73H151.981V72ZM151.981 22.14V21.14H150.981V22.14H151.981ZM158.371 15.2C156.378 15.2 154.767 14.5885 153.469 13.3941L152.114 14.8659C153.816 16.4315 155.925 17.2 158.371 17.2V15.2ZM153.499 13.4229C152.253 12.1769 151.631 10.664 151.631 8.82H149.631C149.631 11.176 150.45 13.2031 152.084 14.8371L153.499 13.4229ZM151.631 8.82C151.631 6.97645 152.252 5.50249 153.483 4.32198L152.1 2.87801C150.451 4.4575 149.631 6.46355 149.631 8.82H151.631ZM153.484 4.32138C154.784 3.07305 156.39 2.44 158.371 2.44V0.439997C155.913 0.439997 153.799 1.24694 152.099 2.87861L153.484 4.32138ZM158.371 2.44C160.353 2.44 161.92 3.07247 163.154 4.3071L164.569 2.89289C162.923 1.24752 160.83 0.439997 158.371 0.439997V2.44ZM163.184 4.33593C164.472 5.52016 165.111 6.99007 165.111 8.82H167.111C167.111 6.44993 166.251 4.43983 164.539 2.86407L163.184 4.33593ZM165.111 8.82C165.111 10.6508 164.47 12.1593 163.169 13.4086L164.554 14.8514C166.253 13.2207 167.111 11.1892 167.111 8.82H165.111ZM163.17 13.408C161.937 14.5888 160.365 15.2 158.371 15.2V17.2C160.818 17.2 162.906 16.4312 164.553 14.852L163.17 13.408ZM163.581 22.14V72H165.581V22.14H163.581ZM164.581 71H151.981V73H164.581V71ZM152.981 72V22.14H150.981V72H152.981ZM151.981 23.14H164.581V21.14H151.981V23.14ZM191.7 32.49V31.49H190.7V32.49H191.7ZM192.87 60.3L192.163 61.0071L192.19 61.0343L192.22 61.0593L192.87 60.3ZM202.86 61.38H203.86V60.38H202.86V61.38ZM202.86 72V73H203.86V72H202.86ZM179.01 32.49H180.01V31.49H179.01V32.49ZM173.07 32.49H172.07V33.49H173.07V32.49ZM173.07 22.14V21.14H172.07V22.14H173.07ZM179.01 22.14V23.14H180.01V22.14H179.01ZM179.01 9.81V8.81H178.01V9.81H179.01ZM191.7 9.81H192.7V8.81H191.7V9.81ZM191.7 22.14H190.7V23.14H191.7V22.14ZM202.86 22.14H203.86V21.14H202.86V22.14ZM202.86 32.49V33.49H203.86V32.49H202.86ZM190.7 32.49V56.61H192.7V32.49H190.7ZM190.7 56.61C190.7 58.419 191.117 59.9613 192.163 61.0071L193.577 59.5929C193.063 59.0787 192.7 58.161 192.7 56.61H190.7ZM192.22 61.0593C193.333 62.0139 195.011 62.38 197.01 62.38V60.38C195.169 60.38 194.087 60.0261 193.521 59.5407L192.22 61.0593ZM197.01 62.38H202.86V60.38H197.01V62.38ZM201.86 61.38V72H203.86V61.38H201.86ZM202.86 71H194.94V73H202.86V71ZM194.94 71C189.777 71 186.09 69.7455 183.69 67.4128C181.295 65.0854 180.01 61.5185 180.01 56.52H178.01C178.01 61.8415 179.381 66.0146 182.296 68.8472C185.205 71.6745 189.483 73 194.94 73V71ZM180.01 56.52V32.49H178.01V56.52H180.01ZM179.01 31.49H173.07V33.49H179.01V31.49ZM174.07 32.49V22.14H172.07V32.49H174.07ZM173.07 23.14H179.01V21.14H173.07V23.14ZM180.01 22.14V9.81H178.01V22.14H180.01ZM179.01 10.81H191.7V8.81H179.01V10.81ZM190.7 9.81V22.14H192.7V9.81H190.7ZM191.7 23.14H202.86V21.14H191.7V23.14ZM201.86 22.14V32.49H203.86V22.14H201.86ZM202.86 31.49H191.7V33.49H202.86V31.49ZM211.653 33.48L210.767 33.0165L210.761 33.0273L211.653 33.48ZM219.843 24.48L219.326 23.6238L219.32 23.6278L219.843 24.48ZM241.173 23.58L240.695 24.4587L240.703 24.4629L241.173 23.58ZM247.923 29.25L247.118 29.8432L248.923 32.2929V29.25H247.923ZM247.923 22.14V21.14H246.923V22.14H247.923ZM260.613 22.14H261.613V21.14H260.613V22.14ZM260.613 72V73H261.613V72H260.613ZM247.923 72H246.923V73H247.923V72ZM247.923 64.71H248.923V61.5087L247.101 64.1408L247.923 64.71ZM241.173 70.56L241.643 71.4429L241.649 71.4393L241.173 70.56ZM219.843 69.57L219.309 70.4155L219.316 70.4196L219.843 69.57ZM211.653 60.48L210.758 60.9272L210.763 60.9354L210.767 60.9435L211.653 60.48ZM246.123 39.24L245.243 39.7155L245.249 39.7256L246.123 39.24ZM241.263 34.2L240.756 35.0619L240.765 35.0675L240.775 35.0729L241.263 34.2ZM228.213 34.11L227.714 33.2434L228.213 34.11ZM223.353 39.15L222.483 38.6564L222.479 38.6644L223.353 39.15ZM223.353 54.81L222.468 55.2757L222.475 55.2898L222.483 55.3036L223.353 54.81ZM228.213 59.94L227.695 60.7953L227.706 60.8019L228.213 59.94ZM241.263 60.03L241.751 60.9029L241.76 60.8975L241.77 60.8919L241.263 60.03ZM246.123 54.99L246.997 55.4757L247.003 55.4655L246.123 54.99ZM209.683 46.89C209.683 41.9833 210.646 37.6724 212.545 33.9327L210.761 33.0273C208.7 37.0875 207.683 41.7167 207.683 46.89H209.683ZM212.539 33.9435C214.504 30.1875 217.115 27.3287 220.366 25.3322L219.32 23.6278C215.731 25.8313 212.882 28.9725 210.767 33.0165L212.539 33.9435ZM220.36 25.3362C223.676 23.3349 227.366 22.33 231.453 22.33V20.33C227.02 20.33 222.97 21.4251 219.326 23.6238L220.36 25.3362ZM231.453 22.33C235.037 22.33 238.107 23.0518 240.695 24.4586L241.65 22.7014C238.719 21.1082 235.309 20.33 231.453 20.33V22.33ZM240.703 24.4629C243.408 25.9016 245.537 27.6982 247.118 29.8432L248.728 28.6568C246.948 26.2418 244.578 24.2584 241.643 22.6971L240.703 24.4629ZM248.923 29.25V22.14H246.923V29.25H248.923ZM247.923 23.14H260.613V21.14H247.923V23.14ZM259.613 22.14V72H261.613V22.14H259.613ZM260.613 71H247.923V73H260.613V71ZM248.923 72V64.71H246.923V72H248.923ZM247.101 64.1408C245.583 66.3335 243.459 68.1842 240.697 69.6807L241.649 71.4393C244.646 69.8158 247.023 67.7665 248.745 65.2792L247.101 64.1408ZM240.703 69.6771C238.05 71.0884 234.946 71.81 231.363 71.81V73.81C235.22 73.81 238.656 73.0316 241.643 71.4429L240.703 69.6771ZM231.363 71.81C227.344 71.81 223.688 70.7795 220.37 68.7204L219.316 70.4196C222.958 72.6805 226.982 73.81 231.363 73.81V71.81ZM220.377 68.7245C217.119 66.6668 214.505 63.7746 212.539 60.0165L210.767 60.9435C212.881 64.9855 215.727 68.1532 219.309 70.4155L220.377 68.7245ZM212.547 60.0328C210.647 56.2313 209.683 51.8584 209.683 46.89H207.683C207.683 52.1216 208.699 56.8087 210.758 60.9272L212.547 60.0328ZM248.923 47.07C248.923 43.8801 248.297 41.0944 246.997 38.7544L245.249 39.7256C246.349 41.7056 246.923 44.1399 246.923 47.07H248.923ZM247.003 38.7645C245.72 36.3914 243.97 34.5671 241.751 33.3271L240.775 35.0729C242.636 36.1129 244.126 37.6486 245.243 39.7155L247.003 38.7645ZM241.77 33.3381C239.578 32.0488 237.213 31.4 234.693 31.4V33.4C236.852 33.4 238.868 33.9512 240.756 35.0619L241.77 33.3381ZM234.693 31.4C232.182 31.4 229.85 32.0138 227.714 33.2434L228.712 34.9766C230.536 33.9262 232.524 33.4 234.693 33.4V31.4ZM227.714 33.2434C225.562 34.4825 223.821 36.2998 222.483 38.6564L224.223 39.6436C225.405 37.5602 226.904 36.0175 228.712 34.9766L227.714 33.2434ZM222.479 38.6644C221.18 41.0016 220.553 43.7562 220.553 46.89H222.553C222.553 44.0238 223.126 41.6184 224.227 39.6356L222.479 38.6644ZM220.553 46.89C220.553 50.0255 221.181 52.8302 222.468 55.2757L224.238 54.3443C223.125 52.2298 222.553 49.7545 222.553 46.89H220.553ZM222.483 55.3036C223.819 57.6566 225.554 59.4978 227.695 60.7952L228.731 59.0848C226.912 57.9822 225.407 56.4034 224.223 54.3164L222.483 55.3036ZM227.706 60.8019C229.893 62.0887 232.228 62.74 234.693 62.74V60.74C232.598 60.74 230.612 60.1913 228.72 59.0781L227.706 60.8019ZM234.693 62.74C237.203 62.74 239.561 62.1264 241.751 60.9029L240.775 59.1571C238.884 60.2136 236.862 60.74 234.693 60.74V62.74ZM241.77 60.8919C243.971 59.5974 245.714 57.7844 246.997 55.4756L245.249 54.5044C244.131 56.5156 242.635 58.0626 240.756 59.1681L241.77 60.8919ZM247.003 55.4655C248.297 53.0715 248.923 50.261 248.923 47.07H246.923C246.923 49.999 246.349 52.4685 245.243 54.5145L247.003 55.4655ZM285.519 5.4H286.519V4.4H285.519V5.4ZM285.519 72V73H286.519V72H285.519ZM272.919 72H271.919V73H272.919V72ZM272.919 5.4V4.4H271.919V5.4H272.919ZM284.519 5.4V72H286.519V5.4H284.519ZM285.519 71H272.919V73H285.519V71ZM273.919 72V5.4H271.919V72H273.919ZM272.919 6.4H285.519V4.4H272.919V6.4ZM349.113 10.26L349.987 9.77435L349.416 8.74566L348.493 9.47566L349.113 10.26ZM353.613 18.36L353.953 19.3004L355.058 18.9011L354.487 17.8744L353.613 18.36ZM341.913 22.59L341.573 21.6496L338.972 22.59L341.573 23.5304L341.913 22.59ZM353.613 26.82L354.486 27.308L355.061 26.28L353.953 25.8796L353.613 26.82ZM348.933 35.19L348.297 35.9617L349.221 36.7234L349.806 35.678L348.933 35.19ZM339.213 27.18L339.849 26.4083L337.788 24.7094L338.227 27.3444L339.213 27.18ZM341.283 39.6V40.6H342.464L342.27 39.4356L341.283 39.6ZM331.923 39.6L330.936 39.4426L330.751 40.6H331.923V39.6ZM333.903 27.18L334.891 27.3374L335.317 24.6651L333.255 26.4182L333.903 27.18ZM324.273 35.37L323.405 35.8671L324.004 36.9117L324.921 36.1318L324.273 35.37ZM319.323 26.73L318.983 25.7896L317.864 26.1943L318.455 27.2271L319.323 26.73ZM331.023 22.5L331.363 23.4404L334.011 22.4832L331.353 21.5558L331.023 22.5ZM319.413 18.45L318.539 17.9652L317.963 19.0033L319.084 19.3942L319.413 18.45ZM324.003 10.17L324.624 9.38638L323.7 8.65376L323.129 9.68516L324.003 10.17ZM333.993 18.09L333.372 18.8736L335.403 20.4837L334.98 17.9268L333.993 18.09ZM331.923 5.58V4.58H330.744L330.937 5.74324L331.923 5.58ZM341.373 5.58L342.359 5.75014L342.561 4.58H341.373V5.58ZM339.213 18.09L338.228 17.9199L337.783 20.4962L339.833 18.8743L339.213 18.09ZM348.239 10.7456L352.739 18.8456L354.487 17.8744L349.987 9.77435L348.239 10.7456ZM353.273 17.4196L341.573 21.6496L342.253 23.5304L353.953 19.3004L353.273 17.4196ZM341.573 23.5304L353.273 27.7604L353.953 25.8796L342.253 21.6496L341.573 23.5304ZM352.74 26.332L348.06 34.702L349.806 35.678L354.486 27.308L352.74 26.332ZM349.569 34.4183L339.849 26.4083L338.577 27.9517L348.297 35.9617L349.569 34.4183ZM338.227 27.3444L340.297 39.7644L342.27 39.4356L340.2 27.0156L338.227 27.3444ZM341.283 38.6H331.923V40.6H341.283V38.6ZM332.911 39.7574L334.891 27.3374L332.916 27.0226L330.936 39.4426L332.911 39.7574ZM333.255 26.4182L323.625 34.6082L324.921 36.1318L334.551 27.9418L333.255 26.4182ZM325.141 34.8729L320.191 26.2329L318.455 27.2271L323.405 35.8671L325.141 34.8729ZM319.663 27.6704L331.363 23.4404L330.683 21.5596L318.983 25.7896L319.663 27.6704ZM331.353 21.5558L319.742 17.5058L319.084 19.3942L330.694 23.4442L331.353 21.5558ZM320.288 18.9348L324.878 10.6548L323.129 9.68516L318.539 17.9652L320.288 18.9348ZM323.382 10.9536L333.372 18.8736L334.614 17.3064L324.624 9.38638L323.382 10.9536ZM334.98 17.9268L332.91 5.41675L330.937 5.74324L333.007 18.2532L334.98 17.9268ZM331.923 6.58H341.373V4.58H331.923V6.58ZM340.388 5.40985L338.228 17.9199L340.199 18.2601L342.359 5.75014L340.388 5.40985ZM339.833 18.8743L349.733 11.0443L348.493 9.47566L338.593 17.3057L339.833 18.8743Z" fill="black" mask="url(#path-1-outside-1_2871_13709)"/>
</g>
</svg>
