<svg width="374" height="98" viewBox="0 0 374 98" fill="none" xmlns="http://www.w3.org/2000/svg">
<g opacity="0.24">
<mask id="path-1-outside-1_2871_13706" maskUnits="userSpaceOnUse" x="0" y="0" width="374" height="98" fill="black">
<rect fill="white" width="374" height="98"/>
<path d="M23.3321 9.18C29.9321 9.18 35.7221 10.47 40.7021 13.05C45.7421 15.63 49.6121 19.32 52.3121 24.12C55.0721 28.86 56.4521 34.38 56.4521 40.68C56.4521 46.98 55.0721 52.5 52.3121 57.24C49.6121 61.92 45.7421 65.55 40.7021 68.13C35.7221 70.71 29.9321 72 23.3321 72H1.37211V9.18H23.3321ZM22.8821 61.29C29.4821 61.29 34.5821 59.49 38.1821 55.89C41.7821 52.29 43.5821 47.22 43.5821 40.68C43.5821 34.14 41.7821 29.04 38.1821 25.38C34.5821 21.66 29.4821 19.8 22.8821 19.8H13.9721V61.29H22.8821ZM112.234 45.99C112.234 47.79 112.114 49.41 111.874 50.85H75.4238C75.7238 54.45 76.9838 57.27 79.2038 59.31C81.4238 61.35 84.1538 62.37 87.3938 62.37C92.0738 62.37 95.4038 60.36 97.3838 56.34H110.974C109.534 61.14 106.774 65.1 102.694 68.22C98.6138 71.28 93.6038 72.81 87.6638 72.81C82.8638 72.81 78.5438 71.76 74.7038 69.66C70.9238 67.5 67.9538 64.47 65.7938 60.57C63.6938 56.67 62.6438 52.17 62.6438 47.07C62.6438 41.91 63.6938 37.38 65.7938 33.48C67.8938 29.58 70.8338 26.58 74.6138 24.48C78.3938 22.38 82.7438 21.33 87.6638 21.33C92.4038 21.33 96.6338 22.35 100.354 24.39C104.134 26.43 107.044 29.34 109.084 33.12C111.184 36.84 112.234 41.13 112.234 45.99ZM99.1838 42.39C99.1238 39.15 97.9538 36.57 95.6738 34.65C93.3938 32.67 90.6038 31.68 87.3038 31.68C84.1838 31.68 81.5438 32.64 79.3838 34.56C77.2838 36.42 75.9938 39.03 75.5138 42.39H99.1838ZM140.511 72.81C136.431 72.81 132.771 72.09 129.531 70.65C126.291 69.15 123.711 67.14 121.791 64.62C119.931 62.1 118.911 59.31 118.731 56.25H131.421C131.661 58.17 132.591 59.76 134.211 61.02C135.891 62.28 137.961 62.91 140.421 62.91C142.821 62.91 144.681 62.43 146.001 61.47C147.381 60.51 148.071 59.28 148.071 57.78C148.071 56.16 147.231 54.96 145.551 54.18C143.931 53.34 141.321 52.44 137.721 51.48C134.001 50.58 130.941 49.65 128.541 48.69C126.201 47.73 124.161 46.26 122.421 44.28C120.741 42.3 119.901 39.63 119.901 36.27C119.901 33.51 120.681 30.99 122.241 28.71C123.861 26.43 126.141 24.63 129.081 23.31C132.081 21.99 135.591 21.33 139.611 21.33C145.551 21.33 150.291 22.83 153.831 25.83C157.371 28.77 159.321 32.76 159.681 37.8H147.621C147.441 35.82 146.601 34.26 145.101 33.12C143.661 31.92 141.711 31.32 139.251 31.32C136.971 31.32 135.201 31.74 133.941 32.58C132.741 33.42 132.141 34.59 132.141 36.09C132.141 37.77 132.981 39.06 134.661 39.96C136.341 40.8 138.951 41.67 142.491 42.57C146.091 43.47 149.061 44.4 151.401 45.36C153.741 46.32 155.751 47.82 157.431 49.86C159.171 51.84 160.071 54.48 160.131 57.78C160.131 60.66 159.321 63.24 157.701 65.52C156.141 67.8 153.861 69.6 150.861 70.92C147.921 72.18 144.471 72.81 140.511 72.81ZM176.864 16.2C174.644 16.2 172.784 15.51 171.284 14.13C169.844 12.69 169.124 10.92 169.124 8.82C169.124 6.72 169.844 4.98 171.284 3.6C172.784 2.16 174.644 1.44 176.864 1.44C179.084 1.44 180.914 2.16 182.354 3.6C183.854 4.98 184.604 6.72 184.604 8.82C184.604 10.92 183.854 12.69 182.354 14.13C180.914 15.51 179.084 16.2 176.864 16.2ZM183.074 22.14V72H170.474V22.14H183.074ZM215.053 21.33C218.773 21.33 222.043 22.08 224.863 23.58C227.683 25.02 229.903 26.91 231.523 29.25V22.14H244.213V72.36C244.213 76.98 243.283 81.09 241.423 84.69C239.563 88.35 236.773 91.23 233.053 93.33C229.333 95.49 224.833 96.57 219.553 96.57C212.473 96.57 206.653 94.92 202.093 91.62C197.593 88.32 195.043 83.82 194.443 78.12H206.953C207.613 80.4 209.023 82.2 211.183 83.52C213.403 84.9 216.073 85.59 219.193 85.59C222.853 85.59 225.823 84.48 228.103 82.26C230.383 80.1 231.523 76.8 231.523 72.36V64.62C229.903 66.96 227.653 68.91 224.773 70.47C221.953 72.03 218.713 72.81 215.053 72.81C210.853 72.81 207.013 71.73 203.533 69.57C200.053 67.41 197.293 64.38 195.252 60.48C193.272 56.52 192.282 51.99 192.282 46.89C192.282 41.85 193.272 37.38 195.252 33.48C197.293 29.58 200.023 26.58 203.443 24.48C206.923 22.38 210.793 21.33 215.053 21.33ZM231.523 47.07C231.523 44.01 230.923 41.4 229.723 39.24C228.523 37.02 226.903 35.34 224.863 34.2C222.823 33 220.633 32.4 218.293 32.4C215.953 32.4 213.793 32.97 211.812 34.11C209.833 35.25 208.213 36.93 206.953 39.15C205.753 41.31 205.153 43.89 205.153 46.89C205.153 49.89 205.753 52.53 206.953 54.81C208.213 57.03 209.833 58.74 211.812 59.94C213.853 61.14 216.013 61.74 218.293 61.74C220.633 61.74 222.823 61.17 224.863 60.03C226.903 58.83 228.523 57.15 229.723 54.99C230.923 52.77 231.523 50.13 231.523 47.07ZM284.149 21.42C290.089 21.42 294.889 23.31 298.549 27.09C302.209 30.81 304.039 36.03 304.039 42.75V72H291.439V44.46C291.439 40.5 290.449 37.47 288.469 35.37C286.489 33.21 283.789 32.13 280.369 32.13C276.889 32.13 274.129 33.21 272.089 35.37C270.109 37.47 269.119 40.5 269.119 44.46V72H256.519V22.14H269.119V28.35C270.799 26.19 272.929 24.51 275.509 23.31C278.149 22.05 281.029 21.42 284.149 21.42ZM367.166 10.26L371.666 18.36L359.966 22.59L371.666 26.82L366.986 35.19L357.266 27.18L359.336 39.6H349.976L351.956 27.18L342.326 35.37L337.376 26.73L349.076 22.5L337.466 18.45L342.056 10.17L352.046 18.09L349.976 5.58H359.426L357.266 18.09L367.166 10.26Z"/>
</mask>
<path d="M40.7021 13.05L40.2421 13.9379L40.2464 13.9401L40.7021 13.05ZM52.3121 24.12L51.4405 24.6103L51.4442 24.6168L51.4479 24.6232L52.3121 24.12ZM52.3121 57.24L51.4479 56.7368L51.4459 56.7403L52.3121 57.24ZM40.7021 68.13L40.2464 67.2398L40.2421 67.2421L40.7021 68.13ZM1.37211 72H0.37211V73H1.37211V72ZM1.37211 9.18V8.18H0.37211V9.18H1.37211ZM38.1821 55.89L37.475 55.1829L38.1821 55.89ZM38.1821 25.38L37.4635 26.0754L37.4692 26.0812L38.1821 25.38ZM13.9721 19.8V18.8H12.9721V19.8H13.9721ZM13.9721 61.29H12.9721V62.29H13.9721V61.29ZM23.3321 10.18C29.8003 10.18 35.4274 11.4435 40.2421 13.9379L41.1621 12.1621C36.0168 9.49646 30.064 8.18 23.3321 8.18V10.18ZM40.2464 13.9401C45.1167 16.4333 48.8397 19.9865 51.4405 24.6103L53.1837 23.6297C50.3845 18.6534 46.3675 14.8267 41.1578 12.1598L40.2464 13.9401ZM51.4479 24.6232C54.1065 29.1889 55.4521 34.5301 55.4521 40.68H57.4521C57.4521 34.2299 56.0378 28.5311 53.1763 23.6168L51.4479 24.6232ZM55.4521 40.68C55.4521 46.8299 54.1065 52.1711 51.4479 56.7368L53.1763 57.7432C56.0378 52.8289 57.4521 47.1301 57.4521 40.68H55.4521ZM51.4459 56.7403C48.847 61.2451 45.1235 64.7433 40.2464 67.2399L41.1578 69.0201C46.3607 66.3567 50.3772 62.5949 53.1783 57.7397L51.4459 56.7403ZM40.2421 67.2421C35.4274 69.7365 29.8003 71 23.3321 71V73C30.064 73 36.0168 71.6835 41.1621 69.0179L40.2421 67.2421ZM23.3321 71H1.37211V73H23.3321V71ZM2.37211 72V9.18H0.37211V72H2.37211ZM1.37211 10.18H23.3321V8.18H1.37211V10.18ZM22.8821 62.29C29.6653 62.29 35.0507 60.4356 38.8892 56.5971L37.475 55.1829C34.1135 58.5444 29.2989 60.29 22.8821 60.29V62.29ZM38.8892 56.5971C42.7261 52.7603 44.5821 47.4062 44.5821 40.68H42.5821C42.5821 47.0338 40.8382 51.8197 37.475 55.1829L38.8892 56.5971ZM44.5821 40.68C44.5821 33.9529 42.7258 28.5733 38.895 24.6788L37.4692 26.0812C40.8384 29.5067 42.5821 34.3271 42.5821 40.68H44.5821ZM38.9007 24.6846C35.0639 20.7199 29.6745 18.8 22.8821 18.8V20.8C29.2898 20.8 34.1003 22.6001 37.4635 26.0754L38.9007 24.6846ZM22.8821 18.8H13.9721V20.8H22.8821V18.8ZM12.9721 19.8V61.29H14.9721V19.8H12.9721ZM13.9721 62.29H22.8821V60.29H13.9721V62.29ZM111.874 50.85V51.85H112.721L112.86 51.0144L111.874 50.85ZM75.4238 50.85V49.85H74.337L74.4273 50.933L75.4238 50.85ZM79.2038 59.31L78.5272 60.0463L79.2038 59.31ZM97.3838 56.34V55.34H96.7617L96.4867 55.8981L97.3838 56.34ZM110.974 56.34L111.932 56.6273L112.318 55.34H110.974V56.34ZM102.694 68.22L103.294 69.02L103.301 69.0144L102.694 68.22ZM74.7038 69.66L74.2077 70.5282L74.2158 70.5329L74.224 70.5374L74.7038 69.66ZM65.7938 60.57L64.9133 61.0441L64.919 61.0545L65.7938 60.57ZM65.7938 33.48L64.9134 33.0059L65.7938 33.48ZM74.6138 24.48L75.0995 25.3542L74.6138 24.48ZM100.354 24.39L99.873 25.2668L99.8789 25.27L100.354 24.39ZM109.084 33.12L108.204 33.5949L108.208 33.6033L108.213 33.6116L109.084 33.12ZM99.1838 42.39V43.39H100.203L100.184 42.3715L99.1838 42.39ZM95.6738 34.65L95.0181 35.405L95.0239 35.41L95.0297 35.4149L95.6738 34.65ZM79.3838 34.56L80.0469 35.3086L80.0482 35.3074L79.3838 34.56ZM75.5138 42.39L74.5239 42.2486L74.3608 43.39H75.5138V42.39ZM111.234 45.99C111.234 47.7471 111.117 49.3107 110.887 50.6856L112.86 51.0144C113.111 49.5093 113.234 47.8329 113.234 45.99H111.234ZM111.874 49.85H75.4238V51.85H111.874V49.85ZM74.4273 50.933C74.7438 54.7308 76.0869 57.8039 78.5272 60.0463L79.8805 58.5737C77.8807 56.7361 76.7039 54.1692 76.4204 50.767L74.4273 50.933ZM78.5272 60.0463C80.9462 62.2692 83.9236 63.37 87.3938 63.37V61.37C84.384 61.37 81.9014 60.4308 79.8805 58.5737L78.5272 60.0463ZM87.3938 63.37C89.8788 63.37 92.0681 62.8353 93.9181 61.7186C95.7706 60.6004 97.2195 58.9368 98.2809 56.7819L96.4867 55.8981C95.5681 57.7632 94.362 59.1146 92.8846 60.0064C91.4045 60.8997 89.5889 61.37 87.3938 61.37V63.37ZM97.3838 57.34H110.974V55.34H97.3838V57.34ZM110.016 56.0527C108.638 60.6457 106.004 64.4301 102.086 67.4256L103.301 69.0144C107.544 65.7699 110.43 61.6343 111.932 56.6273L110.016 56.0527ZM102.094 67.42C98.2143 70.3296 93.4244 71.81 87.6638 71.81V73.81C93.7832 73.81 99.0133 72.2304 103.294 69.02L102.094 67.42ZM87.6638 71.81C83.0149 71.81 78.8626 70.7946 75.1836 68.7826L74.224 70.5374C78.225 72.7254 82.7127 73.81 87.6638 73.81V71.81ZM75.2 68.7918C71.5829 66.7249 68.7422 63.8294 66.6686 60.0855L64.919 61.0545C67.1655 65.1106 70.2648 68.2751 74.2077 70.5282L75.2 68.7918ZM66.6743 60.0959C64.6639 56.3623 63.6438 52.0298 63.6438 47.07H61.6438C61.6438 52.3102 62.7237 56.9777 64.9134 61.0441L66.6743 60.0959ZM63.6438 47.07C63.6438 42.0481 64.6648 37.686 66.6743 33.9541L64.9134 33.0059C62.7229 37.074 61.6438 41.7719 61.6438 47.07H63.6438ZM66.6743 33.9541C68.686 30.2181 71.4909 27.3589 75.0995 25.3542L74.1282 23.6058C70.1768 25.8011 67.1017 28.9419 64.9134 33.0059L66.6743 33.9541ZM75.0995 25.3542C78.7115 23.3475 82.89 22.33 87.6638 22.33V20.33C82.5976 20.33 78.0762 21.4125 74.1282 23.6058L75.0995 25.3542ZM87.6638 22.33C92.2558 22.33 96.317 23.3168 99.873 25.2668L100.835 23.5132C96.9506 21.3832 92.5518 20.33 87.6638 20.33V22.33ZM99.8789 25.27C103.487 27.2174 106.256 29.9866 108.204 33.5949L109.964 32.6451C107.831 28.6934 104.78 25.6426 100.829 23.51L99.8789 25.27ZM108.213 33.6116C110.217 37.1619 111.234 41.2782 111.234 45.99H113.234C113.234 40.9818 112.15 36.5181 109.955 32.6284L108.213 33.6116ZM100.184 42.3715C100.119 38.8714 98.8394 36.0084 96.318 33.8851L95.0297 35.4149C97.0682 37.1316 98.1288 39.4286 98.184 42.4085L100.184 42.3715ZM96.3295 33.895C93.8502 31.7419 90.8207 30.68 87.3038 30.68V32.68C90.387 32.68 92.9375 33.5981 95.0181 35.405L96.3295 33.895ZM87.3038 30.68C83.9601 30.68 81.0777 31.7164 78.7195 33.8126L80.0482 35.3074C82.0099 33.5636 84.4076 32.68 87.3038 32.68V30.68ZM78.7208 33.8114C76.408 35.8599 75.0301 38.7052 74.5239 42.2486L76.5038 42.5314C76.9576 39.3548 78.1597 36.9801 80.0469 35.3086L78.7208 33.8114ZM75.5138 43.39H99.1838V41.39H75.5138V43.39ZM129.531 70.65L129.111 71.5575L129.118 71.5607L129.125 71.5638L129.531 70.65ZM121.791 64.62L120.986 65.2139L120.991 65.22L120.995 65.226L121.791 64.62ZM118.731 56.25V55.25H117.67L117.732 56.3087L118.731 56.25ZM131.421 56.25L132.413 56.126L132.303 55.25H131.421V56.25ZM134.211 61.02L133.597 61.8093L133.604 61.8147L133.611 61.82L134.211 61.02ZM146.001 61.47L145.43 60.6491L145.421 60.6551L145.413 60.6613L146.001 61.47ZM145.551 54.18L145.09 55.0678L145.11 55.0778L145.13 55.087L145.551 54.18ZM137.721 51.48L137.978 50.5138L137.967 50.5108L137.956 50.508L137.721 51.48ZM128.541 48.69L128.161 49.6152L128.169 49.6185L128.541 48.69ZM122.421 44.28L121.658 44.927L121.664 44.9336L121.67 44.9401L122.421 44.28ZM122.241 28.71L121.426 28.1308L121.42 28.138L121.415 28.1453L122.241 28.71ZM129.081 23.31L128.678 22.3947L128.671 22.3977L129.081 23.31ZM153.831 25.83L153.184 26.5929L153.192 26.5993L153.831 25.83ZM159.681 37.8V38.8H160.755L160.678 37.7288L159.681 37.8ZM147.621 37.8L146.625 37.8905L146.707 38.8H147.621V37.8ZM145.101 33.12L144.461 33.8882L144.478 33.9026L144.496 33.9162L145.101 33.12ZM133.941 32.58L133.386 31.7479L133.377 31.7542L133.367 31.7608L133.941 32.58ZM134.661 39.96L134.188 40.8415L134.201 40.8481L134.213 40.8544L134.661 39.96ZM142.491 42.57L142.244 43.5392L142.248 43.5401L142.491 42.57ZM157.431 49.86L156.659 50.4957L156.669 50.5081L156.68 50.5201L157.431 49.86ZM160.131 57.78H161.131V57.7709L161.131 57.7618L160.131 57.78ZM157.701 65.52L156.886 64.9408L156.88 64.948L156.875 64.9553L157.701 65.52ZM150.861 70.92L151.255 71.8392L151.263 71.8353L150.861 70.92ZM140.511 71.81C136.55 71.81 133.031 71.1114 129.937 69.7362L129.125 71.5638C132.51 73.0686 136.312 73.81 140.511 73.81V71.81ZM129.951 69.7425C126.84 68.3022 124.395 66.3887 122.586 64.014L120.995 65.226C123.026 67.8913 125.742 69.9978 129.111 71.5575L129.951 69.7425ZM122.595 64.0261C120.848 61.6584 119.897 59.0535 119.729 56.1913L117.732 56.3087C117.924 59.5665 119.014 62.5416 120.986 65.2139L122.595 64.0261ZM118.731 57.25H131.421V55.25H118.731V57.25ZM130.428 56.374C130.703 58.5744 131.782 60.3975 133.597 61.8093L134.825 60.2306C133.4 59.1225 132.618 57.7656 132.413 56.126L130.428 56.374ZM133.611 61.82C135.492 63.2311 137.783 63.91 140.421 63.91V61.91C138.139 61.91 136.289 61.3289 134.811 60.22L133.611 61.82ZM140.421 63.91C142.937 63.91 145.035 63.4092 146.589 62.2787L145.413 60.6613C144.327 61.4508 142.704 61.91 140.421 61.91V63.91ZM146.572 62.2909C148.183 61.1702 149.071 59.6508 149.071 57.78H147.071C147.071 58.9092 146.579 59.8498 145.43 60.6491L146.572 62.2909ZM149.071 57.78C149.071 56.7876 148.81 55.8773 148.26 55.0915C147.716 54.3138 146.93 53.7178 145.972 53.273L145.13 55.087C145.851 55.4221 146.326 55.8162 146.621 56.2385C146.911 56.6527 147.071 57.1524 147.071 57.78H149.071ZM146.011 53.2922C144.29 52.3997 141.592 51.4773 137.978 50.5138L137.463 52.4462C141.05 53.4027 143.572 54.2803 145.09 55.0678L146.011 53.2922ZM137.956 50.508C134.262 49.6145 131.252 48.6976 128.912 47.7615L128.169 49.6185C130.629 50.6024 133.739 51.5455 137.486 52.452L137.956 50.508ZM128.92 47.7648C126.729 46.8658 124.815 45.4891 123.172 43.6199L121.67 44.9401C123.507 47.0309 125.672 48.5942 128.161 49.6152L128.92 47.7648ZM123.183 43.633C121.697 41.8814 120.901 39.464 120.901 36.27H118.901C118.901 39.796 119.784 42.7186 121.658 44.927L123.183 43.633ZM120.901 36.27C120.901 33.7117 121.62 31.3885 123.066 29.2747L121.415 28.1453C119.742 30.5915 118.901 33.3083 118.901 36.27H120.901ZM123.056 29.2892C124.558 27.1753 126.688 25.4806 129.49 24.2223L128.671 22.3977C125.594 23.7794 123.163 25.6847 121.426 28.1308L123.056 29.2892ZM129.483 24.2253C132.331 22.9723 135.699 22.33 139.611 22.33V20.33C135.483 20.33 131.83 21.0077 128.678 22.3947L129.483 24.2253ZM139.611 22.33C145.382 22.33 149.871 23.7848 153.184 26.5929L154.477 25.0671C150.711 21.8752 145.72 20.33 139.611 20.33V22.33ZM153.192 26.5993C156.5 29.3472 158.341 33.0736 158.683 37.8712L160.678 37.7288C160.301 32.4464 158.241 28.1928 154.47 25.0607L153.192 26.5993ZM159.681 36.8H147.621V38.8H159.681V36.8ZM148.617 37.7095C148.413 35.4672 147.443 33.6441 145.706 32.3238L144.496 33.9162C145.758 34.8759 146.469 36.1728 146.625 37.8905L148.617 37.7095ZM145.741 32.3518C144.072 30.9607 141.871 30.32 139.251 30.32V32.32C141.551 32.32 143.25 32.8793 144.461 33.8882L145.741 32.3518ZM139.251 30.32C136.867 30.32 134.874 30.7561 133.386 31.7479L134.495 33.412C135.528 32.7239 137.075 32.32 139.251 32.32V30.32ZM133.367 31.7608C131.892 32.7932 131.141 34.273 131.141 36.09H133.141C133.141 34.907 133.589 34.0468 134.514 33.3992L133.367 31.7608ZM131.141 36.09C131.141 37.1053 131.397 38.041 131.933 38.8632C132.464 39.6788 133.235 40.3307 134.188 40.8415L135.133 39.0785C134.406 38.6893 133.918 38.2462 133.609 37.7718C133.304 37.304 133.141 36.7547 133.141 36.09H131.141ZM134.213 40.8544C135.992 41.7439 138.687 42.6348 142.244 43.5392L142.737 41.6008C139.214 40.7052 136.689 39.8561 135.108 39.0656L134.213 40.8544ZM142.248 43.5401C145.821 44.4333 148.741 45.3497 151.021 46.2852L151.78 44.4348C149.38 43.4503 146.361 42.5067 142.733 41.5999L142.248 43.5401ZM151.021 46.2852C153.202 47.1797 155.079 48.5772 156.659 50.4957L158.203 49.2243C156.423 47.0628 154.28 45.4603 151.78 44.4348L151.021 46.2852ZM156.68 50.5201C158.227 52.281 159.074 54.6734 159.131 57.7982L161.131 57.7618C161.067 54.2866 160.114 51.399 158.182 49.1999L156.68 50.5201ZM159.131 57.78C159.131 60.459 158.382 62.8353 156.886 64.9408L158.516 66.0992C160.26 63.6447 161.131 60.861 161.131 57.78H159.131ZM156.875 64.9553C155.439 67.0546 153.319 68.7457 150.458 70.0047L151.263 71.8353C154.402 70.4543 156.842 68.5454 158.526 66.0847L156.875 64.9553ZM150.467 70.0009C147.677 71.1964 144.367 71.81 140.511 71.81V73.81C144.575 73.81 148.164 73.1636 151.255 71.8391L150.467 70.0009ZM171.284 14.13L170.577 14.8371L170.591 14.8518L170.607 14.8659L171.284 14.13ZM171.284 3.59999L171.976 4.32198L171.976 4.32138L171.284 3.59999ZM182.354 3.59999L181.647 4.3071L181.661 4.32183L181.677 4.33593L182.354 3.59999ZM182.354 14.13L183.046 14.852L183.046 14.8514L182.354 14.13ZM183.074 22.14H184.074V21.14H183.074V22.14ZM183.074 72V73H184.074V72H183.074ZM170.474 72H169.474V73H170.474V72ZM170.474 22.14V21.14H169.474V22.14H170.474ZM176.864 15.2C174.87 15.2 173.259 14.5885 171.961 13.3941L170.607 14.8659C172.308 16.4315 174.417 17.2 176.864 17.2V15.2ZM171.991 13.4229C170.745 12.1769 170.124 10.664 170.124 8.82H168.124C168.124 11.176 168.943 13.2031 170.577 14.8371L171.991 13.4229ZM170.124 8.82C170.124 6.97645 170.744 5.50249 171.976 4.32198L170.592 2.87801C168.944 4.4575 168.124 6.46355 168.124 8.82H170.124ZM171.976 4.32138C173.277 3.07305 174.883 2.44 176.864 2.44V0.439997C174.405 0.439997 172.291 1.24694 170.591 2.87861L171.976 4.32138ZM176.864 2.44C178.845 2.44 180.412 3.07247 181.647 4.3071L183.061 2.89289C181.415 1.24752 179.323 0.439997 176.864 0.439997V2.44ZM181.677 4.33593C182.964 5.52016 183.604 6.99007 183.604 8.82H185.604C185.604 6.44993 184.744 4.43983 183.031 2.86407L181.677 4.33593ZM183.604 8.82C183.604 10.6508 182.963 12.1593 181.661 13.4086L183.046 14.8514C184.745 13.2207 185.604 11.1892 185.604 8.82H183.604ZM181.662 13.408C180.43 14.5888 178.858 15.2 176.864 15.2V17.2C179.31 17.2 181.398 16.4312 183.046 14.852L181.662 13.408ZM182.074 22.14V72H184.074V22.14H182.074ZM183.074 71H170.474V73H183.074V71ZM171.474 72V22.14H169.474V72H171.474ZM170.474 23.14H183.074V21.14H170.474V23.14ZM224.863 23.58L224.393 24.4629L224.4 24.4668L224.408 24.4706L224.863 23.58ZM231.523 29.25L230.7 29.8192L232.523 32.4513V29.25H231.523ZM231.523 22.14V21.14H230.523V22.14H231.523ZM244.212 22.14H245.212V21.14H244.212V22.14ZM241.423 84.69L240.534 84.231L240.531 84.237L241.423 84.69ZM233.053 93.33L232.561 92.4591L232.55 92.4652L233.053 93.33ZM202.092 91.62L201.501 92.4264L201.506 92.4301L202.092 91.62ZM194.443 78.12V77.12H193.332L193.448 78.2247L194.443 78.12ZM206.952 78.12L207.913 77.8419L207.704 77.12H206.952V78.12ZM211.182 83.52L211.71 82.6707L211.704 82.6667L211.182 83.52ZM228.103 82.26L227.415 81.534L227.405 81.5435L228.103 82.26ZM231.523 64.62H232.523V61.4187L230.7 64.0508L231.523 64.62ZM224.773 70.47L224.296 69.5907L224.288 69.595L224.773 70.47ZM203.533 69.57L204.06 68.7204L203.533 69.57ZM195.253 60.48L194.358 60.9272L194.362 60.9354L194.366 60.9435L195.253 60.48ZM195.253 33.48L194.366 33.0165L194.361 33.0273L195.253 33.48ZM203.443 24.48L202.926 23.6238L202.919 23.6278L203.443 24.48ZM229.723 39.24L228.843 39.7155L228.848 39.7256L229.723 39.24ZM224.863 34.2L224.355 35.0619L224.365 35.0675L224.375 35.0729L224.863 34.2ZM211.812 34.11L211.314 33.2434L211.812 34.11ZM206.952 39.15L206.083 38.6564L206.078 38.6644L206.952 39.15ZM206.952 54.81L206.068 55.2757L206.075 55.2898L206.083 55.3036L206.952 54.81ZM211.812 59.94L211.294 60.7953L211.305 60.8019L211.812 59.94ZM224.863 60.03L225.35 60.9029L225.36 60.8975L225.37 60.8919L224.863 60.03ZM229.723 54.99L230.597 55.4757L230.602 55.4655L229.723 54.99ZM215.053 22.33C218.636 22.33 221.74 23.0516 224.393 24.4629L225.332 22.6971C222.345 21.1084 218.909 20.33 215.053 20.33V22.33ZM224.408 24.4706C227.097 25.8441 229.185 27.6298 230.7 29.8192L232.345 28.6808C230.62 26.1902 228.268 24.1959 225.317 22.6894L224.408 24.4706ZM232.523 29.25V22.14H230.523V29.25H232.523ZM231.523 23.14H244.212V21.14H231.523V23.14ZM243.212 22.14V72.36H245.212V22.14H243.212ZM243.212 72.36C243.212 76.8428 242.311 80.7916 240.534 84.231L242.311 85.149C244.254 81.3884 245.212 77.1172 245.212 72.36H243.212ZM240.531 84.237C238.764 87.714 236.117 90.4519 232.561 92.4592L233.544 94.2008C237.428 92.0081 240.361 88.986 242.314 85.1431L240.531 84.237ZM232.55 92.4652C229.014 94.5186 224.696 95.57 219.553 95.57V97.57C224.969 97.57 229.651 96.4614 233.555 94.1948L232.55 92.4652ZM219.553 95.57C212.628 95.57 207.029 93.9578 202.679 90.8099L201.506 92.4301C206.276 95.8822 212.317 97.57 219.553 97.57V95.57ZM202.684 90.8136C198.418 87.6853 196.008 83.4437 195.437 78.0153L193.448 78.2247C194.077 84.1963 196.767 88.9547 201.501 92.4264L202.684 90.8136ZM194.443 79.12H206.952V77.12H194.443V79.12ZM205.992 78.3981C206.726 80.9348 208.303 82.9325 210.661 84.3733L211.704 82.6667C209.742 81.4675 208.499 79.8652 207.913 77.8419L205.992 78.3981ZM210.655 84.3693C213.061 85.8654 215.922 86.59 219.193 86.59V84.59C216.223 84.59 213.744 83.9346 211.71 82.6707L210.655 84.3693ZM219.193 86.59C223.071 86.59 226.305 85.4058 228.8 82.9765L227.405 81.5435C225.34 83.5542 222.634 84.59 219.193 84.59V86.59ZM228.79 82.986C231.34 80.57 232.523 76.9587 232.523 72.36H230.523C230.523 76.6413 229.425 79.63 227.415 81.534L228.79 82.986ZM232.523 72.36V64.62H230.523V72.36H232.523ZM230.7 64.0508C229.182 66.2435 227.059 68.0942 224.296 69.5907L225.249 71.3493C228.246 69.7258 230.623 67.6765 232.345 65.1892L230.7 64.0508ZM224.288 69.595C221.636 71.0624 218.566 71.81 215.053 71.81V73.81C218.859 73.81 222.269 72.9976 225.257 71.345L224.288 69.595ZM215.053 71.81C211.034 71.81 207.377 70.7795 204.06 68.7204L203.005 70.4196C206.648 72.6805 210.671 73.81 215.053 73.81V71.81ZM204.06 68.7204C200.743 66.6617 198.102 63.7703 196.139 60.0165L194.366 60.9435C196.483 64.9897 199.362 68.1583 203.005 70.4196L204.06 68.7204ZM196.147 60.0328C194.246 56.2313 193.283 51.8584 193.283 46.89H191.283C191.283 52.1216 192.299 56.8087 194.358 60.9272L196.147 60.0328ZM193.283 46.89C193.283 41.9833 194.246 37.6724 196.144 33.9327L194.361 33.0273C192.299 37.0875 191.283 41.7167 191.283 46.89H193.283ZM196.139 33.9435C198.103 30.1875 200.714 27.3287 203.966 25.3322L202.919 23.6278C199.331 25.8313 196.482 28.9725 194.366 33.0165L196.139 33.9435ZM203.959 25.3362C207.276 23.3349 210.965 22.33 215.053 22.33V20.33C210.62 20.33 206.569 21.4251 202.926 23.6238L203.959 25.3362ZM232.523 47.07C232.523 43.8801 231.897 41.0944 230.597 38.7544L228.848 39.7256C229.948 41.7056 230.523 44.1399 230.523 47.07H232.523ZM230.602 38.7645C229.319 36.3914 227.569 34.5671 225.35 33.3271L224.375 35.0729C226.236 36.1129 227.726 37.6486 228.843 39.7155L230.602 38.7645ZM225.37 33.3381C223.178 32.0488 220.813 31.4 218.292 31.4V33.4C220.452 33.4 222.467 33.9512 224.355 35.0619L225.37 33.3381ZM218.292 31.4C215.782 31.4 213.449 32.0138 211.314 33.2434L212.311 34.9766C214.136 33.9262 216.123 33.4 218.292 33.4V31.4ZM211.314 33.2434C209.161 34.4825 207.42 36.2998 206.083 38.6564L207.822 39.6436C209.005 37.5602 210.504 36.0175 212.311 34.9766L211.314 33.2434ZM206.078 38.6644C204.78 41.0016 204.152 43.7562 204.152 46.89H206.152C206.152 44.0238 206.725 41.6184 207.827 39.6356L206.078 38.6644ZM204.152 46.89C204.152 50.0255 204.78 52.8302 206.068 55.2757L207.837 54.3443C206.725 52.2298 206.152 49.7545 206.152 46.89H204.152ZM206.083 55.3036C207.418 57.6566 209.154 59.4978 211.294 60.7952L212.331 59.0848C210.511 57.9822 209.007 56.4034 207.822 54.3164L206.083 55.3036ZM211.305 60.8019C213.493 62.0887 215.827 62.74 218.292 62.74V60.74C216.198 60.74 214.212 60.1913 212.32 59.0781L211.305 60.8019ZM218.292 62.74C220.803 62.74 223.161 62.1264 225.35 60.9029L224.375 59.1571C222.484 60.2136 220.462 60.74 218.292 60.74V62.74ZM225.37 60.8919C227.57 59.5974 229.314 57.7844 230.597 55.4756L228.848 54.5044C227.731 56.5156 226.235 58.0626 224.355 59.1681L225.37 60.8919ZM230.602 55.4655C231.896 53.0715 232.523 50.261 232.523 47.07H230.523C230.523 49.999 229.949 52.4685 228.843 54.5145L230.602 55.4655ZM298.549 27.09L297.83 27.7856L297.836 27.7913L298.549 27.09ZM304.039 72V73H305.039V72H304.039ZM291.439 72H290.439V73H291.439V72ZM288.469 35.37L287.731 36.0458L287.741 36.056L288.469 35.37ZM272.089 35.37L271.362 34.6834L271.361 34.684L272.089 35.37ZM269.119 72V73H270.119V72H269.119ZM256.519 72H255.519V73H256.519V72ZM256.519 22.14V21.14H255.519V22.14H256.519ZM269.119 22.14H270.119V21.14H269.119V22.14ZM269.119 28.35H268.119V31.2645L269.908 28.9639L269.119 28.35ZM275.509 23.31L275.93 24.2168L275.939 24.2125L275.509 23.31ZM284.149 22.42C289.856 22.42 294.384 24.226 297.83 27.7856L299.267 26.3944C295.394 22.394 290.321 20.42 284.149 20.42V22.42ZM297.836 27.7913C301.263 31.2748 303.039 36.2137 303.039 42.75H305.039C305.039 35.8463 303.154 30.3452 299.261 26.3887L297.836 27.7913ZM303.039 42.75V72H305.039V42.75H303.039ZM304.039 71H291.439V73H304.039V71ZM292.439 72V44.46H290.439V72H292.439ZM292.439 44.46C292.439 40.3411 291.408 37.0294 289.196 34.684L287.741 36.056C289.49 37.9106 290.439 40.6589 290.439 44.46H292.439ZM289.206 34.6943C287.004 32.2926 284.018 31.13 280.369 31.13V33.13C283.56 33.13 285.973 34.1274 287.731 36.0457L289.206 34.6943ZM280.369 31.13C276.665 31.13 273.623 32.2889 271.362 34.6834L272.816 36.0566C274.634 34.1311 277.112 33.13 280.369 33.13V31.13ZM271.361 34.684C269.15 37.0294 268.119 40.3411 268.119 44.46H270.119C270.119 40.6589 271.068 37.9106 272.816 36.056L271.361 34.684ZM268.119 44.46V72H270.119V44.46H268.119ZM269.119 71H256.519V73H269.119V71ZM257.519 72V22.14H255.519V72H257.519ZM256.519 23.14H269.119V21.14H256.519V23.14ZM268.119 22.14V28.35H270.119V22.14H268.119ZM269.908 28.9639C271.486 26.9344 273.488 25.3525 275.93 24.2167L275.087 22.4033C272.369 23.6675 270.111 25.4456 268.329 27.7361L269.908 28.9639ZM275.939 24.2125C278.436 23.0209 281.168 22.42 284.149 22.42V20.42C280.89 20.42 277.861 21.0791 275.078 22.4075L275.939 24.2125ZM367.166 10.26L368.04 9.77435L367.469 8.74566L366.546 9.47566L367.166 10.26ZM371.666 18.36L372.006 19.3004L373.11 18.9011L372.54 17.8744L371.666 18.36ZM359.966 22.59L359.626 21.6496L357.025 22.59L359.626 23.5304L359.966 22.59ZM371.666 26.82L372.539 27.308L373.113 26.28L372.006 25.8796L371.666 26.82ZM366.986 35.19L366.35 35.9617L367.274 36.7234L367.859 35.678L366.986 35.19ZM357.266 27.18L357.902 26.4083L355.84 24.7094L356.279 27.3444L357.266 27.18ZM359.336 39.6V40.6H360.516L360.322 39.4356L359.336 39.6ZM349.976 39.6L348.988 39.4426L348.804 40.6H349.976V39.6ZM351.956 27.18L352.943 27.3374L353.369 24.6651L351.308 26.4182L351.956 27.18ZM342.326 35.37L341.458 35.8671L342.057 36.9117L342.974 36.1318L342.326 35.37ZM337.376 26.73L337.036 25.7896L335.916 26.1943L336.508 27.2271L337.376 26.73ZM349.076 22.5L349.416 23.4404L352.064 22.4832L349.405 21.5558L349.076 22.5ZM337.466 18.45L336.591 17.9652L336.016 19.0033L337.136 19.3942L337.466 18.45ZM342.056 10.17L342.677 9.38638L341.753 8.65376L341.181 9.68516L342.056 10.17ZM352.046 18.09L351.425 18.8736L353.456 20.4837L353.032 17.9268L352.046 18.09ZM349.976 5.58V4.58H348.797L348.989 5.74324L349.976 5.58ZM359.426 5.58L360.411 5.75014L360.613 4.58H359.426V5.58ZM357.266 18.09L356.28 17.9199L355.836 20.4962L357.886 18.8743L357.266 18.09ZM366.292 10.7456L370.792 18.8456L372.54 17.8744L368.04 9.77435L366.292 10.7456ZM371.326 17.4196L359.626 21.6496L360.306 23.5304L372.006 19.3004L371.326 17.4196ZM359.626 23.5304L371.326 27.7604L372.006 25.8796L360.306 21.6496L359.626 23.5304ZM370.793 26.332L366.113 34.702L367.859 35.678L372.539 27.308L370.793 26.332ZM367.622 34.4183L357.902 26.4083L356.63 27.9517L366.35 35.9617L367.622 34.4183ZM356.279 27.3444L358.349 39.7644L360.322 39.4356L358.252 27.0156L356.279 27.3444ZM359.336 38.6H349.976V40.6H359.336V38.6ZM350.963 39.7574L352.943 27.3374L350.968 27.0226L348.988 39.4426L350.963 39.7574ZM351.308 26.4182L341.678 34.6082L342.974 36.1318L352.604 27.9418L351.308 26.4182ZM343.194 34.8729L338.244 26.2329L336.508 27.2271L341.458 35.8671L343.194 34.8729ZM337.716 27.6704L349.416 23.4404L348.736 21.5596L337.036 25.7896L337.716 27.6704ZM349.405 21.5558L337.795 17.5058L337.136 19.3942L348.746 23.4442L349.405 21.5558ZM338.34 18.9348L342.93 10.6548L341.181 9.68516L336.591 17.9652L338.34 18.9348ZM341.435 10.9536L351.425 18.8736L352.667 17.3064L342.677 9.38638L341.435 10.9536ZM353.032 17.9268L350.962 5.41675L348.989 5.74324L351.059 18.2532L353.032 17.9268ZM349.976 6.58H359.426V4.58H349.976V6.58ZM358.44 5.40985L356.28 17.9199L358.251 18.2601L360.411 5.75014L358.44 5.40985ZM357.886 18.8743L367.786 11.0443L366.546 9.47566L356.646 17.3057L357.886 18.8743Z" fill="black" mask="url(#path-1-outside-1_2871_13706)"/>
</g>
</svg>
