<svg width="287" height="74" viewBox="0 0 287 74" fill="none" xmlns="http://www.w3.org/2000/svg">
<g opacity="0.24">
<mask id="path-1-outside-1_2871_13711" maskUnits="userSpaceOnUse" x="0" y="0" width="288" height="74" fill="black">
<rect fill="white" width="288" height="74"/>
<path d="M37.1225 39.78C40.6625 40.44 43.5725 42.21 45.8525 45.09C48.1325 47.97 49.2725 51.27 49.2725 54.99C49.2725 58.35 48.4325 61.32 46.7525 63.9C45.1325 66.42 42.7625 68.4 39.6425 69.84C36.5225 71.28 32.8325 72 28.5725 72H1.48246V9.18H27.4025C31.6625 9.18 35.3225 9.87 38.3825 11.25C41.5025 12.63 43.8425 14.55 45.4025 17.01C47.0225 19.47 47.8325 22.26 47.8325 25.38C47.8325 29.04 46.8425 32.1 44.8625 34.56C42.9425 37.02 40.3625 38.76 37.1225 39.78ZM14.0825 35.1H25.6025C28.6025 35.1 30.9125 34.44 32.5325 33.12C34.1525 31.74 34.9625 29.79 34.9625 27.27C34.9625 24.75 34.1525 22.8 32.5325 21.42C30.9125 20.04 28.6025 19.35 25.6025 19.35H14.0825V35.1ZM26.7725 61.74C29.8325 61.74 32.2025 61.02 33.8825 59.58C35.6225 58.14 36.4925 56.1 36.4925 53.46C36.4925 50.76 35.5925 48.66 33.7925 47.16C31.9925 45.6 29.5625 44.82 26.5025 44.82H14.0825V61.74H26.7725ZM106.384 22.14V72H93.6945V65.7C92.0745 67.86 89.9445 69.57 87.3045 70.83C84.7245 72.03 81.9045 72.63 78.8445 72.63C74.9445 72.63 71.4945 71.82 68.4945 70.2C65.4945 68.52 63.1245 66.09 61.3845 62.91C59.7045 59.67 58.8645 55.83 58.8645 51.39V22.14H71.4645V49.59C71.4645 53.55 72.4545 56.61 74.4345 58.77C76.4145 60.87 79.1145 61.92 82.5345 61.92C86.0145 61.92 88.7445 60.87 90.7245 58.77C92.7045 56.61 93.6945 53.55 93.6945 49.59V22.14H106.384ZM125.206 16.2C122.986 16.2 121.126 15.51 119.626 14.13C118.186 12.69 117.466 10.92 117.466 8.82C117.466 6.72 118.186 4.98 119.626 3.6C121.126 2.16 122.986 1.44 125.206 1.44C127.426 1.44 129.256 2.16 130.696 3.6C132.196 4.98 132.946 6.72 132.946 8.82C132.946 10.92 132.196 12.69 130.696 14.13C129.256 15.51 127.426 16.2 125.206 16.2ZM131.416 22.14V72H118.816V22.14H131.416ZM156.465 5.4V72H143.865V5.4H156.465ZM165.674 46.89C165.674 41.85 166.664 37.38 168.644 33.48C170.684 29.58 173.444 26.58 176.924 24.48C180.404 22.38 184.274 21.33 188.534 21.33C191.774 21.33 194.864 22.05 197.804 23.49C200.744 24.87 203.084 26.73 204.824 29.07V5.4H217.604V72H204.824V64.62C203.264 67.08 201.074 69.06 198.254 70.56C195.434 72.06 192.164 72.81 188.444 72.81C184.244 72.81 180.404 71.73 176.924 69.57C173.444 67.41 170.684 64.38 168.644 60.48C166.664 56.52 165.674 51.99 165.674 46.89ZM204.914 47.07C204.914 44.01 204.314 41.4 203.114 39.24C201.914 37.02 200.294 35.34 198.254 34.2C196.214 33 194.024 32.4 191.684 32.4C189.344 32.4 187.184 32.97 185.204 34.11C183.224 35.25 181.604 36.93 180.344 39.15C179.144 41.31 178.544 43.89 178.544 46.89C178.544 49.89 179.144 52.53 180.344 54.81C181.604 57.03 183.224 58.74 185.204 59.94C187.244 61.14 189.404 61.74 191.684 61.74C194.024 61.74 196.214 61.17 198.254 60.03C200.294 58.83 201.914 57.15 203.114 54.99C204.314 52.77 204.914 50.13 204.914 47.07ZM281.056 10.26L285.556 18.36L273.856 22.59L285.556 26.82L280.876 35.19L271.156 27.18L273.226 39.6H263.866L265.846 27.18L256.216 35.37L251.266 26.73L262.966 22.5L251.356 18.45L255.946 10.17L265.936 18.09L263.866 5.58H273.316L271.156 18.09L281.056 10.26Z"/>
</mask>
<path d="M37.1225 39.78L36.8222 38.8261L36.9392 40.7631L37.1225 39.78ZM45.8525 45.09L46.6365 44.4693L45.8525 45.09ZM46.7525 63.9L45.9145 63.3543L45.9113 63.3592L46.7525 63.9ZM39.6425 69.84L40.0615 70.748L39.6425 69.84ZM1.48246 72H0.482461V73H1.48246V72ZM1.48246 9.18V8.18H0.482461V9.18H1.48246ZM38.3825 11.25L37.9713 12.1616L37.978 12.1645L38.3825 11.25ZM45.4025 17.01L44.558 17.5455L44.5626 17.5528L44.5673 17.56L45.4025 17.01ZM44.8625 34.56L44.0835 33.933L44.0788 33.9388L44.0741 33.9447L44.8625 34.56ZM14.0825 35.1H13.0825V36.1H14.0825V35.1ZM32.5325 33.12L33.1641 33.8952L33.1726 33.8883L33.1809 33.8812L32.5325 33.12ZM32.5325 21.42L33.1809 20.6588L32.5325 21.42ZM14.0825 19.35V18.35H13.0825V19.35H14.0825ZM33.8825 59.58L33.2449 58.8096L33.2382 58.8151L33.2317 58.8207L33.8825 59.58ZM33.7925 47.16L33.1375 47.9157L33.1448 47.922L33.1523 47.9282L33.7925 47.16ZM14.0825 44.82V43.82H13.0825V44.82H14.0825ZM14.0825 61.74H13.0825V62.74H14.0825V61.74ZM36.9392 40.7631C40.2366 41.3778 42.935 43.0159 45.0684 45.7107L46.6365 44.4693C44.2099 41.4041 41.0884 39.5022 37.3057 38.7969L36.9392 40.7631ZM45.0684 45.7107C47.2066 48.4116 48.2725 51.4922 48.2725 54.99H50.2725C50.2725 51.0478 49.0583 47.5284 46.6365 44.4693L45.0684 45.7107ZM48.2725 54.99C48.2725 58.1747 47.4791 60.9515 45.9145 63.3543L47.5905 64.4457C49.3858 61.6885 50.2725 58.5253 50.2725 54.99H48.2725ZM45.9113 63.3592C44.4087 65.6967 42.1966 67.5598 39.2234 68.932L40.0615 70.748C43.3283 69.2402 45.8563 67.1433 47.5936 64.4408L45.9113 63.3592ZM39.2234 68.932C36.2624 70.2987 32.7216 71 28.5725 71V73C32.9434 73 36.7826 72.2613 40.0615 70.748L39.2234 68.932ZM28.5725 71H1.48246V73H28.5725V71ZM2.48246 72V9.18H0.482461V72H2.48246ZM1.48246 10.18H27.4025V8.18H1.48246V10.18ZM27.4025 10.18C31.5575 10.18 35.0704 10.8533 37.9714 12.1616L38.7936 10.3384C35.5745 8.88669 31.7674 8.18 27.4025 8.18V10.18ZM37.978 12.1645C40.9487 13.4785 43.121 15.2796 44.558 17.5455L46.247 16.4745C44.5639 13.8204 42.0562 11.7815 38.787 10.3355L37.978 12.1645ZM44.5673 17.56C46.0733 19.8468 46.8325 22.4433 46.8325 25.38H48.8325C48.8325 22.0767 47.9717 19.0932 46.2376 16.46L44.5673 17.56ZM46.8325 25.38C46.8325 28.8499 45.8983 31.6782 44.0835 33.933L45.6415 35.187C47.7866 32.5218 48.8325 29.2301 48.8325 25.38H46.8325ZM44.0741 33.9447C42.2899 36.2308 39.8869 37.8613 36.8222 38.8261L37.4227 40.7338C40.838 39.6587 43.5951 37.8092 45.6508 35.1753L44.0741 33.9447ZM14.0825 36.1H25.6025V34.1H14.0825V36.1ZM25.6025 36.1C28.7347 36.1 31.3023 35.4123 33.1641 33.8952L31.9008 32.3448C30.5227 33.4677 28.4702 34.1 25.6025 34.1V36.1ZM33.1809 33.8812C35.0656 32.2758 35.9625 30.0234 35.9625 27.27H33.9625C33.9625 29.5566 33.2393 31.2042 31.884 32.3588L33.1809 33.8812ZM35.9625 27.27C35.9625 24.5166 35.0656 22.2642 33.1809 20.6588L31.884 22.1812C33.2393 23.3358 33.9625 24.9834 33.9625 27.27H35.9625ZM33.1809 20.6588C31.3182 19.072 28.7438 18.35 25.6025 18.35V20.35C28.4611 20.35 30.5068 21.008 31.884 22.1812L33.1809 20.6588ZM25.6025 18.35H14.0825V20.35H25.6025V18.35ZM13.0825 19.35V35.1H15.0825V19.35H13.0825ZM26.7725 62.74C29.98 62.74 32.6131 61.9851 34.5333 60.3393L33.2317 58.8207C31.7918 60.0549 29.6849 60.74 26.7725 60.74V62.74ZM34.52 60.3504C36.5295 58.6874 37.4925 56.3419 37.4925 53.46H35.4925C35.4925 55.8581 34.7154 57.5926 33.2449 58.8096L34.52 60.3504ZM37.4925 53.46C37.4925 50.5137 36.4968 48.1119 34.4326 46.3918L33.1523 47.9282C34.6881 49.2081 35.4925 51.0063 35.4925 53.46H37.4925ZM34.4474 46.4043C32.4188 44.6462 29.7329 43.82 26.5025 43.82V45.82C29.3921 45.82 31.5662 46.5538 33.1375 47.9157L34.4474 46.4043ZM26.5025 43.82H14.0825V45.82H26.5025V43.82ZM13.0825 44.82V61.74H15.0825V44.82H13.0825ZM14.0825 62.74H26.7725V60.74H14.0825V62.74ZM106.384 22.14H107.384V21.14H106.384V22.14ZM106.384 72V73H107.384V72H106.384ZM93.6945 72H92.6945V73H93.6945V72ZM93.6945 65.7H94.6945V62.7L92.8945 65.1L93.6945 65.7ZM87.3045 70.83L87.7262 71.7368L87.7352 71.7325L87.3045 70.83ZM68.4945 70.2L68.0059 71.0725L68.0126 71.0763L68.0193 71.0799L68.4945 70.2ZM61.3845 62.91L60.4967 63.3703L60.5019 63.3802L60.5072 63.39L61.3845 62.91ZM58.8645 22.14V21.14H57.8645V22.14H58.8645ZM71.4645 22.14H72.4645V21.14H71.4645V22.14ZM74.4345 58.77L73.6973 59.4458L73.7069 59.456L74.4345 58.77ZM90.7245 58.77L91.4522 59.4561L91.4616 59.4457L90.7245 58.77ZM93.6945 22.14V21.14H92.6945V22.14H93.6945ZM105.384 22.14V72H107.384V22.14H105.384ZM106.384 71H93.6945V73H106.384V71ZM94.6945 72V65.7H92.6945V72H94.6945ZM92.8945 65.1C91.3793 67.1202 89.3805 68.7311 86.8738 69.9275L87.7352 71.7325C90.5085 70.4089 92.7697 68.5998 94.4945 66.3L92.8945 65.1ZM86.8828 69.9233C84.4446 71.0573 81.77 71.63 78.8445 71.63V73.63C82.039 73.63 85.0043 73.0027 87.7262 71.7367L86.8828 69.9233ZM78.8445 71.63C75.0863 71.63 71.8038 70.8506 68.9696 69.3201L68.0193 71.0799C71.1852 72.7894 74.8027 73.63 78.8445 73.63V71.63ZM68.9831 69.3275C66.156 67.7443 63.9167 65.4546 62.2618 62.43L60.5072 63.39C62.3322 66.7254 64.833 69.2957 68.0059 71.0725L68.9831 69.3275ZM62.2722 62.4497C60.6803 59.3795 59.8645 55.7041 59.8645 51.39H57.8645C57.8645 55.9559 58.7287 59.9605 60.4967 63.3703L62.2722 62.4497ZM59.8645 51.39V22.14H57.8645V51.39H59.8645ZM58.8645 23.14H71.4645V21.14H58.8645V23.14ZM70.4645 22.14V49.59H72.4645V22.14H70.4645ZM70.4645 49.59C70.4645 53.711 71.4964 57.0447 73.6973 59.4457L75.1716 58.0943C73.4126 56.1753 72.4645 53.389 72.4645 49.59H70.4645ZM73.7069 59.456C75.9107 61.7933 78.8943 62.92 82.5345 62.92V60.92C79.3347 60.92 76.9183 59.9467 75.1621 58.084L73.7069 59.456ZM82.5345 62.92C86.2288 62.92 89.2449 61.7969 91.4521 59.456L89.9969 58.084C88.244 59.9431 85.8002 60.92 82.5345 60.92V62.92ZM91.4616 59.4457C93.6626 57.0447 94.6945 53.711 94.6945 49.59H92.6945C92.6945 53.389 91.7464 56.1753 89.9873 58.0943L91.4616 59.4457ZM94.6945 49.59V22.14H92.6945V49.59H94.6945ZM93.6945 23.14H106.384V21.14H93.6945V23.14ZM119.626 14.13L118.919 14.8371L118.934 14.8518L118.949 14.8659L119.626 14.13ZM119.626 3.59999L120.318 4.32198L120.319 4.32138L119.626 3.59999ZM130.696 3.59999L129.989 4.3071L130.004 4.32183L130.019 4.33593L130.696 3.59999ZM130.696 14.13L131.388 14.852L131.389 14.8514L130.696 14.13ZM131.416 22.14H132.416V21.14H131.416V22.14ZM131.416 72V73H132.416V72H131.416ZM118.816 72H117.816V73H118.816V72ZM118.816 22.14V21.14H117.816V22.14H118.816ZM125.206 15.2C123.213 15.2 121.602 14.5885 120.304 13.3941L118.949 14.8659C120.651 16.4315 122.76 17.2 125.206 17.2V15.2ZM120.334 13.4229C119.088 12.1769 118.466 10.664 118.466 8.82H116.466C116.466 11.176 117.285 13.2031 118.919 14.8371L120.334 13.4229ZM118.466 8.82C118.466 6.97645 119.087 5.50249 120.318 4.32198L118.935 2.87801C117.286 4.4575 116.466 6.46355 116.466 8.82H118.466ZM120.319 4.32138C121.619 3.07305 123.225 2.44 125.206 2.44V0.439997C122.748 0.439997 120.634 1.24694 118.934 2.87861L120.319 4.32138ZM125.206 2.44C127.188 2.44 128.755 3.07247 129.989 4.3071L131.404 2.89289C129.758 1.24752 127.665 0.439997 125.206 0.439997V2.44ZM130.019 4.33593C131.307 5.52016 131.946 6.99007 131.946 8.82H133.946C133.946 6.44993 133.086 4.43983 131.374 2.86407L130.019 4.33593ZM131.946 8.82C131.946 10.6508 131.305 12.1593 130.004 13.4086L131.389 14.8514C133.088 13.2207 133.946 11.1892 133.946 8.82H131.946ZM130.005 13.408C128.772 14.5888 127.2 15.2 125.206 15.2V17.2C127.653 17.2 129.74 16.4312 131.388 14.852L130.005 13.408ZM130.416 22.14V72H132.416V22.14H130.416ZM131.416 71H118.816V73H131.416V71ZM119.816 72V22.14H117.816V72H119.816ZM118.816 23.14H131.416V21.14H118.816V23.14ZM156.465 5.4H157.465V4.4H156.465V5.4ZM156.465 72V73H157.465V72H156.465ZM143.865 72H142.865V73H143.865V72ZM143.865 5.4V4.4H142.865V5.4H143.865ZM155.465 5.4V72H157.465V5.4H155.465ZM156.465 71H143.865V73H156.465V71ZM144.865 72V5.4H142.865V72H144.865ZM143.865 6.4H156.465V4.4H143.865V6.4ZM168.644 33.48L167.758 33.0165L167.752 33.0273L168.644 33.48ZM176.924 24.48L177.441 25.3362L176.924 24.48ZM197.804 23.49L197.364 24.3881L197.372 24.3917L197.379 24.3952L197.804 23.49ZM204.824 29.07L204.022 29.6667L205.824 32.0907V29.07H204.824ZM204.824 5.4V4.4H203.824V5.4H204.824ZM217.604 5.4H218.604V4.4H217.604V5.4ZM217.604 72V73H218.604V72H217.604ZM204.824 72H203.824V73H204.824V72ZM204.824 64.62H205.824V61.1758L203.98 64.0845L204.824 64.62ZM198.254 70.56L197.784 69.6771L198.254 70.56ZM176.924 69.57L177.451 68.7204L176.924 69.57ZM168.644 60.48L167.75 60.9272L167.754 60.9354L167.758 60.9435L168.644 60.48ZM203.114 39.24L202.234 39.7155L202.24 39.7256L203.114 39.24ZM198.254 34.2L197.747 35.0619L197.757 35.0675L197.766 35.0729L198.254 34.2ZM185.204 34.11L184.705 33.2434L185.204 34.11ZM180.344 39.15L179.474 38.6564L179.47 38.6644L180.344 39.15ZM180.344 54.81L179.459 55.2757L179.467 55.2898L179.474 55.3036L180.344 54.81ZM185.204 59.94L184.686 60.7953L184.697 60.8019L185.204 59.94ZM198.254 60.03L198.742 60.9029L198.752 60.8975L198.761 60.8919L198.254 60.03ZM203.114 54.99L203.988 55.4757L203.994 55.4655L203.114 54.99ZM166.674 46.89C166.674 41.9833 167.637 37.6724 169.536 33.9327L167.752 33.0273C165.691 37.0875 164.674 41.7167 164.674 46.89H166.674ZM169.53 33.9435C171.493 30.1918 174.13 27.3338 177.441 25.3362L176.407 23.6238C172.758 25.8262 169.876 28.9682 167.758 33.0165L169.53 33.9435ZM177.441 25.3362C180.757 23.3349 184.447 22.33 188.534 22.33V20.33C184.101 20.33 180.051 21.4251 176.407 23.6238L177.441 25.3362ZM188.534 22.33C191.62 22.33 194.56 23.0144 197.364 24.3881L198.244 22.5919C195.169 21.0856 191.928 20.33 188.534 20.33V22.33ZM197.379 24.3952C200.187 25.7132 202.391 27.4736 204.022 29.6667L205.627 28.4733C203.777 25.9864 201.301 24.0268 198.229 22.5848L197.379 24.3952ZM205.824 29.07V5.4H203.824V29.07H205.824ZM204.824 6.4H217.604V4.4H204.824V6.4ZM216.604 5.4V72H218.604V5.4H216.604ZM217.604 71H204.824V73H217.604V71ZM205.824 72V64.62H203.824V72H205.824ZM203.98 64.0845C202.521 66.3843 200.467 68.2504 197.784 69.6771L198.724 71.4429C201.682 69.8696 204.007 67.7757 205.669 65.1555L203.98 64.0845ZM197.784 69.6771C195.131 71.0884 192.027 71.81 188.444 71.81V73.81C192.301 73.81 195.737 73.0316 198.724 71.4429L197.784 69.6771ZM188.444 71.81C184.425 71.81 180.769 70.7795 177.451 68.7204L176.397 70.4196C180.039 72.6805 184.063 73.81 188.444 73.81V71.81ZM177.451 68.7204C174.135 66.6617 171.494 63.7703 169.53 60.0165L167.758 60.9435C169.874 64.9897 172.753 68.1583 176.397 70.4196L177.451 68.7204ZM169.539 60.0328C167.638 56.2313 166.674 51.8584 166.674 46.89H164.674C164.674 52.1216 165.69 56.8087 167.75 60.9272L169.539 60.0328ZM205.914 47.07C205.914 43.8801 205.288 41.0944 203.988 38.7544L202.24 39.7256C203.34 41.7056 203.914 44.1399 203.914 47.07H205.914ZM203.994 38.7645C202.711 36.3914 200.961 34.5671 198.742 33.3271L197.766 35.0729C199.627 36.1129 201.117 37.6486 202.234 39.7155L203.994 38.7645ZM198.761 33.3381C196.569 32.0488 194.205 31.4 191.684 31.4V33.4C193.844 33.4 195.859 33.9512 197.747 35.0619L198.761 33.3381ZM191.684 31.4C189.173 31.4 186.841 32.0138 184.705 33.2434L185.703 34.9766C187.527 33.9262 189.515 33.4 191.684 33.4V31.4ZM184.705 33.2434C182.553 34.4825 180.812 36.2998 179.474 38.6564L181.214 39.6436C182.396 37.5602 183.895 36.0175 185.703 34.9766L184.705 33.2434ZM179.47 38.6644C178.171 41.0016 177.544 43.7562 177.544 46.89H179.544C179.544 44.0238 180.117 41.6184 181.218 39.6356L179.47 38.6644ZM177.544 46.89C177.544 50.0255 178.172 52.8302 179.459 55.2757L181.229 54.3443C180.116 52.2298 179.544 49.7545 179.544 46.89H177.544ZM179.474 55.3036C180.81 57.6566 182.545 59.4978 184.686 60.7952L185.722 59.0848C183.903 57.9822 182.398 56.4034 181.214 54.3164L179.474 55.3036ZM184.697 60.8019C186.885 62.0887 189.219 62.74 191.684 62.74V60.74C189.589 60.74 187.604 60.1913 185.711 59.0781L184.697 60.8019ZM191.684 62.74C194.195 62.74 196.553 62.1264 198.742 60.9029L197.766 59.1571C195.876 60.2136 193.854 60.74 191.684 60.74V62.74ZM198.761 60.8919C200.962 59.5974 202.706 57.7844 203.988 55.4756L202.24 54.5044C201.123 56.5156 199.626 58.0626 197.747 59.1681L198.761 60.8919ZM203.994 55.4655C205.288 53.0715 205.914 50.261 205.914 47.07H203.914C203.914 49.999 203.34 52.4685 202.234 54.5145L203.994 55.4655ZM281.056 10.26L281.93 9.77435L281.358 8.74566L280.435 9.47566L281.056 10.26ZM285.556 18.36L285.896 19.3004L287 18.9011L286.43 17.8744L285.556 18.36ZM273.855 22.59L273.516 21.6496L270.914 22.59L273.516 23.5304L273.855 22.59ZM285.556 26.82L286.428 27.308L287.003 26.28L285.896 25.8796L285.556 26.82ZM280.876 35.19L280.24 35.9617L281.164 36.7234L281.748 35.678L280.876 35.19ZM271.156 27.18L271.791 26.4083L269.73 24.7094L270.169 27.3444L271.156 27.18ZM273.225 39.6V40.6H274.406L274.212 39.4356L273.225 39.6ZM263.866 39.6L262.878 39.4426L262.693 40.6H263.866V39.6ZM265.846 27.18L266.833 27.3374L267.259 24.6651L265.198 26.4182L265.846 27.18ZM256.216 35.37L255.348 35.8671L255.946 36.9117L256.863 36.1318L256.216 35.37ZM251.266 26.73L250.926 25.7896L249.806 26.1943L250.398 27.2271L251.266 26.73ZM262.966 22.5L263.306 23.4404L265.953 22.4832L263.295 21.5558L262.966 22.5ZM251.355 18.45L250.481 17.9652L249.905 19.0033L251.026 19.3942L251.355 18.45ZM255.945 10.17L256.567 9.38638L255.643 8.65376L255.071 9.68516L255.945 10.17ZM265.936 18.09L265.314 18.8736L267.345 20.4837L266.922 17.9268L265.936 18.09ZM263.866 5.58V4.58H262.686L262.879 5.74324L263.866 5.58ZM273.316 5.58L274.301 5.75014L274.503 4.58H273.316V5.58ZM271.156 18.09L270.17 17.9199L269.725 20.4962L271.776 18.8743L271.156 18.09ZM280.181 10.7456L284.681 18.8456L286.43 17.8744L281.93 9.77435L280.181 10.7456ZM285.216 17.4196L273.516 21.6496L274.195 23.5304L285.896 19.3004L285.216 17.4196ZM273.516 23.5304L285.216 27.7604L285.896 25.8796L274.195 21.6496L273.516 23.5304ZM284.683 26.332L280.003 34.702L281.748 35.678L286.428 27.308L284.683 26.332ZM281.511 34.4183L271.791 26.4083L270.52 27.9517L280.24 35.9617L281.511 34.4183ZM270.169 27.3444L272.239 39.7644L274.212 39.4356L272.142 27.0156L270.169 27.3444ZM273.225 38.6H263.866V40.6H273.225V38.6ZM264.853 39.7574L266.833 27.3374L264.858 27.0226L262.878 39.4426L264.853 39.7574ZM265.198 26.4182L255.568 34.6082L256.863 36.1318L266.493 27.9418L265.198 26.4182ZM257.083 34.8729L252.133 26.2329L250.398 27.2271L255.348 35.8671L257.083 34.8729ZM251.605 27.6704L263.306 23.4404L262.626 21.5596L250.926 25.7896L251.605 27.6704ZM263.295 21.5558L251.685 17.5058L251.026 19.3942L262.636 23.4442L263.295 21.5558ZM252.23 18.9348L256.82 10.6548L255.071 9.68516L250.481 17.9652L252.23 18.9348ZM255.324 10.9536L265.314 18.8736L266.557 17.3064L256.567 9.38638L255.324 10.9536ZM266.922 17.9268L264.852 5.41675L262.879 5.74324L264.949 18.2532L266.922 17.9268ZM263.866 6.58H273.316V4.58H263.866V6.58ZM272.33 5.40985L270.17 17.9199L272.141 18.2601L274.301 5.75014L272.33 5.40985ZM271.776 18.8743L281.676 11.0443L280.435 9.47566L270.535 17.3057L271.776 18.8743Z" fill="black" mask="url(#path-1-outside-1_2871_13711)"/>
</g>
</svg>
