<svg width="40" height="40" viewBox="0 0 40 40" fill="none" xmlns="http://www.w3.org/2000/svg">
<mask id="mask0_2919_10812" style="mask-type:alpha" maskUnits="userSpaceOnUse" x="0" y="0" width="40" height="40">
<rect width="40" height="40" fill="#D9D9D9"/>
</mask>
<g mask="url(#mask0_2919_10812)">
<path d="M10.9617 25.7076H24.0383V24.0409H10.9617V25.7076ZM27.3717 25.7076H29.0383V24.0409H27.3717V25.7076ZM10.9617 19.7464H12.6283V18.0797H10.9617V19.7464ZM15.9617 19.7464H29.0383V18.0797H15.9617V19.7464ZM7.6925 31.6693C6.92528 31.6693 6.28472 31.4123 5.77083 30.8984C5.25694 30.3845 5 29.744 5 28.9768V11.0284C5 10.2612 5.25694 9.62066 5.77083 9.10677C6.28472 8.59288 6.92528 8.33594 7.6925 8.33594H32.3075C33.0747 8.33594 33.7153 8.59288 34.2292 9.10677C34.7431 9.62066 35 10.2612 35 11.0284V28.9768C35 29.744 34.7431 30.3845 34.2292 30.8984C33.7153 31.4123 33.0747 31.6693 32.3075 31.6693H7.6925ZM7.6925 30.0026H32.3075C32.5642 30.0026 32.7993 29.8958 33.0129 29.6822C33.2265 29.4686 33.3333 29.2334 33.3333 28.9768V11.0284C33.3333 10.7718 33.2265 10.5366 33.0129 10.323C32.7993 10.1094 32.5642 10.0026 32.3075 10.0026H7.6925C7.43583 10.0026 7.20069 10.1094 6.98708 10.323C6.77347 10.5366 6.66667 10.7718 6.66667 11.0284V28.9768C6.66667 29.2334 6.77347 29.4686 6.98708 29.6822C7.20069 29.8958 7.43583 30.0026 7.6925 30.0026Z" fill="black"/>
</g>
</svg>
