<svg width="53" height="53" viewBox="0 0 53 53" fill="currentColor" xmlns="http://www.w3.org/2000/svg">
<mask id="mask0_2445_9909" style="mask-type:alpha" maskUnits="userSpaceOnUse" x="0" y="0" width="65" height="64">
<rect x="0.300781" width="64" height="64" fill="currentColor"/>
</mask>
<g mask="url(#mask0_2445_9909)">
<path d="M27 53C23.9118 50.4462 20.5006 48.4308 16.7666 46.9538C13.033 45.4768 9.11079 44.5953 5 44.3094V18.2383C9.20613 18.4889 13.2023 19.5073 16.9886 21.2934C20.7754 23.0796 24.1125 25.2908 27 27.9268C29.8875 25.2908 33.2246 23.0796 37.0114 21.2934C40.7977 19.5073 44.7939 18.4889 49 18.2383V44.3094C44.8787 44.5953 40.9537 45.4768 37.2252 46.9538C33.4966 48.4308 30.0882 50.4462 27 53ZM27 49.502C29.8875 47.3527 32.9583 45.6195 36.2125 44.3024C39.4667 42.9853 42.8125 42.115 46.25 41.6915V21.3716C42.6576 21.9759 39.2281 23.1515 35.9616 24.8981C32.695 26.6453 29.7078 28.8922 27 31.6389C24.2922 28.8922 21.305 26.6453 18.0384 24.8981C14.7719 23.1515 11.3424 21.9759 7.75 21.3716V41.6915C11.1875 42.115 14.5333 42.9853 17.7875 44.3024C21.0417 45.6195 24.1125 47.3527 27 49.502ZM27 18.0242C24.5566 18.0242 22.465 17.1418 20.7252 15.377C18.9854 13.6117 18.1154 11.4901 18.1154 9.01209C18.1154 6.53364 18.9854 4.41202 20.7252 2.64721C22.465 0.882405 24.5566 0 27 0C29.4434 0 31.535 0.882405 33.2748 2.64721C35.0146 4.41202 35.8846 6.53364 35.8846 9.01209C35.8846 11.4901 35.0146 13.6117 33.2748 15.377C31.535 17.1418 29.4434 18.0242 27 18.0242ZM27.0021 15.2347C28.6896 15.2347 30.1336 14.6252 31.334 13.4062C32.5344 12.1872 33.1346 10.7218 33.1346 9.01C33.1346 7.29819 32.5337 5.83349 31.3319 4.61588C30.1302 3.39828 28.6855 2.78947 26.9979 2.78947C25.3104 2.78947 23.8664 3.39874 22.666 4.61728C21.4656 5.83628 20.8654 7.30168 20.8654 9.01349C20.8654 10.7253 21.4663 12.19 22.6681 13.4076C23.8698 14.6257 25.3145 15.2347 27.0021 15.2347Z" fill="currentColor"/>
</g>
</svg>
