<svg width="1029" height="249" viewBox="0 0 1029 249" fill="none" xmlns="http://www.w3.org/2000/svg">
<g opacity="0.08">
<mask id="path-1-outside-1_3001_17499" maskUnits="userSpaceOnUse" x="0" y="0" width="1029" height="249" fill="black">
<rect fill="white" width="1029" height="249"/>
<path d="M148.92 126.16C162.147 129.147 172.6 135.76 180.28 146C188.173 156.027 192.12 167.547 192.12 180.56C192.12 199.76 185.507 214.8 172.28 225.68C159.053 236.56 140.493 242 116.6 242H4.92V16.4H113.08C136.12 16.4 154.147 21.52 167.16 31.76C180.387 42 187 56.4 187 74.96C187 88.1867 183.48 99.28 176.44 108.24C169.613 116.987 160.44 122.96 148.92 126.16ZM67.64 106H99.32C115.107 106 123 99.4933 123 86.48C123 73.04 115.107 66.32 99.32 66.32H67.64V106ZM104.12 191.44C119.907 191.44 127.8 184.827 127.8 171.6C127.8 164.773 125.667 159.547 121.4 155.92C117.347 152.293 111.48 150.48 103.8 150.48H67.64V191.44H104.12ZM281.048 16.4V147.28C281.048 159.44 283.821 168.827 289.368 175.44C295.128 182.053 303.768 185.36 315.288 185.36C326.808 185.36 335.448 182.053 341.208 175.44C347.181 168.613 350.168 159.227 350.168 147.28V16.4H412.888V147.28C412.888 167.973 408.514 185.68 399.768 200.4C391.021 214.907 379.074 225.893 363.928 233.36C348.994 240.613 332.354 244.24 314.008 244.24C295.661 244.24 279.234 240.613 264.728 233.36C250.434 225.893 239.128 214.907 230.808 200.4C222.701 185.893 218.648 168.187 218.648 147.28V16.4H281.048ZM510.14 16.4V242H447.42V16.4H510.14ZM608.578 194H678.658V242H545.858V16.4H608.578V194ZM792.325 16.4C816.005 16.4 836.698 21.2 854.405 30.8C872.325 40.1867 886.085 53.4133 895.685 70.48C905.285 87.5467 910.085 107.067 910.085 129.04C910.085 150.8 905.178 170.213 895.365 187.28C885.765 204.347 872.005 217.787 854.085 227.6C836.378 237.2 815.792 242 792.325 242H703.045V16.4H792.325ZM787.525 186.64C805.872 186.64 820.272 181.627 830.725 171.6C841.178 161.573 846.405 147.387 846.405 129.04C846.405 110.48 841.178 96.1867 830.725 86.16C820.272 75.92 805.872 70.8 787.525 70.8H765.765V186.64H787.525ZM1022.2 4.87998L1014.84 157.52H961.398L954.038 4.87998H1022.2ZM988.278 244.56C977.184 244.56 968.224 241.573 961.398 235.6C954.784 229.413 951.478 221.627 951.478 212.24C951.478 202.853 954.784 195.067 961.398 188.88C968.224 182.693 977.184 179.6 988.278 179.6C999.158 179.6 1007.9 182.693 1014.52 188.88C1021.34 195.067 1024.76 202.853 1024.76 212.24C1024.76 221.413 1021.34 229.093 1014.52 235.28C1007.9 241.467 999.158 244.56 988.278 244.56Z"/>
</mask>
<path d="M148.92 126.16L147.849 122.306L148.039 130.062L148.92 126.16ZM180.28 146L177.08 148.4L177.108 148.437L177.137 148.474L180.28 146ZM172.28 225.68L174.821 228.769L172.28 225.68ZM4.92 242H0.92V246H4.92V242ZM4.92 16.4V12.4H0.92V16.4H4.92ZM167.16 31.76L164.686 34.9035L164.699 34.9132L164.711 34.9229L167.16 31.76ZM176.44 108.24L173.295 105.769L173.287 105.779L176.44 108.24ZM67.64 106H63.64V110H67.64V106ZM67.64 66.32V62.32H63.64V66.32H67.64ZM121.4 155.92L118.733 158.901L118.771 158.935L118.809 158.968L121.4 155.92ZM67.64 150.48V146.48H63.64V150.48H67.64ZM67.64 191.44H63.64V195.44H67.64V191.44ZM148.039 130.062C160.398 132.853 170.006 138.968 177.08 148.4L183.48 143.6C175.194 132.552 163.895 125.441 149.801 122.258L148.039 130.062ZM177.137 148.474C184.463 157.781 188.12 168.425 188.12 180.56H196.12C196.12 166.668 191.883 154.273 183.423 143.526L177.137 148.474ZM188.12 180.56C188.12 198.727 181.923 212.569 169.739 222.591L174.821 228.769C189.091 217.031 196.12 200.793 196.12 180.56H188.12ZM169.739 222.591C157.465 232.687 139.928 238 116.6 238V246C141.058 246 160.642 240.433 174.821 228.769L169.739 222.591ZM116.6 238H4.92V246H116.6V238ZM8.92 242V16.4H0.92V242H8.92ZM4.92 20.4H113.08V12.4H4.92V20.4ZM113.08 20.4C135.568 20.4 152.609 25.3997 164.686 34.9035L169.634 28.6165C155.685 17.6403 136.672 12.4 113.08 12.4V20.4ZM164.711 34.9229C176.843 44.3151 183 57.4823 183 74.96H191C191 55.3177 183.93 39.6849 169.609 28.5971L164.711 34.9229ZM183 74.96C183 87.441 179.695 97.6234 173.295 105.769L179.585 110.711C187.265 100.937 191 88.9324 191 74.96H183ZM173.287 105.779C167.029 113.797 158.612 119.316 147.849 122.306L149.991 130.014C162.268 126.604 172.198 120.177 179.593 110.701L173.287 105.779ZM67.64 110H99.32V102H67.64V110ZM99.32 110C107.662 110 114.663 108.297 119.624 104.207C124.734 99.9944 127 93.8288 127 86.48H119C119 92.1445 117.319 95.7389 114.536 98.0335C111.604 100.45 106.764 102 99.32 102V110ZM127 86.48C127 78.9599 124.761 72.6464 119.673 68.3143C114.708 64.0871 107.687 62.32 99.32 62.32V70.32C106.74 70.32 111.559 71.9129 114.487 74.4057C117.292 76.7936 119 80.56 119 86.48H127ZM99.32 62.32H67.64V70.32H99.32V62.32ZM63.64 66.32V106H71.64V66.32H63.64ZM104.12 195.44C112.474 195.44 119.485 193.705 124.449 189.546C129.548 185.274 131.8 179.034 131.8 171.6H123.8C123.8 177.393 122.105 181.073 119.311 183.414C116.381 185.868 111.552 187.44 104.12 187.44V195.44ZM131.8 171.6C131.8 163.881 129.346 157.424 123.991 152.872L118.809 158.968C121.988 161.669 123.8 165.666 123.8 171.6H131.8ZM124.067 152.939C119.027 148.429 112.061 146.48 103.8 146.48V154.48C110.899 154.48 115.666 156.157 118.733 158.901L124.067 152.939ZM103.8 146.48H67.64V154.48H103.8V146.48ZM63.64 150.48V191.44H71.64V150.48H63.64ZM67.64 195.44H104.12V187.44H67.64V195.44ZM281.048 16.4H285.048V12.4H281.048V16.4ZM289.367 175.44L286.303 178.01L286.327 178.039L286.351 178.067L289.367 175.44ZM341.208 175.44L338.197 172.806L338.191 172.813L341.208 175.44ZM350.168 16.4V12.4H346.168V16.4H350.168ZM412.888 16.4H416.888V12.4H412.888V16.4ZM399.768 200.4L403.193 202.465L403.2 202.454L403.206 202.443L399.768 200.4ZM363.928 233.36L365.675 236.958L365.686 236.953L365.696 236.948L363.928 233.36ZM264.728 233.36L262.875 236.905L262.907 236.922L262.939 236.938L264.728 233.36ZM230.807 200.4L227.316 202.351L227.327 202.371L227.338 202.39L230.807 200.4ZM218.648 16.4V12.4H214.648V16.4H218.648ZM277.048 16.4V147.28H285.048V16.4H277.048ZM277.048 147.28C277.048 160.001 279.946 170.432 286.303 178.01L292.432 172.87C287.695 167.222 285.048 158.879 285.048 147.28H277.048ZM286.351 178.067C293.092 185.806 302.996 189.36 315.288 189.36V181.36C304.539 181.36 297.163 178.3 292.384 172.813L286.351 178.067ZM315.288 189.36C327.579 189.36 337.483 185.806 344.224 178.067L338.191 172.813C333.412 178.3 326.036 181.36 315.288 181.36V189.36ZM344.218 178.074C351.009 170.313 354.168 159.883 354.168 147.28H346.168C346.168 158.57 343.353 166.914 338.197 172.806L344.218 178.074ZM354.168 147.28V16.4H346.168V147.28H354.168ZM350.168 20.4H412.888V12.4H350.168V20.4ZM408.888 16.4V147.28H416.888V16.4H408.888ZM408.888 147.28C408.888 167.404 404.638 184.372 396.329 198.357L403.206 202.443C412.39 186.988 416.888 168.542 416.888 147.28H408.888ZM396.342 198.335C387.989 212.188 376.617 222.645 362.159 229.772L365.696 236.948C381.532 229.142 394.052 217.625 403.193 202.465L396.342 198.335ZM362.18 229.762C347.846 236.724 331.813 240.24 314.008 240.24V248.24C332.895 248.24 350.142 244.503 365.675 236.958L362.18 229.762ZM314.008 240.24C296.2 240.24 280.399 236.723 266.516 229.782L262.939 236.938C278.07 244.503 295.122 248.24 314.008 248.24V240.24ZM266.58 229.815C252.989 222.715 242.232 212.28 234.277 198.41L227.338 202.39C236.023 217.533 247.88 229.072 262.875 236.905L266.58 229.815ZM234.299 198.449C226.601 184.673 222.648 167.677 222.648 147.28H214.648C214.648 168.696 218.8 187.113 227.316 202.351L234.299 198.449ZM222.648 147.28V16.4H214.648V147.28H222.648ZM218.648 20.4H281.048V12.4H218.648V20.4ZM510.14 16.4H514.14V12.4H510.14V16.4ZM510.14 242V246H514.14V242H510.14ZM447.42 242H443.42V246H447.42V242ZM447.42 16.4V12.4H443.42V16.4H447.42ZM506.14 16.4V242H514.14V16.4H506.14ZM510.14 238H447.42V246H510.14V238ZM451.42 242V16.4H443.42V242H451.42ZM447.42 20.4H510.14V12.4H447.42V20.4ZM608.578 194H604.578V198H608.578V194ZM678.658 194H682.658V190H678.658V194ZM678.658 242V246H682.658V242H678.658ZM545.857 242H541.857V246H545.857V242ZM545.857 16.4V12.4H541.857V16.4H545.857ZM608.578 16.4H612.578V12.4H608.578V16.4ZM608.578 198H678.658V190H608.578V198ZM674.658 194V242H682.658V194H674.658ZM678.658 238H545.857V246H678.658V238ZM549.857 242V16.4H541.857V242H549.857ZM545.857 20.4H608.578V12.4H545.857V20.4ZM604.578 16.4V194H612.578V16.4H604.578ZM854.405 30.8L852.499 34.3164L852.524 34.33L852.549 34.3433L854.405 30.8ZM895.685 70.48L899.171 68.519L895.685 70.48ZM895.365 187.28L891.897 185.286L891.888 185.302L891.879 185.319L895.365 187.28ZM854.085 227.6L855.992 231.116L855.999 231.112L856.006 231.108L854.085 227.6ZM703.045 242H699.045V246H703.045V242ZM703.045 16.4V12.4H699.045V16.4H703.045ZM830.725 171.6L833.494 174.487L830.725 171.6ZM830.725 86.16L827.926 89.0174L827.941 89.0322L827.956 89.0467L830.725 86.16ZM765.765 70.8V66.8H761.765V70.8H765.765ZM765.765 186.64H761.765V190.64H765.765V186.64ZM792.325 20.4C815.456 20.4 835.472 25.0853 852.499 34.3164L856.312 27.2836C837.924 17.3147 816.554 12.4 792.325 12.4V20.4ZM852.549 34.3433C869.808 43.3838 882.991 56.0715 892.199 72.441L899.171 68.519C889.179 50.7552 874.842 36.9895 856.261 27.2567L852.549 34.3433ZM892.199 72.441C901.422 88.8386 906.085 107.668 906.085 129.04H914.085C914.085 106.465 909.148 86.2547 899.171 68.519L892.199 72.441ZM906.085 129.04C906.085 150.176 901.326 168.888 891.897 185.286L898.833 189.274C909.031 171.538 914.085 151.424 914.085 129.04H906.085ZM891.879 185.319C882.662 201.705 869.458 214.621 852.164 224.092L856.006 231.108C874.552 220.952 888.868 206.989 898.851 189.241L891.879 185.319ZM852.179 224.084C835.147 233.317 815.236 238 792.325 238V246C816.347 246 837.609 241.083 855.992 231.116L852.179 224.084ZM792.325 238H703.045V246H792.325V238ZM707.045 242V16.4H699.045V242H707.045ZM703.045 20.4H792.325V12.4H703.045V20.4ZM787.525 190.64C806.616 190.64 822.111 185.405 833.494 174.487L827.956 168.713C818.432 177.849 805.127 182.64 787.525 182.64V190.64ZM833.494 174.487C844.931 163.516 850.405 148.169 850.405 129.04H842.405C842.405 146.604 837.426 159.63 827.956 168.713L833.494 174.487ZM850.405 129.04C850.405 109.714 844.94 94.2521 833.494 83.2733L827.956 89.0467C837.417 98.1212 842.405 111.246 842.405 129.04H850.405ZM833.524 83.3026C822.145 72.1555 806.639 66.8 787.525 66.8V74.8C805.104 74.8 818.398 79.6845 827.926 89.0174L833.524 83.3026ZM787.525 66.8H765.765V74.8H787.525V66.8ZM761.765 70.8V186.64H769.765V70.8H761.765ZM765.765 190.64H787.525V182.64H765.765V190.64ZM1022.2 4.87998L1026.19 5.07263L1026.4 0.879982H1022.2V4.87998ZM1014.84 157.52V161.52H1018.65L1018.83 157.713L1014.84 157.52ZM961.398 157.52L957.402 157.713L957.586 161.52H961.398V157.52ZM954.037 4.87998V0.879982H949.84L950.042 5.07263L954.037 4.87998ZM961.398 235.6L958.665 238.521L958.713 238.567L958.763 238.61L961.398 235.6ZM961.398 188.88L958.711 185.916L958.688 185.937L958.665 185.959L961.398 188.88ZM1014.52 188.88L1011.78 191.801L1011.81 191.823L1011.83 191.844L1014.52 188.88ZM1014.52 235.28L1011.83 232.316L1011.81 232.337L1011.78 232.359L1014.52 235.28ZM1018.2 4.68733L1010.84 157.327L1018.83 157.713L1026.19 5.07263L1018.2 4.68733ZM1014.84 153.52H961.398V161.52H1014.84V153.52ZM965.393 157.327L958.033 4.68733L950.042 5.07263L957.402 157.713L965.393 157.327ZM954.037 8.87998H1022.2V0.879982H954.037V8.87998ZM988.278 240.56C977.928 240.56 969.976 237.791 964.031 232.59L958.763 238.61C966.473 245.356 976.441 248.56 988.278 248.56V240.56ZM964.13 232.679C958.358 227.279 955.477 220.565 955.477 212.24H947.477C947.477 222.688 951.21 231.547 958.665 238.521L964.13 232.679ZM955.477 212.24C955.477 203.915 958.358 197.201 964.13 191.801L958.665 185.959C951.21 192.933 947.477 201.792 947.477 212.24H955.477ZM964.084 191.844C970.03 186.455 977.964 183.6 988.278 183.6V175.6C976.405 175.6 966.418 178.932 958.711 185.916L964.084 191.844ZM988.278 183.6C998.359 183.6 1006.06 186.443 1011.78 191.801L1017.25 185.959C1009.75 178.944 999.956 175.6 988.278 175.6V183.6ZM1011.83 191.844C1017.8 197.256 1020.76 203.958 1020.76 212.24H1028.76C1028.76 201.748 1024.88 192.877 1017.2 185.916L1011.83 191.844ZM1020.76 212.24C1020.76 220.279 1017.83 226.884 1011.83 232.316L1017.2 238.244C1024.86 231.303 1028.76 222.548 1028.76 212.24H1020.76ZM1011.78 232.359C1006.06 237.717 998.359 240.56 988.278 240.56V248.56C999.956 248.56 1009.75 245.216 1017.25 238.201L1011.78 232.359Z" fill="black" mask="url(#path-1-outside-1_3001_17499)"/>
</g>
</svg>
