<svg width="247" height="139" viewBox="0 0 247 139" fill="none" xmlns="http://www.w3.org/2000/svg">
<mask id="mask0_3001_17622" style="mask-type:luminance" maskUnits="userSpaceOnUse" x="0" y="0" width="247" height="139">
<path d="M246.901 0H0V138.903H246.901V0Z" fill="white"/>
</mask>
<g mask="url(#mask0_3001_17622)">
<mask id="mask1_3001_17622" style="mask-type:luminance" maskUnits="userSpaceOnUse" x="30" y="0" width="187" height="139">
<path d="M30.7344 0.804688H216.145V138.079H30.7344V0.804688Z" fill="white"/>
</mask>
<g mask="url(#mask1_3001_17622)">
<path d="M75.0614 137.727H52.0041C51.8724 137.727 51.7656 137.62 51.7656 137.488C51.7656 137.357 51.8724 137.25 52.0041 137.25H75.0614C75.193 137.25 75.2997 137.357 75.2997 137.488C75.2997 137.62 75.193 137.727 75.0614 137.727Z" fill="black"/>
<path d="M197.363 137.727H91.4064C91.2747 137.727 91.168 137.62 91.168 137.488C91.168 137.357 91.2747 137.25 91.4064 137.25H197.363C197.495 137.25 197.602 137.357 197.602 137.488C197.602 137.62 197.495 137.727 197.363 137.727Z" fill="black"/>
<path d="M67.9567 113.867C67.9567 113.867 71.4677 108.447 75.9454 104.393C80.4228 100.339 84.8274 98.6475 84.8274 98.6475C84.8274 98.6475 84.4123 104.142 77.7647 109.002C71.1173 113.863 67.9567 113.867 67.9567 113.867Z" fill="white"/>
<path d="M69.7806 88.9805C69.7806 88.9805 70.0784 83.9713 69.2267 81.0038C68.375 78.0365 66.1529 74.8489 64.2578 73.9219C64.2578 73.9219 64.0934 76.848 65.3993 80.7544C66.7053 84.661 69.7781 89.1124 69.7781 89.1124L69.7806 88.9805Z" fill="white"/>
<path d="M71.702 89.2181C71.702 89.2181 79.1243 86.4415 82.5692 83.1964C86.0142 79.9514 87.1361 78.0163 87.4817 77.1979C87.8272 76.3797 88.3675 74.0328 88.3675 74.0328C88.3675 74.0328 83.3387 75.7053 78.6234 80.3627C73.908 85.0202 71.8513 88.3157 71.702 89.2181Z" fill="#1A1A1A"/>
<path d="M71.6442 97.931C71.6442 97.931 79.4588 96.746 83.5009 94.4289C87.5432 92.1117 89.7771 88.8755 89.8843 88.1578C89.8843 88.1578 84.3867 88.789 79.4171 92.0883C74.4474 95.3874 71.6442 97.931 71.6442 97.931Z" fill="#1A1A1A"/>
<path d="M64.3294 119.659C64.3294 119.659 64.2787 112.693 61.8982 107.045C59.5177 101.398 57.2442 98.8597 57.2442 98.8597C57.2442 98.8597 54.935 102.707 57.3299 109.034C59.7248 115.362 64.3294 119.659 64.3294 119.659Z" fill="#1A1A1A"/>
<path d="M64.1532 119.9C64.0925 119.896 64.0338 119.869 63.9911 119.821C52.1481 106.545 56.7602 98.9592 56.9628 98.6424C57.003 98.5785 57.0717 98.5377 57.1477 98.533C57.2244 98.5276 57.2974 98.5594 57.3457 98.6168C64.0146 106.521 64.5419 117.453 64.58 119.564C64.5819 119.654 64.5334 119.736 64.455 119.778L64.2822 119.872C64.2418 119.894 64.1968 119.903 64.1532 119.9ZM57.2099 99.1996C56.5092 100.711 54.0993 107.851 64.0935 119.218C64.0036 116.505 63.2529 106.584 57.2099 99.1996Z" fill="black"/>
<path d="M68.0017 99.5983C67.9684 99.5961 67.9364 99.5871 67.9055 99.5711L67.4087 99.3089C51.4517 90.3984 52.7667 81.9348 52.8301 81.5786C52.844 81.5024 52.8943 81.4368 52.9651 81.4039C53.0372 81.3732 53.1203 81.3766 53.1853 81.4148C63.2755 87.322 68.0401 98.7854 68.2382 99.2706C68.276 99.3633 68.2517 99.4701 68.1773 99.5367C68.1285 99.5815 68.0646 99.6024 68.0017 99.5983ZM53.272 82.022C53.2193 83.7172 53.84 91.1471 67.5248 98.8276C66.3972 96.3393 61.8075 87.1805 53.272 82.022Z" fill="black"/>
<path d="M69.6527 89.3612C69.6039 89.3746 69.5166 89.3196 69.4744 89.2626C69.4165 89.1818 63.675 81.1051 64.0272 73.9296C64.031 73.8506 64.0731 73.7791 64.1405 73.7375C64.207 73.6968 64.2914 73.6912 64.3616 73.7228C64.6356 73.8435 71.0563 76.8274 70.0264 89.0194C70.0222 89.0741 69.9987 89.126 69.9601 89.1652L69.8395 89.2893C69.7903 89.3396 69.7226 89.3657 69.6527 89.3612ZM64.491 74.3361C64.3799 80.3369 68.4647 86.8953 69.5825 88.5752C70.298 78.5968 65.7582 75.1084 64.491 74.3361Z" fill="black"/>
<path d="M71.4656 89.6502C71.4152 89.6469 71.3663 89.6278 71.3268 89.5939C71.2597 89.5375 71.2294 89.4487 71.2475 89.3624L71.3536 88.8644C71.3595 88.8377 71.3703 88.812 71.3849 88.788C72.9782 86.2311 78.9042 77.5797 88.271 73.6252C88.3417 73.5957 88.4239 73.6025 88.4907 73.643C88.5567 73.6849 88.5979 73.7563 88.6019 73.8336C88.619 74.1994 88.8299 82.8561 71.568 89.6347C71.5353 89.6471 71.5001 89.6524 71.4656 89.6502ZM71.8119 89.0054C86.3632 83.187 87.9392 75.9032 88.1061 74.2159C79.1141 78.1622 73.3982 86.4668 71.8119 89.0054Z" fill="black"/>
<path d="M67.9305 114.452C67.8988 114.45 67.8673 114.442 67.8377 114.427L67.6892 114.351C67.6307 114.322 67.5868 114.269 67.5681 114.205C67.55 114.142 67.5586 114.074 67.5922 114.017C68.2693 112.877 74.5021 102.748 84.7416 98.425C84.813 98.395 84.8952 98.4018 84.9614 98.4429C85.0273 98.4846 85.0685 98.5562 85.0725 98.6335C85.0897 98.9992 85.3005 107.658 68.0329 114.437C68.0002 114.449 67.965 114.455 67.9305 114.452ZM84.5767 99.0158C75.4802 103.011 69.6562 111.609 68.2648 113.831C82.8342 107.991 84.4098 100.704 84.5767 99.0158Z" fill="black"/>
<path d="M71.5687 98.2069C71.5362 98.2048 71.5049 98.1958 71.479 98.1767L71.2954 98.0419C71.2377 97.9999 71.2023 97.9344 71.198 97.8633C71.1942 97.7922 71.2223 97.7232 71.2741 97.6746C71.3628 97.5929 80.2518 89.4401 89.8826 87.7862C89.9592 87.7717 90.0408 87.7987 90.096 87.8578C90.1513 87.9155 90.1731 87.9975 90.1555 88.0756C90.0822 88.3895 88.1871 95.7826 71.7513 98.1633C71.651 98.2019 71.6088 98.2095 71.5687 98.2069ZM89.5632 88.3294C81.4286 89.8813 73.8947 96.0305 72.0349 97.6387C85.7436 95.5637 88.9509 89.8284 89.5632 88.3294Z" fill="black"/>
<path d="M62.5386 137.732C62.3813 137.705 62.2957 137.58 62.3194 137.45L71.246 89.3812C71.2704 89.2523 71.3849 89.1785 71.5245 89.1903C71.6533 89.2148 71.7391 89.3391 71.7153 89.4687L62.7887 137.538C62.7662 137.658 62.6575 137.74 62.5386 137.732Z" fill="black"/>
<path d="M64.9867 123.469C64.8795 123.462 64.7873 123.383 64.7675 123.273L64.0582 119.311C64.0347 119.181 64.1213 119.057 64.2506 119.034C64.3826 119.012 64.5041 119.098 64.5277 119.226L65.2369 123.189C65.2603 123.319 65.1738 123.443 65.0445 123.466C65.0248 123.469 65.0054 123.47 64.9867 123.469Z" fill="black"/>
<path d="M66.4367 116.716C66.4014 116.713 66.3667 116.704 66.3338 116.685C66.2192 116.62 66.1795 116.474 66.2453 116.36L67.5801 114.025C67.6446 113.91 67.7896 113.87 67.9054 113.936C68.0199 114.001 68.0597 114.147 67.9939 114.262L66.6591 116.596C66.6127 116.678 66.5245 116.721 66.4367 116.716Z" fill="black"/>
<path d="M68.1542 106.914C68.0319 106.906 67.9343 106.805 67.9311 106.681L67.7768 99.3627C67.7744 99.2306 67.8786 99.1213 68.01 99.1188C68.1305 99.1037 68.25 99.2206 68.254 99.3521L68.4083 106.67C68.4108 106.802 68.3065 106.912 68.1751 106.914C68.1681 106.914 68.1611 106.914 68.1542 106.914Z" fill="black"/>
<path d="M70.3356 95.1398C70.2228 95.1324 70.1278 95.0457 70.1146 94.9295L69.4311 89.1325C69.4153 89.0023 69.5091 88.8834 69.6401 88.8683C69.7799 88.8531 69.8899 88.9471 69.9042 89.0771L70.5877 94.8743C70.6035 95.0044 70.5096 95.1234 70.3787 95.1384C70.364 95.1402 70.3495 95.1407 70.3356 95.1398Z" fill="black"/>
<path d="M68.9624 103.056C68.9305 103.053 68.8992 103.045 68.8696 103.03C68.7519 102.97 68.7058 102.827 68.7655 102.709L71.2779 97.7796C71.3377 97.6614 71.4822 97.6159 71.5986 97.6755C71.7163 97.7352 71.7624 97.8787 71.7027 97.9962L69.1903 102.926C69.1456 103.013 69.0543 103.062 68.9624 103.056Z" fill="black"/>
<path d="M107.545 125.19C107.545 128.027 105.246 130.326 102.409 130.326C99.5728 130.326 97.2734 128.027 97.2734 125.19C97.2734 122.354 99.5728 120.055 102.409 120.055C105.246 120.055 107.545 122.354 107.545 125.19Z" fill="white"/>
<path d="M100.304 128.647C97.3407 128.647 94.9297 126.236 94.9297 123.273C94.9297 120.31 97.3407 117.898 100.304 117.898C103.268 117.898 105.678 120.31 105.678 123.273C105.678 126.236 103.268 128.647 100.304 128.647ZM100.304 118.375C97.6034 118.375 95.4065 120.572 95.4065 123.273C95.4065 125.974 97.6034 128.17 100.304 128.17C103.004 128.17 105.201 125.974 105.201 123.273C105.201 120.572 103.004 118.375 100.304 118.375Z" fill="black"/>
<path d="M41.1122 54.9346L36.7327 58.2363C36.1558 58.671 35.3359 58.5559 34.9011 57.9792L31.5995 53.5998C31.1647 53.023 31.2798 52.203 31.8565 51.7683L36.236 48.4667C36.8129 48.0319 37.6328 48.147 38.0675 48.7237L41.3692 53.1032C41.8039 53.6799 41.6889 54.4999 41.1122 54.9346Z" fill="#1A1A1A"/>
<path d="M37.2879 46.2117L38.0855 40.6745C38.0855 40.6745 37.4289 40.5944 37.0484 40.8778C36.7102 41.1297 33.4961 43.5553 32.7853 44.0918C32.6569 44.1886 32.5507 44.3042 32.4664 44.4413C32.3462 44.6364 32.2001 44.9447 32.1423 45.3526C32.0372 46.0962 31.4453 50.2793 31.4453 50.2793L36.4845 46.3185C36.4845 46.3185 36.8003 46.0836 37.2879 46.2117Z" fill="#FF8C00"/>
<path d="M35.949 56.8359C35.8768 56.8359 35.8042 56.8304 35.7307 56.82C35.3218 56.7632 34.9599 56.5498 34.7111 56.2199L31.4096 51.8406C31.1608 51.5108 31.0555 51.1039 31.113 50.6943C31.1705 50.2854 31.3839 49.9237 31.7138 49.6749L36.0931 46.3734C36.773 45.8604 37.7432 45.9963 38.2589 46.6775L41.5605 51.0568C41.8085 51.3866 41.914 51.7935 41.8564 52.2024C41.7996 52.612 41.5861 52.9738 41.2563 53.2224L36.8762 56.524C36.6052 56.7279 36.2823 56.8359 35.949 56.8359ZM37.0225 46.5397C36.798 46.5397 36.5727 46.6097 36.38 46.7544L32.0008 50.056C31.7727 50.228 31.6251 50.4782 31.5849 50.7609C31.5455 51.0437 31.6183 51.325 31.7907 51.5538L35.0924 55.9329C35.4479 56.4041 36.1201 56.4985 36.5893 56.143L40.9693 52.8413C41.1974 52.6694 41.3443 52.4192 41.3844 52.1365C41.4239 51.8531 41.3512 51.5718 41.1793 51.3437L37.8777 46.9645C37.6678 46.6866 37.3468 46.5397 37.0225 46.5397Z" fill="black"/>
<path d="M42.4069 46.5568C42.2718 46.5547 42.1664 46.4465 42.1684 46.3149C42.172 46.064 42.0936 45.8242 41.9419 45.6226L38.7054 41.3299C38.5251 41.0901 38.2618 40.9356 37.9645 40.8933C37.6666 40.8531 37.3727 40.9279 37.1322 41.1096L32.8396 44.3454C32.6025 44.524 32.4472 44.7846 32.4037 45.0791C32.3842 45.2089 32.2684 45.2996 32.1333 45.2802C32.003 45.2615 31.913 45.1402 31.9323 45.0099C31.994 44.5899 32.2145 44.2192 32.5526 43.9641L36.8454 40.7284C37.1863 40.4713 37.607 40.3639 38.0311 40.4214C38.4544 40.4803 38.8294 40.7014 39.0866 41.043L42.323 45.3356C42.5393 45.6226 42.6509 45.9635 42.6453 46.3218C42.6432 46.452 42.5372 46.5568 42.4069 46.5568Z" fill="black"/>
<path d="M37.3714 45.9035C37.2079 45.8827 37.1172 45.7621 37.135 45.6318L37.7269 41.4162C37.7449 41.2866 37.8615 41.1957 37.9966 41.2131C38.1269 41.2318 38.2176 41.3524 38.1995 41.4827L37.6078 45.6984C37.591 45.8176 37.4886 45.9035 37.3714 45.9035Z" fill="black"/>
<path d="M41.6058 52.1273C41.4423 52.1066 41.3514 51.9859 41.3694 51.8556L42.1803 46.1257C42.1998 45.9954 42.3265 45.913 42.4498 45.9226C42.5801 45.9414 42.671 46.062 42.653 46.1923L41.8421 51.9223C41.8248 52.0415 41.7229 52.1273 41.6058 52.1273Z" fill="black"/>
<path d="M31.4066 50.838C31.243 50.8171 31.1522 50.6967 31.1702 50.5664L31.9811 44.8365C32.0005 44.7068 32.1246 44.625 32.2506 44.6334C32.3809 44.6521 32.4717 44.7726 32.4537 44.9029L31.6429 50.6328C31.6255 50.7521 31.5237 50.838 31.4066 50.838Z" fill="black"/>
<path d="M197.894 131.162H158.066C157.559 131.162 157.145 130.747 157.145 130.24V101.859C157.145 101.352 157.559 100.938 158.066 100.938H197.894C198.401 100.938 198.816 101.352 198.816 101.859V130.24C198.816 130.747 198.401 131.162 197.894 131.162Z" fill="white"/>
<path d="M168.485 121.61C168.439 121.61 168.392 121.597 168.352 121.569C168.242 121.496 168.213 121.348 168.287 121.239L179.31 104.887C179.385 104.777 179.533 104.748 179.641 104.822C179.751 104.896 179.78 105.044 179.706 105.153L168.683 121.505C168.636 121.573 168.561 121.61 168.485 121.61Z" fill="white"/>
<path d="M182.567 121.611C182.509 121.611 182.449 121.589 182.403 121.546C182.308 121.456 182.303 121.304 182.394 121.209L190.179 112.969L182.398 105.189C182.305 105.096 182.305 104.945 182.398 104.852C182.492 104.758 182.642 104.758 182.736 104.852L190.681 112.796C190.772 112.887 190.774 113.035 190.685 113.128L182.74 121.536C182.693 121.586 182.631 121.611 182.567 121.611Z" fill="white"/>
<path d="M189.036 128.373H164.977C164.845 128.373 164.738 128.266 164.738 128.134C164.738 128.003 164.845 127.896 164.977 127.896H189.036C192.253 127.896 194.87 125.279 194.87 122.064V103.981C194.87 100.765 192.253 98.1486 189.036 98.1486H170.775C170.643 98.1486 170.536 98.0419 170.536 97.9102C170.536 97.7786 170.643 97.6719 170.775 97.6719H189.036C192.517 97.6719 195.347 100.502 195.347 103.981V122.064C195.347 125.543 192.517 128.373 189.036 128.373Z" fill="black"/>
<path d="M200.648 109.037C200.569 109.037 200.491 108.998 200.445 108.925C200.376 108.813 200.409 108.666 200.521 108.597C200.966 108.319 201.411 108.022 201.844 107.714C201.95 107.639 202.102 107.662 202.176 107.769C202.253 107.877 202.228 108.026 202.121 108.102C201.68 108.416 201.227 108.719 200.774 109.001C200.735 109.025 200.69 109.037 200.648 109.037ZM204.131 106.439C204.064 106.439 203.999 106.412 203.952 106.358C203.865 106.26 203.874 106.109 203.973 106.022C204.648 105.427 205.306 104.79 205.93 104.127C206.017 104.032 206.171 104.027 206.267 104.117C206.362 104.207 206.366 104.358 206.276 104.454C205.643 105.128 204.975 105.776 204.289 106.38C204.243 106.42 204.186 106.439 204.131 106.439ZM207.894 102.447C207.843 102.447 207.79 102.431 207.747 102.397C207.643 102.315 207.625 102.165 207.707 102.061C208.26 101.356 208.796 100.611 209.298 99.8498C209.37 99.7382 209.521 99.707 209.629 99.782C209.739 99.8539 209.769 100.002 209.697 100.112C209.187 100.885 208.644 101.641 208.081 102.356C208.034 102.416 207.965 102.447 207.894 102.447ZM210.918 97.8692C210.879 97.8692 210.839 97.8595 210.803 97.8393C210.688 97.7756 210.645 97.6307 210.709 97.5157C211.144 96.727 211.559 95.9085 211.94 95.0818C211.995 94.962 212.138 94.9106 212.256 94.9647C212.375 95.0202 212.428 95.1615 212.372 95.2815C211.987 96.1186 211.568 96.9475 211.128 97.7458C211.083 97.8247 211.002 97.8692 210.918 97.8692ZM213.218 92.8864C213.19 92.8864 213.161 92.8814 213.133 92.871C213.01 92.8246 212.948 92.6867 212.995 92.564C213.316 91.7109 213.611 90.8404 213.872 89.9776C213.911 89.8529 214.037 89.7754 214.17 89.8189C214.296 89.8564 214.367 89.9901 214.329 90.1163C214.065 90.9888 213.767 91.869 213.441 92.7318C213.405 92.8273 213.315 92.8864 213.218 92.8864ZM214.809 87.6318C214.626 87.5957 214.547 87.4676 214.576 87.3394C214.781 86.4613 214.959 85.5596 215.106 84.6601C215.128 84.5311 215.244 84.4439 215.38 84.4633C215.51 84.4847 215.598 84.6073 215.577 84.7376C215.427 85.647 215.248 86.5589 215.042 87.4474C215.016 87.5577 214.917 87.6318 214.809 87.6318ZM215.699 82.2151C215.545 82.2012 215.448 82.0848 215.462 81.9538C215.551 81.0405 215.612 80.1236 215.641 79.2295C215.645 79.0964 215.756 78.9808 215.887 78.9988C216.019 79.0029 216.122 79.1132 216.117 79.2447C216.087 80.1499 216.026 81.0765 215.936 81.9995C215.925 82.123 215.821 82.2151 215.699 82.2151ZM215.883 76.7291C215.754 76.7291 215.649 76.6272 215.645 76.4983C215.616 75.5793 215.556 74.6632 215.469 73.7747C215.455 73.6437 215.551 73.5266 215.682 73.5134C215.842 73.4989 215.929 73.5973 215.943 73.7275C216.032 74.6264 216.093 75.5537 216.122 76.483C216.126 76.6147 216.022 76.7249 215.89 76.7291H215.883ZM215.344 71.268C215.229 71.268 215.128 71.1856 215.108 71.0692C214.957 70.1682 214.776 69.2686 214.566 68.3941C214.535 68.2659 214.614 68.1376 214.742 68.1065C214.87 68.078 214.999 68.1556 215.029 68.2832C215.241 69.1682 215.427 70.0788 215.58 70.9901C215.6 71.1204 215.513 71.243 215.383 71.2646C215.37 71.2673 215.356 71.268 215.344 71.268ZM214.065 65.9324C213.964 65.9324 213.869 65.868 213.837 65.766C213.562 64.897 213.252 64.0329 212.918 63.1978C212.87 63.075 212.93 62.9365 213.051 62.8873C213.176 62.8401 213.314 62.899 213.362 63.0204C213.7 63.8666 214.013 64.7418 214.292 65.622C214.332 65.7474 214.263 65.8819 214.137 65.9213C214.113 65.929 214.088 65.9324 214.065 65.9324ZM212.027 60.84C211.938 60.84 211.854 60.7909 211.812 60.7063C211.416 59.8948 210.981 59.0875 210.521 58.3064C210.453 58.1927 210.491 58.0465 210.605 57.98C210.715 57.9121 210.863 57.9494 210.931 58.0638C211.398 58.8552 211.839 59.6738 212.242 60.497C212.299 60.6148 212.25 60.7583 212.132 60.8159C212.098 60.8325 212.063 60.84 212.027 60.84ZM209.237 56.1157C209.162 56.1157 209.087 56.0803 209.042 56.0138C208.53 55.2827 207.976 54.553 207.392 53.8453C207.309 53.7434 207.323 53.5931 207.425 53.5093C207.528 53.4282 207.678 53.44 207.761 53.5419C208.353 54.2591 208.914 54.9993 209.432 55.7409C209.509 55.8488 209.481 55.9972 209.374 56.0728C209.333 56.1019 209.284 56.1157 209.237 56.1157ZM205.748 51.8861C205.686 51.8861 205.624 51.862 205.576 51.8134C204.951 51.1675 204.289 50.5341 203.607 49.9318C203.508 49.8446 203.499 49.6941 203.586 49.5951C203.673 49.4967 203.823 49.4862 203.923 49.5742C204.615 50.1848 205.287 50.8266 205.92 51.4822C206.012 51.5764 206.009 51.7274 205.915 51.819C205.868 51.864 205.808 51.8861 205.748 51.8861ZM201.637 48.256C201.587 48.256 201.536 48.2409 201.493 48.2082C200.778 47.667 200.027 47.1418 199.26 46.6463C199.149 46.5749 199.117 46.4273 199.188 46.3163C199.26 46.2061 199.407 46.1742 199.518 46.2456C200.295 46.7473 201.056 47.2796 201.781 47.8271C201.887 47.9068 201.907 48.0565 201.827 48.1618C201.78 48.2236 201.709 48.256 201.637 48.256ZM197.034 45.2789C196.995 45.2789 196.955 45.2698 196.919 45.2498C196.141 44.8215 195.322 44.407 194.485 44.0176C194.366 43.9621 194.315 43.82 194.37 43.7009C194.426 43.581 194.564 43.529 194.687 43.5851C195.533 43.9794 196.362 44.3988 197.149 44.8311C197.264 44.895 197.307 45.0398 197.243 45.1556C197.199 45.2345 197.119 45.2789 197.034 45.2789Z" fill="black"/>
<path d="M188.023 38.0397C187.914 38.0397 187.815 37.965 187.79 37.8541C187.595 36.9906 187.302 36.1346 186.921 35.3107C186.866 35.1907 186.917 35.0487 187.038 34.9939C187.155 34.9371 187.298 34.9912 187.354 35.1097C187.749 35.9641 188.052 36.8519 188.256 37.7487C188.285 37.877 188.205 38.0051 188.076 38.0342C188.058 38.0378 188.04 38.0397 188.023 38.0397ZM163.097 34.7562C162.978 34.7562 162.876 34.6675 162.86 34.5463C162.845 34.4152 162.938 34.2967 163.068 34.2808C163.89 34.1825 164.725 33.777 165.361 33.1685C165.454 33.0777 165.608 33.0805 165.698 33.1762C165.789 33.2711 165.786 33.4221 165.691 33.5137C164.981 34.1914 164.047 34.6439 163.127 34.7549C163.117 34.7556 163.107 34.7562 163.097 34.7562ZM160.9 33.5974C160.788 33.5974 160.688 33.5192 160.666 33.4055C160.643 33.2863 160.63 33.1595 160.629 33.025C160.629 32.4132 160.885 31.7069 161.39 30.9232C161.441 30.8427 161.497 30.763 161.553 30.6833C161.63 30.5759 161.776 30.5523 161.886 30.6265C161.993 30.7027 162.018 30.8518 161.941 30.9592C161.89 31.0319 161.84 31.1061 161.792 31.1809C161.336 31.8871 161.106 32.506 161.106 33.0224C161.107 33.1235 161.117 33.2212 161.135 33.3127C161.16 33.4423 161.077 33.5676 160.946 33.5933C160.931 33.5962 160.916 33.5974 160.9 33.5974ZM185.747 33.0846C185.674 33.0846 185.6 33.05 185.553 32.9856C185.04 32.2718 184.448 31.5822 183.793 30.9356C183.698 30.8434 183.699 30.6924 183.79 30.5981C183.884 30.5039 184.034 30.5045 184.128 30.596C184.803 31.2612 185.413 31.9716 185.941 32.707C186.017 32.8144 185.994 32.9634 185.886 33.0403C185.844 33.0702 185.796 33.0846 185.747 33.0846ZM166.944 31.2537C166.916 31.2537 166.887 31.2489 166.859 31.2384C166.736 31.192 166.673 31.054 166.721 30.9307C167.021 30.1351 167.222 29.2577 167.318 28.3228C167.33 28.1918 167.47 28.0872 167.579 28.1101C167.71 28.1233 167.806 28.2404 167.792 28.3714C167.692 29.3471 167.483 30.2654 167.167 31.0999C167.131 31.1948 167.039 31.2537 166.944 31.2537ZM181.866 29.2349C181.818 29.2349 181.769 29.2204 181.726 29.1899C180.98 28.6528 180.202 28.18 179.413 27.7857C179.295 27.7269 179.248 27.5833 179.306 27.4656C179.364 27.3463 179.508 27.2986 179.626 27.3588C180.437 27.7643 181.238 28.2502 182.006 28.8031C182.113 28.88 182.136 29.0291 182.06 29.1358C182.013 29.201 181.94 29.2349 181.866 29.2349ZM163.717 29.1697C163.641 29.1697 163.566 29.1337 163.52 29.0658C163.445 28.957 163.473 28.8087 163.583 28.7346C164.296 28.2459 165.131 27.8129 166.061 27.4475C166.186 27.3992 166.323 27.46 166.37 27.5821C166.418 27.7047 166.358 27.8432 166.235 27.8911C165.339 28.2439 164.536 28.6596 163.851 29.1281C163.81 29.1565 163.764 29.1697 163.717 29.1697ZM168.776 27.1143C168.667 27.1143 168.568 27.0393 168.543 26.9278C168.514 26.7996 168.596 26.672 168.723 26.6429C169.599 26.4462 170.521 26.2979 171.464 26.2022C171.576 26.1765 171.71 26.284 171.724 26.415C171.738 26.546 171.643 26.6631 171.511 26.6763C170.589 26.7705 169.685 26.916 168.829 27.1087C168.811 27.1128 168.793 27.1143 168.776 27.1143ZM176.955 26.8364C176.588 26.7546 176.294 26.6998 176.028 26.6686C175.478 26.6035 174.872 26.5654 174.226 26.5556C174.094 26.5537 173.991 26.4455 173.992 26.3138C173.993 26.1835 174.1 26.0789 174.23 26.0789C174.894 26.0885 175.518 26.1274 176.083 26.1946C176.369 26.2285 176.682 26.2861 177.012 26.3664C177.14 26.3969 177.219 26.5258 177.187 26.6541C177.16 26.7636 177.063 26.8364 176.955 26.8364ZM167.562 25.8433C167.439 25.8433 167.335 25.7496 167.325 25.625C167.251 24.7738 167.109 23.873 166.898 22.9484C166.869 22.8203 166.949 22.692 167.078 22.6629C167.214 22.6352 167.335 22.715 167.364 22.8431C167.579 23.7891 167.725 24.7115 167.799 25.5847C167.811 25.7157 167.713 25.8315 167.583 25.8426C167.576 25.8433 167.569 25.8433 167.562 25.8433ZM166.374 20.4959C166.276 20.4959 166.183 20.4341 166.148 20.335C165.904 19.6254 165.627 18.9157 165.322 18.2248L165.136 17.8104C165.081 17.6904 165.134 17.5491 165.253 17.4936C165.37 17.4404 165.513 17.4916 165.569 17.6108L165.759 18.0315C166.069 18.7355 166.352 19.4576 166.6 20.1798C166.643 20.3045 166.576 20.4404 166.452 20.4834C166.425 20.4917 166.4 20.4959 166.374 20.4959ZM100.489 20.279C100.447 20.279 100.405 20.2685 100.366 20.2449C100.253 20.1778 100.216 20.0315 100.284 19.9179C100.753 19.1333 101.265 18.3571 101.807 17.6108C101.884 17.5034 102.033 17.4798 102.14 17.5574C102.247 17.6351 102.27 17.784 102.193 17.8907C101.66 18.626 101.155 19.3905 100.693 20.1632C100.649 20.2374 100.57 20.279 100.489 20.279ZM103.704 15.8386C103.648 15.8386 103.593 15.82 103.548 15.7812C103.448 15.6946 103.437 15.5441 103.523 15.4444C104.119 14.7542 104.754 14.0756 105.411 13.4277C105.505 13.3348 105.657 13.3368 105.749 13.4298C105.841 13.524 105.84 13.675 105.747 13.7673C105.099 14.4063 104.472 15.0756 103.884 15.7562C103.837 15.811 103.77 15.8386 103.704 15.8386ZM164.065 15.5261C163.984 15.5261 163.905 15.4852 163.861 15.4111C163.393 14.6376 162.877 13.8823 162.328 13.1671C162.248 13.0625 162.267 12.9127 162.371 12.8324C162.476 12.7526 162.627 12.7721 162.705 12.876C163.266 13.6058 163.792 14.3758 164.269 15.1643C164.336 15.2773 164.3 15.4236 164.188 15.4922C164.149 15.515 164.106 15.5261 164.065 15.5261ZM107.606 11.9869C107.538 11.9869 107.471 11.9584 107.424 11.9023C107.338 11.8018 107.352 11.6514 107.452 11.5662C108.145 10.9813 108.876 10.4082 109.626 9.86347C109.731 9.78512 109.881 9.80867 109.959 9.91613C110.036 10.0222 110.013 10.1719 109.906 10.2488C109.166 10.7873 108.444 11.3528 107.76 11.9307C107.715 11.9689 107.661 11.9869 107.606 11.9869ZM160.727 11.1816C160.665 11.1816 160.602 11.1573 160.555 11.1088C159.925 10.4546 159.254 9.83436 158.561 9.26392C158.458 9.18005 158.444 9.02974 158.528 8.92784C158.612 8.82737 158.763 8.81276 158.863 8.89521C159.571 9.4774 160.256 10.1108 160.899 10.7775C160.991 10.8725 160.988 11.0236 160.892 11.115C160.846 11.1594 160.787 11.1816 160.727 11.1816ZM112.04 8.76007C111.961 8.76007 111.883 8.72063 111.838 8.6478C111.768 8.53625 111.802 8.38936 111.914 8.31939C112.689 7.83427 113.493 7.36915 114.303 6.93613C114.416 6.87367 114.563 6.91739 114.626 7.0345C114.687 7.15029 114.644 7.29504 114.527 7.35739C113.728 7.78429 112.933 8.24446 112.166 8.72405C112.127 8.74831 112.084 8.76007 112.04 8.76007ZM156.493 7.70327C156.448 7.70327 156.403 7.69076 156.363 7.66508C155.933 7.38518 155.55 7.15642 155.195 6.9652C154.796 6.75104 154.394 6.54383 153.99 6.34427C153.872 6.28606 153.823 6.14259 153.881 6.02476C153.94 5.90555 154.086 5.85842 154.2 5.91592C154.611 6.11832 155.018 6.32835 155.421 6.54525C155.789 6.74267 156.181 6.97838 156.623 7.26455C156.733 7.33666 156.764 7.48426 156.692 7.59443C156.647 7.66508 156.57 7.70327 156.493 7.70327ZM116.876 6.16956C116.785 6.16956 116.699 6.11761 116.659 6.03032C116.604 5.90965 116.657 5.76831 116.777 5.71423C117.612 5.33458 118.469 4.97691 119.324 4.65116C119.446 4.60616 119.585 4.66577 119.632 4.78983C119.679 4.91246 119.617 5.05041 119.494 5.09754C118.648 5.41902 117.801 5.77241 116.975 6.14811C116.943 6.16272 116.909 6.16956 116.876 6.16956ZM151.594 5.24016C151.564 5.24016 151.533 5.23464 151.504 5.22228C150.668 4.87982 149.808 4.56102 148.946 4.27489C148.821 4.23331 148.753 4.09818 148.794 3.97345C148.836 3.84725 148.971 3.77998 149.095 3.8216C149.969 4.11197 150.84 4.43429 151.685 4.78145C151.806 4.8314 151.865 4.97064 151.815 5.09256C151.777 5.18483 151.689 5.24016 151.594 5.24016ZM122.004 4.21457C121.902 4.21457 121.808 4.14945 121.776 4.0468C121.737 3.92136 121.807 3.78765 121.933 3.74817C122.801 3.47782 123.695 3.22843 124.59 3.00657C124.722 2.97337 124.847 3.05442 124.879 3.18061C124.911 3.30877 124.833 3.43764 124.705 3.46956C123.819 3.68928 122.934 3.93596 122.074 4.20421C122.051 4.21116 122.027 4.21457 122.004 4.21457ZM146.388 3.50975C145.454 3.27556 144.559 3.07459 143.666 2.90471C143.536 2.88056 143.451 2.75507 143.476 2.62621C143.501 2.49791 143.615 2.40991 143.755 2.43631C144.659 2.60818 145.564 2.81115 146.448 3.04053C146.575 3.07387 146.652 3.20345 146.62 3.33093C146.591 3.43835 146.495 3.50975 146.388 3.50975ZM127.331 2.89987C127.218 2.89987 127.118 2.81952 127.096 2.70445C127.073 2.57483 127.159 2.45077 127.288 2.42651C128.189 2.26159 129.107 2.12093 130.016 2.00938C130.145 2.00172 130.265 2.08701 130.282 2.21734C130.297 2.34831 130.205 2.46741 130.074 2.48345C129.175 2.59357 128.267 2.73224 127.374 2.89648C127.36 2.89844 127.345 2.89987 127.331 2.89987ZM140.999 2.48345C140.077 2.37047 139.163 2.28585 138.252 2.23034C138.12 2.22215 138.019 2.10917 138.028 1.97746C138.036 1.84716 138.155 1.75916 138.28 1.75364C139.201 1.80983 140.127 1.89569 141.028 2.00799C141.16 2.02456 141.253 2.1438 141.236 2.27477C141.221 2.39544 141.118 2.48345 140.999 2.48345ZM132.777 2.23391C132.652 2.23391 132.547 2.13682 132.539 2.01009C132.53 1.87837 132.632 1.76543 132.762 1.75703C133.686 1.70027 134.615 1.67188 135.522 1.67188C135.653 1.67188 135.76 1.77862 135.76 1.9103C135.76 2.04187 135.653 2.14861 135.522 2.14861C134.625 2.14861 133.706 2.17701 132.792 2.23391H132.777Z" fill="black"/>
<path d="M63.4321 65.9219C63.4321 65.9219 61.6506 75.684 71.8404 80.1018C72.9518 80.5837 82.1727 80.6719 82.1727 80.6719H137.896" fill="#FF8C00"/>
<path d="M193.387 46.6869H187.019C186.885 46.6869 186.777 46.5788 186.777 46.4454V40.5774C186.777 40.444 186.885 40.3359 187.019 40.3359H193.387C193.52 40.3359 193.628 40.444 193.628 40.5774V46.4454C193.628 46.5788 193.52 46.6869 193.387 46.6869Z" fill="white"/>
<path d="M192.273 46.933H191.853C191.707 46.933 191.589 46.8149 191.589 46.6692C191.589 46.5236 191.707 46.4055 191.853 46.4055H192.273C192.872 46.4055 193.36 45.9177 193.36 45.3189V41.6681C193.36 41.0692 192.872 40.5823 192.273 40.5823H188.123C187.523 40.5823 187.035 41.0692 187.035 41.6681V45.3189C187.035 45.9177 187.523 46.4055 188.123 46.4055H192.02C192.166 46.4055 192.284 46.5236 192.284 46.6692C192.284 46.8149 192.166 46.933 192.02 46.933H188.123C187.232 46.933 186.508 46.2092 186.508 45.3189V41.6681C186.508 40.7786 187.232 40.0547 188.123 40.0547H192.273C193.164 40.0547 193.888 40.7786 193.888 41.6681V45.3189C193.888 46.2092 193.164 46.933 192.273 46.933Z" fill="black"/>
<path d="M193.692 59.7698H186.766V52.8438H193.692V59.7698Z" fill="white"/>
<path d="M194.764 69.0458H185.732C185.6 69.0458 185.492 68.938 185.492 68.8062V66.3098C185.492 66.1781 185.6 66.0703 185.732 66.0703H194.764C194.896 66.0703 195.004 66.1781 195.004 66.3098V68.8063C195.004 68.938 194.896 69.0458 194.764 69.0458Z" fill="#1A1A1A"/>
<path d="M190.216 43.4766L183.348 57.4586C183.348 57.4586 184.297 62.6451 186.278 64.8108L194.405 64.8107C194.405 64.8107 196.93 60.5347 197.144 57.5373L190.216 43.4766ZM190.216 58.4824C189.006 58.4824 188.025 57.5017 188.025 56.2918C188.025 55.0819 189.006 54.101 190.216 54.101C191.426 54.101 192.407 55.0819 192.407 56.2918C192.407 57.5017 191.426 58.4824 190.216 58.4824Z" fill="white"/>
<path d="M186.28 65.0651C186.21 65.0651 186.14 65.0325 186.095 64.9714C183.97 62.071 183.158 57.7088 183.125 57.5247C183.116 57.4762 183.123 57.4264 183.145 57.3826L190.013 43.4008C190.068 43.2867 190.206 43.242 190.319 43.2966C190.432 43.3524 190.478 43.4893 190.422 43.6029L183.589 57.5154C183.706 58.1028 184.548 62.0863 186.465 64.7017C186.539 64.8033 186.517 64.9462 186.416 65.0212C186.374 65.0511 186.326 65.0651 186.28 65.0651Z" fill="black"/>
<path d="M194.463 64.9803C194.416 64.9803 194.371 64.9669 194.33 64.9377C194.228 64.8646 194.204 64.7217 194.277 64.6194C196.139 62.0001 196.826 58.0884 196.917 57.521L190.008 43.6045C189.952 43.4916 189.998 43.354 190.111 43.2982C190.224 43.2404 190.362 43.2876 190.418 43.4011L197.359 57.3828C197.38 57.4246 197.387 57.4712 197.38 57.517C197.355 57.6984 196.714 61.9795 194.649 64.884C194.605 64.9471 194.535 64.9803 194.463 64.9803Z" fill="black"/>
<path d="M194.402 65.0432H186.275C186.149 65.0432 186.047 64.9408 186.047 64.8146C186.047 64.6883 186.149 64.5859 186.275 64.5859H194.402C194.528 64.5859 194.63 64.6883 194.63 64.8146C194.63 64.9408 194.528 65.0432 194.402 65.0432Z" fill="black"/>
<path d="M193.573 69.2764H186.919C186.005 69.2764 185.262 68.5329 185.262 67.6192V67.5009C185.262 66.5873 186.005 65.8438 186.919 65.8438H193.573C194.487 65.8438 195.23 66.5873 195.23 67.5009V67.6192C195.23 68.5329 194.487 69.2764 193.573 69.2764ZM186.919 66.301C186.257 66.301 185.719 66.8392 185.719 67.5009V67.6192C185.719 68.281 186.257 68.8192 186.919 68.8192H193.573C194.235 68.8192 194.773 68.281 194.773 67.6192V67.5009C194.773 66.8392 194.235 66.301 193.573 66.301H186.919Z" fill="black"/>
<path d="M190.219 58.7371C188.885 58.7371 187.801 57.652 187.801 56.3177C187.801 54.9836 188.885 53.8984 190.219 53.8984C191.554 53.8984 192.639 54.9836 192.639 56.3177C192.639 57.652 191.554 58.7371 190.219 58.7371ZM190.219 54.3556C189.138 54.3556 188.258 55.236 188.258 56.3177C188.258 57.3996 189.138 58.2798 190.219 58.2798C191.301 58.2798 192.182 57.3996 192.182 56.3177C192.182 55.236 191.301 54.3556 190.219 54.3556Z" fill="black"/>
<path d="M190.213 54.1801C190.087 54.1801 189.984 54.0778 189.984 53.9515V43.7833C189.984 43.657 190.087 43.5547 190.213 43.5547C190.339 43.5547 190.442 43.657 190.442 43.7833V53.9515C190.442 54.0778 190.339 54.1801 190.213 54.1801Z" fill="black"/>
<path d="M52.5275 15.0636C52.584 15.0865 52.632 15.1306 52.6573 15.1917C52.7091 15.3128 52.6523 15.4529 52.5307 15.5038L46.7017 17.9701C46.58 18.0224 46.4401 17.9657 46.3895 17.8436C46.3376 17.7223 46.3944 17.5823 46.5161 17.5315L52.3452 15.0652C52.4059 15.039 52.471 15.0408 52.5275 15.0636Z" fill="black"/>
<path d="M48.3809 13.3833C48.4374 13.4062 48.4853 13.4502 48.5107 13.5114L50.9749 19.3383C51.0267 19.4594 50.9699 19.5994 50.8483 19.6503C50.7268 19.7028 50.5867 19.646 50.5362 19.5239L48.0719 13.697C48.02 13.5759 48.0768 13.4357 48.1985 13.3849C48.2593 13.3587 48.3243 13.3604 48.3809 13.3833Z" fill="black"/>
<path d="M148.651 35.0428C148.651 27.9422 143.048 22.1328 136.2 22.1328H75.7289C68.8806 22.1328 63.2773 27.9422 63.2773 35.0428V37.1875H148.651V35.0428Z" fill="#1A1A1A"/>
<path d="M126.481 30.1701C126.481 31.675 125.261 32.8949 123.756 32.8949C122.251 32.8949 121.031 31.675 121.031 30.1701C121.031 28.6652 122.251 27.4453 123.756 27.4453C125.261 27.4453 126.481 28.6652 126.481 30.1701Z" fill="white"/>
<path d="M134.754 30.1701C134.754 31.675 133.534 32.8949 132.03 32.8949C130.525 32.8949 129.305 31.675 129.305 30.1701C129.305 28.6652 130.525 27.4453 132.03 27.4453C133.534 27.4453 134.754 28.6652 134.754 30.1701Z" fill="white"/>
<path d="M143.036 30.1701C143.036 31.675 141.816 32.8949 140.311 32.8949C138.806 32.8949 137.586 31.675 137.586 30.1701C137.586 28.6652 138.806 27.4453 140.311 27.4453C141.816 27.4453 143.036 28.6652 143.036 30.1701Z" fill="#FF8C00"/>
<path d="M148.647 52.6736C148.515 52.6736 148.408 52.5669 148.408 52.4352V34.5745C148.408 27.943 143.012 22.5471 136.38 22.5471H108.41C108.279 22.5471 108.172 22.4403 108.172 22.3088C108.172 22.1771 108.279 22.0703 108.41 22.0703H136.38C143.276 22.0703 148.885 27.6796 148.885 34.5745V52.4352C148.885 52.5669 148.778 52.6736 148.647 52.6736Z" fill="black"/>
<path d="M145.248 37.0237H66.922C66.7903 37.0237 66.6836 36.917 66.6836 36.7853C66.6836 36.6536 66.7903 36.5469 66.922 36.5469H145.248C145.38 36.5469 145.487 36.6536 145.487 36.7853C145.487 36.917 145.38 37.0237 145.248 37.0237Z" fill="black"/>
<path d="M140.199 33.0228C138.622 33.0228 137.34 31.7407 137.34 30.164C137.34 28.5874 138.622 27.3047 140.199 27.3047C141.775 27.3047 143.057 28.5874 143.057 30.164C143.057 31.7407 141.775 33.0228 140.199 33.0228ZM140.199 27.7814C138.885 27.7814 137.817 28.85 137.817 30.164C137.817 31.4773 138.885 32.5461 140.199 32.5461C141.512 32.5461 142.58 31.4773 142.58 30.164C142.58 28.85 141.512 27.7814 140.199 27.7814Z" fill="black"/>
<path d="M132.016 33.0228C130.438 33.0228 129.156 31.7407 129.156 30.164C129.156 28.5874 130.438 27.3047 132.016 27.3047C133.592 27.3047 134.874 28.5874 134.874 30.164C134.874 31.7407 133.592 33.0228 132.016 33.0228ZM132.016 27.7814C130.702 27.7814 129.633 28.85 129.633 30.164C129.633 31.4773 130.702 32.5461 132.016 32.5461C133.328 32.5461 134.397 31.4773 134.397 30.164C134.397 28.85 133.328 27.7814 132.016 27.7814Z" fill="black"/>
<path d="M123.832 33.0228C122.256 33.0228 120.973 31.7407 120.973 30.164C120.973 28.5874 122.256 27.3047 123.832 27.3047C125.409 27.3047 126.691 28.5874 126.691 30.164C126.691 31.7407 125.409 33.0228 123.832 33.0228ZM123.832 27.7814C122.518 27.7814 121.45 28.85 121.45 30.164C121.45 31.4773 122.518 32.5461 123.832 32.5461C125.146 32.5461 126.214 31.4773 126.214 30.164C126.214 28.85 125.146 27.7814 123.832 27.7814Z" fill="black"/>
<path d="M94.4492 74.8775C94.3176 74.8775 94.2109 74.7709 94.2109 74.6392V40.9651C94.2109 40.8333 94.3176 40.7266 94.4492 40.7266C94.5809 40.7266 94.6876 40.8333 94.6876 40.9651V74.6392C94.6876 74.7709 94.5809 74.8775 94.4492 74.8775Z" fill="black"/>
<path d="M136.507 80.9461H116.582C116.451 80.9461 116.344 80.8394 116.344 80.7077C116.344 80.576 116.451 80.4693 116.582 80.4693H136.507C138.41 80.4693 140.082 80.0722 141.768 79.2211C141.888 79.1615 142.029 79.2088 142.09 79.3266C142.148 79.4444 142.101 79.5877 141.985 79.6466C140.251 80.5214 138.46 80.9461 136.507 80.9461Z" fill="black"/>
<path d="M100.486 80.9378H82.3166C82.1848 80.9378 82.0781 80.8311 82.0781 80.6994C82.0781 80.5676 82.1848 80.4609 82.3166 80.4609H100.486C100.617 80.4609 100.724 80.5676 100.724 80.6994C100.724 80.8311 100.617 80.9378 100.486 80.9378Z" fill="black"/>
<path d="M71.6624 80.1646C71.634 80.1646 71.6049 80.1597 71.577 80.1487C70.2465 79.6393 68.9436 78.9027 67.595 77.8964C66.1125 76.7903 64.4534 73.723 64.3834 73.5927C63.6467 71.9599 63.2773 70.2329 63.2773 68.4448V34.5745C63.2773 27.6796 68.8867 22.0703 75.7817 22.0703H92.5291C92.6606 22.0703 92.7673 22.1771 92.7673 22.3088C92.7673 22.4403 92.6606 22.5471 92.5291 22.5471H75.7817C69.1501 22.5471 63.7541 27.9431 63.7541 34.5745V68.4448C63.7541 70.1649 64.1097 71.8261 64.8111 73.3819C64.82 73.398 66.4826 76.4708 67.8804 77.5138C69.1937 78.493 70.4586 79.2096 71.7477 79.7037C71.871 79.7508 71.9319 79.8888 71.8848 80.0114C71.8487 80.1064 71.758 80.1646 71.6624 80.1646Z" fill="black"/>
<path d="M138.569 71.521H113.781C113.65 71.521 113.543 71.4143 113.543 71.2828C113.543 71.151 113.65 71.0443 113.781 71.0443H138.331V62.1916C138.331 62.0599 138.438 61.9531 138.569 61.9531C138.701 61.9531 138.808 62.0599 138.808 62.1916V71.2828C138.808 71.4143 138.701 71.521 138.569 71.521Z" fill="black"/>
<path d="M106.715 68.8972C106.583 68.8972 106.477 68.7904 106.477 68.6587V50.3088C106.477 50.1771 106.583 50.0703 106.715 50.0703H136.093C136.225 50.0703 136.332 50.1771 136.332 50.3088C136.332 50.4405 136.225 50.5472 136.093 50.5472H106.953V68.6587C106.953 68.7904 106.847 68.8972 106.715 68.8972Z" fill="black"/>
<path d="M78.0304 72.292H68.543V62.8047H78.0304V72.292Z" fill="#1A1A1A"/>
<path d="M79.7926 70.9878H70.3049C70.1731 70.9878 70.0664 70.881 70.0664 70.7495V61.2619C70.0664 61.1302 70.1731 61.0234 70.3049 61.0234H79.7926C79.9242 61.0234 80.0309 61.1302 80.0309 61.2619V70.7495C80.0309 70.881 79.9242 70.9878 79.7926 70.9878ZM70.5433 70.511H79.5541V61.5002H70.5433V70.511Z" fill="black"/>
<path d="M83.5695 51.6045H74.082V42.1172H83.5695V51.6045Z" fill="#FF8C00"/>
<path d="M81.1637 53.3471H71.676C71.5442 53.3471 71.4375 53.2404 71.4375 53.1087V43.6212C71.4375 43.4895 71.5442 43.3828 71.676 43.3828H81.1637C81.2953 43.3828 81.402 43.4895 81.402 43.6212V53.1087C81.402 53.2404 81.2953 53.3471 81.1637 53.3471ZM71.9144 52.8704H80.9252V43.8596H71.9144V52.8704Z" fill="black"/>
<path d="M117.578 68.6849L133.919 58.1719" stroke="black" stroke-linecap="round" stroke-linejoin="round" stroke-dasharray="70.84 70.84"/>
<path d="M118.68 82.0574C118.68 82.0574 120.115 77.34 120.254 76.9786C120.392 76.6172 121.155 74.4592 120.78 72.7198C120.405 70.9804 120.552 69.4486 119.331 69.0296C118.111 68.6103 117.618 68.5851 117.2 68.9755C116.781 69.3659 116.741 70.618 116.945 71.3999C117.15 72.182 117.958 74.8409 116.519 75.495C115.08 76.149 114.811 75.3322 114.887 74.156C114.963 72.9797 115.218 70.7948 115.888 70.0384C116.557 69.2818 117.513 68.6095 117.627 67.8721C117.741 67.1347 117.211 66.2712 116.268 66.2278C115.324 66.1845 114.655 66.5498 114.655 66.5498C114.655 66.5498 111.751 65.982 110.599 68.4274C110.599 68.4274 108.501 69.501 107.768 71.7836C107.035 74.0663 106.996 76.7769 107.057 77.8295C107.118 78.8822 107.671 81.8573 108.153 82.6964C108.153 82.6964 110.722 81.3147 112.557 81.3468C114.392 81.3789 118.68 82.0574 118.68 82.0574Z" fill="white"/>
<path d="M118.746 82.3391C118.611 82.3095 118.53 82.1823 118.558 82.0536C118.566 82.0191 119.336 78.5349 120.276 76.2834C121.205 74.056 120.177 69.8526 119.125 69.2033C118.56 68.855 117.984 68.7755 117.587 68.9911C117.309 69.1413 117.15 69.4276 117.141 69.7957C117.109 71.058 117.306 71.8667 117.464 72.517C117.673 73.3745 117.824 73.9938 117.276 74.9255C116.561 76.1442 115.803 76.1875 115.51 76.1494C115.132 76.0927 114.832 75.8498 114.738 75.5105C114.584 74.9591 114.403 70.9589 116.242 69.2615C117.151 68.4722 117.797 67.8077 117.224 66.9983C116.806 66.4072 115.8 66.3676 115.121 66.7023C114.102 67.2049 113.423 68.4327 112.927 69.3286C111.151 72.5409 111.63 75.9769 111.635 76.0111C111.655 76.1412 111.564 76.2627 111.434 76.2821C111.303 76.2999 111.183 76.2117 111.163 76.0808C111.141 75.9348 110.653 72.4559 112.51 69.0984C113.036 68.1463 113.757 66.8427 114.91 66.2749C115.762 65.8542 117.037 65.9062 117.613 66.7227C118.069 67.3662 117.967 67.9487 117.657 68.4519C118.167 68.3125 118.785 68.4319 119.375 68.7971C120.715 69.624 121.696 74.1184 120.716 76.4673C119.793 78.6789 119.031 82.1217 119.024 82.1563C118.996 82.2829 118.872 82.3635 118.746 82.3391ZM116.695 69.4994C116.649 69.5398 116.605 69.5785 116.56 69.6166C114.91 71.1407 115.06 74.8909 115.197 75.3818C115.241 75.5364 115.38 75.6485 115.571 75.6763C115.985 75.7302 116.469 75.359 116.864 74.6838C117.314 73.9188 117.196 73.4335 117.001 72.6301C116.836 71.9523 116.631 71.1088 116.664 69.7841C116.666 69.6857 116.677 69.5903 116.695 69.4994Z" fill="black"/>
<path d="M108.872 76.265C108.763 76.244 108.681 76.1497 108.679 76.035C108.643 73.7419 109.188 68.9063 111.503 67.0185C112.383 66.2996 113.428 66.0597 114.617 66.3318C114.746 66.36 114.827 66.4872 114.799 66.6159C114.771 66.7446 114.625 66.8294 114.515 66.7975C113.472 66.5785 112.565 66.7669 111.804 67.3878C109.631 69.1605 109.122 73.8146 109.156 76.027C109.158 76.1593 109.053 76.2676 108.921 76.2695C108.904 76.2698 108.888 76.268 108.872 76.265Z" fill="black"/>
<path d="M107.976 82.9172C107.9 82.9025 107.833 82.8505 107.801 82.7731C106.144 78.7145 106.97 74.4845 107.414 72.212C107.952 69.4595 110.614 67.9174 110.727 67.853C110.842 67.7862 110.986 67.8276 111.052 67.942C111.118 68.0562 111.078 68.2023 110.963 68.2671C110.937 68.2819 108.378 69.7689 107.882 72.3038C107.448 74.5273 106.639 78.6662 108.242 82.593C108.292 82.7149 108.233 82.8539 108.112 82.9039C108.067 82.922 108.02 82.9257 107.976 82.9172Z" fill="black"/>
<path d="M142.377 54.2492C142.377 54.2492 148.055 56.2877 149.452 61.689L144.699 63.5435L142.555 66.6857L140.201 65.8788L136.401 64.2895L133.806 61.3152L133.254 59.9285L133.609 58.7158L134.416 58.1458L135.672 58.8601L138.492 61.5231L140.298 61.599L141.103 61.1231C141.103 61.1231 141.238 58.7841 135.76 57.7208C135.543 57.6786 132.142 58.6298 132.719 56.5335C132.895 55.8934 133.059 55.1162 134.27 54.8004C135.5 54.4799 135.808 53.2292 137.841 53.2626C139.901 53.2965 142.472 54.3185 142.377 54.2492Z" fill="white"/>
<path d="M142.356 66.8533C142.305 66.8648 142.25 66.8601 142.2 66.835C142.185 66.8278 140.621 66.0733 138.305 65.4843C135.839 64.8571 132.836 61.3725 132.979 59.8043C133.042 59.1142 133.318 58.5467 133.735 58.2242C133.147 58.1689 132.62 57.9005 132.379 57.1491C132.073 56.1992 132.798 55.1485 133.645 54.719C134.791 54.1388 136.267 54.3462 137.344 54.4973C141.143 55.0301 143.631 57.5101 143.735 57.6151C143.827 57.7091 143.827 57.8604 143.733 57.9532C143.641 58.0454 143.489 58.0453 143.396 57.9512C143.372 57.926 140.913 55.4793 137.278 54.9694C136.263 54.8271 134.873 54.6288 133.86 55.1454C133.185 55.4867 132.612 56.3152 132.832 57.0036C133.136 57.9491 134.055 57.8316 135.224 57.5806C137.699 57.1271 140.785 59.6764 141.131 60.1309C141.345 60.4103 141.365 60.8036 141.179 61.1316C141.033 61.3886 140.547 61.969 139.14 61.8085C138.066 61.686 137.66 61.1936 137.101 60.5111C136.676 59.9941 136.147 59.3512 135.12 58.6181C134.819 58.4041 134.5 58.3575 134.208 58.4912C133.796 58.6807 133.514 59.1874 133.455 59.8478C133.341 61.0791 136.084 64.4266 138.423 65.0218C140.789 65.6246 142.345 66.3744 142.408 66.4064C142.528 66.4634 142.577 66.6065 142.52 66.7252C142.487 66.7929 142.424 66.8382 142.356 66.8533ZM135.151 58.0842C135.235 58.1243 135.317 58.1727 135.396 58.2295C136.476 58.9992 137.027 59.67 137.47 60.2087C137.995 60.8482 138.311 61.234 139.193 61.335C139.974 61.4244 140.557 61.2599 140.764 60.8963C140.854 60.7354 140.851 60.5488 140.753 60.4209C140.371 59.9217 137.429 57.6611 135.317 58.0484C135.263 58.0598 135.208 58.0722 135.151 58.0842Z" fill="black"/>
<path d="M149.234 60.8435C149.13 60.8668 149.02 60.8184 148.969 60.7189C147.385 57.6006 145.448 55.8176 142.063 54.3606C139.86 53.4117 137.03 52.6081 134.658 54.8432C134.559 54.9335 134.409 54.9288 134.321 54.8334C134.23 54.7373 134.235 54.5865 134.331 54.496C136.906 52.0701 139.916 52.9171 142.251 53.9222C145.75 55.429 147.754 57.2739 149.395 60.5029C149.454 60.6204 149.408 60.7636 149.291 60.8231C149.271 60.833 149.253 60.8393 149.234 60.8435Z" fill="black"/>
<path d="M151.331 61.9258C150.341 61.2141 144.945 68.2171 144.945 68.2171L154.44 78.8702C154.44 78.8702 160.782 86.2809 161.21 86.7796C161.637 87.2784 165.307 91.1263 165.628 95.1166C165.759 96.7502 165.913 97.6818 165.913 97.6818C165.913 97.6818 173.68 99.0357 173.68 89.8437C173.68 87.2784 172.87 85.7253 169.165 79.5973C168.752 78.9156 162.374 71.3089 162.374 71.3089C162.374 71.3089 160.564 68.5608 151.331 61.9258Z" fill="#1A1A1A"/>
<path d="M151.331 61.9258C150.341 61.2141 144.945 68.2171 144.945 68.2171L154.44 78.8702C154.44 78.8702 160.782 86.2809 161.21 86.7796C161.637 87.2784 165.307 91.1263 165.628 95.1166C165.759 96.7502 165.913 97.6818 165.913 97.6818C165.913 97.6818 173.68 99.0357 173.68 89.8437C173.68 87.2784 172.87 85.7253 169.165 79.5973C168.752 78.9156 162.374 71.3089 162.374 71.3089C162.374 71.3089 160.564 68.5608 151.331 61.9258Z" stroke="black" stroke-width="10.01"/>
<path d="M134.985 118.413C135.128 126.464 132.848 137.367 132.848 137.367L166.089 137.402C166.089 137.402 164.165 127.426 165.27 119.553C165.413 118.529 166.873 101.739 165.27 93.5085C165.099 92.6315 163.168 88.2356 160.674 86.7036C160.04 86.3142 152.942 82.1076 143.607 87.9862" fill="#1A1A1A"/>
<path d="M134.985 118.413C135.128 126.464 132.848 137.367 132.848 137.367L166.089 137.402C166.089 137.402 164.165 127.426 165.27 119.553C165.413 118.529 166.873 101.739 165.27 93.5085C165.099 92.6315 163.168 88.2356 160.674 86.7036C160.04 86.3142 152.942 82.1076 143.607 87.9862" stroke="black" stroke-width="10.01"/>
<path d="M146.673 85.5695C146.673 85.5695 139.969 85.581 136.474 90.8302C135.354 92.4932 129.785 101.887 129.785 101.923C129.785 101.958 126.042 105.219 124.012 101.29C123.031 99.3839 120.425 83.5348 120.425 83.5348C120.425 83.5348 113.602 77.7323 105.772 83.9342C105.411 84.2205 106.38 94.7221 106.38 94.7221C106.38 94.7221 106.24 105.768 111.417 113.301C111.721 113.751 114.403 118.207 121.813 120.096C122.982 120.393 127.378 121.436 134.963 118.427C135.791 118.1 142.825 114.785 147.101 101.032" fill="#1A1A1A"/>
<path d="M146.673 85.5695C146.673 85.5695 139.969 85.581 136.474 90.8302C135.354 92.4932 129.785 101.887 129.785 101.923C129.785 101.958 126.042 105.219 124.012 101.29C123.031 99.3839 120.425 83.5348 120.425 83.5348C120.425 83.5348 113.602 77.7323 105.772 83.9342C105.411 84.2205 106.38 94.7221 106.38 94.7221C106.38 94.7221 106.24 105.768 111.417 113.301C111.721 113.751 114.403 118.207 121.813 120.096C122.982 120.393 127.378 121.436 134.963 118.427C135.791 118.1 142.825 114.785 147.101 101.032" stroke="black" stroke-width="10.01" stroke-linecap="round" stroke-linejoin="round"/>
<path d="M142.217 68.5967C142.217 68.5967 141.489 76.0952 141.452 77.0792C141.416 78.063 141.188 81.3487 145.153 81.4652C145.153 81.4652 145.37 79.888 146.215 78.8319C147.06 77.7757 147.752 77.0659 147.752 77.0659C147.752 77.0659 150.434 77.1904 150.727 74.8925C151.021 72.5946 148.945 71.9006 148.225 71.8664C147.505 71.8321 146.775 71.6199 146.775 71.6199C146.775 71.6199 143.05 70.1293 142.217 68.5967Z" fill="white"/>
<path d="M142.319 68.5905C142.319 68.5905 140.751 65.7468 141.613 63.5939C142.475 61.4409 144.452 60.524 146.152 60.3058C147.852 60.0876 151.111 60.4138 153.292 61.9374C153.292 61.9374 157.545 62.3094 158.981 64.065C160.416 65.8205 160.064 68.0975 159.925 68.7958C159.786 69.4942 158.752 72.3917 158.766 73.0102C158.766 73.0102 158.581 73.5895 159.996 74.4584C161.411 75.3273 163.13 76.4642 163.716 78.673C164.302 80.8819 164.788 84.7571 161.294 86.7024C157.8 88.6476 153.888 87.028 153.383 86.5765L153.049 86.5875C153.049 86.5875 149.452 88.7317 147.025 86.4731C144.598 84.2143 145.2 80.953 145.575 80.183C145.951 79.4131 146.883 77.7449 147.616 77.2113C147.616 77.2113 150.063 77.4689 150.549 75.5142C151.035 73.5596 149.94 72.2763 149.071 71.9427C148.203 71.6091 147.483 71.8477 147.483 71.8477C147.483 71.8477 143.481 71.0122 142.319 68.5905Z" fill="#FF8C00"/>
<path d="M148.546 77.3122C148.218 77.3586 147.874 77.3475 147.532 77.2706C146.964 77.1438 146.455 76.8497 146.062 76.4209C145.973 76.3235 145.98 76.1728 146.078 76.0834C146.172 75.9959 146.326 76.0007 146.414 76.0981C146.741 76.4552 147.163 76.6993 147.637 76.8051C148.902 77.0877 150.17 76.2883 150.456 75.0181C150.594 74.4029 150.484 73.7711 150.147 73.2386C149.808 72.7061 149.284 72.3371 148.669 72.1988C147.872 72.0196 147.046 72.2594 146.469 72.847C146.377 72.9412 146.225 72.9424 146.132 72.8492C146.039 72.756 146.037 72.605 146.13 72.5112C146.824 71.8085 147.812 71.517 148.773 71.7331C150.3 72.076 151.264 73.5964 150.921 75.1231C150.656 76.3064 149.682 77.1509 148.546 77.3122Z" fill="black"/>
<path d="M148.566 76.0221C148.493 76.0324 148.417 76.0089 148.362 75.9524L146.869 74.4135C146.815 74.3574 146.791 74.2789 146.805 74.2021C146.82 74.1258 146.871 74.0612 146.942 74.0294L148.985 73.1135C149.105 73.0609 149.247 73.113 149.3 73.2342C149.355 73.3538 149.301 73.4952 149.181 73.5493L147.449 74.3253L148.704 75.6198C148.796 75.7146 148.793 75.8654 148.698 75.9573C148.662 75.994 148.614 76.0153 148.566 76.0221Z" fill="black"/>
<path d="M145.184 81.695C143.762 81.7644 142.705 81.3896 142.025 80.5829C140.754 79.0807 141.267 76.6487 141.29 76.5459L142.088 68.5509C142.1 68.4211 142.211 68.3221 142.349 68.3377C142.479 68.3506 142.576 68.4673 142.562 68.5987L141.76 76.6211C141.75 76.6707 141.271 78.9557 142.39 80.2766C142.97 80.9631 143.895 81.2802 145.14 81.2206C145.272 81.2144 145.383 81.3157 145.389 81.4479C145.395 81.5716 145.305 81.678 145.184 81.695Z" fill="black"/>
<path d="M141.07 75.5292C140.979 75.5422 140.885 75.5421 140.791 75.5295C140.227 75.4537 139.83 74.9353 139.906 74.373L140.487 70.0277C140.562 69.4649 141.085 69.0641 141.643 69.144C141.924 69.1813 142.133 69.2877 142.265 69.4594C142.396 69.632 142.443 69.8611 142.406 70.1407C142.386 70.2709 142.275 70.3615 142.137 70.3453C142.007 70.328 141.916 70.208 141.932 70.0775C141.953 69.9276 141.937 69.8172 141.884 69.749C141.833 69.6815 141.731 69.6363 141.581 69.6162C141.276 69.5761 141.001 69.7912 140.961 70.0909L140.38 74.4362C140.338 74.7382 140.551 75.0167 140.854 75.0572C141.001 75.0763 141.144 75.0379 141.262 74.947C141.379 74.8571 141.454 74.7282 141.473 74.5834C141.49 74.4536 141.614 74.3606 141.741 74.3776C141.872 74.3948 141.963 74.5148 141.946 74.6453C141.91 74.9164 141.771 75.1578 141.553 75.3259C141.409 75.4358 141.243 75.5048 141.07 75.5292Z" fill="black"/>
<path d="M151.032 87.6611C150.714 87.7061 150.364 87.7276 149.982 87.7172C147.88 87.6635 145.491 86.3376 145.089 82.7785C144.654 78.9493 147.582 76.9997 147.612 76.9808C147.726 76.9073 147.871 76.9408 147.942 77.0504C148.014 77.1614 147.983 77.3085 147.873 77.3807C147.761 77.4532 145.162 79.1958 145.563 82.7249C146.027 86.8203 149.071 87.2166 149.993 87.2411C152.791 87.3076 153.591 85.5903 153.624 85.5178C153.676 85.3978 153.819 85.3431 153.937 85.3958C154.058 85.4487 154.113 85.5886 154.061 85.7086C154.029 85.7833 153.326 87.337 151.032 87.6611Z" fill="black"/>
<path d="M158.726 87.7065C156.566 88.0118 154.388 87.6156 153.139 86.6833C153.033 86.6046 153.011 86.4556 153.09 86.35C153.168 86.2439 153.32 86.2223 153.424 86.3014C154.606 87.1828 156.739 87.5568 158.809 87.2118C160.672 86.9185 162.185 86.1237 162.962 85.0312C163.85 83.7809 164.129 81.8439 163.725 79.718C163.49 78.4795 163.069 77.431 162.472 76.602C161.975 75.9121 161.283 75.5019 160.551 75.0678C160.12 74.8116 159.673 74.5466 159.262 74.2169C158.958 73.9735 158.636 73.667 158.551 73.234C158.444 72.6988 158.678 72.0625 158.864 71.5518C158.902 71.4499 158.937 71.3533 158.968 71.2628L159.103 70.872C159.275 70.3767 159.453 69.8637 159.571 69.3494C159.908 67.8691 159.874 66.502 159.474 65.2875C158.583 62.5879 153.329 62.1692 153.275 62.1649C153.236 62.1621 153.196 62.1489 153.162 62.1256C150.427 60.3124 145.982 59.6478 143.285 61.6744C140.696 63.6159 141.871 66.7807 141.922 66.9148C141.954 67.1127 142.437 70.4474 147.905 71.6826C148.034 71.712 148.115 71.839 148.086 71.9679C148.056 72.0966 147.928 72.1763 147.801 72.1481C141.985 70.8347 141.481 67.1836 141.462 67.0287C141.455 67.0297 140.126 63.4473 142.999 61.2921C145.852 59.1552 150.498 59.8159 153.374 61.6946C154.023 61.7513 158.983 62.2758 159.926 65.1382C160.355 66.4361 160.392 67.8888 160.037 69.455C159.913 69.9961 159.73 70.521 159.553 71.0288L159.421 71.4158C159.388 71.5101 159.352 71.6104 159.312 71.716C159.145 72.1708 158.938 72.7368 159.019 73.1405C159.074 73.4238 159.324 73.6551 159.56 73.8445C159.946 74.1531 160.377 74.4093 160.794 74.6575C161.537 75.0978 162.304 75.5529 162.858 76.3236C163.497 77.2096 163.947 78.3212 164.194 79.6294C164.446 80.953 164.67 83.4509 163.351 85.308C162.501 86.5047 160.872 87.3703 158.882 87.683C158.83 87.6911 158.778 87.6991 158.726 87.7065Z" fill="black"/>
</g>
</g>
</svg>
