<svg width="119" height="119" viewBox="0 0 119 119" fill="none" xmlns="http://www.w3.org/2000/svg">
<path fill-rule="evenodd" clip-rule="evenodd" d="M54.9796 76.2458C55.2586 75.6198 55.2999 75.3926 55.4326 75.2523C59.41 70.9858 62.0027 65.8125 64.8716 60.8231C65.3394 60.0088 65.7127 59.1364 66.0968 58.2749C66.939 56.3801 66.8949 54.4384 66.5363 52.4271C66.0858 49.8997 63.0784 48.2542 60.7451 49.2219C58.9621 49.9604 57.3537 50.8663 56.2214 52.4627C55.6156 53.3156 54.9685 54.1576 54.4874 55.0803C51.8745 60.0912 49.0116 64.991 47.4472 70.4823C47.3629 70.7768 47.2009 71.0492 47.0021 71.494C46.4342 71.2352 45.8403 71.0629 45.3611 70.7275C43.9882 69.7688 42.6377 68.7731 41.3267 67.729C40.6751 67.2116 40.1039 66.5843 39.5439 65.9652C38.7263 65.0587 38.3681 63.9608 38.6096 62.7647C38.8364 61.6455 39.0567 60.4861 39.5344 59.4637C43.1291 51.7672 47.0674 44.2415 51.8309 37.2034C54.8208 32.7868 58.1618 28.6062 61.3752 24.3415C63.4542 21.5821 65.5509 18.8354 67.7073 16.1364C68.6186 14.9963 69.6891 13.9835 70.7128 12.9371C70.9173 12.7276 71.2332 12.6261 71.495 12.4739C78.2947 16.2234 85.0549 19.9511 91.9168 23.7349C91.996 25.5071 91.3815 27.1933 90.8114 28.8438C89.4472 32.8018 87.9747 36.725 86.4971 40.6432C84.9476 44.7581 83.5169 48.9315 81.7105 52.9334C79.7294 57.3183 77.4344 61.5646 75.1705 65.8172C73.7439 68.4976 72.1896 71.1155 70.5764 73.688C69.6379 75.1837 68.5458 76.6016 67.3812 77.9321C66.2665 79.2062 64.7947 79.5667 63.0934 79.1821C60.3277 78.5574 57.8089 77.3414 54.9796 76.2458ZM65.6734 46.8299C68.1305 48.4051 70.9484 48.8224 73.9478 48.1666C74.3554 48.0781 74.7696 47.9685 75.1832 47.9534C76.8785 47.89 78.1821 47.0226 79.253 45.844C80.8035 44.1343 82.1131 42.2344 83.0054 40.0857C84.25 37.0974 84.5385 34.0237 83.7008 30.8755C83.088 28.5797 81.9175 26.5497 79.9954 25.2032C75.7535 22.2316 71.6909 21.6646 66.7977 24.5879C62.4706 27.1692 60.3071 31.2845 59.35 36.069C59.1334 37.1483 59.3304 38.3718 59.578 39.4749C60.3389 42.8644 62.4834 45.1875 65.6734 46.8299Z" fill="white"/>
<path fill-rule="evenodd" clip-rule="evenodd" d="M90.1409 2.41179C92.8786 6.75987 93.7773 15.3626 92.2063 21.9413C91.7344 21.8383 91.203 21.8378 90.7929 21.6136C85.1035 18.505 79.428 15.3695 73.7595 12.2231C73.4211 12.0355 73.1685 11.6906 72.8847 11.4274C75.9911 7.32108 84.2256 3.01627 90.1409 2.41179Z" fill="#98D26F"/>
<path fill-rule="evenodd" clip-rule="evenodd" d="M47.1515 80.1869C47.3835 77.1512 48.1732 74.4447 49.0268 71.7568C50.8356 66.0533 53.1428 60.5625 56.0811 55.3416C57.186 53.3772 58.6346 51.7646 60.7023 50.7947C63.1389 49.6506 64.7481 50.5014 65.1948 53.2007C65.5506 55.3479 65.0404 57.3772 64.0405 59.2641C63.1128 61.0217 62.155 62.7766 61.0527 64.428C57.6812 69.4812 54.1494 74.4164 49.7356 78.6408C49.2074 79.1452 48.6523 79.6268 48.0808 80.0825C47.9523 80.1846 47.7018 80.1335 47.1515 80.1869Z" fill="#FF9500"/>
<path fill-rule="evenodd" clip-rule="evenodd" d="M29.2128 113.608C28.6183 111.27 28.1598 109.345 27.6363 107.438C27.139 105.621 26.4734 103.843 26.0705 102.009C25.5378 99.5895 25.8304 97.2306 27.0059 94.9949C27.9323 93.2326 29.3135 92.0344 31.1693 91.3805C33.789 90.46 36.5047 90.2991 39.2357 90.5351C40.8675 90.6748 42.2316 91.4971 43.2092 92.8249C44.6439 94.7773 45.7964 96.8903 46.4853 99.2291C47.4009 102.338 46.6407 105.072 44.3461 107.279C43.3092 108.276 42.0188 109.048 40.748 109.747C39.8456 110.243 38.7953 110.497 37.7854 110.768C34.8786 111.546 31.863 111.96 29.2128 113.608ZM39.4734 94.9791C35.9823 93.062 29.2992 95.4263 29.5704 100.903C29.6823 103.172 30.2426 105.426 30.6969 107.667C30.91 108.722 31.7802 109.304 32.8111 109.022C35.4232 108.309 38.0613 107.536 40.2291 105.841C43.2864 103.451 43.1111 97.6413 40.004 95.3073C39.8394 95.1829 39.6515 95.0882 39.4734 94.9791Z" fill="#FF9500"/>
<path fill-rule="evenodd" clip-rule="evenodd" d="M24.9261 64.1094C25.1566 62.5712 25.7939 61.5014 26.4899 60.4669C31.0566 53.6692 36.2508 47.3717 41.7837 41.3508C42.63 40.4308 43.5914 39.5961 44.5971 38.853C45.763 37.9897 47.0462 37.7435 48.4885 38.8057C48.2873 39.2996 48.1457 39.775 47.9151 40.2023C44.7763 46.0074 41.6147 51.8 38.4907 57.6124C38.0832 58.3711 37.6841 59.0394 36.8373 59.3938C33.1684 60.9375 29.5166 62.5184 25.8534 64.0732C25.6808 64.146 25.4555 64.0939 24.9261 64.1094Z" fill="#FF9500"/>
<path fill-rule="evenodd" clip-rule="evenodd" d="M72.5652 90.4262C72.5196 90.0088 72.4904 89.5904 72.4269 89.1768C71.8776 85.6599 71.3291 82.1415 70.7642 78.6278C70.6097 77.6749 70.6475 76.8231 71.1614 75.9215C74.5361 70.0112 77.8498 64.0663 81.1908 58.1364C81.3427 57.8683 81.5657 57.6394 81.8081 57.3234C83.34 57.5494 83.8405 58.6902 83.8836 59.9671C83.924 61.0983 83.7694 62.2821 83.4562 63.3715C82.1552 67.8961 80.8699 72.4314 79.3696 76.8926C78.2026 80.3605 76.7435 83.7306 75.3755 87.1292C74.8745 88.371 74.2069 89.5298 73.3099 90.5167C73.0616 90.4865 72.8134 90.4564 72.5652 90.4262Z" fill="#FF9500"/>
<path fill-rule="evenodd" clip-rule="evenodd" d="M53.3508 77.7438C56.6801 78.9382 59.7104 80.0241 62.8973 81.1666C62.4211 82.7453 61.2638 83.8189 60.486 85.2401C59.9522 85.2314 59.4043 85.3503 58.9512 85.1934C56.0691 84.1971 53.5473 82.517 50.8255 80.938C51.1554 79.3825 52.4634 78.7814 53.3508 77.7438Z" fill="#FFD500"/>
<path fill-rule="evenodd" clip-rule="evenodd" d="M38.157 67.4741C41.0793 69.7596 43.6164 71.7436 46.3176 73.8548C46.0551 75.0532 46.0886 76.4118 45.2697 77.5672C41.3871 76.2525 37.9538 74.1212 36.2684 71.91C36.5496 71.2477 36.8717 70.4933 37.1934 69.7378C37.4674 69.0903 37.7421 68.4452 38.157 67.4741Z" fill="#FFD500"/>
<path fill-rule="evenodd" clip-rule="evenodd" d="M60.1443 95.5693C58.8303 95.3122 57.7458 95.0996 56.5263 94.8611C56.5306 92.0339 57.2392 89.4745 57.7281 86.7149C58.7601 86.8777 59.6477 87.0173 60.6761 87.1812C60.8772 89.9872 60.6438 92.6831 60.1443 95.5693Z" fill="#98D26F"/>
<path fill-rule="evenodd" clip-rule="evenodd" d="M41.4804 89.0074C40.3184 88.8618 39.5805 88.3808 38.9898 87.3425C40.0616 84.4882 42.3396 82.2625 43.5492 79.4308C45.4019 80.3437 45.8938 81.2781 45.1814 82.5951C44.0014 84.7799 42.7026 86.9022 41.4804 89.0074Z" fill="#98D26F"/>
<path fill-rule="evenodd" clip-rule="evenodd" d="M27.6294 77.3645C30.0868 75.7684 31.9588 73.9633 34.4309 72.7172C35.0773 73.4018 35.6896 74.0478 36.3996 74.798C34.5317 76.904 32.5527 78.6433 30.289 80.3234C29.7899 79.8486 29.331 79.4601 28.9339 79.0207C28.5318 78.5777 28.19 78.0828 27.6294 77.3645Z" fill="#98D26F"/>
<path fill-rule="evenodd" clip-rule="evenodd" d="M46.6529 82.7115C47.8608 82.3724 48.8406 81.9145 49.9989 82.7875C48.9278 85.7103 47.3914 88.3855 46.1475 91.0411C44.7241 91.3927 43.9048 90.7186 42.9396 90.0549C43.7967 87.4717 45.386 85.2615 46.6529 82.7115Z" fill="#98D26F"/>
<path fill-rule="evenodd" clip-rule="evenodd" d="M51.4684 83.4239C52.2546 83.9266 52.6761 84.1946 53.1591 84.5034C52.7066 87.3493 51.3897 89.8361 50.6238 92.4707C49.5644 92.9223 48.7523 92.5901 47.7945 91.8554C48.9595 89.1781 50.1379 86.4765 51.4684 83.4239Z" fill="#98D26F"/>
<path fill-rule="evenodd" clip-rule="evenodd" d="M40.6091 77.6206C41.2168 77.9112 41.7283 78.1557 42.4231 78.4874C40.8754 81.2295 39.0462 83.5663 37.4146 86.2779C36.5861 85.6511 35.9569 85.1756 35.2051 84.6069C36.7513 82.0053 38.6762 79.8982 40.6091 77.6206Z" fill="#98D26F"/>
<path fill-rule="evenodd" clip-rule="evenodd" d="M33.3879 83.2166C32.7937 82.6863 32.3319 82.2746 31.9125 81.899C31.9546 81.6039 31.9112 81.3349 32.0244 81.2155C33.5356 79.6294 35.0527 78.0466 36.6018 76.4991C37.4227 75.6808 37.5272 75.7206 38.8882 76.7528C37.7205 78.8436 35.2762 81.7583 33.3879 83.2166Z" fill="#98D26F"/>
<path fill-rule="evenodd" clip-rule="evenodd" d="M54.6731 94.3406C53.7444 94.0766 53.1504 93.9081 52.4423 93.7064C52.4051 93.3044 52.2443 92.8718 52.351 92.5225C53.0564 90.2341 53.8197 87.9608 54.6206 85.5047C55.1445 85.6641 55.7535 85.6728 56.0216 85.9788C56.3052 86.3032 56.433 86.9479 56.3381 87.3907C55.8581 89.6215 55.2837 91.8299 54.6731 94.3406Z" fill="#98D26F"/>
<path fill-rule="evenodd" clip-rule="evenodd" d="M80.4571 41.707C78.6792 46.4816 71.5846 49.0885 66.4091 45.8403C65.3535 45.1772 64.2046 44.5614 63.3697 43.6702C60.6027 40.7232 60.0311 37.1732 61.4525 33.4967C62.3867 31.0785 63.9042 28.9197 65.9979 27.2288C68.9627 24.8363 72.318 24.1553 75.9962 24.7456C77.3934 24.9685 78.4843 25.7054 79.3878 26.8075C82.6827 30.8224 83.2869 35.2077 81.282 39.9727C81.0399 40.5498 80.7452 41.1039 80.4571 41.707ZM65.8919 32.3571C64.2513 35.214 65.004 39.7691 67.5633 41.8257C68.2683 42.3914 69.1926 42.8427 70.0784 42.9981C73.1571 43.5375 76.6189 41.7708 78.0472 39.0874C79.3635 36.616 78.9062 32.6814 77.0279 30.4992C76.7596 30.1882 76.4233 29.9108 76.0706 29.7045C72.6706 27.71 67.8313 28.9781 65.8919 32.3571Z" fill="#FF9500"/>
<path fill-rule="evenodd" clip-rule="evenodd" d="M32.3972 107.305C31.8484 105.063 31.3021 102.98 31.1901 100.782C31.0071 97.1702 35.7917 94.9815 38.4554 95.8702C38.9038 96.0196 39.3187 96.4589 39.6095 96.8653C40.9121 98.6954 41.1336 100.704 40.4669 102.831C40.1648 103.791 39.4679 104.426 38.6562 104.919C37.9451 105.35 37.1893 105.737 36.4085 106.02C35.1558 106.473 33.9386 107.08 32.3972 107.305Z" fill="#FFD500"/>
<path fill-rule="evenodd" clip-rule="evenodd" d="M76.5094 38.368C75.3829 40.3679 72.0981 41.9534 69.8185 41.578C68.9489 41.4345 68.2851 40.9588 67.8458 40.1927C67.0534 38.8139 66.6197 37.3314 66.6077 35.7346C66.5795 31.7638 71.7167 28.9088 74.6985 30.382C75.155 30.6081 75.6581 30.8499 75.9777 31.2238C77.2727 32.7325 77.5231 36.5728 76.5094 38.368Z" fill="#FFD500"/>
<path fill-rule="evenodd" clip-rule="evenodd" d="M49.4574 37.4445C51.4352 34.6786 53.3094 32.0395 55.2014 29.4132C58.9969 24.1431 63.0335 19.0722 67.2557 14.1323C69.8071 11.1471 72.6853 8.6356 75.863 6.40194C79.5107 3.83743 83.5507 2.16223 87.8675 1.12301C88.3701 1.00188 88.8987 0.93952 89.4169 0.929809C90.4377 0.908587 91.313 1.30528 91.732 2.25183C92.4506 3.87362 93.2661 5.49545 93.6784 7.20328C95.2845 13.8597 94.927 20.4711 93.0207 27.0488C90.9487 34.1992 88.4025 41.1772 85.6184 48.0723C84.8343 50.014 83.9707 51.9225 83.1649 53.8551C82.9282 54.4243 82.7634 55.0224 82.6112 55.4741C82.705 55.7413 82.7095 55.889 82.7794 55.9325C85.4028 57.5629 85.8951 59.9751 85.2326 62.7645C84.6035 65.4092 83.9995 68.0658 83.2106 70.665C81.4467 76.4752 79.5913 82.2596 77.1777 87.8411C76.6418 89.0765 75.8761 90.2177 75.1588 91.368C74.888 91.8017 74.4911 92.1739 74.0939 92.5053C73.0893 93.3449 72.0434 93.1428 71.5483 91.9813C71.2653 91.3152 71.077 90.5937 70.9579 89.8777C70.6829 88.2258 70.4889 86.5593 70.2408 84.9034C69.9623 83.046 69.6597 81.1931 69.3507 79.2299C65.5058 80.1428 63.5263 82.806 62.099 86.0038C61.8698 86.5198 62.0553 87.223 62.0561 87.8382C62.0633 90.3486 62.1251 92.8623 62.0658 95.3716C62.0342 96.6064 61.4643 96.9839 60.2021 96.8355C56.1254 96.3566 52.2002 95.2823 48.3628 93.8462C47.524 93.532 46.6966 92.9265 45.5966 93.4713C46.1379 94.4972 46.7 95.4851 47.1934 96.5083C50.1378 102.607 48.1694 108.225 42.0021 111.122C40.5921 111.785 39.0488 112.171 37.5491 112.629C36.5494 112.935 35.5256 113.174 34.4997 113.381C32.258 113.833 30.4035 114.914 28.9218 116.655C28.5859 117.049 28.2548 117.499 27.8186 117.74C27.5211 117.905 26.9634 117.884 26.6731 117.704C26.3813 117.523 26.1024 117.025 26.1301 116.694C26.1908 115.974 26.4354 115.269 26.6315 114.564C27.0953 112.898 27.0353 111.254 26.492 109.617C25.9298 107.929 25.3626 106.24 24.8377 104.539C24.181 102.418 23.8431 100.258 24.1569 98.0295C24.8554 93.0777 27.7062 90.0925 32.6319 89.2557C33.7614 89.0641 34.9233 89.0683 36.0689 88.9588C36.4469 88.9221 36.8176 88.8162 37.4276 88.6959C35.5793 86.3267 33.0601 85.1096 31.1586 83.1953C29.2602 81.2827 27.2373 79.4863 25.7741 76.9815C26.2655 76.4865 26.6258 75.9657 27.1191 75.6536C29.2372 74.3073 31.3655 72.9695 33.5554 71.7439C34.236 71.3611 34.7508 70.9383 35.0911 70.2691C35.5212 69.43 35.9338 68.5832 36.3699 67.7474C36.9665 66.6028 37.251 65.4452 36.9669 64.1233C36.7746 63.2246 36.8523 62.2683 36.7965 61.0664C34.8964 61.8668 33.1656 62.5787 31.4513 63.3254C29.8179 64.0346 28.2132 64.8082 26.5722 65.4955C25.9051 65.775 25.185 65.9769 24.4681 66.0797C23.3595 66.2422 22.6314 65.5265 22.7681 64.4129C22.9867 62.6131 23.6777 60.98 24.7457 59.5181C26.104 57.6589 27.4103 55.7523 28.8702 53.9758C32.2581 49.8518 35.7049 45.777 39.1715 41.7181C40.0524 40.6887 41.0521 39.7486 42.0669 38.8475C44.7549 36.4624 45.6967 36.2869 49.4574 37.4445ZM54.9677 76.2295C57.7958 77.3255 60.3146 78.5414 63.0831 79.1667C64.7844 79.5513 66.2558 79.1896 67.3708 77.9167C68.5342 76.5865 69.6276 75.1683 70.566 73.6726C72.1792 71.1 73.7335 68.4821 75.1601 65.8018C77.4228 61.5495 79.7187 57.3017 81.7001 52.918C83.5065 48.9161 84.9372 44.7426 86.4867 40.6278C87.9644 36.7095 89.4371 32.7876 90.801 28.8283C91.3711 27.1779 91.9856 25.4917 91.9064 23.7194C85.0446 19.9357 78.2843 16.208 71.4846 12.4585C71.2225 12.6095 70.9069 12.7122 70.7024 12.9216C69.6787 13.9681 68.6071 14.9812 67.697 16.1209C65.5406 18.8199 63.4439 21.5666 61.3649 24.3261C58.1526 28.5904 54.8101 32.7701 51.8205 37.188C47.0567 44.2249 43.1187 51.7518 39.524 59.4483C39.0463 60.4706 38.8248 61.6304 38.5992 62.7493C38.3577 63.9454 38.7159 65.0433 39.5335 65.9498C40.0923 66.5692 40.6648 67.1962 41.3164 67.7136C42.627 68.7565 43.9778 69.7534 45.3507 70.7121C45.8299 71.0475 46.4238 71.2198 46.9917 71.4786C47.189 71.0329 47.3526 70.7614 47.4369 70.4669C49.0024 64.9752 51.8653 60.0755 54.477 55.0649C54.9581 54.1422 55.6056 53.3014 56.211 52.4472C57.3433 50.8508 58.9517 49.945 60.7347 49.2065C63.0683 48.2399 66.0757 49.8854 66.5259 52.4117C66.8845 54.423 66.9286 56.3647 66.0865 58.2594C65.7032 59.1194 65.3298 59.9918 64.8612 60.8077C61.9923 65.7971 59.3996 70.9704 55.4222 75.2368C55.288 75.3763 55.2478 75.6032 54.9677 76.2295ZM90.1314 2.40501C84.2149 3.00983 75.9804 7.31464 72.8752 11.4206C73.159 11.6839 73.4116 12.0287 73.75 12.2163C79.4185 15.3627 85.094 18.4983 90.7834 21.6068C91.1935 21.831 91.7249 21.8315 92.1968 21.9346C93.7678 15.3558 92.8691 6.75309 90.1314 2.40501ZM47.1401 80.1746C47.69 80.1201 47.9409 80.1724 48.0693 80.0703C48.6409 79.6145 49.1963 79.1341 49.7241 78.6286C54.1391 74.4038 57.6709 69.4686 61.0412 64.4158C62.1436 62.7643 63.0999 61.0086 64.0291 59.2518C65.0278 57.3653 65.5392 55.3356 65.1834 53.1885C64.7367 50.4892 63.1278 49.6395 60.6909 50.7824C58.6232 51.7523 57.1745 53.365 56.0696 55.3293C53.1314 60.5503 50.8242 66.0411 49.0154 71.7445C48.1618 74.4325 47.3709 77.1393 47.1401 80.1746ZM29.2063 113.603C31.858 111.956 34.8721 111.54 37.7774 110.761C38.7873 110.491 39.8364 110.237 40.74 109.74C42.0123 109.042 43.3024 108.269 44.3381 107.273C46.6327 105.065 47.3929 102.332 46.4773 99.2227C45.7887 96.8851 44.6351 94.7724 43.2012 92.8185C42.2247 91.4904 40.861 90.6692 39.2277 90.5287C36.4967 90.2927 33.781 90.4536 31.1613 91.3741C29.3051 92.0268 27.9239 93.225 26.9979 94.9885C25.8224 97.2242 25.5298 99.5831 26.0625 102.003C26.4643 103.837 27.1309 105.614 27.6283 107.431C28.1522 109.34 28.6118 111.265 29.2063 113.603ZM24.9213 64.0999C25.4507 64.0845 25.676 64.1365 25.8486 64.0637C29.5118 62.5089 33.1648 60.9277 36.8325 59.3843C37.6789 59.0288 38.0784 58.3616 38.4859 57.6029C41.6099 51.7906 44.7715 45.9979 47.9103 40.1928C48.1409 39.7655 48.2825 39.2901 48.4837 38.7962C47.0414 37.734 45.7582 37.9802 44.5923 38.8435C43.5866 39.5866 42.6252 40.4214 41.7789 41.3413C36.2464 47.3634 31.0506 53.6601 26.4851 60.4575C25.7891 61.4919 25.1518 62.5617 24.9213 64.0999ZM72.5548 90.4213C72.8031 90.4514 73.0513 90.4816 73.2992 90.5105C74.1962 89.5237 74.8639 88.3649 75.3648 87.123C76.7328 83.7245 78.1919 80.3543 79.3589 76.8865C80.8581 72.4256 82.1448 67.8911 83.4455 63.3653C83.7583 62.2747 83.9133 61.0922 83.8729 59.961C83.8295 58.6829 83.3293 57.5432 81.7975 57.3173C81.5542 57.6348 81.332 57.8621 81.1802 58.1303C77.8392 64.0601 74.5254 70.005 71.1508 75.9153C70.6368 76.8169 70.5986 77.6676 70.7535 78.6217C71.3184 82.1354 71.8669 85.6538 72.4162 89.1707C72.4812 89.5851 72.5093 90.0038 72.5548 90.4213ZM53.3472 77.7148C52.4609 78.7521 51.1518 79.3536 50.821 80.9106C53.5425 82.4884 56.0643 84.1685 58.9467 85.166C59.401 85.3226 59.9477 85.204 60.4815 85.2127C61.2589 83.7903 62.4166 82.7178 62.8928 81.1392C59.7056 79.9954 56.6764 78.9092 53.3472 77.7148ZM38.1529 67.4408C37.738 68.4119 37.4634 69.057 37.1894 69.7045C36.8673 70.4588 36.5443 71.2147 36.2643 71.8767C37.95 74.0891 41.383 76.2192 45.2656 77.5339C46.0849 76.3797 46.0513 75.021 46.3135 73.8215C43.6123 71.7103 41.0753 69.7263 38.1529 67.4408ZM60.134 95.5556C60.6334 92.6693 60.8668 89.9734 60.6661 87.1686C59.6368 87.0062 58.75 86.8651 57.7181 86.7023C57.2288 89.4607 56.5206 92.0213 56.5162 94.8485C57.7354 95.0859 58.82 95.2985 60.134 95.5556ZM41.4688 88.9952C42.691 86.8899 43.9889 84.7691 45.1689 82.5843C45.8813 81.2674 45.3906 80.3326 43.5367 79.42C42.3274 82.2529 40.0492 84.4775 38.9774 87.3317C39.5701 88.3682 40.308 88.8492 41.4688 88.9952ZM27.6235 77.3628C28.1841 78.0811 28.5263 78.5772 28.9268 79.0194C29.3255 79.4597 29.7829 79.8473 30.282 80.3221C32.5453 78.6408 34.5247 76.9027 36.3926 74.7968C35.6826 74.0465 35.0714 73.4001 34.4239 72.7159C31.9542 73.9613 30.081 75.7668 27.6235 77.3628ZM46.6504 82.6936C45.3836 85.2437 43.7931 87.4542 42.9371 90.0371C43.9036 90.7005 44.7228 91.3746 46.145 91.0232C47.389 88.3676 48.9262 85.691 49.9965 82.7696C48.8394 81.8964 47.8583 82.3546 46.6504 82.6936ZM51.4581 83.4007C50.1277 86.4533 48.9496 89.1561 47.7839 91.8311C48.7417 92.5658 49.5538 92.8979 50.6132 92.4464C51.3791 89.8118 52.696 87.325 53.1485 84.479C52.6659 84.1714 52.244 83.9022 51.4581 83.4007ZM40.5967 77.6111C38.6649 79.8884 36.7385 81.9947 35.1915 84.5978C35.9433 85.1665 36.5737 85.6416 37.401 86.2688C39.033 83.5584 40.861 81.2219 42.4095 78.4783C41.7162 78.1474 41.2032 77.9021 40.5967 77.6111ZM33.3807 83.2C35.269 81.7418 37.7137 78.8282 38.8811 76.7362C37.5201 75.7041 37.4155 75.6642 36.5947 76.4826C35.0444 78.0303 33.5284 79.6128 32.0173 81.199C31.9052 81.318 31.9474 81.5874 31.9053 81.8824C32.3248 82.258 32.7854 82.6701 33.3807 83.2ZM54.6652 94.3249C55.2773 91.8151 55.8514 89.6055 56.3302 87.375C56.4251 86.9322 56.2973 86.2875 56.0137 85.9631C55.7455 85.6571 55.1362 85.6473 54.6127 85.489C53.8106 87.9455 53.0482 90.2172 52.3431 92.5068C52.2352 92.8565 52.3972 93.2887 52.4344 93.6908C53.1425 93.8924 53.7365 94.0609 54.6652 94.3249Z" fill="#1D262D"/>
<path fill-rule="evenodd" clip-rule="evenodd" d="M65.6622 46.8049C62.4719 45.1613 60.3265 42.8398 59.5665 39.4488C59.3189 38.3457 59.1206 37.1225 59.3385 36.0428C60.2952 31.2572 62.4591 27.1431 66.7861 24.5618C71.6793 21.6384 75.742 22.2054 79.9839 25.177C81.9059 26.5235 83.0765 28.5536 83.6893 30.8494C84.527 33.9975 84.2384 37.0712 82.9939 40.0595C82.1016 42.2083 80.7932 44.1078 79.2414 45.8179C78.1709 46.9976 76.867 47.8639 75.1716 47.9273C74.7581 47.9423 74.3438 48.0519 73.9363 48.1405C70.9372 48.7974 68.1196 48.3813 65.6622 46.8049ZM80.4479 41.6888C80.736 41.0857 81.0307 40.5316 81.274 39.9542C83.2789 35.1891 82.6751 30.805 79.3797 26.7889C78.4754 25.6884 77.3853 24.9499 75.9882 24.727C72.3103 24.138 68.9547 24.8177 65.9899 27.2103C63.8974 28.9008 62.3787 31.0599 61.4445 33.4782C60.0231 37.1546 60.5947 40.7046 63.3617 43.6516C64.1962 44.5417 65.3455 45.1586 66.401 45.8217C71.5754 49.0703 78.6697 46.4622 80.4479 41.6888Z" fill="#1D262D"/>
<path fill-rule="evenodd" clip-rule="evenodd" d="M39.4654 94.9666C39.6434 95.0757 39.8314 95.1704 39.996 95.2948C43.1031 97.6288 43.2784 103.439 40.221 105.829C38.0533 107.523 35.4163 108.296 32.8031 109.01C31.7714 109.293 30.902 108.709 30.6888 107.655C30.2345 105.414 29.6743 103.159 29.5624 100.89C29.2915 95.415 35.9743 93.0495 39.4654 94.9666ZM32.3871 107.289C33.9282 107.062 35.1457 106.457 36.3981 106.003C37.1788 105.72 37.9347 105.333 38.6458 104.902C39.4563 104.409 40.1532 103.774 40.4564 102.814C41.1232 100.687 40.9028 98.6778 39.5991 96.848C39.3098 96.4424 38.8937 96.0034 38.445 95.8529C35.7813 94.9642 30.9967 97.1528 31.1796 100.764C31.292 102.964 31.8383 105.047 32.3871 107.289Z" fill="#1D262D"/>
<path fill-rule="evenodd" clip-rule="evenodd" d="M65.8804 32.3431C67.8201 28.9652 72.6594 27.6972 76.0595 29.6917C76.4122 29.898 76.7485 30.1754 77.0168 30.4864C78.8951 32.6685 79.352 36.602 78.0361 39.0746C76.6078 41.758 73.1463 43.5258 70.0673 42.9853C69.1826 42.8296 68.2572 42.3786 67.5522 41.8129C64.9925 39.7551 64.2395 35.1988 65.8804 32.3431ZM76.4988 38.3584C77.5125 36.5631 77.2621 32.7228 75.9687 31.215C75.649 30.8411 75.1459 30.5992 74.6894 30.3732C71.7076 28.9 66.5704 31.755 66.5986 35.7258C66.6106 37.3226 67.0432 38.8054 67.8367 40.1839C68.2761 40.95 68.9398 41.4257 69.8095 41.5692C72.0875 41.9438 75.3712 40.3586 76.4988 38.3584Z" fill="#1D262D"/>
</svg>
