<svg width="343" height="211" viewBox="0 0 343 211" fill="none" xmlns="http://www.w3.org/2000/svg">
<path d="M274.202 58.5279C271.141 56.5684 266.901 56.5313 263.923 58.6112C261.096 60.5877 259.661 64.1832 259.785 67.6296C259.909 71.0755 261.581 75.2872 264.704 77.0967L273.87 77.0611C276.798 74.9092 278.777 71.4436 278.915 67.8132C279.054 64.1832 277.262 60.4862 274.202 58.5279Z" fill="#FFE594"/>
<path d="M269.155 60.3039C269.072 59.3991 268.996 58.6674 268.934 58.1622C268.873 57.6582 268.829 57.3806 268.809 57.3828C268.789 57.3851 268.794 57.665 268.821 58.1724C268.854 58.7352 268.898 59.4559 268.948 60.3202C269.062 62.1316 269.211 64.6341 269.333 67.401C269.455 70.1672 269.526 72.6735 269.572 74.488C269.597 75.3529 269.617 76.0748 269.634 76.6376C269.652 77.1454 269.67 77.4268 269.691 77.4268C269.711 77.4268 269.73 77.1454 269.747 76.6376C269.765 76.1293 269.775 75.3946 269.778 74.4857C269.785 72.6682 269.747 70.1588 269.625 67.3889C269.503 64.6171 269.321 62.1134 269.155 60.3039Z" fill="#FFCB78"/>
<path d="M267.966 57.4448C267.466 57.7262 266.781 58.2124 266.052 58.9399C264.587 60.3738 263.077 62.9646 262.714 66.1106C262.54 67.6834 262.699 69.1846 262.932 70.5181C263.178 71.8523 263.504 73.0286 263.81 74.0038C264.118 74.9794 264.407 75.7527 264.613 76.2856C264.82 76.8177 264.949 77.1059 264.967 77.0987C264.987 77.0926 264.894 76.7904 264.721 76.2477C264.547 75.7046 264.29 74.9214 264.008 73.944C263.729 72.9665 263.427 71.7932 263.198 70.4711C262.981 69.1528 262.836 67.6732 263.006 66.145C263.361 63.0699 264.803 60.5245 266.2 59.0839C267.6 57.6091 268.81 57.1202 268.766 57.0562C268.762 57.0475 268.688 57.0763 268.552 57.1399C268.418 57.21 268.208 57.2918 267.966 57.4448Z" fill="#FFCB78"/>
<path d="M273.855 61.6386C273.221 60.368 272.425 59.3557 271.623 58.6399C270.798 57.948 270.004 57.5761 269.445 57.3731C269.164 57.2746 268.937 57.2239 268.782 57.1951C268.627 57.172 268.545 57.1671 268.543 57.1762C268.539 57.2019 268.863 57.2538 269.404 57.4807C269.939 57.7094 270.705 58.1048 271.486 58.7952C272.24 59.503 273.012 60.5161 273.611 61.7541C274.187 63.0088 274.646 64.4782 274.857 66.0631C275.308 69.241 274.747 72.1662 274.07 74.1427C273.413 76.1431 272.691 77.2527 272.755 77.2845C272.772 77.2944 272.944 77.016 273.243 76.5029C273.385 76.2434 273.541 75.9155 273.729 75.5386C273.888 75.1489 274.1 74.7153 274.266 74.2105C275.001 72.2302 275.605 69.2591 275.146 66.0215C274.931 64.4074 274.458 62.9152 273.855 61.6386Z" fill="#FFCB78"/>
<path d="M263.392 84.6565C263.573 86.5834 265.192 88.057 267.128 88.057H272.1C274.032 88.057 275.648 86.5906 275.834 84.6686L276.452 78.3114L262.785 78.2031L263.392 84.6565Z" fill="#5C94B9"/>
<path d="M262.949 79.7771C262.949 79.7771 268.966 80.1509 276.231 80.5913L276.452 78.3114L262.785 78.2031L262.949 79.7771Z" fill="#4B83A8"/>
<path d="M264.469 86.9618C265.151 87.6469 266.094 88.0669 267.128 88.0669H272.1C274.032 88.0669 275.648 86.6005 275.834 84.6785L276.086 82.0938C276.086 82.0938 273.516 87.7211 264.469 86.9618Z" fill="#4B83A8"/>
<path d="M276.058 76.5938H263.109C262.495 76.5938 261.996 77.0921 261.996 77.7064V78.7089C261.996 79.3232 262.494 79.8216 263.109 79.8216H276.058C276.673 79.8216 277.171 79.3235 277.171 78.7089V77.7064C277.171 77.0921 276.673 76.5938 276.058 76.5938Z" fill="#F84558"/>
<path d="M259.652 66.2041C257.648 65.9753 257.555 67.4338 260.175 67.3315C261.12 67.461 261.966 66.4646 259.652 66.2041Z" fill="#FFCB78"/>
<path d="M260.202 62.8505C257.948 61.92 258.468 63.8757 260.819 64.1798C261.399 63.9613 261.598 63.4803 260.202 62.8505Z" fill="#FFCB78"/>
<path d="M264.482 59.3736C264.387 58.6063 264.505 58.8407 263.853 57.558C262.103 55.8341 263.247 60.7635 264.482 59.3736Z" fill="#FFCB78"/>
<path d="M261.727 59.9177C259.519 58.8398 262.175 63.1493 262.902 61.4371C262.568 60.7391 262.754 60.9239 261.727 59.9177Z" fill="#FFCB78"/>
<path d="M265.925 55.4688C265.212 55.8603 265.566 57.5786 266.585 58.2008C267.344 58.2288 266.774 55.6259 265.925 55.4688Z" fill="#FFCB78"/>
<path d="M270.765 57.5002C271.067 56.8272 271.396 56.5049 270.907 55.6418C270.117 55.1052 269.233 58.6397 270.765 57.5002Z" fill="#FFCB78"/>
<path d="M273.709 58.272C273.951 57.7956 274.756 57.6445 274.034 56.9525C273.339 56.4204 270.984 60.0315 273.709 58.272Z" fill="#FFCB78"/>
<path d="M275.319 60.3805C275.572 60.4032 277.318 59.8098 276.835 58.7399C276.751 58.4676 273.875 59.7779 275.319 60.3805Z" fill="#FFCB78"/>
<path d="M276.603 62.9308C276.735 63.0811 279.514 62.3551 278.852 61.4314C278.842 61.0754 275.34 62.1124 276.603 62.9308Z" fill="#FFCB78"/>
<path d="M278.37 64.1865C275.995 64.391 277.461 66.1203 279.636 64.9042C279.892 64.4509 279.785 64.0941 278.37 64.1865Z" fill="#FFCB78"/>
<path d="M279.074 67.2858C276.869 66.42 277.403 68.3329 279.663 68.5973C280.261 68.5416 280.514 67.9012 279.074 67.2858Z" fill="#FFCB78"/>
<path d="M279.094 70.4802C277.438 68.748 275.491 70.3 279.318 71.6205C279.772 71.5827 280.147 71.0699 279.094 70.4802Z" fill="#FFCB78"/>
<path d="M277.346 72.7766C275.79 71.0228 275.493 73.1637 277.3 74.2036C278.462 74.8917 278.46 73.6685 277.346 72.7766Z" fill="#FFCB78"/>
<path d="M260.587 75.7783C260.781 75.9025 263.806 74.8258 263.056 73.9408C262.835 73.6147 259.285 74.955 260.587 75.7783Z" fill="#FFCB78"/>
<path d="M260.34 71.6759C258.907 72.2008 259.004 73.8672 261.418 72.353C262.09 71.8668 261.979 70.9681 260.34 71.6759Z" fill="#FFCB78"/>
<path d="M259.344 69.1723C256.061 69.8215 259.897 71.2254 260.811 69.5185C260.757 69.2844 260.534 69.0549 259.344 69.1723Z" fill="#FFCB78"/>
<path d="M262.905 67.9752C261.647 67.8154 260.193 69.1265 262.798 69.0988C263.398 69.2598 265.293 67.8025 262.905 67.9752Z" fill="#FFCB78"/>
<path d="M264.48 65.7475C264.327 66.4432 266.769 66.7337 266.845 65.518C266.754 65.2253 264.867 65.2741 264.48 65.7475Z" fill="#FFCB78"/>
<path d="M266.398 62.6576C265.27 62.1395 264.15 62.8712 266.038 63.6994C266.833 64.1967 268.457 63.5207 266.398 62.6576Z" fill="#FFCB78"/>
<path d="M267.27 59.7969C265.496 61.2864 270.646 62.7974 267.27 59.7969V59.7969Z" fill="#FFCB78"/>
<path d="M266.539 70.2243C266.734 70.1705 267.857 69.894 267.337 69.1366C266.921 68.5878 263.307 70.5484 266.539 70.2243Z" fill="#FFCB78"/>
<path d="M267.489 73.7801C264.946 73.5154 263.664 76.9954 267.714 74.3516C267.655 74.3558 268.02 74.1161 267.489 73.7801Z" fill="#FFCB78"/>
<path d="M263.417 72.1384C261.222 72.7508 263.814 74.3517 264.624 72.3104C264.482 72.0222 264.02 71.9082 263.417 72.1384Z" fill="#FFCB78"/>
<path d="M263.69 63.7327C261.454 62.8715 261.867 64.8412 264.335 64.9892C265.084 64.9525 265.15 64.0875 263.69 63.7327Z" fill="#FFCB78"/>
<path d="M271.573 63.3552C271.117 63.2726 269.331 65.2079 271.011 64.9174C272.001 64.5731 273.333 63.1124 271.573 63.3552Z" fill="#FFCB78"/>
<path d="M271.632 67.1731C269.469 67.5283 271.701 69.3488 272.788 67.4961C272.683 67.1931 272.246 67.022 271.632 67.1731Z" fill="#FFCB78"/>
<path d="M272.272 71.0814C270.4 70.2312 270.273 71.9832 272.799 72.3907C273.205 72.2933 273.76 71.7037 272.272 71.0814Z" fill="#FFCB78"/>
<path d="M270.678 74.7817C270.077 74.9744 271.638 77.5179 272.28 76.2375C272.235 76.1068 271.906 74.754 270.678 74.7817Z" fill="#FFCB78"/>
<path d="M270.932 60.6134C270.727 60.7217 270.514 60.8031 270.266 61.4227C270.508 62.8364 273.726 59.8715 270.932 60.6134Z" fill="#FFCB78"/>
<path d="M274.542 64.3703C272.484 64.4241 273.397 66.4059 275.674 64.9899C275.811 64.5097 275.696 64.2136 274.542 64.3703Z" fill="#FFCB78"/>
<path d="M273.609 61.0193C273.127 61.2181 272.364 61.3545 272.558 62.0286C273.272 63.0628 276.9 60.2728 273.609 61.0193Z" fill="#FFCB78"/>
<path d="M275.339 69.5886C272.825 68.7774 272.677 70.44 275.088 70.6555C276.159 71.0342 277.558 69.859 275.339 69.5886Z" fill="#FFCB78"/>
<path d="M273.014 73.4947C272.579 74.2006 273.76 75.6064 274.978 75.7227C275.709 75.4322 273.817 73.205 273.014 73.4947Z" fill="#FFCB78"/>
<path d="M266.35 143.328C266.35 143.328 266.065 152.824 257.634 158.372H252.316C252.316 158.372 254.397 144.715 266.35 143.328Z" fill="#F2E6D6"/>
<path d="M254.604 158.379H252.316C252.316 158.379 253.193 152.628 257.074 148.211C257.144 153.756 254.604 158.379 254.604 158.379Z" fill="#D8CDC0"/>
<path d="M253.073 158.37H244.181C244.181 158.37 239.46 122.13 257.145 102.352C257.145 102.352 265.293 131.69 253.073 158.37Z" fill="#F2E6D6"/>
<path d="M245.875 158.374H244.181C244.181 158.374 242.917 148.669 244.148 136.562C247.052 144.773 245.875 158.374 245.875 158.374Z" fill="#D8CDC0"/>
<path d="M244.554 158.368H235.662C226.1 142.81 236.376 116.18 236.376 116.18C247.506 134.372 244.554 158.368 244.554 158.368Z" fill="#F2E6D6"/>
<path d="M238.249 158.751C238.225 158.751 238.201 158.749 238.177 158.745C237.971 158.705 237.837 158.506 237.876 158.301C241.227 140.847 236.057 116.507 236.005 116.264C235.961 116.059 236.091 115.858 236.295 115.813C236.5 115.769 236.701 115.899 236.746 116.104C236.799 116.349 242.001 140.837 238.62 158.444C238.586 158.625 238.427 158.751 238.249 158.751Z" fill="#FEF8EC"/>
<path d="M242.281 158.375H235.662C232.072 152.533 231.278 145.131 231.687 138.164C242.176 147.009 242.281 158.375 242.281 158.375Z" fill="#D8CDC0"/>
<path d="M241.503 158.371H232.611C218.515 149.095 218.039 133.219 218.039 133.219C238.024 135.538 241.503 158.371 241.503 158.371Z" fill="#F2E6D6"/>
<path d="M235.661 158.754C235.491 158.754 235.336 158.637 235.293 158.464C231.93 144.616 217.952 133.631 217.811 133.522C217.646 133.393 217.615 133.155 217.744 132.99C217.872 132.825 218.11 132.795 218.275 132.923C218.418 133.034 232.603 144.178 236.029 158.285C236.079 158.489 235.954 158.694 235.751 158.743C235.721 158.751 235.691 158.754 235.661 158.754Z" fill="#FEF8EC"/>
<path d="M249.431 157.777C249.227 157.777 249.059 157.614 249.053 157.409C248.472 138.26 256.69 102.629 256.773 102.27C256.82 102.066 257.024 101.937 257.228 101.987C257.431 102.034 257.558 102.238 257.511 102.442C257.428 102.798 249.232 138.335 249.81 157.386C249.817 157.595 249.652 157.77 249.443 157.776C249.439 157.777 249.435 157.777 249.431 157.777Z" fill="#FEF8EC"/>
<path d="M255.363 158.754C255.321 158.754 255.277 158.747 255.234 158.731C255.037 158.66 254.936 158.443 255.007 158.246C258.685 148.142 266.065 143.068 266.14 143.018C266.312 142.901 266.549 142.947 266.666 143.12C266.783 143.293 266.738 143.528 266.564 143.646C266.492 143.695 259.309 148.642 255.719 158.505C255.663 158.659 255.518 158.754 255.363 158.754Z" fill="#FEF8EC"/>
<path d="M264.092 157.391C269.861 174.436 264.184 194.31 251.437 206.475H240.388C227.641 194.311 221.964 174.436 227.733 157.391H264.092Z" fill="#F2E6D6"/>
<path d="M236.226 207.234H255.594C256.968 207.234 258.093 209.058 258.093 210.432H233.727C233.726 209.058 234.851 207.234 236.226 207.234Z" fill="#F2E6D6"/>
<path d="M264.093 157.773H227.734C227.525 157.773 227.355 157.604 227.355 157.394C227.355 157.185 227.525 157.016 227.734 157.016H264.093C264.303 157.016 264.472 157.185 264.472 157.394C264.472 157.604 264.303 157.773 264.093 157.773Z" fill="#FEF8EC"/>
<path d="M266.351 172.546H242.281C242.072 172.546 241.902 172.377 241.902 172.168C241.902 171.958 242.072 171.789 242.281 171.789H266.351C266.56 171.789 266.729 171.958 266.729 172.168C266.729 172.377 266.56 172.546 266.351 172.546Z" fill="#FEF8EC"/>
<path d="M264.222 185.867H251.051C250.841 185.867 250.672 185.698 250.672 185.488C250.672 185.279 250.841 185.109 251.051 185.109H264.222C264.431 185.109 264.601 185.279 264.601 185.488C264.601 185.698 264.431 185.867 264.222 185.867Z" fill="#FEF8EC"/>
<path d="M247.013 180.5H226.293C226.083 180.5 225.914 180.33 225.914 180.121C225.914 179.911 226.083 179.742 226.293 179.742H247.013C247.222 179.742 247.392 179.911 247.392 180.121C247.392 180.33 247.222 180.5 247.013 180.5Z" fill="#FEF8EC"/>
<path d="M304.865 88.0625H31.3203V95.4857H304.865V88.0625Z" fill="white"/>
<path d="M305.093 95.7248H31.0898V87.8438H305.093V95.7248ZM31.5482 95.267H304.634V88.302H31.5482V95.267Z" fill="#1B2E4E"/>
<path d="M42.2925 97.3072H238.683V210.44H240.555V95.4375H40.4219V210.44H42.2925V97.3072Z" fill="#1B2E4E"/>
<path d="M94.8319 97.3072H295.49V210.44H297.361V95.4375H92.9609V210.44H94.8319V97.3072Z" fill="#1B2E4E"/>
<path d="M230.706 95.4844L304.863 95.4844V88.0612L230.706 88.0612V95.4844Z" fill="#F2E6D6"/>
<path d="M305.093 95.7248H230.477V87.8438H305.093V95.7248ZM230.935 95.267H304.634V88.302H230.935V95.267Z" fill="#1B2E4E"/>
<path d="M203.894 88.0946H188.24L182.562 58.5327C181.652 53.7938 185.284 49.3984 190.111 49.3984C193.798 49.3984 196.965 52.015 197.66 55.634L203.894 88.0946Z" fill="#1B2E4E"/>
<path d="M204.322 85.4688H162.863V88.1054H204.322V85.4688Z" fill="#E1CAC2"/>
<path d="M196.868 85.1484H162.863V85.787H196.868V85.1484Z" fill="#361E4D"/>
<path d="M142.882 76.4619H232.259C234.644 76.4619 236.644 74.6619 236.893 72.29L242.547 18.3145C242.835 15.565 240.678 13.1719 237.914 13.1719H148.536C146.151 13.1719 144.151 14.9727 143.903 17.3442L138.248 71.3197C137.961 74.0684 140.117 76.4619 142.882 76.4619Z" fill="#F84558"/>
<path d="M232.255 76.8365H142.878C141.453 76.8365 140.088 76.2295 139.134 75.1709C138.18 74.1124 137.719 72.693 137.867 71.2762L143.521 17.3007C143.791 14.7289 145.945 12.7891 148.532 12.7891H237.909C239.334 12.7891 240.698 13.3961 241.652 14.4543C242.606 15.5128 243.068 16.9326 242.92 18.3494L237.265 72.3249C236.996 74.8971 234.842 76.8365 232.255 76.8365ZM148.532 13.5465C146.334 13.5465 144.504 15.1943 144.275 17.3795L138.62 71.355C138.494 72.5586 138.887 73.7648 139.697 74.6638C140.507 75.5633 141.666 76.0791 142.877 76.0791H232.255C234.452 76.0791 236.283 74.4313 236.511 72.2465L242.166 18.271C242.291 17.0671 241.899 15.8608 241.089 14.9618C240.278 14.0623 239.12 13.5469 237.908 13.5469H148.532V13.5465Z" fill="#1B2E4E"/>
<path d="M233.925 69.8542C234.507 69.8542 234.994 69.4149 235.055 68.8362L240.37 18.0991C240.441 17.4208 240.239 16.7672 239.802 16.2502C239.313 15.6712 238.564 15.375 237.806 15.375H148.539C147.272 15.375 146.217 16.3252 146.085 17.5856L140.741 68.5999C140.67 69.2706 141.196 69.8546 141.871 69.8546H233.925V69.8542Z" fill="white"/>
<path d="M142.652 88.0727H229.369V85.0305C229.369 84.1939 228.691 83.5156 227.854 83.5156H144.168C143.331 83.5156 142.652 84.1939 142.652 85.0305V88.0727Z" fill="#F84558"/>
<path d="M219.705 51.0114L222.294 50.8277L222.583 47.8931L220.06 47.3882C219.95 46.3229 219.653 45.2788 219.155 44.3123L220.931 42.3051L219.124 40.1032L216.926 41.595C216.085 40.9307 215.138 40.4581 214.141 40.174L214.066 37.5143L211.224 37.3359L210.632 39.954C209.592 40.1104 208.564 40.4588 207.604 41.0103L205.724 39.2625L203.509 41.2117L204.872 43.4159C204.192 44.3081 203.694 45.3026 203.378 46.3411L200.788 46.5247L200.5 49.4594L203.022 49.9643C203.132 51.0292 203.429 52.0737 203.927 53.0402L202.152 55.0474L203.959 57.2489L206.157 55.7575C206.998 56.4218 207.945 56.8944 208.942 57.1788L209.016 59.8385L211.859 60.0169L212.451 57.3989C213.491 57.2424 214.519 56.894 215.479 56.3426L217.359 58.0904L219.573 56.1411L218.211 53.937C218.891 53.044 219.388 52.0495 219.705 51.0114Z" fill="#FFA47F"/>
<path d="M210.723 59.0596C210.72 59.0596 210.716 59.0592 210.712 59.0592L207.869 58.8808C207.772 58.8748 207.695 58.7949 207.692 58.6972L207.621 56.1745C206.669 55.8863 205.794 55.4398 205.014 54.8445L202.93 56.2586C202.849 56.3135 202.739 56.2984 202.677 56.2219L200.87 54.02C200.812 53.9484 200.814 53.8443 200.875 53.7746L202.565 51.8636C202.121 50.9679 201.835 49.9976 201.714 48.9755L199.328 48.4979C199.233 48.479 199.167 48.3908 199.177 48.2938L199.465 45.3591C199.474 45.2671 199.548 45.1951 199.64 45.1887L202.1 45.0141C202.42 44.0158 202.893 43.0895 203.508 42.2582L202.214 40.1639C202.165 40.0851 202.18 39.9832 202.25 39.9223L204.464 37.9734C204.536 37.909 204.646 37.9105 204.718 37.9768L206.497 39.6303C207.386 39.1379 208.341 38.805 209.341 38.6403L209.905 36.1476C209.926 36.0575 210.004 35.9953 210.102 36.0003L212.944 36.1786C213.042 36.1847 213.119 36.2646 213.122 36.3623L213.192 38.8846C214.143 39.1728 215.019 39.6193 215.799 40.2146L217.884 38.8005C217.964 38.7463 218.074 38.7611 218.137 38.8372L219.943 41.0387C220.002 41.1107 220 41.2144 219.939 41.2841L218.248 43.1951C218.692 44.0908 218.978 45.0615 219.099 46.0832L221.486 46.5608C221.581 46.5797 221.646 46.668 221.637 46.7649L221.349 49.6996C221.34 49.7916 221.265 49.8636 221.173 49.87L218.713 50.0446C218.393 51.0429 217.921 51.9689 217.305 52.8005L218.6 54.8948C218.648 54.9732 218.633 55.0755 218.563 55.1365L216.349 57.0857C216.277 57.1501 216.167 57.1486 216.095 57.0823L214.316 55.4288C213.427 55.9212 212.472 56.254 211.472 56.4188L210.908 58.9115C210.888 58.9986 210.811 59.0596 210.723 59.0596ZM208.066 58.5139L210.574 58.671L211.131 56.2105C211.149 56.1344 211.211 56.0764 211.288 56.0651C212.333 55.9083 213.329 55.5606 214.249 55.0319C214.32 54.991 214.411 55.0009 214.473 55.0573L216.228 56.6884L218.193 54.9581L216.915 52.8899C216.874 52.8233 216.878 52.738 216.926 52.6759C217.578 51.8197 218.071 50.8554 218.389 49.8102C218.412 49.7352 218.478 49.6822 218.557 49.6765L220.987 49.5038L221.243 46.8986L218.888 46.4275C218.807 46.4112 218.746 46.3438 218.737 46.2612C218.627 45.1906 218.329 44.1783 217.852 43.2527C217.816 43.183 217.827 43.0989 217.879 43.0406L219.547 41.1542L217.953 39.211L215.897 40.6055C215.828 40.6521 215.738 40.6486 215.673 40.5971C214.869 39.9617 213.954 39.4947 212.954 39.2095C212.875 39.1868 212.819 39.1152 212.817 39.0327L212.747 36.5456L210.238 36.3885L209.681 38.849C209.664 38.9251 209.602 38.983 209.525 38.9944C208.479 39.1512 207.483 39.4989 206.563 40.0276C206.492 40.0685 206.401 40.0586 206.34 40.0022L204.585 38.371L202.62 40.1014L203.898 42.1696C203.939 42.2362 203.935 42.3214 203.887 42.3835C203.235 43.2398 202.742 44.204 202.424 45.2493C202.401 45.3243 202.335 45.3773 202.256 45.3826L199.826 45.5553L199.571 48.1605L201.925 48.6316C202.006 48.6479 202.067 48.7153 202.075 48.7979C202.186 49.8685 202.484 50.8808 202.961 51.8064C202.997 51.8761 202.986 51.9602 202.935 52.0185L201.266 53.9049L202.86 55.8481L204.915 54.4536C204.985 54.407 205.075 54.4105 205.14 54.462C205.943 55.0971 206.858 55.564 207.858 55.8492C207.938 55.8719 207.994 55.9435 207.996 56.0261L208.066 58.5139Z" fill="#1B2E4E"/>
<path d="M207.113 46.2153C205.909 48.5653 206.746 51.3981 208.983 52.5433C211.22 53.6882 214.009 52.7118 215.212 50.3619C216.416 48.012 215.579 45.1791 213.342 44.0339C211.105 42.889 208.316 43.8658 207.113 46.2153Z" fill="white"/>
<path d="M210.212 52.4532C209.508 52.4532 208.8 52.293 208.139 51.9544C205.813 50.7637 204.937 47.8105 206.186 45.3716C207.436 42.9326 210.345 41.9173 212.671 43.108C214.996 44.2987 215.872 47.2519 214.623 49.6908C213.729 51.4367 211.984 52.4532 210.212 52.4532ZM206.524 45.5443C205.37 47.7973 206.172 50.5217 208.312 51.6174C210.453 52.7134 213.133 51.7711 214.287 49.5181C215.44 47.2652 214.638 44.5407 212.499 43.445C210.358 42.3494 207.677 43.2917 206.524 45.5443Z" fill="#1B2E4E"/>
<path d="M231.394 32.6321L233.483 32.4836L233.715 30.1166L231.681 29.7095C231.592 28.8506 231.352 28.0079 230.951 27.2285L232.382 25.6095L230.926 23.8337L229.152 25.0369C228.474 24.501 227.71 24.12 226.906 23.8909L226.846 21.7455L224.553 21.6016L224.075 23.7133C223.236 23.8394 222.407 24.1204 221.633 24.565L220.116 23.1554L218.331 24.7275L219.429 26.5052C218.881 27.2251 218.479 28.0273 218.224 28.8646L216.135 29.0131L215.902 31.38L217.937 31.7872C218.025 32.6461 218.265 33.4887 218.667 34.2681L217.235 35.8871L218.692 37.663L220.466 36.4598C221.143 36.9957 221.907 37.3766 222.712 37.6058L222.772 39.7512L225.064 39.8951L225.543 37.7834C226.382 37.6576 227.21 37.3763 227.984 36.9316L229.502 38.3416L231.287 36.7692L230.189 34.9915C230.737 34.2719 231.138 33.4698 231.394 32.6321Z" fill="#FFA47F"/>
<path d="M223.925 38.9392C223.922 38.9392 223.917 38.9388 223.914 38.9388L221.621 38.7949C221.523 38.7889 221.446 38.7093 221.443 38.6112L221.387 36.6029C220.634 36.3719 219.94 36.0178 219.319 35.5478L217.659 36.6737C217.58 36.7286 217.47 36.7131 217.407 36.637L215.95 34.8612C215.891 34.7896 215.893 34.6855 215.954 34.6158L217.302 33.093C216.951 32.3802 216.724 31.6099 216.626 30.7998L214.727 30.42C214.632 30.401 214.566 30.3128 214.575 30.2159L214.807 27.8485C214.816 27.7565 214.891 27.6845 214.983 27.6781L216.943 27.5387C217.199 26.7472 217.574 26.0113 218.061 25.3486L217.03 23.6803C216.982 23.6019 216.997 23.4997 217.067 23.4387L218.852 21.8667C218.924 21.8023 219.034 21.8038 219.106 21.8701L220.522 23.1857C221.229 22.7975 221.987 22.5336 222.78 22.3999L223.23 20.4131C223.25 20.323 223.329 20.2617 223.426 20.2658L225.719 20.4097C225.817 20.4158 225.893 20.4957 225.896 20.5934L225.953 22.6018C226.706 22.8328 227.4 23.1869 228.02 23.6569L229.68 22.5309C229.761 22.4768 229.871 22.4915 229.933 22.5677L231.39 24.3435C231.449 24.415 231.447 24.5192 231.386 24.5889L230.038 26.1117C230.389 26.8241 230.615 27.5944 230.714 28.4048L232.613 28.7847C232.708 28.8036 232.774 28.8919 232.764 28.9888L232.532 31.3562C232.523 31.4482 232.449 31.5202 232.357 31.5266L230.396 31.666C230.141 32.4579 229.765 33.1933 229.279 33.8561L230.309 35.5243C230.358 35.6027 230.343 35.705 230.273 35.7659L228.488 37.338C228.416 37.4024 228.306 37.4009 228.233 37.3346L226.818 36.0189C226.111 36.4071 225.352 36.6711 224.56 36.8048L224.11 38.7915C224.091 38.8786 224.014 38.9392 223.925 38.9392ZM221.818 38.4279L223.777 38.5507L224.219 36.5965C224.236 36.5203 224.298 36.4624 224.376 36.451C225.214 36.3253 226.013 36.0466 226.751 35.6224C226.823 35.5815 226.913 35.591 226.975 35.6478L228.366 36.9407L229.903 35.5876L228.888 33.9455C228.847 33.8788 228.851 33.7936 228.899 33.7315C229.423 33.0437 229.818 32.27 230.073 31.4315C230.096 31.3566 230.163 31.3035 230.241 31.2979L232.171 31.1608L232.37 29.1233L230.504 28.7498C230.423 28.7336 230.362 28.6661 230.353 28.5836C230.265 27.7247 230.026 26.9127 229.643 26.17C229.607 26.1003 229.618 26.0163 229.669 25.9579L230.995 24.4597L229.75 22.9422L228.119 24.0481C228.05 24.0943 227.96 24.0912 227.895 24.0401C227.251 23.5304 226.517 23.1562 225.715 22.9274C225.635 22.9047 225.58 22.8331 225.577 22.7506L225.522 20.7779L223.563 20.6548L223.12 22.6089C223.103 22.6851 223.041 22.743 222.964 22.7544C222.126 22.8805 221.327 23.1592 220.588 23.583C220.516 23.6239 220.426 23.6144 220.365 23.5576L218.974 22.2647L217.437 23.6178L218.451 25.2596C218.492 25.3262 218.488 25.4114 218.441 25.4736C217.917 26.1617 217.522 26.9354 217.266 27.7735C217.243 27.8485 217.177 27.9015 217.098 27.9072L215.169 28.0443L214.969 30.0818L216.835 30.4552C216.917 30.4715 216.978 30.5389 216.986 30.6215C217.075 31.48 217.314 32.2924 217.697 33.0354C217.733 33.1051 217.722 33.1892 217.67 33.2475L216.345 34.7457L217.59 36.2632L219.221 35.1574C219.289 35.1111 219.379 35.1142 219.444 35.1657C220.088 35.6754 220.822 36.0496 221.625 36.2784C221.704 36.3011 221.76 36.3727 221.762 36.4552L221.818 38.4279Z" fill="#1B2E4E"/>
<path d="M221.19 28.699C220.227 30.5789 220.897 32.8452 222.686 33.7613C224.476 34.6774 226.707 33.8961 227.67 32.0162C228.633 30.1366 227.963 27.87 226.173 26.9538C224.384 26.0377 222.153 26.819 221.19 28.699Z" fill="white"/>
<path d="M223.517 33.5834C222.948 33.5834 222.376 33.4539 221.842 33.1805C220.929 32.7135 220.263 31.9023 219.966 30.8957C219.669 29.8928 219.775 28.8158 220.263 27.8633C221.271 25.8936 223.622 25.0733 225.501 26.0364C226.413 26.5029 227.079 27.3145 227.377 28.3208C227.673 29.3236 227.568 30.4007 227.08 31.3532C226.358 32.7627 224.949 33.5834 223.517 33.5834ZM223.825 26.0114C222.531 26.0114 221.256 26.7567 220.6 28.0356C220.157 28.9014 220.06 29.8788 220.329 30.7881C220.597 31.694 221.195 32.4238 222.014 32.843C223.709 33.7103 225.829 32.9638 226.742 31.1801C227.186 30.3143 227.282 29.3369 227.013 28.4276C226.746 27.5217 226.147 26.7919 225.329 26.3727C224.849 26.1276 224.335 26.0114 223.825 26.0114Z" fill="#1B2E4E"/>
<path d="M206.273 62.85C207.244 62.85 208.057 62.1179 208.157 61.1537L214.077 4.64195C214.161 3.84967 213.912 3.08731 213.381 2.49576C212.847 1.90458 212.114 1.57812 211.318 1.57812H140.194C138.769 1.57812 137.582 2.64687 137.434 4.06403L131.495 60.7591C131.378 61.8767 132.254 62.85 133.379 62.85H206.273Z" fill="#F2E6D6"/>
<path d="M214.076 4.64195C214.16 3.84967 213.911 3.08731 213.379 2.49576C212.845 1.90458 212.112 1.57812 211.317 1.57812H140.193C138.768 1.57812 137.581 2.64687 137.432 4.06403L136.891 9.23768H213.595L214.076 4.64195Z" fill="#1B2E4E"/>
<path d="M210.967 5.49751C210.909 6.05725 210.441 6.46778 209.921 6.414C209.401 6.3606 209.027 5.86373 209.084 5.30398C209.141 4.74424 209.61 4.33409 210.129 4.38749C210.649 4.44089 211.024 4.93776 210.967 5.49751Z" fill="white"/>
<path d="M206.803 5.49751C206.745 6.05725 206.277 6.46778 205.757 6.414C205.237 6.3606 204.863 5.86373 204.92 5.30398C204.977 4.74424 205.446 4.33409 205.965 4.38749C206.485 4.44089 206.86 4.93776 206.803 5.49751Z" fill="white"/>
<path d="M202.635 5.49751C202.577 6.05725 202.109 6.46778 201.589 6.414C201.069 6.3606 200.695 5.86373 200.752 5.30398C200.809 4.74424 201.278 4.33409 201.797 4.38749C202.317 4.44089 202.692 4.93776 202.635 5.49751Z" fill="white"/>
<path d="M178.575 18.6443H151.098L151.468 16.8594H178.945L178.575 18.6443Z" fill="#5C94B9"/>
<path d="M184.821 22.1134H157.785L158.156 20.3281H185.192L184.821 22.1134Z" fill="#5C94B9"/>
<path d="M171.226 25.465H149.84L150.211 23.6797H171.597L171.226 25.465Z" fill="#5C94B9"/>
<path d="M191.733 25.465H173.43L173.8 23.6797H192.104L191.733 25.465Z" fill="#F84558"/>
<path d="M183.206 28.9341H158.457L158.828 27.1484H183.577L183.206 28.9341Z" fill="#F84558"/>
<path d="M193.032 32.4181H152.945L153.316 30.6328H193.402L193.032 32.4181Z" fill="#5C94B9"/>
<path d="M189.784 36.0435H147.879L148.249 34.2578H190.154L189.784 36.0435Z" fill="#5C94B9"/>
<path d="M177.128 39.52H153.609L153.981 37.7344H177.498L177.128 39.52Z" fill="#5C94B9"/>
<path d="M196.332 39.52H179.023L179.395 37.7344H196.702L196.332 39.52Z" fill="#F84558"/>
<path d="M165.224 42.856H146.621L146.992 41.0703H165.595L165.224 42.856Z" fill="#5C94B9"/>
<path d="M192.12 42.856H167.141L167.511 41.0703H192.491L192.12 42.856Z" fill="#5C94B9"/>
<path d="M174.604 53.1841H151.086L151.457 51.3984H174.975L174.604 53.1841Z" fill="#5C94B9"/>
<path d="M193.805 53.1841H176.496L176.867 51.3984H194.176L193.805 53.1841Z" fill="#F84558"/>
<path d="M162.7 56.5356H144.098L144.468 54.75H163.07L162.7 56.5356Z" fill="#5C94B9"/>
<path d="M189.597 56.5356H164.617L164.988 54.75H189.968L189.597 56.5356Z" fill="#5C94B9"/>
<path d="M175.559 46.34H154.031L154.402 44.5547H175.93L175.559 46.34Z" fill="#F84558"/>
<path d="M184.022 49.8165H149.152L149.523 48.0312H184.391L184.022 49.8165Z" fill="#5C94B9"/>
<path d="M195.051 58.6443L195.211 57.8744C195.682 57.9225 196.043 57.8623 196.294 57.6941C196.546 57.5256 196.723 57.1927 196.827 56.6951L197.243 54.6864C197.421 53.8286 197.842 53.3075 198.506 53.123C197.919 52.9386 197.714 52.4171 197.893 51.5593L198.31 49.5498C198.413 49.0533 198.375 48.7204 198.192 48.5523C198.01 48.3838 197.674 48.3236 197.183 48.3717L197.343 47.6017C198.054 47.5377 198.563 47.6684 198.868 47.9929C199.173 48.3179 199.252 48.8371 199.104 49.5502L198.687 51.5597C198.587 52.0407 198.617 52.3576 198.778 52.5099C198.939 52.6621 199.244 52.7383 199.694 52.7383L199.534 53.5082C199.084 53.5082 198.748 53.5847 198.524 53.7369C198.3 53.8892 198.137 54.2058 198.038 54.6871L197.62 56.6959C197.472 57.4101 197.177 57.929 196.738 58.2535C196.298 58.5777 195.735 58.7084 195.051 58.6443Z" fill="#5C94B9"/>
<path d="M145.493 23.8783C145.187 23.5538 145.109 23.0345 145.258 22.3207L145.674 20.3119C145.775 19.8306 145.744 19.5136 145.583 19.3614C145.423 19.2091 145.117 19.1326 144.668 19.1326L144.828 18.3631C145.277 18.3631 145.614 18.2869 145.837 18.1347C146.062 17.9821 146.224 17.6651 146.323 17.1841L146.741 15.175C146.889 14.4615 147.183 13.9423 147.624 13.6174C148.064 13.2928 148.627 13.1625 149.311 13.2269L149.151 13.9965C148.68 13.9484 148.319 14.0086 148.067 14.1771C147.815 14.3456 147.638 14.6785 147.535 15.1754L147.118 17.1845C146.94 18.0423 146.519 18.5638 145.855 18.7478C146.442 18.9327 146.646 19.4538 146.468 20.3119L146.051 22.3207C145.948 22.8179 145.988 23.1504 146.169 23.3193C146.351 23.4875 146.687 23.5481 147.178 23.4996L147.019 24.2695C146.308 24.3335 145.799 24.2033 145.493 23.8783Z" fill="#5C94B9"/>
<path d="M66.4047 147.753C63.354 147.753 61.2887 147.753 61.2887 147.753C61.2887 147.753 47.2091 145.529 50.4708 118.364C50.8894 114.876 53.2195 111.913 56.5175 110.704C64.1552 107.925 79.7319 103.383 100.111 103.383C100.111 103.383 100.314 103.402 100.648 103.463C82.5181 104.068 68.6802 108.134 61.6338 110.704C58.3305 111.912 56.0065 114.876 55.5871 118.364C52.3251 145.529 66.4047 147.753 66.4047 147.753Z" fill="#D3C8BC"/>
<path d="M66.405 148.04L61.2447 148.037C61.0966 148.013 57.5788 147.417 54.4339 143.424C51.5613 139.776 48.4925 132.462 50.1888 118.333C50.6233 114.713 53.0107 111.689 56.4197 110.44C63.9517 107.7 79.6424 103.102 100.111 103.102C100.146 103.103 100.357 103.124 100.699 103.187L103.28 103.662L100.657 103.75C82.3483 104.36 68.4097 108.538 61.7307 110.974C58.5251 112.146 56.2791 114.993 55.8692 118.401C54.2002 132.301 57.1765 139.469 59.9669 143.035C62.9729 146.877 66.4156 147.47 66.45 147.476L66.405 148.04ZM61.3144 147.472H64.6158C63.2733 146.883 61.3504 145.71 59.5498 143.424C56.6773 139.776 53.6088 132.462 55.3052 118.333C55.7404 114.711 58.1281 111.687 61.5364 110.44C66.5584 108.608 75.6652 105.797 87.6348 104.241C73.3832 105.554 62.4982 108.833 56.6151 110.974C53.4084 112.149 51.162 114.994 50.7533 118.4C49.0846 132.3 52.0606 139.469 54.851 143.035C57.7387 146.725 61.0291 147.418 61.3144 147.472Z" fill="#1B2E4E"/>
<path d="M111.419 117.119C107.116 130.024 102.709 140.931 102.709 140.931C102.709 140.931 100.613 147.753 92.1124 147.753H86.9961C95.4964 147.753 97.5985 140.931 97.5985 140.931C97.5985 140.931 102.006 130.024 106.303 117.119C110.008 106.008 102.734 103.844 100.651 103.463C102.148 103.407 103.677 103.383 105.23 103.383C105.23 103.383 115.721 104.221 111.419 117.119Z" fill="#F0E3DD"/>
<path d="M66.33 148.374C65.7307 148.28 51.6784 145.738 54.9776 118.281C55.4287 114.523 57.9055 111.387 61.4391 110.098C68.9852 107.348 84.7096 102.734 105.252 102.734L105.302 102.736C105.473 102.75 109.51 103.11 111.731 106.466C113.467 109.089 113.573 112.74 112.047 117.316C107.789 130.09 103.369 141.056 103.344 141.114C103.321 141.186 101.004 148.382 92.1356 148.382H66.3796L66.33 148.374ZM61.8762 111.297C58.7968 112.419 56.6398 115.154 56.2458 118.434C53.1895 143.871 65.6811 146.936 66.4899 147.105H92.136C100.038 147.105 102.042 140.996 102.141 140.686C102.185 140.577 106.591 129.646 110.836 116.912C112.229 112.733 112.174 109.459 110.673 107.18C108.879 104.459 105.522 104.042 105.221 104.011C84.8899 104.015 69.339 108.577 61.8762 111.297Z" fill="#1B2E4E"/>
<path d="M194.267 88.2842C194.267 88.2842 192.812 80.3906 186.044 80.3906C178.529 80.3906 175.224 84.8231 173.414 88.2055L194.267 88.2842Z" fill="#1B2E4E"/>
<path d="M101.134 200.103C101.134 200.103 97.7491 201.466 91.8478 191.712C85.9462 181.956 86.7334 172.673 90.7459 169.369C94.7591 166.064 103.022 176.921 105.54 183.687C108.058 190.452 109.16 201.335 101.134 200.103Z" fill="#1B2E4E"/>
<path d="M101.528 181.05C95.9799 182.49 90.8704 186.732 88.0789 194.496C87.1026 197.204 85.9427 199.805 86.539 202.787C87.0595 205.388 89.1271 207.676 91.0128 208.897C91.6197 209.29 91.6197 209.949 90.8965 209.944C88.2868 209.922 84.4691 209.896 81.9075 209.896C77.6848 209.896 72.6704 207.497 74.0731 201.38C75.4717 195.262 74.5103 190.666 72.867 184.012C71.2187 177.358 73.5117 172.777 80.8135 171.561C83.4323 171.129 87.6815 170.816 89.5002 170.142C90.5582 169.747 93.7827 167.82 94.5241 167.375C94.5241 167.375 105.935 174.833 101.528 181.05Z" fill="#F84558"/>
<path d="M84.7746 200.95C83.8405 195.649 84.5 190.098 84.7735 187.562C85.0906 184.639 86.607 180.404 85.1091 176.378C83.306 171.534 80.4421 171.668 80.1671 171.715C73.4764 172.836 71.272 177.585 72.8672 184.036C74.5139 190.691 75.475 195.287 74.073 201.403C72.6714 207.519 77.6873 209.92 81.9111 209.92C83.8564 209.92 86.9351 209.935 89.2693 209.951C90.0115 209.956 90.3399 209.015 89.7512 208.564C87.9598 207.189 85.4565 204.816 84.7746 200.95Z" fill="white"/>
<path d="M89.2779 210.18C89.2756 210.18 89.2729 210.18 89.2699 210.18C86.936 210.164 83.8577 210.149 81.9136 210.149C78.9584 210.149 76.334 209.07 74.8937 207.264C73.6584 205.714 73.308 203.724 73.852 201.351C75.2267 195.353 74.3134 190.829 72.6466 184.091C71.7647 180.525 72.0579 177.485 73.4936 175.299C74.8161 173.287 77.0488 172.005 80.1313 171.489C80.1612 171.486 83.3577 171.011 85.326 176.297C86.4826 179.407 85.873 182.655 85.3832 185.266C85.2268 186.099 85.0794 186.886 85.0033 187.586L84.9722 187.872C84.6915 190.456 84.1074 195.832 85.0021 200.91C85.5124 203.803 87.1118 206.247 89.8931 208.382C90.2393 208.648 90.3711 209.087 90.2291 209.5C90.087 209.914 89.7143 210.18 89.2779 210.18ZM80.3476 171.934C80.2608 171.934 80.2112 171.941 80.2074 171.941C77.2564 172.435 75.1267 173.649 73.8773 175.55C72.5128 177.626 72.2416 180.542 73.0921 183.981C74.7751 190.784 75.6961 195.356 74.2986 201.454C73.7876 203.684 74.1088 205.543 75.2525 206.979C76.606 208.676 79.096 209.691 81.9132 209.691C83.8589 209.691 86.9383 209.705 89.2733 209.722C89.2745 209.722 89.2764 209.722 89.2783 209.722C89.5662 209.722 89.7344 209.53 89.7961 209.352C89.8575 209.173 89.8416 208.92 89.6139 208.746C86.7383 206.537 85.0821 204 84.5513 200.989C83.6448 195.847 84.2339 190.427 84.5169 187.822L84.5476 187.536C84.626 186.818 84.7752 186.023 84.9328 185.181C85.4124 182.626 86.0087 179.447 84.8964 176.457C83.3179 172.217 80.9446 171.934 80.3476 171.934Z" fill="#1B2E4E"/>
<path d="M83.0989 200.95C82.1651 195.649 82.8243 190.098 83.0978 187.562C83.4148 184.639 84.9312 180.404 83.4334 176.378C81.6302 171.534 78.7663 171.668 78.4917 171.715C71.8002 172.836 69.5963 177.585 71.1915 184.036C72.8382 190.691 73.7985 195.287 72.3976 201.403C70.9956 207.519 76.0127 209.92 80.2358 209.92C82.389 209.92 85.9302 209.927 88.3134 209.941C88.8388 209.944 89.0589 209.274 88.6331 208.966C86.853 207.681 83.8546 205.239 83.0989 200.95Z" fill="white"/>
<path d="M88.3145 210.171C88.313 210.171 88.3111 210.171 88.31 210.171C85.9265 210.157 82.3864 210.149 80.2336 210.149C77.2784 210.149 74.6539 209.071 73.2144 207.264C71.9787 205.714 71.6283 203.725 72.1723 201.352C73.5466 195.352 72.6337 190.829 70.9669 184.091C70.085 180.525 70.3782 177.485 71.8139 175.299C73.1364 173.288 75.3699 172.006 78.4523 171.489C78.4834 171.485 81.678 171.009 83.6463 176.298C84.8029 179.407 84.1934 182.656 83.7035 185.266C83.5471 186.1 83.3997 186.886 83.324 187.587L83.2929 187.871C83.0126 190.454 82.4284 195.83 83.3228 200.91C84.0361 204.957 86.7705 207.34 88.7657 208.781C89.0419 208.98 89.1521 209.318 89.0464 209.641C88.9403 209.963 88.6536 210.171 88.3145 210.171ZM78.6686 171.935C78.5808 171.935 78.5315 171.941 78.5277 171.941C75.576 172.436 73.4462 173.65 72.1969 175.551C70.8328 177.627 70.5612 180.542 71.412 183.981C73.0951 190.784 74.0164 195.355 72.6185 201.454C72.1075 203.684 72.4287 205.543 73.5728 206.978C74.9267 208.677 77.4163 209.691 80.2336 209.691C82.3875 209.691 85.9291 209.699 88.3126 209.713C88.3126 209.713 88.3142 209.713 88.3149 209.713C88.4808 209.713 88.5763 209.602 88.6104 209.499C88.6437 209.396 88.632 209.25 88.4971 209.152C86.4371 207.665 83.6134 205.2 82.8713 200.99C81.9651 195.846 82.5542 190.426 82.8372 187.821L82.8675 187.538C82.9459 186.82 83.0952 186.024 83.2527 185.182C83.7323 182.627 84.3286 179.448 83.2164 176.458C81.6382 172.218 79.266 171.935 78.6686 171.935Z" fill="#1B2E4E"/>
<path d="M72.5586 180.059C72.5586 183.495 74.727 186.281 77.4029 186.281C80.0782 186.281 82.2465 183.496 82.2465 180.059C82.2465 176.622 80.0782 173.836 77.4029 173.836C74.727 173.836 72.5586 176.622 72.5586 180.059Z" fill="#D3C8BC"/>
<path d="M85.6655 185.293C90.692 179.164 90.0101 174.919 89.4847 173.378C88.9767 171.887 87.9588 170.8 86.8281 170.539L86.6849 171.161C87.588 171.37 88.4494 172.32 88.8805 173.583C89.3718 175.024 89.9946 179.008 85.1719 184.888L85.6655 185.293Z" fill="#1B2E4E"/>
<path d="M88.8416 192.35C89.9633 191.157 90.4607 189.856 90.3217 188.483C90.0251 185.577 86.9892 183.411 86.86 183.32L86.4922 183.843C86.5214 183.863 89.4212 185.935 89.6864 188.55C89.8057 189.731 89.3651 190.862 88.3768 191.912L88.8416 192.35Z" fill="#1B2E4E"/>
<path d="M91.0236 189.236C91.9904 187.947 92.3484 186.62 92.0877 185.292C91.5744 182.675 88.8541 181.015 88.7386 180.945L88.4102 181.493C88.4359 181.508 91.0062 183.079 91.4623 185.417C91.6854 186.559 91.3661 187.715 90.5137 188.853L91.0236 189.236Z" fill="#1B2E4E"/>
<path d="M116.72 130.342C111.176 136.384 107.067 141.408 99.4081 158.978C97.2367 163.958 91.1445 169.074 91.1445 169.074C94.7452 167.264 116.311 199.856 101.139 200.096C101.139 200.096 111.946 202.352 124.851 187.404C137.756 172.456 144.105 137.264 142.845 129.398C141.586 121.531 126.397 119.794 116.72 130.342Z" fill="#5C94B9"/>
<path d="M94.2259 166.15C92.5359 167.913 91.1445 169.082 91.1445 169.082C94.7452 167.273 116.311 199.864 101.139 200.104C101.139 200.104 111.946 202.36 124.851 187.412C130.233 181.178 134.475 171.423 137.5 161.597C138.225 159.241 120.739 186.854 94.2259 166.15Z" fill="#4B83A8"/>
<path d="M142.839 129.398C141.58 121.531 126.391 119.794 116.713 130.342C112.869 134.533 109.712 138.238 105.585 145.974C106.328 146.022 107.27 146.1 107.704 146.112C109.272 146.154 110.733 146.346 112.285 146.609C117.189 147.443 121.261 150.174 123.687 154.588C128.798 163.888 123.444 175.238 117.38 182.543C114.168 186.412 110.337 189.553 106.251 192.369C107.036 196.756 105.895 200.02 101.133 200.095C101.133 200.095 111.939 202.351 124.845 187.403C137.75 172.457 144.099 137.265 142.839 129.398Z" fill="#4B83A8"/>
<path d="M93.2414 145.993C86.7329 145.993 72.0533 144.926 63.0988 136.002C57.715 130.637 55.3375 123.286 56.0319 114.153C57.8358 90.4352 58.2275 83.6455 58.573 77.6557C58.7332 74.8805 58.8844 72.2594 59.1583 68.2174C59.7606 59.3368 62.0816 50.6801 65.6944 43.842C69.1576 37.2875 73.3598 33.3182 77.2242 32.952C81.953 32.504 84.7544 33.5962 89.393 35.4065C90.9174 36.0014 92.6452 36.6759 94.7188 37.4046C97.5255 38.3915 100.225 39.9056 102.742 41.906C103.387 42.2999 103.991 42.713 104.538 43.1338C111.113 48.1897 130.338 69.363 131.154 70.2621L131.355 70.484L131.286 70.7756C129.116 79.8322 124.455 87.6967 117.429 94.1564C119.26 98.0765 122.317 99.346 125.023 100.47C127.371 101.446 129.589 102.367 130.323 104.863L130.428 105.22L130.142 105.459C129.935 105.632 109.298 123.046 96.9497 145.596L96.8023 145.866L96.4963 145.89C96.2989 145.905 95.1052 145.993 93.2414 145.993ZM79.2732 33.9859C78.6614 33.9859 78.0197 34.0173 77.3318 34.0825C70.3384 34.746 61.5653 49.5174 60.2921 68.2939C60.0186 72.3298 59.8674 74.9487 59.7076 77.7209C59.3613 83.7156 58.9693 90.5105 57.1649 114.239C56.4971 123.024 58.7624 130.074 63.8981 135.194C74.3107 145.575 93.4642 144.92 96.1042 144.776C107.754 123.654 126.528 107.073 129.116 104.842C128.436 103.118 126.722 102.406 124.587 101.519C121.746 100.339 118.21 98.8707 116.221 94.2379L116.061 93.8652L116.362 93.5925C123.309 87.3058 127.933 79.6395 130.11 70.8025C127.992 68.4764 109.985 48.7555 103.845 44.0344C103.322 43.6318 102.742 43.2364 102.121 42.8577L102.062 42.8168C99.6363 40.885 97.0387 39.4246 94.3419 38.4763C92.2504 37.7412 90.5128 37.063 88.9801 36.4646C85.0604 34.9346 82.6292 33.9859 79.2732 33.9859Z" fill="#1B2E4E"/>
<path d="M140.782 200.103C140.782 200.103 137.399 201.466 131.497 191.712C125.595 181.956 126.382 172.673 130.395 169.369C134.408 166.064 142.671 176.921 145.189 183.687C147.707 190.452 148.808 201.335 140.782 200.103Z" fill="#1B2E4E"/>
<path d="M141.175 181.05C135.628 182.49 130.518 186.732 127.726 194.496C126.75 197.204 125.59 199.805 126.187 202.787C126.707 205.388 128.774 207.676 130.661 208.897C131.268 209.29 131.268 209.949 130.545 209.944C127.935 209.922 124.117 209.896 121.555 209.896C117.332 209.896 112.318 207.497 113.721 201.38C115.119 195.262 114.158 190.666 112.515 184.012C110.867 177.358 113.16 172.777 120.462 171.561C123.08 171.129 127.33 170.816 129.149 170.142C130.207 169.747 133.431 167.82 134.173 167.375C134.172 167.375 145.583 174.833 141.175 181.05Z" fill="#F84558"/>
<path d="M124.423 200.95C123.489 195.649 124.148 190.098 124.422 187.562C124.738 184.639 126.256 180.404 124.757 176.378C122.954 171.534 120.091 171.668 119.816 171.715C113.124 172.836 110.921 177.585 112.516 184.036C114.162 190.691 115.123 195.287 113.721 201.403C112.32 207.519 117.337 209.92 121.559 209.92C123.505 209.92 126.584 209.935 128.918 209.951C129.66 209.956 129.989 209.015 129.4 208.564C127.608 207.189 125.105 204.816 124.423 200.95Z" fill="white"/>
<path d="M128.918 210.18C128.916 210.18 128.914 210.18 128.911 210.18C126.577 210.164 123.498 210.149 121.553 210.149C118.598 210.149 115.974 209.071 114.534 207.264C113.299 205.714 112.948 203.725 113.492 201.352C114.867 195.352 113.954 190.829 112.287 184.091C111.405 180.525 111.698 177.485 113.134 175.299C114.457 173.287 116.689 172.006 119.772 171.489C119.803 171.485 122.998 171.009 124.966 176.298C126.123 179.406 125.513 182.654 125.024 185.265C124.867 186.098 124.72 186.886 124.644 187.587L124.614 187.862C124.332 190.447 123.747 195.826 124.643 200.91C125.153 203.803 126.752 206.247 129.534 208.382C129.88 208.648 130.012 209.087 129.87 209.501C129.728 209.914 129.355 210.18 128.918 210.18ZM119.988 171.935C119.901 171.935 119.851 171.941 119.848 171.941C116.896 172.436 114.767 173.65 113.518 175.551C112.153 177.627 111.882 180.542 112.733 183.981C114.416 190.784 115.337 195.355 113.939 201.454C113.428 203.684 113.749 205.543 114.893 206.979C116.247 208.677 118.737 209.691 121.554 209.691C123.5 209.691 126.58 209.706 128.914 209.722C128.915 209.722 128.917 209.722 128.919 209.722C129.207 209.722 129.375 209.531 129.437 209.352C129.498 209.174 129.482 208.92 129.255 208.746C126.379 206.538 124.723 204 124.192 200.99C123.285 195.841 123.875 190.418 124.159 187.812L124.189 187.537C124.267 186.818 124.416 186.022 124.574 185.18C125.053 182.625 125.649 179.446 124.537 176.458C122.959 172.217 120.585 171.935 119.988 171.935Z" fill="#1B2E4E"/>
<path d="M122.747 200.95C121.814 195.649 122.472 190.098 122.745 187.562C123.063 184.639 124.58 180.404 123.081 176.378C121.279 171.534 118.415 171.668 118.14 171.715C111.448 172.836 109.245 177.585 110.84 184.036C112.486 190.691 113.447 195.287 112.045 201.403C110.644 207.519 115.661 209.92 119.884 209.92C122.038 209.92 125.578 209.927 127.961 209.941C128.487 209.944 128.708 209.274 128.282 208.966C126.501 207.681 123.503 205.239 122.747 200.95Z" fill="white"/>
<path d="M127.967 210.171C127.965 210.171 127.964 210.171 127.962 210.171C125.579 210.157 122.039 210.149 119.887 210.149C116.931 210.149 114.307 209.071 112.867 207.264C111.631 205.714 111.28 203.725 111.824 201.352C113.199 195.352 112.286 190.829 110.619 184.091C109.737 180.525 110.031 177.485 111.466 175.299C112.789 173.287 115.021 172.006 118.104 171.489C118.135 171.485 121.33 171.009 123.298 176.298C124.456 179.407 123.845 182.657 123.355 185.268C123.199 186.1 123.051 186.886 122.976 187.586L122.945 187.868C122.664 190.452 122.08 195.829 122.975 200.91C123.687 204.956 126.422 207.339 128.417 208.781C128.693 208.98 128.804 209.318 128.698 209.641C128.593 209.963 128.306 210.171 127.967 210.171ZM118.321 171.935C118.233 171.935 118.184 171.941 118.18 171.941C115.229 172.436 113.099 173.65 111.85 175.551C110.486 177.627 110.214 180.542 111.065 183.981C112.748 190.784 113.669 195.355 112.271 201.454C111.761 203.684 112.081 205.543 113.226 206.978C114.58 208.677 117.069 209.691 119.887 209.691C122.041 209.691 125.582 209.699 127.965 209.713H127.968C128.134 209.713 128.23 209.602 128.263 209.499C128.297 209.395 128.285 209.25 128.149 209.152C126.09 207.665 123.266 205.2 122.524 200.99C121.618 195.845 122.207 190.424 122.49 187.819L122.52 187.538C122.598 186.82 122.748 186.025 122.905 185.184C123.385 182.629 123.982 179.448 122.869 176.458C121.291 172.217 118.917 171.935 118.321 171.935Z" fill="#1B2E4E"/>
<path d="M112.203 180.059C112.203 183.495 114.371 186.281 117.047 186.281C119.722 186.281 121.891 183.496 121.891 180.059C121.891 176.622 119.722 173.836 117.047 173.836C114.371 173.836 112.203 176.622 112.203 180.059Z" fill="#D3C8BC"/>
<path d="M125.318 185.293C130.343 179.164 129.662 174.919 129.137 173.378C128.628 171.887 127.61 170.8 126.48 170.539L126.337 171.161C127.24 171.37 128.101 172.32 128.533 173.583C129.024 175.024 129.647 179.008 124.824 184.888L125.318 185.293Z" fill="#1B2E4E"/>
<path d="M128.494 192.35C129.616 191.157 130.113 189.856 129.973 188.483C129.677 185.577 126.641 183.411 126.512 183.32L126.145 183.843C126.174 183.863 129.074 185.935 129.339 188.55C129.458 189.731 129.017 190.862 128.029 191.912L128.494 192.35Z" fill="#1B2E4E"/>
<path d="M130.664 189.236C131.631 187.947 131.989 186.62 131.728 185.292C131.215 182.675 128.495 181.015 128.378 180.945L128.051 181.493C128.076 181.508 130.646 183.079 131.103 185.417C131.325 186.559 131.007 187.715 130.153 188.853L130.664 189.236Z" fill="#1B2E4E"/>
<path d="M140.922 150.96C139.707 156.255 130.043 168.469 130.043 168.469C133.643 166.659 155.952 199.855 140.781 200.095C140.781 200.095 151.588 202.351 164.494 187.403C177.398 172.455 183.747 137.263 182.488 129.397C181.229 121.529 145.766 129.839 140.922 150.96Z" fill="#5C94B9"/>
<path d="M130.458 167.935C130.193 168.277 130.043 168.467 130.043 168.467C133.643 166.658 155.952 199.853 140.781 200.093C140.781 200.093 151.588 202.349 164.494 187.401C172.395 178.249 177.839 161.506 180.583 148.094C172.158 167.367 142.631 168.103 130.458 167.935Z" fill="#4B83A8"/>
<path d="M90.1441 144.152C97.1996 146.522 110.043 145.286 123.36 145.286C136.677 145.286 162.631 147.014 170.347 143.547C175.845 141.075 188.429 132.729 179.652 120.779C170.876 108.827 102.472 100.702 94.7543 100.4C87.0359 100.098 71.2285 137.798 90.1441 144.152Z" fill="#5C94B9"/>
<path d="M96.3867 131.044L96.7819 129.829C96.3966 129.704 96.1909 129.634 96.1879 129.633L95.7734 130.841C95.7734 130.841 95.9856 130.913 96.3867 131.044Z" fill="white"/>
<path d="M148.196 185.831C148.538 185.592 148.875 185.348 149.209 185.096L149.978 186.115C149.631 186.376 149.281 186.63 148.928 186.877L148.196 185.831ZM150.685 183.925C151.005 183.656 151.322 183.381 151.636 183.101L152.487 184.055C152.163 184.343 151.836 184.626 151.504 184.903L150.685 183.925ZM153.01 181.817C153.308 181.525 153.603 181.228 153.895 180.926L154.813 181.811C154.515 182.122 154.211 182.428 153.904 182.729L153.01 181.817ZM155.174 179.542C155.453 179.227 155.728 178.909 156 178.586L156.976 179.408C156.698 179.739 156.416 180.066 156.13 180.388L155.174 179.542ZM157.19 177.117C157.449 176.785 157.704 176.45 157.956 176.112L158.981 176.875C158.724 177.22 158.462 177.563 158.198 177.902L157.19 177.117ZM159.059 174.575C159.299 174.228 159.535 173.879 159.768 173.527L160.833 174.233C160.596 174.591 160.353 174.946 160.11 175.3L159.059 174.575ZM160.789 171.934C161.01 171.576 161.228 171.215 161.443 170.853L162.541 171.504C162.323 171.872 162.101 172.238 161.876 172.604L160.789 171.934ZM162.383 169.212C162.587 168.844 162.787 168.474 162.985 168.102L164.112 168.702C163.912 169.079 163.708 169.454 163.501 169.829L162.383 169.212ZM163.848 166.421C164.037 166.043 164.222 165.663 164.403 165.284L165.555 165.833C165.371 166.22 165.183 166.605 164.992 166.99L163.848 166.421ZM165.198 163.563C165.371 163.177 165.539 162.79 165.704 162.403L166.879 162.904C166.711 163.297 166.54 163.69 166.365 164.082L165.198 163.563ZM166.428 160.65C166.585 160.256 166.738 159.864 166.887 159.471L168.08 159.925C167.929 160.323 167.774 160.722 167.615 161.122L166.428 160.65ZM167.541 157.689C167.683 157.289 167.82 156.891 167.953 156.495L169.164 156.899C169.028 157.303 168.889 157.708 168.744 158.116L167.541 157.689ZM168.535 154.688C168.66 154.282 168.781 153.878 168.899 153.477L170.124 153.834C170.005 154.242 169.882 154.652 169.755 155.065L168.535 154.688ZM169.404 151.651C169.512 151.237 169.616 150.829 169.715 150.425L170.956 150.728C170.855 151.139 170.75 151.555 170.64 151.975L169.404 151.651ZM170.138 148.578C170.227 148.16 170.311 147.747 170.39 147.34L171.643 147.582C171.564 147.997 171.478 148.417 171.388 148.844L170.138 148.578ZM170.716 145.478C170.783 145.053 170.843 144.638 170.896 144.231L172.161 144.397C172.107 144.814 172.045 145.239 171.978 145.676L170.716 145.478ZM171.097 142.359C171.132 141.928 171.16 141.512 171.178 141.111L172.454 141.167C172.434 141.583 172.407 142.016 172.371 142.464L171.097 142.359ZM171.102 138.031L172.371 137.882C172.419 138.289 172.451 138.735 172.468 139.203L171.193 139.25C171.177 138.814 171.146 138.404 171.102 138.031ZM142.334 138.343L142.343 137.066C142.767 137.069 143.185 137.072 143.613 137.07L143.615 138.347C143.56 138.347 143.506 138.347 143.451 138.347C143.079 138.347 142.707 138.345 142.334 138.343ZM145.52 137.062C145.944 137.057 146.368 137.052 146.791 137.045L146.812 138.322C146.387 138.328 145.961 138.334 145.533 138.339L145.52 137.062ZM139.138 138.294L139.168 137.017C139.592 137.027 140.015 137.036 140.438 137.043L140.417 138.319C139.992 138.313 139.565 138.304 139.138 138.294ZM148.695 137.002C149.12 136.99 149.542 136.976 149.964 136.961L150.011 138.236C149.587 138.252 149.16 138.266 148.731 138.278L148.695 137.002ZM135.943 138.194L135.993 136.918C136.415 136.936 136.839 136.951 137.262 136.965L137.222 138.24C136.795 138.226 136.369 138.211 135.943 138.194ZM151.866 136.881C152.292 136.859 152.715 136.837 153.134 136.813L153.207 138.087C152.785 138.111 152.359 138.134 151.93 138.156L151.866 136.881ZM132.75 138.042L132.82 136.768C133.243 136.792 133.665 136.814 134.089 136.835L134.028 138.11C133.6 138.09 133.175 138.067 132.75 138.042ZM155.033 136.69C155.459 136.659 155.879 136.625 156.296 136.59L156.404 137.861C155.983 137.898 155.556 137.931 155.125 137.962L155.033 136.69ZM129.56 137.838L129.653 136.566C130.074 136.597 130.496 136.625 130.92 136.653L130.836 137.927C130.409 137.899 129.984 137.869 129.56 137.838ZM126.369 137.573L126.493 136.302C126.904 136.342 127.313 136.379 127.706 136.413L127.775 136.419L127.616 137.686C127.2 137.651 126.784 137.614 126.369 137.573ZM158.188 136.412C158.614 136.369 159.034 136.322 159.447 136.275L159.595 137.543C159.177 137.592 158.752 137.639 158.32 137.683L158.188 136.412ZM123.182 137.209L123.346 135.944C123.765 135.998 124.183 136.05 124.602 136.099L124.454 137.367C124.03 137.317 123.605 137.264 123.182 137.209ZM161.328 136.031C161.753 135.971 162.17 135.907 162.575 135.841L162.78 137.101C162.367 137.169 161.942 137.234 161.508 137.296L161.328 136.031ZM120.013 136.752L120.212 135.49C120.628 135.556 121.045 135.62 121.463 135.682L121.276 136.945C120.854 136.882 120.432 136.818 120.013 136.752ZM164.433 135.505C164.856 135.419 165.266 135.33 165.66 135.238L165.951 136.481C165.544 136.576 165.122 136.668 164.685 136.756L164.433 135.505ZM116.855 136.211L117.084 134.956C117.499 135.031 117.916 135.107 118.334 135.179L118.115 136.437C117.693 136.363 117.272 136.288 116.855 136.211ZM170.225 135.511L171.065 134.55C171.411 134.852 171.697 135.296 171.916 135.868L170.724 136.324C170.582 135.953 170.41 135.672 170.225 135.511ZM167.464 134.752C167.88 134.625 168.271 134.49 168.628 134.353L169.086 135.545C168.702 135.693 168.283 135.837 167.84 135.973L167.464 134.752ZM113.712 135.599L113.97 134.348C114.382 134.433 114.797 134.517 115.215 134.599L114.968 135.852C114.546 135.769 114.127 135.684 113.712 135.599ZM110.583 134.92L110.868 133.677C111.275 133.769 111.689 133.861 112.107 133.953L111.833 135.2C111.412 135.109 110.995 135.015 110.583 134.92ZM107.471 134.18L107.778 132.941C108.181 133.041 108.593 133.141 109.011 133.241L108.714 134.483C108.293 134.382 107.878 134.28 107.471 134.18ZM104.372 133.383L104.702 132.149C105.101 132.256 105.511 132.363 105.93 132.472L105.61 133.709C105.188 133.6 104.775 133.49 104.372 133.383ZM101.288 132.53L101.639 131.303C102.03 131.415 102.439 131.53 102.863 131.649L102.519 132.878C102.093 132.759 101.681 132.643 101.288 132.53ZM98.2188 131.618L98.5957 130.398C98.9639 130.512 99.3692 130.635 99.8105 130.767L99.4438 131.99C98.9991 131.857 98.59 131.733 98.2188 131.618Z" fill="white"/>
<path d="M146.781 188.273C146.967 188.163 147.152 188.052 147.337 187.937L146.666 186.852C146.488 186.962 146.308 187.069 146.129 187.177L146.781 188.273Z" fill="white"/>
<path d="M97.943 5.26145C86.9573 3.11299 80.0181 7.60949 79.1161 12.5832C77.8827 19.3876 80.1616 24.317 80.6211 25.5444C80.6246 25.5539 80.6302 25.5641 80.634 25.5739L76.0977 35.9156C79.9389 42.0462 88.9821 39.7618 88.9821 39.7618L91.033 33.4815C92.0335 33.889 92.868 34.1212 93.3889 34.106C97.6279 33.9826 102.698 22.9487 102.983 17.4777C103.237 12.6014 103.633 6.37487 97.943 5.26145Z" fill="#FFA47F"/>
<path d="M100.166 9.96531C99.5729 10.1327 97.7629 10.5239 97.7629 10.5239C97.7629 10.5239 96.6453 14.7697 95.7517 16.2778C94.8573 17.7858 95.9097 25.1094 100.214 25.4866C104.519 25.8638 100.424 29.3458 99.949 30.6864C99.2698 32.6031 99.8827 34.3274 95.9423 35.0814C93.3167 35.5844 88.9042 32.4634 91.1388 28.7762C93.3746 25.0894 95.3043 21.3617 93.1807 16.6129C91.0577 11.8646 92.8458 21.9759 86.9226 24.6016C80.999 27.2276 79.3787 28.3444 79.3787 28.3444C79.3787 28.3444 79.2405 25.932 78.3897 24.519C75.622 19.9218 74.3764 15.9627 75.2704 9.0916C76.1652 2.22054 79.6291 0.376569 85.8876 0.097833C92.1457 -0.18166 92.4393 2.13685 96.3798 0.564035C101.213 -1.36515 103.286 2.33454 106.784 1.58544C106.784 1.58544 105.609 8.42999 100.166 9.96531Z" fill="#1B2E4E"/>
<path d="M94.5294 37.9351C105.38 41.7503 117.782 54.997 115.448 79.7636C113.113 104.53 127.759 98.1598 129.777 105.018C129.777 105.018 108.997 122.406 96.4504 145.318C96.4504 145.318 53.9745 148.684 56.5971 114.191C59.2204 79.6981 58.8473 81.1868 59.7242 68.2506C60.9975 49.4689 69.858 34.2161 77.2772 33.5124C83.3933 32.9315 86.1518 34.9902 94.5294 37.9351Z" fill="#F2E6D6"/>
<path d="M94.5295 37.9354C105.38 41.7506 117.782 54.9973 115.448 79.7639C113.697 98.3384 121.498 99.3992 126.359 101.662C127.979 102.416 92.5437 103.598 69.6975 140.161C61.8233 135.863 55.5387 128.109 56.5971 114.191C59.2205 79.698 58.8473 81.1867 59.7243 68.2505C60.9975 49.4688 69.8581 34.216 77.2773 33.5123C83.3933 32.9317 86.1519 34.9905 94.5295 37.9354Z" fill="#FEF8EC"/>
<path d="M86.4951 20.3226C87.1664 22.5358 89.2472 23.8636 91.144 23.2879C93.0407 22.713 94.0336 20.4532 93.3623 18.24C92.6914 16.0272 90.6094 14.6998 88.7135 15.2747C86.8167 15.8496 85.8234 18.1097 86.4951 20.3226Z" fill="#FFA47F"/>
<path d="M91.0184 22.0519C91.1078 22.0519 91.1976 22.0372 91.2859 22.008C91.8894 21.8084 92.2212 20.9745 92.2572 20.8798L91.6602 20.653C91.5802 20.862 91.3344 21.3202 91.0847 21.4017C91.0362 21.4183 90.9677 21.4271 90.8616 21.3581C90.6699 21.2366 90.6711 21.1517 90.7063 20.8116C90.7461 20.4151 90.8018 19.872 90.2722 19.2415C89.8998 18.7991 89.4759 18.5927 89.1331 18.4261C88.6198 18.1761 88.4978 18.1171 88.6633 17.5641C88.7183 17.3808 88.8285 17.2475 89.0005 17.1555C89.5778 16.8503 90.6597 17.0817 91.0279 17.1968L91.2185 16.5878C91.1544 16.5674 89.6316 16.0989 88.7012 16.5924C88.3747 16.7658 88.1561 17.0313 88.0512 17.3816C87.7307 18.4537 88.3269 18.7446 88.8542 19.0002C89.1554 19.1479 89.4982 19.3138 89.7831 19.6524C90.1388 20.0762 90.1062 20.4022 90.0703 20.7469C90.0339 21.1086 89.9873 21.5592 90.5176 21.8967C90.679 21.9997 90.8487 22.0519 91.0184 22.0519Z" fill="#1B2E4E"/>
<path d="M194.817 85.8198C194.888 84.8658 191.564 84.0043 189.672 79.5415C187.78 75.0783 186.57 77.4233 182.484 76.2133C178.399 75.0029 177.642 74.0951 174.313 77.2722C170.984 80.4493 169.773 80.6003 167.579 79.9952C165.385 79.39 132.911 69.6092 123.093 69.9955C113.274 70.3822 98.0658 92.6204 114.389 98.4338C136.997 106.485 168.096 86.4428 176.507 88.3913C176.507 88.3913 180.441 87.8615 181.349 84.5708C182.257 81.2809 186.078 82.945 186.835 84.533C187.591 86.1213 186.835 88.202 188.5 88.1262C190.164 88.0508 190.164 85.5157 190.164 85.5157C190.164 85.5157 194.699 87.4123 194.817 85.8198Z" fill="#FFA47F"/>
<path d="M194.81 85.827C194.871 85.0093 192.436 84.2591 190.549 81.2494C174.056 79.8618 150.154 99.6532 114.383 98.4413C136.99 106.493 168.09 86.4504 176.5 88.3988C176.5 88.3988 180.435 87.869 181.343 84.5783C182.251 81.2884 186.071 82.9525 186.828 84.5405C187.585 86.1288 186.828 88.2095 188.493 88.1337C190.157 88.0584 190.157 85.5232 190.157 85.5232C190.157 85.5232 194.693 87.4195 194.81 85.827Z" fill="#CF7F6E"/>
<path d="M83.1795 39.9697C79.7274 42.2329 71.4539 52.7885 74.4762 62.3591C77.4976 71.9292 94.2543 91.8982 105.469 101.62C105.469 101.62 125.317 93.2374 130.73 70.6359C130.73 70.6359 110.8 48.6597 104.189 43.5766C97.5792 38.4931 86.9874 37.4736 83.1795 39.9697Z" fill="#FEF8EC"/>
<path d="M105.092 76.3548C106.667 76.3548 107.705 76.109 107.736 76.1019L107.581 75.4823C107.495 75.5039 98.3552 77.8485 93.087 69.3281L92.543 69.6637C96.233 75.63 101.915 76.3548 105.092 76.3548Z" fill="#1B2E4E"/>
<path d="M105.491 102.345L105.684 102.255C105.76 102.219 113.398 98.5649 118.785 92.1343L118.295 91.7234C113.474 97.4803 106.808 100.978 105.601 101.584C103.829 99.9597 87.8674 85.1038 81.3714 71.2109L80.793 71.4813C87.6966 86.2441 105.158 102.045 105.334 102.204L105.491 102.345Z" fill="#1B2E4E"/>
<path d="M147.009 146.038C150.714 146.038 159.841 145.164 168.375 137.466L167.948 136.992C157.187 146.698 145.496 145.344 145.382 145.33L145.301 145.963C145.327 145.966 145.944 146.038 147.009 146.038Z" fill="white"/>
<path d="M162.736 147.644H102.262V144.891H162.736C163.497 144.891 164.113 145.506 164.113 146.267C164.113 147.027 163.497 147.644 162.736 147.644Z" fill="#1B2E4E"/>
<path d="M101.399 202.796C100.387 202.796 99.5664 202.125 99.5664 201.297V146.023H103.231V201.297C103.231 202.125 102.411 202.796 101.399 202.796Z" fill="#F2E6D6"/>
<path d="M102.556 146.656H101.918V200.726H102.556V146.656Z" fill="#1B2E4E"/>
<path d="M119.361 208.285H120V203.152C120 199.617 117.125 196.742 113.589 196.742H89.2631C85.7279 196.742 82.8516 199.617 82.8516 203.152V207.45H83.4903V203.152C83.4903 199.969 86.0795 197.38 89.2627 197.38H113.589C116.771 197.38 119.361 199.969 119.361 203.152V208.285H119.361Z" fill="#1B2E4E"/>
<path d="M128.722 208.285H129.36V203.152C129.36 199.617 126.484 196.742 122.95 196.742H79.9096C76.3752 196.742 73.5 199.617 73.5 203.152V207.45H74.1383V203.152C74.1383 199.969 76.7275 197.38 79.9096 197.38H122.949C126.132 197.38 128.722 199.969 128.722 203.152V208.285Z" fill="#1B2E4E"/>
<path d="M122.72 207.381C122.72 209.062 121.357 210.426 119.675 210.426C117.993 210.426 116.629 209.062 116.629 207.381C116.629 205.699 117.993 204.336 119.675 204.336C121.357 204.336 122.72 205.699 122.72 207.381Z" fill="#1B2E4E"/>
<path d="M131.92 207.381C131.92 209.062 130.556 210.426 128.873 210.426C127.191 210.426 125.828 209.062 125.828 207.381C125.828 205.699 127.192 204.336 128.873 204.336C130.557 204.336 131.92 205.699 131.92 207.381Z" fill="#1B2E4E"/>
<path d="M76.8102 207.381C76.8102 209.062 75.4464 210.426 73.7648 210.426C72.0817 210.426 70.7188 209.062 70.7188 207.381C70.7188 205.699 72.0817 204.336 73.7648 204.336C75.4464 204.336 76.8102 205.699 76.8102 207.381Z" fill="#1B2E4E"/>
<path d="M86.4153 207.381C86.4153 209.062 85.0515 210.426 83.3699 210.426C81.6876 210.426 80.3242 209.062 80.3242 207.381C80.3242 205.699 81.688 204.336 83.3699 204.336C85.0519 204.336 86.4153 205.699 86.4153 207.381Z" fill="#1B2E4E"/>
<path d="M64.8117 147.416H111.767C109.646 147.004 98.9414 143.415 101.687 113.036C103.324 94.9203 92.3159 67.1399 88.9137 59.75H40.2611C40.1255 60.6097 40.4684 61.9045 42.1435 63.7886C45.9211 68.0367 53.9479 100.921 55.0495 110.361C56.1197 119.538 47.3803 141.292 64.8117 147.416Z" fill="#F2E6D6"/>
<path d="M64.8147 147.419H111.77C109.65 147.007 98.9444 143.417 101.69 113.039C96.2813 130.408 80.7997 142.803 56.0859 140.336C57.7349 143.38 60.4568 145.888 64.8147 147.419Z" fill="#D3C8BC"/>
<path d="M111.766 147.648H64.7715L64.7347 147.635C51.5817 143.014 53.1644 129.341 54.3206 119.358C54.7343 115.79 55.0907 112.708 54.8206 110.39C53.6702 100.531 45.6748 68.1089 41.9711 63.9434C40.5035 62.293 39.8516 60.8709 40.0338 59.717L40.0641 59.5234H89.0598L89.1212 59.6567C93.2178 68.5551 103.501 95.4951 101.914 113.059C99.191 143.189 109.679 146.779 111.809 147.193L111.766 147.648ZM64.8502 147.189H110.309C106.697 145.609 99.0951 139.161 101.459 113.018C103.028 95.6402 92.8882 68.9815 88.7666 59.9817H40.4664C40.4126 60.955 41.0471 62.2138 42.3143 63.639C46.0593 67.851 54.1213 100.44 55.2763 110.338C55.5525 112.707 55.1934 115.814 54.7767 119.411C53.5762 129.778 52.0829 142.678 64.8502 147.189Z" fill="#1B2E4E"/>
<path d="M114.671 147.753C111.62 147.753 109.555 147.753 109.555 147.753C109.555 147.753 95.4759 145.529 98.736 118.364C99.155 114.876 101.485 111.913 104.783 110.704C112.421 107.925 127.998 103.383 148.376 103.383C148.376 103.383 148.58 103.402 148.913 103.463C130.784 104.068 116.945 108.134 109.899 110.704C106.596 111.912 104.272 114.876 103.853 118.364C100.592 145.529 114.671 147.753 114.671 147.753Z" fill="#D3C8BC"/>
<path d="M159.681 117.119C155.378 130.024 150.97 140.931 150.97 140.931C150.97 140.931 148.874 147.753 140.374 147.753H135.258C143.759 147.753 145.86 140.931 145.86 140.931C145.86 140.931 150.268 130.024 154.564 117.119C158.27 106.008 150.995 103.844 148.912 103.463C150.41 103.407 151.939 103.383 153.492 103.383C153.492 103.383 163.983 104.221 159.681 117.119Z" fill="#D3C8BC"/>
<path d="M114.593 148.374C113.993 148.28 99.9398 145.738 103.239 118.281C103.691 114.523 106.167 111.387 109.7 110.098C117.247 107.348 132.973 102.734 153.513 102.734L153.565 102.736C153.736 102.75 157.771 103.11 159.993 106.466C161.729 109.089 161.835 112.74 160.308 117.316C156.05 130.09 151.631 141.056 151.605 141.114C151.583 141.186 149.266 148.382 140.397 148.382H114.643L114.593 148.374ZM110.138 111.297C107.058 112.419 104.9 115.154 104.506 118.434C101.451 143.871 113.943 146.936 114.752 147.105H140.397C148.299 147.105 150.303 140.996 150.403 140.686C150.447 140.577 154.852 129.646 159.098 116.912C160.491 112.733 160.437 109.459 158.935 107.18C157.141 104.459 153.784 104.042 153.483 104.011C133.153 104.015 117.601 108.577 110.138 111.297Z" fill="#1B2E4E"/>
<path d="M47.7849 78.1932H79.7383V77.5547H47.5391L47.7849 78.1932Z" fill="#1B2E4E"/>
<path d="M49.3935 84.342H81.5799V83.7031H49.2227L49.3935 84.342Z" fill="#1B2E4E"/>
<path d="M50.974 90.5209H84.0495V89.8828H50.8164L50.974 90.5209Z" fill="#1B2E4E"/>
<path d="M341.505 211.003H185.432C185.118 211.003 184.863 210.749 184.863 210.435C184.863 210.122 185.118 209.867 185.432 209.867H341.505C341.819 209.867 342.073 210.122 342.073 210.435C342.073 210.749 341.819 211.003 341.505 211.003Z" fill="#1B2E4E"/>
<path d="M178.235 211.003H57.9003C57.5862 211.003 57.332 210.749 57.332 210.435C57.332 210.122 57.5862 209.867 57.9003 209.867H178.235C178.549 209.867 178.803 210.122 178.803 210.435C178.803 210.749 178.549 211.003 178.235 211.003Z" fill="#1B2E4E"/>
<path d="M50.7023 211.003H0.568229C0.254188 211.003 0 210.749 0 210.435C0 210.122 0.254188 209.867 0.568229 209.867H50.7023C51.0164 209.867 51.2706 210.122 51.2706 210.435C51.2706 210.749 51.0164 211.003 50.7023 211.003Z" fill="#1B2E4E"/>
<path d="M114.671 148.04L109.51 148.037C109.362 148.013 105.845 147.417 102.7 143.424C99.8271 139.776 96.7583 132.462 98.4543 118.333C98.8892 114.713 101.277 111.689 104.686 110.44C112.218 107.7 127.909 103.102 148.377 103.102C148.411 103.103 148.623 103.124 148.965 103.187L151.547 103.662L148.923 103.75C130.613 104.36 116.675 108.538 109.997 110.974C106.791 112.146 104.545 114.993 104.135 118.401C102.466 132.301 105.442 139.469 108.233 143.035C111.239 146.877 114.681 147.47 114.715 147.476L114.671 148.04ZM109.58 147.472H112.881C111.539 146.883 109.616 145.71 107.816 143.424C104.943 139.776 101.875 132.462 103.571 118.333C104.006 114.711 106.394 111.687 109.801 110.44C114.823 108.608 123.928 105.797 135.898 104.241C121.649 105.555 110.763 108.833 104.881 110.974C101.674 112.149 99.4275 114.994 99.0183 118.401C97.35 132.3 100.326 139.469 103.117 143.035C106.004 146.725 109.295 147.418 109.58 147.472Z" fill="#1B2E4E"/>
</svg>
