<svg width="114" height="88" viewBox="0 0 114 88" fill="none" xmlns="http://www.w3.org/2000/svg">
<path fill-rule="evenodd" clip-rule="evenodd" d="M84.1867 24.1602C86.5151 22.2004 87.8706 19.4436 90.0983 17.5425C93.4086 19.7008 96.4461 24.9054 96.9331 29.1995C95.5757 29.9164 94.0345 29.9408 92.5461 30.1853C91.132 30.4171 89.6944 30.5745 88.2666 31.2571C88.3087 31.5984 88.2695 31.9475 88.4025 32.2145C89.4421 34.2966 90.066 36.4813 90.1648 38.8146C90.1755 39.0513 90.3379 39.2821 90.4738 39.6253C93.5133 39.5892 95.9649 37.4934 99.0083 37.1228C100.049 38.4596 100.099 40.1114 100.238 41.6663C100.503 44.6363 100.415 47.6014 99.2723 50.3572C98.5829 50.7924 98.0196 50.4638 97.4905 50.277C96.1292 49.7939 94.7836 49.2649 93.4487 48.7123C92.5079 48.3241 91.5583 48.0483 90.421 48.018C90.1491 49.5064 89.979 50.9293 89.6103 52.2994C89.2622 53.5981 88.7057 54.8421 88.1845 56.2611C88.5121 56.4557 88.8221 56.751 89.1829 56.8341C90.4239 57.1187 91.6777 57.3505 92.9314 57.5637C94.2614 57.7886 95.605 57.9343 96.849 58.4213C96.7512 62.1678 93.8937 67.2814 90.2557 70.2201C88.9688 69.3889 88.1796 68.055 87.1918 66.9167C86.253 65.8341 85.3201 64.7476 84.3236 63.5926C83.9168 63.8567 83.5598 63.9701 83.3965 64.2136C82.1037 66.147 80.538 67.7939 78.5645 69.0456C78.3034 69.2109 78.1401 69.5277 77.879 69.8387C79.6813 72.354 82.5711 73.5744 84.4116 75.8638C82.267 79.1731 77.0282 82.2409 72.7663 82.6673C71.5302 79.978 72.0172 76.8515 70.7899 73.9881C70.4241 74.036 69.9782 73.9832 69.6457 74.1514C67.5666 75.2047 65.3829 75.8237 63.0534 75.9518C62.8236 75.9655 62.6036 76.1542 62.2936 76.3009C62.406 79.3267 64.4558 81.7921 64.8215 84.7122C61.211 86.5312 55.1067 86.536 51.4287 84.7327C51.7759 81.795 53.7953 79.3228 54.0202 76.1454C52.5328 75.8814 51.1108 75.7298 49.7486 75.3592C48.3756 74.9846 47.0632 74.392 45.6031 73.8502C44.1196 76.5934 44.6721 79.7472 43.4556 82.6106C41.8048 82.7876 40.3672 82.018 38.9336 81.3764C35.7103 79.933 33.5266 78.2196 31.8827 75.9635C33.5794 73.551 36.6393 72.4821 38.3077 69.829C37.4921 68.5351 35.9782 68.0853 35.0893 66.9675C34.1974 65.8497 33.2703 64.7623 32.2611 63.5447C29.6412 65.3334 28.4334 68.3337 26.0786 70.1947C22.6577 67.7293 19.6604 62.5463 19.3259 58.478C22.0055 57.2713 25.1603 57.815 27.9523 56.4293C27.8623 54.8518 26.8893 53.5864 26.5216 52.1312C26.1764 50.768 26.4502 49.2512 25.6747 47.9427C22.6411 48.3603 20.2002 50.1519 17.2312 50.6408C16.35 49.3959 16.2092 47.9642 16.087 46.5482C15.8161 43.4061 15.7965 40.2815 17.0473 37.1649C20.1073 37.3673 22.5697 39.419 25.5965 39.7055C26.5764 38.4577 26.0316 36.8773 26.55 35.5552C27.0702 34.2252 27.5259 32.8698 28.053 31.4048C25.3158 29.8753 22.159 30.4366 19.3073 29.2504C19.1616 27.5058 19.9655 26.0017 20.6637 24.4996C22.2333 21.1277 23.9359 18.9987 26.1079 17.5494C28.4188 19.3879 29.6119 22.3129 32.2269 24.1211C33.195 22.9779 34.0497 21.8337 35.0492 20.8333C36.0486 19.8309 37.1968 18.9762 38.2969 18.0423C37.4823 16.5186 36.1866 15.6962 35.0101 14.7456C33.8972 13.8459 32.7051 13.0235 31.8435 11.8793C33.9021 8.62178 39.3336 5.43664 43.4614 5.06893C44.6985 7.77 44.2213 10.9082 45.4457 13.7071C46.9928 13.8029 48.1174 12.6597 49.5168 12.422C50.928 12.1824 52.3274 11.8881 53.8853 11.5869C53.9175 8.46532 51.7905 6.02927 51.4238 3.13457C54.2432 1.31365 60.858 1.21684 64.8098 2.97518C64.4558 5.89921 62.5381 8.38903 62.1811 11.3981C63.5277 12.3448 65.1804 11.8558 66.5936 12.3927C67.9206 12.8963 69.2604 13.3619 70.6999 13.8821C72.0896 11.0393 71.627 7.91083 72.691 5.20292C76.3807 5.21759 81.9423 8.38317 84.3891 11.8412C82.5486 14.1256 79.6686 15.3588 77.8369 17.9102C79.0476 18.9684 80.1712 19.9629 81.3115 20.9379C82.3833 21.864 82.8283 23.374 84.1867 24.1602ZM36.9464 43.2633C36.7704 46.9892 37.6407 50.1783 38.7869 53.3037C39.0744 54.09 39.5399 54.8264 40.0054 55.5305C42.5167 59.3191 45.9992 61.9683 50.0195 63.977C51.4062 64.6693 52.8721 65.0488 54.4026 65.2483C58.1813 65.7392 61.8496 65.3373 65.4601 64.1109C67.4209 63.444 69.1998 62.5189 70.8173 61.2378C74.2342 58.5289 76.5891 55.0425 78.2956 51.0809C78.5293 50.5381 78.6955 49.9582 78.8197 49.3793C79.8974 44.296 79.1239 39.4112 77.2051 34.6564C77.0477 34.2653 76.8355 33.8888 76.6086 33.5318C73.6768 28.9062 69.5 25.8325 64.4529 23.8698C63.827 23.6263 63.1414 23.5177 62.4755 23.4043C59.1612 22.843 55.8979 23.0385 52.6042 23.7515C49.5217 24.4184 46.8265 25.6897 44.5244 27.8246C42.7729 29.4479 41.2581 31.2297 39.9594 33.2697C37.9273 36.4598 36.7606 39.816 36.9464 43.2633Z" fill="#FFAC36"/>
<path d="M57.9445 24.6643C46.5339 24.7201 38.5246 33.9195 38.4845 44.1566C38.4386 55.0635 47.5794 63.9735 58.0726 63.8483C68.2011 63.905 77.7399 55.5847 77.694 44.1556C77.6509 33.2154 68.9884 24.6105 57.9445 24.6643Z" fill="white"/>
<path fill-rule="evenodd" clip-rule="evenodd" d="M92.5213 49.9715C91.3614 51.81 90.9478 53.2515 90.8852 55.6905C93.2322 56.1912 95.6135 56.6987 97.8237 57.1711C98.7439 58.1373 98.4867 59.0741 98.2745 59.9768C97.63 62.7345 96.4458 65.2498 94.9055 67.6301C93.9589 69.0951 92.6875 70.1884 91.381 71.2651C91.0114 71.5683 90.4881 71.6866 90.0217 71.8959C87.923 70.2842 86.4483 68.1954 84.8503 66.2894C82.826 67.4903 81.8158 68.4966 80.5738 70.5297C82.3087 72.3095 84.5736 73.5985 86.0239 75.6707C86.019 77.1034 84.955 77.8007 84.1325 78.6162C81.8706 80.8587 79.2262 82.5515 76.2376 83.6341C74.4157 84.2942 73.4016 84.2658 71.6961 83.9274C70.5695 81.6655 70.6849 79.028 69.9123 76.6594C67.6073 76.6946 66.0534 77.1503 64.3254 78.2779C65.0813 80.5917 65.8422 82.9172 66.5316 85.0315C66.1962 86.0163 65.584 86.339 64.9376 86.5591C61.4943 87.7297 57.9385 87.9604 54.3651 87.5184C53.1309 87.3659 51.9359 86.785 50.7643 86.2941C49.8539 85.9136 49.6319 85.4022 49.9106 84.4477C50.3643 82.9006 50.9003 81.377 51.4068 79.8455C51.5662 79.3673 51.7472 78.895 51.9564 78.316C50.334 77.0134 48.4212 76.8755 46.4438 76.5518C45.5069 79.0123 45.727 81.6821 44.4449 84.1299C41.6529 84.6218 39.2256 83.3064 36.815 82.1456C33.9575 80.7687 31.4638 78.9165 29.9949 75.9123C31.496 73.6689 33.7267 72.3408 35.533 70.6236C34.6753 68.8124 33.714 67.7758 31.5273 66.3079C29.6888 67.9988 28.4253 70.295 26.3149 71.7658C25.5482 71.8939 25.0035 71.4392 24.5057 70.9981C21.7831 68.5875 19.8537 65.6146 18.4171 62.2984C17.3355 57.0801 16.738 57.4713 21.8037 56.4063C22.9488 56.1657 24.1038 55.9653 25.2167 55.753C25.3409 53.5077 24.9781 52.077 23.739 49.9519C21.3832 50.6746 19.1173 51.9293 16.4368 52.1396C16.1179 51.6496 15.6818 51.2086 15.5107 50.6805C14.1151 46.3825 13.7914 42.0473 15.2378 37.6827C15.3444 37.361 15.4754 37.0451 15.6221 36.738C16.117 35.6867 16.5394 35.4227 17.622 35.7366C19.1711 36.1836 20.6908 36.7312 22.2203 37.2407C22.6926 37.3981 23.161 37.5712 23.5923 37.7238C24.846 36.1532 25.2509 34.8046 25.2802 32.1036C22.9772 31.2185 20.3123 31.4396 18.0152 30.2103C17.5027 29.4446 17.7247 28.628 17.9213 27.7919C18.7085 24.4248 20.1695 21.3482 22.366 18.7205C23.3478 17.546 24.4666 16.2512 26.2318 15.862C28.261 17.4345 29.7533 19.5029 31.321 21.4059C33.3883 20.296 34.4523 19.2476 35.6034 17.2086C33.889 15.4239 31.6241 14.1301 30.0653 11.9111C31.1694 9.24723 33.491 7.77055 35.7119 6.28408C38.2438 4.59029 40.9986 3.26029 44.3833 3.67787C45.6468 5.87725 45.5147 8.51867 46.2619 11.0349C48.2833 11.3185 50.025 10.5342 51.8909 9.68828C51.398 7.1388 49.9546 4.92279 49.8118 2.41144C50.1873 1.57237 50.9179 1.2878 51.6474 1.07657C54.945 0.121121 58.3062 -0.324821 61.7153 0.266831C62.9543 0.481977 64.1562 0.961163 65.3385 1.41493C65.7757 1.58215 66.1082 2.02125 66.4827 2.33028C66.115 4.87194 65.0412 7.09968 64.2413 9.52301C65.9634 10.6701 67.8137 11.0232 69.8537 11.1141C70.638 8.64482 70.5578 6.02102 71.6541 3.78252C72.5626 3.29355 73.3889 3.45002 74.2231 3.64952C77.4972 4.43187 80.4711 5.87725 83.0989 7.94363C84.1433 8.7651 84.9501 9.91321 85.7745 10.9821C86.2772 11.6305 86.1803 12.1615 85.5447 12.7815C84.51 13.7878 83.4245 14.7423 82.3507 15.7085C81.7914 16.2111 81.2095 16.6893 80.6589 17.1617C81.7288 19.1479 82.7507 20.1933 84.7574 21.3678C86.5842 19.6642 87.833 17.3524 89.9796 15.8962C91.5913 16.0957 92.4753 17.3553 93.3995 18.3949C95.3827 20.6275 97.0736 23.1017 97.9078 26.0081C98.295 27.3498 98.8319 28.7718 98.2354 30.178C95.8864 31.4347 93.2332 31.2459 90.7121 32.1398C91.0329 34.1436 91.2852 36.031 92.4861 37.8284C93.4885 37.4412 94.4175 37.0412 95.373 36.7243C96.5807 36.3234 97.8041 35.9625 99.0363 35.6398C99.5752 35.498 100.045 35.7444 100.324 36.2354C100.534 36.6021 100.724 36.9864 100.854 37.3845C101.938 40.6742 102.137 44.0638 101.723 47.466C101.575 48.7041 101.024 49.906 100.56 51.0863C100.198 52.0056 99.7003 52.256 98.7478 52.0037C97.3542 51.635 95.9851 51.1685 94.6121 50.7255C93.9011 50.4927 93.2019 50.217 92.5213 49.9715ZM84.1834 24.1647C82.825 23.3784 82.3801 21.8685 81.3043 20.9424C80.1641 19.9674 79.0404 18.9728 77.8297 17.9147C79.6614 15.3632 82.5414 14.1301 84.3819 11.8456C81.9351 8.38762 76.3736 5.22302 72.6838 5.20737C71.6198 7.91528 72.0824 11.0437 70.6927 13.8866C69.2522 13.3653 67.9134 12.9008 66.5864 12.3972C65.1742 11.8603 63.5206 12.3502 62.1739 11.4026C62.5299 8.39349 64.4476 5.90269 64.8026 2.97963C60.8517 1.2213 54.236 1.31811 51.4166 3.13903C51.7843 6.03373 53.9113 8.46977 53.8781 11.5914C52.3202 11.8926 50.9218 12.1869 49.5096 12.4265C48.1102 12.6641 46.9856 13.8074 45.4385 13.7115C44.2141 10.9136 44.6904 7.77445 43.4543 5.07339C39.3264 5.44109 33.8949 8.62624 31.8363 11.8837C32.6989 13.0279 33.891 13.8504 35.0029 14.7501C36.1794 15.7006 37.4751 16.5241 38.2898 18.0467C37.1896 18.9806 36.0415 19.8363 35.042 20.8377C34.0426 21.8382 33.1879 22.9824 32.2197 24.1256C29.6047 22.3164 28.4116 19.3924 26.1007 17.5538C23.9277 19.0041 22.2261 21.1331 20.6566 24.504C19.9583 26.0061 19.1545 27.5102 19.3002 29.2549C22.1518 30.4411 25.3096 29.8807 28.0459 31.4093C27.5187 32.8742 27.063 34.2296 26.5428 35.5596C26.0254 36.8828 26.5692 38.4621 25.5893 39.71C22.5626 39.4234 20.1001 37.3717 17.0401 37.1693C15.7894 40.285 15.808 43.4105 16.0798 46.5526C16.2021 47.9677 16.3419 49.3994 17.224 50.6453C20.193 50.1563 22.6339 48.3647 25.6675 47.9472C26.443 49.2556 26.1702 50.7734 26.5144 52.1357C26.8821 53.5898 27.8552 54.8553 27.9451 56.4337C25.1531 57.8194 21.9983 57.2747 19.3187 58.4825C19.6532 62.5507 22.6506 67.7347 26.0714 70.1991C28.4263 68.3391 29.635 65.3378 32.2539 63.5492C33.2622 64.7667 34.1893 65.8542 35.0821 66.972C35.9711 68.0897 37.4849 68.5386 38.3005 69.8334C36.6321 72.4865 33.5722 73.5554 31.8754 75.968C33.5194 78.2251 35.7031 79.9374 38.9264 81.3809C40.3601 82.0214 41.7976 82.7911 43.4484 82.6151C44.6649 79.7517 44.1134 76.5978 45.5959 73.8547C47.056 74.3965 48.3684 74.9891 49.7414 75.3636C51.1037 75.7343 52.5266 75.8858 54.013 76.1499C53.7881 79.3272 51.7687 81.7994 51.4215 84.7372C55.0995 86.5405 61.2038 86.5356 64.8143 84.7166C64.4486 81.7975 62.3988 79.3311 62.2864 76.3054C62.5964 76.1587 62.8164 75.969 63.0463 75.9563C65.3757 75.8281 67.5594 75.2091 69.6385 74.1559C69.971 73.9877 70.4169 74.0405 70.7827 73.9926C72.01 76.856 71.523 79.9824 72.7591 82.6718C77.021 82.2454 82.2598 79.1776 84.4044 75.8682C82.5639 73.5789 79.6741 72.3584 77.8718 69.8432C78.1339 69.5332 78.2962 69.2154 78.5573 69.0501C80.5318 67.7983 82.0965 66.1505 83.3893 64.2181C83.5526 63.9746 83.9096 63.8611 84.3164 63.5971C85.3129 64.753 86.2458 65.8395 87.1847 66.9211C88.1724 68.0594 88.9606 69.3933 90.2485 70.2246C93.8865 67.2859 96.745 62.1722 96.8418 58.4258C95.5988 57.9387 94.2542 57.793 92.9242 57.5681C91.6705 57.3549 90.4168 57.1232 89.1758 56.8386C88.8159 56.7554 88.5059 56.4601 88.1773 56.2655C88.6985 54.8465 89.255 53.6026 89.6031 52.3039C89.9718 50.9347 90.142 49.5119 90.4138 48.0225C91.5512 48.0528 92.5007 48.3285 93.4415 48.7168C94.7764 49.2683 96.122 49.7974 97.4833 50.2815C98.0124 50.4683 98.5757 50.7969 99.2651 50.3617C100.407 47.6068 100.495 44.6407 100.23 41.6707C100.091 40.1149 100.043 38.4641 99.0011 37.1273C95.9587 37.4979 93.5061 39.5926 90.4666 39.6298C90.3297 39.2856 90.1674 39.0557 90.1576 38.8191C90.0588 36.4857 89.4349 34.301 88.3954 32.219C88.2624 31.953 88.3015 31.6029 88.2594 31.2616C89.6872 30.58 91.1248 30.4225 92.5389 30.1898C94.0273 29.9453 95.5695 29.9218 96.9259 29.204C96.4389 24.9099 93.4014 19.7053 90.0911 17.547C87.8673 19.4471 86.5118 22.2039 84.1834 24.1647Z" fill="#1D262D"/>
<path fill-rule="evenodd" clip-rule="evenodd" d="M10.0695 59.5769C9.31941 59.0409 8.80992 58.8522 8.60162 58.4903C8.14101 57.6924 7.72537 56.8367 7.48088 55.9507C6.21347 51.3573 5.45559 46.672 5.37638 41.9035C5.32455 38.6011 5.20815 35.2761 5.91716 32.0195C6.18218 30.7952 6.67704 29.6119 7.15916 28.4471C7.27553 28.1616 7.7508 28.0247 8.0256 27.8438C8.5175 28.2877 8.20358 28.586 8.14295 28.8921C7.76448 30.7991 7.18948 32.6943 7.05453 34.6199C6.71323 39.447 6.73276 44.2907 7.6618 49.066C8.22802 51.9744 8.97713 54.8446 9.64408 57.7315C9.75264 58.1989 9.85825 58.6664 10.0695 59.5769Z" fill="#1D262D"/>
<path fill-rule="evenodd" clip-rule="evenodd" d="M108.47 58.3516C108.94 58.6978 109.306 58.8249 109.397 59.0586C109.932 60.4238 110.108 61.8682 109.899 63.3087C109.047 69.2644 106.664 74.5091 102.461 78.8687C101.895 79.4555 101.351 80.143 100.435 80.1703C100.018 79.6354 100.421 79.3283 100.642 79.0076C101.79 77.3285 102.974 75.6748 104.103 73.9839C106.011 71.1283 107.278 67.994 107.916 64.629C108.167 63.3068 108.196 61.9406 108.314 60.593C108.372 59.9407 108.406 59.2894 108.47 58.3516Z" fill="#1D262D"/>
<path fill-rule="evenodd" clip-rule="evenodd" d="M5.32829 59.563C3.61201 58.7132 2.70939 57.3187 2.17837 55.6718C1.08113 52.2706 0.292884 48.793 0.0210173 45.2324C-0.0816662 43.9043 0.21565 42.5421 0.399503 41.2042C0.430797 40.9793 0.817074 40.8023 1.22879 40.4297C1.42633 42.8765 1.49771 45.0583 1.80869 47.2048C2.10989 49.2976 2.53823 51.3875 3.12402 53.4187C3.72447 55.5056 4.5831 57.5172 5.32829 59.563Z" fill="#1D262D"/>
<path fill-rule="evenodd" clip-rule="evenodd" d="M112.275 56.1953C113.223 56.9131 113.465 57.9067 113.673 58.9003C114.409 62.4257 113.859 65.8084 112.432 69.0611C111.935 70.1945 111.514 71.4228 110.18 72.3831C110.218 71.7553 110.173 71.3719 110.276 71.0306C110.614 69.8952 111.031 68.7853 111.372 67.6509C112.359 64.3552 112.724 61.0263 111.855 57.6348C111.739 57.1781 111.452 56.6491 112.275 56.1953Z" fill="#1D262D"/>
<path fill-rule="evenodd" clip-rule="evenodd" d="M36.9444 43.2716C36.7585 39.8243 37.9252 36.468 39.9574 33.277C41.2561 31.237 42.7709 29.4553 44.5224 27.8319C46.8245 25.697 49.5187 24.4257 52.6021 23.7588C55.8958 23.0458 59.1592 22.8503 62.4734 23.4116C63.1404 23.525 63.8259 23.6336 64.4508 23.8771C69.498 25.8398 73.6747 28.9135 76.6066 33.5391C76.8335 33.8961 77.0457 34.2726 77.2031 34.6637C79.1218 39.4175 79.8954 44.3023 78.8177 49.3866C78.6935 49.9655 78.5273 50.5455 78.2935 51.0882C76.587 55.0498 74.2322 58.5362 70.8152 61.2451C69.1987 62.5262 67.4189 63.4513 65.4581 64.1183C61.8485 65.3446 58.1803 65.7465 54.4005 65.2556C52.8701 65.0561 51.4042 64.6766 50.0174 63.9843C45.9971 61.9756 42.5147 59.3264 40.0034 55.5378C39.5369 54.8327 39.0724 54.0963 38.7849 53.3111C37.6387 50.1865 36.7693 46.9965 36.9444 43.2716ZM58.0737 63.8523C68.2022 63.909 77.741 55.5887 77.695 44.1595C77.652 33.2183 68.9894 24.6145 57.9456 24.6682C46.535 24.724 38.5257 33.9234 38.4856 44.1605C38.4396 55.0674 47.5794 63.9774 58.0737 63.8523Z" fill="#1D262D"/>
<path fill-rule="evenodd" clip-rule="evenodd" d="M57.7767 36.8047C58.9306 38.3762 58.4446 39.938 58.9531 41.4294C58.1365 41.6778 57.5224 41.8635 56.92 42.0464C56.8124 41.7941 56.6706 41.6298 56.699 41.5017C57.0207 40.0329 57.3679 38.5689 57.7767 36.8047Z" fill="#FFD500"/>
<path fill-rule="evenodd" clip-rule="evenodd" d="M59.0818 45.0703C59.0231 45.3451 59.0388 45.7285 58.8588 45.9642C58.6936 46.1813 58.2848 46.3945 58.0442 46.3407C56.7543 46.0483 56.2106 44.5843 57.0516 43.6689C57.2941 43.4039 57.7929 43.1839 58.1166 43.2445C58.4256 43.3032 58.7268 43.7188 58.9077 44.0454C59.0573 44.3163 59.0251 44.686 59.0818 45.0703Z" fill="#FFD500"/>
<path fill-rule="evenodd" clip-rule="evenodd" d="M59.2148 48.2685C59.7165 47.7257 60.1009 47.3101 60.4588 46.9219C60.6925 46.9854 60.9204 46.9766 60.983 47.0735C61.5326 47.9213 62.0587 48.7819 62.5682 49.6523C62.6367 49.7677 62.578 49.9603 62.578 50.1158C61.2401 49.93 61.2402 49.93 59.2148 48.2685Z" fill="#FFD500"/>
<path fill-rule="evenodd" clip-rule="evenodd" d="M58.5043 31.6797C58.6725 32.0797 58.9649 32.5109 59.0294 32.9745C59.446 35.9053 59.8519 38.8411 60.1775 41.7828C60.3125 43.0003 60.687 44.0653 61.351 45.0862C62.596 47.0001 63.7881 48.952 64.9772 50.902C65.2794 51.3978 65.608 51.9367 65.2784 52.5547C65.0506 52.9841 64.3484 53.0369 63.4106 52.6525C60.954 51.6433 58.8113 50.1969 56.9083 48.3173C55.1627 46.5952 54.6228 44.5836 55.0981 42.2981C55.7533 39.1521 56.5357 36.0335 57.2936 32.908C57.4276 32.3535 57.5899 31.7247 58.5043 31.6797ZM57.7777 36.808C57.3689 38.5722 57.0217 40.0362 56.7 41.506C56.6716 41.6341 56.8124 41.7984 56.921 42.0507C57.5234 41.8688 58.1375 41.682 58.9541 41.4336C58.4456 39.9423 58.9316 38.3795 57.7777 36.808ZM59.0832 45.0735C59.0255 44.6892 59.0587 44.3195 58.9091 44.0486C58.7282 43.722 58.428 43.3054 58.118 43.2477C57.7943 43.1861 57.2955 43.4071 57.053 43.6721C56.212 44.5875 56.7547 46.0525 58.0456 46.3439C58.2862 46.3986 58.695 46.1845 58.8602 45.9674C59.0402 45.7307 59.0255 45.3483 59.0832 45.0735ZM59.2182 48.2724C61.2435 49.9339 61.2435 49.9339 62.5823 50.1197C62.5823 49.9642 62.6409 49.7725 62.5725 49.6561C62.062 48.7858 61.5359 47.9252 60.9872 47.0773C60.9246 46.9795 60.6968 46.9883 60.4631 46.9257C60.1042 47.314 59.7189 47.7296 59.2182 48.2724Z" fill="#1D262D"/>
</svg>
