<svg width="100" height="100" viewBox="0 0 100 100" fill="none" xmlns="http://www.w3.org/2000/svg">
<rect width="100" height="100" rx="8" fill="#FFFEFA"/>
<path d="M48.3555 69.6502C54.0085 68.361 58.6775 67.2941 58.7311 67.2794L58.8286 67.2527L53.4917 59.0569C50.5563 54.5491 48.1547 50.8435 48.1547 50.8222C48.1547 50.7817 53.6656 31.1889 53.6965 31.1192C53.7069 31.0959 57.4572 39.4553 62.7876 51.3829C67.7779 62.5498 71.8922 71.7569 71.9305 71.8431L72 72L55.0387 71.9972L38.0774 71.9944L48.3555 69.6502ZM28 67.1509C28 67.1394 30.5148 61.5033 33.5883 54.6264L39.1767 42.1229L45.6892 35.0668C49.2712 31.186 52.2115 28.006 52.2232 28.0002C52.235 27.9944 52.1879 28.1475 52.1185 28.3404C52.0492 28.5333 48.8669 37.3457 45.0468 47.9234L38.1012 67.1555L33.0506 67.1637C30.2728 67.1682 28 67.1624 28 67.1509Z" fill="#0089D6"/>
</svg>
