<svg width="100" height="100" viewBox="0 0 100 100" fill="none" xmlns="http://www.w3.org/2000/svg">
<rect width="100" height="100" rx="8" fill="#FFFEFA"/>
<mask id="mask0_897_5968" style="mask-type:luminance" maskUnits="userSpaceOnUse" x="26" y="28" width="48" height="44">
<path d="M26 28H74V72H26V28Z" fill="white"/>
</mask>
<g mask="url(#mask0_897_5968)">
<path fill-rule="evenodd" clip-rule="evenodd" d="M45.9327 32.8165C47.4822 30.6999 49.6386 29.3892 52.021 29.3892C55.1975 29.3892 57.9504 31.7049 59.4328 35.1555C60.7486 34.3836 62.1738 33.985 63.6151 33.986C69.3327 33.986 73.9739 40.1228 73.9739 47.6955C73.9739 55.2681 69.3327 61.4049 63.6151 61.4049C62.9163 61.4049 62.2351 61.3128 61.568 61.1386C60.271 64.1723 57.7916 66.2334 54.968 66.2334C53.8185 66.2363 52.6836 65.8941 51.6504 65.2329C50.3357 69.2856 47.2739 72.134 43.7092 72.134C39.9857 72.134 36.8269 69.054 35.6092 64.7235C35.0673 64.8736 34.5149 64.949 33.961 64.9486C29.5316 64.9486 25.9492 60.178 25.9492 54.3191C25.9492 50.3822 27.5622 46.9549 29.9551 45.1022C29.4474 43.5676 29.1861 41.9121 29.1875 40.2391C29.1875 33.477 33.3698 28.0117 38.5227 28.0117C41.5404 28.0117 44.2404 29.8991 45.9345 32.8286" fill="#00A1E0"/>
</g>
<path fill-rule="evenodd" clip-rule="evenodd" d="M32.9445 50.8794C32.9143 50.9827 32.9553 51.0042 32.965 51.0225C33.0552 51.1082 33.1467 51.1703 33.2385 51.24C33.7291 51.5804 34.1914 51.68 34.675 51.68C35.6597 51.68 36.272 50.9922 36.272 49.8852V49.8635C36.272 48.8399 35.5803 48.467 34.9344 48.2007L34.8499 48.1648C34.361 47.9569 33.9393 47.7758 33.9393 47.3543V47.3328C33.9393 46.9715 34.1863 46.7052 34.5675 46.7052C34.991 46.7052 35.4957 46.8902 35.8187 47.1243C35.8187 47.1243 35.9143 47.2054 35.9491 47.0843C35.968 47.0187 36.1326 46.4405 36.1503 46.3756C36.169 46.3078 36.1362 46.2566 36.1024 46.2302C35.7319 45.9338 35.2201 45.7323 34.6907 45.7323L34.5924 45.7328C33.6906 45.7328 33.0606 46.4484 33.0606 47.4719V47.4939C33.0606 48.5731 33.7559 48.9251 34.4053 49.1683L34.5098 49.2109C34.9827 49.4017 35.3922 49.5675 35.3922 50.0029V50.0246C35.3922 50.4253 35.1257 50.724 34.6986 50.724C34.5326 50.724 34.0033 50.7203 33.4298 50.2446C33.3604 50.1916 33.3209 50.1534 33.2674 50.1106C33.2392 50.0881 33.1686 50.0476 33.1379 50.1689L32.9438 50.8775M47.3614 50.8775C47.3313 50.9808 47.3722 51.0024 47.3823 51.0207C47.4721 51.1063 47.564 51.1684 47.6558 51.2381C48.1464 51.5785 48.6087 51.6781 49.0923 51.6781C50.077 51.6781 50.6893 50.9903 50.6893 49.8834V49.8616C50.6893 48.838 49.9993 48.4652 49.3517 48.1989L49.2672 48.163C48.7783 47.955 48.3566 47.7739 48.3566 47.3524V47.3309C48.3566 46.9696 48.6036 46.7033 48.9848 46.7033C49.4083 46.7033 49.9113 46.8884 50.236 47.1225C50.236 47.1225 50.3316 47.2035 50.3666 47.0824C50.3853 47.0169 50.5501 46.4386 50.566 46.3738C50.5849 46.3059 50.5519 46.2548 50.5183 46.2284C50.1477 45.9319 49.636 45.7305 49.1066 45.7305L49.0081 45.7309C48.1063 45.7309 47.4763 46.4465 47.4763 47.4701V47.4921C47.4763 48.5712 48.1716 48.9232 48.821 49.1664L48.9253 49.209C49.4 49.3998 49.8077 49.5656 49.8077 50.001V50.0228C49.8077 50.4234 49.5412 50.7222 49.1142 50.7222C48.9477 50.7222 48.4171 50.7184 47.8453 50.2428C47.776 50.1898 47.7354 50.1532 47.6828 50.1087C47.665 50.0939 47.5819 50.0513 47.5534 50.1671L47.3593 50.8757M57.2064 48.7081C57.2064 49.3334 57.1174 49.8266 56.9434 50.1763C56.7698 50.5214 56.5076 50.6904 56.1423 50.6904C55.777 50.6904 55.5158 50.5228 55.3446 50.1786C55.1722 49.8313 55.0852 49.3357 55.0852 48.7104C55.0852 48.0852 55.1727 47.5942 55.3446 47.2492C55.5154 46.9064 55.7752 46.742 56.1423 46.742C56.5093 46.742 56.7705 46.908 56.9434 47.2492C57.1185 47.5942 57.2064 48.0852 57.2064 48.7104M58.0287 47.5502C57.9477 47.1913 57.8223 46.8763 57.6546 46.6123C57.4868 46.3483 57.2752 46.1353 57.0229 45.9824C56.7723 45.8284 56.4758 45.7508 56.1405 45.7508C55.8052 45.7508 55.5105 45.8289 55.2582 45.9824C55.0076 46.1362 54.794 46.3483 54.6264 46.6123C54.4591 46.8763 54.3334 47.1913 54.2523 47.5502C54.172 47.9068 54.1312 48.2959 54.1312 48.7104C54.1312 49.125 54.172 49.514 54.2523 49.8706C54.3329 50.2296 54.4587 50.5445 54.6264 50.8085C54.7942 51.0725 55.0076 51.2833 55.2582 51.4338C55.5105 51.5839 55.807 51.6603 56.1405 51.6603C56.474 51.6603 56.7705 51.5839 57.0211 51.4338C57.2717 51.2837 57.4852 51.0725 57.6529 50.8085C57.8203 50.5445 57.9458 50.2296 58.027 49.8706C58.1071 49.514 58.1479 49.125 58.1479 48.7104C58.1479 48.2982 58.1071 47.9068 58.027 47.5502M64.7858 50.5144C64.7588 50.4095 64.6808 50.4491 64.6808 50.4491C64.5613 50.5091 64.4337 50.5647 64.2979 50.5925C64.1609 50.6207 64.0084 50.6348 63.8479 50.6348C63.4508 50.6348 63.1332 50.4795 62.9073 50.1717C62.6796 49.8637 62.5526 49.3681 62.5543 48.6965C62.5556 48.0852 62.6682 47.6266 62.8702 47.2746C63.0696 46.9273 63.3767 46.7466 63.7826 46.7466C64.1214 46.7466 64.3808 46.7983 64.6526 46.9099C64.6526 46.9099 64.717 46.9467 64.7479 46.8353C64.82 46.5736 64.8733 46.3861 64.9508 46.0989C64.9727 46.0167 64.919 45.982 64.8995 45.972C64.7929 45.9174 64.5412 45.8277 64.3506 45.79C64.1724 45.7543 63.9659 45.7358 63.733 45.7358C63.3871 45.7358 63.08 45.8134 62.8171 45.9671C62.5542 46.1207 62.3318 46.333 62.1553 46.597C61.9789 46.861 61.8447 47.176 61.7547 47.5349C61.6656 47.8916 61.6206 48.2829 61.6206 48.6975C61.6206 49.5914 61.8042 50.3162 62.1677 50.8465C62.5312 51.3791 63.0783 51.6478 63.7912 51.6478C64.213 51.6478 64.6453 51.5359 64.9559 51.3745C64.9559 51.3745 65.0152 51.337 64.9895 51.2462L64.7865 50.5144M66.2247 48.106C66.2641 47.7586 66.3366 47.4692 66.4506 47.2445C66.6213 46.9018 66.8812 46.7142 67.2465 46.7142C67.6118 46.7142 67.8536 46.9027 68.0265 47.2445C68.1412 47.4703 68.1913 47.7702 68.21 48.106L66.2159 48.1055L66.2247 48.106ZM68.9953 47.3418C68.9253 46.9967 68.7518 46.6471 68.6389 46.4873C68.4589 46.2348 68.2842 46.0565 68.1095 45.9593C67.8572 45.8185 67.5859 45.7463 67.3118 45.7469C66.9642 45.7469 66.6483 45.824 66.3924 45.9808C66.1365 46.1387 65.9212 46.3536 65.7518 46.6223C65.5826 46.8909 65.4553 47.2082 65.3742 47.5718C65.293 47.9307 65.252 48.3244 65.252 48.7366C65.252 49.1581 65.2946 49.5494 65.3782 49.9038C65.4627 50.2604 65.5988 50.573 65.7823 50.8324C65.9659 51.0941 66.2006 51.2979 66.4829 51.4414C66.7635 51.5839 67.1041 51.6577 67.4941 51.6561C68.2988 51.6526 68.7223 51.4176 68.8953 51.2902C68.9262 51.2675 68.9553 51.2284 68.9189 51.1156L68.7372 50.4463C68.7093 50.3465 68.6323 50.3827 68.6323 50.3827C68.4329 50.4804 68.1506 50.6559 67.4888 50.6536C67.0564 50.6527 66.737 50.4852 66.5359 50.2229C66.3312 49.9542 66.2288 49.5629 66.2129 49.0071L69.0012 49.0099C69.0012 49.0099 69.0746 49.0089 69.0822 48.9149C69.0852 48.876 69.1776 48.1646 68.999 47.3425L68.9953 47.3418ZM43.9365 48.106C43.9759 47.7586 44.0486 47.4692 44.1624 47.2445C44.3332 46.9018 44.593 46.7142 44.9583 46.7142C45.3236 46.7142 45.5653 46.9027 45.7383 47.2445C45.8528 47.4703 45.9029 47.7702 45.9218 48.106L43.9277 48.1055L43.9365 48.106ZM46.7071 47.3418C46.6372 46.9967 46.4636 46.6471 46.3506 46.4873C46.1706 46.2348 45.9959 46.0565 45.8212 45.9593C45.569 45.8185 45.2976 45.7463 45.0236 45.7469C44.6759 45.7469 44.36 45.824 44.1042 45.9808C43.8483 46.1387 43.633 46.3536 43.4636 46.6223C43.2947 46.8909 43.1671 47.2082 43.0859 47.5718C43.0049 47.9307 42.9642 48.3244 42.9642 48.7366C42.9642 49.1581 43.0063 49.5494 43.0905 49.9038C43.1749 50.2604 43.3111 50.573 43.4929 50.8324C43.6764 51.0941 43.9111 51.2979 44.1934 51.4414C44.474 51.5839 44.8129 51.6577 45.2046 51.6561C46.0093 51.6526 46.4329 51.4176 46.6058 51.2902C46.6365 51.2675 46.6658 51.2284 46.6293 51.1156L46.4475 50.4463C46.4194 50.3465 46.3425 50.3827 46.3425 50.3827C46.1431 50.4804 45.8607 50.6559 45.199 50.6536C44.7684 50.6527 44.4472 50.4852 44.246 50.2229C44.0413 49.9542 43.939 49.5629 43.9231 49.0071L46.7113 49.0099C46.7113 49.0099 46.7847 49.0089 46.7923 48.9149C46.7953 48.876 46.8878 48.1646 46.709 47.3425L46.7071 47.3418ZM37.9189 50.4913C37.8096 50.3769 37.7944 50.3488 37.7583 50.2745C37.703 50.1627 37.6748 50.0036 37.6748 49.7998C37.6748 49.4802 37.756 49.2486 37.9236 49.0935C37.9219 49.0939 38.1636 48.8202 38.7319 48.8295C38.9848 48.8354 39.2371 48.8636 39.4872 48.914V50.5744H39.4875C39.4875 50.5744 39.1346 50.6742 38.7357 50.7057C38.1693 50.7504 37.9187 50.4917 37.9204 50.4924L37.9189 50.4913ZM39.0271 47.9207C38.9142 47.9099 38.7677 47.9045 38.593 47.9045C38.3547 47.9045 38.1236 47.9434 37.9083 48.0199C37.6912 48.0967 37.4953 48.2158 37.3277 48.3742C37.1596 48.5316 37.0213 48.7376 36.9236 48.9763C36.8249 49.2171 36.7746 49.4996 36.7746 49.8192C36.7746 50.1434 36.8175 50.4236 36.9022 50.6529C36.9852 50.8803 37.1102 51.0769 37.2657 51.2249C37.4205 51.3727 37.6116 51.482 37.8322 51.5468C38.051 51.6123 38.2981 51.6455 38.5699 51.6455C38.8557 51.6455 39.1399 51.614 39.4152 51.5531C39.6496 51.5 39.8832 51.4404 40.1157 51.3743C40.2086 51.3463 40.3116 51.3094 40.3116 51.3094C40.3804 51.2865 40.3752 51.1899 40.3752 51.1899L40.3736 47.8552C40.3736 47.1234 40.2246 46.5792 39.9306 46.2434C39.6377 45.9076 39.2089 45.7386 38.653 45.7386C38.4447 45.7386 38.1077 45.7756 37.9065 45.8287C37.9065 45.8287 37.2994 45.9834 37.0489 46.2409C37.0489 46.2409 36.9938 46.2853 37.0238 46.3861L37.2214 47.0808C37.246 47.1709 37.3129 47.1401 37.3129 47.1401C37.3129 47.1401 37.3339 47.1292 37.3586 47.11C37.8933 46.7279 38.5709 46.7395 38.5709 46.7395C38.8709 46.7395 39.1039 46.8194 39.2592 46.9757C39.4111 47.1287 39.4886 47.3601 39.4886 47.8464V48.0009C39.2503 47.9555 39.0297 47.9293 39.0297 47.9293L39.0271 47.9207ZM61.4389 46.038C61.4429 46.0258 61.445 46.0126 61.445 45.9993C61.4451 45.986 61.4431 45.9729 61.4392 45.9606C61.4353 45.9483 61.4296 45.9372 61.4223 45.9279C61.4151 45.9186 61.4065 45.9113 61.397 45.9065C61.3496 45.8828 61.1129 45.8173 60.9312 45.8025C60.5817 45.7738 60.3876 45.8511 60.2129 45.9539C60.0403 46.0561 59.8494 46.2203 59.7435 46.4102L59.7432 45.9655C59.7432 45.9044 59.7102 45.8551 59.6632 45.8551H58.9503C58.904 45.8551 58.8705 45.9044 58.8705 45.9655V51.4076C58.8706 51.437 58.8795 51.4652 58.8953 51.486C58.9112 51.5068 58.9326 51.5185 58.955 51.5186H59.6856C59.708 51.5185 59.7295 51.5068 59.7453 51.486C59.7611 51.4652 59.77 51.437 59.77 51.4076V48.675C59.77 48.3091 59.8007 47.9455 59.8619 47.7163C59.9223 47.4895 60.0043 47.3087 60.1054 47.179C60.2019 47.0537 60.32 46.9608 60.4496 46.908C60.5712 46.8622 60.6971 46.839 60.8237 46.839C60.9693 46.839 61.129 46.8881 61.129 46.8881C61.1826 46.896 61.2125 46.8529 61.2306 46.7895C61.2785 46.6225 61.4142 46.1225 61.4406 46.023" fill="#FFFFFE"/>
<path fill-rule="evenodd" clip-rule="evenodd" d="M54.6118 43.5266C54.5215 43.4908 54.4296 43.4622 54.3367 43.441C54.2117 43.4136 54.0851 43.4007 53.9583 43.4025C53.4549 43.4025 53.058 43.5892 52.7793 43.9578C52.5026 44.3237 52.3143 44.8811 52.2199 45.6146L52.1859 45.8621H51.5539C51.5539 45.8621 51.4768 45.8579 51.4606 45.9684L51.3568 46.728C51.3496 46.8007 51.3734 46.8461 51.4475 46.8456H52.0627L51.4385 51.4177C51.3896 51.7859 51.3337 52.0888 51.2718 52.3183C51.2107 52.5448 51.151 52.7145 51.0776 52.8377C51.0065 52.957 50.9391 53.0448 50.8228 53.0959C50.7268 53.1383 50.6163 53.1578 50.4953 53.1578C50.4279 53.1578 50.3382 53.143 50.272 53.1256C50.2059 53.1084 50.1715 53.089 50.1219 53.0617C50.1219 53.0617 50.0497 53.0255 50.0213 53.1205C49.9982 53.1981 49.8342 53.7898 49.8148 53.8629C49.7951 53.9352 49.8228 53.9922 49.8577 54.0086C49.9396 54.047 50.0005 54.0716 50.112 54.1061C50.2669 54.154 50.3975 54.157 50.5198 54.157C50.776 54.157 51.0095 54.1098 51.2031 54.0181C51.3979 53.9257 51.5675 53.7647 51.7175 53.5468C51.8797 53.3118 51.9817 53.0656 52.0793 52.7298C52.1758 52.397 52.258 51.9839 52.3239 51.5024L52.951 46.8456H53.868C53.868 46.8456 53.9453 46.8493 53.9613 46.7393L54.0651 45.9798C54.0723 45.907 54.0487 45.8616 53.9742 45.8621H53.0843C53.0887 45.8357 53.1291 45.4249 53.2313 45.0382C53.2749 44.873 53.3569 44.7399 53.4265 44.6484C53.4914 44.5613 53.5713 44.496 53.6596 44.458C53.7563 44.4188 53.8571 44.3997 53.9583 44.4015C54.0422 44.4015 54.1244 44.4147 54.1871 44.4319C54.2733 44.456 54.3069 44.4687 54.3295 44.4775C54.4202 44.5139 54.4323 44.4787 54.4502 44.421L54.663 43.654C54.6849 43.5716 54.6316 43.5368 54.6118 43.5266ZM42.1752 51.4274C42.1752 51.4886 42.142 51.5383 42.0955 51.5383H41.3573C41.3105 51.5383 41.2773 51.4886 41.2773 51.4274V43.6306C41.2773 43.5697 41.3105 43.5204 41.3573 43.5204H42.0955C42.142 43.5204 42.1752 43.5697 42.1752 43.6306V51.4274Z" fill="#FFFFFE"/>
</svg>
