<svg width="922" height="153" viewBox="0 0 922 153" fill="none" xmlns="http://www.w3.org/2000/svg">
<g opacity="0.04">
<mask id="path-1-outside-1_3373_11178" maskUnits="userSpaceOnUse" x="0" y="-0.28125" width="922" height="153" fill="black">
<rect fill="white" y="-0.28125" width="922" height="153"/>
<path d="M57 6.31875C71.8 6.31875 84.7333 9.25208 95.8 15.1187C106.867 20.9854 115.4 29.2521 121.4 39.9187C127.533 50.4521 130.6 62.6521 130.6 76.5187C130.6 90.2521 127.533 102.452 121.4 113.119C115.4 123.785 106.8 132.052 95.6 137.919C84.5333 143.785 71.6667 146.719 57 146.719H4.4V6.31875H57ZM54.8 117.119C67.7333 117.119 77.8 113.585 85 106.519C92.2 99.4521 95.8 89.4521 95.8 76.5187C95.8 63.5854 92.2 53.5187 85 46.3187C77.8 39.1187 67.7333 35.5187 54.8 35.5187H38.6V117.119H54.8ZM223.913 33.7188V62.1187H269.713V88.5187H223.913V119.319H275.713V146.719H189.713V6.31875H275.713V33.7188H223.913ZM388.716 148.119C378.449 148.119 369.249 146.452 361.116 143.119C352.982 139.785 346.449 134.852 341.516 128.319C336.716 121.785 334.182 113.919 333.916 104.719H370.316C370.849 109.919 372.649 113.919 375.716 116.719C378.782 119.385 382.782 120.719 387.716 120.719C392.782 120.719 396.782 119.585 399.716 117.319C402.649 114.919 404.116 111.652 404.116 107.519C404.116 104.052 402.916 101.185 400.516 98.9187C398.249 96.6521 395.382 94.7854 391.916 93.3187C388.582 91.8521 383.782 90.1854 377.516 88.3187C368.449 85.5187 361.049 82.7187 355.316 79.9187C349.582 77.1187 344.649 72.9854 340.516 67.5187C336.382 62.0521 334.316 54.9187 334.316 46.1187C334.316 33.0521 339.049 22.8521 348.516 15.5187C357.982 8.05208 370.316 4.31875 385.516 4.31875C400.982 4.31875 413.449 8.05208 422.916 15.5187C432.382 22.8521 437.449 33.1187 438.116 46.3187H401.116C400.849 41.7854 399.182 38.2521 396.116 35.7187C393.049 33.0521 389.116 31.7187 384.316 31.7187C380.182 31.7187 376.849 32.8521 374.316 35.1187C371.782 37.2521 370.516 40.3854 370.516 44.5187C370.516 49.0521 372.649 52.5854 376.916 55.1187C381.182 57.6521 387.849 60.3854 396.916 63.3187C405.982 66.3854 413.316 69.3187 418.916 72.1187C424.649 74.9187 429.582 78.9854 433.716 84.3187C437.849 89.6521 439.916 96.5187 439.916 104.919C439.916 112.919 437.849 120.185 433.716 126.719C429.716 133.252 423.849 138.452 416.116 142.319C408.382 146.185 399.249 148.119 388.716 148.119ZM535.163 6.31875V146.719H500.963V6.31875H535.163ZM693.147 50.7187C690.614 46.0521 686.947 42.5187 682.147 40.1187C677.48 37.5854 671.947 36.3187 665.547 36.3187C654.48 36.3187 645.614 39.9854 638.947 47.3187C632.28 54.5187 628.947 64.1854 628.947 76.3187C628.947 89.2521 632.414 99.3854 639.347 106.719C646.414 113.919 656.08 117.519 668.347 117.519C676.747 117.519 683.814 115.385 689.547 111.119C695.414 106.852 699.68 100.719 702.347 92.7187H658.947V67.5187H733.347V99.3187C730.814 107.852 726.48 115.785 720.347 123.119C714.347 130.452 706.68 136.385 697.347 140.919C688.014 145.452 677.48 147.719 665.747 147.719C651.88 147.719 639.48 144.719 628.547 138.719C617.747 132.585 609.28 124.119 603.147 113.319C597.147 102.519 594.147 90.1854 594.147 76.3187C594.147 62.4521 597.147 50.1187 603.147 39.3187C609.28 28.3854 617.747 19.9187 628.547 13.9187C639.347 7.78541 651.68 4.71874 665.547 4.71874C682.347 4.71874 696.48 8.78541 707.947 16.9187C719.547 25.0521 727.214 36.3187 730.947 50.7187H693.147ZM917.891 146.719H883.691L826.491 60.1187V146.719H792.291V6.31875H826.491L883.691 93.3187V6.31875H917.891V146.719Z"/>
</mask>
<path d="M95.8 15.1187L97.6735 11.5846L95.8 15.1187ZM121.4 39.9187L117.914 41.8798L117.928 41.9058L117.943 41.9315L121.4 39.9187ZM121.4 113.119L117.932 111.125L117.923 111.141L117.914 111.158L121.4 113.119ZM95.6 137.919L93.744 134.375L93.7352 134.38L93.7265 134.385L95.6 137.919ZM4.4 146.719H0.400001V150.719H4.4V146.719ZM4.4 6.31875V2.31875H0.400001V6.31875H4.4ZM38.6 35.5187V31.5187H34.6V35.5187H38.6ZM38.6 117.119H34.6V121.119H38.6V117.119ZM57 6.31875V10.3187C71.2653 10.3187 83.5332 13.1432 93.9265 18.6529L95.8 15.1187L97.6735 11.5846C85.9334 5.36098 72.3347 2.31875 57 2.31875V6.31875ZM95.8 15.1187L93.9265 18.6529C104.333 24.1694 112.299 31.8976 117.914 41.8798L121.4 39.9187L124.886 37.9577C118.501 26.6066 109.401 17.8014 97.6735 11.5846L95.8 15.1187ZM121.4 39.9187L117.943 41.9315C123.674 51.7734 126.6 63.2601 126.6 76.5188H130.6H134.6C134.6 62.044 131.393 49.1307 124.857 37.906L121.4 39.9187ZM130.6 76.5188H126.6C126.6 89.6354 123.678 101.133 117.932 111.125L121.4 113.119L124.868 115.113C131.389 103.771 134.6 90.8687 134.6 76.5188H130.6ZM121.4 113.119L117.914 111.158C112.306 121.127 104.283 128.855 93.744 134.375L95.6 137.919L97.456 141.462C109.317 135.249 118.494 126.444 124.886 115.08L121.4 113.119ZM95.6 137.919L93.7265 134.385C83.3282 139.897 71.1253 142.719 57 142.719V146.719V150.719C72.208 150.719 85.7384 147.674 97.4735 141.453L95.6 137.919ZM57 146.719V142.719H4.4V146.719V150.719H57V146.719ZM4.4 146.719H8.4V6.31875H4.4H0.400001V146.719H4.4ZM4.4 6.31875V10.3187H57V6.31875V2.31875H4.4V6.31875ZM54.8 117.119V121.119C68.4727 121.119 79.6594 117.365 87.8019 109.373L85 106.519L82.1981 103.664C75.9406 109.806 66.994 113.119 54.8 113.119V117.119ZM85 106.519L87.8019 109.373C95.9688 101.358 99.8 90.2078 99.8 76.5188H95.8H91.8C91.8 88.6963 88.4312 97.5464 82.1981 103.664L85 106.519ZM95.8 76.5188H99.8C99.8 62.8257 95.9676 51.6295 87.8284 43.4903L85 46.3187L82.1716 49.1472C88.4324 55.408 91.8 64.3452 91.8 76.5188H95.8ZM85 46.3187L87.8284 43.4903C79.6893 35.3511 68.4931 31.5187 54.8 31.5187V35.5187V39.5187C66.9736 39.5187 75.9108 42.8863 82.1716 49.1472L85 46.3187ZM54.8 35.5187V31.5187H38.6V35.5187V39.5187H54.8V35.5187ZM38.6 35.5187H34.6V117.119H38.6H42.6V35.5187H38.6ZM38.6 117.119V121.119H54.8V117.119V113.119H38.6V117.119ZM223.913 33.7188V29.7188H219.913V33.7188H223.913ZM223.913 62.1187H219.913V66.1187H223.913V62.1187ZM269.712 62.1187H273.712V58.1187H269.712V62.1187ZM269.712 88.5188V92.5188H273.712V88.5188H269.712ZM223.913 88.5188V84.5188H219.913V88.5188H223.913ZM223.913 119.319H219.913V123.319H223.913V119.319ZM275.712 119.319H279.712V115.319H275.712V119.319ZM275.712 146.719V150.719H279.712V146.719H275.712ZM189.712 146.719H185.712V150.719H189.712V146.719ZM189.712 6.31875V2.31875H185.712V6.31875H189.712ZM275.712 6.31875H279.712V2.31875H275.712V6.31875ZM275.712 33.7188V37.7188H279.712V33.7188H275.712ZM223.913 33.7188H219.913V62.1187H223.913H227.913V33.7188H223.913ZM223.913 62.1187V66.1187H269.712V62.1187V58.1187H223.913V62.1187ZM269.712 62.1187H265.712V88.5188H269.712H273.712V62.1187H269.712ZM269.712 88.5188V84.5188H223.913V88.5188V92.5188H269.712V88.5188ZM223.913 88.5188H219.913V119.319H223.913H227.913V88.5188H223.913ZM223.913 119.319V123.319H275.712V119.319V115.319H223.913V119.319ZM275.712 119.319H271.712V146.719H275.712H279.712V119.319H275.712ZM275.712 146.719V142.719H189.712V146.719V150.719H275.712V146.719ZM189.712 146.719H193.712V6.31875H189.712H185.712V146.719H189.712ZM189.712 6.31875V10.3187H275.712V6.31875V2.31875H189.712V6.31875ZM275.712 6.31875H271.712V33.7188H275.712H279.712V6.31875H275.712ZM275.712 33.7188V29.7188H223.913V33.7188V37.7188H275.712V33.7188ZM361.116 143.119L359.599 146.82L361.116 143.119ZM341.516 128.319L338.292 130.687L338.308 130.708L338.323 130.729L341.516 128.319ZM333.916 104.719V100.719H329.798L329.917 104.835L333.916 104.719ZM370.316 104.719L374.295 104.311L373.926 100.719H370.316V104.719ZM375.716 116.719L373.019 119.673L373.054 119.705L373.091 119.737L375.716 116.719ZM399.716 117.319L402.161 120.484L402.205 120.45L402.249 120.415L399.716 117.319ZM400.516 98.9187L397.687 101.747L397.728 101.788L397.769 101.827L400.516 98.9187ZM391.916 93.3187L390.305 96.98L390.331 96.9915L390.357 97.0026L391.916 93.3187ZM377.516 88.3187L376.335 92.1406L376.354 92.1466L376.374 92.1523L377.516 88.3187ZM355.316 79.9187L353.56 83.513L355.316 79.9187ZM340.516 67.5187L343.706 65.1063L340.516 67.5187ZM348.516 15.5187L350.965 18.6809L350.979 18.6702L350.993 18.6594L348.516 15.5187ZM422.916 15.5187L420.438 18.6594L420.452 18.6702L420.466 18.6809L422.916 15.5187ZM438.116 46.3187V50.3187H442.323L442.111 46.117L438.116 46.3187ZM401.116 46.3187L397.123 46.5536L397.344 50.3187H401.116V46.3187ZM396.116 35.7188L393.491 38.7372L393.529 38.7704L393.568 38.8026L396.116 35.7188ZM374.316 35.1187L376.892 38.1784L376.938 38.1397L376.983 38.0997L374.316 35.1187ZM376.916 55.1187L378.958 51.6793V51.6793L376.916 55.1187ZM396.916 63.3187L398.197 59.5296L398.172 59.5211L398.147 59.513L396.916 63.3187ZM418.916 72.1187L417.127 75.6965L417.143 75.7048L417.16 75.713L418.916 72.1187ZM433.716 84.3188L430.554 86.769V86.769L433.716 84.3188ZM433.716 126.719L430.335 124.58L430.32 124.605L430.304 124.63L433.716 126.719ZM416.116 142.319L414.327 138.741L416.116 142.319ZM388.716 148.119V144.119C378.883 144.119 370.211 142.523 362.633 139.418L361.116 143.119L359.599 146.82C368.287 150.381 378.015 152.119 388.716 152.119V148.119ZM361.116 143.119L362.633 139.418C355.113 136.336 349.177 131.827 344.708 125.908L341.516 128.319L338.323 130.729C343.721 137.877 350.852 143.235 359.599 146.82L361.116 143.119ZM341.516 128.319L344.739 125.95C340.483 120.158 338.16 113.105 337.914 104.603L333.916 104.719L329.917 104.835C330.204 114.733 332.948 123.413 338.292 130.687L341.516 128.319ZM333.916 104.719V108.719H370.316V104.719V100.719H333.916V104.719ZM370.316 104.719L366.336 105.127C366.943 111.042 369.053 116.052 373.019 119.673L375.716 116.719L378.413 113.765C376.245 111.786 374.755 108.795 374.295 104.311L370.316 104.719ZM375.716 116.719L373.091 119.737C377.033 123.165 382.033 124.719 387.716 124.719V120.719V116.719C383.531 116.719 380.531 115.606 378.34 113.7L375.716 116.719ZM387.716 120.719V124.719C393.347 124.719 398.31 123.46 402.161 120.484L399.716 117.319L397.27 114.154C395.254 115.711 392.218 116.719 387.716 116.719V120.719ZM399.716 117.319L402.249 120.415C406.202 117.18 408.116 112.728 408.116 107.519H404.116H400.116C400.116 110.576 399.096 112.658 397.183 114.223L399.716 117.319ZM404.116 107.519H408.116C408.116 103.014 406.506 99.0745 403.262 96.0107L400.516 98.9187L397.769 101.827C399.325 103.296 400.116 105.091 400.116 107.519H404.116ZM400.516 98.9187L403.344 96.0903C400.655 93.4018 397.334 91.2679 393.474 89.6349L391.916 93.3187L390.357 97.0026C393.431 98.303 395.842 99.9024 397.687 101.747L400.516 98.9187ZM391.916 93.3187L393.527 89.6575C389.966 88.0908 384.98 86.3684 378.658 84.4852L377.516 88.3187L376.374 92.1523C382.585 94.0024 387.199 95.6134 390.305 96.98L391.916 93.3187ZM377.516 88.3187L378.696 84.4968C369.741 81.7314 362.553 79.0017 357.071 76.3245L355.316 79.9187L353.56 83.513C359.545 86.4358 367.157 89.306 376.335 92.1406L377.516 88.3187ZM355.316 79.9187L357.071 76.3245C351.944 73.8204 347.489 70.1098 343.706 65.1063L340.516 67.5187L337.325 69.9312C341.809 75.8611 347.221 80.4171 353.56 83.513L355.316 79.9187ZM340.516 67.5187L343.706 65.1063C340.231 60.5097 338.316 54.297 338.316 46.1187H334.316H330.316C330.316 55.5405 332.534 63.5945 337.325 69.9312L340.516 67.5187ZM334.316 46.1187H338.316C338.316 34.1595 342.575 25.1806 350.965 18.6809L348.516 15.5187L346.066 12.3565C335.523 20.5235 330.316 31.9447 330.316 46.1187H334.316ZM348.516 15.5187L350.993 18.6594C359.587 11.8811 370.976 8.31875 385.516 8.31875V4.31875V0.318748C369.655 0.318748 356.378 4.22311 346.038 12.3781L348.516 15.5187ZM385.516 4.31875V8.31875C400.341 8.31875 411.856 11.8902 420.438 18.6594L422.916 15.5187L425.393 12.3781C415.042 4.21398 401.624 0.318748 385.516 0.318748V4.31875ZM422.916 15.5187L420.466 18.6809C428.908 25.2206 433.506 34.3494 434.121 46.5205L438.116 46.3187L442.111 46.117C441.392 31.8881 435.856 20.4836 425.365 12.3565L422.916 15.5187ZM438.116 46.3187V42.3187H401.116V46.3187V50.3187H438.116V46.3187ZM401.116 46.3187L405.109 46.0839C404.787 40.6141 402.711 35.9791 398.663 32.6349L396.116 35.7188L393.568 38.8026C395.653 40.5251 396.911 42.9567 397.123 46.5536L401.116 46.3187ZM396.116 35.7188L398.74 32.7003C394.818 29.2895 389.896 27.7187 384.316 27.7187V31.7187V35.7187C388.335 35.7187 391.28 36.8146 393.491 38.7372L396.116 35.7188ZM384.316 31.7187V27.7187C379.421 27.7187 375.066 29.0802 371.648 32.1378L374.316 35.1187L376.983 38.0997C378.632 36.624 380.944 35.7187 384.316 35.7187V31.7187ZM374.316 35.1187L371.739 32.0591C368.085 35.136 366.516 39.5236 366.516 44.5187H370.516H374.516C374.516 41.2472 375.479 39.3682 376.892 38.1784L374.316 35.1187ZM370.516 44.5187H366.516C366.516 50.6178 369.532 55.3865 374.873 58.5582L376.916 55.1187L378.958 51.6793C375.766 49.7844 374.516 47.4863 374.516 44.5187H370.516ZM376.916 55.1187L374.873 58.5582C379.533 61.3248 386.543 64.167 395.684 67.1245L396.916 63.3187L398.147 59.513C389.155 56.6038 382.832 53.9794 378.958 51.6793L376.916 55.1187ZM396.916 63.3187L395.634 67.1079C404.607 70.143 411.752 73.0093 417.127 75.6965L418.916 72.1187L420.704 68.541C414.879 65.6282 407.357 62.6278 398.197 59.5296L396.916 63.3187ZM418.916 72.1187L417.16 75.713C422.312 78.2289 426.774 81.8911 430.554 86.769L433.716 84.3188L436.877 81.8685C432.391 76.0797 426.986 71.6086 420.671 68.5245L418.916 72.1187ZM433.716 84.3188L430.554 86.769C434.022 91.244 435.916 97.1842 435.916 104.919H439.916H443.916C443.916 95.8533 441.676 88.0601 436.877 81.8685L433.716 84.3188ZM439.916 104.919H435.916C435.916 112.189 434.049 118.71 430.335 124.58L433.716 126.719L437.096 128.857C441.649 121.661 443.916 113.648 443.916 104.919H439.916ZM433.716 126.719L430.304 124.63C426.744 130.446 421.479 135.165 414.327 138.741L416.116 142.319L417.904 145.896C426.219 141.739 432.688 136.059 437.127 128.807L433.716 126.719ZM416.116 142.319L414.327 138.741C407.257 142.276 398.762 144.119 388.716 144.119V148.119V152.119C399.736 152.119 409.508 150.095 417.904 145.896L416.116 142.319ZM535.162 6.31875H539.162V2.31875H535.162V6.31875ZM535.162 146.719V150.719H539.162V146.719H535.162ZM500.962 146.719H496.962V150.719H500.962V146.719ZM500.962 6.31875V2.31875H496.962V6.31875H500.962ZM535.162 6.31875H531.162V146.719H535.162H539.162V6.31875H535.162ZM535.162 146.719V142.719H500.962V146.719V150.719H535.162V146.719ZM500.962 146.719H504.963V6.31875H500.962H496.962V146.719H500.962ZM500.962 6.31875V10.3187H535.162V6.31875V2.31875H500.962V6.31875ZM693.147 50.7188L689.631 52.6271L690.767 54.7188H693.147V50.7188ZM682.147 40.1187L680.239 43.6342L680.298 43.6663L680.358 43.6964L682.147 40.1187ZM638.947 47.3187L641.882 50.0364L641.894 50.023L641.907 50.0094L638.947 47.3187ZM639.347 106.719L636.44 109.467L636.466 109.494L636.492 109.521L639.347 106.719ZM689.547 111.119L687.194 107.884L687.176 107.897L687.159 107.91L689.547 111.119ZM702.347 92.7188L706.142 93.9837L707.897 88.7188H702.347V92.7188ZM658.947 92.7188H654.947V96.7188H658.947V92.7188ZM658.947 67.5187V63.5187H654.947V67.5187H658.947ZM733.347 67.5187H737.347V63.5187H733.347V67.5187ZM733.347 99.3187L737.181 100.457L737.347 99.9V99.3187H733.347ZM720.347 123.119L717.279 120.553L717.265 120.569L717.251 120.586L720.347 123.119ZM697.347 140.919L695.599 137.321L697.347 140.919ZM628.547 138.719L626.572 142.197L626.597 142.211L626.622 142.225L628.547 138.719ZM603.147 113.319L599.65 115.261L599.659 115.278L599.669 115.294L603.147 113.319ZM603.147 39.3187L599.658 37.3617L599.654 37.3689L599.65 37.3762L603.147 39.3187ZM628.547 13.9187L630.489 17.4154L630.506 17.4063L630.522 17.397L628.547 13.9187ZM707.947 16.9187L705.633 20.1813L705.642 20.1876L705.651 20.1939L707.947 16.9187ZM730.947 50.7188V54.7188H736.116L734.819 49.7149L730.947 50.7188ZM693.147 50.7188L696.662 48.8104C693.734 43.4154 689.46 39.3033 683.936 36.541L682.147 40.1187L680.358 43.6964C684.433 45.7342 687.494 48.6888 689.631 52.6271L693.147 50.7188ZM682.147 40.1187L684.055 36.6033C678.694 33.6928 672.477 32.3187 665.547 32.3187V36.3187V40.3187C671.416 40.3187 676.267 41.478 680.239 43.6342L682.147 40.1187ZM665.547 36.3187V32.3187C653.499 32.3187 643.505 36.3586 635.987 44.6281L638.947 47.3187L641.907 50.0094C647.722 43.6123 655.461 40.3187 665.547 40.3187V36.3187ZM638.947 47.3187L636.012 44.6011C628.508 52.7054 624.947 63.4275 624.947 76.3187H628.947H632.947C632.947 64.9434 636.052 56.3321 641.882 50.0364L638.947 47.3187ZM628.947 76.3187H624.947C624.947 89.9753 628.623 101.199 636.44 109.467L639.347 106.719L642.253 103.971C636.204 97.572 632.947 88.5289 632.947 76.3187H628.947ZM639.347 106.719L636.492 109.521C644.468 117.647 655.254 121.519 668.347 121.519V117.519V113.519C656.906 113.519 648.359 110.19 642.202 103.917L639.347 106.719ZM668.347 117.519V121.519C677.451 121.519 685.396 119.194 691.935 114.328L689.547 111.119L687.159 107.91C682.231 111.577 676.043 113.519 668.347 113.519V117.519ZM689.547 111.119L691.9 114.354C698.545 109.52 703.256 102.642 706.142 93.9837L702.347 92.7188L698.552 91.4538C696.105 98.7956 692.282 104.184 687.194 107.884L689.547 111.119ZM702.347 92.7188V88.7188H658.947V92.7188V96.7188H702.347V92.7188ZM658.947 92.7188H662.947V67.5187H658.947H654.947V92.7188H658.947ZM658.947 67.5187V71.5187H733.347V67.5187V63.5187H658.947V67.5187ZM733.347 67.5187H729.347V99.3187H733.347H737.347V67.5187H733.347ZM733.347 99.3187L729.512 98.1804C727.146 106.153 723.088 113.606 717.279 120.553L720.347 123.119L723.415 125.685C729.872 117.964 734.482 109.552 737.181 100.457L733.347 99.3187ZM720.347 123.119L717.251 120.586C711.652 127.429 704.461 133.016 695.599 137.321L697.347 140.919L699.094 144.517C708.899 139.755 717.042 133.475 723.443 125.652L720.347 123.119ZM697.347 140.919L695.599 137.321C686.878 141.557 676.954 143.719 665.747 143.719V147.719V151.719C678.006 151.719 689.149 149.347 699.094 144.517L697.347 140.919ZM665.747 147.719V143.719C652.476 143.719 640.751 140.853 630.471 135.212L628.547 138.719L626.622 142.225C638.209 148.584 651.284 151.719 665.747 151.719V147.719ZM628.547 138.719L630.522 135.241C620.35 129.463 612.402 121.516 606.625 111.343L603.147 113.319L599.669 115.294C606.158 126.721 615.144 135.707 626.572 142.197L628.547 138.719ZM603.147 113.319L606.643 111.376C601.012 101.24 598.147 89.5903 598.147 76.3187H594.147H590.147C590.147 90.7805 593.281 103.797 599.65 115.261L603.147 113.319ZM594.147 76.3187H598.147C598.147 63.0472 601.012 51.3972 606.643 41.2613L603.147 39.3187L599.65 37.3762C593.281 48.8403 590.147 61.857 590.147 76.3187H594.147ZM603.147 39.3187L606.635 41.2758C612.412 30.979 620.347 23.0498 630.489 17.4154L628.547 13.9187L626.604 10.4221C615.146 16.7877 606.149 25.7919 599.658 37.3617L603.147 39.3187ZM628.547 13.9187L630.522 17.397C640.652 11.6441 652.29 8.71874 665.547 8.71874V4.71874V0.718742C651.07 0.718742 638.042 3.92669 626.572 10.4405L628.547 13.9187ZM665.547 4.71874V8.71874C681.683 8.71874 694.966 12.6153 705.633 20.1813L707.947 16.9187L710.261 13.6561C697.995 4.95551 683.011 0.718742 665.547 0.718742V4.71874ZM707.947 16.9187L705.651 20.1939C716.431 27.7525 723.567 38.1928 727.075 51.7226L730.947 50.7188L734.819 49.7149C730.86 34.4446 722.663 22.3517 710.243 13.6436L707.947 16.9187ZM730.947 50.7188V46.7188H693.147V50.7188V54.7188H730.947V50.7188ZM917.891 146.719V150.719H921.891V146.719H917.891ZM883.691 146.719L880.353 148.923L881.539 150.719H883.691V146.719ZM826.491 60.1187L829.828 57.9142L822.491 46.8051V60.1187H826.491ZM826.491 146.719V150.719H830.491V146.719H826.491ZM792.291 146.719H788.291V150.719H792.291V146.719ZM792.291 6.31875V2.31875H788.291V6.31875H792.291ZM826.491 6.31875L829.833 4.12127L828.648 2.31875H826.491V6.31875ZM883.691 93.3187L880.348 95.5162L887.691 106.684V93.3187H883.691ZM883.691 6.31875V2.31875H879.691V6.31875H883.691ZM917.891 6.31875H921.891V2.31875H917.891V6.31875ZM917.891 146.719V142.719H883.691V146.719V150.719H917.891V146.719ZM883.691 146.719L887.028 144.514L829.828 57.9142L826.491 60.1187L823.153 62.3233L880.353 148.923L883.691 146.719ZM826.491 60.1187H822.491V146.719H826.491H830.491V60.1187H826.491ZM826.491 146.719V142.719H792.291V146.719V150.719H826.491V146.719ZM792.291 146.719H796.291V6.31875H792.291H788.291V146.719H792.291ZM792.291 6.31875V10.3187H826.491V6.31875V2.31875H792.291V6.31875ZM826.491 6.31875L823.148 8.51623L880.348 95.5162L883.691 93.3187L887.033 91.1213L829.833 4.12127L826.491 6.31875ZM883.691 93.3187H887.691V6.31875H883.691H879.691V93.3187H883.691ZM883.691 6.31875V10.3187H917.891V6.31875V2.31875H883.691V6.31875ZM917.891 6.31875H913.891V146.719H917.891H921.891V6.31875H917.891Z" fill="black" mask="url(#path-1-outside-1_3373_11178)"/>
</g>
</svg>
