<svg width="1030" height="669" viewBox="0 0 1030 669" fill="none" xmlns="http://www.w3.org/2000/svg">
<mask id="mask0_3373_11179" style="mask-type:alpha" maskUnits="userSpaceOnUse" x="0" y="0" width="1030" height="669">
<rect width="1030" height="669" rx="8" fill="#EBEAE8"/>
</mask>
<g mask="url(#mask0_3373_11179)">
<path d="M16.9492 58.6263C18.3255 58.6263 19.4413 57.4455 19.4413 55.9889C19.4413 54.5324 18.3255 53.3516 16.9492 53.3516C15.5728 53.3516 14.457 54.5324 14.457 55.9889C14.457 57.4455 15.5728 58.6263 16.9492 58.6263Z" fill="#E3E3E3"/>
<path d="M83.4062 58.6263C84.7826 58.6263 85.8983 57.4455 85.8983 55.9889C85.8983 54.5324 84.7826 53.3516 83.4062 53.3516C82.0298 53.3516 80.9141 54.5324 80.9141 55.9889C80.9141 57.4455 82.0298 58.6263 83.4062 58.6263Z" fill="#E3E3E3"/>
<path d="M149.863 58.6263C151.24 58.6263 152.355 57.4455 152.355 55.9889C152.355 54.5324 151.24 53.3516 149.863 53.3516C148.487 53.3516 147.371 54.5324 147.371 55.9889C147.371 57.4455 148.487 58.6263 149.863 58.6263Z" fill="#E3E3E3"/>
<path d="M216.32 58.6263C217.697 58.6263 218.812 57.4455 218.812 55.9889C218.812 54.5324 217.697 53.3516 216.32 53.3516C214.944 53.3516 213.828 54.5324 213.828 55.9889C213.828 57.4455 214.944 58.6263 216.32 58.6263Z" fill="#E3E3E3"/>
<path d="M282.777 58.6263C284.154 58.6263 285.269 57.4455 285.269 55.9889C285.269 54.5324 284.154 53.3516 282.777 53.3516C281.401 53.3516 280.285 54.5324 280.285 55.9889C280.285 57.4455 281.401 58.6263 282.777 58.6263Z" fill="#E3E3E3"/>
<path d="M349.234 58.6263C350.611 58.6263 351.726 57.4455 351.726 55.9889C351.726 54.5324 350.611 53.3516 349.234 53.3516C347.858 53.3516 346.742 54.5324 346.742 55.9889C346.742 57.4455 347.858 58.6263 349.234 58.6263Z" fill="#E3E3E3"/>
<path d="M415.691 58.6263C417.068 58.6263 418.184 57.4455 418.184 55.9889C418.184 54.5324 417.068 53.3516 415.691 53.3516C414.315 53.3516 413.199 54.5324 413.199 55.9889C413.199 57.4455 414.315 58.6263 415.691 58.6263Z" fill="#E3E3E3"/>
<path d="M482.148 58.6263C483.525 58.6263 484.641 57.4455 484.641 55.9889C484.641 54.5324 483.525 53.3516 482.148 53.3516C480.772 53.3516 479.656 54.5324 479.656 55.9889C479.656 57.4455 480.772 58.6263 482.148 58.6263Z" fill="#E3E3E3"/>
<path d="M548.605 58.6263C549.982 58.6263 551.098 57.4455 551.098 55.9889C551.098 54.5324 549.982 53.3516 548.605 53.3516C547.229 53.3516 546.113 54.5324 546.113 55.9889C546.113 57.4455 547.229 58.6263 548.605 58.6263Z" fill="#E3E3E3"/>
<path d="M615.062 58.6263C616.439 58.6263 617.555 57.4455 617.555 55.9889C617.555 54.5324 616.439 53.3516 615.062 53.3516C613.686 53.3516 612.57 54.5324 612.57 55.9889C612.57 57.4455 613.686 58.6263 615.062 58.6263Z" fill="#E3E3E3"/>
<path d="M681.523 58.6263C682.9 58.6263 684.016 57.4455 684.016 55.9889C684.016 54.5324 682.9 53.3516 681.523 53.3516C680.147 53.3516 679.031 54.5324 679.031 55.9889C679.031 57.4455 680.147 58.6263 681.523 58.6263Z" fill="#E3E3E3"/>
<path d="M747.977 58.6263C749.353 58.6263 750.469 57.4455 750.469 55.9889C750.469 54.5324 749.353 53.3516 747.977 53.3516C746.6 53.3516 745.484 54.5324 745.484 55.9889C745.484 57.4455 746.6 58.6263 747.977 58.6263Z" fill="#E3E3E3"/>
<path d="M814.437 58.6263C815.814 58.6263 816.93 57.4455 816.93 55.9889C816.93 54.5324 815.814 53.3516 814.437 53.3516C813.061 53.3516 811.945 54.5324 811.945 55.9889C811.945 57.4455 813.061 58.6263 814.437 58.6263Z" fill="#E3E3E3"/>
<path d="M880.891 58.6263C882.267 58.6263 883.383 57.4455 883.383 55.9889C883.383 54.5324 882.267 53.3516 880.891 53.3516C879.514 53.3516 878.398 54.5324 878.398 55.9889C878.398 57.4455 879.514 58.6263 880.891 58.6263Z" fill="#E3E3E3"/>
<path d="M947.352 58.6263C948.728 58.6263 949.844 57.4455 949.844 55.9889C949.844 54.5324 948.728 53.3516 947.352 53.3516C945.975 53.3516 944.859 54.5324 944.859 55.9889C944.859 57.4455 945.975 58.6263 947.352 58.6263Z" fill="#E3E3E3"/>
<path d="M1013.8 58.6263C1015.18 58.6263 1016.3 57.4455 1016.3 55.9889C1016.3 54.5324 1015.18 53.3516 1013.8 53.3516C1012.43 53.3516 1011.31 54.5324 1011.31 55.9889C1011.31 57.4455 1012.43 58.6263 1013.8 58.6263Z" fill="#E3E3E3"/>
<path d="M16.9492 128.954C18.3255 128.954 19.4413 127.774 19.4413 126.317C19.4413 124.86 18.3255 123.68 16.9492 123.68C15.5728 123.68 14.457 124.86 14.457 126.317C14.457 127.774 15.5728 128.954 16.9492 128.954Z" fill="#E3E3E3"/>
<path d="M83.4062 128.954C84.7826 128.954 85.8983 127.774 85.8983 126.317C85.8983 124.86 84.7826 123.68 83.4062 123.68C82.0298 123.68 80.9141 124.86 80.9141 126.317C80.9141 127.774 82.0298 128.954 83.4062 128.954Z" fill="#E3E3E3"/>
<path d="M149.863 128.954C151.24 128.954 152.355 127.774 152.355 126.317C152.355 124.86 151.24 123.68 149.863 123.68C148.487 123.68 147.371 124.86 147.371 126.317C147.371 127.774 148.487 128.954 149.863 128.954Z" fill="#E3E3E3"/>
<path d="M216.32 128.954C217.697 128.954 218.812 127.774 218.812 126.317C218.812 124.86 217.697 123.68 216.32 123.68C214.944 123.68 213.828 124.86 213.828 126.317C213.828 127.774 214.944 128.954 216.32 128.954Z" fill="#E3E3E3"/>
<path d="M282.777 128.954C284.154 128.954 285.269 127.774 285.269 126.317C285.269 124.86 284.154 123.68 282.777 123.68C281.401 123.68 280.285 124.86 280.285 126.317C280.285 127.774 281.401 128.954 282.777 128.954Z" fill="#E3E3E3"/>
<path d="M349.234 128.954C350.611 128.954 351.726 127.774 351.726 126.317C351.726 124.86 350.611 123.68 349.234 123.68C347.858 123.68 346.742 124.86 346.742 126.317C346.742 127.774 347.858 128.954 349.234 128.954Z" fill="#E3E3E3"/>
<path d="M415.691 128.954C417.068 128.954 418.184 127.774 418.184 126.317C418.184 124.86 417.068 123.68 415.691 123.68C414.315 123.68 413.199 124.86 413.199 126.317C413.199 127.774 414.315 128.954 415.691 128.954Z" fill="#E3E3E3"/>
<path d="M482.148 128.954C483.525 128.954 484.641 127.774 484.641 126.317C484.641 124.86 483.525 123.68 482.148 123.68C480.772 123.68 479.656 124.86 479.656 126.317C479.656 127.774 480.772 128.954 482.148 128.954Z" fill="#E3E3E3"/>
<path d="M548.605 128.954C549.982 128.954 551.098 127.774 551.098 126.317C551.098 124.86 549.982 123.68 548.605 123.68C547.229 123.68 546.113 124.86 546.113 126.317C546.113 127.774 547.229 128.954 548.605 128.954Z" fill="#E3E3E3"/>
<path d="M615.062 128.954C616.439 128.954 617.555 127.774 617.555 126.317C617.555 124.86 616.439 123.68 615.062 123.68C613.686 123.68 612.57 124.86 612.57 126.317C612.57 127.774 613.686 128.954 615.062 128.954Z" fill="#E3E3E3"/>
<path d="M681.523 128.954C682.9 128.954 684.016 127.774 684.016 126.317C684.016 124.86 682.9 123.68 681.523 123.68C680.147 123.68 679.031 124.86 679.031 126.317C679.031 127.774 680.147 128.954 681.523 128.954Z" fill="#E3E3E3"/>
<path d="M747.977 128.954C749.353 128.954 750.469 127.774 750.469 126.317C750.469 124.86 749.353 123.68 747.977 123.68C746.6 123.68 745.484 124.86 745.484 126.317C745.484 127.774 746.6 128.954 747.977 128.954Z" fill="#E3E3E3"/>
<path d="M814.437 128.954C815.814 128.954 816.93 127.774 816.93 126.317C816.93 124.86 815.814 123.68 814.437 123.68C813.061 123.68 811.945 124.86 811.945 126.317C811.945 127.774 813.061 128.954 814.437 128.954Z" fill="#E3E3E3"/>
<path d="M880.891 128.954C882.267 128.954 883.383 127.774 883.383 126.317C883.383 124.86 882.267 123.68 880.891 123.68C879.514 123.68 878.398 124.86 878.398 126.317C878.398 127.774 879.514 128.954 880.891 128.954Z" fill="#E3E3E3"/>
<path d="M947.352 128.954C948.728 128.954 949.844 127.774 949.844 126.317C949.844 124.86 948.728 123.68 947.352 123.68C945.975 123.68 944.859 124.86 944.859 126.317C944.859 127.774 945.975 128.954 947.352 128.954Z" fill="#E3E3E3"/>
<path d="M1013.8 128.954C1015.18 128.954 1016.3 127.774 1016.3 126.317C1016.3 124.86 1015.18 123.68 1013.8 123.68C1012.43 123.68 1011.31 124.86 1011.31 126.317C1011.31 127.774 1012.43 128.954 1013.8 128.954Z" fill="#E3E3E3"/>
<path d="M16.9492 199.29C18.3255 199.29 19.4413 198.11 19.4413 196.653C19.4413 195.196 18.3255 194.016 16.9492 194.016C15.5728 194.016 14.457 195.196 14.457 196.653C14.457 198.11 15.5728 199.29 16.9492 199.29Z" fill="#E3E3E3"/>
<path d="M83.4062 199.29C84.7826 199.29 85.8983 198.11 85.8983 196.653C85.8983 195.196 84.7826 194.016 83.4062 194.016C82.0298 194.016 80.9141 195.196 80.9141 196.653C80.9141 198.11 82.0298 199.29 83.4062 199.29Z" fill="#E3E3E3"/>
<path d="M149.863 199.29C151.24 199.29 152.355 198.11 152.355 196.653C152.355 195.196 151.24 194.016 149.863 194.016C148.487 194.016 147.371 195.196 147.371 196.653C147.371 198.11 148.487 199.29 149.863 199.29Z" fill="#E3E3E3"/>
<path d="M216.32 199.29C217.697 199.29 218.812 198.11 218.812 196.653C218.812 195.196 217.697 194.016 216.32 194.016C214.944 194.016 213.828 195.196 213.828 196.653C213.828 198.11 214.944 199.29 216.32 199.29Z" fill="#E3E3E3"/>
<path d="M282.777 199.29C284.154 199.29 285.269 198.11 285.269 196.653C285.269 195.196 284.154 194.016 282.777 194.016C281.401 194.016 280.285 195.196 280.285 196.653C280.285 198.11 281.401 199.29 282.777 199.29Z" fill="#E3E3E3"/>
<path d="M349.234 199.29C350.611 199.29 351.726 198.11 351.726 196.653C351.726 195.196 350.611 194.016 349.234 194.016C347.858 194.016 346.742 195.196 346.742 196.653C346.742 198.11 347.858 199.29 349.234 199.29Z" fill="#E3E3E3"/>
<path d="M415.691 199.29C417.068 199.29 418.184 198.11 418.184 196.653C418.184 195.196 417.068 194.016 415.691 194.016C414.315 194.016 413.199 195.196 413.199 196.653C413.199 198.11 414.315 199.29 415.691 199.29Z" fill="#E3E3E3"/>
<path d="M482.148 199.29C483.525 199.29 484.641 198.11 484.641 196.653C484.641 195.196 483.525 194.016 482.148 194.016C480.772 194.016 479.656 195.196 479.656 196.653C479.656 198.11 480.772 199.29 482.148 199.29Z" fill="#E3E3E3"/>
<path d="M548.605 199.29C549.982 199.29 551.098 198.11 551.098 196.653C551.098 195.196 549.982 194.016 548.605 194.016C547.229 194.016 546.113 195.196 546.113 196.653C546.113 198.11 547.229 199.29 548.605 199.29Z" fill="#E3E3E3"/>
<path d="M615.062 199.29C616.439 199.29 617.555 198.11 617.555 196.653C617.555 195.196 616.439 194.016 615.062 194.016C613.686 194.016 612.57 195.196 612.57 196.653C612.57 198.11 613.686 199.29 615.062 199.29Z" fill="#E3E3E3"/>
<path d="M681.523 199.29C682.9 199.29 684.016 198.11 684.016 196.653C684.016 195.196 682.9 194.016 681.523 194.016C680.147 194.016 679.031 195.196 679.031 196.653C679.031 198.11 680.147 199.29 681.523 199.29Z" fill="#E3E3E3"/>
<path d="M747.977 199.29C749.353 199.29 750.469 198.11 750.469 196.653C750.469 195.196 749.353 194.016 747.977 194.016C746.6 194.016 745.484 195.196 745.484 196.653C745.484 198.11 746.6 199.29 747.977 199.29Z" fill="#E3E3E3"/>
<path d="M814.437 199.29C815.814 199.29 816.93 198.11 816.93 196.653C816.93 195.196 815.814 194.016 814.437 194.016C813.061 194.016 811.945 195.196 811.945 196.653C811.945 198.11 813.061 199.29 814.437 199.29Z" fill="#E3E3E3"/>
<path d="M880.891 199.29C882.267 199.29 883.383 198.11 883.383 196.653C883.383 195.196 882.267 194.016 880.891 194.016C879.514 194.016 878.398 195.196 878.398 196.653C878.398 198.11 879.514 199.29 880.891 199.29Z" fill="#E3E3E3"/>
<path d="M947.352 199.29C948.728 199.29 949.844 198.11 949.844 196.653C949.844 195.196 948.728 194.016 947.352 194.016C945.975 194.016 944.859 195.196 944.859 196.653C944.859 198.11 945.975 199.29 947.352 199.29Z" fill="#E3E3E3"/>
<path d="M1013.8 199.29C1015.18 199.29 1016.3 198.11 1016.3 196.653C1016.3 195.196 1015.18 194.016 1013.8 194.016C1012.43 194.016 1011.31 195.196 1011.31 196.653C1011.31 198.11 1012.43 199.29 1013.8 199.29Z" fill="#E3E3E3"/>
<path d="M16.9492 269.618C18.3255 269.618 19.4413 268.438 19.4413 266.981C19.4413 265.525 18.3255 264.344 16.9492 264.344C15.5728 264.344 14.457 265.525 14.457 266.981C14.457 268.438 15.5728 269.618 16.9492 269.618Z" fill="#E3E3E3"/>
<path d="M83.4062 269.618C84.7826 269.618 85.8983 268.438 85.8983 266.981C85.8983 265.525 84.7826 264.344 83.4062 264.344C82.0298 264.344 80.9141 265.525 80.9141 266.981C80.9141 268.438 82.0298 269.618 83.4062 269.618Z" fill="#E3E3E3"/>
<path d="M149.863 269.618C151.24 269.618 152.355 268.438 152.355 266.981C152.355 265.525 151.24 264.344 149.863 264.344C148.487 264.344 147.371 265.525 147.371 266.981C147.371 268.438 148.487 269.618 149.863 269.618Z" fill="#E3E3E3"/>
<path d="M216.32 269.618C217.697 269.618 218.812 268.438 218.812 266.981C218.812 265.525 217.697 264.344 216.32 264.344C214.944 264.344 213.828 265.525 213.828 266.981C213.828 268.438 214.944 269.618 216.32 269.618Z" fill="#E3E3E3"/>
<path d="M282.777 269.618C284.154 269.618 285.269 268.438 285.269 266.981C285.269 265.525 284.154 264.344 282.777 264.344C281.401 264.344 280.285 265.525 280.285 266.981C280.285 268.438 281.401 269.618 282.777 269.618Z" fill="#E3E3E3"/>
<path d="M349.234 269.618C350.611 269.618 351.726 268.438 351.726 266.981C351.726 265.525 350.611 264.344 349.234 264.344C347.858 264.344 346.742 265.525 346.742 266.981C346.742 268.438 347.858 269.618 349.234 269.618Z" fill="#E3E3E3"/>
<path d="M415.691 269.618C417.068 269.618 418.184 268.438 418.184 266.981C418.184 265.525 417.068 264.344 415.691 264.344C414.315 264.344 413.199 265.525 413.199 266.981C413.199 268.438 414.315 269.618 415.691 269.618Z" fill="#E3E3E3"/>
<path d="M482.148 269.618C483.525 269.618 484.641 268.438 484.641 266.981C484.641 265.525 483.525 264.344 482.148 264.344C480.772 264.344 479.656 265.525 479.656 266.981C479.656 268.438 480.772 269.618 482.148 269.618Z" fill="#E3E3E3"/>
<path d="M548.605 269.618C549.982 269.618 551.098 268.438 551.098 266.981C551.098 265.525 549.982 264.344 548.605 264.344C547.229 264.344 546.113 265.525 546.113 266.981C546.113 268.438 547.229 269.618 548.605 269.618Z" fill="#E3E3E3"/>
<path d="M615.062 269.618C616.439 269.618 617.555 268.438 617.555 266.981C617.555 265.525 616.439 264.344 615.062 264.344C613.686 264.344 612.57 265.525 612.57 266.981C612.57 268.438 613.686 269.618 615.062 269.618Z" fill="#E3E3E3"/>
<path d="M681.523 269.618C682.9 269.618 684.016 268.438 684.016 266.981C684.016 265.525 682.9 264.344 681.523 264.344C680.147 264.344 679.031 265.525 679.031 266.981C679.031 268.438 680.147 269.618 681.523 269.618Z" fill="#E3E3E3"/>
<path d="M747.977 269.618C749.353 269.618 750.469 268.438 750.469 266.981C750.469 265.525 749.353 264.344 747.977 264.344C746.6 264.344 745.484 265.525 745.484 266.981C745.484 268.438 746.6 269.618 747.977 269.618Z" fill="#E3E3E3"/>
<path d="M814.437 269.618C815.814 269.618 816.93 268.438 816.93 266.981C816.93 265.525 815.814 264.344 814.437 264.344C813.061 264.344 811.945 265.525 811.945 266.981C811.945 268.438 813.061 269.618 814.437 269.618Z" fill="#E3E3E3"/>
<path d="M880.891 269.618C882.267 269.618 883.383 268.438 883.383 266.981C883.383 265.525 882.267 264.344 880.891 264.344C879.514 264.344 878.398 265.525 878.398 266.981C878.398 268.438 879.514 269.618 880.891 269.618Z" fill="#E3E3E3"/>
<path d="M947.352 269.618C948.728 269.618 949.844 268.438 949.844 266.981C949.844 265.525 948.728 264.344 947.352 264.344C945.975 264.344 944.859 265.525 944.859 266.981C944.859 268.438 945.975 269.618 947.352 269.618Z" fill="#E3E3E3"/>
<path d="M1013.8 269.618C1015.18 269.618 1016.3 268.438 1016.3 266.981C1016.3 265.525 1015.18 264.344 1013.8 264.344C1012.43 264.344 1011.31 265.525 1011.31 266.981C1011.31 268.438 1012.43 269.618 1013.8 269.618Z" fill="#E3E3E3"/>
<path d="M16.9492 339.947C18.3255 339.947 19.4413 338.766 19.4413 337.309C19.4413 335.853 18.3255 334.672 16.9492 334.672C15.5728 334.672 14.457 335.853 14.457 337.309C14.457 338.766 15.5728 339.947 16.9492 339.947Z" fill="#E3E3E3"/>
<path d="M83.4062 339.947C84.7826 339.947 85.8983 338.766 85.8983 337.309C85.8983 335.853 84.7826 334.672 83.4062 334.672C82.0298 334.672 80.9141 335.853 80.9141 337.309C80.9141 338.766 82.0298 339.947 83.4062 339.947Z" fill="#E3E3E3"/>
<path d="M149.863 339.947C151.24 339.947 152.355 338.766 152.355 337.309C152.355 335.853 151.24 334.672 149.863 334.672C148.487 334.672 147.371 335.853 147.371 337.309C147.371 338.766 148.487 339.947 149.863 339.947Z" fill="#E3E3E3"/>
<path d="M216.32 339.947C217.697 339.947 218.812 338.766 218.812 337.309C218.812 335.853 217.697 334.672 216.32 334.672C214.944 334.672 213.828 335.853 213.828 337.309C213.828 338.766 214.944 339.947 216.32 339.947Z" fill="#E3E3E3"/>
<path d="M282.777 339.947C284.154 339.947 285.269 338.766 285.269 337.309C285.269 335.853 284.154 334.672 282.777 334.672C281.401 334.672 280.285 335.853 280.285 337.309C280.285 338.766 281.401 339.947 282.777 339.947Z" fill="#E3E3E3"/>
<path d="M349.234 339.947C350.611 339.947 351.726 338.766 351.726 337.309C351.726 335.853 350.611 334.672 349.234 334.672C347.858 334.672 346.742 335.853 346.742 337.309C346.742 338.766 347.858 339.947 349.234 339.947Z" fill="#E3E3E3"/>
<path d="M415.691 339.947C417.068 339.947 418.184 338.766 418.184 337.309C418.184 335.853 417.068 334.672 415.691 334.672C414.315 334.672 413.199 335.853 413.199 337.309C413.199 338.766 414.315 339.947 415.691 339.947Z" fill="#E3E3E3"/>
<path d="M482.148 339.947C483.525 339.947 484.641 338.766 484.641 337.309C484.641 335.853 483.525 334.672 482.148 334.672C480.772 334.672 479.656 335.853 479.656 337.309C479.656 338.766 480.772 339.947 482.148 339.947Z" fill="#E3E3E3"/>
<path d="M548.605 339.947C549.982 339.947 551.098 338.766 551.098 337.309C551.098 335.853 549.982 334.672 548.605 334.672C547.229 334.672 546.113 335.853 546.113 337.309C546.113 338.766 547.229 339.947 548.605 339.947Z" fill="#E3E3E3"/>
<path d="M615.062 339.947C616.439 339.947 617.555 338.766 617.555 337.309C617.555 335.853 616.439 334.672 615.062 334.672C613.686 334.672 612.57 335.853 612.57 337.309C612.57 338.766 613.686 339.947 615.062 339.947Z" fill="#E3E3E3"/>
<path d="M681.523 339.947C682.9 339.947 684.016 338.766 684.016 337.309C684.016 335.853 682.9 334.672 681.523 334.672C680.147 334.672 679.031 335.853 679.031 337.309C679.031 338.766 680.147 339.947 681.523 339.947Z" fill="#E3E3E3"/>
<path d="M747.977 339.947C749.353 339.947 750.469 338.766 750.469 337.309C750.469 335.853 749.353 334.672 747.977 334.672C746.6 334.672 745.484 335.853 745.484 337.309C745.484 338.766 746.6 339.947 747.977 339.947Z" fill="#E3E3E3"/>
<path d="M814.437 339.947C815.814 339.947 816.93 338.766 816.93 337.309C816.93 335.853 815.814 334.672 814.437 334.672C813.061 334.672 811.945 335.853 811.945 337.309C811.945 338.766 813.061 339.947 814.437 339.947Z" fill="#E3E3E3"/>
<path d="M880.891 339.947C882.267 339.947 883.383 338.766 883.383 337.309C883.383 335.853 882.267 334.672 880.891 334.672C879.514 334.672 878.398 335.853 878.398 337.309C878.398 338.766 879.514 339.947 880.891 339.947Z" fill="#E3E3E3"/>
<path d="M947.352 339.947C948.728 339.947 949.844 338.766 949.844 337.309C949.844 335.853 948.728 334.672 947.352 334.672C945.975 334.672 944.859 335.853 944.859 337.309C944.859 338.766 945.975 339.947 947.352 339.947Z" fill="#E3E3E3"/>
<path d="M1013.8 339.947C1015.18 339.947 1016.3 338.766 1016.3 337.309C1016.3 335.853 1015.18 334.672 1013.8 334.672C1012.43 334.672 1011.31 335.853 1011.31 337.309C1011.31 338.766 1012.43 339.947 1013.8 339.947Z" fill="#E3E3E3"/>
<path d="M16.9492 410.275C18.3255 410.275 19.4413 409.094 19.4413 407.637C19.4413 406.181 18.3255 405 16.9492 405C15.5728 405 14.457 406.181 14.457 407.637C14.457 409.094 15.5728 410.275 16.9492 410.275Z" fill="#E3E3E3"/>
<path d="M83.4062 410.275C84.7826 410.275 85.8983 409.094 85.8983 407.637C85.8983 406.181 84.7826 405 83.4062 405C82.0298 405 80.9141 406.181 80.9141 407.637C80.9141 409.094 82.0298 410.275 83.4062 410.275Z" fill="#E3E3E3"/>
<path d="M149.863 410.275C151.24 410.275 152.355 409.094 152.355 407.637C152.355 406.181 151.24 405 149.863 405C148.487 405 147.371 406.181 147.371 407.637C147.371 409.094 148.487 410.275 149.863 410.275Z" fill="#E3E3E3"/>
<path d="M216.32 410.275C217.697 410.275 218.812 409.094 218.812 407.637C218.812 406.181 217.697 405 216.32 405C214.944 405 213.828 406.181 213.828 407.637C213.828 409.094 214.944 410.275 216.32 410.275Z" fill="#E3E3E3"/>
<path d="M282.777 410.275C284.154 410.275 285.269 409.094 285.269 407.637C285.269 406.181 284.154 405 282.777 405C281.401 405 280.285 406.181 280.285 407.637C280.285 409.094 281.401 410.275 282.777 410.275Z" fill="#E3E3E3"/>
<path d="M349.234 410.275C350.611 410.275 351.726 409.094 351.726 407.637C351.726 406.181 350.611 405 349.234 405C347.858 405 346.742 406.181 346.742 407.637C346.742 409.094 347.858 410.275 349.234 410.275Z" fill="#E3E3E3"/>
<path d="M415.691 410.275C417.068 410.275 418.184 409.094 418.184 407.637C418.184 406.181 417.068 405 415.691 405C414.315 405 413.199 406.181 413.199 407.637C413.199 409.094 414.315 410.275 415.691 410.275Z" fill="#E3E3E3"/>
<path d="M482.148 410.275C483.525 410.275 484.641 409.094 484.641 407.637C484.641 406.181 483.525 405 482.148 405C480.772 405 479.656 406.181 479.656 407.637C479.656 409.094 480.772 410.275 482.148 410.275Z" fill="#E3E3E3"/>
<path d="M548.605 410.275C549.982 410.275 551.098 409.094 551.098 407.637C551.098 406.181 549.982 405 548.605 405C547.229 405 546.113 406.181 546.113 407.637C546.113 409.094 547.229 410.275 548.605 410.275Z" fill="#E3E3E3"/>
<path d="M615.062 410.275C616.439 410.275 617.555 409.094 617.555 407.637C617.555 406.181 616.439 405 615.062 405C613.686 405 612.57 406.181 612.57 407.637C612.57 409.094 613.686 410.275 615.062 410.275Z" fill="#E3E3E3"/>
<path d="M681.523 410.275C682.9 410.275 684.016 409.094 684.016 407.637C684.016 406.181 682.9 405 681.523 405C680.147 405 679.031 406.181 679.031 407.637C679.031 409.094 680.147 410.275 681.523 410.275Z" fill="#E3E3E3"/>
<path d="M747.977 410.275C749.353 410.275 750.469 409.094 750.469 407.637C750.469 406.181 749.353 405 747.977 405C746.6 405 745.484 406.181 745.484 407.637C745.484 409.094 746.6 410.275 747.977 410.275Z" fill="#E3E3E3"/>
<path d="M814.437 410.275C815.814 410.275 816.93 409.094 816.93 407.637C816.93 406.181 815.814 405 814.437 405C813.061 405 811.945 406.181 811.945 407.637C811.945 409.094 813.061 410.275 814.437 410.275Z" fill="#E3E3E3"/>
<path d="M880.891 410.275C882.267 410.275 883.383 409.094 883.383 407.637C883.383 406.181 882.267 405 880.891 405C879.514 405 878.398 406.181 878.398 407.637C878.398 409.094 879.514 410.275 880.891 410.275Z" fill="#E3E3E3"/>
<path d="M947.352 410.275C948.728 410.275 949.844 409.094 949.844 407.637C949.844 406.181 948.728 405 947.352 405C945.975 405 944.859 406.181 944.859 407.637C944.859 409.094 945.975 410.275 947.352 410.275Z" fill="#E3E3E3"/>
<path d="M1013.8 410.275C1015.18 410.275 1016.3 409.094 1016.3 407.637C1016.3 406.181 1015.18 405 1013.8 405C1012.43 405 1011.31 406.181 1011.31 407.637C1011.31 409.094 1012.43 410.275 1013.8 410.275Z" fill="#E3E3E3"/>
<path d="M16.9492 480.603C18.3255 480.603 19.4413 479.422 19.4413 477.965C19.4413 476.509 18.3255 475.328 16.9492 475.328C15.5728 475.328 14.457 476.509 14.457 477.965C14.457 479.422 15.5728 480.603 16.9492 480.603Z" fill="#E3E3E3"/>
<path d="M83.4062 480.603C84.7826 480.603 85.8983 479.422 85.8983 477.965C85.8983 476.509 84.7826 475.328 83.4062 475.328C82.0298 475.328 80.9141 476.509 80.9141 477.965C80.9141 479.422 82.0298 480.603 83.4062 480.603Z" fill="#E3E3E3"/>
<path d="M149.863 480.603C151.24 480.603 152.355 479.422 152.355 477.965C152.355 476.509 151.24 475.328 149.863 475.328C148.487 475.328 147.371 476.509 147.371 477.965C147.371 479.422 148.487 480.603 149.863 480.603Z" fill="#E3E3E3"/>
<path d="M216.32 480.603C217.697 480.603 218.812 479.422 218.812 477.965C218.812 476.509 217.697 475.328 216.32 475.328C214.944 475.328 213.828 476.509 213.828 477.965C213.828 479.422 214.944 480.603 216.32 480.603Z" fill="#E3E3E3"/>
<path d="M282.777 480.603C284.154 480.603 285.269 479.422 285.269 477.965C285.269 476.509 284.154 475.328 282.777 475.328C281.401 475.328 280.285 476.509 280.285 477.965C280.285 479.422 281.401 480.603 282.777 480.603Z" fill="#E3E3E3"/>
<path d="M349.234 480.603C350.611 480.603 351.726 479.422 351.726 477.965C351.726 476.509 350.611 475.328 349.234 475.328C347.858 475.328 346.742 476.509 346.742 477.965C346.742 479.422 347.858 480.603 349.234 480.603Z" fill="#E3E3E3"/>
<path d="M415.691 480.603C417.068 480.603 418.184 479.422 418.184 477.965C418.184 476.509 417.068 475.328 415.691 475.328C414.315 475.328 413.199 476.509 413.199 477.965C413.199 479.422 414.315 480.603 415.691 480.603Z" fill="#E3E3E3"/>
<path d="M482.148 480.603C483.525 480.603 484.641 479.422 484.641 477.965C484.641 476.509 483.525 475.328 482.148 475.328C480.772 475.328 479.656 476.509 479.656 477.965C479.656 479.422 480.772 480.603 482.148 480.603Z" fill="#E3E3E3"/>
<path d="M548.605 480.603C549.982 480.603 551.098 479.422 551.098 477.965C551.098 476.509 549.982 475.328 548.605 475.328C547.229 475.328 546.113 476.509 546.113 477.965C546.113 479.422 547.229 480.603 548.605 480.603Z" fill="#E3E3E3"/>
<path d="M615.062 480.603C616.439 480.603 617.555 479.422 617.555 477.965C617.555 476.509 616.439 475.328 615.062 475.328C613.686 475.328 612.57 476.509 612.57 477.965C612.57 479.422 613.686 480.603 615.062 480.603Z" fill="#E3E3E3"/>
<path d="M681.523 480.603C682.9 480.603 684.016 479.422 684.016 477.965C684.016 476.509 682.9 475.328 681.523 475.328C680.147 475.328 679.031 476.509 679.031 477.965C679.031 479.422 680.147 480.603 681.523 480.603Z" fill="#E3E3E3"/>
<path d="M747.977 480.603C749.353 480.603 750.469 479.422 750.469 477.965C750.469 476.509 749.353 475.328 747.977 475.328C746.6 475.328 745.484 476.509 745.484 477.965C745.484 479.422 746.6 480.603 747.977 480.603Z" fill="#E3E3E3"/>
<path d="M814.437 480.603C815.814 480.603 816.93 479.422 816.93 477.965C816.93 476.509 815.814 475.328 814.437 475.328C813.061 475.328 811.945 476.509 811.945 477.965C811.945 479.422 813.061 480.603 814.437 480.603Z" fill="#E3E3E3"/>
<path d="M880.891 480.603C882.267 480.603 883.383 479.422 883.383 477.965C883.383 476.509 882.267 475.328 880.891 475.328C879.514 475.328 878.398 476.509 878.398 477.965C878.398 479.422 879.514 480.603 880.891 480.603Z" fill="#E3E3E3"/>
<path d="M947.352 480.603C948.728 480.603 949.844 479.422 949.844 477.965C949.844 476.509 948.728 475.328 947.352 475.328C945.975 475.328 944.859 476.509 944.859 477.965C944.859 479.422 945.975 480.603 947.352 480.603Z" fill="#E3E3E3"/>
<path d="M1013.8 480.603C1015.18 480.603 1016.3 479.422 1016.3 477.965C1016.3 476.509 1015.18 475.328 1013.8 475.328C1012.43 475.328 1011.31 476.509 1011.31 477.965C1011.31 479.422 1012.43 480.603 1013.8 480.603Z" fill="#E3E3E3"/>
<path d="M16.9492 550.931C18.3255 550.931 19.4413 549.75 19.4413 548.294C19.4413 546.837 18.3255 545.656 16.9492 545.656C15.5728 545.656 14.457 546.837 14.457 548.294C14.457 549.75 15.5728 550.931 16.9492 550.931Z" fill="#E3E3E3"/>
<path d="M83.4062 550.931C84.7826 550.931 85.8983 549.75 85.8983 548.294C85.8983 546.837 84.7826 545.656 83.4062 545.656C82.0298 545.656 80.9141 546.837 80.9141 548.294C80.9141 549.75 82.0298 550.931 83.4062 550.931Z" fill="#E3E3E3"/>
<path d="M149.863 550.931C151.24 550.931 152.355 549.75 152.355 548.294C152.355 546.837 151.24 545.656 149.863 545.656C148.487 545.656 147.371 546.837 147.371 548.294C147.371 549.75 148.487 550.931 149.863 550.931Z" fill="#E3E3E3"/>
<path d="M216.32 550.931C217.697 550.931 218.812 549.75 218.812 548.294C218.812 546.837 217.697 545.656 216.32 545.656C214.944 545.656 213.828 546.837 213.828 548.294C213.828 549.75 214.944 550.931 216.32 550.931Z" fill="#E3E3E3"/>
<path d="M282.777 550.931C284.154 550.931 285.269 549.75 285.269 548.294C285.269 546.837 284.154 545.656 282.777 545.656C281.401 545.656 280.285 546.837 280.285 548.294C280.285 549.75 281.401 550.931 282.777 550.931Z" fill="#E3E3E3"/>
<path d="M349.234 550.931C350.611 550.931 351.726 549.75 351.726 548.294C351.726 546.837 350.611 545.656 349.234 545.656C347.858 545.656 346.742 546.837 346.742 548.294C346.742 549.75 347.858 550.931 349.234 550.931Z" fill="#E3E3E3"/>
<path d="M415.691 550.931C417.068 550.931 418.184 549.75 418.184 548.294C418.184 546.837 417.068 545.656 415.691 545.656C414.315 545.656 413.199 546.837 413.199 548.294C413.199 549.75 414.315 550.931 415.691 550.931Z" fill="#E3E3E3"/>
<path d="M482.148 550.931C483.525 550.931 484.641 549.75 484.641 548.294C484.641 546.837 483.525 545.656 482.148 545.656C480.772 545.656 479.656 546.837 479.656 548.294C479.656 549.75 480.772 550.931 482.148 550.931Z" fill="#E3E3E3"/>
<path d="M548.605 550.931C549.982 550.931 551.098 549.75 551.098 548.294C551.098 546.837 549.982 545.656 548.605 545.656C547.229 545.656 546.113 546.837 546.113 548.294C546.113 549.75 547.229 550.931 548.605 550.931Z" fill="#E3E3E3"/>
<path d="M615.062 550.931C616.439 550.931 617.555 549.75 617.555 548.294C617.555 546.837 616.439 545.656 615.062 545.656C613.686 545.656 612.57 546.837 612.57 548.294C612.57 549.75 613.686 550.931 615.062 550.931Z" fill="#E3E3E3"/>
<path d="M681.523 550.931C682.9 550.931 684.016 549.75 684.016 548.294C684.016 546.837 682.9 545.656 681.523 545.656C680.147 545.656 679.031 546.837 679.031 548.294C679.031 549.75 680.147 550.931 681.523 550.931Z" fill="#E3E3E3"/>
<path d="M747.977 550.931C749.353 550.931 750.469 549.75 750.469 548.294C750.469 546.837 749.353 545.656 747.977 545.656C746.6 545.656 745.484 546.837 745.484 548.294C745.484 549.75 746.6 550.931 747.977 550.931Z" fill="#E3E3E3"/>
<path d="M814.437 550.931C815.814 550.931 816.93 549.75 816.93 548.294C816.93 546.837 815.814 545.656 814.437 545.656C813.061 545.656 811.945 546.837 811.945 548.294C811.945 549.75 813.061 550.931 814.437 550.931Z" fill="#E3E3E3"/>
<path d="M880.891 550.931C882.267 550.931 883.383 549.75 883.383 548.294C883.383 546.837 882.267 545.656 880.891 545.656C879.514 545.656 878.398 546.837 878.398 548.294C878.398 549.75 879.514 550.931 880.891 550.931Z" fill="#E3E3E3"/>
<path d="M947.352 550.931C948.728 550.931 949.844 549.75 949.844 548.294C949.844 546.837 948.728 545.656 947.352 545.656C945.975 545.656 944.859 546.837 944.859 548.294C944.859 549.75 945.975 550.931 947.352 550.931Z" fill="#E3E3E3"/>
<path d="M1013.8 550.931C1015.18 550.931 1016.3 549.75 1016.3 548.294C1016.3 546.837 1015.18 545.656 1013.8 545.656C1012.43 545.656 1011.31 546.837 1011.31 548.294C1011.31 549.75 1012.43 550.931 1013.8 550.931Z" fill="#E3E3E3"/>
<path d="M16.9492 621.267C18.3255 621.267 19.4413 620.086 19.4413 618.63C19.4413 617.173 18.3255 615.992 16.9492 615.992C15.5728 615.992 14.457 617.173 14.457 618.63C14.457 620.086 15.5728 621.267 16.9492 621.267Z" fill="#E3E3E3"/>
<path d="M83.4062 621.267C84.7826 621.267 85.8983 620.086 85.8983 618.63C85.8983 617.173 84.7826 615.992 83.4062 615.992C82.0298 615.992 80.9141 617.173 80.9141 618.63C80.9141 620.086 82.0298 621.267 83.4062 621.267Z" fill="#E3E3E3"/>
<path d="M149.863 621.267C151.24 621.267 152.355 620.086 152.355 618.63C152.355 617.173 151.24 615.992 149.863 615.992C148.487 615.992 147.371 617.173 147.371 618.63C147.371 620.086 148.487 621.267 149.863 621.267Z" fill="#E3E3E3"/>
<path d="M216.32 621.267C217.697 621.267 218.812 620.086 218.812 618.63C218.812 617.173 217.697 615.992 216.32 615.992C214.944 615.992 213.828 617.173 213.828 618.63C213.828 620.086 214.944 621.267 216.32 621.267Z" fill="#E3E3E3"/>
<path d="M282.777 621.267C284.154 621.267 285.269 620.086 285.269 618.63C285.269 617.173 284.154 615.992 282.777 615.992C281.401 615.992 280.285 617.173 280.285 618.63C280.285 620.086 281.401 621.267 282.777 621.267Z" fill="#E3E3E3"/>
<path d="M349.234 621.267C350.611 621.267 351.726 620.086 351.726 618.63C351.726 617.173 350.611 615.992 349.234 615.992C347.858 615.992 346.742 617.173 346.742 618.63C346.742 620.086 347.858 621.267 349.234 621.267Z" fill="#E3E3E3"/>
<path d="M415.691 621.267C417.068 621.267 418.184 620.086 418.184 618.63C418.184 617.173 417.068 615.992 415.691 615.992C414.315 615.992 413.199 617.173 413.199 618.63C413.199 620.086 414.315 621.267 415.691 621.267Z" fill="#E3E3E3"/>
<path d="M482.148 621.267C483.525 621.267 484.641 620.086 484.641 618.63C484.641 617.173 483.525 615.992 482.148 615.992C480.772 615.992 479.656 617.173 479.656 618.63C479.656 620.086 480.772 621.267 482.148 621.267Z" fill="#E3E3E3"/>
<path d="M548.605 621.267C549.982 621.267 551.098 620.086 551.098 618.63C551.098 617.173 549.982 615.992 548.605 615.992C547.229 615.992 546.113 617.173 546.113 618.63C546.113 620.086 547.229 621.267 548.605 621.267Z" fill="#E3E3E3"/>
<path d="M615.062 621.267C616.439 621.267 617.555 620.086 617.555 618.63C617.555 617.173 616.439 615.992 615.062 615.992C613.686 615.992 612.57 617.173 612.57 618.63C612.57 620.086 613.686 621.267 615.062 621.267Z" fill="#E3E3E3"/>
<path d="M681.523 621.267C682.9 621.267 684.016 620.086 684.016 618.63C684.016 617.173 682.9 615.992 681.523 615.992C680.147 615.992 679.031 617.173 679.031 618.63C679.031 620.086 680.147 621.267 681.523 621.267Z" fill="#E3E3E3"/>
<path d="M747.977 621.267C749.353 621.267 750.469 620.086 750.469 618.63C750.469 617.173 749.353 615.992 747.977 615.992C746.6 615.992 745.484 617.173 745.484 618.63C745.484 620.086 746.6 621.267 747.977 621.267Z" fill="#E3E3E3"/>
<path d="M814.437 621.267C815.814 621.267 816.93 620.086 816.93 618.63C816.93 617.173 815.814 615.992 814.437 615.992C813.061 615.992 811.945 617.173 811.945 618.63C811.945 620.086 813.061 621.267 814.437 621.267Z" fill="#E3E3E3"/>
<path d="M880.891 621.267C882.267 621.267 883.383 620.086 883.383 618.63C883.383 617.173 882.267 615.992 880.891 615.992C879.514 615.992 878.398 617.173 878.398 618.63C878.398 620.086 879.514 621.267 880.891 621.267Z" fill="#E3E3E3"/>
<path d="M947.352 621.267C948.728 621.267 949.844 620.086 949.844 618.63C949.844 617.173 948.728 615.992 947.352 615.992C945.975 615.992 944.859 617.173 944.859 618.63C944.859 620.086 945.975 621.267 947.352 621.267Z" fill="#E3E3E3"/>
<path d="M1013.8 621.267C1015.18 621.267 1016.3 620.086 1016.3 618.63C1016.3 617.173 1015.18 615.992 1013.8 615.992C1012.43 615.992 1011.31 617.173 1011.31 618.63C1011.31 620.086 1012.43 621.267 1013.8 621.267Z" fill="#E3E3E3"/>
</g>
<path d="M0 8C0 3.58173 3.58172 0 8 0H1022C1026.42 0 1030 3.58172 1030 8V46.576H0V8Z" fill="#21211F"/>
<circle cx="32" cy="23" r="8" fill="#ED372F"/>
<circle cx="56" cy="23" r="8" fill="#FFD11A"/>
<circle cx="80" cy="23" r="8" fill="#09EB2F"/>
</svg>
