<svg width="64" height="64" viewBox="0 0 64 64" fill="none" xmlns="http://www.w3.org/2000/svg">
<rect width="64" height="64" rx="16" fill="black"/>
<rect x="5" y="5" width="54" height="54" rx="8" fill="white" fill-opacity="0.01"/>
<path d="M25.314 50.2645C29.1465 50.2645 32.2569 47.5768 32.2569 44.2651V38.2656H25.314C21.4815 38.2656 18.3711 40.9534 18.3711 44.2651C18.3711 47.5768 21.4815 50.2645 25.314 50.2645Z" fill="#0ACF83"/>
<path d="M18.3711 32.2651C18.3711 28.9534 21.4815 26.2656 25.314 26.2656H32.2569V38.2645H25.314C21.4815 38.2645 18.3711 35.5768 18.3711 32.2651Z" fill="#A259FF"/>
<path d="M18.3711 20.2651C18.3711 16.9534 21.4815 14.2656 25.314 14.2656H32.2569V26.2645H25.314C21.4815 26.2645 18.3711 23.5768 18.3711 20.2651Z" fill="#F24E1E"/>
<path d="M32.2578 14.2656H39.2007C43.0332 14.2656 46.1436 16.9534 46.1436 20.2651C46.1436 23.5768 43.0332 26.2645 39.2007 26.2645H32.2578V14.2656Z" fill="#FF7262"/>
<path d="M46.1436 32.2651C46.1436 35.5768 43.0332 38.2645 39.2007 38.2645C35.3682 38.2645 32.2578 35.5768 32.2578 32.2651C32.2578 28.9534 35.3682 26.2656 39.2007 26.2656C43.0332 26.2656 46.1436 28.9534 46.1436 32.2651Z" fill="#1ABCFE"/>
</svg>
