<svg width="41" height="49" viewBox="0 0 41 49" fill="none" xmlns="http://www.w3.org/2000/svg">
<path d="M1.24064 7.3221C1.24064 12.7886 1.90165 18.3286 2.23165 23.7921C2.51941 28.5563 2.89848 33.4395 4.33601 38.0437C5.02585 40.2531 5.42334 42.3585 7.01539 44.0481C8.33765 45.4514 11.2467 46.3138 13.1817 46.3872C15.0619 46.4585 16.8329 47.1146 18.7117 47.3035C20.7402 47.5075 22.657 47.6894 24.7067 47.6894C26.3262 47.6894 27.9202 47.8844 29.5271 47.9064C30.437 47.9188 32.0146 48.2832 32.6225 47.4844C33.365 46.5088 33.6078 44.8514 33.7848 43.6623C34.0988 41.5525 34.4148 39.722 35.045 37.6699C37.0555 31.1227 38.4613 24.384 38.6664 17.5104C38.7845 13.5553 39.3393 9.58292 39.3393 5.63411C39.3393 4.49132 39.636 5.00055 38.7276 5.93553C36.6947 8.02796 34.7892 8.85812 31.9251 9.27536C26.238 10.1039 20.3319 10.0738 14.5886 9.91439C12.1344 9.84625 9.7116 9.21571 7.26009 9.0101C5.67472 8.87713 4.25045 8.41708 2.69656 8.19022C-0.810154 7.67824 1.9604 3.67657 3.51629 2.59571C5.58241 1.1604 8.60642 1.25376 11.0039 1.1368C14.0856 0.986453 17.1685 1.02828 20.2533 1.02828C24.9269 1.02828 29.6006 1.02828 34.2742 1.02828C35.302 1.02828 36.5611 0.8368 37.443 1.45028C38.2178 1.98926 39.1618 2.3515 40 2.76451" stroke="black" stroke-width="2" stroke-linecap="round"/>
</svg>
