<svg width="64" height="64" viewBox="0 0 64 64" fill="none" xmlns="http://www.w3.org/2000/svg">
<rect width="64" height="64" rx="16" fill="black"/>
<rect x="4.53516" y="5" width="54" height="54" rx="8" fill="white" fill-opacity="0.01"/>
<path d="M40.9314 15.7969H22.6548C18.6127 15.7969 15.3359 19.1739 15.3359 23.3397V41.1683C15.3359 45.3341 18.6127 48.7112 22.6548 48.7112H40.9314C44.9735 48.7112 48.2502 45.3341 48.2502 41.1683V23.3397C48.2502 19.1739 44.9735 15.7969 40.9314 15.7969Z" fill="#271302"/>
<path d="M40.931 17.3672H22.6544C19.4539 17.3672 16.8594 20.0411 16.8594 23.3396V41.1681C16.8594 44.4666 19.4539 47.1406 22.6544 47.1406H40.931C44.1315 47.1406 46.726 44.4666 46.726 41.1681V23.3396C46.726 20.0411 44.1315 17.3672 40.931 17.3672Z" fill="#271302"/>
<path d="M26.8691 35.0184L25.9403 37.9708C25.9274 38.018 25.8994 38.0592 25.8607 38.0877C25.8221 38.1163 25.7752 38.1304 25.7277 38.1279H23.4824C23.3468 38.1279 23.3079 38.0493 23.33 37.9284L27.2005 26.4186C27.2767 26.1995 27.3529 25.96 27.394 25.2023C27.3923 25.168 27.4034 25.1344 27.4252 25.1083C27.4469 25.0823 27.4775 25.0659 27.5106 25.0625H30.607C30.7037 25.0625 30.7426 25.0821 30.7594 25.1819L35.1533 37.948C35.1921 38.0478 35.1723 38.1279 35.0565 38.1279H32.5422C32.4962 38.1347 32.4494 38.1243 32.4101 38.0987C32.3709 38.0731 32.3418 38.0338 32.3281 37.9881L31.3376 35.016L26.8691 35.0184ZM30.6245 32.5253C30.2375 31.2085 29.4626 28.7947 29.0954 27.3789H29.0756C28.7662 28.7138 28.0691 30.9124 27.5662 32.5253H30.6245Z" fill="#FF7C01"/>
<path d="M36.3125 25.5984C36.3125 24.7009 36.951 24.0625 37.8218 24.0625C38.7506 24.0625 39.3121 24.7009 39.3121 25.5984C39.3121 26.536 38.7125 27.1539 37.8028 27.1539C36.8931 27.1539 36.3125 26.536 36.3125 25.5984ZM36.4474 28.371C36.4474 28.2713 36.4862 28.214 36.5997 28.214H38.9799C39.0965 28.214 39.1323 28.2532 39.1323 28.371V37.9453C39.1323 38.0654 39.1133 38.1251 38.9586 38.1251H36.6409C36.506 38.1251 36.4474 38.0654 36.4474 37.9453V28.371Z" fill="#FF7C01"/>
</svg>
