<svg width="1355" height="94" viewBox="0 0 1355 94" fill="none" xmlns="http://www.w3.org/2000/svg">
<g opacity="0.08">
<mask id="path-1-outside-1_3410_11228" maskUnits="userSpaceOnUse" x="0" y="0" width="1355" height="94" fill="black">
<rect fill="white" width="1355" height="94"/>
<path d="M126.262 4.22392L103.955 90.1433H78.7223L65.0699 33.5981L50.93 90.1433H25.6975L4 4.22392H26.307L38.6185 66.7663L53.8555 4.22392H76.772L91.3995 66.7663L103.833 4.22392H126.262ZM220.58 4.22392V90.1433H199.736V54.7719H167.311V90.1433H146.467V4.22392H167.311V37.8818H199.736V4.22392H220.58ZM298.648 74.9666H266.711L261.591 90.1433H239.772L270.733 4.22392H294.869L325.83 90.1433H303.767L298.648 74.9666ZM293.284 58.8108L282.679 27.356L272.196 58.8108H293.284ZM406.563 4.22392V20.9917H383.89V90.1433H363.046V20.9917H340.373V4.22392H406.563ZM494.417 4.22392C503.438 4.22392 511.32 6.01901 518.065 9.60917C524.81 13.1993 530.011 18.2582 533.668 24.7858C537.406 31.2318 539.275 38.6977 539.275 47.1836C539.275 55.5878 537.406 63.0538 533.668 69.5814C530.011 76.1089 524.77 81.1678 517.943 84.758C511.198 88.3482 503.356 90.1433 494.417 90.1433H462.359V4.22392H494.417ZM493.077 72.0292C500.959 72.0292 507.095 69.8669 511.483 65.5424C515.871 61.2179 518.065 55.0983 518.065 47.1836C518.065 39.2689 515.871 33.1085 511.483 28.7024C507.095 24.2962 500.959 22.0932 493.077 22.0932H483.203V72.0292H493.077ZM601.145 91C593.1 91 585.705 89.1233 578.96 85.37C572.296 81.6166 566.974 76.3945 562.992 69.7038C559.091 62.9314 557.141 55.3431 557.141 46.9388C557.141 38.5345 559.091 30.987 562.992 24.2962C566.974 17.6055 572.296 12.3834 578.96 8.63004C585.705 4.87668 593.1 3 601.145 3C609.19 3 616.545 4.87668 623.208 8.63004C629.953 12.3834 635.235 17.6055 639.055 24.2962C642.955 30.987 644.906 38.5345 644.906 46.9388C644.906 55.3431 642.955 62.9314 639.055 69.7038C635.154 76.3945 629.872 81.6166 623.208 85.37C616.545 89.1233 609.19 91 601.145 91ZM601.145 71.9068C607.971 71.9068 613.416 69.6222 617.479 65.0528C621.624 60.4835 623.696 54.4455 623.696 46.9388C623.696 39.3505 621.624 33.3125 617.479 28.8248C613.416 24.2554 607.971 21.9708 601.145 21.9708C594.238 21.9708 588.712 24.2146 584.567 28.7024C580.504 33.1901 578.472 39.2689 578.472 46.9388C578.472 54.5271 580.504 60.6059 584.567 65.1752C588.712 69.663 594.238 71.9068 601.145 71.9068ZM819.589 4.22392L797.282 90.1433H772.049L758.397 33.5981L744.257 90.1433H719.024L697.327 4.22392H719.634L731.945 66.7663L747.182 4.22392H770.099L784.726 66.7663L797.16 4.22392H819.589ZM860.638 20.9917V38.3713H888.552V54.5271H860.638V73.3755H892.209V90.1433H839.794V4.22392H892.209V20.9917H860.638ZM982.038 91C975.78 91 970.173 89.9801 965.216 87.9402C960.259 85.9003 956.277 82.8813 953.27 78.8832C950.345 74.885 948.801 70.0709 948.638 64.4409H970.823C971.148 67.6231 972.245 70.0709 974.115 71.7844C975.984 73.4163 978.422 74.2323 981.428 74.2323C984.516 74.2323 986.954 73.5387 988.742 72.1516C990.53 70.6829 991.424 68.6838 991.424 66.1544C991.424 64.0329 990.692 62.2786 989.23 60.8915C987.848 59.5044 986.101 58.3621 983.988 57.4645C981.957 56.567 979.031 55.5471 975.212 54.4047C969.686 52.6912 965.176 50.9777 961.681 49.2643C958.187 47.5508 955.18 45.0213 952.661 41.6759C950.142 38.3306 948.882 33.9652 948.882 28.58C948.882 20.5837 951.767 14.3417 957.537 9.85396C963.307 5.28465 970.823 3 980.088 3C989.514 3 997.112 5.28465 1002.88 9.85396C1008.65 14.3417 1011.74 20.6245 1012.15 28.7024H989.595C989.433 25.9281 988.417 23.7659 986.548 22.2156C984.679 20.5837 982.282 19.7677 979.356 19.7677C976.837 19.7677 974.805 20.4613 973.261 21.8484C971.717 23.1539 970.945 25.0714 970.945 27.6008C970.945 30.3751 972.245 32.5373 974.846 34.0876C977.446 35.6379 981.51 37.3106 987.036 39.1057C992.562 40.9824 997.031 42.7775 1000.44 44.491C1003.94 46.2044 1006.95 48.6931 1009.46 51.9569C1011.98 55.2207 1013.24 59.4228 1013.24 64.5633C1013.24 69.459 1011.98 73.9059 1009.46 77.904C1007.03 81.9022 1003.45 85.0844 998.738 87.4506C994.024 89.8169 988.458 91 982.038 91ZM1056.67 20.9917V38.3713H1084.58V54.5271H1056.67V73.3755H1088.24V90.1433H1035.82V4.22392H1088.24V20.9917H1056.67ZM1155.16 90.1433L1137.36 57.7093H1132.37V90.1433H1111.52V4.22392H1146.51C1153.25 4.22392 1158.98 5.40704 1163.69 7.77329C1168.49 10.1395 1172.06 13.4033 1174.42 17.5647C1176.78 21.6444 1177.96 26.2137 1177.96 31.2726C1177.96 36.9842 1176.33 42.0839 1173.08 46.5716C1169.91 51.0593 1165.2 54.2415 1158.94 56.1182L1178.69 90.1433H1155.16ZM1132.37 42.8999H1145.29C1149.11 42.8999 1151.95 41.9615 1153.82 40.0848C1155.77 38.2082 1156.75 35.5563 1156.75 32.1293C1156.75 28.8656 1155.77 26.2953 1153.82 24.4186C1151.95 22.542 1149.11 21.6036 1145.29 21.6036H1132.37V42.8999ZM1281.12 4.22392L1250.77 90.1433H1224.68L1194.33 4.22392H1216.52L1237.73 69.0918L1259.06 4.22392H1281.12ZM1320.43 20.9917V38.3713H1348.34V54.5271H1320.43V73.3755H1352V90.1433H1299.58V4.22392H1352V20.9917H1320.43Z"/>
</mask>
<path d="M126.262 4.22392L103.955 90.1433H78.7223L65.0699 33.5981L50.93 90.1433H25.6975L4 4.22392H26.307L38.6185 66.7663L53.8555 4.22392H76.772L91.3995 66.7663L103.833 4.22392H126.262ZM220.58 4.22392V90.1433H199.736V54.7719H167.311V90.1433H146.467V4.22392H167.311V37.8818H199.736V4.22392H220.58ZM298.648 74.9666H266.711L261.591 90.1433H239.772L270.733 4.22392H294.869L325.83 90.1433H303.767L298.648 74.9666ZM293.284 58.8108L282.679 27.356L272.196 58.8108H293.284ZM406.563 4.22392V20.9917H383.89V90.1433H363.046V20.9917H340.373V4.22392H406.563ZM494.417 4.22392C503.438 4.22392 511.32 6.01901 518.065 9.60917C524.81 13.1993 530.011 18.2582 533.668 24.7858C537.406 31.2318 539.275 38.6977 539.275 47.1836C539.275 55.5878 537.406 63.0538 533.668 69.5814C530.011 76.1089 524.77 81.1678 517.943 84.758C511.198 88.3482 503.356 90.1433 494.417 90.1433H462.359V4.22392H494.417ZM493.077 72.0292C500.959 72.0292 507.095 69.8669 511.483 65.5424C515.871 61.2179 518.065 55.0983 518.065 47.1836C518.065 39.2689 515.871 33.1085 511.483 28.7024C507.095 24.2962 500.959 22.0932 493.077 22.0932H483.203V72.0292H493.077ZM601.145 91C593.1 91 585.705 89.1233 578.96 85.37C572.296 81.6166 566.974 76.3945 562.992 69.7038C559.091 62.9314 557.141 55.3431 557.141 46.9388C557.141 38.5345 559.091 30.987 562.992 24.2962C566.974 17.6055 572.296 12.3834 578.96 8.63004C585.705 4.87668 593.1 3 601.145 3C609.19 3 616.545 4.87668 623.208 8.63004C629.953 12.3834 635.235 17.6055 639.055 24.2962C642.955 30.987 644.906 38.5345 644.906 46.9388C644.906 55.3431 642.955 62.9314 639.055 69.7038C635.154 76.3945 629.872 81.6166 623.208 85.37C616.545 89.1233 609.19 91 601.145 91ZM601.145 71.9068C607.971 71.9068 613.416 69.6222 617.479 65.0528C621.624 60.4835 623.696 54.4455 623.696 46.9388C623.696 39.3505 621.624 33.3125 617.479 28.8248C613.416 24.2554 607.971 21.9708 601.145 21.9708C594.238 21.9708 588.712 24.2146 584.567 28.7024C580.504 33.1901 578.472 39.2689 578.472 46.9388C578.472 54.5271 580.504 60.6059 584.567 65.1752C588.712 69.663 594.238 71.9068 601.145 71.9068ZM819.589 4.22392L797.282 90.1433H772.049L758.397 33.5981L744.257 90.1433H719.024L697.327 4.22392H719.634L731.945 66.7663L747.182 4.22392H770.099L784.726 66.7663L797.16 4.22392H819.589ZM860.638 20.9917V38.3713H888.552V54.5271H860.638V73.3755H892.209V90.1433H839.794V4.22392H892.209V20.9917H860.638ZM982.038 91C975.78 91 970.173 89.9801 965.216 87.9402C960.259 85.9003 956.277 82.8813 953.27 78.8832C950.345 74.885 948.801 70.0709 948.638 64.4409H970.823C971.148 67.6231 972.245 70.0709 974.115 71.7844C975.984 73.4163 978.422 74.2323 981.428 74.2323C984.516 74.2323 986.954 73.5387 988.742 72.1516C990.53 70.6829 991.424 68.6838 991.424 66.1544C991.424 64.0329 990.692 62.2786 989.23 60.8915C987.848 59.5044 986.101 58.3621 983.988 57.4645C981.957 56.567 979.031 55.5471 975.212 54.4047C969.686 52.6912 965.176 50.9777 961.681 49.2643C958.187 47.5508 955.18 45.0213 952.661 41.6759C950.142 38.3306 948.882 33.9652 948.882 28.58C948.882 20.5837 951.767 14.3417 957.537 9.85396C963.307 5.28465 970.823 3 980.088 3C989.514 3 997.112 5.28465 1002.88 9.85396C1008.65 14.3417 1011.74 20.6245 1012.15 28.7024H989.595C989.433 25.9281 988.417 23.7659 986.548 22.2156C984.679 20.5837 982.282 19.7677 979.356 19.7677C976.837 19.7677 974.805 20.4613 973.261 21.8484C971.717 23.1539 970.945 25.0714 970.945 27.6008C970.945 30.3751 972.245 32.5373 974.846 34.0876C977.446 35.6379 981.51 37.3106 987.036 39.1057C992.562 40.9824 997.031 42.7775 1000.44 44.491C1003.94 46.2044 1006.95 48.6931 1009.46 51.9569C1011.98 55.2207 1013.24 59.4228 1013.24 64.5633C1013.24 69.459 1011.98 73.9059 1009.46 77.904C1007.03 81.9022 1003.45 85.0844 998.738 87.4506C994.024 89.8169 988.458 91 982.038 91ZM1056.67 20.9917V38.3713H1084.58V54.5271H1056.67V73.3755H1088.24V90.1433H1035.82V4.22392H1088.24V20.9917H1056.67ZM1155.16 90.1433L1137.36 57.7093H1132.37V90.1433H1111.52V4.22392H1146.51C1153.25 4.22392 1158.98 5.40704 1163.69 7.77329C1168.49 10.1395 1172.06 13.4033 1174.42 17.5647C1176.78 21.6444 1177.96 26.2137 1177.96 31.2726C1177.96 36.9842 1176.33 42.0839 1173.08 46.5716C1169.91 51.0593 1165.2 54.2415 1158.94 56.1182L1178.69 90.1433H1155.16ZM1132.37 42.8999H1145.29C1149.11 42.8999 1151.95 41.9615 1153.82 40.0848C1155.77 38.2082 1156.75 35.5563 1156.75 32.1293C1156.75 28.8656 1155.77 26.2953 1153.82 24.4186C1151.95 22.542 1149.11 21.6036 1145.29 21.6036H1132.37V42.8999ZM1281.12 4.22392L1250.77 90.1433H1224.68L1194.33 4.22392H1216.52L1237.73 69.0918L1259.06 4.22392H1281.12ZM1320.43 20.9917V38.3713H1348.34V54.5271H1320.43V73.3755H1352V90.1433H1299.58V4.22392H1352V20.9917H1320.43Z" stroke="#474747" stroke-width="6" mask="url(#path-1-outside-1_3410_11228)"/>
</g>
</svg>
