<svg width="762" height="359" viewBox="0 0 762 359" fill="none" xmlns="http://www.w3.org/2000/svg">
<g style="mix-blend-mode:multiply">
<path d="M682.689 335.346C682.689 328.358 653.021 322.703 616.425 322.703C579.83 322.703 550.162 328.358 550.162 335.346C550.162 342.334 579.83 347.989 616.425 347.989C653.021 347.989 682.689 342.334 682.689 335.346Z" fill="#E5E5E5"/>
</g>
<path d="M573.326 211.848H133.637V224.006H573.326V211.848Z" fill="#C6C6C5"/>
<path d="M218.865 223.984H210.039V329.852H218.865V223.984Z" fill="#868686"/>
<path d="M536.105 223.984H527.279V329.852H536.105V223.984Z" fill="#868686"/>
<path d="M316.396 188.541H286.283V209.484H316.396V188.541Z" fill="#B1B1B1"/>
<path d="M316.396 188.541H286.283V193.772H316.396V188.541Z" fill="#868686"/>
<path d="M322.131 210.797C322.07 210.07 321.464 209.484 320.717 209.484H281.961C281.214 209.484 280.608 210.07 280.547 210.797H322.131Z" fill="#9C9B9B"/>
<path d="M367.408 81.4824H236.82C233.451 81.4824 230.721 84.2131 230.721 87.5816V182.422C230.721 185.791 233.451 188.522 236.82 188.522H367.408C370.776 188.522 373.507 185.791 373.507 182.422V87.5816C373.507 84.2131 370.776 81.4824 367.408 81.4824Z" fill="#3C3C3B"/>
<path d="M230.721 173.354V182.422C230.721 185.794 233.448 188.541 236.821 188.541H367.388C370.761 188.541 373.487 185.815 373.487 182.422V173.354H230.701H230.721Z" fill="#B1B1B1"/>
<path d="M366.157 87.3398H238.114C236.597 87.3398 235.367 88.5696 235.367 90.0865V167.074C235.367 168.591 236.597 169.821 238.114 169.821H366.157C367.674 169.821 368.904 168.591 368.904 167.074V90.0865C368.904 88.5696 367.674 87.3398 366.157 87.3398Z" fill="url(#paint0_linear_746_13433)"/>
<path d="M305.407 180.948C305.407 179.15 303.933 177.676 302.135 177.676C300.338 177.676 298.863 179.15 298.863 180.948C298.863 182.745 300.338 184.219 302.135 184.219C303.933 184.219 305.407 182.745 305.407 180.948Z" fill="#D9D9D9"/>
<path d="M509.568 207.162H428.137C426.34 207.162 424.785 205.87 424.482 204.092L414.283 147.079C414.02 145.645 415.131 144.332 416.585 144.332H498.339L509.568 207.182V207.162Z" fill="#DBDDDF"/>
<path d="M502.197 207.163H568.016V208.455C568.016 210.313 566.501 211.828 564.643 211.828H502.197V207.143V207.163Z" fill="#B5B8BA"/>
<path d="M498.785 146.797L498.34 144.312H416.587C415.234 144.312 414.183 145.464 414.264 146.797H498.765H498.785Z" fill="#CDCFD1"/>
<path d="M508.843 203.124L509.57 207.163C507.893 207.163 506.56 205.729 506.278 204.093L495.998 146.595C495.776 145.403 496.705 144.312 497.916 144.312H498.341L508.843 203.124Z" fill="#B5B8BA"/>
<path d="M515.605 211.85H435.427C433.649 211.85 432.195 210.416 432.195 208.618V207.164H512.374V208.618C512.374 210.395 513.808 211.85 515.605 211.85Z" fill="#CDCFD1"/>
<g style="mix-blend-mode:multiply">
<path d="M301.895 358.714C353.549 358.714 395.423 351.11 395.423 341.729C395.423 332.349 353.549 324.744 301.895 324.744C250.241 324.744 208.367 332.349 208.367 341.729C208.367 351.11 250.241 358.714 301.895 358.714Z" fill="#E5E5E5"/>
</g>
<path d="M277.979 320.242C277.979 320.242 262.367 324.342 260.853 329.977C259.338 335.611 289.147 338.823 294.095 332.521C294.095 332.521 292.924 324.928 291.51 322.444C291.51 322.444 289.612 324.019 277.979 320.242Z" fill="#242025"/>
<path d="M325.801 320.242C325.801 320.242 341.291 324.766 342.665 330.441C344.038 336.116 314.128 338.479 309.361 332.057C309.361 332.057 310.755 324.504 312.229 322.06C312.229 322.06 314.067 323.696 325.821 320.242H325.801Z" fill="#242025"/>
<path d="M350.885 254.644C348.946 250.181 334.203 247.051 334.203 247.051C334.203 247.051 327.316 253.251 303.182 253.251C279.048 253.251 269.778 247.051 269.778 247.051C269.778 247.051 255.034 250.181 253.096 254.644C251.157 259.108 251.46 270.741 253.681 276.981C255.741 282.737 268.95 314.506 271.413 322.705C271.413 322.705 282.319 326.906 291.832 323.089C291.529 322.2 284.359 298.733 283.329 293.522C282.279 288.311 277.816 277.587 280.502 275.345C283.188 273.104 301.647 272.659 301.647 272.659H302.313C302.313 272.659 320.793 273.104 323.459 275.345C326.145 277.587 321.661 288.311 320.631 293.522C319.743 297.945 313.926 316.081 312.008 322.039C313.139 326.442 330.77 326.199 332.305 323.432C335.334 314.041 348.28 282.555 350.279 276.981C352.521 270.721 352.804 259.108 350.865 254.644H350.885Z" fill="#5D4029"/>
<path d="M350.885 254.644C348.946 250.181 334.203 247.051 334.203 247.051C334.203 247.051 327.316 253.251 303.182 253.251C279.048 253.251 269.778 247.051 269.778 247.051C269.778 247.051 255.034 250.181 253.096 254.644C251.157 259.108 251.46 270.741 253.681 276.981C254.812 280.152 259.518 291.785 263.921 302.933C270.202 299.864 277.816 298.551 284.359 297.561C283.874 295.804 283.491 294.39 283.329 293.522C282.279 288.311 277.816 277.587 280.502 275.345C283.188 273.104 301.647 272.659 301.647 272.659H302.313C302.313 272.659 320.793 273.104 323.459 275.345C326.145 277.587 321.661 288.311 320.631 293.522C320.409 294.633 319.864 296.632 319.157 299.076C319.5 299.177 319.844 299.237 320.187 299.338C322.853 300.086 331.578 302.752 338.808 306.023C343.513 294.027 349.027 280.455 350.259 277.002C352.501 270.741 352.783 259.128 350.845 254.665L350.885 254.644Z" fill="#4B2A11"/>
<path d="M311.343 153.541C311 151.865 311.04 145.766 311.04 145.766C316.412 141.827 318.271 132.497 318.271 132.497C318.271 132.497 320.795 129.225 320.957 127.125C321.118 125.024 319.624 124.297 319.624 124.297C320.028 111.998 315.827 104.667 310.758 102.364C308.576 101.375 304.416 100.91 302.013 100.91C299.609 100.91 295.449 101.375 293.268 102.364C288.199 104.667 283.998 111.998 284.402 124.297C284.402 124.297 282.907 125.044 283.069 127.125C283.21 129.205 285.755 132.497 285.755 132.497C285.755 132.497 287.613 141.807 292.985 145.766C292.985 145.766 293.025 151.865 292.682 153.541C299.831 155.177 304.921 155.096 311.363 153.541H311.343Z" fill="#F6B7B2"/>
<path d="M284.56 127.55C284.56 127.731 284.621 127.954 284.661 128.236C285.126 130.64 286.136 132.922 287.489 134.962C288.196 136.012 289.044 137.385 289.912 138.981C291.467 141.848 294.497 143.626 297.769 143.626H305.948C309.442 143.626 312.694 141.626 314.087 138.415V138.355C314.673 137.042 315.481 135.81 316.228 134.82C317.662 132.942 318.692 130.761 319.136 128.438C319.176 128.176 319.217 127.954 319.237 127.812C319.358 126.843 319.58 124.318 319.58 124.318C319.984 112.019 319.661 104.082 315.218 100.648C310.23 96.8112 295.527 93.4384 292.114 101.274C285.954 99.5174 283.954 112.019 284.358 124.318C284.358 124.318 284.419 126.398 284.54 127.55H284.56Z" fill="#4B2A11"/>
<path d="M360.743 201.305C359.632 197.165 340.385 167.557 335.478 161.074C330.57 154.591 316.938 152.471 302.457 152.471C287.976 152.471 273.435 154.591 268.528 161.074C263.62 167.557 246.211 197.165 245.1 201.305C243.989 205.445 245.423 209.929 249.2 210.353C254.107 210.918 258.47 211.282 262.267 208.899C262.792 208.575 264.024 207.384 265.538 205.849C266.447 204.92 267.437 203.87 268.427 202.82C271.072 199.992 273.657 197.043 274.263 196.094C274.263 196.094 274.041 198.962 273.698 202.961C273.637 203.627 273.576 204.314 273.516 205.041C273.455 205.768 273.395 206.495 273.314 207.263C272.87 212.17 272.345 217.724 271.88 221.663C271.779 222.571 271.678 223.399 271.577 224.106C271.315 226.005 270.769 228.065 270.163 230.185C269.558 232.306 268.911 234.447 268.447 236.527C267.518 240.687 267.336 244.524 269.78 247.049C269.78 247.049 279.05 253.249 303.184 253.249C327.318 253.249 334.205 247.049 334.205 247.049C336.972 244.201 336.386 239.698 335.175 234.952C334.771 233.376 334.286 231.761 333.842 230.185C333.236 228.065 332.69 226.005 332.428 224.106C332.327 223.399 332.226 222.571 332.125 221.663C332.024 220.754 331.903 219.764 331.802 218.694C331.721 217.987 331.66 217.26 331.58 216.512C331.499 215.765 331.438 214.998 331.358 214.23C331.216 212.675 331.055 211.1 330.913 209.545C330.853 208.757 330.772 207.99 330.711 207.242C330.57 205.728 330.449 204.274 330.328 202.941C329.984 198.962 329.762 196.074 329.762 196.074C330.61 197.387 335.175 202.456 338.487 205.829C340.001 207.364 341.233 208.555 341.759 208.878C345.555 211.262 350.726 210.333 355.633 209.767C357.047 209.605 358.279 208.959 359.208 207.99C360.137 207.02 360.763 205.728 360.965 204.294C361.106 203.345 361.046 202.315 360.763 201.285L360.743 201.305Z" fill="#FED031"/>
<path d="M273.474 160.025H330.77C336.627 160.025 341.373 164.771 341.373 170.628V243.011C341.373 248.868 336.627 253.614 330.77 253.614H273.474C267.617 253.614 262.871 248.868 262.871 243.011V170.628C262.871 164.771 267.617 160.025 273.474 160.025Z" fill="#363538"/>
<path d="M306.597 253.613H297.65V273.022H306.597V253.613Z" fill="#242025"/>
<path d="M312.662 289.562H291.617V306.749H312.662V289.562Z" fill="#363538"/>
<path d="M305.998 306.77H299.172V342.719H305.998V306.77Z" fill="#242025"/>
<path d="M252.923 338.64V342.719H259.749V339.125C259.749 335.247 262.879 332.116 266.757 332.116H337.504C341.381 332.116 344.512 335.247 344.512 339.125V342.719H351.338V338.64C351.338 331.935 345.905 326.502 339.2 326.502H265.04C258.335 326.502 252.902 331.935 252.902 338.64H252.923Z" fill="#5C5C5F"/>
<path d="M256.334 353.422C260.427 353.422 263.746 350.103 263.746 346.01C263.746 341.916 260.427 338.598 256.334 338.598C252.24 338.598 248.922 341.916 248.922 346.01C248.922 350.103 252.24 353.422 256.334 353.422Z" fill="#242025"/>
<path d="M302.586 353.422C306.679 353.422 309.998 350.103 309.998 346.01C309.998 341.916 306.679 338.598 302.586 338.598C298.492 338.598 295.174 341.916 295.174 346.01C295.174 350.103 298.492 353.422 302.586 353.422Z" fill="#242025"/>
<path d="M347.922 353.422C352.015 353.422 355.334 350.103 355.334 346.01C355.334 341.916 352.015 338.598 347.922 338.598C343.828 338.598 340.51 341.916 340.51 346.01C340.51 350.103 343.828 353.422 347.922 353.422Z" fill="#242025"/>
<path d="M350.79 272.375H253.445C247.588 272.375 242.842 277.121 242.842 282.978C242.842 288.835 247.588 293.581 253.445 293.581H350.79C356.647 293.581 361.393 288.835 361.393 282.978C361.393 277.121 356.647 272.375 350.79 272.375Z" fill="#5C5C5F"/>
<path d="M208.444 211.848C208.061 211.222 207.293 210.596 207.293 210.596C205.839 210.596 149.896 211.282 148.987 211.282C148.826 211.282 148.401 211.444 147.836 211.686L208.465 211.868L208.444 211.848Z" fill="#EEF0F1"/>
<path d="M190.996 198.075C189.905 197.732 182.292 195.692 180.575 196.339C179.545 196.722 170.457 199.711 167.548 200.156C165.084 200.539 160.904 199.792 159.611 199.55V211.829C160.682 211.748 163.024 211.667 163.691 212.071C164.559 212.617 165.973 212.334 171.648 212.415C181.06 212.556 190.855 212.071 191.723 211.203C192.592 210.334 192.713 208.537 192.713 208.537C192.834 208.416 193.016 208.254 193.016 208.254C193.016 208.254 196.893 211.304 198.287 209.91C199.64 208.557 192.066 198.419 190.976 198.075H190.996Z" fill="#F5B0A4"/>
<path d="M169.689 191.47C169.811 191.309 170.214 191.107 170.578 191.289C170.861 191.43 171.83 192.096 172.234 192.359C172.072 192.44 171.931 192.561 171.83 192.682C171.749 192.783 171.527 193.086 171.426 193.429C171.042 193.167 170.275 192.662 169.911 192.379C169.588 192.137 169.467 191.773 169.689 191.45V191.47Z" fill="#878787"/>
<path d="M172.054 192.359C172.377 192.198 172.741 192.117 173.003 192.238C173.589 192.521 185.727 200.922 185.727 200.922C185.727 200.922 186.575 200.922 187.06 201.124C187.544 201.346 195.603 206.981 195.784 207.567L195.966 208.153C195.966 208.153 199.258 210.596 199.662 211.808C199.662 211.808 200.187 212.273 200.086 212.454C200.005 212.596 199.561 212.394 199.258 212.232C199.137 212.131 197.683 212.232 194.795 210.031C194.795 210.031 194.512 210.031 194.229 209.869C193.947 209.708 185.646 204.962 185 204.517C184.333 204.073 183.95 203.164 183.95 203.164C183.95 203.164 171.933 194.641 171.428 194.157C171.226 193.955 171.206 193.672 171.266 193.409C171.347 193.066 171.59 192.763 171.67 192.662C171.771 192.541 171.913 192.44 172.074 192.339L172.054 192.359Z" fill="#706F6F"/>
<path d="M184.833 201.568C185.176 201.164 185.701 200.922 185.701 200.922C185.701 200.922 186.549 200.922 187.034 201.124C187.519 201.346 195.516 206.839 195.819 207.425C196.102 207.97 195.94 208.132 195.94 208.132C195.94 208.132 194.991 208.677 194.769 210.01C194.769 210.01 194.062 210.172 193.78 210.01C193.497 209.849 185.64 204.941 184.974 204.497C184.308 204.052 183.924 203.143 183.924 203.143C183.924 203.143 184.005 202.538 184.853 201.548L184.833 201.568Z" fill="#575756"/>
<path d="M178.858 200.276C179.828 200.539 189.077 201.973 189.704 202.357C190.431 202.781 193.682 206.295 193.763 206.739C194.147 208.678 191.966 209.223 190.754 208.658C189.522 208.092 186.674 206.719 186.129 206.638C185.584 206.557 181.787 206.961 178.172 208.577C176.677 209.243 171.446 211.364 166.518 209.506C164.943 208.92 164.156 207.406 164.499 205.548C164.963 203.063 167.286 201.953 165.61 202.215C164.337 202.417 160.157 201.67 161.146 199.872C162.984 200.155 165.711 200.478 167.508 200.196C169.104 199.953 172.537 198.964 175.506 198.035C176.273 197.792 178.475 200.216 178.838 200.317L178.858 200.276Z" fill="#F5BEB6"/>
<g style="mix-blend-mode:multiply">
<path d="M101.263 348.07C157.189 348.07 202.526 340.475 202.526 331.105C202.526 321.736 157.189 314.141 101.263 314.141C45.3371 314.141 0 321.736 0 331.105C0 340.475 45.3371 348.07 101.263 348.07Z" fill="#E5E5E5"/>
</g>
<path d="M193.418 329.752C196.71 327.753 174.131 315.857 174.131 315.857H156.883C155.328 320.402 154.157 327.167 156.257 328.904C158.358 330.641 189.015 332.438 193.418 329.773V329.752Z" fill="#161316"/>
<path d="M88.6222 140.312H31.3259V233.901H88.6222V140.312Z" fill="#363538"/>
<path d="M31.3256 233.901C25.4687 233.901 20.7227 229.155 20.7227 223.298V150.915C20.7227 145.059 25.4687 140.312 31.3256 140.312C37.1825 140.312 41.9285 145.059 41.9285 150.915V223.298C41.9285 229.155 37.1825 233.901 31.3256 233.901Z" fill="#5C5C5F"/>
<path d="M88.601 233.901C82.7441 233.901 77.998 229.155 77.998 223.298V150.915C77.998 145.059 82.7441 140.312 88.601 140.312C94.4579 140.312 99.2039 145.059 99.2039 150.915V223.298C99.2039 229.155 94.4579 233.901 88.601 233.901Z" fill="#363538"/>
<path d="M67.3552 233.9H58.4083V253.309H67.3552V233.9Z" fill="#242025"/>
<path d="M181.381 224.026H86.0352V232.569C86.0352 245.818 97.3854 256.219 110.594 255.067L166.638 250.16L153.854 317.009C153.854 317.009 172.979 320.685 178.23 317.009C180.371 304.911 193.256 238.365 193.256 238.365C194.69 230.913 188.975 224.006 181.381 224.006V224.026Z" fill="#131225"/>
<path d="M177.161 331.973C180.978 329.65 154.763 315.836 154.763 315.836H134.749C132.952 321.107 131.578 328.963 134.022 330.983C136.466 333.003 172.051 335.103 177.161 331.973Z" fill="#242025"/>
<path d="M160.905 224.026H65.5588V232.569C65.5588 245.818 76.909 256.219 90.1173 255.067L146.161 250.16L133.377 317.009H157.754L172.78 238.365C174.214 230.913 168.498 224.006 160.905 224.006V224.026Z" fill="#282249"/>
<path d="M160.902 224.025H117.783C122.711 232.467 122.933 243.757 118.995 252.562L146.159 250.179L133.375 317.028C133.375 317.028 150.481 320.805 157.751 317.028C159.448 302.831 172.777 238.385 172.777 238.385C174.211 230.932 168.496 224.025 160.902 224.025Z" fill="#231E45"/>
<path d="M73.4154 270.516H52.3711V287.703H73.4154V270.516Z" fill="#363538"/>
<path d="M66.7462 287.703H59.9199V322.057H66.7462V287.703Z" fill="#242025"/>
<path d="M13.6738 317.997V322.077H20.5001V318.482C20.5001 314.604 23.6305 311.474 27.5081 311.474H98.2551C102.133 311.474 105.263 314.604 105.263 318.482V322.077H112.089V317.997C112.089 311.292 106.657 305.859 99.9515 305.859H25.8117C19.1066 305.859 13.6738 311.292 13.6738 317.997Z" fill="#5C5C5F"/>
<path d="M24.5173 325.369C24.5173 321.269 21.2051 317.957 17.1053 317.957C13.0055 317.957 9.69336 321.269 9.69336 325.369C9.69336 329.469 13.0055 332.781 17.1053 332.781C21.2051 332.781 24.5173 329.469 24.5173 325.369Z" fill="#242025"/>
<path d="M63.3358 332.781C67.4293 332.781 70.7478 329.463 70.7478 325.369C70.7478 321.275 67.4293 317.957 63.3358 317.957C59.2423 317.957 55.9238 321.275 55.9238 325.369C55.9238 329.463 59.2423 332.781 63.3358 332.781Z" fill="#242025"/>
<path d="M108.676 332.781C112.769 332.781 116.087 329.463 116.087 325.369C116.087 321.275 112.769 317.957 108.676 317.957C104.582 317.957 101.264 321.275 101.264 325.369C101.264 329.463 104.582 332.781 108.676 332.781Z" fill="#242025"/>
<path d="M117.985 274.514C123.841 274.514 128.588 269.767 128.588 263.912C128.588 258.056 123.841 253.309 117.985 253.309H66.1012C60.2453 253.309 55.4982 258.056 55.4982 263.912C55.4982 269.767 60.2453 274.514 66.1012 274.514H117.985Z" fill="#363538"/>
<path d="M71.0728 274.514C76.9287 274.514 81.6758 269.767 81.6758 263.912C81.6758 258.056 76.9287 253.309 71.0728 253.309H27.2069C21.3511 253.309 16.604 258.056 16.604 263.912C16.604 269.767 21.3511 274.514 27.2069 274.514H71.0728Z" fill="#5C5C5F"/>
<path d="M128.084 192.721C126.711 184.865 121.783 146.109 121.783 146.109L113.018 138.232L106.232 192.944C103.768 202.355 110.877 211.544 120.591 211.544C120.591 211.544 159.731 213.645 161.044 212.514C162.377 211.383 164.215 204.112 164.558 199.73C161.327 198.417 146.038 195.892 128.084 192.742V192.721Z" fill="#00988F"/>
<path d="M91.1031 132.598C77.9958 133.688 68.2209 139.808 68.2209 139.808C60.9503 144.19 57.3756 213.705 57.3756 213.705C56.9111 219.259 61.2936 224.005 66.8678 224.005H116.833C119.499 224.005 121.72 222.006 122.003 219.36C123.397 206.354 124.629 157.338 121.761 146.089C120.791 142.292 109.219 131.083 91.1031 132.578V132.598Z" fill="#50B9B2"/>
<path d="M105.765 108.564H87.3262V131.689C87.3262 135.708 89.3862 139.424 92.7791 141.565L94.6977 142.777C97.2021 144.352 100.433 144.17 102.756 142.312C104.654 140.777 105.765 138.475 105.765 136.031V108.564Z" fill="#F5B0A4"/>
<path d="M104.332 91.2969H98.3337C91.1843 91.2969 85.4082 97.0932 85.4082 104.222V115.997H114.41V101.375C114.41 95.8006 109.906 91.2969 104.332 91.2969Z" fill="#4F1F30"/>
<path d="M103.022 138.253C100.578 138.253 98.2351 137.365 96.3771 135.769L92.8428 132.699C88.9045 129.266 86.6426 124.298 86.6426 119.067V106.485C86.6426 100.406 91.5704 95.498 97.6292 95.498H103.426C109.505 95.498 114.412 102.607 114.412 108.666V122.581C114.412 128.66 107.041 138.233 103.022 138.233V138.253Z" fill="#F5BEB6"/>
<path d="M91.2638 108.888C92.8391 108.1 93.8287 106.485 93.8287 104.728V103.435C93.8287 102.223 94.8183 101.113 96.0301 101.234C96.4542 101.274 97.6861 101.537 97.6861 101.537C101.422 102.203 105.239 102.203 108.956 101.537C109.4 101.456 109.986 101.294 110.329 101.254C111.541 101.133 112.53 102.243 112.53 103.455V105.616C112.53 106.909 112.954 108.161 113.762 109.171L114.409 109.979V108.686C114.409 100.426 107.643 93.6602 99.3826 93.6602H97.5044C90.8397 93.6602 85.3867 99.1131 85.3867 105.778V114.361L86.5985 114.28V117.027C86.5985 117.431 86.5985 117.815 86.6389 118.219H87.7295C88.4969 118.219 89.1028 117.593 89.1028 116.845V112.402C89.1028 110.928 89.9308 109.575 91.2436 108.928L91.2638 108.888Z" fill="#4F1F30"/>
<path d="M84.9831 110.989C85.8919 110.989 86.6392 111.736 86.6392 112.645V119.411C85.1851 119.411 84.0137 118.239 84.0137 116.785V111.938C84.0137 111.413 84.4378 110.969 84.9831 110.969V110.989Z" fill="#F5BEB6"/>
<path d="M150.28 207.302C146.907 205.828 142.221 203.91 137.738 203.324C133.355 202.758 130.225 202.779 128.67 203.788C128.468 203.91 127.64 204.313 126.731 204.313C125.115 204.313 123.096 203.728 121.036 203.283C119.157 206.171 117.461 209.181 115.361 211.948C115.098 212.311 114.815 212.654 114.553 213.018C118.43 212.695 122.874 212.675 124.792 213.907C127.579 215.684 141.696 215.765 150.502 215.3C151.936 215.219 153.107 215.3 153.854 214.21C155.127 214.129 156.52 214.27 157.429 213.765C158.964 212.917 154.198 209.039 150.259 207.323L150.28 207.302Z" fill="#F5BEB6"/>
<path d="M74.5051 192.317C75.414 178.241 81.7959 141.463 69.5773 139.848C57.3587 138.232 50.9767 199.608 52.0673 204.132C53.6628 210.776 59.3177 211.544 64.1849 211.544C64.1849 211.544 114.312 216.714 124.43 214.876C126.167 205.566 126.167 203.001 126.167 203.001C126.167 203.001 102.941 195.427 74.5253 192.317H74.5051Z" fill="#87CAC4"/>
<path d="M184.17 223.984H194.45V357.581C194.45 358.107 194.026 358.511 193.521 358.511H185.099C184.574 358.511 184.17 358.086 184.17 357.581V223.984Z" fill="#B1B1B1"/>
<path d="M539.26 223.984H549.54V357.581C549.54 358.107 549.115 358.511 548.611 358.511H540.189C539.664 358.511 539.26 358.086 539.26 357.581V223.984Z" fill="#B1B1B1"/>
<g style="mix-blend-mode:multiply">
<path d="M693.898 343.183C731.509 343.183 761.999 338.391 761.999 332.479C761.999 326.568 731.509 321.775 693.898 321.775C656.287 321.775 625.797 326.568 625.797 332.479C625.797 338.391 656.287 343.183 693.898 343.183Z" fill="#E5E5E5"/>
</g>
<path d="M668.635 233.902H725.932V140.314H668.635V233.902Z" fill="#363538"/>
<path d="M725.931 233.901C731.788 233.901 736.534 229.155 736.534 223.298V150.915C736.534 145.059 731.788 140.312 725.931 140.312C720.074 140.312 715.328 145.059 715.328 150.915V223.298C715.328 229.155 720.074 233.901 725.931 233.901Z" fill="#5C5C5F"/>
<path d="M668.636 233.901C674.493 233.901 679.239 229.155 679.239 223.298V150.915C679.239 145.059 674.493 140.312 668.636 140.312C662.779 140.312 658.033 145.059 658.033 150.915V223.298C658.033 229.155 662.779 233.901 668.636 233.901Z" fill="#363538"/>
<path d="M689.881 253.311H698.828V233.902H689.881V253.311Z" fill="#242025"/>
<path d="M683.821 287.705H704.865V270.518H683.821V287.705Z" fill="#363538"/>
<path d="M690.506 322.078H697.332V287.725H690.506V322.078Z" fill="#242025"/>
<path d="M743.56 317.999V322.079H736.734V318.484C736.734 314.606 733.603 311.476 729.726 311.476H658.979C655.101 311.476 651.971 314.606 651.971 318.484V322.079H645.145V317.999C645.145 311.294 650.577 305.861 657.282 305.861H731.442C738.148 305.861 743.58 311.294 743.58 317.999H743.56Z" fill="#5C5C5F"/>
<path d="M732.732 325.371C732.732 321.271 736.045 317.959 740.144 317.959C744.244 317.959 747.556 321.271 747.556 325.371C747.556 329.471 744.244 332.783 740.144 332.783C736.045 332.783 732.732 329.471 732.732 325.371Z" fill="#242025"/>
<path d="M693.896 332.783C697.99 332.783 701.308 329.464 701.308 325.371C701.308 321.277 697.99 317.959 693.896 317.959C689.803 317.959 686.484 321.277 686.484 325.371C686.484 329.464 689.803 332.783 693.896 332.783Z" fill="#242025"/>
<path d="M648.557 332.783C652.65 332.783 655.968 329.464 655.968 325.371C655.968 321.277 652.65 317.959 648.557 317.959C644.463 317.959 641.145 321.277 641.145 325.371C641.145 329.464 644.463 332.783 648.557 332.783Z" fill="#242025"/>
<path d="M691.129 274.516C696.985 274.516 701.732 269.769 701.732 263.913C701.732 258.058 696.985 253.311 691.129 253.311H639.246C633.39 253.311 628.643 258.058 628.643 263.913C628.643 269.769 633.39 274.516 639.246 274.516H691.129Z" fill="#363538"/>
<path d="M730.049 274.536C735.905 274.536 740.652 269.789 740.652 263.933C740.652 258.077 735.905 253.33 730.049 253.33H686.184C680.328 253.33 675.581 258.077 675.581 263.933C675.581 269.789 680.328 274.536 686.184 274.536H730.049Z" fill="#5C5C5F"/>
<path d="M546.485 133.124C543.314 131.851 533.418 137.991 530.893 139.384C528.369 140.798 518.028 144.959 518.816 146.938C519.927 149.725 528.187 145.605 532.509 144.494C532.186 148.452 535.66 146.998 535.397 147.847C534.286 151.421 537.942 151.179 538.487 151.078C539.335 150.937 538.346 152.128 539.436 153.138C540.406 154.027 542.102 153.481 543.253 152.997C547.474 151.219 551.918 145.847 552.382 142.899C552.746 140.616 549.918 134.497 546.485 133.124Z" fill="#F3BCAA"/>
<path d="M554.785 143.201C560.177 140.657 584.009 125.974 588.411 114.281C593.743 100.163 592.693 88.8133 592.43 86.208C590.997 72.0303 585.261 60.9629 585.261 60.9629C585.261 60.9629 578.293 89.9241 572.275 105.738C568.7 115.109 544.727 131.286 543.455 132.8C542.183 134.315 552.604 144.252 554.785 143.222V143.201Z" fill="#35AE7E"/>
<path d="M590.939 316.866C590.939 316.866 566.34 327.368 565.29 329.933C564.24 332.518 569.652 336.8 582.416 336.497C595.18 336.194 608.913 333.771 609.438 332.882C609.964 331.973 608.752 318.684 607.863 318.381C606.954 318.078 597.603 313.251 590.959 316.866H590.939Z" fill="#161316"/>
<path d="M624.486 321.088C624.486 321.088 599.665 333.125 594.435 338.901C589.224 344.677 612.026 344.475 617.519 343.647C626.405 342.334 641.128 340.395 642.764 339.487C644.4 338.578 642.623 325.289 640.643 323.471C638.644 321.653 626.647 320.3 624.486 321.048V321.088Z" fill="#242025"/>
<path d="M618.305 322.3C627.07 328.258 643.065 325.491 643.065 325.491C643.186 322.826 636.32 178.343 634.058 151.3C626.545 151.744 587.001 150.775 578.559 151.179C578.236 154.895 579.286 189.43 581.851 231.822C584.396 274.012 586.678 312.687 586.9 317.09C593.565 322.704 609.641 321.998 609.641 321.998C609.641 321.998 610.287 305.053 608.974 284.796C608.449 276.738 606.268 206.799 606.813 207.344C607.863 208.395 618.063 320.543 618.285 322.3H618.305Z" fill="#0076B3"/>
<path d="M637.751 156.51C641.367 153.197 646.113 68.0103 640.256 56.135C635.005 45.4715 619.737 40.1397 608.952 43.3711C598.652 46.4611 593.26 49.9348 589.341 53.8731C583.161 60.0934 581.202 77.4419 582.091 93.6391C583.485 118.521 570.66 150.006 576.355 153.682C582.051 157.358 634.116 159.822 637.731 156.51H637.751Z" fill="#49B287"/>
<path d="M634.074 165.84C635.346 167.052 636.154 169.677 635.911 173.252C635.669 176.827 635.366 185.188 635.104 187.793C634.841 190.378 632.034 189.813 631.993 187.874C631.973 185.915 631.892 180.825 631.448 180.926C630.822 181.048 630.782 186.036 630.721 188.52C630.64 191.004 630.802 193.367 629.065 193.509C627.207 193.65 626.742 192.236 626.722 190.015C626.722 187.652 627.55 181.654 627.086 181.573C626.783 181.512 626.641 182.32 625.551 186.137C624.299 190.52 624.198 193.529 622.501 194.215C620.744 194.922 619.633 193.529 620.34 190.722C620.865 188.641 623.329 180.846 622.946 180.704C622.582 180.583 621.148 184.582 619.896 187.369C618.644 190.156 617.27 190.277 616.139 189.611C615.008 188.964 616.483 186.016 617.331 183.835C618.199 181.654 619.997 177.251 619.654 176.705C619.31 176.16 617.997 180.765 616.866 181.694C615.736 182.623 614.241 182.885 613.918 182.057C613.817 181.795 615.069 179.553 615.534 177.19C615.937 175.11 616.947 171.677 618.321 168.324C618.846 167.032 620.825 163.659 622.925 162.912C624.198 162.467 631.65 163.497 634.114 165.84H634.074Z" fill="#F3BCAA"/>
<path d="M619.692 161.175C620.378 154.732 628.74 117.43 629.002 105.434C629.325 91.1955 619.005 51.9747 634.132 51.1871C645.684 50.2379 649.804 100.607 649.804 109.069C649.804 117.531 638.111 161.74 636.959 165.558C635.788 169.375 619.126 166.345 619.692 161.175Z" fill="#6ABD9D"/>
<path d="M616.261 47.7736C619.331 45.4713 619.068 43.1891 619.068 43.1891C619.068 43.1891 617.634 31.536 617.513 30.4858C615.817 24.952 621.835 19.6001 619.735 11.7842C617.634 3.9683 611.737 0.858106 607.233 0.131047C602.487 -0.656601 593.419 2.27183 591.238 4.4934C589.42 6.39183 588.511 8.24987 588.511 8.24987C588.511 8.24987 586.29 9.86556 585.846 13.9856C585.543 16.8736 587.482 46.5215 590.309 45.956C592.652 45.4713 594.55 44.8452 596.57 43.5526C597.155 46.4407 596.247 52.2975 599.619 53.0246C604.406 54.196 611.798 51.1262 616.261 47.7938V47.7736Z" fill="#F3BCAA"/>
<path d="M609.841 19.1969C605.64 17.9245 605.297 25.0941 604.994 25.5384C604.711 25.9827 602.51 26.5078 602.55 25.7C602.732 22.7514 602.388 18.8131 601.54 17.0359C601.298 16.531 599.379 16.127 599.016 14.2488C598.713 12.6129 599.803 9.62391 598.894 8.14959C597.279 5.56449 594.33 7.72547 591.099 8.53332C589.705 8.87665 588.514 8.25057 588.514 8.25057C588.514 8.25057 589.423 6.37233 591.24 4.4941C593.442 2.25233 602.489 -0.655903 607.235 0.131744C611.739 0.878999 617.636 3.969 619.737 11.7849C621.837 19.6008 617.273 23.6198 617.515 30.4865C613.012 27.3965 614.728 20.6712 609.841 19.1969Z" fill="#4A2A17"/>
<path d="M608.929 22.1455C611.352 22.2061 613.15 25.2961 611.292 28.7093C609.433 32.1426 605.677 33.5765 605.051 31.9406C604.445 30.3249 605.394 22.0647 608.929 22.1253V22.1455Z" fill="#F3BCAA"/>
<defs>
<linearGradient id="paint0_linear_746_13433" x1="302.115" y1="168.568" x2="302.115" y2="68.4363" gradientUnits="userSpaceOnUse">
<stop stop-color="#C4E6F7"/>
<stop offset="1" stop-color="#43B3DF"/>
</linearGradient>
</defs>
</svg>
