<svg width="104" height="305" viewBox="0 0 104 305" fill="none" xmlns="http://www.w3.org/2000/svg">
<g opacity="0.6">
<path d="M48.6223 304.999C-28.8818 304.92 0.789712 289.848 48.4058 288.904C103.263 287.802 138.266 305.097 48.6223 304.999Z" fill="#B1ACA9"/>
</g>
<path d="M51.6933 243.314C51.6933 243.314 22.7891 243.314 22.494 248.371V248.824C22.494 248.824 22.8678 259.075 23.4581 262.302C23.8713 264.565 26.5669 265.116 26.5669 265.116C26.5669 265.116 33.0797 294.394 33.8864 296.027C35.2637 298.84 40.6747 300.651 51.7129 300.651C62.7512 300.651 68.1621 298.84 69.5395 296.027C70.3265 294.394 76.859 265.116 76.859 265.116C76.859 265.116 79.5546 264.565 79.9678 262.302C80.5581 259.075 80.9319 248.824 80.9319 248.824V248.371C80.6171 243.334 51.7326 243.314 51.7326 243.314H51.6933Z" fill="#EA641B"/>
<g style="mix-blend-mode:multiply" opacity="0.4">
<path d="M51.6933 243.314C51.6933 243.314 22.7891 243.314 22.494 248.371V248.824C22.494 248.824 22.8678 259.075 23.4581 262.302C23.8713 264.565 26.5669 265.116 26.5669 265.116C26.5669 265.116 27.2359 268.146 28.1803 272.317C37.9594 275.308 63.1841 278.495 75.2258 272.317C76.1703 268.146 76.8393 265.116 76.8393 265.116C76.8393 265.116 79.5349 264.565 79.9481 262.302C80.5384 259.075 80.9122 248.824 80.9122 248.824V248.371C80.5974 243.334 51.7129 243.314 51.7129 243.314H51.6933Z" fill="#EA641B"/>
</g>
<path d="M51.6933 243.314C51.6933 243.314 22.7891 243.314 22.494 248.371V248.824C22.494 248.824 22.8678 259.075 23.4581 262.302C23.8713 264.565 26.5669 265.116 26.5669 265.116C26.5669 265.116 33.8077 267.103 51.7129 267.103C69.6182 267.103 76.859 265.116 76.859 265.116C76.859 265.116 79.5546 264.565 79.9678 262.302C80.5581 259.075 80.9319 248.824 80.9319 248.824V248.371C80.6171 243.334 51.7326 243.314 51.7326 243.314H51.6933Z" fill="#EB6D1B"/>
<path d="M80.7718 247.84C78.6074 243.275 51.7102 243.295 51.7102 243.295C51.7102 243.295 24.813 243.295 22.6487 247.84C22.5699 247.998 22.7864 251.441 51.7102 251.244C80.6341 251.441 80.8505 248.017 80.7718 247.84Z" fill="#EF7D1A"/>
<path d="M79.0226 247.524C78.3733 244.081 51.6925 243.707 51.6925 243.707C51.6925 243.707 25.0117 244.081 24.3624 247.524C24.3231 247.682 25.0117 250.397 51.6925 250.2C78.3733 250.397 79.0619 247.701 79.0226 247.524Z" fill="#EA641B"/>
<g style="mix-blend-mode:multiply" opacity="0.4">
<path d="M79.0226 247.524C78.3733 244.081 51.6925 243.707 51.6925 243.707C51.6925 243.707 25.0117 244.081 24.3624 247.524C24.3231 247.682 25.0117 250.397 51.6925 250.2C78.3733 250.397 79.0619 247.701 79.0226 247.524Z" fill="#EA641B"/>
</g>
<g style="mix-blend-mode:multiply" opacity="0.4">
<path d="M27.7494 248.942C31.1534 249.631 38.0007 250.3 51.7149 250.202C64.8979 250.3 71.7255 249.69 75.2672 249.021C76.6248 248.765 69.6398 246.955 51.7149 246.955C33.79 246.955 26.6279 248.706 27.7494 248.942Z" fill="#52111A"/>
</g>
<path d="M91.4361 44.8811C88.3076 42.8742 84.943 43.8777 82.0309 44.9402C79.1189 46.0027 76.62 47.1242 75.223 45.2156C74.554 44.2909 74.9475 42.8348 75.833 41.123C76.7381 39.4112 78.1744 37.4633 79.4927 35.4563C82.1096 31.403 84.5495 27.3891 81.9325 24.6148C78.076 20.5222 74.3376 21.1124 70.8746 22.1749C67.4116 23.1981 64.2241 24.6738 61.5481 21.8601C61.194 21.4863 61.0759 19.9909 60.9578 17.9249C60.8791 15.8786 60.8004 13.2617 60.5053 10.7038C60.2495 8.12622 59.7379 5.58801 58.8131 3.60072C57.849 1.69214 56.511 0.0787043 54.2286 0C51.7101 0 49.8802 1.16089 48.4439 3.03012C47.0862 4.82064 46.0434 7.33918 45.335 9.85772C43.7806 14.9341 43.1707 20.2664 40.8489 21.7027C39.8061 22.352 36.2644 21.0534 32.7227 20.8173C29.1613 20.6009 25.6393 21.4469 24.6752 26.4643C24.262 28.6484 24.7342 30.8521 25.659 32.9378C26.6231 35.0234 28.0004 36.991 29.299 38.7815C31.916 42.3626 34.2968 45.1566 32.5062 46.6126C31.4241 47.4981 28.4923 45.4321 25.108 43.7596C21.7041 42.0871 17.8279 40.8082 14.7781 43.5038C12.6531 45.373 11.8857 49.3279 13.3024 53.6173C14.7387 57.9264 18.4378 62.5306 25.5016 65.6984C32.2898 68.7679 34.4935 71.6603 28.4923 73.0376C24.5768 73.9427 22.6092 78.5469 25.9738 81.7148C29.4761 85.0203 34.5722 84.5875 34.887 86.9092C35.3199 89.9984 30.0467 88.2079 29.8303 91.7692C29.5548 96.6095 41.2621 100.191 45.7679 104.027C47.4994 105.523 51.0805 107.923 50.864 113.787C51.2969 110.658 51.6904 101.096 51.7888 98.164C49.4473 96.5505 46.9682 95.2125 44.3119 94.1697C43.82 93.973 44.1938 93.2449 44.6857 93.4417C47.2043 94.4452 49.5654 95.7045 51.7888 97.1998C51.7888 93.8155 51.7691 91.0806 51.6904 87.6766C51.6314 87.6569 51.592 87.6176 51.533 87.5979C49.8015 86.3977 40.5734 81.0261 38.2517 79.9636C37.2875 79.5307 38.0746 78.055 39.019 78.4879C40.1406 78.9995 48.9358 83.2692 51.6707 85.0597C51.5724 81.1441 51.6117 78.1337 51.4543 74.2182C48.6209 72.2309 43.1707 68.4924 38.1729 65.0491C33.1949 61.6255 28.7875 58.4773 27.843 57.9264C26.9379 57.3754 27.7446 55.8997 28.6497 56.431C31.1683 57.9657 36.225 61.3303 40.9669 64.4392C45.7482 67.5677 50.1754 70.4797 51.3362 71.2864C51.2575 69.0434 51.1001 66.7806 50.9821 64.5179C50.7853 60.2285 50.6673 57.0016 50.5492 52.6925C48.8767 50.6856 45.4924 46.5536 42.3246 42.6577C39.1567 38.7816 36.225 35.1415 35.497 34.3741C34.769 33.5871 35.9889 32.4065 36.7169 33.1935C38.1729 34.7873 41.2818 38.3487 44.1742 41.6936C47.0665 45.0385 49.7622 48.1474 50.4705 49.0131C50.4311 38.2109 50.7656 27.3694 51.9659 16.4689C52.0839 15.3867 53.7367 15.5244 53.599 16.5869C53.3235 19.4006 53.0677 22.2143 52.8316 25.028C54.0515 24.1622 55.1731 23.1784 56.2159 22.0962C56.5898 21.7027 57.121 22.3323 56.7668 22.7062C55.5666 23.9655 54.0319 25.6773 52.6152 26.6611C52.4381 29.7502 52.2807 32.741 52.1626 35.7121C52.0643 38.6635 52.0643 41.5952 52.0446 44.4876C51.9856 50.2921 52.261 56.1162 52.5168 62.2158C53.9138 60.1694 56.9439 56.3523 59.797 52.909C62.65 49.446 65.4243 46.3962 66.0933 45.6288C66.8016 44.8615 67.9232 46.0224 67.2345 46.7897C65.9359 48.2261 64.6569 49.7018 63.4174 51.1972C62.1778 52.6925 61.0169 54.2273 59.856 55.7817C57.5342 58.8905 55.2715 62.078 53.0677 65.3443C53.0087 65.4426 52.93 65.5213 52.8316 65.5804C52.989 68.1973 52.9497 70.7552 53.0284 73.3524C54.7009 72.1325 59.246 68.9253 63.9093 65.8165C68.6118 62.7077 73.3538 59.7169 75.2427 58.5954C76.1281 58.0641 76.9545 59.4414 76.0691 59.9727C75.3607 60.3859 71.1304 63.2192 66.3491 66.5248C61.6268 69.8501 56.393 73.6869 53.5203 75.8119C53.4022 75.9103 53.2645 75.9497 53.1464 75.9693C53.2055 78.2124 53.2448 80.239 53.2448 82.2854C53.2842 84.3317 53.3039 86.378 53.3432 88.6014C55.114 87.1453 62.8467 82.187 64.3618 81.2819C65.2472 80.7309 66.113 82.0886 65.2079 82.6592C61.2333 85.1581 57.0423 88.0505 53.4809 91.1396C53.4416 91.1789 53.4022 91.1986 53.3629 91.2183C53.3826 93.7368 53.3629 95.7044 53.3629 98.223L58.3606 93.4417C58.7344 93.0875 59.3444 93.6188 58.9706 93.9926L53.3629 99.3642C53.3235 101.804 53.5793 105.424 53.599 109.183C53.599 110.658 53.599 112.154 53.5006 113.629V113.551C54.0712 108.927 58.6361 104.854 63.3386 101.47C68.0609 98.0853 72.7635 95.3503 73.4128 93.1859C74.8098 88.5227 63.1025 88.5424 69.6744 85.3548C75.0262 82.7576 83.6444 77.9763 81.8145 73.8443C80.6536 71.188 73.8063 72.6834 75.3017 69.7123C75.6755 68.8663 83.0147 64.4982 88.5044 59.5201C89.8817 58.2805 91.141 56.9819 92.1641 55.703C93.2069 54.424 94.0137 53.1451 94.4465 51.9055C95.2926 49.4066 94.6236 47.0062 91.3771 44.9205L91.4361 44.8811Z" fill="#01873F"/>
<path d="M75.2617 58.5757C73.3728 59.6973 68.6309 62.7077 63.9283 65.7969C59.2651 68.9057 54.7199 72.1129 53.0474 73.3328C52.949 70.7356 53.0081 68.1777 52.8507 65.5607C52.9294 65.5017 53.0081 65.423 53.0868 65.3246C55.2905 62.0584 57.5532 58.8512 59.875 55.7621C61.0359 54.2076 62.2165 52.6729 63.4364 51.1775C64.676 49.6821 65.9549 48.2261 67.2535 46.7701C67.9422 46.0027 66.801 44.8418 66.1123 45.6092C65.4433 46.3766 62.669 49.4264 59.816 52.8893C56.9826 56.3327 53.9525 60.1498 52.5358 62.1961C52.28 56.0965 52.0046 50.2724 52.0636 44.468C52.0636 41.5559 52.0636 38.6439 52.1817 35.6925C52.2997 32.741 52.4571 29.7306 52.6342 26.6415C54.0509 25.638 55.5856 23.9458 56.7859 22.6866C57.14 22.3127 56.6088 21.6831 56.2349 22.0766C55.1921 23.1588 54.0706 24.1426 52.8507 25.0083C53.0868 22.1947 53.3229 19.381 53.618 16.5673C53.7558 15.5048 52.103 15.3671 51.9849 16.4493C50.7847 27.3498 50.4502 38.211 50.4895 48.9935C49.7812 48.1081 47.0856 44.9992 44.1932 41.674C41.3205 38.3487 38.192 34.7874 36.7359 33.1739C36.0079 32.3869 34.788 33.5674 35.516 34.3545C36.244 35.1219 39.1758 38.7619 42.3436 42.6381C45.4918 46.534 48.8958 50.6463 50.5682 52.6729C50.6863 56.982 50.8043 60.2088 51.0011 64.4982C51.1192 66.761 51.2569 69.0237 51.3553 71.2668C50.2141 70.4601 45.7673 67.548 40.986 64.4195C36.244 61.291 31.1873 57.9264 28.6688 56.4114C27.7637 55.8604 26.9373 57.3558 27.862 57.9067C28.7868 58.4577 33.1943 61.5862 38.192 65.0295C43.17 68.4728 48.64 72.2113 51.4733 74.1985C51.6307 78.1141 51.5914 81.1245 51.6898 85.0401C48.9548 83.2495 40.1596 78.9798 39.038 78.4683C38.0739 78.0354 37.2869 79.5111 38.2707 79.944C40.6121 81.0065 49.8402 86.378 51.552 87.5783C51.6111 87.6176 51.6504 87.6373 51.7094 87.657C51.7685 91.0413 51.8078 93.7762 51.8078 97.1802C49.5647 95.6848 47.2233 94.4059 44.7048 93.4221C44.2129 93.2253 43.839 93.9533 44.3309 94.1501C46.9872 95.1929 49.4664 96.5309 51.8078 98.1443C51.7291 101.096 51.3159 110.639 50.883 113.767C50.8634 113.984 50.8634 114.967 50.8043 115.184L53.5393 114.279C53.5393 114.062 53.559 113.866 53.5787 113.649C53.6574 112.173 53.677 110.678 53.677 109.202C53.6574 105.424 53.4016 101.804 53.4409 99.3839L59.0486 94.0124C59.4225 93.6582 58.8125 93.1073 58.4387 93.4614L53.4409 98.2427C53.4409 95.7242 53.4606 93.7566 53.4409 91.238C53.4803 91.2183 53.5196 91.179 53.559 91.1593C57.1204 88.0702 61.3114 85.1581 65.2859 82.6789C66.1714 82.128 65.3253 80.7507 64.4399 81.3016C62.9248 82.2067 55.1921 87.1651 53.4213 88.6211C53.3819 86.378 53.3426 84.3317 53.3229 82.3051C53.3229 80.2588 53.2835 78.2125 53.2245 75.9891C53.3426 75.9891 53.4606 75.93 53.5983 75.8317C56.4711 73.7066 61.7049 69.8698 66.4271 66.5445C71.2084 63.239 75.4388 60.4056 76.1471 59.9924C77.0326 59.4612 76.2258 58.0838 75.3207 58.6151L75.2617 58.5757Z" fill="#02632F"/>
<path d="M49.1882 233.3L49.8375 250.202H52.5135L51.8445 233.221L51.3329 207.623L51.2149 201.228V194.833L51.2542 182.044C51.1952 173.504 51.4707 164.985 51.6477 156.465C51.7658 147.925 52.1987 139.425 52.5725 130.906L52.848 124.511L52.907 123.468V123.252L52.9464 122.819L53.0644 121.087L53.517 114.181L50.8607 114.004L50.4081 120.93L50.2901 122.661V123.094L50.2507 123.311L50.1917 124.354L49.9162 130.748C49.5424 139.288 49.1095 147.827 48.9915 156.367C48.8144 164.906 48.5389 173.445 48.5979 182.004V194.833L48.5586 201.248L48.6766 207.662C48.8537 216.221 48.9718 224.761 49.1882 233.32V233.3Z" fill="#02632F"/>
<path d="M62.1588 131.869C58.9122 131.2 56.7085 133.482 54.8196 135.529C52.9504 137.595 51.396 139.484 49.5858 138.303C48.7004 137.732 48.4642 136.335 48.5036 134.486C48.5429 132.636 48.8578 130.354 48.9758 128.012C49.1135 125.671 49.2119 123.31 48.7397 121.362C48.2872 119.414 47.4017 117.899 45.7686 117.309C40.9086 115.577 38.5475 118.056 36.4815 120.516C34.4155 122.995 32.684 125.514 29.4375 124.549C28.6111 124.294 26.368 120.181 23.3576 116.856C21.8622 115.203 20.17 113.747 18.4779 113.098C17.6318 112.783 16.7858 112.606 15.9987 112.783C15.2117 112.941 14.4246 113.314 13.6376 113.905C10.2139 116.266 10.942 119.926 12.1225 123.703C12.6735 125.632 13.4605 127.481 13.8343 129.213C14.2475 130.905 14.3656 132.341 13.795 133.286C12.7128 134.958 1.04489 135.706 3.07153 142.671C3.54375 144.186 4.62594 145.445 6.06229 146.488C7.49864 147.551 9.23014 148.417 10.8633 149.223C14.1098 150.817 16.8645 152.155 15.8807 153.768C15.2707 154.752 12.2799 154.142 9.03338 154.064C5.78682 153.965 2.28448 154.359 0.612016 157.054C-0.548873 158.924 -0.0766469 161.737 2.1861 164.334C3.32731 165.613 4.9801 166.814 7.16415 167.778C8.24633 168.27 9.48593 168.683 10.8436 169.017C12.2012 169.372 13.6769 169.627 15.3297 169.804C21.6654 170.414 24.184 172.244 19.5011 174.664C17.9663 175.471 17.0612 176.829 16.9628 178.206C16.8841 179.583 17.5334 181 19.2453 181.886C22.8263 183.755 27.037 182.417 27.7453 184.207C28.6898 186.608 23.9085 186.175 24.3807 189.048C24.971 192.904 35.5371 193.888 39.9642 196.485C40.8102 196.977 42.0892 197.607 43.2501 198.768C44.3913 199.909 45.4538 201.581 45.6899 204.139C45.6899 203.451 45.6506 202.408 45.5325 201.188C45.4144 199.988 45.257 198.591 45.0996 197.233C44.7651 194.498 44.3913 191.783 44.1355 190.504C41.8728 189.52 39.551 188.831 37.1111 188.418C36.6586 188.339 36.8357 187.67 37.2882 187.729C39.6297 188.103 41.8334 188.752 43.9781 189.658C43.7223 188.202 43.4075 186.883 43.0927 185.585C42.7779 184.286 42.4434 182.987 42.0892 181.531C42.0498 181.531 41.9908 181.512 41.9318 181.492C40.22 180.784 31.4444 178.245 29.221 177.931C28.3356 177.793 28.6504 176.435 29.5555 176.573C30.6377 176.711 38.9017 178.324 41.5579 179.308C41.1251 177.655 40.7709 176.199 40.3577 174.743C39.9248 173.287 39.4723 171.851 38.941 170.237C36.1077 169.234 30.6574 167.522 25.7187 166.105C20.7013 164.708 16.1955 163.606 15.2904 163.449C14.3853 163.292 14.6607 161.973 15.5658 162.131C18.045 162.544 23.1214 163.685 27.8831 164.925C32.6447 166.145 36.9931 167.463 38.154 167.856C37.5243 166.007 36.9144 164.157 36.1667 162.347C34.7697 158.904 33.8056 156.307 32.3889 152.883C30.441 151.781 26.3483 149.617 22.5902 147.748C18.773 145.898 15.2117 144.363 14.3853 144.088C13.5392 143.793 14.0901 142.553 14.9362 142.829C16.648 143.419 20.2881 144.875 23.7511 146.41C27.155 147.944 30.3229 149.518 31.1886 149.991C27.6666 141.471 24.0069 133.069 19.993 125.002C19.5994 124.215 20.839 123.546 21.2522 124.333L24.3414 130.708C24.8923 129.567 25.3055 128.367 25.6006 127.127C25.699 126.674 26.3877 126.911 26.2696 127.343C25.9155 128.799 25.5416 130.688 24.8136 132.026C29.1423 141.51 32.9201 150.168 36.7963 160.065C37.0718 159.022 37.5637 157.507 38.154 155.775C38.4491 154.91 38.7639 153.985 39.0788 153.04C39.3739 152.096 39.6887 151.132 39.9838 150.187C41.1841 146.37 42.3056 142.848 42.5811 141.982C42.8566 141.077 44.1945 141.668 43.8797 142.573C42.7975 145.937 41.8334 149.263 40.9283 152.568C39.9445 155.893 39.0197 159.199 38.154 162.505C38.1343 162.603 38.0753 162.682 38.0359 162.76C38.882 164.885 39.3936 167.05 40.1216 169.214C40.6725 168.506 41.6957 167.168 42.9549 165.535C44.2339 163.902 45.7489 161.934 47.205 159.947C50.1564 155.913 53.1275 151.84 54.2884 150.246C54.859 149.479 55.9411 150.483 55.3705 151.23C54.9573 151.84 52.3601 155.618 49.4087 159.888C47.9723 161.993 46.3195 164.197 44.8438 166.184C43.3681 168.152 42.0498 169.903 41.1054 171.162C41.0267 171.28 40.9283 171.339 40.8299 171.378C42.0695 175.117 42.7975 178.265 43.742 182.082C44.9619 180.528 50.4909 174.546 51.514 173.366C52.124 172.677 53.1668 173.7 52.5372 174.389C49.7629 177.498 46.7524 180.902 44.3716 184.227C44.3519 184.266 44.3126 184.286 44.2929 184.325C44.5487 185.408 44.7651 186.372 45.0013 187.336C45.2177 188.3 45.3751 189.284 45.5915 190.366C46.7524 188.693 47.8936 187.001 48.9758 185.309C49.2316 184.916 49.8416 185.289 49.6055 185.663C48.4052 187.572 47.0672 189.461 45.7883 191.33C46.1818 193.435 46.9295 196.544 47.5198 199.83C47.7756 201.109 47.933 202.427 48.051 203.726V203.647C48.0314 201.581 48.7791 199.515 49.999 197.469C51.2386 195.423 52.9307 193.416 54.6425 191.507C56.3543 189.599 58.0858 187.788 59.4238 186.195C60.7224 184.601 61.5882 183.223 61.6472 182.161C61.8636 177.557 52.0059 180.075 56.8856 175.806C58.8729 174.074 61.3717 171.575 62.9852 169.057C64.6183 166.538 65.4447 164.02 64.1657 162.308C62.513 160.143 57.2201 163.37 57.712 160.242C57.8301 159.376 62.4736 153.375 65.3463 146.842C66.704 143.576 67.6287 140.212 67.3533 137.477C67.2943 136.788 67.1565 136.139 66.9204 135.548C66.6843 134.958 66.3498 134.407 65.9366 133.935C65.0905 132.971 63.8706 132.282 62.1981 131.928L62.1588 131.869Z" fill="#009C49"/>
<path d="M54.2298 150.168C53.0689 151.762 50.0978 155.835 47.1464 159.868C45.6903 161.855 44.195 163.803 42.8963 165.456C41.6371 167.089 40.6139 168.408 40.063 169.136C39.335 166.971 38.8234 164.807 37.9773 162.682C38.0364 162.603 38.0757 162.524 38.0954 162.426C38.9611 159.121 39.8859 155.815 40.8697 152.49C41.7748 149.184 42.7389 145.859 43.8211 142.494C44.1163 141.589 42.7783 141.019 42.5225 141.904C42.247 142.77 41.1255 146.292 39.9253 150.109C39.6301 151.053 39.3153 152.017 39.0202 152.962C38.7053 153.906 38.3905 154.831 38.0954 155.697C37.5248 157.428 37.0329 158.963 36.7377 159.986C32.8812 150.089 29.0837 141.432 24.755 131.948C25.483 130.61 25.8765 128.741 26.211 127.265C26.3094 126.832 25.6404 126.596 25.542 127.048C25.2469 128.308 24.814 129.488 24.2828 130.63L21.1936 124.254C20.7804 123.467 19.5408 124.136 19.9344 124.923C23.9483 132.991 27.608 141.392 31.13 149.912C30.2643 149.44 27.0964 147.866 23.6925 146.331C20.2295 144.816 16.6091 143.34 14.8776 142.75C14.0315 142.455 13.4806 143.714 14.3267 144.009C15.1531 144.304 18.7144 145.819 22.5316 147.669C26.3094 149.538 30.3824 151.703 32.3303 152.804C33.7273 156.228 34.6914 158.825 36.1081 162.269C36.8755 164.079 37.4657 165.928 38.0954 167.778C36.9345 167.384 32.5861 166.066 27.8245 164.846C23.0629 163.626 17.9864 162.485 15.5072 162.052C14.6218 161.895 14.3464 163.213 15.2318 163.371C16.1369 163.528 20.6427 164.63 25.6601 166.027C30.5988 167.443 36.0491 169.155 38.8824 170.159C39.4137 171.772 39.8662 173.228 40.2991 174.665C40.732 176.121 41.0861 177.577 41.4993 179.229C38.8431 178.246 30.5791 176.632 29.4969 176.494C28.6115 176.357 28.277 177.714 29.1624 177.852C31.3662 178.167 40.1614 180.705 41.8732 181.413C41.9322 181.433 41.9716 181.453 42.0306 181.453C42.3848 182.889 42.6996 184.188 43.0341 185.506C43.3489 186.805 43.6637 188.123 43.9195 189.579C41.7748 188.674 39.5514 188.025 37.2296 187.651C36.7771 187.572 36.6 188.261 37.0525 188.339C39.4924 188.753 41.8338 189.441 44.0769 190.425C44.313 191.704 44.7065 194.419 45.041 197.154C45.1984 198.532 45.3559 199.909 45.4739 201.109C45.592 202.309 45.6116 203.372 45.6313 204.061C45.6313 204.257 45.7494 205.103 45.7494 205.3L47.9728 204.159L47.9334 203.608C47.8154 202.31 47.658 200.991 47.4022 199.712C46.8119 196.426 46.0642 193.337 45.6707 191.212C46.9496 189.343 48.2876 187.454 49.4878 185.545C49.7436 185.152 49.114 184.798 48.8582 185.191C47.776 186.883 46.6348 188.576 45.4739 190.248C45.2575 189.166 45.1001 188.182 44.8836 187.218C44.6672 186.254 44.4311 185.29 44.1753 184.208C44.195 184.188 44.2343 184.148 44.254 184.109C46.6348 180.784 49.6452 177.36 52.4196 174.271C53.0492 173.582 52.0064 172.559 51.3964 173.248C50.3929 174.428 44.8443 180.39 43.6244 181.964C42.6799 178.147 41.9519 174.999 40.7123 171.261C40.8107 171.221 40.9091 171.162 40.9878 171.044C41.9322 169.805 43.2505 168.034 44.7262 166.066C46.2019 164.079 47.835 161.875 49.2911 159.77C52.2425 155.5 54.8397 151.722 55.2529 151.112C55.8235 150.365 54.7217 149.361 54.1707 150.129L54.2298 150.168Z" fill="#027835"/>
<path d="M46.4779 214.311C46.6549 216.358 46.7336 218.424 46.8123 220.47L47.3436 232.807L47.4617 245.144L47.5207 250.201H49.8425L49.8031 245.144L49.6851 232.748L49.1538 220.352C49.0751 218.286 48.9964 216.22 48.8193 214.154L48.5242 210.199L48.0716 204.1L45.7695 204.296L46.2221 210.357L46.5172 214.292L46.4779 214.311Z" fill="#027835"/>
</svg>
