<svg width="187" height="30" viewBox="0 0 187 30" fill="none" xmlns="http://www.w3.org/2000/svg">
<mask id="path-1-outside-1_746_13702" maskUnits="userSpaceOnUse" x="0" y="0" width="187" height="30" fill="black">
<rect fill="white" width="187" height="30"/>
<path d="M20.9883 15.5723C20.9883 19.6504 20.1211 22.8555 18.3867 25.1875C16.6641 27.5195 14.291 28.6855 11.2676 28.6855C8.24414 28.6855 5.85938 27.502 4.11328 25.1348C2.37891 22.7559 1.51172 19.4863 1.51172 15.3262C1.51172 11.1777 2.37891 7.91992 4.11328 5.55273C5.85938 3.18555 8.24414 2.00195 11.2676 2.00195C14.3379 2.00195 16.7227 3.19141 18.4219 5.57031C20.1328 7.9375 20.9883 11.2715 20.9883 15.5723ZM7.99805 15.3262C7.99805 18.1387 8.25586 20.1953 8.77148 21.4961C9.29883 22.7852 10.1309 23.4297 11.2676 23.4297C12.3809 23.4297 13.1953 22.7793 13.7109 21.4785C14.2383 20.1777 14.502 18.127 14.502 15.3262C14.502 12.5488 14.2383 10.5039 13.7109 9.19141C13.1953 7.87891 12.3809 7.22266 11.2676 7.22266C10.1191 7.22266 9.28711 7.86719 8.77148 9.15625C8.25586 10.4336 7.99805 12.4902 7.99805 15.3262ZM27.5766 19.4746H34.098V19.8965C34.098 21.0215 34.3617 21.877 34.8891 22.4629C35.4164 23.0371 36.1957 23.3242 37.227 23.3242C38.3051 23.3242 39.1313 23.0488 39.7055 22.498C40.2797 21.9355 40.5668 21.127 40.5668 20.0723C40.5668 18.8887 40.2563 18.0215 39.6352 17.4707C39.0258 16.9082 38.0648 16.627 36.7523 16.627C36.5414 16.627 36.3773 16.6328 36.2602 16.6445C36.1547 16.6445 36.0551 16.6445 35.9613 16.6445V12.5137H36.3305C37.5141 12.5137 38.4223 12.2559 39.0551 11.7402C39.6879 11.2246 40.0043 10.4746 40.0043 9.49023C40.0043 8.70508 39.7348 8.06641 39.1957 7.57422C38.6684 7.08203 37.9887 6.83594 37.1566 6.83594C36.266 6.83594 35.5746 7.07617 35.0824 7.55664C34.5902 8.03711 34.3324 8.7168 34.309 9.5957H28.0863C28.1332 7.19336 28.9711 5.33008 30.6 4.00586C32.2406 2.66992 34.5316 2.00195 37.473 2.00195C40.098 2.00195 42.1605 2.59961 43.6605 3.79492C45.1723 4.97852 45.9281 6.58984 45.9281 8.62891C45.9281 9.92969 45.5824 11.0371 44.891 11.9512C44.1996 12.8535 43.1918 13.5098 41.8676 13.9199C43.473 14.2129 44.7211 14.916 45.6117 16.0293C46.5023 17.1309 46.9477 18.543 46.9477 20.2656C46.9477 22.7617 46.057 24.7891 44.2758 26.3477C42.5063 27.9062 40.1918 28.6855 37.3324 28.6855C34.3324 28.6855 31.9535 27.8828 30.1957 26.2773C28.4496 24.6602 27.5766 22.4746 27.5766 19.7207V19.4746ZM70.9699 19.6855C72.0129 20.8691 73.0383 21.7539 74.0461 22.3398C75.0656 22.9258 76.0793 23.2188 77.0871 23.2188C78.0246 23.2188 78.7922 22.9668 79.3898 22.4629C79.9992 21.959 80.3039 21.3203 80.3039 20.5469C80.3039 19.6914 80.0402 19.0352 79.5129 18.5781C78.9973 18.1094 77.8195 17.6289 75.9797 17.1367C73.4602 16.457 71.6789 15.5723 70.6359 14.4824C69.593 13.3926 69.0715 11.8984 69.0715 10C69.0715 7.53906 69.8918 5.53516 71.5324 3.98828C73.1848 2.42969 75.3234 1.65039 77.9484 1.65039C79.3664 1.65039 80.7082 1.84375 81.9738 2.23047C83.2512 2.60547 84.4582 3.17969 85.5949 3.95312L83.3977 8.99805C82.6008 8.31836 81.7805 7.80859 80.9367 7.46875C80.1047 7.11719 79.2785 6.94141 78.4582 6.94141C77.6145 6.94141 76.9289 7.14648 76.4016 7.55664C75.8742 7.95508 75.6105 8.4707 75.6105 9.10352C75.6105 9.74805 75.8391 10.2637 76.2961 10.6504C76.7648 11.0371 77.6613 11.4062 78.9855 11.7578L79.302 11.8457C82.1613 12.6191 84.0422 13.4688 84.9445 14.3945C85.5539 15.0273 86.0168 15.7891 86.3332 16.6797C86.6496 17.5586 86.8078 18.5371 86.8078 19.6152C86.8078 22.3457 85.9113 24.543 84.1184 26.207C82.3254 27.8594 79.9348 28.6855 76.9465 28.6855C75.1535 28.6855 73.5188 28.3809 72.0422 27.7715C70.5773 27.1621 69.1652 26.207 67.8059 24.9062L70.9699 19.6855ZM98.0543 28V8.34766H92.2887V2.26562H110.834V8.34766H105.068V28H98.0543ZM117.879 28V2.26562H133.646V7.9082H124.717V12.373H133.137V17.8926H124.717V22.2344H133.646V28H117.879ZM148.479 28H141.905V2.26562H149.235C152.106 2.26562 154.121 2.40625 155.282 2.6875C156.442 2.96875 157.426 3.44922 158.235 4.12891C159.184 4.91406 159.905 5.89844 160.397 7.08203C160.901 8.25391 161.153 9.56055 161.153 11.002C161.153 12.5371 160.907 13.8906 160.414 15.0625C159.922 16.2227 159.196 17.1777 158.235 17.9277C157.508 18.4902 156.653 18.8945 155.668 19.1406C154.684 19.3867 153.108 19.5098 150.94 19.5098H149.745H148.479V28ZM148.479 13.8496H149.815C151.502 13.8496 152.68 13.6211 153.348 13.1641C154.016 12.6953 154.35 11.9043 154.35 10.791C154.35 9.71289 154.022 8.94531 153.366 8.48828C152.709 8.03125 151.549 7.80273 149.885 7.80273H148.479V13.8496ZM169.464 19.6855C170.507 20.8691 171.532 21.7539 172.54 22.3398C173.559 22.9258 174.573 23.2188 175.581 23.2188C176.518 23.2188 177.286 22.9668 177.884 22.4629C178.493 21.959 178.798 21.3203 178.798 20.5469C178.798 19.6914 178.534 19.0352 178.007 18.5781C177.491 18.1094 176.313 17.6289 174.473 17.1367C171.954 16.457 170.173 15.5723 169.13 14.4824C168.087 13.3926 167.565 11.8984 167.565 10C167.565 7.53906 168.386 5.53516 170.026 3.98828C171.679 2.42969 173.817 1.65039 176.442 1.65039C177.86 1.65039 179.202 1.84375 180.468 2.23047C181.745 2.60547 182.952 3.17969 184.089 3.95312L181.891 8.99805C181.095 8.31836 180.274 7.80859 179.43 7.46875C178.598 7.11719 177.772 6.94141 176.952 6.94141C176.108 6.94141 175.423 7.14648 174.895 7.55664C174.368 7.95508 174.104 8.4707 174.104 9.10352C174.104 9.74805 174.333 10.2637 174.79 10.6504C175.259 11.0371 176.155 11.4062 177.479 11.7578L177.796 11.8457C180.655 12.6191 182.536 13.4688 183.438 14.3945C184.048 15.0273 184.511 15.7891 184.827 16.6797C185.143 17.5586 185.302 18.5371 185.302 19.6152C185.302 22.3457 184.405 24.543 182.612 26.207C180.819 27.8594 178.429 28.6855 175.44 28.6855C173.647 28.6855 172.012 28.3809 170.536 27.7715C169.071 27.1621 167.659 26.207 166.3 24.9062L169.464 19.6855Z"/>
</mask>
<path d="M18.3867 25.1875L17.5843 24.5907L17.5824 24.5933L18.3867 25.1875ZM4.11328 25.1348L3.30522 25.7239L3.30853 25.7284L4.11328 25.1348ZM4.11328 5.55273L3.30852 4.95912L3.30662 4.96172L4.11328 5.55273ZM18.4219 5.57031L17.6081 6.15156L17.6114 6.1561L18.4219 5.57031ZM8.77148 21.4961L7.8418 21.8646L7.84594 21.8747L8.77148 21.4961ZM13.7109 21.4785L12.7842 21.1028L12.7813 21.11L13.7109 21.4785ZM13.7109 9.19141L12.7802 9.55707L12.783 9.56422L13.7109 9.19141ZM8.77148 9.15625L9.69879 9.53057L9.69996 9.52764L8.77148 9.15625ZM19.9883 15.5723C19.9883 19.5198 19.1478 22.4885 17.5843 24.5907L19.1891 25.7843C21.0944 23.2225 21.9883 19.7809 21.9883 15.5723H19.9883ZM17.5824 24.5933C16.0575 26.6576 13.9897 27.6855 11.2676 27.6855V29.6855C14.5924 29.6855 17.2706 28.3815 19.1911 25.7817L17.5824 24.5933ZM11.2676 27.6855C8.55127 27.6855 6.46951 26.6445 4.91804 24.5412L3.30853 25.7284C5.24924 28.3594 7.93701 29.6855 11.2676 29.6855V27.6855ZM4.92133 24.5456C3.35377 22.3955 2.51172 19.3594 2.51172 15.3262H0.511719C0.511719 19.6133 1.40404 23.1162 3.30523 25.7239L4.92133 24.5456ZM2.51172 15.3262C2.51172 11.305 3.35362 8.28157 4.91994 6.14375L3.30662 4.96172C1.40419 7.55828 0.511719 11.0504 0.511719 15.3262H2.51172ZM4.91804 6.14634C6.46951 4.04299 8.55127 3.00195 11.2676 3.00195V1.00195C7.93701 1.00195 5.24924 2.3281 3.30853 4.95913L4.91804 6.14634ZM11.2676 3.00195C14.0341 3.00195 16.1075 4.05064 17.6081 6.15155L19.2356 4.98907C17.3378 2.33218 14.6417 1.00195 11.2676 1.00195V3.00195ZM17.6114 6.1561C19.1533 8.28941 19.9883 11.3871 19.9883 15.5723H21.9883C21.9883 11.1559 21.1123 7.58559 19.2323 4.98453L17.6114 6.1561ZM6.99805 15.3262C6.99805 18.1635 7.25311 20.3793 7.84186 21.8646L9.70111 21.1276C9.25861 20.0113 8.99805 18.1139 8.99805 15.3262H6.99805ZM7.84594 21.8747C8.15523 22.6308 8.58607 23.2778 9.17862 23.7368C9.78428 24.206 10.4964 24.4297 11.2676 24.4297V22.4297C10.902 22.4297 10.6298 22.3311 10.4034 22.1557C10.1639 21.9702 9.91509 21.6505 9.69703 21.1175L7.84594 21.8747ZM11.2676 24.4297C12.0344 24.4297 12.7404 24.2 13.3374 23.7233C13.9195 23.2585 14.3398 22.6059 14.6406 21.847L12.7813 21.11C12.5665 21.6519 12.3217 21.9749 12.0894 22.1605C11.8719 22.3342 11.614 22.4297 11.2676 22.4297V24.4297ZM14.6377 21.8542C15.2409 20.3662 15.502 18.1533 15.502 15.3262H13.502C13.502 18.1006 13.2356 19.9893 12.7842 21.1028L14.6377 21.8542ZM15.502 15.3262C15.502 12.5201 15.2404 10.3158 14.6388 8.81859L12.783 9.56422C13.2361 10.692 13.502 12.5775 13.502 15.3262H15.502ZM14.6417 8.82575C14.3416 8.06198 13.9224 7.40476 13.3408 6.93617C12.7439 6.45521 12.0367 6.22266 11.2676 6.22266V8.22266C11.6117 8.22266 11.8684 8.31823 12.086 8.49352C12.3189 8.68118 12.5646 9.00833 12.7802 9.55706L14.6417 8.82575ZM11.2676 6.22266C10.4931 6.22266 9.77736 6.44488 9.16983 6.9155C8.57495 7.37633 8.14645 8.02625 7.84301 8.78486L9.69996 9.52764C9.91214 8.99719 10.1575 8.68032 10.3946 8.4966C10.6191 8.3227 10.8936 8.22266 11.2676 8.22266V6.22266ZM7.84419 8.78193C7.25233 10.2481 6.99805 12.4688 6.99805 15.3262H8.99805C8.99805 12.5117 9.25939 10.6191 9.69878 9.53057L7.84419 8.78193ZM27.5766 19.4746V18.4746H26.5766V19.4746H27.5766ZM34.098 19.4746H35.098V18.4746H34.098V19.4746ZM34.8891 22.4629L34.1457 23.1319L34.1525 23.1393L34.8891 22.4629ZM39.7055 22.498L40.3977 23.2198L40.4053 23.2124L39.7055 22.498ZM39.6352 17.4707L38.9569 18.2055L38.9642 18.2123L38.9717 18.2189L39.6352 17.4707ZM36.2602 16.6445V17.6445H36.31L36.3597 17.6396L36.2602 16.6445ZM35.9613 16.6445H34.9613V17.6445H35.9613V16.6445ZM35.9613 12.5137V11.5137H34.9613V12.5137H35.9613ZM39.1957 7.57422L38.5133 8.30532L38.5214 8.3127L39.1957 7.57422ZM34.309 9.5957V10.5957H35.2827L35.3086 9.62236L34.309 9.5957ZM28.0863 9.5957L27.0865 9.57619L27.0666 10.5957H28.0863V9.5957ZM30.6 4.00586L31.2308 4.7818L31.2314 4.78129L30.6 4.00586ZM43.6605 3.79492L43.0373 4.57701L43.0441 4.5823L43.6605 3.79492ZM44.891 11.9512L45.6848 12.5594L45.6886 12.5544L44.891 11.9512ZM41.8676 13.9199L41.5717 12.9647L41.6881 14.9037L41.8676 13.9199ZM45.6117 16.0293L44.8308 16.654L44.8341 16.658L45.6117 16.0293ZM44.2758 26.3477L43.6173 25.5951L43.6148 25.5972L44.2758 26.3477ZM30.1957 26.2773L29.5162 27.011L29.5213 27.0157L30.1957 26.2773ZM27.5766 20.4746H34.098V18.4746H27.5766V20.4746ZM33.098 19.4746V19.8965H35.098V19.4746H33.098ZM33.098 19.8965C33.098 21.1638 33.3945 22.2971 34.1458 23.1319L35.6324 21.7939C35.329 21.4568 35.098 20.8791 35.098 19.8965H33.098ZM34.1525 23.1393C34.9251 23.9806 36.0106 24.3242 37.227 24.3242V22.3242C36.3808 22.3242 35.9077 22.0937 35.6256 21.7865L34.1525 23.1393ZM37.227 24.3242C38.4696 24.3242 39.5793 24.0048 40.3977 23.2197L39.0132 21.7764C38.6832 22.0929 38.1406 22.3242 37.227 22.3242V24.3242ZM40.4053 23.2124C41.2261 22.4084 41.5668 21.3083 41.5668 20.0723H39.5668C39.5668 20.9456 39.3333 21.4627 39.0057 21.7837L40.4053 23.2124ZM41.5668 20.0723C41.5668 18.7278 41.2123 17.5327 40.2986 16.7225L38.9717 18.2189C39.3002 18.5102 39.5668 19.0496 39.5668 20.0723H41.5668ZM40.3134 16.7359C39.4373 15.9272 38.1763 15.627 36.7523 15.627V17.627C37.9534 17.627 38.6143 17.8892 38.9569 18.2055L40.3134 16.7359ZM36.7523 15.627C36.5297 15.627 36.327 15.6329 36.1607 15.6495L36.3597 17.6396C36.4277 17.6328 36.5531 17.627 36.7523 17.627V15.627ZM36.2602 15.6445C36.2599 15.6445 36.2597 15.6445 36.2595 15.6445C36.2593 15.6445 36.2591 15.6445 36.2589 15.6445C36.2587 15.6445 36.2585 15.6445 36.2583 15.6445C36.2581 15.6445 36.2579 15.6445 36.2577 15.6445C36.2575 15.6445 36.2573 15.6445 36.2571 15.6445C36.2569 15.6445 36.2567 15.6445 36.2565 15.6445C36.2562 15.6445 36.256 15.6445 36.2558 15.6445C36.2556 15.6445 36.2554 15.6445 36.2552 15.6445C36.255 15.6445 36.2548 15.6445 36.2546 15.6445C36.2544 15.6445 36.2542 15.6445 36.254 15.6445C36.2538 15.6445 36.2536 15.6445 36.2534 15.6445C36.2532 15.6445 36.253 15.6445 36.2528 15.6445C36.2525 15.6445 36.2523 15.6445 36.2521 15.6445C36.2519 15.6445 36.2517 15.6445 36.2515 15.6445C36.2513 15.6445 36.2511 15.6445 36.2509 15.6445C36.2507 15.6445 36.2505 15.6445 36.2503 15.6445C36.2501 15.6445 36.2499 15.6445 36.2497 15.6445C36.2495 15.6445 36.2493 15.6445 36.2491 15.6445C36.2488 15.6445 36.2486 15.6445 36.2484 15.6445C36.2482 15.6445 36.248 15.6445 36.2478 15.6445C36.2476 15.6445 36.2474 15.6445 36.2472 15.6445C36.247 15.6445 36.2468 15.6445 36.2466 15.6445C36.2464 15.6445 36.2462 15.6445 36.246 15.6445C36.2458 15.6445 36.2456 15.6445 36.2454 15.6445C36.2452 15.6445 36.245 15.6445 36.2447 15.6445C36.2445 15.6445 36.2443 15.6445 36.2441 15.6445C36.2439 15.6445 36.2437 15.6445 36.2435 15.6445C36.2433 15.6445 36.2431 15.6445 36.2429 15.6445C36.2427 15.6445 36.2425 15.6445 36.2423 15.6445C36.2421 15.6445 36.2419 15.6445 36.2417 15.6445C36.2415 15.6445 36.2413 15.6445 36.2411 15.6445C36.2409 15.6445 36.2407 15.6445 36.2404 15.6445C36.2402 15.6445 36.24 15.6445 36.2398 15.6445C36.2396 15.6445 36.2394 15.6445 36.2392 15.6445C36.239 15.6445 36.2388 15.6445 36.2386 15.6445C36.2384 15.6445 36.2382 15.6445 36.238 15.6445C36.2378 15.6445 36.2376 15.6445 36.2374 15.6445C36.2372 15.6445 36.237 15.6445 36.2368 15.6445C36.2366 15.6445 36.2364 15.6445 36.2362 15.6445C36.236 15.6445 36.2357 15.6445 36.2355 15.6445C36.2353 15.6445 36.2351 15.6445 36.2349 15.6445C36.2347 15.6445 36.2345 15.6445 36.2343 15.6445C36.2341 15.6445 36.2339 15.6445 36.2337 15.6445C36.2335 15.6445 36.2333 15.6445 36.2331 15.6445C36.2329 15.6445 36.2327 15.6445 36.2325 15.6445C36.2323 15.6445 36.2321 15.6445 36.2319 15.6445C36.2317 15.6445 36.2315 15.6445 36.2313 15.6445C36.2311 15.6445 36.2309 15.6445 36.2306 15.6445C36.2304 15.6445 36.2302 15.6445 36.23 15.6445C36.2298 15.6445 36.2296 15.6445 36.2294 15.6445C36.2292 15.6445 36.229 15.6445 36.2288 15.6445C36.2286 15.6445 36.2284 15.6445 36.2282 15.6445C36.228 15.6445 36.2278 15.6445 36.2276 15.6445C36.2274 15.6445 36.2272 15.6445 36.227 15.6445C36.2268 15.6445 36.2266 15.6445 36.2264 15.6445C36.2262 15.6445 36.226 15.6445 36.2258 15.6445C36.2256 15.6445 36.2254 15.6445 36.2252 15.6445C36.2249 15.6445 36.2247 15.6445 36.2245 15.6445C36.2243 15.6445 36.2241 15.6445 36.2239 15.6445C36.2237 15.6445 36.2235 15.6445 36.2233 15.6445C36.2231 15.6445 36.2229 15.6445 36.2227 15.6445C36.2225 15.6445 36.2223 15.6445 36.2221 15.6445C36.2219 15.6445 36.2217 15.6445 36.2215 15.6445C36.2213 15.6445 36.2211 15.6445 36.2209 15.6445C36.2207 15.6445 36.2205 15.6445 36.2203 15.6445C36.2201 15.6445 36.2199 15.6445 36.2197 15.6445C36.2195 15.6445 36.2193 15.6445 36.2191 15.6445C36.2188 15.6445 36.2186 15.6445 36.2184 15.6445C36.2182 15.6445 36.218 15.6445 36.2178 15.6445C36.2176 15.6445 36.2174 15.6445 36.2172 15.6445C36.217 15.6445 36.2168 15.6445 36.2166 15.6445C36.2164 15.6445 36.2162 15.6445 36.216 15.6445C36.2158 15.6445 36.2156 15.6445 36.2154 15.6445C36.2152 15.6445 36.215 15.6445 36.2148 15.6445C36.2146 15.6445 36.2144 15.6445 36.2142 15.6445C36.214 15.6445 36.2138 15.6445 36.2136 15.6445C36.2134 15.6445 36.2132 15.6445 36.213 15.6445C36.2128 15.6445 36.2126 15.6445 36.2124 15.6445C36.2122 15.6445 36.212 15.6445 36.2118 15.6445C36.2116 15.6445 36.2113 15.6445 36.2111 15.6445C36.2109 15.6445 36.2107 15.6445 36.2105 15.6445C36.2103 15.6445 36.2101 15.6445 36.2099 15.6445C36.2097 15.6445 36.2095 15.6445 36.2093 15.6445C36.2091 15.6445 36.2089 15.6445 36.2087 15.6445C36.2085 15.6445 36.2083 15.6445 36.2081 15.6445C36.2079 15.6445 36.2077 15.6445 36.2075 15.6445C36.2073 15.6445 36.2071 15.6445 36.2069 15.6445C36.2067 15.6445 36.2065 15.6445 36.2063 15.6445C36.2061 15.6445 36.2059 15.6445 36.2057 15.6445C36.2055 15.6445 36.2053 15.6445 36.2051 15.6445C36.2049 15.6445 36.2047 15.6445 36.2045 15.6445C36.2043 15.6445 36.2041 15.6445 36.2039 15.6445C36.2037 15.6445 36.2035 15.6445 36.2033 15.6445C36.2031 15.6445 36.2029 15.6445 36.2027 15.6445C36.2025 15.6445 36.2023 15.6445 36.2021 15.6445C36.2019 15.6445 36.2016 15.6445 36.2014 15.6445C36.2012 15.6445 36.201 15.6445 36.2008 15.6445C36.2006 15.6445 36.2004 15.6445 36.2002 15.6445C36.2 15.6445 36.1998 15.6445 36.1996 15.6445C36.1994 15.6445 36.1992 15.6445 36.199 15.6445C36.1988 15.6445 36.1986 15.6445 36.1984 15.6445C36.1982 15.6445 36.198 15.6445 36.1978 15.6445C36.1976 15.6445 36.1974 15.6445 36.1972 15.6445C36.197 15.6445 36.1968 15.6445 36.1966 15.6445C36.1964 15.6445 36.1962 15.6445 36.196 15.6445C36.1958 15.6445 36.1956 15.6445 36.1954 15.6445C36.1952 15.6445 36.195 15.6445 36.1948 15.6445C36.1946 15.6445 36.1944 15.6445 36.1942 15.6445C36.194 15.6445 36.1938 15.6445 36.1936 15.6445C36.1934 15.6445 36.1932 15.6445 36.193 15.6445C36.1928 15.6445 36.1926 15.6445 36.1924 15.6445C36.1922 15.6445 36.192 15.6445 36.1918 15.6445C36.1916 15.6445 36.1914 15.6445 36.1912 15.6445C36.191 15.6445 36.1908 15.6445 36.1906 15.6445C36.1904 15.6445 36.1902 15.6445 36.19 15.6445C36.1898 15.6445 36.1896 15.6445 36.1894 15.6445C36.1892 15.6445 36.189 15.6445 36.1888 15.6445C36.1886 15.6445 36.1884 15.6445 36.1882 15.6445C36.188 15.6445 36.1878 15.6445 36.1876 15.6445C36.1874 15.6445 36.1872 15.6445 36.187 15.6445C36.1868 15.6445 36.1866 15.6445 36.1864 15.6445C36.1862 15.6445 36.186 15.6445 36.1858 15.6445C36.1856 15.6445 36.1854 15.6445 36.1852 15.6445C36.185 15.6445 36.1848 15.6445 36.1846 15.6445C36.1844 15.6445 36.1842 15.6445 36.184 15.6445C36.1838 15.6445 36.1836 15.6445 36.1834 15.6445C36.1832 15.6445 36.183 15.6445 36.1828 15.6445C36.1826 15.6445 36.1824 15.6445 36.1822 15.6445C36.182 15.6445 36.1818 15.6445 36.1816 15.6445C36.1814 15.6445 36.1812 15.6445 36.181 15.6445C36.1808 15.6445 36.1806 15.6445 36.1804 15.6445C36.1802 15.6445 36.18 15.6445 36.1798 15.6445C36.1796 15.6445 36.1794 15.6445 36.1791 15.6445C36.179 15.6445 36.1788 15.6445 36.1786 15.6445C36.1784 15.6445 36.1782 15.6445 36.178 15.6445C36.1777 15.6445 36.1776 15.6445 36.1774 15.6445C36.1772 15.6445 36.177 15.6445 36.1768 15.6445C36.1766 15.6445 36.1764 15.6445 36.1762 15.6445C36.176 15.6445 36.1758 15.6445 36.1756 15.6445C36.1754 15.6445 36.1752 15.6445 36.175 15.6445C36.1748 15.6445 36.1746 15.6445 36.1744 15.6445C36.1742 15.6445 36.174 15.6445 36.1738 15.6445C36.1736 15.6445 36.1734 15.6445 36.1732 15.6445C36.173 15.6445 36.1728 15.6445 36.1726 15.6445C36.1724 15.6445 36.1722 15.6445 36.172 15.6445C36.1718 15.6445 36.1716 15.6445 36.1714 15.6445C36.1712 15.6445 36.171 15.6445 36.1708 15.6445C36.1706 15.6445 36.1704 15.6445 36.1702 15.6445C36.17 15.6445 36.1698 15.6445 36.1696 15.6445C36.1694 15.6445 36.1692 15.6445 36.169 15.6445C36.1688 15.6445 36.1686 15.6445 36.1684 15.6445C36.1682 15.6445 36.168 15.6445 36.1678 15.6445C36.1676 15.6445 36.1674 15.6445 36.1672 15.6445C36.167 15.6445 36.1668 15.6445 36.1666 15.6445C36.1664 15.6445 36.1662 15.6445 36.166 15.6445C36.1658 15.6445 36.1656 15.6445 36.1654 15.6445C36.1652 15.6445 36.165 15.6445 36.1648 15.6445C36.1646 15.6445 36.1644 15.6445 36.1642 15.6445C36.164 15.6445 36.1638 15.6445 36.1636 15.6445C36.1634 15.6445 36.1632 15.6445 36.163 15.6445C36.1628 15.6445 36.1626 15.6445 36.1624 15.6445C36.1622 15.6445 36.162 15.6445 36.1618 15.6445C36.1616 15.6445 36.1614 15.6445 36.1612 15.6445C36.161 15.6445 36.1608 15.6445 36.1606 15.6445C36.1604 15.6445 36.1602 15.6445 36.16 15.6445C36.1598 15.6445 36.1596 15.6445 36.1594 15.6445C36.1592 15.6445 36.159 15.6445 36.1588 15.6445C36.1586 15.6445 36.1584 15.6445 36.1582 15.6445C36.158 15.6445 36.1578 15.6445 36.1576 15.6445C36.1574 15.6445 36.1572 15.6445 36.157 15.6445C36.1568 15.6445 36.1566 15.6445 36.1564 15.6445C36.1562 15.6445 36.156 15.6445 36.1558 15.6445C36.1557 15.6445 36.1555 15.6445 36.1553 15.6445C36.1551 15.6445 36.1549 15.6445 36.1547 15.6445C36.1545 15.6445 36.1543 15.6445 36.1541 15.6445C36.1539 15.6445 36.1537 15.6445 36.1535 15.6445C36.1533 15.6445 36.1531 15.6445 36.1529 15.6445C36.1527 15.6445 36.1525 15.6445 36.1523 15.6445C36.1521 15.6445 36.1519 15.6445 36.1517 15.6445C36.1515 15.6445 36.1513 15.6445 36.1511 15.6445C36.1509 15.6445 36.1507 15.6445 36.1505 15.6445C36.1503 15.6445 36.1501 15.6445 36.1499 15.6445C36.1497 15.6445 36.1495 15.6445 36.1493 15.6445C36.1491 15.6445 36.1489 15.6445 36.1487 15.6445C36.1485 15.6445 36.1483 15.6445 36.1481 15.6445C36.1479 15.6445 36.1477 15.6445 36.1475 15.6445C36.1473 15.6445 36.1471 15.6445 36.1469 15.6445C36.1467 15.6445 36.1465 15.6445 36.1463 15.6445C36.1461 15.6445 36.146 15.6445 36.1458 15.6445C36.1456 15.6445 36.1454 15.6445 36.1452 15.6445C36.145 15.6445 36.1448 15.6445 36.1446 15.6445C36.1444 15.6445 36.1442 15.6445 36.144 15.6445C36.1438 15.6445 36.1436 15.6445 36.1434 15.6445C36.1432 15.6445 36.143 15.6445 36.1428 15.6445C36.1426 15.6445 36.1424 15.6445 36.1422 15.6445C36.142 15.6445 36.1418 15.6445 36.1416 15.6445C36.1414 15.6445 36.1412 15.6445 36.141 15.6445C36.1408 15.6445 36.1406 15.6445 36.1404 15.6445C36.1402 15.6445 36.14 15.6445 36.1398 15.6445C36.1396 15.6445 36.1394 15.6445 36.1392 15.6445C36.139 15.6445 36.1388 15.6445 36.1387 15.6445C36.1385 15.6445 36.1383 15.6445 36.1381 15.6445C36.1379 15.6445 36.1377 15.6445 36.1375 15.6445C36.1373 15.6445 36.1371 15.6445 36.1369 15.6445C36.1367 15.6445 36.1365 15.6445 36.1363 15.6445C36.1361 15.6445 36.1359 15.6445 36.1357 15.6445C36.1355 15.6445 36.1353 15.6445 36.1351 15.6445C36.1349 15.6445 36.1347 15.6445 36.1345 15.6445C36.1343 15.6445 36.1341 15.6445 36.1339 15.6445C36.1337 15.6445 36.1335 15.6445 36.1333 15.6445C36.1331 15.6445 36.1329 15.6445 36.1327 15.6445C36.1326 15.6445 36.1324 15.6445 36.1322 15.6445C36.132 15.6445 36.1318 15.6445 36.1316 15.6445C36.1314 15.6445 36.1312 15.6445 36.131 15.6445C36.1308 15.6445 36.1306 15.6445 36.1304 15.6445C36.1302 15.6445 36.13 15.6445 36.1298 15.6445C36.1296 15.6445 36.1294 15.6445 36.1292 15.6445C36.129 15.6445 36.1288 15.6445 36.1286 15.6445C36.1284 15.6445 36.1282 15.6445 36.128 15.6445C36.1278 15.6445 36.1276 15.6445 36.1274 15.6445C36.1273 15.6445 36.1271 15.6445 36.1269 15.6445C36.1267 15.6445 36.1265 15.6445 36.1263 15.6445C36.1261 15.6445 36.1259 15.6445 36.1257 15.6445C36.1255 15.6445 36.1253 15.6445 36.1251 15.6445C36.1249 15.6445 36.1247 15.6445 36.1245 15.6445C36.1243 15.6445 36.1241 15.6445 36.1239 15.6445C36.1237 15.6445 36.1235 15.6445 36.1233 15.6445C36.1231 15.6445 36.1229 15.6445 36.1227 15.6445C36.1225 15.6445 36.1224 15.6445 36.1222 15.6445C36.122 15.6445 36.1218 15.6445 36.1216 15.6445C36.1214 15.6445 36.1212 15.6445 36.121 15.6445C36.1208 15.6445 36.1206 15.6445 36.1204 15.6445C36.1202 15.6445 36.12 15.6445 36.1198 15.6445C36.1196 15.6445 36.1194 15.6445 36.1192 15.6445C36.119 15.6445 36.1188 15.6445 36.1186 15.6445C36.1184 15.6445 36.1182 15.6445 36.118 15.6445C36.1179 15.6445 36.1177 15.6445 36.1175 15.6445C36.1173 15.6445 36.1171 15.6445 36.1169 15.6445C36.1167 15.6445 36.1165 15.6445 36.1163 15.6445C36.1161 15.6445 36.1159 15.6445 36.1157 15.6445C36.1155 15.6445 36.1153 15.6445 36.1151 15.6445C36.1149 15.6445 36.1147 15.6445 36.1145 15.6445C36.1143 15.6445 36.1141 15.6445 36.1139 15.6445C36.1138 15.6445 36.1136 15.6445 36.1134 15.6445C36.1132 15.6445 36.113 15.6445 36.1128 15.6445C36.1126 15.6445 36.1124 15.6445 36.1122 15.6445C36.112 15.6445 36.1118 15.6445 36.1116 15.6445C36.1114 15.6445 36.1112 15.6445 36.111 15.6445C36.1108 15.6445 36.1106 15.6445 36.1104 15.6445C36.1102 15.6445 36.11 15.6445 36.1099 15.6445C36.1097 15.6445 36.1095 15.6445 36.1093 15.6445C36.1091 15.6445 36.1089 15.6445 36.1087 15.6445C36.1085 15.6445 36.1083 15.6445 36.1081 15.6445C36.1079 15.6445 36.1077 15.6445 36.1075 15.6445C36.1073 15.6445 36.1071 15.6445 36.1069 15.6445C36.1067 15.6445 36.1065 15.6445 36.1063 15.6445C36.1062 15.6445 36.106 15.6445 36.1058 15.6445C36.1056 15.6445 36.1054 15.6445 36.1052 15.6445C36.105 15.6445 36.1048 15.6445 36.1046 15.6445C36.1044 15.6445 36.1042 15.6445 36.104 15.6445C36.1038 15.6445 36.1036 15.6445 36.1034 15.6445C36.1032 15.6445 36.103 15.6445 36.1028 15.6445C36.1027 15.6445 36.1025 15.6445 36.1023 15.6445C36.1021 15.6445 36.1019 15.6445 36.1017 15.6445C36.1015 15.6445 36.1013 15.6445 36.1011 15.6445C36.1009 15.6445 36.1007 15.6445 36.1005 15.6445C36.1003 15.6445 36.1001 15.6445 36.0999 15.6445C36.0997 15.6445 36.0995 15.6445 36.0994 15.6445C36.0992 15.6445 36.099 15.6445 36.0988 15.6445C36.0986 15.6445 36.0984 15.6445 36.0982 15.6445C36.098 15.6445 36.0978 15.6445 36.0976 15.6445C36.0974 15.6445 36.0972 15.6445 36.097 15.6445C36.0968 15.6445 36.0966 15.6445 36.0964 15.6445C36.0963 15.6445 36.0961 15.6445 36.0959 15.6445C36.0957 15.6445 36.0955 15.6445 36.0953 15.6445C36.0951 15.6445 36.0949 15.6445 36.0947 15.6445C36.0945 15.6445 36.0943 15.6445 36.0941 15.6445C36.0939 15.6445 36.0937 15.6445 36.0935 15.6445C36.0933 15.6445 36.0932 15.6445 36.093 15.6445C36.0928 15.6445 36.0926 15.6445 36.0924 15.6445C36.0922 15.6445 36.092 15.6445 36.0918 15.6445C36.0916 15.6445 36.0914 15.6445 36.0912 15.6445C36.091 15.6445 36.0908 15.6445 36.0906 15.6445C36.0904 15.6445 36.0903 15.6445 36.0901 15.6445C36.0899 15.6445 36.0897 15.6445 36.0895 15.6445C36.0893 15.6445 36.0891 15.6445 36.0889 15.6445C36.0887 15.6445 36.0885 15.6445 36.0883 15.6445C36.0881 15.6445 36.0879 15.6445 36.0877 15.6445C36.0875 15.6445 36.0874 15.6445 36.0872 15.6445C36.087 15.6445 36.0868 15.6445 36.0866 15.6445C36.0864 15.6445 36.0862 15.6445 36.086 15.6445C36.0858 15.6445 36.0856 15.6445 36.0854 15.6445C36.0852 15.6445 36.085 15.6445 36.0848 15.6445C36.0847 15.6445 36.0845 15.6445 36.0843 15.6445C36.0841 15.6445 36.0839 15.6445 36.0837 15.6445C36.0835 15.6445 36.0833 15.6445 36.0831 15.6445C36.0829 15.6445 36.0827 15.6445 36.0825 15.6445C36.0823 15.6445 36.0821 15.6445 36.082 15.6445C36.0818 15.6445 36.0816 15.6445 36.0814 15.6445C36.0812 15.6445 36.081 15.6445 36.0808 15.6445C36.0806 15.6445 36.0804 15.6445 36.0802 15.6445C36.08 15.6445 36.0798 15.6445 36.0796 15.6445C36.0794 15.6445 36.0793 15.6445 36.0791 15.6445C36.0789 15.6445 36.0787 15.6445 36.0785 15.6445C36.0783 15.6445 36.0781 15.6445 36.0779 15.6445C36.0777 15.6445 36.0775 15.6445 36.0773 15.6445C36.0771 15.6445 36.077 15.6445 36.0768 15.6445C36.0766 15.6445 36.0764 15.6445 36.0762 15.6445C36.076 15.6445 36.0758 15.6445 36.0756 15.6445C36.0754 15.6445 36.0752 15.6445 36.075 15.6445C36.0748 15.6445 36.0746 15.6445 36.0745 15.6445C36.0743 15.6445 36.0741 15.6445 36.0739 15.6445C36.0737 15.6445 36.0735 15.6445 36.0733 15.6445C36.0731 15.6445 36.0729 15.6445 36.0727 15.6445C36.0725 15.6445 36.0723 15.6445 36.0721 15.6445C36.072 15.6445 36.0718 15.6445 36.0716 15.6445C36.0714 15.6445 36.0712 15.6445 36.071 15.6445C36.0708 15.6445 36.0706 15.6445 36.0704 15.6445C36.0702 15.6445 36.07 15.6445 36.0698 15.6445C36.0697 15.6445 36.0695 15.6445 36.0693 15.6445C36.0691 15.6445 36.0689 15.6445 36.0687 15.6445C36.0685 15.6445 36.0683 15.6445 36.0681 15.6445C36.0679 15.6445 36.0677 15.6445 36.0675 15.6445C36.0674 15.6445 36.0672 15.6445 36.067 15.6445C36.0668 15.6445 36.0666 15.6445 36.0664 15.6445C36.0662 15.6445 36.066 15.6445 36.0658 15.6445C36.0656 15.6445 36.0654 15.6445 36.0652 15.6445C36.0651 15.6445 36.0649 15.6445 36.0647 15.6445C36.0645 15.6445 36.0643 15.6445 36.0641 15.6445C36.0639 15.6445 36.0637 15.6445 36.0635 15.6445C36.0633 15.6445 36.0631 15.6445 36.063 15.6445C36.0628 15.6445 36.0626 15.6445 36.0624 15.6445C36.0622 15.6445 36.062 15.6445 36.0618 15.6445C36.0616 15.6445 36.0614 15.6445 36.0612 15.6445C36.061 15.6445 36.0608 15.6445 36.0607 15.6445C36.0605 15.6445 36.0603 15.6445 36.0601 15.6445C36.0599 15.6445 36.0597 15.6445 36.0595 15.6445C36.0593 15.6445 36.0591 15.6445 36.0589 15.6445C36.0588 15.6445 36.0586 15.6445 36.0584 15.6445C36.0582 15.6445 36.058 15.6445 36.0578 15.6445C36.0576 15.6445 36.0574 15.6445 36.0572 15.6445C36.057 15.6445 36.0568 15.6445 36.0567 15.6445C36.0565 15.6445 36.0563 15.6445 36.0561 15.6445C36.0559 15.6445 36.0557 15.6445 36.0555 15.6445C36.0553 15.6445 36.0551 15.6445 36.0549 15.6445C36.0547 15.6445 36.0546 15.6445 36.0544 15.6445C36.0542 15.6445 36.054 15.6445 36.0538 15.6445C36.0536 15.6445 36.0534 15.6445 36.0532 15.6445C36.053 15.6445 36.0528 15.6445 36.0527 15.6445C36.0525 15.6445 36.0523 15.6445 36.0521 15.6445C36.0519 15.6445 36.0517 15.6445 36.0515 15.6445C36.0513 15.6445 36.0511 15.6445 36.0509 15.6445C36.0507 15.6445 36.0506 15.6445 36.0504 15.6445C36.0502 15.6445 36.05 15.6445 36.0498 15.6445C36.0496 15.6445 36.0494 15.6445 36.0492 15.6445C36.049 15.6445 36.0488 15.6445 36.0487 15.6445C36.0485 15.6445 36.0483 15.6445 36.0481 15.6445C36.0479 15.6445 36.0477 15.6445 36.0475 15.6445C36.0473 15.6445 36.0471 15.6445 36.0469 15.6445C36.0468 15.6445 36.0466 15.6445 36.0464 15.6445C36.0462 15.6445 36.046 15.6445 36.0458 15.6445C36.0456 15.6445 36.0454 15.6445 36.0452 15.6445C36.045 15.6445 36.0449 15.6445 36.0447 15.6445C36.0445 15.6445 36.0443 15.6445 36.0441 15.6445C36.0439 15.6445 36.0437 15.6445 36.0435 15.6445C36.0433 15.6445 36.0431 15.6445 36.043 15.6445C36.0428 15.6445 36.0426 15.6445 36.0424 15.6445C36.0422 15.6445 36.042 15.6445 36.0418 15.6445C36.0416 15.6445 36.0414 15.6445 36.0413 15.6445C36.0411 15.6445 36.0409 15.6445 36.0407 15.6445C36.0405 15.6445 36.0403 15.6445 36.0401 15.6445C36.0399 15.6445 36.0397 15.6445 36.0395 15.6445C36.0394 15.6445 36.0392 15.6445 36.039 15.6445C36.0388 15.6445 36.0386 15.6445 36.0384 15.6445C36.0382 15.6445 36.038 15.6445 36.0378 15.6445C36.0377 15.6445 36.0375 15.6445 36.0373 15.6445C36.0371 15.6445 36.0369 15.6445 36.0367 15.6445C36.0365 15.6445 36.0363 15.6445 36.0361 15.6445C36.036 15.6445 36.0358 15.6445 36.0356 15.6445C36.0354 15.6445 36.0352 15.6445 36.035 15.6445C36.0348 15.6445 36.0346 15.6445 36.0344 15.6445C36.0343 15.6445 36.0341 15.6445 36.0339 15.6445C36.0337 15.6445 36.0335 15.6445 36.0333 15.6445C36.0331 15.6445 36.0329 15.6445 36.0327 15.6445C36.0326 15.6445 36.0324 15.6445 36.0322 15.6445C36.032 15.6445 36.0318 15.6445 36.0316 15.6445C36.0314 15.6445 36.0312 15.6445 36.031 15.6445C36.0309 15.6445 36.0307 15.6445 36.0305 15.6445C36.0303 15.6445 36.0301 15.6445 36.0299 15.6445C36.0297 15.6445 36.0295 15.6445 36.0293 15.6445C36.0292 15.6445 36.029 15.6445 36.0288 15.6445C36.0286 15.6445 36.0284 15.6445 36.0282 15.6445C36.028 15.6445 36.0278 15.6445 36.0276 15.6445C36.0275 15.6445 36.0273 15.6445 36.0271 15.6445C36.0269 15.6445 36.0267 15.6445 36.0265 15.6445C36.0263 15.6445 36.0261 15.6445 36.026 15.6445C36.0258 15.6445 36.0256 15.6445 36.0254 15.6445C36.0252 15.6445 36.025 15.6445 36.0248 15.6445C36.0246 15.6445 36.0244 15.6445 36.0243 15.6445C36.0241 15.6445 36.0239 15.6445 36.0237 15.6445C36.0235 15.6445 36.0233 15.6445 36.0231 15.6445C36.0229 15.6445 36.0228 15.6445 36.0226 15.6445C36.0224 15.6445 36.0222 15.6445 36.022 15.6445C36.0218 15.6445 36.0216 15.6445 36.0214 15.6445C36.0212 15.6445 36.0211 15.6445 36.0209 15.6445C36.0207 15.6445 36.0205 15.6445 36.0203 15.6445C36.0201 15.6445 36.0199 15.6445 36.0197 15.6445C36.0196 15.6445 36.0194 15.6445 36.0192 15.6445C36.019 15.6445 36.0188 15.6445 36.0186 15.6445C36.0184 15.6445 36.0182 15.6445 36.0181 15.6445C36.0179 15.6445 36.0177 15.6445 36.0175 15.6445C36.0173 15.6445 36.0171 15.6445 36.0169 15.6445C36.0167 15.6445 36.0166 15.6445 36.0164 15.6445C36.0162 15.6445 36.016 15.6445 36.0158 15.6445C36.0156 15.6445 36.0154 15.6445 36.0152 15.6445C36.0151 15.6445 36.0149 15.6445 36.0147 15.6445C36.0145 15.6445 36.0143 15.6445 36.0141 15.6445C36.0139 15.6445 36.0137 15.6445 36.0136 15.6445C36.0134 15.6445 36.0132 15.6445 36.013 15.6445C36.0128 15.6445 36.0126 15.6445 36.0124 15.6445C36.0122 15.6445 36.0121 15.6445 36.0119 15.6445C36.0117 15.6445 36.0115 15.6445 36.0113 15.6445C36.0111 15.6445 36.0109 15.6445 36.0107 15.6445C36.0106 15.6445 36.0104 15.6445 36.0102 15.6445C36.01 15.6445 36.0098 15.6445 36.0096 15.6445C36.0094 15.6445 36.0093 15.6445 36.0091 15.6445C36.0089 15.6445 36.0087 15.6445 36.0085 15.6445C36.0083 15.6445 36.0081 15.6445 36.0079 15.6445C36.0078 15.6445 36.0076 15.6445 36.0074 15.6445C36.0072 15.6445 36.007 15.6445 36.0068 15.6445C36.0066 15.6445 36.0065 15.6445 36.0063 15.6445C36.0061 15.6445 36.0059 15.6445 36.0057 15.6445C36.0055 15.6445 36.0053 15.6445 36.0051 15.6445C36.005 15.6445 36.0048 15.6445 36.0046 15.6445C36.0044 15.6445 36.0042 15.6445 36.004 15.6445C36.0038 15.6445 36.0037 15.6445 36.0035 15.6445C36.0033 15.6445 36.0031 15.6445 36.0029 15.6445C36.0027 15.6445 36.0025 15.6445 36.0023 15.6445C36.0022 15.6445 36.002 15.6445 36.0018 15.6445C36.0016 15.6445 36.0014 15.6445 36.0012 15.6445C36.001 15.6445 36.0009 15.6445 36.0007 15.6445C36.0005 15.6445 36.0003 15.6445 36.0001 15.6445C35.9999 15.6445 35.9997 15.6445 35.9995 15.6445C35.9994 15.6445 35.9992 15.6445 35.999 15.6445C35.9988 15.6445 35.9986 15.6445 35.9984 15.6445C35.9982 15.6445 35.9981 15.6445 35.9979 15.6445C35.9977 15.6445 35.9975 15.6445 35.9973 15.6445C35.9971 15.6445 35.9969 15.6445 35.9968 15.6445C35.9966 15.6445 35.9964 15.6445 35.9962 15.6445C35.996 15.6445 35.9958 15.6445 35.9956 15.6445C35.9955 15.6445 35.9953 15.6445 35.9951 15.6445C35.9949 15.6445 35.9947 15.6445 35.9945 15.6445C35.9943 15.6445 35.9942 15.6445 35.994 15.6445C35.9938 15.6445 35.9936 15.6445 35.9934 15.6445C35.9932 15.6445 35.993 15.6445 35.9929 15.6445C35.9927 15.6445 35.9925 15.6445 35.9923 15.6445C35.9921 15.6445 35.9919 15.6445 35.9917 15.6445C35.9916 15.6445 35.9914 15.6445 35.9912 15.6445C35.991 15.6445 35.9908 15.6445 35.9906 15.6445C35.9904 15.6445 35.9903 15.6445 35.9901 15.6445C35.9899 15.6445 35.9897 15.6445 35.9895 15.6445C35.9893 15.6445 35.9891 15.6445 35.989 15.6445C35.9888 15.6445 35.9886 15.6445 35.9884 15.6445C35.9882 15.6445 35.988 15.6445 35.9879 15.6445C35.9877 15.6445 35.9875 15.6445 35.9873 15.6445C35.9871 15.6445 35.9869 15.6445 35.9867 15.6445C35.9866 15.6445 35.9864 15.6445 35.9862 15.6445C35.986 15.6445 35.9858 15.6445 35.9856 15.6445C35.9854 15.6445 35.9853 15.6445 35.9851 15.6445C35.9849 15.6445 35.9847 15.6445 35.9845 15.6445C35.9843 15.6445 35.9841 15.6445 35.984 15.6445C35.9838 15.6445 35.9836 15.6445 35.9834 15.6445C35.9832 15.6445 35.983 15.6445 35.9829 15.6445C35.9827 15.6445 35.9825 15.6445 35.9823 15.6445C35.9821 15.6445 35.9819 15.6445 35.9817 15.6445C35.9816 15.6445 35.9814 15.6445 35.9812 15.6445C35.981 15.6445 35.9808 15.6445 35.9806 15.6445C35.9805 15.6445 35.9803 15.6445 35.9801 15.6445C35.9799 15.6445 35.9797 15.6445 35.9795 15.6445C35.9793 15.6445 35.9792 15.6445 35.979 15.6445C35.9788 15.6445 35.9786 15.6445 35.9784 15.6445C35.9782 15.6445 35.9781 15.6445 35.9779 15.6445C35.9777 15.6445 35.9775 15.6445 35.9773 15.6445C35.9771 15.6445 35.9769 15.6445 35.9768 15.6445C35.9766 15.6445 35.9764 15.6445 35.9762 15.6445C35.976 15.6445 35.9758 15.6445 35.9757 15.6445C35.9755 15.6445 35.9753 15.6445 35.9751 15.6445C35.9749 15.6445 35.9747 15.6445 35.9746 15.6445C35.9744 15.6445 35.9742 15.6445 35.974 15.6445C35.9738 15.6445 35.9736 15.6445 35.9734 15.6445C35.9733 15.6445 35.9731 15.6445 35.9729 15.6445C35.9727 15.6445 35.9725 15.6445 35.9723 15.6445C35.9722 15.6445 35.972 15.6445 35.9718 15.6445C35.9716 15.6445 35.9714 15.6445 35.9712 15.6445C35.9711 15.6445 35.9709 15.6445 35.9707 15.6445C35.9705 15.6445 35.9703 15.6445 35.9701 15.6445C35.97 15.6445 35.9698 15.6445 35.9696 15.6445C35.9694 15.6445 35.9692 15.6445 35.969 15.6445C35.9688 15.6445 35.9687 15.6445 35.9685 15.6445C35.9683 15.6445 35.9681 15.6445 35.9679 15.6445C35.9677 15.6445 35.9676 15.6445 35.9674 15.6445C35.9672 15.6445 35.967 15.6445 35.9668 15.6445C35.9666 15.6445 35.9665 15.6445 35.9663 15.6445C35.9661 15.6445 35.9659 15.6445 35.9657 15.6445C35.9655 15.6445 35.9654 15.6445 35.9652 15.6445C35.965 15.6445 35.9648 15.6445 35.9646 15.6445C35.9644 15.6445 35.9643 15.6445 35.9641 15.6445C35.9639 15.6445 35.9637 15.6445 35.9635 15.6445C35.9633 15.6445 35.9632 15.6445 35.963 15.6445C35.9628 15.6445 35.9626 15.6445 35.9624 15.6445C35.9622 15.6445 35.9621 15.6445 35.9619 15.6445C35.9617 15.6445 35.9615 15.6445 35.9613 15.6445V17.6445C35.9615 17.6445 35.9617 17.6445 35.9619 17.6445C35.9621 17.6445 35.9622 17.6445 35.9624 17.6445C35.9626 17.6445 35.9628 17.6445 35.963 17.6445C35.9632 17.6445 35.9633 17.6445 35.9635 17.6445C35.9637 17.6445 35.9639 17.6445 35.9641 17.6445C35.9643 17.6445 35.9644 17.6445 35.9646 17.6445C35.9648 17.6445 35.965 17.6445 35.9652 17.6445C35.9654 17.6445 35.9655 17.6445 35.9657 17.6445C35.9659 17.6445 35.9661 17.6445 35.9663 17.6445C35.9665 17.6445 35.9666 17.6445 35.9668 17.6445C35.967 17.6445 35.9672 17.6445 35.9674 17.6445C35.9676 17.6445 35.9677 17.6445 35.9679 17.6445C35.9681 17.6445 35.9683 17.6445 35.9685 17.6445C35.9687 17.6445 35.9688 17.6445 35.969 17.6445C35.9692 17.6445 35.9694 17.6445 35.9696 17.6445C35.9698 17.6445 35.97 17.6445 35.9701 17.6445C35.9703 17.6445 35.9705 17.6445 35.9707 17.6445C35.9709 17.6445 35.9711 17.6445 35.9712 17.6445C35.9714 17.6445 35.9716 17.6445 35.9718 17.6445C35.972 17.6445 35.9722 17.6445 35.9723 17.6445C35.9725 17.6445 35.9727 17.6445 35.9729 17.6445C35.9731 17.6445 35.9733 17.6445 35.9734 17.6445C35.9736 17.6445 35.9738 17.6445 35.974 17.6445C35.9742 17.6445 35.9744 17.6445 35.9746 17.6445C35.9747 17.6445 35.9749 17.6445 35.9751 17.6445C35.9753 17.6445 35.9755 17.6445 35.9757 17.6445C35.9758 17.6445 35.976 17.6445 35.9762 17.6445C35.9764 17.6445 35.9766 17.6445 35.9768 17.6445C35.9769 17.6445 35.9771 17.6445 35.9773 17.6445C35.9775 17.6445 35.9777 17.6445 35.9779 17.6445C35.9781 17.6445 35.9782 17.6445 35.9784 17.6445C35.9786 17.6445 35.9788 17.6445 35.979 17.6445C35.9792 17.6445 35.9793 17.6445 35.9795 17.6445C35.9797 17.6445 35.9799 17.6445 35.9801 17.6445C35.9803 17.6445 35.9805 17.6445 35.9806 17.6445C35.9808 17.6445 35.981 17.6445 35.9812 17.6445C35.9814 17.6445 35.9816 17.6445 35.9817 17.6445C35.9819 17.6445 35.9821 17.6445 35.9823 17.6445C35.9825 17.6445 35.9827 17.6445 35.9829 17.6445C35.983 17.6445 35.9832 17.6445 35.9834 17.6445C35.9836 17.6445 35.9838 17.6445 35.984 17.6445C35.9841 17.6445 35.9843 17.6445 35.9845 17.6445C35.9847 17.6445 35.9849 17.6445 35.9851 17.6445C35.9853 17.6445 35.9854 17.6445 35.9856 17.6445C35.9858 17.6445 35.986 17.6445 35.9862 17.6445C35.9864 17.6445 35.9866 17.6445 35.9867 17.6445C35.9869 17.6445 35.9871 17.6445 35.9873 17.6445C35.9875 17.6445 35.9877 17.6445 35.9879 17.6445C35.988 17.6445 35.9882 17.6445 35.9884 17.6445C35.9886 17.6445 35.9888 17.6445 35.989 17.6445C35.9891 17.6445 35.9893 17.6445 35.9895 17.6445C35.9897 17.6445 35.9899 17.6445 35.9901 17.6445C35.9903 17.6445 35.9904 17.6445 35.9906 17.6445C35.9908 17.6445 35.991 17.6445 35.9912 17.6445C35.9914 17.6445 35.9916 17.6445 35.9917 17.6445C35.9919 17.6445 35.9921 17.6445 35.9923 17.6445C35.9925 17.6445 35.9927 17.6445 35.9929 17.6445C35.993 17.6445 35.9932 17.6445 35.9934 17.6445C35.9936 17.6445 35.9938 17.6445 35.994 17.6445C35.9942 17.6445 35.9943 17.6445 35.9945 17.6445C35.9947 17.6445 35.9949 17.6445 35.9951 17.6445C35.9953 17.6445 35.9955 17.6445 35.9956 17.6445C35.9958 17.6445 35.996 17.6445 35.9962 17.6445C35.9964 17.6445 35.9966 17.6445 35.9968 17.6445C35.9969 17.6445 35.9971 17.6445 35.9973 17.6445C35.9975 17.6445 35.9977 17.6445 35.9979 17.6445C35.9981 17.6445 35.9982 17.6445 35.9984 17.6445C35.9986 17.6445 35.9988 17.6445 35.999 17.6445C35.9992 17.6445 35.9994 17.6445 35.9995 17.6445C35.9997 17.6445 35.9999 17.6445 36.0001 17.6445C36.0003 17.6445 36.0005 17.6445 36.0007 17.6445C36.0009 17.6445 36.001 17.6445 36.0012 17.6445C36.0014 17.6445 36.0016 17.6445 36.0018 17.6445C36.002 17.6445 36.0022 17.6445 36.0023 17.6445C36.0025 17.6445 36.0027 17.6445 36.0029 17.6445C36.0031 17.6445 36.0033 17.6445 36.0035 17.6445C36.0037 17.6445 36.0038 17.6445 36.004 17.6445C36.0042 17.6445 36.0044 17.6445 36.0046 17.6445C36.0048 17.6445 36.005 17.6445 36.0051 17.6445C36.0053 17.6445 36.0055 17.6445 36.0057 17.6445C36.0059 17.6445 36.0061 17.6445 36.0063 17.6445C36.0065 17.6445 36.0066 17.6445 36.0068 17.6445C36.007 17.6445 36.0072 17.6445 36.0074 17.6445C36.0076 17.6445 36.0078 17.6445 36.0079 17.6445C36.0081 17.6445 36.0083 17.6445 36.0085 17.6445C36.0087 17.6445 36.0089 17.6445 36.0091 17.6445C36.0093 17.6445 36.0094 17.6445 36.0096 17.6445C36.0098 17.6445 36.01 17.6445 36.0102 17.6445C36.0104 17.6445 36.0106 17.6445 36.0107 17.6445C36.0109 17.6445 36.0111 17.6445 36.0113 17.6445C36.0115 17.6445 36.0117 17.6445 36.0119 17.6445C36.0121 17.6445 36.0122 17.6445 36.0124 17.6445C36.0126 17.6445 36.0128 17.6445 36.013 17.6445C36.0132 17.6445 36.0134 17.6445 36.0136 17.6445C36.0137 17.6445 36.0139 17.6445 36.0141 17.6445C36.0143 17.6445 36.0145 17.6445 36.0147 17.6445C36.0149 17.6445 36.0151 17.6445 36.0152 17.6445C36.0154 17.6445 36.0156 17.6445 36.0158 17.6445C36.016 17.6445 36.0162 17.6445 36.0164 17.6445C36.0166 17.6445 36.0167 17.6445 36.0169 17.6445C36.0171 17.6445 36.0173 17.6445 36.0175 17.6445C36.0177 17.6445 36.0179 17.6445 36.0181 17.6445C36.0182 17.6445 36.0184 17.6445 36.0186 17.6445C36.0188 17.6445 36.019 17.6445 36.0192 17.6445C36.0194 17.6445 36.0196 17.6445 36.0197 17.6445C36.0199 17.6445 36.0201 17.6445 36.0203 17.6445C36.0205 17.6445 36.0207 17.6445 36.0209 17.6445C36.0211 17.6445 36.0212 17.6445 36.0214 17.6445C36.0216 17.6445 36.0218 17.6445 36.022 17.6445C36.0222 17.6445 36.0224 17.6445 36.0226 17.6445C36.0228 17.6445 36.0229 17.6445 36.0231 17.6445C36.0233 17.6445 36.0235 17.6445 36.0237 17.6445C36.0239 17.6445 36.0241 17.6445 36.0243 17.6445C36.0244 17.6445 36.0246 17.6445 36.0248 17.6445C36.025 17.6445 36.0252 17.6445 36.0254 17.6445C36.0256 17.6445 36.0258 17.6445 36.026 17.6445C36.0261 17.6445 36.0263 17.6445 36.0265 17.6445C36.0267 17.6445 36.0269 17.6445 36.0271 17.6445C36.0273 17.6445 36.0275 17.6445 36.0276 17.6445C36.0278 17.6445 36.028 17.6445 36.0282 17.6445C36.0284 17.6445 36.0286 17.6445 36.0288 17.6445C36.029 17.6445 36.0292 17.6445 36.0293 17.6445C36.0295 17.6445 36.0297 17.6445 36.0299 17.6445C36.0301 17.6445 36.0303 17.6445 36.0305 17.6445C36.0307 17.6445 36.0309 17.6445 36.031 17.6445C36.0312 17.6445 36.0314 17.6445 36.0316 17.6445C36.0318 17.6445 36.032 17.6445 36.0322 17.6445C36.0324 17.6445 36.0326 17.6445 36.0327 17.6445C36.0329 17.6445 36.0331 17.6445 36.0333 17.6445C36.0335 17.6445 36.0337 17.6445 36.0339 17.6445C36.0341 17.6445 36.0343 17.6445 36.0344 17.6445C36.0346 17.6445 36.0348 17.6445 36.035 17.6445C36.0352 17.6445 36.0354 17.6445 36.0356 17.6445C36.0358 17.6445 36.036 17.6445 36.0361 17.6445C36.0363 17.6445 36.0365 17.6445 36.0367 17.6445C36.0369 17.6445 36.0371 17.6445 36.0373 17.6445C36.0375 17.6445 36.0377 17.6445 36.0378 17.6445C36.038 17.6445 36.0382 17.6445 36.0384 17.6445C36.0386 17.6445 36.0388 17.6445 36.039 17.6445C36.0392 17.6445 36.0394 17.6445 36.0395 17.6445C36.0397 17.6445 36.0399 17.6445 36.0401 17.6445C36.0403 17.6445 36.0405 17.6445 36.0407 17.6445C36.0409 17.6445 36.0411 17.6445 36.0413 17.6445C36.0414 17.6445 36.0416 17.6445 36.0418 17.6445C36.042 17.6445 36.0422 17.6445 36.0424 17.6445C36.0426 17.6445 36.0428 17.6445 36.043 17.6445C36.0431 17.6445 36.0433 17.6445 36.0435 17.6445C36.0437 17.6445 36.0439 17.6445 36.0441 17.6445C36.0443 17.6445 36.0445 17.6445 36.0447 17.6445C36.0449 17.6445 36.045 17.6445 36.0452 17.6445C36.0454 17.6445 36.0456 17.6445 36.0458 17.6445C36.046 17.6445 36.0462 17.6445 36.0464 17.6445C36.0466 17.6445 36.0468 17.6445 36.0469 17.6445C36.0471 17.6445 36.0473 17.6445 36.0475 17.6445C36.0477 17.6445 36.0479 17.6445 36.0481 17.6445C36.0483 17.6445 36.0485 17.6445 36.0487 17.6445C36.0488 17.6445 36.049 17.6445 36.0492 17.6445C36.0494 17.6445 36.0496 17.6445 36.0498 17.6445C36.05 17.6445 36.0502 17.6445 36.0504 17.6445C36.0506 17.6445 36.0507 17.6445 36.0509 17.6445C36.0511 17.6445 36.0513 17.6445 36.0515 17.6445C36.0517 17.6445 36.0519 17.6445 36.0521 17.6445C36.0523 17.6445 36.0525 17.6445 36.0527 17.6445C36.0528 17.6445 36.053 17.6445 36.0532 17.6445C36.0534 17.6445 36.0536 17.6445 36.0538 17.6445C36.054 17.6445 36.0542 17.6445 36.0544 17.6445C36.0546 17.6445 36.0547 17.6445 36.0549 17.6445C36.0551 17.6445 36.0553 17.6445 36.0555 17.6445C36.0557 17.6445 36.0559 17.6445 36.0561 17.6445C36.0563 17.6445 36.0565 17.6445 36.0567 17.6445C36.0568 17.6445 36.057 17.6445 36.0572 17.6445C36.0574 17.6445 36.0576 17.6445 36.0578 17.6445C36.058 17.6445 36.0582 17.6445 36.0584 17.6445C36.0586 17.6445 36.0588 17.6445 36.0589 17.6445C36.0591 17.6445 36.0593 17.6445 36.0595 17.6445C36.0597 17.6445 36.0599 17.6445 36.0601 17.6445C36.0603 17.6445 36.0605 17.6445 36.0607 17.6445C36.0608 17.6445 36.061 17.6445 36.0612 17.6445C36.0614 17.6445 36.0616 17.6445 36.0618 17.6445C36.062 17.6445 36.0622 17.6445 36.0624 17.6445C36.0626 17.6445 36.0628 17.6445 36.063 17.6445C36.0631 17.6445 36.0633 17.6445 36.0635 17.6445C36.0637 17.6445 36.0639 17.6445 36.0641 17.6445C36.0643 17.6445 36.0645 17.6445 36.0647 17.6445C36.0649 17.6445 36.0651 17.6445 36.0652 17.6445C36.0654 17.6445 36.0656 17.6445 36.0658 17.6445C36.066 17.6445 36.0662 17.6445 36.0664 17.6445C36.0666 17.6445 36.0668 17.6445 36.067 17.6445C36.0672 17.6445 36.0674 17.6445 36.0675 17.6445C36.0677 17.6445 36.0679 17.6445 36.0681 17.6445C36.0683 17.6445 36.0685 17.6445 36.0687 17.6445C36.0689 17.6445 36.0691 17.6445 36.0693 17.6445C36.0695 17.6445 36.0697 17.6445 36.0698 17.6445C36.07 17.6445 36.0702 17.6445 36.0704 17.6445C36.0706 17.6445 36.0708 17.6445 36.071 17.6445C36.0712 17.6445 36.0714 17.6445 36.0716 17.6445C36.0718 17.6445 36.072 17.6445 36.0721 17.6445C36.0723 17.6445 36.0725 17.6445 36.0727 17.6445C36.0729 17.6445 36.0731 17.6445 36.0733 17.6445C36.0735 17.6445 36.0737 17.6445 36.0739 17.6445C36.0741 17.6445 36.0743 17.6445 36.0745 17.6445C36.0746 17.6445 36.0748 17.6445 36.075 17.6445C36.0752 17.6445 36.0754 17.6445 36.0756 17.6445C36.0758 17.6445 36.076 17.6445 36.0762 17.6445C36.0764 17.6445 36.0766 17.6445 36.0768 17.6445C36.077 17.6445 36.0771 17.6445 36.0773 17.6445C36.0775 17.6445 36.0777 17.6445 36.0779 17.6445C36.0781 17.6445 36.0783 17.6445 36.0785 17.6445C36.0787 17.6445 36.0789 17.6445 36.0791 17.6445C36.0793 17.6445 36.0794 17.6445 36.0796 17.6445C36.0798 17.6445 36.08 17.6445 36.0802 17.6445C36.0804 17.6445 36.0806 17.6445 36.0808 17.6445C36.081 17.6445 36.0812 17.6445 36.0814 17.6445C36.0816 17.6445 36.0818 17.6445 36.082 17.6445C36.0821 17.6445 36.0823 17.6445 36.0825 17.6445C36.0827 17.6445 36.0829 17.6445 36.0831 17.6445C36.0833 17.6445 36.0835 17.6445 36.0837 17.6445C36.0839 17.6445 36.0841 17.6445 36.0843 17.6445C36.0845 17.6445 36.0847 17.6445 36.0848 17.6445C36.085 17.6445 36.0852 17.6445 36.0854 17.6445C36.0856 17.6445 36.0858 17.6445 36.086 17.6445C36.0862 17.6445 36.0864 17.6445 36.0866 17.6445C36.0868 17.6445 36.087 17.6445 36.0872 17.6445C36.0874 17.6445 36.0875 17.6445 36.0877 17.6445C36.0879 17.6445 36.0881 17.6445 36.0883 17.6445C36.0885 17.6445 36.0887 17.6445 36.0889 17.6445C36.0891 17.6445 36.0893 17.6445 36.0895 17.6445C36.0897 17.6445 36.0899 17.6445 36.0901 17.6445C36.0903 17.6445 36.0904 17.6445 36.0906 17.6445C36.0908 17.6445 36.091 17.6445 36.0912 17.6445C36.0914 17.6445 36.0916 17.6445 36.0918 17.6445C36.092 17.6445 36.0922 17.6445 36.0924 17.6445C36.0926 17.6445 36.0928 17.6445 36.093 17.6445C36.0932 17.6445 36.0933 17.6445 36.0935 17.6445C36.0937 17.6445 36.0939 17.6445 36.0941 17.6445C36.0943 17.6445 36.0945 17.6445 36.0947 17.6445C36.0949 17.6445 36.0951 17.6445 36.0953 17.6445C36.0955 17.6445 36.0957 17.6445 36.0959 17.6445C36.0961 17.6445 36.0963 17.6445 36.0964 17.6445C36.0966 17.6445 36.0968 17.6445 36.097 17.6445C36.0972 17.6445 36.0974 17.6445 36.0976 17.6445C36.0978 17.6445 36.098 17.6445 36.0982 17.6445C36.0984 17.6445 36.0986 17.6445 36.0988 17.6445C36.099 17.6445 36.0992 17.6445 36.0994 17.6445C36.0995 17.6445 36.0997 17.6445 36.0999 17.6445C36.1001 17.6445 36.1003 17.6445 36.1005 17.6445C36.1007 17.6445 36.1009 17.6445 36.1011 17.6445C36.1013 17.6445 36.1015 17.6445 36.1017 17.6445C36.1019 17.6445 36.1021 17.6445 36.1023 17.6445C36.1025 17.6445 36.1027 17.6445 36.1028 17.6445C36.103 17.6445 36.1032 17.6445 36.1034 17.6445C36.1036 17.6445 36.1038 17.6445 36.104 17.6445C36.1042 17.6445 36.1044 17.6445 36.1046 17.6445C36.1048 17.6445 36.105 17.6445 36.1052 17.6445C36.1054 17.6445 36.1056 17.6445 36.1058 17.6445C36.106 17.6445 36.1062 17.6445 36.1063 17.6445C36.1065 17.6445 36.1067 17.6445 36.1069 17.6445C36.1071 17.6445 36.1073 17.6445 36.1075 17.6445C36.1077 17.6445 36.1079 17.6445 36.1081 17.6445C36.1083 17.6445 36.1085 17.6445 36.1087 17.6445C36.1089 17.6445 36.1091 17.6445 36.1093 17.6445C36.1095 17.6445 36.1097 17.6445 36.1099 17.6445C36.11 17.6445 36.1102 17.6445 36.1104 17.6445C36.1106 17.6445 36.1108 17.6445 36.111 17.6445C36.1112 17.6445 36.1114 17.6445 36.1116 17.6445C36.1118 17.6445 36.112 17.6445 36.1122 17.6445C36.1124 17.6445 36.1126 17.6445 36.1128 17.6445C36.113 17.6445 36.1132 17.6445 36.1134 17.6445C36.1136 17.6445 36.1138 17.6445 36.1139 17.6445C36.1141 17.6445 36.1143 17.6445 36.1145 17.6445C36.1147 17.6445 36.1149 17.6445 36.1151 17.6445C36.1153 17.6445 36.1155 17.6445 36.1157 17.6445C36.1159 17.6445 36.1161 17.6445 36.1163 17.6445C36.1165 17.6445 36.1167 17.6445 36.1169 17.6445C36.1171 17.6445 36.1173 17.6445 36.1175 17.6445C36.1177 17.6445 36.1179 17.6445 36.118 17.6445C36.1182 17.6445 36.1184 17.6445 36.1186 17.6445C36.1188 17.6445 36.119 17.6445 36.1192 17.6445C36.1194 17.6445 36.1196 17.6445 36.1198 17.6445C36.12 17.6445 36.1202 17.6445 36.1204 17.6445C36.1206 17.6445 36.1208 17.6445 36.121 17.6445C36.1212 17.6445 36.1214 17.6445 36.1216 17.6445C36.1218 17.6445 36.122 17.6445 36.1222 17.6445C36.1224 17.6445 36.1225 17.6445 36.1227 17.6445C36.1229 17.6445 36.1231 17.6445 36.1233 17.6445C36.1235 17.6445 36.1237 17.6445 36.1239 17.6445C36.1241 17.6445 36.1243 17.6445 36.1245 17.6445C36.1247 17.6445 36.1249 17.6445 36.1251 17.6445C36.1253 17.6445 36.1255 17.6445 36.1257 17.6445C36.1259 17.6445 36.1261 17.6445 36.1263 17.6445C36.1265 17.6445 36.1267 17.6445 36.1269 17.6445C36.1271 17.6445 36.1273 17.6445 36.1274 17.6445C36.1276 17.6445 36.1278 17.6445 36.128 17.6445C36.1282 17.6445 36.1284 17.6445 36.1286 17.6445C36.1288 17.6445 36.129 17.6445 36.1292 17.6445C36.1294 17.6445 36.1296 17.6445 36.1298 17.6445C36.13 17.6445 36.1302 17.6445 36.1304 17.6445C36.1306 17.6445 36.1308 17.6445 36.131 17.6445C36.1312 17.6445 36.1314 17.6445 36.1316 17.6445C36.1318 17.6445 36.132 17.6445 36.1322 17.6445C36.1324 17.6445 36.1326 17.6445 36.1327 17.6445C36.1329 17.6445 36.1331 17.6445 36.1333 17.6445C36.1335 17.6445 36.1337 17.6445 36.1339 17.6445C36.1341 17.6445 36.1343 17.6445 36.1345 17.6445C36.1347 17.6445 36.1349 17.6445 36.1351 17.6445C36.1353 17.6445 36.1355 17.6445 36.1357 17.6445C36.1359 17.6445 36.1361 17.6445 36.1363 17.6445C36.1365 17.6445 36.1367 17.6445 36.1369 17.6445C36.1371 17.6445 36.1373 17.6445 36.1375 17.6445C36.1377 17.6445 36.1379 17.6445 36.1381 17.6445C36.1383 17.6445 36.1385 17.6445 36.1387 17.6445C36.1388 17.6445 36.139 17.6445 36.1392 17.6445C36.1394 17.6445 36.1396 17.6445 36.1398 17.6445C36.14 17.6445 36.1402 17.6445 36.1404 17.6445C36.1406 17.6445 36.1408 17.6445 36.141 17.6445C36.1412 17.6445 36.1414 17.6445 36.1416 17.6445C36.1418 17.6445 36.142 17.6445 36.1422 17.6445C36.1424 17.6445 36.1426 17.6445 36.1428 17.6445C36.143 17.6445 36.1432 17.6445 36.1434 17.6445C36.1436 17.6445 36.1438 17.6445 36.144 17.6445C36.1442 17.6445 36.1444 17.6445 36.1446 17.6445C36.1448 17.6445 36.145 17.6445 36.1452 17.6445C36.1454 17.6445 36.1456 17.6445 36.1458 17.6445C36.146 17.6445 36.1461 17.6445 36.1463 17.6445C36.1465 17.6445 36.1467 17.6445 36.1469 17.6445C36.1471 17.6445 36.1473 17.6445 36.1475 17.6445C36.1477 17.6445 36.1479 17.6445 36.1481 17.6445C36.1483 17.6445 36.1485 17.6445 36.1487 17.6445C36.1489 17.6445 36.1491 17.6445 36.1493 17.6445C36.1495 17.6445 36.1497 17.6445 36.1499 17.6445C36.1501 17.6445 36.1503 17.6445 36.1505 17.6445C36.1507 17.6445 36.1509 17.6445 36.1511 17.6445C36.1513 17.6445 36.1515 17.6445 36.1517 17.6445C36.1519 17.6445 36.1521 17.6445 36.1523 17.6445C36.1525 17.6445 36.1527 17.6445 36.1529 17.6445C36.1531 17.6445 36.1533 17.6445 36.1535 17.6445C36.1537 17.6445 36.1539 17.6445 36.1541 17.6445C36.1543 17.6445 36.1545 17.6445 36.1547 17.6445C36.1549 17.6445 36.1551 17.6445 36.1553 17.6445C36.1555 17.6445 36.1557 17.6445 36.1558 17.6445C36.156 17.6445 36.1562 17.6445 36.1564 17.6445C36.1566 17.6445 36.1568 17.6445 36.157 17.6445C36.1572 17.6445 36.1574 17.6445 36.1576 17.6445C36.1578 17.6445 36.158 17.6445 36.1582 17.6445C36.1584 17.6445 36.1586 17.6445 36.1588 17.6445C36.159 17.6445 36.1592 17.6445 36.1594 17.6445C36.1596 17.6445 36.1598 17.6445 36.16 17.6445C36.1602 17.6445 36.1604 17.6445 36.1606 17.6445C36.1608 17.6445 36.161 17.6445 36.1612 17.6445C36.1614 17.6445 36.1616 17.6445 36.1618 17.6445C36.162 17.6445 36.1622 17.6445 36.1624 17.6445C36.1626 17.6445 36.1628 17.6445 36.163 17.6445C36.1632 17.6445 36.1634 17.6445 36.1636 17.6445C36.1638 17.6445 36.164 17.6445 36.1642 17.6445C36.1644 17.6445 36.1646 17.6445 36.1648 17.6445C36.165 17.6445 36.1652 17.6445 36.1654 17.6445C36.1656 17.6445 36.1658 17.6445 36.166 17.6445C36.1662 17.6445 36.1664 17.6445 36.1666 17.6445C36.1668 17.6445 36.167 17.6445 36.1672 17.6445C36.1674 17.6445 36.1676 17.6445 36.1678 17.6445C36.168 17.6445 36.1682 17.6445 36.1684 17.6445C36.1686 17.6445 36.1688 17.6445 36.169 17.6445C36.1692 17.6445 36.1694 17.6445 36.1696 17.6445C36.1698 17.6445 36.17 17.6445 36.1702 17.6445C36.1704 17.6445 36.1706 17.6445 36.1708 17.6445C36.171 17.6445 36.1712 17.6445 36.1714 17.6445C36.1716 17.6445 36.1718 17.6445 36.172 17.6445C36.1722 17.6445 36.1724 17.6445 36.1726 17.6445C36.1728 17.6445 36.173 17.6445 36.1732 17.6445C36.1734 17.6445 36.1736 17.6445 36.1738 17.6445C36.174 17.6445 36.1742 17.6445 36.1744 17.6445C36.1746 17.6445 36.1748 17.6445 36.175 17.6445C36.1752 17.6445 36.1754 17.6445 36.1756 17.6445C36.1758 17.6445 36.176 17.6445 36.1762 17.6445C36.1764 17.6445 36.1766 17.6445 36.1768 17.6445C36.177 17.6445 36.1772 17.6445 36.1774 17.6445C36.1776 17.6445 36.1777 17.6445 36.178 17.6445C36.1782 17.6445 36.1784 17.6445 36.1786 17.6445C36.1788 17.6445 36.179 17.6445 36.1791 17.6445C36.1794 17.6445 36.1796 17.6445 36.1798 17.6445C36.18 17.6445 36.1802 17.6445 36.1804 17.6445C36.1806 17.6445 36.1808 17.6445 36.181 17.6445C36.1812 17.6445 36.1814 17.6445 36.1816 17.6445C36.1818 17.6445 36.182 17.6445 36.1822 17.6445C36.1824 17.6445 36.1826 17.6445 36.1828 17.6445C36.183 17.6445 36.1832 17.6445 36.1834 17.6445C36.1836 17.6445 36.1838 17.6445 36.184 17.6445C36.1842 17.6445 36.1844 17.6445 36.1846 17.6445C36.1848 17.6445 36.185 17.6445 36.1852 17.6445C36.1854 17.6445 36.1856 17.6445 36.1858 17.6445C36.186 17.6445 36.1862 17.6445 36.1864 17.6445C36.1866 17.6445 36.1868 17.6445 36.187 17.6445C36.1872 17.6445 36.1874 17.6445 36.1876 17.6445C36.1878 17.6445 36.188 17.6445 36.1882 17.6445C36.1884 17.6445 36.1886 17.6445 36.1888 17.6445C36.189 17.6445 36.1892 17.6445 36.1894 17.6445C36.1896 17.6445 36.1898 17.6445 36.19 17.6445C36.1902 17.6445 36.1904 17.6445 36.1906 17.6445C36.1908 17.6445 36.191 17.6445 36.1912 17.6445C36.1914 17.6445 36.1916 17.6445 36.1918 17.6445C36.192 17.6445 36.1922 17.6445 36.1924 17.6445C36.1926 17.6445 36.1928 17.6445 36.193 17.6445C36.1932 17.6445 36.1934 17.6445 36.1936 17.6445C36.1938 17.6445 36.194 17.6445 36.1942 17.6445C36.1944 17.6445 36.1946 17.6445 36.1948 17.6445C36.195 17.6445 36.1952 17.6445 36.1954 17.6445C36.1956 17.6445 36.1958 17.6445 36.196 17.6445C36.1962 17.6445 36.1964 17.6445 36.1966 17.6445C36.1968 17.6445 36.197 17.6445 36.1972 17.6445C36.1974 17.6445 36.1976 17.6445 36.1978 17.6445C36.198 17.6445 36.1982 17.6445 36.1984 17.6445C36.1986 17.6445 36.1988 17.6445 36.199 17.6445C36.1992 17.6445 36.1994 17.6445 36.1996 17.6445C36.1998 17.6445 36.2 17.6445 36.2002 17.6445C36.2004 17.6445 36.2006 17.6445 36.2008 17.6445C36.201 17.6445 36.2012 17.6445 36.2014 17.6445C36.2016 17.6445 36.2019 17.6445 36.2021 17.6445C36.2023 17.6445 36.2025 17.6445 36.2027 17.6445C36.2029 17.6445 36.2031 17.6445 36.2033 17.6445C36.2035 17.6445 36.2037 17.6445 36.2039 17.6445C36.2041 17.6445 36.2043 17.6445 36.2045 17.6445C36.2047 17.6445 36.2049 17.6445 36.2051 17.6445C36.2053 17.6445 36.2055 17.6445 36.2057 17.6445C36.2059 17.6445 36.2061 17.6445 36.2063 17.6445C36.2065 17.6445 36.2067 17.6445 36.2069 17.6445C36.2071 17.6445 36.2073 17.6445 36.2075 17.6445C36.2077 17.6445 36.2079 17.6445 36.2081 17.6445C36.2083 17.6445 36.2085 17.6445 36.2087 17.6445C36.2089 17.6445 36.2091 17.6445 36.2093 17.6445C36.2095 17.6445 36.2097 17.6445 36.2099 17.6445C36.2101 17.6445 36.2103 17.6445 36.2105 17.6445C36.2107 17.6445 36.2109 17.6445 36.2111 17.6445C36.2113 17.6445 36.2116 17.6445 36.2118 17.6445C36.212 17.6445 36.2122 17.6445 36.2124 17.6445C36.2126 17.6445 36.2128 17.6445 36.213 17.6445C36.2132 17.6445 36.2134 17.6445 36.2136 17.6445C36.2138 17.6445 36.214 17.6445 36.2142 17.6445C36.2144 17.6445 36.2146 17.6445 36.2148 17.6445C36.215 17.6445 36.2152 17.6445 36.2154 17.6445C36.2156 17.6445 36.2158 17.6445 36.216 17.6445C36.2162 17.6445 36.2164 17.6445 36.2166 17.6445C36.2168 17.6445 36.217 17.6445 36.2172 17.6445C36.2174 17.6445 36.2176 17.6445 36.2178 17.6445C36.218 17.6445 36.2182 17.6445 36.2184 17.6445C36.2186 17.6445 36.2188 17.6445 36.2191 17.6445C36.2193 17.6445 36.2195 17.6445 36.2197 17.6445C36.2199 17.6445 36.2201 17.6445 36.2203 17.6445C36.2205 17.6445 36.2207 17.6445 36.2209 17.6445C36.2211 17.6445 36.2213 17.6445 36.2215 17.6445C36.2217 17.6445 36.2219 17.6445 36.2221 17.6445C36.2223 17.6445 36.2225 17.6445 36.2227 17.6445C36.2229 17.6445 36.2231 17.6445 36.2233 17.6445C36.2235 17.6445 36.2237 17.6445 36.2239 17.6445C36.2241 17.6445 36.2243 17.6445 36.2245 17.6445C36.2247 17.6445 36.2249 17.6445 36.2252 17.6445C36.2254 17.6445 36.2256 17.6445 36.2258 17.6445C36.226 17.6445 36.2262 17.6445 36.2264 17.6445C36.2266 17.6445 36.2268 17.6445 36.227 17.6445C36.2272 17.6445 36.2274 17.6445 36.2276 17.6445C36.2278 17.6445 36.228 17.6445 36.2282 17.6445C36.2284 17.6445 36.2286 17.6445 36.2288 17.6445C36.229 17.6445 36.2292 17.6445 36.2294 17.6445C36.2296 17.6445 36.2298 17.6445 36.23 17.6445C36.2302 17.6445 36.2304 17.6445 36.2306 17.6445C36.2309 17.6445 36.2311 17.6445 36.2313 17.6445C36.2315 17.6445 36.2317 17.6445 36.2319 17.6445C36.2321 17.6445 36.2323 17.6445 36.2325 17.6445C36.2327 17.6445 36.2329 17.6445 36.2331 17.6445C36.2333 17.6445 36.2335 17.6445 36.2337 17.6445C36.2339 17.6445 36.2341 17.6445 36.2343 17.6445C36.2345 17.6445 36.2347 17.6445 36.2349 17.6445C36.2351 17.6445 36.2353 17.6445 36.2355 17.6445C36.2357 17.6445 36.236 17.6445 36.2362 17.6445C36.2364 17.6445 36.2366 17.6445 36.2368 17.6445C36.237 17.6445 36.2372 17.6445 36.2374 17.6445C36.2376 17.6445 36.2378 17.6445 36.238 17.6445C36.2382 17.6445 36.2384 17.6445 36.2386 17.6445C36.2388 17.6445 36.239 17.6445 36.2392 17.6445C36.2394 17.6445 36.2396 17.6445 36.2398 17.6445C36.24 17.6445 36.2402 17.6445 36.2404 17.6445C36.2407 17.6445 36.2409 17.6445 36.2411 17.6445C36.2413 17.6445 36.2415 17.6445 36.2417 17.6445C36.2419 17.6445 36.2421 17.6445 36.2423 17.6445C36.2425 17.6445 36.2427 17.6445 36.2429 17.6445C36.2431 17.6445 36.2433 17.6445 36.2435 17.6445C36.2437 17.6445 36.2439 17.6445 36.2441 17.6445C36.2443 17.6445 36.2445 17.6445 36.2447 17.6445C36.245 17.6445 36.2452 17.6445 36.2454 17.6445C36.2456 17.6445 36.2458 17.6445 36.246 17.6445C36.2462 17.6445 36.2464 17.6445 36.2466 17.6445C36.2468 17.6445 36.247 17.6445 36.2472 17.6445C36.2474 17.6445 36.2476 17.6445 36.2478 17.6445C36.248 17.6445 36.2482 17.6445 36.2484 17.6445C36.2486 17.6445 36.2488 17.6445 36.2491 17.6445C36.2493 17.6445 36.2495 17.6445 36.2497 17.6445C36.2499 17.6445 36.2501 17.6445 36.2503 17.6445C36.2505 17.6445 36.2507 17.6445 36.2509 17.6445C36.2511 17.6445 36.2513 17.6445 36.2515 17.6445C36.2517 17.6445 36.2519 17.6445 36.2521 17.6445C36.2523 17.6445 36.2525 17.6445 36.2528 17.6445C36.253 17.6445 36.2532 17.6445 36.2534 17.6445C36.2536 17.6445 36.2538 17.6445 36.254 17.6445C36.2542 17.6445 36.2544 17.6445 36.2546 17.6445C36.2548 17.6445 36.255 17.6445 36.2552 17.6445C36.2554 17.6445 36.2556 17.6445 36.2558 17.6445C36.256 17.6445 36.2562 17.6445 36.2565 17.6445C36.2567 17.6445 36.2569 17.6445 36.2571 17.6445C36.2573 17.6445 36.2575 17.6445 36.2577 17.6445C36.2579 17.6445 36.2581 17.6445 36.2583 17.6445C36.2585 17.6445 36.2587 17.6445 36.2589 17.6445C36.2591 17.6445 36.2593 17.6445 36.2595 17.6445C36.2597 17.6445 36.2599 17.6445 36.2602 17.6445V15.6445ZM36.9613 16.6445V12.5137H34.9613V16.6445H36.9613ZM35.9613 13.5137H36.3305V11.5137H35.9613V13.5137ZM36.3305 13.5137C37.6435 13.5137 38.8105 13.2294 39.6868 12.5155L38.4234 10.965C38.034 11.2823 37.3847 11.5137 36.3305 11.5137V13.5137ZM39.6868 12.5155C40.601 11.7705 41.0043 10.7068 41.0043 9.49023H39.0043C39.0043 10.2424 38.7748 10.6787 38.4234 10.965L39.6868 12.5155ZM41.0043 9.49023C41.0043 8.44793 40.6335 7.53289 39.87 6.83573L38.5214 8.3127C38.836 8.59993 39.0043 8.96223 39.0043 9.49023H41.0043ZM39.878 6.84316C39.1371 6.15167 38.2003 5.83594 37.1566 5.83594V7.83594C37.7771 7.83594 38.1996 8.01239 38.5134 8.30527L39.878 6.84316ZM37.1566 5.83594C36.085 5.83594 35.1132 6.12908 34.3839 6.84107L35.781 8.27221C36.036 8.02326 36.447 7.83594 37.1566 7.83594V5.83594ZM34.3839 6.84107C33.6577 7.54997 33.3377 8.5056 33.3093 9.56905L35.3086 9.62236C35.3271 8.92799 35.5228 8.52425 35.781 8.27221L34.3839 6.84107ZM34.309 8.5957H28.0863V10.5957H34.309V8.5957ZM29.0861 9.61521C29.1282 7.45953 29.8646 5.89243 31.2308 4.7818L29.9692 3.22992C28.0776 4.76773 27.1382 6.92719 27.0865 9.57619L29.0861 9.61521ZM31.2314 4.78129C32.6353 3.63818 34.673 3.00195 37.473 3.00195V1.00195C34.3903 1.00195 31.846 1.70166 29.9686 3.23042L31.2314 4.78129ZM37.473 3.00195C39.9544 3.00195 41.7698 3.56689 43.0373 4.57698L44.2838 3.01286C42.5513 1.63233 40.2417 1.00195 37.473 1.00195V3.00195ZM43.0441 4.5823C44.2968 5.56315 44.9281 6.87525 44.9281 8.62891H46.9281C46.9281 6.30444 46.0477 4.39388 44.277 3.00755L43.0441 4.5823ZM44.9281 8.62891C44.9281 9.74269 44.6361 10.6306 44.0935 11.3479L45.6886 12.5544C46.5288 11.4437 46.9281 10.1167 46.9281 8.62891H44.9281ZM44.0972 11.343C43.5573 12.0476 42.7422 12.6022 41.5717 12.9647L42.1634 14.8752C43.6414 14.4174 44.8419 13.6594 45.6848 12.5594L44.0972 11.343ZM41.6881 14.9037C43.0928 15.16 44.1125 15.7561 44.8308 16.654L46.3926 15.4046C45.3297 14.076 43.8532 13.2658 42.0471 12.9362L41.6881 14.9037ZM44.8341 16.658C45.5517 17.5456 45.9477 18.7207 45.9477 20.2656H47.9477C47.9477 18.3652 47.453 16.7162 46.3894 15.4006L44.8341 16.658ZM45.9477 20.2656C45.9477 22.4912 45.1684 24.2378 43.6173 25.5951L44.9343 27.1002C46.9457 25.3403 47.9477 23.0322 47.9477 20.2656H45.9477ZM43.6148 25.5972C42.0648 26.9625 40.0026 27.6855 37.3324 27.6855V29.6855C40.381 29.6855 42.9477 28.85 44.9367 27.0981L43.6148 25.5972ZM37.3324 27.6855C34.5145 27.6855 32.3992 26.9356 30.8701 25.539L29.5213 27.0157C31.5078 28.83 34.1503 29.6855 37.3324 29.6855V27.6855ZM30.8752 25.5437C29.3662 24.146 28.5766 22.2441 28.5766 19.7207H26.5766C26.5766 22.7052 27.5331 25.1743 29.5162 27.011L30.8752 25.5437ZM28.5766 19.7207V19.4746H26.5766V19.7207H28.5766ZM70.9699 19.6855L71.7202 19.0244L70.8203 18.0031L70.1147 19.1672L70.9699 19.6855ZM74.0461 22.3398L73.5435 23.2044L73.5478 23.2069L74.0461 22.3398ZM79.3898 22.4629L78.7526 21.6922L78.7452 21.6984L79.3898 22.4629ZM79.5129 18.5781L78.8402 19.3181L78.849 19.326L78.858 19.3338L79.5129 18.5781ZM75.9797 17.1367L75.7192 18.1022L75.7213 18.1027L75.9797 17.1367ZM71.5324 3.98828L72.2184 4.71587L72.2186 4.71572L71.5324 3.98828ZM81.9738 2.23047L81.6816 3.18688L81.6921 3.18997L81.9738 2.23047ZM85.5949 3.95312L86.5117 4.35244L86.8427 3.59259L86.1575 3.12636L85.5949 3.95312ZM83.3977 8.99805L82.7487 9.75888L83.7756 10.6347L84.3145 9.39736L83.3977 8.99805ZM80.9367 7.46875L80.5475 8.3899L80.5553 8.39318L80.5631 8.39634L80.9367 7.46875ZM76.4016 7.55664L77.0045 8.35459L77.0155 8.34599L76.4016 7.55664ZM76.2961 10.6504L75.6501 11.4138L75.6597 11.4218L76.2961 10.6504ZM78.9855 11.7578L79.2532 10.7942L79.2421 10.7913L78.9855 11.7578ZM79.302 11.8457L79.0343 12.8092L79.0408 12.811L79.302 11.8457ZM84.9445 14.3945L85.6649 13.7009L85.6606 13.6965L84.9445 14.3945ZM86.3332 16.6797L85.3909 17.0145L85.3923 17.0184L86.3332 16.6797ZM84.1184 26.207L84.7961 26.9424L84.7986 26.94L84.1184 26.207ZM72.0422 27.7715L71.6581 28.6948L71.6607 28.6959L72.0422 27.7715ZM67.8059 24.9062L66.9507 24.3879L66.5348 25.0741L67.1145 25.6288L67.8059 24.9062ZM70.2197 20.3467C71.3103 21.5844 72.4164 22.5491 73.5435 23.2044L74.5487 21.4753C73.6602 20.9587 72.7155 20.1539 71.7202 19.0244L70.2197 20.3467ZM73.5478 23.2069C74.6934 23.8653 75.8772 24.2188 77.0871 24.2188V22.2188C76.2814 22.2188 75.4378 21.9863 74.5444 21.4728L73.5478 23.2069ZM77.0871 24.2188C78.2114 24.2188 79.2222 23.9123 80.0344 23.2274L78.7452 21.6984C78.3622 22.0213 77.8378 22.2188 77.0871 22.2188V24.2188ZM80.0271 23.2335C80.8603 22.5446 81.3039 21.626 81.3039 20.5469H79.3039C79.3039 21.0146 79.1382 21.3734 78.7526 21.6922L80.0271 23.2335ZM81.3039 20.5469C81.3039 19.4727 80.963 18.5116 80.1678 17.8224L78.858 19.3338C79.1175 19.5587 79.3039 19.9101 79.3039 20.5469H81.3039ZM80.1856 17.8382C79.7969 17.4848 79.2437 17.1945 78.6206 16.9403C77.9789 16.6785 77.1808 16.4229 76.2381 16.1707L75.7213 18.1027C76.6184 18.3428 77.3291 18.5735 77.8651 18.7921C78.4198 19.0184 78.7133 19.2027 78.8402 19.3181L80.1856 17.8382ZM76.2402 16.1712C73.7841 15.5087 72.2136 14.6846 71.3584 13.791L69.9135 15.1738C71.1442 16.4599 73.1362 17.4054 75.7192 18.1022L76.2402 16.1712ZM71.3584 13.791C70.5365 12.9322 70.0715 11.7105 70.0715 10H68.0715C68.0715 12.0863 68.6494 13.8529 69.9135 15.1738L71.3584 13.791ZM70.0715 10C70.0715 7.78651 70.7977 6.05543 72.2184 4.71587L70.8464 3.26069C68.9859 5.01488 68.0715 7.29162 68.0715 10H70.0715ZM72.2186 4.71572C73.6565 3.35939 75.5359 2.65039 77.9484 2.65039V0.650391C75.1109 0.650391 72.713 1.49999 70.8463 3.26084L72.2186 4.71572ZM77.9484 2.65039C79.2744 2.65039 80.5172 2.83103 81.6816 3.18682L82.2661 1.27412C80.8992 0.856465 79.4584 0.650391 77.9484 0.650391V2.65039ZM81.6921 3.18997C82.8663 3.53467 83.9789 4.06312 85.0324 4.77989L86.1575 3.12636C84.9375 2.29626 83.6361 1.67627 82.2555 1.27096L81.6921 3.18997ZM84.6781 3.55381L82.4808 8.59874L84.3145 9.39736L86.5117 4.35244L84.6781 3.55381ZM84.0466 8.23721C83.1798 7.49785 82.2681 6.92695 81.3103 6.54116L80.5631 8.39634C81.2928 8.69024 82.0218 9.13886 82.7487 9.75888L84.0466 8.23721ZM81.3259 6.5476C80.3833 6.14929 79.4252 5.94141 78.4582 5.94141V7.94141C79.1319 7.94141 79.8261 8.08509 80.5475 8.3899L81.3259 6.5476ZM78.4582 5.94141C77.4515 5.94141 76.5323 6.18813 75.7876 6.76729L77.0155 8.34599C77.3256 8.10484 77.7774 7.94141 78.4582 7.94141V5.94141ZM75.7987 6.75877C75.0342 7.33638 74.6105 8.14125 74.6105 9.10352H76.6105C76.6105 8.80016 76.7142 8.57377 77.0044 8.35451L75.7987 6.75877ZM74.6105 9.10352C74.6105 10.0166 74.9497 10.8211 75.6502 11.4138L76.942 9.887C76.7284 9.70622 76.6105 9.47949 76.6105 9.10352H74.6105ZM75.6597 11.4218C76.3109 11.959 77.3976 12.3709 78.729 12.7243L79.2421 10.7913C77.9251 10.4416 77.2188 10.1152 76.9325 9.87902L75.6597 11.4218ZM78.7179 12.7213L79.0343 12.8092L79.5696 10.8822L79.2532 10.7943L78.7179 12.7213ZM79.0408 12.811C80.4392 13.1892 81.5696 13.5787 82.4455 13.9743C83.3318 14.3747 83.9009 14.7565 84.2284 15.0925L85.6606 13.6965C85.0858 13.1068 84.2633 12.6009 83.2688 12.1517C82.2638 11.6977 81.0241 11.2756 79.5631 10.8804L79.0408 12.811ZM84.2242 15.0882C84.7276 15.6109 85.1185 16.2476 85.3909 17.0145L87.2755 16.3449C86.9151 15.3306 86.3802 14.4438 85.6649 13.7009L84.2242 15.0882ZM85.3923 17.0184C85.6641 17.7733 85.8078 18.6351 85.8078 19.6152H87.8078C87.8078 18.4391 87.6351 17.3439 87.2741 16.341L85.3923 17.0184ZM85.8078 19.6152C85.8078 22.1033 85.0023 24.0223 83.4381 25.4741L84.7986 26.94C86.8203 25.0637 87.8078 22.5881 87.8078 19.6152H85.8078ZM83.4407 25.4717C81.8719 26.9174 79.7431 27.6855 76.9465 27.6855V29.6855C80.1264 29.6855 82.7789 28.8013 84.796 26.9424L83.4407 25.4717ZM76.9465 27.6855C75.2684 27.6855 73.7653 27.4008 72.4237 26.8471L71.6607 28.6959C73.2722 29.3609 75.0386 29.6855 76.9465 29.6855V27.6855ZM72.4263 26.8482C71.0944 26.2941 69.7837 25.4147 68.4972 24.1837L67.1145 25.6288C68.5468 26.9993 70.0603 28.0301 71.6581 28.6948L72.4263 26.8482ZM68.6611 25.4246L71.8251 20.2038L70.1147 19.1672L66.9507 24.3879L68.6611 25.4246ZM98.0543 28H97.0543V29H98.0543V28ZM98.0543 8.34766H99.0543V7.34766H98.0543V8.34766ZM92.2887 8.34766H91.2887V9.34766H92.2887V8.34766ZM92.2887 2.26562V1.26562H91.2887V2.26562H92.2887ZM110.834 2.26562H111.834V1.26562H110.834V2.26562ZM110.834 8.34766V9.34766H111.834V8.34766H110.834ZM105.068 8.34766V7.34766H104.068V8.34766H105.068ZM105.068 28V29H106.068V28H105.068ZM99.0543 28V8.34766H97.0543V28H99.0543ZM98.0543 7.34766H92.2887V9.34766H98.0543V7.34766ZM93.2887 8.34766V2.26562H91.2887V8.34766H93.2887ZM92.2887 3.26562H110.834V1.26562H92.2887V3.26562ZM109.834 2.26562V8.34766H111.834V2.26562H109.834ZM110.834 7.34766H105.068V9.34766H110.834V7.34766ZM104.068 8.34766V28H106.068V8.34766H104.068ZM105.068 27H98.0543V29H105.068V27ZM117.879 28H116.879V29H117.879V28ZM117.879 2.26562V1.26562H116.879V2.26562H117.879ZM133.646 2.26562H134.646V1.26562H133.646V2.26562ZM133.646 7.9082V8.9082H134.646V7.9082H133.646ZM124.717 7.9082V6.9082H123.717V7.9082H124.717ZM124.717 12.373H123.717V13.373H124.717V12.373ZM133.137 12.373H134.137V11.373H133.137V12.373ZM133.137 17.8926V18.8926H134.137V17.8926H133.137ZM124.717 17.8926V16.8926H123.717V17.8926H124.717ZM124.717 22.2344H123.717V23.2344H124.717V22.2344ZM133.646 22.2344H134.646V21.2344H133.646V22.2344ZM133.646 28V29H134.646V28H133.646ZM118.879 28V2.26562H116.879V28H118.879ZM117.879 3.26562H133.646V1.26562H117.879V3.26562ZM132.646 2.26562V7.9082H134.646V2.26562H132.646ZM133.646 6.9082H124.717V8.9082H133.646V6.9082ZM123.717 7.9082V12.373H125.717V7.9082H123.717ZM124.717 13.373H133.137V11.373H124.717V13.373ZM132.137 12.373V17.8926H134.137V12.373H132.137ZM133.137 16.8926H124.717V18.8926H133.137V16.8926ZM123.717 17.8926V22.2344H125.717V17.8926H123.717ZM124.717 23.2344H133.646V21.2344H124.717V23.2344ZM132.646 22.2344V28H134.646V22.2344H132.646ZM133.646 27H117.879V29H133.646V27ZM148.479 28V29H149.479V28H148.479ZM141.905 28H140.905V29H141.905V28ZM141.905 2.26562V1.26562H140.905V2.26562H141.905ZM158.235 4.12891L157.591 4.89442L157.597 4.89946L158.235 4.12891ZM160.397 7.08203L159.473 7.46603L159.478 7.47706L160.397 7.08203ZM160.414 15.0625L161.335 15.4531L161.336 15.4497L160.414 15.0625ZM158.235 17.9277L158.847 18.7185L158.85 18.7161L158.235 17.9277ZM148.479 19.5098V18.5098H147.479V19.5098H148.479ZM148.479 13.8496H147.479V14.8496H148.479V13.8496ZM153.348 13.1641L153.913 13.9894L153.922 13.9826L153.348 13.1641ZM148.479 7.80273V6.80273H147.479V7.80273H148.479ZM148.479 27H141.905V29H148.479V27ZM142.905 28V2.26562H140.905V28H142.905ZM141.905 3.26562H149.235V1.26562H141.905V3.26562ZM149.235 3.26562C152.106 3.26562 154.014 3.40917 155.046 3.65935L155.517 1.71565C154.229 1.40333 152.105 1.26562 149.235 1.26562V3.26562ZM155.046 3.65935C156.076 3.90899 156.915 4.32631 157.591 4.89439L158.878 3.36342C157.937 2.57213 156.808 2.02851 155.517 1.71565L155.046 3.65935ZM157.597 4.89946C158.416 5.57666 159.041 6.4263 159.474 7.466L161.32 6.69806C160.768 5.37058 159.952 4.25146 158.872 3.35835L157.597 4.89946ZM159.478 7.47706C159.922 8.50892 160.153 9.67876 160.153 11.002H162.153C162.153 9.44234 161.88 7.99889 161.316 6.687L159.478 7.47706ZM160.153 11.002C160.153 12.4311 159.924 13.6487 159.492 14.6753L161.336 15.4497C161.89 14.1326 162.153 12.6431 162.153 11.002H160.153ZM159.494 14.6719C159.066 15.6813 158.442 16.4975 157.62 17.1394L158.85 18.7161C159.95 17.8579 160.779 16.7641 161.335 15.4531L159.494 14.6719ZM157.623 17.137C157.016 17.6063 156.29 17.9544 155.426 18.1705L155.911 20.1108C157.015 19.8346 158 19.3742 158.847 18.7185L157.623 17.137ZM155.426 18.1705C154.568 18.3849 153.097 18.5098 150.94 18.5098V20.5098C153.119 20.5098 154.8 20.3886 155.911 20.1108L155.426 18.1705ZM150.94 18.5098H149.745V20.5098H150.94V18.5098ZM149.745 18.5098H148.479V20.5098H149.745V18.5098ZM147.479 19.5098V28H149.479V19.5098H147.479ZM148.479 14.8496H149.815V12.8496H148.479V14.8496ZM149.815 14.8496C151.526 14.8496 152.976 14.6305 153.913 13.9894L152.783 12.3388C152.384 12.6117 151.478 12.8496 149.815 12.8496V14.8496ZM153.922 13.9826C154.948 13.263 155.35 12.101 155.35 10.791H153.35C153.35 11.7076 153.084 12.1276 152.774 12.3455L153.922 13.9826ZM155.35 10.791C155.35 9.51043 154.95 8.37312 153.937 7.66768L152.794 9.30889C153.094 9.51751 153.35 9.91535 153.35 10.791H155.35ZM153.937 7.66768C153.01 7.02172 151.574 6.80273 149.885 6.80273V8.80273C151.525 8.80273 152.409 9.04078 152.794 9.30889L153.937 7.66768ZM149.885 6.80273H148.479V8.80273H149.885V6.80273ZM147.479 7.80273V13.8496H149.479V7.80273H147.479ZM169.464 19.6855L170.214 19.0244L169.314 18.0031L168.608 19.1672L169.464 19.6855ZM172.54 22.3398L172.037 23.2044L172.042 23.2069L172.54 22.3398ZM177.884 22.4629L177.246 21.6922L177.239 21.6984L177.884 22.4629ZM178.007 18.5781L177.334 19.3181L177.343 19.326L177.352 19.3338L178.007 18.5781ZM174.473 17.1367L174.213 18.1022L174.215 18.1027L174.473 17.1367ZM170.026 3.98828L170.712 4.71587L170.712 4.71572L170.026 3.98828ZM180.468 2.23047L180.175 3.18688L180.186 3.18997L180.468 2.23047ZM184.089 3.95312L185.005 4.35244L185.336 3.59259L184.651 3.12636L184.089 3.95312ZM181.891 8.99805L181.242 9.75888L182.269 10.6347L182.808 9.39736L181.891 8.99805ZM179.43 7.46875L179.041 8.3899L179.049 8.39318L179.057 8.39634L179.43 7.46875ZM174.895 7.55664L175.498 8.35459L175.509 8.34599L174.895 7.55664ZM174.79 10.6504L174.144 11.4138L174.153 11.4218L174.79 10.6504ZM177.479 11.7578L177.747 10.7942L177.736 10.7913L177.479 11.7578ZM177.796 11.8457L177.528 12.8092L177.535 12.811L177.796 11.8457ZM183.438 14.3945L184.159 13.7009L184.154 13.6965L183.438 14.3945ZM184.827 16.6797L183.885 17.0145L183.886 17.0184L184.827 16.6797ZM182.612 26.207L183.29 26.9424L183.292 26.94L182.612 26.207ZM170.536 27.7715L170.152 28.6948L170.154 28.6959L170.536 27.7715ZM166.3 24.9062L165.444 24.3879L165.029 25.0741L165.608 25.6288L166.3 24.9062ZM168.713 20.3467C169.804 21.5844 170.91 22.5491 172.037 23.2044L173.042 21.4753C172.154 20.9587 171.209 20.1539 170.214 19.0244L168.713 20.3467ZM172.042 23.2069C173.187 23.8653 174.371 24.2188 175.581 24.2188V22.2188C174.775 22.2188 173.932 21.9863 173.038 21.4728L172.042 23.2069ZM175.581 24.2188C176.705 24.2188 177.716 23.9123 178.528 23.2274L177.239 21.6984C176.856 22.0213 176.332 22.2188 175.581 22.2188V24.2188ZM178.521 23.2335C179.354 22.5446 179.798 21.626 179.798 20.5469H177.798C177.798 21.0146 177.632 21.3734 177.246 21.6922L178.521 23.2335ZM179.798 20.5469C179.798 19.4727 179.457 18.5116 178.662 17.8224L177.352 19.3338C177.611 19.5587 177.798 19.9101 177.798 20.5469H179.798ZM178.679 17.8382C178.291 17.4848 177.737 17.1945 177.114 16.9403C176.473 16.6785 175.675 16.4229 174.732 16.1707L174.215 18.1027C175.112 18.3428 175.823 18.5735 176.359 18.7921C176.914 19.0184 177.207 19.2027 177.334 19.3181L178.679 17.8382ZM174.734 16.1712C172.278 15.5087 170.707 14.6846 169.852 13.791L168.407 15.1738C169.638 16.4599 171.63 17.4054 174.213 18.1022L174.734 16.1712ZM169.852 13.791C169.03 12.9322 168.565 11.7105 168.565 10H166.565C166.565 12.0863 167.143 13.8529 168.407 15.1738L169.852 13.791ZM168.565 10C168.565 7.78651 169.291 6.05543 170.712 4.71587L169.34 3.26069C167.48 5.01488 166.565 7.29162 166.565 10H168.565ZM170.712 4.71572C172.15 3.35939 174.03 2.65039 176.442 2.65039V0.650391C173.605 0.650391 171.207 1.49999 169.34 3.26084L170.712 4.71572ZM176.442 2.65039C177.768 2.65039 179.011 2.83103 180.175 3.18682L180.76 1.27412C179.393 0.856465 177.952 0.650391 176.442 0.650391V2.65039ZM180.186 3.18997C181.36 3.53467 182.473 4.06312 183.526 4.77989L184.651 3.12636C183.431 2.29626 182.13 1.67627 180.749 1.27096L180.186 3.18997ZM183.172 3.55381L180.975 8.59874L182.808 9.39736L185.005 4.35244L183.172 3.55381ZM182.54 8.23721C181.674 7.49785 180.762 6.92695 179.804 6.54116L179.057 8.39634C179.787 8.69024 180.516 9.13886 181.242 9.75888L182.54 8.23721ZM179.82 6.5476C178.877 6.14929 177.919 5.94141 176.952 5.94141V7.94141C177.626 7.94141 178.32 8.08509 179.041 8.3899L179.82 6.5476ZM176.952 5.94141C175.945 5.94141 175.026 6.18813 174.281 6.76729L175.509 8.34599C175.819 8.10484 176.271 7.94141 176.952 7.94141V5.94141ZM174.292 6.75877C173.528 7.33638 173.104 8.14125 173.104 9.10352H175.104C175.104 8.80016 175.208 8.57377 175.498 8.35451L174.292 6.75877ZM173.104 9.10352C173.104 10.0166 173.443 10.8211 174.144 11.4138L175.436 9.887C175.222 9.70622 175.104 9.47949 175.104 9.10352H173.104ZM174.153 11.4218C174.805 11.959 175.891 12.3709 177.223 12.7243L177.736 10.7913C176.419 10.4416 175.713 10.1152 175.426 9.87902L174.153 11.4218ZM177.212 12.7213L177.528 12.8092L178.063 10.8822L177.747 10.7943L177.212 12.7213ZM177.535 12.811C178.933 13.1892 180.063 13.5787 180.939 13.9743C181.826 14.3747 182.395 14.7565 182.722 15.0925L184.154 13.6965C183.58 13.1068 182.757 12.6009 181.763 12.1517C180.758 11.6977 179.518 11.2756 178.057 10.8804L177.535 12.811ZM182.718 15.0882C183.221 15.6109 183.612 16.2476 183.885 17.0145L185.769 16.3449C185.409 15.3306 184.874 14.4438 184.159 13.7009L182.718 15.0882ZM183.886 17.0184C184.158 17.7733 184.302 18.6351 184.302 19.6152H186.302C186.302 18.4391 186.129 17.3439 185.768 16.341L183.886 17.0184ZM184.302 19.6152C184.302 22.1033 183.496 24.0223 181.932 25.4741L183.292 26.94C185.314 25.0637 186.302 22.5881 186.302 19.6152H184.302ZM181.934 25.4717C180.366 26.9174 178.237 27.6855 175.44 27.6855V29.6855C178.62 29.6855 181.273 28.8013 183.29 26.9424L181.934 25.4717ZM175.44 27.6855C173.762 27.6855 172.259 27.4008 170.917 26.8471L170.154 28.6959C171.766 29.3609 173.532 29.6855 175.44 29.6855V27.6855ZM170.92 26.8482C169.588 26.2941 168.277 25.4147 166.991 24.1837L165.608 25.6288C167.041 26.9993 168.554 28.0301 170.152 28.6948L170.92 26.8482ZM167.155 25.4246L170.319 20.2038L168.608 19.1672L165.444 24.3879L167.155 25.4246Z" fill="white" mask="url(#path-1-outside-1_746_13702)"/>
</svg>
