<svg width="142" height="105" viewBox="0 0 142 105" fill="none" xmlns="http://www.w3.org/2000/svg">
<path d="M76.6211 53.6699C76.6211 69.5293 73.2487 81.9935 66.5039 91.0625C59.8047 100.132 50.5762 104.666 38.8184 104.666C27.0605 104.666 17.7865 100.063 10.9961 90.8574C4.2513 81.6061 0.878906 68.8913 0.878906 52.7129C0.878906 36.5801 4.2513 23.9108 10.9961 14.7051C17.7865 5.49935 27.0605 0.896484 38.8184 0.896484C50.7585 0.896484 60.0326 5.52214 66.6406 14.7734C73.2943 23.9792 76.6211 36.9447 76.6211 53.6699ZM26.1035 52.7129C26.1035 63.6504 27.1061 71.6484 29.1113 76.707C31.1621 81.7201 34.3978 84.2266 38.8184 84.2266C43.1478 84.2266 46.3151 81.6973 48.3203 76.6387C50.3711 71.5801 51.3965 63.6048 51.3965 52.7129C51.3965 41.9121 50.3711 33.9596 48.3203 28.8555C46.3151 23.7513 43.1478 21.1992 38.8184 21.1992C34.3522 21.1992 31.1165 23.7057 29.1113 28.7188C27.1061 33.6862 26.1035 41.6842 26.1035 52.7129ZM116.133 102V25.5742H94.668L106.426 2.87891H141.016V102H116.133Z" fill="url(#paint0_linear_746_13706)"/>
<defs>
<linearGradient id="paint0_linear_746_13706" x1="82.5" y1="-33" x2="82.5" y2="135" gradientUnits="userSpaceOnUse">
<stop stop-color="white"/>
<stop offset="0.784" stop-color="#252D30"/>
</linearGradient>
</defs>
</svg>
