<svg width="164" height="105" viewBox="0 0 164 105" fill="none" xmlns="http://www.w3.org/2000/svg">
<path d="M76.6211 53.6699C76.6211 69.5293 73.2487 81.9935 66.5039 91.0625C59.8047 100.132 50.5762 104.666 38.8184 104.666C27.0605 104.666 17.7865 100.063 10.9961 90.8574C4.2513 81.6061 0.878906 68.8913 0.878906 52.7129C0.878906 36.5801 4.2513 23.9108 10.9961 14.7051C17.7865 5.49935 27.0605 0.896484 38.8184 0.896484C50.7585 0.896484 60.0326 5.52214 66.6406 14.7734C73.2943 23.9792 76.6211 36.9447 76.6211 53.6699ZM26.1035 52.7129C26.1035 63.6504 27.1061 71.6484 29.1113 76.707C31.1621 81.7201 34.3978 84.2266 38.8184 84.2266C43.1478 84.2266 46.3151 81.6973 48.3203 76.6387C50.3711 71.5801 51.3965 63.6048 51.3965 52.7129C51.3965 41.9121 50.3711 33.9596 48.3203 28.8555C46.3151 23.7513 43.1478 21.1992 38.8184 21.1992C34.3522 21.1992 31.1165 23.7057 29.1113 28.7188C27.1061 33.6862 26.1035 41.6842 26.1035 52.7129ZM88.2422 68.8457H113.604V70.4863C113.604 74.8613 114.629 78.1882 116.68 80.4668C118.73 82.6999 121.761 83.8164 125.771 83.8164C129.964 83.8164 133.177 82.7454 135.41 80.6035C137.643 78.416 138.76 75.2715 138.76 71.1699C138.76 66.5671 137.552 63.1947 135.137 61.0527C132.767 58.8652 129.03 57.7715 123.926 57.7715C123.105 57.7715 122.467 57.7943 122.012 57.8398C121.602 57.8398 121.214 57.8398 120.85 57.8398V41.7754H122.285C126.888 41.7754 130.42 40.7728 132.881 38.7676C135.342 36.7624 136.572 33.8457 136.572 30.0176C136.572 26.9642 135.524 24.4805 133.428 22.5664C131.377 20.6523 128.734 19.6953 125.498 19.6953C122.035 19.6953 119.346 20.6296 117.432 22.498C115.518 24.3665 114.515 27.0098 114.424 30.4277H90.2246C90.4069 21.0853 93.6654 13.8392 100 8.68945C106.38 3.49414 115.29 0.896484 126.729 0.896484C136.937 0.896484 144.958 3.2207 150.791 7.86914C156.67 12.472 159.609 18.7383 159.609 26.668C159.609 31.7266 158.265 36.0332 155.576 39.5879C152.887 43.097 148.968 45.6491 143.818 47.2441C150.062 48.3835 154.915 51.1178 158.379 55.4473C161.842 59.7311 163.574 65.2227 163.574 71.9219C163.574 81.6289 160.111 89.513 153.184 95.5742C146.302 101.635 137.301 104.666 126.182 104.666C114.515 104.666 105.264 101.544 98.4277 95.3008C91.6374 89.0117 88.2422 80.5124 88.2422 69.8027V68.8457Z" fill="url(#paint0_linear_746_13724)"/>
<defs>
<linearGradient id="paint0_linear_746_13724" x1="82.5" y1="-33" x2="82.5" y2="135" gradientUnits="userSpaceOnUse">
<stop stop-color="white"/>
<stop offset="0.784" stop-color="#252D30"/>
</linearGradient>
</defs>
</svg>
