<svg width="100" height="100" viewBox="0 0 100 100" fill="none" xmlns="http://www.w3.org/2000/svg">
<rect width="100" height="100" rx="8" fill="#FFFEFA"/>
<path d="M22 68.076H23.8449V56.9919L26.701 66.6546C27.038 67.824 27.4993 68.2379 28.404 68.2379C29.3087 68.2379 29.7522 67.8242 30.0894 66.6546L32.9455 56.9919V68.0758H34.7904V57.01C34.7904 55.9303 34.5065 55.4085 33.9212 55.1388C32.5198 54.473 31.5795 55.0488 31.1537 56.4883L28.3508 66.0247L25.6367 56.4883C25.2287 55.0488 24.2707 54.473 22.8693 55.1388C22.2839 55.4085 22 55.9305 22 57.0098V68.076ZM36.3244 59.0541H38.1688V65.1606C38.1515 65.4924 38.2387 66.271 39.2494 66.295C39.765 66.3075 43.2289 66.295 43.2612 66.295V59.0244H45.1099C45.1184 59.0244 45.108 68.9398 45.1082 68.982C45.1182 71.4274 43.1138 71.9585 42.1899 71.9996H36.3644V70.1111C36.3747 70.1111 42.1856 70.1131 42.2003 70.1109C43.3876 69.9201 43.2474 69.0222 43.2473 68.7199V67.9837H39.3258C37.5013 67.9582 36.3396 66.7466 36.3253 65.3532C36.3238 65.224 36.3646 59.1151 36.3243 59.0539L36.3244 59.0541Z" fill="#00618A"/>
<path d="M46.5314 68.0764H51.8355C52.4564 68.0764 53.0595 67.8786 53.5386 67.5365C54.3368 66.9789 54.7271 66.2233 54.7271 65.2334V63.1823C54.7271 62.3725 54.2836 61.6167 53.4143 61.1131C52.953 60.8429 52.3854 60.6991 51.8355 60.6991H49.6C48.8553 60.6991 48.5004 60.3572 48.4118 59.6016C48.394 59.5116 48.394 59.4395 48.394 59.3496V58.0723C48.394 58.0001 48.394 57.928 48.4118 57.8382C48.5004 57.2625 48.6957 57.1003 49.3519 57.0104C49.4051 57.0104 49.4761 56.9923 49.5294 56.9923H54.7981V55.1213H49.618C48.873 55.1213 48.4826 55.1932 48.1279 55.355C47.028 55.8769 46.5491 56.7047 46.5491 58.144V59.7815C46.5491 61.0412 47.4893 62.1207 49.0681 62.3725C49.2456 62.3904 49.4229 62.4083 49.6002 62.4083H51.5161C51.5872 62.4083 51.6582 62.4083 51.7113 62.4265C52.2968 62.4986 52.545 62.6604 52.7226 62.9843C52.8289 63.146 52.8644 63.3082 52.8644 63.4881V65.1252C52.8644 65.3235 52.7757 65.5755 52.5985 65.7912C52.4387 66.0072 52.1726 66.1512 51.8178 66.1873C51.7468 66.1873 51.6937 66.2052 51.6227 66.2052H46.5312V68.0762L46.5314 68.0764ZM66.2363 64.8196C66.2363 66.7448 67.1764 67.8246 69.0747 68.0405C69.2519 68.0585 69.4295 68.0764 69.6068 68.0764H74.4144V66.2052H69.5713C68.4892 66.2052 68.0812 65.7912 68.0812 64.8017V55.1211H66.2363V64.8196ZM55.9046 64.9178V58.2463C55.9046 56.5514 56.6868 55.5235 58.2332 55.1989C58.3981 55.1631 58.5645 55.1451 58.731 55.1449H62.233C62.4107 55.1449 62.5709 55.1631 62.7486 55.1989C64.2951 55.5235 65.0772 56.5514 65.0772 58.2463V64.9176C65.0772 66.2924 64.7451 67.0285 63.9795 67.5081L65.7968 70.0038H63.6547L62.1844 67.9846L60.7043 68.1273H58.731C58.3933 68.1273 58.0379 68.055 57.6467 67.8928C56.4735 67.406 55.9046 66.4683 55.9046 64.9176V64.9178ZM57.8958 64.7556C57.8958 64.8459 57.9136 64.9359 57.9314 65.0441C58.038 65.8194 58.518 66.2522 59.2468 66.2522H60.9229L59.3833 64.1375H61.5253L62.8683 65.9818C63.1156 65.7811 63.2786 65.4743 63.3355 65.0802C63.3531 64.9901 63.3531 64.8999 63.3531 64.8098V58.4089C63.3531 58.3367 63.3531 58.2465 63.3355 58.1562C63.2287 57.4349 62.7487 57.0205 62.0377 57.0205H59.2468C58.4292 57.0205 57.8959 57.5615 57.8959 58.4089V64.7556H57.8958Z" fill="#E48E00"/>
<path d="M76.0363 52.0169C74.9024 51.9701 74.0361 52.1305 73.2955 52.6057C73.085 52.7408 72.7494 52.7443 72.7151 53.1456C72.8307 53.3301 72.8487 53.6055 72.9406 53.8324C73.1173 54.2678 73.416 54.8511 73.6824 55.1571C73.9734 55.4916 74.2734 55.8489 74.5854 56.1385C75.1404 56.6533 75.76 56.9473 76.2945 57.4631C76.6094 57.7671 76.9223 58.1501 77.2296 58.4932C77.3814 58.6628 77.4836 58.9267 77.681 59.0331V58.9839C77.5772 58.7831 77.5505 58.5068 77.4553 58.2969L77.0361 57.6591C76.6262 56.8314 76.1058 56.1044 75.5527 55.5005C75.1117 55.0188 74.1244 54.3683 73.9404 53.5871L73.9081 53.5379C74.2208 53.4844 74.587 53.3122 74.8756 53.1948C75.3605 52.9968 75.7936 53.0479 76.2945 52.8512C76.52 52.753 76.7458 52.6547 76.9717 52.5568V52.3605C76.7186 51.9653 76.5381 51.4425 76.262 51.0849C75.5401 50.1494 74.7519 49.2148 73.9404 48.4356C73.4903 48.0032 72.934 47.7224 72.4571 47.356C72.2966 47.233 72.0146 47.1689 71.9087 46.9635C71.6581 46.4776 71.5217 45.8614 71.3283 45.2953C70.9236 44.1096 70.5261 42.8143 70.1675 41.5664C69.9228 40.7158 69.7631 39.8769 69.4581 39.1134C67.9939 35.4508 66.4177 33.2403 63.9762 31.0673C63.4567 30.6052 62.8312 30.4225 62.1702 30.1842L61.106 30.0859C60.8895 29.9482 60.6643 29.5453 60.461 29.3499C59.6522 28.5727 57.5777 26.8816 56.9786 29.1047C56.6003 30.5079 57.5439 31.8773 57.8814 32.5883C58.1183 33.0871 58.4215 33.6462 58.5908 34.2073C58.7021 34.576 58.7214 34.9456 58.8166 35.3358C59.0511 36.2969 59.2548 37.3423 59.5582 38.2304C59.7115 38.6797 59.8804 39.1532 60.0743 39.5549C60.1931 39.8017 60.3966 39.9103 60.4288 40.2911C60.2297 40.7151 60.2183 41.373 60.1064 41.91C59.6025 44.3279 59.7925 47.3329 60.5256 49.1223C60.7506 49.6716 61.2805 50.8497 62.009 50.3979C62.6463 50.003 62.5039 48.7792 62.6862 47.6996C62.7274 47.4548 62.702 47.2747 62.7829 47.1108V47.16L63.3633 48.926C63.7928 49.9785 64.5554 51.0786 65.2015 51.8208C65.5365 52.2057 65.8003 52.8713 66.2334 53.0964V53.0472H66.2011C66.1172 52.8483 65.9859 52.7657 65.8787 52.6057C65.6263 52.2293 65.3457 51.7614 65.137 51.3301C64.5494 50.1164 64.03 48.7881 63.5569 47.4052C63.331 46.7451 63.1346 46.0164 62.9441 45.3445C62.8707 45.0855 62.8715 44.6938 62.7185 44.5594C62.5099 45.0518 62.2026 45.4501 62.0413 46.0315C61.7833 46.9608 61.7499 48.0941 61.6544 49.2694C61.5978 49.3002 61.6228 49.279 61.5898 49.3184C61.1407 49.1536 60.9828 48.4502 60.816 47.8467C60.3936 46.3206 60.3153 43.8632 60.6867 42.1065C60.7829 41.6519 61.2174 40.2203 61.0415 39.8006C60.9576 39.3816 60.6807 39.1392 60.5256 38.8192C60.3339 38.4234 60.1424 37.9023 60.0096 37.4452C59.6641 36.2553 59.5028 34.9196 59.139 33.7168C58.9652 33.1418 58.6711 32.5599 58.4296 32.0487C58.1622 31.4826 57.8628 31.0651 57.6557 30.3803C57.582 30.137 57.4818 29.7475 57.591 29.4973C57.6259 29.3285 57.6749 29.2579 57.7847 29.2028C57.9717 28.9836 58.4927 29.2758 58.6875 29.3991C59.2047 29.7259 59.6362 30.0371 60.0743 30.4784C60.2846 30.6907 60.4972 31.1009 60.7513 31.2146H61.0415C61.4955 31.3733 62.0041 31.2638 62.4282 31.4598C63.1778 31.8065 63.8496 32.3455 64.4596 32.9317C66.3185 34.7172 67.8381 37.259 68.8777 40.2911C69.0449 40.7791 69.1173 41.2451 69.2646 41.7629C69.5618 42.8073 69.9362 43.8818 70.2319 44.903C70.5269 45.9215 70.8146 46.9499 71.2316 47.7978C71.451 48.2434 72.2979 48.4826 72.6826 48.7298C72.9526 48.9033 73.3946 49.0841 73.6502 49.3184C74.1384 49.7665 74.6113 50.2998 75.0691 50.7905C75.298 51.0357 76.0012 51.5736 76.0363 52.0169Z" fill="#00618A"/>
<path fill-rule="evenodd" clip-rule="evenodd" d="M61.6196 33.3248C61.3831 33.3183 61.2159 33.3642 61.0391 33.4228V33.4719H61.0714C61.1842 33.8245 61.3831 34.0514 61.5228 34.355C61.6302 34.6985 61.7377 35.0419 61.8453 35.3853L61.8775 35.3364C62.0772 35.1222 62.1687 34.7797 62.1677 34.2571C62.0877 34.129 62.0757 33.9681 62.0065 33.8153C61.9143 33.6116 61.7358 33.4962 61.6196 33.3248Z" fill="#00618A"/>
<path fill-rule="evenodd" clip-rule="evenodd" d="M75.2812 66.1523C75.2812 67.3882 75.9231 68.2209 76.641 68.2209C77.3589 68.2209 78.0007 67.3882 78.0007 66.1523C78.0007 64.9167 77.3589 64.084 76.641 64.084C75.9231 64.084 75.2814 64.9167 75.2814 66.1523H75.2812ZM77.6961 66.1523C77.6961 67.09 77.2249 67.7908 76.641 67.7908C76.0501 67.7908 75.586 67.09 75.586 66.1523C75.586 65.2147 76.05 64.5139 76.641 64.5139C77.2249 64.5139 77.6961 65.2147 77.6961 66.1523ZM77.0074 67.3326H77.3118L76.866 66.2959C77.1052 66.2573 77.2864 66.0807 77.2864 65.6505C77.2864 65.1705 77.0871 64.972 76.7028 64.972H76.0973V67.3326H76.3583V66.3123H76.6011L77.0074 67.3326ZM76.3583 65.9814V65.303H76.6591C76.8151 65.303 77.0036 65.3471 77.0036 65.623C77.0036 65.9537 76.8332 65.9814 76.6373 65.9814H76.3583Z" fill="#E48E00"/>
</svg>
