<svg width="68" height="67" viewBox="0 0 68 67" fill="none" xmlns="http://www.w3.org/2000/svg">
<mask id="mask0_2453_21699" style="mask-type:alpha" maskUnits="userSpaceOnUse" x="0" y="0" width="68" height="67">
<rect x="3.07227" y="0.1875" width="64" height="64" transform="rotate(2 3.07227 0.1875)" fill="#D9D9D9"/>
</mask>
<g mask="url(#mask0_2453_21699)">
<path d="M26.4213 32.6697L32.8394 26.6854L26.9778 20.3997L23.6663 23.5373L22.2517 22.0204L25.6128 18.9358L19.7018 12.613L13.2837 18.598L26.4213 32.6697ZM47.0847 54.861L53.5034 48.8607L47.593 42.5226L44.2815 45.6603L42.8669 44.1433L46.1766 41.0569L40.4307 34.842L34.0132 40.827L47.0847 54.861ZM19.8579 54.1411L11.8728 53.8622L12.1517 45.8771L24.892 33.9965L10.4394 18.4986L19.7351 9.75106L34.3186 25.3202L47.494 13.0345C47.7308 12.8133 47.9754 12.6611 48.2278 12.5778C48.4806 12.4942 48.7487 12.4573 49.0321 12.4672C49.2817 12.4759 49.5297 12.5308 49.7761 12.6319C50.0221 12.7325 50.2555 12.9015 50.4762 13.1386L55.1847 18.3468C55.4058 18.584 55.5496 18.8285 55.616 19.0803C55.6823 19.3326 55.7112 19.5833 55.7025 19.8324C55.6925 20.1163 55.646 20.373 55.5628 20.6027C55.4796 20.8324 55.3195 21.0576 55.0823 21.2784L42.013 33.4657L56.4273 49.0295L47.1174 57.7459L32.6142 42.2457L19.8579 54.1411ZM13.9945 51.8837L19.0168 52.0591L46.1688 26.7246L41.3219 21.5269L14.1699 46.8615L13.9945 51.8837Z" fill="white"/>
</g>
</svg>
