<svg width="67" height="67" viewBox="0 0 67 67" fill="none" xmlns="http://www.w3.org/2000/svg">
<mask id="mask0_2453_21696" style="mask-type:alpha" maskUnits="userSpaceOnUse" x="0" y="0" width="67" height="67">
<rect x="2.33398" y="0.25" width="64" height="64" transform="rotate(2 2.33398 0.25)" fill="#D9D9D9"/>
</mask>
<g mask="url(#mask0_2453_21696)">
<path d="M51.4358 24.7365C49.2243 24.6593 47.3293 23.8578 45.751 22.332C44.1726 20.8058 43.2969 18.9467 43.124 16.7549L24.3914 16.1008C24.0929 18.0916 23.2227 19.7673 21.781 21.1281C20.3398 22.4888 18.6158 23.2487 16.609 23.4076L15.9566 42.0889C18.131 42.4143 19.9245 43.4153 21.3371 45.0918C22.7492 46.7688 23.4162 48.7259 23.3381 50.9632C23.253 53.3987 22.3374 55.4299 20.5911 57.0571C18.8443 58.6842 16.7562 59.4554 14.3265 59.3705C11.8938 59.2856 9.86381 58.3706 8.23661 56.6257C6.6094 54.8807 5.83863 52.7819 5.92428 50.3291C6.00151 48.1176 6.80324 46.2226 8.32947 44.6443C9.85527 43.0659 11.7143 42.1902 13.9066 42.0173L14.5589 23.336C12.3841 23.0106 10.5904 22.0141 9.17797 20.3464C7.76508 18.6792 7.09806 16.7163 7.17694 14.4577C7.26163 12.0325 8.17487 10.0069 9.91668 8.38091C11.6589 6.75494 13.7271 5.98376 16.1212 6.06737C18.3798 6.14624 20.2914 6.94855 21.856 8.47431C23.4211 9.99964 24.2901 11.8584 24.463 14.0507L43.1956 14.7048C43.521 12.53 44.522 10.7365 46.1985 9.32437C47.8755 7.91181 49.8327 7.2446 52.07 7.32272C54.4703 7.40654 56.4924 8.33012 58.1363 10.0935C59.7807 11.8564 60.5611 13.9342 60.4775 16.327C60.3927 18.7544 59.4689 20.784 57.706 22.4159C55.9435 24.0474 53.8535 24.821 51.4358 24.7365ZM14.3077 57.3687C16.1741 57.4338 17.7879 56.8385 19.149 55.5825C20.5101 54.3266 21.2222 52.7939 21.2854 50.9843C21.3506 49.1179 20.7484 47.5039 19.4787 46.1423C18.209 44.7807 16.6409 44.0673 14.7745 44.0021C12.9649 43.9389 11.3862 44.5424 10.0384 45.8126C8.69059 47.0828 7.98409 48.6511 7.91892 50.5175C7.85573 52.3271 8.45234 53.9055 9.70875 55.2529C10.9652 56.6002 12.4981 57.3055 14.3077 57.3687ZM15.5609 21.4825C17.4273 21.5477 19.0416 20.937 20.4038 19.6504C21.766 18.3634 22.4789 16.8093 22.5424 14.9882C22.6068 13.1462 22.0037 11.5567 20.7331 10.2195C19.4625 8.8828 17.894 8.18186 16.0276 8.11668C14.2181 8.05349 12.6398 8.64455 11.2929 9.88986C9.94589 11.1356 9.24025 12.6795 9.17593 14.5215C9.11233 16.3426 9.7082 17.9423 10.9635 19.3208C12.2189 20.6988 13.7513 21.4193 15.5609 21.4825ZM50.228 60.6242C47.8161 60.54 45.7886 59.6303 44.1455 57.895C42.5024 56.1601 41.7231 54.0834 41.8075 51.6649C41.8909 49.2779 42.8111 47.2508 44.5681 45.5836C46.3256 43.9163 48.4151 43.125 50.8368 43.2095C53.2588 43.2941 55.2829 44.2267 56.9088 46.0072C58.5348 47.7877 59.3062 49.8681 59.2231 52.2484C59.1376 54.6967 58.2233 56.7258 56.4803 58.3357C54.7373 59.9461 52.6532 60.7089 50.228 60.6242ZM50.3038 58.6257C52.1458 58.69 53.7351 58.0938 55.0718 56.837C56.408 55.5802 57.1077 54.047 57.1709 52.2374C57.2361 50.371 56.6462 48.7575 55.4014 47.3967C54.1561 46.036 52.6125 45.3235 50.7705 45.2591C48.9494 45.1956 47.3494 45.7983 45.9705 47.0674C44.592 48.3365 43.8702 49.9043 43.805 51.7707C43.7418 53.5803 44.3538 55.1592 45.6408 56.5076C46.9283 57.8561 48.4827 58.5621 50.3038 58.6257ZM51.5569 22.7395C53.3989 22.8039 54.9888 22.1923 56.3265 20.9049C57.6639 19.617 58.3643 18.0625 58.4279 16.2414C58.4922 14.3994 57.9015 12.8103 56.6559 11.474C55.4097 10.1381 53.8657 9.43802 52.0237 9.37369C50.2026 9.3101 48.603 9.90041 47.225 11.1446C45.8473 12.3893 45.1264 13.9326 45.0621 15.7746C44.9985 17.5957 45.6096 19.1961 46.8956 20.5755C48.1821 21.9546 49.7358 22.676 51.5569 22.7395Z" fill="#FF8C00"/>
</g>
</svg>
