<svg width="76" height="100" viewBox="0 0 76 100" fill="none" xmlns="http://www.w3.org/2000/svg">
<path d="M0.0429688 80.6843L12.8966 1.92334C13.0537 0.957407 13.8382 0.195953 14.8447 0.0322179C15.8511 -0.131518 16.8541 0.339546 17.3354 1.20164L30.6282 24.9435L35.9267 15.283C36.337 14.5361 37.146 14.0684 38.0275 14.0684C38.9089 14.0684 39.7178 14.5361 40.1282 15.283L76.0008 80.6841L0.0429688 80.6843Z" fill="#FFA000"/>
<path d="M44.4488 50.0033L30.6221 24.9316L0.0429688 80.6837L44.4488 50.0033Z" fill="#F57C00"/>
<path d="M76.0013 80.6843L66.1564 22.3466C66.0077 21.5088 65.3833 20.8206 64.5378 20.5612C63.6923 20.3018 62.7669 20.5177 62.139 21.1184L0.0429688 80.6834L34.4023 99.1349C36.5599 100.288 39.1876 100.288 41.3453 99.1349L76.0013 80.6834V80.6843Z" fill="#FFCA28"/>
<path d="M66.1549 22.3473C66.0061 21.5095 65.3818 20.8213 64.5363 20.5619C63.6907 20.3025 62.7654 20.5184 62.1374 21.119L49.8128 32.951L40.1213 15.2833C39.711 14.5364 38.9021 14.0687 38.0206 14.0687C37.1391 14.0687 36.3302 14.5364 35.9198 15.2833L30.6213 24.9438L17.3278 1.2023C16.8458 0.339977 15.8416 -0.130324 14.834 0.0346318C13.8263 0.199588 13.0444 0.96295 12.8891 1.92965L0.0414319 80.685H0L0.0414319 80.7304L0.379659 80.8895L62.1195 21.6994C62.7471 21.0955 63.6748 20.8785 64.5226 21.1371C65.3703 21.3958 65.9958 22.0867 66.143 22.9269L75.9049 80.7417L75.9998 80.6848L66.1549 22.3473ZM0.154175 80.577L12.895 2.48662C13.0502 1.51992 13.8339 0.756563 14.8407 0.591607C15.8475 0.426651 16.8518 0.896799 17.3346 1.75927L30.6267 25.5011L35.9252 15.8407C36.3355 15.0937 37.1445 14.626 38.0259 14.626C38.9074 14.626 39.7163 15.0937 40.1267 15.8407L49.6215 33.1329L0.154175 80.577Z" fill="white" fill-opacity="0.2"/>
<path opacity="0.2" d="M41.3454 98.5792C39.1877 99.7328 36.56 99.7328 34.4023 98.5792L0.126071 80.179L0.0429688 80.6849L34.4023 99.1307C36.5599 100.284 39.1876 100.284 41.3453 99.1307L76.0013 80.6849L75.9123 80.1621L41.3454 98.5792Z" fill="#A52714"/>
<path d="M66.0541 22.359C65.9059 21.5215 65.2836 20.8331 64.4411 20.5752C63.5986 20.3173 62.6765 20.5317 62.0507 21.1322L49.7684 32.9582L40.1116 15.2987C39.7027 14.552 38.8966 14.0844 38.0183 14.0844C37.14 14.0844 36.3339 14.552 35.9249 15.2987L30.6442 24.9549L17.398 1.22328C16.9175 0.361339 15.9169 -0.108885 14.9137 0.0561474C13.9104 0.22118 13.1294 0.983931 12.9747 1.9504L0.171875 80.6711L34.4111 99.1089C36.5612 100.262 39.1797 100.262 41.3299 99.1089L75.8647 80.6711L66.0541 22.3589V22.359Z" fill="url(#paint0_linear_746_38031)"/>
<defs>
<linearGradient id="paint0_linear_746_38031" x1="-263.996" y1="1701.18" x2="8999.26" y2="6803.81" gradientUnits="userSpaceOnUse">
<stop stop-color="white" stop-opacity="0.1"/>
<stop offset="0.14" stop-color="white" stop-opacity="0.08"/>
<stop offset="0.61" stop-color="white" stop-opacity="0.02"/>
<stop offset="1" stop-color="white" stop-opacity="0"/>
</linearGradient>
</defs>
</svg>
