<svg width="82" height="82" viewBox="0 0 82 82" fill="none" xmlns="http://www.w3.org/2000/svg">
<path d="M14.6507 41.2737L13.12 39.741C8.2 34.8144 6.77867 27.9172 8.528 21.6769C3.608 20.5821 0 16.2029 0 10.9479C0 4.92657 4.92 0 10.9333 0C16.4 0 20.8827 3.94126 21.7573 9.19626C27.6613 7.77303 34.112 9.41522 38.704 14.0134L39.36 14.6702L31.2693 22.7717L30.6133 22.1148C27.9893 19.4873 23.7253 19.4873 21.1013 22.1148C18.4773 24.7423 18.4773 29.012 21.1013 31.6395L39.2507 49.8131L31.16 57.9146L22.632 49.3752L14.6507 41.2737Z" fill="#7AC143"/>
<path d="M23.7266 32.2963L41.8759 14.1227C46.6866 9.30564 53.6839 7.77293 59.8066 9.5246C60.5719 4.16011 65.1639 0.109375 70.6306 0.109375C76.6439 0.109375 81.5639 5.03594 81.5639 11.0573C81.5639 16.6408 77.4092 21.2389 72.0519 21.8958C73.8012 28.0266 72.2706 34.9238 67.4599 39.7409L66.8039 40.3978L58.9319 32.2963L59.5879 31.6394C62.2119 29.0119 62.2119 24.7422 59.5879 22.1147C56.9639 19.4872 52.6999 19.4872 50.0759 22.1147L31.9266 40.2883L23.7266 32.2963Z" fill="#F9A541"/>
<path d="M60.1335 73.132C53.9015 74.9932 46.9041 73.57 41.9841 68.6434L41.3281 67.9865L49.4188 59.885L50.0748 60.5419C52.6988 63.1694 56.9628 63.1694 59.5868 60.5419C62.2108 57.9144 62.2108 53.6447 59.5868 51.0172L41.4375 32.8437L49.5281 24.7422L67.7868 43.0252C72.3788 47.6234 74.0188 54.1921 72.5975 60.2135C77.9548 60.9798 82.0001 65.578 82.0001 71.0519C82.0001 77.0733 77.0801 81.9999 71.0668 81.9999C65.6001 81.8904 61.1175 78.0586 60.1335 73.132Z" fill="#F44321"/>
<path d="M56.9627 50.3612L38.8133 68.5348C34.112 73.2424 27.552 74.7751 21.648 73.3519C20.5547 78.2785 16.1813 81.8913 10.9333 81.8913C4.92 81.8913 0 76.9647 0 70.9433C0 65.7978 3.608 61.4186 8.41867 60.3238C6.888 54.193 8.41867 47.6242 13.12 42.9166L13.776 42.2598L21.8667 50.3612L21.2107 51.0181C18.5867 53.6456 18.5867 57.9153 21.2107 60.5428C23.8347 63.1703 28.0987 63.1703 30.7227 60.5428L48.872 42.3692L56.9627 50.3612Z" fill="#5091CD"/>
</svg>
