<svg width="82" height="96" viewBox="0 0 82 96" fill="none" xmlns="http://www.w3.org/2000/svg">
<path d="M71.7501 18.6713C71.6955 18.1652 71.2594 17.9402 70.9322 17.9402C70.6051 17.9402 63.4628 17.3778 63.4628 17.3778C63.4628 17.3778 58.5014 12.2601 57.9016 11.7539C57.3564 11.1915 56.3205 11.3603 55.8844 11.4727C55.8298 11.4727 54.7939 11.8102 53.1038 12.3726C51.4136 7.3673 48.524 2.81195 43.3445 2.81195H42.8538C41.4362 0.899823 39.5825 0 38.0559 0C26.0612 0 20.2819 15.4657 18.4827 23.3392C13.7939 24.8576 10.4681 25.8699 10.0864 26.0386C7.46942 26.8822 7.4149 26.9384 7.08777 29.4692C6.81517 31.3813 0 85.7644 0 85.7644L53.0492 95.9998L81.8365 89.5886C81.891 89.4761 71.8046 19.1775 71.7501 18.6713ZM50.1596 13.1599C48.8511 13.5536 47.27 14.0597 45.6889 14.6221V13.6098C45.6889 10.5729 45.3072 8.0984 44.5984 6.13004C47.3245 6.46747 49.0147 9.56061 50.1596 13.1599ZM41.2726 6.74867C41.9814 8.66079 42.4721 11.3603 42.4721 15.072V15.6344C39.528 16.5905 36.4202 17.5465 33.2035 18.6151C35.0027 11.529 38.4375 8.04217 41.2726 6.74867ZM37.7833 3.26185C38.3285 3.26185 38.8737 3.48681 39.3099 3.82424C35.4389 5.68012 31.3498 10.348 29.6596 19.7961C27.0971 20.6397 24.6436 21.3708 22.2992 22.1581C24.262 14.9596 29.1689 3.26185 37.7833 3.26185Z" fill="#95BF47"/>
<path d="M70.9304 17.8284C70.6032 17.8284 63.4609 17.266 63.4609 17.266C63.4609 17.266 58.4995 12.1483 57.8998 11.6421C57.6817 11.4172 57.4091 11.3047 57.191 11.3047L53.2109 96.0005L81.9982 89.5893C81.9982 89.5893 71.9117 19.1781 71.8572 18.672C71.6391 18.1658 71.2575 17.9409 70.9304 17.8284Z" fill="#5E8E3E"/>
<path d="M43.3439 34.2494L39.8546 45.1035C39.8546 45.1035 36.6923 43.36 32.9304 43.36C27.3147 43.36 27.0421 47.0156 27.0421 47.9154C27.0421 52.8644 39.582 54.7765 39.582 66.418C39.582 75.5849 33.9663 81.4901 26.3878 81.4901C17.2282 81.4901 12.6484 75.6412 12.6484 75.6412L15.1019 67.3178C15.1019 67.3178 19.8998 71.592 23.9344 71.592C26.6059 71.592 27.6963 69.4549 27.6963 67.8802C27.6963 61.4127 17.4463 61.1316 17.4463 50.4462C17.4463 41.5042 23.6617 32.8434 36.2562 32.8434C40.945 32.7871 43.3439 34.2494 43.3439 34.2494Z" fill="white"/>
</svg>
