<svg width="213" height="48" viewBox="0 0 213 48" fill="none" xmlns="http://www.w3.org/2000/svg">
<path d="M123.536 18.8945H115.151V19.778C117.774 19.778 118.196 20.3362 118.196 23.6396V29.5948C118.196 32.8977 117.774 33.5026 115.151 33.5026C113.138 33.2237 111.779 32.1534 109.905 30.1064L107.751 27.7805C110.655 27.2681 112.2 25.4542 112.2 23.4069C112.2 20.8486 109.999 18.8945 105.877 18.8945H97.6328V19.778C100.255 19.778 100.677 20.3362 100.677 23.6396V29.5948C100.677 32.8977 100.255 33.5026 97.6328 33.5026V34.3864H106.954V33.5026C104.331 33.5026 103.91 32.8977 103.91 29.5948V27.9204H104.706L109.905 34.3864H123.536C130.234 34.3864 133.138 30.8511 133.138 26.617C133.138 22.3836 130.234 18.8945 123.536 18.8945ZM103.91 26.4771V20.2904H105.83C107.938 20.2904 108.875 21.7325 108.875 23.4072C108.875 25.0358 107.938 26.4775 105.83 26.4775L103.91 26.4771ZM123.677 32.9443H123.349C121.663 32.9443 121.428 32.5259 121.428 30.3857V20.2904C121.428 20.2904 123.489 20.2904 123.677 20.2904C128.548 20.2904 129.438 23.8257 129.438 26.5707C129.438 29.4083 128.548 32.9443 123.677 32.9443Z" fill="#00749A"/>
<path d="M71.543 28.1976L74.7751 18.7063C75.7123 15.9616 75.2906 15.1711 72.2929 15.1711V14.2402H81.0988V15.1711C78.148 15.1711 77.4455 15.8688 76.2744 19.265L70.934 35.1757H70.3254L65.5471 20.6138L60.6761 35.1757H60.0671L54.8679 19.265C53.7437 15.8688 52.9943 15.1711 50.2773 15.1711V14.2402H60.6761V15.1711C57.9122 15.1711 57.1624 15.8222 58.1465 18.7063L61.2847 28.1976L66.0157 14.2402H66.9059L71.543 28.1976Z" fill="#00749A"/>
<path d="M87.4696 34.9892C82.3174 34.9892 78.1016 31.2212 78.1016 26.6148C78.1016 22.0559 82.3178 18.2871 87.4696 18.2871C92.6222 18.2871 96.8377 22.0559 96.8377 26.6148C96.8377 31.2212 92.6222 34.9892 87.4696 34.9892ZM87.4696 19.7304C83.1607 19.7304 81.6614 23.5912 81.6614 26.6152C81.6614 29.6862 83.1607 33.5008 87.4696 33.5008C91.8263 33.5008 93.3251 29.6862 93.3251 26.6152C93.3251 23.5912 91.8263 19.7304 87.4696 19.7304Z" fill="#00749A"/>
<path d="M144.707 33.4547V34.3851H133.98V33.4547C137.119 33.4547 137.681 32.6641 137.681 28.0111V20.568C137.681 15.915 137.119 15.1711 133.98 15.1711V14.2402H143.676C148.501 14.2402 151.172 16.706 151.172 20.0097C151.172 23.2198 148.501 25.7318 143.676 25.7318H141.006V28.0107C141.006 32.6641 141.568 33.4547 144.707 33.4547ZM143.676 15.915H141.006V24.0104H143.676C146.3 24.0104 147.517 22.1962 147.517 20.0097C147.517 17.7767 146.3 15.915 143.676 15.915Z" fill="#464342"/>
<path d="M183.352 30.0136L183.117 30.8508C182.696 32.3861 182.18 32.9443 178.854 32.9443H178.199C175.763 32.9443 175.342 32.3861 175.342 29.0831V26.9433C178.995 26.9433 179.277 27.2685 179.277 29.688H180.166V22.7557H179.277C179.277 25.1749 178.995 25.5004 175.342 25.5004V20.2904H177.917C181.244 20.2904 181.758 20.8486 182.18 22.384L182.415 23.2674H183.164L182.836 18.8945H169.065V19.778C171.687 19.778 172.109 20.3362 172.109 23.6396V29.5948C172.109 32.6164 171.751 33.3776 169.683 33.4861C167.718 33.188 166.368 32.1232 164.522 30.1064L162.367 27.7805C165.271 27.2681 166.817 25.4542 166.817 23.4069C166.817 20.8486 164.616 18.8945 160.494 18.8945H152.25V19.778C154.873 19.778 155.294 20.3362 155.294 23.6396V29.5948C155.294 32.8977 154.873 33.5026 152.25 33.5026V34.3864H161.572V33.5026C158.949 33.5026 158.527 32.8977 158.527 29.5948V27.9204H159.323L164.522 34.3864H183.774L184.055 30.0139L183.352 30.0136ZM158.526 26.4771V20.2904H160.447C162.554 20.2904 163.492 21.7325 163.492 23.4072C163.492 25.0358 162.554 26.4775 160.447 26.4775L158.526 26.4771Z" fill="#464342"/>
<path d="M192.859 34.9907C190.985 34.9907 189.346 34.014 188.643 33.4088C188.409 33.6419 187.988 34.3396 187.894 34.9907H187.004V28.5713H187.941C188.316 31.6415 190.47 33.4558 193.234 33.4558C194.733 33.4558 195.951 32.6186 195.951 31.2231C195.951 30.0138 194.873 29.0829 192.953 28.1991L190.283 26.9431C188.409 26.0585 187.004 24.5232 187.004 22.4766C187.004 20.2436 189.112 18.3365 192.016 18.3365C193.562 18.3365 194.873 18.8947 195.67 19.5458C195.904 19.3598 196.138 18.8477 196.279 18.2891H197.169V23.7792H196.185C195.857 21.5924 194.639 19.7782 192.157 19.7782C190.845 19.7782 189.627 20.5225 189.627 21.686C189.627 22.8954 190.611 23.5465 192.859 24.5702L195.435 25.8262C197.684 26.8961 198.573 28.6183 198.573 30.0138C198.573 32.9441 195.997 34.9907 192.859 34.9907Z" fill="#464342"/>
<path d="M207.285 34.9907C205.411 34.9907 203.771 34.014 203.069 33.4088C202.835 33.6419 202.414 34.3396 202.32 34.9907H201.43V28.5713H202.367C202.742 31.6415 204.896 33.4558 207.66 33.4558C209.159 33.4558 210.377 32.6186 210.377 31.2231C210.377 30.0138 209.3 29.0829 207.379 28.1991L204.709 26.9431C202.835 26.0585 201.43 24.5232 201.43 22.4766C201.43 20.2436 203.538 18.3365 206.442 18.3365C207.988 18.3365 209.299 18.8947 210.096 19.5458C210.33 19.3598 210.564 18.8477 210.704 18.2891H211.594V23.7792H210.611C210.283 21.5924 209.065 19.7782 206.583 19.7782C205.271 19.7782 204.053 20.5225 204.053 21.686C204.053 22.8954 205.036 23.5465 207.285 24.5702L209.861 25.8262C212.11 26.8961 212.999 28.6183 212.999 30.0138C212.999 32.9441 210.423 34.9907 207.285 34.9907Z" fill="#464342"/>
<path d="M3.43359 24.0001C3.43359 32.1496 8.20203 39.1923 15.1166 42.5297L5.22832 15.6211C4.07812 18.1817 3.43359 21.0153 3.43359 24.0001Z" fill="#464342"/>
<path d="M38.1579 22.9611C38.1579 20.4166 37.2377 18.6544 36.4484 17.2829C35.3976 15.5869 34.4127 14.1507 34.4127 12.4548C34.4127 10.5622 35.8579 8.80042 37.8936 8.80042C37.9855 8.80042 38.0727 8.81178 38.1622 8.81687C34.4742 5.46103 29.5606 3.41211 24.1638 3.41211C16.9218 3.41211 10.5503 7.10252 6.84375 12.6922C7.3301 12.7067 7.78844 12.7169 8.17776 12.7169C10.346 12.7169 13.7024 12.4556 13.7024 12.4556C14.8198 12.3901 14.9516 14.0203 13.8353 14.1515C13.8353 14.1515 12.7123 14.2828 11.4627 14.3478L19.0116 36.6489L23.5481 23.1358L20.3184 14.347C19.2021 14.282 18.1446 14.1507 18.1446 14.1507C17.0275 14.0857 17.1585 12.3894 18.2755 12.4548C18.2755 12.4548 21.6989 12.7161 23.7358 12.7161C25.9037 12.7161 29.2604 12.4548 29.2604 12.4548C30.3787 12.3894 30.51 14.0195 29.3933 14.1507C29.3933 14.1507 28.268 14.282 27.0208 14.347L34.5121 36.4793L36.5797 29.6168C37.4759 26.769 38.1579 24.7236 38.1579 22.9611Z" fill="#464342"/>
<path d="M24.5282 25.8008L18.3086 43.751C20.1656 44.2932 22.1296 44.5897 24.1645 44.5897C26.5785 44.5897 28.8935 44.1753 31.0484 43.4227C30.9927 43.3345 30.9423 43.2409 30.9008 43.139L24.5282 25.8008Z" fill="#464342"/>
<path d="M42.3545 14.1211C42.4437 14.7769 42.4942 15.4809 42.4942 16.2382C42.4942 18.3275 42.1013 20.6761 40.918 23.6127L34.5859 41.7956C40.7487 38.2263 44.894 31.5949 44.894 23.9994C44.8944 20.4199 43.9737 17.0538 42.3545 14.1211Z" fill="#464342"/>
<path d="M24.1645 0C10.8405 0 0 10.766 0 23.9994C0 37.2343 10.8405 48 24.1645 48C37.488 48 48.3301 37.2343 48.3301 23.9994C48.3297 10.766 37.488 0 24.1645 0ZM24.1645 46.8999C11.4515 46.8999 1.10799 36.6267 1.10799 23.9994C1.10799 11.3729 11.4511 1.10046 24.1645 1.10046C36.877 1.10046 47.2197 11.3729 47.2197 23.9994C47.2197 36.6267 36.877 46.8999 24.1645 46.8999Z" fill="#464342"/>
</svg>
