<svg width="222" height="270" viewBox="0 0 222 270" fill="none" xmlns="http://www.w3.org/2000/svg">
<rect x="1" y="1" width="220" height="268" rx="19" fill="#353535" stroke="url(#paint0_linear_2445_20048)" stroke-width="2" stroke-linecap="round" stroke-linejoin="round"/>
<path d="M125.059 99.664C128.54 93.2138 128.703 78.7138 128.624 73.0132V70.645C117.278 68.8579 105.722 68.8579 94.3761 70.645C94.3761 70.645 93.5004 91.5381 97.8817 99.664C100.724 104.933 105.589 108.735 108.662 110.758C108.355 110.851 108.126 111.133 108.126 111.473V112.54C108.126 112.953 108.464 113.29 108.88 113.29H109.546V123.327L107.68 126.521H105.578L101.749 130.391V136.695H99.8588V138.191H123.084V136.695H121.194V130.329L117.221 126.521H115.263L113.402 123.314H113.394V113.287H113.78C114.197 113.287 114.534 112.953 114.534 112.537V111.47C114.534 111.198 114.387 110.962 114.167 110.832C117.232 108.827 122.184 104.995 125.059 99.664Z" fill="url(#paint1_linear_2445_20048)"/>
<path d="M123.085 138.487H99.8592C99.6933 138.487 99.5573 138.354 99.5573 138.189V136.692C99.5573 136.527 99.6933 136.394 99.8592 136.394H101.447V130.389C101.447 130.31 101.477 130.234 101.534 130.177L105.364 126.307C105.421 126.25 105.497 126.217 105.579 126.217H107.507L109.245 123.243V113.586H108.88C108.298 113.586 107.825 113.116 107.825 112.537V111.47C107.825 111.196 107.931 110.94 108.11 110.753C104.73 108.472 100.3 104.789 97.6128 99.8054C95.7744 96.397 94.6185 90.4465 94.1807 82.1224C93.8543 75.9411 94.0692 70.6832 94.0719 70.6316C94.0773 70.4903 94.1834 70.3708 94.3275 70.3464C105.723 68.5512 117.276 68.5512 128.671 70.3464C128.817 70.3708 128.926 70.4958 128.926 70.6424V73.0107C129.008 78.9041 128.823 93.3199 125.326 99.8027C122.467 105.099 117.537 108.942 114.648 110.873C114.768 111.044 114.836 111.25 114.836 111.467V112.535C114.836 113.113 114.363 113.583 113.781 113.583H113.697V123.216L115.437 126.217H117.221C117.3 126.217 117.373 126.247 117.431 126.301L121.404 130.109C121.464 130.166 121.496 130.242 121.496 130.326V136.394H123.085C123.25 136.394 123.386 136.527 123.386 136.692V138.189C123.386 138.354 123.25 138.487 123.085 138.487ZM100.164 137.887H122.785V136.991H121.197C121.031 136.991 120.895 136.858 120.895 136.692V130.454L117.101 126.82H115.266C115.157 126.82 115.059 126.763 115.005 126.671L113.169 123.504C113.125 123.452 113.098 123.387 113.098 123.314V113.29C113.098 113.124 113.234 112.991 113.4 112.991H113.786C114.036 112.991 114.238 112.79 114.238 112.543V111.475C114.238 111.318 114.156 111.177 114.017 111.093C113.928 111.038 113.873 110.943 113.871 110.843C113.871 110.739 113.92 110.642 114.007 110.587C116.791 108.765 121.896 104.906 124.798 99.5284C128.23 93.1678 128.41 78.8742 128.328 73.0242V70.9086C117.161 69.1759 105.842 69.1759 94.6757 70.9086C94.5968 73.2768 94.1154 92.0407 98.1567 99.5284C100.887 104.591 105.472 108.298 108.839 110.514C108.937 110.579 108.989 110.693 108.973 110.807C108.956 110.921 108.875 111.016 108.763 111.052C108.573 111.109 108.442 111.28 108.442 111.478V112.546C108.442 112.793 108.644 112.994 108.894 112.994H109.56C109.726 112.994 109.862 113.127 109.862 113.292V123.33C109.862 123.385 109.848 123.436 109.821 123.482L107.955 126.676C107.901 126.769 107.803 126.826 107.694 126.826H105.72L102.065 130.519V136.7C102.065 136.866 101.929 136.999 101.763 136.999H100.175V137.895L100.164 137.887Z" fill="url(#paint2_linear_2445_20048)"/>
<path d="M138.18 72.3898C134.617 71.0129 131.019 72.474 129.624 75.8661C128.974 77.4467 128.974 79.1632 129.624 80.5727C130.22 81.8627 131.332 82.835 132.754 83.3103C133.187 83.4542 133.652 83.2234 133.796 82.7943C133.94 82.3652 133.709 81.9008 133.277 81.7568C132.398 81.4635 131.718 80.9339 131.288 80.2115C131.136 79.6629 131.076 79.1224 131.117 78.4842C131.133 78.2208 131.158 77.9546 131.231 77.702C131.68 76.1323 133.306 75.0649 134.903 75.1002C136.997 75.1464 138.177 76.7895 138.683 78.6526C139.238 80.7004 139.129 82.998 138.495 85.1028C137.299 87.5036 135.308 89.842 132.409 92.2808C131.985 92.6366 131.555 92.9869 131.12 93.3291C130.785 93.5926 130.435 93.8479 130.081 94.1032C128.675 95.1243 127.084 96.2786 126.293 98.1797C125.716 99.562 125.817 101.2 126.562 102.566C127.345 104.002 128.738 104.825 130.212 104.825C130.658 104.825 131.112 104.749 131.558 104.592C133.377 103.951 134.968 102.218 134.329 100.268C134.188 99.8391 133.723 99.6028 133.29 99.744C132.858 99.8852 132.621 100.347 132.763 100.776C133.13 101.898 131.74 102.791 131.008 103.049C129.866 103.448 128.634 102.93 128.009 101.784C127.5 100.849 127.427 99.7359 127.813 98.807C128.427 97.3296 129.703 96.4035 131.052 95.4258C131.422 95.1569 131.789 94.888 132.142 94.6137C132.591 94.2607 133.037 93.8995 133.472 93.5328C137.941 89.7741 140.407 86.181 141.237 82.224C141.628 80.3473 142.572 74.0872 138.177 72.3898H138.18Z" fill="url(#paint3_linear_2445_20048)"/>
<path d="M130.213 105.131C128.587 105.131 127.124 104.226 126.3 102.714C125.514 101.272 125.408 99.5334 126.017 98.0695C126.841 96.0924 128.47 94.9082 129.906 93.8653C130.259 93.6073 130.605 93.3575 130.937 93.0968C131.41 92.722 131.829 92.3825 132.218 92.0566C135.081 89.6476 137.045 87.3364 138.217 84.9953C138.851 82.8742 138.913 80.6527 138.394 78.7353C138.062 77.5131 137.167 75.4545 134.899 75.4029C133.373 75.3621 131.921 76.3915 131.524 77.7874C131.462 78.0047 131.437 78.2301 131.421 78.5071C131.383 79.0775 131.432 79.5717 131.57 80.0959C131.965 80.7368 132.587 81.2148 133.376 81.4756C133.964 81.6711 134.282 82.3066 134.086 82.8932C133.991 83.1757 133.79 83.4065 133.52 83.5396C133.251 83.6727 132.946 83.6944 132.661 83.5994C131.157 83.0969 129.982 82.0676 129.351 80.7015C128.666 79.216 128.666 77.4153 129.346 75.7587C130.803 72.209 134.565 70.6746 138.29 72.1167C142.903 73.8983 141.94 80.3539 141.535 82.2903C140.692 86.3152 138.193 89.9599 133.67 93.7649C133.246 94.1206 132.808 94.4764 132.332 94.8512C131.984 95.1255 131.627 95.3835 131.233 95.6714C129.92 96.6274 128.677 97.5263 128.095 98.9277C127.741 99.7751 127.809 100.791 128.277 101.646C128.829 102.659 129.914 103.121 130.912 102.771C131.527 102.553 132.778 101.777 132.481 100.872C132.389 100.587 132.413 100.286 132.549 100.019C132.685 99.7533 132.919 99.5551 133.205 99.4627C133.488 99.3704 133.792 99.3921 134.059 99.5279C134.328 99.6637 134.529 99.8946 134.622 100.18C135.321 102.312 133.618 104.194 131.663 104.878C131.192 105.044 130.706 105.128 130.216 105.128L130.213 105.131ZM134.826 74.8027C134.856 74.8027 134.886 74.8027 134.913 74.8027C136.857 74.8461 138.339 76.2231 138.976 78.5777C139.525 80.6092 139.457 82.9557 138.785 85.1909C138.78 85.2072 138.775 85.2235 138.766 85.237C137.559 87.6596 135.544 90.0414 132.604 92.5128C132.209 92.8442 131.785 93.1891 131.307 93.5666C130.969 93.83 130.618 94.088 130.262 94.3461C128.883 95.3482 127.328 96.478 126.569 98.3004C126.028 99.5985 126.123 101.144 126.825 102.428C127.543 103.746 128.81 104.531 130.208 104.531C130.629 104.531 131.048 104.457 131.453 104.316C133.14 103.724 134.619 102.138 134.04 100.367C133.996 100.234 133.904 100.128 133.779 100.063C133.654 100 133.515 99.9896 133.384 100.033C133.251 100.077 133.142 100.169 133.08 100.291C133.017 100.413 133.006 100.555 133.05 100.688C133.471 101.972 132.082 102.993 131.108 103.338C129.822 103.789 128.44 103.211 127.744 101.934C127.192 100.921 127.113 99.7099 127.534 98.6996C128.182 97.1461 129.49 96.1956 130.874 95.1907C131.241 94.9245 131.606 94.6584 131.954 94.3841C132.427 94.012 132.859 93.6617 133.278 93.3086C137.692 89.5933 140.126 86.0545 140.942 82.1681C141.323 80.3485 142.242 74.2867 138.07 72.6762C134.668 71.3617 131.23 72.7522 129.903 75.9868C129.286 77.4914 129.283 79.1209 129.898 80.4544C130.458 81.6684 131.505 82.5836 132.851 83.0318C132.985 83.0779 133.126 83.0671 133.251 83.0046C133.376 82.9421 133.469 82.8362 133.512 82.7058C133.605 82.4343 133.455 82.1409 133.183 82.0486C132.242 81.7363 131.497 81.1551 131.029 80.3702C131.016 80.3485 131.005 80.3213 130.999 80.2969C130.833 79.6967 130.776 79.1182 130.817 78.4718C130.833 78.2002 130.861 77.9096 130.942 77.6272C131.404 76.0058 133.063 74.8054 134.823 74.8054L134.826 74.8027Z" fill="url(#paint4_linear_2445_20048)"/>
<path d="M96.6062 98.1875C95.8148 96.2864 94.2211 95.1294 92.8178 94.111C92.4642 93.8557 92.1134 93.6004 91.7789 93.3369C91.3437 92.9947 90.914 92.6471 90.4898 92.2886C87.5907 89.8498 85.6 87.5114 84.4033 85.1106C83.7697 83.0058 83.6609 80.7082 84.2157 78.6604C84.7215 76.7973 85.9018 75.1542 87.9959 75.108C89.5923 75.0727 91.2186 76.1374 91.6674 77.7098C91.7408 77.9651 91.7653 78.2286 91.7816 78.492C91.8224 79.1302 91.7626 79.6707 91.6103 80.2193C91.1806 80.9417 90.4979 81.474 89.6222 81.7646C89.1898 81.9086 88.9587 82.373 89.1028 82.8021C89.2469 83.2312 89.712 83.4621 90.1444 83.3181C91.5695 82.8428 92.6818 81.8706 93.2747 80.5805C93.9246 79.171 93.9246 77.4546 93.2747 75.8739C91.8795 72.4818 88.2815 71.0207 84.7188 72.3976C80.3267 74.095 81.2676 80.3524 81.6593 82.2318C82.4887 86.1861 84.9554 89.7792 89.4237 93.5406C89.8616 93.9073 90.3049 94.2685 90.7536 94.6216C91.1044 94.8986 91.4716 95.1647 91.8442 95.4336C93.1931 96.414 94.4686 97.3401 95.0832 98.8149C95.4721 99.7437 95.3987 100.857 94.8874 101.791C94.2619 102.938 93.0299 103.456 91.8877 103.057C91.1561 102.799 89.7637 101.906 90.1335 100.784C90.2749 100.355 90.0383 99.893 89.6059 99.7518C89.1762 99.6106 88.7085 99.8469 88.567 100.276C87.9279 102.226 89.5189 103.959 91.3383 104.6C91.7843 104.757 92.2385 104.833 92.6845 104.833C94.1585 104.833 95.551 104.008 96.3342 102.574C97.0794 101.21 97.18 99.5699 96.6035 98.1875H96.6062Z" fill="url(#paint5_linear_2445_20048)"/>
<path d="M92.69 105.135C92.2005 105.135 91.7137 105.051 91.2432 104.885C89.2878 104.198 87.5881 102.318 88.2843 100.186C88.3767 99.9012 88.578 99.6704 88.8472 99.5346C89.1165 99.3988 89.4183 99.3771 89.7039 99.4694C89.9895 99.5618 90.2206 99.76 90.3566 100.026C90.4926 100.292 90.5171 100.596 90.4246 100.879C90.1282 101.783 91.3792 102.56 91.9938 102.777C92.9919 103.128 94.0743 102.663 94.6264 101.653C95.0941 100.797 95.1621 99.779 94.8086 98.9344C94.2266 97.5357 92.9837 96.634 91.6702 95.6781C91.2758 95.3929 90.9196 95.1322 90.5715 94.8579C90.0928 94.4831 89.655 94.1273 89.2334 93.7715C84.7107 89.9666 82.2114 86.3192 81.3683 82.297C80.9631 80.3606 80.0004 73.905 84.6128 72.1233C88.3359 70.6839 92.0971 72.2157 93.5576 75.7653C94.2375 77.422 94.2375 79.2253 93.5521 80.7082C92.9212 82.0743 91.7463 83.1036 90.2424 83.606C89.9568 83.7011 89.6522 83.6794 89.383 83.5463C89.1138 83.4132 88.9125 83.1851 88.8173 82.8999C88.6188 82.316 88.937 81.6805 89.5271 81.4849C90.3158 81.2215 90.9386 80.7462 91.3329 80.1053C91.4744 79.5811 91.5206 79.0868 91.4825 78.5165C91.4635 78.2395 91.439 78.0113 91.3792 77.7968C90.9821 76.4036 89.5299 75.3634 88.0042 75.415C85.7333 75.4666 84.8413 77.5252 84.5095 78.7473C83.99 80.6647 84.0526 82.8863 84.6862 85.0074C85.8584 87.3485 87.8219 89.657 90.6857 92.0687C91.0773 92.4 91.4988 92.7395 91.9693 93.1089C92.2957 93.3641 92.6356 93.614 92.9783 93.8639C94.4333 94.9203 96.0623 96.1045 96.8891 98.0816C97.4983 99.5455 97.3949 101.281 96.6062 102.726C95.7795 104.238 94.3163 105.143 92.6927 105.143L92.69 105.135ZM89.3504 100.013C89.2715 100.013 89.1899 100.032 89.1165 100.07C88.9914 100.132 88.8989 100.241 88.8554 100.374C88.2761 102.145 89.7556 103.731 91.4417 104.323C91.8469 104.467 92.2685 104.537 92.6873 104.537C94.0879 104.537 95.3525 103.752 96.0705 102.435C96.7721 101.151 96.8673 99.6052 96.3261 98.307C95.5646 96.4847 94.009 95.3549 92.6384 94.3581C92.2685 94.0893 91.9231 93.8367 91.5913 93.576C91.1154 93.2012 90.6911 92.8563 90.2941 92.5222C87.3569 90.0508 85.3417 87.6717 84.1315 85.2464C84.1233 85.2301 84.1179 85.2165 84.1124 85.2002C83.4407 82.9651 83.3727 80.6186 83.922 78.5871C84.5611 76.2325 86.0406 74.8555 87.9851 74.8121C89.7855 74.774 91.4825 75.9826 91.953 77.6311C92.0346 77.9136 92.0618 78.2042 92.0781 78.4758C92.1189 79.1221 92.0618 79.7033 91.8959 80.3008C91.8877 80.3253 91.8769 80.3524 91.866 80.3742C91.3982 81.159 90.6558 81.7375 89.7121 82.0526C89.4401 82.1449 89.2932 82.4382 89.383 82.7098C89.4265 82.8402 89.5217 82.9488 89.6441 83.0085C89.7665 83.0683 89.9106 83.0792 90.0439 83.0357C91.3901 82.5876 92.4371 81.6723 92.9973 80.4583C93.612 79.1249 93.612 77.4953 92.9919 75.9907C91.662 72.7561 88.2272 71.3656 84.8249 72.6801C80.6531 74.2906 81.5723 80.3524 81.953 82.1721C82.7662 86.0585 85.203 89.5972 89.6169 93.3125C90.0357 93.6629 90.4681 94.0159 90.9413 94.388C91.2813 94.6569 91.6321 94.9122 92.021 95.1946C93.4053 96.2022 94.7134 97.1501 95.3607 98.7063C95.7822 99.7193 95.7061 100.928 95.1513 101.941C94.455 103.217 93.0735 103.796 91.7871 103.345C90.8135 103.003 89.4238 101.982 89.8453 100.694C89.8888 100.564 89.878 100.423 89.8154 100.298C89.7529 100.173 89.6441 100.083 89.5108 100.04C89.4564 100.023 89.402 100.013 89.3476 100.013H89.3504Z" fill="url(#paint6_linear_2445_20048)"/>
<path d="M149.704 46.9576C152.725 49.7088 153.266 54.027 153.266 54.027C153.266 54.027 148.912 53.8831 145.891 51.1319C142.869 48.3807 142.328 44.0625 142.328 44.0625C142.328 44.0625 146.682 44.2064 149.704 46.9576Z" fill="url(#paint7_linear_2445_20048)"/>
<path d="M128.461 148.346C125.861 151.679 125.703 155.614 125.738 155.625C125.727 155.674 131.194 154.147 133.65 150.473C136.103 146.844 134.909 143.083 134.944 143.094C134.93 143.129 131.058 145.044 128.461 148.344V148.346Z" fill="url(#paint8_linear_2445_20048)"/>
<path d="M132.29 159.882C127.493 159.068 125.7 155.445 125.703 155.477C125.76 155.494 130.903 154.013 135.333 154.532C139.807 155.075 142.437 157.851 142.437 157.881C142.499 157.894 137.142 160.713 132.293 159.88L132.29 159.882Z" fill="url(#paint9_linear_2445_20048)"/>
<path d="M137.946 144.186C136.159 147.839 136.801 151.66 136.834 151.668C136.828 151.72 141.634 149.335 143.252 145.37C144.876 141.448 143.029 138.01 143.062 138.016C143.054 138.054 139.733 140.563 137.946 144.186Z" fill="url(#paint10_linear_2445_20048)"/>
<path d="M143.809 154.69C139.145 154.703 136.771 151.504 136.773 151.537C136.825 151.545 141.334 149.258 145.634 149.016C149.977 148.788 153.02 151.026 153.023 151.056C153.083 151.061 148.522 154.69 143.809 154.692V154.69Z" fill="url(#paint11_linear_2445_20048)"/>
<path d="M146.139 138.556C145.124 142.396 146.476 145.981 146.506 145.981C146.506 146.03 150.623 142.915 151.447 138.792C152.279 134.715 149.875 131.695 149.905 131.695C149.905 131.733 147.158 134.743 146.139 138.553V138.556Z" fill="url(#paint12_linear_2445_20048)"/>
<path d="M153.727 147.718C149.275 148.525 146.414 145.828 146.422 145.858C146.471 145.858 150.319 142.884 154.412 141.912C158.546 140.948 161.899 142.594 161.907 142.621C161.962 142.615 158.228 146.917 153.729 147.718H153.727Z" fill="url(#paint13_linear_2445_20048)"/>
<path d="M152.973 131.692C152.69 135.595 154.657 138.835 154.686 138.832C154.695 138.881 158.091 135.152 158.162 131.002C158.246 126.893 155.38 124.373 155.41 124.367C155.413 124.405 153.267 127.816 152.976 131.692H152.973Z" fill="url(#paint14_linear_2445_20048)"/>
<path d="M161.973 139.276C157.812 140.824 154.57 138.703 154.578 138.73C154.622 138.722 157.785 135.178 161.592 133.518C165.435 131.861 168.995 132.874 169.006 132.902C169.057 132.888 166.177 137.72 161.973 139.273V139.276Z" fill="url(#paint15_linear_2445_20048)"/>
<path d="M158.396 123.825C158.798 127.676 161.289 130.481 161.314 130.473C161.327 130.519 163.979 126.301 163.34 122.238C162.717 118.216 159.492 116.258 159.519 116.25C159.527 116.288 158.007 120.001 158.396 123.825Z" fill="url(#paint16_linear_2445_20048)"/>
<path d="M168.492 129.627C164.706 131.862 161.182 130.363 161.195 130.388C161.233 130.374 163.689 126.374 167.127 124.084C170.597 121.792 174.255 122.151 174.268 122.175C174.315 122.153 172.319 127.379 168.492 129.625V129.627Z" fill="url(#paint17_linear_2445_20048)"/>
<path d="M162.354 115.186C163.398 118.882 166.314 121.177 166.335 121.166C166.354 121.21 168.234 116.623 166.928 112.755C165.647 108.926 162.161 107.576 162.183 107.562C162.199 107.598 161.326 111.514 162.351 115.183L162.354 115.186Z" fill="url(#paint18_linear_2445_20048)"/>
<path d="M173.219 119.072C169.893 121.927 166.195 121.082 166.211 121.107C166.246 121.088 167.968 116.748 170.951 113.893C173.967 111.031 177.612 110.729 177.628 110.751C177.671 110.724 176.586 116.202 173.219 119.072Z" fill="url(#paint19_linear_2445_20048)"/>
<path d="M164.783 106.013C166.422 109.457 169.659 111.187 169.681 111.171C169.708 111.211 170.782 106.377 168.859 102.803C166.964 99.2615 163.322 98.5554 163.344 98.5391C163.366 98.5717 163.164 102.591 164.783 106.013Z" fill="url(#paint20_linear_2445_20048)"/>
<path d="M176.074 107.888C173.292 111.285 169.525 111.114 169.547 111.133C169.577 111.109 170.542 106.546 172.987 103.2C175.462 99.8408 178.979 98.8875 179 98.9065C179.038 98.8739 178.894 104.466 176.074 107.885V107.888Z" fill="url(#paint21_linear_2445_20048)"/>
<path d="M165.63 96.5412C167.813 99.6481 171.273 100.767 171.292 100.751C171.324 100.786 171.569 95.8296 169.075 92.6358C166.614 89.469 162.926 89.4202 162.945 89.3984C162.973 89.4283 163.47 93.4532 165.63 96.5412Z" fill="url(#paint22_linear_2445_20048)"/>
<path d="M176.997 96.3689C174.846 100.22 171.128 100.725 171.152 100.741C171.177 100.712 171.359 96.043 173.181 92.2924C175.031 88.5228 178.302 86.9448 178.327 86.9611C178.359 86.9231 179.183 92.4906 176.997 96.3689Z" fill="url(#paint23_linear_2445_20048)"/>
<path d="M164.832 87.0057C167.511 89.6998 171.087 90.186 171.104 90.1642C171.145 90.1941 170.527 85.2377 167.514 82.5028C164.539 79.7896 160.913 80.3926 160.93 80.3708C160.965 80.3953 162.183 84.3251 164.832 87.0057Z" fill="url(#paint24_linear_2445_20048)"/>
<path d="M175.923 84.7989C174.489 89.0085 170.935 90.1709 170.962 90.1844C170.984 90.1518 170.355 85.4914 171.468 81.4285C172.602 77.3438 175.509 75.182 175.536 75.1956C175.564 75.1521 177.386 80.5567 175.92 84.7989H175.923Z" fill="url(#paint25_linear_2445_20048)"/>
<path d="M162.336 77.6525C165.458 79.8686 169.04 79.7111 169.053 79.6894C169.1 79.7138 167.596 74.8796 164.115 72.6716C160.677 70.4799 157.229 71.7183 157.242 71.6939C157.283 71.7129 159.249 75.4472 162.336 77.6525Z" fill="url(#paint26_linear_2445_20048)"/>
<path d="M172.79 73.4661C172.167 77.9255 168.89 79.718 168.923 79.7261C168.939 79.6908 167.481 75.1553 167.789 70.886C168.118 66.5922 170.538 63.9062 170.571 63.9144C170.595 63.8682 173.44 68.9686 172.787 73.4661H172.79Z" fill="url(#paint27_linear_2445_20048)"/>
<path d="M158.086 68.6986C161.597 70.3797 165.075 69.5867 165.086 69.5623C165.141 69.5813 162.717 64.9942 158.823 63.3674C154.975 61.7514 151.817 63.5955 151.828 63.5683C151.877 63.5819 154.616 67.0202 158.086 68.6959V68.6986Z" fill="url(#paint28_linear_2445_20048)"/>
<path d="M167.529 62.6593C167.809 67.2518 164.932 69.6227 164.967 69.6282C164.978 69.5901 162.664 65.2936 162.079 60.9347C161.511 56.5486 163.322 53.4117 163.357 53.4144C163.376 53.3656 167.274 58.026 167.529 62.6565V62.6593Z" fill="url(#paint29_linear_2445_20048)"/>
<path d="M152.014 60.4026C155.86 61.5025 159.12 60.0957 159.126 60.0713C159.186 60.0821 155.819 55.8671 151.565 54.8731C147.364 53.8818 144.617 56.2799 144.625 56.2528C144.679 56.2582 148.215 59.3 152.014 60.4026Z" fill="url(#paint30_linear_2445_20048)"/>
<path d="M160.058 52.6695C161.333 57.2675 158.978 60.1572 159.019 60.1572C159.025 60.1192 155.829 56.1784 154.257 51.8521C152.699 47.4958 153.77 44.0005 153.811 44.0005C153.825 43.9489 158.804 48.0281 160.058 52.6695Z" fill="url(#paint31_linear_2445_20048)"/>
<path d="M110.36 156.828L110.436 155.986C117.428 156.619 124.398 155.839 131.151 153.675C137.732 151.565 143.824 148.232 149.261 143.773C160.542 134.517 167.817 121.307 169.745 106.576C171.325 94.515 170.515 83.7656 167.335 74.6294C163.922 64.817 157.847 57.142 149.272 51.8107L149.72 51.0938C158.461 56.5282 164.657 64.3553 168.135 74.3524C171.358 83.6135 172.179 94.4933 170.583 106.688C168.624 121.63 161.243 135.033 149.794 144.427C144.276 148.957 138.089 152.339 131.404 154.481C124.54 156.681 117.458 157.472 110.352 156.831L110.36 156.828Z" fill="url(#paint32_linear_2445_20048)"/>
<path d="M73.2971 46.9576C70.2756 49.7088 69.7344 54.027 69.7344 54.027C69.7344 54.027 74.0885 53.8831 77.1099 51.1319C80.1287 48.3807 80.6726 44.0625 80.6726 44.0625C80.6726 44.0625 76.3185 44.2064 73.2971 46.9576Z" fill="url(#paint33_linear_2445_20048)"/>
<path d="M94.5402 148.346C97.1401 151.679 97.2979 155.614 97.2625 155.625C97.2734 155.674 91.807 154.147 89.3512 150.473C86.8981 146.844 88.092 143.083 88.0567 143.094C88.0703 143.129 91.943 145.044 94.5402 148.344V148.346Z" fill="url(#paint34_linear_2445_20048)"/>
<path d="M90.7099 159.882C95.5072 159.068 97.2995 155.445 97.2967 155.477C97.2396 155.494 92.0969 154.013 87.6666 154.532C83.1929 155.075 80.563 157.851 80.563 157.881C80.5005 157.894 85.8581 160.713 90.7071 159.88L90.7099 159.882Z" fill="url(#paint35_linear_2445_20048)"/>
<path d="M85.0491 144.186C86.8359 147.839 86.194 151.66 86.1614 151.668C86.1668 151.72 81.3613 149.335 79.7432 145.37C78.1196 141.448 79.9662 138.01 79.9335 138.016C79.9417 138.054 83.2623 140.563 85.0491 144.186Z" fill="url(#paint36_linear_2445_20048)"/>
<path d="M79.1911 154.69C83.8553 154.703 86.2295 151.504 86.2267 151.537C86.1751 151.545 81.666 149.258 77.3663 149.016C73.0231 148.788 69.9799 151.026 69.9771 151.056C69.9173 151.061 74.4781 154.69 79.1911 154.692V154.69Z" fill="url(#paint37_linear_2445_20048)"/>
<path d="M76.8667 138.556C77.8811 142.396 76.5295 145.981 76.4995 145.981C76.4995 146.03 72.3821 142.915 71.558 138.792C70.7258 134.715 73.13 131.695 73.1 131.695C73.1 131.733 75.8468 134.743 76.8667 138.553V138.556Z" fill="url(#paint38_linear_2445_20048)"/>
<path d="M69.2788 147.718C73.7308 148.525 76.5918 145.828 76.5836 145.858C76.5347 145.858 72.6865 142.884 68.5935 141.912C64.4597 140.948 61.1064 142.594 61.0982 142.621C61.0439 142.615 64.7779 146.917 69.2761 147.718H69.2788Z" fill="url(#paint39_linear_2445_20048)"/>
<path d="M70.0268 131.692C70.3096 135.595 68.3433 138.835 68.3134 138.832C68.3053 138.881 64.9085 135.152 64.8378 131.002C64.7535 126.893 67.6199 124.373 67.59 124.367C67.5873 124.405 69.733 127.816 70.024 131.692H70.0268Z" fill="url(#paint40_linear_2445_20048)"/>
<path d="M61.0258 139.276C65.1867 140.824 68.4285 138.703 68.4203 138.73C68.3768 138.722 65.2139 135.178 61.4065 133.518C57.5637 131.861 54.0038 132.874 53.9929 132.902C53.9412 132.888 56.8213 137.72 61.0258 139.273V139.276Z" fill="url(#paint41_linear_2445_20048)"/>
<path d="M64.6022 123.825C64.1997 127.676 61.7086 130.481 61.6841 130.473C61.6705 130.519 59.0189 126.301 59.658 122.238C60.2808 118.216 63.5062 116.258 63.479 116.25C63.4709 116.288 64.9911 120.001 64.6022 123.825Z" fill="url(#paint42_linear_2445_20048)"/>
<path d="M54.5077 129.627C58.2934 131.862 61.818 130.363 61.8044 130.388C61.7636 130.374 59.3105 126.374 55.8729 124.084C52.4027 121.792 48.7449 122.151 48.7313 122.175C48.685 122.153 50.6812 127.379 54.5077 129.625V129.627Z" fill="url(#paint43_linear_2445_20048)"/>
<path d="M60.6526 115.186C59.6083 118.882 56.6929 121.177 56.6711 121.166C56.6521 121.21 54.7729 116.623 56.0783 112.755C57.3592 108.926 60.8457 107.576 60.824 107.562C60.8076 107.598 61.6806 111.514 60.6553 115.183L60.6526 115.186Z" fill="url(#paint44_linear_2445_20048)"/>
<path d="M49.7886 119.072C53.1147 121.927 56.8133 121.082 56.797 121.107C56.7617 121.088 55.0402 116.748 52.0568 113.893C49.0407 111.031 45.3965 110.729 45.3802 110.751C45.3366 110.724 46.4218 116.202 49.7886 119.072Z" fill="url(#paint45_linear_2445_20048)"/>
<path d="M58.2176 106.013C56.5777 109.457 53.3414 111.187 53.3196 111.171C53.2924 111.211 52.2182 106.377 54.1409 102.803C56.0365 99.2615 59.678 98.5554 59.6563 98.5391C59.6345 98.5717 59.8358 102.591 58.2176 106.013Z" fill="url(#paint46_linear_2445_20048)"/>
<path d="M46.9307 107.893C49.7129 111.291 53.4768 111.119 53.4578 111.138C53.4279 111.114 52.4624 106.551 50.0175 103.205C47.5399 99.8486 44.0235 98.8953 44.0045 98.9143C43.9664 98.8817 44.1105 104.474 46.9307 107.893Z" fill="url(#paint47_linear_2445_20048)"/>
<path d="M57.3711 96.5412C55.1873 99.6481 51.728 100.767 51.7089 100.751C51.6763 100.786 51.4315 95.8296 53.9254 92.6358C56.3866 89.469 60.0744 89.4202 60.0554 89.3984C60.0282 89.4283 59.5305 93.4532 57.3711 96.5412Z" fill="url(#paint48_linear_2445_20048)"/>
<path d="M46.0049 96.3689C48.1561 100.22 51.8738 100.725 51.8493 100.741C51.8248 100.712 51.6426 96.043 49.8205 92.2924C47.9711 88.5228 44.6995 86.9448 44.675 86.9611C44.6424 86.9231 43.8183 92.4906 46.0049 96.3689Z" fill="url(#paint49_linear_2445_20048)"/>
<path d="M58.1717 87.0057C55.4929 89.6998 51.9166 90.186 51.9003 90.1642C51.8595 90.1941 52.4768 85.2377 55.4902 82.5028C58.4654 79.7896 62.0906 80.3926 62.0743 80.3708C62.0389 80.3953 60.8206 84.3251 58.1717 87.0057Z" fill="url(#paint50_linear_2445_20048)"/>
<path d="M47.0749 84.7989C48.5081 89.0085 52.0626 90.1709 52.0354 90.1844C52.0137 90.1518 52.6419 85.4914 51.5296 81.4285C50.3955 77.3438 47.4883 75.182 47.4611 75.1956C47.4339 75.1521 45.6117 80.5567 47.0776 84.7989H47.0749Z" fill="url(#paint51_linear_2445_20048)"/>
<path d="M60.6638 77.6525C57.5417 79.8686 53.9599 79.7111 53.9463 79.6894C53.9001 79.7138 55.404 74.8796 58.8851 72.6716C62.3227 70.4799 65.7712 71.7183 65.7576 71.6939C65.7168 71.7129 63.7505 75.4472 60.6638 77.6525Z" fill="url(#paint52_linear_2445_20048)"/>
<path d="M50.2117 73.4661C50.8345 77.9255 54.1116 79.718 54.079 79.7261C54.0627 79.6908 55.5204 75.1553 55.2131 70.886C54.884 66.5922 52.4636 63.9062 52.4309 63.9144C52.4065 63.8682 49.5618 68.9686 50.2145 73.4661H50.2117Z" fill="url(#paint53_linear_2445_20048)"/>
<path d="M64.9152 68.6986C61.4042 70.3797 57.9258 69.5867 57.915 69.5623C57.8606 69.5813 60.2837 64.9942 64.1782 63.3674C68.0264 61.7514 71.1839 63.5955 71.173 63.5683C71.124 63.5819 68.3854 67.0202 64.9152 68.6959V68.6986Z" fill="url(#paint54_linear_2445_20048)"/>
<path d="M55.4801 62.6593C55.2 67.2518 58.0774 69.6227 58.042 69.6282C58.0311 69.5901 60.3455 65.2936 60.9302 60.9347C61.4986 56.5486 59.6874 53.4117 59.652 53.4144C59.633 53.3656 55.7358 58.026 55.4801 62.6565V62.6593Z" fill="url(#paint55_linear_2445_20048)"/>
<path d="M70.9836 60.4026C67.1381 61.5025 63.8773 60.0957 63.8719 60.0713C63.812 60.0821 67.1789 55.8671 71.4324 54.8731C75.6341 53.8818 78.3809 56.2799 78.3728 56.2528C78.3184 56.2582 74.7829 59.3 70.9836 60.4026Z" fill="url(#paint56_linear_2445_20048)"/>
<path d="M62.9377 52.6695C61.6622 57.2675 64.0174 60.1572 63.9766 60.1572C63.9712 60.1192 67.1667 56.1784 68.7386 51.8521C70.2969 47.4958 69.2227 44.0005 69.1846 44.0005C69.171 43.9489 64.1914 48.0281 62.9377 52.6695Z" fill="url(#paint57_linear_2445_20048)"/>
<path d="M112.643 156.828L112.567 155.986C105.575 156.619 98.6043 155.839 91.8515 153.675C85.2701 151.565 79.1782 148.232 73.7417 143.773C62.4608 134.517 55.1859 121.307 53.2577 106.576C51.6776 94.515 52.4881 83.7656 55.6673 74.6294C59.0804 64.817 65.1559 57.142 73.7308 51.8107L73.2821 51.0938C64.5413 56.5282 58.3461 64.3553 54.8677 74.3524C51.645 83.6135 50.8237 94.4933 52.4201 106.688C54.3782 121.63 61.7592 135.033 73.2087 144.427C78.7267 148.957 84.9138 152.339 91.5986 154.481C98.4629 156.681 105.545 157.472 112.651 156.831L112.643 156.828Z" fill="url(#paint58_linear_2445_20048)"/>
<path d="M111.252 152.523L104.848 157.227L111.252 161.928L117.654 157.227L111.252 152.523Z" fill="url(#paint59_linear_2445_20048)"/>
<path d="M45.3623 185.73C45.2156 185.116 44.9489 184.656 44.5623 184.35C44.1756 184.043 43.6356 183.89 42.9423 183.89C41.8889 183.89 41.1023 184.296 40.5823 185.11C40.0623 185.91 39.7889 187.243 39.7623 189.11C40.1089 188.523 40.6156 188.07 41.2823 187.75C41.9489 187.43 42.6689 187.27 43.4423 187.27C44.3223 187.27 45.0956 187.463 45.7623 187.85C46.4423 188.223 46.9689 188.77 47.3423 189.49C47.7289 190.21 47.9223 191.07 47.9223 192.07C47.9223 193.003 47.7356 193.836 47.3623 194.57C47.0023 195.303 46.4623 195.883 45.7423 196.31C45.0223 196.723 44.1556 196.93 43.1423 196.93C41.7689 196.93 40.6889 196.63 39.9023 196.03C39.1289 195.416 38.5823 194.556 38.2623 193.45C37.9556 192.343 37.8023 190.963 37.8023 189.31C37.8023 184.43 39.5223 181.99 42.9623 181.99C44.2956 181.99 45.3423 182.35 46.1023 183.07C46.8756 183.79 47.3289 184.676 47.4623 185.73H45.3623ZM42.9423 189.19C42.1289 189.19 41.4356 189.436 40.8623 189.93C40.3023 190.41 40.0223 191.11 40.0223 192.03C40.0223 192.95 40.2823 193.683 40.8023 194.23C41.3356 194.763 42.0756 195.03 43.0223 195.03C43.8623 195.03 44.5223 194.77 45.0023 194.25C45.4956 193.73 45.7423 193.036 45.7423 192.17C45.7423 191.263 45.5023 190.543 45.0223 190.01C44.5556 189.463 43.8623 189.19 42.9423 189.19ZM50.3543 189.45C50.3543 187.143 50.741 185.343 51.5143 184.05C52.301 182.743 53.6476 182.09 55.5543 182.09C57.461 182.09 58.801 182.743 59.5743 184.05C60.361 185.343 60.7543 187.143 60.7543 189.45C60.7543 191.783 60.361 193.61 59.5743 194.93C58.801 196.236 57.461 196.89 55.5543 196.89C53.6476 196.89 52.301 196.236 51.5143 194.93C50.741 193.61 50.3543 191.783 50.3543 189.45ZM58.5143 189.45C58.5143 188.37 58.441 187.456 58.2943 186.71C58.161 185.963 57.881 185.356 57.4543 184.89C57.0276 184.41 56.3943 184.17 55.5543 184.17C54.7143 184.17 54.081 184.41 53.6543 184.89C53.2276 185.356 52.941 185.963 52.7943 186.71C52.661 187.456 52.5943 188.37 52.5943 189.45C52.5943 190.57 52.661 191.51 52.7943 192.27C52.9276 193.03 53.2076 193.643 53.6343 194.11C54.0743 194.576 54.7143 194.81 55.5543 194.81C56.3943 194.81 57.0276 194.576 57.4543 194.11C57.8943 193.643 58.181 193.03 58.3143 192.27C58.4476 191.51 58.5143 190.57 58.5143 189.45ZM74.2068 190.67H70.1668V194.81H68.0468V190.67H64.0068V188.75H68.0468V184.61H70.1668V188.75H74.2068V190.67ZM87.4795 183.03C88.9595 183.03 90.2528 183.316 91.3595 183.89C92.4795 184.45 93.3395 185.263 93.9395 186.33C94.5528 187.383 94.8595 188.616 94.8595 190.03C94.8595 191.443 94.5528 192.67 93.9395 193.71C93.3395 194.75 92.4795 195.55 91.3595 196.11C90.2528 196.656 88.9595 196.93 87.4795 196.93H82.9395V183.03H87.4795ZM87.4795 195.07C89.1061 195.07 90.3528 194.63 91.2195 193.75C92.0861 192.87 92.5195 191.63 92.5195 190.03C92.5195 188.416 92.0861 187.156 91.2195 186.25C90.3528 185.343 89.1061 184.89 87.4795 184.89H85.2195V195.07H87.4795ZM107.219 191.15C107.219 191.563 107.192 191.936 107.139 192.27H98.7191C98.7858 193.15 99.1125 193.856 99.6991 194.39C100.286 194.923 101.006 195.19 101.859 195.19C103.086 195.19 103.952 194.676 104.459 193.65H106.919C106.586 194.663 105.979 195.496 105.099 196.15C104.232 196.79 103.152 197.11 101.859 197.11C100.806 197.11 99.8591 196.876 99.0191 196.41C98.1925 195.93 97.5391 195.263 97.0591 194.41C96.5925 193.543 96.3591 192.543 96.3591 191.41C96.3591 190.276 96.5858 189.283 97.0391 188.43C97.5058 187.563 98.1525 186.896 98.9791 186.43C99.8191 185.963 100.779 185.73 101.859 185.73C102.899 185.73 103.826 185.956 104.639 186.41C105.452 186.863 106.086 187.503 106.539 188.33C106.992 189.143 107.219 190.083 107.219 191.15ZM104.839 190.43C104.826 189.59 104.526 188.916 103.939 188.41C103.352 187.903 102.626 187.65 101.759 187.65C100.972 187.65 100.299 187.903 99.7391 188.41C99.1791 188.903 98.8458 189.576 98.7391 190.43H104.839ZM108.703 191.37C108.703 190.263 108.93 189.283 109.383 188.43C109.85 187.576 110.476 186.916 111.263 186.45C112.063 185.97 112.95 185.73 113.923 185.73C114.643 185.73 115.35 185.89 116.043 186.21C116.75 186.516 117.31 186.93 117.723 187.45V182.13H120.023V196.93H117.723V195.27C117.35 195.803 116.83 196.243 116.163 196.59C115.51 196.936 114.756 197.11 113.903 197.11C112.943 197.11 112.063 196.87 111.263 196.39C110.476 195.896 109.85 195.216 109.383 194.35C108.93 193.47 108.703 192.476 108.703 191.37ZM117.723 191.41C117.723 190.65 117.563 189.99 117.243 189.43C116.936 188.87 116.53 188.443 116.023 188.15C115.516 187.856 114.97 187.71 114.383 187.71C113.796 187.71 113.25 187.856 112.743 188.15C112.236 188.43 111.823 188.85 111.503 189.41C111.196 189.956 111.043 190.61 111.043 191.37C111.043 192.13 111.196 192.796 111.503 193.37C111.823 193.943 112.236 194.383 112.743 194.69C113.263 194.983 113.81 195.13 114.383 195.13C114.97 195.13 115.516 194.983 116.023 194.69C116.53 194.396 116.936 193.97 117.243 193.41C117.563 192.836 117.723 192.17 117.723 191.41ZM124.178 184.45C123.764 184.45 123.418 184.31 123.138 184.03C122.858 183.75 122.718 183.403 122.718 182.99C122.718 182.576 122.858 182.23 123.138 181.95C123.418 181.67 123.764 181.53 124.178 181.53C124.578 181.53 124.918 181.67 125.198 181.95C125.478 182.23 125.618 182.576 125.618 182.99C125.618 183.403 125.478 183.75 125.198 184.03C124.918 184.31 124.578 184.45 124.178 184.45ZM125.298 185.91V196.93H123.018V185.91H125.298ZM127.531 191.41C127.531 190.276 127.758 189.283 128.211 188.43C128.678 187.563 129.318 186.896 130.131 186.43C130.944 185.963 131.878 185.73 132.931 185.73C134.264 185.73 135.364 186.05 136.231 186.69C137.111 187.316 137.704 188.216 138.011 189.39H135.551C135.351 188.843 135.031 188.416 134.591 188.11C134.151 187.803 133.598 187.65 132.931 187.65C131.998 187.65 131.251 187.983 130.691 188.65C130.144 189.303 129.871 190.223 129.871 191.41C129.871 192.596 130.144 193.523 130.691 194.19C131.251 194.856 131.998 195.19 132.931 195.19C134.251 195.19 135.124 194.61 135.551 193.45H138.011C137.691 194.57 137.091 195.463 136.211 196.13C135.331 196.783 134.238 197.11 132.931 197.11C131.878 197.11 130.944 196.876 130.131 196.41C129.318 195.93 128.678 195.263 128.211 194.41C127.758 193.543 127.531 192.543 127.531 191.41ZM139.523 191.37C139.523 190.263 139.75 189.283 140.203 188.43C140.67 187.576 141.297 186.916 142.083 186.45C142.883 185.97 143.763 185.73 144.723 185.73C145.59 185.73 146.343 185.903 146.983 186.25C147.637 186.583 148.157 187.003 148.543 187.51V185.91H150.843V196.93H148.543V195.29C148.157 195.81 147.63 196.243 146.963 196.59C146.297 196.936 145.537 197.11 144.683 197.11C143.737 197.11 142.87 196.87 142.083 196.39C141.297 195.896 140.67 195.216 140.203 194.35C139.75 193.47 139.523 192.476 139.523 191.37ZM148.543 191.41C148.543 190.65 148.383 189.99 148.063 189.43C147.757 188.87 147.35 188.443 146.843 188.15C146.337 187.856 145.79 187.71 145.203 187.71C144.617 187.71 144.07 187.856 143.563 188.15C143.057 188.43 142.643 188.85 142.323 189.41C142.017 189.956 141.863 190.61 141.863 191.37C141.863 192.13 142.017 192.796 142.323 193.37C142.643 193.943 143.057 194.383 143.563 194.69C144.083 194.983 144.63 195.13 145.203 195.13C145.79 195.13 146.337 194.983 146.843 194.69C147.35 194.396 147.757 193.97 148.063 193.41C148.383 192.836 148.543 192.17 148.543 191.41ZM156.498 187.77V193.87C156.498 194.283 156.591 194.583 156.778 194.77C156.978 194.943 157.311 195.03 157.778 195.03H159.178V196.93H157.378C156.351 196.93 155.565 196.69 155.018 196.21C154.471 195.73 154.198 194.95 154.198 193.87V187.77H152.898V185.91H154.198V183.17H156.498V185.91H159.178V187.77H156.498ZM171.379 191.15C171.379 191.563 171.353 191.936 171.299 192.27H162.879C162.946 193.15 163.273 193.856 163.859 194.39C164.446 194.923 165.166 195.19 166.019 195.19C167.246 195.19 168.113 194.676 168.619 193.65H171.079C170.746 194.663 170.139 195.496 169.259 196.15C168.393 196.79 167.313 197.11 166.019 197.11C164.966 197.11 164.019 196.876 163.179 196.41C162.353 195.93 161.699 195.263 161.219 194.41C160.753 193.543 160.519 192.543 160.519 191.41C160.519 190.276 160.746 189.283 161.199 188.43C161.666 187.563 162.313 186.896 163.139 186.43C163.979 185.963 164.939 185.73 166.019 185.73C167.059 185.73 167.986 185.956 168.799 186.41C169.613 186.863 170.246 187.503 170.699 188.33C171.153 189.143 171.379 190.083 171.379 191.15ZM168.999 190.43C168.986 189.59 168.686 188.916 168.099 188.41C167.513 187.903 166.786 187.65 165.919 187.65C165.133 187.65 164.459 187.903 163.899 188.41C163.339 188.903 163.006 189.576 162.899 190.43H168.999ZM172.863 191.37C172.863 190.263 173.09 189.283 173.543 188.43C174.01 187.576 174.636 186.916 175.423 186.45C176.223 185.97 177.11 185.73 178.083 185.73C178.803 185.73 179.51 185.89 180.203 186.21C180.91 186.516 181.47 186.93 181.883 187.45V182.13H184.183V196.93H181.883V195.27C181.51 195.803 180.99 196.243 180.323 196.59C179.67 196.936 178.916 197.11 178.063 197.11C177.103 197.11 176.223 196.87 175.423 196.39C174.636 195.896 174.01 195.216 173.543 194.35C173.09 193.47 172.863 192.476 172.863 191.37ZM181.883 191.41C181.883 190.65 181.723 189.99 181.403 189.43C181.096 188.87 180.69 188.443 180.183 188.15C179.676 187.856 179.13 187.71 178.543 187.71C177.956 187.71 177.41 187.856 176.903 188.15C176.396 188.43 175.983 188.85 175.663 189.41C175.356 189.956 175.203 190.61 175.203 191.37C175.203 192.13 175.356 192.796 175.663 193.37C175.983 193.943 176.396 194.383 176.903 194.69C177.423 194.983 177.97 195.13 178.543 195.13C179.13 195.13 179.676 194.983 180.183 194.69C180.69 194.396 181.096 193.97 181.403 193.41C181.723 192.836 181.883 192.17 181.883 191.41ZM60.7021 207.03C62.1821 207.03 63.4754 207.316 64.5821 207.89C65.7021 208.45 66.5621 209.263 67.1621 210.33C67.7754 211.383 68.0821 212.616 68.0821 214.03C68.0821 215.443 67.7754 216.67 67.1621 217.71C66.5621 218.75 65.7021 219.55 64.5821 220.11C63.4754 220.656 62.1821 220.93 60.7021 220.93H56.1621V207.03H60.7021ZM60.7021 219.07C62.3288 219.07 63.5754 218.63 64.4421 217.75C65.3088 216.87 65.7421 215.63 65.7421 214.03C65.7421 212.416 65.3088 211.156 64.4421 210.25C63.5754 209.343 62.3288 208.89 60.7021 208.89H58.4421V219.07H60.7021ZM80.4418 215.15C80.4418 215.563 80.4151 215.936 80.3618 216.27H71.9418C72.0085 217.15 72.3351 217.856 72.9218 218.39C73.5085 218.923 74.2285 219.19 75.0818 219.19C76.3085 219.19 77.1751 218.676 77.6818 217.65H80.1418C79.8085 218.663 79.2018 219.496 78.3218 220.15C77.4551 220.79 76.3751 221.11 75.0818 221.11C74.0285 221.11 73.0818 220.876 72.2418 220.41C71.4151 219.93 70.7618 219.263 70.2818 218.41C69.8151 217.543 69.5818 216.543 69.5818 215.41C69.5818 214.276 69.8085 213.283 70.2618 212.43C70.7285 211.563 71.3751 210.896 72.2018 210.43C73.0418 209.963 74.0018 209.73 75.0818 209.73C76.1218 209.73 77.0485 209.956 77.8618 210.41C78.6751 210.863 79.3085 211.503 79.7618 212.33C80.2151 213.143 80.4418 214.083 80.4418 215.15ZM78.0618 214.43C78.0485 213.59 77.7485 212.916 77.1618 212.41C76.5751 211.903 75.8485 211.65 74.9818 211.65C74.1951 211.65 73.5218 211.903 72.9618 212.41C72.4018 212.903 72.0685 213.576 71.9618 214.43H78.0618ZM86.9455 218.89L90.0655 209.91H92.4855L88.2855 220.93H85.5655L81.3855 209.91H83.8255L86.9455 218.89ZM104.309 215.15C104.309 215.563 104.282 215.936 104.229 216.27H95.809C95.8757 217.15 96.2023 217.856 96.789 218.39C97.3757 218.923 98.0957 219.19 98.949 219.19C100.176 219.19 101.042 218.676 101.549 217.65H104.009C103.676 218.663 103.069 219.496 102.189 220.15C101.322 220.79 100.242 221.11 98.949 221.11C97.8957 221.11 96.949 220.876 96.109 220.41C95.2823 219.93 94.629 219.263 94.149 218.41C93.6823 217.543 93.449 216.543 93.449 215.41C93.449 214.276 93.6757 213.283 94.129 212.43C94.5957 211.563 95.2423 210.896 96.069 210.43C96.909 209.963 97.869 209.73 98.949 209.73C99.989 209.73 100.916 209.956 101.729 210.41C102.542 210.863 103.176 211.503 103.629 212.33C104.082 213.143 104.309 214.083 104.309 215.15ZM101.929 214.43C101.916 213.59 101.616 212.916 101.029 212.41C100.442 211.903 99.7157 211.65 98.849 211.65C98.0623 211.65 97.389 211.903 96.829 212.41C96.269 212.903 95.9357 213.576 95.829 214.43H101.929ZM108.833 206.13V220.93H106.553V206.13H108.833ZM116.606 221.11C115.566 221.11 114.626 220.876 113.786 220.41C112.946 219.93 112.286 219.263 111.806 218.41C111.326 217.543 111.086 216.543 111.086 215.41C111.086 214.29 111.333 213.296 111.826 212.43C112.32 211.563 112.993 210.896 113.846 210.43C114.7 209.963 115.653 209.73 116.706 209.73C117.76 209.73 118.713 209.963 119.566 210.43C120.42 210.896 121.093 211.563 121.586 212.43C122.08 213.296 122.326 214.29 122.326 215.41C122.326 216.53 122.073 217.523 121.566 218.39C121.06 219.256 120.366 219.93 119.486 220.41C118.62 220.876 117.66 221.11 116.606 221.11ZM116.606 219.13C117.193 219.13 117.74 218.99 118.246 218.71C118.766 218.43 119.186 218.01 119.506 217.45C119.826 216.89 119.986 216.21 119.986 215.41C119.986 214.61 119.833 213.936 119.526 213.39C119.22 212.83 118.813 212.41 118.306 212.13C117.8 211.85 117.253 211.71 116.666 211.71C116.08 211.71 115.533 211.85 115.026 212.13C114.533 212.41 114.14 212.83 113.846 213.39C113.553 213.936 113.406 214.61 113.406 215.41C113.406 216.596 113.706 217.516 114.306 218.17C114.92 218.81 115.686 219.13 116.606 219.13ZM126.86 211.53C127.247 211.023 127.773 210.596 128.44 210.25C129.107 209.903 129.86 209.73 130.7 209.73C131.66 209.73 132.533 209.97 133.32 210.45C134.12 210.916 134.747 211.576 135.2 212.43C135.653 213.283 135.88 214.263 135.88 215.37C135.88 216.476 135.653 217.47 135.2 218.35C134.747 219.216 134.12 219.896 133.32 220.39C132.533 220.87 131.66 221.11 130.7 221.11C129.86 221.11 129.113 220.943 128.46 220.61C127.807 220.263 127.273 219.836 126.86 219.33V226.17H124.58V209.91H126.86V211.53ZM133.56 215.37C133.56 214.61 133.4 213.956 133.08 213.41C132.773 212.85 132.36 212.43 131.84 212.15C131.333 211.856 130.787 211.71 130.2 211.71C129.627 211.71 129.08 211.856 128.56 212.15C128.053 212.443 127.64 212.87 127.32 213.43C127.013 213.99 126.86 214.65 126.86 215.41C126.86 216.17 127.013 216.836 127.32 217.41C127.64 217.97 128.053 218.396 128.56 218.69C129.08 218.983 129.627 219.13 130.2 219.13C130.787 219.13 131.333 218.983 131.84 218.69C132.36 218.383 132.773 217.943 133.08 217.37C133.4 216.796 133.56 216.13 133.56 215.37ZM148.235 215.15C148.235 215.563 148.208 215.936 148.155 216.27H139.735C139.801 217.15 140.128 217.856 140.715 218.39C141.301 218.923 142.021 219.19 142.875 219.19C144.101 219.19 144.968 218.676 145.475 217.65H147.935C147.601 218.663 146.995 219.496 146.115 220.15C145.248 220.79 144.168 221.11 142.875 221.11C141.821 221.11 140.875 220.876 140.035 220.41C139.208 219.93 138.555 219.263 138.075 218.41C137.608 217.543 137.375 216.543 137.375 215.41C137.375 214.276 137.601 213.283 138.055 212.43C138.521 211.563 139.168 210.896 139.995 210.43C140.835 209.963 141.795 209.73 142.875 209.73C143.915 209.73 144.841 209.956 145.655 210.41C146.468 210.863 147.101 211.503 147.555 212.33C148.008 213.143 148.235 214.083 148.235 215.15ZM145.855 214.43C145.841 213.59 145.541 212.916 144.955 212.41C144.368 211.903 143.641 211.65 142.775 211.65C141.988 211.65 141.315 211.903 140.755 212.41C140.195 212.903 139.861 213.576 139.755 214.43H145.855ZM152.759 211.51C153.092 210.95 153.532 210.516 154.079 210.21C154.639 209.89 155.299 209.73 156.059 209.73V212.09H155.479C154.585 212.09 153.905 212.316 153.439 212.77C152.985 213.223 152.759 214.01 152.759 215.13V220.93H150.479V209.91H152.759V211.51ZM162.154 221.11C161.288 221.11 160.508 220.956 159.814 220.65C159.134 220.33 158.594 219.903 158.194 219.37C157.794 218.823 157.581 218.216 157.554 217.55H159.914C159.954 218.016 160.174 218.41 160.574 218.73C160.988 219.036 161.501 219.19 162.114 219.19C162.754 219.19 163.248 219.07 163.594 218.83C163.954 218.576 164.134 218.256 164.134 217.87C164.134 217.456 163.934 217.15 163.534 216.95C163.148 216.75 162.528 216.53 161.674 216.29C160.848 216.063 160.174 215.843 159.654 215.63C159.134 215.416 158.681 215.09 158.294 214.65C157.921 214.21 157.734 213.63 157.734 212.91C157.734 212.323 157.908 211.79 158.254 211.31C158.601 210.816 159.094 210.43 159.734 210.15C160.388 209.87 161.134 209.73 161.974 209.73C163.228 209.73 164.234 210.05 164.994 210.69C165.768 211.316 166.181 212.176 166.234 213.27H163.954C163.914 212.776 163.714 212.383 163.354 212.09C162.994 211.796 162.508 211.65 161.894 211.65C161.294 211.65 160.834 211.763 160.514 211.99C160.194 212.216 160.034 212.516 160.034 212.89C160.034 213.183 160.141 213.43 160.354 213.63C160.568 213.83 160.828 213.99 161.134 214.11C161.441 214.216 161.894 214.356 162.494 214.53C163.294 214.743 163.948 214.963 164.454 215.19C164.974 215.403 165.421 215.723 165.794 216.15C166.168 216.576 166.361 217.143 166.374 217.85C166.374 218.476 166.201 219.036 165.854 219.53C165.508 220.023 165.014 220.41 164.374 220.69C163.748 220.97 163.008 221.11 162.154 221.11Z" fill="white"/>
<defs>
<linearGradient id="paint0_linear_2445_20048" x1="111" y1="270" x2="111" y2="0" gradientUnits="userSpaceOnUse">
<stop stop-color="#868686"/>
<stop offset="1" stop-color="#434343"/>
</linearGradient>
<linearGradient id="paint1_linear_2445_20048" x1="94.3027" y1="103.746" x2="128.635" y2="103.746" gradientUnits="userSpaceOnUse">
<stop stop-color="#A57D24"/>
<stop offset="0.21" stop-color="#D8BD62"/>
<stop offset="0.33" stop-color="#F1DD80"/>
<stop offset="0.52" stop-color="#FBF2A8"/>
<stop offset="0.73" stop-color="#F1DD80"/>
<stop offset="1" stop-color="#A57D24"/>
</linearGradient>
<linearGradient id="paint2_linear_2445_20048" x1="87.1886" y1="77.3968" x2="135.721" y2="125.996" gradientUnits="userSpaceOnUse">
<stop stop-color="#A57D24"/>
<stop offset="0.21" stop-color="#D8BD62"/>
<stop offset="0.33" stop-color="#F1DD80"/>
<stop offset="0.52" stop-color="#FBF2A8"/>
<stop offset="0.73" stop-color="#F1DD80"/>
<stop offset="1" stop-color="#A57D24"/>
</linearGradient>
<linearGradient id="paint3_linear_2445_20048" x1="125.923" y1="88.351" x2="141.601" y2="88.351" gradientUnits="userSpaceOnUse">
<stop stop-color="#A57D24"/>
<stop offset="0.21" stop-color="#D8BD62"/>
<stop offset="0.33" stop-color="#F1DD80"/>
<stop offset="0.52" stop-color="#FBF2A8"/>
<stop offset="0.73" stop-color="#F1DD80"/>
<stop offset="1" stop-color="#A57D24"/>
</linearGradient>
<linearGradient id="paint4_linear_2445_20048" x1="124.679" y1="79.6342" x2="141.164" y2="96.1422" gradientUnits="userSpaceOnUse">
<stop stop-color="#A57D24"/>
<stop offset="0.21" stop-color="#D8BD62"/>
<stop offset="0.33" stop-color="#F1DD80"/>
<stop offset="0.52" stop-color="#FBF2A8"/>
<stop offset="0.73" stop-color="#F1DD80"/>
<stop offset="1" stop-color="#A57D24"/>
</linearGradient>
<linearGradient id="paint5_linear_2445_20048" x1="81.2975" y1="88.3588" x2="96.976" y2="88.3588" gradientUnits="userSpaceOnUse">
<stop stop-color="#A57D24"/>
<stop offset="0.21" stop-color="#D8BD62"/>
<stop offset="0.33" stop-color="#F1DD80"/>
<stop offset="0.52" stop-color="#FBF2A8"/>
<stop offset="0.73" stop-color="#F1DD80"/>
<stop offset="1" stop-color="#A57D24"/>
</linearGradient>
<linearGradient id="paint6_linear_2445_20048" x1="79.0812" y1="77.0065" x2="100.83" y2="98.785" gradientUnits="userSpaceOnUse">
<stop stop-color="#A57D24"/>
<stop offset="0.21" stop-color="#D8BD62"/>
<stop offset="0.33" stop-color="#F1DD80"/>
<stop offset="0.52" stop-color="#FBF2A8"/>
<stop offset="0.73" stop-color="#F1DD80"/>
<stop offset="1" stop-color="#A57D24"/>
</linearGradient>
<linearGradient id="paint7_linear_2445_20048" x1="142.328" y1="49.0461" x2="153.266" y2="49.0461" gradientUnits="userSpaceOnUse">
<stop stop-color="#A57D24"/>
<stop offset="0.21" stop-color="#D8BD62"/>
<stop offset="0.33" stop-color="#F1DD80"/>
<stop offset="0.52" stop-color="#FBF2A8"/>
<stop offset="0.73" stop-color="#F1DD80"/>
<stop offset="1" stop-color="#A57D24"/>
</linearGradient>
<linearGradient id="paint8_linear_2445_20048" x1="125.733" y1="149.362" x2="135.202" y2="149.362" gradientUnits="userSpaceOnUse">
<stop stop-color="#A57D24"/>
<stop offset="0.21" stop-color="#D8BD62"/>
<stop offset="0.33" stop-color="#F1DD80"/>
<stop offset="0.52" stop-color="#FBF2A8"/>
<stop offset="0.73" stop-color="#F1DD80"/>
<stop offset="1" stop-color="#A57D24"/>
</linearGradient>
<linearGradient id="paint9_linear_2445_20048" x1="125.703" y1="157.229" x2="142.434" y2="157.229" gradientUnits="userSpaceOnUse">
<stop stop-color="#A57D24"/>
<stop offset="0.21" stop-color="#D8BD62"/>
<stop offset="0.33" stop-color="#F1DD80"/>
<stop offset="0.52" stop-color="#FBF2A8"/>
<stop offset="0.73" stop-color="#F1DD80"/>
<stop offset="1" stop-color="#A57D24"/>
</linearGradient>
<linearGradient id="paint10_linear_2445_20048" x1="136.695" y1="144.841" x2="143.921" y2="144.841" gradientUnits="userSpaceOnUse">
<stop stop-color="#A57D24"/>
<stop offset="0.21" stop-color="#D8BD62"/>
<stop offset="0.33" stop-color="#F1DD80"/>
<stop offset="0.52" stop-color="#FBF2A8"/>
<stop offset="0.73" stop-color="#F1DD80"/>
<stop offset="1" stop-color="#A57D24"/>
</linearGradient>
<linearGradient id="paint11_linear_2445_20048" x1="136.773" y1="151.844" x2="153.023" y2="151.844" gradientUnits="userSpaceOnUse">
<stop stop-color="#A57D24"/>
<stop offset="0.21" stop-color="#D8BD62"/>
<stop offset="0.33" stop-color="#F1DD80"/>
<stop offset="0.52" stop-color="#FBF2A8"/>
<stop offset="0.73" stop-color="#F1DD80"/>
<stop offset="1" stop-color="#A57D24"/>
</linearGradient>
<linearGradient id="paint12_linear_2445_20048" x1="145.763" y1="138.841" x2="151.621" y2="138.841" gradientUnits="userSpaceOnUse">
<stop stop-color="#A57D24"/>
<stop offset="0.21" stop-color="#D8BD62"/>
<stop offset="0.33" stop-color="#F1DD80"/>
<stop offset="0.52" stop-color="#FBF2A8"/>
<stop offset="0.73" stop-color="#F1DD80"/>
<stop offset="1" stop-color="#A57D24"/>
</linearGradient>
<linearGradient id="paint13_linear_2445_20048" x1="146.422" y1="144.739" x2="161.905" y2="144.739" gradientUnits="userSpaceOnUse">
<stop stop-color="#A57D24"/>
<stop offset="0.21" stop-color="#D8BD62"/>
<stop offset="0.33" stop-color="#F1DD80"/>
<stop offset="0.52" stop-color="#FBF2A8"/>
<stop offset="0.73" stop-color="#F1DD80"/>
<stop offset="1" stop-color="#A57D24"/>
</linearGradient>
<linearGradient id="paint14_linear_2445_20048" x1="152.943" y1="131.6" x2="158.162" y2="131.6" gradientUnits="userSpaceOnUse">
<stop stop-color="#A57D24"/>
<stop offset="0.21" stop-color="#D8BD62"/>
<stop offset="0.33" stop-color="#F1DD80"/>
<stop offset="0.52" stop-color="#FBF2A8"/>
<stop offset="0.73" stop-color="#F1DD80"/>
<stop offset="1" stop-color="#A57D24"/>
</linearGradient>
<linearGradient id="paint15_linear_2445_20048" x1="154.578" y1="136.207" x2="169.006" y2="136.207" gradientUnits="userSpaceOnUse">
<stop stop-color="#A57D24"/>
<stop offset="0.21" stop-color="#D8BD62"/>
<stop offset="0.33" stop-color="#F1DD80"/>
<stop offset="0.52" stop-color="#FBF2A8"/>
<stop offset="0.73" stop-color="#F1DD80"/>
<stop offset="1" stop-color="#A57D24"/>
</linearGradient>
<linearGradient id="paint16_linear_2445_20048" x1="158.333" y1="123.363" x2="163.441" y2="123.363" gradientUnits="userSpaceOnUse">
<stop stop-color="#A57D24"/>
<stop offset="0.21" stop-color="#D8BD62"/>
<stop offset="0.33" stop-color="#F1DD80"/>
<stop offset="0.52" stop-color="#FBF2A8"/>
<stop offset="0.73" stop-color="#F1DD80"/>
<stop offset="1" stop-color="#A57D24"/>
</linearGradient>
<linearGradient id="paint17_linear_2445_20048" x1="161.195" y1="126.501" x2="174.268" y2="126.501" gradientUnits="userSpaceOnUse">
<stop stop-color="#A57D24"/>
<stop offset="0.21" stop-color="#D8BD62"/>
<stop offset="0.33" stop-color="#F1DD80"/>
<stop offset="0.52" stop-color="#FBF2A8"/>
<stop offset="0.73" stop-color="#F1DD80"/>
<stop offset="1" stop-color="#A57D24"/>
</linearGradient>
<linearGradient id="paint18_linear_2445_20048" x1="161.854" y1="114.366" x2="167.391" y2="114.366" gradientUnits="userSpaceOnUse">
<stop stop-color="#A57D24"/>
<stop offset="0.21" stop-color="#D8BD62"/>
<stop offset="0.33" stop-color="#F1DD80"/>
<stop offset="0.52" stop-color="#FBF2A8"/>
<stop offset="0.73" stop-color="#F1DD80"/>
<stop offset="1" stop-color="#A57D24"/>
</linearGradient>
<linearGradient id="paint19_linear_2445_20048" x1="166.208" y1="115.979" x2="177.628" y2="115.979" gradientUnits="userSpaceOnUse">
<stop stop-color="#A57D24"/>
<stop offset="0.21" stop-color="#D8BD62"/>
<stop offset="0.33" stop-color="#F1DD80"/>
<stop offset="0.52" stop-color="#FBF2A8"/>
<stop offset="0.73" stop-color="#F1DD80"/>
<stop offset="1" stop-color="#A57D24"/>
</linearGradient>
<linearGradient id="paint20_linear_2445_20048" x1="163.347" y1="104.853" x2="170.004" y2="104.853" gradientUnits="userSpaceOnUse">
<stop stop-color="#A57D24"/>
<stop offset="0.21" stop-color="#D8BD62"/>
<stop offset="0.33" stop-color="#F1DD80"/>
<stop offset="0.52" stop-color="#FBF2A8"/>
<stop offset="0.73" stop-color="#F1DD80"/>
<stop offset="1" stop-color="#A57D24"/>
</linearGradient>
<linearGradient id="paint21_linear_2445_20048" x1="169.547" y1="105.023" x2="179.006" y2="105.023" gradientUnits="userSpaceOnUse">
<stop stop-color="#A57D24"/>
<stop offset="0.21" stop-color="#D8BD62"/>
<stop offset="0.33" stop-color="#F1DD80"/>
<stop offset="0.52" stop-color="#FBF2A8"/>
<stop offset="0.73" stop-color="#F1DD80"/>
<stop offset="1" stop-color="#A57D24"/>
</linearGradient>
<linearGradient id="paint22_linear_2445_20048" x1="162.948" y1="95.0746" x2="171.314" y2="95.0746" gradientUnits="userSpaceOnUse">
<stop stop-color="#A57D24"/>
<stop offset="0.21" stop-color="#D8BD62"/>
<stop offset="0.33" stop-color="#F1DD80"/>
<stop offset="0.52" stop-color="#FBF2A8"/>
<stop offset="0.73" stop-color="#F1DD80"/>
<stop offset="1" stop-color="#A57D24"/>
</linearGradient>
<linearGradient id="paint23_linear_2445_20048" x1="171.152" y1="93.8513" x2="178.506" y2="93.8513" gradientUnits="userSpaceOnUse">
<stop stop-color="#A57D24"/>
<stop offset="0.21" stop-color="#D8BD62"/>
<stop offset="0.33" stop-color="#F1DD80"/>
<stop offset="0.52" stop-color="#FBF2A8"/>
<stop offset="0.73" stop-color="#F1DD80"/>
<stop offset="1" stop-color="#A57D24"/>
</linearGradient>
<linearGradient id="paint24_linear_2445_20048" x1="160.93" y1="85.2485" x2="171.104" y2="85.2485" gradientUnits="userSpaceOnUse">
<stop stop-color="#A57D24"/>
<stop offset="0.21" stop-color="#D8BD62"/>
<stop offset="0.33" stop-color="#F1DD80"/>
<stop offset="0.52" stop-color="#FBF2A8"/>
<stop offset="0.73" stop-color="#F1DD80"/>
<stop offset="1" stop-color="#A57D24"/>
</linearGradient>
<linearGradient id="paint25_linear_2445_20048" x1="170.807" y1="82.6886" x2="176.494" y2="82.6886" gradientUnits="userSpaceOnUse">
<stop stop-color="#A57D24"/>
<stop offset="0.21" stop-color="#D8BD62"/>
<stop offset="0.33" stop-color="#F1DD80"/>
<stop offset="0.52" stop-color="#FBF2A8"/>
<stop offset="0.73" stop-color="#F1DD80"/>
<stop offset="1" stop-color="#A57D24"/>
</linearGradient>
<linearGradient id="paint26_linear_2445_20048" x1="157.242" y1="75.5314" x2="169.056" y2="75.5314" gradientUnits="userSpaceOnUse">
<stop stop-color="#A57D24"/>
<stop offset="0.21" stop-color="#D8BD62"/>
<stop offset="0.33" stop-color="#F1DD80"/>
<stop offset="0.52" stop-color="#FBF2A8"/>
<stop offset="0.73" stop-color="#F1DD80"/>
<stop offset="1" stop-color="#A57D24"/>
</linearGradient>
<linearGradient id="paint27_linear_2445_20048" x1="167.745" y1="71.823" x2="172.885" y2="71.823" gradientUnits="userSpaceOnUse">
<stop stop-color="#A57D24"/>
<stop offset="0.21" stop-color="#D8BD62"/>
<stop offset="0.33" stop-color="#F1DD80"/>
<stop offset="0.52" stop-color="#FBF2A8"/>
<stop offset="0.73" stop-color="#F1DD80"/>
<stop offset="1" stop-color="#A57D24"/>
</linearGradient>
<linearGradient id="paint28_linear_2445_20048" x1="151.831" y1="66.2353" x2="165.086" y2="66.2353" gradientUnits="userSpaceOnUse">
<stop stop-color="#A57D24"/>
<stop offset="0.21" stop-color="#D8BD62"/>
<stop offset="0.33" stop-color="#F1DD80"/>
<stop offset="0.52" stop-color="#FBF2A8"/>
<stop offset="0.73" stop-color="#F1DD80"/>
<stop offset="1" stop-color="#A57D24"/>
</linearGradient>
<linearGradient id="paint29_linear_2445_20048" x1="161.97" y1="61.524" x2="167.548" y2="61.524" gradientUnits="userSpaceOnUse">
<stop stop-color="#A57D24"/>
<stop offset="0.21" stop-color="#D8BD62"/>
<stop offset="0.33" stop-color="#F1DD80"/>
<stop offset="0.52" stop-color="#FBF2A8"/>
<stop offset="0.73" stop-color="#F1DD80"/>
<stop offset="1" stop-color="#A57D24"/>
</linearGradient>
<linearGradient id="paint30_linear_2445_20048" x1="144.625" y1="57.7275" x2="159.126" y2="57.7275" gradientUnits="userSpaceOnUse">
<stop stop-color="#A57D24"/>
<stop offset="0.21" stop-color="#D8BD62"/>
<stop offset="0.33" stop-color="#F1DD80"/>
<stop offset="0.52" stop-color="#FBF2A8"/>
<stop offset="0.73" stop-color="#F1DD80"/>
<stop offset="1" stop-color="#A57D24"/>
</linearGradient>
<linearGradient id="paint31_linear_2445_20048" x1="153.414" y1="52.0802" x2="160.436" y2="52.0802" gradientUnits="userSpaceOnUse">
<stop stop-color="#A57D24"/>
<stop offset="0.21" stop-color="#D8BD62"/>
<stop offset="0.33" stop-color="#F1DD80"/>
<stop offset="0.52" stop-color="#FBF2A8"/>
<stop offset="0.73" stop-color="#F1DD80"/>
<stop offset="1" stop-color="#A57D24"/>
</linearGradient>
<linearGradient id="paint32_linear_2445_20048" x1="110.36" y1="104.067" x2="171.379" y2="104.067" gradientUnits="userSpaceOnUse">
<stop stop-color="#A57D24"/>
<stop offset="0.21" stop-color="#D8BD62"/>
<stop offset="0.33" stop-color="#F1DD80"/>
<stop offset="0.52" stop-color="#FBF2A8"/>
<stop offset="0.73" stop-color="#F1DD80"/>
<stop offset="1" stop-color="#A57D24"/>
</linearGradient>
<linearGradient id="paint33_linear_2445_20048" x1="69.7317" y1="49.0461" x2="80.6726" y2="49.0461" gradientUnits="userSpaceOnUse">
<stop stop-color="#A57D24"/>
<stop offset="0.21" stop-color="#D8BD62"/>
<stop offset="0.33" stop-color="#F1DD80"/>
<stop offset="0.52" stop-color="#FBF2A8"/>
<stop offset="0.73" stop-color="#F1DD80"/>
<stop offset="1" stop-color="#A57D24"/>
</linearGradient>
<linearGradient id="paint34_linear_2445_20048" x1="87.7983" y1="149.362" x2="97.2652" y2="149.362" gradientUnits="userSpaceOnUse">
<stop stop-color="#A57D24"/>
<stop offset="0.21" stop-color="#D8BD62"/>
<stop offset="0.33" stop-color="#F1DD80"/>
<stop offset="0.52" stop-color="#FBF2A8"/>
<stop offset="0.73" stop-color="#F1DD80"/>
<stop offset="1" stop-color="#A57D24"/>
</linearGradient>
<linearGradient id="paint35_linear_2445_20048" x1="80.563" y1="157.229" x2="97.2967" y2="157.229" gradientUnits="userSpaceOnUse">
<stop stop-color="#A57D24"/>
<stop offset="0.21" stop-color="#D8BD62"/>
<stop offset="0.33" stop-color="#F1DD80"/>
<stop offset="0.52" stop-color="#FBF2A8"/>
<stop offset="0.73" stop-color="#F1DD80"/>
<stop offset="1" stop-color="#A57D24"/>
</linearGradient>
<linearGradient id="paint36_linear_2445_20048" x1="79.0741" y1="144.841" x2="86.3001" y2="144.841" gradientUnits="userSpaceOnUse">
<stop stop-color="#A57D24"/>
<stop offset="0.21" stop-color="#D8BD62"/>
<stop offset="0.33" stop-color="#F1DD80"/>
<stop offset="0.52" stop-color="#FBF2A8"/>
<stop offset="0.73" stop-color="#F1DD80"/>
<stop offset="1" stop-color="#A57D24"/>
</linearGradient>
<linearGradient id="paint37_linear_2445_20048" x1="69.9744" y1="151.844" x2="86.2267" y2="151.844" gradientUnits="userSpaceOnUse">
<stop stop-color="#A57D24"/>
<stop offset="0.21" stop-color="#D8BD62"/>
<stop offset="0.33" stop-color="#F1DD80"/>
<stop offset="0.52" stop-color="#FBF2A8"/>
<stop offset="0.73" stop-color="#F1DD80"/>
<stop offset="1" stop-color="#A57D24"/>
</linearGradient>
<linearGradient id="paint38_linear_2445_20048" x1="71.3813" y1="138.841" x2="77.242" y2="138.841" gradientUnits="userSpaceOnUse">
<stop stop-color="#A57D24"/>
<stop offset="0.21" stop-color="#D8BD62"/>
<stop offset="0.33" stop-color="#F1DD80"/>
<stop offset="0.52" stop-color="#FBF2A8"/>
<stop offset="0.73" stop-color="#F1DD80"/>
<stop offset="1" stop-color="#A57D24"/>
</linearGradient>
<linearGradient id="paint39_linear_2445_20048" x1="61.0982" y1="144.739" x2="76.5836" y2="144.739" gradientUnits="userSpaceOnUse">
<stop stop-color="#A57D24"/>
<stop offset="0.21" stop-color="#D8BD62"/>
<stop offset="0.33" stop-color="#F1DD80"/>
<stop offset="0.52" stop-color="#FBF2A8"/>
<stop offset="0.73" stop-color="#F1DD80"/>
<stop offset="1" stop-color="#A57D24"/>
</linearGradient>
<linearGradient id="paint40_linear_2445_20048" x1="64.8378" y1="131.6" x2="70.054" y2="131.6" gradientUnits="userSpaceOnUse">
<stop stop-color="#A57D24"/>
<stop offset="0.21" stop-color="#D8BD62"/>
<stop offset="0.33" stop-color="#F1DD80"/>
<stop offset="0.52" stop-color="#FBF2A8"/>
<stop offset="0.73" stop-color="#F1DD80"/>
<stop offset="1" stop-color="#A57D24"/>
</linearGradient>
<linearGradient id="paint41_linear_2445_20048" x1="53.9929" y1="136.207" x2="68.4203" y2="136.207" gradientUnits="userSpaceOnUse">
<stop stop-color="#A57D24"/>
<stop offset="0.21" stop-color="#D8BD62"/>
<stop offset="0.33" stop-color="#F1DD80"/>
<stop offset="0.52" stop-color="#FBF2A8"/>
<stop offset="0.73" stop-color="#F1DD80"/>
<stop offset="1" stop-color="#A57D24"/>
</linearGradient>
<linearGradient id="paint42_linear_2445_20048" x1="59.5601" y1="123.363" x2="64.6675" y2="123.363" gradientUnits="userSpaceOnUse">
<stop stop-color="#A57D24"/>
<stop offset="0.21" stop-color="#D8BD62"/>
<stop offset="0.33" stop-color="#F1DD80"/>
<stop offset="0.52" stop-color="#FBF2A8"/>
<stop offset="0.73" stop-color="#F1DD80"/>
<stop offset="1" stop-color="#A57D24"/>
</linearGradient>
<linearGradient id="paint43_linear_2445_20048" x1="48.7313" y1="126.501" x2="61.8044" y2="126.501" gradientUnits="userSpaceOnUse">
<stop stop-color="#A57D24"/>
<stop offset="0.21" stop-color="#D8BD62"/>
<stop offset="0.33" stop-color="#F1DD80"/>
<stop offset="0.52" stop-color="#FBF2A8"/>
<stop offset="0.73" stop-color="#F1DD80"/>
<stop offset="1" stop-color="#A57D24"/>
</linearGradient>
<linearGradient id="paint44_linear_2445_20048" x1="55.6159" y1="114.366" x2="61.153" y2="114.366" gradientUnits="userSpaceOnUse">
<stop stop-color="#A57D24"/>
<stop offset="0.21" stop-color="#D8BD62"/>
<stop offset="0.33" stop-color="#F1DD80"/>
<stop offset="0.52" stop-color="#FBF2A8"/>
<stop offset="0.73" stop-color="#F1DD80"/>
<stop offset="1" stop-color="#A57D24"/>
</linearGradient>
<linearGradient id="paint45_linear_2445_20048" x1="45.3802" y1="115.979" x2="56.797" y2="115.979" gradientUnits="userSpaceOnUse">
<stop stop-color="#A57D24"/>
<stop offset="0.21" stop-color="#D8BD62"/>
<stop offset="0.33" stop-color="#F1DD80"/>
<stop offset="0.52" stop-color="#FBF2A8"/>
<stop offset="0.73" stop-color="#F1DD80"/>
<stop offset="1" stop-color="#A57D24"/>
</linearGradient>
<linearGradient id="paint46_linear_2445_20048" x1="52.996" y1="104.853" x2="59.6563" y2="104.853" gradientUnits="userSpaceOnUse">
<stop stop-color="#A57D24"/>
<stop offset="0.21" stop-color="#D8BD62"/>
<stop offset="0.33" stop-color="#F1DD80"/>
<stop offset="0.52" stop-color="#FBF2A8"/>
<stop offset="0.73" stop-color="#F1DD80"/>
<stop offset="1" stop-color="#A57D24"/>
</linearGradient>
<linearGradient id="paint47_linear_2445_20048" x1="43.999" y1="105.028" x2="53.4578" y2="105.028" gradientUnits="userSpaceOnUse">
<stop stop-color="#A57D24"/>
<stop offset="0.21" stop-color="#D8BD62"/>
<stop offset="0.33" stop-color="#F1DD80"/>
<stop offset="0.52" stop-color="#FBF2A8"/>
<stop offset="0.73" stop-color="#F1DD80"/>
<stop offset="1" stop-color="#A57D24"/>
</linearGradient>
<linearGradient id="paint48_linear_2445_20048" x1="51.6872" y1="95.0746" x2="60.0554" y2="95.0746" gradientUnits="userSpaceOnUse">
<stop stop-color="#A57D24"/>
<stop offset="0.21" stop-color="#D8BD62"/>
<stop offset="0.33" stop-color="#F1DD80"/>
<stop offset="0.52" stop-color="#FBF2A8"/>
<stop offset="0.73" stop-color="#F1DD80"/>
<stop offset="1" stop-color="#A57D24"/>
</linearGradient>
<linearGradient id="paint49_linear_2445_20048" x1="44.4955" y1="93.8513" x2="51.8493" y2="93.8513" gradientUnits="userSpaceOnUse">
<stop stop-color="#A57D24"/>
<stop offset="0.21" stop-color="#D8BD62"/>
<stop offset="0.33" stop-color="#F1DD80"/>
<stop offset="0.52" stop-color="#FBF2A8"/>
<stop offset="0.73" stop-color="#F1DD80"/>
<stop offset="1" stop-color="#A57D24"/>
</linearGradient>
<linearGradient id="paint50_linear_2445_20048" x1="51.9003" y1="85.2485" x2="62.0743" y2="85.2485" gradientUnits="userSpaceOnUse">
<stop stop-color="#A57D24"/>
<stop offset="0.21" stop-color="#D8BD62"/>
<stop offset="0.33" stop-color="#F1DD80"/>
<stop offset="0.52" stop-color="#FBF2A8"/>
<stop offset="0.73" stop-color="#F1DD80"/>
<stop offset="1" stop-color="#A57D24"/>
</linearGradient>
<linearGradient id="paint51_linear_2445_20048" x1="46.5065" y1="82.6886" x2="52.1932" y2="82.6886" gradientUnits="userSpaceOnUse">
<stop stop-color="#A57D24"/>
<stop offset="0.21" stop-color="#D8BD62"/>
<stop offset="0.33" stop-color="#F1DD80"/>
<stop offset="0.52" stop-color="#FBF2A8"/>
<stop offset="0.73" stop-color="#F1DD80"/>
<stop offset="1" stop-color="#A57D24"/>
</linearGradient>
<linearGradient id="paint52_linear_2445_20048" x1="53.9436" y1="75.5314" x2="65.7576" y2="75.5314" gradientUnits="userSpaceOnUse">
<stop stop-color="#A57D24"/>
<stop offset="0.21" stop-color="#D8BD62"/>
<stop offset="0.33" stop-color="#F1DD80"/>
<stop offset="0.52" stop-color="#FBF2A8"/>
<stop offset="0.73" stop-color="#F1DD80"/>
<stop offset="1" stop-color="#A57D24"/>
</linearGradient>
<linearGradient id="paint53_linear_2445_20048" x1="50.1166" y1="71.823" x2="55.2539" y2="71.823" gradientUnits="userSpaceOnUse">
<stop stop-color="#A57D24"/>
<stop offset="0.21" stop-color="#D8BD62"/>
<stop offset="0.33" stop-color="#F1DD80"/>
<stop offset="0.52" stop-color="#FBF2A8"/>
<stop offset="0.73" stop-color="#F1DD80"/>
<stop offset="1" stop-color="#A57D24"/>
</linearGradient>
<linearGradient id="paint54_linear_2445_20048" x1="57.915" y1="66.2353" x2="71.173" y2="66.2353" gradientUnits="userSpaceOnUse">
<stop stop-color="#A57D24"/>
<stop offset="0.21" stop-color="#D8BD62"/>
<stop offset="0.33" stop-color="#F1DD80"/>
<stop offset="0.52" stop-color="#FBF2A8"/>
<stop offset="0.73" stop-color="#F1DD80"/>
<stop offset="1" stop-color="#A57D24"/>
</linearGradient>
<linearGradient id="paint55_linear_2445_20048" x1="55.4611" y1="61.524" x2="61.039" y2="61.524" gradientUnits="userSpaceOnUse">
<stop stop-color="#A57D24"/>
<stop offset="0.21" stop-color="#D8BD62"/>
<stop offset="0.33" stop-color="#F1DD80"/>
<stop offset="0.52" stop-color="#FBF2A8"/>
<stop offset="0.73" stop-color="#F1DD80"/>
<stop offset="1" stop-color="#A57D24"/>
</linearGradient>
<linearGradient id="paint56_linear_2445_20048" x1="63.8719" y1="57.7275" x2="78.3728" y2="57.7275" gradientUnits="userSpaceOnUse">
<stop stop-color="#A57D24"/>
<stop offset="0.21" stop-color="#D8BD62"/>
<stop offset="0.33" stop-color="#F1DD80"/>
<stop offset="0.52" stop-color="#FBF2A8"/>
<stop offset="0.73" stop-color="#F1DD80"/>
<stop offset="1" stop-color="#A57D24"/>
</linearGradient>
<linearGradient id="paint57_linear_2445_20048" x1="62.5597" y1="52.0802" x2="69.5817" y2="52.0802" gradientUnits="userSpaceOnUse">
<stop stop-color="#A57D24"/>
<stop offset="0.21" stop-color="#D8BD62"/>
<stop offset="0.33" stop-color="#F1DD80"/>
<stop offset="0.52" stop-color="#FBF2A8"/>
<stop offset="0.73" stop-color="#F1DD80"/>
<stop offset="1" stop-color="#A57D24"/>
</linearGradient>
<linearGradient id="paint58_linear_2445_20048" x1="51.6232" y1="104.067" x2="112.643" y2="104.067" gradientUnits="userSpaceOnUse">
<stop stop-color="#A57D24"/>
<stop offset="0.21" stop-color="#D8BD62"/>
<stop offset="0.33" stop-color="#F1DD80"/>
<stop offset="0.52" stop-color="#FBF2A8"/>
<stop offset="0.73" stop-color="#F1DD80"/>
<stop offset="1" stop-color="#A57D24"/>
</linearGradient>
<linearGradient id="paint59_linear_2445_20048" x1="104.848" y1="157.227" x2="117.654" y2="157.227" gradientUnits="userSpaceOnUse">
<stop stop-color="#A57D24"/>
<stop offset="0.21" stop-color="#D8BD62"/>
<stop offset="0.33" stop-color="#F1DD80"/>
<stop offset="0.52" stop-color="#FBF2A8"/>
<stop offset="0.73" stop-color="#F1DD80"/>
<stop offset="1" stop-color="#A57D24"/>
</linearGradient>
</defs>
</svg>
