<?xml version="1.0" encoding="UTF-8"?>
<svg id="Layer_1" xmlns="http://www.w3.org/2000/svg" xmlns:xlink="http://www.w3.org/1999/xlink" version="1.1" viewBox="0 0 300 260">
  <!-- Generator: Adobe Illustrator 29.3.1, SVG Export Plug-In . SVG Version: 2.1.0 Build 151)  -->
  <defs>
    <style>
      .st0, .st1 {
        fill-rule: evenodd;
      }

      .st0, .st2 {
        fill: #fff;
      }

      .st3 {
        fill: url(#linear-gradient2);
      }

      .st4 {
        fill: url(#linear-gradient1);
      }

      .st5 {
        fill: url(#linear-gradient9);
      }

      .st6 {
        fill: url(#linear-gradient3);
      }

      .st7 {
        fill: url(#linear-gradient6);
      }

      .st8 {
        fill: url(#linear-gradient8);
      }

      .st9 {
        fill: url(#linear-gradient7);
      }

      .st10 {
        fill: url(#linear-gradient5);
      }

      .st11 {
        fill: url(#linear-gradient4);
      }

      .st12 {
        fill: url(#linear-gradient);
      }

      .st13, .st14 {
        clip-rule: evenodd;
      }

      .st15 {
        clip-path: url(#clippath-1);
      }

      .st16 {
        clip-path: url(#clippath-3);
      }

      .st17 {
        clip-path: url(#clippath-4);
      }

      .st18 {
        clip-path: url(#clippath-2);
      }

      .st19 {
        clip-path: url(#clippath-5);
      }

      .st14 {
        fill: none;
      }

      .st20 {
        clip-path: url(#clippath);
      }
    </style>
    <clipPath id="clippath">
      <path class="st14" d="M214.5,26.4s18.8,13.3,20.3,31c1.5,17.7-8.7,29.7,8.2,34.9,15.2,4.7,25-12.2,23.5-27.5l-3.7,2.7s-2.6-18.4-9.3-29l-1.5,7.2s-11.1-14.1-18.8-18.1l.9,4.4s-7.3-5.1-19.7-5.7"/>
    </clipPath>
    <linearGradient id="linear-gradient" x1="207.8" y1="78.9" x2="203.6" y2="18.8" gradientTransform="translate(34 12)" gradientUnits="userSpaceOnUse">
      <stop offset="0" stop-color="#03a672"/>
      <stop offset="1" stop-color="#68c4a3"/>
    </linearGradient>
    <clipPath id="clippath-1">
      <path class="st14" d="M214.5,26.4s18.8,13.3,20.3,31c1.5,17.6-8.6,29.6,8,34.8,20.4-11,10.3-45.2-28.3-65.9"/>
    </clipPath>
    <linearGradient id="linear-gradient1" x1="202.7" y1="10.5" x2="203.1" y2="82.7" gradientTransform="translate(32.1 13.7)" gradientUnits="userSpaceOnUse">
      <stop offset="0" stop-color="#03a672"/>
      <stop offset="1" stop-color="#65c3a1"/>
    </linearGradient>
    <clipPath id="clippath-2">
      <path class="st14" d="M266.5,126.1c-2.4-4.9-6.2-10.1-12.3-15.1-16.3-13.3-34-9.6-45.2-2.5h0c20.6-31.7,51.3-12.9,57.5,17.6"/>
    </clipPath>
    <linearGradient id="linear-gradient2" x1="172.9" y1="72.8" x2="200.8" y2="114.4" gradientTransform="translate(52.8 17.3)" gradientUnits="userSpaceOnUse">
      <stop offset="0" stop-color="#f9a13a"/>
      <stop offset="1" stop-color="#b9539f"/>
    </linearGradient>
    <clipPath id="clippath-3">
      <path class="st14" d="M256,1s15,29.2,5.4,52.6c-9.7,23.4-30.5,31.8-12.5,49.6,16.1,15.9,39.7,1,47.9-19.4l-6.4,1.1s8.8-25,7.3-42.8l-6.7,8.2s-4.8-25.1-11.9-35.2l-1.8,6.2s-5.9-11.3-21.2-20.2"/>
    </clipPath>
    <linearGradient id="linear-gradient3" x1="208.7" y1="97.9" x2="242.8" y2="18.9" gradientTransform="translate(35.6 2.7)" xlink:href="#linear-gradient"/>
    <clipPath id="clippath-4">
      <path class="st14" d="M256,1s15,29.2,5.4,52.6c-9.6,23.3-30.3,31.8-12.8,49.3,33-.5,42.7-50.4,7.4-102"/>
    </clipPath>
    <linearGradient id="linear-gradient4" x1="245.1" y1="6.6" x2="198.1" y2="98.2" gradientTransform="translate(34.3 5.1)" gradientUnits="userSpaceOnUse">
      <stop offset="0" stop-color="#03a672"/>
      <stop offset="1" stop-color="#72c7a9"/>
    </linearGradient>
    <clipPath id="clippath-5">
      <path class="st13" d="M213.5,89.4s-.3,3.2-2.3,4.6c-2,1.4-4.2,1-3.6,3.4,2.7,1.7,6.2-1.9,6-8"/>
    </clipPath>
    <linearGradient id="linear-gradient5" x1="129.2" y1="195.4" x2="166.1" y2="110.1" gradientTransform="matrix(1,0,0,1,0,0)" xlink:href="#linear-gradient"/>
    <linearGradient id="linear-gradient6" x1="65" y1="192.9" x2="101.9" y2="107.5" gradientTransform="matrix(1,0,0,1,0,0)" xlink:href="#linear-gradient"/>
    <linearGradient id="linear-gradient7" x1="100.3" y1="182.5" x2="122.1" y2="132.1" gradientUnits="userSpaceOnUse">
      <stop offset="0" stop-color="#f8951d"/>
      <stop offset="1" stop-color="#ffd056"/>
    </linearGradient>
    <linearGradient id="linear-gradient8" x1="95.1" y1="180.2" x2="108.4" y2="149.4" xlink:href="#linear-gradient7"/>
    <linearGradient id="linear-gradient9" x1="112.6" y1="177.7" x2="130.3" y2="136.8" xlink:href="#linear-gradient7"/>
  </defs>
  <path class="st2" d="M210.5,123.9s.3.5.9,1.5c.6,1,1.4,2.5,2.4,4.5.9,2,2.1,4.6,3.1,7.7,1.1,3.1,2.1,6.8,2.9,11.1,1.6,8.5,1.9,19.3-.7,31.4-.7,3-1.6,6.1-2.6,9.2-1.1,3.1-2.4,6.3-3.8,9.4-3,6.3-6.9,12.6-11.7,18.7-4.8,6.1-10.5,11.8-17,17.1-6.5,5.2-14,9.9-22.1,13.8-8.1,3.9-17,6.8-26.4,8.6-9.4,1.9-19.2,2.5-29.2,1.8-2.5-.2-5-.4-7.5-.7-1.3-.1-2.5-.3-3.7-.6l-.9-.2h-.5c0,0-.6-.2-.6-.2l-1.7-.3c-.5,0-1.2-.3-1.9-.4l-2-.5c-1.3-.3-2.5-.6-3.8-1-2.5-.7-5-1.5-7.5-2.4-4.9-1.8-9.8-4-14.4-6.6-4.6-2.6-9.1-5.6-13.3-8.9-8.4-6.6-15.9-14.6-22.1-23.4-6.2-8.8-11.1-18.5-14.6-28.7-7.1-20.3-8.6-42.4-4.4-63.1,1-5.2,2.4-10.2,4.1-15.3,1.8-5.1,4-10,6.6-14.6,5.2-9.3,11.8-17.6,19.5-24.4,7.6-6.8,16.2-12.3,25.1-16.2,9-3.9,18.2-6.4,27.4-7.3,9.2-1,18.2-.6,26.6,1,4.2.8,8.3,1.9,12.1,3.2h.2c.5.2.2.1.4.2h.3c0,.1.6.4.6.4l1.3.5c.8.3,1.9.7,2.9,1.2,1,.4,2,.8,2.9,1.3.9.5,1.8.9,2.7,1.4,7.1,3.8,13.2,8.4,18.1,13.6,5,5.2,8.9,10.7,11.8,16.2,2.9,5.6,4.9,11,6.1,16.2,1.2,5.2,1.8,10,1.8,14.4,0,1.1,0,2.1,0,3.2,0,1,0,2-.1,3-.2,1.9-.4,3.7-.6,5.3-.2,1.6-.6,3.1-.9,4.5-.3,1.4-.7,2.6-1,3.7-.4,1.1-.7,2-.9,2.8-.3.8-.6,1.5-.8,2-.4,1.1-.6,1.6-.6,1.6,0,0,0-.6.2-1.7,0-.6.2-1.3.2-2.1,0-.8.1-1.8.2-2.9,0-1.1,0-2.3,0-3.7,0-1.3,0-2.8-.2-4.4-.2-3.1-.6-6.7-1.5-10.6-.9-3.9-2.2-8-4.1-12.3-2-4.3-4.4-8.7-7.6-12.9-6.4-8.4-15.8-16.1-27.4-20.4-.7-.3-1.5-.5-2.2-.7-.4-.1-.7-.3-1.1-.4l-1-.3c-.7-.2-1.3-.4-2.3-.6l-1.3-.3-.7-.2h-.3c0,0-.3-.2,0,0h-.2c-3.2-.7-6.5-1.2-9.9-1.4-6.7-.5-13.7-.1-20.6,1.3-13.8,2.8-27.4,9.9-37.9,20.6-5.2,5.4-9.7,11.5-13.1,18.4-3.4,6.8-5.6,14.1-6.9,22.2-2.7,15.9-1.3,32.7,4.1,48.1,5.3,15.4,14.7,29.4,26.8,39.4,3,2.5,6.2,4.8,9.5,6.8,3.3,2,6.8,3.8,10.3,5.3,1.8.7,3.6,1.4,5.4,2,.9.3,1.8.6,2.7.9l1.3.4c.4.1.8.2,1.4.4l1.6.4h.2s.3.1,0,0h.4c0,0,.7.2.7.2,1,.2,1.9.4,2.9.6,1.9.4,3.8.7,5.8.9,15.4,2,30.8,0,44.4-4.9,13.7-4.9,25.6-12.7,34.9-21.7,9.3-9,16-19.3,20-29.3,4.1-10,5.6-19.6,5.8-27.5.2-8-.9-14.4-1.7-18.7-.5-2.1-.8-3.8-1.2-4.9-.3-1.1-.4-1.7-.4-1.7Z"/>
  <g>
    <g class="st20">
      <rect class="st12" x="216.3" y="19.1" width="46.8" height="82.4" transform="translate(-3.6 103.8) rotate(-24.3)"/>
    </g>
    <g class="st15">
      <rect class="st4" x="214.5" y="20.7" width="40.9" height="71.7" transform="translate(-2.5 101.5) rotate(-24.3)"/>
    </g>
    <path class="st0" d="M270.2,144.8c1.1-7-2.6-19.4-5.4-26,.9,2.9,1.5,5.3,1.8,7.3-2.4-4.9-6.2-10.1-12.3-15.1-18.9-15.4-39.7-8-50.1,1.1-10.4,9.1-30.7,27.3-30.7,27.3,0,0,15.5-17.3,27.8-33.3,1-57.8,97-23.8,78.6,23.8-.1-5.2-2.3-9.5-2.3-9.5,3,10.8-.4,16.9-7.3,24.4"/>
    <g class="st18">
      <rect class="st3" x="210.7" y="76.5" width="52.1" height="60.1" transform="translate(-22.9 106.6) rotate(-24.3)"/>
    </g>
    <g class="st16">
      <rect class="st6" x="222.8" y="3.6" width="78.7" height="111.4" transform="translate(-1.2 112.9) rotate(-24.3)"/>
    </g>
    <g class="st17">
      <rect class="st11" x="221.8" y="6" width="68.4" height="103.1" transform="translate(-1 110.2) rotate(-24.3)"/>
    </g>
    <g>
      <path class="st1" d="M213.5,89.4s-.3,3.2-2.3,4.6c-2,1.4-4.2,1-3.6,3.4,2.7,1.7,6.2-1.9,6-8"/>
      <g class="st19">
        <rect x="205.5" y="90.8" width="10.1" height="6.7" transform="translate(87.3 289.1) rotate(-81.8)"/>
      </g>
    </g>
  </g>
  <g>
    <path class="st10" d="M172.6,152.3c-5.7.2-12.3,2.5-12.3,14.2v20.6c0,12.2-12,13.6-19.9,13.2v-1.7c5.9.2,13.1-1.9,13.1-13.7v-20.6c0-8.2,5.1-11.5,10.9-12.8-5.8-1.4-10.9-4.6-10.9-12.9v-20.6c0-11.4-7.2-13.9-13.1-13.7v-1.7c7.8-.4,19.9,1,19.9,13.2v23c0,10.2,7.3,11.7,13.1,11.7v1.7h-.8Z"/>
    <path class="st7" d="M57.7,152.3v-1.7c5.8,0,13.1-1.6,13.1-11.7v-23c0-12.2,12.1-13.6,19.9-13.2v1.7c-5.9-.2-13.1,2.3-13.1,13.7v20.6c0,8.3-5.1,11.5-10.9,12.9,5.8,1.3,10.9,4.6,10.9,12.8v20.6c0,11.8,7.2,13.9,13.1,13.7v1.7c-7.9.4-19.9-1-19.9-13.2v-20.6c0-11.6-6.7-14-12.3-14.2h-.8Z"/>
    <g>
      <path class="st9" d="M139.4,144.7l-27.2-15.7-7.5-4.3c-2.9-1.6-6.3-1.6-9.1,0-2.9,1.6-4.6,4.6-4.6,7.9v40c0,3.3,1.7,6.2,4.6,7.9,1.4.8,3,1.2,4.6,1.2s3.1-.4,4.6-1.2l6-3.5,8.2-4.8,20.4-11.8c2.9-1.6,4.6-4.6,4.6-7.9s-1.7-6.2-4.6-7.9ZM135.8,154.1l-21.8,12.6-2.9,1.7-9.9,5.7c-.8.5-1.5.2-1.8,0-.3-.2-.9-.6-.9-1.6v-40c0-.9.6-1.4.9-1.6.2,0,.5-.2.9-.2s.6,0,.9.2l10.9,6.3,23.8,13.7c.8.5.9,1.3.9,1.6s0,1.1-.9,1.6Z"/>
      <path class="st8" d="M119,172.2l-14.2,8.2c-1.4.8-3,1.2-4.6,1.2s-3.1-.4-4.6-1.2c-2.9-1.6-4.6-4.6-4.6-7.9v-30.6l7.3,7.9v22.7c0,.9.6,1.4.9,1.6.3.2,1,.5,1.8,0l12.8-7.4,5.1,5.5Z"/>
      <path class="st5" d="M144,152.6c0,3.3-1.7,6.2-4.6,7.9l-20.4,11.8-8.2,4.8.3-8.6,2.9-1.7,21.8-12.6c.8-.5.9-1.3.9-1.6s0-1.1-.9-1.6l-23.8-13.7.3-8.3,27.2,15.7c2.9,1.6,4.6,4.6,4.6,7.9Z"/>
    </g>
  </g>
</svg>