<svg width="100" height="100" viewBox="0 0 100 100" fill="none" xmlns="http://www.w3.org/2000/svg">
<rect width="100" height="100" rx="8" fill="#FFFEFA"/>
<path d="M62.2161 28H37.7839C32.3804 28 28 32.5145 28 38.0834V61.9166C28 67.4855 32.3804 72 37.7839 72H62.2161C67.6196 72 72 67.4855 72 61.9166V38.0834C72 32.5145 67.6196 28 62.2161 28Z" fill="#001D23"/>
<path d="M62.2181 30.0996H37.7859C33.5074 30.0996 30.0391 33.6742 30.0391 38.0836V61.9169C30.0391 66.3263 33.5074 69.9008 37.7859 69.9008H62.2181C66.4966 69.9008 69.965 66.3263 69.965 61.9169V38.0836C69.965 33.6742 66.4966 30.0996 62.2181 30.0996Z" fill="#001D23"/>
<path d="M38.9922 40.6276C38.9922 40.467 39.0177 40.4177 39.147 40.4177C40.2083 40.3914 42.2514 40.3379 44.2182 40.3379C49.4442 40.3379 51.2562 43.3243 51.2562 46.2309C51.2562 50.5514 48.0214 52.3905 44.0369 52.3905H42.5652V57.6389C42.5652 57.7722 42.5132 57.8489 42.3614 57.8489H39.1725C39.0431 57.8489 38.9922 57.7691 38.9922 57.6389V40.6276ZM42.5652 49.107C43.0052 49.1333 43.2893 49.1333 44.0145 49.1333C46.0587 49.1333 47.6883 48.493 47.6883 46.3064C47.6883 44.6269 46.5761 43.5604 44.3272 43.5604C43.4991 43.5604 42.7994 43.5867 42.5672 43.614L42.5652 49.107Z" fill="#01C8FE"/>
<path d="M57.9062 47.2914C56.69 47.2914 56.302 47.7449 56.302 48.1983C56.302 48.6518 56.6391 48.9982 58.1353 49.585C61.2662 50.7585 62.2491 52.0119 62.2491 53.9045C62.2491 56.4384 60.3343 58.1179 56.9192 58.1179C55.3415 58.1179 53.9655 57.824 53.168 57.3716C53.1131 57.3464 53.0666 57.3051 53.0343 57.2528C53.0021 57.2006 52.9855 57.1396 52.9867 57.0777V54.1973C52.9867 54.0367 53.0886 53.957 53.1904 54.0367C54.3811 54.8104 55.8294 55.1032 56.9936 55.1032C58.2097 55.1032 58.7536 54.7568 58.7536 54.1973C58.7536 53.6903 58.3136 53.3167 56.7868 52.7278C53.8637 51.6077 52.9062 50.3271 52.9062 48.4072C52.9062 46.3278 54.5359 44.3281 57.951 44.3281C59.4787 44.3281 60.6684 44.5381 61.3121 44.8614C61.3731 44.8929 61.4232 44.9431 61.4555 45.0051C61.4878 45.0671 61.5006 45.1379 61.4924 45.2078V47.874C61.4924 48.0346 61.3905 48.1406 61.2337 48.0608C60.3913 47.6116 59.0673 47.2914 57.9062 47.2914Z" fill="#01C8FE"/>
</svg>
