<svg width="100" height="100" viewBox="0 0 100 100" fill="none" xmlns="http://www.w3.org/2000/svg">
<rect width="100" height="100" rx="8" fill="#FFFEFA"/>
<path d="M62.2161 28H37.7839C32.3804 28 28 32.5145 28 38.0834V61.9166C28 67.4855 32.3804 72 37.7839 72H62.2161C67.6196 72 72 67.4855 72 61.9166V38.0834C72 32.5145 67.6196 28 62.2161 28Z" fill="#2E0020"/>
<path d="M62.2181 30.0996H37.7859C33.5074 30.0996 30.0391 33.6742 30.0391 38.0836V61.9169C30.0391 66.3263 33.5074 69.9008 37.7859 69.9008H62.2181C66.4966 69.9008 69.965 66.3263 69.965 61.9169V38.0836C69.965 33.6742 66.4966 30.0996 62.2181 30.0996Z" fill="#2E0020"/>
<path d="M45.4565 48.8456L50.5797 57.5581C50.5997 57.5842 50.6124 57.6156 50.6163 57.6487C50.6202 57.6817 50.6152 57.7153 50.6018 57.7457C50.5885 57.776 50.5673 57.802 50.5406 57.8207C50.5138 57.8395 50.4826 57.8503 50.4503 57.852H46.7765C46.5433 57.852 46.4139 57.7722 46.3365 57.6116C45.1978 55.5322 44.0591 53.4517 42.8949 51.2652H42.8684C41.8336 53.3992 40.6949 55.5584 39.6092 57.6389C39.5788 57.7095 39.5271 57.7682 39.4618 57.806C39.3964 57.8438 39.3209 57.8589 39.2466 57.8489H35.7541C35.5728 57.8489 35.5728 57.6883 35.6522 57.5822L40.6206 49.1028L35.7541 40.658C35.7329 40.6342 35.7192 40.6043 35.7149 40.5723C35.7105 40.5403 35.7157 40.5077 35.7297 40.4788C35.7437 40.4499 35.7659 40.4261 35.7934 40.4105C35.8208 40.3949 35.8522 40.3882 35.8834 40.3914H39.5318C39.7131 40.3914 39.7905 40.4176 39.8679 40.6013C40.9027 42.7081 42.1188 44.8148 43.1801 46.9215H43.2056C44.2149 44.7875 45.3526 42.7343 46.4139 40.6013C46.4913 40.468 46.5433 40.3914 46.7765 40.3914H50.1142C50.2945 40.3914 50.3179 40.5247 50.216 40.6843L45.4565 48.8456Z" fill="#FBDAF1"/>
<path d="M50.8906 51.3461C50.8906 47.5326 53.659 44.3331 58.3941 44.3331C58.5978 44.3331 58.8595 44.3593 59.2476 44.3856V39.1371C59.2448 39.1119 59.2476 39.0864 59.2557 39.0624C59.2639 39.0384 59.2772 39.0167 59.2946 38.9987C59.312 38.9808 59.3331 38.9671 59.3564 38.9587C59.3796 38.9503 59.4044 38.9474 59.4289 38.9503H62.6881C62.8175 38.9503 62.8429 39.0038 62.8429 39.1109V54.8657C62.8361 55.516 62.8701 56.1661 62.9448 56.8119C62.9448 56.9452 62.9183 56.9987 62.7635 57.0522C61.1528 57.7571 59.4208 58.1199 57.6709 58.1187C53.8403 58.1187 50.8906 55.8776 50.8906 51.3461ZM59.2476 47.5588C58.9889 47.4538 58.6528 47.4255 58.2902 47.4255C56.2979 47.4255 54.5909 48.6788 54.5909 51.1593C54.5909 53.7992 56.0657 54.9455 58.0315 54.9455C58.4715 54.9455 58.886 54.9193 59.2476 54.7849V47.5588Z" fill="#FBDAF1"/>
</svg>
