<svg width="100" height="100" viewBox="0 0 100 100" fill="none" xmlns="http://www.w3.org/2000/svg">
<rect width="100" height="100" rx="8" fill="#FFFEFA"/>
<path d="M68.0127 28H31.9875C29.7876 28 28 29.7876 28 31.9876V68.0125C28 70.2124 29.7876 72 31.9875 72H68.0126C70.2125 72 72 70.2124 72 68.0125V31.9875C72 29.7875 70.2126 28 68.0127 28Z" fill="#FF3366"/>
<path d="M45.2975 39.1575C45.337 41.4558 43.0977 41.8388 42.6851 41.8486C41.2216 41.8486 40.0234 40.6701 40.0234 39.1968C40.0334 35.7396 45.2387 35.7102 45.2975 39.1575Z" fill="white"/>
<path d="M60.689 61.8841C54.2463 61.8841 57.3401 54.6163 58.2337 51.4145C59.6187 46.8574 53.7945 45.6199 52.3506 51.4833L49.8167 61.6288H45.3874L46.1827 58.437C43.0889 63.5242 36.8918 62.7976 36.8918 58.0145C36.9015 56.6099 36.98 56.6395 39.1507 47.7905H36.0273L36.98 44.2939H44.4835C41.1836 57.425 41.2818 56.7574 41.2524 57.8669C41.2524 59.9197 45.2693 59.1929 46.89 55.5885L48.8347 47.7905H45.6624L46.615 44.2939H53.3721L52.498 48.2716C56.4756 40.8565 65.0596 43.577 62.4964 52.0039C61.1016 57.0224 61.0624 56.9833 61.0328 57.7787C61.0328 59.3012 62.7515 59.9985 64.156 56.119L65.9141 56.7771C64.8828 60.3815 63.0265 61.8841 60.689 61.8841Z" fill="white"/>
</svg>
