<svg width="100" height="100" viewBox="0 0 100 100" fill="none" xmlns="http://www.w3.org/2000/svg">
<rect width="100" height="100" rx="8" fill="#FFFEFA"/>
<path d="M62.2161 28H37.7839C32.3804 28 28 32.5145 28 38.0834V61.9166C28 67.4855 32.3804 72 37.7839 72H62.2161C67.6196 72 72 67.4855 72 61.9166V38.0834C72 32.5145 67.6196 28 62.2161 28Z" fill="#2C083D"/>
<path d="M62.2181 30.0996H37.7859C33.5074 30.0996 30.0391 33.6742 30.0391 38.0836V61.9169C30.0391 66.3263 33.5074 69.9008 37.7859 69.9008H62.2181C66.4966 69.9008 69.965 66.3263 69.965 61.9169V38.0836C69.965 33.6742 66.4966 30.0996 62.2181 30.0996Z" fill="#2C083D"/>
<path d="M39.8047 40.6276C39.8047 40.467 39.8302 40.4177 39.9595 40.4177C41.0208 40.3914 43.0639 40.3379 45.0307 40.3379C50.2567 40.3379 52.0687 43.3243 52.0687 46.2309C52.0687 50.5514 48.8339 52.3905 44.8494 52.3905H43.3777V57.6389C43.3777 57.7722 43.3257 57.8489 43.1739 57.8489H39.986C39.8556 57.8489 39.8047 57.7691 39.8047 57.6389V40.6276ZM43.3777 49.107C43.8177 49.1333 44.1018 49.1333 44.827 49.1333C46.8712 49.1333 48.5008 48.493 48.5008 46.3064C48.5008 44.6269 47.3886 43.5604 45.1397 43.5604C44.3116 43.5604 43.6119 43.5867 43.3797 43.614L43.3777 49.107Z" fill="#ED9EFB"/>
<path d="M57.0638 44.5993C57.1344 44.5931 57.2048 44.6141 57.2612 44.6583C57.3177 44.7025 57.3562 44.7668 57.3693 44.8386C57.5363 45.3189 57.6321 45.8225 57.6535 46.3323C58.1572 45.7115 58.7862 45.2115 59.4967 44.867C60.2072 44.5225 60.9821 44.342 61.7673 44.3379C61.9231 44.3379 61.971 44.3904 61.971 44.5478V47.8271C61.971 47.9604 61.919 48.0139 61.7377 48.0139C59.8749 47.9341 58.3766 48.5209 57.8307 49.1612L57.8052 57.6407C57.8052 57.8002 57.7533 57.8506 57.572 57.8506H54.4818C54.2781 57.8506 54.2231 57.7708 54.2231 57.6102V48.4118C54.2231 47.2655 54.1966 45.7193 54.0938 44.7851C54.0938 44.6517 54.1192 44.5993 54.2486 44.5993H57.0638Z" fill="#ED9EFB"/>
</svg>
