<svg width="89" height="74" viewBox="0 0 89 74" fill="none" xmlns="http://www.w3.org/2000/svg">
<path d="M57.5618 5.25879H31.3545V5.88496H57.5618V5.25879Z" fill="#A6A6A6"/>
<path d="M85.192 68.8779H3.06934V70.5852H85.192V68.8779Z" fill="#777777"/>
<path d="M86.4929 70.585H1.76562V72.2922H86.4929V70.585Z" fill="#A6A6A6"/>
<path d="M88.2594 72.292H0V73.9993H88.2594V72.292Z" fill="#939393"/>
<path d="M59.0677 48.2217H29.1924V68.8779H59.0677V48.2217Z" fill="#A6A6A6"/>
<path d="M48.2584 55.1357H40V68.8784H48.2584V55.1357Z" fill="#777777"/>
<path d="M43.8567 55.9463H40.6465V68.4087H43.8567V55.9463Z" fill="#B3B3B3"/>
<path d="M47.6116 55.9463H44.4014V68.4087H47.6116V55.9463Z" fill="#B3B3B3"/>
<path d="M35.8499 54.3389H31.582V59.3751H35.8499V54.3389Z" fill="#777777"/>
<path d="M55.9935 54.3389H51.7256V59.3751H55.9935V54.3389Z" fill="#777777"/>
<path d="M33.5165 49.5879H31.1836V51.9208H33.5165V49.5879Z" fill="#777777"/>
<path d="M36.8026 49.5879H34.4697V51.9208H36.8026V49.5879Z" fill="#777777"/>
<path d="M52.9354 49.5879H50.6025V51.9208H52.9354V49.5879Z" fill="#777777"/>
<path d="M56.2216 49.5879H53.8887V51.9208H56.2216V49.5879Z" fill="#777777"/>
<path d="M29.1916 48.2217H21.3955V68.8779H29.1916V48.2217Z" fill="#939393"/>
<path d="M21.3964 50.7539H11.3525V68.8781H21.3964V50.7539Z" fill="#939393"/>
<path d="M22.3636 49.1607V48.2217H21.4818H20.23H19.291V49.1607H20.23V67.939H19.291V68.8779H20.23H21.4818H22.3636V67.939H21.4818V49.1607H22.3636Z" fill="#777777"/>
<path d="M18.5507 55.1357H14.3398V68.8784H18.5507V55.1357Z" fill="#646262"/>
<path d="M20.2934 50.7535H9.5166L10.4464 49.9287H20.2934V50.7535Z" fill="#646262"/>
<path d="M20.2934 49.6514H10.4521V49.9288H20.2934V49.6514Z" fill="#6F6F6F"/>
<path d="M20.2937 49.374H10.7139V49.6514H20.2937V49.374Z" fill="#646262"/>
<path d="M11.8927 68.8789H21.9365L21.9365 50.7547H11.8927L11.8927 68.8789Z" fill="#939393"/>
<path d="M19.8027 51.5776V50.7539H20.6846H21.9364H22.8754V51.5776H21.9364V68.0544H22.8754V68.8781H21.9364H20.6846H19.8027V68.0544H20.6846V51.5776H19.8027Z" fill="#777777"/>
<path d="M14.7384 68.8779H18.9492V55.1353H14.7384L14.7384 68.8779Z" fill="#646262"/>
<path d="M12.9951 50.7545H23.7713L22.842 49.9297H12.9951V50.7545Z" fill="#646262"/>
<path d="M12.9957 49.9287H22.8369V49.6513H12.9957V49.9287Z" fill="#6F6F6F"/>
<path d="M12.9954 49.6514H22.5752V49.374H12.9954V49.6514Z" fill="#646262"/>
<path d="M59.0672 68.8779H66.8633V48.2217H59.0672V68.8779Z" fill="#939393"/>
<path d="M66.8634 68.8789H76.9072V50.7547H66.8634V68.8789Z" fill="#939393"/>
<path d="M74.7734 51.5776V50.7539H75.6553H76.9071H77.8461V51.5776H76.9071V68.0544H77.8461V68.8781H76.9071H75.6553H74.7734V68.0544H75.6553V51.5776H74.7734Z" fill="#777777"/>
<path d="M65.8955 49.1607V48.2217H66.7774H68.0292H68.9681V49.1607H68.0292V67.939H68.9681V68.8779H68.0292H66.7774H65.8955V67.939H66.7774V49.1607H65.8955Z" fill="#777777"/>
<path d="M69.7091 68.8779H73.9199V55.1353H69.7091V68.8779Z" fill="#646262"/>
<path d="M76.9066 68.8779H82.2842V57.7815H76.9066V68.8779Z" fill="#939393"/>
<path d="M80.748 58.2858V57.7812H81.6299H82.8817H83.8207V58.2858H82.8817V68.3736H83.8207V68.8777H82.8817H81.6299H80.748V68.3736H81.6299V58.2858H80.748Z" fill="#777777"/>
<path d="M78.3005 68.8779H80.4062V60.6835H78.3005V68.8779Z" fill="#646262"/>
<path d="M76.9062 57.7818H84.1617L83.5361 56.957H76.9062V57.7818Z" fill="#646262"/>
<path d="M76.9063 56.9561H83.5322V56.6786H76.9063V56.9561Z" fill="#6F6F6F"/>
<path d="M76.9064 56.6787H83.3564V56.4013H76.9064V56.6787Z" fill="#646262"/>
<path d="M84.1617 57.7822H78.7842V68.8787H84.1617V57.7822Z" fill="#939393"/>
<path d="M80.3207 58.2868V57.7822H79.4388H78.187H77.248V58.2868H78.187V68.3746H77.248V68.8787H78.187H79.4388H80.3207V68.3746H79.4388V58.2868H80.3207Z" fill="#777777"/>
<path d="M82.7678 60.6846H80.6621V68.879H82.7678V60.6846Z" fill="#646262"/>
<path d="M84.1617 57.7818H76.9062L77.5324 56.957H84.1617V57.7818Z" fill="#646262"/>
<path d="M84.162 56.6797H77.5361V56.9571H84.162V56.6797Z" fill="#6F6F6F"/>
<path d="M84.1614 56.4023H77.7119V56.6798H84.1614V56.4023Z" fill="#646262"/>
<path d="M11.3531 57.7822H5.97559V68.8787H11.3531V57.7822Z" fill="#939393"/>
<path d="M7.51111 58.2868V57.7822H6.62923H5.37746H4.43848V58.2868H5.37746V68.3746H4.43848V68.8787H5.37746H6.62923H7.51111V68.3746H6.62923V58.2868H7.51111Z" fill="#777777"/>
<path d="M9.95825 60.6846H7.85254V68.879H9.95825V60.6846Z" fill="#646262"/>
<path d="M11.3525 57.7818H4.09766L4.72326 56.957H11.3525V57.7818Z" fill="#646262"/>
<path d="M11.3524 56.6797H4.72656V56.9571H11.3524V56.6797Z" fill="#6F6F6F"/>
<path d="M11.3528 56.4023H4.90332V56.6798H11.3528V56.4023Z" fill="#646262"/>
<path d="M67.9648 50.7545H78.7416L77.8118 49.9297H67.9648V50.7545Z" fill="#646262"/>
<path d="M67.9654 49.9287H77.8066V49.6513H67.9654V49.9287Z" fill="#6F6F6F"/>
<path d="M67.9651 49.6514H77.5449V49.374H67.9651V49.6514Z" fill="#646262"/>
<path d="M69.8435 48.2215L67.5734 45.7043H45.7516V45.7031H18.7823L16.2354 48.2209H43.5323V48.2215H69.8435Z" fill="#646262"/>
<path d="M45.7509 44.8576V44.8564H18.7959V45.7029H43.5317V45.7041H67.5602V44.8576H45.7509Z" fill="#6F6F6F"/>
<path d="M45.7514 44.0113V44.0107H19.5127V44.8567H43.5321V44.8578H66.9219V44.0113H45.7514Z" fill="#646262"/>
<path d="M62.9653 37.5801H25.2939V44.0102H62.9653V37.5801Z" fill="#A6A6A6"/>
<path d="M30.6114 39.0322H28.6484V42.6174H30.6114V39.0322Z" fill="#777777"/>
<path d="M36.3732 39.0322H34.4102V42.6174H36.3732V39.0322Z" fill="#777777"/>
<path d="M53.8497 39.0322H51.8867V42.6174H53.8497V39.0322Z" fill="#777777"/>
<path d="M59.6114 39.0322H57.6484V42.6174H59.6114V39.0322Z" fill="#777777"/>
<path d="M62.9653 36.9834H25.2939V37.581H62.9653V36.9834Z" fill="#939393"/>
<path d="M62.9653 36.9834H25.2939L26.6741 36.3857H61.7129L62.9653 36.9834Z" fill="#777777"/>
<path d="M61.7983 29.9561H26.6738V36.3862H61.7983V29.9561Z" fill="#A6A6A6"/>
<path d="M31.6739 31.4062H29.7109V34.9915H31.6739V31.4062Z" fill="#777777"/>
<path d="M36.3732 31.4062H34.4102V34.9915H36.3732V31.4062Z" fill="#777777"/>
<path d="M53.8497 31.4062H51.8867V34.9915H53.8497V31.4062Z" fill="#777777"/>
<path d="M58.5489 31.4062H56.5859V34.9915H58.5489V31.4062Z" fill="#777777"/>
<path d="M61.7983 29.3584H26.6738V29.956H61.7983V29.3584Z" fill="#939393"/>
<path d="M61.7983 29.3584H26.6738L27.9604 28.7607H60.6309L61.7983 29.3584Z" fill="#777777"/>
<path d="M60.6249 22.3301H28.04V28.7602H60.6249V22.3301Z" fill="#A6A6A6"/>
<path d="M32.7355 23.7812H30.7725V27.3665H32.7355V23.7812Z" fill="#777777"/>
<path d="M37.4347 23.7812H35.4717V27.3665H37.4347V23.7812Z" fill="#777777"/>
<path d="M52.7872 23.7812H50.8242V27.3665H52.7872V23.7812Z" fill="#777777"/>
<path d="M57.4864 23.7812H55.5234V27.3665H57.4864V23.7812Z" fill="#777777"/>
<path d="M60.6249 21.7324H28.04V22.3301H60.6249V21.7324Z" fill="#939393"/>
<path d="M60.6255 21.7324H28.04L29.2341 21.1348H59.5427L60.6255 21.7324Z" fill="#777777"/>
<path d="M59.5789 14.7051H29.2344V21.1352H59.5789V14.7051Z" fill="#A6A6A6"/>
<path d="M33.7979 16.1562H31.835V19.7415H33.7979V16.1562Z" fill="#777777"/>
<path d="M38.4972 16.1562H36.5342V19.7415H38.4972V16.1562Z" fill="#777777"/>
<path d="M52.256 16.1562H50.293V19.7415H52.256V16.1562Z" fill="#777777"/>
<path d="M56.9552 16.1562H54.9922V19.7415H56.9552V16.1562Z" fill="#777777"/>
<path d="M59.5789 14.1074H29.2344V14.7051H59.5789V14.1074Z" fill="#939393"/>
<path d="M59.5789 14.1074H29.2344L30.3457 13.5098H58.5703L59.5789 14.1074Z" fill="#777777"/>
<path d="M33.7979 16.1562H31.835V19.7415H33.7979V16.1562Z" fill="#777777"/>
<path d="M38.4972 16.1562H36.5342V19.7415H38.4972V16.1562Z" fill="#777777"/>
<path d="M52.256 16.1562H50.293V19.7415H52.256V16.1562Z" fill="#777777"/>
<path d="M56.9552 16.1562H54.9922V19.7415H56.9552V16.1562Z" fill="#777777"/>
<path d="M59.5789 14.1074H29.2344V14.7051H59.5789V14.1074Z" fill="#939393"/>
<path d="M59.5789 14.1074H29.2344L30.3457 13.5098H58.5703L59.5789 14.1074Z" fill="#777777"/>
<path d="M58.4981 7.0791H30.3301V13.5092H58.4981V7.0791Z" fill="#A6A6A6"/>
<path d="M34.5657 8.53027H32.7432V12.1155H34.5657V8.53027Z" fill="#777777"/>
<path d="M38.928 8.53027H37.1055V12.1155H38.928V8.53027Z" fill="#777777"/>
<path d="M58.4981 6.48145H30.3301V7.07908H58.4981V6.48145Z" fill="#939393"/>
<path d="M58.4981 6.48182H30.3301L31.3621 5.88477H57.562L58.4981 6.48182Z" fill="#777777"/>
<path d="M34.5657 8.53027H32.7432V12.1155H34.5657V8.53027Z" fill="#777777"/>
<path d="M38.928 8.53027H37.1055V12.1155H38.928V8.53027Z" fill="#777777"/>
<path d="M51.7005 8.53027H49.8779V12.1155H51.7005V8.53027Z" fill="#777777"/>
<path d="M56.0638 8.53027H54.2412V12.1155H56.0638V8.53027Z" fill="#777777"/>
<path d="M58.4981 6.48145H30.3301V7.07908H58.4981V6.48145Z" fill="#939393"/>
<path d="M58.4981 6.48182H30.3301L31.3621 5.88477H57.562L58.4981 6.48182Z" fill="#777777"/>
<path d="M46.402 7.0791H42.2334V13.5092H46.402V7.0791Z" fill="#777777"/>
<path d="M42.3987 7.0791H42.0693V13.5092H42.3987V7.0791Z" fill="#646262"/>
<path d="M46.5676 7.0791H46.2383V13.5092H46.5676V7.0791Z" fill="#646262"/>
<path d="M46.3208 4.46712C46.2546 4.22738 46.0714 4.19827 45.9829 4.41346L45.2574 6.17953L44.4383 3.0618C44.3904 2.87914 44.246 2.87914 44.198 3.0618L43.3789 6.17953L42.6534 4.41346C42.565 4.19827 42.3811 4.22738 42.3155 4.46712L41.8252 6.24574V7.07911H44.3179H46.8106V6.24574L46.3208 4.46712Z" fill="#646262"/>
<path d="M45.2999 8.53027H43.3369V12.1155H45.2999V8.53027Z" fill="#B3B3B3"/>
<path d="M46.7913 14.7051H41.4697V21.1352H46.7913V14.7051Z" fill="#777777"/>
<path d="M41.6789 14.7051H41.2588V21.1352H41.6789V14.7051Z" fill="#646262"/>
<path d="M47.0011 14.7051H46.5811V21.1352H47.0011V14.7051Z" fill="#646262"/>
<path d="M46.686 12.0931C46.6015 11.8534 46.3675 11.8242 46.2544 12.0394L45.3286 13.8055L44.2835 10.6878C44.2224 10.5051 44.038 10.5051 43.9769 10.6878L42.9318 13.8055L42.006 12.0394C41.8929 11.8242 41.6589 11.8534 41.5744 12.0931L40.9482 13.8717V14.7051H44.1305H47.3127V13.8717L46.686 12.0931Z" fill="#646262"/>
<path d="M45.1124 16.1562H43.1494V19.7415H45.1124V16.1562Z" fill="#B3B3B3"/>
<path d="M47.7107 22.3301H40.5488V28.7602H47.7107V22.3301Z" fill="#777777"/>
<path d="M40.8322 22.3301H40.2666V28.7602H40.8322V22.3301Z" fill="#646262"/>
<path d="M47.9944 22.3301H47.4287V28.7602H47.9944V22.3301Z" fill="#646262"/>
<path d="M47.5702 19.7181C47.4566 19.4784 47.141 19.4493 46.9891 19.6644L45.7431 21.4305L44.336 18.3128C44.2538 18.1301 44.0056 18.1301 43.9234 18.3128L42.5163 21.4305L41.2703 19.6644C41.1184 19.4493 40.8028 19.4784 40.6892 19.7181L39.8467 21.4967V22.3301H44.1294H48.4122V21.4967L47.5702 19.7181Z" fill="#646262"/>
<path d="M45.1114 23.7812H43.1484V27.3665H45.1114V23.7812Z" fill="#B3B3B3"/>
<path d="M48.2302 29.9561H40.0283V36.3862H48.2302V29.9561Z" fill="#777777"/>
<path d="M40.3514 29.9561H39.7041V36.3862H40.3514V29.9561Z" fill="#646262"/>
<path d="M48.5541 29.9561H47.9062V36.3862H48.5541V29.9561Z" fill="#646262"/>
<path d="M48.0687 27.3441C47.9385 27.1043 47.5772 27.0752 47.4037 27.2904L45.9767 29.0565L44.3653 25.9388C44.2711 25.7561 43.9868 25.7561 43.8927 25.9388L42.2813 29.0565L40.8543 27.2904C40.6802 27.0752 40.3188 27.1043 40.1893 27.3441L39.2246 29.1227V29.9561H44.129H49.0333V29.1227L48.0687 27.3441Z" fill="#646262"/>
<path d="M45.1114 31.4072H43.1484V34.9924H45.1114V31.4072Z" fill="#B3B3B3"/>
<path d="M49.4216 37.5801H38.9229V44.0102H49.4216V37.5801Z" fill="#777777"/>
<path d="M39.6482 37.5801H38.8799V44.0102H39.6482V37.5801Z" fill="#646262"/>
<path d="M49.3786 37.5801H48.6104V44.0102H49.3786V37.5801Z" fill="#646262"/>
<path d="M48.8036 35.1118C48.6495 34.8852 48.2208 34.8578 48.0142 35.061L46.3212 36.7306L44.4096 33.7836C44.2977 33.6112 43.9609 33.6112 43.8491 33.7836L41.9374 36.7306L40.2444 35.061C40.0384 34.8578 39.6097 34.8852 39.455 35.1118L38.3105 36.7928V37.5806H44.1287H49.9475V36.7928L48.8036 35.1118Z" fill="#646262"/>
<path d="M45.1114 39.0322H43.1484V42.6174H45.1114V39.0322Z" fill="#B3B3B3"/>
<path d="M33.1468 1.47461H31.3545V5.25847H33.1468V1.47461Z" fill="#777777"/>
<path d="M57.4017 1.47461H55.6094V5.25847H57.4017V1.47461Z" fill="#777777"/>
<path d="M57.5618 1.47461H55.7695V5.25847H57.5618V1.47461Z" fill="#777777"/>
<path d="M32.971 0.55043C32.947 0.46538 32.8814 0.455112 32.8494 0.531599L32.5886 1.15662L32.294 0.0532584C32.2769 -0.0112424 32.225 -0.0112424 32.2078 0.0532584L31.9133 1.15662L31.6524 0.531599C31.6205 0.455682 31.5548 0.465951 31.5308 0.55043L31.3545 1.18002V1.47514H32.2506H33.1468V1.18002L32.971 0.55043Z" fill="#A6A6A6"/>
<path d="M57.3566 0.545547C57.331 0.460497 57.259 0.45022 57.2242 0.526708L56.9399 1.15174L56.6192 0.0483756C56.6003 -0.0161252 56.5438 -0.0161252 56.525 0.0483756L56.2042 1.15174L55.9199 0.526708C55.8851 0.450791 55.8132 0.460497 55.7875 0.545547L55.5957 1.17514V1.47025H56.5723H57.549V1.17514L57.3566 0.545547Z" fill="#777777"/>
<path d="M57.3699 0.545547C57.3442 0.460497 57.2723 0.45022 57.2375 0.526708L56.9532 1.15174L56.6324 0.0483756C56.6136 -0.0161252 56.5571 -0.0161252 56.5383 0.0483756L56.2175 1.15174L55.9332 0.526708C55.8984 0.450791 55.8264 0.460497 55.8007 0.545547L55.6084 1.17514V1.47025H56.585H57.5617V1.17514L57.3699 0.545547Z" fill="#A6A6A6"/>
</svg>
