<svg width="205" height="279" viewBox="0 0 205 279" fill="none" xmlns="http://www.w3.org/2000/svg">
<mask id="mask0_746_18516" style="mask-type:luminance" maskUnits="userSpaceOnUse" x="0" y="0" width="279" height="279">
<path d="M278.688 37.6024L37.6025 0L0.000175476 241.085L241.085 278.688L278.688 37.6024Z" fill="white"/>
</mask>
<g mask="url(#mask0_746_18516)">
<mask id="mask1_746_18516" style="mask-type:luminance" maskUnits="userSpaceOnUse" x="0" y="0" width="279" height="279">
<path d="M37.6025 0L278.688 37.6024L241.085 278.688L0.000175476 241.085L37.6025 0Z" fill="white"/>
</mask>
<g mask="url(#mask1_746_18516)">
<path d="M179.51 43.0215L202.461 70.1602" stroke="#FF8E3A"/>
<path d="M114.9 38.3916L153.977 45.2761" stroke="#FF8E3A"/>
<path d="M202.395 70.0721L154.128 45.2998" stroke="#FF8E3A"/>
<path d="M179.699 43.2763L154.023 45.225" stroke="#FF8E3A"/>
<path d="M202.285 69.8262L200.295 117.643" stroke="#FF8E3A"/>
<path d="M154.23 44.8916L156.966 80.0418L202.516 69.7945" stroke="#FF8E3A"/>
<path d="M80.4947 62.1519L150.716 73.3606L195.431 72.9248" stroke="#FF8E3A"/>
<path d="M62.5855 71.255L106.014 61.011" stroke="#FF8E3A"/>
<path d="M115.182 38.5154L106.059 60.7094" stroke="#FF8E3A"/>
<path d="M154.311 45.3664L106.036 60.8597" stroke="#FF8E3A"/>
<path d="M157.04 79.7483L106.013 61.0107" stroke="#FF8E3A"/>
<path d="M202.271 69.7061L227.976 87.1085" stroke="#FF8E3A"/>
<path d="M150.763 73.0586L232.176 115.073" stroke="#FF8E3A"/>
<path d="M202.422 69.7822L232.453 115.04" stroke="#FF8E3A"/>
<path d="M157.206 79.6201L200.257 117.487" stroke="#FF8E3A"/>
<path d="M232.223 115.165L200.708 117.558" stroke="#FF8E3A"/>
<path d="M150.692 73.5107L154.548 126.763" stroke="#FF8E3A"/>
<path d="M156.936 79.4209L154.554 126.793" stroke="#FF8E3A"/>
<path d="M200.512 117.302L154.556 126.773" stroke="#FF8E3A"/>
<path d="M45.3247 109.782L143.261 120.661" stroke="#FF8E3A"/>
<path d="M162.065 108.559L143.384 120.372" stroke="#FF8E3A"/>
<path d="M154.747 126.317L108.46 108.179" stroke="#FF8E3A"/>
<path d="M106.059 60.7148L108.263 108.456" stroke="#FF8E3A"/>
<path d="M157.011 78.9825L107.985 108.259" stroke="#FF8E3A"/>
<path d="M63.0986 71.7891L68.2375 97.6229" stroke="#FF8E3A"/>
<path d="M108.308 108.159L68.04 97.9004" stroke="#FF8E3A"/>
<path d="M105.838 61.1284L68.0863 97.5987" stroke="#FF8E3A"/>
<path d="M150.739 73.2098L68.5156 97.8208" stroke="#FF8E3A"/>
<path d="M143.36 120.522L241.784 150.353" stroke="#FF8E3A"/>
<path d="M132.48 178.403L221.5 187.085L221.046 186.829" stroke="#FF8E3A"/>
<path d="M190.662 208.254L222.96 165.999L200.325 117.044" stroke="#FF8E3A"/>
<path d="M143.21 120.499L176.899 170.122L154.743 126.32" stroke="#FF8E3A"/>
<path d="M200.416 117.362L176.297 170.028L222.885 165.525" stroke="#FF8E3A"/>
<path d="M190.664 208.25L176.297 170.028" stroke="#FF8E3A"/>
<path d="M177.189 170.318L121.457 164.126L154.837 126.629" stroke="#FF8E3A"/>
<path d="M108.27 108.458L121.456 164.126" stroke="#FF8E3A"/>
<path d="M68.4453 98.2725L70.5134 148.732" stroke="#FF8E3A"/>
<path d="M108.259 108.446L70.3394 148.859" stroke="#FF8E3A"/>
<path d="M143.454 119.92L70.3865 148.558L121.327 164.109" stroke="#FF8E3A"/>
<path d="M70.6343 148.693L39.8359 129.237" stroke="#FF8E3A"/>
<path d="M63.002 71.6815L39.6816 128.934" stroke="#FF8E3A"/>
<path d="M68.9775 97.7379L39.7608 128.82" stroke="#FF8E3A"/>
<path d="M215.433 208.352L190.251 207.954" stroke="#FF8E3A"/>
<path d="M132.838 179.076L39.1273 165.368" stroke="#FF8E3A"/>
<path d="M119.78 156.666L133.012 178.949" stroke="#FF8E3A"/>
<path d="M191.547 208.403L132.839 179.076" stroke="#FF8E3A"/>
<path d="M69.9795 149.314L91.9379 195.935" stroke="#FF8E3A"/>
<path d="M133.488 178.868L91.9873 195.644" stroke="#FF8E3A"/>
<path d="M121.587 164.298L91.7953 195.917" stroke="#FF8E3A"/>
<path d="M55.5152 189.989L91.691 195.597" stroke="#FF8E3A"/>
<path d="M39.458 166.055L54.2914 189.205" stroke="#FF8E3A"/>
<path d="M70.3235 148.933L54.762 189.872" stroke="#FF8E3A"/>
<path d="M39.9131 128.834L54.6872 189.421" stroke="#FF8E3A"/>
<path d="M70.4753 215.393L54.9727 189.838" stroke="#FF8E3A"/>
<path d="M161.652 238.564L190.352 208.356" stroke="#FF8E3A"/>
<path d="M123.607 241.23L176.283 228.218" stroke="#FF8E3A"/>
<path d="M101.059 230.664L54.9639 189.606" stroke="#FF8E3A"/>
<path d="M91.8184 195.776L100.915 230.548" stroke="#FF8E3A"/>
<path d="M162.303 238.357L101.106 230.81" stroke="#FF8E3A"/>
<path d="M162.303 238.357L101.106 230.81L162.303 238.357Z" fill="#FF8E3A"/>
<path d="M190.861 207.967L140.68 211.808L91.2943 195.68" stroke="#FF8E3A"/>
<path d="M121.206 163.685L140.932 211.59" stroke="#FF8E3A"/>
<path d="M162.052 238.363L140.386 211.095" stroke="#FF8E3A"/>
<path d="M140.553 211.507L100.928 230.367" stroke="#FF8E3A"/>
<path d="M176.74 170.213L140.548 211.545" stroke="#FF8E3A"/>
</g>
<mask id="mask2_746_18516" style="mask-type:luminance" maskUnits="userSpaceOnUse" x="0" y="0" width="279" height="279">
<path d="M37.6025 0L278.688 37.6024L241.085 278.688L0.000175476 241.085L37.6025 0Z" fill="white"/>
</mask>
<g mask="url(#mask2_746_18516)">
<path d="M143.736 118.111C144.984 118.306 145.838 119.476 145.643 120.724C145.449 121.972 144.279 122.826 143.031 122.632C141.782 122.437 140.928 121.267 141.123 120.019C141.318 118.771 142.488 117.917 143.736 118.111Z" fill="#FF8E3A"/>
<path d="M121.663 161.676C122.911 161.87 123.765 163.04 123.57 164.288C123.375 165.537 122.206 166.391 120.957 166.196C119.709 166.001 118.855 164.832 119.05 163.583C119.245 162.335 120.414 161.481 121.663 161.676Z" fill="#FF8E3A"/>
<path d="M154.512 43.083C155.76 43.2777 156.614 44.4475 156.42 45.6957C156.225 46.9439 155.055 47.798 153.807 47.6033C152.559 47.4087 151.705 46.2389 151.899 44.9906C152.094 43.7424 153.264 42.8883 154.512 43.083Z" fill="#FF8E3A"/>
<path d="M141.385 209.23C142.633 209.425 143.488 210.595 143.293 211.843C143.098 213.091 141.928 213.945 140.68 213.751C139.432 213.556 138.578 212.386 138.772 211.138C138.967 209.89 140.137 209.036 141.385 209.23Z" fill="#FF8E3A"/>
<path d="M191.12 205.489C192.368 205.684 193.222 206.854 193.027 208.102C192.833 209.35 191.663 210.204 190.415 210.01C189.166 209.815 188.312 208.645 188.507 207.397C188.702 206.149 189.871 205.295 191.12 205.489Z" fill="#FF8E3A"/>
<path d="M133.089 176.622C134.337 176.817 135.192 177.987 134.997 179.235C134.802 180.483 133.632 181.337 132.384 181.142C131.136 180.948 130.282 179.778 130.477 178.53C130.671 177.281 131.841 176.427 133.089 176.622Z" fill="#FF8E3A"/>
<path d="M91.8969 193.56C93.1451 193.754 93.9992 194.924 93.8045 196.172C93.6099 197.42 92.4401 198.275 91.1918 198.08C89.9436 197.885 89.0895 196.715 89.2842 195.467C89.4789 194.219 90.6487 193.365 91.8969 193.56Z" fill="#FF8E3A"/>
<path d="M157.228 77.1426C158.476 77.3372 159.33 78.507 159.136 79.7553C158.941 81.0035 157.771 81.8576 156.523 81.6629C155.275 81.4682 154.421 80.2984 154.615 79.0502C154.81 77.802 155.98 76.9479 157.228 77.1426Z" fill="#FF8E3A"/>
<path d="M202.677 67.5547C203.925 67.7494 204.78 68.9191 204.585 70.1674C204.39 71.4156 203.22 72.2697 201.972 72.075C200.724 71.8803 199.87 70.7105 200.064 69.4623C200.259 68.2141 201.429 67.36 202.677 67.5547Z" fill="#FF8E3A"/>
<g opacity="0.465596">
<path d="M201.06 112.493C198.33 112.067 195.778 113.892 195.36 116.569C194.943 119.245 196.818 121.761 199.548 122.187C202.278 122.612 204.83 120.788 205.247 118.111C205.665 115.434 203.79 112.919 201.06 112.493Z" fill="#FF8E3A"/>
<path d="M201.06 112.493C198.33 112.067 195.778 113.892 195.36 116.569C194.943 119.245 196.818 121.761 199.548 122.187C202.278 122.612 204.83 120.788 205.247 118.111C205.665 115.434 203.79 112.919 201.06 112.493Z" stroke="#FF8E3A"/>
</g>
<path d="M106.292 58.3838C107.541 58.5785 108.395 59.7482 108.2 60.9965C108.005 62.2447 106.836 63.0988 105.587 62.9041C104.339 62.7094 103.485 61.5396 103.68 60.2914C103.874 59.0432 105.044 58.1891 106.292 58.3838Z" fill="#FF8E3A"/>
<path d="M200.693 115.055C201.941 115.249 202.795 116.419 202.6 117.667C202.406 118.916 201.236 119.77 199.988 119.575C198.74 119.38 197.885 118.211 198.08 116.962C198.275 115.714 199.445 114.86 200.693 115.055Z" fill="#FF8E3A"/>
<path d="M151.119 70.9297C152.367 71.1244 153.221 72.2941 153.026 73.5424C152.832 74.7906 151.662 75.6447 150.414 75.45C149.165 75.2553 148.311 74.0855 148.506 72.8373C148.701 71.5891 149.87 70.735 151.119 70.9297Z" fill="#FF8E3A"/>
<path d="M108.594 105.878C109.842 106.073 110.696 107.242 110.502 108.491C110.307 109.739 109.137 110.593 107.889 110.398C106.641 110.204 105.787 109.034 105.981 107.786C106.176 106.537 107.346 105.683 108.594 105.878Z" fill="#FF8E3A"/>
<path d="M154.927 124.173C156.175 124.368 157.03 125.537 156.835 126.786C156.64 128.034 155.47 128.888 154.222 128.693C152.974 128.498 152.12 127.329 152.314 126.08C152.509 124.832 153.679 123.978 154.927 124.173Z" fill="#FF8E3A"/>
<path d="M70.682 146.324C71.9303 146.519 72.7844 147.689 72.5897 148.937C72.395 150.185 71.2252 151.039 69.977 150.845C68.7288 150.65 67.8747 149.48 68.0694 148.232C68.264 146.984 69.4338 146.13 70.682 146.324Z" fill="#FF8E3A"/>
<path d="M177.125 167.809C178.374 168.003 179.228 169.173 179.033 170.421C178.838 171.669 177.669 172.524 176.42 172.329C175.172 172.134 174.318 170.964 174.513 169.716C174.707 168.468 175.877 167.614 177.125 167.809Z" fill="#FF8E3A"/>
<path d="M55.5932 187.273C56.8414 187.468 57.6955 188.638 57.5008 189.886C57.3061 191.134 56.1364 191.988 54.8881 191.794C53.6399 191.599 52.7858 190.429 52.9805 189.181C53.1752 187.933 54.345 187.079 55.5932 187.273Z" fill="#FF8E3A"/>
<path d="M68.9096 95.4277C70.1578 95.6224 71.0119 96.7922 70.8172 98.0404C70.6226 99.2886 69.4528 100.143 68.2045 99.9481C66.9563 99.7534 66.1022 98.5836 66.2969 97.3354C66.4916 96.0872 67.6614 95.233 68.9096 95.4277Z" fill="#FF8E3A"/>
<path d="M101.282 228.363C102.53 228.558 103.384 229.728 103.189 230.976C102.995 232.224 101.825 233.078 100.577 232.884C99.3284 232.689 98.4743 231.519 98.669 230.271C98.8636 229.023 100.033 228.169 101.282 228.363Z" fill="#FF8E3A"/>
</g>
<mask id="mask3_746_18516" style="mask-type:luminance" maskUnits="userSpaceOnUse" x="0" y="0" width="279" height="279">
<path d="M37.6025 0L278.688 37.6024L241.085 278.688L0.000175476 241.085L37.6025 0Z" fill="white"/>
</mask>
<g mask="url(#mask3_746_18516)">
<path d="M80.9218 61.8402L115.231 38.2179" stroke="#FF8E3A"/>
<path d="M62.5626 71.4067L80.9113 61.8431" stroke="#FF8E3A"/>
<path d="M81.0486 62.0147L137.576 53.8759" stroke="#FF8E3A"/>
<path d="M137.553 54.0262L115.231 38.2178" stroke="#FF8E3A"/>
<path d="M179.488 43.6844L115.485 38.566" stroke="#FF8E3A"/>
<path d="M115.41 36.0849C116.658 36.2796 117.512 37.4494 117.318 38.6976C117.123 39.9459 115.953 40.8 114.705 40.6053C113.457 40.4106 112.603 39.2408 112.797 37.9926C112.992 36.7444 114.162 35.8903 115.41 36.0849Z" fill="#FF8E3A"/>
<path d="M81.2265 59.8818C82.4747 60.0765 83.3288 61.2463 83.1341 62.4945C82.9394 63.7427 81.7697 64.5969 80.5214 64.4022C79.2732 64.2075 78.4191 63.0377 78.6138 61.7895C78.8085 60.5413 79.9783 59.6871 81.2265 59.8818Z" fill="#FF8E3A"/>
<g opacity="0.47475">
<path d="M91.5642 96.0391C88.6835 95.5898 85.9744 97.6219 85.5134 100.578C85.0524 103.533 87.014 106.294 89.8947 106.743C92.7754 107.193 95.4845 105.161 95.9456 102.205C96.4066 99.249 94.4449 96.4885 91.5642 96.0391Z" fill="#FF8E3A"/>
<path d="M91.5642 96.0391C88.6835 95.5898 85.9744 97.6219 85.5134 100.578C85.0524 103.533 87.014 106.294 89.8947 106.743C92.7754 107.193 95.4845 105.161 95.9456 102.205C96.4066 99.249 94.4449 96.4885 91.5642 96.0391Z" stroke="#FF8E3A"/>
</g>
<path d="M177.045 178.529L176.625 227.982" stroke="#FF8E3A"/>
<path d="M222.157 128.132L177.37 178.426" stroke="#FF8E3A"/>
<path d="M177.37 178.426L220.762 186.666" stroke="#FF8E3A"/>
<path d="M176.346 227.784L220.762 186.666" stroke="#FF8E3A"/>
<path d="M216.695 208.19L176.239 227.729" stroke="#FF8E3A"/>
<path d="M216.695 208.19L162.233 238.457" stroke="#FF8E3A"/>
<path d="M176.324 227.433L162.384 238.48" stroke="#FF8E3A"/>
<path d="M176.849 225.548C178.097 225.743 178.951 226.912 178.757 228.161C178.562 229.409 177.392 230.263 176.144 230.068C174.896 229.873 174.042 228.704 174.236 227.455C174.431 226.207 175.601 225.353 176.849 225.548Z" fill="#FF8E3A"/>
<path d="M162.491 236.066C163.739 236.261 164.593 237.431 164.398 238.679C164.204 239.927 163.034 240.781 161.786 240.587C160.537 240.392 159.683 239.222 159.878 237.974C160.073 236.726 161.242 235.872 162.491 236.066Z" fill="#FF8E3A"/>
<path d="M179.251 43.666L195.845 73.1506" stroke="#FF8E3A"/>
<path d="M195.53 72.793L228.284 86.7923" stroke="#FF8E3A"/>
<path d="M228.451 87.2046L179.536 43.3252" stroke="#FF8E3A"/>
<path d="M179.176 43.6542L137.154 53.6545" stroke="#FF8E3A"/>
<path d="M179.952 41.1514C181.2 41.346 182.054 42.5158 181.859 43.764C181.665 45.0123 180.495 45.8664 179.247 45.6717C177.998 45.477 177.144 44.3072 177.339 43.059C177.534 41.8108 178.703 40.9567 179.952 41.1514Z" fill="#FF8E3A"/>
<path d="M62.5957 71.1801L45.4347 110.094" stroke="#FF8E3A"/>
<path d="M45.3955 110.474L39.7569 166.064" stroke="#FF8E3A"/>
<g opacity="0.99">
<path d="M39.5088 165.794L54.2891 189.808" stroke="#FF8E3A"/>
</g>
<path d="M115.26 38.3035L62.6934 71.4265" stroke="#FF8E3A"/>
<path d="M39.624 166.043L39.8135 128.51" stroke="#FF8E3A"/>
<path d="M65.7247 166.009L39.3241 165.997" stroke="#FF8E3A"/>
<path d="M70.9051 215.637L39.4941 166.139" stroke="#FF8E3A"/>
<path d="M45.2977 110.227L39.8134 128.51" stroke="#FF8E3A"/>
<path d="M39.9926 126.378C41.2408 126.573 42.0949 127.742 41.9002 128.991C41.7056 130.239 40.5358 131.093 39.2876 130.898C38.0393 130.704 37.1852 129.534 37.3799 128.286C37.5746 127.037 38.7444 126.183 39.9926 126.378Z" fill="#FF8E3A"/>
<path d="M39.85 163.609C41.0982 163.804 41.9524 164.974 41.7577 166.222C41.563 167.47 40.3932 168.324 39.145 168.13C37.8968 167.935 37.0426 166.765 37.2373 165.517C37.432 164.269 38.6018 163.415 39.85 163.609Z" fill="#FF8E3A"/>
<g opacity="0.99">
<path d="M55.0092 187.297C56.2574 187.492 57.1115 188.661 56.9168 189.91C56.7222 191.158 55.5524 192.012 54.3042 191.817C53.0559 191.623 52.2018 190.453 52.3965 189.205C52.5912 187.956 53.761 187.102 55.0092 187.297Z" fill="#FF8E3A"/>
</g>
<path d="M63.2621 68.8916C64.5103 69.0863 65.3645 70.2561 65.1698 71.5043C64.9751 72.7525 63.8053 73.6066 62.5571 73.4119C61.3089 73.2172 60.4547 72.0475 60.6494 70.7992C60.8441 69.551 62.0139 68.6969 63.2621 68.8916Z" fill="#FF8E3A"/>
<path d="M195.657 73.4176L162.288 108.14" stroke="#FF8E3A"/>
<path d="M222.056 128.714L162.288 108.141" stroke="#FF8E3A"/>
<path d="M119.47 156.226L162.288 108.14" stroke="#FF8E3A"/>
<path d="M176.974 178.514L162.288 108.141" stroke="#FF8E3A"/>
<path d="M195.844 72.6846L221.918 128.702" stroke="#FF8E3A"/>
<path d="M195.844 72.6849L136.622 53.2676" stroke="#FF8E3A"/>
<path d="M138.129 54.0908L162.288 108.14" stroke="#FF8E3A"/>
<path d="M162.466 106.008C163.714 106.202 164.569 107.372 164.374 108.62C164.179 109.869 163.009 110.723 161.761 110.528C160.513 110.333 159.659 109.164 159.854 107.915C160.048 106.667 161.218 105.813 162.466 106.008Z" fill="#FF8E3A"/>
<path d="M195.661 70.4902C196.909 70.6849 197.763 71.8547 197.568 73.1029C197.374 74.3511 196.204 75.2053 194.956 75.0106C193.707 74.8159 192.853 73.6461 193.048 72.3979C193.243 71.1497 194.412 70.2955 195.661 70.4902Z" fill="#FF8E3A"/>
<g opacity="0.70612">
<path d="M71.4344 210.773C68.7611 210.356 66.2557 212.185 65.8387 214.858C65.4218 217.532 67.2511 220.037 69.9244 220.454C72.5978 220.871 75.1031 219.042 75.5201 216.368C75.937 213.695 74.1078 211.19 71.4344 210.773Z" fill="#FF8E3A"/>
<path d="M71.4344 210.773C68.7611 210.356 66.2557 212.185 65.8387 214.858C65.4218 217.532 67.2511 220.037 69.9244 220.454C72.5978 220.871 75.1031 219.042 75.5201 216.368C75.937 213.695 74.1078 211.19 71.4344 210.773Z" stroke="#FF8E3A"/>
</g>
<path d="M80.8418 62.2715L90.8216 101.12" stroke="#FF8E3A"/>
<path d="M46.2821 109.329L90.8218 101.12" stroke="#FF8E3A"/>
<path d="M65.9292 165.771L46.0771 109.887" stroke="#FF8E3A"/>
<path d="M46.2288 109.91L80.886 62.2137" stroke="#FF8E3A"/>
<path d="M66.5937 166.145L90.821 101.12" stroke="#FF8E3A"/>
<path d="M119.472 156.245L90.8223 101.121" stroke="#FF8E3A"/>
<path d="M161.82 108.228L90.8232 101.111" stroke="#FF8E3A"/>
<path d="M137.83 53.1623L90.8224 101.121" stroke="#FF8E3A"/>
<path d="M91.0004 98.9883C92.2486 99.183 93.1027 100.353 92.9081 101.601C92.7134 102.849 91.5436 103.703 90.2954 103.509C89.0471 103.314 88.193 102.144 88.3877 100.896C88.5824 99.6477 89.7522 98.7936 91.0004 98.9883Z" fill="#FF8E3A"/>
<path d="M45.6557 107.321C46.9039 107.516 47.758 108.686 47.5633 109.934C47.3686 111.182 46.1989 112.036 44.9506 111.842C43.7024 111.647 42.8483 110.477 43.043 109.229C43.2377 107.981 44.4075 107.127 45.6557 107.321Z" fill="#FF8E3A"/>
<path d="M137.777 51.5273C139.025 51.722 139.879 52.8918 139.684 54.14C139.49 55.3882 138.32 56.2424 137.072 56.0477C135.824 55.853 134.969 54.6832 135.164 53.435C135.359 52.1868 136.529 51.3326 137.777 51.5273Z" fill="#FF8E3A"/>
<path d="M66.7309 163.884C67.9791 164.078 68.8332 165.248 68.6385 166.496C68.4438 167.745 67.274 168.599 66.0258 168.404C64.7776 168.209 63.9235 167.04 64.1182 165.791C64.3129 164.543 65.4827 163.689 66.7309 163.884Z" fill="#FF8E3A"/>
<path d="M66.1753 165.93L70.5389 216.902" stroke="#FF8E3A"/>
<path d="M120.119 156.402L178.049 178.37" stroke="#FF8E3A"/>
<path d="M70.4019 215.556L123.101 240.898" stroke="#FF8E3A"/>
<path d="M123.349 240.414L118.394 212.93" stroke="#FF8E3A"/>
<path d="M70.7906 214.361L118.342 212.767" stroke="#FF8E3A"/>
<path d="M66.0269 165.896L118.342 212.767" stroke="#FF8E3A"/>
<path d="M66.2507 165.896L118.045 156.441" stroke="#FF8E3A"/>
<path d="M177.134 228.503L118.366 212.616" stroke="#FF8E3A"/>
<path d="M162.323 238.345L123.354 240.877" stroke="#FF8E3A"/>
<path d="M178.045 178.527L118.365 212.617" stroke="#FF8E3A"/>
<path d="M119.954 156.533L118.191 212.743" stroke="#FF8E3A"/>
<path d="M118.232 209.509C119.481 209.703 120.335 210.873 120.14 212.121C119.945 213.37 118.776 214.224 117.527 214.029C116.279 213.834 115.425 212.665 115.62 211.416C115.814 210.168 116.984 209.314 118.232 209.509Z" fill="#FF8E3A"/>
<path d="M123.277 238.395C124.525 238.59 125.38 239.76 125.185 241.008C124.99 242.256 123.82 243.111 122.572 242.916C121.324 242.721 120.47 241.551 120.665 240.303C120.859 239.055 122.029 238.201 123.277 238.395Z" fill="#FF8E3A"/>
<path d="M70.8251 213.148C72.0733 213.343 72.9275 214.513 72.7328 215.761C72.5381 217.009 71.3683 217.863 70.1201 217.669C68.8719 217.474 68.0177 216.304 68.2124 215.056C68.4071 213.808 69.5769 212.954 70.8251 213.148Z" fill="#FF8E3A"/>
<path d="M119.529 154.306C120.777 154.5 121.632 155.67 121.437 156.918C121.242 158.167 120.072 159.021 118.824 158.826C117.576 158.631 116.722 157.462 116.917 156.213C117.111 154.965 118.281 154.111 119.529 154.306Z" fill="#FF8E3A"/>
<path d="M177.297 176.403C178.545 176.598 179.399 177.768 179.204 179.016C179.01 180.264 177.84 181.118 176.592 180.924C175.344 180.729 174.489 179.559 174.684 178.311C174.879 177.063 176.049 176.209 177.297 176.403Z" fill="#FF8E3A"/>
<path d="M176.757 228.056L123.245 240.811" stroke="#FF8E3A"/>
</g>
</g>
</svg>
