<svg width="171" height="282" viewBox="0 0 171 282" fill="none" xmlns="http://www.w3.org/2000/svg">
<path d="M191.119 19.753L0 49.2715L35.8811 281.586L227 252.067L191.119 19.753Z" fill="#FF8C00"/>
<path d="M48.1721 264.811L210.229 239.777L178.824 36.5273L16.7676 61.5698L48.1721 264.819V264.811Z" fill="#FDF5F1"/>
<path d="M110.484 21.0455L105.594 21.7984C106.186 19.5565 106.347 17.1707 105.974 14.7341C104.511 5.24168 95.6275 -1.26427 86.1351 0.207819C76.6427 1.67145 70.1367 10.5547 71.6088 20.0472C71.981 22.4837 72.8609 24.7088 74.1046 26.6716L69.9167 27.323C56.2026 29.4465 46.7948 42.2808 48.9183 55.9949L49.4006 59.0998L139.646 45.1573L139.164 42.0523C137.049 28.3382 124.206 18.9304 110.492 21.0539L110.484 21.0455ZM76.4819 19.2857C75.4328 12.4921 80.086 6.13001 86.8881 5.08094C93.6817 4.03187 100.044 8.68502 101.093 15.4871C101.482 18.0252 101.076 20.4956 100.069 22.6529L79.6291 25.8086C78.0132 24.0573 76.8795 21.8238 76.4904 19.2857H76.4819Z" fill="#96CAE0"/>
<path d="M55.9814 50.8679L131.016 40.0303" stroke="#162633" stroke-width="2" stroke-linecap="round" stroke-linejoin="round"/>
</svg>
