<svg width="572" height="359" viewBox="0 0 572 359" fill="none" xmlns="http://www.w3.org/2000/svg">
<path d="M251.87 0.501217C159.265 -5.3095 126.418 40.3648 79.3518 87.6075C32.2869 134.847 10.5307 184.715 37.8807 255.7C65.2316 326.685 129.806 344.734 231.158 344.734C332.513 344.734 436.889 354.623 489.748 316.013C542.607 277.404 560.615 189.171 484.027 143.004C438.918 115.811 379.885 8.53348 251.87 0.501217Z" fill="#FFF3DB"/>
<path d="M84.5781 299.106C78.5999 292.235 71.3498 284.984 62.5715 281.881C59.7246 280.875 56.1387 280.329 53.7381 282.574C50.6918 285.424 52.0431 290.354 53.4736 293.612C57.5556 302.912 65.6671 309.334 73.4848 315.368C79.7752 320.222 86.1384 325.251 90.1589 332.247C90.4287 332.718 91.2056 332.369 90.9313 331.893C85.8673 323.08 77.313 317.393 69.5311 311.208C65.3614 307.894 61.3942 304.313 58.2541 299.985C55.2771 295.883 51.1314 289.67 53.4407 284.446C55.4371 279.932 61.7786 282.306 64.9827 283.785C69.072 285.673 72.518 288.534 75.8632 291.501C85.1306 299.727 92.7471 309.893 97.9927 321.118C99.2835 323.879 100.382 326.726 101.343 329.618C101.514 330.137 102.287 329.781 102.115 329.265C98.413 318.112 92.2743 307.952 84.5781 299.106Z" fill="#FFAE00"/>
<path d="M94.6572 322.91C94.0294 322.1 93.3942 321.292 92.755 320.487C92.7666 320.414 92.7663 320.337 92.7322 320.254C91.2244 316.56 89.6108 312.855 87.6557 309.373C86.1994 306.777 84.5832 303.906 82.4124 301.836C82.0221 301.462 81.3582 301.998 81.7553 302.376C84.0179 304.535 85.6453 307.523 87.159 310.219C88.616 312.814 89.8542 315.564 91.0127 318.323C89.2389 316.14 87.425 313.986 85.5589 311.904C79.468 305.11 72.8855 298.653 65.337 293.482C64.8854 293.171 64.3866 293.86 64.8392 294.171C71.851 298.975 77.9734 304.892 83.7059 311.137C78.6705 308.581 73.2566 306.862 68.1294 304.501C67.6296 304.27 67.3273 305.066 67.8215 305.294C73.4718 307.896 79.4932 309.685 84.9325 312.737C85.0207 312.786 85.1083 312.795 85.1922 312.787C87.9005 315.833 90.467 319.03 93.0178 322.205C96.1467 326.101 98.2673 330.417 100.77 334.705C101.044 335.174 101.822 334.826 101.545 334.351C99.2854 330.479 97.4173 326.469 94.6572 322.91Z" fill="#FFAE00"/>
<path d="M112.23 290.634C112.657 278.859 111.923 266.973 108.238 255.709C106.886 251.58 105.288 246.595 101.725 243.826C98.0417 240.964 93.6559 243.705 91.4148 246.93C88.4344 251.222 88.3256 257.121 88.6459 262.116C89.0166 267.887 90.1259 273.617 91.4543 279.233C95.405 295.934 102.059 312.1 102.621 329.448C102.639 329.993 103.489 330.038 103.471 329.489C103.072 317.156 99.6452 305.297 96.2283 293.525C92.8508 281.891 89.0133 269.603 89.4035 257.354C89.5724 252.065 92.4996 241.436 99.9354 243.818C102.449 244.623 103.919 247.464 104.966 249.672C106.344 252.581 107.387 255.656 108.288 258.742C111.688 270.386 111.808 282.681 111.201 294.699C110.744 303.739 110.428 312.799 109.993 321.854C109.991 321.898 110.559 321.876 110.843 321.89C110.491 311.464 111.851 301.044 112.23 290.634Z" fill="#FFAE00"/>
<path d="M105.543 301.206C105.635 301.142 105.705 301.044 105.725 300.907C106.467 295.727 107.547 290.612 108.649 285.5C108.765 284.968 107.957 284.7 107.842 285.235C106.865 289.76 105.922 294.291 105.193 298.862C104.945 297.193 104.691 295.524 104.444 293.855C104.274 292.705 104.103 291.553 103.932 290.402C103.947 290.345 103.95 290.284 103.938 290.216C103.902 290.003 103.856 289.798 103.813 289.593C103.009 284.211 102.183 278.829 101.251 273.471C101.108 272.652 100.951 271.835 100.785 271.016C100.861 270.953 100.923 270.869 100.944 270.75C101.622 266.993 101.653 263 102.995 259.394C103.188 258.879 102.378 258.617 102.188 259.129C101.02 262.264 100.821 265.688 100.361 269.002C99.175 263.527 97.7741 258.055 97.7084 252.456C97.7031 251.911 96.8529 251.867 96.8589 252.416C96.9344 258.839 98.8127 265.007 99.9906 271.277C100.879 276.011 101.624 280.779 102.342 285.549C102.001 284.882 101.624 284.218 101.203 283.529C99.2553 280.342 97.4536 277.044 95.4419 273.899C95.1497 273.441 94.392 273.829 94.6882 274.292C96.4274 277.013 97.816 279.923 99.6122 282.607C101.15 284.905 102.402 287.121 102.981 289.796C103.109 290.657 103.237 291.519 103.367 292.379C104.397 299.232 105.286 306.11 106.418 312.947C107.587 320.002 108.449 327.14 108.141 334.303C108.117 334.85 108.967 334.891 108.991 334.344C109.267 327.899 108.586 321.486 107.624 315.124C106.922 310.485 106.234 305.845 105.543 301.206Z" fill="#FFAE00"/>
<path d="M142.474 278.993C142.808 276.181 142.78 273.333 142.507 270.518C142.261 267.99 141.808 266.026 139.845 264.311C138.465 263.104 136.512 262.715 134.74 262.648C132.481 262.564 131.625 263.032 130.145 264.644C129.58 265.261 128.35 266.115 128.008 266.818C127.352 268.158 126.712 269.503 126.085 270.856C124.76 273.717 123.532 276.625 122.371 279.557C120.245 284.928 118.449 290.425 116.89 295.985C114.492 304.539 112.788 313.275 111.397 322.044L112.237 322.18C113.051 311.779 116.94 297.265 121.141 285.283C123.145 279.567 125.511 273.983 128.125 268.521C129.061 266.565 131.486 263.729 133.681 263.522C136.943 263.217 140.677 264.715 141.335 268.29C143.796 281.644 137.789 294.622 131.638 306.085C129.042 310.924 126.454 315.76 123.386 320.313C120.882 324.029 118.408 327.767 115.971 331.527C115.257 332.629 114.549 333.734 113.858 334.851C113.569 335.317 114.346 335.664 114.631 335.204C119.052 328.059 124.202 321.341 128.26 313.988C134.341 302.971 140.962 291.718 142.474 278.993Z" fill="#FFAE00"/>
<path d="M124.774 299.668C125.886 296.635 126.785 293.562 127.617 290.464C127.671 290.437 127.722 290.397 127.766 290.333C131.112 285.419 135.437 281.147 138.428 275.991C138.704 275.515 137.926 275.168 137.654 275.637C135.016 280.186 131.313 284.04 128.197 288.27C128.503 287.096 128.804 285.919 129.109 284.74C130.503 279.34 132.398 274.044 136.175 269.828C136.542 269.418 135.883 268.88 135.518 269.288C128.559 277.055 127.827 288.282 124.552 297.767C124.28 298.556 123.983 299.332 123.676 300.104C123.685 297.107 122.894 294.154 123.132 291.14C123.175 290.598 122.336 290.457 122.293 291.004C122.008 294.597 123.201 298.11 122.738 301.7C122.718 301.857 122.777 301.975 122.867 302.057C121.203 305.925 119.29 309.679 117.878 313.655C115.843 319.388 113.708 325.07 111.36 330.682C111.147 331.188 111.921 331.541 112.132 331.035C114.38 325.668 116.474 320.242 118.406 314.752C120.222 309.588 122.89 304.802 124.774 299.668Z" fill="#FFAE00"/>
<path d="M419.986 351.123C418.051 350.977 416.459 349.144 415.151 347.887C413.906 346.692 412.552 345.688 411.19 344.629C407.932 342.098 404.726 339.544 400.649 338.533C393.444 336.747 385.485 338.248 378.745 341.217C384.118 332.675 392.184 323.923 403.313 325.843C408.092 326.668 412.012 330.301 415.172 333.729C418.279 337.098 420.908 340.868 423.905 344.328C424.263 344.743 424.922 344.204 424.563 343.788C418.566 336.865 413.089 327.045 403.406 324.996C398.253 323.908 392.563 325.917 388.359 328.814C383.613 332.082 380.228 337.08 377.303 341.94C377.094 342.286 377.414 342.771 377.824 342.576C385.237 339.026 394.933 336.975 402.842 340.114C406.619 341.612 409.879 344.667 413.064 347.122C415.169 348.745 417.006 351.75 419.894 351.97C420.441 352.011 420.533 351.165 419.986 351.123Z" fill="#FFAE00"/>
<path d="M425.082 349.316C424.393 349.502 421.53 346.208 421.118 345.812C419.405 344.177 417.731 342.499 415.996 340.888C411.091 336.337 404.448 334.13 398.233 332.021C397.715 331.845 397.407 332.638 397.926 332.814C404.679 335.106 411.312 337.566 416.543 342.569C418.401 344.346 420.225 346.155 422.105 347.907C422.657 348.422 424.279 350.41 425.217 350.156C425.742 350.014 425.611 349.173 425.082 349.316Z" fill="#FFAE00"/>
<path d="M423.976 332.901C420.119 329.098 415.263 326.705 411.81 322.457C408.422 318.289 405.508 313.561 402.647 309.024C400.963 306.352 399.572 303.636 398.904 300.534C398.298 297.725 398.239 294.791 398.292 291.923C400.095 292.743 401.54 294.062 403.095 295.291C404.809 296.648 406.798 297.647 408.619 298.85C412.872 301.66 416.745 305.434 419.936 309.385C422.898 313.052 425.065 317.44 427.155 321.641C428.954 325.258 430.476 329.409 433.016 332.587L433.041 332.579C433.295 332.458 433.548 332.336 433.802 332.215C431.078 328.851 429.454 324.366 427.53 320.499C425.312 316.038 422.901 311.6 419.697 307.762C416.802 304.296 413.31 301.088 409.602 298.506C407.481 297.029 405.166 295.848 403.136 294.242C401.508 292.954 400.05 291.644 398.077 290.91C397.768 290.795 397.464 290.96 397.456 291.307C397.325 296.798 397.792 302.006 400.415 306.906C403.113 311.94 406.584 316.74 409.919 321.371C411.338 323.343 412.93 325.162 414.758 326.763C416.76 328.519 419.105 329.863 421.175 331.544C425.198 334.813 428.161 338.922 430.371 343.583C430.603 344.071 431.415 343.813 431.18 343.319C429.338 339.434 427.045 335.927 423.976 332.901Z" fill="#FFAE00"/>
<path d="M433.524 338.065C431.946 334.146 429.434 330.449 427.121 326.931C422.509 319.917 415.505 314.843 411.495 307.375C411.236 306.892 410.525 307.358 410.783 307.837C414.569 314.889 420.928 319.925 425.635 326.293C427.973 329.456 430.048 333.02 431.865 336.504C434.099 340.791 433.673 345.336 433.864 350.02C433.886 350.568 434.736 350.527 434.714 349.979C434.553 346.02 435.03 341.803 433.524 338.065Z" fill="#FFAE00"/>
<path d="M445.515 310.845C444.799 305.398 443.953 299.869 442.302 294.616C441.586 292.338 440.922 290.108 440.533 287.747C440.174 285.564 440.081 283.432 439.15 281.389C439.015 281.093 438.585 281.097 438.417 281.354C434.226 287.765 433.256 296.317 432.439 303.775C431.394 313.303 432.234 323.193 434.961 332.382C435.226 332.286 435.49 332.188 435.754 332.092L435.761 332.091C433.202 323.415 432.444 314.303 433.149 305.299C433.47 301.199 434.167 297.059 434.988 293.033C435.731 289.396 436.785 285.735 438.699 282.532C439.322 284.269 439.451 286.101 439.703 287.934C440.027 290.292 440.742 292.546 441.472 294.803C443.079 299.775 443.867 305.052 444.575 310.215C445.329 315.709 445.321 320.83 444.224 326.278C443.227 331.236 441.613 336.054 440.332 340.943L440.353 340.949C440.606 341.069 440.86 341.191 441.114 341.312C442.462 336.141 444.125 331.054 445.181 325.809C446.193 320.781 446.18 315.907 445.515 310.845Z" fill="#FFAE00"/>
<path d="M439.661 305.3C439.677 304.752 438.827 304.71 438.811 305.259C438.701 309.006 439.545 312.651 439.806 316.372C440.117 320.832 439.47 325.407 438.608 329.77C437.101 337.387 437.165 345.186 434.951 352.663C434.771 352.688 434.607 352.807 434.595 353.042L434.549 354C434.526 354.483 435.225 354.609 435.378 354.153C437.904 346.566 438.106 338.514 439.314 330.668C439.969 326.42 440.703 322.293 440.702 317.972C440.702 313.714 439.536 309.566 439.661 305.3Z" fill="#FFAE00"/>
<path d="M465.983 311.264C460.64 312.521 456.524 315.627 453.319 320.072C451.101 323.148 449.669 326.668 447.914 330.006C445.781 334.062 443.222 337.882 440.558 341.604C440.796 341.753 441.034 341.903 441.273 342.051L441.278 342.055C443.222 339.336 445.082 336.563 446.804 333.697C448.702 330.54 450.163 327.178 451.912 323.943C454.66 318.863 458.656 314.486 464.232 312.633C470.722 310.477 484.697 309.547 485.44 318.932C477.026 314.345 468.66 321.602 463.038 327.596C459.122 331.772 455.137 335.656 450.825 339.436C449.113 340.937 447.484 342.863 445.573 344.097C443.868 345.198 440.641 346.786 438.562 346.247C438.03 346.109 437.899 346.951 438.426 347.087C441.183 347.801 445.521 345.588 447.426 343.687C451.318 339.809 455.73 336.489 459.623 332.607C466.036 326.213 475.211 313.475 485.627 320.012C485.954 320.218 486.32 320.032 486.321 319.638C486.325 309.482 473.018 309.609 465.983 311.264Z" fill="#FFAE00"/>
<path d="M450.818 333.707C455.884 327.086 461.976 319.833 469.799 316.488C470.303 316.273 469.999 315.479 469.494 315.695C462.416 318.722 456.618 324.992 451.902 330.918C447.365 336.621 443.017 343.85 435.501 345.812C434.971 345.95 435.282 346.743 435.808 346.606C442.496 344.861 446.83 338.922 450.818 333.707Z" fill="#FFAE00"/>
<path d="M285.244 175.653C285.593 180.165 282.219 184.107 277.706 184.455C273.194 184.804 269.252 181.427 268.903 176.915L268.465 171.246C268.117 166.734 271.493 162.793 276.005 162.445C280.518 162.096 284.457 165.472 284.806 169.983L285.244 175.653Z" fill="#8E6E29"/>
<path d="M277.485 148.063C270.925 153.344 267.385 161.561 271.502 169.143C275.62 176.729 276.883 180.112 273.952 186.52C269.831 195.535 268.436 203.761 272.606 210.821C294.099 206.142 303.47 202.961 303.47 202.961C303.47 202.961 290.63 146.125 277.485 148.063Z" fill="#191919"/>
<path d="M370.38 263.846C368.121 252.807 358.34 222.957 334.511 212.171C310.678 201.384 288.351 210.164 280.075 215.18C271.797 220.196 262.266 239.764 258.002 258.075C253.736 276.388 239.187 276.138 227.899 280.15L233.168 299.215L349.56 299.966L349.811 296.956C380.164 295.201 372.639 274.881 370.38 263.846ZM251.355 293.07C255.995 293.07 276.689 277.517 280.954 278.018C283.085 289.432 283.339 295.452 283.589 296.205C283.84 296.956 252.609 302.475 251.355 293.07Z" fill="#8E6E29"/>
<path d="M292.7 220.452C291.196 227.641 285.008 271.625 295.545 300.556C303.738 301.224 315.946 300.556 315.946 300.556C313.605 285.337 308.922 243.193 318.621 219.113C308.922 219.279 292.7 220.452 292.7 220.452Z" fill="#FFF3DB"/>
<path d="M298.05 207.405C289.773 207.909 287.849 216.856 291.613 222.374C295.375 227.892 302.481 223.375 303.736 220.618C312.684 229.062 324.306 221.454 326.813 208.911C326.813 207.909 312.6 205.149 298.05 207.405Z" fill="#FFF3DB"/>
<path d="M313.626 185.945C313.626 185.945 319.014 202.184 319.525 209.045C319.988 215.336 299.173 219.534 297.696 212.939C296.157 205.093 293.869 191.753 293.869 191.753" fill="#FDEBC3"/>
<path d="M315.354 192.726L313.623 185.945L293.866 191.753C293.866 191.753 294.571 195.851 295.473 200.988C296.941 201.267 298.455 201.403 300.015 201.331C306.447 201.047 312 197.675 315.354 192.726Z" fill="#FEC341"/>
<path d="M287.183 275.134C277.653 275.969 273.974 278.813 265.444 283.329C256.916 287.844 255.076 288.848 257.083 289.684C252.066 290.019 254.991 292.693 258.504 291.522C256.164 292.525 259.424 293.614 264.106 291.857C265.277 293.696 271.298 292.863 275.144 290.687C278.99 288.512 288.189 286.672 296.549 289.516C297.554 284.332 294.376 275.302 294.376 275.302L287.183 275.134Z" fill="#FDEBC3"/>
<path d="M293.246 275.259C298.388 274.131 312.771 272.958 321.299 273.462C321.801 280.15 318.123 293.696 318.123 293.696L295.377 288.678C295.377 288.678 296.51 281.53 293.246 275.259Z" fill="#8E6E29"/>
<path d="M292.813 275.379C302.968 273.911 313.238 273.94 323.473 273.651C328.403 273.512 333.131 272.939 338.016 272.381C342.66 271.85 348.16 272.857 352.624 274.208C353.15 274.367 353.373 273.547 352.85 273.388C348.729 272.141 343.903 271.321 339.587 271.414C337.448 271.46 335.305 271.898 333.196 272.213C330.26 272.651 327.27 272.679 324.309 272.774C313.715 273.118 303.103 273.039 292.587 274.558C292.046 274.636 292.276 275.456 292.813 275.379Z" fill="#191919"/>
<path d="M338.112 249.325C339.08 256.388 339.583 263.49 339.603 270.619C339.605 271.168 340.455 271.168 340.454 270.619C340.434 263.412 339.91 256.238 338.933 249.098C338.858 248.557 338.039 248.789 338.112 249.325Z" fill="#191919"/>
<path d="M294.709 289.104C297.783 289.068 300.632 290.431 303.55 291.222C307.016 292.163 310.409 293.34 313.872 294.291C320.875 296.209 328.154 297.429 335.403 297.847C346.935 298.514 360.889 297.949 369.596 289.315C369.986 288.929 369.385 288.328 368.995 288.714C359.894 297.738 344.935 297.749 332.991 296.836C325.847 296.289 318.685 294.832 311.814 292.824C308.728 291.921 305.648 290.976 302.567 290.056C299.972 289.281 297.46 288.221 294.709 288.254C294.16 288.26 294.159 289.111 294.709 289.104Z" fill="#191919"/>
<path d="M277.742 240.573C276.982 242.855 277.209 245.309 277.242 247.68C277.288 250.941 277.528 254.198 277.698 257.454C277.865 260.669 277.962 263.887 278.221 267.098C278.459 270.061 279.58 272.87 279.734 275.805C279.763 276.35 280.613 276.353 280.584 275.805C280.443 273.121 279.414 270.581 279.144 267.898C278.847 264.961 278.754 262.003 278.624 259.055C278.492 256.083 278.289 253.114 278.165 250.142C278.041 247.167 277.609 243.66 278.562 240.8C278.735 240.277 277.915 240.056 277.742 240.573Z" fill="#191919"/>
<path d="M290.618 211.472C289.284 216.18 288.344 222.189 293.623 224.835C295.527 225.79 297.695 225.317 299.532 224.485C300.823 223.9 301.946 222.912 303.013 221.998C304.091 221.074 304.565 222.476 305.519 223.157C313.276 228.705 323.487 221.023 326.056 213.37C326.23 212.849 325.409 212.627 325.235 213.145C322.495 221.311 310.781 228.811 304.038 220.483C303.887 220.296 303.595 220.341 303.436 220.483C300.64 222.997 297.003 225.974 293.189 223.618C289.031 221.051 290.362 215.493 291.439 211.698C291.589 211.169 290.768 210.946 290.618 211.472Z" fill="#191919"/>
<path d="M300.233 227.712C300.519 229.222 302.656 229.17 303.346 228.003C303.73 227.355 303.313 226.591 302.721 226.255C301.996 225.842 300.9 225.913 300.403 226.631C300.091 227.085 300.829 227.509 301.137 227.06C301.512 226.519 303.077 227.085 302.526 227.693C302.109 228.155 301.187 228.19 301.054 227.486C300.952 226.949 300.132 227.176 300.233 227.712Z" fill="#191919"/>
<path d="M299.106 234.006C298.889 235.51 300.634 235.934 301.645 235.096C302.162 234.669 302.431 233.847 301.996 233.265C301.543 232.66 300.665 232.758 300.03 232.959C299.51 233.123 299.732 233.945 300.257 233.779C300.574 233.678 300.988 233.56 301.296 233.742C301.559 233.898 301.207 234.372 301.066 234.476C300.755 234.702 299.834 234.871 299.927 234.232C300.005 233.695 299.185 233.464 299.106 234.006Z" fill="#191919"/>
<path d="M298.59 242.146C298.665 243.852 301.182 243.172 301.434 241.883C301.741 240.31 298.998 239.448 298.73 241.156C298.646 241.692 299.466 241.922 299.551 241.382C299.653 240.724 300.592 241.174 300.604 241.685C300.613 242.087 299.462 242.633 299.441 242.146C299.417 241.599 298.567 241.598 298.59 242.146Z" fill="#191919"/>
<path d="M282.033 288.679C281.906 289.933 282.083 291.383 282.549 292.556C282.75 293.059 283.574 292.84 283.371 292.33C282.926 291.212 282.762 289.875 282.883 288.679C282.939 288.133 282.087 288.139 282.033 288.679Z" fill="#191919"/>
<path d="M292.655 275.501C294.241 276.617 294.368 278.829 294.816 280.551C295.411 282.829 295.852 285.655 294.844 287.881C294.619 288.376 295.352 288.809 295.578 288.31C296.716 285.799 296.242 282.923 295.637 280.324C295.168 278.31 294.89 276.037 293.084 274.768C292.635 274.451 292.21 275.189 292.655 275.501Z" fill="#191919"/>
<path d="M318.934 160.698C317.915 152.405 308.143 137.186 287.955 139.648C273.619 141.872 272.923 155.668 272.923 155.668C272.54 157.24 270.207 160.684 270.207 160.684C268.963 154.341 271.7 137.066 289.876 135.204C310.344 133.108 321.378 148.401 322.646 159.897C321.227 162.712 318.934 160.698 318.934 160.698Z" fill="#8E6E29"/>
<path d="M277.746 179.918C279.06 190.663 288.836 198.304 299.575 196.99C310.317 195.677 317.962 185.904 316.647 175.158L314.13 154.589C312.816 143.846 303.039 136.201 292.299 137.517C281.556 138.832 273.914 148.605 275.229 159.349L277.746 179.918Z" fill="#FDEBC3"/>
<path d="M301.879 156.554C299.311 155.42 296.024 155.056 293.549 156.585C292.624 157.157 293.587 158.543 294.511 157.972C296.44 156.781 299.162 157.198 301.141 158.072C302.137 158.512 302.874 156.993 301.879 156.554Z" fill="#FF9700"/>
<path d="M278.53 161.099C279.61 159.906 281.246 159.374 282.824 159.573C283.9 159.708 284.226 158.051 283.147 157.916C280.956 157.64 278.747 158.343 277.247 160.001C276.516 160.81 277.8 161.905 278.53 161.099Z" fill="#FF9700"/>
<path d="M291.335 175.254C291.185 175.266 291.031 175.225 290.902 175.128L286.838 172.07C286.673 171.945 286.577 171.749 286.583 171.542C286.589 171.336 286.694 171.145 286.865 171.03L290.533 168.575C290.828 168.38 291.223 168.459 291.418 168.751C291.614 169.044 291.536 169.441 291.243 169.636L288.321 171.59L291.669 174.108C291.951 174.32 292.007 174.72 291.794 175.002C291.681 175.154 291.511 175.241 291.335 175.254Z" fill="#FF9700"/>
<path d="M293.162 180.541C292.137 180.62 291.108 180.428 290.28 179.951C289.975 179.775 289.87 179.386 290.046 179.081C290.22 178.776 290.61 178.671 290.916 178.845C292.053 179.501 293.872 179.396 295.057 178.61C295.771 178.136 296.578 177.212 296.366 175.498C296.322 175.149 296.571 174.83 296.921 174.788C297.264 174.741 297.588 174.992 297.632 175.343C297.86 177.184 297.195 178.722 295.762 179.673C295.001 180.178 294.084 180.47 293.162 180.541Z" fill="#FF9700"/>
<path d="M295.026 167.386C295.528 167.847 296.918 167.992 298.129 167.709C299.339 167.427 299.919 166.824 299.414 166.363C298.912 165.901 297.524 165.756 296.311 166.039C295.099 166.321 294.525 166.924 295.026 167.386Z" fill="#34312C"/>
<path d="M280.894 169.333C281.396 169.793 282.786 169.94 283.998 169.657C285.209 169.375 285.788 168.771 285.285 168.309C284.782 167.848 283.394 167.704 282.183 167.987C280.97 168.269 280.392 168.871 280.894 169.333Z" fill="#34312C"/>
<path d="M335.372 175.591C331.593 168.86 335.258 164.216 333.019 157.698C331.058 151.996 324.147 152.711 319.938 144.745C313.489 132.531 284.451 123.33 275.933 149.785C286.994 140.969 299.275 144.159 304.269 149.658C314.338 160.749 305.327 166.475 309.403 173.218C312.374 178.132 314.329 181.444 311.598 189.438C308.867 197.432 314.096 204.431 314.096 204.431C324.901 202.382 337.137 200.358 348.183 197.598C346.724 178.715 339.149 182.322 335.372 175.591Z" fill="#191919"/>
<path d="M270.914 181.677C270.346 191.67 284.958 190.574 291.242 189.786C291.785 189.718 291.722 188.87 291.177 188.938C285.63 189.633 271.227 191.015 271.749 181.84C271.779 181.299 270.944 181.132 270.914 181.677Z" fill="white"/>
<path d="M296.118 188.857C296.226 190.26 294.914 191.507 293.187 191.641C291.461 191.774 289.975 190.743 289.866 189.34C289.758 187.936 291.068 186.688 292.794 186.555C294.521 186.421 296.009 187.453 296.118 188.857Z" fill="#8E6E29"/>
<path d="M289.879 135.205C279.51 136.269 274.17 142.343 271.723 148.545C272.722 148.578 273.816 148.786 274.74 149.138C276.604 145.242 280.371 140.826 287.956 139.648C308.145 137.187 317.917 152.406 318.936 160.7C318.936 160.7 321.229 162.713 322.649 159.899C321.38 148.402 310.347 133.109 289.879 135.205Z" fill="#8E6E29"/>
<path d="M330.221 172.176C330.57 176.688 327.195 180.63 322.683 180.979C318.169 181.327 314.229 177.951 313.881 173.439L313.443 167.769C313.094 163.258 316.468 159.317 320.983 158.968C325.494 158.62 329.435 161.995 329.783 166.507L330.221 172.176Z" fill="#8E6E29"/>
<path d="M328.23 171.453C328.358 176.991 321.055 178.826 318.623 173.805C317.898 172.306 318.075 170.09 317.949 168.463C317.513 162.82 325.197 161.247 327.554 166.112C328.279 167.61 328.104 169.826 328.23 171.453C328.272 172 329.12 171.934 329.078 171.387C328.815 167.984 328.894 164.676 325.503 162.806C321.395 160.54 317.003 164.347 317.101 168.528C317.179 171.889 317.416 175.314 320.674 177.111C324.783 179.378 329.175 175.57 329.078 171.387C329.065 170.838 328.217 170.907 328.23 171.453Z" fill="white"/>
<path d="M234.173 292.526H299.56C302.57 292.526 303.24 298.548 298.223 298.548H148.216C143.7 289.517 123.466 234.329 121.459 229.145C119.453 223.962 121.293 217.941 129.487 217.941H187.014C193.033 217.941 199.724 218.942 203.904 228.142C208.085 237.341 234.173 292.526 234.173 292.526Z" fill="#191919"/>
<path d="M299.766 298.308C299.963 298.239 300.14 298.156 300.307 298.068C300.323 298.06 300.339 298.053 300.352 298.044C302.921 296.605 302.04 292.526 299.559 292.526H294.207H234.171C234.171 292.526 234.151 292.482 234.12 292.417C234.09 292.355 234.049 292.27 233.993 292.151C233.761 291.66 233.308 290.697 232.667 289.34C227.057 277.467 207.477 236.003 203.904 228.142C199.723 218.942 193.033 217.941 187.013 217.941H181.661C187.682 217.941 194.371 218.942 198.552 228.142C202.732 237.34 228.82 292.526 228.82 292.526L231.079 298.385C231.079 298.385 233.898 298.452 238.398 298.548H292.871H298.222C298.524 298.548 298.8 298.523 299.061 298.482C299.227 298.456 299.376 298.411 299.525 298.369C299.605 298.347 299.691 298.333 299.766 298.308Z" fill="#191919"/>
<path d="M179.82 259.083C181.47 263.165 179.515 266.473 175.451 266.473C171.387 266.473 166.755 263.165 165.105 259.083C163.454 254.999 165.41 251.688 169.474 251.688C173.537 251.688 178.17 254.999 179.82 259.083Z" stroke="white" stroke-miterlimit="10"/>
<path d="M376.27 303.218H140.378V340.611C166.274 346.125 201.175 350.108 235.545 350.543C282.598 351.137 331.387 350.603 376.27 348.42V303.218Z" fill="#F9EED6"/>
<path d="M386.06 302.287C386.06 304.517 384.25 306.327 382.018 306.327H134.629C132.398 306.327 130.589 304.517 130.589 302.287C130.589 300.055 132.398 298.244 134.629 298.244H382.018C384.25 298.244 386.06 300.055 386.06 302.287Z" fill="#FFF3DB"/>
<path d="M71.9475 166.82C77.5549 172.133 82.1341 172.133 82.1239 166.819C82.112 161.507 82.0933 152.813 82.0822 147.501C82.0712 142.188 77.4826 137.842 71.8863 137.842H51.5335C45.9362 137.842 45.9464 142.189 51.553 147.501C57.1613 152.814 66.3401 161.507 71.9475 166.82Z" fill="#FFAE00"/>
<path d="M205.692 115.406C205.692 133.435 191.076 148.052 173.047 148.052H53.2079C35.1787 148.052 20.5635 133.435 20.5635 115.406V72.4003C20.5635 54.372 35.1787 39.7559 53.2079 39.7559H173.047C191.076 39.7559 205.692 54.372 205.692 72.4003V115.406Z" fill="#FFAE00"/>
<path d="M115.872 60.5371V73.5959H114.007V67.775H106.508V73.5959H104.642V60.5371H106.508V66.1531H114.007V60.5371H115.872Z" fill="white"/>
<path d="M129.265 71.9714V73.5942H119.789V60.5371H129.004V62.1599H121.654V66.1701H128.202V67.7554H121.654V71.9714H129.265Z" fill="white"/>
<path d="M132.287 60.5371H134.152V71.9714H141.223V73.5959H132.287V60.5371Z" fill="white"/>
<path d="M152.452 61.7499C153.422 62.5579 153.907 63.6704 153.907 65.0882C153.907 66.506 153.422 67.6193 152.452 68.4273C151.482 69.2353 150.151 69.6402 148.46 69.6402H145.232V73.5942H143.367V60.5371H148.46C150.151 60.5371 151.482 60.9411 152.452 61.7499ZM151.109 67.2613C151.73 66.7578 152.042 66.034 152.042 65.0882C152.042 64.1433 151.73 63.4187 151.109 62.9151C150.487 62.4116 149.585 62.1599 148.404 62.1599H145.232V68.0174H148.404C149.585 68.0174 150.487 67.7656 151.109 67.2613Z" fill="white"/>
<path d="M156.518 73.3612C156.281 73.1315 156.163 72.8492 156.163 72.5124C156.163 72.1773 156.281 71.8949 156.518 71.6644C156.754 71.4348 157.046 71.3191 157.395 71.3191C157.742 71.3191 158.029 71.4348 158.253 71.6644C158.476 71.8949 158.589 72.1773 158.589 72.5124C158.589 72.8492 158.473 73.1315 158.243 73.3612C158.013 73.5917 157.731 73.7065 157.395 73.7065C157.046 73.7065 156.754 73.5917 156.518 73.3612ZM156.331 60.5371H158.439L158.085 69.4726H156.667L156.331 60.5371Z" fill="white"/>
<path d="M125 87.6975H104.612V82.2627H125V87.6975Z" fill="white"/>
<path d="M120 101H105V95H120V101Z" fill="white"/>
<path d="M116 114.105H104.612V108.67H116V114.105Z" fill="white"/>
<path d="M112 127.308H104.612V121.871H112V127.308Z" fill="white"/>
<path d="M88.0212 125.292C85.5318 119.108 76.9135 114.689 72.5112 114.749H57.6417C52.7538 115.209 44.622 119.108 42.1309 125.292C47.9543 131.056 56.0801 134.64 65.0769 134.64C74.0736 134.64 82.1986 131.056 88.0212 125.292Z" fill="#8E6E29"/>
<path d="M59.0029 102.052C59.0029 102.052 57.5791 113.751 56.5959 120.364C55.8781 125.196 73.2175 126.555 73.744 121.347C74.2041 115.169 74.7331 104.699 74.7331 104.699" fill="#FDEBC3"/>
<path d="M58.2969 107.428L59.002 102.053L74.7322 104.699C74.7322 104.699 74.5681 107.915 74.3486 111.949C73.2447 112.3 72.0922 112.544 70.8862 112.633C65.9124 113.006 61.3315 110.924 58.2969 107.428Z" fill="#EBDAB6"/>
<path d="M84.838 92.8022C85.464 101.164 79.1931 108.447 70.8334 109.073C62.4746 109.696 55.1899 103.426 54.5648 95.0637L53.3673 79.0554C52.7413 70.6974 59.0138 63.411 67.3727 62.7893C75.7333 62.1624 83.0171 68.4333 83.6422 76.7921L84.838 92.8022Z" fill="#FDEBC3"/>
<path d="M64.171 80.7295C66.2998 80.2788 68.0076 79.3296 69.2843 77.5478C69.9196 76.6615 68.455 75.8204 67.8273 76.6956C66.8127 78.1117 65.3889 78.7487 63.7219 79.1025C62.6571 79.3279 63.1095 80.9549 64.171 80.7295Z" fill="#FF9700"/>
<path d="M81.3465 77.4115C80.1549 77.1878 79.4226 76.6222 78.8383 75.5642C78.3127 74.6116 76.8549 75.4621 77.3814 76.4164C78.1579 77.8214 79.3069 78.74 80.8983 79.0385C81.9614 79.2384 82.4156 77.6122 81.3465 77.4115Z" fill="#FF9700"/>
<path d="M73.7511 91.4606C73.5997 91.4606 73.4483 91.407 73.3258 91.2981C73.0639 91.0634 73.0409 90.6602 73.2756 90.3974L75.3041 88.1291L72.9763 87.1638C72.6505 87.0285 72.4957 86.6551 72.631 86.3302C72.7653 86.0037 73.1387 85.8489 73.4645 85.9849L76.6224 87.2947C76.8138 87.3738 76.9541 87.5405 77 87.7421C77.046 87.9437 76.9915 88.1555 76.8538 88.3094L74.2274 91.2479C74.1015 91.3891 73.9263 91.4606 73.7511 91.4606Z" fill="#FF9700"/>
<path d="M69.9178 97.9121C69.7179 97.9121 69.5206 97.8186 69.3964 97.6425C69.1931 97.3551 69.2612 96.957 69.5486 96.7537C72.0611 94.977 74.3149 94.2634 76.2558 94.6309C76.602 94.6963 76.829 95.0306 76.7636 95.3768C76.6972 95.7221 76.3647 95.9475 76.0177 95.8845C74.4349 95.5834 72.5042 96.2264 70.286 97.7948C70.1738 97.8747 70.0453 97.9121 69.9178 97.9121Z" fill="#FF9700"/>
<path d="M69.8626 86.2775C69.6185 87.2658 68.6175 87.8705 67.6275 87.6272C66.6409 87.3831 66.0345 86.3829 66.2803 85.3929C66.5235 84.4029 67.5237 83.7982 68.5129 84.044C69.5012 84.2864 70.1067 85.2883 69.8626 86.2775Z" fill="#34312C"/>
<path d="M80.8931 85.6202C80.649 86.6059 79.6505 87.2157 78.6597 86.9699C77.6714 86.7284 77.0658 85.7239 77.3099 84.7356C77.5532 83.7473 78.5542 83.1435 79.5425 83.3901C80.5325 83.6325 81.1381 84.6319 80.8931 85.6202Z" fill="#34312C"/>
<path d="M57.4742 91.0456C58.1929 94.0037 56.3779 96.9847 53.419 97.7017C50.46 98.4212 47.479 96.6071 46.7603 93.6482L46.3495 91.9565C45.6308 88.9984 47.4458 86.0182 50.4056 85.2987C53.3637 84.58 56.3447 86.3958 57.0634 89.3539L57.4742 91.0456Z" fill="#FDEBC3"/>
<path d="M49.1594 85.8495C47.864 82.1591 41.5481 67.1467 50.9403 66.6934C51.5229 60.7993 59.7168 57.6907 69.9502 55.6826C80.1844 53.6762 86.5641 58.4689 85.7868 63.2607C85.0094 68.0542 78.7266 69.8029 73.7401 68.3774C72.3155 73.5587 65.4493 71.8118 63.96 70.7741C62.8093 75.7947 57.1091 77.0084 57.7581 80.5066C58.4061 84.0047 58.6962 87.5658 58.8263 88.2786C58.9556 88.9922 55.9771 90.3844 55.329 88.9581C54.6809 87.5344 52.1225 84.9769 49.1594 85.8495Z" fill="#191919"/>
<path d="M77.4475 167.822C83.658 169.054 80.0994 147.984 80.0578 144.807L79.6325 145.232C92.9992 145.352 106.368 145.386 119.734 145.269C129.289 145.186 138.836 144.942 148.392 144.942C154.269 144.942 160.113 144.726 165.983 144.499C172.276 144.256 178.55 144.276 184.68 142.648C196.41 139.531 200.68 127.129 201.891 116.245C201.953 115.7 201.101 115.707 201.041 116.245C200.142 124.323 197.693 133.176 191.194 138.557C186.3 142.609 179.086 143.124 173.012 143.419C166.963 143.713 160.888 143.969 154.832 144.055C135.677 144.33 116.506 144.517 97.347 144.474C91.4427 144.461 85.5376 144.434 79.6325 144.382C79.4029 144.38 79.2047 144.577 79.2072 144.807C79.2421 147.486 82.0122 167.864 77.6738 167.003C77.1379 166.897 76.91 167.716 77.4475 167.822Z" fill="white"/>
<path d="M201.495 79.8421C201.502 90.4063 201.955 101.03 201.235 111.579C201.197 112.127 202.048 112.123 202.085 111.579C202.805 101.03 202.352 90.4063 202.345 79.8421C202.345 79.2935 201.495 79.2935 201.495 79.8421Z" fill="white"/>
<path d="M571.719 265.566C571.719 284.258 556.567 299.409 537.875 299.409H413.632C394.94 299.409 379.787 284.258 379.787 265.566V220.979C379.787 202.288 394.94 187.135 413.632 187.135H537.875C556.567 187.135 571.719 202.288 571.719 220.979V265.566Z" fill="#FFAE00"/>
<path d="M418.101 318.868C412.287 324.375 407.538 324.376 407.55 318.868C407.562 313.362 407.581 304.348 407.592 298.841C407.603 293.333 412.361 288.827 418.163 288.827H439.263C445.065 288.827 445.057 293.333 439.243 298.841C433.428 304.35 423.915 313.361 418.101 318.868Z" fill="#FFAE00"/>
<path d="M409.328 212.722H404.687V211.04H415.884V212.722H411.242V224.577H409.328V212.722Z" fill="white"/>
<path d="M429.633 211.04V224.579H427.7V218.544H419.924V224.579H417.991V211.04H419.924V216.862H427.7V211.04H429.633Z" fill="white"/>
<path d="M442.319 221.194H435.125L433.635 224.578H431.644L437.774 211.041H439.689L445.839 224.578H443.808L442.319 221.194ZM441.642 219.647L438.722 213.013L435.802 219.647H441.642Z" fill="white"/>
<path d="M459.495 211.039V224.578H457.91L449.787 214.482V224.578H447.854V211.039H449.439L457.562 221.135V211.039H459.495Z" fill="white"/>
<path d="M467.964 218.563L465.489 221.078V224.577H463.554V211.04H465.489V218.601L472.836 211.04H475.042L469.259 217.131L475.41 224.577H473.148L467.964 218.563Z" fill="white"/>
<path d="M478.167 224.258C477.22 223.943 476.475 223.534 475.934 223.031L476.649 221.522C477.164 221.987 477.826 222.363 478.631 222.653C479.437 222.943 480.265 223.089 481.117 223.089C482.238 223.089 483.075 222.897 483.631 222.517C484.184 222.138 484.462 221.632 484.462 221C484.462 220.536 484.31 220.16 484.008 219.869C483.705 219.579 483.331 219.356 482.886 219.202C482.441 219.047 481.812 218.873 481 218.679C479.982 218.435 479.16 218.19 478.534 217.945C477.908 217.7 477.374 217.323 476.93 216.813C476.484 216.303 476.262 215.618 476.262 214.754C476.262 214.032 476.452 213.38 476.833 212.8C477.213 212.22 477.79 211.757 478.563 211.408C479.337 211.059 480.298 210.885 481.445 210.885C482.244 210.885 483.031 210.989 483.804 211.195C484.578 211.402 485.242 211.698 485.797 212.085L485.158 213.632C484.591 213.271 483.985 212.997 483.341 212.809C482.695 212.622 482.064 212.53 481.445 212.53C480.349 212.53 479.528 212.729 478.979 213.128C478.432 213.528 478.157 214.044 478.157 214.676C478.157 215.14 478.312 215.518 478.621 215.808C478.931 216.098 479.314 216.324 479.773 216.485C480.23 216.646 480.851 216.816 481.639 216.997C482.657 217.242 483.476 217.487 484.095 217.731C484.713 217.976 485.245 218.351 485.691 218.854C486.135 219.356 486.357 220.033 486.357 220.884C486.357 221.594 486.164 222.242 485.777 222.828C485.39 223.415 484.804 223.879 484.017 224.22C483.23 224.562 482.263 224.733 481.117 224.733C480.098 224.733 479.115 224.574 478.167 224.258Z" fill="white"/>
<path d="M488.851 224.336C488.605 224.098 488.483 223.805 488.483 223.457C488.483 223.107 488.605 222.815 488.851 222.576C489.096 222.337 489.399 222.218 489.759 222.218C490.121 222.218 490.417 222.337 490.649 222.576C490.881 222.815 490.998 223.107 490.998 223.457C490.998 223.805 490.878 224.098 490.639 224.336C490.4 224.574 490.107 224.694 489.759 224.694C489.399 224.694 489.096 224.574 488.851 224.336ZM488.657 211.04H490.842L490.475 220.304H489.005L488.657 211.04Z" fill="white"/>
<path d="M402.314 239.198H421V233.564H402.314V239.198Z" fill="white"/>
<path d="M402.314 252.889H418.45V247.252H402.314V252.889Z" fill="white"/>
<path d="M402.314 266.575H413.017V260.941H402.314V266.575Z" fill="white"/>
<path d="M508.853 277.909C511.435 271.497 520.368 266.915 524.932 266.975H540.348C545.415 267.452 553.847 271.497 556.429 277.909C550.392 283.884 541.97 287.598 532.641 287.598C523.314 287.598 514.89 283.884 508.853 277.909Z" fill="#8E6E29"/>
<path d="M538.938 253.814C538.938 253.814 540.414 265.942 541.435 272.8C542.179 277.808 524.201 279.216 523.655 273.817C523.177 267.412 522.629 256.559 522.629 256.559" fill="#FDEBC3"/>
<path d="M539.668 259.387L538.938 253.813L522.629 256.558C522.629 256.558 522.799 259.895 523.028 264.077C524.172 264.438 525.367 264.69 526.616 264.784C531.773 265.17 536.522 263.012 539.668 259.387Z" fill="#EBDAB6"/>
<path d="M512.152 244.224C511.505 252.892 518.006 260.442 526.671 261.092C535.338 261.739 542.892 255.238 543.538 246.57L544.78 229.972C545.429 221.304 538.925 213.753 530.261 213.107C521.593 212.458 514.04 218.959 513.394 227.625L512.152 244.224Z" fill="#FDEBC3"/>
<path d="M533.697 230.169C532.842 228.525 530.946 227.386 529.072 227.603C528.004 227.727 527.992 229.416 529.072 229.291C530.401 229.136 531.628 229.845 532.24 231.021C532.741 231.986 534.198 231.133 533.697 230.169Z" fill="#FF9700"/>
<path d="M516.604 229.705C517.342 228.932 518.696 228.4 519.752 228.656C520.809 228.911 521.257 227.284 520.2 227.029C518.565 226.634 516.568 227.299 515.411 228.513C514.66 229.299 515.851 230.493 516.604 229.705Z" fill="#FF9700"/>
<path d="M523.646 242.808C523.471 242.808 523.297 242.737 523.17 242.595L520.446 239.548C520.309 239.393 520.255 239.182 520.3 238.981C520.346 238.78 520.487 238.613 520.678 238.534L523.952 237.175C524.277 237.042 524.651 237.195 524.785 237.52C524.921 237.846 524.766 238.219 524.441 238.354L521.997 239.368L524.123 241.745C524.357 242.008 524.335 242.411 524.072 242.647C523.949 242.755 523.798 242.808 523.646 242.808Z" fill="#FF9700"/>
<path d="M523.4 251.546C521.653 251.546 520.469 249.695 519.783 245.885C519.746 245.683 519.81 245.476 519.953 245.328C520.096 245.18 520.304 245.114 520.504 245.14C521.58 245.299 522.944 245.462 524.915 245.462C525.932 245.462 527.036 245.42 528.29 245.335C528.522 245.315 528.751 245.435 528.877 245.636C529 245.837 529.003 246.091 528.883 246.295C526.798 249.828 525.005 251.546 523.4 251.546ZM521.211 246.523C521.745 248.918 522.527 250.27 523.399 250.27C523.96 250.27 525.16 249.776 527.149 246.68C524.849 246.792 523.097 246.751 521.211 246.523Z" fill="#FF9700"/>
<path d="M527.677 237.459C527.932 238.485 528.969 239.111 529.994 238.859C531.018 238.605 531.647 237.567 531.392 236.542C531.139 235.517 530.104 234.889 529.077 235.142C528.051 235.395 527.427 236.434 527.677 237.459Z" fill="#34312C"/>
<path d="M516.239 236.778C516.492 237.8 517.529 238.43 518.555 238.177C519.578 237.925 520.208 236.886 519.955 235.861C519.701 234.836 518.665 234.211 517.64 234.463C516.614 234.717 515.985 235.751 516.239 236.778Z" fill="#34312C"/>
<path d="M540.523 242.402C539.778 245.468 541.66 248.559 544.726 249.304C547.793 250.05 550.885 248.169 551.628 245.1L552.055 243.346C552.802 240.28 550.92 237.189 547.851 236.443C544.784 235.698 541.693 237.582 540.948 240.648L540.523 242.402Z" fill="#FDEBC3"/>
<path d="M549.142 237.016C550.485 233.188 557.031 217.624 547.295 217.155C546.69 211.044 538.196 207.822 527.587 205.74C516.979 203.659 510.362 208.627 511.168 213.597C511.974 218.566 518.487 220.378 523.657 218.901C525.134 224.274 532.252 222.46 533.797 221.386C534.989 226.59 540.898 227.85 540.228 231.475C539.555 235.102 539.253 238.795 539.118 239.535C538.986 240.275 542.072 241.715 542.747 240.237C543.417 238.761 546.07 236.109 549.142 237.016Z" fill="#191919"/>
<path d="M537.475 296.9C549.967 296.405 563.357 288.457 566.017 275.547C566.127 275.012 565.307 274.783 565.196 275.32C562.613 287.859 549.609 295.569 537.475 296.05C536.928 296.071 536.925 296.922 537.475 296.9Z" fill="white"/>
<path d="M527.142 296.969C529.421 297.051 531.7 297.095 533.981 297.146C534.53 297.159 534.528 296.308 533.981 296.295C531.7 296.244 529.421 296.2 527.142 296.118C526.592 296.099 526.595 296.95 527.142 296.969Z" fill="#FDF4E2"/>
<path d="M417.909 315.755C422.192 311.902 426.492 308.068 430.517 303.942C432.38 302.034 434.042 299.543 436.29 298.032C437.622 297.137 439.274 296.994 440.831 296.904C443.895 296.728 446.98 296.807 450.047 296.766C455.611 296.689 461.166 296.392 466.732 296.403C472.694 296.415 478.653 296.683 484.607 296.955C496.206 297.484 507.833 298.032 519.41 296.84C519.95 296.784 519.955 295.932 519.41 295.989C507.565 297.209 495.669 296.608 483.804 296.068C477.567 295.784 471.327 295.541 465.082 295.552C459.51 295.562 453.943 295.874 448.371 295.935C444.573 295.977 439.283 295.135 435.861 297.297C433.741 298.638 432.15 300.993 430.466 302.769C426.321 307.141 421.784 311.128 417.308 315.154C416.9 315.521 417.503 316.121 417.909 315.755Z" fill="white"/>
<path d="M501.617 88.7332C501.617 98.5167 493.685 106.449 483.902 106.449H318.955C309.171 106.449 301.239 98.5167 301.239 88.7332V72.2426C301.239 62.4591 309.171 54.5264 318.955 54.5264H483.902C493.685 54.5264 501.617 62.4591 501.617 72.2426V88.7332Z" fill="#FFAE00"/>
<path d="M328.801 63.0714C329.421 61.8135 330.438 61.8135 331.058 63.0714L333.042 67.09C333.663 68.348 335.306 69.5429 336.695 69.7453L341.13 70.3892C342.519 70.5916 342.833 71.5586 341.827 72.5376L338.62 75.6641C337.615 76.643 336.988 78.5754 337.225 79.9592L337.982 84.3759C338.219 85.7588 337.396 86.3567 336.155 85.7036L332.188 83.6172C330.946 82.9649 328.913 82.9649 327.672 83.6181L323.705 85.7027C322.463 86.3567 321.641 85.7588 321.879 84.3759L322.636 79.9592C322.873 78.5754 322.246 76.643 321.241 75.6641L318.034 72.5376C317.028 71.5586 317.341 70.5916 318.73 70.3892L323.164 69.7436C324.553 69.5412 326.197 68.3463 326.818 67.0883L328.801 63.0714Z" fill="white"/>
<path d="M389.887 103.847C392.686 103.814 395.479 103.568 398.277 103.536C398.825 103.529 398.826 102.679 398.277 102.686C395.479 102.718 392.686 102.964 389.887 102.996C389.339 103.002 389.338 103.852 389.887 103.847Z" fill="white"/>
<path d="M402.174 103.536C412.174 103.311 422.175 103.757 432.174 103.594C437.164 103.513 442.113 103.046 447.092 102.802C452.325 102.545 457.57 102.634 462.804 102.769C467.804 102.897 472.802 103.092 477.804 103.165C481.253 103.217 484.76 103.383 488.154 102.649C493.709 101.448 496.072 96.9506 496.441 91.6068C496.479 91.0591 495.628 91.0625 495.59 91.6068C495.385 94.5717 494.698 97.4872 492.49 99.611C490.481 101.543 487.457 102.064 484.794 102.273C480.829 102.584 476.765 102.314 472.795 102.212C468.081 102.09 463.369 101.909 458.653 101.827C449.241 101.663 439.91 102.647 430.507 102.768C421.062 102.889 411.619 102.473 402.174 102.686C401.626 102.698 401.625 103.549 402.174 103.536Z" fill="white"/>
<path d="M105.421 255.611C105.421 265.394 97.4885 273.326 87.705 273.326H17.7154C7.9319 273.326 0 265.394 0 255.611V235.001C0 225.217 7.9319 217.285 17.7154 217.285H87.705C97.4885 217.285 105.421 225.217 105.421 235.001V255.611Z" fill="#FFAE00"/>
<path d="M34.6396 250.947V253.322H20.9029V251.465L28.686 243.955C29.6326 243.045 30.2697 242.258 30.5971 241.594C30.9246 240.929 31.0887 240.26 31.0887 239.586C31.0887 238.585 30.7391 237.807 30.0383 237.251C29.3375 236.696 28.3305 236.418 27.0198 236.418C24.908 236.418 23.2784 237.111 22.1311 238.493L20.2744 236.883C21.0212 235.973 22.0001 235.263 23.2104 234.753C24.4215 234.243 25.7721 233.988 27.2656 233.988C29.2678 233.988 30.8616 234.465 32.0455 235.421C33.2286 236.377 33.8197 237.675 33.8197 239.313C33.8197 240.333 33.6011 241.298 33.164 242.208C32.7268 243.119 31.8984 244.156 30.6788 245.321L24.8349 250.947H34.6396Z" fill="#FFAE00"/>
<path d="M52.9908 248.625H49.3582V253.322H46.7097V248.625H36.0859V246.714L45.8626 234.206H48.8122L39.4455 246.277H46.7905V242.125H49.3582V246.277H52.9908V248.625Z" fill="#FFAE00"/>
<path d="M62.3039 230.328H64.6794L55.6682 256.053H53.291L62.3039 230.328Z" fill="#FFAE00"/>
<path d="M79.2321 234.206V236.064L71.5035 253.322H68.6083L76.1728 236.582H67.4338V239.996H64.8125V234.206H79.2321Z" fill="#FFAE00"/>
<path d="M60.7473 270.276C72.8748 267.307 86.3946 273.273 97.4453 265.805C97.8969 265.5 97.4717 264.763 97.0158 265.071C86.0994 272.449 72.5388 266.512 60.5202 269.455C59.9878 269.585 60.2149 270.406 60.7473 270.276Z" fill="white"/>
<path d="M101.467 238.864C101.655 240.693 101.563 242.522 101.811 244.348C102.099 246.462 102.411 248.503 102.39 250.642C102.351 254.689 102.009 258.995 99.6601 262.426C99.3488 262.879 100.086 263.305 100.394 262.855C102.459 259.84 102.98 256.212 103.181 252.638C103.286 250.79 103.327 248.905 103.074 247.068C102.695 244.323 102.599 241.609 102.317 238.864C102.262 238.324 101.41 238.318 101.467 238.864Z" fill="white"/>
</svg>
