<svg width="813" height="85" viewBox="0 0 813 85" fill="none" xmlns="http://www.w3.org/2000/svg">
<g filter="url(#filter0_d_746_5825)">
<path d="M49.6 27.7L47.8904 28.738L48.4745 29.7H49.6V27.7ZM44.9 23.4L43.9812 25.1764L43.9933 25.1827L44.0056 25.1889L44.9 23.4ZM26.3 26.7L24.8103 25.3655L24.8025 25.3742L24.7948 25.383L26.3 26.7ZM26.6 53.5L25.1409 54.8679L25.1556 54.8836L25.1707 54.8989L26.6 53.5ZM54.6 48.9L56.4079 49.7553L57.7588 46.9H54.6V48.9ZM34.9 48.9H32.9V50.9H34.9V48.9ZM34.9 34.8V32.8H32.9V34.8H34.9ZM71.5 34.8H73.5V32.8H71.5V34.8ZM71.5 53.8L73.35 54.5598L73.5 54.1947V53.8H71.5ZM64.7 64.3L63.2269 62.9472L63.2194 62.9554L63.2119 62.9638L64.7 64.3ZM53.5 72.4L54.3296 74.2198L54.3406 74.2148L54.3516 74.2096L53.5 72.4ZM19.2 71L18.2124 72.7391L18.225 72.7463L18.2378 72.7533L19.2 71ZM6.6 58.3L4.83768 59.2456L4.84459 59.2585L4.85169 59.2713L6.6 58.3ZM6.6 21.1L4.84665 20.1378L4.84255 20.1453L6.6 21.1ZM19.2 8.4L20.1713 10.1483L20.1795 10.1438L20.1877 10.1391L19.2 8.4ZM59.9 10.2L58.7149 11.811H58.7149L59.9 10.2ZM70.7 27.7V29.7H73.1139L72.6651 27.3282L70.7 27.7ZM51.3096 26.662C49.9758 24.4652 48.1229 22.7754 45.7944 21.6111L44.0056 25.1889C45.6771 26.0246 46.9575 27.2014 47.8904 28.738L51.3096 26.662ZM45.8188 21.6236C43.5446 20.4472 40.9155 19.9 38 19.9V23.9C40.4179 23.9 42.3888 24.3528 43.9812 25.1764L45.8188 21.6236ZM38 19.9C32.5912 19.9 28.1144 21.6773 24.8103 25.3655L27.7897 28.0345C30.219 25.3227 33.5421 23.9 38 23.9V19.9ZM24.7948 25.383C21.5971 29.0376 20.1 33.8503 20.1 39.6H24.1C24.1 34.5497 25.4029 30.7624 27.8052 28.017L24.7948 25.383ZM20.1 39.6C20.1 45.9783 21.679 51.1751 25.1409 54.8679L28.0591 52.1321C25.521 49.4249 24.1 45.3551 24.1 39.6H20.1ZM25.1707 54.8989C28.7234 58.5289 33.7427 60.2 39.9 60.2V56.2C34.4574 56.2 30.6099 54.7377 28.0293 52.1011L25.1707 54.8989ZM39.9 60.2C43.6412 60.2 46.9694 59.3523 49.7943 57.5652C52.6193 55.7779 54.8092 53.1344 56.4079 49.7553L52.7921 48.0447C51.4575 50.8656 49.7307 52.8721 47.6557 54.1848C45.5806 55.4977 43.0255 56.2 39.9 56.2V60.2ZM54.6 46.9H34.9V50.9H54.6V46.9ZM36.9 48.9V34.8H32.9V48.9H36.9ZM34.9 36.8H71.5V32.8H34.9V36.8ZM69.5 34.8V53.8H73.5V34.8H69.5ZM69.65 53.0402C68.2148 56.5346 66.083 59.8372 63.2269 62.9472L66.1731 65.6528C69.317 62.2295 71.7186 58.5321 73.35 54.5598L69.65 53.0402ZM63.2119 62.9638C60.4805 66.0056 56.974 68.5548 52.6484 70.5904L54.3516 74.2096C59.0927 71.9786 63.0529 69.1277 66.1881 65.6362L63.2119 62.9638ZM52.6704 70.5802C48.4369 72.5102 43.5604 73.5 38 73.5V77.5C44.0396 77.5 49.4965 76.4232 54.3296 74.2198L52.6704 70.5802ZM38 73.5C31.2243 73.5 25.2965 72.0643 20.1622 69.2467L18.2378 72.7533C24.0368 75.9357 30.6424 77.5 38 77.5V73.5ZM20.1877 69.2609C15.1051 66.3745 11.169 62.406 8.34832 57.3287L4.85169 59.2713C8.03096 64.994 12.4949 69.4922 18.2124 72.7391L20.1877 69.2609ZM8.36232 57.3544C5.60412 52.2141 4.2 46.3129 4.2 39.6H0.2C0.2 46.8871 1.72922 53.4526 4.83768 59.2456L8.36232 57.3544ZM4.2 39.6C4.2 32.9567 5.60279 27.1257 8.35745 22.0547L4.84255 20.1453C1.73055 25.8743 0.2 32.3766 0.2 39.6H4.2ZM8.35333 22.0622C11.1738 16.9227 15.1041 12.9634 20.1713 10.1483L18.2287 6.65168C12.4959 9.8366 8.02623 14.3439 4.84667 20.1378L8.35333 22.0622ZM20.1877 10.1391C25.247 7.2659 31.1311 5.8 37.9 5.8V1.8C30.5356 1.8 23.953 3.40076 18.2124 6.66088L20.1877 10.1391ZM37.9 5.8C46.4407 5.8 53.3313 7.85069 58.7149 11.811L61.0851 8.58896C54.8687 4.01597 47.0926 1.8 37.9 1.8V5.8ZM58.7149 11.811C64.0874 15.7632 67.4241 21.1435 68.7349 28.0718L72.6651 27.3282C71.1759 19.4565 67.3126 13.1701 61.0851 8.58896L58.7149 11.811ZM70.7 25.7H49.6V29.7H70.7V25.7ZM109.884 20.2V18.2H107.884V20.2H109.884ZM109.884 31.7H107.884V33.7H109.884V31.7ZM132.384 31.7H134.384V29.7H132.384V31.7ZM132.384 46.6V48.6H134.384V46.6H132.384ZM109.884 46.6V44.6H107.884V46.6H109.884ZM109.884 59.3H107.884V61.3H109.884V59.3ZM135.384 59.3H137.384V57.3H135.384V59.3ZM135.384 75V77H137.384V75H135.384ZM90.2836 75H88.2836V77H90.2836V75ZM90.2836 4.5V2.5H88.2836V4.5H90.2836ZM135.384 4.5H137.384V2.5H135.384V4.5ZM135.384 20.2V22.2H137.384V20.2H135.384ZM107.884 20.2V31.7H111.884V20.2H107.884ZM109.884 33.7H132.384V29.7H109.884V33.7ZM130.384 31.7V46.6H134.384V31.7H130.384ZM132.384 44.6H109.884V48.6H132.384V44.6ZM107.884 46.6V59.3H111.884V46.6H107.884ZM109.884 61.3H135.384V57.3H109.884V61.3ZM133.384 59.3V75H137.384V59.3H133.384ZM135.384 73H90.2836V77H135.384V73ZM92.2836 75V4.5H88.2836V75H92.2836ZM90.2836 6.5H135.384V2.5H90.2836V6.5ZM133.384 4.5V20.2H137.384V4.5H133.384ZM135.384 18.2H109.884V22.2H135.384V18.2ZM208.169 4.5H210.169V2.5H208.169V4.5ZM208.169 20.1V22.1H210.169V20.1H208.169ZM189.369 20.1V18.1H187.369V20.1H189.369ZM189.369 75V77H191.369V75H189.369ZM169.769 75H167.769V77H169.769V75ZM169.769 20.1H171.769V18.1H169.769V20.1ZM151.169 20.1H149.169V22.1H151.169V20.1ZM151.169 4.5V2.5H149.169V4.5H151.169ZM206.169 4.5V20.1H210.169V4.5H206.169ZM208.169 18.1H189.369V22.1H208.169V18.1ZM187.369 20.1V75H191.369V20.1H187.369ZM189.369 73H169.769V77H189.369V73ZM171.769 75V20.1H167.769V75H171.769ZM169.769 18.1H151.169V22.1H169.769V18.1ZM153.169 20.1V4.5H149.169V20.1H153.169ZM151.169 6.5H208.169V2.5H151.169V6.5ZM274.161 4.5H276.161V2.5H274.161V4.5ZM274.161 75V77H276.161V75H274.161ZM254.561 75H252.561V77H254.561V75ZM254.561 4.5V2.5H252.561V4.5H254.561ZM272.161 4.5V75H276.161V4.5H272.161ZM274.161 73H254.561V77H274.161V73ZM256.561 75V4.5H252.561V75H256.561ZM254.561 6.5H274.161V2.5H254.561V6.5ZM360.623 75V77H362.623V75H360.623ZM341.023 75L339.355 76.1045L339.949 77H341.023V75ZM314.923 35.6L316.59 34.4955L312.923 28.9593V35.6H314.923ZM314.923 75V77H316.923V75H314.923ZM295.323 75H293.323V77H295.323V75ZM295.323 4.5V2.5H293.323V4.5H295.323ZM314.923 4.5L316.596 3.40516L316.004 2.5H314.923V4.5ZM341.023 44.4L339.349 45.4948L343.023 51.111V44.4H341.023ZM341.023 4.5V2.5H339.023V4.5H341.023ZM360.623 4.5H362.623V2.5H360.623V4.5ZM360.623 73H341.023V77H360.623V73ZM342.69 73.8955L316.59 34.4955L313.255 36.7045L339.355 76.1045L342.69 73.8955ZM312.923 35.6V75H316.923V35.6H312.923ZM314.923 73H295.323V77H314.923V73ZM297.323 75V4.5H293.323V75H297.323ZM295.323 6.5H314.923V2.5H295.323V6.5ZM313.249 5.59483L339.349 45.4948L342.696 43.3052L316.596 3.40516L313.249 5.59483ZM343.023 44.4V4.5H339.023V44.4H343.023ZM341.023 6.5H360.623V2.5H341.023V6.5ZM358.623 4.5V75H362.623V4.5H358.623ZM464.028 4.5H466.028V2.5H464.028V4.5ZM464.028 20.1V22.1H466.028V20.1H464.028ZM445.228 20.1V18.1H443.228V20.1H445.228ZM445.228 75V77H447.228V75H445.228ZM425.628 75H423.628V77H425.628V75ZM425.628 20.1H427.628V18.1H425.628V20.1ZM407.028 20.1H405.028V22.1H407.028V20.1ZM407.028 4.5V2.5H405.028V4.5H407.028ZM462.028 4.5V20.1H466.028V4.5H462.028ZM464.028 18.1H445.228V22.1H464.028V18.1ZM443.228 20.1V75H447.228V20.1H443.228ZM445.228 73H425.628V77H445.228V73ZM427.628 75V20.1H423.628V75H427.628ZM425.628 18.1H407.028V22.1H425.628V18.1ZM409.028 20.1V4.5H405.028V20.1H409.028ZM407.028 6.5H464.028V2.5H407.028V6.5ZM496.88 71.1L495.894 72.8403L495.902 72.8449L495.91 72.8493L496.88 71.1ZM483.68 58.2L481.948 59.2012L481.956 59.2136L481.963 59.2259L483.68 58.2ZM483.68 20.9L481.957 19.8832L481.954 19.8896L483.68 20.9ZM496.88 8L497.849 9.74931L496.88 8ZM533.28 8L532.301 9.74431L532.31 9.74931L533.28 8ZM546.38 20.9L544.648 21.9013L544.654 21.9104L546.38 20.9ZM546.38 58.2L548.106 59.2104L548.111 59.2012L546.38 58.2ZM533.28 71.1L534.249 72.8493L534.257 72.8449L534.265 72.8403L533.28 71.1ZM526.88 52.6L525.392 51.2637L525.384 51.2722L525.376 51.2808L526.88 52.6ZM526.88 26.3L525.376 27.6192L525.391 27.6355L525.405 27.6514L526.88 26.3ZM503.18 26.3L504.669 27.6345L504.676 27.6269L504.683 27.6192L503.18 26.3ZM503.18 52.7L501.676 54.0192L501.683 54.0269L501.69 54.0345L503.18 52.7ZM515.08 73.7C508.804 73.7 503.073 72.2457 497.849 69.3507L495.91 72.8493C501.753 76.0876 508.156 77.7 515.08 77.7V73.7ZM497.865 69.3597C492.634 66.3973 488.486 62.3437 485.397 57.1741L481.963 59.2259C485.407 64.9896 490.059 69.536 495.894 72.8403L497.865 69.3597ZM485.411 57.1987C482.402 51.9953 480.88 46.1125 480.88 39.5H476.88C476.88 46.7542 478.558 53.3381 481.948 59.2012L485.411 57.1987ZM480.88 39.5C480.88 32.8872 482.402 27.042 485.406 21.9104L481.954 19.8896C478.558 25.6913 476.88 32.2461 476.88 39.5H480.88ZM485.402 21.9168C488.49 16.6852 492.633 12.6404 497.849 9.74931L495.91 6.25069C490.06 9.49294 485.402 14.0481 481.957 19.8832L485.402 21.9168ZM497.849 9.74931C503.073 6.8543 508.804 5.4 515.08 5.4V1.4C508.156 1.4 501.753 3.01237 495.91 6.25069L497.849 9.74931ZM515.08 5.4C521.426 5.4 527.152 6.85597 532.301 9.74429L534.258 6.25571C528.474 3.01069 522.067 1.4 515.08 1.4V5.4ZM532.31 9.74931C537.523 12.6384 541.628 16.6783 544.648 21.9012L548.111 19.8988C544.732 14.0551 540.103 9.49498 534.249 6.25069L532.31 9.74931ZM544.654 21.9104C547.658 27.042 549.18 32.8872 549.18 39.5H553.18C553.18 32.2461 551.502 25.6913 548.106 19.8896L544.654 21.9104ZM549.18 39.5C549.18 46.1125 547.658 51.9953 544.648 57.1987L548.111 59.2012C551.502 53.3381 553.18 46.7542 553.18 39.5H549.18ZM544.654 57.1896C541.633 62.3507 537.522 66.3994 532.294 69.3597L534.265 72.8403C540.104 69.5339 544.727 64.9826 548.106 59.2104L544.654 57.1896ZM532.31 69.3507C527.087 72.2457 521.356 73.7 515.08 73.7V77.7C522.004 77.7 528.406 76.0876 534.249 72.8493L532.31 69.3507ZM515.08 59.5C520.559 59.5 525.078 57.6858 528.383 53.9192L525.376 51.2808C522.949 54.0475 519.6 55.5 515.08 55.5V59.5ZM528.368 53.9362C531.706 50.2186 533.28 45.3341 533.28 39.5H529.28C529.28 44.5992 527.92 48.4481 525.392 51.2637L528.368 53.9362ZM533.28 39.5C533.28 33.5493 531.715 28.6146 528.354 24.9485L525.405 27.6514C527.911 30.3854 529.28 34.2507 529.28 39.5H533.28ZM528.383 24.9808C525.078 21.2142 520.559 19.4 515.08 19.4V23.4C519.6 23.4 522.949 24.8525 525.376 27.6192L528.383 24.9808ZM515.08 19.4C509.543 19.4 504.987 21.2081 501.676 24.9808L504.683 27.6192C507.106 24.8586 510.483 23.4 515.08 23.4V19.4ZM501.69 24.9655C498.405 28.6323 496.88 33.5606 496.88 39.5H500.88C500.88 34.2394 502.221 30.3677 504.669 27.6345L501.69 24.9655ZM496.88 39.5C496.88 45.3822 498.41 50.2966 501.676 54.0192L504.683 51.3808C502.216 48.57 500.88 44.6844 500.88 39.5H496.88ZM501.69 54.0345C505.005 57.7346 509.556 59.5 515.08 59.5V55.5C510.47 55.5 507.088 54.0654 504.669 51.3655L501.69 54.0345ZM589.191 4.5H591.191V2.5H589.191V4.5ZM591.791 54.2L590.258 55.4852L590.27 55.4995L590.282 55.5136L591.791 54.2ZM607.991 54.2L606.485 52.883L606.482 52.8864L607.991 54.2ZM610.791 4.5V2.5H608.791V4.5H610.791ZM630.391 4.5H632.391V2.5H630.391V4.5ZM626.291 62L628.003 63.0327L628.01 63.0217L626.291 62ZM615.091 72.3L615.964 74.099L615.975 74.0939L615.091 72.3ZM584.091 72.3L583.165 74.0727L583.18 74.0809L583.196 74.0889L584.091 72.3ZM573.491 62L571.745 62.9756L571.75 62.9854L571.756 62.995L573.491 62ZM569.691 4.5V2.5H567.691V4.5H569.691ZM587.191 4.5V45.4H591.191V4.5H587.191ZM587.191 45.4C587.191 49.4803 588.12 52.9358 590.258 55.4852L593.323 52.9148C591.995 51.3309 591.191 48.9197 591.191 45.4H587.191ZM590.282 55.5136C592.573 58.1432 595.905 59.3 599.891 59.3V55.3C596.676 55.3 594.609 54.3902 593.299 52.8864L590.282 55.5136ZM599.891 59.3C603.876 59.3 607.208 58.1432 609.499 55.5136L606.482 52.8864C605.173 54.3902 603.105 55.3 599.891 55.3V59.3ZM609.496 55.517C611.771 52.9165 612.791 49.4615 612.791 45.4H608.791C608.791 48.8051 607.943 51.2168 606.485 52.883L609.496 55.517ZM612.791 45.4V4.5H608.791V45.4H612.791ZM610.791 6.5H630.391V2.5H610.791V6.5ZM628.391 4.5V45.4H632.391V4.5H628.391ZM628.391 45.4C628.391 51.5822 627.086 56.7462 624.571 60.9783L628.01 63.0217C630.962 58.0538 632.391 52.1512 632.391 45.4H628.391ZM624.578 60.9673C622.042 65.174 618.595 68.3426 614.206 70.5061L615.975 74.0939C621.053 71.5908 625.073 67.8927 628.003 63.0327L624.578 60.9673ZM614.217 70.501C609.85 72.622 604.953 73.7 599.491 73.7V77.7C605.495 77.7 610.998 76.5113 615.964 74.099L614.217 70.501ZM599.491 73.7C594.027 73.7 589.206 72.6217 584.985 70.5111L583.196 74.0889C588.042 76.5116 593.488 77.7 599.491 77.7V73.7ZM585.017 70.5273C580.901 68.3775 577.643 65.2201 575.226 61.005L571.756 62.995C574.538 67.8465 578.347 71.5559 583.165 74.0727L585.017 70.5273ZM575.237 61.0244C572.908 56.8567 571.691 51.6784 571.691 45.4H567.691C567.691 52.1882 569.007 58.0766 571.745 62.9756L575.237 61.0244ZM571.691 45.4V4.5H567.691V45.4H571.691ZM569.691 6.5H589.191V2.5H569.691V6.5ZM653.082 21.1L651.32 20.1544L651.315 20.1622L653.082 21.1ZM665.482 8.4L666.463 10.1432L666.471 10.1385L666.479 10.1338L665.482 8.4ZM706.082 10.9L704.843 12.4702L704.854 12.4787L706.082 10.9ZM717.682 30V32H720.157L719.637 29.5798L717.682 30ZM696.582 30L694.775 30.8581L695.318 32H696.582V30ZM691.282 23.9L690.208 25.5873L690.22 25.5945L690.231 25.6016L691.282 23.9ZM672.682 26.7L671.148 25.4165L671.146 25.4196L672.682 26.7ZM672.682 52.7L671.133 53.9648L671.147 53.982L671.161 53.999L672.682 52.7ZM691.282 55.4L690.231 53.6984L690.22 53.7055L690.208 53.7127L691.282 55.4ZM696.582 49.3V47.3H695.318L694.775 48.4419L696.582 49.3ZM717.682 49.3L719.637 49.7202L720.157 47.3H717.682V49.3ZM706.082 68.5L707.31 70.0787L707.321 70.0702L706.082 68.5ZM665.482 71L664.485 72.7338L664.493 72.7385L664.502 72.7431L665.482 71ZM653.082 58.3L651.311 59.2288L651.318 59.2418L651.325 59.2547L653.082 58.3ZM650.782 39.6C650.782 32.9493 652.155 27.1122 654.849 22.0378L651.315 20.1622C648.276 25.8878 646.782 32.384 646.782 39.6H650.782ZM654.844 22.0456C657.601 16.9087 661.465 12.9542 666.463 10.1432L664.502 6.65685C658.832 9.84577 654.43 14.3579 651.32 20.1544L654.844 22.0456ZM666.479 10.1338C671.472 7.26282 677.253 5.8 683.882 5.8V1.8C676.644 1.8 670.159 3.40384 664.485 6.66619L666.479 10.1338ZM683.882 5.8C692.304 5.8 699.248 8.05645 704.843 12.4702L707.321 9.32978C700.916 4.27687 693.06 1.8 683.882 1.8V5.8ZM704.854 12.4787C710.45 16.8313 714.083 22.771 715.727 30.4202L719.637 29.5798C717.814 21.0957 713.714 14.3021 707.31 9.32129L704.854 12.4787ZM717.682 28H696.582V32H717.682V28ZM698.389 29.1419C696.975 26.1661 694.962 23.8225 692.333 22.1984L690.231 25.6016C692.135 26.7775 693.656 28.5005 694.775 30.8581L698.389 29.1419ZM692.356 22.2127C689.796 20.5837 686.847 19.8 683.582 19.8V23.8C686.184 23.8 688.368 24.4163 690.208 25.5873L692.356 22.2127ZM683.582 19.8C678.5 19.8 674.289 21.6634 671.148 25.4166L674.216 27.9834C676.542 25.2033 679.597 23.8 683.582 23.8V19.8ZM671.146 25.4196C668.1 29.0742 666.682 33.873 666.682 39.6H670.682C670.682 34.527 671.931 30.7258 674.219 27.9804L671.146 25.4196ZM666.682 39.6C666.682 45.3891 668.098 50.2468 671.133 53.9648L674.231 51.4352C671.933 48.6199 670.682 44.7442 670.682 39.6H666.682ZM671.161 53.999C674.307 57.6814 678.515 59.5 683.582 59.5V55.5C679.583 55.5 676.524 54.1186 674.203 51.401L671.161 53.999ZM683.582 59.5C686.847 59.5 689.796 58.7163 692.356 57.0873L690.208 53.7127C688.368 54.8837 686.184 55.5 683.582 55.5V59.5ZM692.333 57.1016C694.962 55.4775 696.975 53.1339 698.389 50.1581L694.775 48.4419C693.656 50.7995 692.135 52.5225 690.231 53.6984L692.333 57.1016ZM696.582 51.3H717.682V47.3H696.582V51.3ZM715.727 48.8798C714.083 56.5304 710.448 62.5085 704.843 66.9298L707.321 70.0702C713.716 65.0249 717.815 58.203 719.637 49.7202L715.727 48.8798ZM704.854 66.9213C699.259 71.2731 692.311 73.5 683.882 73.5V77.5C693.054 77.5 700.905 75.0602 707.31 70.0787L704.854 66.9213ZM683.882 73.5C677.246 73.5 671.458 72.0671 666.463 69.2569L664.502 72.7431C670.172 75.9329 676.652 77.5 683.882 77.5V73.5ZM666.479 69.2662C661.466 66.3837 657.596 62.4199 654.839 57.3453L651.325 59.2547C654.435 64.9801 658.831 69.483 664.485 72.7338L666.479 69.2662ZM654.853 57.3712C652.156 52.2275 650.782 46.3203 650.782 39.6H646.782C646.782 46.8797 648.275 53.4392 651.311 59.2288L654.853 57.3712ZM800.063 4.5H802.063V2.5H800.063V4.5ZM800.063 75V77H802.063V75H800.063ZM780.463 75H778.463V77H780.463V75ZM780.463 46.7H782.463V44.7H780.463V46.7ZM756.563 46.7V44.7H754.563V46.7H756.563ZM756.563 75V77H758.563V75H756.563ZM736.963 75H734.963V77H736.963V75ZM736.963 4.5V2.5H734.963V4.5H736.963ZM756.563 4.5H758.563V2.5H756.563V4.5ZM756.563 31H754.563V33H756.563V31ZM780.463 31V33H782.463V31H780.463ZM780.463 4.5V2.5H778.463V4.5H780.463ZM798.063 4.5V75H802.063V4.5H798.063ZM800.063 73H780.463V77H800.063V73ZM782.463 75V46.7H778.463V75H782.463ZM780.463 44.7H756.563V48.7H780.463V44.7ZM754.563 46.7V75H758.563V46.7H754.563ZM756.563 73H736.963V77H756.563V73ZM738.963 75V4.5H734.963V75H738.963ZM736.963 6.5H756.563V2.5H736.963V6.5ZM754.563 4.5V31H758.563V4.5H754.563ZM756.563 33H780.463V29H756.563V33ZM782.463 31V4.5H778.463V31H782.463ZM780.463 6.5H800.063V2.5H780.463V6.5Z" fill="#F4E5D4" fill-opacity="0.5"/>
</g>
<defs>
<filter id="filter0_d_746_5825" x="0.200195" y="0.400391" width="811.863" height="84.2998" filterUnits="userSpaceOnUse" color-interpolation-filters="sRGB">
<feFlood flood-opacity="0" result="BackgroundImageFix"/>
<feColorMatrix in="SourceAlpha" type="matrix" values="0 0 0 0 0 0 0 0 0 0 0 0 0 0 0 0 0 0 127 0" result="hardAlpha"/>
<feOffset dx="6" dy="3"/>
<feGaussianBlur stdDeviation="2"/>
<feComposite in2="hardAlpha" operator="out"/>
<feColorMatrix type="matrix" values="0 0 0 0 0.980392 0 0 0 0 0.952941 0 0 0 0 0.917647 0 0 0 1 0"/>
<feBlend mode="normal" in2="BackgroundImageFix" result="effect1_dropShadow_746_5825"/>
<feBlend mode="normal" in="SourceGraphic" in2="effect1_dropShadow_746_5825" result="shape"/>
</filter>
</defs>
</svg>
