<svg width="107" height="89" viewBox="0 0 107 89" fill="none" xmlns="http://www.w3.org/2000/svg">
<path d="M55.4651 48.2061H51.3672V50.9665H55.4651V48.2061Z" fill="#D4D4D4"/>
<path d="M55.5908 10.7266H51.7402V11.8937H55.5908V10.7266Z" fill="#D4D4D4"/>
<path d="M55.3299 9.86621H52V10.7274H55.3299V9.86621Z" fill="#D4D4D4"/>
<path d="M55.0936 9.2832H52.2344V9.92858H55.0936V9.2832Z" fill="#D4D4D4"/>
<path d="M54.7827 8.63867H52.5439V9.28405H54.7827V8.63867Z" fill="#D4D4D4"/>
<path d="M54.6091 8.11621H52.7207V8.63794H54.6091V8.11621Z" fill="#D4D4D4"/>
<path d="M54.4458 7.70508H52.8828V8.1281H54.4458V7.70508Z" fill="#D4D4D4"/>
<path d="M54.3004 7.30957H53.0303V7.73042H54.3004V7.30957Z" fill="#D4D4D4"/>
<path d="M53.9883 6.31641H53.3418V7.33381H53.9883V6.31641Z" fill="#D4D4D4"/>
<path d="M53.8178 0.126953H53.5098V6.53949H53.8178V0.126953Z" fill="#D4D4D4"/>
<path d="M53.9888 6.13115C53.9888 6.29385 53.8543 6.42617 53.6905 6.42617C53.5289 6.42617 53.3955 6.29385 53.3955 6.13115V5.46624C53.3955 5.30246 53.5289 5.16797 53.6905 5.16797C53.8543 5.16797 53.9888 5.30246 53.9888 5.46624V6.13115Z" fill="#D4D4D4"/>
<path d="M53.9888 5.73369C53.9888 5.89639 53.8543 6.0298 53.6905 6.0298C53.5289 6.0298 53.3955 5.89639 53.3955 5.73369V5.06662C53.3955 4.90392 53.5289 4.77051 53.6905 4.77051C53.8543 4.77051 53.9888 4.90392 53.9888 5.06662V5.73369Z" fill="#E6E6E6"/>
<path d="M53.9888 0.964258C53.9888 1.12696 53.8543 1.25929 53.6905 1.25929C53.5289 1.25929 53.3955 1.12804 53.3955 0.964258V0.295016C53.3955 0.133401 53.5289 0 53.6905 0C53.8543 0 53.9888 0.133401 53.9888 0.295016V0.964258Z" fill="#D4D4D4"/>
<path d="M54.137 4.49087C54.137 4.54945 54.0773 4.59716 54.0003 4.59716H53.3278C53.2541 4.59716 53.1934 4.54945 53.1934 4.49087C53.1934 4.43339 53.2541 4.38674 53.3278 4.38674H54.0003C54.0773 4.38565 54.137 4.43339 54.137 4.49087Z" fill="#D4D4D4"/>
<path d="M54.0321 4.14146C54.0321 4.20003 53.9865 4.24993 53.9268 4.24993H53.4073C53.3476 4.24993 53.2988 4.20003 53.2988 4.14146C53.2988 4.08289 53.3476 4.03516 53.4073 4.03516H53.9268C53.9854 4.03624 54.0321 4.08397 54.0321 4.14146Z" fill="#D4D4D4"/>
<path d="M53.9088 3.74291C53.9088 3.80148 53.8762 3.85029 53.8383 3.85029H53.4912C53.4543 3.85029 53.4229 3.80148 53.4229 3.74291C53.4229 3.68759 53.4543 3.6377 53.4912 3.6377H53.8383C53.8773 3.6377 53.9088 3.68759 53.9088 3.74291Z" fill="#D4D4D4"/>
<path d="M54.1645 11.7754H53.2197V12.4804H54.1645V11.7754Z" fill="#D4D4D4"/>
<path d="M54.2958 12.4385H53.0918V13.1403H54.2958V12.4385Z" fill="#D4D4D4"/>
<path d="M54.4458 13.1406H52.8828V13.8467H54.4458V13.1406Z" fill="#D4D4D4"/>
<path d="M54.6091 13.8467H52.7207V14.5495H54.6091V13.8467Z" fill="#D4D4D4"/>
<path d="M54.7827 14.5498H52.5439V15.2538H54.7827V14.5498Z" fill="#D4D4D4"/>
<path d="M54.9709 15.2539H52.3623V15.9589H54.9709V15.2539Z" fill="#D4D4D4"/>
<path d="M56.0413 19.712C55.4426 17.9288 55.1204 16.6619 55.1204 16.6619H54.295V16.4385H53.0911V16.6619H52.2005C52.2005 16.6619 51.8784 17.9277 51.2829 19.712C50.6875 21.4941 50.9098 24.9835 50.9098 24.9835H53.0911H53.6312H53.6931H54.295H56.4134C56.4134 24.9835 56.6379 21.4941 56.0413 19.712Z" fill="#E6E6E6"/>
<path d="M55.2076 15.959H52.125V16.6618H55.2076V15.959Z" fill="#D4D4D4"/>
<path d="M56.6573 25.7764H50.709V26.8578H56.6573V25.7764Z" fill="#D4D4D4"/>
<path opacity="0.3" d="M56.6573 25.7764H50.709V26.8578H56.6573V25.7764Z" fill="#C1C1C1"/>
<path d="M56.8806 26.5723H50.4844V27.6537H56.8806V26.5723Z" fill="#D4D4D4"/>
<path d="M57.126 27.3682H50.2373V28.4485H57.126V27.3682Z" fill="#D4D4D4"/>
<path d="M57.2894 28.1631H50.0742V29.2445H57.2894V28.1631Z" fill="#D4D4D4"/>
<path d="M57.0027 28.959H50.3613V30.0371H57.0027V28.959Z" fill="#D4D4D4"/>
<path d="M57.2894 29.7559H50.0742V32.832H57.2894V29.7559Z" fill="#D4D4D4"/>
<path opacity="0.3" d="M57.2894 29.7559H50.0742V32.832H57.2894V29.7559Z" fill="#C1C1C1"/>
<path d="M57.67 30.9463H49.6934V31.6231H57.67V30.9463Z" fill="#D4D4D4"/>
<path d="M57.8857 31.6971C57.8857 31.9325 57.7393 32.1234 57.5549 32.1234H49.8071C49.626 32.1234 49.4785 31.9314 49.4785 31.6971C49.4785 31.4606 49.626 31.2676 49.8071 31.2676H57.5549C57.7393 31.2676 57.8857 31.4606 57.8857 31.6971Z" fill="#D4D4D4"/>
<path d="M57.8018 32.8884C57.8018 33.1205 57.6565 33.3082 57.4775 33.3082H49.8849C49.707 33.3082 49.5605 33.1205 49.5605 32.8884C49.5605 32.6574 49.7059 32.4697 49.8849 32.4697H57.4775C57.6565 32.4697 57.8018 32.6574 57.8018 32.8884Z" fill="#D4D4D4"/>
<path d="M59.9225 40.0456C59.9225 40.2767 59.7045 40.4632 59.4323 40.4632H47.9326C47.6614 40.4632 47.4424 40.2767 47.4424 40.0456C47.4424 39.8146 47.6614 39.627 47.9326 39.627H59.4323C59.7045 39.627 59.9225 39.8146 59.9225 40.0456Z" fill="#D4D4D4"/>
<path d="M59.4263 38.456C59.4263 38.687 59.2234 38.8747 58.9761 38.8747H48.3887C48.1403 38.8747 47.9375 38.687 47.9375 38.456C47.9375 38.2217 48.1403 38.0352 48.3887 38.0352H58.9761C59.2234 38.0352 59.4263 38.2217 59.4263 38.456Z" fill="#D4D4D4"/>
<path d="M59.7251 39.2507C59.7251 39.4807 59.5125 39.6694 59.25 39.6694H48.1149C47.8524 39.6694 47.6387 39.4807 47.6387 39.2507C47.6387 39.0197 47.8524 38.832 48.1149 38.832H59.25C59.5125 38.831 59.7251 39.0186 59.7251 39.2507Z" fill="#D4D4D4"/>
<path d="M59.0042 37.2626C59.0042 37.4937 58.8166 37.6803 58.5834 37.6803H48.7769C48.5448 37.6803 48.3594 37.4937 48.3594 37.2626C48.3594 37.0305 48.5448 36.8418 48.7769 36.8418H58.5834C58.8166 36.8418 59.0042 37.0305 59.0042 37.2626Z" fill="#D4D4D4"/>
<path d="M60.2715 41.2413C60.2715 41.5266 60.0404 41.7587 59.753 41.7587H47.6113C47.326 41.7587 47.0928 41.5266 47.0928 41.2413C47.0928 40.9517 47.326 40.7207 47.6113 40.7207H59.753C60.0393 40.7207 60.2715 40.9517 60.2715 41.2413Z" fill="#D4D4D4"/>
<path d="M57.6708 28.7043C57.6708 28.9266 57.5287 29.1056 57.3584 29.1056H50.0651C49.8937 29.1056 49.7549 28.9266 49.7549 28.7043C49.7549 28.4819 49.8937 28.3008 50.0651 28.3008H57.3584C57.5287 28.3008 57.6708 28.4808 57.6708 28.7043Z" fill="#D4D4D4"/>
<path d="M57.1187 33.0889H53.6608H53.6576H50.1975L46.7461 42.635H53.6576H53.6608H60.5723L57.1187 33.0889Z" fill="#D4D4D4"/>
<path d="M57.8857 34.5777C57.8857 34.8294 57.6818 35.0333 57.4291 35.0333H49.9351C49.6835 35.0333 49.4785 34.8294 49.4785 34.5777C49.4785 34.3261 49.6835 34.1211 49.9351 34.1211H57.4291C57.6818 34.1222 57.8857 34.3272 57.8857 34.5777Z" fill="#D4D4D4"/>
<path d="M58.5151 36.1684C58.5151 36.4591 58.2809 36.6934 57.9902 36.6934H49.3725C49.0829 36.6934 48.8486 36.4591 48.8486 36.1684C48.8486 35.8788 49.0829 35.6445 49.3725 35.6445H57.9902C58.2809 35.6445 58.5151 35.8788 58.5151 36.1684Z" fill="#D4D4D4"/>
<path d="M60.9157 42.1347C60.9157 42.5664 60.5654 42.9167 60.1326 42.9167H47.2316C46.7999 42.9167 46.4463 42.5664 46.4463 42.1347C46.4463 41.7019 46.7999 41.3516 47.2316 41.3516H60.1326C60.5643 41.3505 60.9157 41.7019 60.9157 42.1347Z" fill="#D4D4D4"/>
<path d="M63.3733 44.9265C63.3733 46.3941 62.1845 47.5829 60.718 47.5829H46.6001C45.1314 47.5829 43.9404 46.3941 43.9404 44.9265C43.9404 43.4622 45.1314 42.2734 46.6001 42.2734H60.718C62.1834 42.2734 63.3733 43.4633 63.3733 44.9265Z" fill="#D4D4D4"/>
<path d="M63.9993 47.6831C63.9993 48.3979 63.4201 48.9814 62.701 48.9814H44.612C43.894 48.9814 43.3115 48.3979 43.3115 47.6831C43.3115 46.9651 43.894 46.3848 44.612 46.3848H62.701C63.4201 46.3848 63.9993 46.9662 63.9993 47.6831Z" fill="#D4D4D4"/>
<path d="M55.6475 48.5275L54.5845 59.7038L35.7656 60.3026C35.7656 60.3026 44.0221 53.6471 43.9407 48.1316C43.8615 42.6171 55.6475 48.5275 55.6475 48.5275Z" fill="#D4D4D4"/>
<path d="M49.5542 54.8369C49.5542 55.1255 49.3211 55.3597 49.0326 55.3597H41.1546C40.8672 55.3597 40.6318 55.1255 40.6318 54.8369C40.6318 54.5506 40.8661 54.3174 41.1546 54.3174H49.0326C49.3211 54.3174 49.5542 54.5506 49.5542 54.8369Z" fill="#D4D4D4"/>
<path d="M43.1906 55.8083C43.1906 56.0556 42.9899 56.2563 42.7426 56.2563H40.2848C40.0375 56.2563 39.8379 56.0556 39.8379 55.8083C39.8379 55.5599 40.0385 55.3604 40.2848 55.3604H42.7426C42.9899 55.3604 43.1906 55.5589 43.1906 55.8083Z" fill="#D4D4D4"/>
<path d="M42.6602 56.5348C42.6602 56.781 42.4607 56.9827 42.2134 56.9827H39.7555C39.5082 56.9827 39.3086 56.781 39.3086 56.5348C39.3086 56.2875 39.5082 56.0879 39.7555 56.0879H42.2134C42.4607 56.089 42.6602 56.2875 42.6602 56.5348Z" fill="#D4D4D4"/>
<path d="M41.9155 57.232C41.9155 57.4793 41.7149 57.68 41.4686 57.68H39.0076C38.7613 57.68 38.5596 57.4793 38.5596 57.232C38.5596 56.9847 38.7613 56.7852 39.0076 56.7852H41.4686C41.716 56.7852 41.9155 56.9837 41.9155 57.232Z" fill="#D4D4D4"/>
<path d="M40.8067 58.0262C40.8067 58.2713 40.605 58.4731 40.3588 58.4731H37.902C37.6547 58.4731 37.4541 58.2713 37.4541 58.0262C37.4541 57.7789 37.6547 57.5771 37.902 57.5771H40.3588C40.6061 57.5771 40.8067 57.7789 40.8067 58.0262Z" fill="#D4D4D4"/>
<path d="M40.0596 58.9206C40.0596 59.1668 39.8589 59.3675 39.6127 59.3675H37.1549C36.9087 59.3675 36.708 59.1668 36.708 58.9206C36.708 58.6733 36.9087 58.4727 37.1549 58.4727H39.6127C39.86 58.4727 40.0596 58.6733 40.0596 58.9206Z" fill="#D4D4D4"/>
<path d="M39.3076 59.7125C39.3076 59.9609 39.1059 60.1615 38.8597 60.1615H36.4018C36.1567 60.1615 35.9561 59.9609 35.9561 59.7125C35.9561 59.4663 36.1567 59.2656 36.4018 59.2656H38.8597C39.1059 59.2656 39.3076 59.4663 39.3076 59.7125Z" fill="#D4D4D4"/>
<path d="M53.7935 48.5275L52.8672 59.7038L71.6872 60.3026C71.6872 60.3026 63.4275 53.6471 63.5077 48.1316C63.588 42.6171 53.7935 48.5275 53.7935 48.5275Z" fill="#D4D4D4"/>
<path d="M57.8984 54.8369C57.8984 55.1255 58.1349 55.3597 58.4212 55.3597H66.2937C66.5833 55.3597 66.8165 55.1255 66.8165 54.8369C66.8165 54.5506 66.5844 54.3174 66.2937 54.3174H58.4212C58.1349 54.3174 57.8984 54.5506 57.8984 54.8369Z" fill="#D4D4D4"/>
<path d="M64.2578 55.8083C64.2578 56.0556 64.4585 56.2563 64.7036 56.2563H67.1636C67.4109 56.2563 67.6116 56.0556 67.6116 55.8083C67.6116 55.5599 67.4109 55.3604 67.1636 55.3604H64.7036C64.4585 55.3604 64.2578 55.5589 64.2578 55.8083Z" fill="#D4D4D4"/>
<path d="M64.7871 56.5348C64.7871 56.781 64.9878 56.9827 65.234 56.9827H67.694C67.9381 56.9827 68.1409 56.781 68.1409 56.5348C68.1409 56.2875 67.9381 56.0879 67.694 56.0879H65.234C64.9878 56.089 64.7871 56.2875 64.7871 56.5348Z" fill="#D4D4D4"/>
<path d="M65.5322 57.232C65.5322 57.4793 65.7307 57.68 65.9802 57.68H68.4381C68.6854 57.68 68.8849 57.4793 68.8849 57.232C68.8849 56.9847 68.6864 56.7852 68.4381 56.7852H65.9802C65.7318 56.7852 65.5322 56.9837 65.5322 57.232Z" fill="#D4D4D4"/>
<path d="M66.6396 58.0262C66.6396 58.2713 66.8414 58.4731 67.0887 58.4731H69.5477C69.795 58.4731 69.9945 58.2713 69.9945 58.0262C69.9945 57.7789 69.7961 57.5771 69.5477 57.5771H67.0887C66.8414 57.5771 66.6396 57.7789 66.6396 58.0262Z" fill="#D4D4D4"/>
<path d="M67.3857 58.9206C67.3857 59.1668 67.5864 59.3675 67.8337 59.3675H70.2938C70.5411 59.3675 70.7417 59.1668 70.7417 58.9206C70.7417 58.6733 70.5411 58.4727 70.2938 58.4727H67.8337C67.5853 58.4727 67.3857 58.6733 67.3857 58.9206Z" fill="#D4D4D4"/>
<path d="M68.1406 59.7125C68.1406 59.9609 68.3413 60.1615 68.5875 60.1615H71.0464C71.2948 60.1615 71.4933 59.9609 71.4933 59.7125C71.4933 59.4663 71.2959 59.2656 71.0464 59.2656H68.5875C68.3413 59.2656 68.1406 59.4663 68.1406 59.7125Z" fill="#D4D4D4"/>
<path d="M73.2589 61.0969H34.1914L34.9886 59.5068H72.4627L73.2589 61.0969Z" fill="#D4D4D4"/>
<path d="M74.1942 62.2913H33.2578L34.0908 60.7012H73.36L74.1942 62.2913Z" fill="#D4D4D4"/>
<path d="M75.254 63.4837H32.1982L33.0768 61.8936H74.3754L75.254 63.4837Z" fill="#D4D4D4"/>
<path d="M75.254 65.0756H32.1982L33.0768 63.4844H74.3754L75.254 65.0756Z" fill="#D4D4D4"/>
<path opacity="0.3" d="M75.254 65.0756H32.1982L33.0768 63.4844H74.3754L75.254 65.0756Z" fill="#C1C1C1"/>
<path d="M77.4875 66.6652H29.9629L30.9304 65.0762H76.521L77.4875 66.6652Z" fill="#D4D4D4"/>
<path d="M80.9159 67.8585H26.5352L27.6426 66.2705H79.8084L80.9159 67.8585Z" fill="#D4D4D4"/>
<path d="M83.6967 69.4506H23.7549L24.9729 67.8594H82.4775L83.6967 69.4506Z" fill="#E6E6E6"/>
<path d="M85.2362 70.6436H22.2139L23.4971 69.0557H83.9541L85.2362 70.6436Z" fill="#D4D4D4"/>
<path d="M86.8274 73.4288H21.4199L22.7508 71.8408H85.4954L86.8274 73.4288Z" fill="#D4D4D4"/>
<path d="M87.2248 73.4288H21.8174L23.1493 71.8408H85.894L87.2248 73.4288Z" fill="#D4D4D4"/>
<path d="M97.2185 81.8296H96.1707L94.8181 80.6972H93.7487L92.4048 79.5019H90.9741L89.641 78.2383H17.1127L15.7819 79.5019H15.0487L13.7026 80.6972H12.632L11.2827 81.8296H10.2349L8.3877 83.2896H99.0624L97.2185 81.8296Z" fill="#D4D4D4"/>
<path d="M97.2185 81.8296H96.1707L94.8181 80.6972H93.7487L92.4048 79.5019H90.9741L89.641 78.2383H17.1127L15.7819 79.5019H15.0487L13.7026 80.6972H12.632L11.2827 81.8296H10.2349L8.3877 83.2896H99.0624L97.2185 81.8296Z" fill="#D4D4D4"/>
<path d="M89.3117 78.2383H18.9375L20.3693 73.0352H87.8788L89.3117 78.2383Z" fill="#D4D4D4"/>
<path d="M83.0113 70.6436H24.4395V71.8399H83.0113V70.6436Z" fill="#D4D4D4"/>
<path opacity="0.6" d="M83.0113 70.6436H24.4395V71.8399H83.0113V70.6436Z" fill="#C1C1C1"/>
<path d="M56.7296 24.9834H50.6338V26.0627H56.7296V24.9834Z" fill="#D4D4D4"/>
<path opacity="0.3" d="M87.8982 73.0346H86.9123L85.9133 71.8404H85.5153H83.0325V70.644H85.2593L83.9739 69.056H83.4131L82.4999 67.8607H66.6063V67.8596H80.9358L79.8273 66.2717H77.2663L76.5418 65.0775H66.6063L75.2727 65.0764L74.3963 63.4852H66.6063V63.4841H75.2727L74.3963 61.8951H74.0059L73.38 60.7019H73.0806L72.4841 59.5077H71.4558C71.381 59.3689 71.2389 59.268 71.0664 59.268H70.5826C70.6889 59.1878 70.7627 59.0652 70.7627 58.922C70.7627 58.6747 70.5598 58.474 70.3125 58.474H69.6704C69.6639 58.4686 69.6596 58.4632 69.652 58.4556C69.857 58.4166 70.0154 58.2441 70.0154 58.0282C70.0154 57.7809 69.8147 57.5792 69.5674 57.5792H68.7767C68.7702 57.5727 68.7647 57.5673 68.7582 57.5618C68.8483 57.4805 68.9057 57.3644 68.9057 57.2332C68.9057 56.9859 68.7051 56.7863 68.4578 56.7863H68.076C68.1237 56.7125 68.1606 56.629 68.1606 56.5368C68.1606 56.2895 67.961 56.09 67.7137 56.09H67.5228C67.5868 56.0129 67.6291 55.9153 67.6291 55.809C67.6291 55.5606 67.4295 55.3611 67.1822 55.3611H66.8091C66.7679 55.309 66.7256 55.2548 66.6844 55.2049C66.7787 55.1116 66.8341 54.9836 66.8341 54.8393C66.8341 54.553 66.6019 54.3198 66.3145 54.3198H66.0151C64.732 52.5377 63.6993 50.5603 63.5475 48.6817C63.8349 48.4441 64.0237 48.0884 64.0237 47.6849C64.0237 47.0634 63.5833 46.5449 63.0009 46.4158C62.9878 46.4028 62.9759 46.3876 62.9618 46.3746C63.233 45.9581 63.3924 45.4635 63.3924 44.9277C63.3924 43.523 62.3012 42.3765 60.9204 42.2832C60.9302 42.2355 60.9367 42.1867 60.9367 42.1357C60.9367 41.742 60.6438 41.4177 60.2653 41.3624C60.2761 41.3233 60.2914 41.2854 60.2914 41.2431C60.2914 41.0044 60.1276 40.8114 59.9106 40.7495L59.7686 40.3612C59.8738 40.2842 59.9443 40.1758 59.9443 40.0478C59.9443 39.8341 59.7512 39.6638 59.5093 39.6389L59.4985 39.6128C59.6427 39.5391 59.7447 39.4089 59.7447 39.2527C59.7447 39.0217 59.531 38.834 59.2685 38.834H59.2186L59.2121 38.8178C59.3488 38.7473 59.4464 38.6149 59.4464 38.4587C59.4464 38.2244 59.2457 38.0379 58.9963 38.0379H58.9301L58.7847 37.6398C58.9257 37.5715 59.0245 37.4305 59.0245 37.2656C59.0245 37.0335 58.8379 36.8447 58.6069 36.8447H58.5017L58.3856 36.5367C58.4789 36.4402 58.5375 36.3143 58.5375 36.1712C58.5375 35.9022 58.3314 35.6885 58.0699 35.6603L57.7858 34.8815C57.8596 34.8002 57.9051 34.6971 57.9051 34.5821C57.9051 34.3544 57.737 34.1754 57.5201 34.1407L57.2185 33.312H57.4994C57.6773 33.312 57.8227 33.1244 57.8227 32.8922C57.8227 32.6612 57.6773 32.4736 57.4994 32.4736H57.3096V32.1275H57.5753C57.7565 32.1275 57.9051 31.9356 57.9051 31.7013C57.9051 31.5169 57.8151 31.3629 57.6903 31.3043V30.9507H57.3096V29.7586H57.0233V29.2478H57.3096V29.11H57.3779C57.5526 29.11 57.6903 28.931 57.6903 28.7087C57.6903 28.4863 57.5526 28.3052 57.3779 28.3052H57.3096V28.1674H57.1491V27.3724H56.8996V26.5762H56.6772V26.0664H56.751V24.9872H56.4343C56.4343 24.9872 56.6599 21.4989 56.0622 19.7157C55.4635 17.9325 55.1413 16.6656 55.1413 16.6656H55.2259V15.9628H54.9895V15.2577H54.804V14.5538H54.6294V13.8509H54.4689V13.1448H54.3149V12.443H54.1847V11.8975H55.6143V10.7304H55.3518V9.86915H55.1153V9.28668H54.804V8.6413H54.6294V8.12067H54.4689V7.70849H54.3181V7.31258H54.0079V6.31903H53.9374C53.9797 6.26913 54.0079 6.20623 54.0079 6.13464V5.73656V5.46866V5.0695C54.0079 4.95236 53.9396 4.85474 53.8398 4.80593V4.59875H54.0198C54.0957 4.59875 54.1565 4.55104 54.1565 4.49246C54.1565 4.43498 54.0957 4.38833 54.0198 4.38833H53.8398V4.25274H53.9472C54.0036 4.25274 54.0502 4.20286 54.0502 4.14429C54.0502 4.08572 54.0025 4.03798 53.9472 4.03798H53.8398V3.8525H53.856C53.8961 3.8525 53.9265 3.80369 53.9265 3.74512C53.9265 3.6898 53.8951 3.63991 53.856 3.63991H53.8398V1.22871C53.9396 1.1799 54.0079 1.08227 54.0079 0.966212V0.296969C54.0079 0.135354 53.8755 0.00195312 53.7118 0.00195312C53.6922 0.00195312 53.6749 0.00845515 53.6543 0.0127938V78.2399H89.331L87.8982 73.0346ZM53.7476 49.3336L53.7161 48.9811H53.7747L53.7476 49.3336Z" fill="#C1C1C1"/>
<path opacity="0.3" d="M87.8802 73.0346H86.8954L85.8964 71.8404H85.4983H83.0155V70.644H85.2391L83.9581 69.056H83.3963L82.4797 67.8607H66.5915V67.8596H80.9189L79.8147 66.2717H77.2516L76.526 65.0775H66.5915L75.2559 65.0764L74.3805 63.4852H66.5915V63.4841H75.2559L74.3805 61.8951H73.9889L73.3631 60.7019H73.0648L72.4683 59.5077H71.4389C71.363 59.3689 71.2198 59.268 71.0506 59.268H70.5669C70.6699 59.1878 70.7447 59.0652 70.7447 58.922C70.7447 58.6747 70.543 58.474 70.2968 58.474H69.6535C69.6459 58.4686 69.6395 58.4632 69.6351 58.4556C69.8401 58.4166 69.9984 58.2441 69.9984 58.0282C69.9984 57.7809 69.7967 57.5792 69.5505 57.5792H68.7609C68.7533 57.5727 68.7457 57.5673 68.7413 57.5618C68.8292 57.4805 68.8889 57.3644 68.8889 57.2332C68.8889 56.9859 68.6882 56.7863 68.442 56.7863H68.058C68.1068 56.7125 68.1437 56.629 68.1437 56.5368C68.1437 56.2895 67.943 56.09 67.6979 56.09H67.5049C67.5678 56.0129 67.6133 55.9153 67.6133 55.809C67.6133 55.5606 67.4126 55.3611 67.1664 55.3611H66.7911C66.7499 55.309 66.7087 55.2548 66.6686 55.2049C66.7619 55.1116 66.8183 54.9836 66.8183 54.8393C66.8183 54.553 66.585 54.3198 66.2954 54.3198H65.9972C64.714 52.5377 63.6781 50.5603 63.5285 48.6817C63.817 48.4441 64.0046 48.0884 64.0046 47.6849C64.0046 47.0634 63.5664 46.5449 62.9839 46.4158C62.972 46.4028 62.9601 46.3876 62.9481 46.3746C63.2171 45.9581 63.3777 45.4635 63.3777 44.9277C63.3777 43.523 62.2865 42.3765 60.9068 42.2832C60.9155 42.2355 60.922 42.1867 60.922 42.1357C60.922 41.742 60.6324 41.4177 60.2517 41.3624C60.2625 41.3233 60.2766 41.2854 60.2766 41.2431C60.2766 41.0044 60.115 40.8114 59.8959 40.7495L59.756 40.3612C59.8579 40.2842 59.9274 40.1758 59.9274 40.0478C59.9274 39.8341 59.7375 39.6638 59.4935 39.6389L59.4848 39.6128C59.628 39.5391 59.7289 39.4089 59.7289 39.2527C59.7289 39.0217 59.5173 38.834 59.2527 38.834H59.2039L59.1974 38.8178C59.333 38.7473 59.4295 38.6149 59.4295 38.4587C59.4295 38.2244 59.2277 38.0379 58.9793 38.0379H58.9132L58.77 37.6398C58.9099 37.5715 59.0075 37.4305 59.0075 37.2656C59.0075 37.0335 58.821 36.8447 58.59 36.8447H58.4826L58.3709 36.5367C58.4631 36.4402 58.5206 36.3143 58.5206 36.1712C58.5206 35.9022 58.3145 35.6885 58.0542 35.6603L57.77 34.8815C57.8426 34.8002 57.8882 34.6971 57.8882 34.5821C57.8882 34.3544 57.7201 34.1754 57.5032 34.1407L57.2027 33.312H57.4814C57.6637 33.312 57.808 33.1244 57.808 32.8922C57.808 32.6612 57.6637 32.4736 57.4814 32.4736H57.2938V32.1275H57.5617C57.7451 32.1275 57.8904 31.9356 57.8904 31.7013C57.8904 31.5169 57.7982 31.3629 57.6756 31.3043V30.9507H57.2949V29.7586H57.0086V29.2478H57.2949V29.11H57.3643C57.5357 29.11 57.6756 28.931 57.6756 28.7087C57.6756 28.4863 57.5368 28.3052 57.3643 28.3052H57.2949V28.1674H57.1333V27.3724H56.8859V26.5762H56.6625V26.0664H56.7363V24.9872H56.4207C56.4207 24.9872 56.6462 21.4989 56.0497 19.7157C55.4499 17.9325 55.1266 16.6656 55.1266 16.6656H55.2123V15.9628H54.9759V15.2577H54.7904V14.5538H54.6147V13.8509H54.4541V13.1448H54.3023V12.443H54.1722V11.8975H55.5984V10.7304H55.336V9.86915H55.0984V9.28668H54.7904V8.6413H54.6147V8.12067H54.4541V7.70849H54.3044V7.31258H53.9943V6.31903H53.9226C53.966 6.26913 53.9943 6.20623 53.9943 6.13464V5.73656V5.46866V5.0695C53.9943 4.95236 53.9248 4.85474 53.8261 4.80593V4.59875H54.0051C54.081 4.59875 54.1428 4.55104 54.1428 4.49246C54.1428 4.43498 54.081 4.38833 54.0051 4.38833H53.8261V4.25274H53.9303C53.9899 4.25274 54.0355 4.20286 54.0355 4.14429C54.0355 4.08572 53.9899 4.03798 53.9303 4.03798H53.8261V3.8525H53.8424C53.8825 3.8525 53.914 3.80369 53.914 3.74512C53.914 3.6898 53.8815 3.63991 53.8424 3.63991H53.8261V1.22871C53.9237 1.1799 53.9943 1.08227 53.9943 0.966212V0.296969C53.9943 0.135354 53.8597 0.00195312 53.697 0.00195312C53.6786 0.00195312 53.6601 0.00845515 53.6406 0.0127938V78.2399H89.3163L87.8802 73.0346ZM53.7274 49.3336L53.6992 48.9811H53.76L53.7274 49.3336Z" fill="#C1C1C1"/>
<path d="M67.3875 71.8408H39.1309V78.2393H67.3875V71.8408Z" fill="#DCDCDC"/>
<path opacity="0.6" d="M40.5149 71.8408H39.1309V78.2393H40.5149V71.8408Z" fill="#C1C1C1"/>
<path opacity="0.6" d="M44.9938 71.8408H43.6055V78.2393H44.9938V71.8408Z" fill="#C1C1C1"/>
<path opacity="0.6" d="M49.475 71.8408H48.0889V78.2393H49.475V71.8408Z" fill="#C1C1C1"/>
<path opacity="0.6" d="M53.9547 71.8408H52.5674V78.2393H53.9547V71.8408Z" fill="#C1C1C1"/>
<path opacity="0.6" d="M58.4354 71.8408H57.0459V78.2393H58.4354V71.8408Z" fill="#C1C1C1"/>
<path opacity="0.6" d="M62.9103 71.8408H61.5273V78.2393H62.9103V71.8408Z" fill="#C1C1C1"/>
<path opacity="0.3" d="M67.387 71.8408H66.0029V78.2393H67.387V71.8408Z" fill="#C1C1C1"/>
<path opacity="0.3" d="M67.387 71.8408H66.0029V78.2393H67.387V71.8408Z" fill="#C1C1C1"/>
<path opacity="0.3" d="M67.387 71.8408H66.0029V78.2393H67.387V71.8408Z" fill="#BABABA"/>
<path opacity="0.3" d="M94.8186 80.6972H93.7492L92.4052 79.5019H90.9745L89.6415 78.2383H53.6816V83.2896H99.0629L97.219 81.8296H96.1712L94.8186 80.6972Z" fill="#C1C1C1"/>
<path d="M104.47 81.6963H3.12891V88.2596H104.47V81.6963Z" fill="#838383"/>
<path d="M53.6551 84.1475C49.9781 84.1475 46.9932 84.9946 46.9932 86.037V88.2594H60.3182V86.037C60.3182 84.9946 57.3354 84.1475 53.6551 84.1475Z" fill="#707070"/>
<path d="M42.9644 83.3047H40.8037V88.2605H42.9644V83.3047Z" fill="#707070"/>
<path d="M66.4361 83.3047H64.2744V88.2605H66.4361V83.3047Z" fill="#707070"/>
<path opacity="0.2" d="M5.93651 88.2596C7.72186 86.3864 11.6939 85.0794 16.3168 85.0794C20.9407 85.0794 24.9116 86.3864 26.6948 88.2596H33.4869C37.2854 86.3864 45.7654 85.0794 55.6282 85.0794C65.4889 85.0794 73.9688 86.3864 77.7706 88.2596H84.2829C86.0639 86.3864 90.0371 85.0794 94.6588 85.0794C99.2849 85.0794 103.256 86.3864 105.037 88.2596H105.329V82.8916H83.4575H81.6048H29.3717H27.7968H3.26172V88.2596H5.93651Z" fill="#696969"/>
<path opacity="0.3" d="M66.9596 55.2921C66.9596 55.4873 66.7894 55.6468 66.5789 55.6468H41.1121C40.9006 55.6468 40.7324 55.4873 40.7324 55.2921C40.7324 55.0968 40.9006 54.9385 41.1121 54.9385H66.5778C66.7893 54.9385 66.9596 55.0968 66.9596 55.2921Z" fill="#C1C1C1"/>
<path d="M81.4704 81.6963H79.6178H27.3825H25.8087H1.27246V88.2596H3.14355C4.14903 85.7681 8.77405 83.8873 14.3286 83.8873C19.8843 83.8873 24.506 85.7681 25.5115 88.2596H25.8076H27.3815H29.7948C31.9381 85.7681 41.7912 83.8873 53.6379 83.8873C65.4814 83.8873 75.3377 85.7681 77.4799 88.2596H79.6167H81.4693H81.4856C82.4943 85.7681 87.115 83.8873 92.6696 83.8873C98.2252 83.8873 102.849 85.7681 103.854 88.2596H105.726V81.6963H81.4704Z" fill="#9F9F9F"/>
<path opacity="0.4" d="M66.8612 54.7588C66.8612 55.0029 66.6898 55.2036 66.4793 55.2036H41.0136C40.8032 55.2036 40.6318 55.0029 40.6318 54.7588C40.6318 54.517 40.8032 54.3174 41.0136 54.3174H66.4793C66.6898 54.3174 66.8612 54.5159 66.8612 54.7588Z" fill="#E6E6E6"/>
<path d="M57.4144 81.7167C57.0597 79.8229 53.7428 78.3369 53.7428 78.3369C53.7428 78.3369 50.4271 79.8218 50.0713 81.7167H57.4144Z" fill="#AFAFAF"/>
<path d="M45.0822 81.7167C44.7265 79.8229 41.4106 78.3369 41.4106 78.3369C41.4106 78.3369 38.097 79.8218 37.7412 81.7167H45.0822Z" fill="#AFAFAF"/>
<path d="M69.3447 81.7167C68.9878 79.8229 65.6753 78.3369 65.6753 78.3369C65.6753 78.3369 62.3605 79.8218 62.0059 81.7167H69.3447Z" fill="#AFAFAF"/>
<path d="M16.9073 81.7167C16.6752 79.8229 14.507 78.3369 14.507 78.3369C14.507 78.3369 12.3387 79.8218 12.1055 81.7167H16.9073Z" fill="#AFAFAF"/>
<path d="M10.0362 81.7167C9.80407 79.8229 7.63475 78.3369 7.63475 78.3369C7.63475 78.3369 5.46758 79.8218 5.23438 81.7167H10.0362Z" fill="#AFAFAF"/>
<path d="M23.9149 81.7167C23.6839 79.8229 21.5157 78.3369 21.5157 78.3369C21.5157 78.3369 19.3485 79.8218 19.1143 81.7167H23.9149Z" fill="#AFAFAF"/>
<path d="M94.8514 81.7167C94.6214 79.8229 92.4532 78.3369 92.4532 78.3369C92.4532 78.3369 90.2839 79.8218 90.0518 81.7167H94.8514Z" fill="#AFAFAF"/>
<path d="M87.9801 81.7167C87.7502 79.8229 85.5809 78.3369 85.5809 78.3369C85.5809 78.3369 83.4127 79.8218 83.1816 81.7167H87.9801Z" fill="#AFAFAF"/>
<path d="M101.859 81.7167C101.628 79.8229 99.4599 78.3369 99.4599 78.3369C99.4599 78.3369 97.2906 79.8218 97.0596 81.7167H101.859Z" fill="#AFAFAF"/>
<path d="M105.728 81.4492H1.27344V82.6423H105.728V81.4492Z" fill="#AFAFAF"/>
<path d="M1.27341 82.6426H0V88.2601H1.27341V82.6426Z" fill="#9F9F9F"/>
<path d="M107 82.6426H105.727V88.2601H107V82.6426Z" fill="#9F9F9F"/>
</svg>
