<svg width="601" height="601" viewBox="0 0 601 601" fill="none" xmlns="http://www.w3.org/2000/svg">
<mask id="mask0_746_10570" style="mask-type:luminance" maskUnits="userSpaceOnUse" x="0" y="0" width="601" height="601">
<path d="M601 0H0V601H601V0Z" fill="white"/>
</mask>
<g mask="url(#mask0_746_10570)">
<path d="M518.879 336.641C515.563 331.456 512.327 326.223 509.903 320.577C503.308 305.215 503.172 287.917 504.041 271.221C504.911 254.524 506.668 237.624 503.508 221.206C500.349 204.788 491.293 188.49 476.158 181.387C457.515 172.638 439.038 177.37 419.485 175.676C392.16 173.307 370.259 153.312 347.754 137.636C333.965 128.031 316.938 119.463 300.947 124.628C284.302 130.004 275.285 148.159 260.189 156.995C228.714 175.417 187.181 155.707 153.273 157.716C139.951 158.506 125.39 162.946 118.793 174.547C106.626 195.943 122.117 219.131 104.565 239.658C89.7703 256.961 65.5082 266.172 65.7954 292.057C65.8309 295.268 66.2225 298.485 67.1245 301.566C68.3471 305.742 70.4759 309.583 72.4535 313.459C79.0261 326.341 84.164 340.578 82.8553 354.98C81.6805 367.911 75.4569 379.737 70.3914 391.691C65.3259 403.646 61.2923 416.949 64.7123 429.474C69.2309 446.022 85.2424 456.458 100.511 464.277C111.681 469.998 124.878 473.674 135.47 480.213C144.817 485.983 152.959 492.133 163.468 496.305C185.606 505.093 209.512 508.499 233.116 510.452C263.433 512.959 293.926 513.342 324.296 511.595C363.026 509.369 402.154 503.099 438.284 488.513C463.764 478.225 491.638 474.775 513.153 456.042C535.57 436.522 545.553 403.824 537.86 375.112C534.787 363.641 529.194 352.995 522.89 342.93C521.572 340.825 520.219 338.737 518.879 336.641Z" fill="#ECEFF4"/>
<path d="M492.228 331.311C491.082 332.694 489.765 334.007 488.269 335.229C483.785 338.891 478.752 341.803 474.438 345.68C463.96 355.095 463.188 366.418 458.866 379.55C458.552 380.502 458.043 381.544 457.422 382.343" stroke="#FC8F2C" stroke-width="1.7952" stroke-miterlimit="10" stroke-dasharray="8.98 8.98"/>
<mask id="mask1_746_10570" style="mask-type:alpha" maskUnits="userSpaceOnUse" x="63" y="123" width="478" height="390">
<path d="M518.88 336.641C515.564 331.456 512.328 326.223 509.904 320.577C503.309 305.215 503.172 287.917 504.042 271.221C504.912 254.524 506.669 237.624 503.509 221.206C500.35 204.788 491.294 188.49 476.159 181.387C457.516 172.638 439.039 177.37 419.486 175.676C392.161 173.307 370.26 153.312 347.755 137.636C333.966 128.031 316.939 119.463 300.948 124.628C284.303 130.004 275.286 148.159 260.19 156.995C228.715 175.417 187.182 155.707 153.274 157.716C139.952 158.506 125.391 162.946 118.794 174.547C106.627 195.943 122.118 219.131 104.566 239.658C89.7713 256.961 65.5092 266.172 65.7964 292.057C65.8319 295.268 66.2235 298.485 67.1255 301.566C68.3481 305.742 70.4769 309.583 72.4545 313.459C79.0271 326.341 84.165 340.578 82.8563 354.98C81.6814 367.911 75.4579 379.737 70.3924 391.691C65.3269 403.646 61.2933 416.949 64.7132 429.474C69.2319 446.022 85.2434 456.458 100.512 464.277C111.682 469.998 124.879 473.674 135.471 480.213C144.818 485.983 152.96 492.133 163.469 496.305C185.607 505.093 209.513 508.499 233.117 510.452C263.434 512.959 293.927 513.342 324.297 511.595C363.027 509.369 402.155 503.099 438.285 488.513C463.765 478.225 491.639 474.775 513.154 456.042C535.571 436.522 545.554 403.824 537.861 375.112C534.788 363.641 529.195 352.995 522.891 342.93C521.573 340.825 520.22 338.737 518.88 336.641Z" fill="#E9F5FC"/>
</mask>
<g mask="url(#mask1_746_10570)">
<path d="M607.992 449.671H-21.3584V521.75H607.992V449.671Z" fill="#FCE6D2"/>
</g>
<path d="M501.261 132.893C501.474 131.608 499.772 129.016 497.917 129.057C497.178 129.074 496.456 129.266 495.72 129.23C493.755 129.134 492.738 127.604 491.981 126.338C491.224 125.072 489.716 123.629 487.802 123.95C485.047 124.412 483.658 128.049 480.526 125.319C478.475 123.532 478.321 121.033 475.999 119.3C474.406 118.11 471.814 117.406 469.677 118.063C466.889 118.921 465.852 121.685 462.883 122.166C459.594 122.699 457.229 120.197 456.179 118.393C454.906 116.203 454.432 113.836 453.341 111.608C452.331 109.546 450.3 106.783 446.661 106.843C443.584 106.894 442.228 108.841 440.717 110.388C438.753 112.399 434.67 119.621 430.092 118.75C428.307 118.411 427.415 116.993 425.805 116.358C423.215 115.337 419.914 116.74 418.354 118.505C416.794 120.27 416.175 122.4 414.412 124.07C413.956 124.502 413.403 124.909 412.686 125.105C410.224 125.779 407.931 123.706 405.294 123.552C403.474 123.446 401.786 124.301 400.74 125.344C399.694 126.387 399.124 127.619 398.323 128.762C398.101 129.081 397.848 129.403 397.445 129.619C396.288 130.239 394.661 129.716 393.244 129.472C389.743 128.87 385.766 130.477 384.778 132.893H501.261Z" fill="#ECEFF4"/>
<path d="M24.129 159.292C23.9898 158.449 25.1049 156.75 26.3219 156.777C26.8058 156.788 27.2794 156.914 27.7624 156.89C29.0502 156.827 29.7175 155.825 30.2138 154.995C30.7101 154.164 31.6982 153.218 32.9531 153.428C34.7599 153.732 35.6707 156.116 37.7242 154.326C39.0686 153.154 39.1695 151.516 40.6917 150.38C41.7364 149.6 43.4357 149.138 44.8365 149.569C46.6648 150.131 47.3447 151.944 49.2913 152.259C51.4475 152.609 52.998 150.968 53.6863 149.785C54.5216 148.35 54.8315 146.798 55.547 145.337C56.2092 143.985 57.5409 142.173 59.9269 142.213C61.9445 142.246 62.8333 143.523 63.8236 144.537C65.1116 145.855 67.7884 150.59 70.7898 150.019C71.9604 149.797 72.5446 148.867 73.6006 148.451C75.2985 147.782 77.4627 148.702 78.4856 149.859C79.5086 151.016 79.9141 152.412 81.0701 153.507C81.3692 153.79 81.7318 154.057 82.2016 154.186C83.8161 154.628 85.3194 153.269 87.0482 153.168C88.2413 153.098 89.348 153.659 90.0338 154.342C90.7196 155.026 91.0936 155.834 91.6185 156.584C91.7646 156.793 91.9305 157.004 92.1946 157.145C92.953 157.552 94.0197 157.209 94.9487 157.049C97.2441 156.654 99.8517 157.708 100.499 159.292H24.129Z" fill="#ECEFF4"/>
<path d="M375.637 208.175C375.611 207.29 375.388 202.746 375.156 202.746C376.34 202.746 377.524 202.747 378.707 202.747C378.899 203.687 378.911 204.639 378.869 205.587C378.827 206.521 378.714 207.434 378.711 208.379C377.692 208.291 376.665 208.258 375.64 208.279C375.639 208.254 375.639 208.219 375.637 208.175Z" fill="#F4A49B"/>
<path d="M367.836 210.225C367.671 210.223 367.966 208.825 367.991 208.712C368.186 207.824 368.724 207.027 369.586 206.664C370.345 206.343 371.151 206.298 371.964 206.305C374.192 206.325 376.377 206.769 378.564 207.142C378.929 207.204 379.17 207.356 379.283 207.72C379.522 208.492 379.48 209.464 379.445 210.225C379.44 210.316 370.154 210.256 367.836 210.225Z" fill="#0A2D4E"/>
<path d="M373.453 189.152C373.404 188.677 373.353 188.202 373.301 187.727C373.177 186.6 373.045 185.474 372.968 184.344C372.867 182.847 372.864 181.345 372.861 179.845C372.855 176.47 372.848 173.094 372.959 169.72C373.059 166.701 372.973 163.354 373.725 160.422C374.059 159.117 375 157.346 376.375 156.886C376.812 156.739 377.284 156.746 377.745 156.755C379.045 156.779 380.344 156.803 381.644 156.827C382.428 156.841 383.284 156.882 383.874 157.4C385.232 158.594 383.732 162.41 383.413 163.875C382.957 165.97 383.154 168.248 382.612 170.27C382.026 172.458 381.001 174.475 380.572 176.725C379.624 181.698 379.804 186.784 379.909 191.818C379.931 192.892 379.555 204.924 379.555 204.924L374.51 204.681C374.51 204.681 374.459 203.112 374.442 202.548C374.411 201.543 374.346 200.537 374.289 199.532C374.09 196.066 373.811 192.605 373.453 189.152Z" fill="#222222"/>
<path d="M389.327 207.635C389.301 206.759 389.079 202.26 388.851 202.26C390.023 202.26 391.195 202.26 392.367 202.261C392.557 203.191 392.569 204.135 392.527 205.073C392.485 205.998 392.373 206.902 392.371 207.838C391.362 207.751 390.344 207.718 389.329 207.739C389.329 207.714 389.328 207.68 389.327 207.635Z" fill="#F4A49B"/>
<path d="M386.478 189.878C386.262 187.06 386.021 184.245 385.582 181.455C384.993 177.767 384 174.116 382.962 170.531C382.59 169.25 382.212 167.965 382.027 166.644C381.902 165.75 381.868 164.846 381.833 163.945C381.786 162.74 381.74 161.536 381.693 160.331C381.636 158.844 381.583 157.325 382.016 155.901C382.79 153.356 384.704 152.481 387.219 152.754C391.626 153.232 391.611 158.244 391.997 161.554C392.44 165.352 392.649 169.176 392.669 172.999C392.679 174.911 392.642 176.823 392.564 178.733C392.469 181.065 392.986 183.136 393.314 185.44C393.563 187.19 393.548 188.966 393.532 190.734C393.49 195.481 393.396 204.975 393.396 204.975L388.056 205.076C387.829 202.035 387.261 199.023 386.971 195.986C386.777 193.954 386.634 191.915 386.478 189.878Z" fill="#222222"/>
<path d="M381.558 210.225C381.393 210.223 381.688 208.825 381.713 208.712C381.908 207.824 382.445 207.027 383.307 206.664C384.067 206.343 384.873 206.298 385.686 206.305C387.914 206.325 390.098 206.769 392.286 207.142C392.651 207.204 392.892 207.356 393.005 207.72C393.244 208.492 393.202 209.464 393.166 210.225C393.162 210.316 383.876 210.256 381.558 210.225Z" fill="#0A2D4E"/>
<path d="M382.174 131.543C382.188 131.602 382.203 131.664 382.24 131.708C382.287 131.764 382.356 131.781 382.421 131.795C383.824 132.089 385.243 131.852 386.617 131.561C386.079 129.237 385.396 126.963 384.814 124.657C384.792 124.57 384.766 124.476 384.696 124.42C384.639 124.374 384.563 124.362 384.49 124.357C384.006 124.329 383.555 124.603 383.184 124.916C382.902 125.154 382.645 125.419 382.39 125.685C382.078 126.01 381.765 126.344 381.556 126.742C381.133 127.546 381.481 128.355 381.655 129.182C381.82 129.97 381.993 130.758 382.174 131.543Z" fill="#F4A49B"/>
<path d="M373.872 159.603C376.954 159.8 380.042 159.923 383.132 159.972C383.794 159.983 391.741 159.991 391.741 159.906C391.741 156.953 391.596 154.01 391.651 151.056C391.711 147.87 391.878 144.687 392.058 141.505C392.138 140.085 392.18 138.664 392.101 137.242C392.034 136.041 392.075 134.739 391.46 133.66C390.207 131.459 387.014 130.347 384.62 130.494C383.153 130.585 381.744 131.074 380.356 131.559C378.994 132.034 377.631 132.645 376.762 133.851C375.323 135.848 374.79 138.413 374.498 140.811C374.157 143.604 373.997 146.417 373.935 149.229C373.907 150.495 373.9 151.761 373.894 153.026C373.891 153.532 373.89 154.039 373.888 154.545C373.883 156.231 373.877 157.917 373.872 159.603Z" fill="#FBD16B"/>
<path d="M368.727 160.272L380.108 156.167L370.224 136.674L357.079 141.984L368.727 160.272Z" fill="#B6E4F8"/>
<path d="M363.529 154.579C363.735 155.096 363.943 155.617 364.23 156.095C364.53 156.596 365.03 156.963 365.629 156.96C365.912 156.959 366.19 156.891 366.463 156.816C366.841 156.712 367.234 156.581 367.492 156.286C368.214 155.459 368.152 154.572 367.656 153.635C367.484 153.311 367.274 152.981 366.944 152.819C366.049 152.38 365.089 152.712 364.244 153.066C364.218 153.076 364.163 153.083 364.163 153.083L363.677 152.381C363.677 152.381 363.236 152.947 363.22 153.312C363.203 153.677 363.311 154.037 363.448 154.376C363.475 154.444 363.501 154.511 363.529 154.579Z" fill="#F4A49B"/>
<path d="M378.172 128.49C378.445 128.86 378.755 129.197 379.132 129.459C379.678 129.836 380.432 130.047 381.081 129.831C381.776 129.599 382.524 129.46 383.194 129.127C384.654 128.4 385.916 126.982 386.841 125.664C387.982 124.04 388.731 121.949 388.121 119.985C387.641 118.439 386.46 117.206 385.081 116.405C383.842 115.686 382.403 115.272 380.968 115.27C380.845 115.27 380.722 115.273 380.599 115.279C379.486 115.337 378.285 115.689 377.437 116.443C376.771 117.035 376.441 117.905 376.254 118.756C375.977 120.021 375.674 121.083 376.299 122.326C376.398 122.525 376.518 122.724 376.531 122.946C376.541 123.112 376.491 123.274 376.453 123.436C376.122 124.875 376.831 126.335 377.591 127.601C377.772 127.903 377.961 128.207 378.172 128.49Z" fill="#FEB08A"/>
<path d="M382.255 118.628C382.278 118.636 382.302 118.645 382.325 118.653C382.684 118.782 383.043 118.917 383.365 119.12C383.929 119.476 384.345 120.019 384.727 120.564C385.038 121.008 385.336 121.387 385.548 121.9C385.763 121.436 386.053 120.912 386.558 120.828C387.004 120.753 387.443 121.088 387.613 121.508C387.782 121.927 387.735 122.403 387.625 122.841C387.448 123.549 387.122 124.209 386.856 124.889C386.59 125.569 386.382 126.295 386.46 127.021C386.826 126.632 387.331 126.409 387.771 126.106C389.973 124.582 390.468 121.207 390.036 118.76C389.76 117.198 389.18 115.536 387.924 114.491C387.512 114.148 387.06 113.849 386.61 113.583C385.477 112.915 384.156 112.605 382.849 112.553C380.346 112.454 377.278 113.102 376.095 115.543C375.941 115.86 375.816 116.197 375.785 116.548C375.716 117.321 375.743 118.182 376.23 118.864C376.437 118.442 376.774 118.115 377.217 117.958C377.659 117.801 378.138 117.775 378.607 117.795C379.858 117.847 381.075 118.208 382.255 118.628Z" fill="#0A2D4E"/>
<path d="M390.55 118.326C387.746 119.07 384.009 115.335 385.293 112.603C386.3 110.46 389.66 110.251 391.435 111.403C393.939 113.03 393.774 116.881 390.993 118.166C390.849 118.233 390.701 118.286 390.55 118.326Z" fill="#0A2D4E"/>
<path d="M396.851 147.862C396.729 148.031 396.607 148.201 396.485 148.369C395.949 149.107 395.401 149.832 394.776 150.524C393.933 151.459 393.061 152.371 392.291 153.369C392.079 153.644 391.863 153.938 391.814 154.282C391.754 154.707 391.99 155.159 392.373 155.353C392.748 155.542 393.209 155.485 393.588 155.304C393.967 155.124 394.282 154.834 394.59 154.548C396.253 153.005 397.916 151.461 399.579 149.917C400.493 149.068 401.419 148.207 402.082 147.15C402.928 145.802 401.402 144.587 400.054 145.026C398.973 145.378 396.814 147.913 396.851 147.862Z" fill="#FEB08A"/>
<path d="M391.017 138.653C392.445 140.362 393.955 142.003 395.42 143.678C395.557 143.834 396.75 145.429 396.81 145.412C396.61 145.469 399.59 148.863 401.352 148.103C403.244 147.287 401.595 144.783 400.924 143.71C398.811 140.329 396.486 137.051 393.647 134.237C392.987 133.582 392.151 132.976 391.278 132.649C390.428 132.33 389.145 132.33 388.603 133.192C387.894 134.32 388.737 135.756 389.429 136.667C389.942 137.343 390.474 138.003 391.017 138.653Z" fill="#FEB08A"/>
<path d="M391.022 159.574C390.982 159.818 390.915 160.057 390.823 160.285C390.698 160.594 390.526 160.89 390.483 161.221C390.441 161.551 390.574 161.937 390.886 162.052C390.995 162.092 391.114 162.095 391.23 162.098C391.764 162.11 392.306 162.12 392.824 161.986C393.341 161.853 393.839 161.553 394.092 161.083C394.179 160.92 394.235 160.743 394.282 160.565C394.464 159.875 394.524 159.153 394.462 158.443C394.4 157.724 394.101 157.103 393.979 156.406C393.96 156.296 394.092 154.635 394.194 154.662C394.237 154.134 393.871 153.678 393.207 153.521C392.334 153.314 391.921 154.129 391.921 154.129C391.921 154.129 391.655 154.819 391.446 155.031C391.079 155.405 390.696 155.775 390.393 156.205C390.103 156.616 389.998 157.115 389.826 157.581C390.114 157.56 390.716 157.47 390.736 157.51C391.054 158.155 391.14 158.866 391.022 159.574Z" fill="#F4A49B"/>
<path d="M154.309 414.569H435.103C440.068 414.569 444.094 410.543 444.094 405.578V384.382H145.318V405.578C145.318 410.543 149.344 414.569 154.309 414.569Z" fill="white"/>
<path d="M263.453 440.983H324.77V414.569H263.453V440.983Z" fill="#484848"/>
<path d="M145.318 384.871H444.094V219.265C444.094 214.3 440.068 210.274 435.103 210.274H154.309C149.344 210.274 145.318 214.3 145.318 219.265V384.871Z" fill="#484848"/>
<path d="M156.641 374.091H433.008V222.836H156.641V374.091Z" fill="#FCE6D2"/>
<path d="M166.396 374.091H423.233V230.723H166.396V374.091Z" fill="white"/>
<path d="M287.959 398.124C287.959 401.851 290.98 404.872 294.708 404.872C298.435 404.872 301.456 401.851 301.456 398.124C301.456 394.396 298.435 391.375 294.708 391.375C290.98 391.375 287.959 394.396 287.959 398.124Z" fill="#CACDD1"/>
<path d="M156.641 230.722H433.008V222.836H156.641V230.722Z" fill="#FCE6D2"/>
<path d="M426.036 226.603C426.036 227.571 426.821 228.356 427.789 228.356C428.758 228.356 429.543 227.571 429.543 226.603C429.543 225.635 428.758 224.85 427.789 224.85C426.821 224.85 426.036 225.635 426.036 226.603Z" fill="white"/>
<path d="M419.726 226.603C419.726 227.571 420.51 228.356 421.479 228.356C422.447 228.356 423.232 227.571 423.232 226.603C423.232 225.635 422.447 224.85 421.479 224.85C420.51 224.85 419.726 225.635 419.726 226.603Z" fill="white"/>
<path d="M413.413 226.603C413.413 227.571 414.198 228.356 415.166 228.356C416.135 228.356 416.92 227.571 416.92 226.603C416.92 225.635 416.135 224.85 415.166 224.85C414.198 224.85 413.413 225.635 413.413 226.603Z" fill="white"/>
<path d="M412.753 354.521L356.475 354.519C353.762 354.519 351.562 352.319 351.562 349.606V341.587C351.562 338.874 353.762 336.675 356.475 336.675L412.753 336.677C415.466 336.677 417.665 338.876 417.665 341.589V349.608C417.665 352.321 415.466 354.521 412.753 354.521Z" fill="#FC8F2C"/>
<path d="M417.254 309.776H350.785V301.576H417.254V309.776Z" fill="#FCE6D2"/>
<path d="M417.254 329.893H371.037V313.2H417.254V329.893Z" fill="#FCE6D2"/>
<path d="M367.827 329.894H351.135V313.201H367.827V329.894Z" fill="#FC8F2C"/>
<g opacity="0.294">
<path d="M366.865 319.002L358.429 327.438C358.366 327.501 358.265 327.501 358.202 327.438L356.46 325.696C356.397 325.633 356.397 325.532 356.46 325.47L364.896 317.033C364.959 316.971 365.06 316.971 365.123 317.033L366.865 318.776C366.927 318.838 366.927 318.939 366.865 319.002Z" fill="white"/>
</g>
<g opacity="0.294">
<path d="M358.184 327.422L352.838 322.075C352.775 322.013 352.775 321.912 352.838 321.849L354.58 320.106C354.643 320.044 354.744 320.044 354.807 320.106L360.153 325.453C360.216 325.515 360.216 325.617 360.153 325.679L358.411 327.422C358.348 327.484 358.247 327.484 358.184 327.422Z" fill="white"/>
</g>
<path d="M237.225 449.824H352.119C352.119 444.941 348.16 440.982 343.277 440.982H246.066C241.183 440.982 237.225 444.941 237.225 449.824Z" fill="white"/>
<path d="M396.109 361.869L378.609 349.812L383.972 370.566L387.544 364.337L391.529 369.878L393.281 368.618L389.384 363.199L396.109 361.869Z" fill="white"/>
<path d="M396.109 361.869L378.609 349.812L383.972 370.566L387.544 364.337L391.529 369.878L393.281 368.618L389.384 363.199L396.109 361.869Z" stroke="#231F20" stroke-width="2.14567" stroke-miterlimit="10"/>
<path d="M340.671 265.424H246.439V261.69H340.671V265.424Z" fill="#FCE6D2"/>
<path d="M340.427 275.593C340.427 275.727 319.386 275.838 293.436 275.838C267.476 275.838 246.439 275.728 246.439 275.593C246.439 275.458 267.476 275.349 293.436 275.349C319.386 275.349 340.427 275.459 340.427 275.593Z" fill="#FCE6D2"/>
<path d="M340.427 283.744C340.427 283.879 319.386 283.989 293.436 283.989C267.476 283.989 246.439 283.878 246.439 283.744C246.439 283.611 267.476 283.5 293.436 283.5C319.386 283.5 340.427 283.61 340.427 283.744Z" fill="#FCE6D2"/>
<path d="M340.427 291.895C340.427 292.03 319.386 292.139 293.436 292.139C267.476 292.139 246.439 292.029 246.439 291.895C246.439 291.761 267.476 291.65 293.436 291.65C319.386 291.65 340.427 291.76 340.427 291.895Z" fill="#FCE6D2"/>
<path d="M340.427 300.046C340.427 300.18 319.386 300.291 293.436 300.291C267.476 300.291 246.439 300.181 246.439 300.046C246.439 299.911 267.476 299.802 293.436 299.802C319.386 299.802 340.427 299.912 340.427 300.046Z" fill="#FCE6D2"/>
<path d="M340.427 308.197C340.427 308.331 319.386 308.441 293.436 308.441C267.476 308.441 246.439 308.331 246.439 308.197C246.439 308.062 267.476 307.952 293.436 307.952C319.386 307.952 340.427 308.063 340.427 308.197Z" fill="#FCE6D2"/>
<path d="M340.703 316.39C340.703 316.501 319.6 316.592 293.574 316.592C267.539 316.592 246.44 316.501 246.44 316.39C246.44 316.278 267.539 316.188 293.574 316.188C319.6 316.188 340.703 316.278 340.703 316.39Z" fill="#FCE6D2"/>
<path d="M339.912 331.944C339.912 332.079 318.883 332.188 292.947 332.188C267.002 332.188 245.976 332.078 245.976 331.944C245.976 331.81 267.002 331.699 292.947 331.699C318.883 331.699 339.912 331.809 339.912 331.944Z" fill="#FCE6D2"/>
<path d="M339.912 340.595C339.912 340.731 318.883 340.84 292.947 340.84C267.002 340.84 245.976 340.731 245.976 340.595C245.976 340.461 267.002 340.352 292.947 340.352C318.883 340.352 339.912 340.461 339.912 340.595Z" fill="#FCE6D2"/>
<path d="M339.912 349.247C339.912 349.381 318.883 349.491 292.947 349.491C267.002 349.491 245.976 349.381 245.976 349.247C245.976 349.112 267.002 349.003 292.947 349.003C318.883 349.003 339.912 349.112 339.912 349.247Z" fill="#FCE6D2"/>
<path d="M339.912 357.9C339.912 358.034 318.883 358.143 292.947 358.143C267.002 358.143 245.976 358.034 245.976 357.9C245.976 357.764 267.002 357.655 292.947 357.655C318.883 357.655 339.912 357.764 339.912 357.9Z" fill="#FCE6D2"/>
<path d="M229.978 317.249H174.178V313.516H229.978V317.249Z" fill="#FCE6D2"/>
<path d="M230.118 331.339C230.118 331.474 217.943 331.584 202.928 331.584C187.909 331.584 175.737 331.474 175.737 331.339C175.737 331.205 187.909 331.095 202.928 331.095C217.943 331.095 230.118 331.205 230.118 331.339Z" fill="#FCE6D2"/>
<path d="M230.118 338.132C230.118 338.268 217.943 338.377 202.928 338.377C187.909 338.377 175.737 338.268 175.737 338.132C175.737 337.998 187.909 337.89 202.928 337.89C217.943 337.89 230.118 337.998 230.118 338.132Z" fill="#FCE6D2"/>
<path d="M230.118 344.93C230.118 345.064 217.943 345.174 202.928 345.174C187.909 345.174 175.737 345.064 175.737 344.93C175.737 344.795 187.909 344.686 202.928 344.686C217.943 344.686 230.118 344.795 230.118 344.93Z" fill="#FCE6D2"/>
<path d="M230.118 351.724C230.118 351.86 217.943 351.967 202.928 351.967C187.909 351.967 175.737 351.86 175.737 351.724C175.737 351.589 187.909 351.48 202.928 351.48C217.943 351.48 230.118 351.589 230.118 351.724Z" fill="#FCE6D2"/>
<path d="M230.118 358.519C230.118 358.654 217.943 358.762 202.928 358.762C187.909 358.762 175.737 358.654 175.737 358.519C175.737 358.383 187.909 358.275 202.928 358.275C217.943 358.275 230.118 358.383 230.118 358.519Z" fill="#FCE6D2"/>
<path d="M413.541 265.363H357.741V261.63H413.541V265.363Z" fill="#FCE6D2"/>
<path d="M413.684 274.677C413.684 274.812 401.51 274.922 386.495 274.922C371.475 274.922 359.304 274.812 359.304 274.677C359.304 274.543 371.475 274.433 386.495 274.433C401.51 274.433 413.684 274.543 413.684 274.677Z" fill="#FCE6D2"/>
<path d="M413.684 281.47C413.684 281.606 401.51 281.715 386.495 281.715C371.475 281.715 359.304 281.606 359.304 281.47C359.304 281.336 371.475 281.228 386.495 281.228C401.51 281.228 413.684 281.336 413.684 281.47Z" fill="#FCE6D2"/>
<path d="M413.684 288.268C413.684 288.402 401.51 288.512 386.495 288.512C371.475 288.512 359.304 288.402 359.304 288.268C359.304 288.133 371.475 288.023 386.495 288.023C401.51 288.023 413.684 288.133 413.684 288.268Z" fill="#FCE6D2"/>
<path d="M413.684 295.062C413.684 295.198 401.51 295.305 386.495 295.305C371.475 295.305 359.304 295.198 359.304 295.062C359.304 294.927 371.475 294.818 386.495 294.818C401.51 294.818 413.684 294.927 413.684 295.062Z" fill="#FCE6D2"/>
<path d="M413.684 301.857C413.684 301.992 401.51 302.1 386.495 302.1C371.475 302.1 359.304 301.992 359.304 301.857C359.304 301.721 371.475 301.613 386.495 301.613C401.51 301.613 413.684 301.721 413.684 301.857Z" fill="#FCE6D2"/>
<path d="M232.049 306.835H176.106V252.711H232.049V306.835Z" fill="#FCFCFC"/>
<path d="M180.441 302.276L195.916 274.425L208.574 292.226L216.266 282.772L227.708 302.276H180.441Z" fill="#FCE6D2"/>
<path d="M213.513 270.738C213.513 272.962 211.711 274.764 209.487 274.764C207.264 274.764 205.461 272.962 205.461 270.738C205.461 268.515 207.264 266.712 209.487 266.712C211.711 266.712 213.513 268.515 213.513 270.738Z" fill="#FCE6D2"/>
<path d="M227.658 302.333C227.654 302.328 227.65 302.253 227.645 302.111C227.642 301.949 227.637 301.742 227.632 301.479C227.625 300.904 227.617 300.091 227.606 299.044C227.592 296.898 227.572 293.794 227.547 289.852C227.519 281.948 227.478 270.689 227.43 257.173L227.658 257.401C213.968 257.413 197.741 257.425 180.396 257.44C180.332 257.496 180.895 256.939 180.657 257.18V257.192V257.217V257.266V257.362V257.555V257.941V258.712V260.249C180.657 261.272 180.657 262.29 180.657 263.304C180.656 265.333 180.656 267.343 180.655 269.331C180.652 273.309 180.651 277.202 180.649 280.993C180.639 288.574 180.631 295.739 180.623 302.332L180.391 302.1C194.498 302.149 206.281 302.19 214.566 302.218C218.697 302.244 221.954 302.263 224.205 302.278C225.306 302.291 226.159 302.3 226.763 302.306C227.039 302.312 227.256 302.316 227.425 302.319C227.576 302.323 227.654 302.328 227.658 302.333C227.663 302.336 227.593 302.34 227.451 302.345C227.288 302.349 227.079 302.353 226.813 302.359C226.221 302.365 225.382 302.373 224.302 302.385C222.062 302.4 218.823 302.421 214.715 302.447C206.395 302.475 194.559 302.515 180.391 302.564L180.159 302.565V302.332C180.151 295.739 180.143 288.574 180.133 280.993C180.131 277.202 180.129 273.309 180.126 269.331C180.125 267.343 180.126 265.333 180.125 263.304C180.124 262.29 180.124 261.272 180.124 260.249V258.712V257.941V257.555V257.362V257.266V257.217V257.192V257.18C179.887 257.414 180.448 256.847 180.396 256.907C197.741 256.921 213.968 256.933 227.658 256.944H227.888L227.887 257.173C227.838 270.749 227.798 282.056 227.77 289.998C227.744 293.917 227.724 297.005 227.71 299.138C227.698 300.166 227.69 300.963 227.684 301.529C227.679 301.782 227.673 301.981 227.67 302.136C227.667 302.271 227.663 302.336 227.658 302.333Z" fill="#455A64"/>
<path d="M228.473 234.939C228.207 234.1 226.926 229.762 227.143 229.687C226.032 230.075 224.921 230.464 223.811 230.853C223.939 231.798 224.241 232.696 224.592 233.571C224.937 234.434 225.343 235.254 225.656 236.139C226.583 235.723 227.536 235.355 228.506 235.038C228.498 235.014 228.487 234.981 228.473 234.939Z" fill="#F4A49B"/>
<path d="M224.446 211.67C223.84 209.322 223.114 207.003 222.16 204.72C221.981 204.29 221.647 203.718 221.27 203.44C220.967 203.216 220.591 203.12 220.226 203.029C217.292 202.297 214.357 201.564 211.423 200.831C208.526 200.108 205.612 199.382 202.635 199.165C200.778 199.03 195.341 198.449 194.654 200.708C194.42 201.474 194.682 202.307 195.067 203.01C196.465 205.563 199.307 206.94 202.052 207.909C206.658 209.534 211.509 210.465 216.39 210.66C218.472 217.069 220.322 225.258 222.287 232.632L228.068 231.281C228.068 231.281 226.719 222.43 226.537 221.503C225.883 218.179 225.278 214.897 224.446 211.67Z" fill="#222222"/>
<path d="M234.202 239.002C234.361 239.042 234.441 237.624 234.447 237.509C234.49 236.606 234.181 235.702 233.448 235.129C232.802 234.625 232.04 234.372 231.258 234.168C229.115 233.608 226.903 233.467 224.707 233.257C224.341 233.221 224.07 233.305 223.867 233.625C223.437 234.303 223.225 235.247 223.062 235.987C223.042 236.075 231.97 238.429 234.202 239.002Z" fill="#0A2D4E"/>
<path d="M207.588 169.122C207.58 169.129 207.571 169.136 207.562 169.143C207.369 169.288 207.077 169.276 206.917 169.456C206.802 169.585 206.792 169.773 206.772 169.945C206.753 170.106 206.72 170.268 206.647 170.413C206.484 170.738 206.176 170.811 205.836 170.773C205.057 170.685 204.336 170.332 203.634 169.983C203.104 169.721 202.654 169.39 202.194 169.023C200.378 167.574 198.822 165.313 198.595 162.952C198.261 159.478 201.363 156.775 204.605 156.391C204.986 156.346 205.371 156.33 205.754 156.345C208.485 156.452 211.963 157.832 211.072 161.185C210.727 162.482 210.165 163.608 209.545 164.783C209.305 165.239 209.15 165.793 209.363 166.263C209.482 166.525 209.712 166.758 209.702 167.046C209.691 167.332 209.423 167.561 209.14 167.602C208.978 167.625 208.814 167.6 208.651 167.609C208.502 167.618 208.365 167.679 208.285 167.809C208.194 167.957 208.211 168.164 208.126 168.326C208.044 168.48 207.904 168.61 207.733 168.642C207.78 168.812 207.72 169.006 207.588 169.122Z" fill="#FEB08A"/>
<path d="M208.717 230.144C209.097 229.358 211.13 225.362 211.338 225.455C210.273 224.978 209.209 224.501 208.144 224.024C207.593 224.792 207.198 225.644 206.854 226.514C206.515 227.371 206.249 228.238 205.87 229.088C206.822 229.421 207.759 229.805 208.673 230.237C208.683 230.215 208.698 230.183 208.717 230.144Z" fill="#F4A49B"/>
<path d="M213.281 209.719C212.342 211.206 212.481 211.468 211.776 213.08C209.882 217.408 206.102 226.069 206.102 226.069L210.911 228.335C212.696 225.037 214.684 221.856 216.678 218.682C217.376 217.572 218.061 216.453 218.751 215.336C219.984 213.339 221.228 211.349 222.575 209.429C224.274 207.007 224.964 206.49 224.761 203.423C224.633 201.494 223.924 200.063 221.965 199.68C219.868 199.27 217.738 199.006 215.607 198.865C214.201 198.771 212.792 198.735 211.383 198.698C208.05 198.611 204.717 198.524 201.384 198.437C199.678 198.393 197.973 198.348 196.267 198.304C195.167 198.275 193.704 197.886 192.642 198.094C192.16 199.899 191.831 202.112 192.417 203.929C194.007 208.859 198.487 211.217 203.489 211.042C206.448 210.939 209.324 210.03 212.05 208.875C213.087 208.436 214.136 207.954 215.259 207.875C214.41 207.968 213.907 208.726 213.281 209.719Z" fill="#222222"/>
<path d="M211.885 237.829C212.005 237.939 212.736 236.736 212.795 236.638C213.255 235.868 213.407 234.933 213.033 234.09C212.704 233.347 212.155 232.771 211.566 232.227C209.954 230.737 208.084 229.583 206.263 228.372C205.959 228.17 205.682 228.117 205.355 228.302C204.663 228.695 204.037 229.421 203.548 229.993C203.49 230.06 210.2 236.286 211.885 237.829Z" fill="#0A2D4E"/>
<path d="M202.968 172.423C202.953 172.481 202.935 172.542 202.898 172.586C202.852 172.64 202.787 172.656 202.726 172.668C201.415 172.931 200.12 172.667 198.869 172.35C199.358 170.566 199.887 168.792 200.453 167.032C200.47 166.978 200.49 166.92 200.531 166.887C200.579 166.847 200.64 166.857 200.694 166.868C201.341 167.005 201.986 167.15 202.628 167.303C203.171 167.433 203.721 167.505 204.262 167.651C203.983 168.464 203.795 169.258 203.582 170.093C203.385 170.872 203.18 171.649 202.968 172.423Z" fill="#F4A49B"/>
<path d="M206.452 198.192C206.465 198.347 206.474 198.502 206.481 198.657C206.496 198.976 202.817 199.178 202.38 199.189C200.72 199.229 199.021 199.059 197.369 198.906C197.03 198.875 193.578 198.522 192.641 198.094C193.067 194.099 192.497 190.468 192.558 186.436C192.609 183.094 192.956 179.712 194.123 176.557C195.147 173.786 196.875 170.814 200.23 170.868C200.833 170.878 201.431 170.993 202.001 171.187C203.45 171.68 204.27 173.662 204.999 174.93C205.981 176.639 207.047 178.432 207.779 180.265C208.337 181.665 208.028 183.162 207.413 184.487C206.97 185.444 206.357 186.315 205.968 187.298C205.201 189.238 205.261 191.321 205.619 193.343C205.905 194.959 206.322 196.559 206.452 198.192Z" fill="#E06202"/>
<path d="M201.612 166.038C201.612 166.106 201.596 166.176 201.578 166.242C201.304 167.258 200.71 168.185 199.902 168.858C199.752 168.74 199.621 168.415 199.511 168.25C199.335 167.986 199.17 167.713 199.017 167.435C198.71 166.878 198.449 166.296 198.235 165.697C197.628 163.995 197.398 162.124 197.591 160.312C197.774 158.598 198.289 156.772 199.631 155.597C202.295 153.266 206.754 153.752 209.61 155.411C211.389 156.444 212.458 158.733 211.308 160.632C211.293 160.658 211.276 160.684 211.249 160.696C211.215 160.71 211.176 160.696 211.142 160.684C210.372 160.402 209.325 160.344 208.563 160.687C208.264 160.822 208.002 161.025 207.745 161.228C207.099 161.741 206.498 162.392 205.8 162.825C205.441 163.049 205.047 163.231 204.658 163.397C204.547 163.444 203.522 163.757 203.517 163.806C203.578 163.199 203.209 162.573 202.698 162.26C202.113 161.902 201.615 162.319 201.38 162.894C201.058 163.682 200.967 164.994 201.469 165.721C201.521 165.795 201.58 165.867 201.602 165.955C201.609 165.982 201.612 166.01 201.612 166.038Z" fill="#0A2D4E"/>
<path d="M198.759 185.402C198.515 186.136 198.256 186.864 197.967 187.582C197.158 189.593 196.396 191.605 195.659 193.639C195.634 193.707 195.606 193.78 195.546 193.822C195.496 193.857 195.432 193.865 195.37 193.869C194.015 193.968 192.892 193.095 192.542 191.808C192.237 190.684 192.529 189.699 192.651 188.59C192.77 187.506 192.991 186.43 193.225 185.358C193.723 183.085 194.327 180.835 195.034 178.619C195.38 177.535 195.772 176.424 196.553 175.596C197.333 174.769 198.607 174.298 199.651 174.77C201.148 175.447 201.238 177.226 200.932 178.615C200.691 179.708 200.225 180.751 199.89 181.812C199.513 183.008 199.155 184.212 198.759 185.402Z" fill="#FEB08A"/>
<path d="M199.096 189.456C201.054 189.479 203.009 189.676 204.933 190.042C206.336 190.308 207.722 190.665 209.079 191.11C210.033 191.422 211.593 191.656 211.739 192.877C211.794 193.342 211.621 193.876 211.167 194.081C210.977 194.167 210.766 194.189 210.559 194.209C208.756 194.385 206.868 194.626 205.067 194.559C203.146 194.488 201.225 194.398 199.308 194.263C198.535 194.208 197.762 194.147 196.989 194.075C196.01 193.985 194.956 194.047 194.056 193.585C193.605 193.354 193.63 192.487 193.622 192.024C193.612 191.429 193.728 190.813 194.136 190.355C194.703 189.718 195.637 189.586 196.488 189.529C197.356 189.47 198.226 189.446 199.096 189.456Z" fill="#FEB08A"/>
<path d="M197.985 157.689C198.488 157.657 199 157.625 199.473 157.451C200.679 157.007 200.993 155.481 200.513 154.378C200.026 153.258 192.697 148.63 189.982 154.675C189.015 156.828 189.749 159.424 189.622 161.75C189.311 167.396 187.474 168.462 187.282 168.998C187.232 169.136 187.196 169.299 187.274 169.424C187.345 169.539 187.488 169.583 187.62 169.611C188.488 169.792 191.439 170.119 194.393 161.062C195.703 157.075 197.313 157.732 197.985 157.689Z" fill="#0A2D4E"/>
<path d="M226.085 200.211L210.338 198.693L210.517 196.835L226.264 198.353L226.085 200.211Z" fill="#0A2D4E"/>
<path d="M224.45 199.481L230.565 184.891L232.287 185.612L226.172 200.203L224.45 199.481Z" fill="#0A2D4E"/>
<path d="M216.717 192.809C216.471 192.656 216.198 192.54 215.947 192.443C215.315 192.199 214.682 191.956 214.05 191.712C213.416 191.468 212.746 191.219 212.074 191.322C211.744 191.372 211.433 191.505 211.126 191.637C210.607 191.86 210.088 192.084 209.57 192.307C209.425 192.754 209.59 193.254 209.879 193.624C210.168 193.995 210.567 194.259 210.959 194.518C211.238 194.702 211.518 194.886 211.823 195.024C213.249 195.668 214.915 195.181 216.368 194.599C216.39 195.129 216.412 195.659 216.434 196.19C216.449 196.541 216.685 197.374 217.217 196.965C217.415 196.813 217.439 196.528 217.446 196.278C217.461 195.734 217.477 195.189 217.492 194.645C217.501 194.303 217.51 193.955 217.412 193.627C217.304 193.268 217.034 193.007 216.717 192.809Z" fill="#FEB08A"/>
<path d="M271.02 397.288L246.618 397.288L246.618 416.895L271.02 416.895L271.02 397.288Z" fill="#E06202"/>
<path d="M266.741 397.288L246.618 397.288L246.618 416.895L266.741 416.895L266.741 397.288Z" fill="#FC8F2C"/>
<path d="M264.554 393.586L244.432 393.586L246.617 397.289L266.74 397.289L264.554 393.586Z" fill="#E06202"/>
<path d="M268.925 393.586L273.204 393.586L271.018 397.289L266.739 397.289L268.925 393.586Z" fill="#E06202"/>
<path d="M239.722 394.577C239.72 394.588 239.717 394.599 239.714 394.61C239.651 394.844 239.413 395.014 239.398 395.256C239.387 395.429 239.494 395.584 239.585 395.732C239.67 395.871 239.744 396.02 239.776 396.18C239.848 396.537 239.649 396.785 239.356 396.965C238.687 397.377 237.899 397.543 237.128 397.702C236.547 397.822 235.987 397.838 235.396 397.832C233.065 397.809 230.437 396.983 228.799 395.257C226.389 392.717 227.17 388.663 229.497 386.356C229.77 386.085 230.064 385.835 230.377 385.61C232.602 384.007 236.204 382.949 237.571 386.15C238.1 387.388 238.351 388.626 238.588 389.937C238.679 390.446 238.9 390.981 239.358 391.22C239.614 391.354 239.94 391.395 240.11 391.63C240.278 391.862 240.208 392.21 240.009 392.417C239.896 392.535 239.75 392.616 239.627 392.725C239.515 392.823 239.444 392.956 239.461 393.109C239.481 393.282 239.623 393.435 239.655 393.616C239.685 393.787 239.655 393.977 239.54 394.108C239.682 394.213 239.754 394.404 239.722 394.577Z" fill="#FEB08A"/>
<path d="M230.024 476.298C230.05 475.412 230.274 470.862 230.505 470.862C229.32 470.863 228.135 470.863 226.949 470.863C226.757 471.804 226.745 472.758 226.788 473.707C226.83 474.643 226.943 475.557 226.945 476.503C227.966 476.415 228.994 476.382 230.021 476.403C230.021 476.378 230.022 476.343 230.024 476.298Z" fill="#F4A49B"/>
<path d="M238.606 458.314C239.493 456.483 240.345 454.636 241.086 452.741C241.098 452.709 241.111 452.676 241.124 452.644C243.743 445.884 245.379 438.797 246.871 431.718C247.299 429.69 247.695 428.127 247.036 426.116C246.537 424.595 245.649 423.261 244.282 422.394C242.159 421.046 239.523 420.47 237.044 420.961C232.647 421.832 233.105 426.879 233.008 430.248C232.897 434.113 233.025 437.983 233.341 441.836C233.5 443.762 233.706 445.686 233.953 447.603C234.063 448.449 234.16 449.138 233.926 449.968C233.709 450.741 233.311 451.453 232.897 452.136C231.056 455.175 229.591 458.43 228.395 461.772C227.235 465.014 226.053 468.485 225.602 471.909C225.584 472.049 225.444 473.582 225.47 473.582C227.331 473.562 229.193 473.542 231.054 473.522C231.144 473.521 231.239 473.518 231.314 473.469C231.392 473.419 231.434 473.33 231.471 473.246C233.041 469.736 234.711 466.273 236.394 462.817C237.126 461.314 237.877 459.819 238.606 458.314Z" fill="#222222"/>
<path d="M237.835 478.351C238 478.349 237.705 476.949 237.68 476.835C237.484 475.946 236.946 475.148 236.083 474.784C235.322 474.463 234.515 474.418 233.701 474.425C231.47 474.445 229.283 474.89 227.092 475.263C226.727 475.325 226.485 475.478 226.372 475.842C226.133 476.615 226.175 477.588 226.21 478.351C226.215 478.441 235.514 478.381 237.835 478.351Z" fill="#0A2D4E"/>
<path d="M257.125 475.729C256.974 474.856 256.285 470.353 256.511 470.307C255.35 470.544 254.189 470.781 253.027 471.018C253.027 471.978 253.206 472.915 253.437 473.837C253.665 474.745 253.959 475.618 254.15 476.545C255.132 476.255 256.134 476.017 257.144 475.832C257.139 475.808 257.133 475.773 257.125 475.729Z" fill="#F4A49B"/>
<path d="M256.202 457.347C255.816 452.836 255.111 448.414 254.264 443.974C253.829 441.691 252.962 439.525 252.183 437.345C251.163 434.495 250.122 431.645 248.972 428.829C247.693 425.696 246.444 422.103 242.823 421.134C240.395 420.484 237.707 420.723 235.489 421.933C232.344 423.65 232.792 427.552 233.94 430.386C235.736 434.819 239.08 438.419 242.151 442.043C243.727 443.903 245.264 445.809 246.524 447.901C247.202 449.028 247.115 449.605 247.161 450.85C247.215 452.338 247.508 453.841 247.806 455.296C248.154 456.999 248.586 458.683 248.991 460.373C249.519 462.58 250.047 464.787 250.575 466.994C250.839 468.098 251.103 469.201 251.367 470.305C251.574 471.171 252.079 473.189 252.079 473.189L258.161 472.258C258.161 472.258 257.626 469.452 257.598 469.255C257.411 467.934 257.229 466.613 257.059 465.29C256.726 462.703 256.429 460.049 256.214 457.487C256.21 457.44 256.206 457.394 256.202 457.347Z" fill="#222222"/>
<path d="M264.37 478.252C264.535 478.252 264.262 476.848 264.238 476.734C264.057 475.842 263.531 475.036 262.673 474.659C261.917 474.327 261.111 474.269 260.297 474.264C258.066 474.249 255.872 474.661 253.676 475C253.31 475.057 253.066 475.206 252.947 475.569C252.696 476.338 252.723 477.312 252.747 478.075C252.75 478.165 262.049 478.247 264.37 478.252Z" fill="#0A2D4E"/>
<path d="M236.443 400.079C236.443 400.139 236.442 400.203 236.412 400.255C236.375 400.319 236.424 400.338 236.423 400.411C236.393 402.89 231.573 403.328 231.565 401.09C231.569 399.231 231.623 397.372 231.726 395.516C231.729 395.459 231.734 395.398 231.771 395.355C231.816 395.304 231.891 395.297 231.959 395.294C232.769 395.255 233.579 395.225 234.389 395.205C235.074 395.187 235.748 395.112 236.437 395.11C236.368 395.972 236.401 396.792 236.419 397.658C236.436 398.464 236.444 399.271 236.443 400.079Z" fill="#FEB08A"/>
<path d="M248.424 426.686C245.752 427.456 232.876 427.857 232.859 427.774C232.438 425.802 232.557 425.794 232.135 423.809C231.419 420.438 230.504 417.114 229.696 413.765C228.967 410.745 227.872 407.391 228.759 404.289C229.304 402.382 230.581 400.757 232.46 400.116C234.445 399.439 236.735 399.606 238.548 400.685C239.644 401.336 240.544 402.264 241.43 403.181C243.721 405.551 244.657 408.419 245.569 411.536C246.496 414.703 247.188 417.931 247.883 421.154C248.239 422.805 248.424 424.745 248.424 426.686Z" fill="#FBD16B"/>
<path d="M257.165 418.915C256.306 419 255.446 419.076 254.587 419.151C252.689 419.316 250.809 419.499 248.904 419.357C247.673 419.265 246.821 419.328 245.738 418.635C244.685 417.961 243.809 417.055 242.827 416.288C239.679 413.831 236.657 411.174 234.15 408.053C233.805 407.617 233.385 407.144 233.305 406.572C233.202 405.844 233.49 405.038 233.928 404.465C234.121 404.214 234.36 403.987 234.656 403.873C235.156 403.68 235.649 403.955 236.057 404.233C238.361 405.808 240.363 407.671 242.305 409.664C243.131 410.513 243.93 411.358 244.721 412.214C245.119 412.645 245.516 413.079 245.913 413.518C246.412 414.068 247.319 414.543 248 414.827C248.279 414.943 248.588 414.956 248.89 414.968C253.228 415.138 257.567 415.309 261.905 415.479C262.174 415.491 261.452 417.327 261.359 417.471C261.027 417.981 260.584 418.503 259.968 418.589C259.037 418.717 258.102 418.822 257.165 418.915Z" fill="#FEB08A"/>
<path d="M227.443 382.189C227.714 382.233 227.989 382.307 228.268 382.39C228.12 381.665 228.638 380.87 229.36 380.713C230.083 380.556 230.884 381.064 231.051 381.785C231.291 381.159 231.959 380.704 232.624 380.782C233.289 380.86 233.853 381.52 233.759 382.183C233.786 381.986 234.412 381.763 234.57 381.714C234.906 381.609 235.249 381.596 235.594 381.65C236.19 381.743 236.793 382.349 236.555 382.997C237.205 383.028 237.914 383.245 238.243 383.807C238.557 384.342 238.42 385.056 238.046 385.551C237.415 386.386 236.261 386.748 235.253 386.79C234.999 386.801 234.731 386.801 234.511 386.929C234.214 387.101 234.079 387.47 234.086 387.813C234.092 388.156 234.215 388.485 234.323 388.81C234.682 389.891 234.896 391.024 234.908 392.163C234.91 392.366 234.904 392.578 234.807 392.756C234.71 392.935 234.495 393.065 234.303 393C234.204 391.924 233.148 391.03 232.071 391.11C230.485 391.227 230.97 393.012 231.761 393.806C232.168 394.215 232.613 394.644 232.664 395.252C232.677 395.407 232.599 395.619 232.63 395.761C232.664 395.914 232.756 395.91 232.863 396.04C233.028 396.24 233.132 396.578 233.136 396.831C233.139 397.056 233.08 397.306 232.894 397.434C232.752 397.53 232.568 397.535 232.396 397.527C232.113 397.513 231.825 397.472 231.57 397.348C231.315 397.224 231.094 397.008 231.016 396.735C230.685 397.129 230.124 397.314 229.624 397.194C229.124 397.075 228.707 396.656 228.59 396.155C228.252 396.519 227.748 396.731 227.254 396.682C226.761 396.632 226.295 396.308 226.11 395.848C225.946 395.441 226.004 394.982 226.065 394.548C225.433 394.572 224.909 394.511 224.483 393.98C224.152 393.568 224.036 392.993 224.181 392.486C224.28 392.141 224.487 391.838 224.7 391.549C224.364 391.486 224.061 391.308 223.78 391.114C223.421 390.865 223.072 390.57 222.89 390.173C222.707 389.772 222.716 389.295 222.886 388.889C223.056 388.483 223.379 388.148 223.764 387.935C223.469 387.86 223.214 387.641 223.096 387.36C223.007 387.149 222.995 386.914 222.994 386.686C222.992 386.421 223.004 386.153 223.078 385.898C223.276 385.221 223.95 384.713 224.656 384.711C224.438 383.871 225.04 382.955 225.719 382.501C226.276 382.129 226.851 382.091 227.443 382.189Z" fill="#0A2D4E"/>
<path d="M241.778 408.198C241.778 408.198 237.527 412.876 237.527 412.876C237.527 412.876 234.64 410.575 233.393 409.226C232.517 408.278 231.571 407.151 231.209 405.888C230.888 404.77 231.198 403.657 231.984 402.816C232.794 401.949 234.039 401.505 235.211 401.737C237.083 402.107 238.217 404.028 239.33 405.394C239.504 405.606 241.812 408.161 241.778 408.198Z" fill="#FBD16B"/>
<path d="M266.397 416.425C266.933 416.543 267.457 416.668 267.995 416.781C267.98 416.778 267.428 417.676 267.363 417.76C267.113 418.084 266.834 418.387 266.532 418.663C265.979 419.168 265.253 419.762 264.497 419.877C263.597 420.013 262.678 419.778 261.836 419.431C260.994 419.083 260.202 418.623 259.359 418.278C259.651 417.414 260.254 416.808 260.66 416.003C260.978 415.374 261.556 414.883 262.074 414.424C262.654 413.911 263.125 413.285 263.722 412.793C264.008 412.557 264.362 412.349 264.727 412.407C264.838 412.425 264.953 412.474 265.009 412.571C265.041 412.628 265.05 412.694 265.053 412.76C265.074 413.224 264.741 413.793 264.503 414.181C264.205 414.667 263.807 415.084 263.417 415.496C263.401 415.513 264.707 416.046 264.841 416.077C265.356 416.195 265.876 416.31 266.397 416.425Z" fill="#FEB08A"/>
<g opacity="0.2">
<path d="M274.973 478.231C274.973 478.231 260.858 481.453 243.445 481.453C226.033 481.453 211.918 478.231 211.918 478.231C211.918 478.231 226.033 475.008 243.445 475.008C260.858 475.008 274.973 478.231 274.973 478.231Z" fill="#303672"/>
</g>
<path d="M546.959 212.492H533.885C528.326 212.492 523.778 217.04 523.778 222.599C523.778 226.036 525.518 229.085 528.16 230.913V238.026L535.434 232.705H546.959C552.518 232.705 557.066 228.157 557.066 222.599C557.066 217.04 552.518 212.492 546.959 212.492Z" fill="#FCE6D2"/>
<path d="M534.633 222.599C534.633 223.446 533.946 224.133 533.099 224.133C532.252 224.133 531.565 223.446 531.565 222.599C531.565 221.752 532.252 221.065 533.099 221.065C533.946 221.065 534.633 221.752 534.633 222.599Z" fill="white"/>
<path d="M541.955 222.599C541.955 223.446 541.268 224.133 540.421 224.133C539.574 224.133 538.888 223.446 538.888 222.599C538.888 221.752 539.574 221.065 540.421 221.065C541.268 221.065 541.955 221.752 541.955 222.599Z" fill="white"/>
<path d="M549.277 222.599C549.277 223.446 548.591 224.133 547.744 224.133C546.897 224.133 546.21 223.446 546.21 222.599C546.21 221.752 546.897 221.065 547.744 221.065C548.591 221.065 549.277 221.752 549.277 222.599Z" fill="white"/>
<path d="M261.318 120.424C259.302 116.974 254.214 115.242 249.295 120.99C244.377 115.242 239.288 116.974 237.272 120.424C232.305 128.924 249.295 138.926 249.295 138.926C249.295 138.926 266.285 128.924 261.318 120.424Z" fill="#FCE6D2"/>
<path d="M142.461 150.567H117.721C116.237 150.567 115.023 149.353 115.023 147.87V133.158C115.023 131.675 116.237 130.461 117.721 130.461H142.461C143.944 130.461 145.158 131.675 145.158 133.158V147.87C145.158 149.353 143.944 150.567 142.461 150.567Z" fill="#FCE6D2"/>
<path d="M115.51 131.106L128.703 143.899C129.459 144.632 130.722 144.632 131.477 143.899L144.671 131.106" stroke="white" stroke-width="1.7952" stroke-miterlimit="10"/>
<path d="M115.51 149.919L126.335 141.604" stroke="white" stroke-width="1.7952" stroke-miterlimit="10"/>
<path d="M144.67 149.919L133.845 141.604" stroke="white" stroke-width="1.7952" stroke-miterlimit="10"/>
<path d="M66.4085 222.992H36.9932C35.5036 222.992 34.2959 221.784 34.2959 220.295V201.511C34.2959 200.021 35.5036 198.813 36.9932 198.813H66.4085C67.898 198.813 69.1058 200.021 69.1058 201.511V220.295C69.1058 221.784 67.898 222.992 66.4085 222.992Z" fill="#FCE6D2"/>
<path d="M51.7012 230.631L57.8047 222.399H45.5977L51.7012 230.631Z" fill="#FCE6D2"/>
<path d="M53.3269 207.232C52.3385 205.54 49.8438 204.691 47.4324 207.509C45.021 204.691 42.5262 205.54 41.5379 207.232C39.1025 211.399 47.4324 216.302 47.4324 216.302C47.4324 216.302 55.7623 211.399 53.3269 207.232Z" fill="white"/>
<path d="M60.8592 214.012H59.3534V209.889L59.368 209.211L59.3923 208.47C59.1421 208.721 58.9686 208.885 58.871 208.963L58.0522 209.621L57.3262 208.714L59.6213 206.887H60.8592V214.012Z" fill="white"/>
<path d="M495.031 182.444H465.615C464.126 182.444 462.918 181.236 462.918 179.747V160.963C462.918 159.473 464.126 158.266 465.615 158.266H495.031C496.52 158.266 497.728 159.473 497.728 160.963V179.747C497.728 181.236 496.52 182.444 495.031 182.444Z" fill="#FCE6D2"/>
<path d="M480.324 190.083L486.428 181.852H474.221L480.324 190.083Z" fill="#FCE6D2"/>
<path d="M489.481 173.464H487.975V169.341L487.989 168.663L488.014 167.923C487.763 168.173 487.59 168.337 487.492 168.415L486.674 169.073L485.947 168.167L488.243 166.339H489.481V173.464Z" fill="white"/>
<path d="M478.319 166.099H473.378C471.278 166.099 469.56 167.817 469.56 169.918C469.56 171.216 470.217 172.368 471.215 173.059V175.747L473.964 173.736H478.319C480.419 173.736 482.137 172.018 482.137 169.918C482.137 167.817 480.419 166.099 478.319 166.099Z" fill="white"/>
<g opacity="0.2">
<path d="M582.714 478.669C582.714 478.669 537.732 482.071 482.244 482.071C426.756 482.071 381.773 478.669 381.773 478.669C381.773 478.669 426.756 475.267 482.244 475.267C537.732 475.267 582.714 478.669 582.714 478.669Z" fill="#303672"/>
</g>
<path d="M552.768 415.165L542.766 390.095C542.137 388.135 540.314 386.806 538.255 386.806H503.972V424.544V462.282H568.736C571.352 462.282 573.473 460.161 573.473 457.545V423.191C573.473 420.574 571.352 418.454 568.736 418.454H557.278C555.22 418.454 553.397 417.124 552.768 415.165Z" fill="#D97C01"/>
<path d="M509.241 462.282H391.173C390.469 462.282 389.898 461.711 389.898 461.008V367.319C389.898 366.615 390.469 366.045 391.173 366.045H507.967C508.671 366.045 509.241 366.615 509.241 367.319V462.282Z" fill="#FC8F2C"/>
<g opacity="0.2">
<path d="M572.348 462.282H391.022C390.402 462.282 389.898 461.779 389.898 461.158V448.303H573.471V461.158C573.471 461.779 572.968 462.282 572.348 462.282Z" fill="#484848"/>
</g>
<path d="M440.148 462.282C440.148 471.45 432.716 478.882 423.547 478.882C414.379 478.882 406.947 471.45 406.947 462.282C406.947 453.114 414.379 445.682 423.547 445.682C432.716 445.682 440.148 453.114 440.148 462.282Z" fill="#222222"/>
<path d="M433.468 462.282C433.468 467.761 429.027 472.201 423.549 472.201C418.071 472.201 413.63 467.761 413.63 462.282C413.63 456.804 418.071 452.363 423.549 452.363C429.027 452.363 433.468 456.804 433.468 462.282Z" fill="#484848"/>
<path d="M562.882 462.282C562.882 471.45 555.45 478.882 546.282 478.882C537.114 478.882 529.682 471.45 529.682 462.282C529.682 453.114 537.114 445.682 546.282 445.682C555.45 445.682 562.882 453.114 562.882 462.282Z" fill="#222222"/>
<path d="M552.303 414.001H516.402V396.33H545.253L552.303 414.001Z" fill="white"/>
<path d="M556.199 462.282C556.199 467.761 551.759 472.201 546.28 472.201C540.802 472.201 536.361 467.761 536.361 462.282C536.361 456.804 540.802 452.363 546.28 452.363C551.759 452.363 556.199 456.804 556.199 462.282Z" fill="#484848"/>
<path d="M364.092 480.098L361.798 479.516L390.596 365.889L392.89 366.47L364.092 480.098Z" fill="#E06202"/>
<path d="M392.889 480.103L390.598 479.51L420.026 365.882L422.318 366.475L392.889 480.103Z" fill="#E06202"/>
<path d="M416.82 384.168H387.484V381.801H416.82V384.168Z" fill="#E06202"/>
<path d="M412.787 399.738H383.538V397.371H412.787V399.738Z" fill="#E06202"/>
<path d="M408.756 415.306H379.593V412.939H408.756V415.306Z" fill="#E06202"/>
<path d="M404.722 430.876H375.646V428.509H404.722V430.876Z" fill="#E06202"/>
<path d="M400.689 446.446H371.699V444.079H400.689V446.446Z" fill="#E06202"/>
<path d="M396.656 462.014H367.753V459.647H396.656V462.014Z" fill="#E06202"/>
<path d="M473.323 361.269C473.117 360.408 471.965 356.007 471.739 356.054C472.897 355.812 474.056 355.569 475.215 355.327C475.595 356.207 475.802 357.137 475.955 358.073C476.106 358.996 476.183 359.913 476.374 360.838C475.359 360.961 474.346 361.14 473.347 361.371C473.342 361.346 473.334 361.312 473.323 361.269Z" fill="#F4A49B"/>
<path d="M449.057 284.991C449.064 285 449.072 285.008 449.08 285.017C449.251 285.188 449.542 285.219 449.674 285.421C449.769 285.567 449.753 285.755 449.747 285.928C449.742 286.091 449.751 286.257 449.803 286.411C449.917 286.758 450.212 286.875 450.555 286.887C451.341 286.914 452.108 286.668 452.856 286.425C453.421 286.242 453.916 285.98 454.427 285.682C456.441 284.509 458.317 282.492 458.887 280.182C459.726 276.782 457.043 273.645 453.88 272.79C453.509 272.69 453.129 272.618 452.747 272.577C450.02 272.284 446.366 273.145 446.76 276.604C446.913 277.941 447.306 279.141 447.749 280.398C447.921 280.885 447.994 281.459 447.714 281.894C447.557 282.137 447.294 282.334 447.263 282.622C447.231 282.907 447.464 283.174 447.74 283.256C447.896 283.303 448.063 283.301 448.224 283.335C448.37 283.365 448.497 283.446 448.558 283.587C448.627 283.747 448.579 283.95 448.64 284.123C448.699 284.287 448.819 284.437 448.984 284.494C448.912 284.656 448.943 284.857 449.057 284.991Z" fill="#FEB08A"/>
<path d="M462.728 300.205C462.33 298.858 461.9 297.518 461.332 296.242C460.656 294.722 460.542 292.737 460.866 291.123C461.027 290.323 461.337 289.474 461.993 288.947C463.988 287.34 465.232 290.493 465.721 291.952C466.357 293.849 466.922 295.772 467.382 297.719C467.842 299.664 468.047 301.641 468.399 303.604C468.772 305.676 469.661 307.334 470.46 309.231C471.357 311.363 471.978 313.604 472.468 315.862C472.84 317.577 473.16 319.374 473.62 321.063C473.642 321.146 472.536 321.484 472.391 321.521C471.853 321.656 471.247 321.582 470.69 321.578C470.999 320.465 470.039 318.997 470.008 318.932C468.473 315.763 467.193 313.653 465.964 310.356C465.072 307.964 464.315 305.525 463.57 303.085C463.279 302.133 463.012 301.167 462.728 300.205Z" fill="#FEB08A"/>
<path d="M472.37 325.947C472.436 326.075 472.506 326.201 472.58 326.325C472.953 326.948 473.431 327.703 474.167 327.916C474.513 328.016 474.935 327.977 475.165 327.699C475.258 327.587 475.312 327.447 475.349 327.306C475.488 326.768 475.406 326.2 475.293 325.656C475.087 324.67 474.78 323.711 474.387 322.784C474.103 322.113 473.813 321.072 473.219 320.611C472.959 320.408 472.622 320.337 472.298 320.272C472.027 320.217 471.752 320.163 471.475 320.167C471.395 320.168 471.313 320.175 471.24 320.208C471.131 320.257 471.056 320.359 471 320.464C470.543 321.313 470.403 322.463 470.254 323.405C470.133 324.167 470.061 324.971 470.341 325.689C470.377 325.782 470.426 325.879 470.516 325.92C470.712 326.008 470.894 325.774 470.978 325.576C471.265 324.897 471.36 323.984 471.542 323.274C471.672 323.609 471.689 323.843 471.724 324.071C471.818 324.689 472.084 325.392 472.37 325.947Z" fill="#FEB08A"/>
<path d="M464.651 339.151C464.076 337.154 466.251 335.632 467.513 335.309C470.684 334.501 471.983 338.45 472.336 339.187C472.876 340.315 477.452 356.066 477.452 356.066L471.771 357.907C471.771 357.907 468.332 349.585 468.007 348.692C466.974 345.85 465.96 343.001 464.968 340.144C464.854 339.818 464.747 339.487 464.651 339.151Z" fill="#222222"/>
<path d="M466.761 341.337C464.881 340.449 463.138 339.195 462.361 337.165C461.381 334.608 460.991 331.776 460.215 329.148C459.33 326.149 458.344 323.18 457.713 320.112C457.31 318.158 457.006 316.182 456.852 314.193C456.712 312.381 457.174 311.544 458.683 310.456C460.72 308.988 463.314 308.259 465.814 308.603C469.417 309.099 469.594 312.488 470.389 315.295C471.235 318.285 471.245 321.418 470.915 324.486C470.574 327.666 470.583 330.904 470.455 334.1C470.416 335.089 470.806 339.996 468.356 341.045C468.039 341.181 467.076 341.486 466.761 341.337Z" fill="#222222"/>
<path d="M469.22 367.343C469.088 367.441 468.472 366.153 468.422 366.048C468.037 365.224 467.979 364.265 468.442 363.452C468.85 362.735 469.462 362.209 470.112 361.72C471.892 360.38 473.896 359.404 475.858 358.369C476.186 358.196 476.47 358.17 476.781 358.391C477.441 358.857 477.998 359.654 478.433 360.281C478.485 360.355 471.078 365.957 469.22 367.343Z" fill="#0A2D4E"/>
<path d="M466.695 363.947C466.669 363.062 466.445 358.519 466.214 358.519C467.398 358.519 468.581 358.519 469.765 358.519C469.957 359.459 469.969 360.412 469.926 361.36C469.884 362.294 469.771 363.207 469.769 364.151C468.75 364.064 467.722 364.031 466.697 364.052C466.697 364.027 466.696 363.992 466.695 363.947Z" fill="#F4A49B"/>
<path d="M463.55 346.074C463.238 343.714 462.911 341.355 462.461 339.018C461.994 336.593 461.385 334.19 460.511 331.878C459.075 328.075 457.734 324.223 456.8 320.263C456.343 318.321 455.785 317.501 455.825 315.506C455.865 313.544 456.017 311.713 457.494 310.583C459.488 309.058 462.061 308.255 464.569 308.527C469.02 309.01 469.004 314.071 469.394 317.414C469.842 321.249 470.052 325.11 470.073 328.971C470.083 330.901 470.046 332.832 469.967 334.761C469.87 337.116 470.392 339.208 470.724 341.534C470.975 343.302 470.96 345.094 470.944 346.88C470.902 351.673 470.807 361.26 470.807 361.26L465.414 361.363C465.131 357.569 464.611 353.799 464.081 350.033C463.896 348.715 463.725 347.394 463.55 346.074Z" fill="#222222"/>
<path d="M458.894 365.997C458.729 365.994 459.023 364.597 459.048 364.483C459.244 363.595 459.781 362.798 460.643 362.435C461.403 362.115 462.209 362.07 463.022 362.077C465.25 362.096 467.434 362.54 469.622 362.913C469.987 362.975 470.228 363.127 470.341 363.492C470.58 364.263 470.538 365.235 470.502 365.997C470.498 366.087 461.212 366.027 458.894 365.997Z" fill="#0A2D4E"/>
<path d="M455.096 289.162C455.129 289.213 455.165 289.266 455.219 289.293C455.285 289.326 455.344 289.385 455.382 289.448C456.191 290.792 460.279 288.005 459.451 286.921C458.431 285.37 457.644 284.265 456.543 282.77C456.51 282.725 456.472 282.676 456.418 282.661C456.352 282.642 456.285 282.678 456.227 282.712C455.529 283.123 454.836 283.541 454.148 283.967C453.566 284.327 452.961 284.632 452.385 285.007C452.913 285.69 453.335 286.393 453.793 287.126C454.22 287.81 454.654 288.488 455.096 289.162Z" fill="#F4A49B"/>
<path d="M455.984 317.486C458.566 317.009 461.133 316.46 463.683 315.838C464.229 315.705 470.757 313.992 470.735 313.91C470.224 311.963 469.609 310.06 469.092 308.101C468.215 304.773 467.525 301.401 466.735 298.053C466.022 295.033 465.469 291.556 463.364 289.167C461.303 286.829 457.423 286.321 454.873 287.765C452.379 289.177 451.518 292.349 451.558 295.19C451.638 300.891 453.276 307.096 454.708 312.591C455.134 314.223 455.559 315.855 455.984 317.486Z" fill="#FC8F2C"/>
<path d="M456.986 270.09C454.984 269.251 452.814 269.203 450.624 269.833C448.579 270.42 446.106 271.905 446.112 274.312C446.114 274.797 446.227 275.307 446.56 275.659C447.123 275.155 447.948 274.962 448.676 275.163C450.004 275.53 450.085 276.835 450.966 277.647C451.308 277.962 451.706 278.244 452.147 278.401C452.583 278.556 452.919 278.435 453.344 278.488C453.291 278.036 453.645 277.619 454.081 277.534C454.52 277.447 454.98 277.656 455.288 277.981C456.53 279.288 455.106 280.475 454.847 281.843C454.627 283.01 455.176 284.065 456.183 284.665C455.981 285.871 456.376 287.162 457.218 288.048C458.06 288.934 459.33 289.394 460.545 289.252C460.325 290.598 461.139 291.981 462.32 292.663C463.5 293.345 464.966 293.402 466.288 293.071C468.256 292.577 469.974 291.268 471.129 289.6C471.716 288.75 472.177 287.776 472.223 286.744C472.303 284.956 471.036 283.25 469.363 282.613C469.237 282.564 469.1 282.516 469.018 282.407C468.958 282.326 468.937 282.224 468.916 282.125C468.305 279.323 465.739 277.065 462.882 276.813C461.922 273.905 459.833 271.283 456.986 270.09Z" fill="#0A2D4E"/>
<path d="M444.373 315.186C445.454 314.695 446.533 314.201 447.609 313.699C447.839 313.591 448.08 313.481 448.334 313.489C448.862 313.504 449.361 314.613 449.647 315.004C449.696 315.071 449.746 315.141 449.756 315.223C449.794 315.521 448.902 316.021 448.689 316.18C448.234 316.518 447.768 316.84 447.303 317.165C446.4 317.797 445.497 318.438 444.707 319.211C444.339 319.571 443.981 319.935 443.456 319.689C442.655 319.315 441.774 318.141 441.668 317.247C441.543 316.183 442.881 315.86 443.624 315.525C443.874 315.412 444.124 315.299 444.373 315.186Z" fill="#E6AF3A"/>
<path d="M456.957 305.33C458.109 305.874 458.962 305.007 459.1 304.487C459.237 303.967 459.231 303.422 459.224 302.884C459.194 300.487 459.151 298.089 459.176 295.691C459.187 294.628 459.416 293.367 459.174 292.335C458.961 291.425 458.284 290.577 457.661 289.906C456.9 289.088 455.856 288.489 454.74 288.445C454.376 288.431 453.942 288.522 453.8 288.857C453.746 288.985 453.745 289.128 453.744 289.267C453.738 292.314 453.955 295.363 454.504 298.362C454.572 298.734 454.447 304.092 456.957 305.33Z" fill="#FEB08A"/>
<path d="M452.635 306.275C451.726 307.27 450.925 308.399 450.142 309.494C449.755 310.035 449.402 310.602 449.029 311.148C448.658 311.692 448.13 312.17 447.685 312.659C448.004 312.958 448.318 313.263 448.626 313.575C448.831 313.782 448.958 313.966 449.261 313.983C449.665 314.006 450.058 313.768 450.374 313.542C451.072 313.044 451.587 312.363 452.199 311.773C454.213 309.831 456.289 307.938 458.177 305.873C458.824 305.173 459.52 304.307 459.315 303.376C459.2 302.851 458.804 302.422 458.343 302.145C457.881 301.868 457.362 301.698 456.837 301.579C455.623 301.304 452.999 305.841 452.635 306.275Z" fill="#FEB08A"/>
<path d="M444.81 319.052C446.212 320.555 448.053 321.721 450.09 321.999C450.613 322.07 451.279 322.194 451.384 322.711C451.42 322.888 451.373 323.071 451.322 323.245C450.293 326.704 447.139 329.433 443.568 329.953C442.703 330.079 441.618 329.967 441.261 329.169C441.123 328.862 441.129 328.513 441.136 328.177C441.172 326.625 441.205 325.065 441.005 323.526C440.798 321.937 440.338 320.382 439.655 318.933C439.133 317.826 437.746 316.359 438.181 315.021C438.306 314.636 438.635 314.351 438.985 314.147C439.251 313.992 439.541 313.871 439.846 313.832C441.175 313.666 441.798 315.251 442.487 316.069C443.298 317.032 443.945 318.124 444.81 319.052Z" fill="#FEBE52"/>
<path d="M443.262 325.992C443.282 325.974 443.301 325.956 443.32 325.939C444.465 324.891 445.76 324.012 447.152 323.336C448.286 322.786 450.105 321.874 451.352 322.473C452.358 322.956 451.97 324.086 451.538 324.844C450.401 326.838 448.72 328.526 446.74 329.686C445.41 330.465 443.514 331.379 442.011 330.528C441.938 330.487 441.867 330.441 441.798 330.392C441.638 330.278 441.493 330.143 441.368 329.992C440.288 328.695 442.355 326.819 443.262 325.992Z" fill="#E6AF3A"/>
<path d="M446.334 324.819C446.697 324.618 447.133 324.428 447.556 324.427C447.868 324.426 448.166 324.603 448.237 324.919C448.314 325.259 448.039 325.637 447.825 325.878C447.165 326.618 446.328 327.247 445.305 327.306C445.072 327.32 444.803 327.289 444.666 327.1C444.516 326.892 444.6 326.6 444.721 326.374C445.065 325.733 445.704 325.168 446.334 324.819Z" fill="#FEBE52"/>
<path d="M446.751 318.042C446.774 318.046 446.797 318.048 446.821 318.05C447.06 318.064 447.287 317.957 447.5 317.85C448.004 317.597 448.499 317.326 448.983 317.038C449.192 316.914 449.404 316.782 449.557 316.593C449.932 316.128 449.865 315.398 449.956 314.841C450.063 314.181 450.514 313.519 450.861 312.952C450.908 312.874 450.928 312.784 450.975 312.706C451.388 312.012 449.236 310.343 448.382 311.794C448.246 312.025 448.111 312.318 447.906 312.494C447.728 312.646 447.736 312.825 447.545 312.967C447.054 313.332 446.552 313.687 446.024 313.998C445.703 314.19 445.395 314.459 445.31 314.823C445.208 315.263 445.471 315.639 445.582 316.046C445.699 316.478 445.777 316.908 445.963 317.321C446.115 317.659 446.391 317.985 446.751 318.042Z" fill="#F4A49B"/>
<g opacity="0.2">
<path d="M31.6104 479.724C31.6104 479.724 48.1773 482.848 68.6138 482.848C89.0502 482.848 105.617 479.724 105.617 479.724C105.617 479.724 89.0502 476.6 68.6138 476.6C48.1773 476.6 31.6104 479.724 31.6104 479.724Z" fill="#0E5280"/>
</g>
<path d="M67.6207 479.724H41.7686V453.872H67.6207V479.724Z" fill="#FC8F2C"/>
<path d="M67.6207 457.152H41.7686V453.872H67.6207V457.152Z" fill="#E06202"/>
<path d="M93.9801 479.724H68.1279V453.872H93.9801V479.724Z" fill="#FC8F2C"/>
<path d="M93.9801 457.152H68.1279V453.872H93.9801V457.152Z" fill="#E06202"/>
<path d="M80.7691 453.588H54.917V427.736H80.7691V453.588Z" fill="#FC8F2C"/>
<path d="M80.7691 431.017H54.917V427.736H80.7691V431.017Z" fill="#E06202"/>
<g opacity="0.2">
<path d="M168.051 477.381C168.051 477.381 153.922 480.607 136.493 480.607C119.064 480.607 104.936 477.381 104.936 477.381C104.936 477.381 119.064 474.155 136.493 474.155C153.922 474.155 168.051 477.381 168.051 477.381Z" fill="#0E5280"/>
</g>
<path d="M142.863 475.859C142.889 474.974 143.113 470.431 143.344 470.431C142.16 470.431 140.976 470.431 139.793 470.432C139.601 471.371 139.589 472.324 139.632 473.272C139.673 474.206 139.786 475.119 139.789 476.063C140.808 475.976 141.835 475.943 142.861 475.964C142.861 475.939 142.862 475.904 142.863 475.859Z" fill="#F4A49B"/>
<path d="M150.665 477.91C150.829 477.908 150.535 476.51 150.51 476.397C150.315 475.509 149.777 474.712 148.915 474.348C148.155 474.028 147.349 473.983 146.536 473.99C144.309 474.009 142.124 474.454 139.936 474.826C139.571 474.888 139.33 475.041 139.217 475.405C138.978 476.176 139.02 477.148 139.056 477.91C139.06 478 148.347 477.94 150.665 477.91Z" fill="#0A2D4E"/>
<path d="M145.046 456.837C145.095 456.362 145.146 455.887 145.198 455.412C145.322 454.286 145.454 453.16 145.531 452.029C145.632 450.532 145.635 449.03 145.638 447.53C145.644 444.155 145.651 440.779 145.54 437.405C145.441 434.386 145.526 431.04 144.774 428.108C144.44 426.803 143.499 425.031 142.124 424.571C141.687 424.425 141.215 424.432 140.754 424.44C139.455 424.464 138.155 424.488 136.855 424.512C136.071 424.526 135.215 424.567 134.626 425.085C133.267 426.279 134.767 430.095 135.086 431.561C135.542 433.656 135.345 435.934 135.887 437.955C136.473 440.144 137.498 442.161 137.927 444.41C138.876 449.383 138.695 454.469 138.591 459.503C138.568 460.577 138.944 472.609 138.944 472.609L143.989 472.366C143.989 472.366 144.04 470.797 144.057 470.234C144.089 469.228 144.153 468.222 144.211 467.218C144.409 463.752 144.688 460.29 145.046 456.837Z" fill="#222222"/>
<path d="M129.174 475.32C129.199 474.444 129.421 469.944 129.65 469.944C128.478 469.945 127.306 469.945 126.134 469.945C125.944 470.876 125.932 471.819 125.974 472.758C126.015 473.683 126.127 474.587 126.13 475.522C127.139 475.436 128.156 475.403 129.172 475.424C129.172 475.399 129.173 475.364 129.174 475.32Z" fill="#F4A49B"/>
<path d="M132.021 457.562C132.236 454.745 132.478 451.93 132.917 449.14C133.506 445.452 134.498 441.801 135.537 438.215C135.908 436.934 136.287 435.649 136.472 434.328C136.596 433.434 136.631 432.531 136.666 431.629C136.712 430.425 136.759 429.22 136.805 428.016C136.863 426.529 136.916 425.009 136.483 423.586C135.709 421.041 133.795 420.165 131.279 420.438C126.872 420.917 126.888 425.928 126.502 429.239C126.059 433.037 125.85 436.86 125.83 440.683C125.819 442.595 125.856 444.507 125.935 446.418C126.03 448.75 125.513 450.821 125.185 453.124C124.936 454.875 124.951 456.65 124.967 458.418C125.009 463.165 125.103 472.659 125.103 472.659L130.443 472.76C130.67 469.719 131.237 466.708 131.528 463.67C131.722 461.639 131.865 459.6 132.021 457.562Z" fill="#222222"/>
<path d="M136.944 477.91C137.109 477.908 136.814 476.51 136.789 476.397C136.594 475.509 136.056 474.712 135.194 474.348C134.435 474.028 133.628 473.983 132.815 473.99C130.588 474.009 128.403 474.454 126.216 474.826C125.851 474.888 125.61 475.041 125.497 475.405C125.257 476.176 125.3 477.148 125.335 477.91C125.339 478 134.626 477.94 136.944 477.91Z" fill="#0A2D4E"/>
<path d="M152.477 398.668C153.417 398.412 152.618 398.929 153.059 397.8C154.666 393.683 156.834 389.819 158.526 385.772C159.044 384.534 160.361 384.65 160.573 385.982C160.886 387.944 160.057 389.897 159.535 391.75C158.707 394.683 158.027 397.662 157.304 400.626C157.152 401.247 156.997 401.877 156.691 402.438C155.583 404.472 151.832 403.459 149.7 403.549C146.525 403.684 143.353 403.651 140.177 403.671C138.925 403.679 137.455 403.823 136.352 403.121C135.042 402.286 134.74 400.242 136.169 399.356C137.961 398.245 140.825 398.365 142.855 398.447C145.571 398.556 148.287 398.683 151.002 398.805C151.571 398.831 152.051 398.784 152.477 398.668Z" fill="#FEB08A"/>
<path d="M147.977 398.392C147.977 398.393 147.856 405.07 147.856 405.07C147.856 405.07 143.959 405.252 142.028 405.048C140.854 404.924 138.105 403.359 137.801 401.057C137.56 399.232 138.683 397.551 139.721 397.262C141.051 396.892 142.256 397.102 144.105 397.457C144.471 397.527 147.98 398.246 147.977 398.392Z" fill="#E06202"/>
<path d="M160.025 380.229C160.177 380.23 160.328 380.239 160.479 380.256C160.6 380.269 160.722 380.288 160.832 380.339C161.033 380.431 161.171 380.616 161.299 380.796C161.792 381.486 162.129 382.247 162.093 383.108C162.06 383.902 161.356 384.526 161.437 385.346C161.443 385.408 161.451 385.475 161.419 385.528C161.392 385.572 161.343 385.597 161.296 385.619C160.727 385.885 160.155 386.145 159.58 386.396C159.466 386.446 159.338 386.496 159.222 386.452C159.112 386.411 159.048 386.297 158.994 386.192C158.531 385.3 158.081 384.441 157.522 383.615C157.331 383.333 157.162 382.99 157.189 382.64C157.204 382.454 157.297 382.358 157.359 382.197C157.441 381.987 157.448 381.724 157.485 381.502C157.645 380.541 157.806 379.579 157.967 378.617C158.001 378.415 158.039 378.204 158.166 378.044C158.293 377.885 158.541 377.801 158.707 377.921C158.896 378.057 158.867 378.342 158.826 378.572C158.727 379.125 158.678 379.688 158.679 380.25C158.679 380.29 158.682 380.334 158.711 380.361C158.747 380.394 158.804 380.383 158.851 380.371C159.234 380.273 159.63 380.225 160.025 380.229Z" fill="#FEB08A"/>
<path d="M144.874 426.839C141.55 427.049 138.219 427.181 134.887 427.233C134.173 427.245 125.603 427.253 125.603 427.162C125.6 425.009 125.74 422.873 125.74 420.706C125.74 417.024 125.496 413.348 125.382 409.669C125.28 406.352 124.833 402.604 126.644 399.559C128.418 396.579 133.018 394.995 136.617 395.793C140.137 396.574 142.222 399.62 143.092 402.57C144.839 408.489 144.837 415.354 144.856 421.428C144.862 423.232 144.868 425.035 144.874 426.839Z" fill="#E06202"/>
<path d="M139.061 379.527C139.326 379.693 139.566 379.873 139.759 380.062C140.823 381.106 141.274 382.1 141.182 383.601C141.097 384.987 140.987 386.449 140.202 387.595C139.815 388.159 139.286 388.61 138.757 389.046C138.548 389.218 138.311 389.399 138.039 389.39C137.763 389.381 137.535 389.177 137.363 388.961C136.778 388.223 136.58 387.261 136.34 386.35C136.033 385.18 135.592 384.487 134.696 383.729C133.87 383.031 133.043 382.171 132.959 381.03C132.909 380.338 133.222 379.643 133.732 379.171C134.607 378.36 135.814 378.276 136.919 378.591C137.571 378.777 138.396 379.109 139.061 379.527Z" fill="#0A2D4E"/>
<path d="M136.875 396.184C136.788 396.739 136.606 397.235 136.243 397.545C135.807 397.917 135.18 397.966 134.6 397.992C134.165 398.011 133.727 398.026 133.298 397.953C131.427 397.637 131.396 396.283 131.582 394.769C131.728 393.574 131.745 392.36 131.851 391.16C131.857 391.1 131.864 391.034 131.906 390.99C131.957 390.937 132.04 390.932 132.114 390.931C133.001 390.918 133.889 390.914 134.777 390.92C135.527 390.925 136.268 390.868 137.021 390.89C136.918 391.806 136.926 392.68 136.916 393.603C136.91 394.268 137.013 395.3 136.875 396.184Z" fill="#DD9892"/>
<path d="M141.107 392.951C140.942 393.363 140.749 393.764 140.529 394.149C140.379 394.412 140.212 394.673 139.971 394.857C139.703 395.061 139.365 395.15 139.033 395.211C138.082 395.384 137.137 395.311 136.192 395.16C134.489 394.889 132.765 393.857 131.414 392.82C129.748 391.542 128.329 389.669 128.322 387.492C128.317 385.779 129.12 384.16 130.258 382.915C131.281 381.796 132.602 380.922 134.05 380.466C134.174 380.427 134.299 380.391 134.425 380.358C135.568 380.063 136.891 380.038 137.986 380.531C139.403 381.168 140.492 382.298 140.557 383.919C140.573 384.321 140.525 384.725 140.566 385.125C140.678 386.221 141.427 387.151 141.686 388.222C141.793 388.663 141.814 389.121 141.802 389.575C141.774 390.729 141.536 391.878 141.107 392.951Z" fill="#F4A49B"/>
<path d="M125.441 389.017C125.048 388.055 124.802 387.031 124.86 386.074C124.961 384.416 125.512 382.873 126.576 381.581C129.212 378.377 133.428 377.368 137.379 377.154C137.965 377.122 138.554 377.094 139.139 377.155C140.372 377.281 141.684 377.897 141.926 379.216C142.016 379.704 141.901 380.225 141.617 380.631C141.076 381.4 140.002 381.606 139.125 381.754C138.058 381.933 137.002 382.132 135.939 382.32C135.006 382.486 134.061 382.741 133.355 383.411C131.977 384.717 132.391 387.044 132.97 388.638C133.369 389.735 134.138 390.916 135.284 391.314C135.831 391.504 136.426 391.518 137.002 391.454C137.857 391.36 138.718 391.169 139.529 390.884C139.943 390.739 140.349 390.568 140.742 390.374C140.847 390.322 141.829 389.643 141.804 389.575C142.753 390.646 142.281 392.363 141.994 393.765C141.732 395.047 140.688 396.181 139.416 396.716C138.299 397.186 136.97 396.901 135.963 396.228C134.956 395.554 134.227 394.541 133.622 393.492C133.008 392.426 132.499 391.302 132.11 390.135C131.916 389.554 131.743 388.947 131.368 388.463C131.167 388.204 130.896 387.98 130.573 387.927C130.184 387.864 129.782 388.071 129.548 388.389C129.315 388.706 129.234 389.116 129.253 389.51C129.32 390.931 130.519 391.556 131.434 392.423C131.616 392.595 131.796 392.79 131.855 393.034C131.883 393.148 131.884 393.266 131.884 393.383C131.884 393.613 131.884 393.843 131.884 394.074C131.884 394.359 131.883 394.65 131.788 394.918C131.798 394.89 130.617 394.467 130.47 394.432C128.862 394.053 127.512 392.516 126.623 391.205C126.189 390.566 125.765 389.812 125.441 389.017Z" fill="#0A2D4E"/>
<path d="M111.546 426.85L104.119 439.432L122.663 450.379L130.09 437.797L111.546 426.85Z" fill="white"/>
<path d="M117.692 414.217C116.892 415.608 116.653 417.26 116.339 418.81C115.899 420.986 115.747 423.221 115.896 425.436C115.954 426.299 116.499 430.569 118.294 429.096C118.549 428.887 118.658 428.553 118.754 428.238C119.855 424.632 120.799 420.978 121.584 417.29C121.969 415.909 122.387 414.077 120.842 413.016C119.681 412.219 118.265 413.221 117.692 414.217Z" fill="#FEB08A"/>
<path d="M117.427 432.905C117.446 433.032 117.468 433.156 117.489 433.274C117.536 433.544 117.565 433.922 117.52 434.194C117.472 434.488 117.235 434.726 116.963 434.848C116.647 434.988 116.187 435.1 115.917 434.849C115.012 434.008 114.503 432.758 114.563 431.524C114.573 431.313 114.599 431.103 114.631 430.894C114.692 430.5 114.795 430.114 114.854 429.722C114.899 429.427 115.068 429.165 115.199 428.897C115.484 428.316 115.794 427.632 116.358 427.269C116.654 427.078 117.017 427.035 117.366 426.996C117.659 426.963 117.955 426.93 118.248 426.961C118.333 426.97 118.42 426.985 118.494 427.027C118.604 427.089 118.675 427.204 118.725 427.321C119.13 428.264 119.17 429.496 119.24 430.507C119.261 430.803 119.253 431.098 119.268 431.393C119.01 431.232 118.753 431.072 118.487 430.925C118.335 430.841 118.171 430.76 117.998 430.768C117.598 430.787 117.535 431.332 117.445 431.625C117.325 432.012 117.362 432.477 117.427 432.905Z" fill="#F4A49B"/>
<path d="M119.844 409.684C118.603 411.685 116.681 414.214 117.927 416.428C118.533 417.503 120.931 417.566 122.676 415.002C123.34 413.746 124.261 412.804 125.041 411.667C126.955 408.876 129.706 406.286 129.919 402.694C129.986 401.559 129.624 399.644 128.143 399.711C126.905 399.768 126.044 400.932 125.291 401.765C123.305 403.959 121.701 406.469 120.236 409.03C120.115 409.242 119.982 409.461 119.844 409.684Z" fill="#FEB08A"/>
<path d="M126.197 410.48C126.196 410.479 120.085 406.883 120.085 406.883C120.085 406.883 121.95 403.185 123.146 401.506C123.986 400.328 125.008 399.031 126.311 398.344C127.466 397.735 128.758 397.82 129.863 398.49C131 399.181 131.774 400.447 131.787 401.787C131.808 403.864 130.364 405.875 129.082 407.388C128.826 407.69 126.33 410.558 126.197 410.48Z" fill="#E06202"/>
</g>
<path d="M376.752 349.064C376.309 349.064 375.952 348.931 375.68 348.664C375.408 348.397 375.272 348.048 375.272 347.616V347.408C375.272 347.381 375.28 347.36 375.296 347.344C375.317 347.323 375.341 347.312 375.368 347.312H376.096C376.123 347.312 376.144 347.323 376.16 347.344C376.181 347.36 376.192 347.381 376.192 347.408V347.568C376.192 347.776 376.243 347.944 376.344 348.072C376.451 348.2 376.587 348.264 376.752 348.264C376.917 348.264 377.053 348.205 377.16 348.088C377.267 347.965 377.32 347.805 377.32 347.608C377.32 347.469 377.291 347.349 377.232 347.248C377.173 347.147 377.091 347.051 376.984 346.96C376.877 346.869 376.707 346.739 376.472 346.568C376.205 346.376 375.989 346.205 375.824 346.056C375.664 345.907 375.528 345.728 375.416 345.52C375.309 345.307 375.256 345.061 375.256 344.784C375.256 344.341 375.389 343.989 375.656 343.728C375.923 343.467 376.275 343.336 376.712 343.336C377.155 343.336 377.512 343.475 377.784 343.752C378.056 344.024 378.192 344.387 378.192 344.84V345.032C378.192 345.059 378.181 345.083 378.16 345.104C378.144 345.12 378.123 345.128 378.096 345.128H377.376C377.349 345.128 377.325 345.12 377.304 345.104C377.288 345.083 377.28 345.059 377.28 345.032V344.824C377.28 344.616 377.227 344.451 377.12 344.328C377.019 344.2 376.883 344.136 376.712 344.136C376.552 344.136 376.421 344.195 376.32 344.312C376.219 344.424 376.168 344.581 376.168 344.784C376.168 344.976 376.221 345.139 376.328 345.272C376.44 345.405 376.656 345.589 376.976 345.824C377.301 346.064 377.547 346.261 377.712 346.416C377.877 346.565 378.005 346.731 378.096 346.912C378.187 347.093 378.232 347.309 378.232 347.56C378.232 348.013 378.096 348.379 377.824 348.656C377.552 348.928 377.195 349.064 376.752 349.064ZM380.685 345.008C380.685 344.981 380.693 344.96 380.709 344.944C380.73 344.923 380.754 344.912 380.781 344.912H381.517C381.543 344.912 381.565 344.923 381.581 344.944C381.602 344.96 381.613 344.981 381.613 345.008V348.904C381.613 348.931 381.602 348.955 381.581 348.976C381.565 348.992 381.543 349 381.517 349H380.781C380.754 349 380.73 348.992 380.709 348.976C380.693 348.955 380.685 348.931 380.685 348.904V348.728C380.685 348.712 380.679 348.701 380.669 348.696C380.658 348.691 380.647 348.696 380.637 348.712C380.482 348.941 380.234 349.056 379.893 349.056C379.567 349.056 379.303 348.96 379.101 348.768C378.903 348.571 378.805 348.269 378.805 347.864V345.008C378.805 344.981 378.813 344.96 378.829 344.944C378.85 344.923 378.874 344.912 378.901 344.912H379.637C379.663 344.912 379.685 344.923 379.701 344.944C379.722 344.96 379.733 344.981 379.733 345.008V347.664C379.733 348.064 379.887 348.264 380.197 348.264C380.351 348.264 380.471 348.208 380.557 348.096C380.642 347.979 380.685 347.821 380.685 347.624V345.008ZM384.041 344.848C384.393 344.848 384.667 344.963 384.865 345.192C385.067 345.421 385.169 345.739 385.169 346.144V347.768C385.169 348.163 385.07 348.477 384.873 348.712C384.675 348.947 384.398 349.064 384.041 349.064C383.753 349.064 383.513 348.971 383.321 348.784C383.31 348.773 383.299 348.771 383.289 348.776C383.278 348.781 383.273 348.792 383.273 348.808V348.904C383.273 348.931 383.262 348.955 383.241 348.976C383.225 348.992 383.203 349 383.177 349H382.441C382.414 349 382.39 348.992 382.369 348.976C382.353 348.955 382.345 348.931 382.345 348.904V343.496C382.345 343.469 382.353 343.448 382.369 343.432C382.39 343.411 382.414 343.4 382.441 343.4H383.177C383.203 343.4 383.225 343.411 383.241 343.432C383.262 343.448 383.273 343.469 383.273 343.496V345.112C383.273 345.128 383.278 345.139 383.289 345.144C383.305 345.144 383.321 345.133 383.337 345.112C383.438 345.021 383.55 344.955 383.673 344.912C383.801 344.869 383.923 344.848 384.041 344.848ZM384.249 346.216C384.249 346.045 384.203 345.909 384.113 345.808C384.022 345.701 383.902 345.648 383.753 345.648C383.625 345.648 383.518 345.691 383.433 345.776C383.347 345.856 383.294 345.965 383.273 346.104V347.808C383.294 347.947 383.347 348.059 383.433 348.144C383.518 348.224 383.625 348.264 383.753 348.264C383.902 348.264 384.022 348.213 384.113 348.112C384.203 348.005 384.249 347.867 384.249 347.696V346.216ZM389.397 344.848C389.743 344.848 390.005 344.971 390.181 345.216C390.362 345.456 390.453 345.792 390.453 346.224V348.904C390.453 348.931 390.442 348.955 390.421 348.976C390.405 348.992 390.383 349 390.357 349H389.629C389.602 349 389.578 348.992 389.557 348.976C389.541 348.955 389.533 348.931 389.533 348.904V346.288C389.533 346.085 389.493 345.928 389.413 345.816C389.333 345.704 389.223 345.648 389.085 345.648C388.935 345.648 388.818 345.704 388.733 345.816C388.647 345.928 388.605 346.083 388.605 346.28V348.904C388.605 348.931 388.594 348.955 388.573 348.976C388.557 348.992 388.535 349 388.509 349H387.781C387.754 349 387.73 348.992 387.709 348.976C387.693 348.955 387.685 348.931 387.685 348.904V346.288C387.685 346.085 387.642 345.928 387.557 345.816C387.477 345.704 387.37 345.648 387.237 345.648C387.087 345.648 386.97 345.704 386.885 345.816C386.799 345.928 386.757 346.083 386.757 346.28V348.904C386.757 348.931 386.746 348.955 386.725 348.976C386.709 348.992 386.687 349 386.661 349H385.933C385.906 349 385.882 348.992 385.861 348.976C385.845 348.955 385.837 348.931 385.837 348.904V345.008C385.837 344.981 385.845 344.96 385.861 344.944C385.882 344.923 385.906 344.912 385.933 344.912H386.661C386.687 344.912 386.709 344.923 386.725 344.944C386.746 344.96 386.757 344.981 386.757 345.008V345.136C386.757 345.152 386.762 345.163 386.773 345.168C386.783 345.173 386.794 345.168 386.805 345.152C386.911 345.045 387.031 344.968 387.165 344.92C387.298 344.872 387.429 344.848 387.557 344.848C387.951 344.848 388.242 345.016 388.429 345.352C388.445 345.373 388.469 345.365 388.501 345.328C388.607 345.157 388.741 345.035 388.901 344.96C389.066 344.885 389.231 344.848 389.397 344.848ZM391.645 344.352C391.48 344.352 391.344 344.299 391.237 344.192C391.13 344.085 391.077 343.949 391.077 343.784C391.077 343.619 391.13 343.483 391.237 343.376C391.344 343.269 391.48 343.216 391.645 343.216C391.81 343.216 391.944 343.269 392.045 343.376C392.152 343.483 392.205 343.619 392.205 343.784C392.205 343.949 392.152 344.085 392.045 344.192C391.938 344.299 391.805 344.352 391.645 344.352ZM391.285 349C391.258 349 391.234 348.992 391.213 348.976C391.197 348.955 391.189 348.931 391.189 348.904V345.008C391.189 344.981 391.197 344.96 391.213 344.944C391.234 344.923 391.258 344.912 391.285 344.912H392.021C392.048 344.912 392.069 344.923 392.085 344.944C392.106 344.96 392.117 344.981 392.117 345.008V348.904C392.117 348.931 392.106 348.955 392.085 348.976C392.069 348.992 392.048 349 392.021 349H391.285ZM394.588 345.472C394.588 345.499 394.577 345.523 394.556 345.544C394.54 345.56 394.518 345.568 394.492 345.568H393.996C393.969 345.568 393.956 345.581 393.956 345.608V347.704C393.956 347.891 393.99 348.021 394.06 348.096C394.129 348.165 394.233 348.197 394.372 348.192H394.428C394.454 348.192 394.476 348.203 394.492 348.224C394.513 348.24 394.524 348.261 394.524 348.288V348.904C394.524 348.931 394.513 348.955 394.492 348.976C394.476 348.992 394.454 349 394.428 349H394.156C393.793 349 393.518 348.933 393.332 348.8C393.15 348.667 393.06 348.416 393.06 348.048V345.608C393.06 345.581 393.046 345.568 393.02 345.568H392.74C392.713 345.568 392.689 345.56 392.668 345.544C392.652 345.523 392.644 345.499 392.644 345.472V345.008C392.644 344.981 392.652 344.96 392.668 344.944C392.689 344.923 392.713 344.912 392.74 344.912H393.02C393.046 344.912 393.06 344.899 393.06 344.872V343.992C393.06 343.965 393.068 343.944 393.084 343.928C393.105 343.907 393.129 343.896 393.156 343.896H393.86C393.886 343.896 393.908 343.907 393.924 343.928C393.945 343.944 393.956 343.965 393.956 343.992V344.872C393.956 344.899 393.969 344.912 393.996 344.912H394.492C394.518 344.912 394.54 344.923 394.556 344.944C394.577 344.96 394.588 344.981 394.588 345.008V345.472Z" fill="white"/>
</svg>
