<svg width="191" height="282" viewBox="0 0 191 282" fill="none" xmlns="http://www.w3.org/2000/svg">
<path opacity="0.2" d="M184.701 26.4431C184.28 26.6247 177.171 24.2783 168.895 21.2359C114.128 1.08954 110.271 0.0457235 108.275 4.9001C107.426 6.96439 108.325 8.2455 111.984 10.1746C121.628 15.2469 117.644 15.7229 103.801 11.1489C85.7624 5.19047 67.8132 0.513861 62.9154 0.502584C58.3164 0.488966 56.0805 5.25169 59.0251 8.79976C60.1803 10.1999 65.2064 13.0809 70.0704 15.1441C81.9704 20.1845 86.2777 24.14 77.3315 21.8168C70.3003 19.9891 65.8726 20.7206 64.5514 23.9331C64.0767 25.0872 61.143 26.8158 57.8407 27.8919C50.5087 30.2806 49.4786 32.7851 53.642 38.1004C55.5179 40.4925 56.6678 43.1009 56.2738 44.0586C55.8726 45.0343 56.5151 46.94 57.7803 48.5106C59.5664 50.7336 59.4869 51.6676 57.3406 53.4348C55.1835 55.2115 53.0562 54.9627 45.8287 52.0805C27.4121 44.7354 16.9634 44.1798 18.992 50.6619C19.6445 52.7456 26.2344 55.7134 54.3337 66.5541C85.4423 78.5629 90.8696 81.7479 70.191 75.879C62.9363 73.8202 61.4997 74.064 61.4174 77.3617C61.3833 78.8083 64.6401 81.2606 70.8018 84.4278C89.4134 94.0093 88.6725 97.1405 69.3085 90.769C55.039 86.0685 50.8396 85.8576 49.2418 89.7423C48.7745 90.8786 45.7527 92.6196 42.4675 93.6541C38.0919 95.0331 36.2613 96.5545 35.4706 99.4705C34.4151 103.383 34.2569 103.381 19.3881 99.3799C3.37087 95.0735 0.78112 95.1073 0.701964 99.6096C0.64932 102.6 -1.70781 101.63 49.7529 119.763C55.8558 121.912 59.7248 123.885 58.9427 124.44C58.1858 124.984 55.691 124.619 53.245 123.613C50.7991 122.607 46.5307 122.597 43.4923 123.587C39.7409 124.812 35.3823 124.585 29.2628 122.847C18.5991 119.817 13.1252 120.466 15.2371 124.506C16.3531 126.642 19.6609 128.044 30.6607 131.031C47.0333 135.483 181.269 191.911 217.52 209.582C229.691 215.513 245.398 223.1 252.235 226.343C271.903 235.678 304.487 251.945 309.68 255.026C312.258 256.553 318.68 259.98 323.812 262.57C328.943 265.161 335.685 269.04 338.644 271.105C343.575 274.552 355.513 280.596 359.939 281.888C362.067 282.506 364.518 277.456 363.062 275.459C362.507 274.702 357.757 271.941 352.616 269.389C347.435 266.819 334.748 260.51 324.466 255.39C308.098 247.24 266.926 226.55 242.339 214.121C237.765 211.809 222.559 204.671 208.394 198.185C194.229 191.698 183.165 186.257 183.695 186.03C184.783 185.573 207.981 194.947 237.353 207.709C255.005 215.38 308.702 241.68 314.814 245.641C317.322 247.271 320.232 248.057 321.881 247.567C323.792 246.996 327.416 248.202 333.258 251.37C348.197 259.461 350.886 260.533 354.131 259.697C356.244 259.154 359.654 260.174 364.171 262.693C371.533 266.799 378.035 267.219 379.488 263.686C380.626 260.919 377.082 256.791 371.651 254.557C367.032 252.657 366.636 251.145 370.345 249.618C373.553 248.301 373.723 242.18 370.634 239.269C369.188 237.902 363.844 234.549 358.768 231.822C349.667 226.931 346.916 223.921 351.653 224.02C352.998 224.051 354.761 222.641 355.434 221.005C356.636 218.084 357.232 218.183 367.476 223.009C376.392 227.205 378.487 227.718 379.59 225.995C380.676 224.299 378.338 222.475 366.964 216.156C341.109 201.794 301.181 180.656 286.5 173.554C269.542 165.355 252.362 156.891 243.451 152.343C240.051 150.61 232.539 147.207 226.714 144.77C220.889 142.333 216.746 140.1 217.483 139.805C218.93 139.217 277.181 163.399 294.674 171.845C300.792 174.799 314.004 181.026 324.007 185.662C334.01 190.298 345.841 196.249 350.266 198.855C354.675 201.454 364.325 206.578 371.578 210.173C382.794 215.732 385.269 216.514 387.663 215.273C389.891 214.116 390.307 213.223 389.634 211.054C388.924 208.773 389.992 208.635 396.004 210.246C400.01 211.316 404.232 212.413 405.475 212.708C406.814 213.022 408.114 211.881 408.698 209.888C409.41 207.468 410.431 206.852 412.392 207.659C413.884 208.272 415.923 207.894 416.923 206.81C420.309 203.139 419.393 202.219 403.294 193.094C398.016 190.102 397.074 188.874 397.546 185.604C398.328 180.201 392.944 174.621 383.03 170.543C373.927 166.799 372.054 164.436 376.964 162.901C380.255 161.869 381.754 162.451 407.383 174.668C425.305 183.215 430.383 183.613 420.611 175.706C416.08 172.041 415.907 171.518 418.764 170.161C420.457 169.362 422.65 166.891 423.492 164.844C424.334 162.798 425.756 161.31 426.555 161.639C428.427 162.409 429.921 158.474 428.506 156.508C427.894 155.658 424.505 153.492 420.959 151.693C412.422 147.347 402.009 140.595 401.279 138.918C400.963 138.204 403.966 138.952 407.904 140.572C417.279 144.428 423.89 142.967 423.302 137.174C422.802 132.295 421.999 131.79 389.426 116.001C349.568 96.6793 348.516 96.191 308.851 78.6878C256.294 55.4927 242.261 49.679 241.019 50.5594C240.393 51.0044 237.049 49.775 233.561 47.8186C226.327 43.7723 185.739 26.0074 184.701 26.4431ZM255.324 70.9657C255.058 71.6142 253.557 72.1655 252.146 72.1277C249.944 72.0775 249.95 71.8089 252.17 70.6212C255.209 69.0058 256.093 69.0977 255.324 70.9657ZM260.411 74.8105C260.086 75.6017 259.108 75.4708 258.077 74.4907C257.053 73.513 256.406 72.5789 256.535 72.2636C256.665 71.9483 257.643 72.0794 258.863 72.5812C260.089 73.0854 260.736 74.0193 260.411 74.8105ZM366.105 121.725C362.646 122.409 360.762 121.669 362.581 120.345C363.46 119.705 365.134 119.642 366.496 120.203C368.528 121.038 368.474 121.252 366.105 121.725ZM383.126 128.795C386.468 130.315 386.502 130.469 383.475 130.455C379.672 130.442 372.548 126.246 371.328 123.303C370.79 122.003 371.973 122.309 374.989 124.252C377.502 125.87 381.055 127.853 383.126 128.795ZM211.875 111.722C211.572 112.46 210.254 112.196 208.796 111.095C207.343 109.997 206.345 108.94 206.474 108.624C206.602 108.315 207.92 108.579 209.554 109.251C211.189 109.923 212.179 110.984 211.875 111.722ZM102.301 100.318C102.46 101.295 101.238 101.557 99.6089 100.888C97.9803 100.218 97.2876 99.1745 98.0962 98.589C98.9373 97.9751 100.089 97.7326 100.788 98.02C101.487 98.3075 102.135 99.2904 102.301 100.318ZM90.1595 96.4376C89.0396 96.4499 87.411 95.7801 86.6298 94.9858C85.8486 94.1915 86.8018 94.1803 88.7029 94.9622C90.604 95.7442 91.2794 96.4252 90.1595 96.4376ZM194.645 141.645C194.325 142.424 193.037 142.659 191.817 142.158C190.597 141.656 190.242 140.752 191.05 140.166C191.891 139.552 193.103 139.334 193.885 139.656C194.654 139.972 194.98 140.83 194.645 141.645ZM218.068 152.475C214.952 151.548 210.203 149.594 207.337 148.061C204.539 146.562 207.088 147.319 212.927 149.72C218.764 152.128 221.11 153.378 218.068 152.475ZM262.252 172.087C270.322 176.018 277.644 180.254 278.414 181.447C279.38 182.936 278.357 182.745 275.171 180.829C272.606 179.288 261.122 173.674 249.518 168.282C237.921 162.893 228.143 157.627 227.68 156.511C227.124 155.17 230.329 156.251 237.171 159.699C242.821 162.544 254.182 168.156 262.252 172.087ZM321.029 226.489C320.318 226.788 319.097 226.355 318.189 225.481C317.257 224.583 317.776 224.365 319.436 224.958C320.958 225.5 321.699 226.208 321.029 226.489ZM120.455 153.169C119.758 153.668 114.242 151.977 108.296 149.448C100.188 145.995 98.8015 145.09 102.845 145.898C110.775 147.477 121.962 152.098 120.455 153.169ZM137.159 159.795C136.841 160.569 134.597 160.418 132.293 159.47C129.983 158.52 128.289 157.051 128.607 156.278C128.925 155.505 131.169 155.656 133.473 156.603C135.774 157.557 137.477 159.022 137.159 159.795ZM178.205 176.601C179.025 177.787 176.588 177.063 172.261 174.838C162.167 169.65 161.082 168.348 169.714 171.773C173.672 173.345 177.426 175.48 178.205 176.601ZM175.896 182.029C174.388 181.84 172.078 180.89 170.867 179.961C169.663 179.035 170.948 179.194 173.66 180.31C176.376 181.434 177.404 182.218 175.896 182.029Z" fill="#FF8F00"/>
</svg>
