<svg width="101" height="74" viewBox="0 0 101 74" fill="none" xmlns="http://www.w3.org/2000/svg">
<path d="M50.8555 0.22127C50.8555 0.336597 50.8564 0.453381 50.8564 0.570168C52.7044 -0.0692392 54.3644 1.9789 56.2614 1.3468C56.2804 1.23293 56.2984 1.12052 56.3174 1.00665C54.4014 1.63438 52.7225 -0.416677 50.8555 0.22127Z" fill="#333333"/>
<path d="M50.8564 0.568639C50.8564 0.683966 50.8575 0.800762 50.8575 0.916089C52.6865 0.273762 54.3274 2.31899 56.2054 1.68396C56.2244 1.5701 56.2424 1.45769 56.2614 1.34382C54.3644 1.97739 52.7044 -0.0707684 50.8564 0.568639Z" fill="#E9E9E9"/>
<path d="M50.8574 0.917504C50.8574 1.03283 50.8584 1.14963 50.8584 1.26495C52.6684 0.619707 54.2904 2.66347 56.1494 2.02552C56.1684 1.91165 56.1864 1.79924 56.2054 1.68538C54.3274 2.32041 52.6864 0.275177 50.8574 0.917504Z" fill="#333333"/>
<path d="M50.8594 1.26585C50.8604 1.38264 50.8604 1.49796 50.8604 1.61475C52.6514 0.966581 54.2544 3.00743 56.0944 2.36656C56.1134 2.25269 56.1314 2.14028 56.1504 2.02642C54.2904 2.66436 52.6694 0.622063 50.8594 1.26585Z" fill="#E9E9E9"/>
<path d="M50.8604 1.6142C50.8604 1.72953 50.8614 1.84632 50.8614 1.9631C52.6334 1.31202 54.2174 3.34995 56.0384 2.70616C56.0574 2.5923 56.0754 2.47989 56.0944 2.36602C54.2544 3.00689 52.6514 0.966038 50.8604 1.6142Z" fill="#333333"/>
<path d="M50.8613 1.96166C50.8613 2.07698 50.8623 2.19379 50.8623 2.31058C52.6153 1.65657 54.1803 3.69158 55.9823 3.04633C56.0013 2.93246 56.0193 2.82005 56.0383 2.70618C54.2173 3.34851 52.6333 1.31203 50.8613 1.96166Z" fill="#E9E9E9"/>
<path d="M50.8623 2.31003C50.8623 2.42536 50.8633 2.54213 50.8633 2.65746C52.5973 2.002 54.1433 4.03409 55.9263 3.38446C55.9453 3.27059 55.9633 3.15818 55.9823 3.04432C54.1803 3.69102 52.6153 1.65603 50.8623 2.31003Z" fill="#333333"/>
<path d="M50.8633 2.65893C50.8643 2.77425 50.8643 2.89103 50.8643 3.00636C52.5793 2.34797 54.1063 4.37716 55.8703 3.72607C55.8893 3.6122 55.9073 3.49979 55.9263 3.38593C54.1433 4.03409 52.5973 2.002 50.8633 2.65893Z" fill="#E9E9E9"/>
<path d="M50.8652 3.00729C50.8652 3.12408 50.8662 3.2394 50.8662 3.35619C52.5622 2.69489 54.0702 4.72114 55.8152 4.06713C55.8342 3.95326 55.8522 3.84088 55.8712 3.72701C54.1062 4.37809 52.5802 2.34891 50.8652 3.00729Z" fill="#333333"/>
<path d="M50.8672 3.35621C50.8672 3.47154 50.8682 3.58833 50.8682 3.70366C52.5452 3.03943 54.0342 5.06277 55.7612 4.40584C55.7802 4.29198 55.7982 4.17957 55.8172 4.0657C54.0712 4.72116 52.5632 2.6949 50.8672 3.35621Z" fill="#E9E9E9"/>
<path d="M50.8672 3.70309C50.8672 3.81987 50.8682 3.9352 50.8682 4.05199C52.5262 3.38484 53.9962 5.40671 55.7042 4.74686C55.7232 4.633 55.7412 4.52059 55.7602 4.40672C54.0332 5.06365 52.5442 3.03886 50.8672 3.70309Z" fill="#333333"/>
<path d="M50.8691 4.05209C50.8701 4.16742 50.8701 4.2842 50.8701 4.40099C52.5091 3.73092 53.9602 5.74988 55.6492 5.08711C55.6682 4.97324 55.6862 4.86083 55.7052 4.74697C53.9972 5.40535 52.5271 3.38495 50.8691 4.05209Z" fill="#E9E9E9"/>
<path d="M50.8691 4.39996C50.8691 4.51529 50.8701 4.63207 50.8701 4.74739C52.4901 4.07587 53.9222 6.09043 55.5922 5.42621C55.6112 5.31234 55.6292 5.19996 55.6482 5.08609C53.9592 5.74885 52.5081 3.7299 50.8691 4.39996Z" fill="#333333"/>
<path d="M50.8555 0.221685C50.8585 1.03481 50.8605 1.84648 50.8635 2.65961C51.6595 2.35158 52.4494 2.63331 53.2274 2.95302C53.2864 2.15011 53.3455 1.34576 53.4055 0.54285C52.5655 0.212928 51.7135 -0.0775812 50.8555 0.221685Z" fill="#505050"/>
<path d="M51.1133 0.354211C51.1033 0.326474 51.0942 0.300198 51.0842 0.272461C51.0742 0.304577 51.0642 0.335237 51.0552 0.367354C51.0332 0.377573 51.0122 0.387786 50.9902 0.398005C51.0062 0.416982 51.0212 0.434514 51.0372 0.453492C51.0332 0.487069 51.0292 0.519175 51.0262 0.552751C51.0452 0.532313 51.0652 0.511875 51.0842 0.492897C51.1032 0.503116 51.1232 0.514799 51.1422 0.525018C51.1382 0.494362 51.1352 0.462252 51.1312 0.431596C51.1472 0.405319 51.1632 0.379028 51.1792 0.354211C51.1562 0.354211 51.1353 0.354211 51.1133 0.354211Z" fill="#565656"/>
<path d="M51.541 0.302935C51.532 0.273739 51.523 0.244534 51.513 0.216797C51.503 0.245994 51.493 0.275197 51.482 0.305854C51.46 0.311693 51.438 0.317523 51.416 0.323362C51.431 0.345259 51.447 0.367154 51.462 0.389052C51.458 0.421168 51.454 0.453298 51.449 0.485415C51.469 0.469357 51.488 0.453291 51.508 0.437233C51.527 0.451832 51.546 0.466428 51.566 0.481027C51.563 0.44891 51.56 0.416802 51.556 0.384686C51.572 0.361328 51.589 0.339413 51.605 0.316056C51.585 0.311676 51.563 0.307315 51.541 0.302935Z" fill="#565656"/>
<path d="M51.9707 0.327832C51.9617 0.297175 51.9527 0.266501 51.9437 0.237305C51.9327 0.265042 51.9227 0.292799 51.9117 0.321995C51.8897 0.323455 51.8677 0.32636 51.8457 0.329279C51.8607 0.354097 51.8757 0.377458 51.8917 0.402276C51.8867 0.434392 51.8827 0.465052 51.8777 0.497168C51.8977 0.48403 51.9177 0.47088 51.9377 0.457741C51.9567 0.475259 51.9757 0.492793 51.9947 0.510311C51.9917 0.478194 51.9897 0.444616 51.9867 0.4125C52.0027 0.392062 52.0197 0.371614 52.0357 0.351176C52.0137 0.342417 51.9927 0.335131 51.9707 0.327832Z" fill="#565656"/>
<path d="M52.3974 0.410322C52.3894 0.378206 52.3804 0.347546 52.3724 0.31543C52.3614 0.341707 52.3504 0.369433 52.3394 0.39571C52.3174 0.39571 52.2954 0.394262 52.2734 0.394262C52.2884 0.420539 52.3034 0.446817 52.3174 0.473094C52.3124 0.503751 52.3074 0.53586 52.3024 0.566517C52.3224 0.556298 52.3424 0.546075 52.3624 0.534396C52.3814 0.554834 52.3994 0.573812 52.4184 0.59425C52.4164 0.560673 52.4134 0.528567 52.4114 0.494991C52.4284 0.476013 52.4444 0.458481 52.4614 0.439503C52.4404 0.430744 52.4194 0.420541 52.3974 0.410322Z" fill="#565656"/>
<path d="M52.8212 0.53677C52.8132 0.504654 52.8052 0.472546 52.7972 0.44043C52.7862 0.466707 52.7752 0.491515 52.7632 0.517792C52.7412 0.514872 52.7192 0.513427 52.6982 0.510508C52.7122 0.538245 52.7272 0.565969 52.7412 0.593706C52.7362 0.624363 52.7303 0.655024 52.7253 0.685681C52.7453 0.676922 52.7652 0.668155 52.7852 0.659396C52.8032 0.681293 52.8222 0.70174 52.8402 0.723638C52.8382 0.690062 52.8362 0.656495 52.8352 0.624379C52.8522 0.606861 52.8693 0.589338 52.8853 0.57328C52.8643 0.560141 52.8432 0.548449 52.8212 0.53677Z" fill="#565656"/>
<path d="M53.2422 0.688631C53.2342 0.656515 53.2271 0.622937 53.2191 0.59082C53.2081 0.615637 53.1961 0.641917 53.1841 0.666735C53.1621 0.663815 53.1411 0.65943 53.1191 0.65651C53.1331 0.684247 53.1472 0.713442 53.1612 0.741179C53.1552 0.771835 53.1501 0.802497 53.1441 0.833153C53.1641 0.825854 53.1842 0.817108 53.2042 0.809809C53.2222 0.831706 53.2401 0.855049 53.2581 0.876947C53.2571 0.84337 53.2552 0.809804 53.2542 0.777688C53.2712 0.76163 53.2881 0.744117 53.3051 0.728058C53.2841 0.71492 53.2632 0.70177 53.2422 0.688631Z" fill="#565656"/>
<path d="M51.3173 0.553924C51.3083 0.526187 51.2983 0.49844 51.2893 0.470703C51.2793 0.50136 51.2693 0.532021 51.2593 0.562678C51.2373 0.571437 51.2163 0.578734 51.1943 0.587493C51.2103 0.60793 51.2253 0.626909 51.2403 0.647346C51.2363 0.679463 51.2323 0.713041 51.2283 0.745157C51.2473 0.726179 51.2673 0.708658 51.2863 0.69114C51.3053 0.704278 51.3243 0.715958 51.3433 0.729097C51.3403 0.69698 51.3363 0.66632 51.3333 0.634204C51.3493 0.609387 51.3653 0.586025 51.3813 0.561208C51.3613 0.558288 51.3393 0.555383 51.3173 0.553924Z" fill="#565656"/>
<path d="M51.7441 0.541205C51.7351 0.512008 51.7261 0.481345 51.7171 0.452148C51.7071 0.481345 51.6961 0.50909 51.6861 0.538287C51.6641 0.542667 51.6421 0.54705 51.6211 0.551429C51.6361 0.574787 51.6511 0.59668 51.6671 0.620037C51.6631 0.652154 51.6581 0.684262 51.6541 0.716378C51.6741 0.70178 51.6931 0.687183 51.7131 0.672585C51.7321 0.688643 51.7511 0.704708 51.7701 0.720766C51.7671 0.68865 51.7641 0.656542 51.7611 0.624426C51.7771 0.602528 51.7931 0.580621 51.8101 0.560184C51.7871 0.552884 51.7661 0.547044 51.7441 0.541205Z" fill="#565656"/>
<path d="M52.1679 0.595398C52.1589 0.564741 52.1509 0.534069 52.1419 0.501953C52.1309 0.52969 52.1209 0.557449 52.1099 0.583726C52.0879 0.585186 52.0669 0.585184 52.0449 0.586644C52.0599 0.611461 52.0749 0.637719 52.0899 0.662536C52.0849 0.693192 52.0809 0.725324 52.0759 0.755981C52.0959 0.744302 52.1149 0.73262 52.1349 0.720942C52.1539 0.739919 52.1719 0.758899 52.1909 0.777877C52.1879 0.745761 52.1859 0.712183 52.1829 0.680066C52.1999 0.661089 52.2159 0.640638 52.2319 0.621661C52.2109 0.612902 52.1899 0.604157 52.1679 0.595398Z" fill="#565656"/>
<path d="M52.5918 0.700833C52.5838 0.668717 52.5758 0.636609 52.5668 0.604492C52.5558 0.630769 52.5448 0.657047 52.5338 0.683324C52.5118 0.681865 52.4907 0.680396 52.4688 0.678936C52.4828 0.705213 52.4977 0.732962 52.5117 0.759239C52.5067 0.789895 52.5018 0.822005 52.4968 0.852661C52.5168 0.842443 52.5368 0.833677 52.5568 0.823458C52.5748 0.843896 52.5938 0.864333 52.6118 0.88623C52.6098 0.852654 52.6078 0.820548 52.6058 0.786971C52.6228 0.769453 52.6388 0.750472 52.6558 0.732954C52.6348 0.722735 52.6138 0.711052 52.5918 0.700833Z" fill="#565656"/>
<path d="M53.0116 0.839998C53.0036 0.807882 52.9966 0.774304 52.9886 0.742188C52.9776 0.768465 52.9657 0.793273 52.9547 0.81955C52.9327 0.81663 52.9116 0.813715 52.8896 0.810795C52.9036 0.838532 52.9176 0.866267 52.9316 0.895464C52.9266 0.92612 52.9206 0.956782 52.9146 0.987439C52.9346 0.97868 52.9546 0.971383 52.9746 0.962624C52.9926 0.984521 53.0106 1.00642 53.0286 1.02831C53.0266 0.994738 53.0257 0.961171 53.0237 0.929055C53.0407 0.911537 53.0576 0.895473 53.0736 0.877955C53.0536 0.864817 53.0326 0.853137 53.0116 0.839998Z" fill="#565656"/>
<path d="M51.1044 0.831279C51.0944 0.805002 51.0854 0.777254 51.0764 0.750977C51.0664 0.783093 51.0574 0.813753 51.0474 0.845869C51.0264 0.856088 51.0044 0.866312 50.9834 0.87799C50.9994 0.896968 51.0144 0.914478 51.0294 0.933456C51.0254 0.967032 51.0224 1.00062 51.0184 1.03274C51.0374 1.0123 51.0564 0.991861 51.0754 0.972883C51.0944 0.983102 51.1134 0.994763 51.1324 1.00498C51.1284 0.974325 51.1254 0.942216 51.1224 0.911559C51.1384 0.885282 51.1534 0.859014 51.1694 0.834197C51.1474 0.831277 51.1254 0.831279 51.1044 0.831279Z" fill="#565656"/>
<path d="M51.5263 0.779476C51.5173 0.750279 51.5083 0.721096 51.4993 0.693359C51.4893 0.722556 51.4793 0.753197 51.4693 0.782394C51.4473 0.788233 51.4263 0.794073 51.4043 0.801372C51.4193 0.82327 51.4343 0.845177 51.4503 0.865614C51.4463 0.897731 51.4423 0.929839 51.4383 0.961955C51.4573 0.945897 51.4773 0.929854 51.4963 0.913796C51.5153 0.928394 51.5343 0.942991 51.5533 0.957589C51.5503 0.925473 51.5473 0.893342 51.5443 0.861226C51.5603 0.837869 51.5763 0.815975 51.5923 0.792618C51.5693 0.786779 51.5483 0.782395 51.5263 0.779476Z" fill="#565656"/>
<path d="M51.9501 0.799489C51.9411 0.768832 51.9321 0.738181 51.9241 0.708984C51.9141 0.736721 51.9031 0.764456 51.8931 0.793653C51.8711 0.796572 51.8501 0.798017 51.8281 0.800937C51.8431 0.825754 51.8581 0.849116 51.8731 0.873933C51.8681 0.906049 51.8641 0.936709 51.8591 0.968826C51.8791 0.955687 51.8981 0.942559 51.9181 0.929421C51.9371 0.946939 51.9561 0.96445 51.9741 0.981968C51.9711 0.949852 51.9691 0.917734 51.9661 0.884157C51.9821 0.86372 51.9981 0.843271 52.0151 0.822833C51.9921 0.815534 51.9711 0.806788 51.9501 0.799489Z" fill="#565656"/>
<path d="M52.3701 0.881026C52.3621 0.848909 52.3531 0.818249 52.3451 0.786133C52.3341 0.81241 52.323 0.840136 52.313 0.866413C52.291 0.866413 52.27 0.866413 52.248 0.866413C52.263 0.89269 52.2771 0.918968 52.2921 0.945245C52.2871 0.975902 52.2821 1.00803 52.2771 1.03869C52.2971 1.02847 52.3161 1.01679 52.3361 1.00657C52.3541 1.02701 52.3731 1.04599 52.3911 1.06642C52.3891 1.03431 52.3861 1.00072 52.3841 0.967142C52.4001 0.948164 52.417 0.929194 52.433 0.911676C52.412 0.901458 52.3911 0.891244 52.3701 0.881026Z" fill="#565656"/>
<path d="M52.789 1.00552C52.781 0.973404 52.773 0.941296 52.765 0.90918C52.754 0.935457 52.743 0.960265 52.732 0.986542C52.711 0.983622 52.689 0.982177 52.668 0.979258C52.682 1.00699 52.696 1.03472 52.71 1.06246C52.705 1.09311 52.699 1.12377 52.694 1.15443C52.714 1.14567 52.733 1.1369 52.753 1.12815C52.771 1.15004 52.789 1.17049 52.807 1.19239C52.805 1.15881 52.803 1.12671 52.802 1.09313C52.819 1.07561 52.835 1.05808 52.852 1.04056C52.831 1.02888 52.81 1.0172 52.789 1.00552Z" fill="#565656"/>
<path d="M53.204 1.15738C53.197 1.12526 53.189 1.09169 53.182 1.05957C53.171 1.08439 53.159 1.11067 53.148 1.13548C53.127 1.13256 53.105 1.12818 53.084 1.12526C53.098 1.153 53.111 1.18219 53.125 1.20993C53.119 1.24059 53.113 1.27125 53.108 1.3019C53.128 1.2946 53.147 1.28586 53.167 1.27856C53.185 1.30046 53.202 1.3238 53.22 1.3457C53.219 1.31212 53.217 1.27855 53.216 1.24644C53.233 1.23038 53.25 1.21287 53.266 1.19681C53.245 1.18367 53.225 1.17052 53.204 1.15738Z" fill="#565656"/>
<path d="M51.3065 1.03049C51.2975 1.00275 51.2875 0.975002 51.2785 0.947266C51.2685 0.977922 51.2585 1.00858 51.2495 1.03924C51.2285 1.048 51.2065 1.0553 51.1855 1.06406C51.2005 1.08449 51.2155 1.10347 51.2315 1.12391C51.2275 1.15603 51.2235 1.1896 51.2195 1.22172C51.2385 1.20274 51.2576 1.18522 51.2766 1.1677C51.2956 1.18084 51.3146 1.19252 51.3326 1.20566C51.3296 1.17354 51.3255 1.14288 51.3225 1.11077C51.3385 1.08595 51.3535 1.06113 51.3695 1.03777C51.3485 1.03485 51.3275 1.03195 51.3065 1.03049Z" fill="#565656"/>
<path d="M51.7255 1.01386C51.7165 0.984665 51.7075 0.954001 51.6985 0.924805C51.6885 0.954001 51.6785 0.983206 51.6675 1.01094C51.6455 1.01532 51.6245 1.01968 51.6035 1.02406C51.6185 1.04742 51.6335 1.06934 51.6485 1.09269C51.6445 1.12481 51.6395 1.15692 51.6355 1.18903C51.6545 1.17444 51.6745 1.15984 51.6935 1.14524C51.7125 1.1613 51.7305 1.17736 51.7495 1.19342C51.7465 1.16131 51.7435 1.12918 51.7405 1.09706C51.7565 1.07516 51.7725 1.05327 51.7885 1.03137C51.7685 1.02553 51.7465 1.0197 51.7255 1.01386Z" fill="#565656"/>
<path d="M52.1454 1.06658C52.1364 1.03593 52.1284 1.00527 52.1194 0.974609C52.1084 1.00235 52.0984 1.02862 52.0874 1.05636C52.0664 1.05782 52.0444 1.05782 52.0234 1.05928C52.0384 1.08409 52.0524 1.10892 52.0674 1.13519C52.0624 1.16585 52.0584 1.19796 52.0534 1.22861C52.0734 1.21694 52.0924 1.20528 52.1114 1.1936C52.1294 1.21258 52.1484 1.23155 52.1664 1.24906C52.1644 1.21695 52.1614 1.18337 52.1594 1.15125C52.1754 1.13081 52.1914 1.11185 52.2084 1.09287C52.1874 1.08411 52.1664 1.07534 52.1454 1.06658Z" fill="#565656"/>
<path d="M52.5614 1.17056C52.5534 1.13844 52.5454 1.10634 52.5374 1.07422C52.5264 1.1005 52.5154 1.12677 52.5044 1.15305C52.4834 1.15159 52.4614 1.15012 52.4404 1.14866C52.4544 1.17494 52.4694 1.20267 52.4834 1.22894C52.4784 1.2596 52.4734 1.29027 52.4684 1.32239C52.4884 1.31217 52.5074 1.3034 52.5274 1.29318C52.5454 1.31362 52.5634 1.33407 52.5814 1.35451C52.5794 1.32093 52.5774 1.2888 52.5754 1.25523C52.5914 1.23771 52.6084 1.21873 52.6244 1.20121C52.6034 1.19245 52.5824 1.18078 52.5614 1.17056Z" fill="#565656"/>
<path d="M52.9755 1.30875C52.9675 1.27663 52.9605 1.24451 52.9525 1.21094C52.9415 1.23721 52.9305 1.26202 52.9185 1.2883C52.8975 1.28538 52.8765 1.28247 52.8545 1.27955C52.8685 1.30728 52.8825 1.33503 52.8965 1.36277C52.8915 1.39342 52.8855 1.42408 52.8795 1.45474C52.8995 1.44598 52.9185 1.43866 52.9385 1.4299C52.9565 1.4518 52.9735 1.47372 52.9915 1.49562C52.9905 1.46204 52.9885 1.42845 52.9865 1.39633C53.0035 1.37882 53.0195 1.36275 53.0365 1.34524C53.0165 1.33356 52.9955 1.32189 52.9755 1.30875Z" fill="#565656"/>
<path d="M51.0956 1.30882C51.0866 1.28108 51.0766 1.25479 51.0676 1.22852C51.0586 1.26063 51.0486 1.29129 51.0386 1.32341C51.0176 1.33363 50.9966 1.34531 50.9756 1.35553C50.9906 1.37305 51.0056 1.39202 51.0216 1.41099C51.0176 1.44457 51.0146 1.47816 51.0106 1.51028C51.0296 1.48984 51.0486 1.46939 51.0666 1.44895C51.0856 1.45917 51.1036 1.46939 51.1226 1.48107C51.1186 1.45042 51.1156 1.41831 51.1126 1.38765C51.1276 1.36137 51.1436 1.3351 51.1586 1.30882C51.1386 1.30736 51.1166 1.30736 51.0956 1.30882Z" fill="#565656"/>
<path d="M51.5116 1.25411C51.5026 1.22491 51.4936 1.19717 51.4846 1.16797C51.4746 1.19717 51.4647 1.22783 51.4547 1.25703C51.4337 1.26286 51.4126 1.2687 51.3906 1.276C51.4056 1.2979 51.4206 1.31833 51.4356 1.34022C51.4316 1.37234 51.4276 1.40446 51.4236 1.43803C51.4426 1.42198 51.4617 1.40446 51.4807 1.38841C51.4997 1.403 51.5177 1.4176 51.5367 1.4322C51.5337 1.40008 51.5306 1.36797 51.5276 1.33586C51.5436 1.3125 51.5586 1.28913 51.5746 1.26723C51.5546 1.26139 51.5336 1.25703 51.5116 1.25411Z" fill="#565656"/>
<path d="M51.9286 1.27314C51.9196 1.24249 51.9116 1.21181 51.9026 1.18262C51.8926 1.21035 51.8816 1.23809 51.8716 1.26729C51.8506 1.27021 51.8286 1.27168 51.8076 1.27606C51.8226 1.29942 51.8366 1.32423 51.8516 1.34759C51.8476 1.3797 51.8426 1.41036 51.8386 1.44248C51.8576 1.42934 51.8766 1.41619 51.8966 1.40305C51.9146 1.42057 51.9336 1.43811 51.9516 1.45562C51.9486 1.42351 51.9466 1.38993 51.9436 1.35781C51.9596 1.33737 51.9756 1.31693 51.9916 1.29649C51.9706 1.28773 51.9496 1.28044 51.9286 1.27314Z" fill="#565656"/>
<path d="M52.3437 1.35124C52.3357 1.32058 52.3277 1.28847 52.3187 1.25781C52.3077 1.28409 52.2977 1.31184 52.2867 1.33811C52.2657 1.33811 52.2437 1.33811 52.2227 1.33811C52.2367 1.36439 52.2517 1.39067 52.2657 1.41695C52.2607 1.4476 52.2557 1.47971 52.2507 1.51037C52.2697 1.49869 52.2897 1.48847 52.3087 1.47825C52.3267 1.49869 52.3447 1.51766 52.3627 1.5381C52.3607 1.50599 52.3587 1.47242 52.3557 1.43884C52.3717 1.41987 52.3877 1.40087 52.4047 1.38336C52.3857 1.37168 52.3647 1.36145 52.3437 1.35124Z" fill="#565656"/>
<path d="M52.7548 1.47525C52.7468 1.44313 52.7388 1.41102 52.7318 1.37891C52.7208 1.40518 52.7098 1.43145 52.6988 1.45627C52.6778 1.45481 52.6568 1.45189 52.6348 1.45043C52.6488 1.47817 52.6628 1.50589 52.6768 1.53363C52.6718 1.56429 52.6668 1.59495 52.6608 1.62561C52.6808 1.61685 52.6997 1.6081 52.7188 1.59934C52.7367 1.62124 52.7548 1.64166 52.7718 1.66356C52.7698 1.62999 52.7678 1.59788 52.7668 1.5643C52.7828 1.54679 52.7998 1.52925 52.8158 1.51173C52.7958 1.4986 52.7758 1.48693 52.7548 1.47525Z" fill="#565656"/>
<path d="M53.1639 1.62613C53.1569 1.59401 53.1499 1.56044 53.1419 1.52832C53.1309 1.55314 53.1199 1.57942 53.1079 1.60423C53.0869 1.60131 53.0659 1.59693 53.0449 1.59401C53.0589 1.62175 53.0719 1.65096 53.0859 1.6787C53.0799 1.70936 53.0749 1.74 53.0689 1.77065C53.0879 1.76335 53.1079 1.75461 53.1269 1.74731C53.1439 1.76921 53.1619 1.79109 53.1789 1.81445C53.1779 1.78087 53.1759 1.7473 53.1749 1.71519C53.1919 1.69913 53.2079 1.68162 53.2249 1.66556C53.2049 1.65096 53.1839 1.63927 53.1639 1.62613Z" fill="#565656"/>
<path d="M51.2948 1.50605C51.2858 1.47831 51.2768 1.45059 51.2678 1.42285C51.2578 1.45351 51.2488 1.48415 51.2388 1.5148C51.2178 1.52356 51.1968 1.53087 51.1758 1.54109C51.1908 1.56007 51.2058 1.5805 51.2208 1.60094C51.2168 1.63306 51.2128 1.66664 51.2098 1.69875C51.2288 1.67978 51.2478 1.66227 51.2658 1.64329C51.2838 1.65497 51.3028 1.66811 51.3218 1.68125C51.3188 1.64913 51.3158 1.61847 51.3118 1.58635C51.3268 1.56154 51.3428 1.53671 51.3578 1.51336C51.3368 1.50898 51.3158 1.50751 51.2948 1.50605Z" fill="#565656"/>
<path d="M51.7089 1.48847C51.6999 1.45927 51.6919 1.43007 51.6829 1.39941C51.6729 1.42861 51.6629 1.45782 51.6529 1.48555C51.6319 1.48993 51.6108 1.49432 51.5898 1.4987C51.6048 1.52205 51.6199 1.54395 51.6339 1.5673C51.6299 1.59942 51.6248 1.63153 51.6208 1.66364C51.6398 1.64905 51.6589 1.63445 51.6779 1.61985C51.6959 1.63591 51.7148 1.65197 51.7328 1.66803C51.7298 1.63592 51.7268 1.60379 51.7238 1.57167C51.7398 1.54977 51.7548 1.52788 51.7708 1.50598C51.7498 1.50014 51.7289 1.49431 51.7089 1.48847Z" fill="#565656"/>
<path d="M52.121 1.53826C52.113 1.50761 52.104 1.47695 52.096 1.44629C52.086 1.47403 52.075 1.50176 52.065 1.52804C52.044 1.5295 52.023 1.53097 52.002 1.53243C52.016 1.55724 52.031 1.58206 52.045 1.60834C52.04 1.639 52.036 1.67112 52.031 1.70323C52.05 1.69156 52.069 1.67987 52.089 1.6682C52.107 1.68717 52.125 1.70614 52.143 1.72366C52.141 1.69008 52.138 1.65797 52.136 1.62585C52.152 1.60687 52.168 1.58644 52.184 1.56747C52.162 1.55579 52.141 1.54702 52.121 1.53826Z" fill="#565656"/>
<path d="M52.5331 1.64079C52.5251 1.60867 52.5171 1.57655 52.5091 1.5459C52.4981 1.57218 52.4881 1.59845 52.4771 1.62473C52.4561 1.62327 52.4351 1.6218 52.4141 1.62034C52.4281 1.64662 52.4421 1.67437 52.4561 1.70064C52.4511 1.7313 52.4461 1.76195 52.4411 1.79407C52.4601 1.78385 52.4801 1.77508 52.4991 1.76486C52.5171 1.7853 52.5341 1.80575 52.5521 1.82619C52.5501 1.79261 52.5481 1.76048 52.5461 1.72691C52.5621 1.70939 52.5781 1.69041 52.5951 1.67289C52.5741 1.66267 52.5531 1.65101 52.5331 1.64079Z" fill="#565656"/>
<path d="M52.9393 1.7775C52.9323 1.74538 52.9243 1.71326 52.9173 1.67969C52.9063 1.70596 52.8953 1.73077 52.8843 1.75705C52.8633 1.75413 52.8423 1.75122 52.8213 1.7483C52.8353 1.77603 52.8483 1.80378 52.8623 1.83152C52.8573 1.86217 52.8513 1.89283 52.8463 1.92349C52.8653 1.91473 52.8853 1.90595 52.9043 1.89865C52.9213 1.92055 52.9393 1.94247 52.9563 1.96437C52.9553 1.93079 52.9533 1.8972 52.9513 1.86508C52.9673 1.84757 52.9843 1.8315 53.0003 1.81399C52.9803 1.80231 52.9593 1.79064 52.9393 1.7775Z" fill="#565656"/>
<path d="M51.0868 1.78538C51.0778 1.7591 51.0687 1.73136 51.0587 1.70508C51.0497 1.73719 51.0398 1.76931 51.0308 1.79997C51.0098 1.81019 50.9887 1.82187 50.9688 1.83209C50.9837 1.84961 50.9988 1.86858 51.0138 1.88756C51.0098 1.92113 51.0067 1.95472 51.0027 1.98684C51.0207 1.9664 51.0397 1.94595 51.0587 1.92551C51.0767 1.93573 51.0957 1.94596 51.1137 1.95764C51.1107 1.92698 51.1068 1.89487 51.1038 1.86421C51.1188 1.83794 51.1337 1.81166 51.1487 1.78538C51.1277 1.78538 51.1078 1.78538 51.0868 1.78538Z" fill="#565656"/>
<path d="M51.4979 1.72774C51.4889 1.69854 51.4799 1.66934 51.4709 1.6416C51.4609 1.6708 51.4509 1.70146 51.4419 1.73066C51.4209 1.7365 51.3999 1.74234 51.3789 1.74964C51.3939 1.77153 51.4089 1.79196 51.4229 1.81386C51.4189 1.84597 51.4149 1.87809 51.4109 1.91167C51.4299 1.89415 51.4489 1.8781 51.4669 1.86204C51.4849 1.87664 51.5039 1.89123 51.5219 1.90583C51.5189 1.87371 51.5159 1.84161 51.5129 1.80949C51.5289 1.78613 51.5439 1.76277 51.5599 1.73941C51.5389 1.73503 51.5179 1.73066 51.4979 1.72774Z" fill="#565656"/>
<path d="M51.9081 1.74578C51.8991 1.71512 51.891 1.68447 51.882 1.65527C51.872 1.68301 51.8621 1.71221 51.8521 1.73994C51.8311 1.74286 51.8101 1.74578 51.7891 1.7487C51.8031 1.77205 51.8181 1.79689 51.8321 1.82024C51.8281 1.85236 51.8231 1.88446 51.8191 1.91511C51.8381 1.90198 51.8571 1.88885 51.8761 1.87571C51.8941 1.89323 51.9121 1.91074 51.9301 1.92826C51.9271 1.89614 51.9251 1.86256 51.9221 1.83045C51.9381 1.81001 51.9531 1.78958 51.9691 1.76914C51.9501 1.76039 51.9291 1.75308 51.9081 1.74578Z" fill="#565656"/>
<path d="M52.3163 1.82294C52.3083 1.79228 52.3002 1.76015 52.2922 1.72949C52.2822 1.75577 52.2712 1.78352 52.2612 1.80979C52.2402 1.80979 52.2192 1.80979 52.1982 1.80979C52.2122 1.83607 52.2262 1.86235 52.2402 1.88863C52.2352 1.91928 52.2302 1.95139 52.2262 1.98205C52.2452 1.97183 52.2642 1.96015 52.2832 1.94993C52.3012 1.96891 52.3192 1.98936 52.3362 2.00833C52.3342 1.97622 52.3323 1.94263 52.3293 1.90905C52.3453 1.89008 52.3612 1.87111 52.3772 1.85359C52.3572 1.84337 52.3373 1.83316 52.3163 1.82294Z" fill="#565656"/>
<path d="M52.7225 1.944C52.7145 1.91188 52.7075 1.87977 52.6995 1.84766C52.6885 1.87393 52.6775 1.9002 52.6675 1.92502C52.6465 1.92356 52.6255 1.92064 52.6045 1.91918C52.6185 1.94692 52.6315 1.9732 52.6455 2.00093C52.6405 2.03159 52.6355 2.06225 52.6295 2.09291C52.6485 2.08415 52.6675 2.07538 52.6865 2.06662C52.7045 2.08706 52.7215 2.10897 52.7385 2.13086C52.7365 2.09729 52.7355 2.06516 52.7335 2.03158C52.7495 2.01407 52.7655 1.99655 52.7815 1.97904C52.7635 1.96736 52.7435 1.95568 52.7225 1.944Z" fill="#565656"/>
<path d="M53.1248 2.09488C53.1178 2.06276 53.1108 2.02919 53.1028 1.99707C53.0918 2.02189 53.0808 2.04817 53.0698 2.07298C53.0488 2.07006 53.0288 2.06568 53.0078 2.06276C53.0208 2.0905 53.0348 2.11971 53.0478 2.14745C53.0418 2.17811 53.0368 2.20875 53.0308 2.2394C53.0498 2.2321 53.0688 2.22336 53.0888 2.21606C53.1058 2.23796 53.1228 2.2613 53.1398 2.2832C53.1388 2.24962 53.1368 2.21605 53.1358 2.18394C53.1518 2.16788 53.1688 2.15037 53.1848 2.13431C53.1648 2.11971 53.1448 2.10656 53.1248 2.09488Z" fill="#565656"/>
<path d="M51.284 1.98166C51.275 1.95392 51.266 1.92617 51.257 1.89844C51.248 1.92909 51.238 1.95976 51.228 1.99041C51.207 1.99917 51.186 2.00794 51.166 2.0167C51.181 2.03567 51.196 2.05611 51.21 2.07655C51.206 2.11013 51.202 2.14225 51.199 2.17436C51.217 2.15538 51.236 2.13785 51.255 2.11887C51.273 2.13055 51.292 2.14369 51.31 2.15683C51.307 2.12471 51.304 2.09405 51.301 2.06194C51.316 2.03712 51.331 2.01231 51.347 1.98749C51.325 1.98457 51.304 1.98312 51.284 1.98166Z" fill="#565656"/>
<path d="M51.6903 1.96208C51.6813 1.93288 51.6733 1.9037 51.6643 1.87305C51.6543 1.90224 51.6443 1.93144 51.6343 1.96063C51.6133 1.96501 51.5923 1.9694 51.5713 1.97378C51.5863 1.99567 51.6003 2.01903 51.6153 2.04238C51.6113 2.0745 51.6073 2.10661 51.6033 2.13872C51.6223 2.12413 51.6413 2.10953 51.6593 2.09493C51.6773 2.11099 51.6953 2.12705 51.7133 2.14311C51.7103 2.111 51.7073 2.07889 51.7053 2.04677C51.7213 2.02487 51.7363 2.00296 51.7523 1.98106C51.7313 1.97376 51.7113 1.96792 51.6903 1.96208Z" fill="#565656"/>
<path d="M52.0975 2.00994C52.0895 1.97929 52.0815 1.94863 52.0725 1.91797C52.0625 1.94571 52.0515 1.97345 52.0415 2.00119C52.0205 2.00265 51.9995 2.00412 51.9785 2.00558C51.9925 2.03039 52.0075 2.0552 52.0215 2.08002C52.0165 2.11068 52.0125 2.1428 52.0075 2.17491C52.0265 2.16324 52.0455 2.15154 52.0645 2.13841C52.0825 2.15738 52.1005 2.17492 52.1185 2.19389C52.1165 2.16178 52.1135 2.1282 52.1115 2.09608C52.1275 2.07564 52.1425 2.05665 52.1585 2.03768C52.1385 2.02746 52.1185 2.0187 52.0975 2.00994Z" fill="#565656"/>
<path d="M52.5017 2.11052C52.4937 2.0784 52.4858 2.04628 52.4788 2.01562C52.4678 2.0419 52.4577 2.06818 52.4467 2.09446C52.4257 2.093 52.4048 2.09154 52.3848 2.09154C52.3988 2.11782 52.4128 2.14556 52.4268 2.17184C52.4218 2.2025 52.4167 2.23315 52.4117 2.26526C52.4307 2.25505 52.4497 2.24482 52.4688 2.23606C52.4867 2.2565 52.5038 2.27695 52.5218 2.29739C52.5198 2.26381 52.5177 2.23168 52.5157 2.1981C52.5317 2.18059 52.5478 2.1616 52.5638 2.14409C52.5418 2.13241 52.5217 2.1222 52.5017 2.11052Z" fill="#565656"/>
<path d="M52.9041 2.24773C52.8971 2.21561 52.8891 2.18348 52.8821 2.15137C52.8711 2.17764 52.8601 2.20247 52.8491 2.22875C52.8281 2.22583 52.8081 2.22289 52.7871 2.21998C52.8001 2.24771 52.8141 2.27546 52.8271 2.3032C52.8221 2.33385 52.8161 2.36451 52.8111 2.39517C52.8301 2.38641 52.8491 2.37765 52.8681 2.37036C52.8851 2.39225 52.9021 2.41415 52.9191 2.43605C52.9181 2.40247 52.9161 2.36888 52.9151 2.33676C52.9311 2.31925 52.9471 2.30318 52.9631 2.28566C52.9441 2.27253 52.9241 2.25941 52.9041 2.24773Z" fill="#565656"/>
<path d="M51.0789 2.26194C51.0699 2.23567 51.0609 2.20792 51.0519 2.18164C51.0429 2.21376 51.0339 2.24589 51.0239 2.278C51.0039 2.28822 50.9829 2.29991 50.9629 2.31012C50.9779 2.32764 50.9919 2.3466 51.0069 2.36412C51.0029 2.3977 50.9999 2.43128 50.9969 2.4634C51.0149 2.44296 51.0329 2.42251 51.0519 2.40208C51.0699 2.4123 51.0879 2.42252 51.1069 2.4342C51.1039 2.40354 51.0999 2.37143 51.0969 2.34078C51.1119 2.3145 51.1269 2.28822 51.1419 2.26194C51.1199 2.26048 51.0989 2.26194 51.0789 2.26194Z" fill="#565656"/>
<path d="M51.4822 2.20235C51.4732 2.17315 51.4642 2.14541 51.4562 2.11621C51.4462 2.14541 51.4372 2.17607 51.4272 2.20527C51.4062 2.21111 51.3862 2.21841 51.3652 2.22425C51.3802 2.24468 51.3942 2.26659 51.4092 2.28849C51.4052 2.3206 51.4012 2.3527 51.3972 2.38628C51.4152 2.36876 51.4342 2.35271 51.4532 2.33665C51.4712 2.35125 51.4892 2.36439 51.5072 2.37899C51.5042 2.34688 51.5012 2.31475 51.4982 2.28263C51.5132 2.25927 51.5283 2.23593 51.5443 2.21257C51.5233 2.20965 51.5032 2.20673 51.4822 2.20235Z" fill="#565656"/>
<path d="M51.8875 2.21843C51.8795 2.18778 51.8705 2.15859 51.8625 2.12793C51.8525 2.15567 51.8425 2.18486 51.8325 2.2126C51.8115 2.21552 51.7915 2.21843 51.7705 2.22135C51.7845 2.24471 51.7995 2.26952 51.8135 2.29288C51.8095 2.32499 51.8045 2.35565 51.8005 2.38777C51.8195 2.37463 51.8375 2.3615 51.8565 2.34837C51.8745 2.36588 51.8925 2.3834 51.9105 2.40091C51.9075 2.3688 51.9055 2.33522 51.9025 2.3031C51.9185 2.28266 51.9335 2.26223 51.9495 2.24033C51.9285 2.23303 51.9075 2.22573 51.8875 2.21843Z" fill="#565656"/>
<path d="M52.2908 2.29462C52.2828 2.26396 52.2748 2.23183 52.2668 2.20117C52.2568 2.22745 52.2458 2.2552 52.2358 2.28147C52.2148 2.28147 52.1948 2.28147 52.1738 2.28147C52.1878 2.30775 52.2018 2.33402 52.2158 2.35884C52.2108 2.38949 52.2058 2.42162 52.2018 2.45228C52.2208 2.4406 52.2398 2.43038 52.2588 2.42016C52.2768 2.43914 52.2938 2.45957 52.3118 2.47854C52.3098 2.44497 52.3078 2.41286 52.3058 2.37929C52.3218 2.36031 52.3368 2.34133 52.3528 2.32235C52.3308 2.31359 52.3108 2.30484 52.2908 2.29462Z" fill="#565656"/>
<path d="M52.6902 2.41375C52.6832 2.38163 52.6752 2.3495 52.6682 2.31738C52.6572 2.34366 52.6472 2.36995 52.6362 2.39477C52.6152 2.39331 52.5952 2.39039 52.5742 2.38893C52.5882 2.41667 52.6012 2.44294 52.6142 2.47068C52.6092 2.50134 52.6042 2.53198 52.5982 2.56263C52.6172 2.55387 52.6362 2.54512 52.6552 2.5349C52.6722 2.55534 52.6902 2.57725 52.7072 2.59914C52.7052 2.56557 52.7042 2.53344 52.7022 2.49986C52.7182 2.48234 52.7342 2.46483 52.7502 2.44731C52.7302 2.4371 52.7102 2.42542 52.6902 2.41375Z" fill="#565656"/>
<path d="M53.0877 2.56265C53.0807 2.53054 53.0737 2.49696 53.0667 2.46484C53.0557 2.48966 53.0447 2.51594 53.0337 2.54076C53.0127 2.53784 52.9927 2.53348 52.9727 2.53056C52.9857 2.55829 52.9987 2.58749 53.0117 2.61522C53.0057 2.64588 53.0007 2.67652 52.9947 2.70718C53.0137 2.69988 53.0327 2.69113 53.0517 2.68383C53.0687 2.70573 53.0857 2.72761 53.1027 2.75097C53.1017 2.71739 53.1007 2.68383 53.0987 2.65171C53.1147 2.63565 53.1307 2.61814 53.1467 2.60208C53.1267 2.58748 53.1067 2.57433 53.0877 2.56265Z" fill="#565656"/>
<path d="M50.8716 0H50.6846V12.3254H50.8716V0Z" fill="#1E1E1E"/>
<path d="M76.1907 25.5752H73.3477V28.3985H76.1907V25.5752Z" fill="#AAAAAA"/>
<path d="M76.4181 24.9209H73.1211V25.5764H76.4181V24.9209Z" fill="#A9A9A9"/>
<path d="M99.511 28.8506H68.2061V29.709H99.511V28.8506Z" fill="#A9A9A9"/>
<path d="M100.085 28.8955H97V32.148H100.085V28.8955Z" fill="#A9A9A9"/>
<path d="M92.1612 28.8955H89.0762V32.148H92.1612V28.8955Z" fill="#A9A9A9"/>
<path d="M84.2354 28.8955H81.1504V32.148H84.2354V28.8955Z" fill="#A9A9A9"/>
<path d="M76.3116 28.8955H73.2266V32.148H76.3116V28.8955Z" fill="#A9A9A9"/>
<path d="M100.6 28.3086H68.3271V28.8955H100.6V28.3086Z" fill="#EEEEEE"/>
<path d="M96.5218 29.709H96.3857V29.8506L96.5218 29.9338V30.3572C96.4838 30.4214 96.4498 30.5148 96.4268 30.6316C96.4008 30.7601 96.3857 30.9119 96.3857 31.0768C96.3857 31.3922 96.4418 31.5601 96.5218 31.6331V31.8404H96.4108V32.1484H96.5218H96.7427H96.8538V31.8404H96.7427V31.6331C96.8227 31.5601 96.8788 31.3922 96.8788 31.0768C96.8788 30.7615 96.8227 30.4915 96.7427 30.3572V29.9338L96.8788 29.8506V29.709H96.7427H96.5218Z" fill="#D5D5D5"/>
<path d="M95.8401 29.709H95.7041V29.8506L95.8401 29.9338V30.3572C95.8011 30.4214 95.7681 30.5148 95.7451 30.6316C95.7191 30.7601 95.7041 30.9119 95.7041 31.0768C95.7041 31.3922 95.7601 31.5601 95.8401 31.6331V31.8404H95.7291V32.1484H95.8401H96.0611H96.1721V31.8404H96.0611V31.6331C96.1411 31.5601 96.1971 31.3922 96.1971 31.0768C96.1971 30.7615 96.1411 30.4915 96.0611 30.3572V29.9338L96.1971 29.8506V29.709H96.0611H95.8401Z" fill="#D5D5D5"/>
<path d="M95.1584 29.709H95.0225V29.8506L95.1584 29.9338V30.3572C95.1194 30.4214 95.0864 30.5148 95.0634 30.6316C95.0374 30.7601 95.0225 30.9119 95.0225 31.0768C95.0225 31.3922 95.0784 31.5601 95.1584 31.6331V31.8404H95.0475V32.1484H95.1584H95.3795H95.4904V31.8404H95.3795V31.6331C95.4595 31.5601 95.5154 31.3922 95.5154 31.0768C95.5154 30.7615 95.4595 30.4915 95.3795 30.3572V29.9338L95.5154 29.8506V29.709H95.3795H95.1584Z" fill="#D5D5D5"/>
<path d="M94.4749 29.709H94.3389V29.8506L94.4749 29.9338V30.3572C94.4359 30.4214 94.4029 30.5148 94.3799 30.6316C94.3539 30.7601 94.3389 30.9119 94.3389 31.0768C94.3389 31.3922 94.3949 31.5601 94.4749 31.6331V31.8404H94.3639V32.1484H94.4749H94.6959H94.8069V31.8404H94.6959V31.6331C94.7759 31.5601 94.8319 31.3922 94.8319 31.0768C94.8319 30.7615 94.7759 30.4915 94.6959 30.3572V29.9338L94.8319 29.8506V29.709H94.6959H94.4749Z" fill="#D5D5D5"/>
<path d="M93.7932 29.709H93.6572V29.8506L93.7932 29.9338V30.3572C93.7542 30.4214 93.7212 30.5148 93.6982 30.6316C93.6722 30.7601 93.6572 30.9119 93.6572 31.0768C93.6572 31.3922 93.7132 31.5601 93.7932 31.6331V31.8404H93.6823V32.1484H93.7932H94.0143H94.1252V31.8404H94.0143V31.6331C94.0943 31.5601 94.1502 31.3922 94.1502 31.0768C94.1502 30.7615 94.0943 30.4915 94.0143 30.3572V29.9338L94.1502 29.8506V29.709H94.0143H93.7932Z" fill="#D5D5D5"/>
<path d="M93.1096 29.709H92.9736V29.8506L93.1096 29.9338V30.3572C93.0706 30.4214 93.0376 30.5148 93.0146 30.6316C92.9886 30.7601 92.9736 30.9119 92.9736 31.0768C92.9736 31.3922 93.0296 31.5601 93.1096 31.6331V31.8404H92.9986V32.1484H93.1096H93.3306H93.4416V31.8404H93.3306V31.6331C93.4106 31.5601 93.4666 31.3922 93.4666 31.0768C93.4666 30.7615 93.4106 30.4915 93.3306 30.3572V29.9338L93.4666 29.8506V29.709H93.3306H93.1096Z" fill="#D5D5D5"/>
<path d="M92.428 29.709H92.292V29.8506L92.428 29.9338V30.3572C92.389 30.4214 92.356 30.5148 92.333 30.6316C92.307 30.7601 92.292 30.9119 92.292 31.0768C92.292 31.3922 92.348 31.5601 92.428 31.6331V31.8404H92.317V32.1484H92.428H92.649H92.76V31.8404H92.649V31.6331C92.729 31.5601 92.785 31.3922 92.785 31.0768C92.785 30.7615 92.729 30.4915 92.649 30.3572V29.9338L92.785 29.8506V29.709H92.649H92.428Z" fill="#D5D5D5"/>
<path d="M88.6126 29.6875H88.4766V29.8291L88.6126 29.9123V30.3357C88.5736 30.3999 88.5406 30.4933 88.5176 30.6101C88.4916 30.7371 88.4766 30.8904 88.4766 31.0554C88.4766 31.3707 88.5326 31.5386 88.6126 31.6116V31.8189H88.5016V32.1269H88.6126H88.8336H88.9446V31.8189H88.8336V31.6116C88.9136 31.5386 88.9696 31.3707 88.9696 31.0554C88.9696 30.74 88.9136 30.47 88.8336 30.3357V29.9123L88.9696 29.8291V29.6875H88.8336H88.6126Z" fill="#D5D5D5"/>
<path d="M87.9309 29.6875H87.7949V29.8291L87.9309 29.9123V30.3357C87.8919 30.3999 87.8589 30.4933 87.8359 30.6101C87.8099 30.7371 87.7949 30.8904 87.7949 31.0554C87.7949 31.3707 87.8509 31.5386 87.9309 31.6116V31.8189H87.8199V32.1269H87.9309H88.1519H88.2629V31.8189H88.1519V31.6116C88.2319 31.5386 88.2879 31.3707 88.2879 31.0554C88.2879 30.74 88.2319 30.47 88.1519 30.3357V29.9123L88.2879 29.8291V29.6875H88.1519H87.9309Z" fill="#D5D5D5"/>
<path d="M87.2483 29.6875H87.1123V29.8291L87.2483 29.9123V30.3357C87.2093 30.3999 87.1763 30.4933 87.1533 30.6101C87.1273 30.7371 87.1123 30.8904 87.1123 31.0554C87.1123 31.3707 87.1683 31.5386 87.2483 31.6116V31.8189H87.1373V32.1269H87.2483H87.4693H87.5803V31.8189H87.4693V31.6116C87.5493 31.5386 87.6053 31.3707 87.6053 31.0554C87.6053 30.74 87.5493 30.47 87.4693 30.3357V29.9123L87.6053 29.8291V29.6875H87.4693H87.2483Z" fill="#D5D5D5"/>
<path d="M86.5657 29.6875H86.4297V29.8291L86.5657 29.9123V30.3357C86.5267 30.3999 86.4937 30.4933 86.4707 30.6101C86.4447 30.7371 86.4297 30.8904 86.4297 31.0554C86.4297 31.3707 86.4857 31.5386 86.5657 31.6116V31.8189H86.4547V32.1269H86.5657H86.7867H86.8977V31.8189H86.7867V31.6116C86.8667 31.5386 86.9227 31.3707 86.9227 31.0554C86.9227 30.74 86.8667 30.47 86.7867 30.3357V29.9123L86.9227 29.8291V29.6875H86.7867H86.5657Z" fill="#D5D5D5"/>
<path d="M85.8831 29.6875H85.7471V29.8291L85.8831 29.9123V30.3357C85.8441 30.3999 85.8111 30.4933 85.7881 30.6101C85.7621 30.7371 85.7471 30.8904 85.7471 31.0554C85.7471 31.3707 85.8031 31.5386 85.8831 31.6116V31.8189H85.7721V32.1269H85.8831H86.1041H86.2151V31.8189H86.1041V31.6116C86.1841 31.5386 86.2401 31.3707 86.2401 31.0554C86.2401 30.74 86.1841 30.47 86.1041 30.3357V29.9123L86.2401 29.8291V29.6875H86.1041H85.8831Z" fill="#D5D5D5"/>
<path d="M85.2004 29.6875H85.0645V29.8291L85.2004 29.9123V30.3357C85.1614 30.3999 85.1284 30.4933 85.1054 30.6101C85.0794 30.7371 85.0645 30.8904 85.0645 31.0554C85.0645 31.3707 85.1204 31.5386 85.2004 31.6116V31.8189H85.0894V32.1269H85.2004H85.4214H85.5324V31.8189H85.4214V31.6116C85.5014 31.5386 85.5574 31.3707 85.5574 31.0554C85.5574 30.74 85.5014 30.47 85.4214 30.3357V29.9123L85.5574 29.8291V29.6875H85.4214H85.2004Z" fill="#D5D5D5"/>
<path d="M84.5179 29.6875H84.3818V29.8291L84.5179 29.9123V30.3357C84.4799 30.3999 84.4459 30.4933 84.4229 30.6101C84.3969 30.7371 84.3818 30.8904 84.3818 31.0554C84.3818 31.3707 84.4379 31.5386 84.5179 31.6116V31.8189H84.4068V32.1269H84.5179H84.7388H84.8499V31.8189H84.7388V31.6116C84.8188 31.5386 84.8748 31.3707 84.8748 31.0554C84.8748 30.74 84.8188 30.47 84.7388 30.3357V29.9123L84.8748 29.8291V29.6875H84.7388H84.5179Z" fill="#D5D5D5"/>
<path d="M80.7034 29.6641H80.5674V29.8057L80.7034 29.8889V30.3122C80.6654 30.3765 80.6314 30.4699 80.6084 30.5867C80.5824 30.7137 80.5674 30.867 80.5674 31.0319C80.5674 31.3472 80.6234 31.5151 80.7034 31.5881V31.7954H80.5924V32.1034H80.7034H80.9244H81.0354V31.7954H80.9244V31.5881C81.0044 31.5151 81.0604 31.3472 81.0604 31.0319C81.0604 30.7166 81.0044 30.4465 80.9244 30.3122V29.8889L81.0604 29.8057V29.6641H80.9244H80.7034Z" fill="#D5D5D5"/>
<path d="M80.0208 29.6641H79.8848V29.8057L80.0208 29.8889V30.3122C79.9828 30.3765 79.9488 30.4699 79.9258 30.5867C79.8998 30.7137 79.8848 30.867 79.8848 31.0319C79.8848 31.3472 79.9408 31.5151 80.0208 31.5881V31.7954H79.9098V32.1034H80.0208H80.2418H80.3528V31.7954H80.2418V31.5881C80.3218 31.5151 80.3777 31.3472 80.3777 31.0319C80.3777 30.7166 80.3218 30.4465 80.2418 30.3122V29.8889L80.3777 29.8057V29.6641H80.2418H80.0208Z" fill="#D5D5D5"/>
<path d="M79.3391 29.6641H79.2031V29.8057L79.3391 29.8889V30.3122C79.3011 30.3765 79.2671 30.4699 79.2441 30.5867C79.2181 30.7137 79.2031 30.867 79.2031 31.0319C79.2031 31.3472 79.2591 31.5151 79.3391 31.5881V31.7954H79.2281V32.1034H79.3391H79.5601H79.6711V31.7954H79.5601V31.5881C79.6401 31.5151 79.6961 31.3472 79.6961 31.0319C79.6961 30.7166 79.6401 30.4465 79.5601 30.3122V29.8889L79.6961 29.8057V29.6641H79.5601H79.3391Z" fill="#D5D5D5"/>
<path d="M78.6555 29.6641H78.5195V29.8057L78.6555 29.8889V30.3122C78.6165 30.3765 78.5835 30.4699 78.5605 30.5867C78.5345 30.7137 78.5195 30.867 78.5195 31.0319C78.5195 31.3472 78.5755 31.5151 78.6555 31.5881V31.7954H78.5445V32.1034H78.6555H78.8765H78.9875V31.7954H78.8765V31.5881C78.9565 31.5151 79.0125 31.3472 79.0125 31.0319C79.0125 30.7166 78.9565 30.4465 78.8765 30.3122V29.8889L79.0125 29.8057V29.6641H78.8765H78.6555Z" fill="#D5D5D5"/>
<path d="M77.9739 29.6641H77.8379V29.8057L77.9739 29.8889V30.3122C77.9359 30.3765 77.9019 30.4699 77.8789 30.5867C77.8529 30.7137 77.8379 30.867 77.8379 31.0319C77.8379 31.3472 77.8939 31.5151 77.9739 31.5881V31.7954H77.8629V32.1034H77.9739H78.1949H78.3059V31.7954H78.1949V31.5881C78.2749 31.5151 78.3309 31.3472 78.3309 31.0319C78.3309 30.7166 78.2749 30.4465 78.1949 30.3122V29.8889L78.3309 29.8057V29.6641H78.1949H77.9739Z" fill="#D5D5D5"/>
<path d="M77.2903 29.6641H77.1543V29.8057L77.2903 29.8889V30.3122C77.2523 30.3765 77.2183 30.4699 77.1953 30.5867C77.1693 30.7137 77.1543 30.867 77.1543 31.0319C77.1543 31.3472 77.2103 31.5151 77.2903 31.5881V31.7954H77.1793V32.1034H77.2903H77.5113H77.6223V31.7954H77.5113V31.5881C77.5913 31.5151 77.6473 31.3472 77.6473 31.0319C77.6473 30.7166 77.5913 30.4465 77.5113 30.3122V29.8889L77.6473 29.8057V29.6641H77.5113H77.2903Z" fill="#D5D5D5"/>
<path d="M76.6087 29.6641H76.4727V29.8057L76.6087 29.8889V30.3122C76.5697 30.3765 76.5367 30.4699 76.5137 30.5867C76.4877 30.7137 76.4727 30.867 76.4727 31.0319C76.4727 31.3472 76.5287 31.5151 76.6087 31.5881V31.7954H76.4977V32.1034H76.6087H76.8297H76.9407V31.7954H76.8297V31.5881C76.9097 31.5151 76.9657 31.3472 76.9657 31.0319C76.9657 30.7166 76.9097 30.4465 76.8297 30.3122V29.8889L76.9657 29.8057V29.6641H76.8297H76.6087Z" fill="#D5D5D5"/>
<path d="M72.7942 29.6416H72.6582V29.7832L72.7942 29.8664V30.2898C72.7552 30.354 72.7222 30.4474 72.6992 30.5642C72.6732 30.6912 72.6582 30.8445 72.6582 31.0095C72.6582 31.3248 72.7142 31.4927 72.7942 31.5657V31.7729H72.6832V32.081H72.7942H73.0152H73.1262V31.7729H73.0152V31.5657C73.0952 31.4927 73.1512 31.3248 73.1512 31.0095C73.1512 30.6941 73.0952 30.4226 73.0152 30.2898V29.8664L73.1512 29.7832V29.6416H73.0152H72.7942Z" fill="#D5D5D5"/>
<path d="M72.1126 29.6416H71.9766V29.7832L72.1126 29.8664V30.2898C72.0736 30.354 72.0406 30.4474 72.0176 30.5642C71.9916 30.6912 71.9766 30.8445 71.9766 31.0095C71.9766 31.3248 72.0326 31.4927 72.1126 31.5657V31.7729H72.0016V32.081H72.1126H72.3336H72.4446V31.7729H72.3336V31.5657C72.4136 31.4927 72.4696 31.3248 72.4696 31.0095C72.4696 30.6941 72.4136 30.4226 72.3336 30.2898V29.8664L72.4696 29.7832V29.6416H72.3336H72.1126Z" fill="#D5D5D5"/>
<path d="M71.429 29.6416H71.293V29.7832L71.429 29.8664V30.2898C71.391 30.354 71.357 30.4474 71.334 30.5642C71.308 30.6912 71.293 30.8445 71.293 31.0095C71.293 31.3248 71.349 31.4927 71.429 31.5657V31.7729H71.318V32.081H71.429H71.65H71.761V31.7729H71.65V31.5657C71.73 31.4927 71.786 31.3248 71.786 31.0095C71.786 30.6941 71.73 30.4226 71.65 30.2898V29.8664L71.786 29.7832V29.6416H71.65H71.429Z" fill="#D5D5D5"/>
<path d="M70.7473 29.6416H70.6113V29.7832L70.7473 29.8664V30.2898C70.7083 30.354 70.6753 30.4474 70.6523 30.5642C70.6263 30.6912 70.6113 30.8445 70.6113 31.0095C70.6113 31.3248 70.6673 31.4927 70.7473 31.5657V31.7729H70.6363V32.081H70.7473H70.9683H71.0793V31.7729H70.9683V31.5657C71.0483 31.4927 71.1043 31.3248 71.1043 31.0095C71.1043 30.6941 71.0483 30.4226 70.9683 30.2898V29.8664L71.1043 29.7832V29.6416H70.9683H70.7473Z" fill="#D5D5D5"/>
<path d="M70.0637 29.6416H69.9277V29.7832L70.0637 29.8664V30.2898C70.0257 30.354 69.9917 30.4474 69.9687 30.5642C69.9427 30.6912 69.9277 30.8445 69.9277 31.0095C69.9277 31.3248 69.9837 31.4927 70.0637 31.5657V31.7729H69.9537V32.081H70.0637H70.2847H70.3957V31.7729H70.2847V31.5657C70.3647 31.4927 70.4207 31.3248 70.4207 31.0095C70.4207 30.6941 70.3647 30.4226 70.2847 30.2898V29.8664L70.4207 29.7832V29.6416H70.2847H70.0637Z" fill="#D5D5D5"/>
<path d="M69.3821 29.6416H69.2461V29.7832L69.3821 29.8664V30.2898C69.3441 30.354 69.3101 30.4474 69.2871 30.5642C69.2611 30.6912 69.2471 30.8445 69.2471 31.0095C69.2471 31.3248 69.3031 31.4927 69.3831 31.5657V31.7729H69.2711V32.081H69.3821H69.6031H69.7141V31.7729H69.6031V31.5657C69.6831 31.4927 69.7391 31.3248 69.7391 31.0095C69.7391 30.6941 69.6831 30.4226 69.6031 30.2898V29.8664L69.7391 29.7832V29.6416H69.6031H69.3821Z" fill="#D5D5D5"/>
<path d="M68.7004 29.6416H68.5645V29.7832L68.7004 29.8664V30.2898C68.6624 30.354 68.6285 30.4474 68.6055 30.5642C68.5795 30.6912 68.5645 30.8445 68.5645 31.0095C68.5645 31.3248 68.6204 31.4927 68.7004 31.5657V31.7729H68.5894V32.081H68.7004H68.9214H69.0324V31.7729H68.9214V31.5657C69.0014 31.4927 69.0575 31.3248 69.0575 31.0095C69.0575 30.6941 69.0014 30.4226 68.9214 30.2898V29.8664L69.0575 29.7832V29.6416H68.9214H68.7004Z" fill="#D5D5D5"/>
<path d="M27.7356 25.5078H24.8926V28.3311H27.7356V25.5078Z" fill="#AAAAAA"/>
<path d="M27.963 24.8525H24.666V25.508H27.963V24.8525Z" fill="#A9A9A9"/>
<path d="M32.8782 28.7832H1.57324V29.6416H32.8782V28.7832Z" fill="#A9A9A9"/>
<path d="M4.08401 28.8291H0.999023V32.0816H4.08401V28.8291Z" fill="#A9A9A9"/>
<path d="M12.0078 28.8291H8.92285V32.0816H12.0078V28.8291Z" fill="#A9A9A9"/>
<path d="M19.9326 28.8291H16.8477V32.0816H19.9326V28.8291Z" fill="#A9A9A9"/>
<path d="M27.8565 28.8291H24.7715V32.0816H27.8565V28.8291Z" fill="#A9A9A9"/>
<path d="M32.7574 28.2422H0.484375V28.829H32.7574V28.2422Z" fill="#EEEEEE"/>
<path d="M4.34009 29.6416H4.2041V29.7832L4.34009 29.8664V30.2898C4.26009 30.4226 4.2041 30.6941 4.2041 31.0095C4.2041 31.3248 4.26009 31.4927 4.34009 31.5657V31.7729H4.2291V32.081H4.34009H4.5611H4.67209V31.7729H4.5611V31.5657C4.6411 31.4927 4.69708 31.3248 4.69708 31.0095C4.69708 30.8445 4.6821 30.6927 4.6561 30.5642C4.6321 30.4474 4.5991 30.3525 4.5611 30.2898V29.8664L4.69708 29.7832V29.6416H4.5611H4.34009Z" fill="#D5D5D5"/>
<path d="M5.02274 29.6416H4.88672V29.7832L5.02274 29.8664V30.2898C4.94274 30.4226 4.88672 30.6941 4.88672 31.0095C4.88672 31.3248 4.94274 31.4927 5.02274 31.5657V31.7729H4.91171V32.081H5.02274H5.24371H5.35474V31.7729H5.24371V31.5657C5.32371 31.4927 5.37973 31.3248 5.37973 31.0095C5.37973 30.8445 5.36471 30.6927 5.33871 30.5642C5.31471 30.4474 5.28171 30.3525 5.24371 30.2898V29.8664L5.37973 29.7832V29.6416H5.24371H5.02274Z" fill="#D5D5D5"/>
<path d="M5.70532 29.6416H5.56934V29.7832L5.70532 29.8664V30.2898C5.62532 30.4226 5.56934 30.6941 5.56934 31.0095C5.56934 31.3248 5.62532 31.4927 5.70532 31.5657V31.7729H5.59433V32.081H5.70532H5.92633H6.03732V31.7729H5.92633V31.5657C6.00633 31.4927 6.06232 31.3248 6.06232 31.0095C6.06232 30.8445 6.04733 30.6927 6.02133 30.5642C5.99733 30.4474 5.96433 30.3525 5.92633 30.2898V29.8664L6.06232 29.7832V29.6416H5.92633H5.70532Z" fill="#D5D5D5"/>
<path d="M6.38696 29.6416H6.25098V29.7832L6.38696 29.8664V30.2898C6.30696 30.4226 6.25098 30.6941 6.25098 31.0095C6.25098 31.3248 6.30696 31.4927 6.38696 31.5657V31.7729H6.27597V32.081H6.38696H6.60797H6.71796V31.7729H6.60797V31.5657C6.68797 31.4927 6.74396 31.3248 6.74396 31.0095C6.74396 30.8445 6.72897 30.6927 6.70297 30.5642C6.67897 30.4474 6.64597 30.3525 6.60797 30.2898V29.8664L6.74396 29.7832V29.6416H6.60797H6.38696Z" fill="#D5D5D5"/>
<path d="M7.06961 29.6416H6.93359V29.7832L7.06961 29.8664V30.2898C6.98961 30.4226 6.93359 30.6941 6.93359 31.0095C6.93359 31.3248 6.98961 31.4927 7.06961 31.5657V31.7729H6.95859V32.081H7.06961H7.29059H7.40161V31.7729H7.29059V31.5657C7.37059 31.4927 7.42661 31.3248 7.42661 31.0095C7.42661 30.8445 7.41159 30.6927 7.38559 30.5642C7.36159 30.4474 7.32859 30.3525 7.29059 30.2898V29.8664L7.42661 29.7832V29.6416H7.29059H7.06961Z" fill="#D5D5D5"/>
<path d="M7.7522 29.6416H7.61621V29.7832L7.7522 29.8664V30.2898C7.6722 30.4226 7.61621 30.6941 7.61621 31.0095C7.61621 31.3248 7.6722 31.4927 7.7522 31.5657V31.7729H7.6412V32.081H7.7522H7.97321H8.0842V31.7729H7.97321V31.5657C8.05321 31.4927 8.10922 31.3248 8.10922 31.0095C8.10922 30.8445 8.09421 30.6927 8.06821 30.5642C8.04421 30.4474 8.01121 30.3525 7.97321 30.2898V29.8664L8.10922 29.7832V29.6416H7.97321H7.7522Z" fill="#D5D5D5"/>
<path d="M8.43481 29.6416H8.29883V29.7832L8.43481 29.8664V30.2898C8.35481 30.4226 8.29883 30.6941 8.29883 31.0095C8.29883 31.3248 8.35481 31.4927 8.43481 31.5657V31.7729H8.32382V32.081H8.43481H8.65582H8.76682V31.7729H8.65582V31.5657C8.73582 31.4927 8.79181 31.3248 8.79181 31.0095C8.79181 30.8445 8.77682 30.6927 8.75082 30.5642C8.72682 30.4474 8.69382 30.3525 8.65582 30.2898V29.8664L8.79181 29.7832V29.6416H8.65582H8.43481Z" fill="#D5D5D5"/>
<path d="M12.2493 29.6201H12.1133V29.7617L12.2493 29.8449V30.2683C12.1693 30.4011 12.1133 30.6727 12.1133 30.988C12.1133 31.3033 12.1693 31.4712 12.2493 31.5442V31.7515H12.1383V32.0595H12.2493H12.4703H12.5813V31.7515H12.4703V31.5442C12.5503 31.4712 12.6063 31.3033 12.6063 30.988C12.6063 30.823 12.5913 30.6712 12.5653 30.5427C12.5413 30.4245 12.5083 30.3311 12.4703 30.2683V29.8449L12.6063 29.7617V29.6201H12.4703H12.2493Z" fill="#D5D5D5"/>
<path d="M12.9309 29.6201H12.7949V29.7617L12.9309 29.8449V30.2683C12.8509 30.4011 12.7949 30.6727 12.7949 30.988C12.7949 31.3033 12.8509 31.4712 12.9309 31.5442V31.7515H12.8199V32.0595H12.9309H13.1519H13.2629V31.7515H13.1519V31.5442C13.2319 31.4712 13.2879 31.3033 13.2879 30.988C13.2879 30.823 13.2729 30.6712 13.2469 30.5427C13.2229 30.4245 13.1899 30.3311 13.1519 30.2683V29.8449L13.2879 29.7617V29.6201H13.1519H12.9309Z" fill="#D5D5D5"/>
<path d="M13.6145 29.6201H13.4785V29.7617L13.6145 29.8449V30.2683C13.5345 30.4011 13.4785 30.6727 13.4785 30.988C13.4785 31.3033 13.5345 31.4712 13.6145 31.5442V31.7515H13.5035V32.0595H13.6145H13.8355H13.9465V31.7515H13.8355V31.5442C13.9155 31.4712 13.9715 31.3033 13.9715 30.988C13.9715 30.823 13.9565 30.6712 13.9305 30.5427C13.9065 30.4245 13.8735 30.3311 13.8355 30.2683V29.8449L13.9715 29.7617V29.6201H13.8355H13.6145Z" fill="#D5D5D5"/>
<path d="M14.2961 29.6201H14.1602V29.7617L14.2961 29.8449V30.2683C14.2161 30.4011 14.1602 30.6727 14.1602 30.988C14.1602 31.3033 14.2161 31.4712 14.2961 31.5442V31.7515H14.1852V32.0595H14.2961H14.5172H14.6281V31.7515H14.5172V31.5442C14.5972 31.4712 14.6531 31.3033 14.6531 30.988C14.6531 30.823 14.6382 30.6712 14.6122 30.5427C14.5882 30.4245 14.5552 30.3311 14.5172 30.2683V29.8449L14.6531 29.7617V29.6201H14.5172H14.2961Z" fill="#D5D5D5"/>
<path d="M14.9778 29.6201H14.8418V29.7617L14.9778 29.8449V30.2683C14.8978 30.4011 14.8418 30.6727 14.8418 30.988C14.8418 31.3033 14.8978 31.4712 14.9778 31.5442V31.7515H14.8668V32.0595H14.9778H15.1988H15.3098V31.7515H15.1988V31.5442C15.2788 31.4712 15.3348 31.3033 15.3348 30.988C15.3348 30.823 15.3198 30.6712 15.2938 30.5427C15.2698 30.4245 15.2368 30.3311 15.1988 30.2683V29.8449L15.3348 29.7617V29.6201H15.1988H14.9778Z" fill="#D5D5D5"/>
<path d="M15.6614 29.6201H15.5254V29.7617L15.6614 29.8449V30.2683C15.5814 30.4011 15.5254 30.6727 15.5254 30.988C15.5254 31.3033 15.5814 31.4712 15.6614 31.5442V31.7515H15.5504V32.0595H15.6614H15.8824H15.9934V31.7515H15.8824V31.5442C15.9624 31.4712 16.0184 31.3033 16.0184 30.988C16.0184 30.823 16.0034 30.6712 15.9774 30.5427C15.9534 30.4245 15.9204 30.3311 15.8824 30.2683V29.8449L16.0184 29.7617V29.6201H15.8824H15.6614Z" fill="#D5D5D5"/>
<path d="M16.343 29.6201H16.207V29.7617L16.343 29.8449V30.2683C16.263 30.4011 16.207 30.6727 16.207 30.988C16.207 31.3033 16.263 31.4712 16.343 31.5442V31.7515H16.232V32.0595H16.343H16.564H16.675V31.7515H16.564V31.5442C16.644 31.4712 16.7 31.3033 16.7 30.988C16.7 30.823 16.685 30.6712 16.659 30.5427C16.635 30.4245 16.602 30.3311 16.564 30.2683V29.8449L16.7 29.7617V29.6201H16.564H16.343Z" fill="#D5D5D5"/>
<path d="M20.1594 29.5967H20.0234V29.7383L20.1594 29.8215V30.2448C20.0794 30.3777 20.0234 30.6478 20.0234 30.9645C20.0234 31.2813 20.0794 31.4477 20.1594 31.5207V31.728H20.0484V32.0361H20.1594H20.3804H20.4914V31.728H20.3804V31.5207C20.4604 31.4477 20.5164 31.2799 20.5164 30.9645C20.5164 30.7996 20.5014 30.6478 20.4754 30.5193C20.4514 30.4011 20.4184 30.3076 20.3804 30.2448V29.8215L20.5164 29.7383V29.5967H20.3804H20.1594Z" fill="#D5D5D5"/>
<path d="M20.8411 29.5967H20.7051V29.7383L20.8411 29.8215V30.2448C20.7611 30.3777 20.7051 30.6478 20.7051 30.9645C20.7051 31.2813 20.7611 31.4477 20.8411 31.5207V31.728H20.7301V32.0361H20.8411H21.0621H21.1731V31.728H21.0621V31.5207C21.1421 31.4477 21.1981 31.2799 21.1981 30.9645C21.1981 30.7996 21.1831 30.6478 21.1571 30.5193C21.1331 30.4011 21.1001 30.3076 21.0621 30.2448V29.8215L21.1981 29.7383V29.5967H21.0621H20.8411Z" fill="#D5D5D5"/>
<path d="M21.5247 29.5967H21.3887V29.7383L21.5247 29.8215V30.2448C21.4447 30.3777 21.3887 30.6478 21.3887 30.9645C21.3887 31.2813 21.4447 31.4477 21.5247 31.5207V31.728H21.4137V32.0361H21.5247H21.7457H21.8567V31.728H21.7457V31.5207C21.8257 31.4477 21.8817 31.2799 21.8817 30.9645C21.8817 30.7996 21.8667 30.6478 21.8407 30.5193C21.8167 30.4011 21.7837 30.3076 21.7457 30.2448V29.8215L21.8817 29.7383V29.5967H21.7457H21.5247Z" fill="#D5D5D5"/>
<path d="M22.2063 29.5967H22.0703V29.7383L22.2063 29.8215V30.2448C22.1263 30.3777 22.0703 30.6478 22.0703 30.9645C22.0703 31.2813 22.1263 31.4477 22.2063 31.5207V31.728H22.0953V32.0361H22.2063H22.4273H22.5383V31.728H22.4273V31.5207C22.5073 31.4477 22.5633 31.2799 22.5633 30.9645C22.5633 30.7996 22.5483 30.6478 22.5223 30.5193C22.4993 30.4011 22.4653 30.3076 22.4273 30.2448V29.8215L22.5633 29.7383V29.5967H22.4273H22.2063Z" fill="#D5D5D5"/>
<path d="M22.8899 29.5967H22.7539V29.7383L22.8899 29.8215V30.2448C22.8099 30.3777 22.7539 30.6478 22.7539 30.9645C22.7539 31.2813 22.8099 31.4477 22.8899 31.5207V31.728H22.7789V32.0361H22.8899H23.1109H23.2219V31.728H23.1109V31.5207C23.1909 31.4477 23.2469 31.2799 23.2469 30.9645C23.2469 30.7996 23.2319 30.6478 23.2059 30.5193C23.1819 30.4011 23.1489 30.3076 23.1109 30.2448V29.8215L23.2469 29.7383V29.5967H23.1109H22.8899Z" fill="#D5D5D5"/>
<path d="M23.5715 29.5967H23.4355V29.7383L23.5715 29.8215V30.2448C23.4915 30.3777 23.4355 30.6478 23.4355 30.9645C23.4355 31.2813 23.4915 31.4477 23.5715 31.5207V31.728H23.4605V32.0361H23.5715H23.7925H23.9035V31.728H23.7925V31.5207C23.8725 31.4477 23.9286 31.2799 23.9286 30.9645C23.9286 30.7996 23.9135 30.6478 23.8875 30.5193C23.8635 30.4011 23.8305 30.3076 23.7925 30.2448V29.8215L23.9286 29.7383V29.5967H23.7925H23.5715Z" fill="#D5D5D5"/>
<path d="M24.2552 29.5967H24.1191V29.7383L24.2552 29.8215V30.2448C24.1752 30.3777 24.1191 30.6478 24.1191 30.9645C24.1191 31.2813 24.1752 31.4477 24.2552 31.5207V31.728H24.1442V32.0361H24.2552H24.4762H24.5872V31.728H24.4762V31.5207C24.5562 31.4477 24.6122 31.2799 24.6122 30.9645C24.6122 30.7996 24.5972 30.6478 24.5712 30.5193C24.5472 30.4011 24.5142 30.3076 24.4762 30.2448V29.8215L24.6122 29.7383V29.5967H24.4762H24.2552Z" fill="#D5D5D5"/>
<path d="M28.0676 29.5752H27.9316V29.7168L28.0676 29.8V30.2234C27.9876 30.3562 27.9316 30.6277 27.9316 30.9431C27.9316 31.2584 27.9876 31.4263 28.0676 31.4992V31.7065H27.9566V32.0146H28.0676H28.2886H28.3996V31.7065H28.2886V31.4992C28.3686 31.4263 28.4246 31.2584 28.4246 30.9431C28.4246 30.7781 28.4096 30.6263 28.3836 30.4978C28.3596 30.3796 28.3266 30.2861 28.2886 30.2234V29.8L28.4246 29.7168V29.5752H28.2886H28.0676Z" fill="#D5D5D5"/>
<path d="M28.7503 29.5752H28.6143V29.7168L28.7503 29.8V30.2234C28.6703 30.3562 28.6143 30.6277 28.6143 30.9431C28.6143 31.2584 28.6703 31.4263 28.7503 31.4992V31.7065H28.6393V32.0146H28.7503H28.9713H29.0823V31.7065H28.9713V31.4992C29.0513 31.4263 29.1073 31.2584 29.1073 30.9431C29.1073 30.7781 29.0923 30.6263 29.0663 30.4978C29.0423 30.3796 29.0093 30.2861 28.9713 30.2234V29.8L29.1073 29.7168V29.5752H28.9713H28.7503Z" fill="#D5D5D5"/>
<path d="M29.4329 29.5752H29.2969V29.7168L29.4329 29.8V30.2234C29.3529 30.3562 29.2969 30.6277 29.2969 30.9431C29.2969 31.2584 29.3529 31.4263 29.4329 31.4992V31.7065H29.3219V32.0146H29.4329H29.6539H29.7649V31.7065H29.6539V31.4992C29.7339 31.4263 29.7899 31.2584 29.7899 30.9431C29.7899 30.7781 29.7749 30.6263 29.7489 30.4978C29.7249 30.3796 29.6919 30.2861 29.6539 30.2234V29.8L29.7899 29.7168V29.5752H29.6539H29.4329Z" fill="#D5D5D5"/>
<path d="M30.1155 29.5752H29.9795V29.7168L30.1155 29.8V30.2234C30.0355 30.3562 29.9795 30.6277 29.9795 30.9431C29.9795 31.2584 30.0355 31.4263 30.1155 31.4992V31.7065H30.0045V32.0146H30.1155H30.3365H30.4475V31.7065H30.3365V31.4992C30.4165 31.4263 30.4725 31.2584 30.4725 30.9431C30.4725 30.7781 30.4575 30.6263 30.4315 30.4978C30.4075 30.3796 30.3745 30.2861 30.3365 30.2234V29.8L30.4725 29.7168V29.5752H30.3365H30.1155Z" fill="#D5D5D5"/>
<path d="M30.7981 29.5752H30.6621V29.7168L30.7981 29.8V30.2234C30.7181 30.3562 30.6621 30.6277 30.6621 30.9431C30.6621 31.2584 30.7181 31.4263 30.7981 31.4992V31.7065H30.6871V32.0146H30.7981H31.0191H31.1301V31.7065H31.0191V31.4992C31.0991 31.4263 31.1551 31.2584 31.1551 30.9431C31.1551 30.7781 31.1401 30.6263 31.1141 30.4978C31.0901 30.3796 31.0571 30.2861 31.0191 30.2234V29.8L31.1551 29.7168V29.5752H31.0191H30.7981Z" fill="#D5D5D5"/>
<path d="M31.4807 29.5752H31.3447V29.7168L31.4807 29.8V30.2234C31.4007 30.3562 31.3447 30.6277 31.3447 30.9431C31.3447 31.2584 31.4007 31.4263 31.4807 31.4992V31.7065H31.3697V32.0146H31.4807H31.7017H31.8127V31.7065H31.7017V31.4992C31.7817 31.4263 31.8377 31.2584 31.8377 30.9431C31.8377 30.7781 31.8227 30.6263 31.7967 30.4978C31.7727 30.3796 31.7397 30.2861 31.7017 30.2234V29.8L31.8377 29.7168V29.5752H31.7017H31.4807Z" fill="#D5D5D5"/>
<path d="M32.1624 29.5752H32.0264V29.7168L32.1624 29.8V30.2234C32.0824 30.3562 32.0264 30.6277 32.0264 30.9431C32.0264 31.2584 32.0824 31.4263 32.1624 31.4992V31.7065H32.0514V32.0146H32.1624H32.3834H32.4944V31.7065H32.3834V31.4992C32.4634 31.4263 32.5193 31.2584 32.5193 30.9431C32.5193 30.7781 32.5044 30.6263 32.4784 30.4978C32.4544 30.3796 32.4214 30.2861 32.3834 30.2234V29.8L32.5193 29.7168V29.5752H32.3834H32.1624Z" fill="#D5D5D5"/>
<path d="M100.086 31.9004H0.999023V71.9334H100.086V31.9004Z" fill="#BDBDBD"/>
<path d="M100.902 34.1836H0V35.0653H100.902V34.1836Z" fill="#EEEEEE"/>
<path d="M0.998993 35.5628H100.085L100.902 35.0635H0L0.998993 35.5628Z" fill="#D5D5D5"/>
<path d="M34.4805 31.9023V37.3051H50.8415H67.2025V31.9023L50.8415 31.8848L34.4805 31.9023Z" fill="#AAAAAA"/>
<path d="M100.539 37.3691H0.589844V38.7925H100.539V37.3691Z" fill="#EEEEEE"/>
<path d="M0.992828 39.4694H100.074L100.539 38.792H0.589844L0.992828 39.4694Z" fill="#D5D5D5"/>
<path d="M100.448 69.7656H0.499023V72.2736H100.448V69.7656Z" fill="#AAAAAA"/>
<path d="M31.0742 23.864H70.6102L50.8422 11.1211L31.0742 23.864Z" fill="#A9A9A9"/>
<path d="M70.6092 23.8643H31.0742V25.508H70.6092V23.8643Z" fill="#EEEEEE"/>
<path d="M31.7773 23.8641H69.9073L50.8423 11.5752L31.7773 23.8641Z" fill="#EEEEEE"/>
<path d="M33.8086 23.8642H67.8766L50.8426 12.8848L33.8086 23.8642Z" fill="#AAAAAA"/>
<path d="M8.51892 40.2129H4.75293V41.5457H8.51892V40.2129Z" fill="#EEEEEE"/>
<path d="M5.27438 47.7588H4.77539V50.2215H5.27438V47.7588Z" fill="#EEEEEE"/>
<path d="M8.49509 47.7588H7.99609V50.2215H8.49509V47.7588Z" fill="#EEEEEE"/>
<path d="M8.22385 40.4609H5.04785V49.001H8.22385V40.4609Z" fill="#EEEEEE"/>
<path d="M7.89148 40.8232H5.39648V48.6392H7.89148V40.8232Z" fill="#D5D5D5"/>
<path d="M7.66443 41.2305H5.60742V48.4143H7.66443V41.2305Z" fill="#565656"/>
<path d="M6.32181 41.2305H6.21582V48.4143H6.32181V41.2305Z" fill="#EEEEEE"/>
<path d="M7.1011 41.2305H6.99512V48.4143H7.1011V41.2305Z" fill="#EEEEEE"/>
<path d="M7.66443 42.9473H5.60742V43.1049H7.66443V42.9473Z" fill="#EEEEEE"/>
<path d="M7.66443 44.7998H5.60742V44.9575H7.66443V44.7998Z" fill="#EEEEEE"/>
<path d="M7.66443 46.6523H5.60742V46.81H7.66443V46.6523Z" fill="#EEEEEE"/>
<path d="M8.68491 48.9102H4.58691V49.5875H8.68491V48.9102Z" fill="#EEEEEE"/>
<path d="M9.40918 66.2822H3.65918V67.2238H9.40918V66.2822Z" fill="#EEEEEE"/>
<path d="M8.78629 67.2236H4.2793V67.9609H8.78629V67.2236Z" fill="#EEEEEE"/>
<path d="M9.43588 53.583H3.71387V54.5523H9.43588V53.583Z" fill="#EEEEEE"/>
<path d="M8.76263 54.5527H4.30664V66.4081H8.76263V54.5527Z" fill="#EEEEEE"/>
<path d="M8.29395 55.0547H4.79395V65.9056H8.29395V55.0547Z" fill="#D5D5D5"/>
<path d="M7.97681 55.6182H5.09082V65.5918H7.97681V55.6182Z" fill="#565656"/>
<path d="M6.09137 55.6182H5.94336V65.5918H6.09137V55.6182Z" fill="#EEEEEE"/>
<path d="M7.18512 55.6182H7.03711V65.5918H7.18512V55.6182Z" fill="#EEEEEE"/>
<path d="M7.97681 58.002H5.09082V58.2209H7.97681V58.002Z" fill="#EEEEEE"/>
<path d="M7.97681 60.5742H5.09082V60.7932H7.97681V60.5742Z" fill="#EEEEEE"/>
<path d="M7.97681 63.1465H5.09082V63.3655H7.97681V63.1465Z" fill="#EEEEEE"/>
<path d="M3.50293 52.5992L3.73193 53.1861H9.43594L9.64694 52.5992C9.64694 52.5992 8.54492 51.2021 6.57492 51.2021C4.65492 51.2007 3.50293 52.5992 3.50293 52.5992Z" fill="#EEEEEE"/>
<path d="M9.43588 53.1846H3.71387V53.5408H9.43588V53.1846Z" fill="#EEEEEE"/>
<path d="M4.27539 53.1844H8.8754C8.8754 53.1844 8.05038 52.1377 6.57538 52.1377C5.13738 52.1377 4.27539 53.1844 4.27539 53.1844Z" fill="#AAAAAA"/>
<path d="M17.1895 66.2832H11.4395V67.2248H17.1895V66.2832Z" fill="#EEEEEE"/>
<path d="M16.5705 67.2246H12.0625V67.9618H16.5705V67.2246Z" fill="#EEEEEE"/>
<path d="M17.2181 53.584H11.4961V54.5533H17.2181V53.584Z" fill="#EEEEEE"/>
<path d="M16.5429 54.5527H12.0869V66.4081H16.5429V54.5527Z" fill="#EEEEEE"/>
<path d="M16.0762 55.0547H12.5762V65.9056H16.0762V55.0547Z" fill="#D5D5D5"/>
<path d="M15.7591 55.6182H12.873V65.5918H15.7591V55.6182Z" fill="#565656"/>
<path d="M13.8736 55.6182H13.7246V65.5918H13.8736V55.6182Z" fill="#EEEEEE"/>
<path d="M14.9664 55.6182H14.8184V65.5918H14.9664V55.6182Z" fill="#EEEEEE"/>
<path d="M15.7591 58.002H12.873V58.2209H15.7591V58.002Z" fill="#EEEEEE"/>
<path d="M15.7591 60.5752H12.873V60.7942H15.7591V60.5752Z" fill="#EEEEEE"/>
<path d="M15.7581 63.1465H12.873V63.3655H15.7581V63.1465Z" fill="#EEEEEE"/>
<path d="M11.2852 52.8698L11.5142 53.1851H17.2181L17.4282 52.8698L14.3571 51.2012L11.2852 52.8698Z" fill="#EEEEEE"/>
<path d="M17.2181 53.1846H11.4961V53.5408H17.2181V53.1846Z" fill="#EEEEEE"/>
<path d="M12.0566 53.1854H16.6566L14.3566 52.1387L12.0566 53.1854Z" fill="#AAAAAA"/>
<path d="M16.2318 40.2129H12.4658V41.5457H16.2318V40.2129Z" fill="#EEEEEE"/>
<path d="M12.9873 47.7588H12.4883V50.2215H12.9873V47.7588Z" fill="#EEEEEE"/>
<path d="M16.208 47.7588H15.709V50.2215H16.208V47.7588Z" fill="#EEEEEE"/>
<path d="M15.9367 40.4609H12.7607V49.001H15.9367V40.4609Z" fill="#EEEEEE"/>
<path d="M15.6044 40.8232H13.1094V48.6392H15.6044V40.8232Z" fill="#D5D5D5"/>
<path d="M15.3773 41.2305H13.3203V48.4143H15.3773V41.2305Z" fill="#565656"/>
<path d="M14.0347 41.2305H13.9287V48.4143H14.0347V41.2305Z" fill="#EEEEEE"/>
<path d="M14.814 41.2305H14.708V48.4143H14.814V41.2305Z" fill="#EEEEEE"/>
<path d="M15.3773 42.9473H13.3203V43.1049H15.3773V42.9473Z" fill="#EEEEEE"/>
<path d="M15.3773 44.7998H13.3203V44.9575H15.3773V44.7998Z" fill="#EEEEEE"/>
<path d="M15.3773 46.6523H13.3203V46.81H15.3773V46.6523Z" fill="#EEEEEE"/>
<path d="M16.3978 48.9102H12.2998V49.5875H16.3978V48.9102Z" fill="#EEEEEE"/>
<path d="M23.9457 40.2129H20.1797V41.5457H23.9457V40.2129Z" fill="#EEEEEE"/>
<path d="M20.7021 47.7588H20.2031V50.2215H20.7021V47.7588Z" fill="#EEEEEE"/>
<path d="M23.9228 47.7588H23.4238V50.2215H23.9228V47.7588Z" fill="#EEEEEE"/>
<path d="M23.6506 40.4609H20.4746V49.001H23.6506V40.4609Z" fill="#EEEEEE"/>
<path d="M23.3173 40.8232H20.8223V48.6392H23.3173V40.8232Z" fill="#D5D5D5"/>
<path d="M23.0922 41.2305H21.0352V48.4143H23.0922V41.2305Z" fill="#565656"/>
<path d="M21.7486 41.2305H21.6426V48.4143H21.7486V41.2305Z" fill="#EEEEEE"/>
<path d="M22.5259 41.2305H22.4199V48.4143H22.5259V41.2305Z" fill="#EEEEEE"/>
<path d="M23.0922 42.9473H21.0352V43.1049H23.0922V42.9473Z" fill="#EEEEEE"/>
<path d="M23.0922 44.7998H21.0352V44.9575H23.0922V44.7998Z" fill="#EEEEEE"/>
<path d="M23.0922 46.6523H21.0352V46.81H23.0922V46.6523Z" fill="#EEEEEE"/>
<path d="M24.1117 48.9102H20.0137V49.5875H24.1117V48.9102Z" fill="#EEEEEE"/>
<path d="M31.6586 40.2129H27.8926V41.5457H31.6586V40.2129Z" fill="#EEEEEE"/>
<path d="M28.415 47.7588H27.916V50.2215H28.415V47.7588Z" fill="#EEEEEE"/>
<path d="M31.6357 47.7588H31.1367V50.2215H31.6357V47.7588Z" fill="#EEEEEE"/>
<path d="M31.3635 40.4609H28.1875V49.001H31.3635V40.4609Z" fill="#EEEEEE"/>
<path d="M31.0302 40.8232H28.5352V48.6392H31.0302V40.8232Z" fill="#D5D5D5"/>
<path d="M30.8031 41.2305H28.7461V48.4143H30.8031V41.2305Z" fill="#565656"/>
<path d="M29.4605 41.2305H29.3545V48.4143H29.4605V41.2305Z" fill="#EEEEEE"/>
<path d="M30.2398 41.2305H30.1338V48.4143H30.2398V41.2305Z" fill="#EEEEEE"/>
<path d="M30.8031 42.9473H28.7461V43.1049H30.8031V42.9473Z" fill="#EEEEEE"/>
<path d="M30.8031 44.7998H28.7461V44.9575H30.8031V44.7998Z" fill="#EEEEEE"/>
<path d="M30.8031 46.6523H28.7461V46.81H30.8031V46.6523Z" fill="#EEEEEE"/>
<path d="M31.8246 48.9102H27.7266V49.5875H31.8246V48.9102Z" fill="#EEEEEE"/>
<path d="M43.2523 40.2129H39.4863V41.5457H43.2523V40.2129Z" fill="#EEEEEE"/>
<path d="M40.0088 47.7588H39.5098V50.2215H40.0088V47.7588Z" fill="#EEEEEE"/>
<path d="M43.2295 47.7588H42.7305V50.2215H43.2295V47.7588Z" fill="#EEEEEE"/>
<path d="M42.9573 40.4609H39.7812V49.001H42.9573V40.4609Z" fill="#EEEEEE"/>
<path d="M42.6239 40.8232H40.1289V48.6392H42.6239V40.8232Z" fill="#D5D5D5"/>
<path d="M42.3969 41.2305H40.3398V48.4143H42.3969V41.2305Z" fill="#565656"/>
<path d="M41.0542 41.2305H40.9482V48.4143H41.0542V41.2305Z" fill="#EEEEEE"/>
<path d="M41.8335 41.2305H41.7275V48.4143H41.8335V41.2305Z" fill="#EEEEEE"/>
<path d="M42.3969 42.9473H40.3398V43.1049H42.3969V42.9473Z" fill="#EEEEEE"/>
<path d="M42.3969 44.7998H40.3398V44.9575H42.3969V44.7998Z" fill="#EEEEEE"/>
<path d="M42.3969 46.6523H40.3398V46.81H42.3969V46.6523Z" fill="#EEEEEE"/>
<path d="M43.4183 48.9102H39.3203V49.5875H43.4183V48.9102Z" fill="#EEEEEE"/>
<path d="M53.0717 40.2129H49.3057V41.5457H53.0717V40.2129Z" fill="#EEEEEE"/>
<path d="M49.8271 47.7588H49.3281V50.2215H49.8271V47.7588Z" fill="#EEEEEE"/>
<path d="M53.0488 47.7588H52.5498V50.2215H53.0488V47.7588Z" fill="#EEEEEE"/>
<path d="M52.7756 40.4609H49.5996V49.001H52.7756V40.4609Z" fill="#EEEEEE"/>
<path d="M52.4442 40.8232H49.9492V48.6392H52.4442V40.8232Z" fill="#D5D5D5"/>
<path d="M52.2172 41.2305H50.1602V48.4143H52.2172V41.2305Z" fill="#565656"/>
<path d="M50.8736 41.2305H50.7676V48.4143H50.8736V41.2305Z" fill="#EEEEEE"/>
<path d="M51.6529 41.2305H51.5469V48.4143H51.6529V41.2305Z" fill="#EEEEEE"/>
<path d="M52.2172 42.9473H50.1602V43.1049H52.2172V42.9473Z" fill="#EEEEEE"/>
<path d="M52.2172 44.7998H50.1602V44.9575H52.2172V44.7998Z" fill="#EEEEEE"/>
<path d="M52.2172 46.6523H50.1602V46.81H52.2172V46.6523Z" fill="#EEEEEE"/>
<path d="M53.2367 48.9102H49.1387V49.5875H53.2367V48.9102Z" fill="#EEEEEE"/>
<path d="M62.89 40.2129H59.124V41.5457H62.89V40.2129Z" fill="#EEEEEE"/>
<path d="M59.6455 47.7588H59.1465V50.2215H59.6455V47.7588Z" fill="#EEEEEE"/>
<path d="M62.8662 47.7588H62.3672V50.2215H62.8662V47.7588Z" fill="#EEEEEE"/>
<path d="M62.5949 40.4609H59.4189V49.001H62.5949V40.4609Z" fill="#EEEEEE"/>
<path d="M62.2626 40.8232H59.7676V48.6392H62.2626V40.8232Z" fill="#D5D5D5"/>
<path d="M62.0355 41.2305H59.9785V48.4143H62.0355V41.2305Z" fill="#565656"/>
<path d="M60.6929 41.2305H60.5869V48.4143H60.6929V41.2305Z" fill="#EEEEEE"/>
<path d="M61.4722 41.2305H61.3662V48.4143H61.4722V41.2305Z" fill="#EEEEEE"/>
<path d="M62.0355 42.9473H59.9785V43.1049H62.0355V42.9473Z" fill="#EEEEEE"/>
<path d="M62.0355 44.7998H59.9785V44.9575H62.0355V44.7998Z" fill="#EEEEEE"/>
<path d="M62.0355 46.6523H59.9785V46.81H62.0355V46.6523Z" fill="#EEEEEE"/>
<path d="M63.056 48.9102H58.958V49.5875H63.056V48.9102Z" fill="#EEEEEE"/>
<path d="M73.9984 40.2129H70.2324V41.5457H73.9984V40.2129Z" fill="#EEEEEE"/>
<path d="M70.7549 47.7588H70.2559V50.2215H70.7549V47.7588Z" fill="#EEEEEE"/>
<path d="M73.9756 47.7588H73.4766V50.2215H73.9756V47.7588Z" fill="#EEEEEE"/>
<path d="M73.7033 40.4609H70.5273V49.001H73.7033V40.4609Z" fill="#EEEEEE"/>
<path d="M73.37 40.8232H70.875V48.6392H73.37V40.8232Z" fill="#D5D5D5"/>
<path d="M73.1449 41.2305H71.0879V48.4143H73.1449V41.2305Z" fill="#565656"/>
<path d="M71.8013 41.2305H71.6953V48.4143H71.8013V41.2305Z" fill="#EEEEEE"/>
<path d="M72.5806 41.2305H72.4746V48.4143H72.5806V41.2305Z" fill="#EEEEEE"/>
<path d="M73.1449 42.9473H71.0879V43.1049H73.1449V42.9473Z" fill="#EEEEEE"/>
<path d="M73.1449 44.7998H71.0879V44.9575H73.1449V44.7998Z" fill="#EEEEEE"/>
<path d="M73.1449 46.6523H71.0879V46.81H73.1449V46.6523Z" fill="#EEEEEE"/>
<path d="M74.1644 48.9102H70.0664V49.5875H74.1644V48.9102Z" fill="#EEEEEE"/>
<path d="M81.7113 40.2129H77.9453V41.5457H81.7113V40.2129Z" fill="#EEEEEE"/>
<path d="M78.4678 47.7588H77.9688V50.2215H78.4678V47.7588Z" fill="#EEEEEE"/>
<path d="M81.6884 47.7588H81.1895V50.2215H81.6884V47.7588Z" fill="#EEEEEE"/>
<path d="M81.4162 40.4609H78.2402V49.001H81.4162V40.4609Z" fill="#EEEEEE"/>
<path d="M81.0829 40.8232H78.5879V48.6392H81.0829V40.8232Z" fill="#D5D5D5"/>
<path d="M80.8578 41.2305H78.8008V48.4143H80.8578V41.2305Z" fill="#565656"/>
<path d="M79.5142 41.2305H79.4082V48.4143H79.5142V41.2305Z" fill="#EEEEEE"/>
<path d="M80.2925 41.2305H80.1865V48.4143H80.2925V41.2305Z" fill="#EEEEEE"/>
<path d="M80.8578 42.9473H78.8008V43.1049H80.8578V42.9473Z" fill="#EEEEEE"/>
<path d="M80.8578 44.7998H78.8008V44.9575H80.8578V44.7998Z" fill="#EEEEEE"/>
<path d="M80.8578 46.6523H78.8008V46.81H80.8578V46.6523Z" fill="#EEEEEE"/>
<path d="M81.8773 48.9102H77.7793V49.5875H81.8773V48.9102Z" fill="#EEEEEE"/>
<path d="M89.4242 40.2129H85.6582V41.5457H89.4242V40.2129Z" fill="#EEEEEE"/>
<path d="M86.1806 47.7588H85.6816V50.2215H86.1806V47.7588Z" fill="#EEEEEE"/>
<path d="M89.4013 47.7588H88.9023V50.2215H89.4013V47.7588Z" fill="#EEEEEE"/>
<path d="M89.1291 40.4609H85.9531V49.001H89.1291V40.4609Z" fill="#EEEEEE"/>
<path d="M88.7958 40.8232H86.3008V48.6392H88.7958V40.8232Z" fill="#D5D5D5"/>
<path d="M88.5687 41.2305H86.5117V48.4143H88.5687V41.2305Z" fill="#565656"/>
<path d="M87.2261 41.2305H87.1201V48.4143H87.2261V41.2305Z" fill="#EEEEEE"/>
<path d="M88.0054 41.2305H87.8994V48.4143H88.0054V41.2305Z" fill="#EEEEEE"/>
<path d="M88.5687 42.9473H86.5117V43.1049H88.5687V42.9473Z" fill="#EEEEEE"/>
<path d="M88.5687 44.7998H86.5117V44.9575H88.5687V44.7998Z" fill="#EEEEEE"/>
<path d="M88.5687 46.6523H86.5117V46.81H88.5687V46.6523Z" fill="#EEEEEE"/>
<path d="M89.5902 48.9102H85.4922V49.5875H89.5902V48.9102Z" fill="#EEEEEE"/>
<path d="M97.1371 40.2129H93.3711V41.5457H97.1371V40.2129Z" fill="#EEEEEE"/>
<path d="M93.8916 47.7588H93.3926V50.2215H93.8916V47.7588Z" fill="#EEEEEE"/>
<path d="M97.1133 47.7588H96.6143V50.2215H97.1133V47.7588Z" fill="#EEEEEE"/>
<path d="M96.842 40.4609H93.666V49.001H96.842V40.4609Z" fill="#EEEEEE"/>
<path d="M96.5087 40.8232H94.0137V48.6392H96.5087V40.8232Z" fill="#D5D5D5"/>
<path d="M96.2816 41.2305H94.2246V48.4143H96.2816V41.2305Z" fill="#565656"/>
<path d="M94.939 41.2305H94.833V48.4143H94.939V41.2305Z" fill="#EEEEEE"/>
<path d="M95.7183 41.2305H95.6123V48.4143H95.7183V41.2305Z" fill="#EEEEEE"/>
<path d="M96.2816 42.9473H94.2246V43.1049H96.2816V42.9473Z" fill="#EEEEEE"/>
<path d="M96.2816 44.7998H94.2246V44.9575H96.2816V44.7998Z" fill="#EEEEEE"/>
<path d="M96.2816 46.6523H94.2246V46.81H96.2816V46.6523Z" fill="#EEEEEE"/>
<path d="M97.3021 48.9102H93.2041V49.5875H97.3021V48.9102Z" fill="#EEEEEE"/>
<path d="M24.9238 66.2822H19.1738V67.2238H24.9238V66.2822Z" fill="#EEEEEE"/>
<path d="M24.3019 67.2236H19.7949V67.9609H24.3019V67.2236Z" fill="#EEEEEE"/>
<path d="M24.9525 53.583H19.2305V54.5523H24.9525V53.583Z" fill="#EEEEEE"/>
<path d="M24.2783 54.5527H19.8223V66.4081H24.2783V54.5527Z" fill="#EEEEEE"/>
<path d="M23.8096 55.0547H20.3096V65.9056H23.8096V55.0547Z" fill="#D5D5D5"/>
<path d="M23.4924 55.6182H20.6064V65.5918H23.4924V55.6182Z" fill="#565656"/>
<path d="M21.608 55.6182H21.459V65.5918H21.608V55.6182Z" fill="#EEEEEE"/>
<path d="M22.7007 55.6182H22.5527V65.5918H22.7007V55.6182Z" fill="#EEEEEE"/>
<path d="M23.4924 58.002H20.6064V58.2209H23.4924V58.002Z" fill="#EEEEEE"/>
<path d="M23.4924 60.5742H20.6064V60.7932H23.4924V60.5742Z" fill="#EEEEEE"/>
<path d="M23.4915 63.1465H20.6064V63.3655H23.4915V63.1465Z" fill="#EEEEEE"/>
<path d="M19.0195 52.5992L19.2485 53.1861H24.9525L25.1635 52.5992C25.1635 52.5992 24.0616 51.2021 22.0916 51.2021C20.1706 51.2007 19.0195 52.5992 19.0195 52.5992Z" fill="#EEEEEE"/>
<path d="M24.9525 53.1846H19.2305V53.5408H24.9525V53.1846Z" fill="#EEEEEE"/>
<path d="M19.791 53.1844H24.391C24.391 53.1844 23.566 52.1377 22.091 52.1377C20.653 52.1377 19.791 53.1844 19.791 53.1844Z" fill="#AAAAAA"/>
<path d="M44.3418 66.2822H38.5918V67.2238H44.3418V66.2822Z" fill="#EEEEEE"/>
<path d="M43.7209 67.2236H39.2129V67.9609H43.7209V67.2236Z" fill="#EEEEEE"/>
<path d="M44.3705 53.583H38.6484V54.5523H44.3705V53.583Z" fill="#EEEEEE"/>
<path d="M43.6962 54.5527H39.2402V66.4081H43.6962V54.5527Z" fill="#EEEEEE"/>
<path d="M43.2285 55.0547H39.7285V65.9056H43.2285V55.0547Z" fill="#D5D5D5"/>
<path d="M42.9104 55.6182H40.0244V65.5918H42.9104V55.6182Z" fill="#565656"/>
<path d="M41.025 55.6182H40.877V65.5918H41.025V55.6182Z" fill="#EEEEEE"/>
<path d="M42.1187 55.6182H41.9707V65.5918H42.1187V55.6182Z" fill="#EEEEEE"/>
<path d="M42.9104 58.002H40.0244V58.2209H42.9104V58.002Z" fill="#EEEEEE"/>
<path d="M42.9104 60.5742H40.0244V60.7932H42.9104V60.5742Z" fill="#EEEEEE"/>
<path d="M42.9104 63.1465H40.0244V63.3655H42.9104V63.1465Z" fill="#EEEEEE"/>
<path d="M38.4375 52.5992L38.6655 53.1861H44.3695L44.5805 52.5992C44.5805 52.5992 43.4785 51.2021 41.5085 51.2021C39.5885 51.2007 38.4375 52.5992 38.4375 52.5992Z" fill="#EEEEEE"/>
<path d="M44.3705 53.1846H38.6484V53.5408H44.3705V53.1846Z" fill="#EEEEEE"/>
<path d="M39.209 53.1844H43.809C43.809 53.1844 42.984 52.1377 41.509 52.1377C40.071 52.1377 39.209 53.1844 39.209 53.1844Z" fill="#AAAAAA"/>
<path d="M63.4727 66.2822H57.7227V67.2238H63.4727V66.2822Z" fill="#EEEEEE"/>
<path d="M62.8527 67.2236H58.3457V67.9609H62.8527V67.2236Z" fill="#EEEEEE"/>
<path d="M63.5013 53.583H57.7793V54.5523H63.5013V53.583Z" fill="#EEEEEE"/>
<path d="M62.8271 54.5527H58.3711V66.4081H62.8271V54.5527Z" fill="#EEEEEE"/>
<path d="M62.3594 55.0547H58.8594V65.9056H62.3594V55.0547Z" fill="#D5D5D5"/>
<path d="M62.0413 55.6182H59.1553V65.5918H62.0413V55.6182Z" fill="#565656"/>
<path d="M60.1568 55.6182H60.0078V65.5918H60.1568V55.6182Z" fill="#EEEEEE"/>
<path d="M61.2506 55.6182H61.1016V65.5918H61.2506V55.6182Z" fill="#EEEEEE"/>
<path d="M62.0413 58.002H59.1553V58.2209H62.0413V58.002Z" fill="#EEEEEE"/>
<path d="M62.0412 60.5742H59.1562V60.7932H62.0412V60.5742Z" fill="#EEEEEE"/>
<path d="M62.0422 63.1465H59.1562V63.3655H62.0422V63.1465Z" fill="#EEEEEE"/>
<path d="M57.5684 52.5992L57.7974 53.1861H63.5014L63.7124 52.5992C63.7124 52.5992 62.6114 51.2021 60.6404 51.2021C58.7194 51.2007 57.5684 52.5992 57.5684 52.5992Z" fill="#EEEEEE"/>
<path d="M63.5013 53.1846H57.7793V53.5408H63.5013V53.1846Z" fill="#EEEEEE"/>
<path d="M58.3398 53.1844H62.9398C62.9398 53.1844 62.1148 52.1377 60.6398 52.1377C59.2018 52.1377 58.3398 53.1844 58.3398 53.1844Z" fill="#AAAAAA"/>
<path d="M32.707 66.2832H26.957V67.2248H32.707V66.2832Z" fill="#EEEEEE"/>
<path d="M32.0861 67.2246H27.5781V67.9618H32.0861V67.2246Z" fill="#EEEEEE"/>
<path d="M32.7337 53.584H27.0117V54.5533H32.7337V53.584Z" fill="#EEEEEE"/>
<path d="M32.0595 54.5527H27.6035V66.4081H32.0595V54.5527Z" fill="#EEEEEE"/>
<path d="M31.5918 55.0547H28.0918V65.9056H31.5918V55.0547Z" fill="#D5D5D5"/>
<path d="M31.2747 55.6182H28.3887V65.5918H31.2747V55.6182Z" fill="#565656"/>
<path d="M29.3902 55.6182H29.2422V65.5918H29.3902V55.6182Z" fill="#EEEEEE"/>
<path d="M30.483 55.6182H30.335V65.5918H30.483V55.6182Z" fill="#EEEEEE"/>
<path d="M31.2737 58.002H28.3887V58.2209H31.2737V58.002Z" fill="#EEEEEE"/>
<path d="M31.2747 60.5752H28.3887V60.7942H31.2747V60.5752Z" fill="#EEEEEE"/>
<path d="M31.2747 63.1465H28.3887V63.3655H31.2747V63.1465Z" fill="#EEEEEE"/>
<path d="M26.8008 52.8698L27.0298 53.1851H32.7338L32.9448 52.8698L29.8728 51.2012L26.8008 52.8698Z" fill="#EEEEEE"/>
<path d="M32.7337 53.1846H27.0117V53.5408H32.7337V53.1846Z" fill="#EEEEEE"/>
<path d="M27.5723 53.1854H32.1723L29.8723 52.1387L27.5723 53.1854Z" fill="#AAAAAA"/>
<path d="M98.0605 66.2822H92.3105V67.2238H98.0605V66.2822Z" fill="#EEEEEE"/>
<path d="M97.4386 67.2236H92.9316V67.9609H97.4386V67.2236Z" fill="#EEEEEE"/>
<path d="M98.0062 53.583H92.2842V54.5523H98.0062V53.583Z" fill="#EEEEEE"/>
<path d="M97.414 54.5527H92.958V66.4081H97.414V54.5527Z" fill="#EEEEEE"/>
<path d="M96.9258 55.0547H93.4258V65.9056H96.9258V55.0547Z" fill="#D5D5D5"/>
<path d="M96.6292 55.6182H93.7432V65.5918H96.6292V55.6182Z" fill="#565656"/>
<path d="M95.775 55.6182H95.627V65.5918H95.775V55.6182Z" fill="#EEEEEE"/>
<path d="M94.6841 55.6182H94.5352V65.5918H94.6841V55.6182Z" fill="#EEEEEE"/>
<path d="M96.6282 58.002H93.7432V58.2209H96.6282V58.002Z" fill="#EEEEEE"/>
<path d="M96.6292 60.5742H93.7432V60.7932H96.6292V60.5742Z" fill="#EEEEEE"/>
<path d="M96.6292 63.1465H93.7432V63.3655H96.6292V63.1465Z" fill="#EEEEEE"/>
<path d="M92.0732 52.5992L92.2842 53.1861H97.9883L98.2162 52.5992C98.2162 52.5992 97.0652 51.2021 95.1442 51.2021C93.1752 51.2007 92.0732 52.5992 92.0732 52.5992Z" fill="#EEEEEE"/>
<path d="M98.0062 53.1846H92.2842V53.5408H98.0062V53.1846Z" fill="#EEEEEE"/>
<path d="M92.8457 53.1844H97.4457C97.4457 53.1844 96.5837 52.1377 95.1457 52.1377C93.6707 52.1377 92.8457 53.1844 92.8457 53.1844Z" fill="#AAAAAA"/>
<path d="M90.2793 66.2832H84.5293V67.2248H90.2793V66.2832Z" fill="#EEEEEE"/>
<path d="M89.6574 67.2246H85.1504V67.9618H89.6574V67.2246Z" fill="#EEEEEE"/>
<path d="M90.224 53.584H84.502V54.5533H90.224V53.584Z" fill="#EEEEEE"/>
<path d="M89.6318 54.5527H85.1758V66.4081H89.6318V54.5527Z" fill="#EEEEEE"/>
<path d="M89.1436 55.0547H85.6426V65.9056H89.1436V55.0547Z" fill="#D5D5D5"/>
<path d="M88.8469 55.6182H85.9609V65.5918H88.8469V55.6182Z" fill="#565656"/>
<path d="M87.9937 55.6182H87.8457V65.5918H87.9937V55.6182Z" fill="#EEEEEE"/>
<path d="M86.9019 55.6182H86.7529V65.5918H86.9019V55.6182Z" fill="#EEEEEE"/>
<path d="M88.8479 58.002H85.9619V58.2209H88.8479V58.002Z" fill="#EEEEEE"/>
<path d="M88.8469 60.5752H85.9619V60.7942H88.8469V60.5752Z" fill="#EEEEEE"/>
<path d="M88.8469 63.1465H85.9609V63.3655H88.8469V63.1465Z" fill="#EEEEEE"/>
<path d="M84.291 52.8698L84.502 53.1851H90.206L90.435 52.8698L87.363 51.2012L84.291 52.8698Z" fill="#EEEEEE"/>
<path d="M90.224 53.1846H84.502V53.5408H90.224V53.1846Z" fill="#EEEEEE"/>
<path d="M85.0625 53.1854H89.6625L87.3625 52.1387L85.0625 53.1854Z" fill="#AAAAAA"/>
<path d="M82.5449 66.2822H76.7949V67.2238H82.5449V66.2822Z" fill="#EEEEEE"/>
<path d="M81.923 67.2236H77.416V67.9609H81.923V67.2236Z" fill="#EEEEEE"/>
<path d="M82.4886 53.583H76.7666V54.5523H82.4886V53.583Z" fill="#EEEEEE"/>
<path d="M81.8974 54.5527H77.4414V66.4081H81.8974V54.5527Z" fill="#EEEEEE"/>
<path d="M81.4082 55.0547H77.9082V65.9056H81.4082V55.0547Z" fill="#D5D5D5"/>
<path d="M81.1126 55.6182H78.2266V65.5918H81.1126V55.6182Z" fill="#565656"/>
<path d="M80.2593 55.6182H80.1113V65.5918H80.2593V55.6182Z" fill="#EEEEEE"/>
<path d="M79.1656 55.6182H79.0176V65.5918H79.1656V55.6182Z" fill="#EEEEEE"/>
<path d="M81.1126 58.002H78.2266V58.2209H81.1126V58.002Z" fill="#EEEEEE"/>
<path d="M81.1116 60.5742H78.2266V60.7932H81.1116V60.5742Z" fill="#EEEEEE"/>
<path d="M81.1126 63.1465H78.2266V63.3655H81.1126V63.1465Z" fill="#EEEEEE"/>
<path d="M76.5566 52.5992L76.7676 53.1861H82.4716L82.7006 52.5992C82.7006 52.5992 81.5496 51.2021 79.6286 51.2021C77.6576 51.2007 76.5566 52.5992 76.5566 52.5992Z" fill="#EEEEEE"/>
<path d="M82.4886 53.1846H76.7666V53.5408H82.4886V53.1846Z" fill="#EEEEEE"/>
<path d="M77.3281 53.1844H81.9281C81.9281 53.1844 81.0661 52.1377 79.6281 52.1377C78.1531 52.1377 77.3281 53.1844 77.3281 53.1844Z" fill="#AAAAAA"/>
<path d="M49.7673 57.9307H48.3613V68.3042H49.7673V57.9307Z" fill="#EEEEEE"/>
<path d="M54.0583 57.832H52.6523V68.2056H54.0583V57.832Z" fill="#EEEEEE"/>
<path d="M51.2103 62.0851C52.7827 62.0851 54.0573 60.1812 54.0573 57.8326C54.0573 55.484 52.7827 53.5801 51.2103 53.5801C49.6379 53.5801 48.3633 55.484 48.3633 57.8326C48.3633 60.1812 49.6379 62.0851 51.2103 62.0851Z" fill="#EEEEEE"/>
<path d="M51.1749 54.6924C50.0669 54.6924 49.1699 56.034 49.1699 57.688C49.1699 59.342 50.0679 60.6835 51.1749 60.6835C52.2819 60.6835 53.1799 59.342 53.1799 57.688C53.1799 56.034 52.2819 54.6924 51.1749 54.6924Z" fill="#A9A9A9"/>
<path d="M51.1652 55.3535C50.2862 55.3535 49.5742 56.4177 49.5742 57.7301C49.5742 59.0425 50.2862 60.1067 51.1652 60.1067C52.0442 60.1067 52.7562 59.0425 52.7562 57.7301C52.7562 56.4177 52.0442 55.3535 51.1652 55.3535Z" fill="#AAAAAA"/>
<path d="M54.0813 57.9307H48.3613V68.1991H54.0813V57.9307Z" fill="#A9A9A9"/>
<path d="M52.6746 60.9199H49.7676V68.206H52.6746V60.9199Z" fill="#565656"/>
<path d="M51.3055 60.9199H51.1875V68.206H51.3055V60.9199Z" fill="#EEEEEE"/>
<path d="M54.0863 57.9307H48.3613V59.8533H54.0863V57.9307Z" fill="#EEEEEE"/>
<path d="M49.7546 67.3447H48.3496V68.206H49.7546V67.3447Z" fill="#EEEEEE"/>
<path d="M54.0749 67.3447H52.6699V68.206H54.0749V67.3447Z" fill="#EEEEEE"/>
<path d="M49.0903 59.8359H48.3633V67.3453H49.0903V59.8359Z" fill="#EEEEEE"/>
<path d="M49.7542 59.8359H49.4102V67.3453H49.7542V59.8359Z" fill="#EEEEEE"/>
<path d="M53.0139 59.8359H52.6699V67.3453H53.0139V59.8359Z" fill="#EEEEEE"/>
<path d="M54.0815 59.8359H53.3545V67.3453H54.0815V59.8359Z" fill="#EEEEEE"/>
<path d="M52.7786 60.6338H49.6846V60.9199H52.7786V60.6338Z" fill="#EEEEEE"/>
<path d="M52.6909 63.7744H49.7539V63.9613H52.6909V63.7744Z" fill="#EEEEEE"/>
<path d="M74.7637 66.2832H69.0137V67.2248H74.7637V66.2832Z" fill="#EEEEEE"/>
<path d="M74.1418 67.2246H69.6348V67.9618H74.1418V67.2246Z" fill="#EEEEEE"/>
<path d="M74.7083 53.584H68.9863V54.5533H74.7083V53.584Z" fill="#EEEEEE"/>
<path d="M74.1161 54.5527H69.6602V66.4081H74.1161V54.5527Z" fill="#EEEEEE"/>
<path d="M73.627 55.0547H70.127V65.9056H73.627V55.0547Z" fill="#D5D5D5"/>
<path d="M73.3313 55.6182H70.4453V65.5918H73.3313V55.6182Z" fill="#565656"/>
<path d="M72.4781 55.6182H72.3301V65.5918H72.4781V55.6182Z" fill="#EEEEEE"/>
<path d="M71.3853 55.6182H71.2373V65.5918H71.3853V55.6182Z" fill="#EEEEEE"/>
<path d="M73.3313 58.002H70.4453V58.2209H73.3313V58.002Z" fill="#EEEEEE"/>
<path d="M73.3313 60.5752H70.4453V60.7942H73.3313V60.5752Z" fill="#EEEEEE"/>
<path d="M73.3313 63.1465H70.4453V63.3655H73.3313V63.1465Z" fill="#EEEEEE"/>
<path d="M68.7754 52.8698L68.9864 53.1851H74.6904L74.9184 52.8698L71.8474 51.2012L68.7754 52.8698Z" fill="#EEEEEE"/>
<path d="M74.7083 53.1846H68.9863V53.5408H74.7083V53.1846Z" fill="#EEEEEE"/>
<path d="M69.5469 53.1854H74.1459L71.8469 52.1387L69.5469 53.1854Z" fill="#AAAAAA"/>
<path d="M23.3164 69.7649H59.1974L66.9334 36.1858V31.1377H34.7944L23.3164 69.7649Z" fill="#DEDEDE"/>
<path d="M70.596 68.2061H31.124V73.0177H70.596V68.2061Z" fill="#EEEEEE"/>
<path d="M36.3156 65.4736H32.4746V68.3904H36.3156V65.4736Z" fill="#EEEEEE"/>
<path d="M47.3078 65.4736H43.4668V68.3904H47.3078V65.4736Z" fill="#EEEEEE"/>
<path d="M58.301 65.4736H54.46V68.3904H58.301V65.4736Z" fill="#EEEEEE"/>
<path d="M69.2941 65.4736H65.4531V68.3904H69.2941V65.4736Z" fill="#EEEEEE"/>
<path d="M33.4642 31.9453L33.2832 65.4952H35.5062L35.3242 31.9453H33.4642Z" fill="#EEEEEE"/>
<path d="M66.4437 31.9453L66.2617 65.4952H68.4857L68.3037 31.9453H66.4437Z" fill="#EEEEEE"/>
<path d="M55.4515 31.9453L55.2695 65.4952H57.4926L57.3116 31.9453H55.4515Z" fill="#EEEEEE"/>
<path d="M44.4564 31.9453L44.2754 65.4952H46.4984L46.3174 31.9453H44.4564Z" fill="#EEEEEE"/>
<path d="M68.8722 25.5078H32.5762V31.9471H68.8722V25.5078Z" fill="#EEEEEE"/>
<path d="M35.5027 31.9453H33.2857C32.9987 31.9453 32.7637 32.2884 32.7637 32.7074C32.7637 33.1263 32.9987 33.4694 33.2857 33.4694H35.5027C35.7897 33.4694 36.0247 33.1263 36.0247 32.7074C36.0247 32.2884 35.7897 31.9453 35.5027 31.9453Z" fill="#EEEEEE"/>
<path d="M46.4958 31.9453H44.2788C43.9918 31.9453 43.7568 32.2884 43.7568 32.7074C43.7568 33.1263 43.9918 33.4694 44.2788 33.4694H46.4958C46.7828 33.4694 47.0179 33.1263 47.0179 32.7074C47.0179 32.2884 46.7828 31.9453 46.4958 31.9453Z" fill="#EEEEEE"/>
<path d="M57.489 31.9453H55.272C54.985 31.9453 54.75 32.2884 54.75 32.7074C54.75 33.1263 54.985 33.4694 55.272 33.4694H57.489C57.776 33.4694 58.011 33.1263 58.011 32.7074C58.011 32.2884 57.776 31.9453 57.489 31.9453Z" fill="#EEEEEE"/>
<path d="M68.4822 31.9453H66.2652C65.9782 31.9453 65.7432 32.2884 65.7432 32.7074C65.7432 33.1263 65.9782 33.4694 66.2652 33.4694H68.4822C68.7692 33.4694 69.0042 33.1263 69.0042 32.7074C69.0042 32.2884 68.7702 31.9453 68.4822 31.9453Z" fill="#EEEEEE"/>
<path d="M33.8086 23.8642H35.6596L50.0396 14.7738L63.8696 23.8642H67.8766L50.8426 12.8848L33.8086 23.8642Z" fill="#DEDEDE"/>
<path d="M68.8722 25.5078H32.5762V26.7268H68.8722V25.5078Z" fill="#A9A9A9"/>
<path d="M50.4297 50.735V52.8663V54.9977H51.3137H52.1987V52.8663V50.735L51.3137 50.0518L50.4297 50.735Z" fill="#565656"/>
<path d="M51.4037 34.9854H51.2217V50.8275H51.4037V34.9854Z" fill="#565656"/>
<path d="M51.399 49.8506H51.203C51.114 49.8506 51.041 49.9572 51.041 50.0871C51.041 50.217 51.114 50.3236 51.203 50.3236H51.399C51.488 50.3236 51.561 50.217 51.561 50.0871C51.562 49.9572 51.489 49.8506 51.399 49.8506Z" fill="#565656"/>
<path d="M50.9125 50.874H50.4805V54.5324H50.9125V50.874Z" fill="#DEDEDE"/>
<path d="M51.6112 50.874H50.9922V54.5324H51.6112V50.874Z" fill="#DEDEDE"/>
<path d="M52.1312 50.874H51.6992V54.5324H52.1312V50.874Z" fill="#DEDEDE"/>
<path d="M51.0273 35.0175C51.0273 35.108 51.1504 35.1825 51.3024 35.1825C51.4544 35.1825 51.5774 35.108 51.5774 35.0175C51.5774 34.927 51.4544 34.8525 51.3024 34.8525C51.1504 34.8525 51.0273 34.927 51.0273 35.0175Z" fill="#565656"/>
<path d="M51.3024 36.9823C51.4542 36.9823 51.5774 36.9084 51.5774 36.8173C51.5774 36.7262 51.4542 36.6523 51.3024 36.6523C51.1505 36.6523 51.0273 36.7262 51.0273 36.8173C51.0273 36.9084 51.1505 36.9823 51.3024 36.9823Z" fill="#565656"/>
<path d="M51.5774 35.0176H51.0273V36.8176H51.5774V35.0176Z" fill="#565656"/>
</svg>
