<svg width="80" height="82" viewBox="0 0 80 82" fill="none" xmlns="http://www.w3.org/2000/svg">
<g opacity="0.89">
<path d="M31.0554 17.9365C31.0554 17.9365 22.5477 21.8039 21.6197 27.3722C21.6197 27.3722 20.3823 31.0845 20.5365 38.8184C20.5365 38.8184 20.4301 45.4312 19.9508 47.6742C19.8692 48.0586 19.4352 48.2541 19.1011 48.0479C18.4899 47.6701 17.3423 47.1165 15.7419 47.0167C14.5928 46.9449 13.6771 48.1064 13.0262 49.3719C12.292 50.7982 11.8919 52.3706 11.788 53.9718C11.6345 56.3262 11.2609 60.7917 10.5357 63.1197C10.3287 63.7846 10.8253 64.4577 11.5215 64.4577H68.4758C69.1481 64.4577 69.6563 63.8217 69.4781 63.1741C69.3123 62.5719 68.9427 61.8237 68.1491 61.0779C67.7284 60.6828 67.5469 60.0905 67.6525 59.5229C67.8918 58.2418 68.0576 55.7537 66.8069 52.5884C66.6304 52.1421 66.4976 51.6785 66.4003 51.2083C66.1684 50.0921 66.1387 47.3327 62.3209 46.5918C62.0272 46.5349 61.6717 46.4871 61.2971 46.4467C59.8485 46.2907 58.3917 46.4962 57.0115 46.9631C55.2156 47.5711 52.0965 47.9497 49.1531 45.0063C44.667 40.5202 38.3257 28.7648 38.3257 28.7648C38.3257 28.7648 32.7565 20.875 31.0554 17.9365Z" fill="#ABABAB"/>
<path d="M32.505 18.7273C32.2023 18.2901 32.3573 17.6854 32.8358 17.4519C34.9386 16.4257 40.5499 14.3295 47.3747 16.9685C54.9881 19.9119 57.4497 23.4781 57.868 25.1784C57.9983 25.7071 58.1163 26.2351 58.273 26.7565C58.7564 28.3643 59.5896 32.098 59.6713 38.8948V43.9756C59.6713 44.9457 58.9998 45.7938 58.0511 45.9959C55.6934 46.4983 49.9576 45.7261 46.011 38.8403C42.3574 32.4676 35.0145 22.3546 32.505 18.7273Z" fill="#ABABAB"/>
<path d="M28.145 20.5537L30.6438 25.7583L33.1277 30.9612C33.9403 32.7027 34.7421 34.4524 35.657 36.1444C36.5711 37.8355 37.589 39.4722 38.7159 41.0248C39.8494 42.5616 41.0423 44.0944 42.4942 45.2642L42.768 45.4778C42.8604 45.5463 42.9603 45.5999 43.0559 45.6618L43.3455 45.8424L43.6631 46.0008C44.0871 46.212 44.507 46.4315 44.9475 46.6047C45.8113 46.9924 46.7121 47.2828 47.6187 47.5427C49.4427 48.031 51.3392 48.2455 53.2432 48.2109C55.1497 48.1985 57.0561 47.9295 58.9667 47.6804L58.9782 47.7439C57.1081 48.2026 55.2074 48.5936 53.263 48.7182C51.3219 48.8584 49.3453 48.6852 47.443 48.2076L46.7369 48.0005C46.5001 47.9361 46.2683 47.8561 46.0398 47.7687L45.3493 47.5162C45.1224 47.4247 44.9014 47.3174 44.677 47.2193C44.2249 47.0295 43.7959 46.7936 43.3636 46.5651L43.0394 46.3935L42.7202 46.1856C42.6154 46.1147 42.5049 46.0495 42.4051 45.9736L42.1147 45.7377C41.3458 45.1033 40.6908 44.3691 40.0894 43.6052C39.4889 42.8396 38.9386 42.0403 38.4231 41.2227C37.3803 39.5943 36.4316 37.9164 35.473 36.245C34.5153 34.5728 33.5435 32.9056 32.6459 31.198C31.7558 29.487 30.9532 27.7324 30.1876 25.9637C29.4262 24.1925 28.7118 22.4016 28.084 20.5768L28.145 20.5537Z" fill="#ABABAB"/>
<path d="M25.0233 21.9482C26.0049 24.6343 27.0617 27.2848 28.191 29.9032C28.7586 31.2107 29.3435 32.5092 29.9317 33.8077C30.5108 35.1102 31.1336 36.3939 31.7911 37.661C32.4536 38.9256 33.1869 40.1523 33.9929 41.3304C34.7799 42.5199 35.6568 43.6493 36.5865 44.725C37.5204 45.7966 38.4872 46.8402 39.5473 47.7781C40.5941 48.7276 41.7119 49.5955 42.9106 50.3272L42.8586 50.3008C44.0416 50.7141 45.3211 50.988 46.5874 51.1629C47.8611 51.3279 49.1513 51.3732 50.4333 51.2891C51.0775 51.266 51.7103 51.1505 52.3488 51.0622L53.2933 50.8576C53.4501 50.8205 53.6109 50.7958 53.7652 50.7488L54.2272 50.6052C55.4778 50.2629 56.6443 49.6846 57.8 49.0766L57.8347 49.131C56.7474 49.8537 55.6032 50.5392 54.346 50.9608L53.8815 51.1365C53.7264 51.1934 53.5647 51.2297 53.4055 51.2775C53.0863 51.365 52.7687 51.4615 52.447 51.5424C51.7952 51.6587 51.1443 51.8014 50.4819 51.8509C49.162 51.9928 47.8248 51.9903 46.5049 51.8327L45.5174 51.6925C45.1916 51.6249 44.8641 51.5712 44.5399 51.4929C43.8881 51.3435 43.2554 51.1703 42.6111 50.9245L42.5831 50.9138L42.5592 50.8981C40.1082 49.32 38.0186 47.2634 36.2821 44.9741C35.8367 44.4099 35.4258 43.8209 35.0068 43.2384C34.6116 42.6395 34.1958 42.0555 33.8114 41.4508C33.0351 40.2464 32.2861 39.0263 31.5601 37.7905C30.8243 36.5605 30.1223 35.3091 29.4656 34.0329C28.8131 32.755 28.2224 31.4467 27.6779 30.1193C27.1302 28.7936 26.6261 27.4506 26.1749 26.0903C25.7154 24.7324 25.2963 23.3614 24.9639 21.9656L25.0233 21.9482Z" fill="#ABABAB"/>
<path d="M45.194 16.833C45.5265 17.0854 45.7393 17.4534 45.8837 17.8337C46.0314 18.2165 46.0965 18.6298 46.0743 19.0365C46.0454 19.2394 46.0074 19.4398 45.9613 19.6345C45.8986 19.8276 45.8474 20.0189 45.807 20.2103C45.6981 20.5865 45.6453 20.9742 45.5562 21.3611C45.4217 22.1531 45.0571 22.8757 44.6471 23.5497C44.4095 23.8657 44.1686 24.1792 43.8939 24.4621C43.6077 24.7352 43.3148 24.9991 42.9881 25.2277L42.9395 25.1856C43.0987 24.8152 43.2909 24.4811 43.4897 24.1552C43.6786 23.8228 43.8601 23.4912 44.0672 23.1777C44.2503 22.8518 44.4656 22.5441 44.6611 22.224C44.8294 21.8916 45.053 21.5814 45.2229 21.2423C45.4209 20.9124 45.5356 20.5453 45.6016 20.1724C45.6139 19.9827 45.6156 19.7913 45.6065 19.6032C45.5834 19.4143 45.5504 19.2287 45.5372 19.0464C45.4605 18.3187 45.383 17.62 45.1429 16.8743L45.194 16.833Z" fill="#ABABAB"/>
<path d="M45.8377 26.1468C45.8493 26.4314 45.7849 26.688 45.7082 26.9371C45.6224 27.183 45.5251 27.4255 45.3634 27.6309C45.2025 27.838 44.9806 28.0062 44.8321 28.2158C44.677 28.4212 44.5689 28.6546 44.4691 28.9005C44.3776 29.1513 44.253 29.3856 44.1053 29.6033C43.9569 29.822 43.8042 30.0414 43.6079 30.2245C43.2152 30.5801 42.726 30.8886 42.1667 30.9348L42.1387 30.8771L43.1154 29.7436C43.1954 29.652 43.2812 29.5679 43.3695 29.4829C43.4545 29.3946 43.5411 29.3072 43.6302 29.2214C43.7193 29.1356 43.7993 29.0399 43.8925 28.9549C43.9849 28.8691 44.0864 28.7883 44.1779 28.6992C44.3734 28.5293 44.5359 28.3321 44.6539 28.1077C44.7678 27.88 44.8082 27.6119 44.8915 27.3719C44.9773 27.1334 45.1167 26.9247 45.2578 26.7144C45.4079 26.5081 45.5638 26.3052 45.7775 26.1221L45.8377 26.1468Z" fill="#ABABAB"/>
<path d="M56.8002 24.2909C56.5766 25.0432 56.2376 25.7486 55.868 26.4333C55.4918 27.1155 55.0744 27.7755 54.5943 28.3884C54.115 29.003 53.5565 29.5524 53.0294 30.12C52.4981 30.6842 51.9932 31.2683 51.4793 31.8515C50.4844 33.0493 49.28 34.1053 47.8363 34.8197C47.1104 35.1497 46.2862 35.393 45.4407 35.2816C45.0232 35.2247 44.6116 35.068 44.2857 34.8098C44.1183 34.6877 43.9805 34.5326 43.851 34.3849C43.7223 34.234 43.6052 34.0698 43.5186 33.8916L43.5722 33.8561C43.8263 34.1366 44.1364 34.3775 44.4582 34.5359C44.7807 34.6992 45.1305 34.7677 45.4803 34.7718C46.1839 34.7669 46.8827 34.521 47.541 34.196C48.8758 33.5558 50.0992 32.6294 51.264 31.6354C51.4067 31.5075 51.5544 31.383 51.6938 31.251C51.8282 31.114 51.9676 30.9812 52.098 30.8401C52.3686 30.5671 52.6128 30.2693 52.852 29.969C53.3197 29.3577 53.7256 28.7019 54.1472 28.0634C55.02 26.8078 55.8795 25.5522 56.7416 24.2637L56.8002 24.2909Z" fill="#ABABAB"/>
<path d="M20.8273 61.958L20.8232 61.9539C20.5452 61.6866 20.3843 61.303 20.1987 60.9541C20.0214 60.596 19.8539 60.2314 19.6856 59.8676L18.6883 57.6733C18.35 56.944 17.9837 56.2255 17.6373 55.4979C17.2957 54.7678 16.9097 54.0567 16.545 53.3357L16.5368 53.3192C16.5071 53.2606 16.4428 53.2251 16.3743 53.235C16.2885 53.2474 16.2291 53.3274 16.2415 53.4124C16.2959 53.7853 16.3462 54.1606 16.3809 54.5376C16.3916 54.9146 16.4023 55.2933 16.3809 55.6703C16.3149 56.4235 16.1722 57.1659 15.9874 57.8853C15.8166 58.6063 15.6351 59.3223 15.3621 60.0087C15.0874 60.6909 14.7574 61.3624 14.2905 61.9564L14.288 61.9597C14.2797 61.9704 14.2789 61.9853 14.2863 61.9968C14.2962 62.0117 14.316 62.0158 14.3309 62.0067C14.6625 61.7939 14.9364 61.5076 15.1789 61.2016C15.4272 60.8972 15.6261 60.5581 15.8125 60.2125C16.1689 59.5137 16.4056 58.7581 16.5269 57.99C16.6556 57.2195 16.6086 56.4391 16.6077 55.6761C16.5954 55.2933 16.583 54.9113 16.5855 54.5294C16.583 54.4848 16.5822 54.4403 16.5805 54.3966C16.7406 54.8495 16.908 55.2991 17.0945 55.7404C17.4063 56.4878 17.7123 57.2385 18.0646 57.9694C18.4243 58.697 18.8021 59.4164 19.2302 60.111C19.4431 60.4591 19.6666 60.8014 19.9133 61.1314C20.0354 61.2972 20.1649 61.4581 20.3068 61.6099C20.4479 61.7601 20.5922 61.9184 20.7919 62.0108C20.8042 62.0166 20.8191 62.0141 20.8282 62.0042C20.8405 61.9902 20.8397 61.9704 20.8273 61.958Z" fill="#ABABAB"/>
<path d="M34.6142 52.8464C34.37 52.6617 34.0944 52.5181 33.8527 52.3185C33.6011 52.1337 33.3578 51.9324 33.0905 51.7435C32.8422 51.5364 32.607 51.3079 32.4429 51.0275C32.3546 50.8922 32.2936 50.7395 32.2366 50.5853L32.0675 50.1283C31.7994 49.5483 31.4678 49.0146 31.0463 48.4775L30.9852 48.4973C30.9753 48.8496 31.0553 49.1787 31.1576 49.498C31.2088 49.658 31.2731 49.8123 31.3457 49.9633C31.4125 50.1167 31.5 50.2603 31.6006 50.3947C31.6996 50.5308 31.8168 50.6546 31.9364 50.775C32.0519 50.8979 32.1657 51.02 32.2729 51.1462C32.4742 51.4077 32.659 51.6783 32.8248 51.9753C32.9189 52.1139 33.0088 52.2599 33.1103 52.3969C33.2052 52.5396 33.3347 52.6509 33.451 52.7763C33.5673 52.9017 33.6902 53.0205 33.828 53.1245C33.9624 53.2317 34.0961 53.3414 34.2462 53.428C34.8451 53.7745 35.5488 53.9544 36.2302 53.8925L36.2418 53.829C35.6511 53.4825 35.1198 53.202 34.6142 52.8464Z" fill="#ABABAB"/>
<path d="M33.6566 47.1201C34.0782 47.6572 34.4098 48.1901 34.6779 48.7708L34.847 49.2278C34.9031 49.3821 34.965 49.5347 35.0532 49.67C35.2166 49.9505 35.4525 50.179 35.7 50.3861C35.9673 50.575 36.2106 50.7763 36.4622 50.961C36.704 51.1607 36.9795 51.3042 37.2237 51.489C37.7294 51.8446 38.2606 52.125 38.8521 52.4723L38.8406 52.5359C38.1592 52.5977 37.4547 52.4187 36.8566 52.0714C36.7073 51.9848 36.5728 51.8759 36.4383 51.7678C36.3006 51.6639 36.1776 51.5443 36.0613 51.4197C35.945 51.2943 35.8155 51.183 35.7206 51.0402C35.6183 50.9041 35.5292 50.7581 35.4352 50.6187C35.2694 50.3209 35.0846 50.0511 34.8833 49.7896C34.7769 49.6634 34.6622 49.5413 34.5467 49.4184C34.4279 49.2971 34.31 49.1734 34.211 49.0381C34.1103 48.9036 34.0229 48.7601 33.9561 48.6066C33.8835 48.4565 33.8191 48.3014 33.768 48.1414C33.6657 47.8221 33.5857 47.493 33.5956 47.1407L33.6566 47.1201Z" fill="#ABABAB"/>
<path d="M24.4194 25.2059C24.5283 27.4836 24.5613 29.7613 24.5365 32.0389C24.5159 33.1774 24.4631 34.3166 24.459 35.4559C24.4425 36.5951 24.4656 37.7335 24.4912 38.8728L24.5307 40.5812C24.5349 41.1513 24.5695 41.7065 24.6586 42.2617C24.8376 43.3679 25.2171 44.4379 25.7657 45.4105C26.0346 45.9005 26.3861 46.3361 26.7045 46.822C27.0204 47.3012 27.3141 47.7971 27.569 48.3143C27.8231 48.8307 28.031 49.3743 28.1605 49.9386C28.2933 50.4996 28.3008 51.1026 28.1316 51.6512L28.1003 51.6421C28.2249 51.0869 28.1597 50.5144 28.0021 49.9782C27.8487 49.4379 27.6095 48.9256 27.3446 48.4298C27.079 47.934 26.7738 47.458 26.4479 46.9968C26.1237 46.5423 25.7657 46.082 25.4778 45.5763C24.8896 44.5748 24.52 43.452 24.3592 42.3062C24.2759 41.7345 24.2602 41.1488 24.2758 40.5804L24.3154 38.872C24.3418 37.7335 24.3641 36.5943 24.3476 35.455C24.3435 34.3158 24.2899 33.1774 24.2701 32.0381C24.2462 29.7604 24.2791 27.4828 24.3872 25.2051L24.4194 25.2059Z" fill="#ABABAB"/>
<path d="M44.4027 53.8636C44.4233 54.748 44.4844 55.6142 44.5669 56.482C44.6023 56.916 44.6287 57.3565 44.7294 57.7846C44.755 57.891 44.7756 57.9991 44.8045 58.1047L44.9117 58.4157C44.9868 58.6211 45.0585 58.8282 45.1617 59.0229C45.5238 59.8198 46.0031 60.5474 46.5467 61.2115L46.9617 61.7081L47.4278 62.1593C47.5078 62.2319 47.5796 62.3161 47.6613 62.3878L47.9178 62.5899C48.0886 62.726 48.2577 62.8671 48.426 63.0131L48.4095 63.0412C48.2131 62.9405 48.0176 62.8341 47.8238 62.7236L47.5326 62.5553C47.4393 62.4942 47.3527 62.4225 47.2661 62.3524L46.7423 61.9275C46.5847 61.7683 46.437 61.5975 46.2836 61.4325C45.7152 60.7379 45.2516 59.9452 44.9983 59.088C44.9134 58.8818 44.8754 58.6607 44.8078 58.4495L44.7104 58.1319L44.6279 57.8102C44.5034 57.3853 44.3837 56.9556 44.3004 56.5167C44.2262 56.077 44.2006 55.6299 44.2113 55.1844C44.2171 54.7398 44.2658 54.2934 44.3705 53.8604L44.4027 53.8636Z" fill="#ABABAB"/>
<path d="M56.771 53.8604C56.7413 54.7554 56.559 55.6398 56.295 56.4985C56.0294 57.3573 55.6639 58.1913 55.1863 58.9668C54.7045 59.7373 54.1048 60.4533 53.3656 61.0036C52.996 61.2774 52.5926 61.5043 52.1719 61.6792C51.7438 61.8392 51.3008 61.9489 50.8545 61.9803C51.2694 61.8087 51.6638 61.6239 52.03 61.3962C52.3947 61.1661 52.7304 60.9004 53.0455 60.6158C53.6642 60.0318 54.1947 59.3594 54.6393 58.6269C55.0997 57.9034 55.4734 57.1205 55.8248 56.3245C56.168 55.5234 56.479 54.7034 56.771 53.8604Z" fill="#ABABAB"/>
<path d="M61.3243 53.4085C61.2781 53.859 61.1668 54.2838 61.0422 54.7029C60.911 55.1195 60.7725 55.5336 60.5712 55.923C60.3699 56.3115 60.1092 56.6762 59.9277 57.0721C59.7437 57.4681 59.6093 57.8831 59.4987 58.3095C59.3915 58.7369 59.2669 59.1576 59.116 59.5668C58.9691 59.9784 58.8239 60.3909 58.6416 60.7877C58.2654 61.5747 57.8563 62.36 57.2631 63.0414L57.207 63.0093C57.4248 62.1497 57.6904 61.3255 58.0097 60.5154C58.1722 60.1129 58.3644 59.7219 58.5542 59.33C58.7373 58.9357 58.9493 58.5521 59.1729 58.1734C59.3956 57.794 59.5903 57.4038 59.7355 56.9929C59.8823 56.5821 59.9492 56.1399 60.0746 55.7209C60.1999 55.3018 60.3864 54.9083 60.5794 54.5164C60.7782 54.1271 60.9902 53.7435 61.2658 53.3838L61.3243 53.4085Z" fill="#ABABAB"/>
<path d="M31.0313 55.3955C31.3728 55.9515 31.598 56.5678 31.7218 57.2038C31.7729 57.5247 31.787 57.8514 31.8208 58.1714L31.9313 59.1358C31.9659 59.46 31.9726 59.7925 31.9165 60.1208C31.8653 60.4491 31.7754 60.7807 31.6079 61.0802C31.4388 61.3764 31.2037 61.6453 30.9125 61.8227C30.6229 62.0017 30.3004 62.1073 29.977 62.1452L29.9688 62.1139C30.5578 61.8474 31.0437 61.4572 31.3068 60.9152C31.5923 60.3881 31.7003 59.7669 31.7556 59.1366C31.7795 58.8207 31.7754 58.4989 31.7177 58.1855C31.6616 57.8712 31.5551 57.5668 31.4611 57.264C31.292 56.6527 31.1352 56.0414 31.0016 55.4071L31.0313 55.3955Z" fill="#ABABAB"/>
<path d="M50.1587 20.5654C50.214 21.147 50.2157 21.7319 50.1769 22.3143C50.1422 22.8975 50.0631 23.4791 49.9434 24.0533C49.8189 24.6258 49.6621 25.1967 49.4155 25.7345C49.1762 26.2716 48.8586 26.7896 48.4189 27.1782C48.7646 26.7055 48.9873 26.1767 49.182 25.6421C49.3734 25.1051 49.512 24.5483 49.6283 23.9873C49.7521 23.4272 49.8428 22.8596 49.9278 22.2887C50.0078 21.7179 50.0894 21.1445 50.1587 20.5654Z" fill="#ABABAB"/>
<path d="M53.0583 21.958C53.0864 22.5214 53.0179 23.0684 52.9271 23.6104C52.8257 24.1507 52.7011 24.6869 52.4784 25.2058C52.4495 24.6416 52.518 24.0954 52.6095 23.5534C52.711 23.0131 52.8364 22.4769 53.0583 21.958Z" fill="#ABABAB"/>
<path d="M39.9981 21.4773C39.711 21.4236 39.4305 21.4212 39.1566 21.3725C38.8835 21.3147 38.6089 21.2925 38.3482 21.2042C38.0792 21.1506 37.8243 21.0549 37.5645 20.9658C37.4366 20.9163 37.3178 20.847 37.1899 20.7934C37.0604 20.7414 36.94 20.6738 36.8195 20.6028C36.5712 20.4717 36.3518 20.2902 36.1621 20.0839C35.9756 19.8727 35.837 19.6244 35.6968 19.3852C35.4064 18.9125 35.1301 18.4382 34.8595 17.9316L34.8281 17.9399C34.8553 18.2303 34.932 18.5141 35.0459 18.7813C35.1556 19.0503 35.2983 19.3068 35.4757 19.5378C35.5689 19.65 35.6737 19.7531 35.7718 19.8587C35.875 19.961 35.988 20.0526 36.087 20.1565C36.1835 20.2629 36.299 20.3487 36.3988 20.4535C36.4986 20.5583 36.6067 20.6532 36.7181 20.7464C37.1495 21.1357 37.6948 21.4146 38.269 21.5391C38.5544 21.6175 38.8506 21.6192 39.1418 21.6266C39.433 21.6225 39.7217 21.5639 40.0022 21.5103L39.9981 21.4773Z" fill="#ABABAB"/>
<path d="M57.8396 32.7665C57.6367 33.2367 57.3875 33.669 57.131 34.0955C56.8703 34.5195 56.603 34.9369 56.292 35.3246C55.9785 35.7107 55.6156 36.0654 55.331 36.4729C55.0422 36.878 54.8071 37.3177 54.6033 37.7739C54.4004 38.2301 54.1983 38.6838 53.9789 39.1243L53.361 40.4574C53.149 40.8955 52.9485 41.336 52.7753 41.7831C52.6103 42.2327 52.4577 42.684 52.5072 43.1765L52.4469 43.2004C52.1797 42.7368 52.1986 42.1552 52.2844 41.6528C52.3694 41.1364 52.5393 40.6497 52.7324 40.1786C52.9361 39.7117 53.177 39.2654 53.4418 38.8364C53.6976 38.4017 53.9871 37.9884 54.2998 37.5932C54.6091 37.1956 54.9011 36.7906 55.1544 36.3608C55.4101 35.9318 55.599 35.4583 55.8482 35.0227C56.0998 34.5888 56.4034 34.1903 56.7243 33.8051C57.0485 33.4231 57.3875 33.0511 57.7876 32.7285L57.8396 32.7665Z" fill="#ABABAB"/>
<path d="M40.0393 19.6618C44.0472 19.6618 47.2963 15.2603 47.2963 9.83088C47.2963 4.40143 44.0472 0 40.0393 0C36.0313 0 32.7822 4.40143 32.7822 9.83088C32.7822 15.2603 36.0313 19.6618 40.0393 19.6618Z" fill="#ABABAB"/>
<path d="M48.644 7.7513C48.1226 7.38832 47.5567 7.71748 47.1756 8.05076C47.254 8.62822 47.2968 9.223 47.2968 9.83098C47.2968 10.9876 47.1484 12.0971 46.877 13.1275C47.8702 11.7993 49.3724 8.25781 48.644 7.7513Z" fill="#ABABAB"/>
<path d="M32.8953 8.1136C32.5167 7.76134 31.9112 7.36703 31.3576 7.75228C30.5995 8.27942 32.2577 12.094 33.2426 13.2794C32.9457 12.2062 32.7831 11.0455 32.7831 9.83196C32.7823 9.2446 32.8227 8.67126 32.8953 8.1136Z" fill="#ABABAB"/>
<path d="M71.8449 65.8877H6.56934V72.2299H71.8449V65.8877Z" fill="#ABABAB"/>
<path d="M71.8457 65.8873L73.4304 63.0264V68.7688L71.8457 72.2295V65.8873Z" fill="#ABABAB"/>
<path d="M73.4304 63.0264H9.97224L6.56934 65.8873H71.8457L73.4304 63.0264Z" fill="#ABABAB"/>
<path d="M78.888 72.2295H0V81.8195H78.888V72.2295Z" fill="#ABABAB"/>
<path d="M73.4304 68.7686H79.5631L78.8883 72.2292H71.8457L73.4304 68.7686Z" fill="#ABABAB"/>
<path d="M6.56906 68.7686L0 72.2292H6.56906V68.7686Z" fill="#ABABAB"/>
<path d="M78.8877 81.82L79.9997 72.2292L79.5625 68.7686L78.8877 72.2292V81.82Z" fill="#ABABAB"/>
</g>
</svg>
