<svg width="405" height="372" viewBox="0 0 405 372" fill="none" xmlns="http://www.w3.org/2000/svg">
<path d="M210.399 257.343C208.084 257.343 205.7 257.258 203.247 257.087C188.554 256.063 175.563 252.201 169.128 249.99C139.849 239.933 115.678 217.398 105.086 198.619C94.889 198.734 83.094 196.356 71.6621 191.562C48.6082 181.893 33.1546 165.445 29.2624 146.432C23.7163 119.338 42.4109 85.8638 69.2681 74.7968C84.2745 68.6146 99.0927 71.2609 112.166 73.5951C126.406 76.1383 139.858 78.5396 150.959 69.2266C159.652 61.9344 164.254 50.1203 161.666 41.7477C157.705 28.9362 135.374 18.3503 101.791 23.9699L101.669 23.267C135.661 17.5801 158.308 28.4375 162.358 41.5401C165.025 50.1671 160.327 62.3028 151.428 69.7681C140.065 79.3009 126.45 76.8691 112.038 74.2953C98.4284 71.8648 84.3558 69.3515 69.5479 75.4536C42.9821 86.4005 24.4888 119.502 29.9722 146.291C33.8161 165.069 49.1147 181.331 71.946 190.905C83.0368 195.557 94.4501 197.919 104.387 197.919C104.491 197.919 104.593 197.919 104.697 197.918C103.994 196.636 103.355 195.374 102.783 194.135C98.6248 185.123 97.7255 177.179 100.183 171.161C103.76 162.396 116.043 153.99 125.937 156.704C132.568 158.52 137.969 165.394 138.5 172.693C139.374 184.723 125.885 193.318 125.311 193.677C120.352 196.784 113.599 198.415 105.907 198.604C116.516 217.187 140.428 239.376 169.367 249.318C175.769 251.517 188.69 255.358 203.299 256.377C224.961 257.886 241.163 252.67 251.45 240.873C252.081 240.15 252.691 239.397 253.281 238.615C231.327 237.888 213.318 233.016 206.55 220.615C202.326 212.876 201.755 200.835 205.094 189.936C207.914 180.737 213.108 173.752 219.72 170.268C229.362 165.185 243.53 167.042 252.679 174.582C259.479 180.188 263.73 189.324 264.649 200.306C265.749 213.449 261.896 227.715 254.695 237.898C262.773 238.091 271.809 237.753 281.797 236.881C310.653 234.364 340.542 227.969 360.535 223.047L360.71 223.739C335.838 229.86 289.924 239.642 254.158 238.642C253.466 239.579 252.746 240.479 251.997 241.337C242.724 251.973 228.751 257.343 210.399 257.343ZM232.131 168.117C227.809 168.117 223.618 169.02 220.061 170.895C213.62 174.29 208.55 181.125 205.786 190.142C202.498 200.867 203.048 212.697 207.186 220.278C213.184 231.268 228.831 237.156 253.826 237.875C261.112 227.803 265.027 213.516 263.927 200.364C263.024 189.572 258.864 180.61 252.214 175.129C246.662 170.552 239.223 168.117 232.131 168.117ZM121.939 156.893C113.261 156.893 103.872 164.03 100.853 171.427C98.4711 177.26 99.3663 185.011 103.44 193.84C104.054 195.171 104.746 196.53 105.513 197.91C113.225 197.769 119.982 196.17 124.92 193.077C125.481 192.726 138.62 184.355 137.777 172.744C137.275 165.846 131.989 159.101 125.742 157.39C124.506 157.051 123.229 156.893 121.939 156.893Z" fill="#2E3433"/>
<path d="M210.399 257.61C208.09 257.61 205.676 257.523 203.228 257.352C188.505 256.326 175.488 252.456 169.038 250.241C139.005 239.925 115.225 217.044 104.927 198.887C94.5185 198.996 82.6635 196.464 71.5555 191.806C48.4182 182.103 32.906 165.583 28.9959 146.483C23.4271 119.275 42.1968 85.6603 69.1629 74.5485C84.243 68.3365 99.1026 70.9896 112.212 73.3299C126.389 75.8608 139.779 78.2527 150.783 69.0218C159.398 61.794 163.965 50.1013 161.406 41.8245C157.478 29.1215 135.264 18.6387 101.836 24.2319L101.568 24.2767L101.355 23.0472L101.623 23.0024C135.769 17.2918 158.532 28.2496 162.617 41.4615C165.314 50.1848 160.579 62.4413 151.603 69.9711C140.143 79.5853 126.469 77.1433 111.992 74.558C98.4183 72.1349 84.387 69.6284 69.6515 75.6993C43.1953 86.6008 24.7771 119.563 30.2371 146.237C34.0631 164.928 49.3037 181.119 72.051 190.659C82.7517 195.148 94.1774 197.628 104.243 197.652C103.62 196.5 103.047 195.356 102.534 194.245C98.3445 185.165 97.4438 177.148 99.9295 171.061C103.549 162.194 115.989 153.701 126.009 156.446C132.746 158.291 138.231 165.268 138.769 172.673C139.655 184.856 126.036 193.539 125.455 193.903C120.67 196.9 114.076 198.61 106.364 198.858C116.677 216.656 140.083 238.975 169.455 249.065C175.845 251.26 188.74 255.094 203.317 256.11C224.898 257.613 241.016 252.428 251.243 240.699C251.752 240.115 252.258 239.499 252.75 238.864C228.007 237.966 212.384 231.87 206.31 220.742C202.054 212.944 201.474 200.822 204.833 189.859C207.675 180.591 212.916 173.55 219.591 170.032C229.324 164.902 243.622 166.77 252.852 174.378C259.708 180.029 263.993 189.23 264.919 200.284C265.995 213.141 262.277 227.404 255.202 237.643C263.13 237.811 272.062 237.464 281.772 236.615C310.615 234.099 340.487 227.708 360.469 222.788L360.732 222.724L361.039 223.934L360.775 223.999C336.43 229.99 290.252 239.867 254.293 238.913C253.623 239.816 252.92 240.689 252.202 241.511C242.89 252.193 228.825 257.61 210.399 257.61ZM105.245 198.348L105.323 198.488C115.528 216.578 139.242 239.44 169.217 249.736C175.641 251.943 188.606 255.797 203.266 256.819C225.071 258.337 241.428 253.049 251.792 241.162C252.529 240.316 253.252 239.415 253.939 238.483L254.023 238.369L254.166 238.373C289.961 239.378 335.962 229.544 360.381 223.543L360.337 223.37C340.339 228.284 310.571 234.638 281.82 237.147C271.883 238.013 262.754 238.355 254.688 238.165L254.184 238.153L254.472 237.745C261.663 227.575 265.458 213.238 264.378 200.328C263.465 189.417 259.248 180.346 252.504 174.786C243.435 167.311 229.394 165.47 219.847 170.502C213.3 173.952 208.152 180.881 205.353 190.013C202.032 200.847 202.597 212.808 206.787 220.488C212.806 231.516 228.451 237.524 253.289 238.347L253.807 238.365L253.498 238.774C252.901 239.564 252.281 240.328 251.654 241.046C241.308 252.911 225.032 258.161 203.279 256.643C188.638 255.622 175.691 251.773 169.276 249.57C139.558 239.361 115.915 216.682 105.669 198.735L105.447 198.348L105.898 198.337C113.706 198.145 120.368 196.456 125.163 193.452C125.732 193.096 139.09 184.581 138.227 172.712C137.705 165.52 132.389 158.748 125.862 156.961C116.101 154.284 103.968 162.595 100.433 171.26C98.0041 177.209 98.9013 185.082 103.028 194.025C103.594 195.25 104.235 196.518 104.934 197.793L105.148 198.184L104.385 198.187C94.2139 198.187 82.6552 195.688 71.8381 191.152C48.924 181.542 33.5669 165.21 29.705 146.344C24.1983 119.44 42.7667 86.1991 69.442 75.2067C84.3243 69.074 98.4376 71.5941 112.085 74.0321C126.435 76.595 139.987 79.014 151.251 69.5646C160.073 62.1645 164.735 50.1502 162.097 41.6182C158.09 28.6581 135.672 17.9256 101.981 23.4855L102.011 23.6613C135.601 18.1183 157.94 28.7822 161.924 41.6691C164.542 50.1373 159.904 62.0715 151.134 69.4296C139.935 78.824 126.423 76.4118 112.117 73.8571C99.0785 71.5283 84.303 68.8902 69.3724 75.0425C42.6247 86.064 24.0053 119.399 29.528 146.378C33.4015 165.303 48.7979 181.682 71.7678 191.315C82.8654 195.97 94.7191 198.48 105.082 198.352L105.245 198.348ZM253.964 238.146L253.819 238.142C228.747 237.421 212.978 231.452 206.948 220.404C202.777 212.763 202.219 200.854 205.527 190.064C208.312 180.979 213.428 174.087 219.934 170.659C223.422 168.821 227.639 167.849 232.132 167.849C239.552 167.849 246.936 170.428 252.389 174.924C259.096 180.452 263.289 189.479 264.199 200.342C265.293 213.42 261.404 227.862 254.049 238.031L253.964 238.146ZM232.132 168.382C227.729 168.382 223.599 169.332 220.189 171.129C213.812 174.49 208.79 181.269 206.047 190.217C202.778 200.878 203.32 212.628 207.425 220.15C213.346 230.996 228.911 236.869 253.69 237.603C260.919 227.539 264.737 213.293 263.656 200.385C262.76 189.664 258.634 180.767 252.04 175.332C246.683 170.916 239.426 168.382 232.132 168.382ZM105.355 198.179L105.276 198.037C104.509 196.658 103.809 195.283 103.194 193.95C99.0881 185.052 98.1915 177.229 100.601 171.326C103.499 164.226 112.764 156.625 121.939 156.625C123.283 156.625 124.586 156.795 125.814 157.131C132.165 158.871 137.538 165.72 138.048 172.724C138.903 184.495 125.632 192.947 125.067 193.301C120.207 196.345 113.447 198.031 105.519 198.176L105.355 198.179ZM121.939 157.158C112.985 157.158 103.937 164.587 101.105 171.524C98.7518 177.289 99.6449 184.967 103.688 193.728C104.277 195.004 104.944 196.318 105.673 197.638C113.431 197.474 120.033 195.82 124.775 192.85C125.329 192.502 138.339 184.218 137.506 172.762C137.012 165.968 131.813 159.328 125.669 157.645C124.489 157.322 123.234 157.158 121.939 157.158Z" fill="#2E3433"/>
<path d="M66.3047 124.289H4.94647C2.9928 124.289 1.40918 125.848 1.40918 127.772V156.282C1.40918 158.206 2.9928 159.765 4.94647 159.765H9.88954C10.6372 162.897 12.7177 165.578 15.6279 167.1L21.0692 169.945C21.5612 170.203 22.1367 169.771 22.0071 169.238C21.451 166.953 19.5001 163.277 21.4744 159.765H66.3054C68.2397 159.765 69.8075 158.222 69.8075 156.317V127.737C69.8068 125.833 68.2391 124.289 66.3047 124.289Z" fill="white"/>
<path d="M21.3766 170.561C21.185 170.562 20.9928 170.515 20.8136 170.421L15.3723 167.576C12.4662 166.056 10.3327 163.421 9.46716 160.303H4.94651C2.69652 160.303 0.866211 158.501 0.866211 156.286V127.775C0.866211 125.56 2.69653 123.758 4.94583 123.758H66.3047C68.5347 123.758 70.3492 125.544 70.3492 127.74V156.32C70.3492 158.516 68.5347 160.303 66.3047 160.303H21.8018C20.5366 162.84 21.3876 165.463 22.0754 167.586C22.2525 168.133 22.4199 168.649 22.5336 169.117C22.6432 169.569 22.4799 170.026 22.1057 170.312C21.89 170.477 21.635 170.561 21.3766 170.561ZM4.94583 124.827C3.29469 124.827 1.9509 126.149 1.9509 127.775V156.286C1.9509 157.912 3.294 159.235 4.94583 159.235H9.88823C10.1404 159.235 10.3589 159.406 10.4161 159.647C11.1321 162.644 13.1236 165.19 15.8801 166.631L21.3215 169.477C21.3635 169.498 21.4028 169.495 21.4407 169.466C21.4924 169.427 21.4813 169.381 21.4772 169.365C21.3732 168.936 21.2112 168.438 21.0403 167.911C20.3043 165.641 19.2968 162.534 20.9969 159.509C21.0927 159.339 21.2739 159.234 21.4717 159.234H66.3027C67.9345 159.234 69.2618 157.926 69.2618 156.32V127.74C69.2618 126.133 67.9345 124.826 66.3027 124.826L4.94583 124.827Z" fill="#2E3433"/>
<path d="M11.2002 141.559C11.2002 136.686 14.7809 133.492 18.9177 133.492C22.65 133.492 24.9958 135.938 24.9958 139.537C24.9958 142.718 22.9787 144.37 21.2945 144.37C20.2849 144.37 19.5069 143.906 19.3787 142.986H19.3415C18.7433 143.691 17.9088 144.234 17.0984 144.234C15.8387 144.234 14.8636 143.312 14.8636 141.659C14.8636 139.719 16.2618 137.428 18.4167 137.428C19.0555 137.428 19.56 137.706 19.9024 138.315H19.9397L20.1423 137.574H21.1539L20.4296 141.219C20.0672 142.66 20.42 143.35 21.4406 143.35C22.5969 143.35 23.9235 141.95 23.9235 139.586C23.9235 136.649 22.1614 134.498 18.7985 134.498C15.5038 134.498 12.3262 137.259 12.3262 141.509C12.3262 145.069 14.6823 147.087 17.831 147.087C18.9528 147.087 19.9921 146.75 20.8259 146.27L21.2345 147.163C20.1574 147.792 18.9976 148.092 17.7124 148.092C14.0931 148.093 11.2002 145.815 11.2002 141.559ZM19.0955 142.127L19.6192 139.233C19.2671 138.679 18.9315 138.474 18.4353 138.474C16.9819 138.474 16.0868 140.194 16.0868 141.569C16.0868 142.738 16.6401 143.201 17.3816 143.201C17.9019 143.201 18.4546 142.881 19.0955 142.127Z" fill="#2E3433"/>
<path d="M56.6353 134.602H35.6088C35.309 134.602 35.0664 134.841 35.0664 135.136C35.0664 135.431 35.3097 135.67 35.6088 135.67H56.6353C56.9351 135.67 57.1777 135.43 57.1777 135.136C57.1783 134.841 56.9351 134.602 56.6353 134.602Z" fill="#2E3433"/>
<path d="M49.4264 140.43H35.6088C35.309 140.43 35.0664 140.669 35.0664 140.964C35.0664 141.258 35.3097 141.498 35.6088 141.498H49.4264C49.7261 141.498 49.9687 141.258 49.9687 140.964C49.9687 140.669 49.7261 140.43 49.4264 140.43Z" fill="#2E3433"/>
<path d="M49.4264 145.969H35.6088C35.309 145.969 35.0664 146.208 35.0664 146.503C35.0664 146.798 35.3097 147.037 35.6088 147.037H49.4264C49.7261 147.037 49.9687 146.797 49.9687 146.503C49.9694 146.208 49.7261 145.969 49.4264 145.969Z" fill="#2E3433"/>
<path d="M391.887 70.6334V104.075C391.887 105.401 391.241 106.579 390.241 107.323C389.962 107.53 389.656 107.705 389.329 107.839C389.288 107.852 389.254 107.872 389.213 107.879C388.758 108.053 388.268 108.147 387.744 108.147H334.301C333.736 108.147 333.192 108.039 332.702 107.832C332.675 107.825 332.64 107.811 332.614 107.798C332.294 107.658 331.995 107.477 331.723 107.262C330.77 106.513 330.158 105.367 330.158 104.075V70.6334C330.158 70.5465 330.165 70.459 330.172 70.3789C330.179 70.1917 330.206 70.0105 330.24 69.83C330.288 69.6156 330.349 69.4012 330.424 69.1935C330.547 68.8787 330.703 68.5842 330.894 68.3162C331.642 67.2515 332.886 66.5547 334.301 66.5547H387.745C389.16 66.5547 390.404 67.2515 391.153 68.3162C391.343 68.591 391.499 68.8787 391.622 69.1935C391.697 69.4012 391.758 69.6088 391.805 69.8232C391.839 70.0044 391.867 70.1849 391.873 70.3728C391.88 70.459 391.887 70.5459 391.887 70.6334Z" fill="white"/>
<path d="M387.745 108.678H334.301C333.67 108.678 333.07 108.561 332.517 108.332C332.453 108.311 332.4 108.287 332.371 108.272C332.033 108.125 331.694 107.92 331.384 107.676C330.261 106.791 329.616 105.477 329.616 104.071V70.6297C329.616 70.5266 329.623 70.4241 329.632 70.3291C329.638 70.1412 329.668 69.9349 329.707 69.7286C329.764 69.4748 329.831 69.2394 329.913 69.0107C330.058 68.6375 330.238 68.3037 330.449 68.0051C331.324 66.7607 332.765 66.0156 334.302 66.0156H387.745C389.282 66.0156 390.722 66.7607 391.599 68.0078C391.821 68.3267 391.994 68.6504 392.129 68.9978C392.216 69.2394 392.284 69.4687 392.335 69.7049C392.377 69.9274 392.408 70.1337 392.416 70.3474C392.424 70.4445 392.431 70.5361 392.431 70.6284V104.07C392.431 105.525 391.752 106.865 390.569 107.744C390.251 107.981 389.904 108.177 389.539 108.327C389.483 108.349 389.432 108.37 389.376 108.385C388.857 108.58 388.308 108.678 387.745 108.678ZM334.301 67.0857C333.12 67.0857 332.013 67.6584 331.34 68.6172C331.176 68.8465 331.039 69.103 330.93 69.3819C330.867 69.5556 330.813 69.749 330.769 69.9417C330.744 70.0787 330.72 70.2348 330.713 70.3956C330.706 70.4879 330.701 70.5585 330.701 70.6304V104.072C330.701 105.151 331.197 106.161 332.062 106.842C332.3 107.029 332.56 107.186 332.835 107.307C332.861 107.314 332.892 107.327 332.916 107.337C333.342 107.518 333.807 107.609 334.302 107.609H387.745C388.187 107.609 388.615 107.531 389.017 107.377C389.052 107.363 389.089 107.354 389.126 107.348C389.402 107.227 389.668 107.076 389.914 106.893C390.823 106.217 391.344 105.189 391.344 104.071V70.6297C391.344 70.5632 391.339 70.4974 391.334 70.4309C391.326 70.2273 391.301 70.072 391.272 69.9166C391.233 69.7408 391.178 69.5549 391.11 69.369C391.011 69.1125 390.877 68.8614 390.704 68.6151C390.032 67.6584 388.926 67.0857 387.745 67.0857H334.301Z" fill="#2E3433"/>
<path d="M387.745 108.678H334.301C333.67 108.678 333.07 108.561 332.517 108.332C332.453 108.311 332.4 108.287 332.371 108.272C332.033 108.125 331.694 107.92 331.384 107.676C330.261 106.791 329.616 105.477 329.616 104.071V70.6297C329.616 70.5266 329.623 70.4241 329.632 70.3291C329.638 70.1412 329.668 69.9349 329.707 69.7286C329.764 69.4748 329.831 69.2394 329.913 69.0107C330.058 68.6375 330.238 68.3037 330.449 68.0051C331.324 66.7607 332.765 66.0156 334.302 66.0156H387.745C389.282 66.0156 390.722 66.7607 391.599 68.0078C391.821 68.3267 391.994 68.6504 392.129 68.9978C392.216 69.2394 392.284 69.4687 392.335 69.7049C392.377 69.9274 392.408 70.1337 392.416 70.3474C392.424 70.4445 392.431 70.5361 392.431 70.6284V104.07C392.431 105.525 391.752 106.865 390.569 107.744C390.251 107.981 389.904 108.177 389.539 108.327C389.483 108.349 389.432 108.37 389.376 108.385C388.857 108.58 388.308 108.678 387.745 108.678ZM334.301 67.0857C333.12 67.0857 332.013 67.6584 331.34 68.6172C331.176 68.8465 331.039 69.103 330.93 69.3819C330.867 69.5556 330.813 69.749 330.769 69.9417C330.744 70.0787 330.72 70.2348 330.713 70.3956C330.706 70.4879 330.701 70.5585 330.701 70.6304V104.072C330.701 105.151 331.197 106.161 332.062 106.842C332.3 107.029 332.56 107.186 332.835 107.307L332.916 107.337C333.342 107.518 333.807 107.609 334.302 107.609H387.745C388.187 107.609 388.615 107.531 389.017 107.377L389.126 107.348C389.402 107.227 389.668 107.076 389.914 106.893C390.823 106.217 391.344 105.189 391.344 104.071V70.6297C391.344 70.5632 391.339 70.4974 391.334 70.4309C391.326 70.2273 391.301 70.072 391.272 69.9166C391.233 69.7408 391.178 69.5549 391.11 69.369C391.011 69.1125 390.877 68.8614 390.704 68.6151C390.032 67.6584 388.926 67.0857 387.745 67.0857H334.301Z" fill="#2E3433"/>
<path d="M391.152 68.3203L366.814 88.1989L366.44 88.5001L366.046 88.8286L362.604 91.6418C361.686 92.3855 360.359 92.3855 359.441 91.6418L355.924 88.7621L355.564 88.4676L355.149 88.1324L330.893 68.321C330.703 68.589 330.546 68.8835 330.424 69.1983L354.381 88.7621L354.802 89.1102L355.149 89.3917L359.441 92.9012C360.359 93.6448 361.685 93.6448 362.604 92.9012L366.814 89.4582L367.195 89.1434L367.59 88.8286L391.621 69.1983C391.499 68.8828 391.342 68.5944 391.152 68.3203Z" fill="#2E3433"/>
<path d="M389.278 107.977C388.823 108.146 388.333 108.237 387.809 108.237H334.365C333.801 108.237 333.257 108.133 332.767 107.931L354.866 89.7798L355.628 89.1562L355.989 89.4419L359.505 92.2334C360.424 92.9541 361.75 92.9541 362.668 92.2334L366.111 89.5071L366.505 89.1888L367.26 89.8117L389.278 107.977Z" fill="#DBE0E6"/>
<path d="M387.808 108.766H334.365C333.725 108.766 333.117 108.649 332.557 108.42C332.383 108.348 332.258 108.191 332.23 108.007C332.201 107.822 332.273 107.635 332.419 107.517L355.281 88.7408C355.48 88.5779 355.767 88.5759 355.967 88.7354L359.846 91.8132C360.565 92.3764 361.61 92.3771 362.33 91.8119L366.162 88.7713C366.363 88.6085 366.654 88.6112 366.854 88.7754L389.626 107.564C389.775 107.685 389.845 107.876 389.813 108.063C389.781 108.25 389.65 108.406 389.469 108.473C388.943 108.668 388.385 108.766 387.808 108.766ZM333.922 107.673C334.067 107.69 334.214 107.698 334.365 107.698H387.808C387.902 107.698 387.996 107.694 388.088 107.688L366.501 89.878L363.008 92.6451C361.895 93.5197 360.279 93.5191 359.167 92.6465L355.634 89.8414L355.214 90.1854L333.922 107.673Z" fill="#2E3433"/>
<path d="M391.621 78.6652C398.413 78.6652 403.92 73.2434 403.92 66.5552C403.92 59.8671 398.413 54.4453 391.621 54.4453C384.829 54.4453 379.322 59.8671 379.322 66.5552C379.322 73.2434 384.829 78.6652 391.621 78.6652Z" fill="#FF8C00"/>
<path d="M391.62 79.1955C384.539 79.1955 378.778 73.5236 378.778 66.5509C378.778 59.5789 384.539 53.9062 391.62 53.9062C398.701 53.9062 404.462 59.5782 404.462 66.5509C404.462 73.5236 398.701 79.1955 391.62 79.1955ZM391.62 54.9756C385.138 54.9756 379.864 60.1685 379.864 66.5516C379.864 72.9346 385.138 78.1275 391.62 78.1275C398.102 78.1275 403.377 72.9346 403.377 66.5516C403.377 60.1678 398.103 54.9756 391.62 54.9756Z" fill="#2E3433"/>
<path d="M391.407 63.2172H391.375L389.606 64.1577L389.34 63.125L391.563 61.9531H392.737V71.9718H391.407V63.2172Z" fill="#2E3433"/>
<path d="M215.731 56.2546C221.168 56.9284 221.014 51.3657 232.921 61.7386C235.851 64.2912 239.942 70.1213 244.483 79.6636C247.042 85.0417 250.352 92.2736 253.972 101.02C260.726 92.75 265.964 85.856 269.562 80.9983C274.561 74.2488 276.24 71.627 279.728 70.9878C286.697 69.7101 295.862 77.0906 296.673 85.003C297.176 89.9055 294.357 93.8933 291.929 97.0159C279.682 112.762 264.67 132.065 248.55 128.383C240.798 126.613 236.265 120.32 229.572 111.031C221.131 99.3148 217.62 87.762 216.017 80.332C215.922 72.3055 215.827 64.2804 215.731 56.2546Z" fill="#2E3433"/>
<path d="M290.172 76.3816C293.481 79.6393 295.412 83.0198 294.485 83.9324C293.559 84.8444 290.126 82.9431 286.817 79.6854C283.508 76.4277 281.577 73.0472 282.504 72.1346C283.431 71.2226 286.864 73.1239 290.172 76.3816Z" fill="#2E3433"/>
<path d="M285.445 71.6839C285.445 71.6839 284.089 69.0146 284.767 64.3428C285.445 59.671 286.8 57.0017 287.478 52.9976C288.156 48.9935 290.189 51.6629 290.189 52.9976C290.189 54.3323 290.659 60.9426 291.102 62.9762C291.545 65.0105 290.203 70.4347 289.18 71.059C288.157 71.6839 285.445 71.6839 285.445 71.6839Z" fill="white"/>
<path d="M285.445 72.2136C285.239 72.2136 285.051 72.0989 284.96 71.9184C284.901 71.8031 283.537 69.0448 284.23 64.2631C284.603 61.6948 285.175 59.7298 285.729 57.8292C286.197 56.2251 286.638 54.7092 286.943 52.905C287.243 51.134 287.855 50.279 288.795 50.3476C289.9 50.4378 290.732 52.0141 290.732 52.9925C290.732 54.3876 291.211 60.9213 291.632 62.8592C292.081 64.9179 290.796 70.6964 289.466 71.5086C288.343 72.1939 285.738 72.2136 285.445 72.2136ZM288.702 51.4129C288.611 51.4129 288.25 51.6863 288.014 53.0807C287.698 54.9454 287.248 56.489 286.772 58.1237C286.228 59.9896 285.667 61.9187 285.304 64.4144C284.789 67.9734 285.499 70.3374 285.804 71.1394C286.824 71.1089 288.318 70.9522 288.894 70.6007C289.604 70.1671 291.009 65.0936 290.572 63.0838C290.106 60.945 289.647 54.2641 289.647 52.9932C289.647 52.3737 289.038 51.44 288.705 51.4129C288.705 51.4129 288.703 51.4129 288.702 51.4129Z" fill="#2E3433"/>
<path d="M293.562 81.6968C294.555 77.6452 296.098 76.2379 297.297 75.6903C297.467 75.6123 297.445 75.6448 297.81 75.5064C299.717 74.7811 300.418 74.0672 302.388 73.0209C303.491 72.4353 303.402 72.59 303.743 72.3532C305.782 70.9439 305.504 67.883 305.777 62.3427C306.065 56.474 306.572 55.7432 305.777 55.0016C303.743 53.1037 297.93 55.5525 294.3 58.1887C289.43 61.7246 282.812 69.728 285.861 76.109C286.264 76.9531 287.947 80.0839 293.562 81.6968Z" fill="#DBE0E6"/>
<path d="M293.563 82.2258C293.512 82.2258 293.461 82.219 293.412 82.2048C288.134 80.6889 286.11 77.8743 285.372 76.3313C282.186 69.6639 288.961 61.3973 293.98 57.7528C297.61 55.1167 303.788 52.4005 306.154 54.6085C306.868 55.2755 306.814 55.9024 306.631 57.9801C306.542 58.9932 306.42 60.3801 306.322 62.3628C306.278 63.2619 306.248 64.0952 306.22 64.8667C306.074 68.9732 305.986 71.4519 304.059 72.7846C303.863 72.9196 303.757 72.9651 303.601 73.0282C303.451 73.0885 303.225 73.1795 302.649 73.4855C301.913 73.8763 301.368 74.2129 300.841 74.5393C299.98 75.0719 299.237 75.532 298.009 75.9988C297.806 76.0755 297.712 76.1047 297.644 76.1257C297.606 76.1379 297.582 76.1447 297.528 76.1698C295.994 76.8707 294.839 78.7707 294.092 81.8166C294.057 81.9591 293.964 82.0806 293.836 82.1539C293.752 82.2014 293.658 82.2258 293.563 82.2258ZM303.673 54.8575C301.305 54.8575 297.509 56.5186 294.624 58.6132C289.883 62.0561 283.445 69.7874 286.354 75.8767C286.866 76.9474 288.538 79.5313 293.179 81.016C294.017 77.9544 295.325 75.9995 297.072 75.2008C297.187 75.1486 297.237 75.1323 297.319 75.1072C297.374 75.0896 297.451 75.0658 297.618 75.0027C298.748 74.5725 299.417 74.1586 300.264 73.6348C300.781 73.3152 301.366 72.9528 302.135 72.5457C302.762 72.2132 303.03 72.1047 303.191 72.0402C303.307 71.9941 303.331 71.9846 303.436 71.9113C304.921 70.884 305.003 68.6054 305.137 64.83C305.165 64.0538 305.195 63.2164 305.24 62.3119C305.338 60.3082 305.461 58.9097 305.551 57.8879C305.719 55.9717 305.723 55.6772 305.409 55.384C305.016 55.021 304.415 54.8575 303.673 54.8575Z" fill="#2E3433"/>
<path d="M288.226 77.2807L304.136 46.8657L297.8 42.7734L284.574 69.66L288.226 77.2807Z" fill="#2E3433"/>
<path d="M288.226 77.6235C288.224 77.6235 288.222 77.6235 288.22 77.6235C288.089 77.6215 287.97 77.5455 287.914 77.4288L284.263 69.8081C284.219 69.7151 284.22 69.6079 284.265 69.5156L297.49 42.6291C297.533 42.5409 297.613 42.4757 297.708 42.45C297.802 42.4235 297.906 42.4398 297.989 42.4934L304.325 46.5857C304.473 46.6807 304.523 46.87 304.442 47.0247L288.531 77.4396C288.473 77.5529 288.355 77.6235 288.226 77.6235ZM284.957 69.6656L288.24 76.5175L303.689 46.986L297.94 43.273L284.957 69.6656Z" fill="#2E3433"/>
<g opacity="0.39">
<path d="M288.693 75.3024L303.013 47.926L297.31 44.2422L285.406 68.4431L288.693 75.3024Z" fill="white"/>
</g>
<path d="M303.818 53.8905C303.818 53.8905 293.208 52.6671 292.36 53.78C291.511 54.8921 291.205 56.1345 292.831 56.5233C294.458 56.9128 301.661 57.9781 301.661 57.9781L290.13 58.7347C290.13 58.7347 287.962 59.9621 288.74 61.4638C289.518 62.9654 292.383 62.9932 292.383 62.9932C291.384 63.1024 290.563 63.6609 290.27 64.4609C290.247 64.524 290.035 65.1252 290.228 65.7291C290.594 66.8724 292.123 67.1187 294.671 67.4668C296.888 67.7701 298.794 68.0022 300.293 68.1739C297.748 67.7844 295.837 67.9262 294.65 68.1006C293.43 68.2797 292.347 68.5857 291.935 69.4624C291.86 69.6198 291.752 69.8505 291.771 70.1057C291.936 72.2655 300.895 71.669 303.865 72.317C303.932 72.3313 304.104 72.3734 304.305 72.2953C305.08 71.9968 305.442 70.2359 305.633 67.4784C305.633 67.4784 307.331 65.2541 306.317 62.3805C306.317 62.3805 307.861 60.7771 306.847 57.9034C306.849 57.9034 309.395 54.5664 303.818 53.8905Z" fill="white"/>
<path d="M304.06 72.8736C303.917 72.8736 303.808 72.8498 303.755 72.8383C302.828 72.6361 301.233 72.5574 299.546 72.4739C295.346 72.2663 291.379 72.0709 291.232 70.1438C291.202 69.7509 291.353 69.4293 291.443 69.2373C291.808 68.4631 292.542 68.0573 293.365 67.8185C291.456 67.5233 290.113 67.1372 289.712 65.8873C289.481 65.1633 289.689 64.4739 289.76 64.2805C289.907 63.8802 290.155 63.528 290.479 63.2417C289.616 62.9981 288.694 62.5455 288.258 61.7048C287.457 60.1591 288.957 58.7816 289.862 58.2693C289.934 58.2293 290.013 58.2049 290.096 58.1994L296.761 57.7625C295.06 57.4897 293.4 57.2067 292.704 57.0405C291.729 56.8071 291.357 56.2995 291.217 55.9141C290.971 55.2376 291.217 54.3874 291.926 53.4564C292.827 52.2751 299.804 52.8871 303.882 53.3574C303.883 53.3581 303.884 53.3581 303.885 53.3581C306.01 53.6159 307.324 54.2944 307.791 55.376C308.247 56.4325 307.731 57.5073 307.446 57.9782C308.184 60.3348 307.345 61.8941 306.924 62.4838C307.707 65.0758 306.527 67.1175 306.166 67.659C305.926 70.9798 305.457 72.423 304.506 72.7901C304.341 72.8553 304.187 72.8736 304.06 72.8736ZM297.133 68.4576C296.305 68.4576 295.503 68.5146 294.731 68.6273C293.371 68.8274 292.684 69.1436 292.429 69.6851C292.373 69.8032 292.305 69.9477 292.314 70.0631C292.389 71.0504 297.08 71.2817 299.6 71.4066C301.334 71.4921 302.972 71.5728 303.984 71.7933C304.033 71.8035 304.069 71.8117 304.109 71.7961C304.32 71.7146 304.838 71.127 305.093 67.4405C305.1 67.3374 305.138 67.2383 305.201 67.1555C305.262 67.0748 306.708 65.109 305.807 62.5543C305.74 62.3657 305.785 62.156 305.925 62.0115C305.976 61.9572 307.22 60.5825 306.337 58.0773C306.278 57.909 306.307 57.7231 306.416 57.5806C306.422 57.5725 307.143 56.5981 306.791 55.7906C306.488 55.0978 305.439 54.6235 303.754 54.4186C298.995 53.8704 293.446 53.601 292.772 54.1228C292.334 54.7009 292.127 55.2451 292.239 55.5538C292.33 55.8035 292.682 55.9352 292.961 56.0017C294.546 56.381 301.671 57.4374 301.744 57.4476C302.018 57.4883 302.217 57.7258 302.205 57.9979C302.194 58.2707 301.975 58.4905 301.699 58.5089L290.305 59.2559C289.946 59.4873 288.768 60.3369 289.224 61.2183C289.738 62.209 291.684 62.4478 292.39 62.4559C292.677 62.4593 292.912 62.6819 292.926 62.9635C292.941 63.2458 292.729 63.49 292.445 63.5213C291.64 63.6095 291.003 64.0376 290.782 64.6388C290.765 64.6856 290.611 65.1382 290.748 65.565C291.01 66.3847 292.369 66.6086 294.748 66.9343C296.095 67.1182 297.457 67.2933 298.812 67.4575C299.327 67.5002 299.849 67.562 300.378 67.6427C300.67 67.6875 300.873 67.9542 300.833 68.2425C300.793 68.5309 300.525 68.7345 300.232 68.7012C299.723 68.6429 299.212 68.5825 298.7 68.5207C298.168 68.4794 297.647 68.4576 297.133 68.4576Z" fill="#2E3433"/>
<path d="M150.34 361.539L148.619 361.797L141.251 356.049C143.306 350.272 145.36 344.495 147.415 338.719C149.15 338.937 151.16 339.309 153.348 339.942C155.949 340.695 158.151 341.629 159.923 342.518C156.729 348.859 153.535 355.199 150.34 361.539Z" fill="white"/>
<path d="M148.619 362.328C148.497 362.328 148.378 362.288 148.282 362.213L140.914 356.464C140.732 356.323 140.662 356.083 140.739 355.868L146.903 338.537C146.988 338.299 147.227 338.153 147.484 338.184C149.513 338.439 151.538 338.857 153.501 339.425C155.796 340.09 158.04 340.969 160.17 342.038C160.435 342.171 160.542 342.488 160.41 342.751L150.827 361.773C150.748 361.929 150.597 362.038 150.422 362.064L148.701 362.322C148.673 362.326 148.646 362.328 148.619 362.328ZM141.89 355.863L148.77 361.231L149.979 361.05L159.197 342.754C157.27 341.821 155.254 341.047 153.195 340.452C151.427 339.939 149.608 339.554 147.781 339.302L141.89 355.863Z" fill="#2E3433"/>
<path d="M179.568 367.802C165.334 367.58 151.101 367.357 136.867 367.135C138.675 362.24 140.482 357.346 142.289 352.452C143.193 353.12 144.097 353.787 145 354.455C145.81 355.838 147.551 358.626 148.732 358.826C148.782 358.835 148.833 358.841 148.833 358.841C148.833 358.841 149.973 358.991 151.209 358.227C153.159 357.022 153.424 351.174 154.489 351.118C154.638 351.109 154.865 351.213 155.167 351.785C155.558 353.596 156.345 354.383 156.89 354.759C157.13 354.924 157.96 355.301 159.628 356.034C159.994 356.195 160.353 356.357 160.711 356.51C161.505 356.855 162.268 357.17 162.993 357.476C163.219 357.56 163.437 357.653 163.656 357.745C164.528 358.098 165.338 358.428 166.085 358.734C166.491 358.911 166.88 359.071 167.253 359.24C167.526 359.356 167.783 359.47 168.032 359.586C170.138 360.557 179.593 362.568 180.128 365.898C180.188 366.265 180.179 366.904 179.568 367.802Z" fill="#96999E"/>
<path d="M179.855 368.337L179.56 368.332L136.098 367.653L142.03 351.588L145.416 354.088L145.472 354.183C147.169 357.083 148.317 358.209 148.825 358.295L148.9 358.306C148.913 358.306 149.884 358.412 150.922 357.77C151.822 357.214 152.386 355.113 152.799 353.578C153.277 351.8 153.593 350.626 154.462 350.579C155.14 350.55 155.522 351.291 155.651 351.535L155.7 351.669C155.971 352.927 156.476 353.817 157.203 354.316C157.43 354.472 158.636 355.007 159.852 355.542L160.21 355.7C160.451 355.807 160.69 355.913 160.929 356.014C161.459 356.244 161.973 356.46 162.47 356.669L163.209 356.98C163.421 357.059 163.646 357.153 163.87 357.248C164.736 357.599 165.547 357.929 166.296 358.236L166.762 358.436C167.008 358.541 167.248 358.644 167.482 358.749C167.747 358.861 168.01 358.979 168.265 359.096C168.733 359.312 169.655 359.604 170.722 359.942C174.498 361.137 180.206 362.944 180.667 365.809C180.783 366.526 180.565 367.296 180.02 368.096L179.855 368.337ZM137.638 366.608L179.271 367.259C179.546 366.786 179.655 366.355 179.594 365.976C179.238 363.76 173.481 361.938 170.388 360.959C169.241 360.596 168.334 360.309 167.804 360.064C167.56 359.952 167.308 359.84 167.041 359.727C166.801 359.619 166.568 359.519 166.329 359.417L165.866 359.218C165.13 358.916 164.321 358.587 163.45 358.234C163.231 358.143 163.02 358.053 162.801 357.971L162.044 357.653C161.543 357.442 161.025 357.225 160.493 356.995C160.253 356.891 160.01 356.784 159.764 356.675L159.409 356.518C157.472 355.666 156.838 355.369 156.581 355.192C155.637 354.543 154.99 353.458 154.654 351.966C154.604 351.875 154.56 351.806 154.523 351.756C154.307 352.144 154.046 353.114 153.847 353.852C153.338 355.747 152.761 357.896 151.498 358.675C150.113 359.532 148.817 359.372 148.762 359.365C148.832 359.372 148.738 359.364 148.643 359.348C148.259 359.283 147.104 359.088 144.587 354.811L142.551 353.307L137.638 366.608Z" fill="#2E3433"/>
<path d="M136.386 366.672C151.211 366.928 166.035 367.183 180.859 367.439C180.933 367.496 181.601 368.033 181.601 368.972C181.601 369.068 181.585 369.942 180.859 370.506C166.035 370.506 151.21 370.506 136.386 370.506C136.273 370.381 135.474 369.475 135.645 368.205C135.755 367.389 136.207 366.861 136.386 366.672Z" fill="#2E3433"/>
<path d="M181.049 371.048H136.145L135.983 370.871C135.73 370.592 134.916 369.571 135.108 368.142C135.198 367.47 135.512 366.821 135.99 366.315L136.155 366.141L181.052 366.915L181.195 367.026C181.354 367.148 182.144 367.818 182.144 368.98C182.144 369.183 182.099 370.233 181.197 370.934L181.049 371.048ZM136.648 369.979H180.654C181.047 369.579 181.06 369.045 181.06 368.98C181.06 368.488 180.802 368.142 180.645 367.977L136.637 367.217C136.457 367.45 136.249 367.811 136.185 368.283C136.079 369.06 136.429 369.678 136.648 369.979Z" fill="#2E3433"/>
<path d="M160.786 356.474C160.786 356.488 160.779 356.495 160.772 356.509C160.295 357.336 159.882 358.199 159.348 358.991C158.821 359.797 158.251 360.568 157.639 361.311C157.389 361.606 156.941 361.655 156.635 361.41C156.329 361.164 156.286 360.722 156.528 360.421C156.542 360.414 156.549 360.4 156.556 360.386C157.183 359.727 157.767 359.026 158.315 358.297C158.863 357.575 159.298 356.796 159.796 356.039C160.131 356.187 160.459 356.334 160.786 356.474Z" fill="#F8F8F8"/>
<path d="M163.654 357.753C163.444 358.459 163.241 359.172 162.96 359.862C162.579 360.828 162.15 361.787 161.659 362.715C161.457 363.091 160.99 363.245 160.608 363.052C160.218 362.853 160.07 362.393 160.265 362.017C160.289 361.979 160.312 361.94 160.336 361.91C160.935 361.113 161.489 360.277 161.995 359.409C162.369 358.788 162.681 358.136 162.992 357.484C163.217 357.569 163.436 357.661 163.654 357.753Z" fill="#F8F8F8"/>
<path d="M166.765 358.971C166.687 359.174 166.601 359.377 166.509 359.581C166.125 360.457 165.69 361.312 165.214 362.139C165.014 362.476 164.58 362.595 164.238 362.406C163.896 362.21 163.775 361.782 163.974 361.446C163.981 361.432 163.989 361.418 164.003 361.404C164.515 360.654 164.985 359.876 165.413 359.069C165.513 358.886 165.605 358.697 165.697 358.508C166.067 358.669 166.424 358.816 166.765 358.971Z" fill="#F8F8F8"/>
<path d="M212.633 364.36L211.038 365.047L202.413 361.365C202.884 355.262 203.356 349.158 203.827 343.056C205.562 342.826 207.601 342.674 209.88 342.731C212.591 342.797 214.963 343.14 216.908 343.549C215.483 350.486 214.058 357.423 212.633 364.36Z" fill="white"/>
<path d="M211.037 365.577C210.963 365.577 210.89 365.562 210.82 365.533L202.196 361.851C201.984 361.76 201.853 361.547 201.871 361.32L203.285 343.011C203.305 342.759 203.5 342.555 203.753 342.522C205.78 342.252 207.846 342.141 209.893 342.191C212.281 342.25 214.679 342.529 217.019 343.022C217.31 343.083 217.497 343.363 217.438 343.65L213.163 364.463C213.127 364.634 213.01 364.777 212.848 364.847L211.252 365.533C211.185 365.562 211.111 365.577 211.037 365.577ZM202.983 361.022L211.037 364.46L212.157 363.979L216.269 343.961C214.162 343.549 212.01 343.313 209.867 343.261C208.019 343.213 206.164 343.306 204.334 343.527L202.983 361.022Z" fill="#2E3433"/>
<path d="M239.89 367.802C225.657 367.58 211.423 367.357 197.189 367.135C198.997 362.24 200.805 357.346 202.612 352.452C203.516 353.12 204.42 353.787 205.323 354.455C206.133 355.838 207.874 358.626 209.055 358.826C209.105 358.835 209.156 358.841 209.156 358.841C209.156 358.841 210.297 358.991 211.532 358.227C213.482 357.022 213.747 351.174 214.812 351.118C214.961 351.109 215.188 351.213 215.49 351.785C215.881 353.596 216.668 354.383 217.213 354.759C217.453 354.924 218.283 355.301 219.951 356.034C220.317 356.195 220.675 356.357 221.034 356.51C221.828 356.855 222.591 357.17 223.316 357.476C223.542 357.56 223.76 357.653 223.978 357.745C224.851 358.098 225.661 358.428 226.408 358.734C226.814 358.911 227.203 359.071 227.576 359.24C227.849 359.356 228.106 359.47 228.355 359.586C230.461 360.557 239.916 362.568 240.451 365.898C240.511 366.265 240.502 366.904 239.89 367.802Z" fill="#96999E"/>
<path d="M240.177 368.338L239.882 368.333L196.42 367.654L202.353 351.588L205.739 354.089L205.794 354.184C207.492 357.084 208.639 358.21 209.147 358.295L209.225 358.306C209.235 358.307 210.205 358.414 211.244 357.771C212.144 357.215 212.709 355.113 213.122 353.578C213.599 351.8 213.915 350.626 214.783 350.579C214.8 350.579 214.815 350.578 214.83 350.578C215.401 350.578 215.755 351.122 215.973 351.535L216.022 351.67C216.294 352.927 216.799 353.817 217.525 354.316C217.751 354.472 218.958 355.008 220.174 355.542L220.555 355.71C220.789 355.814 221.021 355.916 221.252 356.015C221.782 356.245 222.296 356.46 222.793 356.669L223.533 356.981C223.737 357.058 223.957 357.149 224.175 357.241C225.06 357.599 225.87 357.929 226.619 358.236L227.087 358.437C227.332 358.542 227.571 358.645 227.805 358.75C228.07 358.861 228.333 358.979 228.588 359.097C229.056 359.313 229.978 359.604 231.045 359.943C234.822 361.138 240.529 362.945 240.99 365.809C241.105 366.527 240.887 367.296 240.343 368.095L240.177 368.338ZM197.959 366.609L239.592 367.259C239.868 366.786 239.977 366.356 239.915 365.976C239.56 363.762 233.803 361.939 230.711 360.96C229.563 360.597 228.656 360.309 228.126 360.065C227.882 359.953 227.63 359.84 227.364 359.728C227.123 359.619 226.891 359.52 226.653 359.418L226.189 359.219C225.453 358.917 224.644 358.588 223.773 358.235C223.542 358.138 223.336 358.052 223.123 357.972L222.367 357.653C221.865 357.443 221.348 357.225 220.816 356.995C220.583 356.895 220.348 356.792 220.11 356.686L219.732 356.519C217.794 355.666 217.159 355.369 216.903 355.194C215.959 354.545 215.312 353.46 214.977 351.968C214.926 351.876 214.882 351.808 214.846 351.757C214.629 352.146 214.369 353.114 214.17 353.852C213.661 355.748 213.083 357.896 211.82 358.677C210.435 359.534 209.14 359.375 209.085 359.367L208.966 359.35C208.582 359.284 207.427 359.089 204.91 354.812L202.872 353.308L197.959 366.609Z" fill="#2E3433"/>
<path d="M196.712 366.688C211.536 366.943 226.36 367.199 241.184 367.454C241.258 367.512 241.926 368.049 241.926 368.988C241.926 369.083 241.911 369.958 241.184 370.521C226.36 370.521 211.535 370.521 196.712 370.521C196.598 370.397 195.799 369.491 195.97 368.22C196.08 367.405 196.532 366.877 196.712 366.688Z" fill="#2E3433"/>
<path d="M241.374 371.048H196.47L196.308 370.87C196.055 370.59 195.242 369.568 195.434 368.142C195.55 367.281 195.977 366.673 196.316 366.315L196.481 366.141L241.378 366.915L241.522 367.027C241.681 367.15 242.47 367.821 242.47 368.98C242.47 369.183 242.424 370.233 241.522 370.934L241.374 371.048ZM196.975 369.98H240.979C241.372 369.58 241.385 369.045 241.385 368.98C241.385 368.486 241.131 368.144 240.972 367.977L196.962 367.217C196.783 367.451 196.574 367.812 196.51 368.283C196.405 369.06 196.755 369.678 196.975 369.98Z" fill="#2E3433"/>
<path d="M221.038 356.515C221.038 356.531 221.03 356.538 221.022 356.553C220.5 357.459 220.048 358.402 219.465 359.268C218.888 360.15 218.265 360.994 217.595 361.807C217.322 362.129 216.831 362.183 216.496 361.914C216.162 361.645 216.115 361.162 216.38 360.832C216.396 360.825 216.403 360.809 216.411 360.794C217.097 360.073 217.735 359.306 218.335 358.508C218.935 357.718 219.41 356.867 219.955 356.039C220.321 356.201 220.679 356.361 221.038 356.515Z" fill="#F8F8F8"/>
<path d="M223.976 357.753C223.766 358.459 223.563 359.172 223.283 359.862C222.901 360.828 222.473 361.787 221.983 362.715C221.78 363.091 221.313 363.245 220.931 363.052C220.542 362.853 220.394 362.393 220.589 362.017C220.612 361.979 220.635 361.94 220.659 361.91C221.258 361.113 221.812 360.277 222.318 359.409C222.691 358.788 223.003 358.136 223.315 357.484C223.541 357.569 223.759 357.661 223.976 357.753Z" fill="#F8F8F8"/>
<path d="M227.576 359.233C227.491 359.456 227.397 359.679 227.296 359.9C226.876 360.859 226.4 361.795 225.878 362.699C225.66 363.067 225.185 363.198 224.812 362.991C224.437 362.776 224.305 362.308 224.524 361.94C224.531 361.925 224.539 361.91 224.555 361.894C225.116 361.074 225.63 360.222 226.097 359.34C226.206 359.14 226.307 358.934 226.408 358.727C226.813 358.904 227.203 359.065 227.576 359.233Z" fill="#F8F8F8"/>
<path d="M233.107 243.725C232.386 262.412 221.566 344.499 221.566 344.499C215.075 344.052 208.583 343.612 202.091 343.165C200.807 337.318 199.343 329.577 198.282 320.347C197.741 315.642 197.301 310.55 197.042 305.124C195.938 281.912 199.047 271.495 199.898 256.919C199.905 256.752 199.92 256.578 199.927 256.405C201.961 218.992 192.585 197.636 187.319 180.564C185.703 175.338 184.47 170.507 184.073 165.741C183.907 163.705 183.886 161.677 184.059 159.635C184.744 151.393 191.935 145.713 200.62 143.451C210.213 140.942 221.617 142.616 228.058 149.624C228.058 149.624 228.657 157.439 229.443 168.665C231.102 192.303 233.597 231.051 233.107 243.725Z" fill="#96999E"/>
<path d="M222.039 345.065L201.648 343.667L201.562 343.275C199.906 335.732 198.621 328.037 197.745 320.404C197.161 315.327 196.743 310.194 196.501 305.146C195.753 289.415 196.917 279.695 198.042 270.295C198.577 265.821 199.083 261.594 199.358 256.885L199.386 256.381C201.132 224.255 194.513 204.218 189.194 188.118C188.34 185.533 187.534 183.092 186.801 180.716C185.431 176.287 183.972 171.049 183.534 165.782C183.356 163.599 183.351 161.573 183.519 159.587C184.161 151.872 190.66 145.49 200.483 142.93C209.376 140.605 221.475 141.661 228.461 149.262L228.586 149.398L228.6 149.581C228.606 149.659 229.208 157.526 229.985 168.624C231.567 191.167 234.147 230.901 233.649 243.741C232.935 262.238 222.213 343.743 222.105 344.564L222.039 345.065ZM202.537 342.658L221.095 343.929C222.001 337.022 231.883 261.394 232.567 243.703C233.062 230.911 230.484 191.22 228.903 168.699C228.192 158.542 227.627 151.093 227.533 149.846C220.832 142.701 209.283 141.735 200.761 143.965C191.396 146.405 185.204 152.425 184.601 159.676C184.438 161.605 184.443 163.573 184.615 165.696C185.045 170.861 186.486 176.03 187.839 180.406C188.569 182.772 189.374 185.209 190.226 187.788C195.573 203.973 202.227 224.114 200.47 256.431L200.442 256.939C200.165 261.688 199.657 265.93 199.12 270.421C198 279.777 196.842 289.453 197.585 305.096C197.826 310.12 198.242 315.231 198.823 320.285C199.68 327.75 200.929 335.275 202.537 342.658Z" fill="#2E3433"/>
<path d="M214.354 245.717L198.284 320.337C197.743 315.632 197.302 310.54 197.043 305.114C195.925 281.629 199.12 271.245 199.928 256.395C201.963 218.982 192.586 197.626 187.32 180.554C194.665 162.371 199.301 159.355 202.092 159.625C212.061 160.59 218.527 205.4 214.354 245.717Z" fill="#2E3433"/>
<path d="M198.121 323.663L197.746 320.391C197.161 315.314 196.743 310.181 196.502 305.133C195.752 289.399 196.916 279.68 198.042 270.28C198.596 265.648 199.12 261.273 199.387 256.361C201.133 224.242 194.513 204.205 189.195 188.106C188.341 185.521 187.534 183.08 186.801 180.703L186.746 180.525L186.816 180.351C192.766 165.619 197.788 158.674 202.145 159.088C203.472 159.217 204.756 160.017 205.96 161.467C214.325 171.536 218.5 210.928 214.894 245.767L214.885 245.823L198.121 323.663ZM187.895 180.572C188.61 182.882 189.396 185.261 190.226 187.775C195.573 203.96 202.227 224.101 200.47 256.418C200.201 261.364 199.675 265.757 199.119 270.406C197.999 279.762 196.841 289.438 197.585 305.083C197.773 309.001 198.067 312.97 198.463 316.925L213.818 245.63C217.331 211.641 213.187 171.853 205.12 162.143C204.105 160.921 203.069 160.251 202.039 160.152C199.449 159.895 194.914 163.247 187.895 180.572Z" fill="#2E3433"/>
<path d="M213.583 152.191C213.1 157.516 212.631 162.568 212.184 167.32C211.282 176.843 210.467 185.166 209.774 192.04C205.879 230.774 204.394 239.878 201.725 250.329C201.14 252.605 200.541 254.767 199.9 256.909C197.476 264.964 194.44 272.78 189.484 285.466C183.173 301.61 174.085 323.433 161.628 349.154C154.278 348.013 146.928 346.865 139.578 345.717C149.063 309.445 157.762 282.329 164.138 263.836C166.814 256.081 167.86 253.379 169.051 248.119C174.85 222.572 167.262 210.953 169.195 177.811C169.476 173.005 169.88 169.001 170.428 165.638C171.964 156.188 174.612 151.73 178.673 148.466C185.222 143.194 193.719 142.433 199.251 142.513C199.706 142.82 200.167 143.127 200.622 143.441C204.949 146.351 209.262 149.267 213.583 152.191Z" fill="#96999E"/>
<path d="M161.943 349.739L161.543 349.677C154.193 348.537 146.843 347.388 139.493 346.24L138.903 346.147L139.052 345.579C146.704 316.316 154.971 288.755 163.624 263.659L164.685 260.598C166.623 255.018 167.508 252.471 168.52 247.998C171.748 233.78 170.79 223.751 169.682 212.139C168.8 202.89 167.799 192.407 168.653 177.775C168.937 172.918 169.343 168.919 169.892 165.548C171.316 156.789 173.761 151.719 178.329 148.047C183.491 143.892 190.542 141.856 199.259 141.974L199.423 141.976L199.985 142.355C200.301 142.568 200.619 142.782 200.933 142.998C205.256 145.905 209.569 148.821 213.891 151.745L214.152 151.921L214.124 152.232C213.641 157.558 213.172 162.611 212.724 167.364C211.888 176.194 211.077 184.512 210.314 192.087C206.484 230.183 205.012 239.644 202.252 250.453C201.661 252.754 201.062 254.913 200.421 257.055C197.938 265.307 194.776 273.401 189.992 285.653C181.686 306.899 172.308 328.339 162.118 349.379L161.943 349.739ZM140.252 345.276C147.272 346.373 154.292 347.469 161.312 348.559C171.422 327.66 180.73 306.368 188.979 285.269C193.755 273.041 196.909 264.963 199.381 256.752C200.018 254.624 200.613 252.477 201.199 250.192C203.945 239.441 205.411 230.01 209.235 191.981C209.997 184.408 210.808 176.093 211.644 167.264C212.083 162.606 212.542 157.659 213.015 152.448C208.782 149.584 204.556 146.727 200.316 143.876C200 143.658 199.685 143.447 199.372 143.236L199.08 143.04C190.675 142.946 183.942 144.908 179.015 148.874C175.346 151.823 172.573 155.816 170.963 165.717C170.42 169.053 170.018 173.017 169.735 177.836C168.887 192.387 169.884 202.827 170.762 212.039C171.879 223.742 172.844 233.848 169.579 248.23C168.554 252.76 167.663 255.325 165.711 260.944L164.651 264.002C156.063 288.911 147.855 316.25 140.252 345.276Z" fill="#2E3433"/>
<path d="M229.444 168.665C225.701 168.351 219.411 167.844 212.184 167.33C203.239 166.696 192.853 166.042 184.074 165.742C178.686 165.555 173.904 165.495 170.427 165.648C171.963 156.198 174.61 151.74 178.671 148.476C185.221 143.204 193.718 142.443 199.25 142.523C199.704 142.83 200.166 143.138 200.621 143.451C210.214 140.942 221.618 142.616 228.059 149.624C228.059 149.624 228.658 157.439 229.444 168.665Z" fill="#2E3433"/>
<path d="M234.758 161.189C233.09 163.051 230.867 163.852 229.166 164.232C209.985 163.225 190.81 162.217 171.636 161.209C171.121 161.316 170.375 161.383 169.602 161.103C162.736 158.6 168.511 131.992 172.544 94.4245C173.093 89.3124 173.554 84.5009 173.947 80.049C174.523 73.4216 176.861 67.1886 180.569 61.8898C183.253 58.0527 182.22 56.4791 184.836 54.2698C187.697 51.8474 193.485 50.1158 195.459 49.7365C198.123 49.2235 201.125 48.7926 203.335 48.8394C213.821 49.0661 218.702 53.5675 218.702 53.5675C227.541 55.863 233.817 63.5651 234.183 72.5545C234.535 81.1835 234.861 89.3192 235.151 96.8673C235.213 98.449 235.273 100.004 235.335 101.532C236.013 119.191 236.521 133.28 236.833 142.396C236.84 142.596 236.847 142.79 236.853 142.984C237.022 147.936 237.131 151.332 237.178 152.948C237.225 154.569 237.279 158.366 234.758 161.189Z" fill="#FF8C00"/>
<path d="M229.211 164.766L229.135 164.762L171.674 161.743C170.863 161.898 170.103 161.851 169.412 161.6C163.842 159.57 165.748 144.696 168.904 120.053C169.888 112.371 171.004 103.664 172.003 94.3647C172.506 89.6706 172.965 84.9717 173.404 79.9993C173.977 73.4127 176.299 67.0446 180.12 61.583C181.315 59.8751 181.741 58.649 182.117 57.5661C182.568 56.2673 182.958 55.1464 184.481 53.8605C187.407 51.3825 193.171 49.6278 195.352 49.2085C197.65 48.7661 200.902 48.2436 203.343 48.3013C213.205 48.515 218.174 52.4044 218.964 53.0802C228.019 55.4891 234.345 63.2889 234.721 72.5286C235.074 81.1583 235.399 89.294 235.691 96.8428L235.874 101.507C236.674 122.32 237.156 136.045 237.372 142.374L237.393 142.96C237.562 147.914 237.671 151.311 237.719 152.927C237.764 154.45 237.881 158.495 235.164 161.538L235.164 161.538C233.754 163.112 231.776 164.192 229.285 164.749L229.211 164.766ZM171.592 160.668L171.663 160.673L229.117 163.691C231.348 163.18 233.107 162.22 234.349 160.833C236.784 158.106 236.675 154.366 236.634 152.958C236.586 151.344 236.478 147.948 236.308 142.997L236.288 142.41C236.071 136.081 235.589 122.359 234.791 101.548L234.607 96.8835C234.317 89.3354 233.991 81.201 233.638 72.572C233.279 63.7605 227.22 56.3291 218.561 54.0797L218.429 54.0458L218.328 53.9542C218.281 53.9108 213.444 49.5885 203.32 49.37C200.972 49.3184 197.805 49.8253 195.56 50.2568C193.777 50.6002 188.006 52.2843 185.188 54.6714C183.889 55.7679 183.576 56.6677 183.143 57.9128C182.764 59.0032 182.292 60.3603 181.013 62.1897C177.299 67.4986 175.041 73.6896 174.484 80.0916C174.044 85.0714 173.585 89.7764 173.08 94.4774C172.08 103.788 170.965 112.5 169.98 120.187C167.104 142.64 165.026 158.863 169.787 160.599C170.304 160.786 170.887 160.814 171.521 160.683L171.592 160.668Z" fill="#2E3433"/>
<path d="M236.488 132.857C227.508 135.5 216.114 137.549 208.187 135.692C189.368 131.285 177.622 82.1572 177.622 82.1572L197.946 69.4766C201.103 71.2523 212.206 90.9599 218.929 93.6883C221.276 94.641 228.411 95.479 234.801 92.8082C235.383 106.625 235.905 119.04 236.488 132.857Z" fill="#2E3433"/>
<path d="M236.435 22.52C236.677 19.4856 236.79 17.9331 236.435 16.194C236.253 15.3024 235.353 11.2779 232.099 8.49319C227.728 4.75171 222.094 5.74985 219.737 6.12441C218.544 6.31372 208.33 8.08267 206.252 15.5996C205.292 19.0689 205.964 24.1451 208.637 25.8123C208.373 26.4745 208.272 27.0968 208.252 27.2393C207.782 30.4284 210.353 33.302 212.388 35.0357C209.725 41.0822 207.8 45.6386 205.137 51.6864C205.105 52.4457 206.168 56.291 208.988 57.9073C212.295 59.8025 217.427 60.0942 220.255 58.7548C221.758 54.6489 222.18 53.8265 223.69 49.7214C224.187 48.3636 224.685 47.0065 225.183 45.6488C226.34 46.1617 227.963 46.6863 229.232 45.9263C229.448 45.7967 229.776 45.4181 230.432 44.6608C231.572 43.3458 232.539 42.2086 232.233 41.4981C232.068 41.1141 231.585 40.9879 231.633 40.8657C231.69 40.7192 232.22 41.0014 232.711 40.8304C233.48 40.5617 233.798 39.1775 233.952 37.8021C234.218 38.1231 234.752 38.2622 234.953 38.3056C235.428 38.4081 236.187 38.1726 236.299 37.511C236.428 36.7436 236.045 36.3623 235.768 35.3322C235.481 34.2622 235.362 31.8045 235.55 31.1816C236.23 27.6274 236.253 24.7992 236.435 22.52Z" fill="white"/>
<path d="M215.875 60.1191C213.389 60.1191 210.722 59.5125 208.715 58.3623C205.754 56.6653 204.553 52.6449 204.596 51.657C204.599 51.5919 204.614 51.5274 204.64 51.467C205.955 48.4794 207.09 45.8561 208.223 43.2377C209.339 40.6592 210.453 38.0855 211.734 35.1725C209.567 33.2556 207.24 30.384 207.716 27.1555C207.744 26.9635 207.822 26.5211 207.989 26.0074C205.421 24.0241 204.73 19.0673 205.729 15.452C207.835 7.8361 217.695 5.9009 219.651 5.59012L219.81 5.56434C222.256 5.17282 227.987 4.25814 232.456 8.08241C235.604 10.7762 236.659 14.5733 236.967 16.0811C237.344 17.9274 237.214 19.5708 236.976 22.5537C236.933 23.0911 236.899 23.6604 236.863 24.2616C236.744 26.2619 236.608 28.5282 236.083 31.2716C235.932 31.7845 236.005 34.116 236.292 35.1861C236.382 35.5213 236.486 35.7879 236.579 36.0234C236.766 36.4991 236.941 36.9483 236.834 37.5888C236.767 37.9864 236.547 38.3196 236.199 38.5516C235.807 38.8129 235.283 38.9147 234.836 38.819C234.712 38.7918 234.549 38.7491 234.375 38.6846C234.109 40.2385 233.64 41.0643 232.892 41.3255C232.849 41.3398 232.806 41.3527 232.764 41.3635C233.118 42.3773 232.062 43.5952 230.844 44.9991C230.109 45.848 229.805 46.1995 229.513 46.3745C228.131 47.201 226.456 46.7288 225.498 46.3542L224.2 49.8941C223.456 51.9162 222.971 53.1566 222.501 54.3562C222 55.6353 221.528 56.8438 220.765 58.9276C220.716 59.0592 220.618 59.1671 220.49 59.2275C219.225 59.8294 217.593 60.1191 215.875 60.1191ZM205.683 51.7859C205.743 52.5296 206.717 55.9807 209.261 57.4389C212.256 59.1549 217.026 59.5573 219.823 58.3556C220.546 56.3858 221.025 55.1603 221.49 53.9742C221.958 52.7793 222.441 51.5444 223.18 49.5325L224.673 45.4599C224.724 45.3201 224.833 45.2075 224.973 45.1491C225.111 45.0914 225.268 45.0928 225.407 45.1545C226.974 45.85 228.133 45.9505 228.949 45.4626C229.092 45.3771 229.501 44.9048 230.019 44.307C230.727 43.4894 231.915 42.1208 231.733 41.6994C231.7 41.6227 231.582 41.542 231.488 41.4768C231.355 41.3859 230.953 41.1104 231.125 40.6673C231.308 40.1964 231.831 40.2799 232.026 40.3118C232.188 40.3376 232.387 40.3694 232.529 40.3192C232.673 40.269 233.166 39.9325 233.412 37.736C233.435 37.5223 233.587 37.3432 233.797 37.2821C234.005 37.2231 234.233 37.2896 234.371 37.4558C234.475 37.5807 234.749 37.7069 235.069 37.7761C235.203 37.8059 235.427 37.7781 235.591 37.6682C235.722 37.5806 235.752 37.4823 235.763 37.4151C235.822 37.0622 235.731 36.8302 235.566 36.4088C235.469 36.1605 235.348 35.8517 235.243 35.4602C234.961 34.4091 234.794 31.8002 235.029 31.0212C235.529 28.3986 235.662 26.1676 235.779 24.1998C235.815 23.5905 235.85 23.0151 235.893 22.4709C236.14 19.3659 236.236 17.9247 235.902 16.2921C235.616 14.8922 234.638 11.3672 231.742 8.88852C227.658 5.39335 222.473 6.22117 219.982 6.61879L219.822 6.6439C217.982 6.93635 208.705 8.74806 206.774 15.7323C205.851 19.0721 206.507 23.8449 208.926 25.3533C209.146 25.4904 209.236 25.7618 209.141 26C208.907 26.5869 208.811 27.1501 208.788 27.3089C208.361 30.2069 210.702 32.8858 212.742 34.6229C212.921 34.7756 212.979 35.0253 212.885 35.2397C211.538 38.2979 210.38 40.974 209.22 43.6549C208.101 46.2463 206.978 48.8404 205.683 51.7859Z" fill="#2E3433"/>
<path d="M224.619 45.9015C223.535 48.6896 222.444 51.4778 221.36 54.2659C219.965 52.9285 217.799 50.4966 216.348 46.8671C215.34 44.3436 215.486 40.9658 215.386 39.3359L224.619 45.9015Z" fill="#96999E"/>
<path d="M242.197 13.3112C240.661 10.0481 237.11 8.09255 233.407 8.50172C232.766 7.04896 231.517 4.84234 229.138 3.2532C222.973 -0.864195 212.801 1.55616 211.582 5.56974C211.358 6.30663 211.356 7.36448 212.17 8.85659C210.682 8.43657 209.064 8.30765 207.73 9.0459C203.659 11.2993 203.827 20.746 207.508 27.0184C209.771 30.8766 213.07 33.031 215.147 34.1241C214.36 36.9543 214.746 38.7443 215.029 39.6074C215.064 39.7112 215.105 39.8782 215.204 40.0844C215.581 40.8641 216.519 41.7061 220.065 44.6028C223.54 47.4412 224.315 48.1591 227.092 49.0894C228.159 49.4469 229.193 49.6587 230.04 49.2156C230.998 48.7148 231.174 47.4955 231.427 46.8895C232.406 44.5431 233.63 41.9504 234.215 39.1202C234.266 38.8773 234.124 38.6358 233.887 38.5496C231.641 37.7299 229.339 36.5608 228.041 36.0017C222.998 33.8283 222.225 32.8783 221.779 32.1475C220.889 30.6914 220.762 29.0371 220.676 27.9223C220.624 27.2444 220.635 26.6357 220.673 26.097C222.925 24.3674 225.177 22.6384 227.43 20.9095C231.102 25.2624 237.201 25.6553 240.493 22.7368C242.978 20.5336 243.729 16.5669 242.197 13.3112Z" fill="#2E3433"/>
<path d="M212.565 7.8054C212.565 7.8054 207.937 0.397757 201.859 3.14042C201.859 3.14042 206.592 0.93584 211.22 8.34416C215.848 15.7518 212.565 7.8054 212.565 7.8054Z" fill="#2E3433"/>
<path d="M209.732 7.68139C209.732 7.68139 202.638 7.44119 201.803 12.668C201.803 12.668 202.406 8.56757 209.502 8.80777C216.596 9.04797 209.732 7.68139 209.732 7.68139Z" fill="#2E3433"/>
<path d="M239.926 12.1172C240.761 12.6085 241.494 13.2592 242.166 13.9723C242.816 14.7045 243.354 15.5431 243.772 16.4449C244.209 17.3365 244.399 18.3571 244.512 19.3152C244.62 20.2909 244.625 21.3196 244.35 22.3306C244.056 23.3328 243.431 24.2753 242.583 24.9172C241.74 25.5604 240.735 25.952 239.723 26.0748C238.71 26.2003 237.698 26.1413 236.729 25.9398C235.767 25.7043 234.84 25.3671 234.009 24.8697L234.035 24.8127C235.78 25.5767 237.747 25.9262 239.634 25.5978C240.568 25.422 241.482 25.0672 242.22 24.4748C242.962 23.8885 243.49 23.0641 243.739 22.161C244 21.2585 244.021 20.3031 243.936 19.3674C243.851 18.4283 243.666 17.4994 243.311 16.6227C242.616 14.8653 241.385 13.3358 239.886 12.1667L239.926 12.1172Z" fill="#2E3433"/>
<path d="M235.377 26.9582C235.377 26.9582 232.676 25.6927 229.976 26.3258C227.275 26.9582 227.951 26.9582 231.326 27.5912C234.702 28.2236 235.377 29.4884 235.377 26.9582Z" fill="#2E3433"/>
<path d="M232.15 30.8882C232.008 31.5728 231.611 32.0709 231.263 32.001C230.916 31.9311 230.749 31.3191 230.892 30.6344C231.034 29.9498 231.431 29.4517 231.779 29.5223C232.126 29.5922 232.293 30.2035 232.15 30.8882Z" fill="#2E3433"/>
<path d="M198.514 60.5892C203.991 74.004 209.468 87.4187 214.944 100.834C225.699 95.3957 233.408 91.3536 237.311 88.8206C238.35 88.1468 240.948 86.3928 244.089 86.8182C245.612 87.0245 246.776 87.6773 247.479 88.1529C250.391 90.8807 254.483 95.6983 254.938 102.16C254.973 102.666 255.018 103.35 254.934 104.171C254.335 110.039 248.016 114.486 240.7 118.186C223.305 126.984 214.447 131.464 204.778 128.196C199.42 126.386 192.858 113.414 179.7 87.4866C178.203 84.537 174.074 76.1468 175.633 66.7979C176.209 63.3468 177.384 60.8185 179.022 58.789C180.185 57.3492 183.695 52.9787 189.066 53.3241C191.374 53.4727 193.22 54.3683 194.614 55.4119C196.38 56.7331 197.687 58.5624 198.514 60.5892Z" fill="#FF8C00"/>
<path d="M211.222 129.804C208.993 129.805 206.825 129.448 204.603 128.697C199.06 126.825 192.488 113.875 179.395 88.0752L179.215 87.721C175.409 80.2198 174.024 73.1494 175.098 66.7066C175.653 63.3818 176.798 60.6818 178.598 58.4521C179.809 56.9512 183.455 52.4226 189.101 52.7863C191.211 52.9214 193.176 53.6603 194.943 54.9821C196.704 56.2991 198.113 58.1678 199.02 60.386L215.228 100.087C227.267 93.9935 233.596 90.5886 237.014 88.3711L237.096 88.3182C238.235 87.5779 240.897 85.8456 244.165 86.2859C245.426 86.4569 246.644 86.936 247.787 87.7095L247.853 87.7631C252.488 92.1037 255.125 97.0686 255.479 102.12C255.514 102.604 255.566 103.335 255.475 104.221C254.792 110.922 246.858 115.669 240.95 118.658C227.291 125.565 218.907 129.804 211.222 129.804ZM188.473 53.8347C183.711 53.8347 180.531 57.775 179.459 59.1029C177.765 61.2002 176.693 63.7393 176.169 66.8796C175.132 73.0964 176.484 79.9477 180.186 87.2433L180.365 87.5975C193.326 113.136 199.832 125.955 204.955 127.686C214.408 130.88 223.11 126.477 240.453 117.706C246.136 114.832 253.763 110.296 254.395 104.113C254.477 103.317 254.428 102.641 254.397 102.193C254.062 97.4228 251.551 92.7117 247.137 88.5658C246.145 87.9009 245.095 87.4903 244.016 87.3438C241.154 86.9563 238.73 88.5353 237.693 89.2091L237.611 89.2627C234.108 91.5351 227.613 95.0242 215.193 101.304L214.664 101.572L214.441 101.029L198.011 60.7843C197.178 58.7453 195.89 57.0326 194.286 55.8323C192.692 54.6401 190.923 53.9738 189.03 53.8523C188.842 53.8408 188.656 53.8347 188.473 53.8347Z" fill="#2E3433"/>
<path d="M251.117 93.1768C253.798 96.9529 255.1 100.613 254.027 101.353C252.953 102.091 249.909 99.6297 247.228 95.8536C244.546 92.0776 243.244 88.4175 244.318 87.6779C245.391 86.9389 248.436 89.4007 251.117 93.1768Z" fill="#2E3433"/>
<path d="M275.944 84.1642C274.481 88.4885 263.067 93.5077 263.067 93.5077C256.275 96.4906 256.825 95.0426 253.577 96.8448C253.062 97.1318 252.052 97.7187 250.866 97.5124C248.908 97.1718 247.83 94.9096 247.477 94.1754C246.576 92.2931 246.664 90.4916 246.8 89.5036C247.328 88.7226 247.857 87.9423 248.386 87.1674C249.131 86.0593 250.006 85.0388 250.988 84.1241L261.711 74.1536L274.589 66.8125C274.589 66.8125 275.383 66.8125 275.647 67.2997C275.871 67.7068 275.627 68.2476 275.267 68.8149C273.993 70.8173 271.892 72.1452 271.878 72.1519C270.536 72.9994 268.685 74.2744 266.456 76.156C268.279 76.0095 269.608 75.7353 270.522 75.4883C270.943 75.375 271.478 75.2149 271.878 75.4883C272.224 75.7217 272.305 76.1757 272.468 77.03C272.495 77.1698 272.522 77.3238 272.556 77.4907C272.556 77.4907 272.692 77.524 272.908 77.5911C273.64 77.8246 275.267 78.459 275.267 79.4931V80.5408C275.267 80.8278 275.267 80.8278 275.267 80.8278C275.267 80.8278 275.341 80.9011 275.456 81.0483C275.795 81.5016 276.46 82.6422 275.944 84.1642Z" fill="white"/>
<path d="M251.365 98.0842C251.173 98.0842 250.975 98.0685 250.773 98.0333C248.548 97.6465 247.378 95.2099 246.993 94.4092C246.272 92.9048 246.021 91.1854 246.263 89.4266C246.274 89.3466 246.303 89.2692 246.349 89.202L246.418 89.1003C246.924 88.3532 247.43 87.6054 247.936 86.8645C248.701 85.7286 249.603 84.6735 250.617 83.731L261.339 73.7605C261.37 73.732 261.403 73.7075 261.44 73.6865L274.318 66.3454C274.401 66.2979 274.495 66.2734 274.59 66.2734C274.705 66.2734 275.72 66.2952 276.126 67.0436C276.545 67.8049 275.972 68.7074 275.729 69.0928C274.366 71.2343 272.132 72.6205 272.112 72.6293C270.85 73.43 269.534 74.3678 268.21 75.4148C268.987 75.298 269.713 75.1488 270.381 74.9689C270.893 74.8298 271.598 74.6392 272.189 75.0456C272.712 75.3985 272.825 75.9902 272.996 76.8865L273.029 77.0629C273.043 77.0677 273.058 77.0718 273.072 77.0765C274.099 77.4042 275.811 78.1506 275.811 79.4887V80.6226C275.835 80.6511 275.861 80.6823 275.889 80.7176C276.266 81.2224 277.059 82.5639 276.462 84.3301C274.94 88.8261 263.765 93.7835 263.29 93.9925C259.559 95.6312 257.985 95.9576 256.836 96.1951C255.888 96.3919 255.262 96.5215 253.846 97.3065C253.345 97.5834 252.449 98.0842 251.365 98.0842ZM247.322 89.6906C247.136 91.2017 247.359 92.6694 247.969 93.9423C248.299 94.6297 249.288 96.6904 250.962 96.9808C251.922 97.1484 252.766 96.6789 253.268 96.398C254.872 95.5077 255.639 95.3483 256.61 95.1474C257.712 94.9194 259.22 94.6066 262.846 93.0148C262.957 92.9659 274.058 88.0431 275.43 83.9902C275.852 82.7444 275.354 81.8073 275.02 81.3588C274.947 81.2665 274.892 81.2095 274.882 81.1986C274.782 81.0989 274.724 80.9618 274.724 80.8221V79.4874C274.724 79.0253 273.945 78.4784 272.741 78.0936C272.553 78.036 272.431 78.0054 272.424 78.0034C272.221 77.9532 272.065 77.7924 272.024 77.5902L271.934 77.1233C271.806 76.4475 271.727 76.0282 271.571 75.9237C271.391 75.8002 271.016 75.9026 270.715 75.9854C269.443 76.3287 268.041 76.5588 266.501 76.6829C266.269 76.7006 266.046 76.5696 265.955 76.3559C265.865 76.1422 265.924 75.8952 266.102 75.7445C267.933 74.2002 269.777 72.8377 271.584 71.6963C271.613 71.6787 273.606 70.4132 274.807 68.5255C275.226 67.8646 275.213 67.6298 275.169 67.5491C275.113 67.4446 274.899 67.3767 274.717 67.3516L262.037 74.5795L251.361 84.5072C250.408 85.3934 249.559 86.3861 248.838 87.4568C248.331 88.1998 247.827 88.9449 247.322 89.6906Z" fill="#2E3433"/>
<path d="M272.907 77.5839L269.714 79.0455L272.466 77.0234C272.492 77.1632 272.52 77.3172 272.554 77.4842C272.554 77.4842 272.69 77.5174 272.907 77.5839Z" fill="#2E3433"/>
<path d="M275.457 81.031L272.556 82.8128L275.267 80.5234C275.267 80.8105 275.267 80.8105 275.267 80.8105C275.267 80.8105 275.342 80.8837 275.457 81.031Z" fill="#2E3433"/>
<g opacity="0.46">
<path d="M269.326 86.6663L268.948 87.0388C268.723 87.26 268.785 87.6325 269.069 87.7723L269.441 87.9555C269.697 88.0817 270.019 87.9562 270.094 87.6834C270.15 87.4825 270.175 87.2172 270.111 86.8875C270.041 86.5346 269.585 86.4118 269.326 86.6663Z" fill="#2E3433"/>
</g>
<g opacity="0.46">
<path d="M265.934 84.0095L265.555 84.3821C265.331 84.6033 265.392 84.9758 265.677 85.1156L266.048 85.2988C266.304 85.425 266.626 85.2994 266.701 85.0267C266.757 84.8258 266.783 84.5605 266.718 84.2307C266.648 83.8786 266.192 83.7558 265.934 84.0095Z" fill="#2E3433"/>
</g>
<g opacity="0.46">
<path d="M262.547 80.0019L262.169 80.3744C261.944 80.5956 262.005 80.9681 262.289 81.1079L262.661 81.2911C262.917 81.4173 263.239 81.2918 263.314 81.019C263.37 80.8182 263.395 80.5529 263.331 80.2231C263.261 79.8703 262.805 79.7481 262.547 80.0019Z" fill="#2E3433"/>
</g>
<g opacity="0.46">
<path d="M260.513 76.6503L260.135 77.0228C259.91 77.2441 259.971 77.6166 260.255 77.7563L260.627 77.9396C260.883 78.0658 261.205 77.9402 261.28 77.6675C261.336 77.4666 261.361 77.2013 261.296 76.8715C261.227 76.5187 260.771 76.3966 260.513 76.6503Z" fill="#2E3433"/>
</g>
<path d="M145.706 346.617L145.023 346.382C145.331 345.511 175.878 259.176 179.895 244.513C183.903 229.882 183.949 164.959 183.949 164.305H184.673C184.673 164.959 184.626 229.978 180.594 244.698C176.57 259.387 146.014 345.746 145.706 346.617Z" fill="#2E3433"/>
<path d="M184.357 188.125L184.267 187.418C196.413 185.912 201.868 164.103 201.921 163.883L202.625 164.049C202.401 164.967 196.999 186.558 184.357 188.125Z" fill="#2E3433"/>
<path d="M215.556 32.928C215.55 33.0739 215.551 33.2123 215.545 33.3514C215.494 34.3048 215.339 35.1163 215.179 35.7338C214.747 35.6978 214.017 35.5933 213.183 35.2283C209.498 33.6215 207.173 28.3818 208.399 26.5009C208.636 26.1324 208.972 25.9899 209.209 25.8848C209.85 25.6032 210.55 25.6615 211.22 25.8895C211.536 25.9988 211.842 26.1426 212.131 26.3095C212.776 26.6712 213.341 27.1448 213.738 27.5574C214.149 27.9896 214.84 28.8249 215.29 30.182C215.443 30.8883 215.572 31.8254 215.556 32.928Z" fill="#DBE0E6"/>
<path d="M215.181 36.2705C215.165 36.2705 215.151 36.2698 215.135 36.2684C214.386 36.2067 213.656 36.0221 212.964 35.7188C210.349 34.5789 208.5 31.8464 207.828 29.6452C207.392 28.2168 207.433 26.9982 207.944 26.2151C208.258 25.7246 208.7 25.5278 208.965 25.4097C209.693 25.0881 210.506 25.084 211.398 25.3873C211.737 25.504 212.075 25.6601 212.406 25.8521C213.231 26.3142 213.842 26.8916 214.133 27.1936C214.884 27.9821 215.446 28.932 215.807 30.0197C216.021 30.9941 216.114 31.9583 216.1 32.9381C216.1 32.9422 216.1 32.947 216.099 32.951L216.088 33.3778C216.043 34.2308 215.915 35.0674 215.705 35.8688C215.644 36.1069 215.426 36.2705 215.181 36.2705ZM210.144 26.2328C209.886 26.2328 209.647 26.2803 209.432 26.3753C209.211 26.4737 209.002 26.5673 208.86 26.7899C208.531 27.2947 208.535 28.246 208.868 29.3392C209.449 31.2425 211.116 33.7456 213.405 34.7437C213.843 34.9351 214.297 35.0701 214.763 35.1475C214.891 34.5558 214.971 33.9451 215.004 33.3276L215.015 32.9239C215.028 32.0235 214.942 31.14 214.761 30.2973C214.464 29.4138 213.983 28.5982 213.343 27.9271C213.096 27.6693 212.572 27.1753 211.863 26.7777C211.586 26.6168 211.311 26.4906 211.043 26.3977C210.722 26.2877 210.421 26.2328 210.144 26.2328Z" fill="#2E3433"/>
<path d="M105.015 13.7969L102.262 29.0675C97.3386 30.8547 90.7954 32.6346 82.9711 33.2127C67.9826 34.3207 56.038 30.449 49.4238 27.7049C67.9544 23.0691 86.4849 18.4334 105.015 13.7969Z" fill="#96999E"/>
<path d="M77.7887 33.9407C68.1176 33.9407 58.3362 31.9858 49.2122 28.2009C48.9972 28.1113 48.8641 27.8976 48.8814 27.6682C48.8993 27.4395 49.0626 27.2468 49.2887 27.1905L104.88 13.2818C105.059 13.2377 105.248 13.2852 105.383 13.4087C105.518 13.5322 105.58 13.7147 105.548 13.8938L102.794 29.1644C102.761 29.351 102.629 29.5064 102.448 29.5722C96.1601 31.8548 89.6203 33.2608 83.0103 33.7493C81.2771 33.8776 79.5343 33.9407 77.7887 33.9407ZM51.1534 27.827C61.3408 31.7924 72.2937 33.4704 82.9296 32.6833C89.3371 32.2097 95.6777 30.8614 101.781 28.6752L104.333 14.5222L51.1534 27.827Z" fill="#2E3433"/>
<path d="M49.4238 27.7031L50.3052 28.0573L50.9826 28.3335L99.2344 47.868L101.863 33.2916L51.6862 27.9406L49.4238 27.7031Z" fill="#96999E"/>
<path d="M99.2329 48.4049C99.1626 48.4049 99.093 48.3914 99.0268 48.3649L49.2169 28.2007C48.9668 28.1002 48.8303 27.8336 48.8965 27.575C48.9626 27.3179 49.2128 27.1476 49.4802 27.1747L51.7426 27.4122L101.92 32.7632C102.07 32.7795 102.206 32.8555 102.297 32.9735C102.387 33.0923 102.424 33.2422 102.397 33.3881L99.7683 47.9645C99.7394 48.1233 99.6394 48.2611 99.4954 48.3391C99.4134 48.3825 99.3231 48.4049 99.2329 48.4049ZM53.1518 28.6376L98.8166 47.1245L101.226 33.764L53.1518 28.6376Z" fill="#2E3433"/>
<path d="M50.3213 28.4667L51.0015 28.7361L124.594 40.7951L110.23 22.7188L51.7009 28.3357L50.3213 28.4667Z" fill="white"/>
<path d="M124.593 41.3245C124.564 41.3245 124.534 41.3218 124.504 41.317L50.912 29.258C50.8735 29.2519 50.8356 29.241 50.799 29.2268L50.1189 28.9581C49.8866 28.8665 49.7481 28.6303 49.7839 28.3868C49.8191 28.1425 50.0196 27.9545 50.2684 27.9308L51.648 27.7998L110.176 22.1828C110.361 22.1625 110.542 22.2419 110.656 22.3851L125.02 40.4614C125.158 40.6351 125.174 40.8746 125.06 41.0633C124.96 41.2268 124.782 41.3245 124.593 41.3245ZM53.8698 28.6595L123.306 40.038L109.984 23.2739L53.8698 28.6595Z" fill="#2E3433"/>
<path d="M92.9654 0.53125L49.4238 27.7075L105.062 14.1021L92.9654 0.53125Z" fill="white"/>
<path d="M49.4227 28.2452C49.2097 28.2452 49.0106 28.1217 48.9237 27.9208C48.819 27.6799 48.9072 27.3997 49.1318 27.2599L92.6734 0.0836536C92.8981 -0.0581616 93.1951 -0.0160894 93.3715 0.182723L105.468 13.7536C105.592 13.894 105.634 14.0881 105.578 14.2659C105.521 14.4443 105.375 14.58 105.191 14.6248L49.5529 28.2302C49.5102 28.2397 49.4661 28.2452 49.4227 28.2452ZM92.8623 1.23107L52.5389 26.3982L104.065 13.7983L92.8623 1.23107Z" fill="#2E3433"/>
<path d="M77.7387 266.354C77.5485 266.354 77.3645 266.28 77.2274 266.146L71.4394 260.447C71.1569 260.169 71.1569 259.718 71.4394 259.44C71.722 259.162 72.1796 259.162 72.4621 259.44L77.4865 264.386L81.1416 255.751C81.2326 255.536 81.4255 255.377 81.6578 255.329C81.8907 255.282 82.1319 255.346 82.3049 255.506L86.7773 259.643L91.5536 249.667C91.6584 249.448 91.8678 249.296 92.1111 249.265C92.3537 249.231 92.5976 249.324 92.7575 249.507L97.0983 254.493C97.3581 254.792 97.3236 255.242 97.0197 255.498C96.7165 255.753 96.2596 255.718 95.9998 255.42L92.3867 251.269L87.6628 261.137C87.5636 261.343 87.3713 261.49 87.1432 261.533C86.9137 261.577 86.6815 261.509 86.5127 261.353L82.0761 257.248L78.4065 265.916C78.3142 266.135 78.1164 266.295 77.8793 266.341C77.8324 266.35 77.7856 266.354 77.7387 266.354Z" fill="#2E3433"/>
<path d="M368.634 165.637C368.444 165.637 368.26 165.563 368.123 165.428L362.335 159.729C362.052 159.451 362.052 159 362.335 158.721C362.617 158.443 363.075 158.443 363.358 158.721L368.381 163.668L372.037 155.033C372.128 154.817 372.321 154.659 372.553 154.61C372.786 154.563 373.027 154.628 373.2 154.787L377.673 158.925L382.449 148.948C382.554 148.73 382.763 148.578 383.007 148.546C383.249 148.513 383.493 148.605 383.653 148.788L387.994 153.775C388.254 154.073 388.219 154.523 387.915 154.779C387.612 155.035 387.155 154.999 386.895 154.701L383.282 150.55L378.558 160.418C378.459 160.624 378.266 160.772 378.039 160.814C377.809 160.858 377.577 160.79 377.408 160.634L372.972 156.529L369.302 165.197C369.21 165.416 369.012 165.576 368.775 165.622C368.727 165.632 368.68 165.637 368.634 165.637Z" fill="#2E3433"/>
<path d="M318.491 210.872C315.699 210.872 313.427 208.634 313.427 205.885C313.427 203.136 315.699 200.898 318.491 200.898C321.283 200.898 323.555 203.136 323.555 205.885C323.555 208.635 321.283 210.872 318.491 210.872ZM318.491 202.323C316.497 202.323 314.874 203.921 314.874 205.885C314.874 207.849 316.497 209.447 318.491 209.447C320.485 209.447 322.108 207.849 322.108 205.885C322.108 203.921 320.485 202.323 318.491 202.323Z" fill="#2E3433"/>
<path d="M95.415 108.223C92.6226 108.223 90.3506 105.986 90.3506 103.237C90.3506 100.487 92.6226 98.25 95.415 98.25C98.2073 98.25 100.479 100.487 100.479 103.237C100.479 105.986 98.2073 108.223 95.415 108.223ZM95.415 99.6749C93.4206 99.6749 91.7978 101.273 91.7978 103.237C91.7978 105.2 93.4206 106.798 95.415 106.798C97.4093 106.798 99.0322 105.2 99.0322 103.237C99.0322 101.273 97.4093 99.6749 95.415 99.6749Z" fill="#2E3433"/>
<path d="M248.537 56.2467C245.745 56.2467 243.473 54.0095 243.473 51.26C243.473 48.5106 245.745 46.2734 248.537 46.2734C251.329 46.2734 253.601 48.5106 253.601 51.26C253.601 54.0102 251.329 56.2467 248.537 56.2467ZM248.537 47.6984C246.543 47.6984 244.92 49.2964 244.92 51.26C244.92 53.2237 246.543 54.8217 248.537 54.8217C250.531 54.8217 252.154 53.2237 252.154 51.26C252.154 49.2964 250.531 47.6984 248.537 47.6984Z" fill="#2E3433"/>
<path d="M10.8337 80.9624L6.94157 78.4762L10.8627 76.0348C11.2004 75.8245 11.301 75.3848 11.0873 75.0523C10.873 74.7184 10.4258 74.62 10.0895 74.8304L5.60467 77.6226L1.15361 74.7795C0.817316 74.5644 0.370077 74.6587 0.153003 74.9892C-0.06476 75.3189 0.0310217 75.7607 0.365936 75.9744L4.25881 78.4613L0.336998 80.9027C-0.000672623 81.1137 -0.101282 81.5534 0.111657 81.8859C0.249482 82.1003 0.483785 82.2177 0.7236 82.2177C0.855912 82.2177 0.9896 82.1824 1.10951 82.1077L5.59432 79.3156L10.0454 82.1586C10.1674 82.2367 10.3038 82.2733 10.4382 82.2733C10.6752 82.2733 10.9075 82.1593 11.046 81.9483C11.2644 81.6178 11.1686 81.1768 10.8337 80.9624Z" fill="#2E3433"/>
<path d="M277.549 300.493L273.657 298.007L277.578 295.565C277.916 295.355 278.016 294.915 277.803 294.583C277.589 294.249 277.141 294.151 276.805 294.362L272.32 297.154L267.869 294.311C267.533 294.096 267.086 294.19 266.869 294.52C266.651 294.851 266.747 295.292 267.081 295.506L270.974 297.992L267.052 300.433C266.714 300.644 266.614 301.084 266.827 301.416C266.964 301.631 267.199 301.748 267.438 301.748C267.571 301.748 267.704 301.713 267.824 301.638L272.309 298.846L276.76 301.689C276.882 301.767 277.019 301.804 277.154 301.804C277.391 301.804 277.623 301.69 277.762 301.479C277.98 301.148 277.885 300.707 277.549 300.493Z" fill="#2E3433"/>
<path d="M303.231 143.455L299.339 140.968L303.26 138.527C303.598 138.317 303.698 137.877 303.484 137.544C303.27 137.211 302.823 137.112 302.487 137.323L298.002 140.115L293.551 137.272C293.215 137.057 292.767 137.151 292.55 137.481C292.332 137.811 292.428 138.253 292.763 138.467L296.655 140.953L292.733 143.395C292.396 143.606 292.295 144.046 292.508 144.378C292.646 144.592 292.88 144.71 293.12 144.71C293.252 144.71 293.386 144.675 293.506 144.6L297.991 141.808L302.442 144.651C302.564 144.729 302.7 144.765 302.835 144.765C303.072 144.765 303.305 144.651 303.443 144.44C303.662 144.11 303.567 143.669 303.231 143.455Z" fill="#2E3433"/>
</svg>
