<svg width="184" height="152" viewBox="0 0 184 152" fill="none" xmlns="http://www.w3.org/2000/svg">
<path d="M40.3762 105.583C50.171 111.732 53.0537 124.628 46.8095 134.362C40.5653 144.097 27.5429 147.007 17.7481 140.858C7.95336 134.708 5.07061 121.812 11.3148 112.078C17.5591 102.344 30.5815 99.4333 40.3762 105.583Z" fill="#FF9D23"/>
<path d="M121.221 4.99361C121.112 7.53993 118.938 9.52229 116.371 9.41753C113.803 9.31278 111.808 7.16031 111.917 4.61399C112.027 2.06768 114.201 0.0853183 116.768 0.190074C119.335 0.294829 121.331 2.44729 121.221 4.99361Z" fill="#FF9D23"/>
<path d="M165.104 117.681C154.676 123.068 141.753 119.02 136.266 108.646C130.778 98.2723 134.789 85.4749 145.218 80.0869C155.646 74.699 168.569 78.7472 174.057 89.1212C179.544 99.4951 175.533 112.293 165.104 117.681Z" fill="#FF9D23"/>
</svg>
