<svg width="113" height="1130" viewBox="0 0 113 1130" fill="none" xmlns="http://www.w3.org/2000/svg">
<g filter="url(#filter0_d_746_5826)">
<path d="M66.22 69.84L65.182 68.1304L64.22 68.7145V69.84H66.22ZM72.24 63.26L70.4636 62.3412L70.4573 62.3533L70.4511 62.3656L72.24 63.26ZM67.62 37.22L68.9545 35.7303L68.9458 35.7225L68.937 35.7148L67.62 37.22ZM30.1 37.64L28.7321 36.1809L28.7164 36.1956L28.7011 36.2107L30.1 37.64ZM36.54 76.84L35.6847 78.6479L38.54 79.9988V76.84H36.54ZM36.54 49.26V47.26H34.54V49.26H36.54ZM56.28 49.26H58.28V47.26H56.28V49.26ZM56.28 100.5V102.5H58.28V100.5H56.28ZM29.68 100.5L28.9202 102.35L29.2853 102.5H29.68V100.5ZM14.98 90.98L16.3328 89.5069L16.3246 89.4994L16.3163 89.4919L14.98 90.98ZM3.64 75.3L1.82019 76.1296L1.82521 76.1406L1.83037 76.1516L3.64 75.3ZM5.60001 27.28L3.86087 26.2924L3.85368 26.305L3.84666 26.3178L5.60001 27.28ZM23.38 9.64L22.4344 7.87768L22.4215 7.88459L22.4087 7.89169L23.38 9.64ZM75.46 9.64L76.4222 7.88665L76.4147 7.88255L75.46 9.64ZM93.24 27.28L91.4917 28.2513L91.4962 28.2595L91.5009 28.2677L93.24 27.28ZM90.72 84.26L89.109 83.0749L90.72 84.26ZM66.22 99.38H64.22V101.794L66.5918 101.345L66.22 99.38ZM67.258 71.5496C70.2014 69.7625 72.4646 67.2829 74.0289 64.1544L70.4511 62.3656C69.2154 64.8371 67.4652 66.7442 65.182 68.1304L67.258 71.5496ZM74.0164 64.1788C75.5928 61.1312 76.34 57.5821 76.34 53.6H72.34C72.34 57.0845 71.6872 59.9755 70.4636 62.3412L74.0164 64.1788ZM76.34 53.6C76.34 46.2179 73.9227 40.181 68.9545 35.7303L66.2855 38.7097C70.2773 42.2856 72.34 47.1688 72.34 53.6H76.34ZM68.937 35.7148C64.0024 31.3971 57.4697 29.34 49.56 29.34V33.34C56.7703 33.34 62.2776 35.2029 66.303 38.7252L68.937 35.7148ZM49.56 29.34C40.7551 29.34 33.7049 31.519 28.7321 36.1809L31.4679 39.0991C35.4551 35.361 41.3783 33.34 49.56 33.34V29.34ZM28.7011 36.2107C23.8177 40.9901 21.52 47.7827 21.52 56.26H25.52C25.52 48.4974 27.6089 42.8766 31.4989 39.0693L28.7011 36.2107ZM21.52 56.26C21.52 61.3745 22.6777 65.8794 25.0848 69.6843C27.4921 73.4893 31.0656 76.4625 35.6847 78.6479L37.3953 75.0321C33.3344 73.1108 30.3979 70.6007 28.4652 67.5457C26.5323 64.4906 25.52 60.7588 25.52 56.26H21.52ZM38.54 76.84V49.26H34.54V76.84H38.54ZM36.54 51.26H56.28V47.26H36.54V51.26ZM54.28 49.26V100.5H58.28V49.26H54.28ZM56.28 98.5H29.68V102.5H56.28V98.5ZM30.4398 98.65C25.4521 96.6014 20.7495 93.563 16.3328 89.5069L13.6272 92.4531C18.3572 96.797 23.4546 100.105 28.9202 102.35L30.4398 98.65ZM16.3163 89.4919C11.9677 85.5871 8.33855 80.5873 5.44963 74.4484L1.83037 76.1516C4.91478 82.706 8.8456 88.1596 13.6438 92.4681L16.3163 89.4919ZM5.45981 74.4704C2.70316 68.4235 1.3 61.4804 1.3 53.6H-2.7C-2.7 61.9596 -1.20982 69.4832 1.82019 76.1296L5.45981 74.4704ZM1.3 53.6C1.3 43.9976 3.33571 35.5632 7.35333 28.2422L3.84666 26.3178C-0.535706 34.3035 -2.7 43.4157 -2.7 53.6H1.3ZM7.33913 28.2677C11.4522 21.0251 17.114 15.409 24.3513 11.3883L22.4087 7.89169C14.526 12.271 8.33449 18.4149 3.86087 26.2924L7.33913 28.2677ZM24.3256 11.4023C31.6526 7.47079 40.0471 5.48 49.56 5.48V1.48C39.4729 1.48 30.4141 3.59588 22.4344 7.87768L24.3256 11.4023ZM49.56 5.48C58.9766 5.48 67.2743 7.46945 74.5053 11.3974L76.4147 7.88255C68.5257 3.59722 59.5567 1.48 49.56 1.48V5.48ZM74.4978 11.3933C81.8239 15.4138 87.4766 21.0241 91.4917 28.2513L94.9883 26.3087C90.6034 18.4159 84.4027 12.2662 76.4222 7.88667L74.4978 11.3933ZM91.5009 28.2677C95.6008 35.487 97.68 43.8644 97.68 53.46H101.68C101.68 43.2689 99.4659 34.193 94.9791 26.2924L91.5009 28.2677ZM97.68 53.46C97.68 65.5474 94.776 75.3713 89.109 83.0749L92.331 85.4451C98.6107 76.9087 101.68 66.1993 101.68 53.46H97.68ZM89.109 83.0749C83.4501 90.7674 75.7365 95.5441 65.8482 97.4149L66.5918 101.345C77.4235 99.2959 86.0432 93.9926 92.331 85.4451L89.109 83.0749ZM68.22 99.38V69.84H64.22V99.38H68.22ZM76.72 154.237H78.72V152.237H76.72V154.237ZM60.62 154.237V152.237H58.62V154.237H60.62ZM60.62 185.737V187.737H62.62V185.737H60.62ZM39.76 185.737H37.76V187.737H39.76V185.737ZM39.76 154.237H41.76V152.237H39.76V154.237ZM21.98 154.237V152.237H19.98V154.237H21.98ZM21.98 189.937V191.937H23.98V189.937H21.98ZM0 189.937H-2V191.937H0V189.937ZM0 126.797V124.797H-2V126.797H0ZM98.7 126.797H100.7V124.797H98.7V126.797ZM98.7 189.937V191.937H100.7V189.937H98.7ZM76.72 189.937H74.72V191.937H76.72V189.937ZM76.72 152.237H60.62V156.237H76.72V152.237ZM58.62 154.237V185.737H62.62V154.237H58.62ZM60.62 183.737H39.76V187.737H60.62V183.737ZM41.76 185.737V154.237H37.76V185.737H41.76ZM39.76 152.237H21.98V156.237H39.76V152.237ZM19.98 154.237V189.937H23.98V154.237H19.98ZM21.98 187.937H0V191.937H21.98V187.937ZM2 189.937V126.797H-2V189.937H2ZM0 128.797H98.7V124.797L0 124.797V128.797ZM96.7 126.797L96.7 189.937H100.7L100.7 126.797H96.7ZM98.7 187.937H76.72V191.937H98.7V187.937ZM78.72 189.937V154.237H74.72V189.937H78.72ZM98.7 291.836V293.836H100.7V291.836H98.7ZM76.86 291.836H74.86V293.836H76.86V291.836ZM76.86 265.516H78.86V263.516H76.86V265.516ZM0 265.516H-2V267.516H0V265.516ZM0 238.076V236.076H-2V238.076H0ZM76.86 238.076V240.076H78.86V238.076H76.86ZM76.86 212.036V210.036H74.86V212.036H76.86ZM98.7 212.036H100.7V210.036H98.7V212.036ZM98.7 289.836H76.86V293.836H98.7V289.836ZM78.86 291.836V265.516H74.86V291.836H78.86ZM76.86 263.516H0V267.516H76.86V263.516ZM2 265.516L2 238.076H-2L-2 265.516H2ZM0 240.076H76.86V236.076H0V240.076ZM78.86 238.076V212.036H74.86V238.076H78.86ZM76.86 214.036H98.7V210.036H76.86V214.036ZM96.7 212.036V291.836H100.7V212.036H96.7ZM98.7 384.225V386.225H100.7V384.225H98.7ZM0 384.225H-2V386.225H0V384.225ZM0 356.785V354.785H-2V356.785H0ZM98.7 356.785H100.7V354.785H98.7V356.785ZM98.7 382.225H0V386.225H98.7V382.225ZM2 384.225V356.785H-2V384.225H2ZM0 358.785H98.7V354.785H0V358.785ZM96.7 356.785V384.225H100.7V356.785H96.7ZM0 505.272H-2V507.272H0V505.272ZM0 477.832L-1.10451 476.164L-2 476.758V477.832H0ZM55.16 441.292L56.2645 442.959L61.8007 439.292H55.16V441.292ZM0 441.292H-2V443.292H0V441.292ZM0 413.852V411.852H-2V413.852H0ZM98.7 413.852H100.7V411.852H98.7V413.852ZM98.7 441.292L99.7948 442.965L100.7 442.373V441.292H98.7ZM42.84 477.832L41.7452 476.158L36.129 479.832H42.84V477.832ZM98.7 477.832H100.7V475.832H98.7V477.832ZM98.7 505.272V507.272H100.7V505.272H98.7ZM2 505.272V477.832H-2V505.272H2ZM1.10451 479.499L56.2645 442.959L54.0555 439.624L-1.10451 476.164L1.10451 479.499ZM55.16 439.292H0V443.292H55.16V439.292ZM2 441.292V413.852H-2V441.292H2ZM0 415.852H98.7V411.852H0V415.852ZM96.7 413.852V441.292H100.7V413.852H96.7ZM97.6052 439.618L41.7452 476.158L43.9348 479.505L99.7948 442.965L97.6052 439.618ZM42.84 479.832H98.7V475.832H42.84V479.832ZM96.7 477.832V505.272H100.7V477.832H96.7ZM98.7 503.272H0V507.272H98.7V503.272ZM98.7 650.039V652.039H100.7V650.039H98.7ZM76.86 650.039H74.86V652.039H76.86V650.039ZM76.86 623.719H78.86V621.719H76.86V623.719ZM0 623.719H-2V625.719H0V623.719ZM0 596.279V594.279H-2V596.279H0ZM76.86 596.279V598.279H78.86V596.279H76.86ZM76.86 570.239V568.239H74.86V570.239H76.86ZM98.7 570.239H100.7V568.239H98.7V570.239ZM98.7 648.039H76.86V652.039H98.7V648.039ZM78.86 650.039L78.86 623.719H74.86L74.86 650.039H78.86ZM76.86 621.719H0V625.719H76.86V621.719ZM2 623.719V596.279H-2V623.719H2ZM0 598.279H76.86V594.279H0V598.279ZM78.86 596.279V570.239H74.86V596.279H78.86ZM76.86 572.239H98.7V568.239H76.86V572.239ZM96.7 570.239V650.039H100.7V570.239H96.7ZM5.46001 696.032L3.71965 695.046L3.71513 695.054L3.71069 695.062L5.46001 696.032ZM23.52 677.552L22.5188 675.82L22.5064 675.827L22.4941 675.835L23.52 677.552ZM75.74 677.552L76.7568 675.829L76.7504 675.826L75.74 677.552ZM93.8 746.992L92.0557 746.013L92.0507 746.022L93.8 746.992ZM75.74 765.332L74.7387 763.6L74.7296 763.606L75.74 765.332ZM23.52 765.332L22.5096 767.058L22.5188 767.063L23.52 765.332ZM5.46001 746.992L3.71069 747.961L3.71513 747.969L3.71965 747.977L5.46001 746.992ZM31.36 738.032L32.6963 736.543L32.6878 736.536L32.6792 736.528L31.36 738.032ZM68.18 738.032L66.8608 736.528L66.8445 736.543L66.8286 736.557L68.18 738.032ZM68.18 704.852L66.8455 706.341L66.8531 706.348L66.8608 706.355L68.18 704.852ZM31.22 704.852L29.9008 703.348L29.8931 703.355L29.8855 703.362L31.22 704.852ZM1.02 721.512C1.02 712.596 3.08763 704.438 7.2093 697.001L3.71069 695.062C-0.754303 703.118 -2.98 711.948 -2.98 721.512H1.02ZM7.20035 697.017C11.416 689.572 17.1896 683.664 24.5459 679.268L22.4941 675.835C14.5437 680.586 8.27734 686.997 3.71965 695.046L7.20035 697.017ZM24.5213 679.283C31.9381 674.994 40.3142 672.832 49.7 672.832V668.832C39.6725 668.832 30.5953 671.149 22.5188 675.82L24.5213 679.283ZM49.7 672.832C59.0861 672.832 67.4113 674.994 74.7296 679.278L76.7504 675.826C68.762 671.149 59.7272 668.832 49.7 668.832V672.832ZM74.7232 679.274C82.1681 683.669 87.9329 689.571 92.0507 697.001L95.5493 695.062C91.0804 686.999 84.8053 680.581 76.7568 675.829L74.7232 679.274ZM92.0507 697.001C96.1724 704.438 98.24 712.596 98.24 721.512H102.24C102.24 711.948 100.014 703.118 95.5493 695.062L92.0507 697.001ZM98.24 721.512C98.24 730.525 96.1707 738.678 92.0557 746.013L95.5443 747.97C100.016 739.999 102.24 731.165 102.24 721.512H98.24ZM92.0507 746.022C87.935 753.448 82.1751 759.3 74.7388 763.6L76.7412 767.063C84.7983 762.403 91.0784 756.028 95.5493 747.961L92.0507 746.022ZM74.7296 763.606C67.4113 767.889 59.0861 770.052 49.7 770.052V774.052C59.7272 774.052 68.762 771.734 76.7504 767.058L74.7296 763.606ZM49.7 770.052C40.3142 770.052 31.9381 767.889 24.5213 763.6L22.5188 767.063C30.5953 771.734 39.6725 774.052 49.7 774.052V770.052ZM24.5304 763.606C17.1826 759.304 11.4139 753.447 7.20035 746.006L3.71965 747.977C8.27939 756.029 14.5507 762.399 22.5096 767.058L24.5304 763.606ZM7.2093 746.022C3.08763 738.585 1.02 730.428 1.02 721.512H-2.98C-2.98 731.076 -0.754303 739.905 3.71069 747.961L7.2093 746.022ZM22.5 721.512C22.5 728.991 24.9675 735.083 30.0408 739.535L32.6792 736.528C28.6058 732.954 26.5 728.032 26.5 721.512H22.5ZM30.0238 739.52C35.0481 744.031 41.6792 746.192 49.7 746.192V742.192C42.4141 742.192 36.8186 740.245 32.6963 736.543L30.0238 739.52ZM49.7 746.192C57.8907 746.192 64.5854 744.04 69.5315 739.506L66.8286 736.557C62.8146 740.237 57.1893 742.192 49.7 742.192V746.192ZM69.4992 739.535C74.5725 735.083 77.04 728.991 77.04 721.512H73.04C73.04 728.032 70.9342 732.954 66.8608 736.528L69.4992 739.535ZM77.04 721.512C77.04 713.948 74.5786 707.806 69.4992 703.348L66.8608 706.355C70.9281 709.924 73.04 714.889 73.04 721.512H77.04ZM69.5145 703.362C64.5677 698.93 57.8794 696.832 49.7 696.832V700.832C57.2006 700.832 62.8323 702.746 66.8455 706.341L69.5145 703.362ZM49.7 696.832C41.6044 696.832 34.93 698.935 29.9008 703.348L32.5392 706.355C36.6566 702.742 42.3022 700.832 49.7 700.832V696.832ZM29.8855 703.362C24.9054 707.823 22.5 713.961 22.5 721.512H26.5C26.5 714.875 28.5746 709.907 32.5545 706.341L29.8855 703.362ZM98.7 825.267V827.267H100.7V825.267H98.7ZM29.12 828.907L27.8348 827.375L27.8205 827.386L27.8064 827.399L29.12 828.907ZM29.12 851.587L30.437 850.082L30.4336 850.079L29.12 851.587ZM98.7 855.507H100.7V853.507H98.7V855.507ZM98.7 882.947V884.947H100.7V882.947H98.7ZM18.2 877.207L17.1673 878.92L17.1783 878.926L18.2 877.207ZM3.78 861.527L1.98096 862.401L1.98611 862.411L3.78 861.527ZM3.78 818.127L2.00731 817.201L1.99908 817.217L1.99115 817.232L3.78 818.127ZM18.2 803.287L17.2244 801.541L17.2146 801.546L17.205 801.552L18.2 803.287ZM98.7 797.967H100.7V795.967H98.7V797.967ZM98.7 823.267H41.44V827.267H98.7V823.267ZM41.44 823.267C35.8397 823.267 31.2109 824.543 27.8348 827.375L30.4052 830.439C32.8158 828.417 36.4003 827.267 41.44 827.267V823.267ZM27.8064 827.399C24.3502 830.409 22.78 834.821 22.78 840.247H26.78C26.78 835.593 28.1031 832.445 30.4336 830.415L27.8064 827.399ZM22.78 840.247C22.78 845.673 24.3502 850.085 27.8064 853.095L30.4336 850.079C28.1031 848.049 26.78 844.901 26.78 840.247H22.78ZM27.803 853.092C31.2568 856.114 35.8851 857.507 41.44 857.507V853.507C36.5415 853.507 32.9566 852.286 30.437 850.082L27.803 853.092ZM41.44 857.507H98.7V853.507H41.44V857.507ZM96.7 855.507V882.947H100.7V855.507H96.7ZM98.7 880.947H41.44V884.947H98.7V880.947ZM41.44 880.947C32.6712 880.947 25.2938 879.096 19.2216 875.487L17.1783 878.926C23.9862 882.971 32.1022 884.947 41.44 884.947V880.947ZM19.2327 875.494C13.2127 871.864 8.67076 866.925 5.57388 860.643L1.98611 862.411C5.42258 869.382 10.494 874.896 17.1673 878.92L19.2327 875.494ZM5.57901 860.653C2.55133 854.42 1.02 847.443 1.02 839.687H-2.98C-2.98 847.984 -1.338 855.568 1.98099 862.401L5.57901 860.653ZM1.02 839.687C1.02 831.93 2.55164 825.056 5.56885 819.021L1.99115 817.232C-1.3383 823.891 -2.98 831.391 -2.98 839.687H1.02ZM5.5527 819.053C8.63586 813.151 13.1665 808.479 19.195 805.022L17.205 801.552C10.5401 805.374 5.45747 810.596 2.00731 817.201L5.5527 819.053ZM19.1756 805.033C25.1566 801.69 32.5482 799.967 41.44 799.967V795.967C32.0384 795.967 23.9367 797.79 17.2244 801.541L19.1756 805.033ZM41.44 799.967H98.7V795.967H41.44V799.967ZM96.7 797.967L96.7 825.267H100.7L100.7 797.967H96.7ZM75.46 914.715L76.4056 912.953L76.3978 912.948L75.46 914.715ZM93.24 932.075L91.4968 933.055L91.5015 933.064L91.5062 933.072L93.24 932.075ZM89.74 988.915L88.1698 987.676L88.1613 987.687L89.74 988.915ZM63 1005.15H61V1007.63L63.4202 1007.11L63 1005.15ZM63 975.615L62.1419 973.808L61 974.351V975.615H63ZM71.54 968.195L69.8527 967.121L69.8455 967.132L69.8384 967.144L71.54 968.195ZM67.62 942.155L68.9035 940.621L68.9004 940.618L67.62 942.155ZM31.22 942.155L29.9552 940.606L29.938 940.62L29.921 940.634L31.22 942.155ZM27.44 968.195L29.1416 967.144L29.1345 967.132L29.1273 967.121L27.44 968.195ZM35.98 975.615H37.98V974.351L36.8381 973.808L35.98 975.615ZM35.98 1005.15L35.5598 1007.11L37.98 1007.63V1005.15H35.98ZM9.10001 988.915L7.52126 990.143L7.52979 990.154L9.10001 988.915ZM5.60001 932.075L3.86618 931.078L3.86148 931.086L3.85684 931.094L5.60001 932.075ZM23.38 914.715L22.4512 912.944L22.4382 912.95L22.4253 912.957L23.38 914.715ZM49.56 910.695C58.984 910.695 67.2878 912.641 74.5222 916.481L76.3978 912.948C68.5122 908.762 59.5493 906.695 49.56 906.695V910.695ZM74.5144 916.477C81.8379 920.407 87.4858 925.925 91.4968 933.055L94.9832 931.094C90.5942 923.292 84.3887 917.236 76.4056 912.953L74.5144 916.477ZM91.5062 933.072C95.6038 940.198 97.68 948.433 97.68 957.835H101.68C101.68 947.824 99.4628 938.885 94.9738 931.078L91.5062 933.072ZM97.68 957.835C97.68 969.777 94.4769 979.681 88.1698 987.676L91.3102 990.154C98.2565 981.348 101.68 970.533 101.68 957.835H97.68ZM88.1613 987.687C81.9421 995.683 73.4557 1000.86 62.5798 1003.2L63.4202 1007.11C75.131 1004.59 84.4713 998.947 91.3187 990.143L88.1613 987.687ZM65 1005.15V975.615H61V1005.15H65ZM63.8581 977.421C67.9005 975.501 71.0575 972.782 73.2416 969.246L69.8384 967.144C68.1025 969.954 65.5661 972.182 62.1419 973.808L63.8581 977.421ZM73.2273 969.269C75.4163 965.829 76.48 961.853 76.48 957.415H72.48C72.48 961.19 71.5837 964.401 69.8527 967.121L73.2273 969.269ZM76.48 957.415C76.48 950.52 73.9633 944.855 68.9035 940.621L66.3366 943.689C70.4234 947.108 72.48 951.617 72.48 957.415H76.48ZM68.9004 940.618C63.9658 936.506 57.447 934.555 49.56 934.555V938.555C56.793 938.555 62.3142 940.337 66.3396 943.691L68.9004 940.618ZM49.56 934.555C41.5842 934.555 34.9799 936.504 29.9552 940.606L32.4848 943.704C36.6068 940.339 42.2291 938.555 49.56 938.555V934.555ZM29.921 940.634C24.9586 944.873 22.5 950.534 22.5 957.415H26.5C26.5 951.602 28.5214 947.09 32.519 943.676L29.921 940.634ZM22.5 957.415C22.5 961.853 23.5637 965.829 25.7527 969.269L29.1273 967.121C27.3963 964.401 26.5 961.19 26.5 957.415H22.5ZM25.7384 969.246C27.9225 972.782 31.0795 975.501 35.1219 977.421L36.8381 973.808C33.4139 972.182 30.8775 969.954 29.1416 967.144L25.7384 969.246ZM33.98 975.615V1005.15H37.98V975.615H33.98ZM36.4002 1003.2C25.523 1000.86 16.9849 995.681 10.6702 987.676L7.52979 990.154C14.4685 998.949 23.8504 1004.59 35.5598 1007.11L36.4002 1003.2ZM10.6787 987.687C4.46024 979.692 1.3 969.783 1.3 957.835H-2.7C-2.7 970.526 0.673096 981.338 7.5213 990.143L10.6787 987.687ZM1.3 957.835C1.3 948.425 3.33293 940.185 7.34315 933.055L3.85684 931.094C-0.532928 938.898 -2.7 947.831 -2.7 957.835H1.3ZM7.33382 933.072C11.443 925.925 17.1001 920.402 24.3347 916.472L22.4253 912.957C14.5399 917.241 8.34369 923.291 3.86618 931.078L7.33382 933.072ZM24.3088 916.486C31.6392 912.642 40.0397 910.695 49.56 910.695V906.695C39.4803 906.695 30.4275 908.761 22.4512 912.944L24.3088 916.486ZM98.7 1120.49V1122.49H100.7V1120.49H98.7ZM0 1120.49H-2V1122.49H0V1120.49ZM0 1093.05V1091.05H-2V1093.05H0ZM39.62 1093.05V1095.05H41.62V1093.05H39.62ZM39.62 1059.59H41.62V1057.59H39.62V1059.59ZM0 1059.59H-2V1061.59H0V1059.59ZM0 1032.15V1030.15H-2V1032.15H0ZM98.7 1032.15H100.7V1030.15H98.7V1032.15ZM98.7 1059.59V1061.59H100.7V1059.59H98.7ZM61.6 1059.59V1057.59H59.6V1059.59H61.6ZM61.6 1093.05H59.6V1095.05H61.6V1093.05ZM98.7 1093.05H100.7V1091.05H98.7V1093.05ZM98.7 1118.49H0V1122.49H98.7V1118.49ZM2 1120.49V1093.05H-2V1120.49H2ZM0 1095.05H39.62V1091.05H0V1095.05ZM41.62 1093.05V1059.59H37.62V1093.05H41.62ZM39.62 1057.59H0V1061.59H39.62V1057.59ZM2 1059.59V1032.15H-2V1059.59H2ZM0 1034.15H98.7V1030.15H0V1034.15ZM96.7 1032.15V1059.59H100.7V1032.15H96.7ZM98.7 1057.59H61.6V1061.59H98.7V1057.59ZM59.6 1059.59V1093.05H63.6V1059.59H59.6ZM61.6 1095.05H98.7V1091.05H61.6V1095.05ZM96.7 1093.05V1120.49H100.7V1093.05H96.7Z" fill="#F7CB96" fill-opacity="0.5"/>
</g>
<defs>
<filter id="filter0_d_746_5826" x="-2.98047" y="0.480469" width="115.221" height="1129.01" filterUnits="userSpaceOnUse" color-interpolation-filters="sRGB">
<feFlood flood-opacity="0" result="BackgroundImageFix"/>
<feColorMatrix in="SourceAlpha" type="matrix" values="0 0 0 0 0 0 0 0 0 0 0 0 0 0 0 0 0 0 127 0" result="hardAlpha"/>
<feOffset dx="6" dy="3"/>
<feGaussianBlur stdDeviation="2"/>
<feComposite in2="hardAlpha" operator="out"/>
<feColorMatrix type="matrix" values="0 0 0 0 0.980392 0 0 0 0 0.952941 0 0 0 0 0.917647 0 0 0 1 0"/>
<feBlend mode="normal" in2="BackgroundImageFix" result="effect1_dropShadow_746_5826"/>
<feBlend mode="normal" in="SourceGraphic" in2="effect1_dropShadow_746_5826" result="shape"/>
</filter>
</defs>
</svg>
