<svg width="424" height="364" viewBox="0 0 424 364" fill="none" xmlns="http://www.w3.org/2000/svg">
<path d="M151.506 326.698C150.96 326.698 150.461 326.333 150.315 325.779C150.034 324.765 145.533 315.041 140.767 304.746C130.303 282.139 121.589 263.165 120.954 259.961C120.822 259.293 121.256 258.645 121.924 258.513C122.59 258.379 123.24 258.814 123.372 259.482C124.001 262.658 134.984 286.386 143.004 303.71C149.177 317.047 152.412 324.058 152.699 325.154C152.872 325.812 152.478 326.485 151.819 326.658C151.714 326.685 151.61 326.698 151.506 326.698Z" fill="black"/>
<path d="M151.497 270.289C151.76 271.39 152.006 272.491 152.228 273.575C140.078 291.279 126.112 312.876 116.163 329.446C115.933 329.824 115.523 330.038 115.104 330.038C114.89 330.038 114.668 329.989 114.471 329.865C113.888 329.512 113.699 328.756 114.052 328.173C124.379 310.97 139.026 288.371 151.497 270.289Z" fill="black"/>
<path d="M156.831 266.171C156.181 265.785 155.769 265.184 155.512 264.511C154.604 265.805 153.683 267.125 152.745 268.482C152.606 268.688 152.466 268.885 152.318 269.09C152.614 270.117 152.91 271.136 153.206 272.154C153.304 272.006 153.411 271.859 153.509 271.711C154.774 269.877 156.01 268.098 157.226 266.366C157.093 266.311 156.961 266.248 156.831 266.171Z" fill="black"/>
<path d="M289.47 200.459C289.053 195.117 288.636 189.775 288.218 184.434C288.29 185.354 271.77 184.876 270.458 184.99C271.418 187.408 277.918 190.116 280.151 191.846C283.5 194.438 286.623 197.323 289.47 200.459Z" fill="#CCCCCC"/>
<path d="M306.592 222.053C308.365 222.188 310.213 222.313 311.86 221.641C313.507 220.969 314.868 219.238 314.5 217.498C314.218 216.168 313.01 215.192 311.712 214.784C310.415 214.376 309.024 214.432 307.665 214.475C287.77 215.103 276.131 212.109 256.237 212.677C253.746 212.748 263.142 212.874 260.657 213.072C259.13 213.194 254.688 212.889 253.53 213.885C249.735 217.145 259.894 216.944 261.316 217.053C271.54 217.835 269.878 218.618 280.103 219.4C291.656 220.284 295.038 221.168 306.592 222.053Z" fill="#CCCCCC"/>
<path d="M371.616 186.338C361.856 186.248 211.211 184.871 200.912 184.777C200.567 184.774 200.239 184.626 200.008 184.371C199.777 184.115 199.664 183.774 199.696 183.43L211.173 60.6414C211.231 60.0229 211.74 59.544 212.361 59.5247L385.619 54.0757C385.989 54.0657 386.32 54.2084 386.563 54.4697C386.805 54.7312 386.922 55.0854 386.883 55.4396L372.841 185.238C372.773 185.864 372.244 186.338 371.616 186.338ZM202.275 182.325L370.51 183.863L384.281 56.5836L213.526 61.9535L202.275 182.325Z" fill="black"/>
<path d="M269.995 193.743C269.314 193.743 268.763 193.192 268.763 192.511V184.38C268.763 183.699 269.314 183.147 269.995 183.147C270.676 183.147 271.227 183.699 271.227 184.38V192.511C271.227 193.192 270.676 193.743 269.995 193.743Z" fill="black"/>
<path d="M289.284 209.46H269.995C269.314 209.46 268.763 208.908 268.763 208.228V200.272C268.763 199.591 269.314 199.04 269.995 199.04C270.676 199.04 271.227 199.591 271.227 200.272V206.995H288.047L287.954 185.068C287.952 184.387 288.501 183.833 289.181 183.83C289.853 183.861 290.416 184.377 290.419 185.057L290.516 208.222C290.519 208.905 289.967 209.46 289.284 209.46Z" fill="black"/>
<path d="M313.014 207.488H250.474V214.907H313.014V207.488Z" fill="black"/>
<path d="M313.013 216.139H250.473C249.793 216.139 249.241 215.588 249.241 214.907V207.488C249.241 206.807 249.793 206.256 250.473 206.256H313.013C313.694 206.256 314.246 206.807 314.246 207.488V214.907C314.246 215.588 313.694 216.139 313.013 216.139ZM251.706 213.675H311.781V208.72H251.706V213.675Z" fill="black"/>
<path d="M386.307 54.627C387.31 55.7767 388.888 57.6646 389.954 59.0513C390.238 59.4212 390.37 59.8791 390.33 60.3439C387.105 97.8474 383.177 136.88 379.962 174.364C379.746 176.879 378.867 181.168 378.511 182.238C378.326 182.795 373.989 185.99 371.466 185.953C375.888 142.363 380.068 97.5858 386.307 54.627Z" fill="black"/>
<path d="M377.462 166.89C377.45 166.89 377.438 166.89 377.426 166.89C332.495 165.63 287.215 165.33 243.426 165.039C230.187 164.952 216.926 164.864 203.621 164.751C202.941 164.745 202.394 164.188 202.399 163.508C202.405 162.831 202.956 162.286 203.632 162.286C203.635 162.286 203.638 162.286 203.642 162.286C216.945 162.399 230.205 162.488 243.443 162.575C287.245 162.866 332.537 163.166 377.495 164.426C378.176 164.445 378.712 165.012 378.693 165.693C378.674 166.361 378.126 166.89 377.462 166.89Z" fill="black"/>
<path d="M279.158 178.747C281.073 178.747 282.625 176.585 282.625 173.919C282.625 171.252 281.073 169.09 279.158 169.09C277.244 169.09 275.691 171.252 275.691 173.919C275.691 176.585 277.244 178.747 279.158 178.747Z" fill="black"/>
<path d="M279.158 179.98C276.523 179.98 274.459 177.317 274.459 173.918C274.459 170.52 276.523 167.857 279.158 167.857C281.793 167.857 283.857 170.52 283.857 173.918C283.857 177.317 281.793 179.98 279.158 179.98ZM279.158 170.322C277.968 170.322 276.924 172.003 276.924 173.918C276.924 175.834 277.968 177.515 279.158 177.515C280.348 177.515 281.392 175.834 281.392 173.918C281.392 172.003 280.348 170.322 279.158 170.322Z" fill="black"/>
<path d="M331.655 217.496H218.242C217.561 217.496 217.01 216.944 217.01 216.263C217.01 215.583 217.561 215.031 218.242 215.031H331.655C332.335 215.031 332.887 215.583 332.887 216.263C332.887 216.944 332.336 217.496 331.655 217.496Z" fill="black"/>
<path d="M328.12 335.652C328.623 336.175 329.716 336.19 330.694 336.087C334.218 335.711 337.638 334.059 340.125 331.527C343.548 328.042 345.085 322.942 344.435 318.533C344.297 317.517 344.015 316.451 343.235 315.789C341.385 314.231 336.479 315.23 333.419 320.186C331.86 322.712 331.065 325.618 330.194 328.46C329.591 330.43 328.513 332.295 327.938 334.234C327.738 334.91 327.838 335.357 328.12 335.652Z" fill="#CCCCCC"/>
<path d="M300.831 326.132C300.11 323.298 300.138 322.388 298.456 301.325C298.358 300.094 298.253 298.837 297.76 297.705C297.267 296.574 296.306 295.569 295.088 295.365C293.54 295.105 292.074 296.169 291.068 297.374C286.974 302.284 286.551 310.801 293.367 319.044C295.88 322.084 298.945 324.615 302.07 327.021L300.831 326.132Z" fill="#CCCCCC"/>
<path d="M319.506 363.082C319.412 363.082 319.318 363.072 319.223 363.05C318.561 362.894 318.15 362.231 318.305 361.569C319.39 356.939 318.472 351.79 315.576 346.264C311.026 337.511 302.723 331.086 297.404 322.233C293.485 315.712 290.938 306.031 295.542 298.419C295.895 297.837 296.652 297.65 297.235 298.002C297.817 298.355 298.004 299.112 297.651 299.695C293.614 306.369 295.967 315.058 299.516 320.964C304.71 329.609 313.004 335.977 317.76 345.124C320.937 351.185 321.928 356.908 320.704 362.131C320.571 362.699 320.065 363.082 319.506 363.082Z" fill="black"/>
<path d="M304.101 331.181C302.073 328.464 297.948 327.491 294.741 325.95C293.914 325.552 293.067 325.185 292.22 324.816C289.752 323.742 287.199 322.631 285.072 320.789C281.146 317.386 279.667 312.33 279.117 308.688C277.962 301.027 279.864 292.742 284.335 285.956C286.95 281.99 292.145 280.852 296.162 283.366C297.769 284.372 299.033 285.712 300.256 287.008L305.814 292.901C306.279 293.394 306.805 293.896 307.362 294.429C308.763 295.767 310.211 297.151 311.119 298.767C313.488 302.983 314.294 308.018 313.328 312.58C312.316 317.364 309.419 321.691 305.381 324.45C304.82 324.835 304.053 324.69 303.668 324.128C303.284 323.566 303.429 322.799 303.991 322.415C307.51 320.01 310.034 316.24 310.917 312.07C311.761 308.085 311.051 303.677 308.97 299.974C308.242 298.678 306.929 297.424 305.66 296.211C305.104 295.68 304.53 295.131 304.021 294.592C297.531 287.711 296.531 286.505 294.854 285.455C291.983 283.657 288.265 284.474 286.393 287.312C282.253 293.597 280.488 301.254 281.554 308.32C282.041 311.552 283.328 316.016 286.686 318.926C289.208 321.112 292.56 322.168 295.809 323.729C298.98 325.253 303.558 326.335 306.076 329.707C306.483 330.252 306.371 331.024 305.826 331.432C305.276 331.84 304.506 331.723 304.101 331.181Z" fill="black"/>
<path d="M311.988 362.435C311.35 362.435 310.81 361.943 310.761 361.296C310.292 355.169 312.048 349.447 315.839 344.75C317.953 342.131 320.612 340.074 323.184 338.085C324.094 337.381 325.005 336.677 325.89 335.949C330.008 332.561 332.269 329.453 333.006 326.168C333.155 325.504 333.817 325.086 334.478 325.235C335.142 325.384 335.56 326.043 335.411 326.707C334.276 331.764 330.327 335.49 327.456 337.852C326.551 338.596 325.622 339.315 324.692 340.034C322.119 342.024 319.69 343.904 317.757 346.298C314.368 350.498 312.798 355.619 313.218 361.109C313.27 361.787 312.762 362.38 312.083 362.431C312.052 362.433 312.02 362.435 311.988 362.435Z" fill="black"/>
<path d="M330.391 341.826C329.788 341.826 329.261 341.383 329.173 340.768C329.077 340.094 329.545 339.47 330.219 339.374C335.286 338.652 339.982 335.917 343.103 331.87C345.662 328.548 347.12 324.376 347.208 320.126C347.305 316.622 346.324 313.645 345.42 310.05C344.787 307.558 341.898 306.393 339.75 307.824C336.736 309.829 333.378 311.748 330.961 314.344C326.295 319.341 325.175 327.384 328.296 333.47C328.607 334.076 328.368 334.819 327.762 335.129C327.157 335.441 326.414 335.201 326.104 334.595C322.524 327.616 323.808 318.392 329.158 312.663C331.798 309.825 335.293 307.828 338.384 305.773C341.961 303.39 346.763 305.325 347.809 309.447C348.438 311.947 349.226 314.561 349.538 317.216C349.654 318.196 349.699 319.195 349.671 320.186C349.573 324.95 347.934 329.637 345.055 333.375C341.545 337.926 336.265 341.002 330.567 341.814C330.508 341.822 330.449 341.826 330.391 341.826Z" fill="black"/>
<path d="M298.054 346.422C298.099 346.422 298.136 346.432 298.18 346.434C295.95 344.64 294.459 342.736 293.695 340.669C293.459 340.031 292.751 339.705 292.112 339.941C291.474 340.177 291.147 340.886 291.384 341.525C292.221 343.789 293.727 345.86 295.936 347.782C296.266 347.015 296.966 346.422 298.054 346.422Z" fill="black"/>
<path d="M317.665 361.222C314.175 353.879 306.044 351.716 300.237 347.928C300.549 348.799 300.396 349.853 299.78 350.543C300.125 350.754 300.459 350.966 300.824 351.173C306.326 354.29 312.699 356.516 315.439 362.28C315.65 362.724 316.092 362.984 316.553 362.984C316.73 362.984 316.91 362.945 317.081 362.864C317.696 362.572 317.957 361.837 317.665 361.222Z" fill="black"/>
<path d="M304.4 346.84C302.651 341.697 299.315 337.042 295.005 333.734C291.852 331.313 288.833 330.29 286.036 330.695C282.216 331.246 278.984 334.764 278.517 338.879C278.108 342.486 279.717 346.415 282.719 349.13C285.214 351.388 288.662 352.908 292.691 353.528C294.449 353.799 296.198 353.895 297.95 353.895C299.631 353.895 301.315 353.807 303.014 353.7C304.342 354.093 305.841 353.229 305.926 350.494C305.975 348.871 304.7 347.724 304.4 346.84ZM298.548 350.004L291.387 350.323C291.265 350.329 291.1 350.336 290.907 350.336C289.981 350.336 288.409 350.168 287.81 348.818C287.678 348.52 287.629 348.23 287.586 347.974C287.493 347.419 287.56 347.286 286.3 347.098C285.996 347.053 285.692 347.006 285.412 346.93C283.792 346.494 282.632 344.901 282.712 343.226C282.718 343.101 282.757 342.987 282.812 342.884C282.677 342.968 282.525 343.027 282.352 343.021L282.239 343.017C281.785 343.004 281.429 342.625 281.442 342.172C281.456 341.718 281.842 341.343 282.288 341.375L282.417 341.38C282.87 341.397 283.223 341.779 283.205 342.233C283.2 342.361 283.16 342.477 283.102 342.584C283.241 342.496 283.398 342.436 283.573 342.444C284.026 342.467 284.376 342.852 284.354 343.305C284.311 344.197 284.977 345.112 285.839 345.344C286.701 345.576 288.181 345.461 288.884 346.667C289.234 347.268 289.173 347.835 289.312 348.152C289.535 348.654 290.524 348.719 291.314 348.682L298.475 348.363C298.92 348.34 299.312 348.693 299.332 349.147C299.352 349.6 299.001 349.984 298.548 350.004Z" fill="black"/>
<path d="M338.621 363.594H304.911C304.23 363.594 303.679 363.043 303.679 362.362C303.679 361.681 304.23 361.13 304.911 361.13H338.621C339.301 361.13 339.853 361.681 339.853 362.362C339.853 363.043 339.301 363.594 338.621 363.594Z" fill="black"/>
<path d="M166.447 323.036C166.089 319.167 165.293 313.638 164.935 309.77C165.339 314.137 185.605 311.592 187.51 313.028C183.113 317.255 172.332 321.676 166.447 323.036Z" fill="#CCCCCC"/>
<path d="M168.775 334.276C168.266 334.276 167.789 333.958 167.612 333.45C166.901 331.419 166.208 328.575 165.757 325.844C165.572 324.727 165.396 323.767 165.235 322.887C164.724 320.096 164.355 318.08 164.286 314.403C164.274 313.723 164.815 313.161 165.495 313.148C166.158 313.101 166.737 313.677 166.75 314.357C166.816 317.834 167.169 319.767 167.659 322.443C167.823 323.336 168.001 324.309 168.188 325.442C168.617 328.042 169.272 330.731 169.938 332.636C170.163 333.279 169.824 333.981 169.182 334.206C169.047 334.253 168.91 334.276 168.775 334.276Z" fill="black"/>
<path d="M175.621 333.423C175.197 333.423 174.784 333.205 174.555 332.812C173.332 330.717 172.744 328.231 172.898 325.811C172.942 325.132 173.538 324.619 174.206 324.66C174.885 324.703 175.401 325.289 175.358 325.968C175.234 327.904 175.705 329.893 176.684 331.57C177.027 332.158 176.828 332.912 176.24 333.255C176.045 333.369 175.832 333.423 175.621 333.423Z" fill="black"/>
<path d="M156.386 183.361C156.368 183.361 156.349 183.361 156.33 183.36C155.65 183.329 155.124 182.753 155.155 182.073C155.281 179.284 154.608 176.403 153.26 173.96C153.017 173.521 153.065 172.98 153.379 172.59C153.67 172.231 154.133 172.068 154.581 172.156C155.04 171.702 154.281 170.732 153.878 170.181L153.809 170.086C153.141 169.172 152.481 168.06 152.647 166.754C152.852 165.136 154.184 164.207 154.976 163.376C155.392 162.938 155.52 162.359 155.466 162.221C154.91 161.828 154.787 161.071 155.18 160.516C155.573 159.959 156.351 159.841 156.906 160.234C158.497 161.359 158.088 163.678 156.762 165.074C156.057 165.816 155.168 166.46 155.092 167.064C155.035 167.514 155.418 168.11 155.8 168.634L155.868 168.727C156.431 169.497 157.131 170.455 157.194 171.679C157.241 172.586 156.806 173.539 156.085 174.109C157.216 176.639 157.743 179.402 157.617 182.185C157.587 182.846 157.041 183.361 156.386 183.361Z" fill="black"/>
<path d="M122.96 194.451C122.288 194.344 121.83 193.713 121.937 193.041C122.056 192.291 121.925 191.51 121.57 190.841C121.251 190.24 121.479 189.494 122.08 189.174C122.681 188.855 123.428 189.084 123.747 189.684C124.351 190.824 124.573 192.153 124.371 193.427C124.263 194.105 123.626 194.557 122.96 194.451Z" fill="black"/>
<path d="M168.573 40.4634C168.149 40.4634 167.736 40.244 167.507 39.8509L164.013 33.8532C163.671 33.2651 163.87 32.5107 164.457 32.1681C165.047 31.8247 165.8 32.0244 166.143 32.6121L169.637 38.6106C169.979 39.1987 169.78 39.9532 169.192 40.2958C168.998 40.4093 168.784 40.4634 168.573 40.4634Z" fill="black"/>
<path d="M168.561 40.6563C168.049 40.6563 167.571 40.335 167.395 39.824C167.174 39.1802 167.517 38.4789 168.16 38.258L174.108 36.2158C174.753 35.9944 175.453 36.3369 175.674 36.9807C175.895 37.6245 175.552 38.3254 174.909 38.5463L168.961 40.5893C168.828 40.6346 168.694 40.6563 168.561 40.6563Z" fill="black"/>
<path d="M174.936 38.2607C174.819 38.2607 174.701 38.2439 174.584 38.209C173.931 38.0145 173.56 37.3281 173.755 36.6759L175.281 31.5598C175.476 30.908 176.16 30.5374 176.814 30.7311C177.467 30.9256 177.838 31.612 177.643 32.2642L176.117 37.3802C175.957 37.915 175.467 38.2607 174.936 38.2607Z" fill="black"/>
<path d="M183.218 34.2191C183.152 34.2191 183.085 34.2139 183.018 34.203L176.331 33.1095C175.659 32.9996 175.204 32.3662 175.313 31.6948C175.423 31.0225 176.061 30.5688 176.728 30.6771L183.416 31.7706C184.087 31.8805 184.543 32.5144 184.433 33.1858C184.334 33.7899 183.811 34.2191 183.218 34.2191Z" fill="black"/>
<path d="M182.448 40.0009C182.387 40.0009 182.326 39.9965 182.263 39.9872C181.591 39.8862 181.127 39.2588 181.228 38.5857L182.101 32.7668C182.201 32.0937 182.825 31.6281 183.502 31.7311C184.175 31.8321 184.639 32.4596 184.538 33.1326L183.665 38.9515C183.574 39.5625 183.048 40.0009 182.448 40.0009Z" fill="black"/>
<path d="M187.259 44.1223C186.899 44.1223 186.543 43.9659 186.3 43.665C185.049 42.1186 183.466 40.7969 181.722 39.843C181.125 39.5164 180.906 38.7676 181.232 38.1707C181.559 37.5734 182.307 37.3539 182.905 37.6809C184.928 38.7876 186.765 40.3211 188.216 42.115C188.644 42.644 188.562 43.4202 188.033 43.8482C187.805 44.0325 187.531 44.1223 187.259 44.1223Z" fill="black"/>
<path d="M187.496 44.112C187.11 44.112 186.73 43.9315 186.49 43.5925C186.096 43.0374 186.227 42.268 186.782 41.8745C188.574 40.6037 190.513 39.5343 192.545 38.696C193.177 38.4364 193.895 38.7361 194.155 39.365C194.414 39.9944 194.114 40.7149 193.486 40.9744C191.625 41.7418 189.849 42.7214 188.208 43.885C187.992 44.0382 187.742 44.112 187.496 44.112Z" fill="black"/>
<path d="M197.543 47.1621C197.109 47.1621 196.689 46.9327 196.464 46.5267C195.313 44.4501 193.903 42.523 192.272 40.7986C191.804 40.3044 191.826 39.5243 192.32 39.0565C192.816 38.5891 193.595 38.6109 194.062 39.105C195.836 40.9795 197.369 43.075 198.62 45.3322C198.949 45.9274 198.734 46.6776 198.139 47.0073C197.95 47.112 197.745 47.1621 197.543 47.1621Z" fill="black"/>
<path d="M192.923 51.556C192.531 51.556 192.145 51.369 191.906 51.0212C191.521 50.4605 191.663 49.6934 192.224 49.308C193.745 48.2627 195.076 46.9835 196.177 45.5057C196.584 44.9598 197.357 44.8475 197.902 45.2542C198.447 45.661 198.56 46.4332 198.153 46.9787C196.89 48.6739 195.364 50.1408 193.62 51.3394C193.407 51.4858 193.163 51.556 192.923 51.556Z" fill="black"/>
<path d="M193.165 56.4726C192.531 56.4726 191.992 55.9869 191.938 55.3443L191.56 50.8753C191.503 50.1969 192.006 49.6009 192.684 49.5435C193.366 49.4794 193.958 49.99 194.016 50.6676L194.394 55.1366C194.451 55.8149 193.948 56.4109 193.27 56.4683C193.235 56.4714 193.199 56.4726 193.165 56.4726Z" fill="black"/>
<path d="M198.939 58.2453C198.755 58.2453 198.569 58.2039 198.393 58.1165C197.231 57.5409 195.615 57.1573 194.189 56.8192C193.815 56.7305 193.452 56.6442 193.106 56.5573C192.446 56.3916 192.045 55.7217 192.211 55.0618C192.377 54.4019 193.048 54.0017 193.707 54.1672C194.042 54.2515 194.395 54.3353 194.758 54.4212C196.312 54.7899 198.074 55.2078 199.487 55.9086C200.097 56.2106 200.346 56.9499 200.044 57.5597C199.829 57.9938 199.392 58.2453 198.939 58.2453Z" fill="black"/>
<path d="M197.616 65.8505C197.544 65.8505 197.471 65.8441 197.398 65.8308C196.728 65.7113 196.282 65.0714 196.401 64.4016C196.553 63.548 196.682 62.6944 196.814 61.8288C197.041 60.3306 197.275 58.781 197.642 57.1259C197.789 56.4616 198.446 56.0432 199.111 56.1892C199.776 56.336 200.195 56.9942 200.048 57.6586C199.7 59.2326 199.471 60.7401 199.251 62.1977C199.116 63.085 198.983 63.9595 198.827 64.834C198.721 65.431 198.201 65.8505 197.616 65.8505Z" fill="black"/>
<path d="M197.33 66.1359C197.293 66.1359 197.256 66.1343 197.218 66.1311C195.195 65.9481 193.431 65.6357 191.128 65.0524C190.469 64.8851 190.069 64.2148 190.236 63.5554C190.404 62.8955 191.076 62.4984 191.733 62.6633C193.902 63.2124 195.555 63.5061 197.439 63.6761C198.117 63.7375 198.617 64.3368 198.556 65.0142C198.498 65.6545 197.961 66.1359 197.33 66.1359Z" fill="black"/>
<path d="M187.543 69.0187C187.156 69.0187 186.775 68.837 186.535 68.4964C186.143 67.94 186.276 67.1715 186.832 66.7792C188.62 65.5188 189.794 64.3251 190.422 63.1293C190.738 62.5268 191.483 62.295 192.086 62.6111C192.688 62.9276 192.92 63.6725 192.604 64.275C191.79 65.8245 190.367 67.3028 188.252 68.7937C188.036 68.9457 187.788 69.0187 187.543 69.0187Z" fill="black"/>
<path d="M190.267 75.453C189.74 75.453 189.253 75.1129 189.09 74.5837C188.429 72.4413 187.577 70.3434 186.559 68.3481C186.25 67.7417 186.49 66.9995 187.096 66.6903C187.703 66.3818 188.444 66.6213 188.754 67.2274C189.836 69.349 190.742 71.5792 191.445 73.8568C191.645 74.5071 191.281 75.197 190.631 75.3975C190.509 75.435 190.387 75.453 190.267 75.453Z" fill="black"/>
<path d="M184.469 78.7525C183.979 78.7525 183.516 78.4581 183.324 77.9751C183.073 77.3425 183.381 76.6261 184.014 76.3746C186.003 75.5835 187.869 74.5162 189.559 73.2012C190.096 72.7832 190.87 72.8798 191.288 73.4174C191.706 73.9546 191.609 74.7287 191.072 75.1468C189.198 76.6045 187.129 77.7882 184.924 78.6651C184.775 78.7243 184.621 78.7525 184.469 78.7525Z" fill="black"/>
<path d="M184.489 78.7745C184.116 78.7745 183.747 78.6057 183.505 78.2847L180.129 73.8138C179.719 73.2706 179.827 72.4977 180.37 72.0877C180.912 71.6782 181.685 71.7848 182.096 72.3288L185.472 76.7997C185.882 77.3428 185.774 78.1154 185.231 78.5258C185.008 78.6936 184.748 78.7745 184.489 78.7745Z" fill="black"/>
<path d="M175.146 75.331C174.519 75.331 173.983 74.8549 173.921 74.2179C173.855 73.5404 174.351 72.9379 175.028 72.8721C176.433 72.7357 177.509 72.5295 178.872 72.268C179.422 72.1625 180.014 72.049 180.688 71.9282C181.357 71.8063 181.998 72.2535 182.119 72.9238C182.239 73.5937 181.793 74.2343 181.123 74.3543C180.46 74.473 179.877 74.5849 179.336 74.6884C177.911 74.962 176.785 75.1778 175.267 75.3254C175.226 75.329 175.186 75.331 175.146 75.331Z" fill="black"/>
<path d="M172.891 81.0436C172.742 81.0436 172.59 81.0164 172.442 80.9582C171.808 80.7099 171.496 79.9951 171.744 79.3613L174.016 73.5662C174.264 72.9329 174.979 72.6175 175.613 72.8686C176.246 73.117 176.558 73.8318 176.31 74.4655L174.039 80.2606C173.848 80.7464 173.384 81.0436 172.891 81.0436Z" fill="black"/>
<path d="M172.938 81.1465C172.889 81.1465 172.839 81.1437 172.789 81.1377C170.849 80.9034 169.64 80.5556 167.966 80.0743C167.375 79.9047 166.713 79.7141 165.92 79.4995C165.263 79.3218 164.875 78.6455 165.053 77.9884C165.231 77.3313 165.909 76.9443 166.564 77.1208C167.371 77.339 168.046 77.5328 168.647 77.706C170.327 78.1886 171.34 78.4801 173.084 78.6908C173.76 78.7727 174.241 79.3863 174.16 80.0619C174.084 80.6877 173.552 81.1465 172.938 81.1465Z" fill="black"/>
<path d="M166.196 79.5485C166.152 79.5485 166.108 79.5466 166.064 79.5418C165.387 79.4695 164.897 78.8627 164.969 78.1859L165.607 72.1766C165.679 71.4995 166.291 71.0097 166.963 71.0811C167.639 71.153 168.13 71.7598 168.058 72.4366L167.42 78.4467C167.352 79.0791 166.818 79.5485 166.196 79.5485Z" fill="black"/>
<path d="M166.954 73.6921C166.666 73.6921 166.377 73.5915 166.143 73.3868C165.438 72.7699 164.708 72.1221 163.978 71.4742C163.252 70.8299 162.525 70.1858 161.825 69.572C161.313 69.1235 161.261 68.345 161.71 67.8332C162.159 67.3213 162.937 67.2704 163.448 67.718C164.153 68.3349 164.883 68.9828 165.613 69.6307C166.34 70.2749 167.066 70.9191 167.767 71.5329C168.278 71.9813 168.33 72.7599 167.882 73.2717C167.638 73.5497 167.297 73.6921 166.954 73.6921Z" fill="black"/>
<path d="M156.768 73.2392C156.323 73.2392 155.893 72.9977 155.674 72.5761C155.359 71.9724 155.594 71.2284 156.197 70.9138C158.146 69.8981 160.08 68.7959 161.947 67.6361C162.526 67.2783 163.285 67.4552 163.644 68.0328C164.003 68.6113 163.825 69.3711 163.247 69.73C161.328 70.9217 159.339 72.0554 157.336 73.0991C157.154 73.1942 156.96 73.2392 156.768 73.2392Z" fill="black"/>
<path d="M156.466 73.2437C156.165 73.2437 155.864 73.1342 155.626 72.9132C153.702 71.1197 152.111 69.0279 150.896 66.6965C150.582 66.0928 150.816 65.3487 151.42 65.0342C152.026 64.7193 152.768 64.9552 153.082 65.558C154.166 67.6402 155.587 69.5083 157.306 71.1096C157.804 71.5737 157.832 72.3535 157.368 72.8513C157.125 73.1121 156.796 73.2437 156.466 73.2437Z" fill="black"/>
<path d="M152.019 67.4629C151.648 67.4629 151.281 67.296 151.039 66.9779C150.626 66.4371 150.73 65.6638 151.271 65.251L156.841 61.0003C157.382 60.5867 158.155 60.6906 158.568 61.2325C158.981 61.7732 158.877 62.5466 158.336 62.9593L152.766 67.2101C152.543 67.3806 152.28 67.4629 152.019 67.4629Z" fill="black"/>
<path d="M157.461 63.2938C156.909 63.2938 156.407 62.9203 156.266 62.3608C156.04 61.4575 155.756 60.5028 155.481 59.579C155.198 58.6283 154.905 57.6451 154.665 56.6872C154.5 56.0269 154.901 55.3578 155.561 55.1921C156.221 55.0249 156.89 55.428 157.056 56.0879C157.283 56.9937 157.568 57.9507 157.843 58.8762C158.125 59.8249 158.417 60.8056 158.657 61.7615C158.823 62.4214 158.422 63.0909 157.762 63.2565C157.661 63.2818 157.56 63.2938 157.461 63.2938Z" fill="black"/>
<path d="M155.932 57.6366C155.813 57.6366 155.691 57.619 155.571 57.5825L149.835 55.83C149.185 55.631 148.818 54.9423 149.017 54.2912C149.216 53.6406 149.902 53.2744 150.556 53.4729L156.292 55.2255C156.942 55.4244 157.309 56.1132 157.11 56.7642C156.948 57.2949 156.46 57.6366 155.932 57.6366Z" fill="black"/>
<path d="M150.046 55.7168C149.931 55.7168 149.814 55.7004 149.698 55.6667C149.045 55.4749 148.671 54.7898 148.863 54.1372L150.876 47.2798C151.068 46.6272 151.751 46.2537 152.406 46.4443C153.059 46.6361 153.433 47.3208 153.241 47.9738L151.228 54.8311C151.07 55.3682 150.579 55.7168 150.046 55.7168Z" fill="black"/>
<path d="M156.274 49.4732C154.743 49.4732 153.208 49.2903 151.734 48.9273C151.073 48.7644 150.669 48.0969 150.832 47.4358C150.994 46.7755 151.661 46.3713 152.323 46.5341C154.386 47.0424 156.587 47.1454 158.688 46.8313C159.36 46.7299 159.989 47.1948 160.089 47.8679C160.19 48.541 159.725 49.1683 159.052 49.2686C158.138 49.4054 157.206 49.4732 156.274 49.4732Z" fill="black"/>
<path d="M158.862 49.2039C158.641 49.2039 158.418 49.1446 158.216 49.0202C157.637 48.6624 157.457 47.9035 157.815 47.3242L160.616 42.7882C160.974 42.2086 161.734 42.0297 162.312 42.3871C162.891 42.7449 163.071 43.5042 162.713 44.0831L159.912 48.6191C159.679 48.9965 159.275 49.2039 158.862 49.2039Z" fill="black"/>
<path d="M161.674 44.5169C161.244 44.5169 160.825 44.2907 160.599 43.8888L157.322 38.0684C156.988 37.4755 157.198 36.7238 157.791 36.39C158.384 36.0563 159.135 36.2665 159.469 36.8594L162.747 42.6798C163.081 43.2727 162.871 44.024 162.278 44.3581C162.087 44.4656 161.879 44.5169 161.674 44.5169Z" fill="black"/>
<path d="M158.41 38.6192C157.966 38.6192 157.537 38.3789 157.317 37.9589C157.001 37.3564 157.233 36.6115 157.836 36.2954C158.928 35.7221 159.969 35.0514 161.072 34.3414C162.171 33.6334 163.308 32.901 164.497 32.2772C165.1 31.9607 165.845 32.1934 166.161 32.7958C166.477 33.3983 166.245 34.1432 165.642 34.4593C164.55 35.0325 163.509 35.7033 162.406 36.4132C161.307 37.1213 160.17 37.8537 158.981 38.4775C158.798 38.5734 158.602 38.6192 158.41 38.6192Z" fill="black"/>
<path d="M183.973 62.3708C180.986 66.2484 175.307 67.7502 170.788 65.8776C166.279 63.9918 163.35 58.8798 164.014 54.0468C164.688 49.2006 168.895 45.0572 173.747 44.5133C177.403 44.0976 179.869 44.856 183.101 47.6402L184.341 48.8865C187.265 52.7929 186.973 58.5044 183.973 62.3708Z" fill="black"/>
<path d="M415.072 270.218C396.147 266.136 376.426 265.778 357.366 269.17C355.799 269.449 354.179 269.752 352.634 269.371C351.09 268.989 349.64 267.709 349.623 266.118C349.607 264.592 350.917 263.309 352.371 262.845C353.825 262.381 355.395 262.552 356.911 262.727C373.152 264.604 389.393 266.482 405.633 268.359L415.072 270.218Z" fill="#CCCCCC"/>
<path d="M357.952 272.224C355.304 272.207 352.557 272.151 350.077 271.09C347.324 269.914 345.002 266.998 346.343 264.404C347.643 261.886 351.282 261.572 354.308 261.592C374.026 261.677 395.418 266.107 415.049 268.041C415.726 268.108 416.221 268.711 416.154 269.388C416.088 270.066 415.479 270.558 414.807 270.494C395.113 268.553 373.802 264.141 354.297 264.056C350.969 264.013 349.047 264.539 348.532 265.535C348.481 265.635 348.324 265.939 348.521 266.488C348.84 267.376 349.855 268.315 351.046 268.824C353.16 269.729 355.71 269.745 357.96 269.76C358.641 269.764 359.189 270.32 359.185 271C359.18 271.678 358.629 272.224 357.952 272.224Z" fill="black"/>
<path d="M346.988 266.556C346.307 266.541 345.768 265.977 345.783 265.297C346.065 252.015 346.229 239.438 348.491 226.496C349.093 223.065 349.925 219.51 352.84 217.05C356.122 214.269 361.443 213.136 366.704 212.325C370.802 211.697 374.803 211.168 378.597 210.751C379.273 210.681 379.882 211.165 379.956 211.842C380.031 212.518 379.542 213.126 378.866 213.201C375.107 213.614 371.141 214.139 367.078 214.761C362.176 215.516 357.249 216.545 354.431 218.932C352.143 220.863 351.464 223.813 350.918 226.921C348.683 239.716 348.525 252.264 348.246 265.351C348.232 266.022 347.627 266.584 346.988 266.556Z" fill="black"/>
<path d="M416.928 254.129C416.252 254.054 415.763 253.445 415.838 252.769C417.289 239.623 418.605 224.198 420.425 212.352C409.854 211.498 399.125 211.502 387.675 212.363C387.002 212.421 386.405 211.905 386.354 211.227C386.303 210.548 386.812 209.957 387.491 209.906C399.55 208.999 410.824 209.032 421.955 210.008C422.296 210.038 422.61 210.208 422.82 210.478C423.03 210.748 423.119 211.093 423.064 211.431C421.142 223.408 419.836 239.024 418.288 253.039C418.212 253.727 417.59 254.204 416.928 254.129Z" fill="black"/>
<path d="M414.931 270.498C414.866 270.498 414.8 270.493 414.734 270.482C414.062 270.374 413.605 269.742 413.713 269.07C414.246 265.751 414.757 262.027 415.276 257.684C415.356 257.008 415.975 256.524 416.645 256.607C417.321 256.688 417.803 257.301 417.723 257.976C417.2 262.352 416.685 266.108 416.146 269.461C416.049 270.066 415.526 270.498 414.931 270.498Z" fill="black"/>
<path d="M358.501 272.22C357.833 272.086 357.4 271.437 357.533 270.77C357.954 268.658 358.416 264.991 358.854 262.792C358.988 262.124 359.635 261.693 360.304 261.824C360.972 261.958 361.405 262.607 361.272 263.274C360.848 265.395 360.388 269.053 359.95 271.252C359.818 271.912 359.176 272.353 358.501 272.22Z" fill="black"/>
<path d="M359.049 270.968C356.437 271.499 353.747 270.765 351.206 269.959C350.062 269.596 348.895 269.201 347.971 268.437C347.046 267.672 346.405 266.449 346.661 265.277C346.901 264.178 347.876 263.359 348.938 262.988C350.292 262.515 350.755 262.616 361.329 262.66C359.949 263.842 359.691 264.126 359.48 265.948C359.426 266.413 359.275 270.921 359.049 270.968Z" fill="black"/>
<path d="M411.946 217.507C413.384 217.778 414.009 219.886 412.996 220.942C411.983 221.997 409.918 221.537 409.387 220.174C408.856 218.811 409.976 217.112 411.434 216.993" fill="black"/>
<path d="M411.543 222.754C411.302 222.754 411.057 222.73 410.811 222.681C409.61 222.442 408.648 221.672 408.239 220.621C407.85 219.622 407.98 218.485 408.596 217.501C409.22 216.502 410.244 215.853 411.334 215.764C411.826 215.727 412.272 215.978 412.502 216.378C413.448 216.678 414.218 217.471 414.552 218.517C414.934 219.712 414.678 220.968 413.885 221.795C413.288 222.417 412.446 222.754 411.543 222.754ZM411.085 218.388C410.933 218.49 410.793 218.634 410.685 218.808C410.489 219.121 410.433 219.464 410.535 219.726C410.635 219.981 410.932 220.192 411.292 220.264C411.555 220.316 411.906 220.297 412.107 220.088C412.268 219.919 412.308 219.59 412.205 219.267C412.132 219.042 411.962 218.764 411.718 218.717C411.47 218.671 411.253 218.552 411.085 218.388Z" fill="black"/>
<path d="M401.238 216.344C402.676 216.615 403.301 218.723 402.288 219.778C401.275 220.834 399.21 220.374 398.679 219.011C398.148 217.648 399.268 215.949 400.726 215.83" fill="black"/>
<path d="M400.835 221.592C400.594 221.592 400.349 221.568 400.103 221.519C398.901 221.279 397.94 220.509 397.531 219.458C397.142 218.46 397.272 217.322 397.888 216.338C398.512 215.34 399.536 214.691 400.626 214.602C401.114 214.561 401.563 214.816 401.794 215.215C402.74 215.516 403.51 216.309 403.844 217.354C404.226 218.549 403.97 219.805 403.177 220.632C402.58 221.254 401.738 221.592 400.835 221.592ZM400.377 217.226C400.225 217.328 400.086 217.472 399.977 217.645C399.781 217.958 399.725 218.302 399.827 218.563C399.927 218.819 400.224 219.03 400.585 219.101C400.845 219.154 401.197 219.135 401.399 218.925C401.561 218.757 401.6 218.427 401.497 218.105C401.424 217.88 401.254 217.601 401.009 217.555C400.761 217.508 400.545 217.39 400.377 217.226Z" fill="black"/>
<path d="M390.248 215.896C391.686 216.168 392.311 218.276 391.298 219.331C390.285 220.386 388.22 219.927 387.689 218.563C387.158 217.2 388.278 215.501 389.736 215.383" fill="black"/>
<path d="M389.845 221.144C389.604 221.144 389.359 221.119 389.113 221.071C387.912 220.831 386.95 220.061 386.541 219.01C386.152 218.012 386.282 216.875 386.898 215.89C387.522 214.892 388.546 214.243 389.636 214.154C390.127 214.112 390.574 214.368 390.804 214.767C391.75 215.068 392.52 215.861 392.854 216.906C393.236 218.101 392.981 219.357 392.187 220.184C391.59 220.806 390.748 221.144 389.845 221.144ZM389.387 216.777C389.235 216.88 389.096 217.024 388.987 217.197C388.791 217.511 388.735 217.854 388.837 218.116C388.936 218.371 389.234 218.582 389.595 218.653C389.857 218.707 390.208 218.687 390.409 218.477C390.571 218.309 390.61 217.98 390.507 217.657C390.435 217.432 390.264 217.153 390.019 217.107C389.772 217.06 389.555 216.942 389.387 216.777Z" fill="black"/>
<path d="M408.88 233.447L394.297 232.651C393.618 232.614 393.096 232.033 393.134 231.354C393.171 230.674 393.766 230.144 394.431 230.19L409.014 230.986C409.694 231.023 410.215 231.604 410.177 232.284C410.139 232.982 409.529 233.492 408.88 233.447Z" fill="black"/>
<path d="M406.914 244.29L397.34 243.767C396.66 243.731 396.139 243.15 396.177 242.47C396.214 241.79 396.804 241.258 397.474 241.307L407.048 241.83C407.728 241.866 408.249 242.447 408.211 243.127C408.173 243.826 407.563 244.336 406.914 244.29Z" fill="black"/>
<path d="M407.059 253.961L391.889 253.133C391.21 253.096 390.689 252.515 390.726 251.835C390.764 251.156 391.359 250.631 392.024 250.672L407.194 251.501C407.873 251.537 408.394 252.118 408.357 252.798C408.318 253.499 407.707 254.006 407.059 253.961Z" fill="black"/>
<path d="M363.453 251.181C363.287 242.678 363.122 234.175 362.956 225.673C369.621 229.852 377.238 233.918 383.904 238.098C377.823 242.494 369.533 246.784 363.453 251.181Z" fill="black"/>
<path d="M377.069 43.9791C377.584 44.078 378.01 43.602 377.854 43.1015C376.93 40.1219 376.927 35.5014 374.609 36.2358C362.734 37.2793 349.692 37.6467 337.912 35.8191C334.557 35.2986 326.391 36.2457 331.607 40.2557C334.422 42.4192 343.192 41.7132 346.738 42.0589C352.022 42.5738 357.311 43.0394 362.603 43.4554C364.36 43.5938 373.462 43.2855 377.069 43.9791Z" fill="#CCCCCC"/>
<path d="M277.103 55.7121C276.842 55.7121 276.58 55.6299 276.356 55.4599C275.815 55.0471 275.711 54.2738 276.124 53.7326L293.664 30.731C293.883 30.4442 294.217 30.2673 294.578 30.248L326.019 28.5428C326.69 28.497 327.279 29.0266 327.315 29.7065C327.352 30.3859 326.831 30.9668 326.152 31.0034L295.279 32.6781L278.083 55.2273C277.841 55.5453 277.474 55.7121 277.103 55.7121Z" fill="black"/>
<path d="M376.544 16.5646C376.529 16.2241 376.374 15.9051 376.115 15.6829C375.856 15.4612 375.517 15.3564 375.179 15.3929L329.022 20.4323C328.376 20.5029 327.896 21.062 327.924 21.7106L328.663 38.7844C328.691 39.433 329.218 39.9485 329.867 39.9629L376.288 40.9943C376.297 40.9946 376.306 40.9946 376.315 40.9946C376.646 40.9946 376.963 40.8614 377.195 40.6244C377.434 40.3809 377.561 40.0496 377.546 39.709L376.544 16.5646ZM338.998 32.731C338.409 33.0796 337.725 33.2517 337.038 33.2517C336.19 33.2517 335.337 32.9906 334.649 32.4779C332.989 31.2405 332.782 28.9111 333.431 27.3475C334.07 25.806 335.464 24.9912 337.067 25.2303C338.841 25.4906 340.337 26.9728 340.703 28.8344C341.022 30.4526 340.385 31.9091 338.998 32.731ZM357.643 31.9849L350.143 32.3094C350.131 32.3098 350.119 32.3102 350.107 32.3102C349.67 32.3102 349.306 31.9652 349.287 31.5243C349.267 31.0711 349.619 30.6876 350.072 30.6679L357.571 30.3434C358.042 30.3282 358.408 30.6756 358.428 31.1285C358.447 31.5818 358.096 31.9652 357.643 31.9849ZM370.184 26.7851L345.863 27.8384C345.851 27.8388 345.839 27.8392 345.827 27.8392C345.39 27.8392 345.026 27.4943 345.007 27.0534C344.987 26.6001 345.339 26.2166 345.792 26.197L370.113 25.1436C370.598 25.1347 370.95 25.4762 370.969 25.9287C370.989 26.3819 370.638 26.7654 370.184 26.7851Z" fill="black"/>
<path d="M39.9811 175.029C39.2911 175.442 38.5235 175.87 37.7307 175.736C36.2868 175.492 35.798 173.658 35.8454 172.195C35.8928 170.731 36.0796 169.039 35.0244 168.024C35.8251 168.797 45.7869 165.572 47.069 165.279C49.8039 164.654 53.7332 162.933 56.0055 165.187C51.5286 169.135 45.1605 171.933 39.9811 175.029Z" fill="#CCCCCC"/>
<path d="M120.746 163.451C123.173 164.726 124.81 167.584 124.244 170.266C123.834 172.216 122.38 173.888 122.28 175.879C122.195 177.561 122.203 179.05 122.46 180.715C123.021 184.353 120.426 187.268 117.107 188.861C113.788 190.454 110.769 191.241 107.088 191.323C106.401 190.417 106.879 189.024 107.78 188.331C109.634 186.907 113.128 187.567 116.04 185.483C117.507 184.433 118.55 182.605 118.178 180.84C117.99 179.948 118.794 178.832 118.736 177.922C118.591 175.629 118.512 173.7 118.62 171.405C118.711 169.452 118.25 168.56 116.305 168.355C113.565 168.067 107.983 171.69 109.224 166.611C110.258 162.377 117.646 161.822 120.746 163.451Z" fill="#CCCCCC"/>
<path d="M225.585 277.714C226.522 275.679 227.459 273.643 228.397 271.608C229.585 269.029 230.772 266.449 231.96 263.87C232.38 262.958 232.901 261.954 233.858 261.652C235.155 261.243 236.392 262.33 237.4 263.244C240.535 266.083 242.104 268.438 238.6 271.91C236.264 274.224 226.578 275.558 225.585 277.714Z" fill="#CCCCCC"/>
<path d="M48.7766 197.472C45.1746 197.589 41.1926 197.225 38.6677 194.653C35.6717 191.602 35.8922 186.736 36.3134 182.48C37.3902 186.446 38.8468 190.883 42.5661 192.629C44.7345 193.646 47.2459 193.509 49.6336 193.318C57.0586 192.725 64.4233 191.305 71.8187 190.713C70.5171 196.267 53.5124 197.318 48.7766 197.472Z" fill="#CCCCCC"/>
<path d="M93.9133 162.011C94.5099 165.069 95.0837 168.276 94.1713 171.254C95.8336 165.828 103.572 157.948 99.7002 151.92C94.1902 143.342 93.2481 158.602 93.9133 162.011Z" fill="#CCCCCC"/>
<path d="M105.578 204.884C105.519 199.098 106.481 193.557 106.124 187.924C106.081 187.245 106.597 186.66 107.276 186.617C107.953 186.571 108.541 187.09 108.584 187.769C108.923 193.123 108.153 198.079 108.051 203.294C127.443 198.51 146.82 194.936 164.265 192.926C164.618 178.932 164.97 164.933 165.33 150.939C145.945 152.294 126.12 153.047 106.751 154.411C106.822 158.694 107.009 163.324 107.333 168.78C109.551 167.929 112.596 167.09 115.233 166.899C116.503 166.806 118.027 167.216 118.935 167.893C120.228 168.896 120.098 170.721 118.974 171.883C118.501 172.372 117.721 172.385 117.231 171.912C116.742 171.439 116.729 170.658 117.203 170.169C117.333 170.035 117.382 169.894 117.394 169.82C117.002 169.562 116.113 169.308 115.411 169.357C111.473 169.641 107.583 171.362 106.583 171.684C105.817 171.931 105.025 171.389 104.975 170.589C104.553 163.85 104.33 158.349 104.271 153.279C104.263 152.627 104.764 152.082 105.415 152.036C125.612 150.584 146.341 149.827 166.509 148.385C167.253 148.34 167.847 148.929 167.828 149.646C167.457 164.111 167.092 178.583 166.727 193.049L166.702 194.06C166.686 194.675 166.219 195.185 165.607 195.253C147.535 197.279 127.306 201.018 107.109 206.067C106.339 206.261 105.586 205.682 105.578 204.884Z" fill="black"/>
<path d="M151.308 261.154L151.283 263.068C150.248 259.478 149.114 255.938 148.014 252.627L148.819 252.635C149.624 255.395 150.462 258.254 151.308 261.154Z" fill="black"/>
<path d="M152.491 260.818C151.825 258.509 151.16 256.234 150.511 254.016L150.001 252.29C149.845 251.773 149.377 251.411 148.835 251.403L147.603 251.387C148.008 252.654 149.656 257.426 151.283 263.069C151.685 264.473 152.08 265.895 152.441 267.308C152.458 267.25 152.466 267.201 152.466 267.143L152.54 261.171C152.54 261.056 152.523 260.933 152.491 260.818Z" fill="black"/>
<path d="M27.8177 249.817L53.7858 250.162L53.564 267.077L27.5959 266.741C26.914 266.732 26.3718 266.174 26.38 265.492L26.569 251.041C26.5772 250.713 26.7086 250.401 26.9386 250.171C27.1769 249.941 27.4727 249.826 27.8177 249.817Z" fill="black"/>
<path d="M151.012 268.359L55.207 267.102L55.4206 250.672C55.5363 250.673 128.262 251.363 128.133 251.362C128.355 251.362 128.544 251.28 128.692 251.14L145.853 251.362C147.316 255.666 148.818 260.322 150.035 264.695C150.265 265.5 150.487 266.305 150.692 267.118C150.807 267.529 150.914 267.94 151.012 268.359Z" fill="black"/>
<path d="M44.9624 194.955C43.4782 194.955 42.0337 194.754 40.7514 194.104C38.5411 192.985 37.5496 190.901 36.8075 188.815C34.7004 182.893 33.1576 175.112 32.7814 168.51C32.7424 167.831 33.2619 167.248 33.9414 167.21C34.6325 167.175 35.2029 167.691 35.2418 168.37C35.6057 174.755 37.095 182.272 39.1291 187.989C39.8078 189.895 40.5022 191.216 41.8649 191.906C43.4121 192.69 45.6062 192.533 47.7198 192.306C58.276 191.17 68.9766 189.316 76.3437 187.344C77.0027 187.17 77.6767 187.559 77.8527 188.216C78.0284 188.874 77.6381 189.549 76.9807 189.725C69.4983 191.727 58.6582 193.608 47.9837 194.756C46.9837 194.864 45.964 194.955 44.9624 194.955Z" fill="black"/>
<path d="M64.853 216.989C55.1541 216.989 45.1764 215.445 35.3037 212.321C34.8112 212.165 34.4682 211.718 34.4445 211.202C34.063 202.823 33.6125 184.201 34.1111 178.48L34.1283 178.298C34.215 177.623 34.8271 177.147 35.5074 177.233C36.1785 177.319 36.6542 177.93 36.574 178.6C36.5717 178.63 36.5628 178.727 36.5608 178.744C36.093 184.122 36.4986 201.555 36.8684 210.228C61.4236 217.77 86.5597 215.308 105.953 203.43C106.533 203.076 107.292 203.256 107.648 203.838C108.003 204.418 107.82 205.177 107.24 205.532C94.85 213.12 80.2027 216.988 64.853 216.989Z" fill="black"/>
<path d="M94.789 170.334C94.1095 170.293 93.5925 169.709 93.6342 169.03C93.9563 163.755 95.1292 154.842 95.447 149.644C95.4883 148.965 96.088 148.449 96.7518 148.49C97.4313 148.531 97.9483 149.115 97.9066 149.794C97.5845 155.069 96.4116 163.982 96.0939 169.179C96.0525 169.861 95.4648 170.377 94.789 170.334Z" fill="black"/>
<path d="M106.001 128.097C105.696 128.097 105.391 127.985 105.152 127.758C103.591 126.274 101.903 124.849 100.136 123.525C97.9391 121.865 95.5941 120.339 93.1628 118.986C91.0116 117.771 88.7172 116.649 86.3356 115.649C85.7079 115.386 85.413 114.663 85.6766 114.036C85.9397 113.408 86.6646 113.113 87.2895 113.377C89.7597 114.414 92.1412 115.578 94.3678 116.837C96.8918 118.24 99.3338 119.83 101.619 121.556C103.458 122.935 105.22 124.421 106.851 125.972C107.344 126.441 107.363 127.221 106.894 127.714C106.653 127.969 106.327 128.097 106.001 128.097Z" fill="black"/>
<path d="M119.156 152.965C118.488 152.835 118.052 152.188 118.182 151.52C118.326 150.784 118.351 148.761 118.496 147.689C116.044 141.216 112.388 135.349 107.626 130.245C107.162 129.747 107.189 128.967 107.687 128.503C108.184 128.038 108.964 128.066 109.428 128.563C114.487 133.986 118.353 140.234 120.919 147.133C120.999 147.345 121.017 147.576 120.974 147.798C120.813 148.619 120.806 150.941 120.601 151.992C120.486 152.58 119.824 153.096 119.156 152.965Z" fill="black"/>
<path d="M102.348 175.91C102.221 175.241 102.66 174.596 103.328 174.469C108.382 173.507 112.937 172.202 116.78 170.797C117.417 170.563 118.127 170.891 118.36 171.531C118.594 172.17 118.265 172.878 117.626 173.112C113.64 174.57 108.946 175.909 103.789 176.89C103.115 177.019 102.474 176.572 102.348 175.91Z" fill="black"/>
<path d="M62.6837 176.824C61.9428 176.824 61.1931 176.742 60.4727 176.489C58.1377 175.662 56.899 173.294 57.2392 170.309C57.3587 169.293 57.3122 167.904 57.2668 166.559C57.2311 165.497 57.1942 164.398 57.2336 163.415C57.2612 162.735 57.8437 162.219 58.5144 162.233C59.1947 162.26 59.7238 162.834 59.6966 163.514C59.6605 164.406 59.6958 165.459 59.7302 166.477C59.7783 167.912 59.8281 169.397 59.6873 170.593C59.6107 171.267 59.498 173.529 61.2939 174.165C62.1691 174.474 63.3906 174.344 64.4688 174.232L64.598 174.218C72.0209 173.415 79.443 172.613 86.866 171.818C89.3069 171.555 91.6856 170.626 93.7442 169.13C95.4667 167.878 97.2609 166.794 99.1603 165.647C100.793 164.663 101.68 163.996 102.939 163.816C104.163 163.656 105.597 164.137 105.996 165.374C106.423 166.788 105.251 167.913 104.81 168.336L103.358 169.76C104.256 169.595 105.14 169.443 105.999 169.297C106.67 169.188 107.306 169.635 107.42 170.307C107.534 170.978 107.082 171.614 106.411 171.727C104.292 172.086 102.024 172.488 99.7937 173.002C98.5905 173.28 97.7679 171.794 98.6529 170.922C103.934 165.739 103.233 166.441 103.404 166.248C102.732 166.254 101.798 166.929 100.434 167.756C98.5815 168.876 96.8309 169.933 95.1935 171.124C92.7867 172.872 89.9981 173.959 87.1292 174.268C79.7067 175.064 72.285 175.865 64.8629 176.668L64.7302 176.682C64.0781 176.751 63.385 176.824 62.6837 176.824Z" fill="black"/>
<path d="M101.38 180.821C101.241 180.154 101.669 179.502 102.335 179.363C107.104 178.371 111.489 177.113 115.74 175.518C116.438 175.256 117.05 175.009 117.47 174.64C117.783 174.365 117.927 174.015 117.881 173.849C117.8 173.557 117.639 173.248 117.511 173.065C117.046 173.094 116.581 172.836 116.355 172.389C116.048 171.782 116.292 171.04 116.899 170.733C117.387 170.487 117.936 170.474 118.445 170.699C119.688 171.249 120.202 172.995 120.256 173.192C120.569 174.323 120.125 175.586 119.098 176.49C118.366 177.134 117.501 177.49 116.606 177.826C112.235 179.466 107.732 180.757 102.837 181.776C102.157 181.915 101.516 181.477 101.38 180.821Z" fill="black"/>
<path d="M103.273 183.994C103.173 183.321 103.637 182.694 104.31 182.594C109.28 181.851 111.553 181.318 116.087 179.43C116.489 179.263 117.127 178.398 117.337 178.114C117.379 178.042 117.433 177.784 117.371 177.622C117.358 177.587 117.343 177.548 117.214 177.508C116.563 177.31 116.197 176.622 116.395 175.97C116.593 175.319 117.281 174.951 117.933 175.151C118.806 175.417 119.438 176.024 119.715 176.859C120.06 177.9 119.765 178.974 119.32 179.577C118.669 180.459 117.941 181.328 117.034 181.705C112.294 183.679 109.791 184.267 104.674 185.031C104.004 185.131 103.374 184.67 103.273 183.994Z" fill="black"/>
<path d="M82.7911 189.26C82.1345 189.448 81.4534 189.073 81.264 188.42C81.0743 187.767 81.4502 187.083 82.1036 186.893C88.9167 184.915 91.5339 187.326 98.1207 187.145C104.977 186.982 110.333 187.068 116.038 183.32C116.353 183.101 116.922 181.94 116.899 181.391C116.381 181.127 116.107 180.524 116.277 179.945C116.8 178.173 119.907 179.179 119.288 182.162C119.053 183.296 118.327 184.765 117.392 185.379C111.134 189.491 105.579 189.433 98.1897 189.609C95.6489 189.681 88.909 187.483 82.7911 189.26Z" fill="black"/>
<path d="M28.7382 171.039C28.4679 171.039 28.2015 170.95 27.9825 170.78C27.666 170.535 27.4887 170.15 27.5072 169.75C27.8782 161.696 29.141 153.544 31.2606 145.522C31.4346 144.865 32.1118 144.472 32.7669 144.646C33.4247 144.819 33.817 145.494 33.6433 146.152C31.7211 153.427 30.5189 160.809 30.0637 168.121C41.6338 164.686 53.2201 162.257 64.5436 160.891C64.8156 159.542 65.0371 158.158 65.2521 156.813C65.5188 155.146 65.7944 153.422 66.1691 151.736C66.3166 151.071 66.9769 150.653 67.6392 150.8C68.3035 150.948 68.7227 151.606 68.575 152.271C68.2164 153.885 67.9464 155.571 67.6856 157.202C67.4193 158.869 67.1437 160.592 66.769 162.278C66.6551 162.791 66.2291 163.175 65.7076 163.235C53.7029 164.626 41.3859 167.234 29.0981 170.986C28.9801 171.022 28.859 171.039 28.7382 171.039Z" fill="black"/>
<path d="M34.2837 140.817C34.1589 140.817 34.0322 140.798 33.9067 140.757C33.2588 140.55 32.9022 139.856 33.11 139.207C34.3186 135.44 35.7598 131.608 37.3928 127.818C38.6388 124.932 40.0908 121.919 42.9064 119.595C45.9826 117.055 50.3173 115.667 54.5095 114.325C56.2348 113.773 58.0186 113.202 59.6588 112.566C62.007 111.654 63.7294 110.736 65.0792 109.677C65.5501 109.307 66.2189 109.33 66.6641 109.73C69.3481 112.145 72.4548 114.639 75.4597 117.05C77.9126 119.019 80.4326 121.041 82.7567 123.047C82.9974 121.879 83.2858 120.703 83.5682 119.551C84.0043 117.771 84.4551 115.93 84.7002 114.226C84.7027 114.207 84.705 114.189 84.707 114.173C84.776 113.526 85.3488 113.042 85.9962 113.073C86.6761 113.108 87.1985 113.688 87.1631 114.367C87.1612 114.407 87.1527 114.481 87.1455 114.53C87.144 114.544 87.1423 114.558 87.1403 114.573C86.8784 116.397 86.4122 118.298 85.9618 120.137C85.5149 121.961 85.0529 123.847 84.8105 125.593C84.7476 126.044 84.4407 126.425 84.0123 126.581C83.5843 126.737 83.1037 126.644 82.7652 126.338C80.0655 123.906 76.9399 121.398 73.9175 118.972C71.1589 116.759 68.3153 114.477 65.7645 112.229C64.3706 113.184 62.6863 114.034 60.5506 114.863C58.8406 115.527 57.021 116.109 55.2609 116.672C51.2913 117.943 47.1862 119.257 44.4757 121.496C42.0829 123.471 40.7825 126.184 39.6557 128.795C38.0544 132.511 36.6412 136.268 35.4567 139.961C35.2889 140.483 34.8048 140.817 34.2837 140.817Z" fill="black"/>
<path d="M85.9178 115.727C85.9162 115.727 85.9143 115.727 85.9126 115.727C85.2319 115.724 84.6827 115.17 84.6856 114.49L84.7161 107.442C84.7189 106.763 85.27 106.215 85.9483 106.215C85.9499 106.215 85.952 106.215 85.9535 106.215C86.6343 106.218 87.1834 106.772 87.1806 107.452L87.1501 114.5C87.1473 115.179 86.5961 115.727 85.9178 115.727Z" fill="black"/>
<path d="M53.6328 181.413C53.358 181.413 53.0816 181.321 52.8525 181.133C52.3263 180.702 52.2492 179.926 52.6805 179.399L57.3969 173.644C57.8282 173.117 58.6039 173.04 59.1311 173.472C59.6574 173.903 59.7348 174.68 59.3031 175.206L54.5867 180.961C54.3432 181.259 53.9894 181.413 53.6328 181.413Z" fill="black"/>
<path d="M41.7768 183.545C41.4624 183.545 41.1478 183.425 40.9076 183.186C40.056 182.338 39.8233 181.017 40.2132 179.912C39.1065 178.616 38.6669 176.779 39.139 175.12C39.3255 174.465 40.0083 174.086 40.6617 174.272C41.316 174.458 41.6958 175.14 41.5097 175.795C41.2189 176.817 41.6441 178.065 42.4985 178.697C42.7861 178.91 42.9671 179.236 42.9947 179.592C43.0224 179.949 42.8941 180.3 42.6429 180.554C42.4375 180.762 42.4391 181.233 42.6461 181.439C43.1286 181.919 43.1303 182.7 42.6502 183.182C42.4094 183.424 42.0933 183.545 41.7768 183.545Z" fill="black"/>
<path d="M132.217 152.302C131.619 151.977 131.398 151.229 131.723 150.631C134.457 145.602 137.387 141.153 141.818 132.006C142.115 131.393 142.853 131.138 143.464 131.434C144.077 131.731 144.333 132.468 144.036 133.08C139.727 141.974 136.248 147.467 133.888 151.808C133.665 152.219 132.818 152.628 132.217 152.302Z" fill="black"/>
<path d="M156.66 150.874C156.064 150.546 155.846 149.797 156.174 149.201L160.044 142.158C160.371 141.562 161.12 141.344 161.718 141.672C162.314 142 162.532 142.749 162.204 143.346L158.334 150.388C158.006 150.984 157.258 151.202 156.66 150.874Z" fill="black"/>
<path d="M153.457 131.568C152.467 130.59 152.449 128.545 152.679 127.408C152.901 126.306 153.468 125.26 154.559 125.001C155.538 124.714 156.735 124.886 157.895 125.052C158.447 125.132 159.03 125.221 159.36 125.203C160.696 125.16 162.267 124.61 162.539 123.677C162.706 123.097 162.274 122.439 161.772 122.046C161.039 121.475 159.973 121.151 158.942 120.837C156.97 120.236 155.058 119.743 153.322 120.307C152.823 120.47 152.254 120.785 151.676 121.22C150.799 121.866 149.964 122.682 149.261 123.396C148.263 124.401 147.187 126.23 146.242 127.909C146.19 128.141 146.08 128.393 145.913 128.665C145.271 129.71 143.659 129.27 143.631 128.047C143.605 127.569 143.866 127.106 143.982 126.899C145.079 124.942 146.256 122.923 147.508 121.663C148.275 120.884 149.199 119.984 150.205 119.243C150.999 118.645 151.795 118.213 152.56 117.964C154.973 117.178 157.391 117.788 159.66 118.48C160.847 118.84 162.193 119.25 163.288 120.103C164.7 121.207 165.334 122.879 164.906 124.364C164.226 126.692 161.536 127.597 159.438 127.666C158.233 127.704 156.066 127.138 155.268 127.361C154.964 127.815 154.921 129.41 155.219 129.848C155.703 130.326 155.693 131.09 155.215 131.574C154.735 132.058 153.941 132.047 153.457 131.568Z" fill="black"/>
<path d="M160.26 143.631C159.775 143.154 159.768 142.374 160.245 141.888C164.061 138.006 165.415 136.449 170.128 131.139C170.836 130.345 171.637 129.446 171.86 128.54C172.004 127.961 171.805 127.239 171.282 127.085C170.846 126.956 170.181 127.157 169.58 127.593C167.725 128.948 167.193 129.242 165.673 130.904L165.338 131.276C164.913 131.747 164.77 132.25 164.876 132.451C164.919 132.484 165.111 132.522 165.215 132.501C165.588 131.971 166.314 131.817 166.873 132.165C167.451 132.525 167.627 133.285 167.268 133.863C166.818 134.586 165.996 135.008 165.047 134.969C162.424 134.883 161.413 131.943 163.5 129.634C164.104 128.978 164.698 128.279 165.568 127.539C166.302 126.904 167.268 126.221 168.135 125.597C169.386 124.69 170.785 124.371 171.975 124.72C173.943 125.298 174.678 127.417 174.252 129.132C173.813 130.912 172.393 132.304 171.011 133.857C167.057 138.312 165.577 139.979 162.003 143.616C161.527 144.1 160.746 144.109 160.26 143.631Z" fill="black"/>
<path d="M159.448 131.429C157.899 129.725 159.461 126.502 161.069 125.167C161.592 124.732 162.37 124.805 162.804 125.328C163.239 125.852 163.167 126.629 162.643 127.063C161.773 127.785 161.105 129.398 161.286 129.791C161.912 130.455 163.409 129.826 163.939 129.135C164.353 128.594 165.126 128.492 165.666 128.905C166.207 129.319 166.31 130.092 165.896 130.633C165.07 131.712 163.585 132.476 162.201 132.535C161.183 132.585 160.171 132.223 159.448 131.429Z" fill="black"/>
<path d="M170.576 126.776C170.05 126.37 169.943 125.624 170.324 125.088C170.389 124.855 170.262 124.172 170.047 123.802C169.83 123.432 168.786 122.593 168.389 122.524C167.756 122.563 167.265 122.118 167.164 121.49C167.085 120.989 166.938 120.707 166.279 120.355C165.42 119.897 163.996 119.605 163.453 119.78C162.954 119.941 162.405 119.767 162.09 119.346C161.774 118.925 161.761 118.35 162.055 117.915C164.878 113.751 167.845 109.317 170.366 104.914C170.769 104.209 171.11 103.578 171.195 102.988C171.248 102.621 171.173 102.164 170.887 101.971C170.531 101.732 169.788 101.813 169.197 102.157C168.156 102.763 168.441 102.614 155.179 119.409C154.758 119.943 153.982 120.034 153.448 119.613C152.914 119.191 152.823 118.416 153.245 117.882L165.392 102.499C166.029 101.692 166.822 100.688 167.956 100.027C169.146 99.3354 170.938 99.0358 172.262 99.9263C173.311 100.631 173.837 101.94 173.634 103.34C173.487 104.36 173.016 105.245 172.504 106.139C170.315 109.962 167.811 113.786 165.352 117.44C167.064 117.815 168.783 118.629 169.385 120.266C170.619 120.75 171.833 121.971 172.178 122.563C172.627 123.337 173.25 125.331 172.304 126.555C171.887 127.094 171.114 127.191 170.576 126.776Z" fill="black"/>
<path d="M160.824 126.954C160.399 126.422 160.486 125.646 161.018 125.222C161.808 124.592 166.642 120.821 167.394 120.22C167.926 119.796 168.702 119.883 169.125 120.415C169.55 120.947 169.463 121.722 168.931 122.147C168.552 122.449 167.143 123.552 165.734 124.655C164.333 125.751 162.932 126.847 162.555 127.148C162.023 127.573 161.247 127.485 160.824 126.954Z" fill="black"/>
<path d="M65.2497 105.804C65.1971 105.804 65.1442 105.801 65.0904 105.794C64.4152 105.707 63.9387 105.089 64.0258 104.414C64.1911 103.133 64.4803 101.97 64.7867 100.738C65.0743 99.581 65.3949 98.2918 65.674 96.6672C64.439 95.7968 63.8588 94.6437 63.1899 93.3338C62.0651 91.1452 62.2292 88.6169 63.6179 86.7356C65.1839 84.6136 68.3279 83.5214 70.7756 84.2478C73.7069 85.119 74.9004 88.6585 72.7031 90.7858C72.2133 91.2592 71.4335 91.2463 70.9606 90.7578C70.4872 90.2688 70.4997 89.4887 70.9886 89.0153C71.8128 88.2172 71.1947 86.9437 70.0736 86.6105C68.6063 86.1757 66.5577 86.9026 65.6009 88.1991C64.7594 89.3391 64.6775 90.8373 65.3815 92.2076C65.9903 93.3994 66.427 94.3832 67.5553 94.9212C68.0455 95.1551 68.3247 95.6818 68.2432 96.2185C67.9191 98.3529 67.5256 99.9358 67.1782 101.333C66.877 102.544 66.617 103.59 66.4702 104.729C66.3901 105.351 65.8598 105.804 65.2497 105.804Z" fill="black"/>
<path d="M67.0213 86.0231C66.6722 84.014 66.3202 81.99 66.4684 79.9366C66.6152 77.8759 67.2874 75.7579 68.8097 74.0247C70.7955 71.7633 74.0222 70.3927 77.2553 69.7952C80.5416 69.1949 85.2571 71.4955 87.9129 69.1714C91.1704 66.3014 94.4316 64.0563 98.7256 63.4489C103.082 62.8299 107.778 64.2142 110.359 67.3947C112.938 70.5678 112.931 75.5222 109.904 78.5328C108.122 80.3094 105.455 81.2938 102.884 81.1248C100.313 80.9557 97.9138 79.6334 96.5598 77.6609C96.9035 78.1607 94.0803 79.751 93.6964 79.8264C91.0769 80.3416 91.2225 80.1852 89.7413 80.1059C86.2909 79.9104 82.9581 79.845 79.5697 79.185C79.0806 83.0919 75.5624 87.4641 72.0828 90.3566C72.9744 89.5187 72.7037 88.4889 71.9844 87.4993C71.265 86.5096 68.0935 85.4336 67.0213 86.0231Z" fill="black"/>
<path d="M71.1594 91.1729C70.7186 90.6739 70.7535 89.9146 71.2388 89.4584C71.3825 89.3236 71.6228 89.0978 70.9874 88.2241C70.5597 87.6606 68.2087 86.8956 67.5893 87.1154C67.2411 87.306 66.8332 87.312 66.475 87.1399C66.1159 86.9674 65.8753 86.6265 65.8071 86.2341C65.4496 84.1783 65.0803 82.0527 65.2391 79.8481C65.7033 73.3264 70.5566 69.7797 77.0315 68.5836C80.4966 67.9505 85.0161 70.0702 87.1015 68.2438C90.5368 65.218 94.0014 62.8727 98.553 62.2289C103.564 61.5173 108.574 63.239 111.315 66.6181C114.402 70.416 114.164 76.0334 110.773 79.4065C106.966 83.2015 100.443 83.4555 96.5678 79.5871C95.5586 80.3537 94.2404 80.9754 93.9344 81.0356L93.7607 81.0697C91.231 81.5751 91.524 81.4258 87.8949 81.243C85.4962 81.1219 83.0268 80.9975 80.5462 80.6076C79.4988 84.6365 76.0067 88.6972 72.8706 91.3042C72.3608 91.7284 71.603 91.6735 71.1594 91.1729ZM68.0338 84.632C69.897 84.6882 72.2424 85.7588 72.9809 86.7748C73.1506 87.0079 73.2919 87.2333 73.4086 87.4503C75.764 85.0318 77.989 81.8914 78.3469 79.0318C78.4352 78.3214 79.1085 77.84 79.805 77.9756C83.6548 78.7252 87.835 78.7115 90.4931 78.9232C91.2124 78.9809 91.5112 79.0066 93.285 78.6516L93.3901 78.6307C93.7816 78.4714 94.9079 77.806 95.3524 77.4145C95.5679 76.3604 96.9555 76.062 97.575 76.9624C97.5758 76.9632 97.5762 76.9644 97.577 76.9652C98.7198 78.6291 100.784 79.7518 102.965 79.8954C105.181 80.037 107.505 79.1843 109.034 77.6599C111.498 75.209 111.663 70.953 109.402 68.172C107.194 65.4499 103.07 64.0761 98.8988 64.6689C94.8708 65.2384 91.7719 67.4143 88.7277 70.0957C85.5422 72.8847 80.4964 70.4532 77.4768 71.0075C74.1081 71.6296 71.358 72.9903 69.7354 74.838C68.2348 76.5464 67.7988 78.6014 67.6973 80.0241C67.5874 81.5497 67.7759 83.0636 68.0338 84.632ZM95.5401 78.3523C95.5413 78.3547 95.5429 78.3567 95.5445 78.3591C95.5441 78.3587 95.5441 78.3583 95.5437 78.3579C95.5426 78.3563 95.5413 78.3544 95.5401 78.3523Z" fill="black"/>
<path d="M87.8514 107.202C86.0511 107.202 84.2605 106.687 82.8485 105.908C79.8645 104.261 77.763 101.515 75.9089 99.0925C75.4954 98.5521 75.5984 97.7787 76.1387 97.3648C76.6799 96.9521 77.4528 97.0548 77.8664 97.5947C79.5732 99.825 81.5074 102.352 84.0398 103.75C86.2083 104.947 89.4037 105.255 91.3143 103.527C92.6128 102.354 93.1953 100.427 93.7091 98.727C95.5302 92.7052 97.4131 86.4785 98.3506 80.1848C98.4508 79.5121 99.0787 79.0456 99.751 79.1478C100.424 79.2477 100.888 79.8747 100.788 80.5481C99.8244 87.0196 97.915 93.3338 96.0682 99.4402C95.4917 101.348 94.7738 103.723 92.9666 105.356C91.5089 106.673 89.6753 107.202 87.8514 107.202Z" fill="black"/>
<path d="M88.9812 100.774C87.4352 100.774 85.9033 99.8003 85.3629 98.317C85.1299 97.6775 85.4593 96.97 86.0986 96.7373C86.738 96.5034 87.4456 96.8335 87.6783 97.473C87.8949 98.0686 88.7249 98.463 89.3245 98.254C89.966 98.0305 90.6696 98.3691 90.8938 99.0121C91.1176 99.6547 90.7783 100.357 90.1357 100.581C89.7605 100.712 89.3702 100.774 88.9812 100.774Z" fill="black"/>
<path d="M89.8612 95.9022L87.9242 94.5183C87.3703 94.1228 87.2423 93.3531 87.6382 92.7995C88.0333 92.246 88.803 92.1172 89.3571 92.5135L89.7261 92.7771C90.0479 91.0543 90.3262 89.7164 91.1891 87.617C91.4479 86.9876 92.1691 86.6884 92.7972 86.9459C93.4266 87.2046 93.727 87.9247 93.4683 88.554C92.429 91.082 92.3437 92.3416 91.7864 95.1401C91.6117 96.0157 90.5892 96.4224 89.8612 95.9022Z" fill="black"/>
<path d="M239.494 291.781C239.134 291.781 238.77 291.754 238.402 291.693C235.444 291.194 233.437 288.777 231.788 286.55C229.862 283.936 227.937 281.331 226.004 278.719C225.6 278.172 225.715 277.4 226.262 276.995C226.809 276.59 227.58 276.706 227.986 277.253C229.919 279.867 231.845 282.472 233.77 285.086C235.194 287.008 236.757 288.916 238.808 289.262C240.254 289.501 241.775 288.919 243.088 288.355C248.718 285.946 257.995 280.659 261.984 277.188C263.549 275.825 265.081 274.31 265.684 272.47C266.199 270.921 265.915 268.803 264.38 267.742C263.116 266.867 261.395 266.911 260.174 267.101C258.662 267.329 256.92 267.618 255.282 268.167C246.144 271.216 238.664 269.208 235.273 262.793C234.955 262.191 235.185 261.446 235.786 261.128C236.389 260.809 237.134 261.039 237.452 261.641C238.787 264.166 243.121 269.627 254.501 265.83C256.324 265.219 258.192 264.908 259.799 264.665C261.458 264.407 263.85 264.376 265.782 265.715C268.053 267.285 268.976 270.381 268.024 273.243C267.237 275.645 265.433 277.452 263.602 279.047C259.322 282.771 249.868 288.135 244.059 290.62C242.627 291.234 241.098 291.781 239.494 291.781Z" fill="black"/>
<path d="M183.469 340.487C179.144 340.487 175.015 340.236 171.795 337.956C171.421 337.694 171.044 337.384 170.68 337.037C170.188 336.568 170.168 335.788 170.638 335.295C171.107 334.801 171.887 334.783 172.38 335.252C172.655 335.514 172.936 335.746 173.214 335.941C175.967 337.89 179.876 338.043 183.959 338.022L194.97 338.001C198.837 337.996 202.244 337.853 204.775 336.156C206.023 335.321 207.154 333.825 206.868 332.365C206.644 331.225 205.557 330.111 203.886 329.31C202.907 328.846 201.842 328.518 200.714 328.17C199.989 327.947 199.24 327.716 198.504 327.443C191.135 324.735 187.11 320.07 186.543 313.58C186.484 312.903 186.986 312.305 187.664 312.246C188.349 312.187 188.939 312.689 188.998 313.366C189.481 318.898 192.87 322.747 199.358 325.131C200.032 325.381 200.716 325.592 201.44 325.815C202.601 326.173 203.801 326.543 204.946 327.085C206.35 327.758 208.772 329.273 209.286 331.891C209.729 334.153 208.497 336.631 206.146 338.203C202.789 340.455 198.272 340.461 194.973 340.465L183.965 340.486C183.8 340.487 183.634 340.487 183.469 340.487Z" fill="black"/>
<path d="M138.784 178.277C142.228 178.089 144.914 175.985 144.782 173.577C144.651 171.169 141.752 169.369 138.308 169.557C134.863 169.745 132.178 171.85 132.309 174.258C132.441 176.665 135.339 178.465 138.784 178.277Z" fill="black"/>
<path d="M193.279 293.571C192.137 285.685 190.641 277.848 188.81 270.092C187.848 265.295 186.895 260.612 185.984 256.266C176.939 246.458 166.76 238.407 156.853 233.272C154.848 232.237 152.704 231.243 150.535 231.44C147.923 231.687 145.302 235.121 143.322 238.078C143.979 240.403 144.694 242.9 145.491 245.62C145.606 245.718 145.705 245.841 145.754 245.997C146.337 247.681 146.962 249.497 147.602 251.387C147.734 251.797 147.873 252.208 148.013 252.627C149.114 255.938 150.248 259.479 151.283 263.069C151.685 264.473 152.08 265.895 152.441 267.308C152.54 267.702 152.646 268.088 152.745 268.482C153.016 269.559 153.271 270.635 153.509 271.711C153.871 273.362 154.191 274.997 154.454 276.599C158.29 290.302 161.601 303.282 163.137 312.976C163.228 313.534 163.671 313.953 164.23 314.011C167.294 314.331 170.605 314.487 174.154 314.487C180.447 314.487 187.479 313.994 195.193 313C195.521 312.959 195.817 312.795 196.022 312.532C196.22 312.269 196.302 311.932 196.261 311.612C195.587 306.847 194.527 300.538 193.279 293.571ZM161.634 266.806C161.256 267.118 160.788 267.275 160.278 267.275C160.139 267.275 159.991 267.266 159.843 267.242C159.079 267.102 158.397 266.642 158.011 265.993C157.92 265.853 157.847 265.706 157.797 265.549C157.444 264.687 157.485 263.619 157.912 262.559C158.167 261.91 158.52 261.343 158.857 260.785C159.021 260.53 159.177 260.275 159.325 260.004C159.613 259.487 159.547 259.331 159.547 259.331C159.514 259.281 159.416 259.224 159.292 259.175C159.21 259.134 159.12 259.101 159.046 259.068C158.726 258.944 158.323 258.78 157.994 258.468C157.033 257.531 157.419 256.217 157.707 255.256C157.929 254.484 158.077 253.917 157.847 253.703C157.612 253.484 156.832 253.5 156.203 253.21C154.938 252.652 154.454 251.239 154.528 250.089C154.61 248.98 155.103 248.018 155.538 247.172C155.743 246.77 156.245 246.614 156.647 246.819C157.05 247.024 157.206 247.517 157 247.92C156.614 248.667 156.22 249.431 156.171 250.195C156.13 250.779 156.36 251.485 156.869 251.707C157.025 251.781 157.239 251.822 157.46 251.863C157.92 251.953 158.496 252.068 158.964 252.504C159.958 253.424 159.563 254.755 159.276 255.716C159.054 256.496 158.906 257.063 159.136 257.285C159.235 257.375 159.449 257.466 159.654 257.548C160.073 257.712 160.656 257.942 160.985 258.534C161.009 258.575 161.026 258.616 161.042 258.665C161.322 259.265 161.223 259.98 160.763 260.809C160.599 261.097 160.426 261.376 160.254 261.647C159.941 262.165 159.637 262.649 159.432 263.167C159.416 263.208 159.399 263.249 159.391 263.29C159.128 264.005 159.144 264.695 159.416 265.147C159.555 265.385 159.835 265.574 160.13 265.623C160.262 265.648 160.459 265.648 160.599 265.533C160.952 265.246 161.469 265.303 161.757 265.656C162.044 266.01 161.987 266.527 161.634 266.806ZM177.44 296.192C177.382 296.208 177.325 296.208 177.267 296.208C176.889 296.208 176.544 295.946 176.462 295.559L171.295 271.563C171.196 271.119 171.484 270.684 171.927 270.585C172.363 270.495 172.806 270.774 172.897 271.218L178.072 295.214C178.163 295.658 177.883 296.102 177.44 296.192ZM189.039 287.656C188.957 287.862 188.851 288.084 188.736 288.297C188.629 288.494 188.456 288.823 188.464 288.938C188.703 289.324 188.571 289.825 188.185 290.055C188.054 290.137 187.914 290.178 187.766 290.178C187.487 290.178 187.216 290.039 187.06 289.776C186.534 288.93 186.986 288.084 187.282 287.525C187.364 287.369 187.446 287.213 187.512 287.065C187.692 286.58 187.553 285.898 187.093 285.052C187.002 284.888 186.912 284.724 186.822 284.568C186.427 283.877 185.975 283.105 185.852 282.202C185.745 281.413 185.959 280.575 186.435 279.967C186.813 279.482 187.331 279.178 187.906 279.113C188.349 279.055 188.76 279.384 188.818 279.836C188.867 280.279 188.547 280.69 188.095 280.739C187.963 280.756 187.84 280.838 187.733 280.978C187.536 281.232 187.429 281.635 187.479 281.98C187.561 282.563 187.889 283.138 188.243 283.746C188.341 283.919 188.44 284.091 188.538 284.264C189.253 285.578 189.417 286.687 189.039 287.656Z" fill="black"/>
<path d="M62.4772 250.737C63.3347 251.315 64.5119 252.044 65.6811 252.651C65.8702 252.74 66.0394 252.791 66.2479 252.791H66.3136C67.2651 252.735 67.8211 251.645 67.2501 250.852C73.6156 253.605 80.3004 254.346 87.3772 254.787C98.2442 255.467 109.913 255.166 120.262 251.772C120.188 251.928 120.156 252.092 120.156 252.257C120.135 252.855 120.583 253.415 121.232 253.506C121.505 253.54 121.794 253.48 122.045 253.317C122.571 252.988 123.088 252.651 123.598 252.306C124.083 251.986 124.518 251.657 124.986 251.329L62.4772 250.737ZM240.36 256.29C214.055 230.1 174.171 204.091 158.25 194.126C157.674 193.765 156.91 193.938 156.549 194.513C156.385 194.784 156.335 195.088 156.385 195.383C151.981 194.784 145.804 195.835 141.778 196.295C140.488 196.435 139.19 196.616 137.901 196.821C131.115 197.905 124.485 199.762 117.963 201.89C115.958 202.547 113.937 203.459 111.891 203.952C110.98 204.174 109.994 204.157 109.066 204.354C107.259 204.728 105.445 205.421 103.717 206.433C102.978 206.868 102.362 207.435 101.557 207.731C100.974 207.936 100.366 208.035 99.7824 208.24C98.8623 208.561 97.9504 208.881 97.0303 209.193C95.223 209.801 93.4157 210.401 91.6002 210.976C75.4163 216.078 57.4251 219.002 41.726 212.783C41.6684 212.586 41.6109 212.397 41.5617 212.2C41.3891 211.543 40.7155 211.148 40.0582 211.313C39.401 211.485 39.0066 212.159 39.1792 212.816C41.0687 220.152 43.944 227.217 47.7148 233.798C51.4855 240.37 55.6013 245.406 60.2182 249.07L127.279 249.71C133.937 244.862 135.101 243.642 140.341 239.614C142.648 236.202 146.08 230.215 150.38 229.805C152.992 229.559 155.481 230.717 157.609 231.818C168.839 237.626 180.39 247.123 190.313 258.649C200.221 266.412 210.786 275.424 221.983 285.685C222.213 285.89 222.509 286.005 222.813 286.005C222.87 286.005 222.919 286.005 222.977 285.997C223.338 285.948 223.659 285.742 223.856 285.438C226.715 280.945 229.508 276.196 232.219 271.596C234.913 267.02 237.698 262.28 240.533 257.827C240.845 257.342 240.771 256.701 240.36 256.29ZM51.7811 231.193C51.6907 231.226 51.5921 231.242 51.5018 231.242C51.165 231.242 50.8528 231.037 50.7295 230.7L49.2837 226.691C49.1358 226.264 49.3494 225.796 49.7766 225.64C50.2037 225.492 50.6802 225.714 50.8281 226.141L52.274 230.141C52.4301 230.569 52.2083 231.045 51.7811 231.193ZM58.3532 227.283C58.2299 227.348 58.0903 227.381 57.9589 227.381C57.6714 227.381 57.3839 227.233 57.2359 226.962L55.3054 223.438C55.0835 223.036 55.2314 222.534 55.6257 222.321C56.0282 222.099 56.5212 222.247 56.743 222.641L58.6735 226.166C58.8955 226.568 58.7476 227.061 58.3532 227.283ZM112.179 226.995C104.21 230.117 95.5925 231.694 86.9995 231.694C81.8732 231.694 76.7552 231.136 71.7768 230.002C71.3331 229.895 71.0538 229.46 71.1607 229.016C71.2592 228.573 71.7029 228.293 72.1383 228.4C85.151 231.366 99.158 230.322 111.587 225.467C112.006 225.303 112.483 225.508 112.647 225.936C112.812 226.354 112.606 226.831 112.179 226.995ZM145.795 202.588C143.766 202.44 141.688 203.064 140.078 204.288C139.93 204.395 139.749 204.453 139.577 204.453C139.33 204.453 139.084 204.338 138.928 204.132C138.648 203.763 138.722 203.253 139.084 202.974C141.014 201.512 143.503 200.781 145.91 200.953C146.362 200.986 146.707 201.38 146.674 201.832C146.641 202.284 146.239 202.621 145.795 202.588ZM214.63 249.916C212.201 252.54 207.865 252.234 205.018 250.203C202.25 248.231 200.623 245.028 199.317 242.448C195.878 235.679 194.332 234.767 189.147 232.992C188.407 232.738 187.643 232.475 186.896 232.179C181.794 230.15 177.629 226.568 173.595 223.109L159.375 210.885C159.03 210.589 158.989 210.072 159.285 209.727C159.58 209.382 160.098 209.341 160.443 209.637L174.672 221.861C178.598 225.237 182.657 228.72 187.504 230.651C189.844 231.603 192.732 232.221 195.111 233.929C200.415 237.763 201.068 245.381 205.971 248.864C208.116 250.392 211.582 250.794 213.431 248.798C213.735 248.461 214.252 248.445 214.589 248.749C214.918 249.061 214.942 249.579 214.63 249.916Z" fill="black"/>
<path d="M42.0975 143.923C41.7301 143.923 41.3666 143.759 41.1239 143.447C40.7059 142.909 40.803 142.135 41.3401 141.718C42.5913 140.745 43.4722 139.125 44.1128 136.621C44.2588 136.049 44.3876 135.471 44.5163 134.893C44.8837 133.247 45.2632 131.545 46.0342 129.941C47.2961 127.315 49.5649 125.172 52.2585 124.061C52.8883 123.802 53.6083 124.102 53.8674 124.731C54.1269 125.36 53.8268 126.08 53.1979 126.34C51.0591 127.221 49.2576 128.923 48.2555 131.009C47.6069 132.358 47.274 133.85 46.9218 135.43C46.7874 136.033 46.6526 136.635 46.5002 137.231C46.0076 139.158 45.0934 141.921 42.8531 143.663C42.6282 143.838 42.3618 143.923 42.0975 143.923Z" fill="black"/>
<path d="M83.8685 158.542C83.8416 158.542 83.8144 158.541 83.787 158.539C83.1079 158.495 82.5932 157.909 82.6378 157.23L82.8002 154.743C81.7814 154.035 81.0746 152.898 80.9245 151.655C80.738 150.103 81.4331 148.505 82.6955 147.585C83.2462 147.184 84.0168 147.305 84.4171 147.855C84.8182 148.405 84.6975 149.176 84.1475 149.577C83.6028 149.974 83.2907 150.691 83.3713 151.36C83.452 152.029 83.9252 152.651 84.549 152.908C85.0384 153.108 85.3449 153.6 85.31 154.128L85.0966 157.39C85.0543 158.042 84.5123 158.542 83.8685 158.542Z" fill="black"/>
<path d="M63.4945 210.375C63.2687 210.375 63.0401 210.313 62.8355 210.183C61.5743 209.382 60.5687 208.246 59.9265 206.898C59.6341 206.284 59.8952 205.548 60.5097 205.256C61.1247 204.963 61.8592 205.224 62.152 205.839C62.588 206.755 63.2996 207.559 64.156 208.102C64.7308 208.467 64.9009 209.228 64.5363 209.803C64.3012 210.173 63.9025 210.375 63.4945 210.375Z" fill="black"/>
<path d="M55.7425 211.776C55.386 211.776 55.0326 211.622 54.789 211.325L51.3076 207.081C50.8763 206.555 50.953 205.778 51.4793 205.347C52.0056 204.915 52.7818 204.992 53.2137 205.518L56.6943 209.762C57.1259 210.289 57.0493 211.065 56.523 211.496C56.294 211.684 56.0172 211.776 55.7425 211.776Z" fill="black"/>
<path d="M68.6751 331.899C68.1287 331.899 67.6298 331.533 67.4842 330.98C67.2026 329.965 62.7011 320.24 57.9356 309.944C47.4718 287.338 38.7584 268.365 38.1234 265.161C37.991 264.493 38.4246 263.845 39.0925 263.712C39.758 263.579 40.4082 264.014 40.5406 264.682C41.1704 267.858 52.153 291.585 60.1724 308.909C66.3462 322.247 69.5809 329.258 69.8681 330.354C70.0406 331.012 69.6467 331.686 68.988 331.858C68.8833 331.885 68.7786 331.899 68.6751 331.899Z" fill="black"/>
<path d="M32.2732 335.242C32.0575 335.242 31.8388 335.185 31.6403 335.066C31.0566 334.716 30.8677 333.959 31.2179 333.375C43.8451 312.347 62.9261 283.256 76.5885 264.204C76.9845 263.651 77.7551 263.524 78.3078 263.92C78.861 264.317 78.9877 265.087 78.591 265.64C64.9626 284.645 45.9277 313.665 33.331 334.644C33.0999 335.029 32.6916 335.242 32.2732 335.242Z" fill="black"/>
<path d="M239.14 340.813H159.059C158.379 340.813 157.827 340.262 157.827 339.581C157.827 338.9 158.379 338.349 159.059 338.349H239.14C239.821 338.349 240.373 338.9 240.373 339.581C240.373 340.262 239.821 340.813 239.14 340.813Z" fill="black"/>
<path d="M228.08 119.414C227.402 119.414 226.851 118.866 226.848 118.187L226.811 108.477C226.809 108.15 226.938 107.836 227.168 107.604C227.398 107.372 227.711 107.241 228.038 107.24L278.025 107.046C278.027 107.046 278.028 107.046 278.03 107.046C278.708 107.046 279.259 107.595 279.262 108.273L279.3 117.984C279.301 118.31 279.173 118.624 278.942 118.856C278.712 119.088 278.399 119.219 278.072 119.221L228.085 119.414C228.084 119.414 228.082 119.414 228.08 119.414ZM229.28 109.699L229.308 116.945L276.83 116.761L276.802 109.515L229.28 109.699Z" fill="black"/>
<path d="M277.539 137.513C277.53 137.513 277.521 137.513 277.511 137.512L227.536 136.394C227.21 136.386 226.899 136.25 226.674 136.013C226.448 135.777 226.325 135.461 226.332 135.134L226.55 125.426C226.565 124.746 227.099 124.188 227.809 124.222L277.784 125.341C278.111 125.348 278.421 125.485 278.647 125.721C278.873 125.957 278.996 126.273 278.988 126.6L278.771 136.308C278.756 136.979 278.207 137.513 277.539 137.513ZM228.824 133.958L276.335 135.021L276.497 127.777L228.986 126.713L228.824 133.958Z" fill="black"/>
<path d="M277.102 155.617C277.089 155.617 277.077 155.617 277.065 155.616L227.099 154.165C226.772 154.155 226.463 154.017 226.239 153.779C226.014 153.541 225.894 153.224 225.903 152.898L226.185 143.191C226.205 142.511 226.803 141.966 227.452 141.995L277.419 143.447C277.746 143.456 278.055 143.595 278.279 143.833C278.504 144.07 278.624 144.388 278.615 144.714L278.333 154.42C278.313 155.088 277.766 155.617 277.102 155.617ZM228.402 151.737L275.905 153.117L276.116 145.874L228.612 144.495L228.402 151.737Z" fill="black"/>
<path d="M295.25 116.89C295.156 116.89 295.062 116.879 294.968 116.857C294.615 116.774 294.316 116.539 294.152 116.215L291.675 111.335C291.367 110.728 291.609 109.986 292.216 109.678C292.823 109.37 293.564 109.613 293.872 110.219L295.704 113.828C297.651 112.514 299.693 111.419 301.679 110.354C302.511 109.907 303.347 109.459 304.18 108.992C304.775 108.66 305.525 108.872 305.857 109.466C306.189 110.06 305.978 110.811 305.384 111.143C304.537 111.616 303.689 112.072 302.844 112.525C300.421 113.825 298.133 115.053 295.985 116.647C295.77 116.806 295.512 116.89 295.25 116.89Z" fill="black"/>
<path d="M293.294 134.178L290.817 129.297C290.509 128.69 290.751 127.949 291.358 127.641C291.964 127.334 292.707 127.575 293.015 128.182L294.846 131.791C297.589 129.941 300.493 128.537 303.322 126.955C303.918 126.623 304.667 126.835 304.999 127.428C305.331 128.022 305.12 128.773 304.526 129.105C301.233 130.948 298.04 132.448 295.128 134.609C294.517 135.062 293.641 134.86 293.294 134.178Z" fill="black"/>
<path d="M293.023 152.345C292.929 152.345 292.834 152.334 292.74 152.312C292.387 152.229 292.089 151.995 291.924 151.671L289.447 146.791C289.139 146.184 289.381 145.442 289.988 145.134C290.594 144.827 291.337 145.068 291.645 145.676L293.476 149.284C296.218 147.434 299.123 146.03 301.952 144.448C302.547 144.116 303.297 144.328 303.629 144.922C303.961 145.516 303.749 146.266 303.155 146.599C302.309 147.072 301.461 147.527 300.617 147.981C298.194 149.281 295.905 150.509 293.757 152.103C293.543 152.262 293.285 152.345 293.023 152.345Z" fill="black"/>
<path d="M364.412 117.562L322.314 115.609C321.657 115.579 321.139 115.037 321.139 114.379L321.11 72.2824C321.11 71.6246 321.627 71.0823 322.284 71.0506L364.379 69.041C365.1 69.0141 365.669 69.5803 365.67 70.2712L365.701 116.33C365.702 116.667 365.564 116.989 365.32 117.222C365.08 117.451 364.756 117.576 364.412 117.562ZM323.603 113.202L363.236 115.04L363.206 71.5643L323.576 73.4564L323.603 113.202Z" fill="black"/>
<path d="M361.78 115.755L322.418 74.3914C321.949 73.8985 321.968 73.1183 322.461 72.6493C322.954 72.18 323.734 72.1993 324.203 72.6922L363.565 114.056C364.034 114.549 364.015 115.329 363.522 115.798C363.029 116.267 362.249 116.249 361.78 115.755Z" fill="black"/>
<path d="M321.465 114.718C320.989 114.232 320.997 113.452 321.483 112.976C339.311 95.4955 352.431 81.9028 362.772 70.1986C363.223 69.6884 364.002 69.6406 364.512 70.0911C365.021 70.5415 365.07 71.3206 364.619 71.8303C354.239 83.5799 341.08 97.2131 323.208 114.736C322.724 115.211 321.944 115.206 321.465 114.718Z" fill="black"/>
<path d="M230.775 76.9258L230.684 96.1065L301.307 96.442L301.398 77.2614L230.775 76.9258ZM263.966 91.0455H252.326C251.872 91.0455 251.504 90.6778 251.504 90.2241C251.504 89.7704 251.872 89.4026 252.326 89.4026H263.966C264.42 89.4026 264.788 89.7705 264.788 90.2241C264.788 90.6778 264.42 91.0455 263.966 91.0455ZM278.584 90.7981H275.602C275.149 90.7981 274.781 90.4302 274.781 89.9766C274.781 89.523 275.149 89.1551 275.602 89.1551H278.584C279.038 89.1551 279.406 89.5229 279.406 89.9766C279.406 90.4303 279.038 90.7981 278.584 90.7981ZM285.479 83.1217H239.944C239.491 83.1217 239.123 82.7538 239.123 82.3002C239.123 81.8466 239.491 81.4787 239.944 81.4787H285.479C285.932 81.4787 286.3 81.8466 286.3 82.3002C286.3 82.7538 285.932 83.1217 285.479 83.1217Z" fill="black"/>
<path d="M364.704 124.651L315.922 126.384C315.259 126.408 314.733 126.952 314.733 127.616V147.178C314.733 147.841 315.259 148.386 315.922 148.409L364.704 150.143C364.719 150.143 364.734 150.143 364.748 150.143C365.067 150.143 365.374 150.02 365.604 149.798C365.844 149.566 365.98 149.246 365.98 148.911V125.882C365.98 125.217 365.448 124.64 364.704 124.651ZM325.893 141.065C324.077 141.065 322.278 140.006 321.519 138.308C320.534 136.106 321.515 133.317 323.66 132.215C323.824 132.131 324.003 132.108 324.171 132.136C324.277 132.002 324.426 131.9 324.604 131.853C326.935 131.234 329.53 132.653 330.272 134.947C331.172 137.731 329.114 141.065 325.893 141.065ZM340.255 141.065C338.439 141.065 336.64 140.005 335.881 138.308C334.896 136.107 335.877 133.317 338.022 132.215C338.186 132.131 338.364 132.108 338.533 132.136C338.639 132.002 338.788 131.9 338.966 131.853C341.299 131.236 343.893 132.653 344.634 134.947C345.531 137.721 343.484 141.065 340.255 141.065ZM354.865 141.065C353.049 141.065 351.25 140.005 350.491 138.308C349.506 136.107 350.487 133.317 352.632 132.215C352.795 132.131 352.975 132.108 353.143 132.136C353.249 132.002 353.398 131.9 353.576 131.853C355.907 131.236 358.503 132.653 359.244 134.947C360.141 137.721 358.094 141.065 354.865 141.065Z" fill="black"/>
<path d="M398.454 39.0621C397.857 39.0621 397.332 38.6269 397.238 38.0179C394.978 23.3923 385.614 9.7057 372.801 2.30002C372.211 1.95949 372.01 1.20571 372.35 0.61645C372.691 0.0267937 373.444 -0.1754 374.034 0.166016C387.681 8.0542 397.266 22.0638 399.674 37.6416C399.777 38.3143 399.317 38.9437 398.644 39.0476C398.58 39.0576 398.517 39.0621 398.454 39.0621Z" fill="black"/>
<path d="M403.774 18.9805C403.233 18.9805 402.737 18.6211 402.587 18.0735C401.48 14.0341 399.283 10.3799 396.236 7.50577C395.741 7.03842 395.718 6.25867 396.185 5.76367C396.653 5.26866 397.432 5.24584 397.927 5.7127C401.303 8.89732 403.737 12.9463 404.964 17.4221C405.143 18.0784 404.757 18.7563 404.101 18.9363C403.992 18.9661 403.882 18.9805 403.774 18.9805Z" fill="black"/>
<path d="M29.481 289.793C29.0907 289.793 28.7068 289.608 28.4678 289.263C16.0175 271.331 9.47984 249.437 10.06 227.615C10.0781 226.934 10.6568 226.379 11.3247 226.416C12.005 226.434 12.5417 227 12.5237 227.681C11.9576 248.982 18.3389 270.353 30.4919 287.858C30.8801 288.417 30.7418 289.185 30.1826 289.573C29.9685 289.721 29.7234 289.793 29.481 289.793Z" fill="black"/>
<path d="M8.66205 274.948C8.31149 274.948 7.96328 274.799 7.71937 274.51C3.52153 269.536 0.783015 263.238 0.00887595 256.776C-0.0720997 256.1 0.410014 255.487 1.08596 255.406C1.75866 255.323 2.37478 255.807 2.45585 256.483C3.17352 262.472 5.7118 268.31 9.60316 272.921C10.042 273.441 9.97626 274.218 9.45597 274.657C9.22475 274.852 8.94237 274.948 8.66205 274.948Z" fill="black"/>
<path d="M137.094 39.2191C136.853 39.2191 136.609 39.1485 136.395 39.0005C135.835 38.6138 135.695 37.8465 136.082 37.2864C142.647 27.7837 151.53 19.9359 161.768 14.5913C162.372 14.2765 163.116 14.5099 163.43 15.1132C163.745 15.7165 163.512 16.461 162.908 16.7759C153.023 21.936 144.448 29.513 138.109 38.6872C137.87 39.0334 137.486 39.2191 137.094 39.2191Z" fill="black"/>
</svg>
