<svg width="258" height="23" viewBox="0 0 258 23" fill="none" xmlns="http://www.w3.org/2000/svg">
<g opacity="0.8">
<path d="M256.187 18.3774C256.187 18.3774 255.462 18.3618 255.171 18.3556C255.897 18.3712 256.483 18.0801 256.777 17.9345C256.777 17.9345 256.922 17.9376 257.067 17.9407C256.2 17.7197 255.769 17.4575 255.774 17.154C255.774 17.154 255.777 17.0022 255.78 16.8505C255.344 16.8412 255.49 16.8443 255.344 16.8412C255.054 16.8349 254.616 16.9774 254.764 16.8287C254.772 16.3735 254.186 16.6646 253.605 16.6521C253.605 16.6521 253.46 16.649 253.315 16.6459C253.608 16.5004 254.621 16.6739 254.63 16.2186C254.339 16.2124 254.2 15.9058 253.619 15.8933C253.039 15.8809 253.184 15.884 253.334 15.5836C253.77 15.5929 254.644 15.4598 254.649 15.1563C253.924 15.1408 253.773 15.4412 253.047 15.4256C252.611 15.4163 252.031 15.4039 251.74 15.3977C252.176 15.407 252.614 15.2646 252.907 15.119C253.198 15.1252 253.781 14.9859 253.494 14.8279C253.206 14.67 252.623 14.8093 252.187 14.8C251.461 14.7845 250.875 15.0755 250.004 15.0569C248.697 15.029 248.851 14.5768 247.983 14.4064L248.273 14.4126C248.709 14.4219 248.999 14.4281 249.289 14.4344C250.015 14.4499 251.324 14.3261 250.895 14.0132C250.319 13.6973 250.615 13.4 250.911 13.1027C250.186 13.0872 249.46 13.0716 248.734 13.0561C248.737 12.9044 249.033 12.607 248.455 12.4429C248.452 12.5946 248.304 12.7433 248.014 12.7371C248.159 12.7402 248.597 12.5977 248.455 12.4429C248.167 12.2849 248.025 12.13 247.737 11.9721C246.866 11.9534 246.28 12.2445 245.551 12.3808C243.954 12.3466 242.355 12.4642 240.761 12.2783C240.761 12.2783 241.632 12.2969 241.199 12.1358C240.038 12.111 239.756 11.6495 239.764 11.1942C239.178 11.4853 239.462 11.7951 238.731 12.083C239.312 12.0955 240.183 12.1141 240.467 12.4238C239.016 12.3928 237.715 12.0613 236.26 12.182C235.97 12.1758 235.534 12.1665 235.244 12.1603L234.954 12.1541C234.954 12.1541 234.083 12.1354 233.647 12.1261C232.921 12.1106 232.198 11.9433 231.327 11.9247C230.892 11.9154 230.456 11.906 230.021 11.8967C229.295 11.8812 228.569 11.8657 227.843 11.8501C227.553 11.8439 227.262 11.8377 226.972 11.8315C226.391 11.8191 225.811 11.8067 225.233 11.6425C224.942 11.6363 224.652 11.6301 224.652 11.6301C224.942 11.6363 225.233 11.6425 225.668 11.6518C224.942 11.6363 224.219 11.469 223.491 11.6052C222.91 11.5928 222.039 11.5742 221.461 11.41C222.042 11.4224 221.757 11.1127 221.176 11.1003C220.015 11.0754 219.144 11.0568 218.424 10.7377C218.424 10.7377 217.988 10.7284 217.843 10.7253C216.528 11.1526 216.832 10.4001 216.107 10.3845C215.816 10.3783 216.537 10.6974 215.665 10.6787C215.085 10.6663 214.504 10.6539 214.365 10.3473C214.365 10.3473 214.661 10.05 213.935 10.0344C213.935 10.0344 213.499 10.0251 213.209 10.0189C212.483 10.0034 212.927 9.55743 212.349 9.39325C212.349 9.39325 212.207 9.23839 212.064 9.08353C212.363 8.63446 212.226 8.17608 210.777 7.99327C210.777 7.99327 211.506 7.85704 212.087 7.86946C213.393 7.89741 214.7 7.92536 215.722 7.64358C215.292 7.33075 213.846 6.99618 212.969 7.28106C211.218 7.69907 209.194 7.20032 207.304 7.31171C207.159 7.3086 206.869 7.30239 206.724 7.29929C206.869 7.30239 207.014 7.3055 207.304 7.31171C207.304 7.31171 207.45 7.31482 207.598 7.16616C208.329 6.87817 208.047 6.41669 207.031 6.39495C205.289 6.35769 203.555 5.86515 201.805 6.28316C200.498 6.25521 199.337 6.23036 198.91 5.76577C198.91 5.76577 198.474 5.75646 198.184 5.75025C197.748 5.74093 197.896 5.59228 197.899 5.44052L197.609 5.43431C197.609 5.43431 197.614 5.13079 197.034 5.11837C196.163 5.09974 197.028 5.42189 196.445 5.56122C195.283 5.53638 194.711 5.06869 193.402 5.1925C191.807 5.00658 191.224 5.14591 191.07 5.59808C191.07 5.59808 190.925 5.59498 190.78 5.59187L190.49 5.58566C190.49 5.58566 189.038 5.55461 188.602 5.54529C188.022 5.53287 187.882 5.22625 187.299 5.36558C186.718 5.35316 187.877 5.52976 187.583 5.67531C186.567 5.65357 185.696 5.63494 184.68 5.6132C184.68 5.6132 186.132 5.64426 185.85 5.18277C185.85 5.18277 185.855 4.87926 185.275 4.86683C184.549 4.85131 183.681 4.68092 183.385 4.97822C183.385 4.97822 183.24 4.97512 183.094 4.97201C182.514 4.95959 181.785 5.09582 181.207 4.93164C180.626 4.91922 180.191 4.9099 180.046 4.9068C180.04 5.21031 179.314 5.19479 178.879 5.18547C178.443 5.17615 178.008 5.16684 177.717 5.16063C177.717 5.16063 177.427 5.15442 177.282 5.15131C176.846 5.142 176.411 5.13268 176.121 5.12647C176.121 5.12647 175.83 5.12026 175.685 5.11715C174.669 5.09541 173.795 5.22854 173.064 5.51653C173.064 5.51653 172.918 5.51342 172.773 5.51032C173.066 5.36477 172.782 5.05504 172.343 5.19749C171.472 5.17885 170.607 4.8567 169.875 5.14469C168.72 4.81633 168.708 5.42337 167.985 5.25608C167.985 5.25608 166.542 4.76975 165.668 4.90288C165.087 4.89046 164.797 4.88425 164.507 4.87804C163.926 4.86561 163.351 4.54968 162.625 4.53415C162.625 4.53415 162.19 4.52483 162.044 4.52173C161.319 4.5062 160.883 4.49688 160.3 4.63622C160.3 4.63622 160.154 4.63312 160.009 4.63001C159.429 4.61759 158.848 4.60517 158.415 4.44409C157.982 4.28302 157.544 4.42546 156.963 4.41304C154.786 4.36646 152.458 4.62029 150.436 3.96978C150.436 3.96978 150.146 3.96357 150.001 3.96046C149.56 4.25466 149.992 4.41574 150.425 4.57681C150.425 4.57681 150.861 4.58613 150.713 4.73478C150.417 5.03209 150.414 5.18384 151.575 5.20869C152.301 5.22421 153.027 5.23974 153.753 5.25527C153.753 5.25527 153.753 5.25527 153.608 5.25216C154.334 5.26769 155.059 5.28322 155.785 5.29874C155.785 5.29874 154.334 5.26769 153.608 5.25216C153.317 5.24595 153.172 5.24285 152.882 5.23663C152.882 5.23663 152.882 5.23664 152.737 5.23353C152.301 5.22421 151.866 5.2149 151.575 5.20869C150.995 5.19626 150.414 5.18384 149.833 5.17142C149.107 5.15589 148.236 5.13726 147.51 5.12174L147.22 5.11552C145.478 5.07826 143.591 5.03789 141.849 5.00062C140.252 4.96646 138.51 4.9292 136.919 4.59152C136.919 4.59152 136.773 4.58842 136.628 4.58531C135.763 4.26317 134.456 4.23522 133.728 4.37145C131.84 4.33108 129.808 4.2876 127.921 4.24723C126.469 4.21618 125.017 4.18512 123.566 4.15407C123.13 4.14475 122.549 4.13233 122.114 4.12302C121.533 4.11059 120.952 4.09817 120.517 4.08886C119.933 4.22819 119.353 4.21577 118.92 4.0547C118.194 4.03917 117.323 4.02054 116.742 4.00812C116.162 3.99569 115.436 3.98017 114.855 3.96774C114.855 3.96774 114.565 3.96153 114.42 3.95843C112.678 3.92116 111.081 3.887 109.339 3.84974C108.613 3.83421 107.742 3.81558 107.016 3.80005C104.113 3.73794 101.209 3.67584 98.3057 3.61373C98.1605 3.61062 98.0153 3.60752 97.725 3.60131C96.9991 3.58578 96.2733 3.57025 95.5474 3.55473C94.386 3.52988 93.3698 3.50814 92.2085 3.4833C92.2085 3.4833 92.2085 3.4833 92.0633 3.4802C91.3374 3.46467 90.6116 3.44914 89.8857 3.43362C89.0147 3.41498 88.1436 3.39635 87.1274 3.37461C86.8371 3.3684 86.6919 3.3653 86.4016 3.35909C85.8209 3.34666 85.2402 3.33424 84.6595 3.32182C84.5144 3.31872 84.224 3.3125 84.0788 3.3094C83.0626 3.28766 83.7913 3.15143 84.3748 3.01209C83.2134 2.98725 82.6327 2.97483 82.7863 2.52266C82.2056 2.51024 81.9125 2.65579 81.3318 2.64336C80.7511 2.63094 80.1676 2.77028 79.5897 2.6061C78.5735 2.58436 77.5573 2.56262 76.6863 2.54399C76.5411 2.54089 76.2508 2.53468 76.1056 2.53157C75.5249 2.51915 74.7991 2.50362 74.5059 2.64917C74.0704 2.63985 73.3501 2.32081 73.1994 2.62122C73.1994 2.62122 72.7639 2.6119 72.4735 2.60569C72.3283 2.60259 72.038 2.59638 71.8928 2.59327C71.7477 2.59017 71.4573 2.58395 71.3121 2.58085L70.0056 2.5529C69.1346 2.53427 68.4087 2.51874 67.5377 2.50011C67.3925 2.497 67.1022 2.49079 66.957 2.48769C66.8118 2.48458 66.6666 2.48148 66.5215 2.47837C66.5215 2.47837 66.3763 2.47527 66.2311 2.47216L65.9408 2.46595C65.9408 2.46595 65.9408 2.46595 65.6532 2.30798C64.637 2.28624 63.4757 2.2614 62.4595 2.23966C62.3143 2.23656 62.1691 2.23345 62.0239 2.23035C61.4433 2.21792 61.0049 2.36037 60.4271 2.19619C60.1367 2.18998 59.7012 2.18066 59.2657 2.17134C59.2657 2.17134 59.1205 2.16824 58.9753 2.16513C58.685 2.15892 58.5398 2.15582 58.2495 2.1496C57.9591 2.14339 57.814 2.14029 57.9591 2.14339C57.9591 2.14339 57.6688 2.13718 57.5236 2.13408C57.3784 2.13097 57.2333 2.12787 57.0881 2.12476C56.7978 2.11855 56.6526 2.11545 56.3622 2.10923C56.0719 2.10302 55.9267 2.09992 55.6364 2.09371C55.346 2.0875 55.2009 2.08439 54.9105 2.07818C54.6202 2.07197 54.475 2.06886 54.4694 2.37238C53.7435 2.35685 52.8725 2.33822 52.4398 2.17715C51.7139 2.16162 51.5688 2.15851 51.7083 2.46514C51.7083 2.46514 51.9931 2.77486 51.4124 2.76244C49.5252 2.72207 48.065 3.14629 46.7529 3.42186C46.4625 3.41565 47.194 3.12766 46.323 3.10903C45.4519 3.09039 45.8846 3.25147 45.8818 3.40322C45.8818 3.40322 45.7367 3.40012 45.5915 3.39701C45.3011 3.3908 44.8656 3.38149 44.2849 3.36907C44.2849 3.36907 43.9946 3.36285 43.8494 3.35975C43.8494 3.35975 43.5591 3.35354 43.4139 3.35043C42.984 3.0376 42.4061 2.87342 41.8282 2.70924C42.4117 2.56991 43.5731 2.59475 43.2912 2.13326C41.6971 1.94735 40.2426 2.06805 38.6457 2.03389C38.6457 2.03389 38.6457 2.03389 38.5005 2.03079C38.5005 2.03079 38.3581 1.87592 38.0678 1.86971C37.7775 1.8635 37.6323 1.86039 37.1968 1.85108C37.4871 1.85729 37.6323 1.86039 37.7775 1.8635C37.3419 1.85418 36.7613 1.84176 36.3257 1.83245C35.0192 1.8045 33.5675 1.77344 32.3977 2.20387C32.3977 2.20387 31.965 2.0428 31.6746 2.03659C31.0939 2.02417 30.5133 2.01175 30.0805 1.85067C29.3547 1.83514 28.4865 1.66475 27.6126 1.79788C27.6126 1.79788 26.4569 1.46952 25.7254 1.75751C25.7254 1.75751 26.7388 1.93101 27.3195 1.94343C27.3195 1.94343 27.3195 1.94343 27.3167 2.09519C28.1849 2.26558 29.3491 2.13866 30.2145 2.46081C29.4886 2.44528 28.6176 2.42665 27.889 2.56288C27.0179 2.54425 26.1469 2.52562 25.2759 2.50698C24.6952 2.49456 24.2597 2.48525 23.679 2.47282C20.1949 2.39829 16.8475 2.78214 13.2182 2.70451C12.0568 2.67967 10.8954 2.65482 9.73407 2.62998C9.15338 2.61756 8.42753 2.60203 7.84684 2.58961C6.97581 2.57098 7.26335 2.72894 7.55089 2.88691C5.66365 2.84654 3.92159 2.80928 2.03716 2.61715C1.74682 2.61094 1.3113 2.60162 1.3113 2.60162C1.3085 2.75338 1.89199 2.61404 2.3247 2.77512C3.04495 3.09416 4.06116 3.1159 4.93219 3.13453C5.3677 3.14385 5.94839 3.15627 6.23873 3.16248C7.10976 3.18111 6.23873 3.16248 6.09076 3.31113C6.52627 3.32045 6.52627 3.32045 6.3811 3.31734C6.3811 3.31734 6.3811 3.31734 6.09076 3.31113C5.3649 3.29561 4.63904 3.28008 3.91318 3.26455C3.47766 3.25524 3.04215 3.24592 2.60663 3.2366C2.02595 3.22418 1.30289 3.0569 0.289494 2.8834C0.864573 3.19934 1.7356 3.21797 2.31629 3.23039C2.75181 3.23971 3.18732 3.24903 3.62284 3.25834C3.62284 3.25834 3.76801 3.26145 3.91318 3.26455C4.92097 3.74156 6.51786 3.77572 8.10914 4.1134C7.38328 4.09787 6.94777 4.08856 6.50945 4.231C6.07393 4.22168 5.63841 4.21237 5.2029 4.20305C4.91256 4.19684 4.62502 4.03887 4.1867 4.18131C4.47704 4.18752 4.76458 4.34549 5.2001 4.35481C5.2001 4.35481 6.07113 4.37344 6.50664 4.38276C6.79699 4.38897 6.94216 4.39207 7.2325 4.39828C8.2487 4.42002 9.11973 4.43865 10.1359 4.46039C10.1359 4.46039 10.1359 4.46039 10.1331 4.61215C9.40727 4.59662 8.82659 4.5842 7.81038 4.56246C8.96895 4.73906 9.98796 4.60904 10.859 4.62768C11.1493 4.63389 11.4397 4.6401 11.8752 4.64941C11.8752 4.64941 11.8752 4.64941 11.8724 4.80117C12.4531 4.81359 13.0338 4.82601 13.4693 4.83533C12.8886 4.82291 12.3079 4.81049 11.7272 4.79807C11.2917 4.78875 10.8562 4.77943 10.5658 4.77322C9.69481 4.75459 8.82378 4.73596 7.95275 4.71733C6.93655 4.69559 6.06552 4.67696 5.04932 4.65522C5.04932 4.65522 4.75897 4.64901 4.6138 4.6459L3.30725 4.61795C3.74277 4.62727 4.17829 4.63659 4.611 4.79766C4.75336 4.95252 5.62439 4.97116 5.76396 5.27778C5.0381 5.26225 4.31224 5.24672 3.73155 5.2343C2.71535 5.21256 3.29323 5.37674 3.4356 5.53161L1.11846 5.1784C0.825314 5.32395 0.82251 5.47571 1.69074 5.6461C2.56177 5.66473 3.4328 5.68336 4.30102 5.85375C4.15585 5.85065 3.86551 5.84444 3.72034 5.84133C3.13965 5.82891 2.70413 5.81959 2.12345 5.80717C1.8331 5.80096 1.54556 5.64299 1.39759 5.79165C1.25242 5.78854 1.8331 5.80096 2.12064 5.95893C2.12064 5.95893 2.26582 5.96204 2.41099 5.96514C2.8437 6.12622 3.27641 6.28729 3.8571 6.29971C4.43778 6.31213 5.30881 6.33077 5.44557 6.78915C5.01006 6.77983 4.71971 6.77362 4.2842 6.7643C4.57174 6.92227 5.01006 6.77983 5.44277 6.9409C5.73311 6.94711 6.02346 6.95332 6.45897 6.96264L9.3568 7.32826C9.3568 7.32826 9.64153 7.63799 9.63873 7.78975C10.0686 8.10258 10.4957 8.56717 10.7805 8.8769C10.0434 9.4684 11.777 9.96094 11.7658 10.568C11.7546 11.175 13.0499 11.81 13.3291 12.4232C13.3207 12.8785 14.1889 13.0489 15.6406 13.0799C16.0761 13.0893 16.5116 13.0986 16.9471 13.1079C17.673 13.1234 18.3989 13.139 19.2699 13.1576C19.9958 13.1731 20.7216 13.1886 21.5926 13.2073C22.4609 13.3777 22.6004 13.6843 23.1755 14.0002C23.8958 14.3193 24.9176 14.0375 25.7886 14.0561C25.9338 14.0592 26.2241 14.0654 26.5145 14.0716C26.95 14.081 27.3855 14.0903 27.6758 14.0965C29.5631 14.1369 31.4475 14.329 33.3319 14.5211L33.6223 14.5273C34.0578 14.5366 34.6385 14.5491 35.074 14.5584C35.074 14.5584 35.074 14.5584 35.2192 14.5615C34.7836 14.5522 34.3481 14.5429 33.4771 14.5242C34.6385 14.5491 35.5039 14.8712 36.2354 14.5832C37.9774 14.6205 39.7195 14.6578 41.3164 14.6919C41.7519 14.7012 42.3326 14.7136 42.3354 14.5619C42.3354 14.5619 42.4805 14.565 42.6257 14.5681C46.5426 14.8037 50.4622 14.8876 54.2339 15.12L57.8631 15.1977C60.3255 15.554 62.7962 15.455 65.4065 15.6627C65.4065 15.6627 66.8582 15.6937 67.5841 15.7093C67.5841 15.7093 68.0196 15.7186 68.1647 15.7217C68.6003 15.731 69.0358 15.7403 69.4713 15.7496C70.052 15.7621 70.4875 15.7714 71.0682 15.7838C71.0682 15.7838 71.2133 15.7869 71.3585 15.79C71.9392 15.8024 72.3747 15.8117 72.9554 15.8242C73.1006 15.8273 73.2457 15.8304 73.5361 15.8366C73.8264 15.8428 74.262 15.8521 74.5523 15.8583C75.5685 15.8801 76.7271 16.0567 77.8912 15.9297C79.0526 15.9546 80.0688 15.9763 81.2302 16.0012C81.5205 16.0074 81.8109 16.0136 82.1012 16.0198C82.9666 16.342 81.5121 16.4627 81.7997 16.6206C81.7997 16.6206 81.9448 16.6237 82.09 16.6268C82.2352 16.6299 82.5255 16.6362 82.6707 16.6393L83.2514 16.6517C83.2514 16.6517 83.9857 16.2119 84.9962 16.5372C85.1414 16.5403 85.2838 16.6952 85.4318 16.5465C86.3084 16.2616 87.7545 16.5962 88.6311 16.3113C89.0667 16.3206 89.5022 16.3299 89.9377 16.3393C89.9349 16.491 89.9321 16.6428 90.51 16.8069C90.51 16.8069 90.8003 16.8132 90.9455 16.8163C91.3838 16.6738 90.9511 16.5127 90.6636 16.3548C91.6798 16.3765 92.1125 16.5376 92.3972 16.8473C92.6904 16.7018 92.8411 16.4014 93.7094 16.5718L93.419 16.5655C93.2738 16.5624 93.1287 16.5593 93.1259 16.7111C93.4162 16.7173 94.7228 16.7452 94.7228 16.7452C94.7228 16.7452 93.8573 16.4231 95.0187 16.4479C96.0349 16.4697 95.3034 16.7577 95.591 16.9156C96.1717 16.9281 96.4704 16.479 97.0483 16.6432C98.2041 16.9715 98.2097 16.668 98.6508 16.3738C99.0863 16.3831 99.3767 16.3893 99.8122 16.3987C101.264 16.4297 102.57 16.4577 104.022 16.4887C104.167 16.4918 104.313 16.4949 104.603 16.5011C105.764 16.526 106.926 16.5508 108.087 16.5757C108.232 16.5788 108.522 16.585 108.668 16.5881C108.668 16.5881 108.668 16.5881 108.813 16.5912C109.103 16.5974 109.539 16.6067 109.829 16.6129C109.974 16.616 110.119 16.6191 110.265 16.6223C112.152 16.6626 114.039 16.703 115.926 16.7434C115.926 16.7434 115.926 16.7434 116.071 16.7465C116.071 16.7465 117.088 16.7682 117.668 16.7806C119.117 16.9634 120.862 16.8489 122.311 17.0318C122.311 17.0318 121.295 17.01 120.424 16.9914L122.311 17.0318C123.034 17.199 123.606 17.6667 124.921 17.2394C125.502 17.2518 126.809 17.2798 127.68 17.2984C128.551 17.317 127.674 17.6019 127.961 17.7599C127.961 17.7599 127.959 17.9117 128.394 17.921C128.83 17.9303 128.83 17.9303 128.98 17.6299C129.279 17.1808 130.005 17.1963 131.018 17.3698C131.596 17.534 131.599 17.3823 131.744 17.3854L132.325 17.3978C132.322 17.5495 132.319 17.7013 132.9 17.7137C133.626 17.7293 132.47 17.4009 132.906 17.4102C134.212 17.4382 135.812 17.3206 136.236 17.9369C136.817 17.9493 135.952 17.6272 136.535 17.4878C137.116 17.5003 137.842 17.5158 138.129 17.6738C138.419 17.68 137.54 18.1166 138.704 17.9897C139.14 17.999 139.72 18.0114 140.591 18.0301C140.011 18.0176 139.868 17.8628 139.581 17.7048C139.29 17.6986 139.151 17.392 138.863 17.234C139.444 17.2464 140.025 17.2589 140.605 17.2713C140.605 17.2713 140.315 17.2651 140.17 17.262C140.17 17.262 140.17 17.262 140.315 17.2651C140.751 17.2744 140.896 17.2775 141.041 17.2806C141.622 17.293 142.057 17.3023 142.638 17.3148C143.073 17.3241 143.509 17.3334 143.944 17.3427L144.235 17.3489C144.667 17.51 145.541 17.3769 145.829 17.5348L147.426 17.569C147.426 17.569 147.426 17.569 147.429 17.4172C147.429 17.4172 147.429 17.4172 147.426 17.569C147.716 17.5752 146.697 17.7052 147.275 17.8694C147.856 17.8818 148.001 17.8849 148.294 17.7394C148.584 17.7456 148.59 17.4421 148.88 17.4483C149.025 17.4514 149.316 17.4576 149.606 17.4638C151.348 17.5011 153.087 17.6901 154.687 17.5725C155.558 17.5911 156.429 17.6098 157.3 17.6284C158.752 17.6595 160.198 17.994 161.801 17.7247C162.091 17.7309 162.091 17.7309 162.094 17.5791C162.094 17.5791 162.094 17.5791 162.384 17.5853C162.674 17.5915 162.82 17.5947 163.11 17.6009C163.11 17.6009 163.4 17.6071 163.545 17.6102C164.126 17.6226 164.852 17.6381 165.433 17.6505C165.433 17.6505 165.578 17.6537 165.723 17.6568C166.295 18.1245 167.465 17.694 168.188 17.8613C168.188 17.8613 168.043 17.8582 167.898 17.8551C168.478 17.8675 168.908 18.1804 169.93 17.8986C169.204 17.883 168.769 17.8737 168.478 17.8675C169.497 17.7375 170.511 17.911 171.527 17.9327C171.237 17.9265 170.946 17.9203 170.801 17.9172C170.801 17.9172 170.946 17.9203 171.092 17.9234C171.092 17.9234 171.086 18.2269 171.667 18.2394C171.957 18.2456 172.102 18.2487 172.105 18.0969C172.395 18.1031 172.54 18.1062 172.831 18.1124C173.266 18.1218 173.702 18.1311 174.137 18.1404L174.428 18.1466C174.718 18.1528 175.008 18.159 175.299 18.1652C176.17 18.1839 177.041 18.2025 178.057 18.2242C179.218 18.2491 180.38 18.2739 181.538 18.4505C182.119 18.4629 182.554 18.4723 183.135 18.4847C184.151 18.5064 184.886 18.0667 185.893 18.5437C186.474 18.5561 187.194 18.8751 188.071 18.5903C187.638 18.4292 186.91 18.5654 186.622 18.4075C187.058 18.4168 187.493 18.4261 187.929 18.4354C187.351 18.2712 186.477 18.4043 185.899 18.2402C184.888 17.9149 184.012 18.1998 182.996 18.1781C182.705 18.1718 183.001 17.8745 183.004 17.7228C183.294 17.729 183.872 17.8932 184.02 17.7445C185.042 17.4627 186.198 17.7911 187.214 17.8128C188.375 17.8377 189.104 17.7015 189.258 17.2493C189.258 17.2493 189.112 17.2462 189.551 17.1037C190.131 17.1162 189.986 17.1131 189.556 16.8002C189.847 16.8064 190.282 16.8158 190.57 16.9737C190.857 17.1317 191.726 17.3021 192.602 17.0172C192.602 17.0172 192.602 17.0172 192.893 17.0234C192.893 17.0234 192.89 17.1752 192.597 17.3207C192.306 17.3145 191.72 17.6056 192.153 17.7667C192.588 17.776 193.024 17.7853 193.459 17.7946C193.75 17.8008 194.04 17.807 194.185 17.8101C195.492 17.8381 195.21 17.3766 194.487 17.2093C194.774 17.3673 195.503 17.2311 195.358 17.228C195.21 17.3766 195.933 17.5439 195.637 17.8412C195.341 18.1385 195.921 18.1509 196.793 18.1696C197.228 18.1789 197.664 18.1882 198.244 18.2006C198.97 18.2161 199.554 18.0768 200.137 17.9375C200.573 17.9468 200.863 17.953 201.298 17.9623C202.024 17.9778 202.309 18.2876 202.884 18.6035C202.884 18.6035 203.174 18.6097 203.32 18.6128C203.755 18.6221 204.045 18.6283 204.336 18.6346C205.352 18.6563 205.788 18.6656 205.637 18.966C205.782 18.9691 206.072 18.9753 206.363 18.9815C206.943 18.994 207.379 19.0033 207.96 19.0157C208.54 19.0281 207.234 19.0002 207.817 18.8608C208.831 19.0343 210.14 18.9105 211.005 19.2327L212.893 19.273C212.893 19.273 214.054 19.2979 214.635 19.3103C216.812 19.3569 218.99 19.4035 221.019 19.5987C221.31 19.6049 221.455 19.608 221.6 19.6111C223.342 19.6484 225.084 19.6857 226.826 19.7229C227.262 19.7322 227.842 19.7447 228.423 19.7571C229.439 19.7788 230.456 19.8006 231.475 19.6705C231.475 19.6705 231.62 19.6736 231.765 19.6768C232.2 19.6861 232.636 19.6954 233.071 19.7047C233.507 19.714 233.797 19.7202 233.945 19.5716C234.09 19.5747 234.236 19.5778 234.381 19.5809C234.816 19.5902 235.255 19.4478 235.548 19.3022C235.693 19.3053 235.841 19.1567 235.844 19.0049C236.279 19.0142 236.572 18.8687 236.72 18.72C236.72 18.72 237.011 18.7262 237.156 18.7293C237.449 18.5838 237.6 18.2834 237.457 18.1285C238.474 18.1503 239.49 18.172 240.364 18.0389C241.815 18.0699 243.125 17.9461 244.579 17.8254C245.015 17.8347 245.45 17.844 246.034 17.7047C247.05 17.7264 248.357 17.7544 249.233 17.4695C250.83 17.5037 252 17.0732 253.452 17.1043C254.613 17.1291 254.912 16.6801 255.931 16.5501C255.495 16.5407 255.06 16.5314 254.769 16.5252C254.769 16.5252 254.769 16.5252 254.772 16.3735C255.356 16.2341 256.375 16.1041 256.961 15.813L255.364 15.7788L256.187 18.3774ZM153.161 5.84988C153.161 5.84988 153.161 5.84988 153.306 5.85298C153.306 5.85298 153.016 5.84677 152.868 5.99542C152.723 5.99232 152.577 5.98921 153.161 5.84988ZM180.791 3.86002C180.791 3.86002 180.791 3.86002 180.646 3.85691L180.791 3.86002ZM78.1408 2.42329C78.1408 2.42329 77.8477 2.56883 77.7025 2.56573C77.8477 2.56883 77.9928 2.57194 78.1408 2.42329ZM123.415 4.45448C123.415 4.45448 123.415 4.45448 123.27 4.45137C123.415 4.45448 123.56 4.45759 123.415 4.45448ZM244.85 18.8939C244.85 18.8939 244.85 18.8939 244.995 18.897C244.995 18.897 244.85 18.8939 244.705 18.8908L244.85 18.8939ZM161.245 16.3464C161.245 16.3464 161.681 16.3557 161.826 16.3588L161.681 16.3557C161.681 16.3557 161.39 16.3495 161.245 16.3464ZM97.8645 3.90793C97.5742 3.90172 97.1443 3.58889 98.3029 3.76549C98.1577 3.76238 98.0097 3.91103 97.8617 4.05969L97.8645 3.90793ZM97.4178 4.50564C97.4178 4.50564 97.4178 4.50564 97.7082 4.51185C97.7082 4.51185 97.563 4.50875 97.4178 4.50564ZM77.7965 13.195C77.7965 13.195 77.5062 13.1888 77.361 13.1857C77.361 13.1857 77.5062 13.1888 77.6514 13.1919L77.7965 13.195ZM119.168 6.33728C119.168 6.33728 119.604 6.34659 119.749 6.3497C119.168 6.33728 119.023 6.33417 118.733 6.32796C118.733 6.32796 118.733 6.32796 119.023 6.33417L119.168 6.33728ZM227.446 17.6107C227.446 17.6107 227.446 17.6107 227.737 17.6169L227.446 17.6107ZM106.563 12.5958C106.563 12.5958 106.563 12.5958 106.418 12.5927L106.563 12.5958ZM52.3747 13.5621C52.3747 13.5621 52.3747 13.5621 52.5198 13.5652L52.3747 13.5621ZM220.612 18.0718C220.612 18.0718 220.467 18.0687 220.176 18.0625C220.176 18.0625 220.467 18.0687 220.612 18.0718ZM89.7735 9.50393L90.0639 9.51014C89.9187 9.50704 89.7735 9.50393 89.4832 9.49772C89.4832 9.49772 89.4832 9.49772 89.6284 9.50083L89.7735 9.50393ZM217.443 16.6377C217.443 16.6377 217.008 16.6284 216.863 16.6253C217.008 16.6284 217.153 16.6315 217.443 16.6377ZM124.224 7.81179C124.224 7.81179 124.224 7.81179 124.369 7.81489L124.224 7.81179ZM130.977 11.7517C130.977 11.7517 131.558 11.7641 131.848 11.7703C131.558 11.7641 131.267 11.7579 130.977 11.7517ZM130.65 13.7183C130.65 13.7183 130.941 13.7245 130.943 13.5728C130.943 13.5728 130.943 13.5728 130.65 13.7183ZM130.885 8.86518L130.595 8.85897C130.595 8.85897 130.74 8.86208 130.885 8.86518ZM130.089 12.6436C131.251 12.6684 132.267 12.6902 133.286 12.5602C132.27 12.5384 131.108 12.5136 130.089 12.6436ZM165.084 12.9367C165.084 12.9367 164.794 12.9305 164.649 12.9274C164.649 12.9274 164.649 12.9274 164.794 12.9305C164.794 12.9305 164.794 12.9305 165.081 13.0885L165.084 12.9367ZM161.664 9.37177L161.374 9.36556C161.374 9.36556 161.374 9.36556 161.664 9.37177ZM182.404 10.8782C182.404 10.8782 182.404 10.8782 182.695 10.8844L182.404 10.8782ZM195.205 9.7856C195.205 9.7856 195.06 9.7825 194.914 9.77939L195.205 9.7856ZM186.79 9.30198C186.79 9.30198 186.936 9.30508 187.226 9.31129C187.226 9.31129 186.935 9.30508 186.645 9.29887C186.645 9.29887 186.645 9.29887 186.79 9.30198ZM153.797 10.7217C153.797 10.7217 153.942 10.7248 154.087 10.7279C153.942 10.7248 153.652 10.7186 153.507 10.7154L153.797 10.7217ZM153.596 13.7537C153.596 13.7537 153.886 13.7599 154.031 13.763C153.886 13.7599 153.741 13.7568 153.451 13.7506C153.451 13.7506 153.596 13.7537 153.601 13.4502L153.596 13.7537ZM162.747 13.6458C162.747 13.6458 162.892 13.6489 163.038 13.652C162.892 13.6489 162.602 13.6427 162.457 13.6396C162.457 13.6396 162.457 13.6396 162.747 13.6458ZM185.333 9.57444C185.333 9.57444 185.623 9.58065 185.914 9.58686C185.769 9.58375 185.478 9.57754 185.333 9.57444ZM183.591 9.53717C183.591 9.53717 183.736 9.54028 183.881 9.54338L183.591 9.53717ZM139.101 12.2291C139.101 12.2291 139.391 12.2353 139.537 12.2384C139.537 12.2384 139.246 12.2322 139.098 12.3809L139.101 12.2291ZM101.06 11.719C101.06 11.719 101.211 11.4186 101.356 11.4217C101.356 11.4217 101.354 11.5735 101.206 11.7221C101.206 11.7221 101.206 11.7221 101.06 11.719ZM102.375 11.2917C102.375 11.2917 101.356 11.4217 101.208 11.5704C101.208 11.5704 101.211 11.4186 101.359 11.2699C101.359 11.2699 101.359 11.2699 101.507 11.1213C101.798 11.1275 102.088 11.1337 102.523 11.143L102.375 11.2917ZM102.208 12.5026C102.208 12.5026 101.917 12.4964 101.772 12.4933C101.772 12.4933 102.063 12.4995 102.208 12.5026ZM90.1726 11.4861C90.1726 11.4861 90.3178 11.4892 90.315 11.641C90.315 11.641 90.315 11.641 90.0274 11.483L90.1726 11.4861ZM92.7408 13.9701C92.7408 13.9701 92.886 13.9732 93.0312 13.9763C92.886 13.9732 92.7408 13.9701 92.4505 13.9639C92.4505 13.9639 92.5957 13.967 92.7408 13.9701ZM124.545 14.0432C124.545 14.0432 124.399 14.0401 124.254 14.037C124.109 14.0339 124.109 14.0339 124.109 14.0339C124.254 14.037 124.399 14.0401 124.545 14.0432ZM135.865 14.4372C135.865 14.4372 136.301 14.4465 136.446 14.4496C136.301 14.4465 136.01 14.4403 135.72 14.4341L135.865 14.4372ZM181.173 14.6473C181.173 14.6473 180.737 14.6379 180.735 14.7897C180.735 14.7897 181.17 14.799 181.173 14.6473ZM206.851 16.1075C206.851 16.1075 206.997 16.1106 207.145 15.9619C207.145 15.9619 207.145 15.9619 206.851 16.1075ZM218.083 13.4632C218.083 13.4632 218.083 13.4632 217.938 13.4601C217.938 13.4601 217.938 13.4601 218.083 13.4632ZM216.053 13.2679C216.053 13.2679 216.053 13.2679 216.201 13.1193C216.201 13.1193 216.056 13.1162 216.053 13.2679ZM215.894 14.0236C214.738 13.6953 213.719 13.8253 212.555 13.9522C213.136 13.9646 213.719 13.8253 214.442 13.9926C214.733 13.9988 215.459 14.0143 215.894 14.0236ZM206.93 11.8582C206.93 11.8582 206.785 11.8551 206.64 11.852C206.64 11.852 206.64 11.852 206.785 11.8551L206.93 11.8582ZM151.34 10.0618C151.34 10.0618 151.34 10.0618 151.195 10.0587C151.195 10.0587 150.76 10.0494 150.615 10.0463C150.905 10.0525 151.195 10.0587 151.34 10.0618ZM133.951 8.01985C133.951 8.01985 133.951 8.01985 134.096 8.02295L133.951 8.01985ZM120.57 9.09997C120.57 9.09997 120.57 9.09997 120.86 9.10618C120.86 9.10618 120.715 9.10308 120.57 9.09997ZM103.735 8.43623C103.735 8.43623 104.026 8.44244 104.319 8.2969C104.174 8.29379 103.883 8.28758 103.735 8.43623ZM104.291 9.81447C104.291 9.81447 103.71 9.80205 103.565 9.79895C103.855 9.80516 104.146 9.81137 104.436 9.81758L104.291 9.81447ZM53.1208 4.6208C53.1208 4.6208 53.266 4.62391 53.4111 4.62701C53.4111 4.62701 53.4111 4.62701 53.266 4.62391L53.1208 4.6208ZM70.6109 9.09402C70.6109 9.09402 70.6109 9.09402 70.4657 9.09091L70.6109 9.09402ZM66.2333 10.2149C66.2333 10.2149 65.9429 10.2087 65.6526 10.2025C65.7978 10.2056 65.9429 10.2087 66.0881 10.2118L66.2333 10.2149ZM70.6943 12.4358L70.9847 12.442C70.9847 12.442 70.8395 12.4389 70.6943 12.4358ZM81.066 9.16585C81.066 9.16585 81.066 9.16585 81.2112 9.16896C80.4853 9.15343 80.0498 9.14411 79.6087 9.43831C79.6115 9.28656 80.3402 9.15032 80.9209 9.16275L81.066 9.16585ZM76.8981 6.79943C76.8981 6.79943 76.8981 6.79943 76.7529 6.79632C76.7529 6.79632 76.753 6.79632 76.8981 6.79943ZM72.6825 7.01288C72.6825 7.01288 72.6825 7.01288 72.8277 7.01599C72.8277 7.01599 72.6825 7.01288 72.5374 7.00978L72.6825 7.01288ZM70.371 6.35617C70.371 6.35617 70.371 6.35617 70.2258 6.35306L70.371 6.35617ZM114.712 11.7074C114.712 11.7074 113.986 11.6919 113.551 11.6826C113.261 11.6763 113.551 11.6826 113.406 11.6795C113.841 11.6888 114.129 11.8467 114.709 11.8592L114.712 11.7074ZM149.207 15.4816C149.207 15.4816 149.207 15.4816 149.062 15.4785L149.207 15.4816ZM160.553 14.5098C160.553 14.5098 160.263 14.5036 160.117 14.5005C160.263 14.5036 160.408 14.5067 160.553 14.5098ZM168.816 15.2938C168.816 15.2938 169.107 15.3001 169.252 15.3032C169.107 15.3001 168.816 15.2938 168.671 15.2907C168.671 15.2907 168.816 15.2938 168.674 15.139L168.816 15.2938ZM180.852 16.3104C180.852 16.3104 180.997 16.3135 181.142 16.3166C181.142 16.3166 180.852 16.3104 180.706 16.3073L180.852 16.3104ZM220.936 16.2569C220.936 16.2569 221.226 16.2631 221.371 16.2662C221.371 16.2662 221.081 16.26 220.936 16.2569ZM165.065 6.10452C165.065 6.10452 165.21 6.10763 165.355 6.11073C165.355 6.11073 165.065 6.10452 164.92 6.10142L165.065 6.10452ZM146.321 6.61447C146.321 6.61447 146.321 6.61447 146.176 6.61137L146.321 6.61447ZM145.598 6.44719C145.598 6.44719 145.888 6.4534 146.034 6.4565C146.034 6.4565 145.743 6.45029 145.598 6.44719ZM130.051 6.8737L129.905 6.87059C129.905 6.87059 129.905 6.87059 130.051 6.8737ZM124.54 6.45218C124.54 6.45218 124.54 6.45218 124.395 6.44907L124.54 6.45218ZM100.832 8.37412C100.832 8.37412 100.977 8.37723 101.122 8.38033C101.122 8.38033 100.977 8.37723 100.832 8.37412ZM121.493 14.1297C121.493 14.1297 121.348 14.1266 121.203 14.1235C121.348 14.1266 121.493 14.1297 121.638 14.1328L121.493 14.1297ZM136.108 17.0233C136.108 17.0233 136.108 17.0233 135.963 17.0202C136.108 17.0233 136.398 17.0295 136.398 17.0295C136.398 17.0295 136.398 17.0295 136.108 17.0233ZM160.382 15.8725C160.382 15.8725 160.237 15.8694 160.092 15.8663C160.092 15.8663 160.237 15.8694 160.382 15.8725ZM200.469 15.6673C200.469 15.6673 200.902 15.8284 201.19 15.9863C201.19 15.9863 200.902 15.8284 200.469 15.6673ZM226.718 17.747C226.718 17.747 226.718 17.747 226.572 17.7439L226.718 17.747ZM228.223 14.8946C228.223 14.8946 228.077 14.8915 227.932 14.8884C227.932 14.8884 228.077 14.8915 228.223 14.8946ZM153.554 8.13556C153.554 8.13556 152.974 8.12314 152.829 8.12004C153.119 8.12625 153.264 8.12935 153.554 8.13556ZM113.948 5.92197C113.948 5.92197 113.657 5.91576 113.512 5.91265C113.657 5.91576 113.803 5.91886 113.948 5.92197ZM90.5443 7.09133C90.5443 7.09133 90.5443 7.09133 90.3991 7.08823L90.5443 7.09133ZM32.7771 5.24835L33.2126 5.25767C33.2126 5.25767 33.2126 5.25767 33.3578 5.26077C33.2126 5.25767 32.9223 5.25146 32.6319 5.24524L32.7771 5.24835ZM28.3154 10.922C28.3154 10.922 28.3154 10.922 28.4606 10.9251C28.4606 10.9251 28.6058 10.9282 28.7509 10.9313L28.4606 10.9251L28.3154 10.922ZM37.1575 3.97569C37.1575 3.97569 37.1575 3.97569 37.4479 3.9819C37.4479 3.9819 37.3027 3.9788 37.1575 3.97569ZM14.7085 8.50547C14.7085 8.50547 14.4182 8.49926 14.1278 8.49305C14.1278 8.49305 14.5634 8.50237 14.7085 8.50547ZM66.1716 13.5536C66.1716 13.5536 66.314 13.7085 66.4591 13.7116C66.1688 13.7054 65.8784 13.6991 65.5881 13.6929C65.7333 13.696 66.0236 13.7022 66.1688 13.7054L66.1716 13.5536ZM144.268 15.5278C144.268 15.5278 144.268 15.5278 144.266 15.6796C144.12 15.6765 143.975 15.6734 143.685 15.6672C143.83 15.6703 144.12 15.6765 144.266 15.6796L144.268 15.5278ZM205.765 19.8797C205.765 19.8797 205.62 19.8766 205.475 19.8735C205.475 19.8735 205.62 19.8766 205.765 19.8797ZM209.855 18.6008C209.565 18.5946 209.274 18.5884 209.129 18.5853C209.42 18.5915 209.71 18.5977 210 18.6039L209.855 18.6008ZM243.474 14.7654L243.329 14.7623C243.474 14.7654 243.764 14.7716 243.91 14.7747C243.764 14.7716 243.619 14.7685 243.474 14.7654ZM155.174 6.95566C155.174 6.95566 154.593 6.94324 154.306 6.78527C154.596 6.79148 154.886 6.79769 155.174 6.95566ZM109.763 4.46609C109.763 4.46609 109.763 4.46609 109.618 4.46298C109.763 4.46609 109.908 4.46919 110.053 4.4723L109.763 4.46609ZM90.1116 6.93026C90.1116 6.93026 90.1116 6.93026 89.9664 6.92715C89.9664 6.92715 90.1116 6.93026 90.2567 6.93336L90.1116 6.93026ZM18.145 11.1599C18.145 11.1599 18.4353 11.1661 18.5805 11.1692C18.2901 11.163 18.145 11.1599 18.145 11.1599ZM134.639 17.9027C134.639 17.9027 134.93 17.909 135.22 17.9152C135.22 17.9152 135.22 17.9152 135.075 17.9121L134.785 17.9059L134.639 17.9027ZM145.078 18.8851C145.078 18.8851 145.078 18.8851 144.933 18.882L145.078 18.8851ZM170.039 19.8745C170.039 19.8745 170.474 19.8838 170.62 19.887C170.474 19.8838 170.329 19.8807 170.039 19.8745ZM206.636 19.8983C206.636 19.8983 206.636 19.8983 206.781 19.9014L206.636 19.8983ZM235.671 20.5194C235.671 20.5194 235.816 20.5225 235.961 20.5256C235.961 20.5256 235.816 20.5225 235.671 20.5194ZM236.701 19.7823C236.701 19.7823 236.991 19.7885 237.281 19.7948C237.136 19.7917 236.991 19.7885 236.701 19.7823ZM237.424 19.9496C237.424 19.9496 237.279 19.9465 237.133 19.9434C237.279 19.9465 237.424 19.9496 237.569 19.9527C237.569 19.9527 237.569 19.9527 237.424 19.9496ZM238.158 19.5099C238.158 19.5099 238.158 19.5099 238.303 19.513L238.158 19.5099ZM237.542 13.5758C237.542 13.5758 237.542 13.5758 237.396 13.5727L237.542 13.5758ZM229.842 13.7147C229.552 13.7085 229.11 14.0027 228.82 13.9965C228.82 13.9965 228.82 13.9965 228.675 13.9934C229.256 14.0058 229.546 14.012 229.697 13.7116L229.842 13.7147ZM78.2944 1.97112C78.2944 1.97112 78.2944 1.97112 78.152 1.81626C78.5875 1.82557 78.4396 1.97422 78.2944 1.97112ZM10.387 6.59121C10.387 6.59121 10.2418 6.58811 10.0967 6.585C10.0967 6.585 10.2418 6.58811 10.387 6.59121ZM75.0046 14.9571C75.0046 14.9571 75.1498 14.9602 75.295 14.9633C75.295 14.9633 75.295 14.9633 75.1498 14.9602L75.0046 14.9571ZM83.8405 16.2088C83.8405 16.2088 84.4212 16.2212 84.7115 16.2275C84.276 16.2181 83.6953 16.2057 83.1146 16.1933C83.2598 16.1964 83.4078 16.0478 83.8405 16.2088ZM100.231 17.3185C100.231 17.3185 100.231 17.3185 99.9405 17.3123C100.086 17.3154 100.231 17.3185 100.376 17.3216L100.231 17.3185ZM163.696 17.3098C163.696 17.3098 163.696 17.3098 163.987 17.316C163.987 17.316 163.987 17.316 163.841 17.3129L163.696 17.3098ZM182.686 19.2342C182.686 19.2342 182.686 19.2342 182.54 19.2311L182.686 19.2342ZM189.69 17.4104C189.69 17.4104 189.693 17.2586 189.406 17.1006C189.406 17.1006 189.696 17.1068 189.838 17.2617C189.838 17.2617 189.838 17.2617 189.693 17.2586L189.69 17.4104ZM213.174 19.7345L213.029 19.7314C213.029 19.7314 212.884 19.7283 212.739 19.7252C213.029 19.7314 213.029 19.7314 213.32 19.7376L213.174 19.7345ZM246.586 19.2347C246.586 19.2347 246.586 19.2347 246.732 19.2378C246.732 19.2378 246.586 19.2347 246.441 19.2316L246.586 19.2347ZM236.835 12.498C236.835 12.498 236.835 12.498 236.981 12.5011C236.981 12.5011 236.981 12.5011 236.835 12.498ZM228.131 12.0081C228.131 12.0081 228.566 12.0174 229.002 12.0267C229.002 12.0267 228.421 12.0143 228.131 12.0081ZM208.614 7.1879C208.614 7.1879 208.907 7.04235 209.049 7.19722C208.904 7.19411 208.759 7.19101 208.614 7.1879ZM197.617 4.97904C197.617 4.97904 196.456 4.95419 196.02 4.94488C196.456 4.95419 197.034 5.11837 197.472 4.97593L197.617 4.97904ZM132.734 3.13565C132.734 3.13565 132.734 3.13565 132.589 3.13254C132.589 3.13254 132.589 3.13254 132.734 3.13565ZM87.3589 6.56774C87.3589 6.56774 87.5041 6.57085 87.6492 6.57395C87.6492 6.57395 87.7944 6.57706 87.7916 6.72881C87.6464 6.72571 87.5013 6.7226 87.3561 6.7195L87.3589 6.56774ZM29.955 0.785261L29.6647 0.77905C29.6647 0.77905 29.8098 0.782155 29.955 0.785261ZM17.8749 2.19685C17.8749 2.19685 18.1652 2.20306 18.3104 2.20617C18.1652 2.20306 18.0201 2.19996 17.8749 2.19685ZM12.0708 1.92088C12.0708 1.92088 12.0708 1.92088 12.216 1.92398L12.0708 1.92088ZM13.8045 2.41341C13.8045 2.41341 13.8045 2.41341 13.9497 2.41652L13.8045 2.41341ZM9.64434 7.48623C9.64434 7.48623 9.64434 7.48623 9.49917 7.48313L9.64434 7.48623ZM10.521 7.20135C10.521 7.20135 10.521 7.20135 10.3758 7.19824C10.3758 7.19824 10.3758 7.19824 10.521 7.20135ZM26.3777 13.6133C27.3939 13.635 28.4101 13.6567 29.2839 13.5236C28.2677 13.5019 27.3967 13.4832 26.3777 13.6133ZM44.5915 10.3592C44.4463 10.3561 44.156 10.3499 44.0108 10.3468C44.156 10.3499 44.3011 10.353 44.5915 10.3592ZM44.9597 14.0108C44.9597 14.0108 44.0887 13.9921 44.083 14.2956C43.7927 14.2894 43.7927 14.2894 43.6503 14.1346C44.0859 14.1439 44.5214 14.1532 45.1021 14.1656L44.9597 14.0108ZM78.4944 14.7281C78.4944 14.7281 78.3492 14.725 78.204 14.7219L78.3492 14.725L78.4944 14.7281ZM217.22 20.8838C217.22 20.8838 217.225 20.5803 217.228 20.4285C217.518 20.4347 217.664 20.4378 217.954 20.444C218.099 20.4471 218.389 20.4534 218.535 20.4565C218.241 20.602 217.946 20.8993 217.22 20.8838ZM228.691 20.9774C228.691 20.9774 227.971 20.6583 227.39 20.6459C226.809 20.6335 226.96 20.3331 226.818 20.1782C226.815 20.33 227.248 20.491 227.68 20.6521C228.261 20.6645 228.697 20.6738 229.277 20.6863C228.694 20.8256 228.546 20.9743 228.831 21.284C228.831 21.284 228.685 21.2809 228.54 21.2778L228.691 20.9774ZM228.979 21.1353C229.124 21.1384 229.124 21.1384 229.269 21.1415C229.414 21.1446 229.554 21.4513 229.261 21.5968C229.115 21.5937 228.825 21.5875 228.683 21.4326L228.979 21.1353ZM245.976 12.9971C245.976 12.9971 245.976 12.9971 246.121 13.0002L245.976 12.9971ZM213.809 8.96903C213.809 8.96903 213.809 8.96903 213.664 8.96593L213.809 8.96903ZM113.429 2.57087C113.429 2.57087 113.284 2.56776 113.138 2.56466L113.429 2.57087ZM88.8583 4.01891C88.8583 4.01891 88.4228 4.00959 88.1324 4.00338C88.4228 4.00959 88.7131 4.0158 88.8583 4.01891ZM46.3538 1.43969C46.3538 1.43969 46.2086 1.43658 46.0635 1.43348C46.0635 1.43348 46.0635 1.43348 46.2086 1.43658L46.3538 1.43969ZM36.6329 0.928109C36.6329 0.928109 37.6491 0.949847 38.0846 0.959164C37.6491 0.949847 37.0684 0.937426 36.6329 0.928109ZM147.526 20.0002C147.526 20.0002 147.671 20.0033 147.816 20.0064C147.816 20.0064 147.671 20.0033 147.526 20.0002Z" fill="#FF8C00"/>
</g>
</svg>
