<svg width="82" height="82" viewBox="0 0 82 82" fill="none" xmlns="http://www.w3.org/2000/svg">
<path d="M48.7267 82C45.7119 82 43.7494 80.8698 42.5565 79.7779C40.7569 78.1317 40.043 76.0101 39.6171 74.7429L39.4329 74.2135C38.5742 71.9656 38.2837 68.7297 38.1114 64.5631C38.086 63.9117 38.0646 63.2602 38.0472 62.6085C38.0326 62.1091 38.0146 61.4825 37.9889 60.8252C36.9028 61.3275 35.75 61.681 34.5636 61.8756C32.4383 62.2279 30.1536 62.1133 27.7713 61.5357C26.0908 61.1285 24.3443 60.2842 23.3493 58.9795C20.4485 61.4435 17.6813 61.1086 16.1739 60.6216C13.5148 59.7615 11.135 57.3458 8.89742 53.234C7.30432 50.3064 5.76263 46.4904 4.31521 41.8941C1.79573 33.889 0.194913 25.4577 0.0526562 22.6904C-0.394681 14.0256 2.00997 7.82961 7.19977 4.2754C15.3881 -1.33304 27.7927 1.96438 32.3149 3.46185C35.3529 1.686 38.9273 0.820922 42.967 0.884078C45.1369 0.918149 47.2022 1.10346 49.1209 1.4342C51.1219 0.824246 55.076 -0.0516319 59.6016 0.00238336C67.9399 0.0987798 74.8496 3.24994 79.5827 9.11517C82.96 13.3001 81.2906 22.0871 79.994 26.9535C78.1712 33.7968 74.9756 41.0772 71.0507 47.4145C72.1168 47.4219 73.6602 47.2973 75.8557 46.8585C80.1868 45.991 81.4526 48.243 81.7962 49.251C83.1734 53.2955 77.1874 56.3511 75.3201 57.1912C72.9275 58.269 69.0274 58.9247 65.8326 58.7826L65.6929 58.7735L64.854 58.702L64.7708 59.3801L64.6911 60.0441C64.4769 68.0749 63.2934 73.1606 60.8588 76.522C58.3076 80.0447 54.7606 81.0327 51.637 81.6817C50.6812 81.8874 49.7057 81.994 48.7267 82ZM42.3834 52.7703C44.3296 54.2802 44.5001 57.1214 44.6518 62.4315C44.6707 63.0938 44.6887 63.7212 44.7127 64.3071C44.7864 66.0805 44.9586 70.2338 45.6288 71.9889C45.7239 72.2365 45.8087 72.4892 45.8978 72.7551C46.6451 74.9755 47.0205 76.0882 50.2521 75.4168C52.9661 74.8534 54.3604 74.3473 55.4522 72.8399C57.0393 70.6477 57.9271 66.2409 58.0899 59.7374L61.391 59.8155L58.1122 59.4341L58.2082 58.6405C58.5227 56.0245 58.7489 54.1331 60.5529 52.8833C61.9994 51.8803 63.6491 51.9775 64.9628 52.2069C63.5197 51.1507 63.1203 49.9091 63.0141 49.4006L62.739 48.0859L63.512 46.9724C67.9682 40.5603 71.6437 32.6799 73.5959 25.3513C75.6012 17.8208 74.9893 13.8211 74.3783 13.0649C66.2834 3.03388 52.2437 7.17478 50.7783 7.64595L50.5298 7.77559L49.2872 8.00079L48.6504 7.87282C46.8962 7.51964 44.9475 7.32436 42.8573 7.29112C39.5743 7.23793 36.9263 7.98999 34.7547 9.58801L33.2481 10.6957L31.4991 9.99686C27.7644 8.51602 16.7918 5.53853 11.0021 9.51488C7.7885 11.722 6.3248 16.0474 6.65045 22.3705C6.75757 24.458 8.22127 32.36 10.6328 40.0252C13.9672 50.6171 16.9975 54.1348 18.2624 54.5445C18.4826 54.6168 19.0559 54.1847 19.6258 53.5215C23.333 49.1978 26.8586 45.5937 27.0069 45.4417L28.9188 43.4913L31.23 44.9805C32.1615 45.5813 33.189 45.9212 34.2448 45.9851L39.7577 41.4263L38.959 49.3291C38.941 49.5069 38.9324 49.7479 39.0044 50.1967L39.2444 51.695L38.2049 52.8235L38.0849 52.9539L41.1134 54.3101L42.3834 52.7703Z" fill="black"/>
<path d="M76.5263 49.9949C66.9145 51.917 66.2538 48.7617 66.2538 48.7617C76.402 34.1601 80.644 15.6246 76.983 11.0882C66.9951 -1.28714 49.7066 4.56562 49.4178 4.71769L49.3244 4.73348C47.4254 4.35205 45.3009 4.12435 42.9126 4.08696C38.5634 4.01798 35.2641 5.19219 32.7609 7.03287C32.7609 7.03287 1.91866 -5.28759 3.35322 22.5286C3.6583 28.4462 12.1003 67.3047 22.1688 55.5676C25.8486 51.2763 29.4042 47.6473 29.4042 47.6473C31.1704 48.785 33.2845 49.365 35.5015 49.1564L35.6738 49.0152C35.6206 49.5478 35.6446 50.0689 35.7423 50.6855C33.1491 53.4968 33.9101 53.9904 28.7255 55.025C23.4783 56.0737 26.5608 57.9401 28.5738 58.4279C31.0136 59.0205 36.6576 59.8589 40.4711 54.681L40.3185 55.2718C41.3349 56.0612 42.0487 60.4066 41.9288 64.3455C41.8088 68.2845 41.7291 70.9886 42.5304 73.101C43.3316 75.2126 44.1295 79.9659 50.9458 78.5499C56.6412 77.3657 59.5926 74.2985 60.0039 69.1828C60.2953 65.5455 60.9543 66.0832 60.9963 62.8306L61.5259 61.2908C62.1352 56.3596 61.6227 54.769 65.132 55.5095L65.9847 55.5818C68.5676 55.6964 71.9475 55.1787 73.9314 54.2846C78.2042 52.3616 80.7383 49.1515 76.5263 49.9949Z" fill="#336791"/>
<path d="M49.0698 80.0276C43.3872 80.0284 41.5876 75.6648 40.8506 73.8806C39.7734 71.2663 39.5403 61.1181 39.7802 52.7956C39.7962 52.5177 39.9234 52.2569 40.1346 52.0685C40.3459 51.8801 40.6246 51.7791 40.9115 51.7869C41.1983 51.7947 41.4707 51.9107 41.6708 52.1102C41.8708 52.3098 41.9827 52.5771 41.9826 52.8554C41.7058 62.4543 42.0992 71.1525 42.8962 73.087C44.1413 76.1052 46.0292 78.7453 51.369 77.6368C56.438 76.5822 58.3362 74.7183 59.1811 69.9666C59.8307 66.3193 61.1127 55.9443 61.2704 53.8967C61.2921 53.6142 61.4286 53.3517 61.6499 53.1669C61.8712 52.9821 62.1592 52.89 62.4505 52.9111C62.7417 52.9321 63.0124 53.0645 63.203 53.2791C63.3936 53.4937 63.4885 53.7729 63.4668 54.0554C63.3023 56.1861 62.0254 66.542 61.351 70.3298C60.3526 75.9432 57.7723 78.4894 51.8301 79.7251C50.9234 79.9194 49.9983 80.0208 49.0698 80.0276ZM18.2609 58.7165C17.7643 58.716 17.2711 58.6371 16.8007 58.483C13.1097 57.2888 9.59442 51.4602 6.35165 41.1574C3.88359 33.3144 2.31962 25.129 2.18251 22.4689C1.77545 14.5827 3.87073 9.00252 8.40838 5.8846C17.386 -0.283943 32.4892 5.59042 33.1276 5.84305C33.3955 5.95178 33.6083 6.15874 33.7196 6.41888C33.8309 6.67902 33.8317 6.97126 33.7219 7.23198C33.612 7.4927 33.4004 7.70078 33.1331 7.81091C32.8658 7.92104 32.5644 7.92431 32.2946 7.82V7.82084C32.1489 7.76267 17.6662 2.13677 9.67755 7.63054C5.7972 10.2989 4.01556 15.255 4.38149 22.3634C4.49718 24.6038 5.95831 32.5939 8.45808 40.535C11.3529 49.7317 14.648 55.5362 17.4974 56.457C17.9439 56.6024 19.3047 57.042 21.2517 54.7734C24.9127 50.502 28.2763 47.0932 28.3097 47.0592C28.5145 46.8667 28.7883 46.7588 29.0735 46.758C29.3587 46.7572 29.6331 46.8636 29.839 47.0549C30.0449 47.2463 30.1664 47.5075 30.1778 47.7838C30.1892 48.0602 30.0897 48.33 29.9003 48.5367C29.8668 48.5699 26.5547 51.928 22.9451 56.1387C21.2355 58.1315 19.5961 58.7165 18.2609 58.7165ZM66.1825 49.7175C65.9826 49.7178 65.7863 49.6653 65.6148 49.5655C65.4433 49.4657 65.3031 49.3225 65.2093 49.1513C65.1154 48.98 65.0715 48.7872 65.0822 48.5936C65.0928 48.3999 65.1577 48.2128 65.2699 48.0522C75.5286 33.2903 79.1296 15.4544 76.0454 11.6335C72.1633 6.82363 66.6813 4.31068 59.7527 4.16691C54.6221 4.05888 50.5438 5.32949 49.8779 5.55136L49.7108 5.61701C49.0406 5.82144 48.5265 5.46494 48.3328 5.04861C48.2224 4.81007 48.2058 4.54065 48.2859 4.29103C48.3661 4.04142 48.5376 3.82882 48.7681 3.69324L49.0646 3.57524L49.0501 3.57939L49.0655 3.57441C50.1975 3.17303 54.3375 1.96808 59.4665 2.02542C67.1338 2.10353 73.4668 4.97132 77.7807 10.3163C79.822 12.8459 79.8263 18.6737 77.7936 26.3048C75.7215 34.0847 71.8223 42.4471 67.0969 49.2464C66.9962 49.3917 66.8601 49.5108 66.7006 49.593C66.5411 49.6752 66.3632 49.7179 66.1825 49.7175ZM66.7062 56.5509C64.9545 56.5509 63.3846 56.3124 62.4445 55.7656C61.4778 55.2047 61.2936 54.441 61.2696 54.0363C61.0056 49.5455 63.5611 48.7636 64.8645 48.4071C64.6829 48.1411 64.4241 47.8278 64.1575 47.5046C63.3974 46.5838 62.357 45.3224 61.5549 43.436C61.4298 43.1418 61.0356 42.4562 60.5797 41.6635C58.1091 37.368 52.969 28.4289 56.2709 23.8509C57.7997 21.7327 60.8419 20.8992 65.3256 21.3645C64.0067 17.468 57.7251 5.27796 42.8225 5.04113C38.3397 4.968 34.6633 6.30508 31.9013 9.00917C25.7165 15.0664 25.9411 26.0256 25.9436 26.1345C25.9474 26.2747 25.9227 26.4142 25.8708 26.5451C25.819 26.676 25.7411 26.7957 25.6415 26.8974C25.542 26.9991 25.4228 27.0808 25.2906 27.1378C25.1585 27.1949 25.0161 27.2261 24.8716 27.2298C24.727 27.2334 24.5831 27.2094 24.4481 27.1592C24.3132 27.1089 24.1897 27.0333 24.0848 26.9368C23.9799 26.8403 23.8957 26.7246 23.8369 26.5965C23.7781 26.4684 23.7459 26.3303 23.7421 26.1902C23.7284 25.704 23.497 14.2038 30.3365 7.50589C33.5372 4.37134 37.7501 2.82401 42.8585 2.90462C52.3948 3.05669 58.5315 7.75685 62.0014 11.6742C65.7823 15.9422 67.6368 20.6507 67.7894 22.2213C67.9033 23.3897 67.0387 23.624 66.8638 23.6581L66.4671 23.6672C62.0665 22.9842 59.2437 23.4578 58.0765 25.0758C55.5647 28.556 60.4272 37.0115 62.5036 40.623C63.0341 41.5438 63.4163 42.2094 63.5911 42.6208C64.2732 44.2246 65.1628 45.3024 65.8775 46.1683C66.5056 46.9304 67.0507 47.5902 67.246 48.3663C67.336 48.5201 68.6198 50.3599 76.2339 48.8359C78.1424 48.4544 79.2864 48.781 79.6361 49.8065C80.3242 51.825 76.4636 54.1784 74.3263 55.1415C72.4084 56.0049 69.3516 56.5509 66.7062 56.5509ZM63.466 53.8601C63.7068 54.0969 64.9151 54.5041 67.4183 54.4003C69.643 54.3072 71.9902 53.8377 73.3991 53.2044C75.2004 52.3934 76.4019 51.4868 77.0249 50.8677L76.6787 50.9291C71.8103 51.9039 68.367 51.7743 66.4448 50.5427C66.3154 50.4601 66.191 50.3705 66.072 50.2743C65.8638 50.3541 65.6709 50.4064 65.5338 50.4438C64.4429 50.7405 63.3151 51.0472 63.466 53.8601ZM32.0178 59.8259C30.8087 59.8259 29.5361 59.6672 28.236 59.3505C26.8897 59.024 24.6188 58.0409 24.6539 56.4262C24.6925 54.6138 27.4099 54.0703 28.434 53.8659C32.1292 53.128 32.37 52.8321 33.5252 51.4103C33.862 50.9956 34.2811 50.4796 34.8518 49.8605C35.7002 48.9406 36.6275 48.4735 37.6078 48.4735C38.29 48.4735 38.8504 48.6987 39.2198 48.8467C40.399 49.3203 41.3828 50.4655 41.7873 51.8366C42.1523 53.0731 41.9784 54.2631 41.2971 55.1872C39.0621 58.2229 35.8536 59.8259 32.0178 59.8259ZM27.0329 56.5185C27.3654 56.7669 28.0304 57.0993 28.7699 57.2797C29.896 57.5522 30.9878 57.691 32.0178 57.691C35.156 57.691 37.6747 56.4304 39.5052 53.9465C39.8865 53.428 39.7725 52.7707 39.6705 52.4241C39.4563 51.6995 38.925 51.0405 38.3774 50.8195C38.08 50.6998 37.8341 50.6084 37.6078 50.6084C37.4861 50.6084 37.1168 50.6084 36.4938 51.284C35.9676 51.8541 35.5897 52.3194 35.2546 52.7308C33.8166 54.5016 33.1576 55.1025 28.8779 55.9576C27.8341 56.167 27.2985 56.378 27.0329 56.5185ZM35.5014 51.5923C35.2385 51.5919 34.9844 51.5004 34.785 51.3343C34.5856 51.1682 34.454 50.9384 34.4139 50.6865C34.3858 50.5092 34.3675 50.3305 34.3591 50.1513C31.5534 50.0998 28.8471 48.9331 26.7929 46.8539C24.1954 44.2254 23.0128 40.584 23.5493 36.8636C24.132 32.8232 23.9143 29.2566 23.7969 27.3403C23.7676 26.9461 23.7496 26.5512 23.743 26.1561C23.7447 25.8187 23.7515 24.9221 26.8409 23.4038C27.9395 22.8637 30.1428 21.9213 32.5492 21.6795C36.5375 21.2806 39.1658 23.0024 39.9525 26.5292C42.0761 36.0525 40.1205 40.2649 38.6927 43.3404C38.4262 43.9122 38.1751 44.454 37.9746 44.9775L37.7972 45.4404C37.0431 47.4015 36.3909 49.096 36.5915 50.3624C36.6355 50.6424 36.5633 50.9278 36.3906 51.1562C36.2179 51.3846 35.9588 51.5373 35.6702 51.5807L35.5014 51.5923ZM25.9522 26.4511L25.9959 27.214C26.1176 29.2042 26.3438 32.9088 25.7303 37.1602C25.2881 40.2283 26.2547 43.2241 28.3826 45.3772C30.0639 47.0791 32.2784 48.0181 34.5536 48.0181H34.6007C34.8561 46.9769 35.2786 45.8783 35.7336 44.6941L35.9102 44.2346C36.1373 43.6429 36.4029 43.0704 36.684 42.4646C38.0586 39.5029 39.7691 35.8165 37.7989 26.9805C37.4082 25.2312 36.4621 24.2182 34.9067 23.8841C31.7119 23.1994 26.9514 25.5295 25.9522 26.4511ZM32.5989 25.9982C32.544 26.3755 33.3127 27.3835 34.3136 27.5181C35.3137 27.6536 36.1698 26.8658 36.2238 26.4885C36.2778 26.1104 35.51 25.6949 34.5082 25.5594C33.5081 25.424 32.652 25.6201 32.5989 25.9982ZM34.5442 27.8904L34.2631 27.8713C33.6418 27.7874 33.0136 27.4076 32.5843 26.855C32.4335 26.6614 32.1867 26.2841 32.2355 25.9484C32.3058 25.4556 32.9245 25.1614 33.892 25.1614C34.1088 25.1614 34.3334 25.1772 34.5605 25.2071C35.0883 25.2786 35.5794 25.4265 35.9419 25.6226C36.57 25.9633 36.6163 26.3422 36.588 26.5392C36.5101 27.0818 35.6171 27.8904 34.5442 27.8904ZM32.9639 26.0614C32.9956 26.294 33.5895 27.0627 34.3642 27.1666L34.5433 27.1791C35.258 27.1791 35.7928 26.6331 35.8553 26.4544C35.7893 26.3331 35.33 26.0298 34.4576 25.9134C34.27 25.8873 34.0807 25.874 33.8912 25.8736C33.3324 25.8727 33.0333 25.9949 32.9639 26.0614ZM63.0615 25.2279C63.1155 25.606 62.3485 26.614 61.3467 26.7486C60.3457 26.8832 59.4896 26.0963 59.4348 25.7182C59.3817 25.3409 60.1495 24.9246 61.1504 24.7899C62.1514 24.6536 63.0066 24.8514 63.0615 25.2279ZM61.1162 26.9414C60.1521 26.9414 59.3217 26.2143 59.2531 25.7431C59.1743 25.1772 60.1349 24.7467 61.1256 24.6138C61.3433 24.5838 61.5592 24.5689 61.7675 24.5689C62.6219 24.5689 63.1875 24.8124 63.244 25.2038C63.2809 25.4581 63.0803 25.8495 62.7341 26.2018C62.5062 26.4345 62.0263 26.8375 61.3732 26.9248L61.1162 26.9414ZM61.7666 24.9246C61.5755 24.9246 61.3767 24.9387 61.1753 24.9653C60.1795 25.0991 59.5873 25.4871 59.6156 25.6949C59.649 25.9226 60.284 26.5857 61.1153 26.5857L61.3201 26.5716C61.8634 26.4976 62.2713 26.1544 62.4659 25.9558C62.771 25.6442 62.8927 25.3517 62.8781 25.2511C62.8601 25.1207 62.4933 24.9246 61.7666 24.9246ZM64.5038 46.9071C64.3043 46.907 64.1086 46.8544 63.9376 46.7548C63.7666 46.6553 63.6267 46.5125 63.5328 46.3419C63.4389 46.1712 63.3946 45.9791 63.4045 45.7859C63.4145 45.5927 63.4784 45.4058 63.5894 45.2451C65.934 41.8488 65.5047 38.3843 65.0899 35.0354C64.9125 33.6077 64.73 32.1327 64.778 30.7158C64.826 29.2591 65.0162 28.0574 65.2013 26.894C65.4198 25.5171 65.6264 24.2149 65.5407 22.6709C65.5344 22.3934 65.6397 22.1244 65.8343 21.9208C66.0289 21.7173 66.2975 21.5951 66.5833 21.5802C66.8691 21.5653 67.1497 21.6589 67.3657 21.841C67.5817 22.0232 67.7161 22.2796 67.7405 22.5562C67.8382 24.3212 67.6043 25.7938 67.378 27.219C67.2032 28.3184 67.0224 29.4552 66.9787 30.784C66.9367 32.0379 67.1021 33.37 67.2769 34.7794C67.7191 38.3419 68.2187 42.3798 65.4198 46.4326C65.2073 46.7401 64.8585 46.9071 64.5038 46.9071Z" fill="white"/>
</svg>
