<svg width="82" height="100" viewBox="0 0 82 100" fill="none" xmlns="http://www.w3.org/2000/svg">
<g clip-path="url(#clip0_746_37563)">
<path d="M6.60613 17.1953L0 20.4987V78.4764L6.60613 81.7605L6.64584 81.7128V17.2408L6.60613 17.1953Z" fill="#8C3123"/>
<path d="M41.9603 73.3454L6.60547 81.7605V17.1953L41.9603 25.4269V73.3454Z" fill="#E05243"/>
<path d="M26.0039 60.1706L41.0003 62.0795L41.0945 61.8623L41.1787 37.2742L41.0003 37.082L26.0039 38.9634V60.1706Z" fill="#8C3123"/>
<path d="M41 73.4399L75.3923 81.7785L75.4464 81.6923L75.4454 17.253L75.391 17.1953L41 25.5214V73.4399Z" fill="#8C3123"/>
<path d="M56.0006 60.1706L41 62.0795V37.082L56.0006 38.9634V60.1706Z" fill="#E05243"/>
<path d="M56.0009 28.7066L41.0003 31.4403L26.0039 28.7066L40.9814 24.7812L56.0009 28.7066Z" fill="#5E1F18"/>
<path d="M56.0009 70.4L41.0003 67.6484L26.0039 70.4L40.982 74.5806L56.0009 70.4Z" fill="#F2B0A9"/>
<path d="M26.0039 28.7073L41.0003 24.9965L41.1217 24.959V0.100249L41.0003 0L26.0039 7.49879V28.7073Z" fill="#8C3123"/>
<path d="M56.0006 28.7073L41 24.9965V0L56.0006 7.49879V28.7073Z" fill="#E05243"/>
<path d="M40.998 99.1028L26 91.6066V70.3984L40.998 74.108L41.2187 74.3587L41.1588 98.6701L40.998 99.1028Z" fill="#8C3123"/>
<path d="M41 99.1028L55.9993 91.6066V70.3984L41 74.108V99.1028Z" fill="#E05243"/>
<path d="M75.3906 17.1953L81.9996 20.4987V78.4764L75.3906 81.7785V17.1953Z" fill="#E05243"/>
</g>
<defs>
<clipPath id="clip0_746_37563">
<rect width="82" height="99.2878" fill="white"/>
</clipPath>
</defs>
</svg>
