<svg width="96" height="84" viewBox="0 0 96 84" fill="none" xmlns="http://www.w3.org/2000/svg">
<path d="M10.5902 10.7163C10.4091 5.14108 14.4615 0 19.9391 0H76.0678C81.5454 0 85.5979 5.14108 85.4167 10.7163C85.2428 16.0718 85.4687 23.0092 87.0975 28.6658C88.7316 34.3399 91.4871 37.9264 96 38.3873V43.6127C91.4871 44.0736 88.7316 47.6601 87.0975 53.3342C85.4687 58.9908 85.2428 65.9282 85.4167 71.2839C85.5979 76.8589 81.5454 82 76.0678 82H19.9391C14.4615 82 10.4091 76.8589 10.5904 71.2839C10.7642 65.9282 10.5382 58.9908 8.90925 53.3342C7.27537 47.6601 4.51312 44.0736 0 43.6127V38.3873C4.51294 37.9264 7.27537 34.3399 8.90925 28.6658C10.5382 23.0092 10.7642 16.0718 10.5902 10.7163Z" fill="url(#paint0_linear_746_36753)"/>
<g filter="url(#filter0_d_746_36753)">
<path d="M50.0808 62.7983C58.949 62.7983 64.293 58.144 64.293 50.4671C64.293 44.6642 60.48 40.4631 54.8182 39.7981V39.5563C58.9779 38.831 62.2421 34.6904 62.2421 30.0662C62.2421 23.4775 57.3892 19.1855 49.9942 19.1855H33.3555V62.7983H50.0808ZM39.8261 24.7165H48.4344C53.114 24.7165 55.7715 26.953 55.7715 31.003C55.7715 35.3251 52.6807 37.7429 47.0767 37.7429H39.8261V24.7165ZM39.8261 57.2675V42.9113H48.3765C54.5004 42.9113 57.678 45.3291 57.678 50.0441C57.678 54.7589 54.5872 57.2675 48.752 57.2675H39.8261Z" fill="url(#paint1_linear_746_36753)"/>
<path d="M50.0808 62.7983C58.949 62.7983 64.293 58.144 64.293 50.4671C64.293 44.6642 60.48 40.4631 54.8182 39.7981V39.5563C58.9779 38.831 62.2421 34.6904 62.2421 30.0662C62.2421 23.4775 57.3892 19.1855 49.9942 19.1855H33.3555V62.7983H50.0808ZM39.8261 24.7165H48.4344C53.114 24.7165 55.7715 26.953 55.7715 31.003C55.7715 35.3251 52.6807 37.7429 47.0767 37.7429H39.8261V24.7165ZM39.8261 57.2675V42.9113H48.3765C54.5004 42.9113 57.678 45.3291 57.678 50.0441C57.678 54.7589 54.5872 57.2675 48.752 57.2675H39.8261Z" stroke="white"/>
</g>
<defs>
<filter id="filter0_d_746_36753" x="16.8555" y="6.68555" width="63.9375" height="76.6123" filterUnits="userSpaceOnUse" color-interpolation-filters="sRGB">
<feFlood flood-opacity="0" result="BackgroundImageFix"/>
<feColorMatrix in="SourceAlpha" type="matrix" values="0 0 0 0 0 0 0 0 0 0 0 0 0 0 0 0 0 0 127 0" result="hardAlpha"/>
<feOffset dy="4"/>
<feGaussianBlur stdDeviation="8"/>
<feColorMatrix type="matrix" values="0 0 0 0 0 0 0 0 0 0 0 0 0 0 0 0 0 0 0.15 0"/>
<feBlend mode="normal" in2="BackgroundImageFix" result="effect1_dropShadow_746_36753"/>
<feBlend mode="normal" in="SourceGraphic" in2="effect1_dropShadow_746_36753" result="shape"/>
</filter>
<linearGradient id="paint0_linear_746_36753" x1="14.2648" y1="2.17019" x2="102.578" y2="67.5714" gradientUnits="userSpaceOnUse">
<stop stop-color="#9013FE"/>
<stop offset="1" stop-color="#6610F2"/>
</linearGradient>
<linearGradient id="paint1_linear_746_36753" x1="36.2818" y1="22.0562" x2="57.0256" y2="54.7854" gradientUnits="userSpaceOnUse">
<stop stop-color="white"/>
<stop offset="1" stop-color="#F1E5FC"/>
</linearGradient>
</defs>
</svg>
