<svg width="82" height="82" viewBox="0 0 82 82" fill="none" xmlns="http://www.w3.org/2000/svg">
<path d="M82 0L74.5296 73.7914L40.9498 82L7.4625 73.803L0 0H82Z" fill="#264DE4"/>
<path d="M68.1341 69.0933L74.5181 6.03516H41V75.7264L68.1341 69.0933Z" fill="#2965F1"/>
<path d="M17.1094 33.4062L18.0294 42.4578H41.0018V33.4062H17.1094Z" fill="#EBEBEB"/>
<path d="M40.9989 15.0859H40.9634H15.2578L16.191 24.1377H40.9989V15.0859Z" fill="#EBEBEB"/>
<path d="M40.998 66.3324V56.915L40.953 56.9255L29.5202 54.2035L28.7894 46.9844H23.2339H18.4844L19.9226 61.1967L40.9508 66.344L40.998 66.3324Z" fill="#EBEBEB"/>
<path d="M53.6057 42.4582L52.4142 54.1975L40.9648 56.9223V66.3394L62.0098 61.1965L62.1642 59.6673L64.5765 35.8373L64.8269 33.4067L66.6802 15.0859H40.9648V24.1377H55.43L54.4959 33.4067H40.9648V42.4582H53.6057Z" fill="white"/>
</svg>
