<svg width="215" height="53" viewBox="0 0 215 53" fill="none" xmlns="http://www.w3.org/2000/svg">
<g clip-path="url(#clip0_746_37961)">
<path d="M91.9385 19.0802L91.9389 19.0781L90.5625 23.9876L91.9385 19.0802Z" fill="#131B28"/>
<path d="M98.6289 37.0703H98.6305L89.543 37.1036L98.6289 37.0703Z" fill="#131B28"/>
<path d="M99.4258 36.4468L101.009 30.3711L99.4258 36.448V36.4468Z" fill="#131B28"/>
<path d="M125.301 8.46762L123.062 18.8899L125.301 8.4668V8.46762Z" fill="#131B28"/>
<path d="M132.38 7.83984H126.074C125.724 7.83984 125.377 8.12234 125.302 8.46638L123.064 18.8895L120.825 29.3126C120.751 29.6567 120.404 29.9382 120.054 29.9382H116.228H115.591C111.175 29.9382 111.686 26.865 112.59 22.6537C112.599 22.6114 112.609 22.57 112.618 22.5266L112.717 21.9959C112.723 21.9616 112.73 21.9273 112.735 21.896L112.937 20.8154L113.153 19.6572C113.219 19.3081 113.318 18.7976 113.383 18.4768L114.401 13.4727L115.419 8.46857C115.49 8.12351 115.26 7.84 114.91 7.84H108.438C108.088 7.84 107.742 8.12351 107.67 8.46757L106.279 15.1123L104.887 21.7562C104.886 21.7591 104.885 21.7633 104.885 21.7663L104.756 22.3838C103.153 29.7488 103.578 36.7721 112.289 36.9919C112.432 36.9961 112.542 36.9971 112.542 36.9971H126.217C126.567 36.9971 126.913 36.7146 126.986 36.3695L129.935 22.4193L132.884 8.46778C132.957 8.12273 132.73 7.83984 132.38 7.83984Z" fill="#131B28"/>
<path d="M157.533 30.0117C157.883 30.0117 158.112 30.2942 158.042 30.6393L157.43 33.6509" fill="#131B28"/>
<path d="M156.817 36.6641L157.429 33.6504L156.816 36.665C156.816 36.6642 156.817 36.6641 156.817 36.6641Z" fill="#131B28"/>
<path d="M156.05 37.2977C156.051 37.2977 156.052 37.2969 156.053 37.2969C154.197 37.312 148.621 37.3544 144.43 37.3544C149.53 37.3544 156.05 37.2979 156.05 37.2979L156.05 37.2977Z" fill="#131B28"/>
<path d="M140.668 26.1318C140.663 25.8018 141.036 25.2338 141.386 25.2338L140.599 25.2207C140.244 28.8125 140.668 26.1318 140.668 26.1318Z" fill="#131B28"/>
<path d="M157.531 30.0117C157.882 30.0117 158.111 30.2942 158.04 30.6393L157.428 33.6509L157.328 34.1423" fill="#131B28"/>
<path d="M147.967 37.3457C147.456 37.3478 146.947 37.3498 146.445 37.3509C146.947 37.35 147.457 37.348 147.967 37.3457Z" fill="#131B28"/>
<path d="M156.055 37.2969C154.695 37.308 151.337 37.3332 147.988 37.3463C151.336 37.3342 154.695 37.308 156.055 37.2969Z" fill="#131B28"/>
<path d="M156.817 36.664L157.33 34.1406L156.816 36.6659C156.816 36.6651 156.817 36.6652 156.817 36.664Z" fill="#131B28"/>
<path d="M53.1174 26.2077L54.0968 21.8379L52.977 26.8329L51.9023 31.9209L52.8442 27.4606C52.9169 27.1156 53.0402 26.5517 53.1174 26.2077Z" fill="#131B28"/>
<path d="M64.8438 7.76562H57.919C57.5686 7.76562 57.2192 8.04711 57.141 8.39014L56.4844 11.3069L55.8278 14.2248C55.7506 14.5678 55.9736 14.8493 56.324 14.8493H63.3026C63.6525 14.8493 64.0004 14.5678 64.0755 14.2237L64.7101 11.3069L65.3447 8.39216V8.39134C65.4194 8.04729 65.1942 7.76562 64.8438 7.76562Z" fill="#131B28"/>
<path d="M63.3358 17.4696V17.4688L61.3047 26.9253L63.3358 17.4696Z" fill="#131B28"/>
<path d="M43.2177 48.8018C43.2177 48.8018 46.7085 48.8472 48.9275 48.8472C47.2418 48.8472 44.4578 48.8159 43.2148 48.8008C43.2161 48.8008 43.2169 48.8016 43.2181 48.8016L43.2177 48.8018Z" fill="#131B28"/>
<path d="M62.8332 16.8418H55.8538C55.5039 16.8418 55.154 17.1233 55.0768 17.4673L54.0964 21.8371L53.117 26.2069C53.0398 26.5509 52.9164 27.1149 52.8438 27.4599L51.9019 31.9202L50.9606 36.3805C50.8874 36.7245 50.737 37.2804 50.6247 37.6144C50.6247 37.6144 49.321 41.5189 47.129 41.4745C47.0357 41.4724 46.945 41.4716 46.8553 41.4693C45.7931 41.4491 44.9586 41.434 44.9586 41.434H44.9569C44.6075 41.4288 44.2561 41.7034 44.1745 42.0454L43.4507 45.1075L42.7278 48.1686C42.6466 48.5106 42.8662 48.7931 43.2141 48.7992C44.4572 48.8143 47.2411 48.8456 48.9267 48.8456C54.402 48.8456 57.2883 45.7925 59.1386 37.007L61.304 26.924L63.335 17.4675C63.4087 17.1234 63.1827 16.8419 62.8328 16.8419L62.8332 16.8418Z" fill="#131B28"/>
<path d="M161.978 36.9966C161.628 36.9966 161.401 36.7141 161.475 36.369L166.725 11.6191" fill="#131B28"/>
<path d="M161.552 36.6825C161.509 36.51 161.534 36.0872 161.608 35.7422L164.1 23.9941L161.475 36.3687C161.401 36.7137 161.628 36.9962 161.978 36.9962H162.616C162.265 36.9962 161.594 36.855 161.552 36.6825Z" fill="#131B28"/>
<path d="M168.863 36.8551C168.672 36.9328 168.229 36.9964 167.879 36.9964H168.516C168.866 36.9964 169.21 36.7139 169.279 36.3678L169.406 35.7402C169.336 36.0853 169.054 36.7774 168.863 36.8551Z" fill="#131B28"/>
<path d="M170.34 31.0862L171.277 26.4238C171.277 26.4267 171.276 26.4309 171.276 26.4329L170.34 31.0862Z" fill="#131B28"/>
<path d="M191.057 13.2773L191.346 14.48C191.426 14.824 191.205 15.1035 190.855 15.1045" fill="#131B28"/>
<path d="M171.277 26.4248C171.347 26.0797 171.462 25.5208 171.535 25.1788L172.536 20.459L171.402 25.8053L171.277 26.4248Z" fill="#131B28"/>
<path d="M166.811 11.2129C166.742 11.5458 166.652 11.9665 166.593 12.245L164.102 23.9939L166.727 11.6185L166.811 11.2129Z" fill="#131B28"/>
<path d="M191.346 14.4802L191.056 13.2775L190.77 12.0456L190.625 11.4221C190.058 9.20544 188.394 7.92613 184.781 7.92613L179.155 7.9201L173.974 7.91406H173.53H168.145C167.795 7.91406 167.448 8.19555 167.376 8.5406H167.376L167.118 9.76644L166.814 11.2142L166.729 11.6198L164.104 23.9952L161.613 35.7432C161.538 36.0882 161.513 36.511 161.556 36.6835C161.598 36.856 162.27 36.9973 162.62 36.9973H167.879C168.23 36.9973 168.673 36.9337 168.863 36.856C169.054 36.7783 169.336 36.0862 169.406 35.7412L170.341 31.0871L171.277 26.4338C171.277 26.4318 171.278 26.4278 171.278 26.4247L171.403 25.8053L172.537 20.459L173.539 15.7371C173.613 15.3941 173.958 15.1136 174.307 15.1126L190.855 15.1045C191.205 15.1037 191.426 14.8241 191.346 14.48L191.346 14.4802Z" fill="#131B28"/>
<path d="M212.647 3.60496C212.296 3.60743 211.723 3.60963 211.373 3.60963H206.076C205.726 3.60963 205.277 3.84773 205.08 4.1388L193.367 21.4075C193.169 21.6991 192.944 21.6557 192.866 21.3127L192.005 17.508C191.927 17.164 191.576 16.8835 191.226 16.8835H183.696C183.346 16.8835 183.139 17.16 183.234 17.499L186.608 29.3941C186.704 29.7331 186.711 30.2901 186.625 30.6311L185.154 36.3881C185.067 36.7302 185.282 37.0096 185.633 37.0096H193.075C193.424 37.0096 193.782 36.7302 193.869 36.3881L195.34 30.6311C195.427 30.2901 195.671 29.7796 195.882 29.4981L214.896 4.09979C215.107 3.8183 214.993 3.58926 214.643 3.59182L212.647 3.60496Z" fill="#131B28"/>
<path d="M152.829 18.5034L152.828 18.4963C152.784 18.8787 152.434 19.1592 152.084 19.1592H142.538C142.208 19.1592 142.04 18.9332 142.088 18.6547C142.091 18.6466 142.093 18.6396 142.098 18.6325C142.098 18.6325 142.094 18.6333 142.092 18.6354C142.094 18.6243 142.094 18.6142 142.097 18.6031C142.097 18.6031 142.115 18.5355 142.14 18.4397C143.052 16.0001 144.909 14.3989 148.399 14.3989C152.329 14.3989 153.096 16.3312 152.829 18.5034ZM150.028 7.41406C137.775 7.41406 134.871 14.8994 133.242 22.4541C131.613 30.1543 131.753 37.354 144.433 37.354H144.883C144.923 37.3532 144.964 37.3532 145.004 37.3532H145.359H145.49H145.822C145.872 37.3523 145.921 37.3523 145.971 37.3523C146.097 37.3523 146.225 37.3515 146.353 37.3515H146.442C146.944 37.3507 147.454 37.3482 147.964 37.3464H147.989C151.338 37.3333 154.697 37.308 156.057 37.2969C156.405 37.2918 156.745 37.0094 156.817 36.6674L157.33 34.142L157.43 33.6507L158.042 30.639C158.113 30.294 157.884 30.0115 157.533 30.0115H146.134C141.6 30.0115 140.254 28.7987 140.75 25.2342H158.972L158.97 25.2363C158.975 25.2363 158.979 25.2342 158.983 25.2342C159.273 25.2291 159.54 25.0284 159.647 24.7611C159.667 24.7096 159.684 24.6561 159.691 24.6007L159.689 24.6027C162.394 14.3317 161.618 7.4146 150.027 7.4146L150.028 7.41406Z" fill="#131B28"/>
<path d="M92.1131 18.4638L91.9406 19.0783C91.9406 19.0803 91.9402 19.0803 91.9402 19.0803L90.5643 23.9877L89.1889 28.8943C89.0936 29.2333 88.7297 29.5108 88.3788 29.5108H81.096C75.5718 29.5108 74.2266 25.1625 75.5718 18.7488C76.9167 12.1888 79.5538 8.11076 84.9908 7.69791C92.4206 7.1339 93.9071 12.3931 92.1131 18.4638ZM97.1075 29.1333C97.1075 29.1333 100.541 20.7429 101.321 15.8963C102.384 9.40858 99.157 0 86.6903 0C74.2948 0 68.9123 8.98293 66.8583 18.7482C64.8047 28.584 67.4954 37.2103 79.8206 37.1397L89.5438 37.1033L98.6314 37.07C98.9812 37.0671 99.3391 36.7875 99.4284 36.4475L101.011 30.3706C101.1 30.0296 100.886 29.7491 100.536 29.7471L99.0183 29.738L97.5016 29.7289C97.2038 29.7268 97.0334 29.5332 97.0695 29.2759C97.076 29.2295 97.0866 29.182 97.1066 29.1326L97.1075 29.1333Z" fill="#131B28"/>
<path d="M158.469 23.5174C158.469 23.7494 158.282 23.9381 158.051 23.9381C157.82 23.9381 157.633 23.7494 157.633 23.5174C157.633 23.2853 157.82 23.0977 158.051 23.0977C158.282 23.0977 158.469 23.2853 158.469 23.5174Z" fill="#131B28"/>
<path d="M2.45493 12.6073C-0.967643 17.5581 -0.541577 23.9991 2.07297 29.2594C2.13513 29.3855 2.20029 29.5096 2.26445 29.6337C2.30556 29.7124 2.34415 29.7931 2.38676 29.8708C2.41083 29.9172 2.43788 29.9626 2.46295 30.007C2.50755 30.0907 2.55317 30.1705 2.59929 30.2522C2.68049 30.3965 2.7637 30.5397 2.84891 30.683C2.89603 30.7617 2.94265 30.8404 2.99127 30.9191C3.0855 31.0724 3.18225 31.2238 3.28099 31.3751C3.3221 31.4397 3.36219 31.5043 3.4043 31.5668C3.54064 31.7716 3.67999 31.9754 3.82384 32.1762C3.82741 32.1814 3.83133 32.1873 3.83585 32.1923C3.85843 32.2246 3.88348 32.2559 3.90652 32.2882C4.03084 32.4607 4.15916 32.6312 4.28898 32.7997C4.33661 32.8612 4.38472 32.9228 4.43284 32.9843C4.54863 33.1306 4.66642 33.2759 4.78623 33.4212C4.83083 33.4756 4.87595 33.5301 4.92106 33.5836C5.08196 33.7743 5.24587 33.964 5.41328 34.1496C5.41636 34.1525 5.42031 34.1567 5.42328 34.1597C5.43032 34.1677 5.43632 34.1728 5.44232 34.1808C5.60573 34.3604 5.77315 34.536 5.94259 34.7115C5.99522 34.766 6.04886 34.8205 6.10299 34.874C6.23432 35.0072 6.36765 35.1383 6.50249 35.2685C6.55712 35.3209 6.61126 35.3744 6.6659 35.4248C6.84584 35.5954 7.0278 35.7628 7.21326 35.9263C7.21634 35.9292 7.21875 35.9315 7.22178 35.9334C7.25335 35.9616 7.28594 35.9878 7.31702 36.0151C7.48043 36.1573 7.64685 36.2986 7.81425 36.4378C7.88242 36.4933 7.9516 36.5478 8.02027 36.6033C8.15711 36.7133 8.29545 36.8222 8.4348 36.9292C8.50848 36.9857 8.58216 37.0422 8.65635 37.0987C8.81023 37.2127 8.96512 37.3247 9.12151 37.4347C9.17865 37.476 9.23379 37.5164 9.29093 37.5557C9.30694 37.5668 9.32152 37.5779 9.33754 37.589C9.48591 37.6919 9.63779 37.7908 9.78919 37.8897C9.85435 37.9331 9.91901 37.9785 9.98468 38.0209C10.2173 38.1692 10.4534 38.3155 10.6919 38.4567C10.7566 38.4941 10.8223 38.5304 10.8874 38.5677C11.0629 38.6696 11.2393 38.7695 11.4182 38.8673C11.515 38.9198 11.6142 38.9692 11.712 39.0197C11.8383 39.0863 11.9636 39.1539 12.0919 39.2185C12.121 39.2326 12.1511 39.2467 12.1796 39.2608C12.2313 39.286 12.2834 39.3102 12.335 39.3365C12.534 39.4323 12.7345 39.5262 12.9371 39.617C12.9802 39.6361 13.0218 39.6553 13.0644 39.6745C13.2964 39.7764 13.5305 39.8742 13.7666 39.9681C13.8233 39.9913 13.8804 40.0135 13.9376 40.0357C14.1561 40.1204 14.3777 40.2042 14.6002 40.2829C14.6283 40.2929 14.6554 40.302 14.6834 40.3121C14.9275 40.3978 15.1742 40.4775 15.4223 40.5552C15.4814 40.5724 15.5411 40.5915 15.6007 40.6087C15.8533 40.6854 16.103 40.7772 16.3636 40.8256C32.916 43.8635 37.724 30.8149 37.724 30.8149C33.6859 36.1095 26.518 37.5059 19.7266 35.9513C19.4695 35.8927 19.2199 35.812 18.9688 35.7374C18.9051 35.7182 18.8424 35.6991 18.7798 35.6799C18.5347 35.6042 18.2915 35.5245 18.05 35.4408C18.0169 35.4287 17.9833 35.4165 17.9497 35.4044C17.7332 35.3277 17.5191 35.247 17.3061 35.1643C17.246 35.1401 17.1858 35.1169 17.1257 35.0927C16.8921 34.9998 16.66 34.903 16.4309 34.8021C16.3838 34.7819 16.3387 34.7607 16.2921 34.7406C16.0951 34.6508 15.9001 34.56 15.7061 34.4661C15.65 34.4389 15.5938 34.4127 15.5367 34.3844C15.3843 34.3096 15.2336 34.2298 15.0833 34.1522C14.9827 34.0988 14.8805 34.0484 14.7807 33.9926C14.5972 33.8939 14.4169 33.791 14.2375 33.686C14.1767 33.6517 14.1151 33.6186 14.0539 33.5831C13.8153 33.4418 13.5796 33.2955 13.3464 33.1471C13.2819 33.1058 13.2191 33.0616 13.1555 33.019C12.9863 32.9091 12.8179 32.7971 12.652 32.6822C12.597 32.6446 12.544 32.6045 12.4898 32.5673C12.3297 32.4533 12.1712 32.338 12.0139 32.221C11.9425 32.1677 11.8722 32.114 11.8028 32.0607C11.6587 31.9495 11.5154 31.8375 11.3733 31.7226C11.3092 31.6712 11.245 31.6197 11.1819 31.5683C11.0014 31.4189 10.823 31.2686 10.647 31.1143C10.6285 31.0981 10.6084 31.082 10.5884 31.0648C10.3979 30.8963 10.2109 30.7238 10.026 30.5503C9.97234 30.4988 9.9202 30.4484 9.86757 30.3969C9.73073 30.2658 9.5959 30.1336 9.46356 29.9984C9.41043 29.9449 9.3573 29.8925 9.30517 29.839C9.13675 29.6655 8.97133 29.4899 8.80942 29.3113C8.80141 29.3022 8.79289 29.2942 8.78488 29.2851C8.61345 29.0964 8.44603 28.9037 8.28211 28.709C8.23751 28.6555 8.19439 28.6041 8.15028 28.5516C8.02798 28.4033 7.90667 28.253 7.78837 28.1016C7.74403 28.0471 7.69968 27.9913 7.65574 27.9351C7.51325 27.7491 7.37405 27.5636 7.23772 27.3751C3.46723 22.1991 2.11269 15.0601 5.12628 9.19727" fill="#0868AC"/>
<path d="M13.0776 8.43773C10.6025 12.0224 10.7368 16.821 12.6676 20.6122C12.9914 21.2479 13.3553 21.8643 13.7623 22.4515C14.1333 22.9862 14.5443 23.6229 15.0365 24.0527C15.215 24.2504 15.4014 24.4431 15.5919 24.6328C15.64 24.6822 15.6891 24.7296 15.7383 24.7781C15.9232 24.9587 16.1112 25.1362 16.3057 25.3088C16.3137 25.3148 16.3207 25.3229 16.3287 25.329C16.3308 25.3311 16.3328 25.3319 16.3342 25.3342C16.5492 25.5238 16.7713 25.7065 16.9969 25.886C17.047 25.9243 17.0966 25.9647 17.1472 26.0041C17.3733 26.1786 17.6039 26.3501 17.8405 26.5136C17.8475 26.5187 17.8535 26.5236 17.8605 26.5287C17.9648 26.6013 18.0711 26.6689 18.1768 26.7385C18.2274 26.7719 18.2756 26.8072 18.3267 26.8384C18.4956 26.9474 18.6665 27.0533 18.8405 27.1552C18.8651 27.1704 18.8891 27.1835 18.9132 27.1976C19.063 27.2844 19.2149 27.3701 19.3673 27.4528C19.4204 27.4831 19.4746 27.5093 19.5287 27.5376C19.634 27.5931 19.7392 27.6496 19.8465 27.7031C19.8625 27.7111 19.8791 27.7182 19.8946 27.7253C20.1126 27.8332 20.3327 27.9372 20.5573 28.036C20.6054 28.0572 20.655 28.0764 20.7036 28.0966C20.8831 28.1733 21.0645 28.2479 21.247 28.3185C21.3242 28.3478 21.4024 28.376 21.4796 28.4043C21.645 28.4658 21.8109 28.5223 21.9783 28.5788C22.054 28.6031 22.1282 28.6283 22.2039 28.6515C22.442 28.7261 22.677 28.82 22.9252 28.8613C35.7051 30.9922 38.6555 21.0897 38.6555 21.0897C35.9958 24.9448 30.8453 26.7839 25.3491 25.3483C25.105 25.2837 24.8644 25.2131 24.6253 25.1374C24.5521 25.1152 24.4804 25.091 24.4077 25.0668C24.2378 25.0113 24.0689 24.9528 23.9015 24.8912C23.8248 24.8629 23.7481 24.8347 23.6729 24.8055C23.4894 24.7348 23.308 24.6612 23.128 24.5845C23.0789 24.5633 23.0293 24.5442 22.9812 24.5219C22.7556 24.4231 22.5336 24.3192 22.3145 24.2102C22.2017 24.1547 22.091 24.0962 21.9802 24.0387C21.916 24.0054 21.8514 23.9721 21.7872 23.9388C21.6448 23.8611 21.5035 23.7804 21.3641 23.6987C21.3311 23.6795 21.2965 23.6613 21.2629 23.6412C21.0899 23.5393 20.9195 23.4343 20.7506 23.3264C20.6985 23.2931 20.6483 23.2568 20.5962 23.2225C20.4849 23.1498 20.3736 23.0762 20.2644 23.0015C20.0288 22.838 19.7997 22.6665 19.5737 22.493C19.5215 22.4516 19.4694 22.4113 19.4183 22.3699C17.0124 20.4582 15.1055 17.846 14.1988 14.8838C13.2486 11.8116 13.4535 8.36302 15.0997 5.56445" fill="#0868AC"/>
<path d="M22.0158 5.31995C20.5566 7.48107 20.4133 10.165 21.4258 12.5519C22.4935 15.0853 24.6814 17.0729 27.2349 18.0152C27.3402 18.0545 27.4455 18.0898 27.5522 18.1261C27.5988 18.1403 27.6449 18.1564 27.6921 18.1705C27.8424 18.2179 27.9918 18.2734 28.1472 18.3027C35.2038 19.6748 37.1178 14.6584 37.6273 13.9201C35.9507 16.3496 33.133 16.9327 29.676 16.0883C29.4029 16.0213 29.1027 15.9222 28.8395 15.8284C28.502 15.7073 28.1694 15.5692 27.8462 15.413C27.2323 15.1163 26.6472 14.756 26.1048 14.3435C23.0111 11.9814 21.0894 7.47481 23.108 3.80469" fill="#0868AC"/>
<path d="M101.492 47.4129L99.4581 52.0752H97.2125L97.3964 47.839L95.7433 52.0752H93.5689L93.5117 47.4129L93.7518 46.2617H95.2917L94.9949 50.8666L96.7042 46.2617H98.8511L98.6957 50.9241L100.391 46.2617H101.732L101.492 47.4129Z" fill="#0868AC"/>
<path d="M105.036 48.7921C105.234 47.8821 105.177 47.7116 104.711 47.7116H104.005L103.552 49.8444L102.86 52.0752H101.547L102.62 47.0153L102.776 46.2757H103.976L104.132 46.6167C104.132 46.6167 104.824 46.2051 105.501 46.2051C106.942 46.2051 106.83 47.2988 106.518 48.792L105.036 48.7921Z" fill="#0868AC"/>
<path d="M109.302 45.5361C108.723 45.5361 108.356 45.3655 108.497 44.6552C108.652 43.9439 109.104 43.7734 109.669 43.7734C110.235 43.7734 110.616 43.9439 110.46 44.6552C110.319 45.3514 109.867 45.5361 109.302 45.5361ZM108.681 52.075H107.381L107.635 49.8009L108.087 47.6973L107.184 47.4975L107.438 46.2616H109.909L108.681 52.075Z" fill="#0868AC"/>
<path d="M114.313 47.4963L112.689 47.696L112.222 49.9136C112.095 50.525 112.095 50.6956 112.632 50.6956H113.72L113.494 51.8609C113.494 51.8609 112.506 52.1595 112.081 52.1595C110.414 52.1595 110.428 51.2353 110.726 49.8561L111.178 47.6819L110.273 47.4832L110.542 46.2462H111.488L112.025 44.7812H113.311L112.999 46.2462H114.581L114.313 47.4963Z" fill="#0868AC"/>
<path d="M117.69 47.5701C116.928 47.5701 116.532 47.9686 116.377 48.6789L118.552 48.4942C118.651 48.011 118.552 47.5701 117.69 47.5701ZM116.165 49.7301C116.066 50.4414 116.334 50.6826 117.238 50.6826H119.512L119.286 51.7632C119.286 51.7632 117.916 52.1465 116.899 52.1465C114.371 52.1465 114.342 50.7119 114.668 49.1763C114.993 47.6689 115.571 46.1777 118.015 46.1777C120.374 46.1777 120.487 47.6124 119.908 49.7302L116.165 49.7301Z" fill="#0868AC"/>
<path d="M125.088 52.0747H123.789L124.043 49.8005L124.961 45.4791L124.057 45.2663L124.325 44.0293H126.798L125.088 52.0747Z" fill="#0868AC"/>
<path d="M129.784 47.5701C129.021 47.5701 128.626 47.9686 128.47 48.6789L130.646 48.4942C130.744 48.011 130.646 47.5701 129.784 47.5701ZM128.259 49.7301C128.16 50.4414 128.429 50.6826 129.332 50.6826H131.606L131.38 51.7632C131.38 51.7632 130.009 52.1465 128.992 52.1465C126.464 52.1465 126.437 50.7119 126.761 49.1763C127.087 47.6689 127.666 46.1777 130.109 46.1777C132.468 46.1777 132.58 47.6124 132.002 49.7302L128.259 49.7301Z" fill="#0868AC"/>
<path d="M137.957 47.6407C137.957 47.6407 136.304 47.6549 135.853 47.6549C134.892 47.6549 134.793 47.9525 134.723 48.2653L134.666 48.5498L137.717 48.7778C137.717 48.7778 137.731 49.7585 137.603 50.3124C137.42 51.2366 136.474 52.1739 134.765 52.1739C133.917 52.1739 132.547 51.848 132.547 51.848L132.787 50.7251H134.892C135.824 50.7251 135.951 50.4688 136.009 50.2135L136.079 49.8443L133.084 49.6163C133.084 49.6163 132.971 48.8626 133.126 48.1099C133.353 47.0859 134.284 46.2051 135.993 46.2051C136.841 46.2051 138.211 46.5168 138.211 46.5168L137.957 47.6407Z" fill="#0868AC"/>
<path d="M143.636 47.6407C143.636 47.6407 141.984 47.6549 141.532 47.6549C140.571 47.6549 140.473 47.9525 140.402 48.2653L140.345 48.5498L143.397 48.7778C143.397 48.7778 143.41 49.7585 143.283 50.3124C143.1 51.2366 142.153 52.1739 140.444 52.1739C139.597 52.1739 138.227 51.848 138.227 51.848L138.467 50.7251H140.571C141.503 50.7251 141.631 50.4688 141.688 50.2135L141.758 49.8443L138.763 49.6163C138.763 49.6163 138.651 48.8626 138.805 48.1099C139.032 47.0859 139.963 46.2051 141.673 46.2051C142.52 46.2051 143.89 46.5168 143.89 46.5168L143.636 47.6407Z" fill="#0868AC"/>
<path d="M145.415 53H144.286L144.328 52.1465C143.918 52.1192 143.707 51.8206 143.805 51.3222C143.961 50.6119 144.399 50.4414 144.978 50.4414C145.543 50.4414 145.923 50.6119 145.769 51.3222L145.415 53Z" fill="#0868AC"/>
<path d="M152.973 47.6987C152.126 47.6987 151.829 48.2102 151.631 49.1485C151.433 50.0868 151.49 50.6407 152.337 50.6407H153.51L154.16 47.6987H152.973ZM154.908 51.3227L154.752 52.0764L153.567 52.0623L153.397 51.693C153.397 51.693 152.351 52.147 151.646 52.147C149.837 52.147 149.753 50.6549 150.077 49.1485C150.402 47.6129 151.108 46.1631 152.902 46.1631C153.553 46.1631 154.428 46.49 154.428 46.49L155.148 44.0312H156.448L154.908 51.3227Z" fill="#0868AC"/>
<path d="M159.581 47.6406C158.479 47.6406 158.125 48.2651 157.928 49.1751C157.744 50.0993 157.83 50.7249 158.916 50.7249C160.047 50.7249 160.386 50.1134 160.583 49.1751C160.781 48.2933 160.724 47.6406 159.581 47.6406ZM158.621 52.1608C156.29 52.1608 156.106 50.6968 156.417 49.1754C156.742 47.6549 157.561 46.2051 159.892 46.2051C162.208 46.2051 162.42 47.6549 162.094 49.1754C161.77 50.7251 160.95 52.1608 158.621 52.1608Z" fill="#0868AC"/>
<path d="M171.844 52.0744L172.099 49.8285L172.225 49.1889C172.409 48.3363 172.522 47.7108 171.632 47.7108H170.94C170.969 48.1517 170.884 48.6491 170.771 49.1747L170.164 52.0744H168.85L169.104 49.8285L169.231 49.1889C169.415 48.3363 169.527 47.7108 168.638 47.7108H168.073L167.141 52.0743H165.629L166.858 46.2611H168.044L168.228 46.6162C168.228 46.6162 169.033 46.1895 169.683 46.1895C170.177 46.1895 170.545 46.4175 170.672 46.701C170.954 46.5446 171.76 46.1895 172.339 46.1895C174.146 46.1895 174.09 47.6675 173.765 49.1749L173.158 52.0745L171.844 52.0744Z" fill="#0868AC"/>
<path d="M177.846 47.6406C176.744 47.6406 176.391 48.2651 176.194 49.1751C176.01 50.0993 176.095 50.7249 177.182 50.7249C178.312 50.7249 178.652 50.1134 178.849 49.1751C179.047 48.2933 178.99 47.6406 177.846 47.6406ZM176.886 52.1608C174.555 52.1608 174.372 50.6968 174.682 49.1754C175.007 47.6549 175.826 46.2051 178.157 46.2051C180.474 46.2051 180.685 47.6549 180.36 49.1754C180.036 50.7251 179.216 52.1608 176.886 52.1608Z" fill="#0868AC"/>
<path d="M184.286 48.7921C184.483 47.8821 184.427 47.7116 183.961 47.7116H183.255L182.802 49.8444L182.11 52.0752H180.797L181.87 47.0153L182.026 46.2757H183.226L183.381 46.6167C183.381 46.6167 184.074 46.2051 184.752 46.2051C186.192 46.2051 186.079 47.2988 185.768 48.792L184.286 48.7921Z" fill="#0868AC"/>
<path d="M189.342 47.5701C188.58 47.5701 188.184 47.9686 188.03 48.6789L190.204 48.4942C190.303 48.011 190.203 47.5701 189.342 47.5701ZM187.817 49.7301C187.719 50.4414 187.986 50.6826 188.89 50.6826H191.164L190.939 51.7632C190.939 51.7632 189.568 52.1465 188.552 52.1465C186.024 52.1465 185.995 50.7119 186.319 49.1763C186.645 47.6689 187.224 46.1777 189.667 46.1777C192.026 46.1777 192.139 47.6124 191.56 49.7302L187.817 49.7301Z" fill="#0868AC"/>
<path d="M192.829 52.1606C192.235 52.1606 191.869 51.9901 192.024 51.2939C192.164 50.5816 192.602 50.4121 193.196 50.4121C193.747 50.4121 194.128 50.5816 193.987 51.2939C193.831 51.976 193.38 52.1606 192.829 52.1606Z" fill="#0868AC"/>
</g>
<defs>
<clipPath id="clip0_746_37961">
<rect width="215" height="53" fill="white"/>
</clipPath>
</defs>
</svg>
