<svg width="106" height="105" viewBox="0 0 106 105" fill="none" xmlns="http://www.w3.org/2000/svg">
<g opacity="0.5">
<path d="M12.1902 82.5861C11.0075 79.5451 10.3359 76.306 10.2119 73.0454C10.148 71.3623 10.2417 69.6203 10.967 68.1002C11.6923 66.58 13.1721 65.3235 14.8561 65.2898C17.4356 65.2384 19.2217 67.8541 20.0749 70.2891C20.928 72.724 21.4975 75.4971 23.5452 77.0666C26.1284 79.0466 28.5428 79.3665 28.7336 83.1832C28.8419 85.3515 28.0179 87.6104 26.2137 88.8407C20.4184 92.7927 14.2884 87.9807 12.1902 82.5861Z" fill="white"/>
<path d="M25.6505 41.1019C23.5175 35.8085 23.4806 29.8216 24.8281 24.2758C25.505 21.49 26.768 18.5091 29.391 17.3519C32.0904 16.1609 35.4068 17.4432 37.2878 19.7165C41.1802 24.4208 39.7694 31.1857 40.6846 36.7879C41.3449 40.8303 45.1648 51.5966 38.0525 52.4412C32.7474 53.0711 27.2786 45.1424 25.6505 41.1019Z" fill="white"/>
<path d="M62.1958 65.457C64.1445 61.6765 66.5818 57.9276 70.2714 55.8119C73.9609 53.6962 79.1768 53.7305 82.0123 56.9005C83.7306 58.8215 84.3127 61.5802 83.9646 64.1339C83.6167 66.6875 82.4251 69.0598 80.9626 71.1819C79.4748 73.3408 77.6334 75.4249 77.2205 78.014C77.0274 79.2247 77.1631 80.4887 76.8021 81.6604C75.9891 84.2994 73.0157 85.5729 70.3123 86.1365C65.9115 87.0541 57.9915 88.6137 57.2942 83.0301C56.5748 77.2687 59.6357 70.4234 62.1958 65.457Z" fill="white"/>
<path d="M52.3788 101.336C51.6099 101.274 51.0365 100.601 51.0983 99.8316C51.7229 92.0524 56.8219 85.7411 62.2392 80.0782C67.2047 74.9274 72.758 69.5347 74.8648 62.8592C75.097 62.1234 75.8825 61.717 76.6173 61.9471C77.3529 62.1799 77.7611 62.9639 77.529 63.6996C75.2384 70.9575 69.6404 76.4264 64.258 82.0099C59.1973 87.299 54.4376 93.1467 53.8828 100.055C53.8232 100.801 53.1791 101.393 52.3788 101.336Z" fill="white"/>
<path d="M65.5075 89.7543C56.5651 89.7543 51.9398 82.898 51.4686 73.7022C50.1291 47.5791 77.9419 29.5003 89.1765 38.1448C93.9417 41.8125 93.883 47.9829 93.4244 52.3044C93.1489 54.8977 92.6712 57.3146 92.3527 59.4834C90.997 68.7049 87.9107 76.0939 83.1791 81.444C79.4098 85.7066 72.2263 89.7543 65.5075 89.7543ZM75.3968 40.2301C62.4307 45.5466 53.5409 59.5634 54.2587 73.5585C54.4181 76.666 55.2853 82.3017 59.3039 85.1309C65.752 89.6698 76.3369 84.9653 81.0861 79.5934C85.391 74.7253 88.331 67.631 89.5885 59.0778C89.912 56.8752 90.3826 54.4932 90.6461 52.0098C91.2709 46.1222 90.2921 42.5291 87.4724 40.3583C84.1861 37.8306 79.2367 38.6556 75.3968 40.2301Z" fill="white"/>
<path d="M51.7697 99.283C44.9824 96.7757 39.6319 90.025 37.4567 81.2227C35.948 75.116 35.9566 68.7756 35.9651 62.6424C35.9831 50.1445 35.2437 37.2692 28.9305 26.2228C28.5476 25.5535 28.7803 24.6995 29.45 24.3167C30.1202 23.9347 30.9731 24.1667 31.356 24.8369C37.7603 36.0419 38.6409 49.3277 38.7462 58.3463C38.8319 65.7374 38.4099 73.4335 40.1692 80.5534C42.1217 88.4544 46.8203 94.4766 52.7379 96.6619C53.4615 96.9293 53.8314 97.7323 53.5641 98.4562C53.2931 99.1897 52.4812 99.5465 51.7697 99.283Z" fill="white"/>
<path d="M39.9422 53.3168C39.6141 52.6184 39.9142 51.7872 40.6124 51.4589C43.9199 49.9047 46.6161 46.75 48.0103 42.8022C51.702 32.3481 46.7538 15.2766 33.6441 5.91788C30.1622 3.42612 25.248 1.56353 21.9 3.80991C19.5178 5.41142 18.5361 8.74771 17.967 11.5554C16.6886 17.6977 16.1493 23.9744 16.3623 30.2204C16.5131 34.6529 17.0758 40.3113 20.1155 44.7647C22.5937 48.3815 27.7179 51.3925 32.3304 49.8475C33.0618 49.6001 33.8537 49.9957 34.0988 50.7278C34.3438 51.459 33.9496 52.2511 33.218 52.4957C27.2447 54.4983 20.944 50.9161 17.8095 46.3417C14.3632 41.2926 13.734 35.1249 13.5705 30.3149C13.3495 23.8472 13.9081 17.3467 15.2304 10.9934C15.6385 8.97991 16.1155 7.40026 16.7301 6.03074C20.226 -1.83144 28.3237 -1.32463 35.2691 3.64528C44.1983 10.0203 50.1008 20.1138 51.6086 30.4286C53.4175 42.6666 48.416 50.8787 41.8008 53.9871C41.6085 54.0771 40.2702 54.0155 39.9422 53.3168Z" fill="white"/>
<path d="M52.604 100.064C38.6738 98.9318 25.607 91.3955 17.6507 79.9031C17.2117 79.2693 17.37 78.3989 18.0043 77.9596C18.6383 77.5195 19.5087 77.6796 19.948 78.3134C27.4327 89.1246 39.7253 96.2144 52.8306 97.2794C53.5995 97.3422 54.1722 98.0159 54.1096 98.7845C54.0495 99.5258 53.4109 100.121 52.604 100.064Z" fill="white"/>
<path d="M19.4323 94.1607C15.6308 94.1607 12.4207 92.0097 9.71311 89.3207C1.95643 81.6188 -1.5912 69.7328 0.674811 59.0389C0.98108 57.5948 1.45921 55.9587 2.68507 54.7701C4.93201 52.5938 8.58517 52.7357 12.7089 55.1629C19.902 59.3962 25.8727 65.4766 29.9761 72.7456C30.8737 74.3352 31.8243 76.2449 32.0682 78.3539C32.3533 80.8167 31.5686 83.1366 29.9695 84.559C29.3932 85.0728 28.5101 85.02 27.9974 84.4444C27.4844 83.8679 27.5361 82.9848 28.1124 82.4727C29.0181 81.6661 29.4706 80.2111 29.293 78.6759C29.1066 77.0644 28.3418 75.534 27.5433 74.1188C23.6813 67.2773 18.0617 61.5552 11.2917 57.571C10.1997 56.9271 6.49181 54.9692 4.62955 56.7762C3.94451 57.4401 3.63756 58.5341 3.40769 59.6182C1.33329 69.4072 4.5808 80.2884 11.6813 87.3382C13.6804 89.3234 15.4733 90.5048 17.3238 91.0559C19.4559 91.6888 21.7272 91.325 23.1107 90.1273C23.6941 89.6217 24.5764 89.6862 25.0811 90.2692C25.586 90.8522 25.5227 91.7343 24.9395 92.239C23.4875 93.4969 21.5166 94.1607 19.4323 94.1607Z" fill="white"/>
<path d="M46.9918 94.4362C45.1158 94.8695 42.9263 95.5894 42.9336 96.9801C42.9376 97.7514 43.6947 98.4932 44.6522 98.9542C45.6098 99.415 47.2427 100.364 48.36 100.533C53.1746 101.259 56.9378 101.271 61.4315 100.254C63.151 99.8653 65.8117 98.0856 65.3668 96.8266C65.0508 95.9325 63.6675 95.3913 62.4078 95.0497C56.1855 93.3627 49.1291 93.5652 43.5707 95.5907" fill="white"/>
<path d="M48.1542 101.911C46.7707 101.702 45.0887 100.711 44.0487 100.21C41.308 98.8908 40.9823 96.5733 42.2516 95.1362C42.4953 94.4247 43.0547 94.2785 43.7065 94.0621C44.786 93.5102 46.0023 93.2291 46.6796 93.0718C46.9301 93.0163 47.1807 93.0291 47.4091 93.0991C52.3195 92.1606 57.7994 92.3497 62.7758 93.6993C64.1854 94.0804 66.1253 94.7715 66.6863 96.3585C67.5338 98.7595 64.0623 101.089 61.7423 101.614C57.0117 102.685 52.9915 102.64 48.1542 101.911ZM44.7859 96.6468C44.4046 96.8623 44.3292 97.005 44.3235 97.0168C44.3607 97.0477 44.639 97.3934 45.2604 97.6926C46.1044 98.0991 47.7352 99.0226 48.5715 99.1486C53.4978 99.8916 57.0181 99.8188 61.1256 98.8894C62.2308 98.6393 63.5751 97.7108 63.9457 97.1887C63.7544 97.0341 63.2536 96.7222 62.0452 96.3957C56.3546 94.8524 49.9685 94.9553 44.7859 96.6468Z" fill="white"/>
<path d="M104.534 104.598H16.014C15.2427 104.598 14.6172 103.973 14.6172 103.202C14.6172 102.43 15.2427 101.805 16.014 101.805H104.534C105.306 101.805 105.931 102.43 105.931 103.202C105.931 103.973 105.306 104.598 104.534 104.598Z" fill="white"/>
</g>
</svg>
