<svg width="159" height="132" viewBox="0 0 159 132" fill="none" xmlns="http://www.w3.org/2000/svg">
<g opacity="0.5">
<path d="M64.5056 76.8096C63.2127 77.0246 58.4946 77.3262 57.5426 76.4254C55.9503 74.9186 55.151 71.8809 54.7522 70.778C48.9665 54.7789 45.6293 42.5001 40.168 27.4297C45.5161 40.517 50.8642 53.6042 56.2123 66.6914C57.2731 69.2872 57.8171 73.2113 60.4387 74.2067C62.0928 74.8348 64.7116 73.5068 66.4599 73.2346C87.8989 69.8341 103.796 67.4212 139.276 61.8969C142.067 61.4622 145.267 60.5041 148.065 60.6061C148.342 62.409 135.297 63.7056 133.384 64.0237C127.632 64.9801 122.36 67.3183 116.609 68.2747C105.106 70.1875 94.5953 72.6254 83.0921 74.5382C76.6284 75.613 70.9693 75.7349 64.5056 76.8096Z" fill="white"/>
<path d="M102.35 95.2952C96.0759 100.01 89.8013 104.725 83.5268 109.439C83.0275 109.815 82.5097 110.199 81.9028 110.347C81.2959 110.495 80.571 110.345 80.2211 109.828C79.9486 109.425 79.9565 108.901 79.9745 108.415C80.1092 104.768 80.2438 101.122 80.3785 97.4754C88.4376 97.8284 96.5394 97.1964 104.446 95.598L102.35 95.2952Z" fill="white"/>
<path d="M149.673 91.0452C148.789 91.4253 147.849 91.6613 146.895 91.794C138.591 92.9499 76.6491 101.572 67.9364 102.785C64.2531 103.297 60.9516 104.155 57.3896 103.008C56.5391 102.734 56.2343 101.797 57.2689 101.95C58.363 102.113 58.5186 102.014 66.6082 100.871C79.917 98.99 94.5848 96.9589 107.975 95.0973C117.085 93.8306 125.814 92.0664 134.922 90.7787C138.226 90.3115 142.644 89.6854 145.947 89.212C147.737 88.9555 149.109 88.6625 150.707 87.8172C152.256 86.9975 153.337 86.1709 153.461 84.3572C152.714 87.1038 153.56 89.3759 149.673 91.0452Z" fill="white"/>
<path d="M37.5276 102.502C30.3972 87.9875 23.2164 72.5793 16.1647 57.6679C6.01736 36.1781 4.94976 34.2944 4.33826 32.9494L4.33801 32.9494C4.26697 32.7937 4.16216 32.5931 4.0826 32.4218C3.44325 31.1151 3.46293 29.5433 4.30785 28.144L4.30761 28.144L4.36783 28.0462C4.4025 27.9751 4.44491 27.9169 4.49273 27.8655C5.17475 26.9358 6.16646 26.3177 7.29585 26.1205C10.2025 25.5961 13.1073 25.0963 16.172 24.5935C16.5856 24.5254 16.9754 24.8058 17.0431 25.2186C17.111 25.632 16.8309 26.0223 16.4176 26.0899C13.3609 26.5916 10.4638 27.0904 7.56071 27.6138C6.79496 27.7477 6.1278 28.1741 5.67776 28.8161C5.63762 28.8729 5.64756 28.8627 5.61064 28.9208C5.60317 28.9348 5.59498 28.9488 5.58672 28.9624L5.58696 28.9623C5.06213 29.8201 5.01142 30.8691 5.45137 31.7684C5.49298 31.8575 5.53058 31.9331 5.5685 32.0097C12.9269 46.8556 28.2969 80.2712 38.8889 101.833C39.3399 102.75 40.2532 103.371 41.2725 103.453C41.6493 103.487 41.1897 103.566 49.6061 102.221C50.0246 102.175 50.4084 102.437 50.4742 102.851C50.5401 103.265 50.2581 103.653 49.8445 103.719C49.3977 103.79 42.576 104.863 42.1916 104.924C41.8464 104.976 38.3347 104.143 37.5276 102.502Z" fill="white"/>
<path d="M21.3951 24.5162C21.3308 24.1024 21.6143 23.715 22.0281 23.6504C26.6793 22.9282 31.5823 22.2056 37.4582 21.377C37.8644 21.3358 38.2564 21.6069 38.315 22.022C38.3735 22.4366 38.0848 22.8206 37.6699 22.8789C31.8013 23.7066 26.905 24.4278 22.2609 25.1495C21.8155 25.2094 21.4562 24.909 21.3951 24.5162Z" fill="white"/>
<path d="M56.6748 102.703C56.2654 102.758 55.8862 102.475 55.8241 102.065C55.7616 101.651 56.0465 101.264 56.4607 101.202C82.426 97.2776 112.245 93.3049 138.179 89.3641C138.595 89.3066 138.98 89.5857 139.043 90.0002C139.106 90.4142 138.821 90.8007 138.407 90.8638C112.456 94.8069 82.6504 98.7776 56.6873 102.702C56.6831 102.702 56.679 102.703 56.6748 102.703Z" fill="white"/>
<path d="M145.518 89.399C145.107 89.4542 144.728 89.169 144.667 88.7577C144.606 88.3435 144.892 87.9582 145.307 87.897C146.712 87.6901 148.116 87.4729 149.519 87.2558C151.467 86.9561 152.562 84.8584 151.704 83.0871C147.691 74.795 144.908 68.9375 142.099 62.8693C141.923 62.4889 142.089 62.0382 142.469 61.8625C142.849 61.6849 143.3 61.8519 143.476 62.2318C146.281 68.2921 149.06 74.1431 153.069 82.4263C154.372 85.1153 152.709 88.2986 149.751 88.755C148.344 88.9727 146.937 89.1904 145.528 89.3977C145.525 89.3981 145.521 89.3985 145.518 89.399Z" fill="white"/>
<path d="M101.666 115.767C101.249 115.733 100.938 115.367 100.972 114.95C101.175 112.443 101.364 109.794 101.556 107.075C101.585 106.658 101.948 106.343 102.366 106.372C102.783 106.402 103.098 106.764 103.069 107.182C102.877 109.905 102.688 112.558 102.483 115.072C102.449 115.492 102.081 115.8 101.666 115.767Z" fill="white"/>
<path d="M102.471 104.688C102.053 104.659 101.738 104.297 101.767 103.879C101.951 101.267 102.165 98.2494 102.392 95.4829C102.426 95.0653 102.792 94.7516 103.21 94.7896C103.627 94.8236 103.938 95.1898 103.904 95.6074C103.677 98.3649 103.463 101.378 103.28 103.985C103.251 104.405 102.885 104.718 102.471 104.688Z" fill="white"/>
<path d="M75.8972 121.963C75.2815 121.406 74.9458 120.611 74.9763 119.781C75.1904 113.953 76.109 105.806 77.2622 99.5059C77.3375 99.0937 77.7329 98.8229 78.1446 98.896C78.5566 98.9716 78.8296 99.3668 78.754 99.7785C77.6128 106.014 76.7036 114.075 76.492 119.836C76.4627 120.637 77.1615 121.266 77.9513 121.159C78.01 121.151 115.356 116.016 115.427 116.007C115.673 115.973 115.889 115.845 116.036 115.646C116.511 115.006 115.991 114.091 115.185 114.196L81.7381 118.551C80.8304 118.649 80.0527 118.338 79.6407 117.721C78.9394 116.669 79.3053 115.688 79.4279 114.606L81.2075 98.9235C81.2545 98.5066 81.6307 98.2099 82.0464 98.2551C82.4627 98.3028 82.7618 98.678 82.7145 99.0944L80.9349 114.777C80.8008 115.957 80.5818 116.398 80.9024 116.879C80.9535 116.955 81.1564 117.089 81.5591 117.045L114.989 112.692C116.303 112.521 117.495 113.413 117.703 114.721C117.917 116.066 116.985 117.324 115.634 117.509L78.1621 122.661C78.1084 122.657 76.9255 122.893 75.8972 121.963Z" fill="white"/>
<path d="M98.4353 118.758L98.0529 116.347C97.9873 115.934 98.2694 115.545 98.6831 115.479C99.0896 115.42 99.4853 115.696 99.5509 116.11L99.9333 118.521C99.9989 118.934 99.7168 119.323 99.3031 119.388C98.854 119.449 98.4971 119.148 98.4353 118.758Z" fill="white"/>
<path d="M98.7152 118.338C98.3318 119.125 97.3335 119.343 96.4677 119.47C79.5728 121.939 79.7146 122.002 78.6194 121.878C77.854 121.791 77.0835 121.482 76.5972 120.884C75.8934 120.02 75.929 118.789 76.007 117.677C76.4003 112.071 76.9723 106.476 77.722 100.906C77.7725 100.53 77.8317 100.135 78.0645 99.8367C78.5142 99.2597 79.6267 98.4912 80.3507 98.5958C81.0747 98.7004 81.7053 99.2323 82.2341 98.7269C81.2284 103.917 80.1824 109.506 80.2174 114.792C80.2238 115.757 80.3326 116.858 81.1071 117.433C81.7993 117.948 82.7557 117.838 83.6082 117.707C87.6334 117.087 91.6666 116.523 95.7124 116.013C96.3242 115.936 97.265 115.624 97.8692 115.795C98.7677 116.048 99.0844 117.577 98.7152 118.338Z" fill="white"/>
<path d="M39.937 90.5858C39.8728 90.1719 40.1563 89.7841 40.5702 89.72L141.789 74.0248C142.199 73.9606 142.59 74.2439 142.654 74.6581C142.719 75.0719 142.435 75.4598 142.021 75.5239L40.8026 91.2191C40.3571 91.279 39.9979 90.9782 39.937 90.5858Z" fill="white"/>
<path d="M91.7125 92.9478C93.1887 92.7137 94.1211 90.8579 93.7952 88.8029C93.4692 86.7478 92.0084 85.2717 90.5322 85.5058C89.056 85.7399 88.1236 87.5956 88.4495 89.6507C88.7755 91.7058 90.2363 93.1819 91.7125 92.9478Z" fill="white"/>
<path d="M81.5884 93.0449C82.4408 92.9097 82.9793 91.8381 82.791 90.6514C82.6028 89.4646 81.7592 88.6122 80.9068 88.7474C80.0543 88.8826 79.5159 89.9542 79.7041 91.1409C79.8923 92.3277 80.7359 93.1801 81.5884 93.0449Z" fill="white"/>
<path d="M101.127 90.2637C101.98 90.1285 102.518 89.0568 102.33 87.8701C102.142 86.6834 101.298 85.8309 100.446 85.9661C99.5934 86.1013 99.0549 87.173 99.2431 88.3597C99.4314 89.5464 100.275 90.3989 101.127 90.2637Z" fill="white"/>
<path d="M3.98478 40.0209C12.8656 58.6857 21.7462 77.3505 30.6312 96.0094C31.975 98.8439 33.4073 101.782 35.8814 103.708C38.0437 105.384 40.1499 105.379 43.1532 104.517C41.9433 104.622 40.6597 104.115 39.7537 103.335C38.4457 102.217 37.663 100.619 36.9183 99.0671C31.0877 86.9408 5.37244 33.523 5.04146 32.6533C5.03563 32.6491 5.03485 32.6442 5.03404 32.6391C4.52625 31.3166 4.25982 29.8634 4.94836 28.5671C4.95259 28.5613 4.95602 28.5504 4.96027 28.5448C4.98472 28.5049 5.00844 28.46 5.03798 28.4193C5.03638 28.4092 5.04062 28.4035 5.05411 28.3911C5.05411 28.3911 5.04827 28.3868 5.06334 28.3844C5.55379 27.5563 6.40648 26.9381 7.3494 26.7267C4.49387 26.666 2.15725 29.5495 1.95729 32.5516C1.78248 35.0461 2.85344 37.6513 3.98478 40.0209Z" fill="white"/>
<path d="M107.864 67.9087C107.455 67.9637 107.076 67.6809 107.013 67.2714C106.95 66.8574 107.234 66.4705 107.649 66.4073C121.867 64.2356 135.335 62.2365 149.645 60.303C146.379 52.9431 144.055 47.808 140.763 40.5843C140.589 40.2031 140.757 39.7535 141.138 39.5797C141.519 39.4054 141.969 39.5736 142.143 39.9553C145.574 47.4822 147.954 52.7433 151.441 60.6123C151.647 61.0756 151.348 61.6043 150.849 61.6714C136.062 63.6602 122.629 65.6536 107.878 67.9069C107.873 67.9075 107.868 67.9081 107.864 67.9087Z" fill="white"/>
<path d="M136.924 32.3582C132.475 22.5569 129.222 15.1122 124.919 4.18488L62.3626 12.4805C61.9473 12.5354 61.5661 12.2434 61.511 11.8283C61.456 11.4137 61.7473 11.0328 62.1618 10.977C62.1622 10.977 62.1626 10.9769 62.1631 10.9769L125.308 2.60319C125.654 2.55719 125.986 2.75308 126.114 3.07771C130.513 14.278 133.793 21.789 138.305 31.7311C138.478 32.1128 138.309 32.562 137.928 32.7353C137.545 32.9081 137.097 32.7382 136.924 32.3582Z" fill="white"/>
<path d="M59.7151 75.3221C59.379 75.3673 59.053 75.1835 58.9181 74.8718C50.5162 55.4519 42.9755 34.9889 34.5868 15.6002C34.3864 15.1366 34.6864 14.6139 35.1817 14.5473C40.365 13.861 50.2805 12.5481 57.7169 11.5634C58.1322 11.5085 58.5133 11.8005 58.5682 12.2156C58.6231 12.6302 58.3319 13.0111 57.9175 13.0668C57.9171 13.0669 57.9166 13.067 57.9159 13.0671L36.3765 15.919C44.537 34.8736 51.9204 54.8223 60.0788 73.7338C74.497 71.561 89.055 69.2646 103.193 67.085C103.608 67.0188 103.994 67.3051 104.058 67.719C104.122 68.1334 103.838 68.5203 103.424 68.5844C98.5873 69.3301 93.754 70.0807 88.9176 70.8324C65.6242 74.4526 62.0816 74.9602 59.7151 75.3221Z" fill="white"/>
<path d="M39.8897 26.1149C39.4762 26.1705 39.095 25.8815 39.0374 25.4678C38.9797 25.0532 39.2692 24.6699 39.684 24.6122L128.837 12.1907C128.838 12.1905 128.84 12.1904 128.841 12.1902C129.254 12.1346 129.635 12.4236 129.693 12.8373C129.751 13.252 129.461 13.6352 129.046 13.6929L39.8931 26.1145C39.8919 26.1146 39.8907 26.1148 39.8897 26.1149Z" fill="white"/>
<path d="M121.028 10.6514C121.888 10.7802 122.792 10.1333 122.948 9.26961C123.098 8.41204 122.471 7.49385 121.615 7.32109L121.443 7.2942C120.575 7.20996 119.705 7.90544 119.599 8.7722C119.493 9.63897 120.169 10.5223 121.028 10.6514Z" fill="white"/>
<path d="M120.919 11.4099C120.919 11.41 120.918 11.41 120.918 11.41C119.639 11.2178 118.692 9.9718 118.849 8.68879C119.004 7.425 120.251 6.42426 121.519 6.54817L121.734 6.58006C123.038 6.84262 123.921 8.13567 123.697 9.40929C123.468 10.6828 122.199 11.6012 120.919 11.4099ZM121.143 9.91013C121.597 9.97722 122.122 9.59816 122.204 9.14376C122.282 8.69576 121.918 8.16389 121.468 8.07302L121.33 8.05224C120.914 8.01238 120.41 8.41708 120.354 8.87292C120.299 9.32823 120.689 9.84165 121.143 9.91013Z" fill="white"/>
<path d="M112.364 12.0419C113.224 12.1707 114.128 11.5238 114.283 10.6602C114.434 9.80259 113.807 8.88442 112.951 8.71172L112.779 8.68483C111.911 8.60058 111.041 9.29605 110.935 10.1628C110.829 11.0295 111.505 11.9129 112.364 12.0419Z" fill="white"/>
<path d="M112.908 12.7895C112.694 12.8183 112.474 12.8185 112.254 12.7853C110.975 12.5937 110.028 11.3471 110.185 10.0641C110.339 8.80035 111.586 7.79766 112.855 7.92394L113.07 7.95584C114.374 8.21841 115.257 9.51147 115.033 10.7851C114.843 11.8423 113.938 12.651 112.908 12.7895ZM111.69 10.2482C111.634 10.7035 112.025 11.2174 112.479 11.2854C112.48 11.2854 112.48 11.2854 112.48 11.2854C112.932 11.3531 113.458 10.9745 113.54 10.5195C113.618 10.0715 113.254 9.53968 112.804 9.4488L112.666 9.42803C112.25 9.38864 111.746 9.79248 111.69 10.2482Z" fill="white"/>
<path d="M103.919 12.9482C104.779 13.0771 105.682 12.4249 105.838 11.5665C105.989 10.709 105.362 9.79071 104.506 9.61795L104.334 9.59106C103.465 9.50682 102.596 10.2025 102.49 11.0691C102.383 11.9306 103.06 12.8192 103.919 12.9482Z" fill="white"/>
<path d="M104.459 13.6983C104.245 13.727 104.026 13.7267 103.807 13.6939C103.807 13.6939 103.807 13.6939 103.807 13.6939C102.548 13.505 101.581 12.2327 101.737 10.9711C101.894 9.68758 103.117 8.70818 104.407 8.83154L104.624 8.86456C105.904 9.12185 106.806 10.4414 106.585 11.6936C106.393 12.7512 105.488 13.5599 104.459 13.6983ZM104.032 12.1939C104.484 12.2605 105.009 11.8816 105.092 11.4265C105.171 10.9796 104.807 10.4481 104.356 10.3573L104.216 10.3358C103.802 10.2958 103.298 10.7009 103.242 11.1567C103.186 11.6126 103.577 12.1255 104.032 12.1939L104.032 12.1939Z" fill="white"/>
<path d="M63.9881 124.159C63.9224 123.745 64.2045 123.356 64.6183 123.291L72.472 122.045C72.8824 121.999 73.2741 122.261 73.3398 122.675C73.4056 123.089 73.1234 123.478 72.7096 123.543L64.856 124.789C64.4068 124.85 64.05 124.549 63.9881 124.159Z" fill="white"/>
<path d="M59.3827 72.8429C59.0466 72.8881 58.7218 72.7131 58.5886 72.4142C50.2933 53.7868 42.8641 34.1522 34.5818 15.5549C34.3839 15.1101 34.6864 14.6061 35.1817 14.5395C40.365 13.8527 50.2803 12.5391 57.7167 11.5538C58.1319 11.4988 58.5112 11.7776 58.564 12.1764C58.6167 12.5747 58.3237 12.9425 57.9094 12.9982C57.9089 12.9983 57.9084 12.9983 57.9077 12.9984L36.3686 15.8521C44.425 34.0333 51.6998 53.1742 59.7544 71.314C74.1738 69.1502 88.7336 66.8668 102.873 64.698C103.288 64.6322 103.673 64.9054 103.735 65.303C103.796 65.7011 103.511 66.0745 103.096 66.1384C98.2589 66.8804 93.4251 67.6272 88.5882 68.3749C65.2922 71.9763 61.7495 72.4827 59.3827 72.8429Z" fill="white"/>
<path d="M39.8248 25.6408C39.4113 25.6964 39.0319 25.4206 38.9765 25.0231C38.9209 24.6247 39.2122 24.2548 39.627 24.1971L128.782 11.7923C128.784 11.7921 128.785 11.7919 128.786 11.7918C129.199 11.7362 129.579 12.0121 129.634 12.4095C129.69 12.8079 129.399 13.1778 128.984 13.2355L39.8283 25.6404C39.8271 25.6405 39.8259 25.6407 39.8248 25.6408Z" fill="white"/>
<path d="M120.988 10.3506C121.846 10.47 122.753 9.84342 122.913 9.0122C123.068 8.18691 122.446 7.3074 121.591 7.14574L121.42 7.12078C120.552 7.04429 119.679 7.71746 119.569 8.55134C119.458 9.38523 120.129 10.231 120.988 10.3506Z" fill="white"/>
<path d="M120.874 11.0826C120.874 11.0827 120.874 11.0827 120.874 11.0827C119.597 10.9045 118.656 9.7115 118.82 8.47716C118.981 7.26132 120.233 6.2927 121.499 6.40525L121.714 6.4348C123.015 6.68047 123.891 7.91907 123.661 9.14472C123.425 10.3703 122.153 11.2599 120.874 11.0826ZM121.106 9.63949C121.559 9.70164 122.086 9.33448 122.17 8.89719C122.251 8.46605 121.89 7.95659 121.44 7.87156L121.302 7.8523C120.887 7.81612 120.381 8.20783 120.323 8.64638C120.265 9.08442 120.653 9.57601 121.106 9.63949Z" fill="white"/>
<path d="M112.324 11.7334C113.182 11.8528 114.089 11.2261 114.248 10.395C114.404 9.56966 113.782 8.69015 112.927 8.52856L112.756 8.50359C111.888 8.4271 111.015 9.10026 110.905 9.93415C110.794 10.768 111.465 11.6138 112.324 11.7334Z" fill="white"/>
<path d="M112.863 12.4508C112.649 12.4796 112.429 12.4809 112.21 12.4502C110.933 12.2725 109.992 11.079 110.156 9.84464C110.317 8.62884 111.568 7.65835 112.835 7.77319L113.05 7.80273C114.351 8.04842 115.227 9.28702 114.997 10.5127C114.801 11.5301 113.893 12.3123 112.863 12.4508ZM111.659 10.0138C111.601 10.4519 111.989 10.9439 112.442 11.0069C112.443 11.0069 112.443 11.0069 112.443 11.0069C112.894 11.0697 113.422 10.7029 113.506 10.2651C113.587 9.83399 113.226 9.32454 112.776 9.23949L112.638 9.22024C112.223 9.18453 111.717 9.57541 111.659 10.0138Z" fill="white"/>
<path d="M103.878 12.6396C104.737 12.7591 105.643 12.1274 105.803 11.3012C105.958 10.4761 105.336 9.59645 104.482 9.43478L104.31 9.40983C103.443 9.33334 102.57 10.0067 102.46 10.8404C102.348 11.6692 103.02 12.52 103.878 12.6396Z" fill="white"/>
<path d="M104.414 13.3595C104.2 13.3883 103.981 13.389 103.762 13.3586C103.762 13.3587 103.762 13.3587 103.762 13.3587C102.505 13.1836 101.545 11.9653 101.708 10.7517C101.872 9.5168 103.099 8.56883 104.387 8.68074L104.604 8.71136C105.882 8.9521 106.776 10.216 106.549 11.4211C106.351 12.4389 105.443 13.2211 104.414 13.3595ZM103.995 11.9154C104.447 11.9771 104.973 11.61 105.058 11.1721C105.139 10.742 104.778 10.2329 104.329 10.1479L104.188 10.128C103.775 10.0916 103.269 10.4837 103.211 10.9223C103.153 11.3609 103.541 11.852 103.995 11.9153L103.995 11.9154Z" fill="white"/>
</g>
</svg>
