<svg width="75" height="97" viewBox="0 0 75 97" fill="none" xmlns="http://www.w3.org/2000/svg">
<g opacity="0.5">
<path d="M21.2039 63.0632C25.1264 69.2086 34.5797 69.9962 38.2628 76.2879C38.3413 74.9869 39.1812 73.8798 39.7729 72.7186C40.3646 71.5572 40.6747 70.0187 39.8087 69.0446C39.2213 68.3837 38.2795 68.2012 37.4125 68.0278C31.0704 66.7597 25.0394 63.9627 19.9746 59.9404C20.8455 61.0092 21.7164 62.0779 22.5871 63.1466L21.2039 63.0632Z" fill="white"/>
<path d="M20.2392 86.6469C19.5879 86.2329 19.3949 85.37 19.8084 84.7187C20.2219 84.0676 21.0849 83.8793 21.7364 84.2876C23.7013 85.5357 25.6163 86.0903 27.4283 85.9417C28.1984 85.8767 28.8717 86.45 28.9355 87.2185C28.9987 87.9879 28.4271 88.6623 27.6582 88.7256C25.0015 88.9449 22.4888 88.075 20.2392 86.6469Z" fill="white"/>
<path d="M16.9871 74.1004C15.9954 72.1905 16.4385 69.6657 18.2577 68.185C17.8594 66.033 18.7643 63.5603 20.58 62.2209C21.2006 61.7642 22.0753 61.8945 22.5332 62.5166C22.9912 63.1369 22.8593 64.0114 22.2382 64.4698C21.1426 65.2776 20.635 67.0631 21.1738 68.214C21.5108 68.936 21.1773 69.7939 20.4408 70.0976C19.4461 70.5074 18.9579 71.8338 19.4665 72.8135C19.8221 73.4981 19.5552 74.3409 18.8702 74.6969C18.1876 75.0515 17.3432 74.7869 16.9871 74.1004Z" fill="white"/>
<path d="M16.6925 78.5369C15.2792 76.7281 15.6873 73.9234 17.4998 72.4475C18.0979 71.9603 18.9773 72.0484 19.4651 72.649C19.9519 73.2475 19.862 74.1268 19.2637 74.6139C18.6099 75.1466 18.4408 76.2383 18.8934 76.816C19.3685 77.4243 19.261 78.3021 18.6532 78.777C18.0423 79.2542 17.165 79.1415 16.6925 78.5369Z" fill="white"/>
<path d="M37.0538 74.5965C36.788 73.8721 37.1599 73.07 37.8838 72.8044C38.2375 72.6743 38.5548 72.2098 38.6563 71.6736C38.7915 70.9595 38.768 70.2959 38.5804 69.5209C38.3985 68.7712 38.859 68.0164 39.6088 67.8344C40.3582 67.6542 41.1134 68.1133 41.2951 68.8637C42.1249 72.2816 40.7786 74.7179 38.8465 75.4268C38.12 75.694 37.3182 75.3182 37.0538 74.5965Z" fill="white"/>
<path d="M35.8994 79.9202C35.5174 79.2505 35.7515 78.3969 36.4216 78.0156C37.3804 77.469 37.6919 76.0899 37.0789 75.2054C36.64 74.5709 36.7987 73.7007 37.4328 73.2622C38.0671 72.8237 38.9374 72.9822 39.3765 73.6158C40.9235 75.8515 40.1794 79.0909 37.8044 80.4425C37.1372 80.8228 36.2834 80.5943 35.8994 79.9202Z" fill="white"/>
<path d="M33.8616 83.4617C33.61 82.7321 33.9974 81.9365 34.7266 81.6848C35.413 81.4477 35.8742 80.4489 35.6107 79.6346C35.3731 78.9006 35.7762 78.1125 36.5101 77.8755C37.2441 77.6375 38.0315 78.0417 38.2691 78.7747C38.9931 81.0139 37.7924 83.5824 35.638 84.3261C35.3515 84.425 34.1123 84.1856 33.8616 83.4617Z" fill="white"/>
<path d="M19.6947 85.7324C18.447 83.5855 17.6316 80.9987 16.7815 78.7369C16.5102 78.0147 16.8757 77.2088 17.5978 76.9379C18.3201 76.667 19.1251 77.0338 19.3968 77.7542C20.2277 79.9659 21.0134 82.4421 22.11 84.3277C22.4978 84.9952 22.2714 85.8502 21.6044 86.2381C20.9369 86.6257 20.0816 86.3979 19.6947 85.7324Z" fill="white"/>
<path d="M26.2513 87.7189C25.944 87.0117 26.2686 86.1888 26.9763 85.8814C29.1557 84.9353 32.0685 82.8037 34.5448 81.6788C35.2474 81.3584 36.0752 81.6703 36.3944 82.3725C36.7137 83.0748 36.4032 83.9028 35.7007 84.2222C33.36 85.2866 30.5425 87.3789 28.089 88.4442C27.3789 88.7525 26.5573 88.4243 26.2513 87.7189Z" fill="white"/>
<path d="M20.4697 63.2587C19.8089 62.8609 19.5961 62.0024 19.9945 61.3411C20.3927 60.6806 21.2512 60.4692 21.9118 60.8661C27.027 63.9492 35.4645 66.4297 41.1551 67.2873C41.9154 67.4083 42.443 68.1146 42.3284 68.8766C42.2136 69.6394 41.5019 70.1649 40.7391 70.0499C34.6213 69.1286 25.8051 66.4741 20.4697 63.2587Z" fill="white"/>
<path d="M38.6048 68.3235C38.7381 67.5633 39.4621 67.0548 40.222 67.188C41.0391 67.3307 42.0573 67.3232 42.7257 66.8391L42.7262 66.8402C43.3677 66.3716 43.7191 65.6443 43.9827 64.8971C44.06 64.6528 46.8668 58.8533 47.0803 58.3421C47.3171 57.6592 48.0434 57.2634 48.7536 57.45C49.4978 57.6288 49.9464 58.4094 49.7511 59.1549C49.6349 59.5963 46.8311 65.3199 46.6007 65.8697C45.4178 69.2316 42.9701 70.5073 39.7397 69.9403C39.6854 69.9308 38.471 69.0872 38.6048 68.3235Z" fill="white"/>
<path d="M19.6905 62.5033C18.2076 60.6824 18.1556 58.3025 18.3731 56.627C18.6161 54.7738 19.1627 53.2916 19.3886 51.6604C20.0665 46.6054 17.1752 41.2278 16.2034 35.792C14.578 26.7422 18.4679 16.9076 25.8834 11.3207C34.0199 5.19079 46.4199 4.18388 56.206 10.8257C60.0798 13.4968 63.1748 17.1385 65.076 20.8386C69.9769 30.3888 68.9156 44.4601 58.6572 51.4764C56.6521 52.8475 54.7268 54.2706 52.7393 55.6484C50.9962 56.8575 50.0253 58.5033 49.1044 60.6023C48.7938 61.3097 47.9709 61.6341 47.2637 61.3202C46.5572 61.0104 46.2361 60.1861 46.5458 59.4802C47.5077 57.2881 48.7308 55.0286 51.1471 53.3528C53.1716 51.9484 55.0493 50.5589 57.08 49.1702C66.0661 43.024 66.9385 30.5873 62.5905 22.1145C60.8939 18.8006 58.0703 15.4934 54.5577 13.0917C45.899 7.14946 34.729 8.15448 27.5644 13.5518C20.9699 18.5206 17.5095 27.2599 18.9532 35.3002C19.9177 40.6922 22.9486 46.1311 22.1568 52.0374C21.9221 53.7328 21.3441 55.4575 21.1434 56.9885C21.0231 57.9139 20.9558 59.6331 21.8565 60.7381C22.3438 61.3365 22.254 62.216 21.6557 62.704C21.0584 63.19 20.178 63.1012 19.6905 62.5033Z" fill="white"/>
<path d="M17.1197 79.0075C16.4933 78.5573 16.3501 77.6845 16.8 77.0584C17.2497 76.4322 18.1229 76.2869 18.7494 76.739C22.8166 79.6601 29.2636 81.5226 35.175 81.4809C35.9467 81.4743 36.5762 82.0962 36.5815 82.8682C36.5868 83.6394 35.9655 84.2695 35.1943 84.2743C29.137 84.3158 21.9137 82.4511 17.1197 79.0075Z" fill="white"/>
<path d="M27.0295 65.8144C26.3198 65.5121 25.9899 64.6909 26.2925 63.982C28.9129 57.8362 30.8712 48.6403 32.472 40.0505C24.8481 34.6848 25.9562 23.866 31.3533 21.4677C33.4224 20.5464 35.9349 21.1801 37.0728 22.9117C38.0729 24.4304 37.8439 26.1983 37.5507 27.7364C36.9584 30.8447 36.2896 34.7161 35.574 38.6338C37.1927 39.4049 39.0247 39.7925 40.8977 39.7806C42.9592 35.4905 45.319 31.3481 47.9362 27.4548C48.8182 26.1432 49.9809 24.9567 51.1262 24.1998C52.9616 22.9878 55.3993 23.1164 57.0561 24.5128C59.257 26.369 58.2509 28.881 57.8722 29.8262C55.2787 36.2974 49.7733 41.6263 42.725 42.4564C39.2131 50.0789 36.6702 58.1386 35.3272 66.0613C35.1984 66.8218 34.4772 67.334 33.7165 67.2054C32.9558 67.0673 32.4438 66.3552 32.5727 65.5945C33.8834 57.8616 36.3037 50.0025 39.63 42.5221C38.0396 42.4027 36.49 42.045 35.0512 41.4537C33.4542 49.9297 31.4963 58.9 28.8623 65.0767C28.5544 65.7996 27.7222 66.1128 27.0295 65.8144ZM32.4886 24.0203C31.3242 24.5381 30.6651 25.826 30.3759 26.5474C29.0169 29.9374 30.1907 34.2718 33.0442 36.9294C33.664 33.506 34.2696 30.0294 34.8061 27.2139C34.9969 26.2137 35.1646 25.0937 34.7393 24.4472C34.324 23.8178 33.2423 23.6847 32.4886 24.0203ZM52.6662 26.5313C51.8299 27.0842 50.9286 28.0116 50.2548 29.0141C48.0484 32.2961 46.0301 35.7603 44.2263 39.3415C49.3192 38.0145 53.2901 33.7501 55.2791 28.7872C55.8677 27.318 55.6402 26.9743 55.2548 26.6489C54.546 26.0508 53.4561 26.0091 52.6662 26.5313Z" fill="white"/>
</g>
</svg>
