<svg width="399" height="191" viewBox="0 0 399 191" fill="none" xmlns="http://www.w3.org/2000/svg">
<path d="M226.527 48.7282L226.204 47.3523C229.045 46.6854 231.843 46.0841 234.522 45.5663L234.79 46.9545C232.13 47.4696 229.35 48.0661 226.527 48.7282Z" fill="#C5C5C5"/>
<path d="M145.881 74.5526L145.405 73.2212C148.067 72.2683 150.731 71.3212 153.398 70.3799L153.868 71.7135C151.204 72.6545 148.542 73.6006 145.881 74.5526Z" fill="#C5C5C5"/>
<path d="M129.455 79.0092C132.109 78.0339 134.765 77.0645 137.423 76.1007L137.905 77.4299C135.248 78.3934 132.594 79.3626 129.942 80.3369L129.455 79.0092Z" fill="#C5C5C5"/>
<path d="M97.6856 90.9057C100.327 89.898 102.97 88.8941 105.614 87.8933L106.114 89.2157C103.472 90.2162 100.83 91.2193 98.1893 92.2269L97.6856 90.9057Z" fill="#C5C5C5"/>
<path d="M81.8515 96.9986C84.4885 95.9801 87.1264 94.9628 89.7655 93.9493L90.2725 95.27C87.6341 96.2834 84.9974 97.2998 82.3611 98.3183L81.8515 96.9986Z" fill="#C5C5C5"/>
<path d="M66.0431 103.136C68.6769 102.109 71.3114 101.083 73.9464 100.06L74.4578 101.378C71.8235 102.401 69.1897 103.427 66.5572 104.454L66.0431 103.136Z" fill="#C5C5C5"/>
<path d="M210.183 53.0916L209.784 51.7352C212.671 50.8847 215.346 50.1301 217.961 49.4271L218.327 50.7924C215.723 51.4932 213.059 52.2449 210.183 53.0916Z" fill="#C5C5C5"/>
<path d="M196.118 57.4556L194.008 58.1333L193.574 56.7881L195.686 56.1093C197.672 55.4725 199.663 54.8403 201.661 54.2158L202.082 55.5656C200.089 56.1879 198.101 56.8191 196.118 57.4556Z" fill="#C5C5C5"/>
<path d="M177.908 63.4244L177.458 62.0837C180.138 61.1833 182.823 60.2912 185.509 59.4062L185.95 60.7501C183.267 61.6341 180.586 62.525 177.908 63.4244Z" fill="#C5C5C5"/>
<path d="M161.865 68.907L161.401 67.5711C164.072 66.6432 166.745 65.721 169.421 64.8072L169.878 66.1456C167.205 67.0582 164.534 67.9794 161.865 68.907Z" fill="#C5C5C5"/>
<path d="M113.553 84.9123C116.2 83.9192 118.849 82.9306 121.5 81.9464L121.992 83.272C119.342 84.2554 116.695 85.2438 114.05 86.2359L113.553 84.9123Z" fill="#C5C5C5"/>
<path d="M305.901 146.059L306.131 147.453C303.351 147.914 300.46 148.084 297.538 147.959L297.599 146.546C300.423 146.667 303.216 146.503 305.901 146.059Z" fill="#C5C5C5"/>
<path d="M321.121 139.738L321.951 140.883C321.003 141.57 320.011 142.22 319.005 142.811C317.541 143.674 315.999 144.442 314.424 145.093L313.884 143.786C315.398 143.16 316.88 142.422 318.289 141.593C319.256 141.023 320.209 140.399 321.121 139.738Z" fill="#C5C5C5"/>
<path d="M333.235 128.009C331.813 130.564 330.154 132.939 328.302 135.066L327.236 134.138C329.023 132.084 330.626 129.791 332 127.321L333.235 128.009Z" fill="#C5C5C5"/>
<path d="M334.865 85.7386C334.037 83.432 333.038 81.1969 331.896 79.0952L333.137 78.4199C334.314 80.5845 335.342 82.8866 336.195 85.261C336.319 85.6071 336.441 85.9555 336.557 86.3054L335.217 86.7549C335.103 86.4133 334.987 86.0756 334.865 85.7386Z" fill="#C5C5C5"/>
<path d="M50.2489 109.318C52.8805 108.285 55.5129 107.254 58.1449 106.224L58.6602 107.542C56.0282 108.571 53.3966 109.603 50.7656 110.635L50.2489 109.318Z" fill="#C5C5C5"/>
<path d="M338.615 94.6455C339.074 97.4607 339.314 100.34 339.328 103.204L337.915 103.211C337.901 100.421 337.667 97.6161 337.22 94.8733L338.615 94.6455Z" fill="#C5C5C5"/>
<path d="M251.858 105.04C252.305 107.817 252.962 110.554 253.811 113.174L252.467 113.61C251.596 110.921 250.921 108.114 250.463 105.265L251.858 105.04Z" fill="#C5C5C5"/>
<path d="M34.4611 115.505L42.3538 112.404L42.8705 113.722L34.9783 116.822L34.4611 115.505Z" fill="#C5C5C5"/>
<path d="M261.57 127.867L260.462 128.746C258.656 126.465 257.078 124.039 255.772 121.534L257.024 120.88C258.29 123.305 259.819 125.657 261.57 127.867Z" fill="#C5C5C5"/>
<path d="M289.341 145.397L289.021 146.774C286.265 146.133 283.516 145.239 280.851 144.116L281.4 142.812C283.992 143.904 286.663 144.774 289.341 145.397Z" fill="#C5C5C5"/>
<path d="M273.99 138.951L273.238 140.148C270.805 138.615 268.494 136.879 266.369 134.989L267.308 133.932C269.375 135.771 271.623 137.46 273.99 138.951Z" fill="#C5C5C5"/>
<path d="M255.46 72.0199C254.49 74.6573 253.669 77.3601 253.019 80.0547L251.645 79.7225C252.307 76.9755 253.145 74.2197 254.133 71.5316L255.46 72.0199Z" fill="#C5C5C5"/>
<path d="M357.419 7.76351L357.185 6.36798C359.837 5.92504 362.581 5.49182 365.572 5.04295L365.782 6.44063C362.799 6.88897 360.063 7.32101 357.419 7.76351Z" fill="#C5C5C5"/>
<path d="M340.805 10.9597L340.498 9.57926C343.16 8.98709 345.961 8.40974 348.823 7.86365L349.089 9.25237C346.241 9.79562 343.453 10.3702 340.805 10.9597Z" fill="#C5C5C5"/>
<path d="M374.167 5.23361L373.972 3.83376C376.771 3.44209 379.573 3.0588 382.374 2.67625L382.565 4.0781C379.764 4.45988 376.965 4.84214 374.167 5.23361Z" fill="#C5C5C5"/>
<path d="M330.461 13.5094C328.442 14.0603 326.423 14.6475 324.462 15.255L324.045 13.9041C326.02 13.2916 328.054 12.6995 330.089 12.1449C330.802 11.9508 331.516 11.7606 332.23 11.5737L332.587 12.9419C331.877 13.1275 331.169 13.3168 330.461 13.5094Z" fill="#C5C5C5"/>
<path d="M308.061 19.7648C310.606 18.6698 313.269 17.6116 315.977 16.6188L316.462 17.9467C313.779 18.9298 311.14 19.979 308.619 21.0636L308.061 19.7648Z" fill="#C5C5C5"/>
<path d="M390.968 2.9133L390.772 1.51355C393.57 1.12207 396.366 0.722131 399.158 0.305242L399.367 1.70368C396.57 2.12126 393.77 2.52123 390.968 2.9133Z" fill="#C5C5C5"/>
<path d="M327.315 72.0989C325.64 69.9156 323.771 67.8072 321.759 65.8334L322.749 64.8245C324.807 66.8438 326.721 69.0021 328.436 71.2381L327.315 72.0989Z" fill="#C5C5C5"/>
<path d="M284.994 46.5634C282.282 45.9336 279.497 45.4169 276.721 45.0278L276.917 43.6278C279.735 44.0227 282.56 44.5467 285.314 45.1866L284.994 46.5634Z" fill="#C5C5C5"/>
<path d="M266.841 49.3376C268.627 47.17 270.561 45.0436 272.592 43.0153L273.59 44.0167C271.593 46.0118 269.689 48.1054 267.932 50.2368L266.841 49.3376Z" fill="#C5C5C5"/>
<path d="M249.717 96.7139C249.67 93.9042 249.814 91.0248 250.145 88.1544L251.548 88.3156C251.225 91.1249 251.085 93.9418 251.13 96.6897L249.717 96.7139Z" fill="#C5C5C5"/>
<path d="M259.919 44.1137L259.889 42.6998C262.758 42.6381 265.627 42.6776 268.415 42.8188L268.344 44.231C265.589 44.0916 262.755 44.0523 259.919 44.1137Z" fill="#C5C5C5"/>
<path d="M243.12 45.5539L242.919 44.155C245.785 43.7425 248.632 43.413 251.38 43.1753L251.502 44.5842C248.781 44.8193 245.96 45.146 243.12 45.5539Z" fill="#C5C5C5"/>
<path d="M336.687 120.122L335.346 119.675C336.213 117.071 336.871 114.338 337.301 111.549L338.698 111.766C338.256 114.633 337.579 117.444 336.687 120.122Z" fill="#C5C5C5"/>
<path d="M257.533 63.678C258.809 61.1294 260.238 58.6305 261.783 56.2504L262.968 57.0202C261.452 59.3575 260.048 61.8101 258.796 64.3113L257.533 63.678Z" fill="#C5C5C5"/>
<path d="M292.863 27.4699C295.251 26.0512 297.767 24.6734 300.34 23.3732L300.977 24.6352C298.433 25.9216 295.946 27.2844 293.585 28.6862L292.863 27.4699Z" fill="#C5C5C5"/>
<path d="M308.41 55.7226L309.121 54.5013C311.617 55.9574 314.015 57.5513 316.252 59.2377L315.401 60.3667C313.21 58.7133 310.857 57.1508 308.41 55.7226Z" fill="#C5C5C5"/>
<path d="M278.908 37.2722C281.055 35.4846 283.337 33.7421 285.692 32.0918L286.503 33.2502C284.18 34.8782 281.929 36.5965 279.812 38.3587L278.908 37.2722Z" fill="#C5C5C5"/>
<path d="M300.933 51.8919C298.418 50.7671 295.78 49.7423 293.094 48.8483L293.54 47.5063C296.27 48.4154 298.951 49.4566 301.51 50.6011L300.933 51.8919Z" fill="#C5C5C5"/>
<path d="M66.4418 69.8144L70.9065 101.13L89.6854 126.581L9.95084 126.107L66.4418 69.8144Z" fill="#C5C5C5"/>
<path d="M70.9068 101.125L70.1595 95.883L10.2255 125.829L9.95117 126.103L10.0921 126.104L74.0019 105.32L70.9068 101.125Z" fill="#C5C5C5"/>
</svg>
