<svg width="82" height="96" viewBox="0 0 82 96" fill="none" xmlns="http://www.w3.org/2000/svg">
<path fill-rule="evenodd" clip-rule="evenodd" d="M26.4079 74.24C26.4079 74.24 22.1616 76.3735 29.4331 77.0942C38.2447 77.963 42.7456 77.838 52.4528 76.2524C52.4528 76.2524 55.0085 77.6341 58.576 78.8294C36.8087 86.883 9.31303 78.3636 26.4079 74.24ZM23.7471 63.7305C23.7471 63.7305 18.9834 66.775 26.2613 67.4248C35.6743 68.2641 43.1043 68.3326 55.9695 66.1952C55.9695 66.1952 57.7459 67.7521 60.5414 68.6026C34.2272 75.2482 4.9201 69.1258 23.7471 63.7305Z" fill="#3174B9"/>
<path fill-rule="evenodd" clip-rule="evenodd" d="M46.1681 45.9004C51.5341 51.2336 44.7616 56.0301 44.7616 56.0301C44.7616 56.0301 58.3803 49.961 52.1253 42.3582C46.2853 35.2714 41.8057 31.7507 66.0539 19.6094C66.0539 19.6094 27.9905 27.8143 46.1681 45.9004Z" fill="#CA3132"/>
<path fill-rule="evenodd" clip-rule="evenodd" d="M74.9548 82.0155C74.9548 82.0155 78.098 84.2533 71.4925 85.9838C58.9317 89.2688 19.2035 90.2594 8.16814 86.1144C4.20408 84.6236 11.6415 82.557 13.9814 82.1206C16.4218 81.6651 17.8145 81.7479 17.8145 81.7479C13.4031 79.0658 -10.6994 87.0159 5.5737 89.2966C49.9475 95.509 86.4633 86.4998 74.9548 82.0155ZM28.4496 52.8417C28.4496 52.8417 8.24377 56.9867 21.2953 58.4934C26.8079 59.1297 37.7888 58.9832 48.0254 58.2418C56.3889 57.6358 64.7837 56.3393 64.7837 56.3393C64.7837 56.3393 61.8369 57.4311 59.7018 58.6878C39.1796 63.3488 -0.459079 61.178 10.9535 56.4134C20.6026 52.383 28.4496 52.8417 28.4496 52.8417ZM64.6997 70.3353C85.5594 60.9781 75.9149 51.984 69.1812 53.1961C67.5349 53.4931 66.7961 53.7495 66.7961 53.7495C66.7961 53.7495 67.4104 52.9197 68.578 52.563C81.897 48.5214 92.1382 64.486 64.2838 70.8083C64.2829 70.8083 64.6038 70.5583 64.6997 70.3353Z" fill="#3174B9"/>
<path fill-rule="evenodd" clip-rule="evenodd" d="M52.1266 0C52.1266 0 63.6766 9.97918 41.1688 25.3195C23.1184 37.6296 37.0534 44.6463 41.1632 52.6664C30.625 44.4584 22.8952 37.2314 28.0804 30.5069C35.693 20.6361 56.787 15.8491 52.1266 0Z" fill="#CA3132"/>
<path fill-rule="evenodd" clip-rule="evenodd" d="M30.5 95.6993C50.5195 96.8046 81.2682 95.0853 81.9977 86.9043C81.9977 86.9043 80.5977 90.0053 65.4507 92.4653C48.3614 95.243 27.2803 94.9197 14.7812 93.1382C14.7812 93.1382 17.3425 94.9682 30.5 95.6993Z" fill="#3174B9"/>
</svg>
