<svg width="82" height="82" viewBox="0 0 82 82" fill="none" xmlns="http://www.w3.org/2000/svg">
<path d="M40.5115 0.000713007C37.13 0.0160349 33.9013 0.301314 31.0605 0.79891C22.691 2.26178 21.1714 5.32251 21.1714 10.9683V18.4242H40.9497V20.9092H13.7483C8.00041 20.9092 2.96659 24.3267 1.39241 30.8276C-0.423717 38.2791 -0.504123 42.929 1.39241 50.7095C2.7984 56.5012 6.15625 60.6279 11.9041 60.6279H18.7047V51.6901C18.7047 45.2331 24.353 39.5377 31.0605 39.5377H50.8159C56.3152 39.5377 60.7051 35.0593 60.7051 29.5967V10.9675C60.7051 5.66616 56.1832 1.6832 50.8159 0.79818C47.4175 0.239297 43.8929 -0.0153385 40.5115 0.000713007ZM29.8154 5.99667C31.8587 5.99667 33.5266 7.67405 33.5266 9.73594C33.5266 11.7905 31.858 13.4526 29.8154 13.4526C27.7654 13.4526 26.1042 11.7913 26.1042 9.73594C26.1042 7.67405 27.7654 5.99667 29.8154 5.99667Z" fill="url(#paint0_linear_746_36866)"/>
<path d="M63.1723 20.9082V29.595C63.1723 36.33 57.3993 41.9984 50.8164 41.9984H31.061C25.6495 41.9984 21.1719 46.5789 21.1719 51.9394V70.5671C21.1719 75.8692 25.8324 78.9876 31.061 80.5081C37.3216 82.3292 43.3254 82.6583 50.8164 80.5081C55.7956 79.0824 60.7055 76.2121 60.7055 70.5671V63.1119H40.9501V60.6269H70.5947C76.3433 60.6269 78.4847 56.6607 80.4838 50.7085C82.5492 44.5812 82.4615 38.6874 80.4838 30.8266C79.063 25.167 76.3499 20.9082 70.5947 20.9082H63.1723ZM52.0608 68.0821C54.1108 68.0821 55.772 69.7434 55.772 71.7987C55.772 73.8606 54.1108 75.538 52.0608 75.538C50.0175 75.538 48.3496 73.8606 48.3496 71.7987C48.3496 69.7441 50.0182 68.0821 52.0608 68.0821Z" fill="url(#paint1_linear_746_36866)"/>
<defs>
<linearGradient id="paint0_linear_746_36866" x1="-1.95068" y1="2.32889" x2="43.2361" y2="41.2542" gradientUnits="userSpaceOnUse">
<stop stop-color="#5A9FD4"/>
<stop offset="1" stop-color="#306998"/>
</linearGradient>
<linearGradient id="paint1_linear_746_36866" x1="60.772" y1="64.7249" x2="44.6457" y2="41.8802" gradientUnits="userSpaceOnUse">
<stop stop-color="#FFD43B"/>
<stop offset="1" stop-color="#FFE873"/>
</linearGradient>
</defs>
</svg>
