<svg width="82" height="90" viewBox="0 0 82 90" fill="none" xmlns="http://www.w3.org/2000/svg">
<path d="M81.9953 26.46C81.9947 24.9467 81.6633 23.6095 80.993 22.4618C80.3347 21.3333 79.3488 20.3874 78.0263 19.6395C67.1099 13.4926 56.1829 7.36454 45.2701 1.21139C42.328 -0.447293 39.4755 -0.386824 36.5552 1.29567C32.2102 3.7981 10.456 15.9694 3.97353 19.6361C1.30387 21.1453 0.00481252 23.455 0.00417085 26.4572C0 38.819 0.00417085 51.1804 0 63.5425C0 65.0226 0.317947 66.3338 0.958653 67.4643C1.61733 68.627 2.61705 69.5989 3.97 70.3637C10.4528 74.0304 32.2098 86.2007 36.5539 88.7038C39.4755 90.3872 42.328 90.4473 45.271 88.788C56.1842 82.6346 67.1118 76.5068 78.0298 70.3599C79.3828 69.5954 80.3825 68.6229 81.0412 67.4611C81.6809 66.3307 81.9995 65.0195 81.9995 63.5391C81.9995 63.5391 81.9995 38.8221 81.9953 26.46Z" fill="#A179DC"/>
<path d="M41.1275 44.8789L0.960938 67.4638C1.61961 68.6265 2.61933 69.5984 3.97229 70.3632C10.4551 74.0299 32.2121 86.2002 36.5562 88.7033C39.4777 90.3867 42.3303 90.4468 45.2733 88.7875C56.1865 82.6341 67.1141 76.5063 78.0321 70.3594C79.385 69.5949 80.3848 68.6224 81.0434 67.4606L41.1275 44.8789Z" fill="#280068"/>
<path d="M81.9951 26.4611C81.9945 24.9478 81.6631 23.6106 80.9928 22.4629L41.125 44.8804L81.041 67.4622C81.6807 66.3317 81.9987 65.0205 81.9993 63.5401C81.9993 63.5401 81.9993 38.8232 81.9951 26.4611Z" fill="#390091"/>
<path d="M64.7733 36.4375V40.659H69.0961V36.4375H71.2575V40.659H75.5803V42.7697H71.2575V46.9912H75.5803V49.1019H71.2575V53.3234H69.0961V49.1019H64.7733V53.3234H62.6119V49.1019H58.2891V46.9912H62.6119V42.7697H58.2891V40.659H62.6119V36.4375H64.7733ZM69.0961 42.7697H64.7733V46.9912H69.0961V42.7697Z" fill="white"/>
<path d="M41.2138 15.2344C52.4892 15.2344 62.3334 21.2144 67.6062 30.103L67.5548 30.0174L54.2887 37.4769C51.675 33.1552 46.8834 30.2387 41.387 30.1786L41.2138 30.1777C32.8318 30.1777 26.0364 36.8135 26.0364 44.9989C26.0364 47.6758 26.7672 50.185 28.0381 52.3522C30.6542 56.8123 35.5722 59.8206 41.2138 59.8206C46.8903 59.8206 51.8363 56.7741 54.4391 52.2663L54.3759 52.3745L67.622 59.8683C62.407 68.6817 52.6976 74.6432 41.5533 74.7621L41.2138 74.7639C29.9029 74.7639 20.0307 68.7471 14.7711 59.8114C12.2035 55.4492 10.7344 50.3919 10.7344 44.9989C10.7344 28.5606 24.3802 15.2344 41.2138 15.2344Z" fill="white"/>
</svg>
