<svg width="124" height="47" viewBox="0 0 124 47" fill="none" xmlns="http://www.w3.org/2000/svg">
<g clip-path="url(#clip0_746_36789)">
<path d="M9.35867 14.0007C9.11719 14.0007 9.05682 13.88 9.17756 13.6989L10.4453 12.0693C10.5661 11.8883 10.8679 11.7676 11.1094 11.7676H32.6615C32.903 11.7676 32.9633 11.9486 32.8426 12.1297L31.8163 13.6989C31.6956 13.88 31.3937 14.061 31.2126 14.061L9.35867 14.0007Z" fill="#00ACD7"/>
<path d="M0.24148 19.5534C0 19.5534 -0.06037 19.4327 0.06037 19.2516L1.32814 17.6221C1.44888 17.441 1.75073 17.3203 1.99221 17.3203H29.5209C29.7624 17.3203 29.8832 17.5014 29.8228 17.6824L29.3398 19.1309C29.2795 19.3723 29.038 19.493 28.7965 19.493L0.24148 19.5534Z" fill="#00ACD7"/>
<path d="M14.8509 25.1061C14.6094 25.1061 14.549 24.9251 14.6697 24.744L15.5149 23.2352C15.6357 23.0541 15.8771 22.873 16.1186 22.873H28.1926C28.4341 22.873 28.5548 23.0541 28.5548 23.2955L28.4341 24.744C28.4341 24.9854 28.1926 25.1665 28.0115 25.1665L14.8509 25.1061Z" fill="#00ACD7"/>
<path d="M77.5146 12.9149C73.7113 13.8806 71.1154 14.6048 67.3724 15.5705C66.4669 15.8119 66.4065 15.8723 65.6217 14.967C64.7161 13.9409 64.0521 13.2771 62.7843 12.6735C58.981 10.8026 55.2984 11.3457 51.8573 13.5788C47.7522 16.2344 45.6392 20.1574 45.6996 25.046C45.76 29.8743 49.0803 33.8577 53.8495 34.5216C57.9547 35.0648 61.3958 33.6163 64.1124 30.5382C64.6558 29.8743 65.1387 29.1501 65.7424 28.3051C63.5691 28.3051 60.8525 28.3051 54.091 28.3051C52.8232 28.3051 52.5214 27.5205 52.944 26.4945C53.7288 24.6236 55.1777 21.4852 56.0229 19.916C56.204 19.5538 56.6266 18.9503 57.5321 18.9503C60.611 18.9503 71.9605 18.9503 79.5068 18.9503C79.3861 20.5799 79.3861 22.2094 79.1446 23.839C78.4805 28.1844 76.8505 32.1678 74.1942 35.6683C69.8476 41.4019 64.1728 44.9628 56.9888 45.9284C51.0725 46.713 45.5788 45.5663 40.7492 41.9451C36.2819 38.5653 33.7463 34.0991 33.0823 28.5465C32.2974 21.968 34.2293 16.0533 38.2137 10.8629C42.5 5.25001 48.1748 1.68914 55.1173 0.421709C60.7921 -0.604304 66.2254 0.0595867 71.1154 3.37904C74.315 5.49142 76.609 8.3884 78.1183 11.8889C78.4805 12.4321 78.239 12.7339 77.5146 12.9149Z" fill="#00ACD7"/>
<path d="M97.4957 46.2903C92.002 46.1696 86.9913 44.6004 82.7654 40.9791C79.2036 37.9011 76.9699 33.9781 76.2454 29.3309C75.1588 22.5109 77.0302 16.4755 81.1354 11.104C85.5424 5.31009 90.855 2.2924 98.039 1.02497C104.197 -0.0613925 109.992 0.542145 115.244 4.10302C120.014 7.36212 122.972 11.7679 123.757 17.5619C124.783 25.7097 122.428 32.3486 116.814 38.0218C112.83 42.0655 107.94 44.6004 102.325 45.7471C100.695 46.0489 99.0653 46.1092 97.4957 46.2903ZM111.864 21.9074C111.803 21.1228 111.803 20.5192 111.683 19.9157C110.596 13.9407 105.102 10.5609 99.3672 11.8886C93.7527 13.1561 90.1305 16.7169 88.8024 22.3902C87.7157 27.0978 90.0098 31.8657 94.3564 33.7971C97.6768 35.2455 100.997 35.0645 104.197 33.4349C108.966 30.9604 111.562 27.0978 111.864 21.9074Z" fill="#00ACD7"/>
</g>
<defs>
<clipPath id="clip0_746_36789">
<rect width="124" height="46.2913" fill="white"/>
</clipPath>
</defs>
</svg>
