<svg width="90" height="64" viewBox="0 0 90 64" fill="none" xmlns="http://www.w3.org/2000/svg">
<path d="M44.4823 64C44.1853 64 43.8903 63.9095 43.6298 63.7354L40.9164 61.8702C40.5112 61.6071 40.7089 61.514 40.8426 61.4604C41.3829 61.2407 41.4926 61.1911 42.0694 60.8108C42.13 60.7706 42.2094 60.7848 42.2714 60.8273L44.356 62.2635C44.4312 62.3108 44.538 62.3108 44.6078 62.2635L52.7356 56.8162C52.8109 56.7666 52.8597 56.665 52.8597 56.5611V45.6712C52.8597 45.5625 52.8109 45.4657 52.734 45.4113L44.6095 39.9688C44.5342 39.9168 44.4345 39.9168 44.3592 39.9688L36.2363 45.4113C36.1575 45.4633 36.1075 45.5649 36.1075 45.6688V56.5587C36.1075 56.6627 36.1563 56.7619 36.2336 56.8115L38.4594 58.3044C39.6679 59.006 40.4064 58.1792 40.4064 57.3477V46.5995C40.4064 46.446 40.5101 46.3279 40.6424 46.3279H41.6718C41.8 46.3279 41.9058 46.446 41.9058 46.5995V57.3524C41.9058 59.2233 41.0269 60.2981 39.499 60.2981C39.029 60.2981 38.6588 60.2981 37.6252 59.7076L35.4931 58.2808C34.9661 57.9265 34.6406 57.265 34.6406 56.5587V45.6688C34.6406 44.9602 34.9661 44.2987 35.4931 43.9491L43.629 38.4994C44.1438 38.1616 44.8273 38.1616 45.338 38.4994L53.4638 43.9515C53.9887 44.3035 54.3162 44.9625 54.3162 45.6712V56.5611C54.3162 57.2674 53.9887 57.9265 53.4638 58.2808L45.338 63.7305C45.0776 63.9053 44.7826 63.995 44.4815 63.995" fill="#689F63"/>
<path d="M46.9973 56.4949C43.441 56.4949 42.6953 54.5994 42.6953 53.0096C42.6953 52.8584 42.8003 52.738 42.9307 52.738H43.9805C44.0965 52.738 44.1941 52.836 44.2124 52.969C44.3711 54.211 44.8431 54.8375 46.9936 54.8375C48.7066 54.8375 49.435 54.3882 49.435 53.3335C49.435 52.7264 49.2275 52.2752 46.5663 51.9728C44.3406 51.7177 42.9653 51.1484 42.9653 49.0815C42.9653 47.1775 44.3487 46.0436 46.666 46.0436C49.2682 46.0436 50.558 47.0924 50.7208 49.346C50.7269 49.424 50.7025 49.4996 50.6577 49.5563C50.613 49.6106 50.5499 49.6437 50.4848 49.6437H49.4289C49.319 49.6437 49.2234 49.5539 49.201 49.4311C48.9467 48.1247 48.3323 47.7066 46.662 47.7066C44.7923 47.7066 44.5746 48.4625 44.5746 49.0295C44.5746 49.7169 44.8309 49.9177 47.3537 50.3051C49.8521 50.6901 51.0382 51.2334 51.0382 53.2721C51.0382 55.3272 49.5611 56.506 46.9855 56.506M56.8853 44.957H57.1579C57.3817 44.957 57.4245 44.7751 57.4245 44.6688C57.4245 44.39 57.2597 44.3901 57.1681 44.3901H56.8873L56.8853 44.957ZM56.5537 44.0641H57.1579C57.3654 44.0641 57.7724 44.0641 57.7724 44.6027C57.7724 44.9782 57.5648 45.0562 57.4407 45.1034C57.6828 45.1223 57.6991 45.3066 57.7317 45.5664C57.7479 45.7294 57.7744 46.0105 57.8232 46.105H57.4509C57.4407 46.0105 57.3838 45.4909 57.3838 45.4625C57.3594 45.3468 57.3248 45.2901 57.2007 45.2901H56.8934V46.1074H56.5537V44.0641ZM55.8274 45.0798C55.8274 45.9255 56.4153 46.6106 57.1376 46.6106C57.8659 46.6106 58.4539 45.9113 58.4539 45.0798C58.4539 44.2318 57.8578 43.5585 57.1356 43.5585C56.4235 43.5585 55.8253 44.2223 55.8253 45.0775M58.7062 45.0845C58.7062 46.0861 58.0002 46.9035 57.1396 46.9035C56.2851 46.9035 55.5731 46.0956 55.5731 45.0845C55.5731 44.0546 56.3014 43.2656 57.1396 43.2656C57.9839 43.2656 58.7041 44.057 58.7041 45.0845" fill="#689F63"/>
<path fill-rule="evenodd" clip-rule="evenodd" d="M19.3147 21.39C19.3147 20.9553 19.1173 20.5561 18.7943 20.34L10.177 14.5832C10.0315 14.484 9.86853 14.432 9.70333 14.4249H9.61421C9.44901 14.432 9.28605 14.484 9.13814 14.5832L0.521238 20.34C0.200194 20.5573 0 20.9565 0 21.3912L0.0189208 36.8969C0.0189208 37.1119 0.114542 37.3126 0.277302 37.4189C0.435993 37.5323 0.635373 37.5323 0.794064 37.4189L5.91692 34.0126C6.24041 33.7891 6.43776 33.3942 6.43776 32.9638V25.72C6.43776 25.2877 6.6351 24.8885 6.95757 24.6735L9.13855 23.2151C9.3005 23.1064 9.47831 23.0525 9.65938 23.0525C9.8376 23.0525 10.0195 23.1059 10.177 23.2148L12.3569 24.6728C12.6796 24.8878 12.8778 25.287 12.8778 25.7193V32.9626C12.8778 33.3925 13.0777 33.7894 13.3996 34.0114L18.5192 37.4154C18.6799 37.5264 18.8799 37.5264 19.04 37.4154C19.1979 37.3091 19.298 37.1083 19.298 36.8933L19.3147 21.39ZM59.9778 29.4632C59.9778 29.5711 59.9283 29.671 59.8475 29.7244L56.8878 31.7054C56.8074 31.759 56.7081 31.759 56.628 31.7054L53.6678 29.7244C53.5864 29.6708 53.5376 29.5709 53.5376 29.4632V25.4956C53.5376 25.3874 53.5864 25.2877 53.6657 25.2333L56.6239 23.2491C56.7053 23.1947 56.805 23.1947 56.8863 23.2491L59.8465 25.2333C59.9279 25.2877 59.9767 25.3874 59.9767 25.4956L59.9778 29.4632ZM60.7773 0.0764853C60.6158 -0.0279255 60.4192 -0.0250908 60.2597 0.0828633C60.101 0.191526 60.003 0.389954 60.003 0.604917V15.9594C60.003 16.1106 59.9338 16.25 59.8211 16.3256C59.7092 16.4012 59.5698 16.4012 59.4569 16.3256L57.2983 14.882C56.9769 14.6661 56.581 14.6661 56.2583 14.882L47.6381 20.6584C47.3161 20.8734 47.1173 21.2726 47.1173 21.7025V33.2586C47.1173 33.6909 47.3161 34.0877 47.6381 34.305L56.2583 40.0854C56.5802 40.3004 56.9765 40.3004 57.2993 40.0854L65.9195 34.3027C66.241 34.0854 66.4403 33.6885 66.4403 33.2562V4.45583C66.4403 4.0174 66.2348 3.61417 65.9053 3.39991L60.7773 0.0764853ZM89.4826 25.3911C89.8029 25.1752 90 24.7765 90 24.3466V21.5459C90 21.115 89.8027 20.7175 89.4818 20.5006L80.9166 14.7273C80.5931 14.51 80.1964 14.51 79.8729 14.7273L71.2548 20.503C70.9313 20.7203 70.7339 21.1172 70.7339 21.5494V33.1008C70.7339 33.5354 70.9353 33.937 71.2588 34.152L79.822 39.819C80.1374 40.0292 80.5239 40.0316 80.8433 39.8261L86.0232 36.4835C86.1859 36.3772 86.2897 36.1764 86.2897 35.9591C86.2897 35.7418 86.19 35.5386 86.0272 35.4323L77.3562 29.6543C77.1935 29.548 77.0938 29.3472 77.0938 29.1322V25.5085C77.0938 25.2922 77.1914 25.0928 77.3542 24.9851L80.0519 23.178C80.2127 23.0693 80.41 23.0693 80.5707 23.178L83.2705 24.9851C83.4312 25.0914 83.5309 25.2922 83.5309 25.5071V28.356C83.5309 28.5709 83.6306 28.7717 83.7913 28.8804C83.9521 28.9867 84.1514 28.9867 84.3122 28.878L89.4826 25.3911Z" fill="#333333"/>
<path fill-rule="evenodd" clip-rule="evenodd" d="M80.2704 24.8517C80.3314 24.8099 80.4079 24.8099 80.4698 24.8517L82.1238 25.9596C82.1857 26.0011 82.2235 26.0777 82.2235 26.1603V28.3785C82.2235 28.4612 82.1857 28.5377 82.1238 28.5793L80.4698 29.6872C80.4079 29.729 80.3314 29.729 80.2704 29.6872L78.6173 28.5793C78.5543 28.5377 78.5156 28.4612 78.5156 28.3785V26.1603C78.5156 26.0777 78.5523 26.0011 78.6153 25.9596L80.2704 24.8517Z" fill="#689F63"/>
<mask id="mask0_746_36873" style="mask-type:luminance" maskUnits="userSpaceOnUse" x="23" y="14" width="20" height="27">
<path d="M32.6987 14.7856L24.1274 20.5299C23.8063 20.7448 23.6094 21.1417 23.6094 21.5707V33.0672C23.6094 33.4964 23.8063 33.893 24.1274 34.108L32.6993 39.8567C33.0197 40.071 33.4148 40.071 33.7349 39.8567L42.3054 34.108C42.6248 33.893 42.8221 33.4962 42.8221 33.0672V21.5707C42.8221 21.1417 42.6248 20.7448 42.3033 20.5299L33.734 14.7856C33.5733 14.6786 33.3943 14.625 33.2152 14.625C33.0362 14.625 32.8572 14.6786 32.6965 14.7856" fill="white"/>
</mask>
<g mask="url(#mask0_746_36873)">
<path d="M51.4818 19.5544L27.3293 5.80859L14.9453 35.1414L39.0972 48.888L51.4818 19.5544Z" fill="url(#paint0_linear_746_36873)"/>
</g>
<mask id="mask1_746_36873" style="mask-type:luminance" maskUnits="userSpaceOnUse" x="23" y="14" width="20" height="27">
<path d="M23.8206 33.7963C23.9025 33.9199 24.0051 34.0269 24.1257 34.1072L31.4784 39.0384L32.7032 39.8557C32.8863 39.9785 33.095 40.0305 33.3001 40.0128C33.3684 40.0064 33.4368 39.9915 33.5035 39.9696L42.5436 20.7504C42.4744 20.663 42.3935 20.5898 42.3027 20.5284L36.6904 16.7653L33.7237 14.7834C33.6394 14.7267 33.5481 14.6865 33.4551 14.6582L23.8206 33.7963Z" fill="white"/>
</mask>
<g mask="url(#mask1_746_36873)">
<path d="M13.3789 23.6189L30.4331 50.4192L52.9875 31.071L35.9323 4.27148L13.3789 23.6189Z" fill="url(#paint1_linear_746_36873)"/>
</g>
<mask id="mask2_746_36873" style="mask-type:luminance" maskUnits="userSpaceOnUse" x="24" y="14" width="19" height="27">
<path d="M33.1133 14.6314C32.9694 14.648 32.8289 14.6999 32.6993 14.7855L24.1523 20.5132L33.3686 40.004C33.4968 39.9827 33.6229 39.9331 33.7369 39.8566L42.3082 34.1078C42.5727 33.9297 42.7537 33.6283 42.8087 33.2867L33.4134 14.651C33.3442 14.6352 33.275 14.627 33.2038 14.627C33.1753 14.627 33.1469 14.6286 33.1184 14.6317" fill="white"/>
</mask>
<g mask="url(#mask2_746_36873)">
<path d="M24.1523 14.627V40.0045H42.8052V14.627H24.1523Z" fill="url(#paint2_linear_746_36873)"/>
</g>
<defs>
<linearGradient id="paint0_linear_746_36873" x1="39.3983" y1="12.6599" x2="23.759" y2="40.1375" gradientUnits="userSpaceOnUse">
<stop offset="0.3" stop-color="#3E863D"/>
<stop offset="0.5" stop-color="#55934F"/>
<stop offset="0.8" stop-color="#5AAD45"/>
</linearGradient>
<linearGradient id="paint1_linear_746_36873" x1="22.0082" y1="37.1727" x2="46.8268" y2="21.3789" gradientUnits="userSpaceOnUse">
<stop offset="0.57" stop-color="#3E863D"/>
<stop offset="0.72" stop-color="#619857"/>
<stop offset="1" stop-color="#76AC64"/>
</linearGradient>
<linearGradient id="paint2_linear_746_36873" x1="24.1586" y1="27.3164" x2="42.8087" y2="27.3164" gradientUnits="userSpaceOnUse">
<stop offset="0.16" stop-color="#6BBF47"/>
<stop offset="0.38" stop-color="#79B461"/>
<stop offset="0.47" stop-color="#75AC64"/>
<stop offset="0.7" stop-color="#659E5A"/>
<stop offset="0.9" stop-color="#3E863D"/>
</linearGradient>
</defs>
</svg>
    