<svg width="82" height="96" viewBox="0 0 82 96" fill="none" xmlns="http://www.w3.org/2000/svg">
<path d="M58.045 20.2357C50.4502 13.6635 43.2452 7.26411 41.1027 0C38.9601 7.26411 31.7552 13.6649 24.1603 20.2371C12.8656 30.2689 0.0137593 41.6839 0.0137593 58.807C-0.570712 78.8706 17.5398 95.6481 40.1291 95.9945C62.7184 96.3408 81.6079 80.428 81.9978 60.3644V58.8077C82.1916 41.6839 69.3397 30.2689 58.045 20.2364V20.2357ZM21.045 62.0924C19.8769 63.4762 18.7087 65.0329 17.9289 66.5895C17.7335 66.763 17.539 67.1086 17.1507 67.1086L16.9561 67.1072C15.9826 67.1072 15.0082 65.5505 15.0082 65.5505C14.8128 65.2042 14.4237 64.6865 14.23 64.3402L14.0346 63.9953C11.5022 59.1512 13.6447 52.4069 13.6447 52.4069C14.6174 49.1215 16.3709 45.834 18.5134 43.067C19.8761 41.3368 21.4349 39.6081 22.9922 37.8779L24.9401 39.6081L34.0931 47.9105C34.483 48.2568 34.483 48.7745 34.0931 49.1208L24.5502 58.6342L21.0442 62.0917L21.045 62.0924ZM41.4926 85.9612C33.7031 85.9612 27.2772 80.253 27.4709 73.3352C27.4709 70.2212 28.8336 67.2822 30.977 65.0329C33.8985 61.9188 37.5983 58.8063 41.688 54.6555C46.3613 59.1526 49.4774 62.0924 52.3989 65.5527C52.5943 65.7262 52.7889 66.0718 52.9834 66.4174C54.5415 68.4925 55.5142 70.9146 55.5142 73.5095C55.708 80.4273 49.2828 85.9626 41.4926 85.9626V85.9612ZM68.1716 65.8969C67.9762 66.4167 67.3933 66.7616 66.8089 66.9344L66.6135 66.9358C66.029 66.7623 65.6407 66.4167 65.2508 66.0711C62.72 62.7857 59.9938 59.6717 56.8777 56.904L53.1788 53.4451L40.7152 42.0302C38.1844 39.9551 35.6519 37.5331 33.3148 35.2845C33.3148 35.1117 33.1203 35.1117 33.1203 35.1117C32.7304 34.5926 32.3421 34.0742 32.1467 33.3815V33.0352C31.7568 31.1322 32.5366 29.23 34.0947 27.8461C36.431 25.7711 38.9634 23.5218 41.2997 21.2739C43.8305 23.6953 46.5567 26.1167 49.2845 28.5381C54.7368 33.0352 59.6055 38.0515 64.0843 43.4133C67.7833 48.0826 69.7312 53.4451 69.7312 59.1533C69.3405 61.2284 68.9506 63.6497 68.1724 65.8976L68.1716 65.8969Z" fill="#009CDE"/>
</svg>
