<svg width="274" height="55" viewBox="0 0 274 55" fill="none" xmlns="http://www.w3.org/2000/svg">
<path d="M27.1597 28.672C27.1597 32.898 25.9428 36.4576 23.5003 39.3392C20.9514 42.3584 17.6393 43.8741 13.585 43.8741C9.51986 43.8741 6.21856 42.3584 3.66955 39.3392C1.22603 36.4576 0 32.898 0 28.672C0 24.4344 1.22603 20.8759 3.66955 18.0047C6.24685 15.0138 9.55901 13.519 13.585 13.519C17.6393 13.519 20.9514 15.0138 23.5003 18.0047C25.9428 20.8759 27.1597 24.4344 27.1597 28.672ZM19.0874 28.672C19.0874 26.7579 18.6437 25.1422 17.7555 23.836C16.7616 22.3512 15.3707 21.6136 13.585 21.6136C11.7985 21.6136 10.4082 22.3512 9.41338 23.836C8.51589 25.1422 8.07176 26.7579 8.07176 28.672C8.07176 30.5756 8.51589 32.2106 9.41338 33.5561C10.4082 35.0409 11.7985 35.7796 13.585 35.7796C15.3707 35.7796 16.7616 35.0409 17.7555 33.5561C18.6437 32.2106 19.0874 30.5756 19.0874 28.672ZM56.3466 28.672C56.3466 32.6195 55.2458 36.0686 53.0345 39.0194C50.6691 42.249 47.6182 43.8741 43.9107 43.8741C41.2938 43.8741 39.0739 43.0867 37.2586 41.5318C37.2586 41.8899 37.2972 42.7574 37.3747 44.1444C37.4518 45.5385 37.4899 46.6751 37.4899 47.5724C37.4899 52.5284 36.061 55 33.2038 55C32.035 55 31.0797 54.5712 30.3166 53.7236C29.5637 52.8671 29.1869 51.8383 29.1869 50.6237V18.3938C29.1869 17.2173 29.5733 16.2001 30.3456 15.3436C31.1177 14.496 32.0741 14.0683 33.2134 14.0683C34.9312 14.0683 36.1868 14.9535 36.9787 16.7195C38.6682 14.5861 40.9759 13.519 43.901 13.519C47.6182 13.519 50.6594 15.1132 53.0345 18.3142C55.2361 21.2754 56.3466 24.7245 56.3466 28.672ZM48.2743 28.672C48.2743 26.7579 47.8216 25.1422 46.9332 23.836C45.9378 22.3512 44.548 21.6136 42.7616 21.6136C40.9759 21.6136 39.5856 22.3512 38.5907 23.836C37.7023 25.1422 37.2586 26.7579 37.2586 28.672C37.2586 30.5756 37.7023 32.2106 38.5907 33.5561C39.5856 35.0409 40.9759 35.7796 42.7616 35.7796C44.548 35.7796 45.9378 35.0409 46.9332 33.5561C47.8216 32.2106 48.2743 30.5756 48.2743 28.672ZM85.7165 27.7757C85.7165 29.1699 85.3976 30.1269 84.7602 30.6663C84.1234 31.1939 83.1291 31.4631 81.7869 31.4631H67.2173C67.2173 33.0582 67.9418 34.2839 69.3899 35.1403C70.5582 35.8095 71.9871 36.1493 73.6765 36.1493C74.9904 36.1493 76.5638 35.699 78.4079 34.8132C80.2521 33.9153 81.439 33.476 81.9517 33.476C82.8877 33.476 83.6791 33.8253 84.3358 34.543C84.9823 35.2514 85.3114 36.1084 85.3114 37.0958C85.3114 39.3774 83.6605 41.1539 80.3574 42.4292C77.8379 43.3856 75.2794 43.8741 72.6635 43.8741C68.4539 43.8741 65.0552 42.4292 62.4581 39.5487C59.8604 36.667 58.5578 33.0483 58.5578 28.672C58.5578 24.504 59.9091 20.9456 62.6122 17.976C65.3056 15.0038 68.6568 13.519 72.6534 13.519C76.3705 13.519 79.4793 14.9248 81.9709 17.7357C84.461 20.5477 85.7165 23.8968 85.7165 27.7757ZM77.6453 25.681C77.6062 24.4045 77.0368 23.2485 75.936 22.2009C74.8351 21.1549 73.6674 20.6372 72.4312 20.6372C71.157 20.6372 69.969 21.1549 68.8687 22.2009C67.7684 23.2485 67.2173 24.4045 67.2173 25.681H77.6453ZM112.837 38.9486C112.837 40.1659 112.461 41.192 111.708 42.0495C110.945 42.8977 109.989 43.3265 108.821 43.3265C106.002 43.3265 104.591 41.0135 104.591 36.398C104.591 35.5106 104.65 34.1154 104.765 32.1912C104.891 30.2766 104.95 28.8714 104.95 27.9841C104.95 23.0883 103.414 20.6372 100.354 20.6372C97.2925 20.6372 95.7673 23.0883 95.7673 27.9841C95.7673 28.8714 95.8155 30.2766 95.9022 32.1912C95.999 34.1154 96.0472 35.5106 96.0472 36.398C96.0472 41.0135 94.6569 43.3265 91.8767 43.3265C90.7079 43.3265 89.7526 42.8977 88.9991 42.0495C88.2365 41.192 87.8598 40.1659 87.8598 38.9486V18.385C87.8598 17.1765 88.2365 16.1515 88.9991 15.3237C89.7526 14.486 90.7181 14.0683 91.8863 14.0683C93.8172 14.0683 95.1588 14.9535 95.9117 16.7195C97.2154 14.5861 99.5225 13.519 102.825 13.519C105.885 13.519 108.319 14.3557 110.105 16.0205C111.93 17.8064 112.837 20.2576 112.837 23.3784V38.9486ZM138.161 38.0628C138.161 39.9465 136.976 41.4412 134.599 42.5391C132.718 43.4252 130.672 43.8806 128.604 43.8741C124.538 43.8741 121.237 42.3584 118.688 39.3392C116.245 36.4576 115.019 32.898 115.019 28.672C115.019 24.4344 116.265 20.8566 118.765 17.9253C121.266 14.985 124.538 13.519 128.604 13.519C130.95 13.519 132.968 13.8777 134.649 14.5861C136.993 15.5431 138.161 17.0378 138.161 19.0718C138.161 20.0979 137.853 21.0052 137.235 21.7932C136.617 22.5706 135.824 22.9695 134.86 22.9695C134.202 22.9695 133.256 22.7403 132.021 22.2927C130.785 21.8329 129.802 21.6136 129.078 21.6136C127.156 21.6136 125.659 22.3214 124.587 23.7365C123.593 25.0129 123.09 26.6479 123.09 28.672C123.09 30.5756 123.534 32.1912 124.434 33.497C125.426 35.0226 126.828 35.7796 128.613 35.7796C129.406 35.7796 130.486 35.5404 131.867 35.0508C133.248 34.5739 134.243 34.3247 134.86 34.3247C135.759 34.3247 136.53 34.7226 137.188 35.5006C137.835 36.288 138.161 37.1345 138.161 38.0628ZM167.503 38.9486C167.503 40.1659 167.127 41.192 166.373 42.0495C165.611 42.8977 164.646 43.3265 163.476 43.3265C161.719 43.3265 160.465 42.4386 159.711 40.6742C158.022 42.8083 155.714 43.8741 152.789 43.8741C149.044 43.8741 145.974 42.249 143.597 39.0194C141.435 36.0686 140.346 32.6195 140.346 28.672C140.346 24.7245 141.435 21.2754 143.597 18.3142C146.012 15.1132 149.072 13.519 152.789 13.519C155.714 13.519 158.022 14.5861 159.711 16.7195C160.465 14.9535 161.719 14.0683 163.476 14.0683C164.616 14.0683 165.573 14.496 166.346 15.3436C167.117 16.2001 167.503 17.2074 167.503 18.385V38.9486ZM159.432 28.672C159.432 26.7579 158.989 25.1422 158.099 23.836C157.066 22.3512 155.676 21.6136 153.929 21.6136C152.142 21.6136 150.753 22.3512 149.757 23.836C148.86 25.1422 148.417 26.7579 148.417 28.672C148.417 30.5756 148.849 32.2106 149.708 33.5561C150.733 35.0409 152.142 35.7796 153.929 35.7796C155.714 35.7796 157.105 35.0409 158.099 33.5561C158.989 32.2106 159.432 30.5756 159.432 28.672ZM188.098 17.8351C188.098 19.6194 187.258 20.8455 185.577 21.513C184.024 22.0523 182.477 22.6015 180.933 23.1679C179.242 24.1658 178.403 26.0197 178.403 28.7118V38.9486C178.403 40.1659 178.016 41.192 177.265 42.0495C176.501 42.8977 175.536 43.3265 174.368 43.3265C173.191 43.3265 172.224 42.8977 171.473 42.0495C170.708 41.192 170.332 40.1659 170.332 38.9486V18.385C170.332 17.1765 170.708 16.1515 171.462 15.3237C172.224 14.486 173.191 14.0683 174.359 14.0683C176.289 14.0683 177.63 14.9535 178.385 16.7195C180.113 14.5861 181.967 13.519 183.965 13.519C185.104 13.519 186.08 13.9468 186.89 14.7943C187.691 15.6519 188.098 16.6686 188.098 17.8351ZM209.155 18.2142C209.155 20.068 208.45 21.2345 207.052 21.734C206.364 21.9826 204.924 22.1119 202.733 22.1119V38.9486C202.733 40.1659 202.347 41.192 201.596 42.0495C200.832 42.8977 199.867 43.3265 198.699 43.3265C197.56 43.3265 196.593 42.8977 195.82 42.0495C195.049 41.192 194.663 40.1659 194.663 38.9486V22.1119C193.002 22.1119 191.795 21.8926 191.033 21.4649C189.991 20.8665 189.476 19.7796 189.476 18.2142C189.476 16.6498 190.008 15.5829 191.079 15.0138C191.804 14.5949 193.002 14.3766 194.663 14.3766V10.8076C194.663 6.61095 196.003 4.51777 198.699 4.51777C201.382 4.51777 202.733 6.61095 202.733 10.8076V14.3766C204.924 14.3766 206.364 14.5059 207.052 14.7546C208.45 15.253 209.155 16.4106 209.155 18.2142ZM274 13.1521C273.978 10.5933 269.399 9.43174 257.544 9.43174C229.729 9.43174 222.672 8.205 215.121 0C218.298 4.92665 220.036 14.1673 249.435 13.7074C280.109 13.2195 261.396 21.8738 255.952 31.6515C265.771 22.6027 273.97 16.6383 274 13.1892V13.1521ZM234.914 39.4282C234.913 41.8068 233.018 43.7636 230.714 43.7642C228.387 43.7642 226.505 41.8214 226.505 39.4282C226.505 39.4271 226.505 39.426 226.505 39.4248C226.505 37.0424 228.403 35.0818 230.712 35.0818C230.713 35.0818 230.713 35.0818 230.714 35.0818C233.033 35.0818 234.914 37.0252 234.914 39.4282ZM254.069 39.4282C254.068 41.8068 252.173 43.7636 249.869 43.7642C247.544 43.7642 245.661 41.8214 245.661 39.4282C245.661 39.4271 245.661 39.426 245.661 39.4248C245.661 37.0424 247.559 35.0818 249.866 35.0818C249.868 35.0818 249.868 35.0818 249.869 35.0818C252.188 35.0818 254.069 37.0252 254.069 39.4282Z" fill="url(#paint0_linear_746_37233)"/>
<defs>
<linearGradient id="paint0_linear_746_37233" x1="137" y1="43.5072" x2="137" y2="0.000114102" gradientUnits="userSpaceOnUse">
<stop stop-color="#04B6F0"/>
<stop offset="1" stop-color="#3ECAF0"/>
</linearGradient>
</defs>
</svg>
