<svg width="82" height="82" viewBox="0 0 82 82" fill="none" xmlns="http://www.w3.org/2000/svg">
<path d="M18.4614 73.8995C18.4453 73.8201 18.4453 73.701 18.4453 73.5421C18.4453 72.5295 18.7189 71.7353 19.266 71.1794C19.8132 70.6036 20.4086 70.3257 21.0685 70.3257C21.9375 70.3257 22.5491 70.7227 22.887 71.5368L18.4614 73.8995ZM24.8021 72.47C24.786 71.2787 24.432 70.3058 23.7078 69.5513C22.9836 68.7968 22.0823 68.4395 20.988 68.4395C20.296 68.4395 19.6362 68.6181 19.0246 68.9954C18.397 69.3726 17.882 69.9484 17.4636 70.7625C17.0452 71.5566 16.8359 72.47 16.8359 73.5223C16.8359 75.0312 17.2383 76.2622 18.0429 77.1755C18.8476 78.1087 19.8293 78.5654 20.9558 78.5654C22.2433 78.5654 23.3698 77.9697 24.3193 76.7586L23.3376 75.4085C22.7583 76.2622 22.018 76.699 21.1328 76.699C20.2316 76.699 19.5235 76.3019 19.0085 75.5077L24.8182 72.4898L24.8021 72.47Z" fill="#27245D"/>
<path d="M14.9091 69.0351C14.4424 69.4322 14.0723 69.9286 13.8148 70.5441V68.5586H12.125V78.4065H13.7987V74.1973C13.7987 73.0855 14.0079 72.1721 14.4263 71.5169C14.8448 70.8419 15.4724 70.5242 16.2932 70.5242H16.3897L16.3736 68.4395C15.8747 68.4395 15.3758 68.638 14.9091 69.0351Z" fill="#27245D"/>
<path d="M30.807 73.4035C30.5334 73.1851 30.292 73.0064 30.0506 72.8872C29.8092 72.7681 29.5678 72.649 29.3264 72.5497C29.069 72.4504 28.7954 72.3512 28.4574 72.2519C28.1355 72.1526 27.878 72.0533 27.701 71.9342C27.4435 71.7952 27.3148 71.557 27.3148 71.2393C27.3148 70.8819 27.4435 70.6039 27.6849 70.4253C27.9424 70.2466 28.2643 70.1473 28.6666 70.1473C29.423 70.1473 30.1311 70.4054 30.7748 70.9415L31.4025 69.4127C30.5817 68.7376 29.7127 68.4199 28.7954 68.4199C27.878 68.4199 27.1217 68.6979 26.5584 69.234C25.979 69.7899 25.6894 70.5047 25.6894 71.418C25.6894 72.7085 26.5262 73.6417 28.1838 74.1976C28.216 74.2175 28.2804 74.2374 28.3608 74.2771C29.423 74.6742 29.9541 75.111 29.9541 75.6073C29.9541 75.9449 29.8414 76.2228 29.6322 76.4214C29.4069 76.6398 29.1172 76.7391 28.731 76.7391C27.862 76.7391 26.9607 76.3023 26.0273 75.4485L25.2227 77.0567C25.7055 77.5332 26.2526 77.8906 26.8803 78.1487C27.5079 78.4068 28.1034 78.5458 28.6827 78.5458C29.5357 78.5458 30.2438 78.2679 30.7909 77.7119C31.3381 77.156 31.6117 76.4015 31.6117 75.4683C31.6278 74.5352 31.3542 73.8601 30.807 73.4035Z" fill="#27245D"/>
<path d="M8.59921 71.9531C8.24515 72.4098 7.56924 72.648 6.60364 72.648H4.5437V67.4659H6.34615C7.31174 67.4659 8.00375 67.6446 8.45437 68.0219C8.90498 68.3991 9.13028 69.0146 9.13028 69.9081C9.13028 70.8214 8.95326 71.4965 8.59921 71.9531ZM9.85448 66.6122C9.13028 65.8577 7.97157 65.4805 6.37833 65.4805H2.77344V78.4059H4.5437V74.6136H6.41052C7.95547 74.6136 9.0981 74.2563 9.83839 73.5216C10.5787 72.787 10.9488 71.6553 10.9488 70.0868C10.9488 68.5381 10.5787 67.3667 9.85448 66.6122Z" fill="#27245D"/>
<path d="M35.5546 76.7778C35.2006 76.7778 34.9109 76.6388 34.7178 76.3609C34.5246 76.0829 34.412 75.7057 34.412 75.249V70.2456H36.5041V68.5778H34.412V65.4805H32.7383V75.1696C32.7383 76.202 32.9958 77.0359 33.4947 77.6316C33.9936 78.2471 34.6051 78.5449 35.3293 78.5449C36.0374 78.5449 36.6972 78.2272 37.2927 77.572L36.6007 76.1027C36.2627 76.5594 35.9087 76.7778 35.5546 76.7778Z" fill="#27245D"/>
<path d="M43.232 75.8453C42.7653 76.4409 42.2181 76.7387 41.5583 76.7387C40.8985 76.7387 40.3191 76.4409 39.8363 75.8453C39.3535 75.2496 39.096 74.4951 39.096 73.5421C39.096 72.5891 39.3374 71.8148 39.8202 71.1794C40.303 70.5441 40.8663 70.2264 41.5422 70.2264C42.2181 70.2264 42.7814 70.5441 43.232 71.1794C43.6987 71.8148 43.924 72.5891 43.924 73.5223C43.924 74.4753 43.6987 75.2496 43.232 75.8453ZM43.8918 70.2859C43.2159 69.055 42.3469 68.4395 41.3008 68.4395C40.2548 68.4395 39.3374 68.8961 38.565 69.8094C37.7925 70.7227 37.4062 71.9339 37.4062 73.4627C37.4062 74.9915 37.7764 76.2225 38.5328 77.1557C39.2892 78.0888 40.1582 78.5654 41.1721 78.5654C41.671 78.5654 42.1699 78.4065 42.6688 78.1087C43.1676 77.8109 43.57 77.3741 43.8918 76.7983V78.4065H45.5655V68.5586H43.8918V70.2859Z" fill="#27245D"/>
<path d="M70.4637 75.8254C69.9809 76.4211 69.3855 76.7189 68.6613 76.7189C67.9371 76.7189 67.3255 76.4211 66.8588 75.8254C66.376 75.2298 66.1507 74.4554 66.1507 73.5024C66.1507 72.5494 66.3921 71.775 66.8588 71.1794C67.3255 70.5838 67.9371 70.2859 68.6613 70.2859C69.3855 70.2859 69.997 70.5838 70.4637 71.1794C70.9304 71.775 71.1718 72.5494 71.1718 73.5024C71.1718 74.4554 70.9465 75.2298 70.4637 75.8254ZM68.6613 68.4395C67.4543 68.4395 66.4565 68.9358 65.6679 69.9087C64.8633 70.8816 64.4609 72.0927 64.4609 73.5024C64.4609 74.9121 64.8633 76.1232 65.6679 77.0961C66.4726 78.069 67.4704 78.5654 68.6613 78.5654C69.8522 78.5654 70.8661 78.069 71.6546 77.0961C72.4593 76.1232 72.8616 74.9121 72.8616 73.5024C72.8616 72.0927 72.4593 70.8816 71.6546 69.9087C70.85 68.916 69.8522 68.4395 68.6613 68.4395Z" fill="#E2066F"/>
<path d="M79.5886 75.8254C79.1058 76.4211 78.5264 76.7189 77.8666 76.7189C77.2068 76.7189 76.6435 76.4211 76.1929 75.8254C75.7262 75.2298 75.5009 74.4554 75.5009 73.5223C75.5009 72.5891 75.7262 71.8148 76.1929 71.1794C76.6596 70.5639 77.2229 70.2462 77.8827 70.2462C78.5586 70.2462 79.1219 70.5639 79.6047 71.1794C80.0875 71.7949 80.3289 72.5891 80.3289 73.5223C80.3128 74.4753 80.0714 75.2298 79.5886 75.8254ZM80.86 69.8094C80.1036 68.8961 79.1863 68.4395 78.1241 68.4395C77.0619 68.4395 76.1929 69.0549 75.5331 70.3058V68.5784H73.8594V82.0002H75.5331V76.9373C76.3377 78.0293 77.239 78.5654 78.2367 78.5654C79.2345 78.5654 80.1197 78.0889 80.876 77.1358C81.6324 76.1828 82.0026 74.9518 82.0026 73.4428C82.0026 71.9339 81.6163 70.7029 80.86 69.8094Z" fill="#E2066F"/>
<path d="M60.5478 68.4394C59.9846 68.4394 59.4696 68.6181 58.9868 68.9556C58.504 69.2931 58.1338 69.7697 57.8925 70.3852V64.7266H56.2188V78.4263H57.8925V73.1053C57.8925 72.1919 58.1017 71.497 58.5362 71.0205C58.9707 70.544 59.4696 70.3057 60.049 70.3057C61.272 70.3057 61.8836 71.2191 61.8836 73.0258V78.4263H63.5573V72.3905C63.5573 71.0999 63.2837 70.127 62.7204 69.452C62.1733 68.7769 61.4491 68.4394 60.5478 68.4394Z" fill="#E2066F"/>
<path d="M54.2048 72.2122C53.6576 71.6364 52.8529 71.1797 51.7747 70.862C50.6964 70.5444 50.0044 70.2465 49.6665 69.9686C49.3446 69.6906 49.1676 69.2935 49.1676 68.7574C49.1676 68.2412 49.3285 67.8441 49.6665 67.586C49.9883 67.3279 50.4229 67.1889 50.9379 67.1889C51.4528 67.1889 51.9678 67.308 52.4989 67.5264C53.03 67.7449 53.4484 68.0228 53.7542 68.3802L54.7037 66.7323C54.2209 66.2359 53.6576 65.8587 52.9978 65.5807C52.338 65.3027 51.6781 65.1836 51.0022 65.1836C49.9562 65.1836 49.0871 65.5013 48.379 66.1565C47.6709 66.8117 47.3169 67.725 47.3169 68.9163C47.3169 70.1076 47.6226 71.001 48.2503 71.5768C48.556 71.8945 48.9101 72.1327 49.3124 72.3313C49.7148 72.5298 50.2941 72.7284 51.0666 72.9666C51.8391 73.185 52.3702 73.4432 52.692 73.7211C53.0139 73.9991 53.1587 74.3962 53.1587 74.8926C53.1587 75.3889 52.9978 75.786 52.6598 76.1037C52.3219 76.4015 51.8713 76.5603 51.308 76.5603C50.1654 76.5603 49.071 75.9846 48.0089 74.8528L46.8984 76.5008C48.1698 77.8906 49.6182 78.5855 51.2597 78.5855C52.3862 78.5855 53.2875 78.2281 53.9795 77.5332C54.6715 76.8383 55.0094 75.925 55.0094 74.7933C55.0094 73.6616 54.752 72.788 54.2048 72.2122Z" fill="#E2066F"/>
<path d="M33.8812 45.7651C34.2674 45.5467 34.6537 45.368 35.056 45.1695C35.5066 44.9709 35.9572 44.7724 36.4078 44.5937C36.9711 44.3753 37.5504 44.1966 38.1298 44.0378C38.9184 43.8392 39.7069 43.6804 40.4955 43.5811C40.0449 45.3085 39.5621 47.0358 39.0149 48.7433C39.031 49.0809 39.0471 49.3985 39.0632 49.7361C40.1415 49.478 41.2519 49.339 42.3945 49.339C43.5371 49.339 44.6476 49.478 45.7258 49.7361C45.7258 49.3985 45.7419 49.061 45.7741 48.7433C45.243 47.0358 44.7441 45.3085 44.2935 43.5811C45.0821 43.6804 45.8868 43.8194 46.6592 44.0378C47.2386 44.1966 47.8019 44.3753 48.3812 44.5937C48.8318 44.7724 49.2824 44.9511 49.7331 45.1695C50.1354 45.3482 50.5216 45.5467 50.9079 45.7651C53.6437 47.2741 56.1382 49.4978 58.182 52.3966C63.3158 46.9366 66.5666 38.8557 66.5666 29.8218C66.5666 13.3622 55.7519 0 42.3945 0C29.0532 0 18.2224 13.3424 18.2224 29.8218C18.2224 38.8358 21.4733 46.9167 26.607 52.3966C28.6509 49.4978 31.1453 47.2741 33.8812 45.7651Z" fill="#A0DBE8"/>
<path d="M35.4736 51.1659C36.6001 50.5504 37.8071 50.0739 39.0463 49.7761C39.0463 49.4385 39.0302 49.101 38.998 48.7833C39.5291 47.0758 40.028 45.3485 40.4786 43.6211C39.69 43.7204 38.8854 43.8594 38.1129 44.0778C37.5335 44.2366 36.9703 44.4153 36.3909 44.6337C35.9403 44.8124 35.4897 44.9911 35.0391 45.2095L36.7932 45.7456L35.4736 51.1659Z" fill="#525353"/>
<path d="M31.3252 54.363C31.3735 53.8071 31.3895 53.2512 31.3895 52.6754C31.3895 52.3379 31.6149 52.0599 31.8884 52.0599H32.323L33.8679 45.7461C31.1321 47.2551 28.6376 49.4788 26.5938 52.3776C27.7203 53.5887 28.9434 54.6609 30.2308 55.594C30.601 55.1771 30.955 54.7601 31.3252 54.363Z" fill="#525353"/>
<path d="M50.8906 45.7656L52.4356 52.0794H52.8701C53.1437 52.0794 53.369 52.3574 53.369 52.6949C53.369 53.2707 53.4012 53.8266 53.4334 54.3826C53.8035 54.7797 54.1737 55.1768 54.5116 55.6136C55.8152 54.6804 57.0222 53.6082 58.1487 52.3971C56.1209 49.4983 53.6265 47.2746 50.8906 45.7656Z" fill="#525353"/>
<path d="M47.9471 45.7065L49.7012 45.1704C49.2506 44.9719 48.8 44.7733 48.3494 44.5946C47.7861 44.3762 47.2068 44.1975 46.6274 44.0387C45.8389 43.8401 45.0503 43.6813 44.2617 43.582C44.7123 45.3094 45.1951 47.0368 45.7423 48.7443C45.7262 49.0818 45.7101 49.3995 45.694 49.737C46.9493 50.0348 48.1402 50.5113 49.2667 51.1268L47.9471 45.7065Z" fill="#525353"/>
<path d="M42.3805 52.0791H45.7923C45.7279 51.3048 45.6957 50.5305 45.7118 49.776C44.6336 49.5179 43.5231 49.3789 42.3805 49.3789C41.2379 49.3789 40.1275 49.5179 39.0492 49.776C39.0653 50.5503 39.0331 51.3048 38.9688 52.0791H42.3805Z" fill="black"/>
<path d="M30.2422 55.5923C30.5158 55.7909 30.8055 55.9894 31.0951 56.188C31.1917 55.5923 31.2722 54.9768 31.3204 54.3613C30.9503 54.7584 30.5962 55.1754 30.2422 55.5923Z" fill="black"/>
<path d="M35.25 52.0785H38.9836C39.048 51.3042 39.0802 50.5299 39.0641 49.7754C37.8088 50.0732 36.6179 50.5497 35.4914 51.1652L35.25 52.0785Z" fill="black"/>
<path d="M53.4531 54.3613C53.5014 54.9768 53.5819 55.5923 53.6784 56.188C53.9681 56.0093 54.2417 55.8107 54.5314 55.5923C54.1773 55.1754 53.8233 54.7584 53.4531 54.3613Z" fill="black"/>
<path d="M49.5248 52.0785L49.2995 51.1652C48.1729 50.5497 46.9659 50.0732 45.7268 49.7754C45.7107 50.5497 45.7429 51.3042 45.8072 52.0785H49.5248Z" fill="black"/>
<path d="M35.2488 52.0794L35.4741 51.166L36.8099 45.706L35.0557 45.1699C34.6534 45.3486 34.2671 45.5472 33.8809 45.7656L32.3359 52.0794H33.9935H35.2488Z" fill="#AA9678"/>
<path d="M49.2967 51.166L49.522 52.0794H50.7773H52.4349L50.8899 45.7656C50.5037 45.5472 50.1174 45.3685 49.7151 45.1699L47.9609 45.706L49.2967 51.166Z" fill="#AA9678"/>
<path d="M32.3828 53.3503C32.3989 53.3304 32.415 53.3304 32.4311 53.3105H32.3828C32.3828 53.3105 32.3828 53.3304 32.3828 53.3503Z" fill="#C0B098"/>
<path d="M42.3797 53.3105H38.8231H34.9446H32.4341C32.418 53.3304 32.4019 53.3304 32.3858 53.3503C32.3536 54.5217 32.2248 55.6534 32.0156 56.7653C35.1538 58.6118 38.6621 59.6442 42.3797 59.6442V53.3105Z" fill="#C0B098"/>
<path d="M52.3881 53.3105H52.3398C52.3559 53.3304 52.372 53.3304 52.3881 53.3503C52.3881 53.3304 52.3881 53.3105 52.3881 53.3105Z" fill="#AA9678"/>
<path d="M52.3406 53.3105H49.8301H45.9355H42.3789V59.6442C46.0804 59.6442 49.6048 58.6118 52.743 56.7653C52.5338 55.6534 52.405 54.5018 52.3728 53.3503C52.3728 53.3304 52.3567 53.3105 52.3406 53.3105Z" fill="#AA9678"/>
<path d="M53.4478 54.3617C53.3995 53.8058 53.3834 53.2499 53.3834 52.6741C53.3834 52.3366 53.1581 52.0586 52.8845 52.0586H52.45H50.7602H49.5049H45.7713H42.3595H38.9477H35.2141H33.9588H32.3012H31.8667C31.5931 52.0586 31.3678 52.3366 31.3678 52.6741C31.3678 53.2499 31.3356 53.8058 31.3034 54.3617C31.2552 54.9772 31.1747 55.5927 31.0781 56.1884C31.3839 56.3869 31.6897 56.5855 31.9954 56.7642C32.2047 55.6523 32.3334 54.5007 32.3656 53.3492C32.3656 53.3293 32.3656 53.3293 32.3656 53.3094H32.4139H34.9244H38.8029H42.3595H45.9322H49.8107H52.3213H52.3695C52.3695 53.3293 52.3695 53.3293 52.3695 53.3492C52.4017 54.5206 52.5305 55.6523 52.7397 56.7642C53.0455 56.5855 53.3512 56.3869 53.657 56.1884C53.5604 55.5927 53.4961 54.9772 53.4478 54.3617Z" fill="#8B7460"/>
<path d="M49.2995 47.8082C49.2191 47.709 49.1547 47.5898 49.0742 47.4707C49.1547 47.6097 49.2352 47.709 49.2995 47.8082Z" fill="#525353"/>
<path d="M58.4731 23.189C58.2639 22.8316 58.0547 22.5139 57.8455 22.2359C57.7489 22.0969 57.6523 21.9778 57.5558 21.8587C57.5236 21.819 57.4753 21.7793 57.4431 21.7396C57.3787 21.6601 57.3144 21.6006 57.25 21.541V24.3207L58.1029 29.1851C58.119 29.2248 58.119 29.2645 58.1351 29.3042L58.7306 30.1381H59.3582C59.3582 30.0587 59.3582 29.9991 59.3582 29.9197C59.3582 27.6166 59.0525 25.4127 58.5053 23.3478C58.4892 23.2684 58.4892 23.2287 58.4731 23.189Z" fill="#BBBCBD"/>
<path d="M58.1967 29.6412V29.6611C58.1967 29.6611 58.1967 29.6611 58.1967 29.6809C58.2128 29.8001 58.2128 29.9192 58.2128 30.0383C58.2128 30.0582 58.2128 30.078 58.2128 30.0979C58.2128 30.1177 58.2128 30.1376 58.2128 30.1575C58.2128 30.2766 58.2128 30.3957 58.1967 30.495V30.5148V30.5347C58.1806 30.6538 58.1645 30.773 58.1484 30.8921L58.7439 30.078L58.1484 29.2441C58.1645 29.3831 58.1806 29.5023 58.1967 29.6412Z" fill="#676A6A"/>
<path d="M58.1803 30.5743C58.1803 30.5544 58.1803 30.5544 58.1803 30.5346C58.1964 30.4154 58.1964 30.2963 58.1964 30.197C58.1964 30.1772 58.1964 30.1375 58.1964 30.1176C58.1964 30.0978 58.1964 30.0779 58.1964 30.0382C58.1964 29.9191 58.1964 29.7999 58.1803 29.6808C58.1803 29.661 58.1803 29.661 58.1803 29.6411C58.1642 29.522 58.1481 29.4029 58.132 29.2837C58.1159 29.244 58.1159 29.2043 58.0998 29.1646C58.0354 28.9263 57.971 28.7278 57.8745 28.5491C57.8584 28.5292 57.8423 28.5094 57.8423 28.4895C57.8101 28.4498 57.794 28.4101 57.7618 28.3704C57.7296 28.3108 57.6814 28.2711 57.6331 28.2314C57.617 28.2116 57.6009 28.2116 57.5848 28.1917C57.5526 28.152 57.5043 28.1322 57.4722 28.1123C57.4561 28.1123 57.44 28.0924 57.4239 28.0924C57.3756 28.0726 57.3112 28.0527 57.2468 28.0527C57.1825 28.0527 57.1342 28.0726 57.0698 28.0924C57.0537 28.0924 57.0376 28.1123 57.0215 28.1123C56.9894 28.1322 56.9411 28.152 56.9089 28.1917C56.8928 28.2116 56.8767 28.2116 56.8606 28.2314C56.8123 28.2711 56.7801 28.3307 56.7319 28.3704C56.6997 28.4101 56.6836 28.4498 56.6514 28.4895C56.6353 28.5094 56.6192 28.5292 56.6192 28.5491C56.5227 28.7278 56.4422 28.9263 56.3939 29.1646V29.1845C56.3617 29.2837 56.3456 29.4029 56.3295 29.522C56.3295 29.5617 56.3134 29.5815 56.3134 29.6213C56.2973 29.7602 56.2973 29.8794 56.2812 30.0184C56.2812 30.0382 56.2812 30.0581 56.2812 30.0779C56.2812 31.2096 56.7158 32.1428 57.2468 32.1428C57.3434 32.1428 57.4239 32.1031 57.5204 32.0634C57.5365 32.0634 57.5526 32.0435 57.5687 32.0435C57.6009 32.0237 57.6331 31.984 57.6653 31.9641C57.6814 31.9443 57.6975 31.9244 57.7136 31.9045C57.7618 31.8648 57.794 31.8053 57.8423 31.7457C57.8745 31.706 57.8906 31.6663 57.9228 31.6067C57.9389 31.567 57.955 31.5472 57.971 31.5075C58.0032 31.4479 58.0193 31.3883 58.0515 31.3089C58.0676 31.2891 58.0676 31.2692 58.0837 31.2295C58.1159 31.1302 58.132 31.0309 58.1642 30.9317C58.1642 30.8125 58.1803 30.6934 58.1803 30.5743ZM57.279 29.8198C57.0698 29.8198 56.9089 29.4823 56.9089 29.0455C56.9089 28.6285 57.0698 28.2711 57.279 28.2711C57.4882 28.2711 57.6492 28.6087 57.6492 29.0455C57.6492 29.4823 57.4722 29.8198 57.279 29.8198Z" fill="black"/>
<path d="M57.2803 29.8202C57.4847 29.8202 57.6504 29.4735 57.6504 29.0458C57.6504 28.6182 57.4847 28.2715 57.2803 28.2715C57.0759 28.2715 56.9102 28.6182 56.9102 29.0458C56.9102 29.4735 57.0759 29.8202 57.2803 29.8202Z" fill="white"/>
<path d="M56.3789 29.1652C56.4433 28.9269 56.5077 28.7284 56.6042 28.5497C56.6203 28.5298 56.6364 28.51 56.6364 28.4901C56.6686 28.4504 56.6847 28.4107 56.7169 28.371C56.7491 28.3114 56.7973 28.2717 56.8456 28.232C56.8617 28.2122 56.8778 28.2122 56.8939 28.1923C56.9261 28.1526 56.9744 28.1327 57.0065 28.1129C57.0226 28.1129 57.0387 28.093 57.0548 28.093C57.1031 28.0732 57.1675 28.0533 57.2319 28.0533C57.2962 28.0533 57.3445 28.0732 57.4089 28.093C57.425 28.093 57.4411 28.1129 57.4572 28.1129C57.4893 28.1327 57.5376 28.1526 57.5698 28.1923C57.5859 28.2122 57.602 28.2122 57.6181 28.232C57.6664 28.2717 57.6986 28.3313 57.7468 28.371C57.779 28.4107 57.7951 28.4504 57.8273 28.4901C57.8434 28.51 57.8595 28.5298 57.8595 28.5497C57.956 28.7284 58.0365 28.9269 58.0848 29.1652L57.2319 24.3008L56.3789 29.1652Z" fill="#909393"/>
<path d="M45.8361 30.0586C45.8361 29.9594 45.8361 29.8601 45.82 29.7608C45.8039 29.6615 45.8039 29.5821 45.7878 29.4828C45.7717 29.3836 45.7557 29.3042 45.7235 29.2247C45.7074 29.1453 45.6752 29.046 45.643 28.9666C45.6108 28.8872 45.5786 28.8078 45.5464 28.7284C45.4338 28.4901 45.305 28.2717 45.1441 28.093C44.9349 27.8548 44.6935 27.6562 44.436 27.5172C44.3073 27.4577 44.1624 27.3981 44.0337 27.3584C44.0337 27.3584 44.0337 27.3584 44.0176 27.3584C43.8727 27.3187 43.7279 27.2988 43.5831 27.2988C43.4382 27.2988 43.2934 27.3187 43.1485 27.3584H43.1324C42.9876 27.3981 42.8589 27.4378 42.7301 27.4974C42.7301 27.4974 42.7301 27.4974 42.714 27.4974C42.5853 27.5569 42.4565 27.6364 42.3439 27.7356C42.2312 27.8349 42.1186 27.9342 42.022 28.0533H42.0059C41.845 28.2519 41.7001 28.4703 41.5875 28.7085C41.5553 28.7879 41.5231 28.8674 41.4909 28.9468C41.4909 28.9468 41.4909 28.9666 41.4748 28.9666C41.4427 29.046 41.4266 29.1056 41.4105 29.185C41.4105 29.2049 41.3944 29.2049 41.3944 29.2247C41.3783 29.3042 41.3622 29.3637 41.3461 29.4431C41.3461 29.463 41.33 29.4828 41.33 29.5027C41.3139 29.5821 41.3139 29.6417 41.2978 29.7211C41.2978 29.741 41.2978 29.7608 41.2817 29.7807C41.2817 29.8799 41.2656 29.9792 41.2656 30.0785C41.2656 30.2572 41.2817 30.4359 41.3139 30.6146C41.3139 30.6146 41.3139 30.6146 41.3139 30.6344C41.3461 30.8131 41.3783 30.972 41.4427 31.1506C41.5553 31.4683 41.7162 31.7661 41.9094 32.0243C42.0703 32.2228 42.2473 32.4015 42.4404 32.5405C42.5048 32.5802 42.5692 32.6199 42.6336 32.6596H42.6496C42.714 32.6993 42.7784 32.7192 42.8267 32.739C42.8428 32.739 42.8428 32.739 42.8589 32.7589C42.9232 32.7787 42.9715 32.7986 43.0359 32.8184C43.052 32.8184 43.0681 32.8383 43.0842 32.8383C43.1485 32.8582 43.1968 32.8582 43.2612 32.878C43.2773 32.878 43.2934 32.878 43.3095 32.8979C43.3899 32.8979 43.4704 32.9177 43.5509 32.9177C43.8727 32.9177 44.1624 32.8383 44.436 32.6993C44.5647 32.6199 44.6935 32.5405 44.8222 32.4412C45.0636 32.2427 45.2729 31.9845 45.4338 31.6867C45.5143 31.5279 45.5786 31.369 45.643 31.2102C45.7557 30.8727 45.82 30.4954 45.82 30.1182V30.0983C45.8361 30.0586 45.8361 30.0586 45.8361 30.0586ZM43.567 29.7211C43.1003 29.7211 42.714 29.2446 42.714 28.6688C42.714 28.093 43.1003 27.6165 43.567 27.6165C44.0337 27.6165 44.4199 28.093 44.4199 28.6688C44.4199 29.2446 44.0337 29.7211 43.567 29.7211Z" fill="black"/>
<path d="M43.5717 29.7218C44.0428 29.7218 44.4246 29.2507 44.4246 28.6695C44.4246 28.0883 44.0428 27.6172 43.5717 27.6172C43.1006 27.6172 42.7188 28.0883 42.7188 28.6695C42.7188 29.2507 43.1006 29.7218 43.5717 29.7218Z" fill="white"/>
<path d="M41.9932 28.0545L43.5703 22.118C43.5703 22.118 43.5703 21.7606 43.5703 21.4231C43.5703 21.3238 43.5703 21.2245 43.5703 21.1451C43.5703 21.1054 43.5703 21.0855 43.5703 21.0657C43.5703 21.026 43.5703 20.9863 43.5703 20.9466C43.5703 20.9267 43.5703 20.887 43.5703 20.8671C43.5703 20.8473 43.5703 20.8076 43.5703 20.7877C43.5703 20.7679 43.5703 20.748 43.5703 20.748C43.5703 20.7282 43.5703 20.7282 43.5703 20.7282C42.7013 20.5098 41.8001 20.3906 40.8828 20.3906C40.577 20.3906 40.2712 20.4105 39.9654 20.4303C39.9172 20.4303 39.885 20.4303 39.8367 20.4502C38.2596 20.5892 36.7146 21.1054 35.2823 21.9194C34.0592 22.6144 32.9005 23.5277 31.8866 24.5998C31.613 24.8976 31.3394 25.1955 31.0819 25.5131C31.0337 25.5727 30.9854 25.6323 30.9371 25.6918C30.6957 25.9897 30.4543 26.3073 30.229 26.625C30.1807 26.7044 30.1324 26.764 30.0842 26.8434C29.8589 27.1809 29.6336 27.5185 29.4243 27.856C29.4082 27.8759 29.3922 27.9156 29.3761 27.9354C29.1829 28.2729 28.9898 28.6105 28.7967 28.9679C28.7645 29.0274 28.7162 29.1068 28.6841 29.1664C28.5392 29.4642 28.3944 29.7621 28.2656 30.0599H35.3949H35.411L41.9932 28.0545Z" fill="#BBBCBD"/>
<path d="M48.0272 27.3981C48.0433 27.1598 48.0594 26.9414 48.0594 26.7032C48.0755 26.3855 48.0755 26.0877 48.0916 25.77C48.0916 25.5317 48.0916 25.2935 48.0916 25.0354C48.0916 24.9559 48.0916 24.8964 48.0916 24.817C48.0916 24.1816 48.0594 23.5661 48.0433 22.9308C48.0433 22.9308 48.0272 22.9308 48.0272 22.9109C48.0272 22.9109 48.0111 22.9109 48.0111 22.8911C47.9146 22.8315 47.6893 22.6726 47.48 22.5138H47.4639C47.4157 22.4741 47.3674 22.4344 47.3191 22.4145C47.2869 22.3947 47.2547 22.355 47.2226 22.3351L47.2065 22.3153C47.1743 22.2954 47.1421 22.2756 47.126 22.2557C46.8041 22.0373 46.4662 21.8586 46.1282 21.6799C45.3235 21.263 44.2292 20.8857 43.6016 20.707V21.2431V21.3622V21.4019C43.6016 21.7593 43.6016 22.0969 43.6016 22.0969L45.1626 28.0136C45.3235 28.1923 45.4684 28.4107 45.5649 28.6489C45.5971 28.7283 45.6293 28.8078 45.6615 28.8872C45.6937 28.9666 45.7259 29.046 45.742 29.1453C45.7581 29.2247 45.7903 29.324 45.8063 29.4034C45.8224 29.5027 45.8385 29.5821 45.8385 29.6814C45.8546 29.7806 45.8546 29.8799 45.8546 29.9792V29.999H47.7536C47.8824 29.1453 47.9789 28.2717 48.0272 27.3981C48.0272 27.4378 48.0272 27.4179 48.0272 27.3981Z" fill="#E2DDDB"/>
<path d="M45.8545 38.5173C46.289 37.9812 46.6913 37.4848 47.0776 36.9885C47.3029 36.6906 47.5282 36.3928 47.7535 36.1149C49.3467 33.9904 50.5055 31.9851 51.2136 29.4238C51.2296 29.3642 51.2457 29.2848 51.2618 29.1856C51.2618 29.1657 51.2618 29.1657 51.2618 29.1458C51.2779 29.0466 51.294 28.9473 51.3101 28.8282C51.3101 28.7487 51.3262 28.6693 51.3262 28.5899C51.1492 27.478 50.8112 26.386 50.5055 25.3139C50.5055 25.3139 50.5055 25.3139 50.5055 25.3337C50.5055 25.3337 50.5055 25.3337 50.4894 25.3139C50.425 25.2543 50.3767 25.1749 50.3123 25.1153C50.1353 24.9168 49.9583 24.7182 49.7652 24.5197C49.2019 23.9439 48.6225 23.4078 48.011 22.9512C48.0432 23.5865 48.0593 24.202 48.0593 24.8374C48.0593 24.9168 48.0593 24.9764 48.0593 25.0558C48.0593 25.294 48.0593 25.5323 48.0593 25.7904C48.0593 26.1081 48.0432 26.4257 48.0271 26.7236C48.011 26.9618 48.011 27.1802 47.9949 27.4185C47.9949 27.4383 47.9949 27.4582 47.9949 27.4979C47.9305 28.3715 47.8501 29.2451 47.7213 30.0989L47.496 31.4093C47.0293 33.7521 46.0798 35.8567 45.3073 38.0408C45.0981 38.6165 44.905 39.2122 44.728 39.8078C44.7119 39.8674 44.6958 39.927 44.6797 39.9865C44.9211 39.6688 45.1464 39.3909 45.3073 39.1923C45.5165 38.9342 45.6775 38.7158 45.8545 38.5173Z" fill="#FBB040"/>
<path d="M42.0078 28.0528C42.1044 27.9337 42.217 27.8344 42.3297 27.7351C42.4423 27.6358 42.5711 27.5564 42.6998 27.4968C42.6998 27.4968 42.6998 27.4968 42.7159 27.4968C42.8447 27.4373 42.9734 27.3777 43.1182 27.3579H43.1343C43.2792 27.3182 43.424 27.2983 43.5689 27.2983C43.7137 27.2983 43.8585 27.3182 44.0034 27.3579C44.0034 27.3579 44.0034 27.3579 44.0195 27.3579C44.1643 27.3976 44.2931 27.4373 44.4218 27.5167C44.6793 27.6557 44.9207 27.8344 45.1299 28.0925L43.5689 22.1758L42.0078 28.0528Z" fill="#909393"/>
<path d="M41.4612 31.1501C41.4129 30.9912 41.3647 30.8125 41.3325 30.6338C41.3325 30.6338 41.3325 30.6338 41.3325 30.614C41.3003 30.4353 41.2842 30.2566 41.2842 30.0779C41.2842 29.9786 41.2842 29.8794 41.3003 29.7801C41.3003 29.7602 41.3003 29.7404 41.3164 29.7205C41.3164 29.6411 41.3325 29.5815 41.3486 29.5021C41.3486 29.4823 41.3647 29.4624 41.3647 29.4426C41.3808 29.3631 41.3969 29.3036 41.4129 29.2242C41.4129 29.2043 41.429 29.2043 41.429 29.1845C41.4451 29.105 41.4773 29.0256 41.4934 28.9661C41.4934 28.9661 41.4934 28.9462 41.5095 28.9462C41.5417 28.8668 41.5739 28.7874 41.6061 28.7079C41.7187 28.4697 41.8636 28.2513 42.0245 28.0527L35.4262 30.0581H35.4102L41.944 32.0237C41.7348 31.7854 41.5739 31.4876 41.4612 31.1501Z" fill="#676A6A"/>
<path d="M56.3014 29.6231C56.3014 29.5834 56.3175 29.5436 56.3175 29.5238C56.3336 29.4047 56.3497 29.2855 56.3819 29.1863C56.3819 29.1664 56.3819 29.1664 56.3819 29.1466L57.2348 24.2821V21.5025C56.5267 20.7877 55.7864 20.3906 54.9978 20.3906C54.0001 20.3906 53.0827 21.0657 52.3907 21.8996C51.6343 22.8129 51.055 23.9645 50.5722 25.116C50.5561 25.1756 50.5239 25.2153 50.5078 25.2749C50.6527 25.4337 50.7975 25.5926 50.9423 25.7514C51.2642 26.1088 51.5861 26.486 51.8918 26.8633C52.0367 27.042 52.1815 27.2206 52.3264 27.3993C52.4712 27.5979 52.6321 27.7766 52.777 27.9751C52.9701 28.2332 53.1632 28.4715 53.3402 28.7296C53.4207 28.8289 53.5012 28.948 53.5816 29.0473C53.8069 29.365 54.0322 29.6628 54.2575 29.9805C54.2897 30.0202 54.3219 30.0599 54.338 30.0797H56.2853C56.2853 30.0599 56.2853 30.04 56.2853 30.0202C56.2853 29.901 56.2853 29.7621 56.3014 29.6231Z" fill="#E2DDDB"/>
<path d="M27.0903 33.1362C27.0903 33.1163 27.1064 33.0965 27.1064 33.0766C27.2351 32.6795 27.3639 32.2824 27.5087 31.8853C27.5409 31.7662 27.5892 31.6669 27.6374 31.5676C27.7501 31.25 27.8788 30.9522 28.0076 30.6543C28.0559 30.5352 28.1041 30.4161 28.1685 30.2771C28.2007 30.2175 28.2329 30.1381 28.2651 30.0785C28.4099 29.7807 28.5387 29.4829 28.6835 29.1851C28.7157 29.1255 28.764 29.0461 28.7962 28.9865C28.9732 28.6292 29.1663 28.2916 29.3755 27.9541C29.3916 27.9342 29.4077 27.8945 29.4238 27.8747C29.633 27.5173 29.8583 27.1798 30.0836 26.8621C30.1319 26.7827 30.1802 26.7231 30.2285 26.6437C30.4538 26.326 30.6952 26.0083 30.9366 25.7105C30.9848 25.6509 31.0331 25.5914 31.0814 25.5318C31.3389 25.2141 31.5964 24.9163 31.8861 24.6185C32.9643 20.1313 36.2956 16.8553 40.2224 16.8553C41.7995 16.8553 43.3767 17.4112 44.7285 18.4437C46.1125 19.496 47.2391 21.0248 47.9633 22.7919C47.9633 22.7919 47.9633 22.8117 47.9793 22.8117C47.9954 22.8514 48.0115 22.8911 48.0437 22.9507C48.6553 23.4074 49.2346 23.9434 49.7979 24.5192C49.991 24.7178 50.168 24.9163 50.3451 25.1149C50.4094 25.1744 50.4577 25.2538 50.5221 25.3134C50.5382 25.2538 50.5543 25.2141 50.5865 25.1546C51.1336 20.8461 52.6786 17.7289 54.4971 17.7289C55.8651 17.7289 57.0881 19.496 57.8284 22.2161V22.2359C58.0376 22.5139 58.2469 22.8316 58.4561 23.1691C58.4561 23.1691 58.4561 23.189 58.4722 23.189C58.4883 23.2287 58.4883 23.2684 58.5043 23.3081L58.4722 23.1691C56.203 14.9095 49.8784 8.95312 42.4111 8.95312C33.0448 8.95312 25.4648 18.3047 25.4648 29.8601C25.4648 32.1434 25.7545 34.3275 26.3017 36.3725C26.3017 36.3725 26.3017 36.3725 26.3017 36.3526C26.4143 35.7371 26.5431 35.1216 26.6879 34.526C26.8167 34.0495 26.9454 33.5928 27.0903 33.1362Z" fill="#525353"/>
<path d="M58.7303 30.0986L58.1349 30.9127C58.1188 31.0119 58.0866 31.1112 58.0544 31.2105C58.0544 31.2303 58.0383 31.2502 58.0222 31.2899C58.0061 31.3495 57.974 31.4289 57.9418 31.4885C57.9257 31.5282 57.9096 31.548 57.8935 31.5877C57.8613 31.6274 57.8452 31.687 57.813 31.7267C57.7808 31.7863 57.7326 31.8458 57.6843 31.8856C57.6682 31.9054 57.6521 31.9253 57.636 31.9451C57.6038 31.9848 57.5716 32.0047 57.5394 32.0245C57.5233 32.0245 57.5072 32.0444 57.4912 32.0444C57.4107 32.104 57.3141 32.1238 57.2176 32.1238C56.6865 32.1238 56.252 31.2105 56.252 30.0589H54.3047C54.6748 30.5751 55.0289 31.0914 55.3668 31.6274L55.3829 31.6473C55.7209 32.1635 56.0589 32.6797 56.3968 33.196C56.4129 33.2158 56.429 33.2555 56.4451 33.2754C56.767 33.7718 57.0727 34.2681 57.3785 34.7645C57.4107 34.8042 57.4429 34.8638 57.4751 34.9035C57.7969 35.4395 58.1188 35.9756 58.4407 36.4918C58.4407 36.4918 58.4407 36.4918 58.4407 36.5117C59.0039 34.4667 59.3097 32.3025 59.3258 30.0391L58.7303 30.0986Z" fill="white"/>
<path d="M39.8338 20.4296C39.8821 20.4296 39.9143 20.4296 39.9626 20.4098C40.2683 20.3899 40.5741 20.3701 40.8799 20.3701C41.7972 20.3701 42.6984 20.4892 43.5675 20.7076C43.5675 20.7076 43.5675 20.7076 43.5675 20.7275C43.5675 20.7275 43.5675 20.7473 43.5675 20.7672C43.5675 20.787 43.5675 20.8069 43.5675 20.8466C43.5675 20.8664 43.5675 20.8863 43.5675 20.926C43.5675 20.9657 43.5675 21.0054 43.5675 21.0451C43.5675 21.065 43.5675 21.1047 43.5675 21.1246C43.5675 21.1643 43.5675 21.204 43.5675 21.2437V20.7076C44.179 20.8863 45.2734 21.2635 46.0941 21.6805C46.4321 21.8592 46.77 22.0577 47.0919 22.2563C47.108 22.2563 47.1402 22.2761 47.1724 22.3158C47.1724 22.3158 47.1885 22.3158 47.1885 22.3357C47.2206 22.3555 47.2528 22.3754 47.285 22.4151C47.3333 22.4548 47.3816 22.4747 47.4299 22.5144H47.446C47.6552 22.6534 47.8805 22.8321 47.977 22.8916C47.9931 22.8916 47.9931 22.9115 47.9931 22.9115L48.0092 22.9313C47.9931 22.8916 47.977 22.8519 47.9448 22.7924C47.9448 22.7924 47.9448 22.7725 47.9288 22.7725C47.2046 20.9856 46.0619 19.4568 44.694 18.4243C43.3422 17.4117 41.765 16.8359 40.1879 16.8359C36.2611 16.8359 32.9298 20.112 31.8516 24.5991C32.8815 23.5071 34.0242 22.5938 35.2472 21.9187C36.7117 21.0848 38.2728 20.5885 39.8338 20.4296Z" fill="black"/>
<path d="M52.404 21.9182C53.096 21.0843 54.0133 20.4092 55.0111 20.4092C55.7997 20.4092 56.5561 20.8063 57.2481 21.5211C57.3125 21.5807 57.3768 21.6601 57.4412 21.7196C57.4734 21.7593 57.5217 21.7991 57.5539 21.8388C57.6504 21.9579 57.747 22.077 57.8435 22.216V22.1962C57.0872 19.4761 55.8802 17.709 54.5122 17.709C52.6937 17.709 51.1487 20.8063 50.6016 25.1347C51.0522 23.9831 51.6476 22.8315 52.404 21.9182Z" fill="black"/>
<path d="M36.3425 49.3779C36.5035 49.4573 36.6483 49.5169 36.8092 49.5764C38.5634 50.3309 40.4463 50.7479 42.4097 50.7479C44.6467 50.7479 46.7871 50.2118 48.7343 49.2389C48.8309 49.1793 48.9436 49.1396 49.0401 49.0801C49.201 49.0006 49.3781 48.9014 49.539 48.8021C49.6838 48.7227 49.8287 48.6433 49.9735 48.544C49.9413 48.544 49.9092 48.5638 49.877 48.5638C49.2654 48.6433 48.67 48.6631 48.0745 48.544C44.5823 47.9285 43.8098 45.8437 43.9225 43.6994C43.665 43.5207 43.4236 43.3222 43.15 43.0839C40.4624 40.6815 38.8692 38.1203 38.8692 38.1203C38.8692 38.1203 40.9452 40.0859 44.0351 41.575C44.0995 41.6147 44.1639 41.6345 44.2282 41.6743C44.3731 41.0588 44.5501 40.4631 44.6949 39.9469C44.711 39.8873 44.7271 39.8278 44.7432 39.7682C44.9202 39.1726 45.1134 38.5769 45.3226 38.0011C46.095 35.8171 47.0445 33.6927 47.5113 31.3697L47.7366 30.0592H45.8376V30.0791C45.8376 30.4762 45.7732 30.8336 45.6605 31.1711C45.5962 31.3299 45.5318 31.5086 45.4513 31.6476C45.2904 31.9454 45.0812 32.2036 44.8398 32.4021C44.711 32.5014 44.5823 32.5808 44.4535 32.6602C44.1799 32.7992 43.8742 32.8786 43.5684 32.8786C43.4879 32.8786 43.4075 32.8786 43.327 32.8588C43.3109 32.8588 43.2948 32.8588 43.2787 32.8389C43.2143 32.8389 43.1661 32.819 43.1017 32.7992C43.0856 32.7992 43.0695 32.7793 43.0534 32.7793C42.989 32.7595 42.9408 32.7396 42.8764 32.7198C42.8603 32.7198 42.8603 32.7198 42.8442 32.6999C42.7798 32.6801 42.7155 32.6404 42.6672 32.6205H42.6511C42.5867 32.5808 42.5223 32.5411 42.458 32.5014C42.2648 32.3624 42.0878 32.2036 41.9269 31.9852L35.393 30.0195H28.2637C28.2315 30.0791 28.1993 30.1585 28.1671 30.2181C28.1189 30.3372 28.0545 30.4563 28.0062 30.5953C27.8775 30.8931 27.7487 31.2108 27.6361 31.5086C27.5878 31.6079 27.5556 31.727 27.5073 31.8263C27.3625 32.2234 27.2337 32.6205 27.105 33.0176C27.105 33.0374 27.0889 33.0573 27.0889 33.0772C26.944 33.5338 26.8153 34.0103 26.7026 34.4868C26.5578 35.0825 26.4291 35.698 26.3164 36.3135C27.4429 40.5425 29.6155 44.1759 32.4801 46.7174C32.5606 46.7968 32.6572 46.8563 32.7376 46.9358C33.2204 47.3527 33.7193 47.7498 34.2343 48.0873C34.9102 48.6035 35.6183 49.0205 36.3425 49.3779Z" fill="white"/>
<path d="M48.0447 42.866C48.0125 43.0844 47.9964 43.3028 47.9964 43.5212C47.9803 43.8984 48.0125 44.2757 48.0608 44.6132C48.0929 44.8515 48.1251 45.0699 48.1734 45.2883C48.2539 45.6059 48.3343 45.9038 48.447 46.1817C48.5596 46.4597 48.6723 46.7178 48.7849 46.9362C48.8171 47.0156 48.8654 47.095 48.8976 47.1546C48.962 47.2539 49.0103 47.3531 49.0746 47.4524C49.1551 47.5716 49.2356 47.6907 49.2999 47.79C49.6057 48.2268 49.8632 48.465 49.8632 48.465C49.8632 48.465 49.8632 48.465 49.8632 48.4849C49.8632 48.5047 49.8632 48.5246 49.8793 48.5444C49.9115 48.5444 49.9437 48.5246 49.9758 48.5246C50.7322 48.4055 51.4886 48.1473 52.245 47.8297C52.6312 47.651 53.0175 47.4723 53.3876 47.2737C53.5003 47.2142 53.6129 47.1347 53.7256 47.0752C57.6041 44.7522 60.8549 40.6621 60.8549 40.6621C55.9947 43.6205 51.215 43.5013 48.0447 42.866Z" fill="#9F2255"/>
<path d="M57.4088 34.8034C57.103 34.307 56.7811 33.8106 56.4754 33.3143C56.4593 33.2944 56.4432 33.2547 56.4271 33.2349C56.0891 32.7186 55.7512 32.2024 55.4132 31.6862L55.3971 31.6663C55.0431 31.1303 54.689 30.614 54.335 30.0978C54.3189 30.0581 54.2867 30.0382 54.2706 29.9985C54.0453 29.6809 53.82 29.383 53.5947 29.0654C53.5142 28.9661 53.4337 28.847 53.3533 28.7477C53.1602 28.4896 52.9831 28.2513 52.79 27.9932C52.6452 27.7947 52.4842 27.616 52.3394 27.4174C52.1946 27.2387 52.0497 27.06 51.9049 26.8813C51.5991 26.5041 51.2772 26.1269 50.9554 25.7695C50.8105 25.6106 50.6657 25.4518 50.5209 25.293C50.8266 26.385 51.1807 27.477 51.3577 28.6087C51.406 28.9065 51.4382 29.1845 51.4704 29.4625C51.9049 33.3738 50.8749 35.9351 49.2656 39.3104C49.1529 39.5487 49.0242 39.8068 48.9115 40.045C48.5414 40.7995 48.3 41.5341 48.1712 42.2092C48.123 42.4276 48.0908 42.646 48.0586 42.8644C51.229 43.4997 55.9926 43.6189 60.8688 40.6605C60.8688 40.6605 59.9193 38.9332 58.4709 36.5506C58.1491 36.0145 57.8272 35.4784 57.5053 34.9622C57.4732 34.9027 57.441 34.8431 57.4088 34.8034Z" fill="#E2066F"/>
<path d="M49.8589 48.5032C49.8589 48.5032 49.6175 48.2649 49.2956 47.8281C49.2152 47.7288 49.1508 47.6097 49.0703 47.4906C49.006 47.3913 48.9577 47.292 48.8933 47.1927C48.8611 47.1133 48.8128 47.0538 48.7806 46.9743C48.668 46.7361 48.5553 46.4978 48.4427 46.2199C48.3461 45.9419 48.2496 45.6441 48.1691 45.3264C48.1208 45.108 48.0725 44.8896 48.0565 44.6513C48.0082 44.3138 47.9921 43.9366 47.9921 43.5593C47.9921 43.3409 48.0082 43.1225 48.0404 42.9041C48.0725 42.6857 48.1047 42.4673 48.153 42.2489C48.2978 41.5739 48.5232 40.8591 48.8933 40.0848C49.006 39.8266 49.1347 39.5884 49.2474 39.3501C50.8567 35.9748 51.8866 33.4334 51.4521 29.5022C51.4199 29.2242 51.3878 28.9264 51.3395 28.6484C51.3234 28.847 51.2912 29.0257 51.259 29.1647C51.259 29.1845 51.259 29.1845 51.259 29.2044C51.2429 29.3036 51.2268 29.3831 51.2107 29.4426C50.5026 32.0039 49.3439 34.0092 47.7507 36.1337C47.5415 36.4315 47.3162 36.7095 47.0748 37.0073C46.6885 37.5036 46.2701 38.0199 45.8517 38.5361C45.6746 38.7545 45.4976 38.953 45.3206 39.1714C45.1597 39.37 44.9344 39.648 44.693 39.9656C44.5481 40.4819 44.3711 41.0775 44.2262 41.693C44.1619 41.6533 44.0975 41.6334 44.0331 41.5937C40.9432 40.1245 38.8672 38.139 38.8672 38.139C38.8672 38.139 40.4604 40.7003 43.148 43.1027C43.4055 43.3409 43.663 43.5395 43.9205 43.7182C43.8078 45.8823 44.5803 47.9472 48.0725 48.5627C48.668 48.662 49.2634 48.662 49.875 48.5826C49.875 48.5429 49.8589 48.523 49.8589 48.5032Z" fill="black"/>
</svg>
