
<svg width="136" height="82" viewBox="0 0 136 82" fill="none" xmlns="http://www.w3.org/2000/svg">
<path d="M12.6213 0H123.323C130.328 0 136 5.74429 136 12.8409V55.643C136 62.739 130.329 68.4838 123.323 68.4838H83.6242L89.0732 82L65.1091 68.4838H12.6776C5.67201 68.4838 0.000405349 62.7395 0.000405349 55.643V12.8409C-0.0551951 5.8008 5.6157 0 12.6213 0Z" fill="#9B5C8F"/>
<path d="M7.94792 12.0844C8.71927 11.0262 9.87632 10.4692 11.419 10.3578C14.2289 10.135 15.8267 11.4717 16.2125 14.3679C17.9204 26.0087 19.7937 35.8666 21.7775 43.9429L33.8435 20.7176C34.9454 18.6012 36.3228 17.4872 37.9758 17.3759C40.4001 17.2088 41.8876 18.7682 42.4937 22.0544C43.8711 29.4621 45.6342 35.7556 47.7279 41.1023C49.1604 26.9552 51.5847 16.7633 55.0009 10.4693C55.8274 8.90981 57.0395 8.13007 58.6373 8.01864C59.9045 7.90725 61.0616 8.29713 62.1084 9.13257C63.1552 9.96802 63.7062 11.0262 63.8164 12.3072C63.8715 13.3098 63.7062 14.1452 63.2654 14.9807C61.1166 18.9908 59.3535 25.7303 57.9211 35.0867C56.5437 44.1654 56.0479 51.2387 56.3784 56.3071C56.4886 57.6995 56.2683 58.9248 55.7173 59.983C55.0561 61.2083 54.0644 61.8767 52.7972 61.9881C51.3647 62.0995 49.8771 61.4312 48.4446 59.9273C43.3206 54.6362 39.2433 46.7276 36.2684 36.2006C32.6871 43.3295 30.0426 48.6768 28.3346 52.2412C25.0839 58.5347 22.3291 61.7652 20.0149 61.9322C18.5273 62.0436 17.2601 60.7626 16.1581 58.0892C13.3482 50.7927 10.3178 36.7018 7.06703 15.8159C6.84664 14.3678 7.17722 13.0868 7.94855 12.0843L7.94792 12.0844ZM126.353 20.8286C124.37 17.3197 121.449 15.203 117.538 14.3676C116.491 14.1448 115.499 14.0334 114.563 14.0334C109.273 14.0334 104.976 16.8182 101.615 22.388C98.75 27.1221 97.3174 32.3578 97.3174 38.0941C97.3174 42.3827 98.199 46.0585 99.9621 49.122C101.946 52.6309 104.866 54.7476 108.777 55.583C109.824 55.8058 110.816 55.9172 111.753 55.9172C117.097 55.9172 121.394 53.1324 124.7 47.5626C127.565 42.7728 128.998 37.5372 128.998 31.8008C129.053 27.4565 128.116 23.8364 126.353 20.8286ZM119.411 36.2564C118.64 39.9324 117.262 42.6612 115.224 44.4997C113.626 45.9478 112.138 46.5604 110.761 46.2819C109.438 46.0035 108.337 44.8338 107.51 42.6617C106.849 40.9351 106.518 39.2086 106.518 37.5934C106.518 36.201 106.629 34.8085 106.904 33.5276C107.4 31.244 108.337 29.0162 109.824 26.8996C111.642 24.1705 113.571 23.0565 115.554 23.4464C116.877 23.7249 117.979 24.8945 118.805 27.0667C119.466 28.7932 119.797 30.5198 119.797 32.135C119.797 33.5831 119.686 34.9754 119.411 36.2564ZM91.8624 20.8286C89.8789 17.3197 86.9036 15.203 83.0471 14.3676C82.0003 14.1448 81.0085 14.0334 80.0719 14.0334C74.7826 14.0334 70.4852 16.8182 67.1243 22.388C64.2592 27.1221 62.8267 32.3578 62.8267 38.0941C62.8267 42.3827 63.7082 46.0585 65.4714 49.122C67.4548 52.6309 70.375 54.7476 74.2866 55.583C75.3334 55.8058 76.3252 55.9172 77.2618 55.9172C82.6061 55.9172 86.9036 53.1324 90.2094 47.5626C93.0745 42.7728 94.507 37.5372 94.507 31.8008C94.507 27.4565 93.6255 23.8364 91.8624 20.8286ZM84.8652 36.2564C84.0938 39.9324 82.7165 42.6612 80.6779 44.4997C79.0801 45.9478 77.5925 46.5604 76.215 46.2819C74.8927 46.0035 73.7907 44.8338 72.9643 42.6617C72.3032 40.9351 71.9726 39.2086 71.9726 37.5934C71.9726 36.201 72.0828 34.8085 72.3582 33.5276C72.8541 31.244 73.7908 29.0162 75.2784 26.8996C77.0965 24.1705 79.0249 23.0565 81.0085 23.4464C82.3309 23.7249 83.4328 24.8945 84.2592 27.0667C84.9204 28.7932 85.251 30.5198 85.251 32.135C85.3061 33.5831 85.1407 34.9754 84.8652 36.2564Z" fill="white"/>
</svg>
