<svg width="225" height="51" viewBox="0 0 225 51" fill="none" xmlns="http://www.w3.org/2000/svg">
<g clip-path="url(#clip0_746_37212)">
<path fill-rule="evenodd" clip-rule="evenodd" d="M65.8279 30.0546C64.9468 28.8627 63.4487 27.8879 61.6343 27.8879C58.2739 27.8879 55.8505 30.4456 55.8505 33.9103C55.8505 37.3762 58.2739 39.9335 61.6343 39.9335C63.2043 39.9335 64.6717 39.2658 65.4392 38.6006C65.4908 38.5559 65.5172 38.4915 65.5172 38.4234V36.5441C65.5172 36.4264 65.4214 36.3302 65.3029 36.3302H60.981C60.8091 36.3302 60.6697 36.191 60.6697 36.0199V33.2311C60.6697 33.0594 60.8091 32.9202 60.981 32.9202H68.7302V28.781L66.2282 30.1477C66.095 30.2207 65.9181 30.1766 65.8279 30.0546ZM29.4506 32.0129H34.0666C35.3885 32.0129 36.2149 31.2698 36.2149 30.0878C36.2149 28.9596 35.3885 28.1626 34.0666 28.1626H29.4506C29.2922 28.1626 29.1645 28.2908 29.1645 28.4484V31.7274C29.1645 31.885 29.2922 32.0129 29.4506 32.0129ZM48.2175 42.8129C48.2175 42.9545 48.1027 43.0685 47.9615 43.0685H44.563C44.4212 43.0685 44.3064 42.9545 44.3064 42.8129V24.9811C44.3064 24.8401 44.4212 24.7255 44.563 24.7255H47.9615C48.1027 24.7255 48.2175 24.8401 48.2175 24.9811V42.8129ZM67.7535 0.119248L34.0503 24.7255H34.9203C38.4182 24.7255 40.208 26.9523 40.208 29.3998C40.208 31.3042 39.2115 32.7106 37.8742 33.3323C37.652 33.436 37.6599 33.7498 37.8871 33.8424C39.446 34.4794 40.5666 36.1452 40.5666 38.0906C40.5666 40.8685 38.7485 43.0685 35.2236 43.0685H25.5398C25.3814 43.0685 25.253 42.941 25.253 42.7828V31.1478L0.252557 49.4006C-0.226356 49.7507 0.0210829 50.5085 0.615426 50.5085H68.1163C68.4553 50.5085 68.7303 50.2337 68.7303 49.8953V40.6638C66.924 42.3456 64.549 43.3989 61.6338 43.3989C56.2362 43.3989 51.8296 39.6866 51.8296 33.9105C51.8296 28.1074 56.2362 24.4227 61.6338 24.4227C65.028 24.4227 67.3016 25.958 68.7303 27.8335V0.613974C68.7303 0.112457 68.1593 -0.176875 67.7535 0.119248ZM29.4506 39.6306H34.2317C35.6912 39.6306 36.5723 38.8606 36.5723 37.5406C36.5723 36.3861 35.747 35.4505 34.2317 35.4505H29.4506C29.2922 35.4505 29.1645 35.5787 29.1645 35.7362V39.345C29.1645 39.5026 29.2922 39.6306 29.4506 39.6306ZM88.3198 39.0742L86.2132 37.9835C86.0775 37.913 85.9062 37.9645 85.8239 38.0933C84.933 39.4881 83.2894 40.5237 81.5033 40.5237C77.9968 40.5237 75.3935 37.7187 75.3935 33.8953C75.3935 30.0181 77.9968 27.2676 81.5033 27.2676C83.2882 27.2676 84.9312 28.2774 85.8227 29.6912C85.9056 29.823 86.0788 29.8739 86.2163 29.7997L88.3069 28.6625C88.466 28.5761 88.5218 28.3779 88.4242 28.2247C87.1017 26.1462 84.9116 24.4075 81.5033 24.4075C76.2696 24.4075 72.205 28.2309 72.205 33.8953C72.205 39.5335 76.2696 43.3838 81.5033 43.3838C84.9079 43.3838 87.0728 41.599 88.4402 39.5193C88.5439 39.3618 88.4868 39.1606 88.3198 39.0742ZM99.3004 40.5237C95.7104 40.5237 93.4233 37.6637 93.4233 33.8955C93.4233 30.101 95.7104 27.2678 99.3004 27.2678C102.863 27.2678 105.177 30.101 105.177 33.8955C105.177 37.6637 102.863 40.5237 99.3004 40.5237ZM96.7892 24.7284C92.8394 25.7823 90.2324 29.3322 90.2324 33.8955C90.2324 39.3687 93.982 43.384 99.3004 43.384C103.829 43.384 107.248 40.4428 108.139 36.1633C109.592 29.1942 103.465 22.9479 96.7892 24.7284ZM130.429 24.7105H126.397C126.218 24.7105 126.057 24.8195 125.991 24.9863L121.116 37.5728L116.212 24.9851C116.147 24.8195 115.986 24.7105 115.807 24.7105H111.774C111.655 24.7105 111.558 24.8074 111.558 24.9263V42.8382C111.558 42.9571 111.655 43.054 111.774 43.054H114.565C114.684 43.054 114.781 42.9571 114.781 42.8382V28.8906L120.389 42.9565C120.412 43.0153 120.469 43.054 120.532 43.054H121.699C121.762 43.054 121.819 43.0153 121.843 42.9565L127.423 28.8906V42.8382C127.423 42.9571 127.519 43.054 127.639 43.054H130.429C130.548 43.054 130.645 42.9571 130.645 42.8382V24.9263C130.645 24.8074 130.548 24.7105 130.429 24.7105ZM171.638 24.7105H159.716C159.532 24.7105 159.384 24.8588 159.384 25.0421V42.7224C159.384 42.9057 159.532 43.054 159.716 43.054H171.638C171.822 43.054 171.971 42.9057 171.971 42.7224V40.5532C171.971 40.3699 171.822 40.2214 171.638 40.2214H162.939C162.755 40.2214 162.607 40.0731 162.607 39.8897V35.4374C162.607 35.2541 162.755 35.1056 162.939 35.1056H171.446C171.629 35.1056 171.778 34.9567 171.778 34.774V32.6048C171.778 32.4214 171.629 32.2732 171.446 32.2732H162.939C162.755 32.2732 162.607 32.1249 162.607 31.9415V27.8748C162.607 27.6915 162.755 27.543 162.939 27.543H171.638C171.822 27.543 171.971 27.394 171.971 27.2113V25.0421C171.971 24.8588 171.822 24.7105 171.638 24.7105ZM184.207 33.3732H180.102C179.92 33.3732 179.773 33.2262 179.773 33.0447V27.8713C179.773 27.6898 179.92 27.5427 180.102 27.5427H184.207C186.024 27.5427 187.347 28.6708 187.347 30.431C187.347 32.2182 186.024 33.3732 184.207 33.3732ZM186.736 35.7533C188.792 35.2358 190.651 33.4775 190.651 30.458C190.651 27.0479 188.255 24.7107 184.62 24.7107H176.879C176.697 24.7107 176.55 24.8579 176.55 25.0394V42.7251C176.55 42.9066 176.697 43.0542 176.879 43.0542H179.443C179.625 43.0542 179.773 42.9066 179.773 42.7251V36.5344C179.773 36.3529 179.92 36.2059 180.102 36.2059H182.807C182.924 36.2059 183.031 36.2672 183.091 36.3671L186.948 42.8923C187.007 42.9923 187.115 43.0542 187.232 43.0542H190.195C190.453 43.0542 190.612 42.7715 190.475 42.5526C189.624 41.1958 187.289 37.4707 186.521 36.2451C186.399 36.0513 186.513 35.8091 186.736 35.7533ZM215.96 27.5427H224.676C224.855 27.5427 225 27.398 225 27.219V25.034C225 24.8556 224.855 24.7103 224.676 24.7103H212.737C212.559 24.7103 212.413 24.8556 212.413 25.034V42.7301C212.413 42.9091 212.559 43.0538 212.737 43.0538H224.676C224.855 43.0538 225 42.9091 225 42.7301V40.5449C225 40.3665 224.855 40.2218 224.676 40.2218H215.96C215.781 40.2218 215.636 40.0765 215.636 39.898V35.4293C215.636 35.2503 215.781 35.1056 215.96 35.1056H224.484C224.663 35.1056 224.808 34.9609 224.808 34.7819V32.5967C224.808 32.4183 224.663 32.2729 224.484 32.2729H215.96C215.781 32.2729 215.636 32.1282 215.636 31.9492V27.8665C215.636 27.6875 215.781 27.5427 215.96 27.5427ZM209.125 38.998L207.019 37.9073C206.883 37.8368 206.712 37.8883 206.629 38.0171C205.738 39.4119 204.095 40.4473 202.309 40.4473C198.802 40.4473 196.199 37.6425 196.199 33.8192C196.199 29.9419 198.802 27.1914 202.309 27.1914C204.094 27.1914 205.737 28.2012 206.628 29.615C206.711 29.7469 206.884 29.7978 207.022 29.7236L209.112 28.5862C209.271 28.4997 209.327 28.3012 209.23 28.1485C207.907 26.0701 205.717 24.3312 202.309 24.3312C197.075 24.3312 193.01 28.1547 193.01 33.8192C193.01 39.4573 197.075 43.3076 202.309 43.3076C205.713 43.3076 207.878 41.5228 209.246 39.4432C209.349 39.2856 209.292 39.0845 209.125 38.998ZM154.221 24.7105H150.19C150.011 24.7105 149.85 24.8195 149.784 24.9863L144.908 37.5728L140.005 24.9851C139.939 24.8195 139.778 24.7105 139.599 24.7105H135.567C135.448 24.7105 135.351 24.8074 135.351 24.9263V42.8382C135.351 42.9571 135.448 43.054 135.567 43.054H138.358C138.477 43.054 138.574 42.9571 138.574 42.8382V28.8906L144.181 42.9565C144.205 43.0153 144.262 43.054 144.325 43.054H145.492C145.555 43.054 145.612 43.0153 145.635 42.9565L151.215 28.8906V42.8382C151.215 42.9571 151.312 43.054 151.431 43.054H154.221C154.341 43.054 154.437 42.9571 154.437 42.8382V24.9263C154.437 24.8074 154.341 24.7105 154.221 24.7105Z" fill="#34313F"/>
</g>
<defs>
<clipPath id="clip0_746_37212">
<rect width="225" height="51" fill="white"/>
</clipPath>
</defs>
</svg>
