<svg width="200" height="100" viewBox="0 0 200 100" fill="none" xmlns="http://www.w3.org/2000/svg">
<rect width="200" height="100" fill="white"/>
<g style="mix-blend-mode:luminosity">
<path d="M64.041 50.4619C65.4447 50.4619 66.7617 50.8128 67.9922 51.5146C69.2318 52.2165 70.1979 53.1689 70.8906 54.3721C71.5833 55.5752 71.9297 56.874 71.9297 58.2686C71.9297 59.6722 71.5788 60.9847 70.877 62.2061C70.1842 63.4274 69.2363 64.3844 68.0332 65.0771C66.8301 65.7607 65.5039 66.1025 64.0547 66.1025C61.9219 66.1025 60.099 65.346 58.5859 63.833C57.082 62.3109 56.3301 60.4652 56.3301 58.2959C56.3301 55.9717 57.1823 54.0348 58.8867 52.4854C60.3815 51.1364 62.0996 50.4619 64.041 50.4619ZM64.0957 53.9756C62.9382 53.9756 61.972 54.3812 61.1973 55.1924C60.4316 55.9945 60.0488 57.0244 60.0488 58.2822C60.0488 59.5765 60.4271 60.6247 61.1836 61.4268C61.9492 62.2288 62.9154 62.6299 64.082 62.6299C65.2487 62.6299 66.2194 62.2243 66.9941 61.4131C67.7689 60.6019 68.1562 59.5583 68.1562 58.2822C68.1562 57.0062 67.7734 55.9717 67.0078 55.1787C66.2513 54.3766 65.2806 53.9756 64.0957 53.9756ZM81.9785 50.4619C83.3822 50.4619 84.6992 50.8128 85.9297 51.5146C87.1693 52.2165 88.1354 53.1689 88.8281 54.3721C89.5208 55.5752 89.8672 56.874 89.8672 58.2686C89.8672 59.6722 89.5163 60.9847 88.8145 62.2061C88.1217 63.4274 87.1738 64.3844 85.9707 65.0771C84.7676 65.7607 83.4414 66.1025 81.9922 66.1025C79.8594 66.1025 78.0365 65.346 76.5234 63.833C75.0195 62.3109 74.2676 60.4652 74.2676 58.2959C74.2676 55.9717 75.1198 54.0348 76.8242 52.4854C78.319 51.1364 80.0371 50.4619 81.9785 50.4619ZM82.0332 53.9756C80.8757 53.9756 79.9095 54.3812 79.1348 55.1924C78.3691 55.9945 77.9863 57.0244 77.9863 58.2822C77.9863 59.5765 78.3646 60.6247 79.1211 61.4268C79.8867 62.2288 80.8529 62.6299 82.0195 62.6299C83.1862 62.6299 84.1569 62.2243 84.9316 61.4131C85.7064 60.6019 86.0938 59.5583 86.0938 58.2822C86.0938 57.0062 85.7109 55.9717 84.9453 55.1787C84.1888 54.3766 83.2181 53.9756 82.0332 53.9756ZM103.922 45.1025H107.641V65.7197H103.922V64.1475C103.193 64.8402 102.459 65.3415 101.721 65.6514C100.992 65.9521 100.199 66.1025 99.3418 66.1025C97.4186 66.1025 95.7552 65.3597 94.3516 63.874C92.9479 62.3792 92.2461 60.5244 92.2461 58.3096C92.2461 56.0127 92.9251 54.1305 94.2832 52.6631C95.6413 51.1956 97.291 50.4619 99.2324 50.4619C100.126 50.4619 100.964 50.6305 101.748 50.9678C102.532 51.305 103.257 51.8109 103.922 52.4854V45.1025ZM99.998 53.9072C98.8405 53.9072 97.8789 54.3174 97.1133 55.1377C96.3477 55.9489 95.9648 56.9925 95.9648 58.2686C95.9648 59.5537 96.3522 60.611 97.127 61.4404C97.9108 62.2699 98.8724 62.6846 100.012 62.6846C101.188 62.6846 102.163 62.279 102.938 61.4678C103.712 60.6475 104.1 59.5765 104.1 58.2549C104.1 56.9606 103.712 55.9124 102.938 55.1104C102.163 54.3083 101.183 53.9072 99.998 53.9072Z" fill="#1048C6"/>
<path d="M110.293 45.6084H114.066L116.965 58.4463L120.561 45.6084H123.746L127.383 58.4463L130.254 45.6084H134.027L129.502 65.7197H125.824L122.119 52.7178L118.482 65.7197H114.846L110.293 45.6084ZM143.611 50.4619C145.015 50.4619 146.332 50.8128 147.562 51.5146C148.802 52.2165 149.768 53.1689 150.461 54.3721C151.154 55.5752 151.5 56.874 151.5 58.2686C151.5 59.6722 151.149 60.9847 150.447 62.2061C149.755 63.4274 148.807 64.3844 147.604 65.0771C146.4 65.7607 145.074 66.1025 143.625 66.1025C141.492 66.1025 139.669 65.346 138.156 63.833C136.652 62.3109 135.9 60.4652 135.9 58.2959C135.9 55.9717 136.753 54.0348 138.457 52.4854C139.952 51.1364 141.67 50.4619 143.611 50.4619ZM143.666 53.9756C142.508 53.9756 141.542 54.3812 140.768 55.1924C140.002 55.9945 139.619 57.0244 139.619 58.2822C139.619 59.5765 139.997 60.6247 140.754 61.4268C141.52 62.2288 142.486 62.6299 143.652 62.6299C144.819 62.6299 145.79 62.2243 146.564 61.4131C147.339 60.6019 147.727 59.5583 147.727 58.2822C147.727 57.0062 147.344 55.9717 146.578 55.1787C145.822 54.3766 144.851 53.9756 143.666 53.9756ZM153.688 50.8447H156.887V52.7178C157.233 51.9795 157.693 51.4189 158.268 51.0361C158.842 50.6533 159.471 50.4619 160.154 50.4619C160.637 50.4619 161.143 50.5895 161.672 50.8447L160.51 54.0576C160.072 53.8389 159.712 53.7295 159.43 53.7295C158.855 53.7295 158.368 54.085 157.967 54.7959C157.575 55.5068 157.379 56.9014 157.379 58.9795L157.393 59.7041V65.7197H153.688V50.8447ZM163.559 45.1025H167.291V56.9834L172.787 50.8447H177.463L171.064 57.9814L178.242 65.7197H173.607L167.291 58.8701V65.7197H163.559V45.1025ZM188.879 52.9229L186.568 55.2334C185.63 54.3037 184.777 53.8389 184.012 53.8389C183.592 53.8389 183.264 53.93 183.027 54.1123C182.79 54.2855 182.672 54.5042 182.672 54.7686C182.672 54.9691 182.745 55.1559 182.891 55.3291C183.046 55.4932 183.419 55.721 184.012 56.0127L185.379 56.6963C186.819 57.4072 187.808 58.1318 188.346 58.8701C188.883 59.6084 189.152 60.4743 189.152 61.4678C189.152 62.7894 188.665 63.8923 187.689 64.7764C186.723 65.6605 185.424 66.1025 183.793 66.1025C181.624 66.1025 179.892 65.2549 178.598 63.5596L180.895 61.0576C181.332 61.568 181.842 61.9827 182.426 62.3018C183.018 62.6117 183.542 62.7666 183.998 62.7666C184.49 62.7666 184.887 62.6481 185.188 62.4111C185.488 62.1742 185.639 61.9007 185.639 61.5908C185.639 61.0166 185.096 60.4561 184.012 59.9092L182.754 59.2803C180.348 58.068 179.145 56.5505 179.145 54.7275C179.145 53.5518 179.596 52.5492 180.498 51.7197C181.41 50.8812 182.572 50.4619 183.984 50.4619C184.951 50.4619 185.857 50.6761 186.705 51.1045C187.562 51.5238 188.286 52.1299 188.879 52.9229Z" fill="#DD450A"/>
<path d="M25.5871 49.2725L21.7447 47.0538C21.0064 46.6264 19.7933 45.9271 19.055 45.4998L15.2126 43.281C14.4744 42.8537 13.8656 43.2033 13.8656 44.058V44.9429C13.8656 45.1717 13.9865 45.3832 14.1851 45.4998C14.9234 45.9271 16.1365 46.6264 16.8748 47.0538L20.7172 49.2725C21.4554 49.6999 21.4554 50.3992 20.7172 50.8265L16.8748 53.0453C16.1365 53.4726 14.9234 54.1719 14.1851 54.5993C13.9865 54.7158 13.8613 54.9273 13.8613 55.1561V56.041C13.8613 56.8957 14.4657 57.2454 15.2083 56.818L19.0507 54.5993C19.7933 54.1719 21.0021 53.4726 21.7404 53.0453L25.5827 50.8265C26.321 50.3992 26.321 49.6999 25.5827 49.2725H25.5871Z" fill="url(#paint0_linear_746_14692)"/>
<path d="M13.8613 48.4994V45.6893C13.8613 45.4605 13.7404 45.249 13.5418 45.1325L10.3427 43.2849C9.60442 42.8576 9 43.2072 9 44.0619V56.0406C9 56.8953 9.60442 57.245 10.3427 56.8176L13.5418 54.9701C13.7404 54.8535 13.8613 54.642 13.8613 54.4132V48.4994Z" fill="url(#paint1_linear_746_14692)"/>
<path d="M16.8748 53.0456L20.7172 50.8268C21.4554 50.3995 21.4554 49.7002 20.7172 49.2728L16.8748 47.0541C16.1365 46.6267 14.9234 45.9274 14.1851 45.5001L13.8613 45.3145V54.7809L14.1851 54.5952C14.9234 54.1679 16.1365 53.4686 16.8748 53.0412V53.0456Z" fill="url(#paint2_linear_746_14692)"/>
<path d="M54.8576 48.8055C54.8145 48.8055 54.7756 48.8012 54.7368 48.7969C54.7195 48.7969 54.7022 48.8012 54.6849 48.8055C54.659 48.8228 54.6331 48.8357 54.6029 48.8487C54.59 48.8616 54.577 48.8703 54.5641 48.8832C53.7351 50.5581 50.4411 52.7423 47.242 53.4675C42.9592 54.4387 38.344 52.9193 35.0284 49.4789C34.6485 49.0861 33.9793 49.358 33.9793 49.9063V55.1035C33.9793 55.656 34.4283 56.1093 34.9852 56.1093H43.7363C44.5134 56.1093 44.9883 56.951 44.6041 57.6244C42.7952 60.7756 39.3629 62.6533 34.4671 62.6533C28.9712 62.6533 24.8914 60.3007 22.7759 56.6014C22.4996 56.1222 21.8866 55.9582 21.4074 56.2345L21.2045 56.351L14.8796 59.9986C14.3961 60.2791 14.2277 60.9007 14.517 61.3799C18.3637 67.8074 25.5347 72.0981 34.3462 72.0981C46.2231 72.0981 55.2462 64.2246 55.2462 51.2617V49.1724C55.2462 48.9609 55.0735 48.8055 54.8619 48.8055H54.8576Z" fill="url(#paint3_linear_746_14692)"/>
<path d="M21.2007 43.7514L21.7706 44.0795C22.0858 44.2608 22.4873 44.1443 22.66 43.8205C24.7279 39.9053 28.7473 37.4535 33.6172 37.4535C38.1245 37.4535 41.7769 39.3873 43.6506 41.9428C43.8448 42.2061 44.2032 42.2881 44.4881 42.1241L51.6203 38.0362C51.9484 37.8506 52.0434 37.4232 51.8318 37.1124C48.1664 31.7253 41.5135 28 33.6777 28C25.2978 28 18.1527 32.4246 14.3578 39.0506C14.1808 39.3614 14.2844 39.7542 14.591 39.9355L21.2007 43.7514Z" fill="url(#paint4_linear_746_14692)"/>
</g>
<defs>
<linearGradient id="paint0_linear_746_14692" x1="13.8613" y1="50.0495" x2="26.1397" y2="50.0495" gradientUnits="userSpaceOnUse">
<stop stop-color="#FF4000"/>
<stop offset="1" stop-color="#FFC53F"/>
</linearGradient>
<linearGradient id="paint1_linear_746_14692" x1="8.99568" y1="50.0491" x2="13.8613" y2="50.0491" gradientUnits="userSpaceOnUse">
<stop stop-color="#D43500"/>
<stop offset="1" stop-color="#FF8D55"/>
</linearGradient>
<linearGradient id="paint2_linear_746_14692" x1="13.8613" y1="50.0498" x2="21.2741" y2="50.0498" gradientUnits="userSpaceOnUse">
<stop stop-color="#E92D00"/>
<stop offset="1" stop-color="#FFAF3F"/>
</linearGradient>
<linearGradient id="paint3_linear_746_14692" x1="14.3745" y1="60.4475" x2="55.2419" y2="60.4475" gradientUnits="userSpaceOnUse">
<stop stop-color="#130094"/>
<stop offset="0.41" stop-color="#1531FF"/>
<stop offset="0.68" stop-color="#158CFF"/>
<stop offset="1" stop-color="#6ADFFF"/>
</linearGradient>
<linearGradient id="paint4_linear_746_14692" x1="14.2672" y1="36.0808" x2="51.9441" y2="36.0808" gradientUnits="userSpaceOnUse">
<stop stop-color="#94E8FF"/>
<stop offset="0.18" stop-color="#1572FF"/>
<stop offset="0.6" stop-color="#0043E9"/>
<stop offset="1" stop-color="#00007C"/>
</linearGradient>
</defs>
</svg>
