<svg width="200" height="100" viewBox="0 0 200 100" fill="none" xmlns="http://www.w3.org/2000/svg">
<rect width="200" height="100" fill="white"/>
<g style="mix-blend-mode:luminosity">
<path d="M46.7945 68.2028H45.002V67.6424C45.002 67.3902 45.058 67.1941 45.156 67.026C45.254 66.8719 45.4641 66.7318 45.7722 66.6197C46.0523 66.4936 46.2344 66.3675 46.3464 66.2134C46.4584 66.0733 46.5145 65.8492 46.5145 65.5409V49.444C46.5145 49.1358 46.4584 48.9117 46.3464 48.7716C46.2344 48.6315 46.0383 48.4914 45.7722 48.3653C45.4641 48.2532 45.254 48.1271 45.156 47.959C45.058 47.8049 45.002 47.5948 45.002 47.3426V46.7822H49.7355L56.1216 65.3868H55.3794L61.9055 46.7822H66.415V47.3426C66.415 47.5948 66.359 47.7909 66.2329 47.959C66.1069 48.1131 65.8968 48.2532 65.5887 48.3653C65.3086 48.4914 65.1266 48.6175 65.0145 48.7716C64.9025 48.9117 64.8465 49.1358 64.8465 49.444V65.5409C64.8465 65.8492 64.9025 66.0733 65.0145 66.2134C65.1266 66.3535 65.3226 66.4936 65.5887 66.6197C65.8968 66.7318 66.1209 66.8578 66.2329 67.026C66.359 67.1801 66.415 67.3902 66.415 67.6424V68.2028H60.9672V67.6424C60.9672 67.3902 61.0232 67.1941 61.1352 67.026C61.2473 66.8719 61.4433 66.7318 61.7374 66.6197C62.0315 66.4936 62.2416 66.3675 62.3536 66.2134C62.4797 66.0733 62.5357 65.8492 62.5357 65.5409V48.2532L62.8998 48.3373L56.0796 68.0907H55.6735C55.3794 68.0907 55.1413 68.0627 54.9592 67.9926C54.7772 67.9366 54.6091 67.8105 54.4831 67.6284C54.343 67.4462 54.231 67.1941 54.133 66.8859L47.8029 48.4353L48.111 48.2812V65.555C48.111 65.8632 48.167 66.0873 48.265 66.2274C48.3631 66.3675 48.5591 66.5076 48.8532 66.6337C49.1613 66.7458 49.3854 66.8719 49.4974 67.04C49.6235 67.1941 49.6795 67.4042 49.6795 67.6564V68.2168H46.8226L46.7945 68.2028Z" fill="#C48A0A"/>
<path d="M70.7698 68.1181C70.2376 67.866 69.8175 67.5157 69.5374 67.0674C69.2433 66.6191 69.1033 66.0587 69.1033 65.4003C69.1033 64.7418 69.4254 63.7051 70.0556 63.0607C70.6858 62.4163 71.6101 61.9119 72.8145 61.5617C74.0189 61.2114 75.5034 61.0433 77.2539 61.0433L77.1699 62.1921C75.9375 62.1921 74.9012 62.3042 74.0469 62.5424C73.1926 62.7805 72.5484 63.1167 72.1003 63.565C71.6661 64.0134 71.442 64.5597 71.442 65.1901C71.442 65.8206 71.6241 66.2128 72.0022 66.5631C72.3803 66.9133 72.8705 67.0814 73.4727 67.0814C74.0749 67.0814 74.5791 66.9413 75.0692 66.6752C75.5594 66.409 75.9655 66.0447 76.2596 65.5824C76.5677 65.1201 76.7078 64.6298 76.7078 64.1114L77.45 64.4617C77.352 65.2462 77.0859 65.9467 76.6518 66.5491C76.2176 67.1515 75.6434 67.6278 74.9292 67.978C74.229 68.3283 73.4447 68.4964 72.5764 68.4964C71.7081 68.4964 71.288 68.3703 70.7558 68.1181H70.7698ZM76.9598 65.0501L76.7078 64.7559V60.581C76.7078 59.3202 76.4557 58.3815 75.9655 57.7651C75.4754 57.1487 74.7051 56.8405 73.6828 56.8405C72.6604 56.8405 72.6464 56.9245 72.1843 57.0786C71.7221 57.2328 71.302 57.4709 70.9659 57.7791L71.0219 56.7844C71.358 57.0366 71.5961 57.3028 71.7361 57.569C71.8762 57.8492 71.9602 58.1294 71.9602 58.4376C71.9602 58.7458 71.9042 58.9699 71.7922 59.1941C71.6801 59.4182 71.5121 59.5863 71.302 59.7124C71.0779 59.8385 70.8398 59.8946 70.5878 59.8946C70.3357 59.8946 70.0696 59.8385 69.8595 59.7124C69.6494 59.5863 69.4814 59.4182 69.3694 59.2081C69.2433 58.9979 69.1873 58.7598 69.1873 58.4796C69.1873 57.9753 69.3974 57.527 69.8035 57.1067C70.2096 56.6864 70.7978 56.3502 71.5401 56.098C72.2823 55.8458 73.0946 55.7197 73.9769 55.7197C74.8592 55.7197 75.9935 55.9018 76.7358 56.2661C77.464 56.6303 78.0242 57.1767 78.4163 57.8772C78.8085 58.5917 78.9905 59.4603 78.9905 60.4689V65.9467C78.9905 66.1848 79.0325 66.3529 79.1166 66.479C79.2006 66.6051 79.3686 66.7172 79.6207 66.8012C79.8728 66.9273 80.0549 67.0394 80.1529 67.1515C80.2509 67.2636 80.3069 67.4317 80.3069 67.6558L80.335 68.1602H78.7384L77.0579 68.1882L76.9739 65.008L76.9598 65.0501Z" fill="#C48A0A"/>
<path d="M85.0548 67.6845C84.1585 67.1521 83.4583 66.3956 82.9821 65.429C82.492 64.4623 82.2539 63.3555 82.2539 62.0947C82.2539 60.8338 82.492 59.7411 82.9821 58.7744C83.4723 57.8078 84.1725 57.0653 85.0688 56.5329C85.9791 56.0006 87.0155 55.7344 88.1638 55.7344C89.3122 55.7344 89.7183 55.8605 90.4046 56.1126C91.0908 56.3648 91.637 56.715 92.0291 57.1493C92.4212 57.5976 92.6173 58.074 92.6173 58.5643C92.6173 59.0546 92.4913 59.3628 92.2392 59.629C91.9871 59.8952 91.651 60.0353 91.2028 60.0353C90.7547 60.0353 90.4746 59.8952 90.2085 59.629C89.9564 59.3628 89.8164 58.9986 89.8164 58.5643C89.8164 58.13 89.9004 57.9479 90.0685 57.6397C90.2365 57.3315 90.4746 57.0513 90.8107 56.7991L90.8667 57.7377C90.5866 57.4716 90.2365 57.2754 89.8164 57.1353C89.3962 56.9952 88.9201 56.9392 88.4159 56.9392C87.6037 56.9392 86.9174 57.1353 86.3573 57.5136C85.7831 57.8918 85.3489 58.4522 85.0548 59.1807C84.7467 59.9092 84.6067 60.7778 84.6067 61.8005C84.6067 62.8232 84.7607 63.7478 85.0828 64.5464C85.4049 65.3449 85.8671 65.9473 86.4553 66.3816C87.0575 66.8159 87.7577 67.026 88.556 67.026C89.3542 67.026 89.6903 66.914 90.2085 66.6758C90.7267 66.4376 91.2308 66.0874 91.721 65.6111C91.9451 65.4149 92.1131 65.3029 92.2112 65.2608C92.3232 65.2188 92.4493 65.2328 92.5893 65.3029C92.7293 65.3589 92.9114 65.485 93.1215 65.6671C92.4773 66.6618 91.749 67.3903 90.9227 67.8386C90.0965 68.2869 89.1582 68.511 88.1218 68.511C87.0855 68.511 85.9371 68.2449 85.0408 67.7125L85.0548 67.6845Z" fill="#C48A0A"/>
<path d="M96.398 68.2019H94.7735V67.6975C94.7735 67.4594 94.8295 67.2913 94.9275 67.1792C95.0256 67.0671 95.2076 66.955 95.4597 66.843C95.6978 66.7589 95.8658 66.6468 95.9639 66.5067C96.0619 66.3666 96.1179 66.1985 96.1179 65.9884V49.0649C96.1179 48.9108 96.0899 48.7567 96.0199 48.6306C95.9499 48.5045 95.8658 48.4065 95.7538 48.3504C95.6418 48.2944 95.5297 48.2383 95.3897 48.2103C95.2776 48.1543 95.1796 48.0983 95.0676 48.0282C94.9695 47.9582 94.8855 47.8741 94.8015 47.776C94.7315 47.678 94.6895 47.5379 94.6895 47.3417V46.8374L98.3446 46.6553V62.1918L97.5464 61.8976L102.742 57.989C102.84 57.9329 102.91 57.8909 102.966 57.8489C103.022 57.7788 103.05 57.7228 103.05 57.6808C103.05 57.6387 103.022 57.5967 102.966 57.5407C102.91 57.4986 102.826 57.4566 102.686 57.4146C102.434 57.2885 102.252 57.1764 102.168 57.0643C102.07 56.9523 102.028 56.7841 102.028 56.56V56.0556H106.845V56.56C106.845 56.7982 106.803 56.9663 106.705 57.0643C106.607 57.1764 106.425 57.2885 106.159 57.4146C105.977 57.4846 105.767 57.5547 105.557 57.6247C105.445 57.6807 105.333 57.7368 105.221 57.7928C105.109 57.8489 105.025 57.9189 104.941 57.9609L100.459 61.3092L100.179 61.3652L99.0449 62.1078C98.7508 62.3179 98.5547 62.528 98.4707 62.7102C98.3727 62.8923 98.3306 63.1304 98.3306 63.4246V65.9884C98.3306 66.1985 98.3727 66.3807 98.4707 66.5067C98.5687 66.6468 98.7228 66.7589 98.9328 66.843C99.1849 66.955 99.367 67.0671 99.451 67.1792C99.549 67.2913 99.5911 67.4734 99.5911 67.6975V68.2019H96.342H96.398ZM104.241 68.2019H102.672V67.6975C102.672 67.4594 102.728 67.2913 102.826 67.1792C102.924 67.0671 103.092 66.955 103.302 66.843C103.47 66.7869 103.582 66.7309 103.638 66.6889C103.694 66.6328 103.708 66.5768 103.694 66.5067C103.68 66.4367 103.624 66.3526 103.554 66.2406C103.54 66.2265 103.526 66.2125 103.526 66.1985C103.526 66.1845 103.526 66.1705 103.498 66.1565L99.6471 61.3933L101.188 60.0624L106.005 66.1565C106.117 66.2686 106.243 66.3666 106.397 66.4787C106.537 66.5908 106.705 66.6889 106.887 66.7729C106.929 66.7869 106.957 66.8009 106.985 66.8149C107.013 66.8149 107.056 66.843 107.112 66.857C107.364 66.9831 107.546 67.0951 107.644 67.2072C107.742 67.3193 107.798 67.4874 107.798 67.7116V68.2159H104.241V68.2019Z" fill="#C48A0A"/>
<path d="M111.831 67.6982C110.921 67.1658 110.221 66.4233 109.731 65.4566C109.24 64.49 108.988 63.3692 108.988 62.1084C108.988 60.8475 109.24 59.7548 109.731 58.7741C110.221 57.8074 110.935 57.0509 111.845 56.5326C112.77 56.0002 113.806 55.748 114.954 55.748C116.103 55.748 117.167 56.0142 118.077 56.5326C118.988 57.0649 119.688 57.8074 120.192 58.7741C120.696 59.7408 120.948 60.8615 120.948 62.1084C120.948 63.3552 120.696 64.49 120.192 65.4566C119.688 66.4233 118.988 67.1798 118.091 67.6982C117.195 68.2305 116.145 68.4827 114.954 68.4827C113.764 68.4827 112.742 68.2165 111.831 67.6982ZM116.887 66.7315C117.433 66.3252 117.825 65.7228 118.091 64.9523C118.357 64.1818 118.483 63.2291 118.483 62.1084C118.483 60.9876 118.343 60.063 118.091 59.2784C117.825 58.4939 117.419 57.8915 116.887 57.4852C116.341 57.0789 115.696 56.8688 114.94 56.8688C114.184 56.8688 113.54 57.0789 112.994 57.4852C112.447 57.8915 112.041 58.4939 111.789 59.2784C111.523 60.063 111.397 61.0016 111.397 62.1084C111.397 63.2151 111.523 64.1818 111.789 64.9523C112.055 65.7228 112.447 66.3252 112.994 66.7315C113.526 67.1378 114.184 67.3479 114.954 67.3479C115.724 67.3479 116.355 67.1378 116.901 66.7315H116.887Z" fill="#C48A0A"/>
<path d="M124.911 68.2022H123.314V67.6978C123.314 67.4597 123.357 67.2915 123.441 67.1795C123.525 67.0674 123.707 66.9553 123.973 66.8432C124.211 66.7592 124.379 66.6471 124.477 66.507C124.575 66.3669 124.631 66.1988 124.631 65.9887V58.2834C124.631 58.1293 124.603 57.9752 124.533 57.8491C124.463 57.723 124.379 57.625 124.267 57.5689C124.155 57.5129 124.043 57.4569 123.903 57.4288C123.805 57.3728 123.707 57.3168 123.581 57.2467C123.455 57.1767 123.371 57.0926 123.314 56.9946C123.258 56.8965 123.23 56.7564 123.23 56.5603V56.0559L126.648 55.8738L126.62 59.3762L126.311 58.9419C126.662 57.9472 127.236 57.1627 128.034 56.6023C128.832 56.0419 129.771 55.7617 130.849 55.7617C131.927 55.7617 132.375 55.9158 132.992 56.238C133.622 56.5603 134.098 57.0366 134.434 57.653C134.77 58.2834 134.938 59.0259 134.938 59.8945V65.9887C134.938 66.1988 134.98 66.3809 135.078 66.507C135.176 66.6471 135.33 66.7592 135.569 66.8432C135.821 66.9553 136.003 67.0674 136.101 67.1795C136.199 67.2915 136.255 67.4737 136.255 67.6978V68.2022H131.409V67.6978C131.409 67.4597 131.451 67.2915 131.535 67.1795C131.619 67.0674 131.787 66.9553 132.039 66.8432C132.277 66.7592 132.445 66.6471 132.53 66.507C132.628 66.3669 132.67 66.1988 132.67 65.9887V60.3008C132.67 59.3201 132.431 58.5636 131.955 58.0172C131.479 57.4709 130.821 57.2047 129.995 57.2047C129.168 57.2047 128.874 57.3448 128.384 57.639C127.894 57.9192 127.516 58.3114 127.236 58.7878C126.956 59.2641 126.83 59.8105 126.83 60.4129V66.0027C126.83 66.2128 126.872 66.3949 126.97 66.521C127.068 66.6611 127.222 66.7732 127.432 66.8572C127.684 66.9693 127.866 67.0814 127.95 67.1935C128.048 67.3055 128.09 67.4877 128.09 67.7118V68.2162H124.841L124.911 68.2022Z" fill="#C48A0A"/>
<path d="M150.975 68.3704C150.47 68.2864 150.022 68.1883 149.63 68.0762C149.238 67.9642 148.846 67.8241 148.454 67.656C148.202 67.5859 147.964 67.5159 147.739 67.4458C147.515 67.3758 147.319 67.3337 147.137 67.3337C146.955 67.3337 146.773 67.3758 146.661 67.4458C146.535 67.5159 146.423 67.6139 146.283 67.74C146.115 67.8801 145.975 67.9922 145.863 68.0762C145.737 68.1603 145.583 68.2023 145.387 68.2023H144.812V62.9908H145.387C145.625 62.9908 145.821 63.0468 145.961 63.1729C146.101 63.299 146.255 63.5232 146.395 63.8734C146.801 64.9101 147.501 65.6946 148.51 66.227C149.518 66.7594 150.75 67.0255 152.193 67.0255C153.635 67.0255 154.798 66.7173 155.624 66.1149C156.436 65.5125 156.842 64.6299 156.842 63.4951C156.842 62.3604 156.66 62.0942 156.31 61.5058C155.946 60.9034 155.358 60.329 154.546 59.7686C153.733 59.2082 152.599 58.5778 151.171 57.8773C149.7 57.2189 148.51 56.5604 147.585 55.902C146.661 55.2435 146.003 54.5571 145.583 53.8426C145.163 53.1281 144.953 52.3296 144.953 51.433C144.953 50.5364 145.219 49.5837 145.751 48.8412C146.283 48.0987 147.039 47.5243 148.034 47.118C149.028 46.7118 150.19 46.5156 151.535 46.5156C152.879 46.5156 153.593 46.6557 154.462 46.9499C155.33 47.2441 156.086 47.6784 156.702 48.2668L155.05 47.4122H158.131V51.3909H157.557C157.361 51.3909 157.179 51.3349 157.025 51.2228C156.87 51.1107 156.716 50.8866 156.576 50.5644C156.114 49.5977 155.47 48.9112 154.63 48.505C153.789 48.0987 152.851 47.8886 151.787 47.8886C150.722 47.8886 150.036 48.0146 149.378 48.2528C148.72 48.491 148.23 48.8552 147.88 49.3175C147.529 49.7938 147.361 50.3402 147.361 50.9566C147.361 51.5731 147.529 52.1755 147.88 52.7078C148.23 53.2402 148.79 53.7585 149.546 54.2769C150.302 54.7952 151.325 55.3696 152.613 55.986C154.266 56.7566 155.582 57.4851 156.576 58.1715C157.571 58.872 158.285 59.6005 158.733 60.385C159.181 61.1696 159.405 62.0382 159.405 63.0048C159.405 63.9715 159.125 65.1202 158.565 65.9328C158.005 66.7453 157.221 67.3618 156.198 67.8101C155.176 68.2444 153.986 68.4685 152.627 68.4685C151.269 68.4685 151.465 68.4265 150.961 68.3424L150.975 68.3704Z" fill="#C48A0A"/>
<path d="M163.368 73.5408H161.772V73.0364C161.772 72.7983 161.814 72.6302 161.898 72.5321C161.982 72.42 162.164 72.308 162.43 72.1819C162.668 72.0978 162.836 71.9857 162.934 71.8456C163.032 71.7055 163.088 71.5374 163.088 71.3273V58.2844C163.088 58.1303 163.06 57.9762 162.99 57.8501C162.92 57.7241 162.836 57.626 162.724 57.57C162.612 57.5139 162.5 57.4579 162.36 57.4299C162.262 57.3738 162.164 57.3178 162.038 57.2477C161.912 57.1777 161.828 57.0936 161.772 56.9956C161.716 56.8975 161.688 56.7574 161.688 56.5613V56.0569L165.049 55.8748V58.0883L165.301 59.4752V65.8356L165.329 66.48V71.3413C165.329 71.5514 165.385 71.7336 165.497 71.8737C165.609 72.0138 165.805 72.1258 166.071 72.1959C166.407 72.322 166.617 72.434 166.729 72.5461C166.841 72.6582 166.897 72.8263 166.897 73.0505V73.5548H163.34L163.368 73.5408ZM166.589 68.021C165.931 67.7128 165.399 67.2785 164.993 66.7322C164.586 66.1858 164.362 65.5834 164.306 64.8969L165.329 64.7568C165.329 65.1911 165.455 65.5834 165.735 65.9476C166.001 66.3119 166.379 66.6061 166.855 66.8442C167.331 67.0824 167.85 67.1945 168.424 67.1945C168.998 67.1945 169.768 66.9843 170.328 66.5781C170.875 66.1718 171.309 65.5694 171.603 64.7989C171.897 64.0283 172.051 63.1177 172.051 62.053C172.051 60.9883 171.897 60.0917 171.603 59.3211C171.295 58.5506 170.875 57.9622 170.342 57.5559C169.796 57.1497 169.152 56.9395 168.396 56.9395C167.639 56.9395 167.359 57.0516 166.869 57.2898C166.379 57.5279 166.001 57.8221 165.735 58.2144C165.469 58.5926 165.329 58.9989 165.329 59.4332L164.502 59.2791C164.558 58.6067 164.783 57.9902 165.175 57.4579C165.567 56.9255 166.099 56.5052 166.771 56.183C167.443 55.8748 168.172 55.7207 168.956 55.7207C169.74 55.7207 170.973 55.9729 171.799 56.4912C172.639 57.0096 173.283 57.7381 173.759 58.6907C174.222 59.6434 174.46 60.7361 174.46 61.9689C174.46 63.2018 174.222 64.3926 173.759 65.3732C173.297 66.3679 172.625 67.1244 171.771 67.6568C170.917 68.1892 169.936 68.4553 168.844 68.4553C167.751 68.4553 167.247 68.3012 166.589 67.993V68.021Z" fill="#C48A0A"/>
<path d="M178.62 68.1181C178.088 67.866 177.667 67.5157 177.387 67.0674C177.093 66.6191 176.953 66.0587 176.953 65.4003C176.953 64.7418 177.275 63.7051 177.905 63.0607C178.536 62.4163 179.46 61.9119 180.664 61.5617C181.869 61.2114 183.353 61.0433 185.104 61.0433L185.02 62.1921C183.787 62.1921 182.751 62.3042 181.897 62.5424C181.042 62.7805 180.398 63.1167 179.95 63.565C179.516 64.0134 179.292 64.5597 179.292 65.1901C179.292 65.8206 179.474 66.2128 179.852 66.5631C180.23 66.9133 180.72 67.0814 181.323 67.0814C181.925 67.0814 182.429 66.9413 182.919 66.6752C183.409 66.409 183.815 66.0447 184.109 65.5824C184.418 65.1201 184.558 64.6298 184.558 64.1114L185.3 64.4617C185.202 65.2462 184.936 65.9467 184.502 66.5491C184.067 67.1515 183.493 67.6278 182.779 67.978C182.079 68.3283 181.295 68.4964 180.426 68.4964C179.558 68.4964 179.138 68.3703 178.606 68.1181H178.62ZM184.81 65.0501L184.558 64.7559V60.581C184.558 59.3202 184.306 58.3815 183.815 57.7651C183.325 57.1487 182.555 56.8405 181.533 56.8405C180.51 56.8405 180.496 56.9245 180.034 57.0786C179.572 57.2328 179.152 57.4709 178.816 57.7791L178.872 56.7844C179.208 57.0366 179.446 57.3028 179.586 57.569C179.726 57.8492 179.81 58.1294 179.81 58.4376C179.81 58.7458 179.754 58.9699 179.642 59.1941C179.53 59.4182 179.362 59.5863 179.152 59.7124C178.928 59.8385 178.69 59.8946 178.438 59.8946C178.186 59.8946 177.919 59.8385 177.709 59.7124C177.499 59.5863 177.331 59.4182 177.219 59.2081C177.093 58.9979 177.037 58.7598 177.037 58.4796C177.037 57.9753 177.247 57.527 177.653 57.1067C178.059 56.6864 178.648 56.3502 179.39 56.098C180.132 55.8458 180.944 55.7197 181.827 55.7197C182.709 55.7197 183.843 55.9018 184.586 56.2661C185.314 56.6303 185.874 57.1767 186.266 57.8772C186.658 58.5917 186.84 59.4603 186.84 60.4689V65.9467C186.84 66.1848 186.882 66.3529 186.966 66.479C187.05 66.6051 187.218 66.7172 187.471 66.8012C187.723 66.9273 187.905 67.0394 188.003 67.1515C188.101 67.2636 188.157 67.4317 188.157 67.6558L188.185 68.1602H186.588L184.908 68.1882L184.824 65.008L184.81 65.0501Z" fill="#C48A0A"/>
<path d="M42.4263 41.9341C39.0372 41.9341 35.8582 43.251 33.4634 45.6466C32.1049 47.0056 31.0966 48.6167 30.4664 50.3819V46.109C30.4664 43.5312 29.9622 41.0235 28.9679 38.6699C28.0016 36.3864 26.6291 34.355 24.8786 32.5898C23.128 30.8386 21.0833 29.4517 18.8006 28.499C16.4478 27.5043 13.941 27 11.3641 27H11V39.4685C11 44.1476 12.7086 48.6447 15.8036 52.1471C18.8706 55.6074 23.086 57.8489 27.6515 58.4373L28.0576 58.4934V46.123C28.0576 41.6679 26.321 37.4651 23.17 34.313C23.0299 34.1729 22.8059 34.1729 22.6658 34.313C22.5258 34.4531 22.5258 34.6772 22.6658 34.8173C25.6768 37.8293 27.3434 41.8501 27.3434 46.123V57.6668C23.1 57.0224 19.2067 54.9069 16.3498 51.6707C13.3668 48.3085 11.7282 43.9795 11.7282 39.4685V27.7145C16.5038 27.7985 20.9853 29.7038 24.3744 33.0941C27.8475 36.5685 29.7662 41.1916 29.7662 46.109V56.3639V58.2272V67.0532C29.7662 70.6256 32.6651 73.5396 36.2503 73.5396H38.505C38.7011 73.5396 38.8691 73.3855 38.8691 73.1753C38.8691 72.9652 38.7151 72.8111 38.505 72.8111H36.2503C33.0712 72.8111 30.4944 70.2333 30.4944 67.0532V62.5001V54.6127C30.4944 51.4186 31.7408 48.4065 33.9955 46.151C36.1663 43.9795 39.0372 42.7467 42.0902 42.6486V50.2418C42.0902 53.1697 41.0259 55.9857 39.0792 58.1711C37.3146 60.1605 35.5641 61.5895 32.8752 62.0518V54.6127C32.8752 51.8949 33.8975 49.4993 35.9142 47.4819C36.0542 47.3418 36.0542 47.1176 35.9142 46.9775C35.7741 46.8375 35.5501 46.8375 35.41 46.9775C33.2533 49.135 32.1609 51.6987 32.1609 54.6127V62.8783L32.5671 62.8223C35.7181 62.416 37.6647 60.861 39.6254 58.6475C41.6841 56.3219 42.8184 53.3379 42.8184 50.2418V41.9201H42.4543L42.4263 41.9341Z" fill="#C48A0A"/>
</g>
</svg>
