<svg width="200" height="100" viewBox="0 0 200 100" fill="none" xmlns="http://www.w3.org/2000/svg">
<rect width="200" height="100" fill="white"/>
<g style="mix-blend-mode:luminosity">
<path fill-rule="evenodd" clip-rule="evenodd" d="M17.3409 65.1411C13.4194 61.2078 11 55.7595 11 49.7532C11 37.7404 20.6908 28 32.6548 28C44.6188 28 54.3097 37.7404 54.3097 49.7532C54.3097 61.7659 44.6188 71.5063 32.6548 71.5063C20.6908 71.5063 21.2625 69.0745 17.3409 65.1279V65.1411Z" fill="#272D61" stroke="white" stroke-width="0.7" stroke-miterlimit="22.9"/>
<path fill-rule="evenodd" clip-rule="evenodd" d="M18.4438 63.7324C14.9742 60.2508 12.834 55.4404 12.834 50.125C12.834 39.4943 21.4082 30.8701 31.9897 30.8701C49.0317 30.8701 45.2431 46.8029 35.9245 46.8029C26.6059 46.8029 29.3709 44.411 28.4404 41.1554C23.6149 42.9493 20.1852 47.6002 20.1852 53.0751C20.1852 58.5499 21.5943 59.7592 23.8807 62.0581C26.1672 64.3569 29.331 65.7788 32.8139 65.7788C36.2967 65.7788 35.2332 65.6061 36.3499 65.2738C32.3619 73.3001 22.1925 67.5063 18.4438 63.7457V63.7324Z" fill="white"/>
<path d="M102.658 68.8888L103.562 68.7426C103.642 69.128 103.881 69.3273 104.28 69.3273C104.679 69.3273 104.652 69.2874 104.759 69.221C104.865 69.1413 104.918 69.0482 104.918 68.9286C104.918 68.809 104.891 68.7825 104.852 68.7293C104.798 68.6762 104.705 68.6363 104.559 68.6097C103.828 68.437 103.363 68.2642 103.15 68.1048C102.897 67.9054 102.778 67.6397 102.778 67.2809C102.778 66.9221 102.897 66.6563 103.137 66.4437C103.376 66.2311 103.735 66.1248 104.2 66.1248C104.665 66.1248 104.985 66.2045 105.211 66.364C105.437 66.5234 105.609 66.7759 105.689 67.1214L104.852 67.2942C104.772 66.9885 104.559 66.8424 104.214 66.8424C103.868 66.8424 103.841 66.8689 103.748 66.9221C103.655 66.9752 103.615 67.055 103.615 67.148C103.615 67.241 103.655 67.2942 103.748 67.3473C103.828 67.4005 104.094 67.4935 104.546 67.5998C105.051 67.7194 105.383 67.8788 105.569 68.0649C105.742 68.2509 105.835 68.4901 105.835 68.7825C105.835 69.0748 105.702 69.4336 105.423 69.6728C105.144 69.912 104.772 70.0183 104.293 70.0183C103.815 70.0183 103.496 69.9253 103.217 69.7259C102.937 69.5266 102.765 69.2476 102.671 68.8755L102.658 68.8888ZM108.162 66.2311V67.0151H107.55V68.5167C107.55 68.8356 107.55 69.0349 107.577 69.0748C107.617 69.1678 107.683 69.221 107.803 69.221C107.922 69.221 108.002 69.1944 108.162 69.128L108.241 69.8987C108.029 69.9917 107.803 70.0449 107.537 70.0449C107.271 70.0449 107.125 69.9917 106.992 69.8987C106.859 69.8057 106.766 69.6595 106.713 69.4735C106.673 69.3406 106.659 69.0615 106.659 68.6496V67.0284H106.247V66.2444H106.659V65.5002L107.563 64.9288V66.2444H108.175L108.162 66.2311ZM110.741 68.7692L111.631 68.9286C111.512 69.3007 111.325 69.5798 111.073 69.7658C110.82 69.9518 110.515 70.0316 110.156 70.0316C109.797 70.0316 109.265 69.8854 108.999 69.5798C108.68 69.2343 108.521 68.7426 108.521 68.1048C108.521 67.4669 108.68 66.9885 109.012 66.6164C109.292 66.2975 109.637 66.1381 110.076 66.1381C110.515 66.1381 110.94 66.2975 111.219 66.6164C111.538 66.9885 111.698 67.5333 111.698 68.2509V68.3572H109.451C109.451 68.6496 109.531 68.8755 109.664 69.0349C109.81 69.1944 109.97 69.2741 110.169 69.2741C110.461 69.2741 110.647 69.1014 110.741 68.7426V68.7692ZM110.794 67.7725C110.794 67.4802 110.714 67.2676 110.594 67.1214C110.461 66.9752 110.315 66.9088 110.129 66.9088C109.943 66.9088 109.783 66.9885 109.65 67.1347C109.518 67.2942 109.451 67.5068 109.451 67.7858H110.794V67.7725ZM112.336 66.2311H113.16V66.736C113.306 66.5367 113.466 66.3905 113.652 66.2842C113.825 66.1912 114.024 66.1381 114.223 66.1381C114.423 66.1381 114.635 66.1912 114.795 66.2842C114.955 66.3773 115.087 66.5367 115.181 66.736C115.327 66.5367 115.486 66.3905 115.659 66.2842C115.832 66.1912 116.018 66.1381 116.204 66.1381C116.39 66.1381 116.629 66.1912 116.802 66.2842C116.975 66.3773 117.095 66.5234 117.188 66.7095C117.268 66.8955 117.321 67.1746 117.321 67.5599V69.9386H116.417V67.8124C116.417 67.4403 116.377 67.1879 116.31 67.0683C116.244 66.9487 116.111 66.8822 115.952 66.8822C115.792 66.8822 115.593 66.9619 115.473 67.1347C115.353 67.3074 115.287 67.6397 115.287 68.1446V69.9386H114.383V67.8921C114.383 67.4935 114.356 67.2277 114.303 67.1081C114.237 66.9487 114.104 66.8822 113.904 66.8822C113.705 66.8822 113.652 66.9221 113.545 67.0018C113.439 67.0815 113.359 67.2011 113.306 67.3473C113.253 67.5068 113.24 67.7593 113.24 68.1313V69.9386H112.336V66.2178V66.2311ZM121.163 67.3207L120.285 67.4935C120.219 67.1081 120.019 66.9088 119.674 66.9088C119.328 66.9088 119.275 66.9885 119.142 67.1613C119.009 67.334 118.943 67.6131 118.943 68.0117C118.943 68.4104 119.009 68.7692 119.142 68.9419C119.275 69.128 119.461 69.221 119.687 69.221C119.913 69.221 119.993 69.1678 120.099 69.0615C120.205 68.9552 120.285 68.7692 120.338 68.5034L121.216 68.6629C121.03 69.5665 120.511 70.005 119.647 70.005C118.783 70.005 118.69 69.819 118.424 69.4336C118.158 69.0482 118.025 68.5964 118.025 68.0649C118.025 67.5334 118.172 66.9354 118.477 66.6032C118.783 66.271 119.169 66.0982 119.66 66.0982C120.152 66.0982 120.378 66.1912 120.631 66.3773C120.883 66.5633 121.056 66.8689 121.176 67.2809L121.163 67.3207ZM123.808 68.7692L124.699 68.9286C124.579 69.3007 124.393 69.5798 124.14 69.7658C123.888 69.9518 123.582 70.0316 123.223 70.0316C122.864 70.0316 122.332 69.8854 122.066 69.5798C121.747 69.2343 121.588 68.7426 121.588 68.1048C121.588 67.4669 121.747 66.9885 122.066 66.6164C122.346 66.2975 122.691 66.1381 123.13 66.1381C123.569 66.1381 123.994 66.2975 124.273 66.6164C124.592 66.9885 124.752 67.5333 124.752 68.2509V68.3572H122.505C122.505 68.6496 122.585 68.8755 122.718 69.0349C122.864 69.1944 123.024 69.2741 123.223 69.2741C123.515 69.2741 123.702 69.1014 123.795 68.7426L123.808 68.7692ZM123.848 67.7725C123.848 67.4802 123.768 67.2676 123.648 67.1214C123.515 66.9752 123.369 66.9088 123.183 66.9088C122.997 66.9088 122.837 66.9885 122.705 67.1347C122.572 67.2942 122.505 67.5068 122.505 67.7858H123.848V67.7725ZM125.47 69.9518V64.8092H126.36V69.9518H125.47ZM127.291 69.9518V64.8092H128.181V69.9518H127.291ZM132.688 69.9518V64.8092H133.592V66.6563C133.725 66.4836 133.884 66.3507 134.044 66.271C134.203 66.1779 134.389 66.1381 134.575 66.1381C134.974 66.1381 135.307 66.2975 135.586 66.6297C135.865 66.9487 135.998 67.427 135.998 68.0649C135.998 68.7027 135.852 69.1811 135.572 69.5266C135.293 69.8721 134.961 70.0316 134.575 70.0316C134.19 70.0316 134.19 69.9784 134.004 69.8721C133.818 69.7658 133.658 69.6063 133.525 69.407V69.9518H132.688ZM133.578 68.0117C133.578 68.3307 133.618 68.5831 133.685 68.7426C133.751 68.9153 133.844 69.0349 133.977 69.128C134.097 69.221 134.23 69.2608 134.376 69.2608C134.575 69.2608 134.735 69.1678 134.881 68.9818C135.014 68.7957 135.094 68.5034 135.094 68.1048C135.094 67.7061 135.027 67.3739 134.881 67.1879C134.735 67.0018 134.562 66.9088 134.349 66.9088C134.137 66.9088 133.964 67.0018 133.818 67.1879C133.672 67.3739 133.605 67.6529 133.605 68.025L133.578 68.0117ZM137.38 67.3606L136.569 67.2011C136.663 66.8291 136.835 66.55 137.061 66.3905C137.287 66.2311 137.62 66.1381 138.045 66.1381C138.47 66.1381 138.71 66.1912 138.909 66.2842C139.109 66.3773 139.255 66.5101 139.334 66.6696C139.414 66.8291 139.467 67.1347 139.467 67.5732V68.7293C139.467 69.0482 139.467 69.2874 139.507 69.4469C139.534 69.6063 139.587 69.7791 139.667 69.9518H138.776L138.657 69.5399C138.497 69.6994 138.337 69.8322 138.165 69.912C137.992 69.9917 137.806 70.0316 137.606 70.0316C137.274 70.0316 137.008 69.9386 136.795 69.7259C136.583 69.5266 136.476 69.2608 136.476 68.9286C136.476 68.5964 136.516 68.53 136.609 68.3838C136.689 68.2243 136.822 68.1048 136.968 68.0117C137.128 67.9187 137.367 67.839 137.713 67.7593C138.125 67.6795 138.417 67.5865 138.577 67.5201C138.577 67.3074 138.563 67.1746 138.524 67.1081C138.497 67.0417 138.431 66.9885 138.351 66.9487C138.271 66.9088 138.138 66.8822 137.979 66.8822C137.819 66.8822 137.686 66.9221 137.593 66.9752C137.5 67.0417 137.42 67.1613 137.367 67.3473L137.38 67.3606ZM138.577 68.1579C138.457 68.1978 138.284 68.2509 138.045 68.3041C137.766 68.3705 137.593 68.437 137.5 68.5167C137.42 68.5964 137.367 68.7027 137.367 68.8223C137.367 68.9419 137.407 69.0881 137.513 69.1811C137.606 69.2741 137.726 69.3273 137.872 69.3273C138.018 69.3273 138.125 69.2874 138.244 69.2077C138.364 69.128 138.457 69.0349 138.497 68.9286C138.55 68.8223 138.563 68.623 138.563 68.3439V68.1446L138.577 68.1579ZM143.429 69.9518H142.525V68.0516C142.525 67.6662 142.512 67.4138 142.472 67.2942C142.432 67.1746 142.379 67.0683 142.286 67.0018C142.193 66.9354 142.086 66.8955 141.967 66.8955C141.847 66.8955 141.674 66.9354 141.554 67.0284C141.435 67.1214 141.342 67.241 141.302 67.3872C141.249 67.5466 141.222 67.839 141.222 68.2642V69.9518H140.331V66.2311H141.169V66.7759C141.315 66.5633 141.488 66.4038 141.661 66.2975C141.847 66.1912 142.046 66.1381 142.272 66.1381C142.498 66.1381 142.751 66.2045 142.937 66.3241C143.123 66.4437 143.243 66.6032 143.309 66.8025C143.376 67.0018 143.416 67.2676 143.416 67.6397V69.9518H143.429ZM144.306 69.9518V64.8092H145.21V67.5334L146.26 66.2178H147.364L146.207 67.5732L147.443 69.9386H146.486L145.636 68.2642L145.223 68.7426V69.9386H144.319L144.306 69.9518ZM147.962 65.7261V64.8092H148.853V65.7261H147.962ZM147.962 69.9518V66.2311H148.853V69.9518H147.962ZM152.854 69.9518H151.95V68.0516C151.95 67.6662 151.937 67.4138 151.897 67.2942C151.87 67.1746 151.804 67.0683 151.711 67.0018C151.618 66.9354 151.511 66.8955 151.392 66.8955C151.272 66.8955 151.099 66.9354 150.979 67.0284C150.86 67.1214 150.767 67.241 150.727 67.3872C150.674 67.5466 150.647 67.839 150.647 68.2642V69.9518H149.756V66.2311H150.594V66.7759C150.74 66.5633 150.913 66.4038 151.099 66.2975C151.285 66.1912 151.485 66.1381 151.711 66.1381C151.937 66.1381 152.189 66.2045 152.375 66.3241C152.561 66.4437 152.681 66.6032 152.747 66.8025C152.814 67.0018 152.854 67.2676 152.854 67.6397V69.9518ZM153.678 70.191L154.702 70.3239C154.715 70.4568 154.768 70.5498 154.848 70.6163C154.928 70.6694 155.047 70.696 155.22 70.696C155.393 70.696 155.579 70.6694 155.699 70.603C155.778 70.5631 155.845 70.4967 155.898 70.3904C155.938 70.2973 155.964 70.1246 155.964 69.8721V69.3273C155.832 69.5266 155.672 69.6861 155.512 69.7791C155.34 69.8854 155.154 69.9253 154.954 69.9253C154.582 69.9253 154.263 69.7658 154.01 69.4602C153.718 69.1147 153.572 68.6363 153.572 68.0383C153.572 67.4403 153.718 66.9221 153.984 66.6032C154.263 66.2842 154.595 66.1115 154.994 66.1115C155.393 66.1115 155.393 66.1646 155.566 66.2577C155.738 66.364 155.898 66.5101 156.031 66.7095V66.1912H156.868V69.5399C156.868 70.0714 156.815 70.4568 156.709 70.7093C156.603 70.9485 156.43 71.1345 156.204 71.2541C155.978 71.3737 155.659 71.4401 155.26 71.4401C154.861 71.4401 154.595 71.4003 154.369 71.3073C154.143 71.2142 153.97 71.0814 153.864 70.9086C153.744 70.7359 153.691 70.5232 153.691 70.2973V70.1777L153.678 70.191ZM154.476 68.0117C154.476 68.4104 154.542 68.7027 154.688 68.8755C154.835 69.0615 154.994 69.1545 155.193 69.1545C155.393 69.1545 155.592 69.0615 155.738 68.8755C155.898 68.6894 155.964 68.4104 155.964 68.0383C155.964 67.6662 155.898 67.3606 155.752 67.1746C155.606 66.9885 155.419 66.8955 155.207 66.8955C154.994 66.8955 154.821 66.9885 154.675 67.1746C154.529 67.3606 154.462 67.6397 154.462 68.0117H154.476ZM163.701 69.3273L163.156 70.0847C162.89 69.9386 162.638 69.7525 162.385 69.5C162.186 69.6994 161.986 69.8322 161.774 69.9253C161.561 70.005 161.308 70.0582 161.029 70.0582C160.471 70.0582 160.046 69.8987 159.78 69.5931C159.514 69.2874 159.381 68.9419 159.381 68.5566C159.381 67.8921 159.74 67.3739 160.444 66.9752C160.125 66.5633 159.966 66.1912 159.966 65.8457C159.966 65.5002 160.085 65.2477 160.325 65.0351C160.564 64.8225 160.883 64.7295 161.268 64.7295C161.654 64.7295 161.96 64.8358 162.199 65.0484C162.438 65.261 162.558 65.5401 162.558 65.8856C162.558 66.2311 162.505 66.3108 162.372 66.4969C162.252 66.6829 162.026 66.8822 161.707 67.1214L162.359 68.0649C162.438 67.9187 162.491 67.7194 162.558 67.4802L163.369 67.6795C163.249 68.1845 163.103 68.53 162.97 68.7426C163.063 68.8489 163.196 68.9552 163.356 69.0748C163.515 69.1944 163.635 69.2741 163.714 69.314L163.701 69.3273ZM161.268 66.5234L161.508 66.3241C161.694 66.1779 161.774 66.0185 161.774 65.8723C161.774 65.7261 161.734 65.6198 161.641 65.5401C161.548 65.4604 161.441 65.4072 161.295 65.4072C161.149 65.4072 161.056 65.4471 160.963 65.5135C160.883 65.5932 160.83 65.673 160.83 65.7926C160.83 65.9122 160.896 66.0716 161.029 66.2444L161.255 66.5234H161.268ZM160.91 67.5998C160.71 67.7061 160.564 67.8523 160.458 68.0117C160.351 68.1712 160.298 68.3439 160.298 68.5167C160.298 68.6894 160.365 68.9153 160.497 69.0349C160.63 69.1678 160.79 69.2343 161.003 69.2343C161.215 69.2343 161.548 69.1014 161.827 68.8356L160.91 67.5998ZM166.041 69.9518V64.8092H166.945V66.6563C167.078 66.4836 167.237 66.3507 167.397 66.271C167.556 66.1779 167.742 66.1381 167.928 66.1381C168.327 66.1381 168.66 66.2975 168.939 66.6297C169.218 66.9487 169.351 67.427 169.351 68.0649C169.351 68.7027 169.205 69.1811 168.925 69.5266C168.646 69.8721 168.314 70.0316 167.928 70.0316C167.543 70.0316 167.543 69.9784 167.357 69.8721C167.171 69.7658 167.011 69.6063 166.878 69.407V69.9518H166.041ZM166.931 68.0117C166.931 68.3307 166.971 68.5831 167.038 68.7426C167.104 68.9153 167.197 69.0349 167.33 69.128C167.45 69.221 167.583 69.2608 167.729 69.2608C167.928 69.2608 168.088 69.1678 168.234 68.9818C168.367 68.7957 168.447 68.5034 168.447 68.1048C168.447 67.7061 168.38 67.3739 168.234 67.1879C168.088 67.0018 167.915 66.9088 167.702 66.9088C167.49 66.9088 167.317 67.0018 167.171 67.1879C167.024 67.3739 166.958 67.6529 166.958 68.025L166.931 68.0117ZM172.036 68.7692L172.927 68.9286C172.807 69.3007 172.621 69.5798 172.368 69.7658C172.116 69.9518 171.81 70.0316 171.451 70.0316C171.092 70.0316 170.561 69.8854 170.295 69.5798C169.976 69.2343 169.816 68.7426 169.816 68.1048C169.816 67.4669 169.976 66.9885 170.308 66.6164C170.587 66.2975 170.933 66.1381 171.371 66.1381C171.81 66.1381 172.235 66.2975 172.515 66.6164C172.834 66.9885 172.993 67.5333 172.993 68.2509V68.3572H170.747C170.747 68.6496 170.826 68.8755 170.959 69.0349C171.106 69.1944 171.265 69.2741 171.464 69.2741C171.757 69.2741 171.943 69.1014 172.036 68.7426V68.7692ZM172.089 67.7725C172.089 67.4802 172.009 67.2676 171.89 67.1214C171.757 66.9752 171.611 66.9088 171.425 66.9088C171.238 66.9088 171.079 66.9885 170.946 67.1347C170.813 67.2942 170.747 67.5068 170.747 67.7858H172.089V67.7725ZM173.272 66.2311H174.229L175.027 68.8755L175.825 66.2311H176.755L175.559 69.819L175.333 70.5232C175.226 70.789 175.133 70.9751 175.027 71.0947C174.921 71.2142 174.801 71.3073 174.642 71.3737C174.482 71.4401 174.296 71.4667 174.07 71.4667C173.844 71.4667 173.724 71.4401 173.565 71.4136L173.485 70.6428C173.631 70.6694 173.751 70.6827 173.857 70.6827C174.03 70.6827 174.163 70.6296 174.283 70.5232C174.389 70.4169 174.482 70.2309 174.549 69.9651L173.259 66.2311H173.272ZM177.127 68.0383C177.127 67.6795 177.207 67.3473 177.367 67.0417C177.526 66.736 177.739 66.5234 177.992 66.364C178.244 66.2178 178.537 66.1381 178.869 66.1381C179.414 66.1381 179.839 66.3374 180.145 66.7095C180.451 67.0948 180.61 67.5466 180.61 68.0649C180.61 68.5831 180.531 68.7958 180.371 69.1014C180.211 69.407 179.999 69.6462 179.733 69.7924C179.467 69.9518 179.175 70.0316 178.869 70.0316C178.364 70.0316 177.952 69.8588 177.619 69.5133C177.287 69.1678 177.127 68.6762 177.127 68.025V68.0383ZM178.045 68.0915C178.045 68.4635 178.124 68.7559 178.284 68.9419C178.443 69.1413 178.643 69.2343 178.882 69.2343C179.121 69.2343 179.294 69.1413 179.454 68.9419C179.613 68.7426 179.693 68.4635 179.693 68.0782C179.693 67.6928 179.613 67.427 179.454 67.2277C179.294 67.0284 179.095 66.9354 178.869 66.9354C178.643 66.9354 178.443 67.0284 178.284 67.2277C178.124 67.427 178.045 67.7061 178.045 68.0782V68.0915ZM184.399 69.9518H183.495V68.0516C183.495 67.6662 183.482 67.4138 183.442 67.2942C183.415 67.1746 183.349 67.0683 183.256 67.0018C183.163 66.9354 183.056 66.8955 182.937 66.8955C182.817 66.8955 182.644 66.9354 182.525 67.0284C182.405 67.1214 182.312 67.241 182.272 67.3872C182.219 67.5466 182.192 67.839 182.192 68.2642V69.9518H181.302V66.2311H182.139V66.7759C182.285 66.5633 182.458 66.4038 182.631 66.2975C182.817 66.1912 183.016 66.1381 183.242 66.1381C183.468 66.1381 183.721 66.2045 183.907 66.3241C184.093 66.4437 184.213 66.6032 184.279 66.8025C184.346 67.0018 184.386 67.2676 184.386 67.6397V69.9518H184.399ZM188.413 69.9518H187.576V69.407C187.443 69.6196 187.284 69.7791 187.084 69.8854C186.898 69.9917 186.712 70.0449 186.513 70.0449C186.127 70.0449 185.808 69.8721 185.529 69.5399C185.25 69.1944 185.103 68.716 185.103 68.0782C185.103 67.4403 185.236 66.962 185.516 66.643C185.795 66.3241 186.127 66.1514 186.526 66.1514C186.925 66.1514 186.898 66.1912 187.058 66.2842C187.217 66.364 187.377 66.4969 187.51 66.6696V64.8225H188.413V69.9651V69.9518ZM186.021 68.0117C186.021 68.3439 186.047 68.5964 186.114 68.7692C186.18 68.9286 186.273 69.0615 186.38 69.1413C186.499 69.221 186.632 69.2608 186.778 69.2608C186.925 69.2608 187.151 69.1678 187.297 68.9685C187.443 68.7825 187.51 68.4901 187.51 68.1048C187.51 67.7194 187.443 67.3739 187.297 67.1746C187.151 66.9885 186.978 66.8955 186.752 66.8955C186.526 66.8955 186.366 66.9885 186.22 67.1746C186.074 67.3606 186.007 67.6397 186.007 68.0117H186.021Z" fill="#211E1F"/>
<path d="M78.1716 53.1945C78.1716 53.8323 78.0253 54.51 77.7063 55.2542C77.4005 55.9983 76.9087 56.7159 76.2307 57.4335C75.5661 58.1378 74.7153 58.7225 73.6784 59.161C72.6415 59.6128 71.4318 59.8254 70.0493 59.8254C68.6668 59.8254 68.0553 59.7324 67.1913 59.5331C66.3405 59.3337 65.5562 59.0281 64.8516 58.6029C64.1471 58.1776 63.509 57.6328 62.9241 56.9285C62.4057 56.304 61.9537 55.5997 61.5815 54.8289C61.2093 54.0582 60.9301 53.2211 60.744 52.344C60.5579 51.467 60.4648 50.5235 60.4648 49.5402C60.4648 47.9323 60.6908 46.4971 61.1561 45.2214C61.6214 43.9457 62.286 42.8694 63.1501 41.9658C64.0142 41.0621 65.0377 40.3711 66.1943 39.9061C67.3641 39.441 68.6004 39.2018 69.9164 39.2018C71.2324 39.2018 72.9473 39.5207 74.2101 40.1718C75.4597 40.823 76.4301 41.607 77.0948 42.5637C77.7595 43.5072 78.0918 44.4108 78.0918 45.248C78.0918 46.0852 77.919 46.1117 77.5999 46.4705C77.2809 46.8293 76.8821 47.0021 76.4168 47.0021C75.9516 47.0021 75.5129 46.8825 75.2603 46.63C75.0077 46.3908 74.7153 45.9656 74.3963 45.3676C73.8645 44.3843 73.253 43.6401 72.5485 43.1484C71.8306 42.6568 70.9666 42.4176 69.9297 42.4176C68.268 42.4176 66.9653 43.0554 65.9816 44.3045C64.9979 45.5669 64.506 47.3609 64.506 49.6863C64.506 52.0118 64.7187 52.5301 65.1574 53.5533C65.5828 54.5898 66.2076 55.3605 66.9919 55.8654C67.7895 56.3704 68.72 56.6229 69.7835 56.6229C70.8469 56.6229 71.9104 56.3305 72.708 55.7591C73.5056 55.1877 74.1038 54.3373 74.5159 53.2211C74.6887 52.7028 74.9014 52.2643 75.154 51.9454C75.4065 51.6132 75.8053 51.4537 76.3637 51.4537C76.922 51.4537 77.2543 51.6264 77.5999 51.9587C77.9456 52.2909 78.1184 52.7161 78.1184 53.2078L78.1716 53.1945ZM85.2037 54.4702V57.5797C85.2037 58.3371 85.0309 58.8952 84.672 59.2673C84.3264 59.6394 83.8744 59.8387 83.3294 59.8387C82.7843 59.8387 82.359 59.6526 82.0133 59.2673C81.6677 58.8819 81.4949 58.3238 81.4949 57.5797V47.228C81.4949 45.5536 82.0931 44.7297 83.3028 44.7297C84.5125 44.7297 84.353 44.9291 84.6321 45.3144C84.9113 45.6998 85.0575 46.2845 85.0841 47.0419C85.5228 46.2845 85.9747 45.6998 86.44 45.3144C86.9053 44.9291 87.5301 44.7297 88.3011 44.7297C89.0721 44.7297 89.8298 44.9291 90.5609 45.3144C91.2921 45.6998 91.651 46.2181 91.651 46.8692C91.651 47.5203 91.5048 47.6931 91.1857 47.9854C90.88 48.2778 90.5344 48.4239 90.1754 48.4239C89.8165 48.4239 89.7102 48.3442 89.1917 48.1714C88.6733 47.9987 88.208 47.919 87.8092 47.919C87.4104 47.919 86.8255 48.0651 86.4799 48.3442C86.1343 48.6365 85.8684 49.0618 85.6823 49.6199C85.4962 50.178 85.3633 50.8557 85.2835 51.6264C85.217 52.3972 85.1771 53.3406 85.1771 54.4569L85.2037 54.4702ZM97.088 60.2905L97.4203 59.4666L92.874 47.9455C92.5948 47.2811 92.4486 46.8027 92.4486 46.4971C92.4486 46.1915 92.5284 45.8858 92.6879 45.6068C92.8474 45.341 93.0734 45.1151 93.3525 44.9557C93.6317 44.7962 93.9242 44.7032 94.2432 44.7032C94.7749 44.7032 95.1737 44.8759 95.4396 45.2081C95.7188 45.5536 95.958 46.032 96.1574 46.6699L99.2814 55.8123L102.246 47.3077C102.485 46.6167 102.698 46.0719 102.884 45.6865C103.07 45.3012 103.283 45.0354 103.482 44.9025C103.695 44.7696 104 44.7032 104.386 44.7032C104.772 44.7032 104.931 44.7829 105.197 44.9291C105.449 45.0885 105.649 45.2879 105.795 45.5403C105.928 45.7928 106.008 46.0586 106.008 46.3376C105.968 46.5104 105.915 46.7496 105.835 47.0685C105.755 47.3874 105.649 47.7064 105.529 48.0386L100.704 60.729C100.292 61.8452 99.8796 62.7223 99.4941 63.3601C99.0953 63.998 98.5635 64.4896 97.9122 64.8218C97.2608 65.1673 96.3834 65.3268 95.2668 65.3268C94.1501 65.3268 93.3658 65.2072 92.8341 64.968C92.2891 64.7288 92.0232 64.3036 92.0232 63.679C92.0232 63.0545 92.1561 62.9216 92.4087 62.6957C92.6613 62.4698 93.0468 62.3502 93.5519 62.3502C94.0571 62.3502 93.9507 62.3768 94.1368 62.4299C94.3761 62.4831 94.5755 62.5097 94.7483 62.5097C95.1737 62.5097 95.5061 62.4432 95.7453 62.3236C95.9846 62.204 96.2106 61.9781 96.3967 61.6592C96.5961 61.3403 96.8088 60.8885 97.0614 60.2772L97.088 60.2905ZM122.558 52.2776C122.558 53.3805 122.385 54.4037 122.04 55.3339C121.694 56.2641 121.202 57.0747 120.551 57.7391C119.899 58.4035 119.128 58.9218 118.224 59.2806C117.32 59.6394 116.31 59.8254 115.18 59.8254C114.05 59.8254 113.053 59.6394 112.163 59.2806C111.272 58.9218 110.501 58.4035 109.836 57.7258C109.185 57.0481 108.68 56.2508 108.347 55.3339C108.015 54.4037 107.842 53.3938 107.842 52.2776C107.842 51.1613 108.015 50.1248 108.361 49.1814C108.706 48.2512 109.198 47.4539 109.836 46.7895C110.474 46.125 111.245 45.6201 112.163 45.2613C113.08 44.9025 114.077 44.7165 115.18 44.7165C116.284 44.7165 117.307 44.9025 118.224 45.2613C119.142 45.6201 119.913 46.1383 120.564 46.816C121.215 47.4937 121.707 48.291 122.053 49.2079C122.385 50.1381 122.558 51.1481 122.558 52.2643V52.2776ZM118.849 52.2776C118.849 50.7627 118.517 49.58 117.852 48.7429C117.187 47.9057 116.297 47.4805 115.18 47.4805C114.064 47.4805 113.824 47.6665 113.266 48.0519C112.721 48.4239 112.296 48.982 111.99 49.7129C111.684 50.4571 111.538 51.3075 111.538 52.2909C111.538 53.2742 111.684 54.1114 111.976 54.8422C112.269 55.5731 112.694 56.1312 113.239 56.5166C113.784 56.9019 114.436 57.088 115.167 57.088C116.284 57.088 117.174 56.6628 117.839 55.8123C118.504 54.9618 118.836 53.7925 118.836 52.2909L118.849 52.2776ZM128.088 47.0419L131.079 55.4801L134.296 46.6699C134.549 45.9656 134.801 45.4606 135.04 45.1683C135.28 44.8759 135.652 44.7297 136.157 44.7297C136.662 44.7297 137.021 44.8892 137.353 45.2081C137.686 45.5271 137.845 45.8858 137.845 46.3111C137.845 46.7363 137.819 46.6699 137.752 46.8825C137.686 47.0951 137.633 47.3077 137.553 47.4937C137.473 47.6798 137.38 47.9057 137.287 48.1449L133.738 56.995C133.645 57.2474 133.512 57.5664 133.352 57.965C133.193 58.3504 133.02 58.6826 132.82 58.9616C132.621 59.2407 132.395 59.4533 132.103 59.6128C131.823 59.7722 131.478 59.8387 131.066 59.8387C130.654 59.8387 130.122 59.7191 129.816 59.4799C129.51 59.2407 129.271 58.9749 129.125 58.6959C128.979 58.4168 128.726 57.8454 128.367 57.0083L124.844 48.2512C124.765 48.0386 124.672 47.8127 124.592 47.6C124.499 47.3874 124.432 47.1615 124.379 46.9356C124.313 46.7097 124.286 46.5104 124.286 46.3509C124.286 46.0985 124.366 45.846 124.512 45.5935C124.658 45.341 124.871 45.1417 125.15 44.9822C125.416 44.8228 125.709 44.743 126.028 44.743C126.639 44.743 127.064 44.9158 127.29 45.2746C127.516 45.6334 127.782 46.2181 128.048 47.0552L128.088 47.0419ZM149.849 57.7391C148.959 58.4301 148.081 58.9616 147.257 59.3071C146.42 59.6526 145.476 59.8387 144.452 59.8387C143.429 59.8387 142.671 59.6526 141.953 59.2673C141.235 58.8952 140.677 58.3902 140.291 57.7391C139.906 57.088 139.706 56.397 139.706 55.6395C139.706 54.8821 140.025 53.7526 140.663 53.035C141.302 52.3174 142.179 51.8391 143.309 51.5999C143.535 51.5467 144.12 51.4271 145.05 51.2278C145.981 51.0285 146.778 50.8557 147.443 50.6963C148.108 50.5368 148.826 50.3375 149.597 50.1116C149.557 49.1282 149.357 48.4106 149.012 47.9588C148.666 47.4937 147.948 47.2678 146.845 47.2678C145.742 47.2678 145.197 47.4007 144.731 47.6665C144.253 47.9323 143.854 48.3176 143.508 48.8492C143.176 49.3674 142.937 49.7262 142.79 49.8857C142.644 50.0584 142.352 50.1381 141.886 50.1381C141.421 50.1381 141.115 50.0053 140.81 49.7395C140.504 49.4737 140.358 49.1282 140.358 48.7163C140.358 48.0651 140.584 47.4273 141.049 46.816C141.514 46.2048 142.232 45.6865 143.203 45.2879C144.173 44.8892 145.383 44.6899 146.845 44.6899C148.307 44.6899 149.743 44.8892 150.673 45.2746C151.604 45.6599 152.255 46.2712 152.641 47.1084C153.026 47.9455 153.212 49.0485 153.212 50.4305C153.212 51.8125 153.212 52.0384 153.212 52.6496C153.212 53.2609 153.212 53.9386 153.199 54.6828C153.199 55.3738 153.319 56.1046 153.545 56.8621C153.771 57.6195 153.89 58.1112 153.89 58.3238C153.89 58.7092 153.718 59.0547 153.359 59.3603C153 59.6659 152.601 59.8254 152.149 59.8254C151.697 59.8254 151.391 59.6394 151.019 59.2806C150.647 58.9218 150.261 58.4035 149.836 57.7258L149.849 57.7391ZM149.61 52.3573C149.065 52.5566 148.281 52.7692 147.244 52.9951C146.207 53.2211 145.489 53.3805 145.09 53.4868C144.691 53.5931 144.319 53.7925 143.947 54.0981C143.588 54.4037 143.402 54.8289 143.402 55.3605C143.402 55.892 143.615 56.4103 144.04 56.7956C144.465 57.1943 145.024 57.3803 145.702 57.3803C146.38 57.3803 147.111 57.2209 147.722 56.9019C148.347 56.583 148.799 56.1578 149.091 55.6528C149.424 55.0947 149.597 54.1645 149.597 52.8756V52.344L149.61 52.3573ZM166.585 57.7391V57.2607C166.147 57.8188 165.682 58.2972 165.19 58.6826C164.698 59.068 164.166 59.347 163.594 59.5331C163.023 59.7191 162.358 59.8121 161.614 59.8121C160.869 59.8121 159.926 59.6261 159.208 59.254C158.503 58.8819 157.945 58.377 157.559 57.7125C157.107 56.9285 156.868 55.7857 156.868 54.3107V46.9489C156.868 46.2048 157.041 45.6466 157.373 45.2746C157.706 44.9025 158.144 44.7165 158.703 44.7165C159.261 44.7165 159.713 44.9025 160.058 45.2746C160.404 45.6466 160.577 46.2048 160.577 46.9356V52.8888C160.577 53.7526 160.657 54.4702 160.79 55.0549C160.936 55.6395 161.188 56.1046 161.561 56.4236C161.933 56.7558 162.438 56.9152 163.089 56.9152C163.741 56.9152 164.299 56.7292 164.844 56.3571C165.389 55.985 165.801 55.4934 166.054 54.8954C166.266 54.3771 166.36 53.221 166.36 51.4404V46.9223C166.36 46.1782 166.532 45.6334 166.878 45.2613C167.224 44.8892 167.662 44.7032 168.221 44.7032C168.779 44.7032 169.218 44.8892 169.55 45.2613C169.882 45.6334 170.055 46.1782 170.055 46.9356V57.6992C170.055 58.4035 169.896 58.9351 169.576 59.2939C169.257 59.6526 168.845 59.8254 168.34 59.8254C167.835 59.8254 167.41 59.6394 167.091 59.2673C166.758 58.8952 166.599 58.3902 166.599 57.7258L166.585 57.7391ZM173.751 57.5664V41.4475C173.751 40.7034 173.923 40.1452 174.242 39.7599C174.575 39.3745 175.013 39.1885 175.585 39.1885C176.157 39.1885 176.595 39.3745 176.941 39.7599C177.287 40.132 177.459 40.7034 177.459 41.4475V57.5664C177.459 58.3238 177.287 58.8819 176.941 59.254C176.595 59.6261 176.143 59.8254 175.598 59.8254C175.053 59.8254 174.615 59.6261 174.282 59.2407C173.95 58.8553 173.777 58.2972 173.777 57.5664H173.751ZM181.461 45.0487H181.873V42.8162C181.873 42.2182 181.886 41.7531 181.913 41.4076C181.939 41.0621 182.032 40.7698 182.179 40.5306C182.325 40.2781 182.537 40.0655 182.803 39.9061C183.083 39.7466 183.375 39.6669 183.721 39.6669C184.066 39.6669 184.611 39.8396 184.997 40.1984C185.249 40.4376 185.409 40.7166 185.475 41.0621C185.542 41.4076 185.582 41.886 185.582 42.5106V45.0487H186.938C187.456 45.0487 187.868 45.1683 188.134 45.4207C188.413 45.6732 188.546 45.9921 188.546 46.3775C188.546 46.7629 188.347 47.228 187.948 47.4273C187.549 47.6266 186.991 47.7196 186.26 47.7196H185.568V54.5499C185.568 55.1346 185.582 55.5864 185.635 55.892C185.675 56.1977 185.781 56.4634 185.954 56.6495C186.14 56.8488 186.419 56.9418 186.818 56.9418C187.217 56.9418 187.323 56.9019 187.695 56.8222C188.068 56.7425 188.36 56.7026 188.559 56.7026C188.865 56.7026 189.131 56.8222 189.37 57.0614C189.61 57.3006 189.729 57.5929 189.729 57.9517C189.729 58.5497 189.41 59.0015 188.759 59.3204C188.107 59.6394 187.177 59.7988 185.954 59.7988C184.731 59.7988 183.92 59.5995 183.322 59.2141C182.724 58.8288 182.338 58.2839 182.152 57.5929C181.966 56.9019 181.873 55.985 181.873 54.8289V47.6931H181.381C180.849 47.6931 180.437 47.5735 180.158 47.3077C179.879 47.0552 179.733 46.7363 179.733 46.3376C179.733 45.939 179.879 45.6201 180.171 45.3809C180.464 45.1284 180.889 45.0088 181.447 45.0088L181.461 45.0487Z" fill="#1D2856"/>
</g>
</svg>
