<svg width="200" height="100" viewBox="0 0 200 100" fill="none" xmlns="http://www.w3.org/2000/svg">
<g style="mix-blend-mode:luminosity">
<rect width="200" height="100" fill="white"/>
</g>
<g style="mix-blend-mode:luminosity">
<path d="M13.51 73.374C13.882 72.754 14.13 71.762 14.378 70.46C14.626 69.158 14.688 67.422 14.688 65.252V34.624C14.688 32.454 14.564 30.718 14.378 29.416C14.13 28.114 13.882 27.122 13.51 26.564C13.51 26.502 43.208 26.502 43.208 26.502L43.952 35.43H43.89C43.332 34.748 42.774 34.128 42.154 33.508C41.534 32.888 40.79 32.33 40.046 31.834C39.24 31.338 38.372 30.904 37.442 30.594C36.45 30.284 35.396 30.098 34.094 30.036H21.074V48.202H28.39C30.436 48.202 32.048 47.83 33.226 47.272C34.466 46.714 35.396 46.032 36.202 45.226H36.264V54.712H36.202C35.458 53.968 34.404 53.286 33.164 52.666C31.924 52.046 30.188 51.736 28.08 51.736H21.074V65.252C21.074 67.422 21.198 69.158 21.446 70.46C21.694 71.762 21.942 72.754 22.314 73.374H13.572H13.51Z" fill="#EC2426"/>
<path d="M52.57 39.708C55.05 39.708 56.972 40.204 58.336 41.134C59.638 42.064 60.506 43.118 60.94 44.234C61.374 45.35 61.374 46.404 61.064 47.334C60.692 48.264 60.072 48.76 59.204 48.76C58.336 48.76 57.282 48.45 56.724 47.892C56.166 47.334 55.608 46.714 55.112 46.032C54.616 45.35 54.058 44.73 53.438 44.172C52.818 43.614 51.95 43.304 50.772 43.304C49.594 43.304 47.982 44.11 46.742 45.722C45.502 47.334 44.696 49.814 44.2 53.162V65.872C44.2 67.794 44.386 69.344 44.634 70.584C44.882 71.824 45.13 72.692 45.44 73.188C45.44 73.25 36.946 73.25 36.946 73.25C37.256 72.63 37.504 71.762 37.752 70.584C38 69.344 38.124 67.856 38.186 65.934V50.186C38.186 48.016 38.062 46.28 37.876 44.978C37.628 43.676 37.38 42.684 37.008 42.126C37.008 42.064 44.2 39.584 44.2 39.584H44.262V45.04C45.006 43.366 46.122 42.002 47.548 41.01C48.974 40.018 50.648 39.584 52.57 39.584V39.708Z" fill="#EC2426"/>
<path d="M59.0801 50.3711C61.1881 50.3711 62.9861 50.7431 64.5981 51.4251C66.1481 52.1691 67.5121 53.1611 68.5661 54.4011C69.6201 55.6411 70.4881 57.1291 71.0461 58.7411C71.6041 60.4151 71.8521 62.1511 71.8521 64.0731C71.8521 65.9951 71.5421 67.7931 70.9841 69.4671C70.4261 71.1411 69.5581 72.5671 68.4421 73.8071C67.3261 75.0471 65.9621 76.0391 64.4121 76.7211C62.8001 77.4651 61.0641 77.7751 59.1421 77.7751C57.2201 77.7751 55.4221 77.4031 53.8721 76.7211C52.2601 75.9771 50.9581 75.0471 49.8421 73.8071C48.7261 72.5671 47.9201 71.1411 47.3001 69.4671C46.6801 67.7931 46.3701 65.9951 46.3701 64.0731C46.3701 62.1511 46.6181 60.4151 47.1761 58.7411C47.7341 57.0671 48.5401 55.6411 49.6561 54.4011C50.7101 53.1611 52.0741 52.1691 53.6861 51.4251C55.2981 50.6811 57.0961 50.3711 59.1421 50.3711H59.0801ZM59.0801 75.0471C60.2581 75.0471 61.3121 74.7371 62.3041 74.1791C63.2341 73.6211 64.0401 72.8151 64.7221 71.8231C65.4041 70.8311 65.9001 69.6531 66.2721 68.3511C66.6441 67.0491 66.8301 65.6231 66.8301 64.0731C66.8301 62.5231 66.6441 61.1591 66.3341 59.7951C65.9621 58.4931 65.5281 57.3151 64.8461 56.3231C64.1641 55.3311 63.4201 54.5871 62.4281 54.0291C61.4981 53.4711 60.3821 53.1611 59.1421 53.1611C57.9021 53.1611 56.8481 53.4711 55.8561 54.0291C54.8641 54.5871 54.0581 55.3931 53.4381 56.3231C52.8181 57.3151 52.3221 58.4311 51.9501 59.7951C51.5781 61.0971 51.4541 62.5231 51.4541 64.0731C51.4541 65.6231 51.6401 66.9871 52.0121 68.3511C52.3841 69.6531 52.8801 70.8311 53.5621 71.8231C54.2441 72.8151 55.0501 73.6211 55.9801 74.1791C56.9101 74.7371 57.9641 75.0471 59.1421 75.0471H59.0801Z" fill="#EC2426"/>
<path d="M79.2919 47.5195C79.2919 48.6355 79.7259 49.5655 80.6559 50.3715C81.5239 51.1775 82.7019 51.8595 84.0039 52.5415C85.3679 53.1615 86.7939 53.8435 88.3439 54.5255C89.8939 55.2075 91.3819 55.9515 92.6839 56.8195C94.0479 57.6875 95.1639 58.7415 96.0319 60.0435C96.8999 61.3455 97.3959 62.8955 97.3959 64.6935C97.3959 66.4915 97.2099 66.9875 96.7759 68.1035C96.3419 69.2195 95.6599 70.2115 94.6679 71.0795C93.6759 71.9475 92.4359 72.6295 90.8859 73.1875C89.3359 73.7455 87.4759 73.9935 85.1819 73.9935C81.6479 73.9935 78.9199 73.4975 76.9979 72.5675C75.0759 71.6375 73.8359 70.5835 73.2159 69.5295C72.5959 68.4135 72.5959 67.4215 73.0919 66.4915C73.5879 65.5615 74.5179 65.0655 75.8199 65.0655C77.1219 65.0655 78.1759 65.3755 78.9199 65.9335C79.6639 66.4915 80.4079 67.1115 81.0279 67.7315C81.6479 68.3515 82.3919 68.9715 83.1359 69.5295C83.8799 70.0875 84.8719 70.3975 86.1119 70.3975C89.7699 70.3975 91.6299 68.7855 91.6299 65.4995C91.6299 62.2135 91.1959 63.2675 90.2659 62.4615C89.3979 61.6555 88.2199 60.8495 86.9179 60.1675C85.5539 59.4855 84.1279 58.8035 82.5779 58.1215C81.0279 57.4395 79.5399 56.6955 78.2379 55.8275C76.8739 54.9595 75.7579 53.9675 74.8899 52.7895C74.0219 51.6115 73.5259 50.1855 73.5259 48.5115C73.5259 45.9695 74.3939 43.8615 76.1919 42.2495C77.9899 40.6375 80.5319 39.7695 83.8179 39.7695C87.1039 39.7695 85.0579 39.7695 85.7399 39.9555C86.4219 40.0795 87.1039 40.2035 87.8479 40.3275C88.5299 40.4515 89.2739 40.5755 89.9559 40.6995C90.6999 40.8235 91.3199 40.8855 92.0019 40.8855C92.6839 40.8855 92.7459 40.8855 93.0559 40.8235C93.4279 40.8235 93.7379 40.6995 94.0479 40.5755L93.9239 49.8755C92.3739 47.5815 90.7619 45.9695 88.9639 44.9155C87.1659 43.9235 85.5539 43.4275 84.0039 43.4275C82.4539 43.4275 81.4619 43.7995 80.5939 44.5435C79.7259 45.2875 79.2299 46.3415 79.2299 47.6435L79.2919 47.5195Z" fill="#EC2426"/>
<path d="M114.818 66.2437L115.624 66.9257C114.57 68.5997 113.268 69.9017 111.594 70.7077C109.92 71.5137 108.246 71.9477 106.634 71.9477C105.022 71.9477 103.1 71.3897 101.674 70.3357C100.248 69.2817 99.566 67.6077 99.566 65.4377V42.0637H96.094V39.8937C96.962 39.5217 97.83 39.0257 98.698 38.2817C99.504 37.5377 100.31 36.7317 100.992 35.8017C101.674 34.8717 102.294 33.9417 102.79 32.8877C103.286 31.8957 103.596 30.9657 103.72 30.0977H105.642V38.5297H112.648V42.0017H105.642V62.4617C105.642 64.5077 106.138 65.9337 107.068 66.7397C108.06 67.6077 109.114 68.0417 110.354 68.0417C111.594 68.0417 113.578 67.4217 114.88 66.2437H114.818Z" fill="#EC2426"/>
<path d="M130.132 58.1836C130.566 58.1836 130.938 58.3696 131.186 58.6796C131.434 58.9896 131.682 59.4236 131.744 59.9196C131.806 60.4156 131.744 60.9736 131.434 61.5936C131.186 62.2136 130.628 62.7716 129.884 63.2676C129.14 63.7636 128.148 64.1976 126.846 64.5076C125.544 64.8796 123.932 65.0036 122.01 65.0036C120.088 65.0036 118.538 64.6936 117.112 64.0116C115.686 63.3296 114.446 62.4616 113.454 61.3456C112.462 60.2296 111.718 58.8656 111.16 57.3776C110.664 55.8276 110.354 54.2156 110.354 52.4796C110.354 50.7436 110.664 48.8836 111.222 47.3956C111.842 45.8456 112.586 44.5436 113.578 43.4276C114.57 42.3116 115.748 41.5056 117.112 40.8856C118.476 40.2656 119.964 40.0176 121.514 40.0176C123.064 40.0176 124.8 40.2036 126.04 40.6376C127.28 41.0716 128.272 41.6296 129.016 42.3736C129.76 43.1176 130.318 43.9236 130.69 44.7916C131 45.7216 131.186 46.5896 131.186 47.5816C131.186 48.5736 130.938 49.6276 130.504 50.4336C130.07 51.2396 129.45 51.9216 128.706 52.4796C127.962 53.0376 127.156 53.5336 126.288 53.9056C125.358 54.3396 124.49 54.7116 123.56 55.0216C122.63 55.3316 121.762 55.7036 120.956 56.0136C120.15 56.3236 119.406 56.6956 118.848 57.1296C118.29 57.5636 117.918 58.0596 117.67 58.6176C117.484 59.1756 117.484 59.9196 117.856 60.7256C119.158 61.9036 120.708 62.5236 122.506 62.5236C124.304 62.5236 124.366 62.2756 124.986 61.8416C125.606 61.4076 126.164 60.9116 126.66 60.3536C127.156 59.7956 127.59 59.2996 128.086 58.8656C128.582 58.4316 129.202 58.1836 130.008 58.1836H130.132ZM115.81 57.3776C115.934 56.6336 116.306 56.0756 116.864 55.5796C117.422 55.0836 118.104 54.6496 118.91 54.2776C119.716 53.8436 120.522 53.4716 121.39 53.0376C122.258 52.6036 123.064 52.1696 123.808 51.6116C124.552 51.0536 125.172 50.4336 125.668 49.6896C126.164 48.9456 126.412 48.0156 126.412 46.8996C126.412 45.7836 126.04 44.4196 125.358 43.5516C124.676 42.6836 123.498 42.3116 121.824 42.3116C120.15 42.3116 120.212 42.4976 119.344 42.9316C118.538 43.3656 117.794 43.9856 117.112 44.8536C116.43 45.7216 115.934 46.7756 115.562 48.0156C115.19 49.2556 114.942 50.7436 114.942 52.4796C114.942 54.2156 115.004 54.2776 115.128 55.0836C115.252 55.8896 115.438 56.6336 115.748 57.3776H115.81Z" fill="#EC2426"/>
<path d="M139.556 58.8036C139.556 60.4776 139.68 61.7796 139.928 62.8336C140.114 63.8876 140.362 64.6316 140.61 65.0656H133.356C133.604 64.5696 133.852 63.8256 134.038 62.7716C134.224 61.7176 134.348 60.4156 134.41 58.8036V33.4456C134.41 31.5856 134.286 30.0976 134.1 28.9816C133.914 27.8656 133.666 27.0596 133.356 26.5016L139.494 24.3936V58.8036H139.556Z" fill="#EC2426"/>
<path d="M150.964 64.6316C150.964 66.5536 151.15 68.1036 151.398 69.3436C151.646 70.5836 151.894 71.4516 152.204 71.9476C152.204 72.0096 143.71 72.0096 143.71 72.0096C144.02 71.3896 144.268 70.5216 144.516 69.3436C144.764 68.1036 144.888 66.6156 144.95 64.6936V35.0576C144.95 32.8876 144.826 31.1516 144.64 29.8496C144.392 28.5476 144.144 27.5556 143.772 26.9976C143.772 26.9356 150.964 24.5176 150.964 24.5176H151.026V64.6316H150.964Z" fill="#EC2426"/>
<path d="M166.96 35.1191C169.378 35.1191 171.486 35.5531 173.346 36.3591C175.206 37.1651 176.694 38.3431 177.996 39.7691C179.236 41.2571 180.166 42.9311 180.848 44.8531C181.468 46.7751 181.84 48.8211 181.84 51.0531C181.84 53.2851 181.468 55.3311 180.786 57.2531C180.104 59.1751 179.112 60.8491 177.81 62.3371C176.508 63.7631 174.958 64.8791 173.098 65.7471C171.238 66.5531 169.254 66.9871 166.96 66.9871C164.666 66.9871 162.682 66.5531 160.822 65.7471C158.962 64.9411 157.412 63.7631 156.172 62.3371C154.932 60.9111 153.94 59.2371 153.196 57.2531C152.514 55.3311 152.142 53.2231 152.142 51.0531C152.142 48.8831 152.452 46.7751 153.134 44.8531C153.754 42.9311 154.746 41.2571 155.986 39.7691C157.226 38.3431 158.776 37.1651 160.636 36.3591C162.496 35.5531 164.604 35.1191 166.96 35.1191ZM166.96 63.7011C168.324 63.7011 169.564 63.3911 170.68 62.7091C171.796 62.0271 172.726 61.1591 173.47 59.9811C174.214 58.8651 174.834 57.5011 175.268 55.9511C175.702 54.4011 175.888 52.7891 175.888 50.9911C175.888 49.1931 175.702 47.5811 175.268 46.0311C174.896 44.4811 174.276 43.1791 173.532 42.0631C172.788 40.9471 171.858 40.0171 170.742 39.3971C169.626 38.7151 168.386 38.4051 166.898 38.4051C165.41 38.4051 164.232 38.7151 163.116 39.3971C162 40.0791 161.07 40.9471 160.326 42.0631C159.582 43.1791 159.024 44.5431 158.59 46.0311C158.218 47.5811 157.97 49.1931 157.97 50.9911C157.97 52.7891 158.156 54.4011 158.59 55.9511C159.024 57.5011 159.582 58.8031 160.388 59.9811C161.194 61.0971 162.124 62.0271 163.178 62.7091C164.232 63.3911 165.472 63.7011 166.836 63.7011H166.96Z" fill="#EC2426"/>
<path d="M181.778 33.5696C184.312 33.5696 186.366 31.5154 186.366 28.9816C186.366 26.4477 184.312 24.3936 181.778 24.3936C179.244 24.3936 177.19 26.4477 177.19 28.9816C177.19 31.5154 179.244 33.5696 181.778 33.5696Z" stroke="#EC2426" stroke-miterlimit="10"/>
<path d="M181.158 27.9277V28.4237H180.538V30.3457H179.98V28.4237H179.36V27.9277H181.22H181.158Z" fill="#EC2426"/>
<path d="M184.134 27.9277V30.3457H183.576V28.9197L183.018 30.3457H182.522L181.964 28.9197V30.3457H181.406V27.9277H182.088L182.77 29.6017L183.452 27.9277H184.134Z" fill="#EC2426"/>
</g>
</svg>
