<svg width="200" height="100" viewBox="0 0 200 100" fill="none" xmlns="http://www.w3.org/2000/svg">
<rect width="200" height="100" fill="white"/>
<g style="mix-blend-mode:luminosity">
<path d="M86.25 64.1799V57.8379H87.8174C89.0472 57.8379 90.0118 58.1273 90.7111 58.7301C91.4104 59.333 91.748 60.1287 91.748 61.1656C91.748 62.082 91.4586 62.8054 90.904 63.36C90.3253 63.9146 89.5777 64.204 88.6614 64.204H86.25V64.1799ZM87.4316 58.2961V63.6976H88.1309C88.5167 63.6976 88.8302 63.6735 89.0714 63.6012C89.3125 63.5288 89.5295 63.4324 89.6983 63.2877C89.9636 63.0707 90.1565 62.7572 90.3012 62.3472C90.4459 61.9614 90.5182 61.5032 90.5182 60.9727C90.5182 60.1046 90.3012 59.4535 89.843 58.9713C89.3848 58.5131 88.7338 58.2719 87.8898 58.2719H87.4316V58.2961Z" fill="#1E1D21"/>
<path d="M94.8613 64.1799V57.8379H98.7919V58.3202H96.0429V60.6351H98.599V61.1174H96.0429V63.7217H98.7919V64.204H94.8613V64.1799Z" fill="#1E1D21"/>
<path d="M103.808 64.3253L101.18 57.8145H102.434L104.122 62.1309L105.737 57.8145H106.34L103.832 64.3253H103.808Z" fill="#1E1D21"/>
<path d="M109.016 64.1799V57.8379H112.946V58.3202H110.197V60.6351H112.753V61.1174H110.197V63.7217H112.946V64.204H109.016V64.1799Z" fill="#1E1D21"/>
<path d="M120.179 63.6976V64.1799H116.248V57.8379H117.43V63.7217H120.179V63.6976Z" fill="#1E1D21"/>
<path d="M125.244 64.3247C124.81 64.3247 124.376 64.2524 123.99 64.0836C123.604 63.9148 123.242 63.6978 122.929 63.3843C122.615 63.0708 122.398 62.7332 122.229 62.3233C122.061 61.9133 121.988 61.4793 121.988 61.0211C121.988 60.5629 122.061 60.1048 122.229 59.6948C122.398 59.2849 122.615 58.9232 122.929 58.6338C123.242 58.3203 123.58 58.1033 123.99 57.9345C124.376 57.7657 124.786 57.6934 125.22 57.6934C125.557 57.6934 125.895 57.7416 126.232 57.8622C126.57 57.9586 126.859 58.1274 127.149 58.3444C127.583 58.6579 127.896 59.0437 128.137 59.5019C128.379 59.9601 128.475 60.4665 128.475 61.0452C128.475 61.5034 128.403 61.9616 128.234 62.3474C128.065 62.7332 127.824 63.119 127.535 63.4084C127.221 63.7219 126.859 63.963 126.474 64.1077C126.088 64.2765 125.678 64.3489 125.244 64.3489V64.3247ZM127.221 61.0211C127.221 60.153 127.028 59.4537 126.666 58.9232C126.305 58.3927 125.822 58.1033 125.244 58.1033C124.665 58.1033 124.183 58.3686 123.821 58.9232C123.459 59.4778 123.266 60.153 123.266 61.0211C123.266 61.8892 123.459 62.5885 123.821 63.119C124.183 63.6495 124.665 63.9389 125.244 63.9389C125.822 63.9389 126.305 63.6737 126.666 63.1431C127.028 62.6126 127.221 61.9133 127.221 61.0452V61.0211Z" fill="#1E1D21"/>
<path d="M131.607 64.1799V57.8379H133.874C134.549 57.8379 135.08 58.0067 135.466 58.3443C135.852 58.6819 136.044 59.1401 136.044 59.7188C136.044 60.2975 135.876 60.7316 135.514 61.0692C135.152 61.4068 134.67 61.5515 134.043 61.5515H132.789V64.1799H131.607ZM132.789 61.1415H133.32C133.85 61.1415 134.236 61.021 134.501 60.8039C134.766 60.5869 134.887 60.2252 134.887 59.7911C134.887 59.2606 134.766 58.8748 134.501 58.6337C134.236 58.3684 133.85 58.2478 133.32 58.2478H132.789V61.1656V61.1415Z" fill="#1E1D21"/>
<path d="M139.084 64.1799V57.8379H143.015V58.3202H140.266V60.6351H142.822V61.1174H140.266V63.7217H143.015V64.204H139.084V64.1799Z" fill="#1E1D21"/>
<path d="M146.294 64.1799V57.8379H148.367C149.163 57.8379 149.742 57.9826 150.152 58.2961C150.562 58.6095 150.755 59.0677 150.755 59.6947C150.755 60.1528 150.61 60.5146 150.321 60.7798C150.031 61.0451 149.621 61.1898 149.091 61.2139L150.779 64.204H149.453L147.74 60.9727C148.416 60.9245 148.874 60.8039 149.163 60.611C149.428 60.4181 149.573 60.0805 149.573 59.6706C149.573 59.1883 149.428 58.8507 149.163 58.6095C148.898 58.3684 148.488 58.2719 147.933 58.2719H147.451V64.204H146.27L146.294 64.1799Z" fill="#1E1D21"/>
<path d="M154.034 62.9743C154.179 63.2396 154.348 63.4566 154.565 63.6013C154.782 63.746 155.023 63.8183 155.264 63.8183C155.602 63.8183 155.867 63.7219 156.084 63.5049C156.301 63.2878 156.398 63.0226 156.398 62.685C156.398 62.1545 155.915 61.6963 154.975 61.2864C154.468 61.0693 154.107 60.8282 153.89 60.5629C153.673 60.2977 153.576 59.9601 153.576 59.5743C153.576 59.0196 153.769 58.5615 154.131 58.2239C154.493 57.8622 154.975 57.6934 155.554 57.6934C155.988 57.6934 156.373 57.7898 156.711 57.9827C157.049 58.1756 157.29 58.465 157.434 58.8267L157.024 59.1161C156.928 58.8267 156.759 58.5856 156.542 58.4409C156.325 58.2962 156.084 58.1998 155.795 58.1998C155.481 58.1998 155.24 58.2962 155.047 58.4891C154.854 58.682 154.758 58.9473 154.758 59.2608C154.758 59.526 154.83 59.7189 154.999 59.9119C155.168 60.0807 155.457 60.2736 155.915 60.4665C156.615 60.7558 157.073 61.0452 157.29 61.3346C157.507 61.624 157.627 61.9616 157.627 62.3956C157.627 62.9743 157.434 63.4325 157.024 63.7942C156.639 64.1559 156.132 64.3489 155.529 64.3489C155.095 64.3489 154.71 64.2765 154.396 64.1077C154.083 63.9389 153.793 63.6737 153.576 63.3361L154.034 62.9985V62.9743Z" fill="#1E1D21"/>
<path d="M86.1081 55.2092V34.1094H92.5948L99.5879 44.8884V34.1094H102.747V55.2092H99.2985L89.2188 39.8003V55.2092H86.084H86.1081Z" fill="#ED2224"/>
<path d="M107.883 55.2092V34.1094H115.021C117.094 34.1094 118.782 34.2541 120.06 34.5675C121.338 34.881 122.496 35.3633 123.533 36.0626C125.028 37.0513 126.21 38.3293 127.054 39.8485C127.898 41.3677 128.307 42.9834 128.307 44.6955C128.307 46.4076 127.994 47.8544 127.343 49.2771C126.692 50.6999 125.751 51.9056 124.546 52.9425C123.653 53.6659 122.617 54.2205 121.411 54.6064C120.205 54.9922 118.927 55.1851 117.553 55.1851H107.907L107.883 55.2092ZM113.791 36.979V52.3879H115.816C117.77 52.3879 119.265 51.7127 120.326 50.3864C121.387 49.0601 121.917 47.1551 121.917 44.6955C121.917 42.2358 121.387 40.3308 120.326 39.0045C119.265 37.6541 117.745 37.0031 115.816 37.0031H113.791V36.979Z" fill="#ED2224"/>
<path d="M131.947 55.2092V34.1094H141.135C143.787 34.1094 145.861 34.6881 147.38 35.8456C148.899 37.0031 149.647 38.5705 149.647 40.572C149.647 42.0429 149.237 43.2245 148.417 44.165C147.597 45.1054 146.367 45.7565 144.752 46.1423L149.84 55.2092H143.233L138.096 44.4784H139.423C140.894 44.4784 141.979 44.165 142.678 43.538C143.377 42.911 143.739 41.9706 143.739 40.6925C143.739 39.3421 143.377 38.3535 142.63 37.7024C141.882 37.0513 140.749 36.7378 139.181 36.7378H137.686V55.2092H131.947Z" fill="#ED2224"/>
<path d="M77.8842 76.2126C77.6431 76.7431 77.2814 77.1531 76.8473 77.4424C76.4133 77.7318 75.8827 77.8765 75.304 77.8765C74.4359 77.8765 73.7125 77.563 73.1337 76.936C72.555 76.3091 72.2656 75.5133 72.2656 74.5487C72.2656 73.5842 72.555 72.8125 73.1578 72.1856C73.7607 71.5586 74.4841 71.2451 75.3522 71.2451C75.8827 71.2451 76.3409 71.3657 76.7267 71.5827C77.1126 71.7997 77.4502 72.1373 77.6913 72.5714L77.3055 72.8366C77.1126 72.4508 76.8714 72.1615 76.5821 71.9685C76.2927 71.7756 75.9551 71.6792 75.5693 71.6792C74.9423 71.6792 74.4359 71.9444 74.0501 72.4749C73.6884 73.0054 73.4954 73.7289 73.4954 74.6211C73.4954 75.5133 73.6642 76.1885 74.026 76.6708C74.3877 77.1531 74.8699 77.3942 75.521 77.3942C75.9551 77.3942 76.3168 77.2736 76.6544 77.0325C76.992 76.7914 77.2572 76.4538 77.4743 75.9956L77.8601 76.2367L77.8842 76.2126Z" fill="#1E1D21"/>
<path d="M83.5972 77.8765C83.1631 77.8765 82.7291 77.8042 82.3433 77.6354C81.9574 77.4666 81.5957 77.2495 81.2823 76.936C80.9688 76.6226 80.7517 76.285 80.5829 75.875C80.4141 75.4651 80.3418 75.031 80.3418 74.5729C80.3418 74.1147 80.4141 73.6565 80.5829 73.2466C80.7517 72.8366 80.9688 72.4749 81.2823 72.1856C81.5957 71.8721 81.9333 71.6551 82.3433 71.4863C82.7291 71.3175 83.139 71.2451 83.5731 71.2451C83.9107 71.2451 84.2483 71.2933 84.5859 71.4139C84.9235 71.5104 85.2128 71.6792 85.5022 71.8962C85.9363 72.2097 86.2498 72.5955 86.4909 73.0537C86.732 73.5118 86.8285 74.0182 86.8285 74.597C86.8285 75.0551 86.7561 75.5133 86.5873 75.8991C86.4186 76.285 86.1774 76.6708 85.888 76.9602C85.5746 77.2736 85.2128 77.5148 84.827 77.6595C84.4412 77.8283 84.0313 77.9006 83.5972 77.9006V77.8765ZM85.5746 74.5729C85.5746 73.7048 85.3816 73.0054 85.0199 72.4749C84.6582 71.9444 84.1759 71.6551 83.5972 71.6551C83.0185 71.6551 82.5362 71.9203 82.1745 72.4749C81.8128 73.0296 81.6198 73.7048 81.6198 74.5729C81.6198 75.441 81.8128 76.1403 82.1745 76.6708C82.5362 77.2013 83.0185 77.4907 83.5972 77.4907C84.1759 77.4907 84.6582 77.2254 85.0199 76.6949C85.3816 76.1644 85.5746 75.4651 85.5746 74.597V74.5729Z" fill="#1E1D21"/>
<path d="M89.9648 77.7326V71.3906H91.05L94.3295 75.7794V71.3906H94.8841V77.7326H94.3295L90.5195 72.6687V77.7326H89.9648Z" fill="#1E1D21"/>
<path d="M98.5734 76.5261C98.7181 76.7914 98.8869 77.0084 99.1039 77.1531C99.3209 77.2978 99.5621 77.3701 99.8032 77.3701C100.141 77.3701 100.406 77.2736 100.623 77.0566C100.84 76.8396 100.937 76.5743 100.937 76.2367C100.937 75.7062 100.454 75.2481 99.5139 74.8381C99.0075 74.6211 98.6457 74.3799 98.4287 74.1147C98.2117 73.8494 98.1152 73.5118 98.1152 73.126C98.1152 72.5714 98.3081 72.1132 98.6699 71.7756C99.0316 71.4139 99.5139 71.2451 100.093 71.2451C100.527 71.2451 100.912 71.3416 101.25 71.5345C101.588 71.7274 101.829 72.0168 101.973 72.3785L101.564 72.6678C101.467 72.3785 101.298 72.1373 101.081 71.9927C100.864 71.848 100.623 71.7515 100.334 71.7515C100.02 71.7515 99.7791 71.848 99.5862 72.0409C99.3933 72.2338 99.2968 72.499 99.2968 72.8125C99.2968 73.0778 99.3692 73.2707 99.538 73.4636C99.7068 73.6324 99.9961 73.8253 100.454 74.0182C101.154 74.3076 101.612 74.597 101.829 74.8863C102.046 75.1757 102.166 75.5133 102.166 75.9474C102.166 76.5261 101.973 76.9843 101.564 77.346C101.178 77.7077 100.671 77.9006 100.068 77.9006C99.6344 77.9006 99.2486 77.8283 98.9351 77.6595C98.6216 77.4907 98.3323 77.2254 98.1152 76.8878L98.5734 76.5502V76.5261Z" fill="#1E1D21"/>
<path d="M106.193 77.7323V71.8485H104.529V71.3662H109.015V71.8485H107.351V77.7323H106.193Z" fill="#1E1D21"/>
<path d="M111.839 77.7326V71.3906H113.912C114.708 71.3906 115.287 71.5353 115.697 71.8488C116.107 72.1623 116.3 72.6204 116.3 73.2474C116.3 73.7056 116.155 74.0673 115.866 74.3325C115.576 74.5978 115.166 74.7425 114.636 74.7666L116.324 77.7567H114.998L113.285 74.5255C113.961 74.4772 114.419 74.3567 114.708 74.1637C114.973 73.9708 115.118 73.6332 115.118 73.2233C115.118 72.741 114.973 72.4034 114.708 72.1623C114.443 71.9211 114.033 71.8247 113.478 71.8247H112.996V77.7567H111.814L111.839 77.7326Z" fill="#1E1D21"/>
<path d="M119.457 71.3662H120.639V75.2004C120.639 75.9479 120.735 76.4784 120.952 76.7678C121.169 77.0571 121.507 77.2018 122.013 77.2018C122.52 77.2018 122.857 77.0571 123.074 76.7678C123.291 76.4784 123.388 75.9479 123.388 75.2004V71.3662H123.942V75.4174C123.942 76.2373 123.749 76.8642 123.388 77.2742C123.026 77.6841 122.447 77.9011 121.7 77.9011C121.362 77.9011 121.049 77.8288 120.735 77.7082C120.422 77.5876 120.18 77.4188 119.988 77.2259C119.795 77.033 119.65 76.7919 119.578 76.5266C119.505 76.2614 119.457 75.8997 119.457 75.4415V71.3903V71.3662Z" fill="#1E1D21"/>
<path d="M132.599 76.2126C132.358 76.7431 131.996 77.1531 131.562 77.4424C131.128 77.7318 130.598 77.8765 130.019 77.8765C129.151 77.8765 128.427 77.563 127.849 76.936C127.27 76.3091 126.98 75.5133 126.98 74.5487C126.98 73.5842 127.27 72.8125 127.873 72.1856C128.476 71.5586 129.199 71.2451 130.067 71.2451C130.598 71.2451 131.056 71.3657 131.442 71.5827C131.827 71.7997 132.165 72.1373 132.406 72.5714L132.02 72.8366C131.827 72.4508 131.586 72.1615 131.297 71.9685C131.008 71.7756 130.67 71.6792 130.284 71.6792C129.657 71.6792 129.151 71.9444 128.765 72.4749C128.403 73.0054 128.21 73.7289 128.21 74.6211C128.21 75.5133 128.379 76.1885 128.741 76.6708C129.103 77.1531 129.585 77.3942 130.236 77.3942C130.67 77.3942 131.032 77.2736 131.369 77.0325C131.707 76.7914 131.972 76.4538 132.189 75.9956L132.575 76.2367L132.599 76.2126Z" fill="#1E1D21"/>
<path d="M136.41 77.7323V71.8485H134.746V71.3662H139.231V71.8485H137.567V77.7323H136.41Z" fill="#1E1D21"/>
<path d="M143.257 77.7326H142.1V71.3906H143.257V77.7326Z" fill="#1E1D21"/>
<path d="M149.648 77.8765C149.214 77.8765 148.78 77.8042 148.394 77.6354C148.008 77.4666 147.647 77.2495 147.333 76.936C147.02 76.6226 146.803 76.285 146.634 75.875C146.465 75.4651 146.393 75.031 146.393 74.5729C146.393 74.1147 146.465 73.6565 146.634 73.2466C146.803 72.8366 147.02 72.4749 147.333 72.1856C147.647 71.8721 147.984 71.6551 148.394 71.4863C148.78 71.3175 149.19 71.2451 149.624 71.2451C149.961 71.2451 150.299 71.2933 150.637 71.4139C150.974 71.5104 151.264 71.6792 151.553 71.8962C151.987 72.2097 152.301 72.5955 152.542 73.0537C152.783 73.5118 152.879 74.0182 152.879 74.597C152.879 75.0551 152.807 75.5133 152.638 75.8991C152.469 76.285 152.228 76.6708 151.939 76.9602C151.625 77.2736 151.264 77.5148 150.878 77.6595C150.492 77.8283 150.082 77.9006 149.648 77.9006V77.8765ZM151.625 74.5729C151.625 73.7048 151.432 73.0054 151.071 72.4749C150.709 71.9444 150.227 71.6551 149.648 71.6551C149.069 71.6551 148.587 71.9203 148.225 72.4749C147.864 73.0296 147.671 73.7048 147.671 74.5729C147.671 75.441 147.864 76.1403 148.225 76.6708C148.587 77.2013 149.069 77.4907 149.648 77.4907C150.227 77.4907 150.709 77.2254 151.071 76.6949C151.432 76.1644 151.625 75.4651 151.625 74.597V74.5729Z" fill="#1E1D21"/>
<path d="M156.016 77.7326V71.3906H157.101L160.38 75.7794V71.3906H160.935V77.7326H160.38L156.57 72.6687V77.7326H156.016Z" fill="#1E1D21"/>
<path d="M164.624 76.5261C164.769 76.7914 164.938 77.0084 165.155 77.1531C165.372 77.2978 165.613 77.3701 165.854 77.3701C166.192 77.3701 166.457 77.2736 166.674 77.0566C166.891 76.8396 166.987 76.5743 166.987 76.2367C166.987 75.7062 166.505 75.2481 165.565 74.8381C165.058 74.6211 164.697 74.3799 164.479 74.1147C164.262 73.8494 164.166 73.5118 164.166 73.126C164.166 72.5714 164.359 72.1132 164.721 71.7756C165.082 71.4139 165.565 71.2451 166.143 71.2451C166.577 71.2451 166.963 71.3416 167.301 71.5345C167.638 71.7274 167.88 72.0168 168.024 72.3785L167.614 72.6678C167.518 72.3785 167.349 72.1373 167.132 71.9927C166.915 71.848 166.674 71.7515 166.385 71.7515C166.071 71.7515 165.83 71.848 165.637 72.0409C165.444 72.2338 165.348 72.499 165.348 72.8125C165.348 73.0778 165.42 73.2707 165.589 73.4636C165.758 73.6324 166.047 73.8253 166.505 74.0182C167.204 74.3076 167.663 74.597 167.88 74.8863C168.097 75.1757 168.217 75.5133 168.217 75.9474C168.217 76.5261 168.024 76.9843 167.614 77.346C167.228 77.7077 166.722 77.9006 166.119 77.9006C165.685 77.9006 165.299 77.8283 164.986 77.6595C164.672 77.4907 164.383 77.2254 164.166 76.8878L164.624 76.5502V76.5261Z" fill="#1E1D21"/>
<path d="M115.284 70.3291L117.382 65.1445L119.552 70.3291H118.539L118.009 68.9787H116.248L115.718 70.3291H115.26H115.284ZM116.393 68.6652H117.864L117.117 66.8084L116.369 68.6652H116.393Z" fill="#ED2224"/>
<path d="M120.156 70.3293V65.2412H121.024L123.653 68.7378V65.2412H124.111V70.3293H123.653L120.614 66.2781V70.3293H120.156Z" fill="#ED2224"/>
<path d="M125.389 70.3293V65.2412H126.643C127.631 65.2412 128.403 65.4823 128.958 65.9405C129.512 66.4228 129.802 67.0498 129.802 67.8938C129.802 68.6172 129.585 69.22 129.126 69.6541C128.668 70.0881 128.065 70.3293 127.318 70.3293H125.389ZM126.329 65.627V69.9435H126.884C127.197 69.9435 127.438 69.9193 127.631 69.8711C127.824 69.8229 127.993 69.7264 128.138 69.63C128.355 69.4371 128.499 69.1959 128.62 68.8824C128.741 68.569 128.789 68.2072 128.789 67.7973C128.789 67.098 128.62 66.5675 128.258 66.2058C127.897 65.8441 127.366 65.6512 126.691 65.6512H126.329V65.627Z" fill="#ED2224"/>
<path d="M46.2227 33.6035V69.4371L47.3801 68.2555V34.2064L46.2227 33.6035Z" fill="#1E1D21"/>
<path d="M47.9551 34.2061V67.6764L49.1126 66.4948V34.7848L47.9551 34.2061Z" fill="#1E1D21"/>
<path d="M49.6934 35.3633V65.9158L50.8508 64.7343V35.9661L49.6934 35.3633Z" fill="#1E1D21"/>
<path d="M51.4297 36.5449V64.1556L52.5872 62.974V37.1237L51.4297 36.5449Z" fill="#1E1D21"/>
<path d="M38.6738 38.8845V72.3549L40.9888 74.1152L45.6187 70.0158V33.6035L38.6738 38.8845ZM40.41 68.2555L39.2526 69.4371V65.9164L40.41 64.7348V68.2555ZM40.41 62.9745L39.2526 64.1561V60.6354L40.41 59.4538V62.9745ZM40.41 57.6935L39.2526 58.8751V55.3544L40.41 54.1728V57.6935ZM40.41 52.4125L39.2526 53.5941V50.0734L40.41 48.8919V52.4125ZM40.41 47.1074L39.2526 48.289V44.7683L40.41 43.5868V47.1074ZM40.41 41.8264L39.2526 43.008V39.4874L40.41 38.3058V41.8264ZM44.4853 65.3136L43.3279 66.4952V62.9745L44.4853 61.7929V65.3136ZM44.4853 60.0326L43.3279 61.2142V57.6935L44.4853 56.5119V60.0326ZM44.4853 54.7516L43.3279 55.9332V52.4125L44.4853 51.2309V54.7516ZM44.4853 49.4706L43.3279 50.6522V47.1315L44.4853 45.9499V49.4706ZM44.4853 44.1896L43.3279 45.3712V41.8505L44.4853 40.6689V44.1896ZM44.4853 38.8845L43.3279 40.0661V36.5454L44.4853 35.3638V38.8845Z" fill="#1E1D21"/>
<path d="M69.0312 30.0828V54.1487L73.0824 51.2068H74.8186V25.3564L69.0312 30.0587V30.0828ZM74.2399 43.5867L69.61 47.1074V45.347L74.2399 41.8264V43.5867ZM74.2399 40.6448L69.61 44.1654V42.4051L74.2399 38.8845V40.6448ZM74.2399 37.727L69.61 41.2476V39.4873L74.2399 35.9667V37.727ZM74.2399 34.7851L69.61 38.3057V36.5454L74.2399 33.0247V34.7851ZM74.2399 31.8431L69.61 35.3638V33.6035L74.2399 30.0828V31.8431ZM74.2399 28.9012L69.61 32.4219V30.6615L74.2399 27.1409V28.9012Z" fill="#1E1D21"/>
<path d="M75.7832 25.3809L76.9407 25.9837V52.244L75.7832 51.5688V25.3809Z" fill="#1E1D21"/>
<path d="M78.8704 26.5621V53.2323L77.7129 52.5571V25.9834L78.8704 26.5621Z" fill="#1E1D21"/>
<path d="M80.6086 27.7435V54.2449L79.4512 53.5697V27.1406L80.6086 27.7435Z" fill="#1E1D21"/>
<path d="M82.3652 28.901V55.2577L81.1836 54.5825V28.3223L82.3652 28.901Z" fill="#1E1D21"/>
<path d="M53.3815 18.9178V61.7927L59.1689 55.9088L60.9051 56.4876V16L53.3574 18.9419L53.3815 18.9178ZM56.2752 52.991L53.9603 53.5698V51.2307L56.2752 50.652V52.991ZM56.2752 49.4704L53.9603 50.0491V47.71L56.2752 47.1313V49.4704ZM56.2752 45.9497L53.9603 46.5285V44.1894L56.2752 43.6106V45.9497ZM56.2752 42.4291L53.9603 43.0078V40.6687L56.2752 40.09V42.4291ZM56.2752 38.8843L53.9603 39.463V37.124L56.2752 36.5452V38.8843ZM56.2752 35.3636L53.9603 35.9424V33.6033L56.2752 33.0246V35.3636ZM56.2752 31.843L53.9603 32.4217V30.0826L56.2752 29.5039V31.843ZM56.2752 28.3223L53.9603 28.901V26.562L56.2752 25.9832V28.3223ZM56.2752 24.8016L53.9603 25.3804V23.0413L56.2752 22.4626V24.8016ZM56.2752 21.281L53.9603 21.8597V19.5207L56.2752 18.9419V21.281ZM59.7477 51.8094L57.4327 52.3882V50.0491L59.7477 49.4704V51.8094ZM59.7477 48.2888L57.4327 48.8675V46.5285L59.7477 45.9497V48.2888ZM59.7477 44.7681L57.4327 45.3469V43.0078L59.7477 42.4291V44.7681ZM59.7477 41.2475L57.4327 41.8262V39.4871L59.7477 38.9084V41.2475ZM59.7477 37.7268L57.4327 38.3055V35.9665L59.7477 35.3877V37.7268ZM59.7477 34.2061L57.4327 34.7849V32.4458L59.7477 31.8671V34.2061ZM59.7477 30.6614L57.4327 31.2401V28.901L59.7477 28.3223V30.6614ZM59.7477 27.1407L57.4327 27.7195V25.3804L59.7477 24.8016V27.1407ZM59.7477 23.6201L57.4327 24.1988V21.8597L59.7477 21.281V23.6201ZM59.7477 20.0994L57.4327 20.6781V18.3391L59.7477 17.7603V20.0994Z" fill="#1E1D21"/>
<path d="M61.4844 16.5791L62.6419 17.1578V56.5121H61.4844V16.5791Z" fill="#1E1D21"/>
<path d="M64.3782 18.9176V56.5115H63.2207V18.3389L64.3782 18.9176Z" fill="#1E1D21"/>
<path d="M66.1145 20.6783V56.5119H64.957V20.0996L66.1145 20.6783Z" fill="#1E1D21"/>
<path d="M67.873 22.4622V56.5113H66.6914V21.8594L67.873 22.4622Z" fill="#1E1D21"/>
<path d="M75.4 52.4118H73.6638L68.4551 56.053V57.6928H61.5103L59.7741 57.1141L41.2303 75.3202L38.9154 73.584V75.3684C34.8883 72.3783 32.718 67.4831 33.1521 62.2504C33.2003 61.744 33.2485 61.2376 33.2968 60.7312C31.0783 66.5427 29.752 72.4265 32.718 78.3586C34.5989 82.1445 37.8543 83.8807 41.9055 84.2183C47.4276 84.6765 52.5639 83.0367 57.435 80.6976C67.37 75.9231 75.5929 69.2917 82.5378 61.2135V55.9807L75.4482 52.3877L75.4 52.4118ZM59.2677 70.0151H57.2421V67.9654H59.2677V70.0151ZM59.2677 66.7838H57.2421V64.7341H59.2677V66.7838ZM62.4507 70.0151H60.4251V67.9654H62.4507V70.0151ZM62.4507 66.7838H60.4251V64.7341H62.4507V66.7838Z" fill="#ED2224"/>
</g>
</svg>
