<svg width="504" height="408" viewBox="0 0 504 408" fill="none" xmlns="http://www.w3.org/2000/svg">
<path opacity="0.95" d="M295.567 192.617H197.009C189.223 192.617 182.91 186.306 182.91 178.521V79.9793C182.91 72.1943 189.223 65.8828 197.009 65.8828H295.567C303.354 65.8828 309.666 72.1943 309.666 79.9793V178.521C309.666 186.306 303.354 192.617 295.567 192.617Z" fill="url(#paint0_linear_2854_11670)"/>
<path d="M275.633 163.766H216.947V166.664H275.633V163.766Z" fill="#96BFE6"/>
<path d="M267.32 172.898H225.259V175.797H267.32V172.898Z" fill="#96BFE6"/>
<path opacity="0.95" d="M487.391 313.435H347.13C337.956 313.435 330.521 306 330.521 296.829V126.45C330.521 117.279 337.956 109.844 347.13 109.844H487.391C496.564 109.844 504 117.279 504 126.45V296.829C504 306 496.564 313.435 487.391 313.435Z" fill="url(#paint1_linear_2854_11670)"/>
<path d="M422.937 229.945H409.178V232.493H422.937V229.945Z" fill="#4598E6"/>
<path d="M437.003 253.289H356.94V258.222H437.003V253.289Z" fill="#96BFE6"/>
<path d="M421.683 276.969H356.94V281.902H421.683V276.969Z" fill="#96BFE6"/>
<path d="M394.895 265.133H356.94V270.066H394.895V265.133Z" fill="#96BFE6"/>
<path d="M457.949 130.141V132.632H472.621V146.399H475.112V130.141H457.949ZM358.319 146.399H360.811V132.632H375.482V130.141H358.319V146.399ZM472.621 217.437V231.209H457.949V233.701H475.112V217.437H472.621V217.437ZM360.811 217.437H358.319V233.701H375.482V231.209H360.811V217.437Z" fill="#4598E6"/>
<path d="M467.345 282.255C459.254 282.255 452.672 275.673 452.672 267.584C452.672 259.495 459.254 252.914 467.345 252.914C475.435 252.914 482.018 259.495 482.018 267.584C482.018 275.673 475.435 282.255 467.345 282.255ZM467.345 255.754C460.82 255.754 455.512 261.061 455.512 267.584C455.512 274.108 460.82 279.415 467.345 279.415C473.87 279.415 479.178 274.108 479.178 267.584C479.178 261.061 473.87 255.754 467.345 255.754Z" fill="#4598E6"/>
<path d="M466.409 273.364L459.743 266.699L461.751 264.692L466.409 269.348L472.938 262.82L474.946 264.828L466.409 273.364Z" fill="#4598E6"/>
<path d="M476.168 396.688C476.168 402.841 369.574 407.829 238.084 407.829C106.594 407.829 0 402.841 0 396.688C0 390.535 106.594 385.547 238.084 385.547C369.574 385.547 476.168 390.535 476.168 396.688Z" fill="url(#paint2_linear_2854_11670)"/>
<path opacity="0.95" d="M289.008 70.625H203.57V143.918H289.008V70.625Z" fill="url(#paint3_linear_2854_11670)"/>
<path d="M78.0061 364.206C85.1193 359.205 93.4442 324.349 93.9409 303.588C94.1954 292.953 97.3394 288.522 100.113 284.613C102.765 280.877 105.055 277.65 103.721 270.24C101.172 256.08 107.874 249.968 107.942 249.908L107.166 249.023C106.868 249.285 99.8879 255.589 102.563 270.449C103.81 277.372 101.755 280.267 99.1542 283.933C96.425 287.779 93.028 292.566 92.7648 303.56C92.2318 325.84 83.7207 358.75 77.3296 363.244L78.0061 364.206Z" fill="url(#paint4_linear_2854_11670)"/>
<path d="M63.0951 354.03C62.4235 352.508 61.7289 350.935 60.9424 349.275C56.879 340.698 53.2793 339.286 47.3158 336.946C45.8585 336.374 44.2066 335.726 42.3939 334.911C33.8511 331.073 35.5051 325.416 36.9645 320.426C37.1686 319.727 37.3721 319.031 37.5485 318.342C38.3 315.407 36.8564 313.935 34.6715 311.706C33.0475 310.049 31.0264 307.987 29.4685 304.73C27.7632 301.166 28.6325 299.255 29.6617 298.28C31.8293 296.226 36.8261 296.605 41.5439 299.18C43.0098 299.98 44.2162 301.243 45.4935 302.581C48.5012 305.729 52.2441 309.648 61.7109 309.693C67.1088 309.718 70.0656 310.463 71.5971 312.183C73.3351 314.136 73.0073 317.059 72.5538 321.104C72.3971 322.503 72.2193 324.09 72.1114 325.803C71.4674 336.026 77.5033 343.401 77.5629 343.473C81.169 347.766 85.6116 356.673 83.6942 362.156C82.8903 364.454 81.0928 365.901 78.3513 366.455C77.2591 366.676 76.2613 366.781 75.3436 366.781C68.722 366.781 66.2987 361.29 63.0951 354.03ZM40.9797 300.212C36.7668 297.913 32.2489 297.449 30.4706 299.134C29.1193 300.414 29.7566 302.608 30.5292 304.223C32.0031 307.303 33.8669 309.205 35.5111 310.883C37.7977 313.215 39.6032 315.057 38.6878 318.635C38.5081 319.336 38.3012 320.045 38.093 320.756C36.6396 325.726 35.2672 330.42 42.8755 333.839C44.6625 334.642 46.3 335.285 47.7452 335.851C53.765 338.214 57.7422 339.774 62.0053 348.771C62.7986 350.446 63.4962 352.027 64.171 353.556C67.8509 361.895 70.0721 366.928 78.1175 365.302C80.4238 364.836 81.9262 363.647 82.5832 361.768C84.2729 356.936 80.2299 348.478 76.6603 344.228C76.3988 343.915 70.2622 336.435 70.9367 325.73C71.0463 323.988 71.2258 322.386 71.384 320.974C71.8036 317.231 72.1068 314.526 70.7178 312.966C69.448 311.539 66.6681 310.892 61.7052 310.869C51.738 310.823 47.8036 306.703 44.642 303.393C43.3775 302.069 42.2851 300.925 40.9797 300.212Z" fill="url(#paint5_linear_2854_11670)"/>
<path d="M78.2231 373.584L79.3977 373.522C79.3401 372.419 77.8581 346.406 67.4119 338.793C55.9517 330.441 52.3384 321.466 50.6175 315.441C48.5897 308.342 38.269 306.445 37.8307 306.367L37.626 307.525C37.7262 307.543 47.6612 309.374 49.4863 315.764C51.2548 321.956 54.9655 331.178 66.7189 339.744C76.7168 347.031 78.2089 373.32 78.2231 373.584Z" fill="url(#paint6_linear_2854_11670)"/>
<path d="M76.2353 379.418C73.7772 378.194 73.8666 373.273 74.0014 365.824C74.1718 356.413 74.4051 343.523 69.4772 331.666C64.2425 319.071 68.9111 315.39 73.4263 311.83C78.4834 307.843 83.2599 304.077 74.0927 287.078C69.8824 279.271 68.5456 273.99 69.8858 270.459C71.2106 266.97 74.9273 265.61 78.8624 264.17C85.6546 261.684 93.3527 258.868 92.3581 244.495C92.0531 240.088 92.5715 237.379 93.9886 235.967C95.5288 234.434 97.7976 234.6 100.424 234.792C104.394 235.083 108.89 235.412 112.806 230.302C113.214 229.026 116.958 217.63 121.438 215.679C122.379 215.269 123.3 215.274 124.178 215.694C127.27 217.173 129.065 218.926 129.664 221.056C130.707 224.759 127.994 228.936 124.852 233.773C119.915 241.373 114.319 249.988 120.123 260.24C127.797 273.795 123.743 278.538 118.134 285.104C114.92 288.865 111.277 293.128 108.842 300.082C106.884 305.674 110.225 311.006 113.455 316.163C117.508 322.632 121.699 329.32 112.875 335.124C98.2871 344.721 83.8799 376.045 83.7359 376.361L83.6766 376.491L83.5636 376.579C80.876 378.685 78.9196 379.69 77.4462 379.69C77.0009 379.691 76.5996 379.599 76.2353 379.418ZM112.229 334.142C120.092 328.97 116.554 323.325 112.459 316.788C109.238 311.647 105.587 305.82 107.732 299.693C110.24 292.532 113.959 288.18 117.24 284.34C122.736 277.907 126.367 273.657 119.099 260.82C112.944 249.947 119 240.623 123.866 233.132C126.852 228.535 129.43 224.565 128.532 221.374C128.03 219.59 126.44 218.079 123.671 216.755C123.107 216.485 122.53 216.486 121.908 216.757C117.752 218.567 113.936 230.631 113.898 230.753L113.867 230.85L113.806 230.932C109.489 236.635 104.416 236.264 100.339 235.966C97.9023 235.787 95.9784 235.647 94.8189 236.801C93.6769 237.938 93.2559 240.428 93.5318 244.414C94.5875 259.668 86.0924 262.777 79.2666 265.275C75.4319 266.678 72.1197 267.89 70.9859 270.877C69.776 274.065 71.0919 279.036 75.1282 286.52C84.7645 304.388 79.3709 308.641 74.1549 312.754C69.7918 316.194 65.6707 319.443 70.5637 331.215C75.586 343.298 75.35 356.33 75.1777 365.846C75.0599 372.341 74.9669 377.472 76.7599 378.365C77.8089 378.887 79.816 378.005 82.7261 375.741C83.8926 373.207 97.6911 343.705 112.229 334.142Z" fill="url(#paint7_linear_2854_11670)"/>
<path d="M53.2093 242.899C60.6342 240.354 59.0917 254.662 62.2285 265.248C65.3657 275.835 97.1297 269.866 83.7967 296.375C70.464 322.884 100.659 305.241 91.6398 328.374C82.6204 351.506 90.8554 376.247 81.0516 369.954C71.2481 363.661 75.5439 334.531 65.348 331.069C55.152 327.608 53.4883 323.571 63.5833 314.161C73.6784 304.751 37.131 295.409 46.1504 276.408C55.17 257.407 44.6311 245.84 53.2093 242.899Z" fill="url(#paint8_linear_2854_11670)"/>
<path d="M77.6334 368.434C78.5673 364.474 86.5411 329.624 79.1008 325.411C72.5434 321.698 72.7049 307.257 73.7281 293.62C74.6336 281.548 59.1275 275.906 58.4669 275.672L58.0732 276.78C58.2268 276.835 73.3929 282.358 72.5547 293.532C71.5043 307.536 71.3916 322.398 78.5214 326.434C84.1704 329.633 78.9693 357.642 76.4886 368.164L77.6334 368.434Z" fill="white"/>
<path d="M105.647 356.023L95.0465 396.234H71.3568L60.7563 356.023H105.647Z" fill="url(#paint9_linear_2854_11670)"/>
<path d="M105.647 356.023C105.647 356.023 82.3102 360.404 82.3102 396.234H71.3567L60.7563 356.023H105.647Z" fill="url(#paint10_linear_2854_11670)"/>
<path opacity="0.95" d="M403.655 102.804H333.71C327.308 102.804 322.119 97.6158 322.119 91.2154V30.5343C322.119 24.1337 327.308 18.9453 333.71 18.9453H403.655C410.057 18.9453 415.246 24.134 415.246 30.5343V91.2154C415.246 97.616 410.057 102.804 403.655 102.804Z" fill="url(#paint11_linear_2854_11670)"/>
<path d="M372.021 86.9453H364.636V88.3132H372.021V86.9453Z" fill="#4598E6"/>
<path d="M390.817 34.1328V35.4702H398.693V42.8607H400.03V34.1328H390.817ZM337.333 42.8607H338.671V35.4702H346.547V34.1328H337.333L337.333 42.8607ZM398.693 80.9954V88.3885H390.817V89.7259H400.031V80.9954H398.693ZM338.671 80.9954H337.333V89.7259H346.547V88.3885H338.671L338.671 80.9954Z" fill="#4598E6"/>
<path d="M251.223 149.602H241.357V151.429H251.223V149.602Z" fill="#4598E6"/>
<path d="M275.855 79.0549V80.8414H286.375V90.7129H288.161V79.0549H275.855ZM204.417 90.7127H206.203V80.8411H216.723V79.0547H204.417V90.7127ZM286.375 141.649V151.524H275.855V153.311H288.162V141.649H286.375ZM206.203 141.649H204.417V153.311H216.723V151.524H206.203V141.649Z" fill="#4598E6"/>
<path d="M469.648 207.185H453.191C452.108 199.306 450.777 190.313 450.777 190.313C450.777 190.313 450.112 197.735 449.303 207.185H383.446C382.846 198.687 382.122 192.328 381.861 192.198C381.483 192.008 379.134 199.548 377.184 207.185H359.356C363.942 187.437 372.494 155.753 377.438 153.855C384.477 151.148 413.178 142.305 413.178 142.305H429.557C429.557 142.305 458.663 150.607 461.37 159.634C463.523 166.827 468.272 190.548 469.648 207.185Z" fill="#E65353"/>
<path d="M422.12 89.183C422.12 89.183 437.415 91.592 435.086 115.517C432.757 139.443 419.259 137.481 418.356 137.457C417.454 137.433 404.805 137.893 403.819 108.682C403.819 108.682 403.389 87.0816 422.12 89.183Z" fill="#EEA987"/>
<path d="M429.26 130.399C429.26 130.399 428.841 140.239 429.793 142.37C430.746 144.5 417.172 151.343 408.894 143.717C408.894 143.717 410.893 133.023 410.337 129.232C409.781 125.442 429.26 130.399 429.26 130.399Z" fill="#EEA987"/>
<path d="M435.323 108.757C435.323 108.757 436.998 106.969 437.612 108.779C438.227 110.59 435.014 118.681 435.224 119.044C435.224 119.044 434.919 119.746 434.516 119.359C434.114 118.973 435.323 108.757 435.323 108.757Z" fill="#EEA987"/>
<path d="M403.992 108.441C403.992 108.441 402.352 106.62 401.703 108.419C401.054 110.217 404.109 118.368 403.892 118.727C403.892 118.727 404.185 119.435 404.594 119.057C405.003 118.678 403.992 108.441 403.992 108.441Z" fill="#EEA987"/>
<path d="M435.315 112.424L433.126 115.35C433.126 115.35 433.188 108.934 432.837 107.928C432.485 106.922 431.948 103.848 431.654 103.124C431.36 102.399 418.52 98.8015 407.179 104.174C407.179 104.174 407.677 108.788 406.59 109.198C405.504 109.609 406.036 116.713 406.036 116.713L404.236 114.682C404.236 114.682 401.48 96.275 402.161 94.3564C402.841 92.4379 405.01 80.9034 428.278 87.7506C428.278 87.7506 435.532 86.2144 436.988 91.2219C438.444 96.2291 435.315 112.424 435.315 112.424Z" fill="#D98B52"/>
<path d="M429.793 142.379C429.793 142.379 433.243 143.115 418.803 156.951C418.803 156.951 408.562 145.623 408.893 143.726C409.225 141.829 429.793 142.379 429.793 142.379Z" fill="#EEA987"/>
<path d="M418.803 156.95L422.744 163.688L434.433 143.843L429.371 140.312L418.803 156.95Z" fill="#B84343"/>
<path d="M418.803 156.948L409.24 141.734L403.818 145.218L413.539 163.686L418.803 156.948Z" fill="#B84343"/>
<path d="M415.839 199.094C415.957 201.338 416.009 204.09 416.015 207.181H415.474C415.467 204.103 415.415 201.357 415.298 199.12C414.411 182.241 418.501 161.704 418.527 156.891L419.055 156.995C419.029 161.808 414.952 182.287 415.839 199.094Z" fill="#B84343"/>
<path d="M411.761 134.643C411.761 134.643 415.394 138.484 420.527 137.46C425.66 136.436 427.939 134.086 427.939 134.086C427.939 134.086 425.913 139.166 419.979 139.631C414.045 140.096 411.761 134.643 411.761 134.643Z" fill="#C78D71"/>
<path d="M234.551 79.6979C234.54 79.6979 234.528 79.6964 234.516 79.6935C234.171 79.6097 233.624 77.9556 233.518 77.625C233.493 77.5342 233.44 77.3679 233.365 77.1375C232.937 75.8134 231.934 72.7127 232.325 71.5248C232.448 71.15 232.64 70.9328 232.896 70.8797C233.445 70.7662 234.073 71.463 234.099 71.4928L234.113 71.508L234.115 71.5281C234.258 72.8326 234.954 79.3545 234.653 79.6539C234.624 79.683 234.589 79.6979 234.551 79.6979ZM233.023 70.9933C232.989 70.9933 232.955 70.9964 232.922 71.0034C232.713 71.0469 232.553 71.2355 232.444 71.5644C232.066 72.7134 233.097 75.8996 233.485 77.0988C233.56 77.3307 233.614 77.4982 233.64 77.5892C233.894 78.3812 234.343 79.522 234.546 79.5715C234.551 79.5727 234.555 79.5736 234.564 79.5647C234.755 79.306 234.316 74.5284 233.992 71.5628C233.908 71.4722 233.439 70.9933 233.023 70.9933Z" fill="#EEA886"/>
<path d="M245.92 53.6921C245.92 53.6921 254.338 52.8099 257.372 60.9387C260.405 69.0676 263.261 71.7286 263.619 75.9992C265.065 93.2713 273.132 89.3645 270.863 99.3207C268.595 109.277 267.024 110.783 267.024 110.783L247.737 107.002L228.199 107.065C228.199 107.065 235.843 103.248 234.141 95.1195C232.439 86.9906 228.199 73.6673 230.594 64.5932C232.989 55.5196 240.888 54.3853 245.92 53.6921Z" fill="#16202E"/>
<path d="M256.202 79.6983C256.165 79.6983 256.13 79.6832 256.1 79.6541C255.8 79.3547 256.496 72.8328 256.639 71.5284L256.641 71.5082L256.654 71.4931C256.681 71.4635 257.308 70.7653 257.857 70.8799C258.113 70.933 258.306 71.1499 258.429 71.525C258.82 72.7129 257.817 75.8139 257.389 77.1378C257.314 77.3679 257.26 77.5342 257.236 77.6226C257.129 77.9559 256.583 79.6101 256.237 79.6938C256.226 79.6969 256.214 79.6983 256.202 79.6983ZM256.762 71.563C256.438 74.5286 255.998 79.3062 256.191 79.5664C256.198 79.5741 256.203 79.5731 256.207 79.5717C256.411 79.5224 256.86 78.3814 257.115 77.5871C257.139 77.4986 257.193 77.3312 257.268 77.0993C257.657 75.9001 258.687 72.7136 258.309 71.5649C258.201 71.236 258.04 71.0471 257.832 71.0039C257.394 70.9135 256.853 71.4652 256.762 71.563Z" fill="#EEA886"/>
<path d="M285.506 131.374H273.488C270.996 126.833 268.971 123.281 268.971 123.281C268.971 123.281 267.352 126.236 266.095 131.374H225.637C225.019 128.169 224.981 125.097 225.111 122.91C225.111 122.91 222.949 126.816 220.44 131.374H206.848C210.454 124.621 217.213 112.325 218.749 110.723C220.677 108.702 231.857 100.977 239.838 98.456C247.824 95.9351 252.361 98.3686 252.361 98.3686C252.361 98.3686 260.56 99.8458 268.14 102.851C271.121 104.032 279.353 119.233 285.506 131.374Z" fill="#FAA146"/>
<path d="M247.031 58.4507C247.031 58.4507 258.181 60.0594 256.548 76.5163C254.916 92.973 245.076 91.6668 244.418 91.6529C243.761 91.639 234.546 91.9951 233.749 71.9141C233.749 71.9141 233.377 57.0644 247.031 58.4507Z" fill="#8E4F3A"/>
<path d="M251.985 88.7626C251.985 88.7626 251.295 97.3228 252.944 99.8877C254.593 102.452 251.534 105.933 245.23 104.742C238.927 103.552 239.294 99.9792 239.294 99.9792C239.294 99.9792 241.058 94.6966 240.542 90.4681C240.027 86.2393 251.985 88.7626 251.985 88.7626Z" fill="#8E4F3A"/>
<path d="M245.756 64.4231C245.756 64.4231 250.965 69.8991 253.385 72.6719C255.805 75.4446 256.083 80.8008 256.083 80.8008C256.083 80.8008 260.16 75.8226 258.455 70.0253C256.751 64.228 252.717 52.9485 242.507 56.4141C232.297 59.8798 231.919 75.1294 233.116 82.6912C233.116 82.6912 237.699 65.9983 245.756 64.4231Z" fill="#16202E"/>
<path d="M255.9 99.106C255.9 99.106 248.167 118.687 243.468 122.09C243.468 122.09 237.295 102.119 237.726 99.1952C237.726 99.1952 247.038 95.5467 255.9 99.106Z" fill="#8E4F3A"/>
<path d="M239.559 94.3672C239.559 94.3672 225.775 106.63 229.352 114.28C232.406 120.809 243.231 116.805 241.445 109.963C239.66 103.122 239.559 94.3672 239.559 94.3672Z" fill="#16202E"/>
<path d="M241.362 90.9149C241.362 90.9149 246.113 93.1597 250.737 89.8438C250.737 89.8438 249.453 92.4956 246.05 92.8729C242.647 93.2496 241.362 90.9149 241.362 90.9149Z" fill="#633029"/>
<path d="M363.705 45.6406C363.705 45.6406 359.133 62.8426 358.179 66.7187C357.896 67.8859 356.979 69.9042 355.815 72.206C355.807 72.2226 355.799 72.2389 355.787 72.2596C355.536 72.7651 355.417 73.2255 355.359 73.657C355.174 75.0914 355.725 76.2219 354.771 77.9235L354.599 78.6388H345.55C346.607 75.5028 347.947 71.5116 349.02 68.2973C349.92 65.5844 350.631 63.4262 350.821 62.8015C351.38 60.9356 353.431 54.893 355.174 50.8814C355.783 49.484 358.126 48.1029 360.202 47.1039C362.06 46.2202 363.705 45.6406 363.705 45.6406Z" fill="#323657"/>
<path d="M357.651 21.0675C357.651 21.0675 354.766 2.41063 370.221 2.7547C385.676 3.09877 385.469 12.3242 385.194 21.4805C384.918 30.6368 378.997 29.9484 385.676 42.6845C392.355 55.4208 379.892 55.4208 379.892 55.4208L370.221 42.1338L357.651 21.0675Z" fill="#FCCCA2"/>
<path d="M368.531 4.55344C368.531 4.55344 358.065 6.2058 357.652 21.0762C357.239 35.9466 360.475 39.1134 369.633 36.0156C378.79 32.9175 381.683 17.3587 381.889 14.949C382.096 12.5394 382.647 2.76342 368.531 4.55344Z" fill="#EEA886"/>
<path d="M386.912 56.2708C386.949 61.3881 381.066 73.6287 380.158 77.4104C380.051 77.8503 379.936 78.2571 379.821 78.6394H351.257C351.109 76.876 350.97 75.3676 350.9 74.5168C350.674 71.7217 347.841 65.7002 347.935 62.8968C348.034 60.0402 349.436 57.574 351.397 54.524C352.005 53.5785 352.646 52.6167 353.284 51.6797C355.364 48.6297 357.44 45.8593 358.46 44.9057C359.22 44.1988 359.927 43.6563 360.544 43.2452C360.548 43.2411 360.548 43.2411 360.548 43.2411C361.831 42.386 362.694 42.1106 362.694 42.1106L371.689 40.6719C371.689 40.6719 377.297 42.7024 380.524 43.4545C380.523 43.4545 386.817 44.3754 386.912 56.2708Z" fill="#E55353"/>
<path d="M360.549 43.2344L355.335 51.4505L350.523 59.0334C350.534 58.9926 350.855 57.8446 351.398 54.5194C351.502 53.8883 351.613 53.1785 351.732 52.3834C351.767 52.1482 351.818 51.9147 351.883 51.684C351.883 51.684 351.883 51.684 351.883 51.6833C353.943 46.9358 360.311 43.3559 360.544 43.237C360.547 43.2351 360.549 43.2344 360.549 43.2344Z" fill="#E55353"/>
<path d="M375.52 29.313C374.612 31.0259 373.654 41.6586 373.654 41.6586C373.654 41.6586 360.853 46.496 362.163 43.7598C362.758 42.5181 362.932 40.9066 362.944 39.5173C362.956 38.4219 362.866 37.4649 362.802 36.9344C362.769 36.6547 362.743 36.4938 362.743 36.4938C362.743 36.4938 376.427 27.5994 375.52 29.313Z" fill="#EEA886"/>
<path d="M364.262 15.209C364.262 15.209 369.633 23.9523 374.522 27.3946C379.411 30.8368 376.932 33.5907 376.932 33.5907C376.932 33.5907 389.687 6.74136 377.56 4.88262C365.433 3.02388 357.996 2.88621 357.652 21.0611C357.652 21.0611 363.161 15.0716 364.262 15.209Z" fill="#FCCCA2"/>
<path d="M370.103 35.8359C368.138 38.7339 362.946 39.514 362.946 39.514C362.946 39.514 362.946 39.514 362.946 39.514C362.957 38.4186 362.867 37.4616 362.804 36.9311C366.139 37.5738 370.103 35.8359 370.103 35.8359Z" fill="#A77860"/>
<path d="M351.905 51.6325H351.904C351.904 51.6325 351.626 52.2082 351.398 54.5244L353.284 51.6793C353.284 51.6793 356.651 46.852 357.805 45.5969C358.959 44.3417 360.544 43.2422 360.544 43.2422C360.544 43.2422 353.918 46.4251 351.905 51.6325Z" fill="#EBEEFF"/>
<path d="M377.378 58.8299C377.378 58.8299 385.594 55.6081 388.025 55.4205C388.025 55.4205 386.372 42.2291 378.301 43.6272C370.231 45.0254 377.378 58.8299 377.378 58.8299Z" fill="#E55353"/>
<path d="M362.694 42.1222C362.694 42.1222 356.662 51.3957 358.704 52.2057C360.746 53.0159 371.798 51.1247 376.498 42.3163C376.498 42.3163 369.471 38.7142 362.694 42.1222Z" fill="#EEA886"/>
<path d="M388.026 55.4324C387.607 62.7037 385.544 69.6007 383.841 75.9309C383.595 76.8476 383.356 77.756 383.134 78.6479H366.407C366.366 76.1405 366.374 73.9292 366.452 72.0837C367.295 51.9019 373.691 41.2891 373.691 41.2891C373.691 41.2891 375.735 41.9753 381.614 43.6401C385.642 44.7788 387.164 49.9042 387.718 53.0117C387.718 53.0117 387.722 53.0239 387.727 53.0487C387.973 54.4502 388.026 55.4324 388.026 55.4324Z" fill="#323657"/>
<path d="M362.689 42.1094C362.624 42.2245 361.522 44.0741 360.202 47.0993C358.221 51.6414 355.746 58.8344 355.536 66.7593C355.471 69.3036 354.965 73.4264 354.196 78.634H350.858C350.521 74.2769 349.723 70.7956 349.02 68.2925C348.564 66.6687 348.145 65.4561 347.918 64.6875C346.854 61.0663 350.258 56.2448 351.397 54.5184C352.539 52.7964 355.269 44.8715 362.689 42.1094Z" fill="#323657"/>
<path d="M393.354 78.639H384.372C384.372 78.0554 384.17 77.1015 383.841 75.922C382.209 70.1223 377.379 58.831 377.379 58.831C377.379 58.831 370.152 47.0221 377.001 44.0132C383.85 41.0045 386.797 49.4143 387.718 53.0027C387.718 53.0027 387.722 53.015 387.727 53.0397C387.952 53.8987 392.031 69.444 393.354 78.639Z" fill="#323657"/>
<path d="M246.855 247.008C246.855 247.008 249.994 246.964 251.112 245.754C252.229 244.545 254.203 243.461 254.836 243.153C255.683 242.741 258.025 240.465 258.318 241.576C258.613 242.688 254.589 245.508 253.824 246.269C253.058 247.031 257.166 247.363 257.769 248.101C258.371 248.84 256.275 256.612 253.537 256.01C250.8 255.408 248.558 252.648 248.041 252.654C247.523 252.66 246.019 252.308 246.019 252.308L246.855 247.008Z" fill="#EEA886"/>
<path d="M257.187 247.789C257.187 247.789 265.358 250.284 265.695 250.991C266.031 251.698 265.803 252.216 265.025 252.02C264.246 251.825 257.026 249.881 257.026 249.881C257.026 249.881 265.956 254.762 266.358 255.25C266.593 255.536 266.201 256.557 265.769 256.498C265.337 256.439 256.144 252.223 256.144 252.223C256.144 252.223 264.471 256.799 264.679 257.343C264.86 257.818 264.303 258.695 263.656 258.408C263.01 258.121 254.984 254.411 254.984 254.411C254.984 254.411 260.787 258.21 260.697 258.836C260.642 259.218 260.338 260.111 258.877 259.072C257.415 258.033 253.67 256.038 253.67 256.038L257.187 247.789Z" fill="#EEA886"/>
<path d="M229.667 384.824C229.667 384.824 232.289 388.745 235.966 389.592C239.642 390.439 243.264 391.787 243.292 394.107C243.319 396.426 232.661 397.81 228.454 395.471C222.174 391.981 221.535 393.033 220.839 391.288C220.143 389.543 221.675 384.878 221.63 384.323C221.574 383.637 229.667 384.824 229.667 384.824Z" fill="#353A3D"/>
<path d="M229.259 382.897C229.259 382.897 229.737 384.791 229.666 384.831C229.595 384.871 221.381 385.85 221.629 384.33C221.831 383.097 222.118 381.758 222.118 381.758L229.259 382.897Z" fill="#81807E"/>
<path d="M178.084 384.574C178.084 384.574 179.954 388.324 183.149 389.602C186.563 390.968 189.302 392.537 189.24 394.798C189.178 397.058 180.892 399.349 174.864 395.011C171.056 392.27 169.849 392.256 169.238 390.53C168.627 388.804 170.299 384.319 170.276 383.777C170.248 383.106 178.084 384.574 178.084 384.574Z" fill="#353A3D"/>
<path d="M178.177 382.614C178.177 382.614 178.155 384.526 178.084 384.562C178.013 384.598 170.073 385.252 170.275 383.765C170.436 382.583 171.046 381.156 171.046 381.156L178.177 382.614Z" fill="#81807E"/>
<path d="M207.286 268.052C207.286 268.052 217.714 307.994 221.685 317.229C225.363 325.784 226.577 337.749 227.084 343.758C227.721 351.317 231.513 380.751 231.958 382.961C232.405 385.171 219.692 384.183 219.692 384.183C219.692 384.183 210.926 333.291 207.286 325.864C204.858 320.908 190.766 285.366 189.154 287.413C187.541 289.459 185.542 325.071 184.348 330.983C183.154 336.895 179.488 383.605 179.488 383.605C179.488 383.605 171.291 384.814 169.102 382.961C169.102 382.961 168.105 343.076 168.866 331.993C169.156 327.77 163.916 281.35 170.635 262.662C174.186 252.786 207.286 268.052 207.286 268.052Z" fill="#2D3133"/>
<path d="M149.204 239.395C149.204 239.852 150.067 241.68 151.444 244.308C153.458 240.28 155.04 236.973 155.557 235.757C157.254 231.749 166 222.562 166 222.562C166 222.562 166 222.569 166.004 222.582C166.004 222.586 166.005 222.589 166.006 222.593C166.008 222.596 166.009 222.599 166.009 222.603C166.013 222.616 166.017 222.629 166.019 222.641C166.025 222.663 166.032 222.689 166.041 222.72C166.046 222.735 166.05 222.752 166.054 222.768C166.058 222.781 166.062 222.792 166.064 222.805C166.54 224.579 169.464 235.665 169.572 241.126C169.69 247.071 171.242 258.07 171.242 258.07L171.248 258.071L173.074 258.327L177.115 258.897L177.599 258.964L178.775 259.129L189.49 260.637L193.29 261.171L193.803 261.244L195.976 261.549L201.974 262.393L203.503 262.607L203.517 262.61L204.663 262.771L206.247 262.993C206.247 262.993 206.247 262.993 206.248 262.992C206.292 262.933 207.79 260.884 207.558 256.332C207.411 253.393 207.057 247.871 207.204 242.749C207.204 242.722 207.207 242.696 207.207 242.67C207.207 242.605 207.211 242.541 207.212 242.476C207.214 242.453 207.214 242.432 207.216 242.411V242.399C207.309 239.584 207.557 236.917 208.082 234.89C208.436 233.518 208.672 232.16 208.827 230.888C208.835 230.825 208.842 230.764 208.85 230.702C208.877 230.466 208.902 230.232 208.924 230.002C209.266 226.449 208.997 223.744 208.98 223.586L208.987 223.599C209.095 223.835 209.877 226.701 210.902 230.239C212.635 236.219 215.06 244.121 216.094 244.5C217.597 245.054 241.941 252.262 247.198 253.001C247.806 253.086 248.159 253.085 248.192 252.977C248.217 252.901 248.241 252.822 248.265 252.74C248.904 250.634 249.782 247.056 249.922 246.478C249.936 246.426 249.943 246.398 249.943 246.398L249.001 246.115L222.513 238.179L210.404 203.266C210.151 203.064 207.177 201.625 205.005 200.592C202.79 199.538 200.12 197.99 197.702 196.665C196.469 195.99 195.302 195.375 194.294 194.912L194.139 194.842L194.138 194.84C192.47 194.078 191.362 193.573 191.362 193.573C191.362 193.573 191.361 193.573 191.357 193.573C191.318 193.569 191.056 193.544 190.633 193.504C188.307 193.283 181.08 192.606 178.658 192.464C178.459 192.451 178.291 192.444 178.162 192.441C178.051 192.437 177.969 192.436 177.918 192.44C177.612 192.458 176.123 192.978 174.164 193.723H174.163C174.088 193.751 174.014 193.779 173.939 193.808C173.847 193.843 173.755 193.877 173.662 193.913C173.492 193.978 173.319 194.044 173.144 194.112C172.794 194.249 172.434 194.389 172.068 194.534C171.943 194.584 171.815 194.634 171.686 194.685C167.768 196.24 163.279 198.161 162.212 198.928C161.508 199.432 159.313 203.569 156.767 208.685C153.49 219.183 149.336 235.253 149.207 239.216C149.205 239.279 149.204 239.339 149.204 239.395Z" fill="#DECBC4"/>
<path d="M206.249 263C206.249 263 207.055 263.964 207.288 268.047C207.288 268.047 174.141 264.181 170.636 262.657C170.636 262.657 170.499 258.157 171.243 258.079C172.059 257.993 206.249 263 206.249 263Z" fill="#495055"/>
<path d="M177.979 191.323C178.083 196.524 188.155 199.37 188.155 199.37C188.155 199.37 192.368 194.089 191.362 193.583C190.967 193.384 190.806 192.596 190.757 191.712C190.711 190.871 190.765 189.943 190.814 189.353C190.844 188.985 190.872 188.749 190.872 188.749C190.872 188.749 189.434 187.23 187.603 185.422C184.403 182.259 180.005 178.207 179.998 179.819C179.998 179.904 180.009 180.006 180.035 180.125C180.808 183.752 177.979 191.323 177.979 191.323Z" fill="#EEA886"/>
<path d="M178.816 258.87C178.816 258.87 178.092 263.431 178.03 264.62L176.497 264.315C176.497 264.315 176.919 259.488 177.167 258.68L178.816 258.87Z" fill="#353A3D"/>
<path d="M203.483 262.459C203.483 262.459 204.065 266.606 204.078 268.172L202.456 267.961C202.456 267.961 202.124 262.783 201.938 262.242L203.483 262.459Z" fill="#353A3D"/>
<path d="M181.86 183.703C181.86 183.703 181.86 183.703 181.861 183.704C181.881 183.734 182.308 184.373 183.037 185.291C184.583 187.235 187.49 190.43 190.758 191.713C190.713 190.872 190.766 189.943 190.816 189.354C191.15 189.346 191.484 189.307 191.816 189.234C190.92 187.669 189.626 186.028 189.626 186.028L187.604 185.423L181.86 183.703Z" fill="#A77860"/>
<path d="M179.926 179.886C180.798 181.781 181.625 183.155 181.86 183.699C181.86 183.699 181.86 183.699 181.861 183.7C182.013 184.054 182.43 184.632 183.037 185.287C184.697 187.074 187.782 189.433 190.816 189.35C191.15 189.342 191.484 189.303 191.816 189.23C193.041 188.962 194.487 188.393 195.283 186.835C201.566 174.534 197.017 164.475 197.017 164.475C197.017 164.475 179.835 159.617 177.147 164.789C175.26 168.416 177.879 175.433 179.926 179.886Z" fill="#EEA886"/>
<path d="M197.017 164.48C197.017 164.48 198.613 164.391 199.007 161.367C199.397 158.378 198.609 157.55 198.609 157.55C198.609 157.55 191.516 154.581 188.969 154.195C186.421 153.809 180.158 153.438 178.689 155.117C178.689 155.117 175.122 154.288 174.15 160.209C172.609 169.602 179.404 178.723 179.404 178.723C179.404 178.723 179.346 172.586 180.7 171.773C182.053 170.96 183.222 172.894 183.222 172.894L185.99 173.39C185.99 173.39 181.785 164.311 186.829 163.975C191.874 163.638 194.129 165.006 197.017 164.48Z" fill="#252E3B"/>
<path d="M183.144 170.441C182.881 167.738 177.991 166.705 178.318 169.539C178.646 172.372 181.054 175.095 182.166 174.999C183.279 174.903 183.345 172.501 183.144 170.441Z" fill="#EEA886"/>
<path d="M151.445 244.311C153.575 248.374 156.935 254.352 160.254 260.148C159.817 260.964 159.39 261.772 158.981 262.571C157.983 264.523 157.098 266.413 156.469 268.174C155.712 270.292 154.661 275.719 156.673 276.727L167.277 282.578C167.277 282.578 167.351 282.372 167.492 281.988C167.843 281.036 168.605 279 169.659 276.361C169.694 276.276 169.8 276.024 169.957 275.654C170.167 275.157 170.472 274.447 170.819 273.635C170.975 273.272 171.139 272.889 171.309 272.496C171.5 272.046 171.7 271.582 171.898 271.121C172.186 270.449 172.474 269.781 172.74 269.162C173.463 267.478 174.028 266.167 174.028 266.167C174.063 266.09 174.099 266.013 174.135 265.935C174.48 265.189 174.834 264.44 175.194 263.694C175.751 262.538 176.325 261.387 176.912 260.261C176.97 260.146 177.029 260.032 177.089 259.919C177.194 259.721 177.299 259.523 177.404 259.327C177.469 259.207 177.534 259.087 177.599 258.968C177.613 258.941 177.628 258.914 177.643 258.888C177.669 258.84 177.695 258.793 177.722 258.746C180.787 253.155 184.24 248.48 185.341 241.624C185.447 240.963 185.548 240.305 185.645 239.652C185.804 238.563 185.951 237.489 186.085 236.436C186.135 236.037 186.185 235.644 186.232 235.253C186.784 230.679 187.114 226.603 187.38 223.765C188.209 214.921 182.791 205.345 178.632 199.43C176.407 196.266 174.544 194.149 174.185 193.748C174.176 193.74 174.169 193.733 174.163 193.727C174.089 193.755 174.015 193.783 173.939 193.812C173.847 193.847 173.755 193.881 173.662 193.917C173.492 193.982 173.319 194.048 173.144 194.116C172.794 194.253 172.434 194.393 172.069 194.538C171.943 194.588 171.815 194.637 171.686 194.689C167.659 196.268 159.176 198.6 158.109 199.366C157.493 199.807 156.115 203.842 154.524 208.94C151.246 219.438 149.301 235.267 149.207 239.22C149.205 239.283 149.204 239.343 149.204 239.399C149.205 239.856 150.067 241.683 151.445 244.311ZM167.557 242.336C167.557 244.309 166.915 246.567 165.929 248.975C165.903 249.035 165.879 249.096 165.854 249.156C165.174 247.706 164.534 246.317 163.96 245.031C163.959 245.028 163.957 245.026 163.957 245.024C162.379 241.493 161.296 238.738 161.236 237.648C160.846 230.646 166.005 222.586 166.005 222.586C166.005 222.589 166.006 222.593 166.007 222.597C166.008 222.6 166.01 222.603 166.01 222.607C166.014 222.62 166.017 222.633 166.02 222.645C166.028 222.671 166.035 222.697 166.042 222.723C166.047 222.739 166.051 222.755 166.055 222.772C166.058 222.785 166.062 222.796 166.065 222.809C167.121 226.971 167.557 242.336 167.557 242.336Z" fill="#3C4145"/>
<path d="M187.698 268.727L157.473 282.178C155.764 282.939 153.76 282.17 152.999 280.46L144.725 261.874C143.964 260.164 144.733 258.162 146.443 257.4L176.667 243.95C178.377 243.189 180.38 243.958 181.141 245.667L189.415 264.254C190.176 265.963 189.407 267.966 187.698 268.727Z" fill="#B3A5A0"/>
<path d="M194.214 194.985C194.214 194.985 195.631 199.703 197.465 211.48C197.465 211.481 197.465 211.483 197.466 211.484C197.529 211.88 197.59 212.282 197.653 212.694C197.659 212.741 197.667 212.789 197.675 212.837C197.716 213.109 197.758 213.385 197.799 213.665C197.804 213.698 197.809 213.731 197.814 213.763C197.842 213.951 197.87 214.14 197.897 214.331C197.966 214.797 198.035 215.27 198.104 215.753C198.922 221.486 200.069 231.242 201.172 241.091V241.095C202.044 248.858 204.03 256.824 204.661 262.769C204.661 262.773 204.662 262.776 204.662 262.78C204.787 263.945 205.085 265.498 205.488 267.249C205.533 267.447 205.58 267.648 205.627 267.851C207.403 275.355 210.852 285.976 210.852 285.976L211.856 285.048L214.831 282.303C215.516 281.671 215.776 280.703 215.5 279.815C213.85 274.494 208.243 255.662 207.215 242.42C207.214 242.416 207.214 242.412 207.214 242.408C207.719 237.756 209.007 231.513 208.814 230.615C208.827 230.647 208.838 230.679 208.849 230.712C209.44 232.354 210.094 234.139 210.753 235.876V235.877C212.523 240.543 214.334 244.867 215.088 245.143C216.765 245.76 246.902 254.649 247.121 253.409C247.142 253.284 247.168 253.151 247.197 253.01C247.224 252.872 247.255 252.726 247.287 252.575C247.659 250.877 248.334 248.442 248.806 246.797C248.876 246.555 248.941 246.328 249 246.125C249.198 245.444 249.327 245.012 249.327 245.012L223.842 236.649L210.983 203.027C210.73 202.827 207.449 201.061 205.276 200.027C203.015 198.95 200.152 197.622 197.613 196.45C196.4 195.889 195.258 195.365 194.293 194.922L194.214 194.985Z" fill="#3C4145"/>
<path d="M176.959 206.635L181.86 209.398L179.766 211.533L185.341 241.626C186.477 234.572 186.995 227.874 187.379 223.766C188.661 210.094 175.012 194.671 174.163 193.727C173.508 193.975 172.8 194.25 172.068 194.539L176.959 206.635Z" fill="#51565C"/>
<path d="M194.14 194.852C194.14 194.852 195.971 200.83 198.105 215.753C198.923 221.485 200.071 231.242 201.174 241.09L202.315 212.907L199.98 210.379L202.055 207.786L197.615 196.449C196.402 195.889 195.26 195.364 194.294 194.921L194.14 194.852Z" fill="#51565C"/>
<path d="M173.891 193.839L177.981 191.328C177.981 191.328 178.095 193.556 188.157 199.375L185.299 207.421L173.891 193.839Z" fill="#F5E2D9"/>
<path d="M190.832 192.438C190.832 192.438 190.674 194.842 188.155 199.362L193.732 206.63L194.138 194.842L190.832 192.438Z" fill="#F5E2D9"/>
<path d="M188.142 199.375C188.142 199.375 187.061 203.697 187.45 204.907C187.45 204.907 189.827 205.772 191.535 204.691C191.535 204.691 190.325 201.666 188.142 199.375Z" fill="#FAA146"/>
<path d="M193.728 261.7C194.333 258.651 193.757 249.512 193.732 249.125L193.215 249.158C193.221 249.252 193.811 258.616 193.219 261.599L193.728 261.7Z" fill="#AD9F99"/>
<path d="M189.496 260.297C189.496 260.297 194.374 260.879 195.986 261.282L195.775 266.747L189.388 266.066L189.496 260.297Z" fill="#69737A"/>
<path d="M190.564 204.292C190.564 204.292 196.004 218.028 195.116 233.401C194.197 249.341 192.688 255.12 192.688 255.12L189.333 259.326L187.854 254.157C187.854 254.157 192.355 233.835 189.45 214.061C188.923 210.477 188.142 203.688 188.142 203.688L190.564 204.292Z" fill="#FAA146"/>
<path d="M174.217 269.152C174.217 269.152 175.385 271.486 176.552 271.875C177.719 272.264 179.421 274.16 179.421 274.16L171.202 278.488C171.202 278.488 169.014 274.209 168.916 271.486C168.819 268.763 174.217 269.152 174.217 269.152Z" fill="#EEA886"/>
<path d="M174.998 269.375L175.543 270.469C175.543 270.469 170.323 274.286 168.916 274.529L168.433 273.07L174.998 269.375Z" fill="#DECBC4"/>
<path d="M175.543 269.426C175.543 269.426 171.631 272.66 168.335 274.152L153.568 248.262L162.993 243.109C162.993 243.109 175.283 267.481 175.543 269.426Z" fill="#3C4145"/>
<path d="M208.659 223.642C208.84 227.331 208.814 230.606 208.814 230.606C208.814 230.606 208.814 230.608 208.814 230.609C208.815 230.627 208.819 230.727 208.826 230.892C208.834 230.829 208.842 230.768 208.849 230.706C209.44 232.348 210.094 234.133 210.753 235.87C210.907 233.857 210.946 231.98 210.902 230.242C210.637 219.9 207.384 214.477 207.384 214.477C208.13 216.279 208.488 220.147 208.659 223.642Z" fill="#2D3133"/>
<path d="M336.981 189.539C336.981 189.539 336.827 187.639 337.051 186.752C337.438 185.22 336.868 182.739 338.795 181.536C340.722 180.332 346.262 185.372 346.698 186.78C347.133 188.188 345.062 190.588 340.73 192.604C336.399 194.62 336.981 189.539 336.981 189.539Z" fill="#EEA886"/>
<path d="M338.206 182.038C338.206 182.038 340.076 179.224 342.545 176.349C344.711 173.827 347.751 170.998 348.393 171.535C349.368 172.351 346.609 174.384 344.631 177.03C342.811 179.466 343.583 179.293 343.583 179.293C343.583 179.293 343.36 179.33 345.867 177.065C348.562 174.629 351.559 172.125 352.093 172.555C352.755 173.088 352.792 173.211 351.96 174.256C352.569 173.758 352.794 173.856 353.028 174.091C354.242 175.309 350.847 179.509 349.498 181.176C350.542 179.902 351.447 179.079 351.707 180.305C352.005 181.707 346.934 187.426 345.317 189.65C343.554 192.076 338.206 182.038 338.206 182.038Z" fill="#EEA886"/>
<path d="M273.408 384.122C273.408 384.122 278.68 387.239 281.067 388.397C283.454 389.555 292.728 389.887 293.645 390.757C294.561 391.628 294.225 394.4 292.688 394.683C291.151 394.966 279.879 395.985 276.118 395.106C272.356 394.227 265.322 395.706 263.764 395.177C262.207 394.648 263.211 386.252 263.813 384.367C264.416 382.483 273.408 384.122 273.408 384.122Z" fill="#181929"/>
<path d="M273.845 380.688L273.406 384.12C273.406 384.12 266.358 385.438 264.223 384.353L264.752 380.786L273.845 380.688Z" fill="#22243B"/>
<path d="M302.122 263.417C302.046 265.794 301.613 270.952 301.109 276.369C300.996 277.573 300.878 278.79 300.762 279.991C300.059 287.281 299.35 294.024 299.35 294.024C298.459 299.826 296.623 309.901 294.57 317.518V317.52C293.977 319.718 293.369 321.711 292.758 323.339C292.163 324.922 291.566 326.159 290.987 326.9C286.619 332.478 276.605 381.931 276.605 381.931L262.936 381.827C262.936 381.827 265.942 348.34 268.964 339.852C272.334 330.372 278.191 317.597 276.738 308.453C275.828 302.716 274.653 284.452 274.653 284.452C274.653 284.452 273.511 263.93 278.879 248.899C280.219 245.144 302.122 263.417 302.122 263.417Z" fill="#292C47"/>
<path d="M311.824 385.411C311.824 385.411 317.058 388.59 319.431 389.777C321.804 390.964 331.074 391.407 331.98 392.289C332.886 393.17 332.516 395.938 330.976 396.202C329.436 396.467 318.152 397.351 314.401 396.426C310.651 395.502 303.6 396.898 302.048 396.35C300.497 395.802 301.602 387.418 302.227 385.541C302.852 383.664 311.824 385.411 311.824 385.411Z" fill="#181929"/>
<path d="M312.301 381.98L311.821 385.407C311.821 385.407 304.758 386.64 302.635 385.529L303.207 381.969L312.301 381.98Z" fill="#22243B"/>
<path d="M295.962 332.927C295.607 321.989 294.64 314.722 291.825 308.404C289.461 303.097 287.438 286.433 287.438 286.433C287.438 286.433 281.032 266.906 282.33 250.996C282.655 247.024 307.418 257.012 307.418 257.012C307.96 259.328 309.617 266.618 310.204 272.025C313.557 302.915 312.302 323.04 312.302 323.04C310.387 329.861 315.225 383.528 315.225 383.528H301.287C301.287 383.528 297.633 364.436 297.249 352.563C297.249 352.563 295.825 334.818 295.962 332.927Z" fill="#292C47"/>
<path d="M295.652 191.422C295.652 191.422 302.146 202.067 304.044 208.006C305.943 213.946 304.413 231.216 304.749 234.687C305.788 245.456 307.304 257.312 307.304 257.312L285.535 271.215C285.535 271.215 281.627 262.09 278.22 250.727C274.813 239.364 274.539 229.134 274.57 222.299C274.67 200.857 286.262 188.75 286.262 188.75L295.652 191.422Z" fill="#CFBEB6"/>
<path d="M303.653 162.88C303.653 162.88 308.117 167.656 306.856 168.912C305.814 169.95 309.918 174.71 310.502 175.51C311.086 176.311 308.679 177.636 308.283 178.353C307.887 179.071 308.12 186.563 306.054 187.333C303.989 188.103 293.555 187.289 290.241 185.266C286.928 183.243 281.581 171.58 281.965 165.968C282.349 160.356 295.802 154.55 303.653 162.88Z" fill="#EEA886"/>
<path d="M299.43 185.679C299.43 185.679 299.353 186.316 299.252 187.302C299.213 187.716 299.162 188.187 299.118 188.703C299.092 189.009 299.067 189.333 299.035 189.664C299.029 189.753 299.016 189.842 299.01 189.932C298.997 190.084 298.984 190.237 298.971 190.396C298.92 191.116 298.869 191.861 298.831 192.599C298.736 194.502 298.723 196.323 298.927 197.335C299.474 200.111 287.517 188.398 287.517 188.398C287.517 188.398 288.53 179.313 288.039 169.102C287.543 158.891 299.43 185.679 299.43 185.679Z" fill="#EEA886"/>
<path d="M304.568 163.902C304.568 163.902 306.679 158.921 300.167 155.463C292.5 151.392 284.371 161.613 283.293 162.215C282.214 162.816 277.312 168.331 282.109 175.643C288.162 184.868 287.843 184.559 287.843 184.559C287.843 184.559 288.45 177.753 288.41 176.44C288.337 174.04 294.634 173.756 294.634 173.756C294.634 173.756 292.048 170.314 294.923 168.77C297.798 167.227 301.16 163.564 304.568 163.902Z" fill="#3A3F47"/>
<path d="M291.33 172.89C290.872 172.246 289.19 169.403 287.026 171.9C284.863 174.396 290.664 179.064 291.144 179.018C291.623 178.972 295.187 178.308 291.33 172.89Z" fill="#EEA886"/>
<path d="M308.493 261.877C308.493 261.877 307.41 256.785 307.2 256.023L275.363 261.32L275.689 265.435C275.689 265.435 298.628 264.061 308.493 261.877Z" fill="#23263D"/>
<path d="M272.529 239.438C272.529 239.438 277.42 260.556 269.76 285.193C268.825 288.201 290.963 284.725 290.963 284.725L272.529 239.438Z" fill="#FAA146"/>
<path d="M300.651 283.205C300.651 283.205 284.926 286.656 280.51 285.096C280.51 285.096 274.083 261.721 271.842 237.997C271.668 236.163 271.52 234.329 271.402 232.505C271.402 232.501 271.402 232.501 271.402 232.501C270.151 213.2 275.064 193.619 286.26 188.75C286.575 188.963 302.343 202.863 302.044 215.585C302.022 216.446 302.011 217.311 302.005 218.175C301.995 219.739 302.007 221.307 302.04 222.871L302.042 222.873C302.142 227.713 302.442 232.54 302.869 237.228C302.913 237.717 302.96 238.205 303.007 238.69C303.084 239.478 303.165 240.26 303.247 241.038C303.36 242.074 303.476 243.1 303.598 244.118C306.143 265.352 300.651 283.205 300.651 283.205Z" fill="#FAA146"/>
<path d="M300.005 200.698C300.005 200.698 302.967 212.424 304.096 227.177C305.041 239.52 306.303 248.249 306.303 248.249L308.193 254.359L308.97 248.466C308.97 248.466 308.277 232.536 307.352 226.056C306.42 219.523 306.013 211.228 300.789 200.469L300.005 200.698Z" fill="#D44040"/>
<path d="M299.675 200.716C299.675 200.716 300.032 201.059 300.537 201.134C301.042 201.208 301.765 200.401 299.183 196.992L299.675 200.716Z" fill="#D44040"/>
<path d="M287.657 186.977C287.657 186.977 294.979 193.871 299.336 195.392L300.167 201.996L286.262 188.738L287.657 186.977Z" fill="#EDDAD3"/>
<path d="M292.574 213.66C289.688 212.635 277.693 206.813 280.883 200.017C284.073 193.222 292.297 196.837 298.488 199.601C304.965 202.494 320.255 211.382 321.464 210.554C322.674 209.726 327.963 202.159 328.919 200.473C329.875 198.786 335.648 188.008 336.191 187.195C336.723 186.401 345.108 193.442 345.108 193.442C345.108 193.442 330.051 220.179 325.999 224.436C321.948 228.693 292.574 213.66 292.574 213.66Z" fill="#FAA146"/>
<path d="M294.57 317.5V317.502C293.977 319.7 293.369 321.694 292.758 323.321C292.756 323.319 292.756 323.319 292.756 323.319L287.988 294.883C289.194 297.579 294.57 317.5 294.57 317.5Z" fill="#181929"/>
<path d="M302.04 222.845L288.244 211.578C291.899 213.536 300.88 217.637 302.005 218.149C301.995 219.713 302.007 221.281 302.04 222.845Z" fill="#8F5C28"/>
<path d="M299.252 187.316C299.214 187.73 299.163 188.201 299.118 188.716C299.093 189.022 299.067 189.346 299.035 189.677C294.464 189.372 290.93 185.731 290.714 185.508C292.573 186.985 299.252 187.316 299.252 187.316Z" fill="#A77860"/>
<g opacity="0.95">
<path d="M478.417 82.5197H485.661L483.444 77.9219H476.2L478.417 82.5197Z" fill="url(#paint12_linear_2854_11670)"/>
<path d="M475.028 82.5197H476.754L474.537 77.9219H472.811L475.028 82.5197Z" fill="url(#paint13_linear_2854_11670)"/>
<path d="M450.002 77.0487H479.333L478.359 74.75H449.028L450.002 77.0487Z" fill="url(#paint14_linear_2854_11670)"/>
</g>
<path d="M292.482 3.74511H281.407C281.033 3.74511 280.73 3.44213 280.73 3.06827V0.676845C280.73 0.302983 281.033 0 281.407 0H292.482C292.856 0 293.159 0.303223 293.159 0.676845V3.06827C293.159 3.44213 292.856 3.74511 292.482 3.74511Z" fill="url(#paint15_linear_2854_11670)"/>
<path d="M292.482 12.7295H281.407C281.033 12.7295 280.73 12.4265 280.73 12.0526V9.66122C280.73 9.28736 281.033 8.98438 281.407 8.98438H292.482C292.856 8.98438 293.159 9.2876 293.159 9.66122V12.0526C293.159 12.4265 292.856 12.7295 292.482 12.7295Z" fill="url(#paint16_linear_2854_11670)"/>
<path d="M292.482 21.7063H281.407C281.034 21.7063 280.73 21.4033 280.73 21.0294V18.638C280.73 18.2642 281.034 17.9609 281.407 17.9609H292.482C292.857 17.9609 293.159 18.2642 293.159 18.638V21.0294C293.159 21.4033 292.856 21.7063 292.482 21.7063Z" fill="url(#paint17_linear_2854_11670)"/>
<path d="M301.151 3.74511H298.968C298.595 3.74511 298.292 3.44213 298.292 3.06827V0.676845C298.292 0.302983 298.595 0 298.968 0H301.151C301.525 0 301.828 0.303223 301.828 0.676845V3.06827C301.828 3.44213 301.525 3.74511 301.151 3.74511Z" fill="url(#paint18_linear_2854_11670)"/>
<path d="M301.15 12.7295H298.968C298.594 12.7295 298.291 12.4265 298.291 12.0526V9.66122C298.291 9.28736 298.594 8.98438 298.968 8.98438H301.15C301.524 8.98438 301.828 9.2876 301.828 9.66122V12.0526C301.827 12.4265 301.524 12.7295 301.15 12.7295Z" fill="url(#paint19_linear_2854_11670)"/>
<path d="M301.151 21.7063H298.968C298.595 21.7063 298.292 21.4033 298.292 21.0294V18.638C298.292 18.2642 298.595 17.9609 298.968 17.9609H301.151C301.525 17.9609 301.828 18.2642 301.828 18.638V21.0294C301.828 21.4033 301.525 21.7063 301.151 21.7063Z" fill="url(#paint20_linear_2854_11670)"/>
<path d="M245.332 216.128H258.335L254.355 207.875H241.353L245.332 216.128Z" fill="url(#paint21_linear_2854_11670)"/>
<path d="M239.248 216.128H242.346L238.367 207.875H235.269L239.248 216.128Z" fill="url(#paint22_linear_2854_11670)"/>
<defs>
<linearGradient id="paint0_linear_2854_11670" x1="255.341" y1="293.313" x2="245.447" y2="113.935" gradientUnits="userSpaceOnUse">
<stop stop-color="#D1D7E0"/>
<stop offset="1" stop-color="#EBEBFF"/>
</linearGradient>
<linearGradient id="paint1_linear_2854_11670" x1="417.26" y1="343.327" x2="417.26" y2="158.655" gradientUnits="userSpaceOnUse">
<stop stop-color="#D1D7E0"/>
<stop offset="1" stop-color="#EBEBFF"/>
</linearGradient>
<linearGradient id="paint2_linear_2854_11670" x1="-0.000240312" y1="396.688" x2="476.168" y2="396.688" gradientUnits="userSpaceOnUse">
<stop offset="0.0052" stop-color="#1A2257"/>
<stop offset="1" stop-color="#5E60F2"/>
</linearGradient>
<linearGradient id="paint3_linear_2854_11670" x1="246.289" y1="229.286" x2="246.289" y2="94.2523" gradientUnits="userSpaceOnUse">
<stop stop-color="#D1D7E0"/>
<stop offset="1" stop-color="#EBEBFF"/>
</linearGradient>
<linearGradient id="paint4_linear_2854_11670" x1="107.942" y1="306.615" x2="77.3291" y2="306.615" gradientUnits="userSpaceOnUse">
<stop offset="0.0052" stop-color="#1A2257"/>
<stop offset="1" stop-color="#5E60F2"/>
</linearGradient>
<linearGradient id="paint5_linear_2854_11670" x1="84.1561" y1="331.871" x2="28.5028" y2="331.871" gradientUnits="userSpaceOnUse">
<stop offset="0.0052" stop-color="#1A2257"/>
<stop offset="1" stop-color="#5E60F2"/>
</linearGradient>
<linearGradient id="paint6_linear_2854_11670" x1="79.3976" y1="339.976" x2="37.626" y2="339.976" gradientUnits="userSpaceOnUse">
<stop offset="0.0052" stop-color="#1A2257"/>
<stop offset="1" stop-color="#5E60F2"/>
</linearGradient>
<linearGradient id="paint7_linear_2854_11670" x1="129.891" y1="297.533" x2="67.1641" y2="297.533" gradientUnits="userSpaceOnUse">
<stop offset="0.0052" stop-color="#1A2257"/>
<stop offset="1" stop-color="#5E60F2"/>
</linearGradient>
<linearGradient id="paint8_linear_2854_11670" x1="92.5436" y1="366.007" x2="56.0329" y2="256.456" gradientUnits="userSpaceOnUse">
<stop offset="0.0052" stop-color="#1A2257"/>
<stop offset="1" stop-color="#5E60F2"/>
</linearGradient>
<linearGradient id="paint9_linear_2854_11670" x1="64.2867" y1="437.549" x2="82.5418" y2="358.841" gradientUnits="userSpaceOnUse">
<stop stop-color="#C9C4C1"/>
<stop offset="1" stop-color="#FFF6DE"/>
</linearGradient>
<linearGradient id="paint10_linear_2854_11670" x1="60.7562" y1="376.129" x2="105.647" y2="376.129" gradientUnits="userSpaceOnUse">
<stop stop-color="#C9C4C1"/>
<stop offset="1" stop-color="#FFF6DE"/>
</linearGradient>
<linearGradient id="paint11_linear_2854_11670" x1="368.682" y1="115.117" x2="368.682" y2="39.0508" gradientUnits="userSpaceOnUse">
<stop stop-color="#D1D7E0"/>
<stop offset="1" stop-color="#EBEBFF"/>
</linearGradient>
<linearGradient id="paint12_linear_2854_11670" x1="476.2" y1="80.2208" x2="485.661" y2="80.2208" gradientUnits="userSpaceOnUse">
<stop stop-color="#D1D7E0"/>
<stop offset="1" stop-color="#EBEBFF"/>
</linearGradient>
<linearGradient id="paint13_linear_2854_11670" x1="472.811" y1="80.2208" x2="476.754" y2="80.2208" gradientUnits="userSpaceOnUse">
<stop stop-color="#D1D7E0"/>
<stop offset="1" stop-color="#EBEBFF"/>
</linearGradient>
<linearGradient id="paint14_linear_2854_11670" x1="449.028" y1="75.8993" x2="479.333" y2="75.8993" gradientUnits="userSpaceOnUse">
<stop stop-color="#D1D7E0"/>
<stop offset="1" stop-color="#EBEBFF"/>
</linearGradient>
<linearGradient id="paint15_linear_2854_11670" x1="280.73" y1="1.87261" x2="293.159" y2="1.87261" gradientUnits="userSpaceOnUse">
<stop stop-color="#D1D7E0"/>
<stop offset="1" stop-color="#EBEBFF"/>
</linearGradient>
<linearGradient id="paint16_linear_2854_11670" x1="280.73" y1="10.857" x2="293.159" y2="10.857" gradientUnits="userSpaceOnUse">
<stop stop-color="#D1D7E0"/>
<stop offset="1" stop-color="#EBEBFF"/>
</linearGradient>
<linearGradient id="paint17_linear_2854_11670" x1="280.73" y1="19.8338" x2="293.159" y2="19.8338" gradientUnits="userSpaceOnUse">
<stop stop-color="#D1D7E0"/>
<stop offset="1" stop-color="#EBEBFF"/>
</linearGradient>
<linearGradient id="paint18_linear_2854_11670" x1="298.291" y1="1.87261" x2="301.828" y2="1.87261" gradientUnits="userSpaceOnUse">
<stop stop-color="#D1D7E0"/>
<stop offset="1" stop-color="#EBEBFF"/>
</linearGradient>
<linearGradient id="paint19_linear_2854_11670" x1="298.291" y1="10.857" x2="301.828" y2="10.857" gradientUnits="userSpaceOnUse">
<stop stop-color="#D1D7E0"/>
<stop offset="1" stop-color="#EBEBFF"/>
</linearGradient>
<linearGradient id="paint20_linear_2854_11670" x1="298.291" y1="19.8338" x2="301.828" y2="19.8338" gradientUnits="userSpaceOnUse">
<stop stop-color="#D1D7E0"/>
<stop offset="1" stop-color="#EBEBFF"/>
</linearGradient>
<linearGradient id="paint21_linear_2854_11670" x1="241.353" y1="212.001" x2="258.335" y2="212.001" gradientUnits="userSpaceOnUse">
<stop stop-color="#D1D7E0"/>
<stop offset="1" stop-color="#EBEBFF"/>
</linearGradient>
<linearGradient id="paint22_linear_2854_11670" x1="235.268" y1="212.001" x2="242.346" y2="212.001" gradientUnits="userSpaceOnUse">
<stop stop-color="#D1D7E0"/>
<stop offset="1" stop-color="#EBEBFF"/>
</linearGradient>
</defs>
</svg>
