<svg width="200" height="100" viewBox="0 0 200 100" fill="none" xmlns="http://www.w3.org/2000/svg">
<rect width="200" height="100" fill="white"/>
<g style="mix-blend-mode:luminosity">
<path d="M56.1386 59.211C56.1001 59.3007 56.0232 59.3776 55.9206 59.416C55.8053 59.4673 55.7027 59.4801 55.5873 59.4801C55.472 59.4801 55.3694 59.4545 55.254 59.416C55.1387 59.3648 55.0617 59.3007 54.9976 59.211L48.716 44.9965H48.6263L48.6776 56.0835C48.6776 56.3399 48.6776 56.609 48.7032 56.8654C48.716 57.1217 48.7929 57.3524 48.8955 57.5575C49.0109 57.7626 49.1775 57.9292 49.4083 58.0446C49.639 58.1599 49.9852 58.224 50.421 58.224C50.8569 58.224 50.7928 58.2368 50.9082 58.2753C51.0236 58.3137 51.1133 58.4932 51.1518 58.8008C51.1518 58.9546 51.1133 59.0956 51.0236 59.2238C50.9338 59.352 50.8184 59.416 50.6518 59.416C50.3569 59.4032 50.1134 59.3776 49.9082 59.3776C49.716 59.3776 49.5237 59.3648 49.3442 59.352C49.1647 59.352 48.9852 59.3391 48.8058 59.3391H47.37C47.152 59.3391 46.9469 59.3391 46.7546 59.352C46.5623 59.352 46.3444 59.3648 46.1265 59.3776C45.9085 59.3776 45.6393 59.4032 45.3445 59.416C45.1522 59.416 45.024 59.352 44.9599 59.2238C44.883 59.0956 44.8445 58.9546 44.8445 58.8008C44.8573 58.4804 44.9342 58.3137 45.0496 58.2753C45.165 58.2368 45.3316 58.224 45.5368 58.224C45.9854 58.224 46.3188 58.1599 46.5495 58.0446C46.7803 57.9292 46.9597 57.7626 47.0623 57.5575C47.1777 57.3524 47.2418 57.1217 47.2546 56.8654C47.2674 56.609 47.2802 56.3399 47.2802 56.0835L47.3315 44.9965C47.3315 44.5479 47.293 44.2018 47.2161 43.9326C47.1392 43.6763 47.0238 43.4712 46.87 43.3174C46.7162 43.1636 46.511 43.0482 46.2803 42.9713C46.0495 42.8816 45.7675 42.8175 45.4598 42.7662C45.2034 42.715 45.0112 42.6637 44.9214 42.6252C44.8189 42.5868 44.7676 42.4202 44.7676 42.1254C44.7676 41.8306 44.8701 41.6383 45.0881 41.6127C45.306 41.587 45.5624 41.5742 45.8829 41.5742C46.5751 41.5742 47.1905 41.6127 47.7546 41.7024C48.3186 41.7921 48.8186 41.9331 49.2801 42.1382C49.7416 42.3433 50.139 42.6381 50.4979 43.0354C50.8569 43.4199 51.1646 43.9326 51.421 44.5479L56.2283 55.3273H56.3181L61.8177 41.7665H63.4073C63.9714 41.7665 64.5098 41.7665 65.0354 41.7537C65.561 41.7537 66.1251 41.7152 66.7276 41.6896C66.9071 41.6896 67.0481 41.7537 67.1122 41.8818C67.1891 42.01 67.2276 42.151 67.2276 42.3048C67.2147 42.6252 67.1378 42.7919 67.0096 42.8303C66.8814 42.8688 66.7148 42.8816 66.5353 42.8816C66.0866 42.8816 65.7405 42.9457 65.4969 43.061C65.2533 43.1764 65.0739 43.343 64.9713 43.5481C64.8559 43.7532 64.7918 43.9839 64.7662 44.2402C64.7405 44.4966 64.7277 44.7658 64.7277 45.0221V56.1092C64.7277 56.3655 64.7405 56.6347 64.7662 56.891C64.7918 57.1474 64.8687 57.3781 64.9713 57.5832C65.0867 57.7882 65.2533 57.9549 65.4969 58.0702C65.7405 58.1856 66.0866 58.2497 66.5353 58.2497C66.984 58.2497 66.8814 58.2625 67.0096 58.3009C67.1378 58.3394 67.2147 58.5188 67.2276 58.8264C67.2276 58.9802 67.1891 59.1212 67.1122 59.2494C67.0353 59.3776 66.9071 59.4417 66.7276 59.4417C66.1379 59.4032 65.561 59.3776 65.0226 59.3776C64.4842 59.3776 63.9329 59.3648 63.3817 59.3648C62.2792 59.3648 61.1382 59.3904 59.946 59.4545C59.7537 59.4545 59.6255 59.3904 59.5614 59.2622C59.4845 59.1341 59.446 58.9931 59.446 58.8393C59.4589 58.5188 59.5358 58.3522 59.6512 58.3137C59.7665 58.2753 59.9332 58.2625 60.1383 58.2625C60.587 58.2625 60.9331 58.1984 61.1767 58.083C61.4203 57.9677 61.5997 57.801 61.7023 57.596C61.8177 57.3909 61.8818 57.1602 61.9074 56.9038C61.9331 56.6475 61.9459 56.3783 61.9459 56.122V45.0349H61.8561L56.1001 59.2494L56.1386 59.211Z" fill="url(#paint0_linear_746_14990)"/>
<path d="M74.367 47.1892C73.8286 47.1892 73.3286 47.3558 72.8928 47.6891C72.4569 48.0223 72.2261 48.5094 72.2261 49.1375C72.2261 49.7655 72.2774 49.5604 72.3672 49.7399C72.4569 49.9193 72.5594 50.0603 72.6748 50.1757C72.7902 50.291 72.8928 50.3807 72.9825 50.4576C73.0722 50.5346 73.1235 50.573 73.1235 50.5986C73.1235 50.6884 73.021 50.8294 72.803 51.0216C72.5851 51.2139 72.2902 51.3036 71.9185 51.3036C71.3288 51.3036 70.8673 51.0857 70.5596 50.6627C70.2519 50.2398 70.0981 49.7655 70.0981 49.24C70.0981 48.7145 70.2263 48.2787 70.4827 47.9198C70.7391 47.5609 71.0852 47.2661 71.4954 47.0354C71.9057 46.8047 72.3928 46.6509 72.9184 46.5483C73.444 46.4458 73.9824 46.3945 74.5209 46.3945C75.0593 46.3945 75.7772 46.4458 76.3925 46.5483C77.0079 46.6509 77.5591 46.856 78.0334 47.1508C78.5206 47.4456 78.918 47.8557 79.2257 48.394C79.5333 48.9324 79.6872 49.6117 79.6872 50.4705V56.9561C79.6872 57.1099 79.7128 57.2765 79.7513 57.4559C79.8025 57.6482 79.8795 57.8148 79.9948 57.9815C80.1102 58.1481 80.2512 58.2891 80.4435 58.4173C80.623 58.5326 80.8666 58.5967 81.1358 58.5967C81.405 58.5967 81.3665 58.6223 81.4434 58.6736C81.5204 58.7249 81.5588 58.853 81.5588 59.0581C81.5588 59.2632 81.5075 59.3017 81.3922 59.3914C81.2768 59.4811 81.1358 59.5452 80.9691 59.5965C80.8025 59.6477 80.623 59.6734 80.4563 59.699C80.2769 59.7118 80.1359 59.7246 80.0205 59.7246C79.3282 59.7246 78.7129 59.5195 78.1744 59.1222C77.636 58.7249 77.3155 58.1737 77.2258 57.4559C77.0207 57.8277 76.7386 58.1481 76.3541 58.4301C75.9823 58.7121 75.5721 58.9428 75.1362 59.1478C74.7003 59.3401 74.2516 59.4811 73.7901 59.5836C73.3286 59.6734 72.9056 59.7246 72.521 59.7246C72.1364 59.7246 71.5852 59.6349 71.1621 59.4555C70.7391 59.276 70.3801 59.0453 70.0724 58.7377C69.7648 58.4429 69.5212 58.0968 69.3289 57.6867C69.1366 57.2893 69.0469 56.8535 69.0469 56.3921C69.0469 55.7256 69.2135 55.1488 69.534 54.6874C69.8545 54.226 70.2776 53.8414 70.7775 53.5466C71.2775 53.2518 71.8416 53.0211 72.4697 52.8545C73.0979 52.6879 73.7132 52.5597 74.3157 52.4828C74.9183 52.3931 75.4823 52.3418 75.9951 52.3162C76.5079 52.2905 76.9053 52.2521 77.213 52.2136V50.009C77.213 49.1375 76.995 48.4453 76.572 47.9583C76.1489 47.4712 75.4054 47.2148 74.3414 47.2148L74.367 47.1892ZM77.2514 53.0211C76.3541 53.1365 75.5721 53.2647 74.9054 53.4056C74.2388 53.5595 73.6876 53.7389 73.2389 53.9696C72.803 54.1875 72.4697 54.4695 72.2518 54.8027C72.0338 55.136 71.9185 55.5333 71.9185 56.0076C71.9185 56.4818 72.0851 57.1099 72.4184 57.5457C72.7517 57.9686 73.1876 58.1865 73.726 58.1865C74.2645 58.1865 74.6362 58.0968 75.0721 57.9046C75.4951 57.7123 75.8797 57.4688 76.2002 57.1483C76.5207 56.8279 76.7771 56.4562 76.9694 56.0076C77.1489 55.559 77.2514 55.0847 77.2514 54.5848V53.0211Z" fill="url(#paint1_linear_746_14990)"/>
<path d="M93.4956 56.199C93.6238 56.0195 93.8161 55.9939 94.0853 56.1477C94.2135 56.2246 94.3032 56.3272 94.3673 56.4553C94.4186 56.5835 94.4058 56.7117 94.316 56.8399C93.7007 57.7371 92.9443 58.4292 92.047 58.9291C91.1496 59.429 90.2138 59.6853 89.2651 59.6853C88.3164 59.6853 87.4704 59.5315 86.714 59.2111C85.9576 58.8906 85.3167 58.442 84.8039 57.8524C84.2783 57.2628 83.8809 56.5579 83.5988 55.7504C83.3168 54.9301 83.1758 54.02 83.1758 53.0203C83.2142 52.059 83.4065 51.1746 83.7527 50.3671C84.0988 49.5724 84.5603 48.8674 85.15 48.2907C85.7397 47.7139 86.4191 47.2524 87.214 46.9192C88.0088 46.5988 88.8421 46.4065 89.7394 46.3809C89.983 46.3809 90.3163 46.3937 90.7522 46.4321C91.188 46.4706 91.6239 46.5603 92.0598 46.7141C92.4956 46.8679 92.9059 47.0858 93.2776 47.3934C93.6494 47.7011 93.9058 48.1368 94.0596 48.688C94.1366 49.0084 94.1494 49.3289 94.0981 49.6493C94.0468 49.9697 93.9443 50.2773 93.7904 50.5465C93.6366 50.8157 93.4187 51.0336 93.1494 51.2002C92.8802 51.3668 92.5726 51.4566 92.2136 51.4566C91.8547 51.4566 91.4829 51.354 91.265 51.1489C91.047 50.9439 90.9317 50.79 90.9317 50.7003C90.9317 50.6106 90.9829 50.6362 91.0727 50.5593C91.1624 50.4824 91.2778 50.3799 91.3932 50.2517C91.5085 50.1235 91.6239 49.9697 91.7136 49.7903C91.8034 49.6108 91.8547 49.4058 91.8547 49.1622C91.8547 48.5726 91.6367 48.124 91.2137 47.8549C90.7906 47.5729 90.3035 47.4319 89.7651 47.4063C88.9446 47.4063 88.2908 47.5729 87.7908 47.9189C87.3037 48.265 86.9191 48.7008 86.6627 49.2391C86.4063 49.7775 86.2269 50.3799 86.1499 51.0208C86.0602 51.6744 86.0217 52.3025 86.0217 52.9177C86.0217 53.533 86.1115 54.3917 86.2909 55.0582C86.4704 55.7247 86.7268 56.2887 87.0601 56.763C87.3934 57.2372 87.8037 57.6089 88.2908 57.8781C88.778 58.1472 89.3164 58.2882 89.9061 58.2882C90.4958 58.2882 91.4188 58.1216 91.97 57.7755C92.5341 57.4295 93.0341 56.9039 93.5084 56.199H93.4956Z" fill="url(#paint2_linear_746_14990)"/>
<path d="M98.3027 50.0859V49.3681C98.3027 49.1374 98.2643 48.9323 98.1745 48.7529C98.0848 48.5734 97.9566 48.4324 97.7515 48.3299C97.5592 48.2274 97.2643 48.1761 96.8669 48.1761C96.4695 48.1761 96.5465 48.1505 96.4054 48.112C96.2644 48.0607 96.2003 47.9069 96.2003 47.6249C96.2003 47.343 96.2388 47.407 96.3157 47.3173C96.3926 47.2276 96.4952 47.1635 96.649 47.1251C97.2772 47.0353 97.8028 46.9328 98.213 46.8303C98.6232 46.7277 98.9565 46.638 99.2129 46.5483C99.4693 46.4586 99.6744 46.3945 99.8283 46.3432C99.9821 46.2919 100.123 46.2535 100.277 46.2278C100.431 46.215 100.546 46.2278 100.649 46.3176C100.751 46.3945 100.803 46.5355 100.803 46.7662V48.4965H100.892C101.52 47.8813 102.174 47.3814 102.841 46.9713C103.508 46.5739 104.123 46.3688 104.687 46.3688C105.251 46.3688 105.315 46.4329 105.571 46.5611C105.828 46.6893 106.033 46.8687 106.2 47.0738C106.366 47.2917 106.494 47.5352 106.571 47.8044C106.661 48.0735 106.7 48.3427 106.7 48.6247C106.7 48.9067 106.661 49.0989 106.584 49.3425C106.507 49.5732 106.392 49.7911 106.251 49.9833C106.097 50.1756 105.918 50.3422 105.687 50.4576C105.469 50.5729 105.2 50.637 104.905 50.637C104.61 50.637 104.366 50.5729 104.187 50.4576C104.007 50.3422 103.918 50.2525 103.892 50.1884C103.892 50.15 103.982 50.0346 104.161 49.8552C104.341 49.6757 104.431 49.4322 104.431 49.163C104.431 48.8939 104.341 48.5606 104.161 48.3555C103.982 48.1505 103.751 48.0479 103.443 48.0479C103.136 48.0479 102.726 48.2017 102.226 48.5222C101.738 48.8426 101.264 49.2143 100.815 49.6629V57.1867C100.815 57.4174 100.854 57.6225 100.944 57.802C101.033 57.9814 101.174 58.1224 101.379 58.2249C101.585 58.3275 101.879 58.3787 102.277 58.3787C102.674 58.3787 102.584 58.3916 102.713 58.4172C102.828 58.4428 102.905 58.5966 102.918 58.8786C102.918 59.0324 102.879 59.1606 102.802 59.2631C102.726 59.3785 102.61 59.4298 102.469 59.4298C101.931 59.3913 101.431 59.3657 100.969 59.3657C100.508 59.3657 100.033 59.3529 99.5334 59.3529C99.0335 59.3529 98.5591 59.3529 98.1104 59.3657C97.6618 59.3657 97.1746 59.4041 96.6362 59.4298C96.4824 59.4298 96.3798 59.3785 96.3029 59.2631C96.226 59.1478 96.1875 59.0196 96.1875 58.8786C96.226 58.5966 96.3029 58.4428 96.4054 58.4172C96.508 58.3916 96.6618 58.3787 96.8541 58.3787C97.2387 58.3787 97.5336 58.3275 97.7387 58.2249C97.931 58.1224 98.072 57.9814 98.1617 57.802C98.2515 57.6225 98.2899 57.4174 98.2899 57.1867V50.0859H98.3027Z" fill="url(#paint3_linear_746_14990)"/>
<path d="M114.8 46.3691C115.762 46.3691 116.646 46.5486 117.454 46.9075C118.249 47.2664 118.941 47.7534 119.518 48.343C120.095 48.9326 120.531 49.6248 120.838 50.4066C121.146 51.1885 121.3 51.996 121.3 52.8291C121.3 53.6622 121.095 54.9055 120.685 55.7643C120.274 56.6231 119.762 57.3408 119.133 57.9176C118.505 58.4944 117.813 58.9302 117.044 59.225C116.275 59.5198 115.518 59.6736 114.8 59.6736C114.082 59.6736 112.929 59.4942 112.134 59.1353C111.339 58.7764 110.66 58.2893 110.083 57.6997C109.506 57.1101 109.07 56.418 108.762 55.6361C108.455 54.8543 108.301 54.0468 108.301 53.2136C108.301 52.3805 108.506 51.1372 108.903 50.2784C109.301 49.4197 109.813 48.7019 110.442 48.1251C111.07 47.5483 111.762 47.1125 112.531 46.8177C113.3 46.5229 114.057 46.3691 114.813 46.3691H114.8ZM114.8 58.661C115.467 58.661 116.044 58.5072 116.505 58.1868C116.967 57.8663 117.351 57.4434 117.633 56.9179C117.915 56.3923 118.133 55.7771 118.262 55.0722C118.39 54.38 118.454 53.6366 118.454 52.8547C118.454 52.0729 118.39 51.432 118.249 50.7783C118.108 50.1118 117.89 49.535 117.608 49.0352C117.313 48.5353 116.941 48.1379 116.48 47.8431C116.018 47.5612 115.454 47.4073 114.8 47.4073C114.147 47.4073 113.531 47.5612 113.07 47.8688C112.608 48.1764 112.224 48.5994 111.942 49.1249C111.647 49.6504 111.454 50.2656 111.326 50.9578C111.211 51.6499 111.147 52.3805 111.147 53.1624C111.147 53.9442 111.211 54.5851 111.339 55.2388C111.467 55.9053 111.672 56.4821 111.967 56.9948C112.249 57.5075 112.634 57.9176 113.095 58.2124C113.557 58.5072 114.134 58.661 114.8 58.661Z" fill="url(#paint4_linear_746_14990)"/>
<path d="M127.813 48.5223H127.903C128.185 48.2659 128.467 48.0096 128.736 47.7532C129.005 47.4969 129.326 47.279 129.672 47.0739C130.018 46.8688 130.403 46.7022 130.839 46.574C131.274 46.4459 131.787 46.3818 132.39 46.3818C133.672 46.3818 134.684 46.7663 135.415 47.5225C136.146 48.2916 136.518 49.2913 136.518 50.5346V57.1868C136.518 57.4176 136.556 57.6226 136.646 57.8021C136.736 57.9815 136.877 58.1225 137.082 58.225C137.287 58.3276 137.582 58.3789 137.979 58.3789C138.377 58.3789 138.287 58.3917 138.415 58.4173C138.53 58.4429 138.607 58.5968 138.62 58.8787C138.62 59.0325 138.582 59.1607 138.505 59.2633C138.428 59.3786 138.312 59.4299 138.171 59.4299C137.633 59.3914 137.133 59.3658 136.672 59.3658C136.21 59.3658 135.736 59.353 135.236 59.353C134.736 59.353 134.261 59.353 133.813 59.3658C133.364 59.3658 132.877 59.4043 132.339 59.4299C132.185 59.4299 132.082 59.3786 132.005 59.2633C131.928 59.1479 131.89 59.0197 131.89 58.8787C131.903 58.5968 131.98 58.4429 132.095 58.4173C132.21 58.3917 132.364 58.3789 132.531 58.3789C132.915 58.3789 133.21 58.3276 133.415 58.225C133.608 58.1225 133.749 57.9815 133.838 57.8021C133.928 57.6226 133.967 57.4176 133.979 57.1868C133.979 56.9561 133.992 56.7126 133.992 56.4691V50.5474C133.992 50.086 133.915 49.6758 133.749 49.3426C133.595 49.0093 133.39 48.7274 133.133 48.5223C132.877 48.3044 132.595 48.1506 132.262 48.048C131.941 47.9455 131.621 47.8942 131.3 47.8942C130.813 47.8942 130.377 47.9583 129.993 48.0993C129.608 48.2403 129.262 48.4069 128.98 48.612C128.685 48.8171 128.454 49.0222 128.249 49.2401C128.057 49.4579 127.916 49.6502 127.839 49.8168V57.174C127.839 57.4047 127.877 57.6098 127.967 57.7893C128.057 57.9687 128.198 58.1097 128.403 58.2122C128.608 58.3148 128.903 58.366 129.3 58.366C129.698 58.366 129.608 58.3789 129.736 58.4045C129.852 58.4301 129.928 58.5839 129.941 58.8659C129.941 59.0197 129.903 59.1479 129.826 59.2504C129.749 59.353 129.634 59.4171 129.493 59.4171C128.954 59.3786 128.454 59.353 127.993 59.353C127.531 59.353 127.057 59.3402 126.557 59.3402C126.057 59.3402 125.583 59.3402 125.134 59.353C124.685 59.353 124.198 59.3914 123.66 59.4171C123.506 59.4171 123.403 59.3658 123.326 59.2504C123.249 59.1351 123.211 59.0069 123.211 58.8659C123.249 58.5839 123.326 58.4301 123.429 58.4045C123.531 58.3789 123.685 58.366 123.878 58.366C124.262 58.366 124.557 58.3148 124.762 58.2122C124.954 58.1097 125.095 57.9687 125.185 57.7893C125.275 57.6098 125.313 57.4047 125.313 57.174V49.3554C125.313 49.1247 125.275 48.9196 125.185 48.7402C125.095 48.5607 124.967 48.4197 124.762 48.3172C124.57 48.2147 124.275 48.1634 123.878 48.1634C123.48 48.1634 123.557 48.1378 123.416 48.0993C123.275 48.048 123.211 47.8942 123.211 47.6122C123.211 47.3303 123.249 47.3943 123.326 47.3046C123.403 47.2149 123.506 47.1508 123.66 47.1124C124.288 47.0226 124.813 46.9201 125.224 46.8176C125.634 46.715 125.967 46.6253 126.224 46.5356C126.48 46.4459 126.685 46.3818 126.839 46.3305C126.993 46.2792 127.134 46.2408 127.288 46.2151C127.441 46.2023 127.557 46.2151 127.659 46.3049C127.762 46.3818 127.813 46.5228 127.813 46.7535V48.5095V48.5223Z" fill="url(#paint5_linear_746_14990)"/>
<path d="M152.632 58.8014C153.221 58.8014 153.76 58.7117 154.234 58.5194C154.708 58.3272 155.106 58.0965 155.439 57.7888C155.76 57.494 156.016 57.148 156.183 56.7763C156.349 56.3917 156.439 56.0072 156.439 55.6227C156.439 54.8537 156.208 54.2256 155.747 53.7257C155.285 53.2258 154.708 52.7901 154.016 52.4184C153.324 52.0466 152.58 51.6878 151.773 51.3545C150.965 51.0213 150.209 50.6367 149.491 50.2009C148.786 49.7651 148.196 49.2268 147.722 48.5988C147.247 47.9707 147.004 47.1632 146.978 46.2019C146.965 45.3303 147.093 44.5741 147.401 43.946C147.696 43.318 148.119 42.7925 148.67 42.3951C149.222 41.9978 149.863 41.703 150.606 41.4979C151.35 41.3057 152.144 41.2031 153.003 41.2031C153.862 41.2031 154.247 41.2672 154.875 41.3954C155.503 41.5236 156.08 41.7286 156.58 42.0106C157.08 42.2926 157.49 42.6515 157.811 43.1001C158.131 43.5487 158.285 44.087 158.285 44.7151C158.285 45.3431 158.054 45.9327 157.606 46.3814C157.144 46.8171 156.554 47.035 155.836 47.035C155.349 46.9966 155.016 46.8684 154.824 46.6505C154.631 46.4326 154.529 46.266 154.529 46.1635C154.529 46.0609 154.593 46.0866 154.734 46.0353C154.875 45.984 155.029 45.9071 155.195 45.7918C155.362 45.6764 155.516 45.5226 155.657 45.3303C155.798 45.1381 155.862 44.8689 155.862 44.5356C155.862 43.8307 155.593 43.2795 155.054 42.895C154.516 42.5105 153.849 42.3182 153.042 42.3182C152.234 42.3182 151.901 42.3951 151.465 42.5618C151.029 42.7156 150.67 42.9207 150.388 43.177C150.106 43.4334 149.901 43.7282 149.773 44.0614C149.645 44.3947 149.58 44.7407 149.58 45.0996C149.58 45.7918 149.76 46.3557 150.145 46.7787C150.516 47.2145 151.08 47.6246 151.824 48.0348C152.657 48.4834 153.516 48.8936 154.375 49.2653C155.247 49.637 156.029 50.0599 156.747 50.547C157.465 51.0341 158.054 51.6237 158.503 52.303C158.964 52.9951 159.182 53.8795 159.182 54.9818C159.182 56.0841 159.016 56.3405 158.67 56.9557C158.323 57.5581 157.862 58.0836 157.272 58.5194C156.683 58.9552 155.99 59.3013 155.195 59.5576C154.401 59.814 153.555 59.9293 152.657 59.9293C150.709 59.9293 149.209 59.5961 148.17 58.9296C147.132 58.2631 146.619 57.2505 146.619 55.9175C146.619 54.5845 146.85 54.6999 147.299 54.2512C147.76 53.8154 148.35 53.5976 149.068 53.5976C149.555 53.636 149.888 53.7642 150.08 53.9693C150.273 54.1872 150.375 54.341 150.375 54.4563C150.375 54.5717 150.324 54.5332 150.221 54.5845C150.119 54.6358 150.004 54.7127 149.875 54.828C149.747 54.9434 149.632 55.0972 149.529 55.2894C149.427 55.4817 149.375 55.7509 149.375 56.0841C149.375 56.9173 149.632 57.5838 150.145 58.0836C150.657 58.5707 151.491 58.8271 152.644 58.8271L152.632 58.8014Z" fill="url(#paint6_linear_746_14990)"/>
<path d="M165.387 48.0992C165.913 47.6121 166.528 47.202 167.259 46.8687C167.99 46.5355 168.682 46.3688 169.349 46.3688C170.015 46.3688 170.964 46.5355 171.682 46.8559C172.4 47.1763 173.015 47.6378 173.541 48.2274C174.066 48.817 174.464 49.5091 174.758 50.3166C175.04 51.1241 175.194 52.0213 175.194 53.0082C175.194 53.9952 175.015 54.9309 174.656 55.764C174.297 56.5971 173.81 57.2893 173.22 57.866C172.63 58.4428 171.951 58.8914 171.182 59.2119C170.413 59.5323 169.631 59.6861 168.81 59.6861C167.99 59.6861 167.297 59.5964 166.785 59.417C166.272 59.2375 165.836 59.0452 165.464 58.8145H165.349V62.1983C165.349 62.4419 165.349 62.6726 165.362 62.9161C165.362 63.1468 165.426 63.3519 165.516 63.5313C165.605 63.7108 165.746 63.8518 165.951 63.9543C166.144 64.0568 166.426 64.1081 166.797 64.1081C167.169 64.1081 167.105 64.1209 167.233 64.1466C167.349 64.1722 167.426 64.326 167.438 64.608C167.438 64.7618 167.4 64.89 167.323 64.9925C167.246 65.1079 167.131 65.1591 166.99 65.1591C166.451 65.1207 165.951 65.0951 165.49 65.0951C165.028 65.0951 164.554 65.0822 164.054 65.0822C163.554 65.0822 163.08 65.0822 162.631 65.0951C162.182 65.0951 161.695 65.1335 161.157 65.1591C161.003 65.1591 160.9 65.1079 160.824 64.9925C160.747 64.8772 160.708 64.749 160.708 64.608C160.721 64.326 160.798 64.1722 160.913 64.1466C161.029 64.1209 161.182 64.1081 161.349 64.1081C161.721 64.1081 162.003 64.0568 162.195 63.9543C162.388 63.8518 162.529 63.7108 162.631 63.5313C162.721 63.3519 162.772 63.1468 162.785 62.9161C162.785 62.6854 162.798 62.4419 162.798 62.1983V49.3681C162.798 49.1374 162.759 48.9323 162.67 48.7529C162.58 48.5734 162.452 48.4324 162.246 48.3299C162.054 48.2274 161.759 48.1761 161.362 48.1761C160.965 48.1761 161.041 48.1505 160.9 48.112C160.759 48.0607 160.695 47.9069 160.695 47.6249C160.695 47.343 160.734 47.407 160.811 47.3173C160.888 47.2276 160.99 47.1635 161.144 47.1251C161.772 47.0353 162.298 46.9328 162.708 46.8303C163.118 46.7277 163.452 46.638 163.708 46.5483C163.964 46.4586 164.169 46.3945 164.323 46.3432C164.477 46.2919 164.618 46.2535 164.772 46.2278C164.926 46.215 165.041 46.2278 165.144 46.3176C165.246 46.3945 165.298 46.5355 165.298 46.7662V48.112H165.387V48.0992ZM168.567 58.7376C169.297 58.7376 169.9 58.5582 170.387 58.1993C170.874 57.8404 171.259 57.379 171.541 56.815C171.823 56.251 172.028 55.6486 172.156 54.9821C172.271 54.3156 172.336 53.6876 172.336 53.098C172.336 52.5084 172.259 51.8034 172.118 51.1754C171.964 50.5473 171.733 49.9705 171.4 49.4706C171.079 48.9708 170.656 48.5606 170.156 48.2402C169.656 47.9197 169.054 47.7659 168.336 47.7659C167.618 47.7659 167.041 47.9069 166.58 48.2017C166.118 48.4965 165.695 48.8298 165.323 49.2143V56.6997C165.413 56.9432 165.554 57.1867 165.746 57.4303C165.926 57.6738 166.169 57.8917 166.439 58.0839C166.708 58.2762 167.028 58.4428 167.387 58.5582C167.746 58.6735 168.131 58.7376 168.554 58.7376H168.567Z" fill="url(#paint7_linear_746_14990)"/>
<path d="M182.592 47.1892C182.053 47.1892 181.553 47.3558 181.117 47.6891C180.669 48.0223 180.451 48.5094 180.451 49.1375C180.451 49.7655 180.502 49.5604 180.592 49.7399C180.682 49.9193 180.784 50.0603 180.899 50.1757C181.015 50.291 181.117 50.3807 181.207 50.4576C181.297 50.5346 181.348 50.573 181.348 50.5986C181.348 50.6884 181.246 50.8294 181.028 51.0216C180.81 51.2139 180.515 51.3036 180.143 51.3036C179.553 51.3036 179.092 51.0857 178.784 50.6627C178.477 50.2398 178.323 49.7655 178.323 49.24C178.323 48.7145 178.451 48.2787 178.707 47.9198C178.964 47.5609 179.31 47.2661 179.72 47.0354C180.13 46.8047 180.617 46.6509 181.143 46.5483C181.669 46.4458 182.207 46.3945 182.745 46.3945C183.284 46.3945 184.002 46.4458 184.617 46.5483C185.232 46.6509 185.784 46.856 186.258 47.1508C186.745 47.4456 187.143 47.8557 187.45 48.394C187.758 48.9196 187.912 49.6117 187.912 50.4705V56.9561C187.912 57.1099 187.937 57.2765 187.976 57.4559C188.027 57.6482 188.104 57.8148 188.219 57.9815C188.335 58.1481 188.476 58.2891 188.668 58.4173C188.848 58.5326 189.091 58.5967 189.36 58.5967C189.63 58.5967 189.591 58.6223 189.668 58.6736C189.745 58.7249 189.783 58.853 189.783 59.0581C189.783 59.2632 189.732 59.3017 189.617 59.3914C189.501 59.4811 189.36 59.5452 189.194 59.5965C189.027 59.6477 188.848 59.6734 188.681 59.699C188.501 59.7118 188.36 59.7246 188.245 59.7246C187.553 59.7246 186.937 59.5195 186.399 59.1222C185.861 58.7249 185.54 58.1737 185.45 57.4559C185.245 57.8277 184.963 58.1481 184.579 58.4301C184.207 58.7121 183.797 58.9428 183.361 59.1478C182.925 59.3401 182.476 59.4811 182.015 59.5836C181.553 59.6734 181.13 59.7246 180.746 59.7246C180.361 59.7246 179.81 59.6349 179.387 59.4555C178.964 59.276 178.605 59.0453 178.297 58.7377C177.989 58.4429 177.746 58.0968 177.554 57.6867C177.361 57.2893 177.271 56.8535 177.271 56.3921C177.271 55.7256 177.438 55.1488 177.759 54.6874C178.079 54.226 178.502 53.8414 179.002 53.5466C179.502 53.2518 180.066 53.0211 180.694 52.8545C181.322 52.6879 181.938 52.5597 182.54 52.4828C183.143 52.3931 183.707 52.3418 184.22 52.3162C184.732 52.2905 185.13 52.2521 185.438 52.2136V50.009C185.438 49.1375 185.22 48.4453 184.797 47.9583C184.374 47.4712 183.63 47.2148 182.566 47.2148L182.592 47.1892ZM185.463 53.0211C184.566 53.1365 183.784 53.2647 183.117 53.4056C182.451 53.5595 181.899 53.7389 181.451 53.9696C181.015 54.1875 180.682 54.4695 180.464 54.8027C180.246 55.136 180.13 55.5333 180.13 56.0076C180.13 56.4818 180.297 57.1099 180.63 57.5457C180.964 57.9686 181.399 58.1865 181.938 58.1865C182.476 58.1865 182.848 58.0968 183.284 57.9046C183.707 57.7123 184.092 57.4688 184.412 57.1483C184.732 56.8279 184.989 56.4562 185.181 56.0076C185.361 55.559 185.463 55.0847 185.463 54.5848V53.0211Z" fill="url(#paint8_linear_746_14990)"/>
<path d="M25.5502 50.0474C25.5502 50.0474 25.1528 49.6244 24.4733 49.0733C24.6785 48.881 24.8836 48.6631 25.0631 48.4452C25.6271 49.1374 26.063 49.5347 26.063 49.5347C26.063 49.5347 29.8063 46.0612 29.8063 41.7673C29.8063 37.4735 26.063 34 26.063 34C26.063 34 22.3197 37.4735 22.3197 41.7673C22.3197 46.0612 23.4734 46.2919 24.5118 47.7146C24.2811 48.0094 24.0375 48.2786 23.7555 48.5221C22.3325 47.4839 20.1788 46.3175 17.7687 46.3175C13.4741 46.3175 10 50.0602 10 50.0602C10 50.0602 13.4741 53.8029 17.7687 53.8029C22.0633 53.8029 25.5374 50.0602 25.5374 50.0602L25.5502 50.0474ZM23.3452 41.7673C23.3452 39.0629 25.0759 36.6404 26.0758 35.474C27.0757 36.6404 28.8064 39.0501 28.8064 41.7673C28.8064 44.4846 27.0757 46.8943 26.0758 48.0607C25.9604 47.9197 25.8322 47.7659 25.6912 47.5993C26.345 46.5226 26.7296 45.2665 26.7296 43.9079C26.7296 42.5492 26.5245 43.4592 26.2809 43.4592C26.0373 43.4592 25.8322 43.6643 25.8322 43.9079C25.8322 44.9589 25.5758 45.9458 25.1015 46.8046C24.2298 45.51 23.3324 43.7156 23.3324 41.7673H23.3452ZM17.7815 47.3173C19.7814 47.3173 21.6146 48.2529 22.9094 49.1502C21.9607 49.7398 20.8454 50.0858 19.6404 50.0858C18.4353 50.0858 19.1917 50.2909 19.1917 50.5344C19.1917 50.778 19.3968 50.9831 19.6404 50.9831C21.1402 50.9831 22.5248 50.5216 23.6657 49.727C23.8067 49.8423 23.9477 49.9577 24.0631 50.0602C22.8965 51.06 20.4993 52.7903 17.7687 52.7903C15.0381 52.7903 12.6408 51.06 11.4743 50.0602C12.6408 49.0604 15.0381 47.3301 17.7687 47.3301L17.7815 47.3173Z" fill="url(#paint9_linear_746_14990)"/>
<path d="M34.3568 46.3047C30.0623 46.3047 26.5881 50.0474 26.5881 50.0474C26.5881 50.0474 26.9984 50.4832 27.7035 51.0599C27.4855 51.2522 27.2804 51.4573 27.0881 51.6752C26.5112 50.9702 26.0754 50.5729 26.0754 50.5729C26.0754 50.5729 22.332 54.0464 22.332 58.3402C22.332 62.6341 26.0754 66.1076 26.0754 66.1076C26.0754 66.1076 29.8187 62.6341 29.8187 58.3402C29.8187 54.0464 28.6649 53.8285 27.6394 52.393C27.8829 52.111 28.1393 51.8546 28.4342 51.6111C29.8571 52.6365 31.9852 53.79 34.3697 53.79C38.6642 53.79 42.1383 50.0474 42.1383 50.0474C42.1383 50.0474 38.6642 46.3047 34.3697 46.3047H34.3568ZM28.7931 58.3274C28.7931 61.0319 27.0625 63.4544 26.0625 64.6208C25.0626 63.4544 23.332 61.0447 23.332 58.3274C23.332 55.6101 25.0626 53.2004 26.0625 52.0341C26.1779 52.1622 26.3061 52.316 26.4343 52.4827C25.6908 53.5978 25.2549 54.9436 25.2549 56.3792C25.2549 57.8147 25.46 56.8278 25.7036 56.8278C25.9472 56.8278 26.1523 56.6227 26.1523 56.3792C26.1523 55.2384 26.4599 54.1746 26.9984 53.2517C27.8829 54.5463 28.7931 56.3535 28.7931 58.3146V58.3274ZM34.3568 52.7775C32.4083 52.7775 30.6007 51.8803 29.3187 50.9959C30.2161 50.4832 31.2545 50.2012 32.357 50.2012C33.4595 50.2012 32.8057 49.9961 32.8057 49.7526C32.8057 49.509 32.6005 49.304 32.357 49.304C30.9596 49.304 29.652 49.7141 28.5495 50.4191C28.3829 50.2781 28.2162 50.1499 28.0752 50.0345C29.2418 49.0348 31.6519 47.3044 34.3697 47.3044C37.0874 47.3044 39.4975 49.0348 40.6641 50.0345C39.4975 51.0343 37.1002 52.7647 34.3697 52.7647L34.3568 52.7775Z" fill="url(#paint10_linear_746_14990)"/>
<path d="M20.8444 45.0875C20.8828 45.0875 20.9085 45.0875 20.9085 45.0875C20.9085 45.0875 20.9726 43.2034 19.8573 42.0754C18.8573 41.0757 17.2549 41.0244 16.9087 41.0244C16.5626 41.0244 16.8446 41.0244 16.8446 41.0244C16.8446 41.0244 16.7805 42.9086 17.8959 44.0365C18.8958 45.0363 20.4982 45.0875 20.8444 45.0875ZM19.1394 42.806C19.447 43.1136 19.6265 43.5366 19.7419 43.934C19.3445 43.8314 18.9214 43.6392 18.6137 43.3315C18.3061 43.0239 18.1266 42.601 18.0112 42.2036C18.4086 42.3062 18.8317 42.4984 19.1394 42.806Z" fill="url(#paint11_linear_746_14990)"/>
<path d="M30.8577 55.0723C30.8193 55.0723 30.7936 55.0723 30.7936 55.0723C30.7936 55.0723 30.7296 56.9564 31.8449 58.0844C32.8448 59.0841 34.4472 59.1354 34.7934 59.1354C35.1395 59.1354 34.8575 59.1354 34.8575 59.1354C34.8575 59.1354 34.9216 57.2512 33.8063 56.1233C32.8063 55.1235 31.2039 55.0723 30.8577 55.0723ZM32.5628 57.3666C32.2551 57.059 32.0756 56.636 31.9602 56.2386C32.3576 56.3412 32.7807 56.5334 33.0884 56.8411C33.396 57.1487 33.5755 57.5717 33.6909 57.969C33.2935 57.8665 32.8704 57.6742 32.5628 57.3666Z" fill="url(#paint12_linear_746_14990)"/>
<path d="M30.9085 45.1383C31.2418 45.1383 32.8571 45.087 33.857 44.0873C34.9723 42.9722 34.9083 41.0752 34.9083 41.0752C34.9083 41.0752 34.8826 41.0752 34.8442 41.0752C34.5108 41.0752 32.8956 41.1265 31.8956 42.1262C30.7803 43.2413 30.8444 45.1383 30.8444 45.1383C30.8444 45.1383 30.8701 45.1383 30.9085 45.1383ZM32.6135 42.8568C32.9212 42.5492 33.3443 42.3569 33.7417 42.2544C33.6263 42.6517 33.4468 43.0747 33.1391 43.3823C32.8315 43.6899 32.4084 43.8822 32.011 43.9847C32.1264 43.5874 32.3059 43.1644 32.6135 42.8568Z" fill="url(#paint13_linear_746_14990)"/>
<path d="M20.807 55.0205C20.4737 55.0205 18.8585 55.0718 17.8585 56.0715C16.7432 57.1866 16.8073 59.0836 16.8073 59.0836C16.8073 59.0836 16.833 59.0836 16.8714 59.0836C17.2047 59.0836 18.82 59.0324 19.8199 58.0326C20.8199 57.0328 20.8711 55.0205 20.8711 55.0205C20.8711 55.0205 20.8455 55.0205 20.807 55.0205ZM19.102 57.3148C18.7944 57.6224 18.3713 57.8147 17.9739 57.9172C18.0893 57.5199 18.2688 57.0969 18.5764 56.7893C18.8841 56.4817 19.3071 56.2894 19.7046 56.1869C19.5892 56.597 19.4097 57.0072 19.102 57.3148Z" fill="url(#paint14_linear_746_14990)"/>
</g>
<defs>
<linearGradient id="paint0_linear_746_14990" x1="56.036" y1="59.4929" x2="56.036" y2="41.5742" gradientUnits="userSpaceOnUse">
<stop stop-color="#242A64"/>
<stop offset="1" stop-color="#016094"/>
</linearGradient>
<linearGradient id="paint1_linear_746_14990" x1="75.3413" y1="59.6862" x2="75.3413" y2="46.3689" gradientUnits="userSpaceOnUse">
<stop stop-color="#242A64"/>
<stop offset="1" stop-color="#016094"/>
</linearGradient>
<linearGradient id="paint2_linear_746_14990" x1="88.778" y1="59.6853" x2="88.778" y2="46.368" gradientUnits="userSpaceOnUse">
<stop stop-color="#242A64"/>
<stop offset="1" stop-color="#016094"/>
</linearGradient>
<linearGradient id="paint3_linear_746_14990" x1="101.456" y1="59.4426" x2="101.456" y2="46.2278" gradientUnits="userSpaceOnUse">
<stop stop-color="#242A64"/>
<stop offset="1" stop-color="#016094"/>
</linearGradient>
<linearGradient id="paint4_linear_746_14990" x1="114.8" y1="59.6864" x2="114.8" y2="46.3691" gradientUnits="userSpaceOnUse">
<stop stop-color="#242A64"/>
<stop offset="1" stop-color="#016094"/>
</linearGradient>
<linearGradient id="paint5_linear_746_14990" x1="130.903" y1="59.4427" x2="130.903" y2="46.228" gradientUnits="userSpaceOnUse">
<stop stop-color="#242A64"/>
<stop offset="1" stop-color="#016094"/>
</linearGradient>
<linearGradient id="paint6_linear_746_14990" x1="152.875" y1="59.9165" x2="152.875" y2="41.1775" gradientUnits="userSpaceOnUse">
<stop stop-color="#242A64"/>
<stop offset="1" stop-color="#016094"/>
</linearGradient>
<linearGradient id="paint7_linear_746_14990" x1="167.938" y1="65.1591" x2="167.938" y2="46.2278" gradientUnits="userSpaceOnUse">
<stop stop-color="#242A64"/>
<stop offset="1" stop-color="#016094"/>
</linearGradient>
<linearGradient id="paint8_linear_746_14990" x1="183.553" y1="59.6862" x2="183.553" y2="46.3689" gradientUnits="userSpaceOnUse">
<stop stop-color="#242A64"/>
<stop offset="1" stop-color="#016094"/>
</linearGradient>
<linearGradient id="paint9_linear_746_14990" x1="19.9096" y1="53.7772" x2="19.9096" y2="33.9872" gradientUnits="userSpaceOnUse">
<stop stop-color="#242A64"/>
<stop offset="1" stop-color="#016094"/>
</linearGradient>
<linearGradient id="paint10_linear_746_14990" x1="32.2288" y1="66.0948" x2="32.2288" y2="46.3047" gradientUnits="userSpaceOnUse">
<stop stop-color="#242A64"/>
<stop offset="1" stop-color="#016094"/>
</linearGradient>
<linearGradient id="paint11_linear_746_14990" x1="18.883" y1="45.0875" x2="18.883" y2="41.0372" gradientUnits="userSpaceOnUse">
<stop stop-color="#242A64"/>
<stop offset="1" stop-color="#016094"/>
</linearGradient>
<linearGradient id="paint12_linear_746_14990" x1="32.832" y1="59.1354" x2="32.832" y2="55.0723" gradientUnits="userSpaceOnUse">
<stop stop-color="#242A64"/>
<stop offset="1" stop-color="#016094"/>
</linearGradient>
<linearGradient id="paint13_linear_746_14990" x1="32.8828" y1="45.1383" x2="32.8828" y2="41.088" gradientUnits="userSpaceOnUse">
<stop stop-color="#242A64"/>
<stop offset="1" stop-color="#016094"/>
</linearGradient>
<linearGradient id="paint14_linear_746_14990" x1="18.8328" y1="59.0836" x2="18.8328" y2="55.0205" gradientUnits="userSpaceOnUse">
<stop stop-color="#242A64"/>
<stop offset="1" stop-color="#016094"/>
</linearGradient>
</defs>
</svg>
