<svg width="200" height="100" viewBox="0 0 200 100" fill="none" xmlns="http://www.w3.org/2000/svg">
<rect width="200" height="100" fill="white"/>
<g style="mix-blend-mode:luminosity">
<path d="M42.1729 21.0202L41.1917 18.6842C40.7102 17.5378 39.7841 16.6361 38.6252 16.1861L36.1688 15.2325C36.087 15.201 36.087 15.0845 36.1688 15.0531L38.5418 14.1349C39.8251 13.6384 40.8172 12.592 41.2452 11.2843L41.9707 9.06631C41.999 8.97976 42.1201 8.9774 42.1524 9.06238L42.9746 11.2489C43.4451 12.4999 44.4388 13.4834 45.6954 13.9413L48.1533 14.8375C48.2367 14.8682 48.2383 14.9854 48.1557 15.0177L46.4066 15.7038C44.704 16.3717 43.3924 17.7707 42.8346 19.5119L42.3538 21.0123C42.3263 21.0973 42.2083 21.1028 42.1736 21.0202H42.1729Z" fill="url(#paint0_linear_746_15183)"/>
<path d="M12.3717 55.9749L11.6643 54.2912C11.3173 53.465 10.6494 52.8151 9.81456 52.491L8.04426 51.8033C7.98525 51.7805 7.98525 51.6971 8.04426 51.6743L9.75476 51.0126C10.68 50.6546 11.3952 49.9008 11.7029 48.9582L12.2253 47.3594C12.2458 47.2973 12.3331 47.2949 12.3559 47.3563L12.9484 48.9323C13.2875 49.8339 14.0035 50.5428 14.9091 50.8725L16.681 51.5185C16.7408 51.5405 16.7423 51.6247 16.6825 51.6483L15.4221 52.1432C14.1947 52.6247 13.2497 53.6326 12.8477 54.8883L12.5015 55.9702C12.4818 56.0316 12.396 56.0355 12.3717 55.9757V55.9749Z" fill="url(#paint1_linear_746_15183)"/>
<path d="M26.5123 27.9954L25.8049 26.3117C25.458 25.4855 24.79 24.8356 23.9552 24.5115L22.1849 23.8238C22.1259 23.801 22.1259 23.7176 22.1849 23.6948L23.8954 23.0331C24.8207 22.6751 25.5359 21.9213 25.8435 20.9787L26.3659 19.38C26.3864 19.3178 26.4737 19.3154 26.4965 19.3768L27.089 20.9528C27.4281 21.8544 28.1441 22.5633 29.0497 22.893L30.8216 23.539C30.8814 23.561 30.883 23.6452 30.8232 23.6688L29.5627 24.1637C28.3353 24.6452 27.3904 25.6531 26.9883 26.9088L26.6421 27.9907C26.6224 28.0521 26.5367 28.056 26.5123 27.9962V27.9954Z" fill="url(#paint2_linear_746_15183)"/>
<path d="M14.7083 41.3151L13.7288 38.9831C13.248 37.8391 12.3236 36.939 11.1662 36.4897L8.71371 35.5377C8.63189 35.5062 8.63189 35.3897 8.71371 35.3583L11.0828 34.4417C12.3637 33.946 13.3543 32.9011 13.7815 31.5958L14.5054 29.3817C14.5337 29.2952 14.6548 29.2928 14.6863 29.3778L15.5077 31.5604C15.9775 32.8098 16.9696 33.791 18.2238 34.2481L20.6778 35.1427C20.7612 35.1734 20.7628 35.2898 20.6802 35.3221L18.9342 36.0074C17.2348 36.6746 15.9247 38.0704 15.3677 39.8092L14.8877 41.3073C14.8602 41.3922 14.7422 41.3978 14.7076 41.3151H14.7083Z" fill="url(#paint3_linear_746_15183)"/>
<path d="M72.0678 55.7737L72.7752 54.09C73.1222 53.2638 73.7901 52.6139 74.6249 52.2898L76.3952 51.6021C76.4542 51.5793 76.4542 51.4959 76.3952 51.4731L74.6847 50.8114C73.7595 50.4534 73.0443 49.6996 72.7366 48.757L72.2142 47.1583C72.1937 47.0961 72.1064 47.0938 72.0836 47.1551L71.4911 48.7311C71.152 49.6328 70.436 50.3417 69.5304 50.6713L67.7585 51.3173C67.6987 51.3393 67.6972 51.4235 67.757 51.4471L69.0174 51.942C70.2448 52.4235 71.1898 53.4314 71.5918 54.6872L71.938 55.769C71.9577 55.8304 72.0434 55.8343 72.0678 55.7745V55.7737Z" fill="url(#paint4_linear_746_15183)"/>
<path d="M57.8276 27.9954L58.5349 26.3117C58.8819 25.4855 59.5499 24.8356 60.3847 24.5115L62.155 23.8238C62.214 23.801 62.214 23.7176 62.155 23.6948L60.4445 23.0331C59.5192 22.6751 58.804 21.9213 58.4964 20.9787L57.9739 19.38C57.9535 19.3178 57.8662 19.3154 57.8433 19.3768L57.2509 20.9528C56.9118 21.8544 56.1958 22.5633 55.2902 22.893L53.5183 23.539C53.4585 23.561 53.4569 23.6452 53.5167 23.6688L54.7772 24.1637C56.0046 24.6452 56.9495 25.6531 57.3516 26.9088L57.6978 27.9907C57.7175 28.0521 57.8032 28.056 57.8276 27.9962V27.9954Z" fill="url(#paint5_linear_746_15183)"/>
<path d="M69.5325 41.3173L70.5129 38.9837C70.9936 37.8389 71.9189 36.9388 73.0763 36.4887L75.5295 35.5359C75.6113 35.5045 75.6113 35.388 75.5295 35.3565L73.1597 34.4399C71.878 33.9442 70.8866 32.8986 70.4602 31.5925L69.7363 29.3769C69.708 29.2903 69.5868 29.2879 69.5546 29.3729L68.7331 31.5563C68.2626 32.8057 67.2705 33.7884 66.0163 34.2456L63.5615 35.1402C63.4781 35.1709 63.4765 35.2873 63.5591 35.3203L65.3058 36.0056C67.0061 36.6729 68.3161 38.0694 68.8732 39.809L69.3531 41.3079C69.3807 41.3929 69.4987 41.3984 69.5333 41.3158L69.5325 41.3173Z" fill="url(#paint6_linear_746_15183)"/>
<path d="M54.4401 59.8531C53.252 58.1127 47.3125 59.8531 47.3125 59.8531C47.7082 55.0662 48.7169 53.554 50.0843 50.7152C51.8665 47.0165 48.0772 41.1658 46.5201 38.9659C43.7482 35.0492 44.1031 29.6101 42.3619 27.4346C40.6215 29.6101 40.9756 35.05 38.2037 38.9659C36.6466 41.165 32.8574 47.0165 34.6395 50.7152C36.0069 53.554 37.0156 55.067 37.4114 59.8531C37.4114 59.8531 31.471 58.1127 30.2837 59.8531C24.1365 68.8596 60.5692 68.8329 54.4401 59.8531ZM44.9363 49.8442C45.5563 49.1503 46.1244 47.2336 45.3321 45.0573C44.1849 41.907 40.4862 42.0525 39.3917 45.0573C38.5994 47.2328 39.1675 49.1503 39.7875 49.8442C41.926 52.2377 37.0156 52.8899 37.4114 47.6687C37.5467 45.8811 38.9952 41.5765 40.1833 39.401C41.3713 37.2255 42.3611 32.4662 42.3611 32.4662C42.3611 32.4662 43.3509 37.2255 44.539 39.401C45.7271 41.5765 47.1756 45.8811 47.3109 47.6687C47.7066 52.8907 42.7962 52.2377 44.9347 49.8442H44.9363Z" fill="url(#paint7_linear_746_15183)"/>
<path d="M50.1953 57.8954C50.1953 57.8954 61.5095 49.6277 64.9903 51.8032C67.9652 53.6624 58.0279 61.8121 56.2875 63.1174C57.1577 61.8121 56.7226 56.155 50.1953 57.8954Z" fill="url(#paint8_linear_746_15183)"/>
<path d="M34.2103 57.8954C34.2103 57.8954 22.8961 49.6277 19.4153 51.8032C16.4404 53.6624 26.3777 61.8121 28.1181 63.1174C27.2479 61.8121 27.683 56.155 34.2103 57.8954Z" fill="url(#paint9_linear_746_15183)"/>
<path d="M69.7771 60.5059C66.8581 59.5326 58.8147 63.8112 54.112 66.163C49.425 68.5068 43.5114 68.2204 42.3493 68.1378C42.354 68.1323 42.358 68.1268 42.3627 68.1213C42.3627 68.1213 42.3249 68.1252 42.2541 68.1307C42.1833 68.1252 42.1455 68.1213 42.1455 68.1213C42.1502 68.1268 42.1542 68.1323 42.1589 68.1378C40.9976 68.2212 35.084 68.5068 30.3962 66.163C25.6935 63.8112 17.6501 59.5326 14.731 60.5059C10.8143 61.8112 23.4661 71.3881 29.3089 72.0372C35.1186 72.6824 39.0125 72.2614 42.2549 68.2543C45.4973 72.2622 49.3912 72.6832 55.2009 72.0372C61.0437 71.3881 73.6946 61.8112 69.7787 60.5059H69.7771Z" fill="url(#paint10_linear_746_15183)"/>
<path d="M62.1603 72.908C59.3333 73.1251 47.359 77.8554 42.1504 71.1755V71.1739C42.148 71.1715 42.1465 71.1692 42.1441 71.166V71.181C36.9355 77.8609 24.9612 73.1307 22.1342 72.9135C20.3985 72.7797 14.5518 76.4077 14.7367 77.7004C14.9547 79.2236 23.4395 82.0522 30.4019 80.311C37.3619 78.5706 41.2778 75.9616 42.1504 74.6555C43.0308 75.9639 46.9452 78.5674 53.8934 80.3047C60.8558 82.0451 69.3414 79.2166 69.5586 77.6941C69.7435 76.4014 63.8968 72.7742 62.1611 72.9072L62.1603 72.908Z" fill="url(#paint11_linear_746_15183)"/>
<path d="M42.2535 77.3359C42.1992 77.3674 42.1449 77.4115 42.1449 77.4115C41.1984 78.0637 37.3431 80.6358 34.3123 81.3935C32.0275 81.9647 41.1724 88.1316 42.2535 88.0962C43.329 88.1379 52.474 81.9631 50.1947 81.3935C47.1639 80.6358 43.3086 78.0637 42.3621 77.4115L42.2535 77.3359Z" fill="url(#paint12_linear_746_15183)"/>
<path d="M47.2124 22.0479C46.3422 26.8347 47.2124 30.7506 50.2581 35.1024C53.1685 39.2599 54.6099 43.8052 54.1748 47.2868C53.7822 50.4301 51.9993 52.5088 51.1291 53.8141C53.3046 53.379 56.4683 49.9108 56.7862 46.4166C57.2213 41.6297 54.6107 36.8436 51.9993 32.9269C49.3879 29.0102 48.0826 27.7049 47.2124 22.0479Z" fill="url(#paint13_linear_746_15183)"/>
<path d="M37.4048 22.0479C38.275 26.8347 37.4048 30.7506 34.3591 35.1024C31.4487 39.2599 30.0073 43.8052 30.4424 47.2868C30.835 50.4301 32.6179 52.5088 33.4881 53.8141C31.3126 53.379 28.1489 49.9108 27.831 46.4166C27.3959 41.6297 30.0065 36.8436 32.6179 32.9269C35.2285 29.0102 36.5346 27.7049 37.4048 22.0479Z" fill="url(#paint14_linear_746_15183)"/>
<path d="M97.1198 62.4755V66.5865H85.4319C84.2674 66.5865 83.1714 66.3119 82.1981 65.8328C80.7323 65.1207 79.5537 63.9421 78.855 62.4755C78.3617 61.503 78.0879 60.407 78.0879 59.2417V43.5254H82.1981V59.6524C82.3901 61.1182 83.5546 62.2827 85.0212 62.4747H97.1198V62.4755Z" fill="url(#paint15_linear_746_15183)"/>
<path d="M122.597 66.6009H117.979L115.869 62.4764L110.84 52.5974L105.812 62.4764L103.702 66.6009H99.084L101.18 62.4764L110.84 43.5264L120.501 62.4764L122.597 66.6009Z" fill="url(#paint16_linear_746_15183)"/>
<path d="M141.13 43.5459V47.6609H131.657V66.6078H127.542V47.6609H118.068V43.5459H141.13Z" fill="url(#paint17_linear_746_15183)"/>
<path d="M167.497 43.5329V66.5948H163.383V56.0115H148.551V66.5877H144.436V43.5273H148.551V51.8981H163.383V43.5329H167.497Z" fill="url(#paint18_linear_746_15183)"/>
<path d="M192.999 66.6009H188.381L186.271 62.4764L181.243 52.5974L176.214 62.4764L174.104 66.6009H169.486L171.582 62.4764L181.243 43.5264L190.903 62.4764L192.999 66.6009Z" fill="url(#paint19_linear_746_15183)"/>
<path d="M165.42 81.9455C165.207 81.5536 164.888 81.1996 164.461 80.8841C164.035 80.5686 163.555 80.3152 163.022 80.1232C162.49 79.9312 161.933 79.7888 161.353 79.6944C159.631 79.4387 158.024 78.8801 156.532 78.0193C156.404 77.9509 156.268 77.8061 156.123 77.5842C155.978 77.3623 155.906 77.1491 155.906 76.9446C155.906 76.1939 156.031 75.4418 156.283 74.6872C156.535 73.9327 156.857 73.3426 157.249 72.9161C157.88 72.2088 159.016 71.5904 160.657 71.0616C162.298 70.5329 164.147 70.2686 166.202 70.2686C167.43 70.2686 168.378 70.3622 169.048 70.5502C169.717 70.7375 170.051 71.0278 170.051 71.4196C170.051 72.0593 169.964 72.5534 169.789 72.9035C169.615 73.2537 169.427 73.4858 169.227 73.6007C169.026 73.7155 168.675 73.8713 168.172 74.0672C167.634 74.2545 167.168 74.4512 166.771 74.6557C166.375 74.8603 166.036 75.0562 165.755 75.2443C165.473 75.4315 165.298 75.526 165.23 75.526C165.145 75.526 165.102 75.4921 165.102 75.4237C165.102 75.2789 165.253 75.0594 165.556 74.7651C165.858 74.4709 166.232 74.2128 166.675 73.9917C167.143 73.7446 167.378 73.5865 167.378 73.5188C167.378 73.4079 167.117 73.3528 166.597 73.3528C165.02 73.3528 163.562 73.4936 162.224 73.7745C160.885 74.0562 159.829 74.4268 159.058 74.8871C158.286 75.3473 157.901 75.8163 157.901 76.2939C157.901 76.5921 158.061 76.8037 158.381 76.9272C158.7 77.0508 159.406 77.2577 160.497 77.5472C161.589 77.8376 162.565 78.1696 163.426 78.5449C164.662 79.0736 165.579 79.6236 166.176 80.1948C166.772 80.766 167.071 81.4057 167.071 82.113C167.071 82.5993 166.954 83.0871 166.719 83.5773C166.485 84.0675 166.142 84.5175 165.689 84.9266C165.237 85.3358 164.718 85.6725 164.129 85.9369C163.626 86.1501 162.993 86.35 162.23 86.538C161.467 86.7253 160.64 86.8724 159.748 86.9794C158.857 87.0856 158.006 87.1391 157.197 87.1391C155.704 87.1391 154.504 86.9983 153.596 86.7166C152.688 86.4349 152.234 86.0085 152.234 85.4381C152.234 85.1824 152.388 84.7834 152.695 84.2421C153.002 83.7008 153.364 83.3365 153.782 83.1485C154.149 83.0037 154.503 82.9203 154.843 82.8991C155.184 82.8778 155.355 82.9179 155.355 83.0202C155.355 83.0462 155.342 83.0714 155.316 83.0973C155.29 83.1233 155.26 83.1445 155.227 83.1611C155.193 83.1784 155.158 83.1949 155.124 83.2122C154.954 83.2807 154.815 83.3334 154.709 83.3719C154.602 83.4105 154.517 83.449 154.453 83.4868C154.389 83.5254 154.357 83.5789 154.357 83.6465C154.357 83.8259 155.24 83.9148 157.005 83.9148C158.54 83.9148 159.797 83.8597 160.777 83.7488C161.758 83.6379 162.623 83.438 163.374 83.1477C164.124 82.8581 164.807 82.4569 165.42 81.9455Z" fill="url(#paint20_linear_746_15183)"/>
<path d="M168.95 82.6876V81.7922C170.144 80.4963 171.174 79.2768 172.039 78.1344C172.904 76.9919 173.589 76.084 174.092 75.4105C174.595 74.7369 175.038 74.2617 175.422 73.9848C175.806 73.7078 176.288 73.5693 176.868 73.5693C177.157 73.5693 177.303 73.6803 177.303 73.9022C177.303 74.0815 177.185 74.3459 176.951 74.6952C176.717 75.0454 176.416 75.4034 176.049 75.77C175.563 76.2476 175.088 76.8464 174.624 77.5671C174.159 78.2878 173.632 79.206 173.044 80.3232C173.504 79.9652 174.035 79.5412 174.636 79.051C175.237 78.5608 175.728 78.1768 176.107 77.8999C176.486 77.6229 176.861 77.4034 177.232 77.2413C177.602 77.0793 177.975 76.9982 178.351 76.9982C178.589 76.9982 178.745 77.0407 178.817 77.1257C178.89 77.2106 178.926 77.3775 178.926 77.6245C178.926 78.2728 178.768 78.9054 178.453 79.5238C178.138 80.1423 177.686 80.7835 177.097 81.4484C176.509 82.1132 175.784 82.8386 174.923 83.6223C175.222 83.7332 175.528 83.7883 175.844 83.7883C176.833 83.7883 178.159 83.0338 179.822 81.5247V82.4452C179.174 83.0251 178.541 83.5704 177.923 84.0826C177.304 84.594 176.723 85.0031 176.177 85.3108C175.631 85.6176 175.128 85.771 174.668 85.771C174.497 85.771 174.316 85.7522 174.124 85.7136C173.932 85.675 173.755 85.6286 173.593 85.5728C173.431 85.5177 173.222 85.4382 172.966 85.3359C172.71 85.2337 172.513 85.1613 172.377 85.1188C172.104 85.1872 171.951 85.2211 171.917 85.2211C171.619 85.2211 171.269 85.1015 170.868 84.8631C170.587 85.4091 170.278 86.1141 169.941 86.9796C169.604 87.845 169.321 88.5335 169.09 89.0449C168.86 89.5563 168.553 90.0465 168.17 90.5154C167.956 90.7287 167.807 90.8349 167.722 90.8349C167.355 90.8349 167.172 90.5107 167.172 89.8632C167.172 89.3006 167.285 88.7145 167.511 88.1047C167.737 87.4949 168.015 86.9174 168.343 86.3714C168.671 85.8253 169.031 85.2738 169.424 84.7151C169.816 84.1565 170.093 83.7411 170.255 83.4681C171.602 81.1486 172.651 79.1753 173.402 77.5466C171.44 79.9338 169.957 81.6482 168.951 82.6884L168.95 82.6876ZM174.143 83.3139C174.987 82.4271 175.616 81.6726 176.03 81.0502C176.443 80.4279 176.65 79.9503 176.65 79.6175C176.65 79.2847 176.492 79.1446 176.177 79.1446C175.75 79.1446 175.152 79.4963 174.38 80.1997C173.608 80.9031 172.813 81.852 171.994 83.0456C172.625 82.9771 173.047 82.9543 173.26 82.9755C173.473 82.9968 173.768 83.1101 174.143 83.3146V83.3139Z" fill="url(#paint21_linear_746_15183)"/>
<path d="M181.229 79.3241C182.524 78.1471 183.783 77.2737 185.001 76.7025C186.221 76.1313 187.163 75.8457 187.828 75.8457C188.007 75.8457 188.173 75.9204 188.326 76.0692C188.48 76.2186 188.602 76.391 188.691 76.5869C188.78 76.7828 188.825 76.9283 188.825 77.022C188.825 77.1754 188.765 77.2887 188.646 77.3611C188.526 77.4335 188.318 77.5208 188.02 77.6231C188.079 77.76 188.156 77.9347 188.25 78.1479C188.344 78.3611 188.416 78.5334 188.467 78.6656C188.518 78.7978 188.544 78.915 188.544 79.0173C188.544 79.2219 188.337 79.6035 187.924 80.1621C187.51 80.7207 187.221 81.1322 187.055 81.3966C186.889 81.6609 186.805 81.9851 186.805 82.3683C186.805 82.9993 187.095 83.3148 187.675 83.3148C188.255 83.3148 189.205 82.7562 190.476 81.6397V82.4202C188.318 84.816 186.775 86.0143 185.846 86.0143C185.513 86.0143 185.277 85.9057 185.136 85.6886C184.995 85.4714 184.925 85.1496 184.925 84.7232C184.925 84.0497 185.168 83.0732 185.654 81.7939C184.41 83.1755 183.484 84.1582 182.879 84.742C182.273 85.3259 181.775 85.6178 181.383 85.6178C181.196 85.6178 180.961 85.4557 180.679 85.1315C180.398 84.8074 180.148 84.388 179.931 83.8718C179.714 83.3557 179.605 82.8207 179.605 82.2668C179.605 81.8663 179.644 81.5311 179.72 81.2628C179.797 80.9945 179.946 80.7191 180.168 80.4383C180.39 80.1566 180.743 79.786 181.229 79.3257L181.229 79.3241ZM187.355 77.9173C185.137 78.9323 183.558 79.7931 182.616 80.5012C181.673 81.2093 181.203 81.9379 181.203 82.6885C181.203 82.9615 181.249 83.185 181.343 83.3596C181.437 83.5343 181.565 83.6216 181.727 83.6216C181.821 83.6216 181.987 83.5619 182.226 83.4423C183.122 82.9135 183.94 82.2251 184.682 81.3769C185.424 80.5287 186.315 79.3753 187.355 77.9173Z" fill="url(#paint22_linear_746_15183)"/>
</g>
<defs>
<linearGradient id="paint0_linear_746_15183" x1="36.1066" y1="15.0389" x2="48.2163" y2="15.0389" gradientUnits="userSpaceOnUse">
<stop stop-color="#C1852E"/>
<stop offset="1" stop-color="#C09B2B"/>
</linearGradient>
<linearGradient id="paint1_linear_746_15183" x1="8.0002" y1="51.664" x2="16.7274" y2="51.664" gradientUnits="userSpaceOnUse">
<stop stop-color="#C1852E"/>
<stop offset="1" stop-color="#C09B2B"/>
</linearGradient>
<linearGradient id="paint2_linear_746_15183" x1="22.14" y1="23.6853" x2="30.868" y2="23.6853" gradientUnits="userSpaceOnUse">
<stop stop-color="#C1852E"/>
<stop offset="1" stop-color="#C09B2B"/>
</linearGradient>
<linearGradient id="paint3_linear_746_15183" x1="8.65234" y1="35.3441" x2="20.7415" y2="35.3441" gradientUnits="userSpaceOnUse">
<stop stop-color="#C1852E"/>
<stop offset="1" stop-color="#C09B2B"/>
</linearGradient>
<linearGradient id="paint4_linear_746_15183" x1="67.7121" y1="51.4629" x2="76.4401" y2="51.4629" gradientUnits="userSpaceOnUse">
<stop stop-color="#C1852E"/>
<stop offset="1" stop-color="#C09B2B"/>
</linearGradient>
<linearGradient id="paint5_linear_746_15183" x1="53.4719" y1="23.6853" x2="62.1998" y2="23.6853" gradientUnits="userSpaceOnUse">
<stop stop-color="#C1852E"/>
<stop offset="1" stop-color="#C09B2B"/>
</linearGradient>
<linearGradient id="paint6_linear_746_15183" x1="63.497" y1="35.3439" x2="75.5901" y2="35.3439" gradientUnits="userSpaceOnUse">
<stop stop-color="#C1852E"/>
<stop offset="1" stop-color="#C09B2B"/>
</linearGradient>
<linearGradient id="paint7_linear_746_15183" x1="29.5827" y1="47.0157" x2="55.138" y2="47.0157" gradientUnits="userSpaceOnUse">
<stop stop-color="#C1852E"/>
<stop offset="1" stop-color="#C09B2B"/>
</linearGradient>
<linearGradient id="paint8_linear_746_15183" x1="50.1953" y1="57.2777" x2="65.5426" y2="57.2777" gradientUnits="userSpaceOnUse">
<stop stop-color="#C1852E"/>
<stop offset="1" stop-color="#C09B2B"/>
</linearGradient>
<linearGradient id="paint9_linear_746_15183" x1="18.8629" y1="57.2777" x2="34.2103" y2="57.2777" gradientUnits="userSpaceOnUse">
<stop stop-color="#C1852E"/>
<stop offset="1" stop-color="#C09B2B"/>
</linearGradient>
<linearGradient id="paint10_linear_746_15183" x1="13.9914" y1="66.3243" x2="70.516" y2="66.3243" gradientUnits="userSpaceOnUse">
<stop stop-color="#C1852E"/>
<stop offset="1" stop-color="#C09B2B"/>
</linearGradient>
<linearGradient id="paint11_linear_746_15183" x1="14.7312" y1="76.0135" x2="69.5625" y2="76.0135" gradientUnits="userSpaceOnUse">
<stop stop-color="#C1852E"/>
<stop offset="1" stop-color="#C09B2B"/>
</linearGradient>
<linearGradient id="paint12_linear_746_15183" x1="33.9472" y1="82.7161" x2="50.559" y2="82.7161" gradientUnits="userSpaceOnUse">
<stop stop-color="#C1852E"/>
<stop offset="1" stop-color="#C09B2B"/>
</linearGradient>
<linearGradient id="paint13_linear_746_15183" x1="46.893" y1="37.931" x2="56.8342" y2="37.931" gradientUnits="userSpaceOnUse">
<stop stop-color="#C1852E"/>
<stop offset="1" stop-color="#C09B2B"/>
</linearGradient>
<linearGradient id="paint14_linear_746_15183" x1="27.7838" y1="37.931" x2="37.7242" y2="37.931" gradientUnits="userSpaceOnUse">
<stop stop-color="#C1852E"/>
<stop offset="1" stop-color="#C09B2B"/>
</linearGradient>
<linearGradient id="paint15_linear_746_15183" x1="92.041" y1="69.5181" x2="77.2979" y2="43.9817" gradientUnits="userSpaceOnUse">
<stop offset="0.23" stop-color="#C1852E"/>
<stop offset="0.54" stop-color="#836C17"/>
<stop offset="0.78" stop-color="#A28422"/>
</linearGradient>
<linearGradient id="paint16_linear_746_15183" x1="114.366" y1="71.3523" x2="101.436" y2="48.9561" gradientUnits="userSpaceOnUse">
<stop offset="0.23" stop-color="#C1852E"/>
<stop offset="0.54" stop-color="#836C17"/>
<stop offset="0.78" stop-color="#A28422"/>
</linearGradient>
<linearGradient id="paint17_linear_746_15183" x1="138.66" y1="62.5644" x2="125.276" y2="39.3845" gradientUnits="userSpaceOnUse">
<stop offset="0.23" stop-color="#C1852E"/>
<stop offset="0.54" stop-color="#836C17"/>
<stop offset="0.78" stop-color="#A28422"/>
</linearGradient>
<linearGradient id="paint18_linear_746_15183" x1="163.844" y1="68.7034" x2="148.09" y2="41.4171" gradientUnits="userSpaceOnUse">
<stop offset="0.23" stop-color="#C1852E"/>
<stop offset="0.54" stop-color="#836C17"/>
<stop offset="0.78" stop-color="#A28422"/>
</linearGradient>
<linearGradient id="paint19_linear_746_15183" x1="184.769" y1="71.3523" x2="171.839" y2="48.9561" gradientUnits="userSpaceOnUse">
<stop offset="0.23" stop-color="#C1852E"/>
<stop offset="0.54" stop-color="#836C17"/>
<stop offset="0.78" stop-color="#A28422"/>
</linearGradient>
<linearGradient id="paint20_linear_746_15183" x1="165.136" y1="85.3924" x2="157.661" y2="72.4456" gradientUnits="userSpaceOnUse">
<stop offset="0.23" stop-color="#C1852E"/>
<stop offset="0.54" stop-color="#836C17"/>
<stop offset="0.78" stop-color="#A28422"/>
</linearGradient>
<linearGradient id="paint21_linear_746_15183" x1="174.912" y1="86.7097" x2="169.524" y2="77.3774" gradientUnits="userSpaceOnUse">
<stop offset="0.23" stop-color="#C1852E"/>
<stop offset="0.54" stop-color="#836C17"/>
<stop offset="0.78" stop-color="#A28422"/>
</linearGradient>
<linearGradient id="paint22_linear_746_15183" x1="187.293" y1="85.4337" x2="182.919" y2="77.8576" gradientUnits="userSpaceOnUse">
<stop offset="0.23" stop-color="#C1852E"/>
<stop offset="0.54" stop-color="#836C17"/>
<stop offset="0.78" stop-color="#A28422"/>
</linearGradient>
</defs>
</svg>
