<svg width="200" height="100" viewBox="0 0 200 100" fill="none" xmlns="http://www.w3.org/2000/svg">
<rect width="200" height="100" fill="white"/>
<g style="mix-blend-mode:luminosity">
<path d="M50.4938 58.415H48.5391V52.0837C48.5391 49.2392 50.5117 47.5264 53.8115 47.5264C57.1113 47.5264 59.0481 49.1933 59.0481 52.099V52.359H57.1292V52.0837C57.1292 50.1568 55.9456 49.0863 53.8115 49.0863C51.6774 49.0863 50.4938 50.1262 50.4938 52.0837V58.415ZM48.8439 58.1703H50.1889V52.0837C50.1889 49.9885 51.4802 48.8263 53.8115 48.8263C56.1429 48.8263 57.434 49.9885 57.434 52.0837L58.7611 52.099C58.7611 49.3615 56.9678 47.7863 53.8115 47.7863C50.6552 47.7863 48.8439 49.3462 48.8439 52.0837V58.1703Z" fill="#A28754" stroke="#A28753" stroke-width="0.75" stroke-miterlimit="10"/>
<path d="M62.7972 58.414H60.8425V47.8007H62.7972V58.414ZM61.1474 58.1693H62.4924V48.0606H61.1474V58.1693ZM61.8109 46.042C61.0039 46.042 60.4121 45.522 60.4121 44.8491C60.4121 44.1762 61.0218 43.6562 61.8109 43.6562C62.6 43.6562 63.2097 44.1762 63.2097 44.8491C63.2097 45.522 62.6 46.042 61.8109 46.042ZM61.8109 43.9009C61.1832 43.9009 60.6991 44.2986 60.6991 44.8491C60.6991 45.3997 61.1653 45.7973 61.8109 45.7973C62.4565 45.7973 62.9228 45.3997 62.9228 44.8491C62.9228 44.2986 62.4565 43.9009 61.8109 43.9009Z" fill="#A28754" stroke="#A28753" stroke-width="0.75" stroke-miterlimit="10"/>
<path d="M71.6187 63.1252C68.3907 63.1252 66.1848 61.9018 65.3778 59.6996L65.324 59.5314H67.2967L67.3326 59.6079C67.9244 60.9078 69.4487 61.6265 71.6187 61.6265C74.6495 61.6265 76.2635 60.2043 76.2635 57.4974V56.4728C75.2413 57.8492 73.4659 58.6291 71.2959 58.6291C67.494 58.6291 64.8398 56.3657 64.8398 53.1083C64.8398 49.8509 67.6554 47.5264 71.529 47.5264C75.4027 47.5264 78.2003 49.8509 78.2003 53.1695V57.421C78.2003 62.3759 74.0756 63.11 71.6007 63.11L71.6187 63.1252ZM65.7365 59.7914C66.5435 61.7795 68.6238 62.8653 71.6366 62.8653C73.9859 62.8653 77.9313 62.1618 77.9313 57.4362V53.1848C77.9313 49.958 75.3668 47.8016 71.5649 47.8016C67.763 47.8016 65.1806 50.0344 65.1806 53.1236C65.1806 56.2128 67.7092 58.3844 71.3318 58.3844C73.5914 58.3844 75.4206 57.4974 76.3173 55.9375L76.6042 55.4482V57.5127C76.6042 61.1372 73.9142 61.9018 71.6545 61.9018C69.3949 61.9018 67.7809 61.1524 67.1174 59.8067H65.7545L65.7365 59.7914ZM71.5469 57.3292C68.5879 57.3292 66.5256 55.6011 66.5256 53.1083C66.5256 50.6156 68.5879 48.8263 71.5469 48.8263C74.506 48.8263 76.5684 50.585 76.5684 53.1083C76.5684 55.6317 74.506 57.3292 71.5469 57.3292ZM71.5469 49.0863C68.7673 49.0863 66.8304 50.7379 66.8304 53.1083C66.8304 55.4787 68.7673 57.0692 71.5469 57.0692C74.3266 57.0692 76.2635 55.4329 76.2635 53.1083C76.2635 50.7838 74.3266 49.0863 71.5469 49.0863Z" fill="#A28754" stroke="#A28753" stroke-width="0.75" stroke-miterlimit="10"/>
<path d="M82.7562 58.414H80.8015V47.8007H82.7562V58.414ZM81.1064 58.1693H82.4514V48.0606H81.1064V58.1693ZM81.7699 46.042C80.9629 46.042 80.3711 45.522 80.3711 44.8491C80.3711 44.1762 80.9808 43.6562 81.7699 43.6562C82.559 43.6562 83.1687 44.1762 83.1687 44.8491C83.1687 45.522 82.559 46.042 81.7699 46.042ZM81.7699 43.9009C81.1422 43.9009 80.658 44.2986 80.658 44.8491C80.658 45.3997 81.1243 45.7973 81.7699 45.7973C82.4155 45.7973 82.8818 45.3997 82.8818 44.8491C82.8818 44.2986 82.4155 43.9009 81.7699 43.9009Z" fill="#A28754" stroke="#A28753" stroke-width="0.75" stroke-miterlimit="10"/>
<path d="M97.607 58.415H95.6523V52.8789C95.6523 50.4626 94.1279 49.0863 91.4559 49.0863C88.7838 49.0863 87.2594 50.4626 87.2594 52.8789V58.415H85.3047V52.8789C85.3047 49.5298 87.6002 47.5264 91.4559 47.5264C95.3116 47.5264 97.607 49.5298 97.607 52.8789V58.415ZM95.9572 58.1703H97.3022V52.8789C97.3022 49.6827 95.1143 47.7863 91.4559 47.7863C87.7974 47.7863 85.6095 49.698 85.6095 52.8789V58.1703H86.9545V52.8789C86.9545 50.3403 88.6403 48.8263 91.4559 48.8263C94.2714 48.8263 95.9572 50.3403 95.9572 52.8789V58.1703Z" fill="#A28754" stroke="#A28753" stroke-width="0.75" stroke-miterlimit="10"/>
<path d="M115.271 58.4137H106.699V44.4512H114.626C117.513 44.4512 119.306 45.8275 119.306 48.0603C119.306 49.452 118.535 50.5684 117.208 51.1648C118.966 51.6695 120.06 52.9847 120.06 54.6669C120.06 56.9456 118.177 58.429 115.289 58.429L115.271 58.4137ZM107.004 58.169H115.271C118.033 58.169 119.737 56.8232 119.737 54.6669C119.737 53.0153 118.607 51.7306 116.796 51.333L116.688 51.3024V51.073L116.778 51.0425C118.195 50.5378 119.002 49.4367 119.002 48.0603C119.002 45.9958 117.334 44.7112 114.626 44.7112H107.004V58.169ZM115.038 57.0373H108.475V51.8683H115.092C116.975 51.8683 118.248 52.9082 118.248 54.4528C118.248 55.9974 117.047 57.0373 115.056 57.0373H115.038ZM108.78 56.7773H115.056C116.903 56.7773 117.961 55.9362 117.961 54.4528C117.961 52.9694 116.85 52.1283 115.11 52.1283H108.797V56.7773H108.78ZM114.5 50.7366H108.475V45.8275H114.429C116.401 45.8275 117.531 46.7298 117.531 48.2897C117.531 49.8496 116.347 50.7519 114.5 50.7519V50.7366ZM108.78 50.4919H114.5C116.186 50.4919 117.226 49.6508 117.226 48.2897C117.226 46.9286 116.24 46.0875 114.429 46.0875H108.78V50.4919Z" fill="#A28754" stroke="#A28753" stroke-width="0.75" stroke-miterlimit="10"/>
<path d="M127.536 58.6903C123.806 58.6903 121.08 56.3657 121.08 53.1695C121.08 49.9732 123.824 47.5264 127.769 47.5264C131.715 47.5264 134.441 49.8509 134.441 53.1695V58.415H132.611V56.3046C131.643 57.8033 129.778 58.6903 127.518 58.6903H127.536ZM127.787 47.7863C124.021 47.7863 121.385 50.0038 121.385 53.1695C121.385 56.3351 123.967 58.4303 127.536 58.4303C129.921 58.4303 131.84 57.4057 132.629 55.6775L132.916 55.0505V58.155H134.136V53.1695C134.136 50.0038 131.517 47.7863 127.769 47.7863H127.787ZM127.787 57.3904C124.828 57.3904 122.766 55.6317 122.766 53.1083C122.766 50.585 124.828 48.8263 127.787 48.8263C130.746 48.8263 132.809 50.585 132.809 53.1083C132.809 55.6317 130.746 57.3904 127.787 57.3904ZM127.787 49.0863C125.008 49.0863 123.071 50.7379 123.071 53.1083C123.071 55.4787 125.008 57.1304 127.787 57.1304C130.567 57.1304 132.504 55.4787 132.504 53.1083C132.504 50.7379 130.567 49.0863 127.787 49.0863Z" fill="#A28754" stroke="#A28753" stroke-width="0.75" stroke-miterlimit="10"/>
<path d="M148.23 58.4145H145.432L145.396 58.3839L138.976 53.6431V58.4145H137.021V43.2744H138.976V52.2973L145.217 47.8164H147.997L140.805 52.9855L148.23 58.4451V58.4145ZM145.558 58.1698H147.441L140.357 52.9702L147.19 48.0611H145.343L138.689 52.8478V43.5344H137.344V58.1698H138.689V53.0925L145.558 58.1698Z" fill="#A28754" stroke="#A28753" stroke-width="0.75" stroke-miterlimit="10"/>
<path d="M154.92 58.6903C151.046 58.6903 148.23 56.3351 148.23 53.1083C148.23 49.8815 151.046 47.5264 154.92 47.5264C158.793 47.5264 161.573 49.8815 161.573 53.1083V53.7047H150.257C150.544 55.7693 152.409 57.1457 154.938 57.1457C156.785 57.1457 158.219 56.5034 158.991 55.3411L159.026 55.2799H161.143L161.053 55.4634C160.067 57.4668 157.735 58.7056 154.938 58.7056L154.92 58.6903ZM154.92 47.7863C151.207 47.7863 148.535 50.0191 148.535 53.1083C148.535 56.1975 151.225 58.4303 154.92 58.4303C157.502 58.4303 159.69 57.3139 160.658 55.5246H159.188C158.363 56.7328 156.839 57.3904 154.92 57.3904C152.158 57.3904 150.149 55.8611 149.916 53.5824V53.4448H161.25V53.1083C161.25 49.9732 158.65 47.7863 154.902 47.7863H154.92ZM159.869 52.4507H149.952L149.988 52.2978C150.365 50.1874 152.319 48.8263 154.938 48.8263C157.556 48.8263 159.457 50.1874 159.851 52.2978L159.887 52.4507H159.869ZM150.293 52.1907H159.511C159.08 50.2944 157.287 49.0863 154.92 49.0863C152.552 49.0863 150.723 50.2944 150.293 52.1907Z" fill="#A28754" stroke="#A28753" stroke-width="0.75" stroke-miterlimit="10"/>
<path d="M165.125 58.415H163.17V52.0837C163.17 49.2392 165.143 47.5264 168.442 47.5264C171.742 47.5264 173.679 49.1933 173.679 52.099V52.359H171.76V52.0837C171.76 50.1568 170.576 49.0863 168.442 49.0863C166.308 49.0863 165.125 50.1262 165.125 52.0837V58.415ZM163.475 58.1703H164.82V52.0837C164.82 49.9885 166.111 48.8263 168.442 48.8263C170.774 48.8263 172.065 49.9885 172.065 52.0837L173.392 52.099C173.392 49.3615 171.599 47.7863 168.442 47.7863C165.286 47.7863 163.475 49.3462 163.475 52.0837V58.1703Z" fill="#A28754" stroke="#A28753" stroke-width="0.75" stroke-miterlimit="10"/>
<path d="M179.615 58.6903C176.638 58.6903 174.576 57.3598 174.504 55.3717V55.234H176.477V55.3564C176.566 56.4575 177.768 57.1457 179.633 57.1457C181.498 57.1457 182.771 56.4269 182.771 55.3258C182.771 54.2247 181.605 54.0718 179.687 53.873H179.597C177.463 53.6436 174.791 53.353 174.791 50.9214C174.791 48.8569 176.674 47.5264 179.597 47.5264C182.52 47.5264 184.349 48.8263 184.403 50.7532V50.8908H182.484V50.7685C182.395 49.7286 181.265 49.071 179.579 49.071C177.893 49.071 176.746 49.7744 176.746 50.8144C176.746 51.9613 178.162 52.1143 179.812 52.2978L180.045 52.3284C181.91 52.5272 184.744 52.8483 184.744 55.2493C184.744 57.3139 182.682 58.7056 179.633 58.7056L179.615 58.6903ZM174.809 55.5093C174.97 57.268 176.871 58.4456 179.615 58.4456C182.502 58.4456 184.439 57.161 184.439 55.234C184.439 53.0471 181.874 52.7719 180.009 52.5578L179.776 52.5272C178.073 52.3437 176.459 52.1602 176.459 50.7991C176.459 49.6062 177.714 48.811 179.579 48.811C181.336 48.811 182.61 49.545 182.771 50.6308H184.098C183.973 48.918 182.179 47.7863 179.597 47.7863C176.871 47.7863 175.096 49.0251 175.096 50.9367C175.096 53.1389 177.517 53.3989 179.633 53.6283H179.722C181.444 53.8271 183.076 53.9953 183.076 55.3564C183.076 56.6257 181.731 57.4362 179.633 57.4362C177.696 57.4362 176.351 56.6869 176.207 55.5246H174.827L174.809 55.5093Z" fill="#A28754" stroke="#A28753" stroke-width="0.75" stroke-miterlimit="10"/>
<path fill-rule="evenodd" clip-rule="evenodd" d="M21.5325 39.4976C13.4445 44.8195 12.7451 54.8518 20.1157 60.8466C25.9083 65.5569 35.395 66.0004 41.7256 61.8254C47.5539 57.9868 48.6479 50.845 44.1466 45.8595C41.062 42.4338 36.1303 40.9351 31.4676 41.5774C29.3335 41.868 27.2533 42.6021 25.424 43.8102C20.1337 47.5111 20.2233 54.4694 25.6034 58.0633C22.214 54.3165 23.0209 48.9334 27.4326 46.0277C31.8263 43.1373 38.1389 43.8255 41.5463 47.5876C44.9536 51.3497 44.1287 56.7175 39.717 59.6232C25.9082 68.7072 9.19427 51.1662 23.541 41.7304C26.518 39.7729 30.015 38.8247 33.4941 38.8094C34.2652 37.8765 35.1261 36.9895 36.0586 36.1331C31.0731 35.5979 25.8365 36.6684 21.5325 39.4976Z" fill="#8C713F"/>
</g>
</svg>
