<svg width="746" height="523" viewBox="0 0 746 523" fill="none" xmlns="http://www.w3.org/2000/svg">
<rect x="87.918" y="44" width="554.078" height="186.553" rx="20" fill="white"/>
<g filter="url(#filter0_d_2919_10892)">
<rect x="64" y="60.7422" width="577.995" height="353.972" rx="20" fill="white"/>
</g>
<rect x="209.895" y="186.539" width="151.475" height="12.7558" rx="3" fill="#ECECF1"/>
<rect x="90.3086" y="186.539" width="96.4654" height="91.682" rx="5" fill="#ECECF1"/>
<rect x="209.895" y="208.859" width="302.949" height="12.7558" rx="3" fill="#ECECF1"/>
<rect x="209.895" y="231.188" width="302.949" height="12.7558" rx="3" fill="#ECECF1"/>
<rect x="89.5469" y="301.164" width="151.475" height="12.7558" rx="3" fill="#ECECF1"/>
<rect x="419.961" y="301.164" width="96.4654" height="91.682" rx="5" fill="#ECECF1"/>
<rect x="530.961" y="186.164" width="96" height="207" rx="5" fill="#ECECF1"/>
<rect x="89.5469" y="323.484" width="302.949" height="12.7558" rx="3" fill="#ECECF1"/>
<rect x="89.5469" y="345.812" width="302.949" height="12.7558" rx="3" fill="#ECECF1"/>
<path d="M91.0486 108.184C91.0486 106.824 91.3619 105.604 91.9886 104.524C92.6286 103.444 93.4886 102.604 94.5686 102.004C95.6619 101.391 96.8553 101.084 98.1486 101.084C99.6286 101.084 100.942 101.451 102.089 102.184C103.249 102.904 104.089 103.931 104.609 105.264H101.869C101.509 104.531 101.009 103.984 100.369 103.624C99.7286 103.264 98.9886 103.084 98.1486 103.084C97.2286 103.084 96.4086 103.291 95.6886 103.704C94.9686 104.117 94.4019 104.711 93.9886 105.484C93.5886 106.257 93.3886 107.157 93.3886 108.184C93.3886 109.211 93.5886 110.111 93.9886 110.884C94.4019 111.657 94.9686 112.257 95.6886 112.684C96.4086 113.097 97.2286 113.304 98.1486 113.304C98.9886 113.304 99.7286 113.124 100.369 112.764C101.009 112.404 101.509 111.857 101.869 111.124H104.609C104.089 112.457 103.249 113.484 102.089 114.204C100.942 114.924 99.6286 115.284 98.1486 115.284C96.8419 115.284 95.6486 114.984 94.5686 114.384C93.4886 113.771 92.6286 112.924 91.9886 111.844C91.3619 110.764 91.0486 109.544 91.0486 108.184ZM106.317 109.604C106.317 108.497 106.544 107.517 106.997 106.664C107.464 105.811 108.091 105.151 108.877 104.684C109.677 104.204 110.557 103.964 111.517 103.964C112.384 103.964 113.137 104.137 113.777 104.484C114.431 104.817 114.951 105.237 115.337 105.744V104.144H117.637V115.164H115.337V113.524C114.951 114.044 114.424 114.477 113.757 114.824C113.091 115.171 112.331 115.344 111.477 115.344C110.531 115.344 109.664 115.104 108.877 114.624C108.091 114.131 107.464 113.451 106.997 112.584C106.544 111.704 106.317 110.711 106.317 109.604ZM115.337 109.644C115.337 108.884 115.177 108.224 114.857 107.664C114.551 107.104 114.144 106.677 113.637 106.384C113.131 106.091 112.584 105.944 111.997 105.944C111.411 105.944 110.864 106.091 110.357 106.384C109.851 106.664 109.437 107.084 109.117 107.644C108.811 108.191 108.657 108.844 108.657 109.604C108.657 110.364 108.811 111.031 109.117 111.604C109.437 112.177 109.851 112.617 110.357 112.924C110.877 113.217 111.424 113.364 111.997 113.364C112.584 113.364 113.131 113.217 113.637 112.924C114.144 112.631 114.551 112.204 114.857 111.644C115.177 111.071 115.337 110.404 115.337 109.644ZM124.432 115.344C123.565 115.344 122.785 115.191 122.092 114.884C121.412 114.564 120.872 114.137 120.472 113.604C120.072 113.057 119.859 112.451 119.832 111.784H122.192C122.232 112.251 122.452 112.644 122.852 112.964C123.265 113.271 123.779 113.424 124.392 113.424C125.032 113.424 125.525 113.304 125.872 113.064C126.232 112.811 126.412 112.491 126.412 112.104C126.412 111.691 126.212 111.384 125.812 111.184C125.425 110.984 124.805 110.764 123.952 110.524C123.125 110.297 122.452 110.077 121.932 109.864C121.412 109.651 120.959 109.324 120.572 108.884C120.199 108.444 120.012 107.864 120.012 107.144C120.012 106.557 120.185 106.024 120.532 105.544C120.879 105.051 121.372 104.664 122.012 104.384C122.665 104.104 123.412 103.964 124.252 103.964C125.505 103.964 126.512 104.284 127.272 104.924C128.045 105.551 128.459 106.411 128.512 107.504H126.232C126.192 107.011 125.992 106.617 125.632 106.324C125.272 106.031 124.785 105.884 124.172 105.884C123.572 105.884 123.112 105.997 122.792 106.224C122.472 106.451 122.312 106.751 122.312 107.124C122.312 107.417 122.419 107.664 122.632 107.864C122.845 108.064 123.105 108.224 123.412 108.344C123.719 108.451 124.172 108.591 124.772 108.764C125.572 108.977 126.225 109.197 126.732 109.424C127.252 109.637 127.699 109.957 128.072 110.384C128.445 110.811 128.639 111.377 128.652 112.084C128.652 112.711 128.479 113.271 128.132 113.764C127.785 114.257 127.292 114.644 126.652 114.924C126.025 115.204 125.285 115.344 124.432 115.344ZM141.016 109.384C141.016 109.797 140.989 110.171 140.936 110.504H132.516C132.582 111.384 132.909 112.091 133.496 112.624C134.082 113.157 134.802 113.424 135.656 113.424C136.882 113.424 137.749 112.911 138.256 111.884H140.716C140.382 112.897 139.776 113.731 138.896 114.384C138.029 115.024 136.949 115.344 135.656 115.344C134.602 115.344 133.656 115.111 132.816 114.644C131.989 114.164 131.336 113.497 130.856 112.644C130.389 111.777 130.156 110.777 130.156 109.644C130.156 108.511 130.382 107.517 130.836 106.664C131.302 105.797 131.949 105.131 132.776 104.664C133.616 104.197 134.576 103.964 135.656 103.964C136.696 103.964 137.622 104.191 138.436 104.644C139.249 105.097 139.882 105.737 140.336 106.564C140.789 107.377 141.016 108.317 141.016 109.384ZM138.636 108.664C138.622 107.824 138.322 107.151 137.736 106.644C137.149 106.137 136.422 105.884 135.556 105.884C134.769 105.884 134.096 106.137 133.536 106.644C132.976 107.137 132.642 107.811 132.536 108.664H138.636ZM152.635 115.304C151.701 115.304 150.861 115.144 150.115 114.824C149.368 114.491 148.781 114.024 148.355 113.424C147.928 112.824 147.715 112.124 147.715 111.324H150.155C150.208 111.924 150.441 112.417 150.855 112.804C151.281 113.191 151.875 113.384 152.635 113.384C153.421 113.384 154.035 113.197 154.475 112.824C154.915 112.437 155.135 111.944 155.135 111.344C155.135 110.877 154.995 110.497 154.715 110.204C154.448 109.911 154.108 109.684 153.695 109.524C153.295 109.364 152.735 109.191 152.015 109.004C151.108 108.764 150.368 108.524 149.795 108.284C149.235 108.031 148.755 107.644 148.355 107.124C147.955 106.604 147.755 105.911 147.755 105.044C147.755 104.244 147.955 103.544 148.355 102.944C148.755 102.344 149.315 101.884 150.035 101.564C150.755 101.244 151.588 101.084 152.535 101.084C153.881 101.084 154.981 101.424 155.835 102.104C156.701 102.771 157.181 103.691 157.275 104.864H154.755C154.715 104.357 154.475 103.924 154.035 103.564C153.595 103.204 153.015 103.024 152.295 103.024C151.641 103.024 151.108 103.191 150.695 103.524C150.281 103.857 150.075 104.337 150.075 104.964C150.075 105.391 150.201 105.744 150.455 106.024C150.721 106.291 151.055 106.504 151.455 106.664C151.855 106.824 152.401 106.997 153.095 107.184C154.015 107.437 154.761 107.691 155.335 107.944C155.921 108.197 156.415 108.591 156.815 109.124C157.228 109.644 157.435 110.344 157.435 111.224C157.435 111.931 157.241 112.597 156.855 113.224C156.481 113.851 155.928 114.357 155.195 114.744C154.475 115.117 153.621 115.304 152.635 115.304ZM162.585 106.004V112.104C162.585 112.517 162.678 112.817 162.865 113.004C163.065 113.177 163.398 113.264 163.865 113.264H165.265V115.164H163.465C162.438 115.164 161.652 114.924 161.105 114.444C160.558 113.964 160.285 113.184 160.285 112.104V106.004H158.985V104.144H160.285V101.404H162.585V104.144H165.265V106.004H162.585ZM177.146 104.144V115.164H174.866V113.864C174.506 114.317 174.033 114.677 173.446 114.944C172.873 115.197 172.26 115.324 171.606 115.324C170.74 115.324 169.96 115.144 169.266 114.784C168.586 114.424 168.046 113.891 167.646 113.184C167.26 112.477 167.066 111.624 167.066 110.624V104.144H169.326V110.284C169.326 111.271 169.573 112.031 170.066 112.564C170.56 113.084 171.233 113.344 172.086 113.344C172.94 113.344 173.613 113.084 174.106 112.564C174.613 112.031 174.866 111.271 174.866 110.284V104.144H177.146ZM179.195 109.604C179.195 108.497 179.421 107.517 179.875 106.664C180.341 105.811 180.968 105.151 181.755 104.684C182.555 104.204 183.441 103.964 184.415 103.964C185.135 103.964 185.841 104.124 186.535 104.444C187.241 104.751 187.801 105.164 188.215 105.684V100.364H190.515V115.164H188.215V113.504C187.841 114.037 187.321 114.477 186.655 114.824C186.001 115.171 185.248 115.344 184.395 115.344C183.435 115.344 182.555 115.104 181.755 114.624C180.968 114.131 180.341 113.451 179.875 112.584C179.421 111.704 179.195 110.711 179.195 109.604ZM188.215 109.644C188.215 108.884 188.055 108.224 187.735 107.664C187.428 107.104 187.021 106.677 186.515 106.384C186.008 106.091 185.461 105.944 184.875 105.944C184.288 105.944 183.741 106.091 183.235 106.384C182.728 106.664 182.315 107.084 181.995 107.644C181.688 108.191 181.535 108.844 181.535 109.604C181.535 110.364 181.688 111.031 181.995 111.604C182.315 112.177 182.728 112.617 183.235 112.924C183.755 113.217 184.301 113.364 184.875 113.364C185.461 113.364 186.008 113.217 186.515 112.924C187.021 112.631 187.428 112.204 187.735 111.644C188.055 111.071 188.215 110.404 188.215 109.644ZM203.229 104.144L196.469 120.344H194.109L196.349 114.984L192.009 104.144H194.549L197.649 112.544L200.869 104.144H203.229ZM205.67 115.304C205.257 115.304 204.91 115.164 204.63 114.884C204.35 114.604 204.21 114.257 204.21 113.844C204.21 113.431 204.35 113.084 204.63 112.804C204.91 112.524 205.257 112.384 205.67 112.384C206.07 112.384 206.41 112.524 206.69 112.804C206.97 113.084 207.11 113.431 207.11 113.844C207.11 114.257 206.97 114.604 206.69 114.884C206.41 115.164 206.07 115.304 205.67 115.304ZM205.67 106.904C205.257 106.904 204.91 106.764 204.63 106.484C204.35 106.204 204.21 105.857 204.21 105.444C204.21 105.031 204.35 104.684 204.63 104.404C204.91 104.124 205.257 103.984 205.67 103.984C206.07 103.984 206.41 104.124 206.69 104.404C206.97 104.684 207.11 105.031 207.11 105.444C207.11 105.857 206.97 106.204 206.69 106.484C206.41 106.764 206.07 106.904 205.67 106.904ZM224.168 105.404C224.168 106.111 224.001 106.777 223.668 107.404C223.334 108.031 222.801 108.544 222.068 108.944C221.334 109.331 220.394 109.524 219.248 109.524H216.728V115.164H214.448V101.264H219.248C220.314 101.264 221.214 101.451 221.948 101.824C222.694 102.184 223.248 102.677 223.608 103.304C223.981 103.931 224.168 104.631 224.168 105.404ZM219.248 107.664C220.114 107.664 220.761 107.471 221.188 107.084C221.614 106.684 221.828 106.124 221.828 105.404C221.828 103.884 220.968 103.124 219.248 103.124H216.728V107.664H219.248ZM228.422 105.744C228.756 105.184 229.196 104.751 229.742 104.444C230.302 104.124 230.962 103.964 231.722 103.964V106.324H231.142C230.249 106.324 229.569 106.551 229.102 107.004C228.649 107.457 228.422 108.244 228.422 109.364V115.164H226.142V104.144H228.422V105.744ZM243.718 109.384C243.718 109.797 243.691 110.171 243.638 110.504H235.218C235.285 111.384 235.611 112.091 236.198 112.624C236.785 113.157 237.505 113.424 238.358 113.424C239.585 113.424 240.451 112.911 240.958 111.884H243.418C243.085 112.897 242.478 113.731 241.598 114.384C240.731 115.024 239.651 115.344 238.358 115.344C237.305 115.344 236.358 115.111 235.518 114.644C234.691 114.164 234.038 113.497 233.558 112.644C233.091 111.777 232.858 110.777 232.858 109.644C232.858 108.511 233.085 107.517 233.538 106.664C234.005 105.797 234.651 105.131 235.478 104.664C236.318 104.197 237.278 103.964 238.358 103.964C239.398 103.964 240.325 104.191 241.138 104.644C241.951 105.097 242.585 105.737 243.038 106.564C243.491 107.377 243.718 108.317 243.718 109.384ZM241.338 108.664C241.325 107.824 241.025 107.151 240.438 106.644C239.851 106.137 239.125 105.884 238.258 105.884C237.471 105.884 236.798 106.137 236.238 106.644C235.678 107.137 235.345 107.811 235.238 108.664H241.338ZM245.002 109.604C245.002 108.497 245.228 107.517 245.682 106.664C246.148 105.811 246.775 105.151 247.562 104.684C248.362 104.204 249.248 103.964 250.222 103.964C250.942 103.964 251.648 104.124 252.342 104.444C253.048 104.751 253.608 105.164 254.022 105.684V100.364H256.322V115.164H254.022V113.504C253.648 114.037 253.128 114.477 252.462 114.824C251.808 115.171 251.055 115.344 250.202 115.344C249.242 115.344 248.362 115.104 247.562 114.624C246.775 114.131 246.148 113.451 245.682 112.584C245.228 111.704 245.002 110.711 245.002 109.604ZM254.022 109.644C254.022 108.884 253.862 108.224 253.542 107.664C253.235 107.104 252.828 106.677 252.322 106.384C251.815 106.091 251.268 105.944 250.682 105.944C250.095 105.944 249.548 106.091 249.042 106.384C248.535 106.664 248.122 107.084 247.802 107.644C247.495 108.191 247.342 108.844 247.342 109.604C247.342 110.364 247.495 111.031 247.802 111.604C248.122 112.177 248.535 112.617 249.042 112.924C249.562 113.217 250.108 113.364 250.682 113.364C251.268 113.364 251.815 113.217 252.322 112.924C252.828 112.631 253.235 112.204 253.542 111.644C253.862 111.071 254.022 110.404 254.022 109.644ZM260.276 102.684C259.863 102.684 259.516 102.544 259.236 102.264C258.956 101.984 258.816 101.637 258.816 101.224C258.816 100.811 258.956 100.464 259.236 100.184C259.516 99.9041 259.863 99.7641 260.276 99.7641C260.676 99.7641 261.016 99.9041 261.296 100.184C261.576 100.464 261.716 100.811 261.716 101.224C261.716 101.637 261.576 101.984 261.296 102.264C261.016 102.544 260.676 102.684 260.276 102.684ZM261.396 104.144V115.164H259.116V104.144H261.396ZM263.43 109.644C263.43 108.511 263.657 107.517 264.11 106.664C264.577 105.797 265.217 105.131 266.03 104.664C266.843 104.197 267.777 103.964 268.83 103.964C270.163 103.964 271.263 104.284 272.13 104.924C273.01 105.551 273.603 106.451 273.91 107.624H271.45C271.25 107.077 270.93 106.651 270.49 106.344C270.05 106.037 269.497 105.884 268.83 105.884C267.897 105.884 267.15 106.217 266.59 106.884C266.043 107.537 265.77 108.457 265.77 109.644C265.77 110.831 266.043 111.757 266.59 112.424C267.15 113.091 267.897 113.424 268.83 113.424C270.15 113.424 271.023 112.844 271.45 111.684H273.91C273.59 112.804 272.99 113.697 272.11 114.364C271.23 115.017 270.137 115.344 268.83 115.344C267.777 115.344 266.843 115.111 266.03 114.644C265.217 114.164 264.577 113.497 264.11 112.644C263.657 111.777 263.43 110.777 263.43 109.644ZM278.642 106.004V112.104C278.642 112.517 278.735 112.817 278.922 113.004C279.122 113.177 279.455 113.264 279.922 113.264H281.322V115.164H279.522C278.495 115.164 277.709 114.924 277.162 114.444C276.615 113.964 276.342 113.184 276.342 112.104V106.004H275.042V104.144H276.342V101.404H278.642V104.144H281.322V106.004H278.642ZM284.383 102.684C283.97 102.684 283.623 102.544 283.343 102.264C283.063 101.984 282.923 101.637 282.923 101.224C282.923 100.811 283.063 100.464 283.343 100.184C283.623 99.9041 283.97 99.7641 284.383 99.7641C284.783 99.7641 285.123 99.9041 285.403 100.184C285.683 100.464 285.823 100.811 285.823 101.224C285.823 101.637 285.683 101.984 285.403 102.264C285.123 102.544 284.783 102.684 284.383 102.684ZM285.503 104.144V115.164H283.223V104.144H285.503ZM293.857 103.964C294.724 103.964 295.497 104.144 296.177 104.504C296.87 104.864 297.41 105.397 297.797 106.104C298.184 106.811 298.377 107.664 298.377 108.664V115.164H296.117V109.004C296.117 108.017 295.87 107.264 295.377 106.744C294.884 106.211 294.21 105.944 293.357 105.944C292.504 105.944 291.824 106.211 291.317 106.744C290.824 107.264 290.577 108.017 290.577 109.004V115.164H288.297V104.144H290.577V105.404C290.95 104.951 291.424 104.597 291.997 104.344C292.584 104.091 293.204 103.964 293.857 103.964ZM305.525 103.964C306.378 103.964 307.132 104.137 307.785 104.484C308.452 104.817 308.972 105.237 309.345 105.744V104.144H311.645V115.344C311.645 116.357 311.432 117.257 311.005 118.044C310.578 118.844 309.958 119.471 309.145 119.924C308.345 120.377 307.385 120.604 306.265 120.604C304.772 120.604 303.532 120.251 302.545 119.544C301.558 118.851 300.998 117.904 300.865 116.704H303.125C303.298 117.277 303.665 117.737 304.225 118.084C304.798 118.444 305.478 118.624 306.265 118.624C307.185 118.624 307.925 118.344 308.485 117.784C309.058 117.224 309.345 116.411 309.345 115.344V113.504C308.958 114.024 308.432 114.464 307.765 114.824C307.112 115.171 306.365 115.344 305.525 115.344C304.565 115.344 303.685 115.104 302.885 114.624C302.098 114.131 301.472 113.451 301.005 112.584C300.552 111.704 300.325 110.711 300.325 109.604C300.325 108.497 300.552 107.517 301.005 106.664C301.472 105.811 302.098 105.151 302.885 104.684C303.685 104.204 304.565 103.964 305.525 103.964ZM309.345 109.644C309.345 108.884 309.185 108.224 308.865 107.664C308.558 107.104 308.152 106.677 307.645 106.384C307.138 106.091 306.592 105.944 306.005 105.944C305.418 105.944 304.872 106.091 304.365 106.384C303.858 106.664 303.445 107.084 303.125 107.644C302.818 108.191 302.665 108.844 302.665 109.604C302.665 110.364 302.818 111.031 303.125 111.604C303.445 112.177 303.858 112.617 304.365 112.924C304.885 113.217 305.432 113.364 306.005 113.364C306.592 113.364 307.138 113.217 307.645 112.924C308.152 112.631 308.558 112.204 308.865 111.644C309.185 111.071 309.345 110.404 309.345 109.644ZM318.675 108.184C318.675 106.824 318.988 105.604 319.615 104.524C320.255 103.444 321.115 102.604 322.195 102.004C323.288 101.391 324.482 101.084 325.775 101.084C327.255 101.084 328.568 101.451 329.715 102.184C330.875 102.904 331.715 103.931 332.235 105.264H329.495C329.135 104.531 328.635 103.984 327.995 103.624C327.355 103.264 326.615 103.084 325.775 103.084C324.855 103.084 324.035 103.291 323.315 103.704C322.595 104.117 322.028 104.711 321.615 105.484C321.215 106.257 321.015 107.157 321.015 108.184C321.015 109.211 321.215 110.111 321.615 110.884C322.028 111.657 322.595 112.257 323.315 112.684C324.035 113.097 324.855 113.304 325.775 113.304C326.615 113.304 327.355 113.124 327.995 112.764C328.635 112.404 329.135 111.857 329.495 111.124H332.235C331.715 112.457 330.875 113.484 329.715 114.204C328.568 114.924 327.255 115.284 325.775 115.284C324.468 115.284 323.275 114.984 322.195 114.384C321.115 113.771 320.255 112.924 319.615 111.844C318.988 110.764 318.675 109.544 318.675 108.184ZM344.684 104.144V115.164H342.404V113.864C342.044 114.317 341.571 114.677 340.984 114.944C340.411 115.197 339.797 115.324 339.144 115.324C338.277 115.324 337.497 115.144 336.804 114.784C336.124 114.424 335.584 113.891 335.184 113.184C334.797 112.477 334.604 111.624 334.604 110.624V104.144H336.864V110.284C336.864 111.271 337.111 112.031 337.604 112.564C338.097 113.084 338.771 113.344 339.624 113.344C340.477 113.344 341.151 113.084 341.644 112.564C342.151 112.031 342.404 111.271 342.404 110.284V104.144H344.684ZM351.492 115.344C350.626 115.344 349.846 115.191 349.152 114.884C348.472 114.564 347.932 114.137 347.532 113.604C347.132 113.057 346.919 112.451 346.892 111.784H349.252C349.292 112.251 349.512 112.644 349.912 112.964C350.326 113.271 350.839 113.424 351.452 113.424C352.092 113.424 352.586 113.304 352.932 113.064C353.292 112.811 353.472 112.491 353.472 112.104C353.472 111.691 353.272 111.384 352.872 111.184C352.486 110.984 351.866 110.764 351.012 110.524C350.186 110.297 349.512 110.077 348.992 109.864C348.472 109.651 348.019 109.324 347.632 108.884C347.259 108.444 347.072 107.864 347.072 107.144C347.072 106.557 347.246 106.024 347.592 105.544C347.939 105.051 348.432 104.664 349.072 104.384C349.726 104.104 350.472 103.964 351.312 103.964C352.566 103.964 353.572 104.284 354.332 104.924C355.106 105.551 355.519 106.411 355.572 107.504H353.292C353.252 107.011 353.052 106.617 352.692 106.324C352.332 106.031 351.846 105.884 351.232 105.884C350.632 105.884 350.172 105.997 349.852 106.224C349.532 106.451 349.372 106.751 349.372 107.124C349.372 107.417 349.479 107.664 349.692 107.864C349.906 108.064 350.166 108.224 350.472 108.344C350.779 108.451 351.232 108.591 351.832 108.764C352.632 108.977 353.286 109.197 353.792 109.424C354.312 109.637 354.759 109.957 355.132 110.384C355.506 110.811 355.699 111.377 355.712 112.084C355.712 112.711 355.539 113.271 355.192 113.764C354.846 114.257 354.352 114.644 353.712 114.924C353.086 115.204 352.346 115.344 351.492 115.344ZM360.636 106.004V112.104C360.636 112.517 360.729 112.817 360.916 113.004C361.116 113.177 361.449 113.264 361.916 113.264H363.316V115.164H361.516C360.489 115.164 359.702 114.924 359.156 114.444C358.609 113.964 358.336 113.184 358.336 112.104V106.004H357.036V104.144H358.336V101.404H360.636V104.144H363.316V106.004H360.636ZM369.997 115.344C368.957 115.344 368.017 115.111 367.177 114.644C366.337 114.164 365.677 113.497 365.197 112.644C364.717 111.777 364.477 110.777 364.477 109.644C364.477 108.524 364.724 107.531 365.217 106.664C365.711 105.797 366.384 105.131 367.237 104.664C368.091 104.197 369.044 103.964 370.097 103.964C371.151 103.964 372.104 104.197 372.957 104.664C373.811 105.131 374.484 105.797 374.977 106.664C375.471 107.531 375.717 108.524 375.717 109.644C375.717 110.764 375.464 111.757 374.957 112.624C374.451 113.491 373.757 114.164 372.877 114.644C372.011 115.111 371.051 115.344 369.997 115.344ZM369.997 113.364C370.584 113.364 371.131 113.224 371.637 112.944C372.157 112.664 372.577 112.244 372.897 111.684C373.217 111.124 373.377 110.444 373.377 109.644C373.377 108.844 373.224 108.171 372.917 107.624C372.611 107.064 372.204 106.644 371.697 106.364C371.191 106.084 370.644 105.944 370.057 105.944C369.471 105.944 368.924 106.084 368.417 106.364C367.924 106.644 367.531 107.064 367.237 107.624C366.944 108.171 366.797 108.844 366.797 109.644C366.797 110.831 367.097 111.751 367.697 112.404C368.311 113.044 369.077 113.364 369.997 113.364ZM391.111 103.964C391.978 103.964 392.751 104.144 393.431 104.504C394.124 104.864 394.664 105.397 395.051 106.104C395.451 106.811 395.651 107.664 395.651 108.664V115.164H393.391V109.004C393.391 108.017 393.144 107.264 392.651 106.744C392.158 106.211 391.484 105.944 390.631 105.944C389.778 105.944 389.098 106.211 388.591 106.744C388.098 107.264 387.851 108.017 387.851 109.004V115.164H385.591V109.004C385.591 108.017 385.344 107.264 384.851 106.744C384.358 106.211 383.684 105.944 382.831 105.944C381.978 105.944 381.298 106.211 380.791 106.744C380.298 107.264 380.051 108.017 380.051 109.004V115.164H377.771V104.144H380.051V105.404C380.424 104.951 380.898 104.597 381.471 104.344C382.044 104.091 382.658 103.964 383.311 103.964C384.191 103.964 384.978 104.151 385.671 104.524C386.364 104.897 386.898 105.437 387.271 106.144C387.604 105.477 388.124 104.951 388.831 104.564C389.538 104.164 390.298 103.964 391.111 103.964ZM408.452 109.384C408.452 109.797 408.426 110.171 408.372 110.504H399.952C400.019 111.384 400.346 112.091 400.932 112.624C401.519 113.157 402.239 113.424 403.092 113.424C404.319 113.424 405.186 112.911 405.692 111.884H408.152C407.819 112.897 407.212 113.731 406.332 114.384C405.466 115.024 404.386 115.344 403.092 115.344C402.039 115.344 401.092 115.111 400.252 114.644C399.426 114.164 398.772 113.497 398.292 112.644C397.826 111.777 397.592 110.777 397.592 109.644C397.592 108.511 397.819 107.517 398.272 106.664C398.739 105.797 399.386 105.131 400.212 104.664C401.052 104.197 402.012 103.964 403.092 103.964C404.132 103.964 405.059 104.191 405.872 104.644C406.686 105.097 407.319 105.737 407.772 106.564C408.226 107.377 408.452 108.317 408.452 109.384ZM406.072 108.664C406.059 107.824 405.759 107.151 405.172 106.644C404.586 106.137 403.859 105.884 402.992 105.884C402.206 105.884 401.532 106.137 400.972 106.644C400.412 107.137 400.079 107.811 399.972 108.664H406.072ZM412.776 105.744C413.109 105.184 413.549 104.751 414.096 104.444C414.656 104.124 415.316 103.964 416.076 103.964V106.324H415.496C414.603 106.324 413.923 106.551 413.456 107.004C413.003 107.457 412.776 108.244 412.776 109.364V115.164H410.496V104.144H412.776V105.744ZM422.207 108.184C422.207 106.824 422.521 105.604 423.147 104.524C423.787 103.444 424.647 102.604 425.727 102.004C426.821 101.391 428.014 101.084 429.307 101.084C430.787 101.084 432.101 101.451 433.247 102.184C434.407 102.904 435.247 103.931 435.767 105.264H433.027C432.667 104.531 432.167 103.984 431.527 103.624C430.887 103.264 430.147 103.084 429.307 103.084C428.387 103.084 427.567 103.291 426.847 103.704C426.127 104.117 425.561 104.711 425.147 105.484C424.747 106.257 424.547 107.157 424.547 108.184C424.547 109.211 424.747 110.111 425.147 110.884C425.561 111.657 426.127 112.257 426.847 112.684C427.567 113.097 428.387 113.304 429.307 113.304C430.147 113.304 430.887 113.124 431.527 112.764C432.167 112.404 432.667 111.857 433.027 111.124H435.767C435.247 112.457 434.407 113.484 433.247 114.204C432.101 114.924 430.787 115.284 429.307 115.284C428.001 115.284 426.807 114.984 425.727 114.384C424.647 113.771 423.787 112.924 423.147 111.844C422.521 110.764 422.207 109.544 422.207 108.184ZM443.936 103.964C444.776 103.964 445.523 104.144 446.176 104.504C446.843 104.864 447.363 105.397 447.736 106.104C448.123 106.811 448.316 107.664 448.316 108.664V115.164H446.056V109.004C446.056 108.017 445.809 107.264 445.316 106.744C444.823 106.211 444.149 105.944 443.296 105.944C442.443 105.944 441.763 106.211 441.256 106.744C440.763 107.264 440.516 108.017 440.516 109.004V115.164H438.236V100.364H440.516V105.424C440.903 104.957 441.389 104.597 441.976 104.344C442.576 104.091 443.229 103.964 443.936 103.964ZM461.004 104.144V115.164H458.724V113.864C458.364 114.317 457.891 114.677 457.304 114.944C456.731 115.197 456.118 115.324 455.464 115.324C454.598 115.324 453.818 115.144 453.124 114.784C452.444 114.424 451.904 113.891 451.504 113.184C451.118 112.477 450.924 111.624 450.924 110.624V104.144H453.184V110.284C453.184 111.271 453.431 112.031 453.924 112.564C454.418 113.084 455.091 113.344 455.944 113.344C456.798 113.344 457.471 113.084 457.964 112.564C458.471 112.031 458.724 111.271 458.724 110.284V104.144H461.004ZM466.093 105.744C466.426 105.184 466.866 104.751 467.413 104.444C467.973 104.124 468.633 103.964 469.393 103.964V106.324H468.813C467.919 106.324 467.239 106.551 466.773 107.004C466.319 107.457 466.093 108.244 466.093 109.364V115.164H463.813V104.144H466.093V105.744ZM476.848 103.964C477.715 103.964 478.488 104.144 479.168 104.504C479.862 104.864 480.402 105.397 480.788 106.104C481.175 106.811 481.368 107.664 481.368 108.664V115.164H479.108V109.004C479.108 108.017 478.862 107.264 478.368 106.744C477.875 106.211 477.202 105.944 476.348 105.944C475.495 105.944 474.815 106.211 474.308 106.744C473.815 107.264 473.568 108.017 473.568 109.004V115.164H471.288V104.144H473.568V105.404C473.942 104.951 474.415 104.597 474.988 104.344C475.575 104.091 476.195 103.964 476.848 103.964ZM493.692 106.004H491.652V115.164H489.352V106.004H488.052V104.144H489.352V103.364C489.352 102.097 489.685 101.177 490.352 100.604C491.032 100.017 492.092 99.7241 493.532 99.7241V101.624C492.839 101.624 492.352 101.757 492.072 102.024C491.792 102.277 491.652 102.724 491.652 103.364V104.144H493.692V106.004ZM500.293 115.344C499.253 115.344 498.313 115.111 497.473 114.644C496.633 114.164 495.973 113.497 495.493 112.644C495.013 111.777 494.773 110.777 494.773 109.644C494.773 108.524 495.019 107.531 495.513 106.664C496.006 105.797 496.679 105.131 497.533 104.664C498.386 104.197 499.339 103.964 500.393 103.964C501.446 103.964 502.399 104.197 503.253 104.664C504.106 105.131 504.779 105.797 505.273 106.664C505.766 107.531 506.013 108.524 506.013 109.644C506.013 110.764 505.759 111.757 505.253 112.624C504.746 113.491 504.053 114.164 503.173 114.644C502.306 115.111 501.346 115.344 500.293 115.344ZM500.293 113.364C500.879 113.364 501.426 113.224 501.933 112.944C502.453 112.664 502.873 112.244 503.193 111.684C503.513 111.124 503.673 110.444 503.673 109.644C503.673 108.844 503.519 108.171 503.213 107.624C502.906 107.064 502.499 106.644 501.993 106.364C501.486 106.084 500.939 105.944 500.353 105.944C499.766 105.944 499.219 106.084 498.713 106.364C498.219 106.644 497.826 107.064 497.533 107.624C497.239 108.171 497.093 108.844 497.093 109.644C497.093 110.831 497.393 111.751 497.993 112.404C498.606 113.044 499.373 113.364 500.293 113.364ZM510.346 105.744C510.68 105.184 511.12 104.751 511.666 104.444C512.226 104.124 512.886 103.964 513.646 103.964V106.324H513.066C512.173 106.324 511.493 106.551 511.026 107.004C510.573 107.457 510.346 108.244 510.346 109.364V115.164H508.066V104.144H510.346V105.744ZM519.778 109.604C519.778 108.497 520.004 107.517 520.458 106.664C520.924 105.811 521.551 105.151 522.338 104.684C523.138 104.204 524.018 103.964 524.978 103.964C525.844 103.964 526.598 104.137 527.238 104.484C527.891 104.817 528.411 105.237 528.798 105.744V104.144H531.098V115.164H528.798V113.524C528.411 114.044 527.884 114.477 527.218 114.824C526.551 115.171 525.791 115.344 524.938 115.344C523.991 115.344 523.124 115.104 522.338 114.624C521.551 114.131 520.924 113.451 520.458 112.584C520.004 111.704 519.778 110.711 519.778 109.604ZM528.798 109.644C528.798 108.884 528.638 108.224 528.318 107.664C528.011 107.104 527.604 106.677 527.098 106.384C526.591 106.091 526.044 105.944 525.458 105.944C524.871 105.944 524.324 106.091 523.818 106.384C523.311 106.664 522.898 107.084 522.578 107.644C522.271 108.191 522.118 108.844 522.118 109.604C522.118 110.364 522.271 111.031 522.578 111.604C522.898 112.177 523.311 112.617 523.818 112.924C524.338 113.217 524.884 113.364 525.458 113.364C526.044 113.364 526.591 113.217 527.098 112.924C527.604 112.631 528.011 112.204 528.318 111.644C528.638 111.071 528.798 110.404 528.798 109.644ZM100.789 137.264V139.124H97.0886V151.164H94.8086V139.124H91.0886V137.264H100.789ZM112.998 145.384C112.998 145.797 112.971 146.171 112.918 146.504H104.498C104.564 147.384 104.891 148.091 105.478 148.624C106.064 149.157 106.784 149.424 107.638 149.424C108.864 149.424 109.731 148.911 110.238 147.884H112.698C112.364 148.897 111.758 149.731 110.878 150.384C110.011 151.024 108.931 151.344 107.638 151.344C106.584 151.344 105.638 151.111 104.798 150.644C103.971 150.164 103.318 149.497 102.838 148.644C102.371 147.777 102.138 146.777 102.138 145.644C102.138 144.511 102.364 143.517 102.818 142.664C103.284 141.797 103.931 141.131 104.758 140.664C105.598 140.197 106.558 139.964 107.638 139.964C108.678 139.964 109.604 140.191 110.418 140.644C111.231 141.097 111.864 141.737 112.318 142.564C112.771 143.377 112.998 144.317 112.998 145.384ZM110.618 144.664C110.604 143.824 110.304 143.151 109.718 142.644C109.131 142.137 108.404 141.884 107.538 141.884C106.751 141.884 106.078 142.137 105.518 142.644C104.958 143.137 104.624 143.811 104.518 144.664H110.618ZM117.321 136.364V151.164H115.041V136.364H117.321ZM130.215 145.384C130.215 145.797 130.188 146.171 130.135 146.504H121.715C121.782 147.384 122.108 148.091 122.695 148.624C123.282 149.157 124.002 149.424 124.855 149.424C126.082 149.424 126.948 148.911 127.455 147.884H129.915C129.582 148.897 128.975 149.731 128.095 150.384C127.228 151.024 126.148 151.344 124.855 151.344C123.802 151.344 122.855 151.111 122.015 150.644C121.188 150.164 120.535 149.497 120.055 148.644C119.588 147.777 119.355 146.777 119.355 145.644C119.355 144.511 119.582 143.517 120.035 142.664C120.502 141.797 121.148 141.131 121.975 140.664C122.815 140.197 123.775 139.964 124.855 139.964C125.895 139.964 126.822 140.191 127.635 140.644C128.448 141.097 129.082 141.737 129.535 142.564C129.988 143.377 130.215 144.317 130.215 145.384ZM127.835 144.664C127.822 143.824 127.522 143.151 126.935 142.644C126.348 142.137 125.622 141.884 124.755 141.884C123.968 141.884 123.295 142.137 122.735 142.644C122.175 143.137 121.842 143.811 121.735 144.664H127.835ZM131.499 145.644C131.499 144.511 131.725 143.517 132.179 142.664C132.645 141.797 133.285 141.131 134.099 140.664C134.912 140.197 135.845 139.964 136.899 139.964C138.232 139.964 139.332 140.284 140.199 140.924C141.079 141.551 141.672 142.451 141.979 143.624H139.519C139.319 143.077 138.999 142.651 138.559 142.344C138.119 142.037 137.565 141.884 136.899 141.884C135.965 141.884 135.219 142.217 134.659 142.884C134.112 143.537 133.839 144.457 133.839 145.644C133.839 146.831 134.112 147.757 134.659 148.424C135.219 149.091 135.965 149.424 136.899 149.424C138.219 149.424 139.092 148.844 139.519 147.684H141.979C141.659 148.804 141.059 149.697 140.179 150.364C139.299 151.017 138.205 151.344 136.899 151.344C135.845 151.344 134.912 151.111 134.099 150.644C133.285 150.164 132.645 149.497 132.179 148.644C131.725 147.777 131.499 146.777 131.499 145.644ZM148.831 151.344C147.791 151.344 146.851 151.111 146.011 150.644C145.171 150.164 144.511 149.497 144.031 148.644C143.551 147.777 143.311 146.777 143.311 145.644C143.311 144.524 143.557 143.531 144.051 142.664C144.544 141.797 145.217 141.131 146.071 140.664C146.924 140.197 147.877 139.964 148.931 139.964C149.984 139.964 150.937 140.197 151.791 140.664C152.644 141.131 153.317 141.797 153.811 142.664C154.304 143.531 154.551 144.524 154.551 145.644C154.551 146.764 154.297 147.757 153.791 148.624C153.284 149.491 152.591 150.164 151.711 150.644C150.844 151.111 149.884 151.344 148.831 151.344ZM148.831 149.364C149.417 149.364 149.964 149.224 150.471 148.944C150.991 148.664 151.411 148.244 151.731 147.684C152.051 147.124 152.211 146.444 152.211 145.644C152.211 144.844 152.057 144.171 151.751 143.624C151.444 143.064 151.037 142.644 150.531 142.364C150.024 142.084 149.477 141.944 148.891 141.944C148.304 141.944 147.757 142.084 147.251 142.364C146.757 142.644 146.364 143.064 146.071 143.624C145.777 144.171 145.631 144.844 145.631 145.644C145.631 146.831 145.931 147.751 146.531 148.404C147.144 149.044 147.911 149.364 148.831 149.364ZM169.945 139.964C170.811 139.964 171.585 140.144 172.265 140.504C172.958 140.864 173.498 141.397 173.885 142.104C174.285 142.811 174.485 143.664 174.485 144.664V151.164H172.225V145.004C172.225 144.017 171.978 143.264 171.485 142.744C170.991 142.211 170.318 141.944 169.465 141.944C168.611 141.944 167.931 142.211 167.425 142.744C166.931 143.264 166.685 144.017 166.685 145.004V151.164H164.425V145.004C164.425 144.017 164.178 143.264 163.685 142.744C163.191 142.211 162.518 141.944 161.665 141.944C160.811 141.944 160.131 142.211 159.625 142.744C159.131 143.264 158.885 144.017 158.885 145.004V151.164H156.605V140.144H158.885V141.404C159.258 140.951 159.731 140.597 160.305 140.344C160.878 140.091 161.491 139.964 162.145 139.964C163.025 139.964 163.811 140.151 164.505 140.524C165.198 140.897 165.731 141.437 166.105 142.144C166.438 141.477 166.958 140.951 167.665 140.564C168.371 140.164 169.131 139.964 169.945 139.964ZM190.526 139.964C191.393 139.964 192.166 140.144 192.846 140.504C193.539 140.864 194.079 141.397 194.466 142.104C194.866 142.811 195.066 143.664 195.066 144.664V151.164H192.806V145.004C192.806 144.017 192.559 143.264 192.066 142.744C191.573 142.211 190.899 141.944 190.046 141.944C189.193 141.944 188.513 142.211 188.006 142.744C187.513 143.264 187.266 144.017 187.266 145.004V151.164H185.006V145.004C185.006 144.017 184.759 143.264 184.266 142.744C183.773 142.211 183.099 141.944 182.246 141.944C181.393 141.944 180.713 142.211 180.206 142.744C179.713 143.264 179.466 144.017 179.466 145.004V151.164H177.186V140.144H179.466V141.404C179.839 140.951 180.313 140.597 180.886 140.344C181.459 140.091 182.073 139.964 182.726 139.964C183.606 139.964 184.393 140.151 185.086 140.524C185.779 140.897 186.313 141.437 186.686 142.144C187.019 141.477 187.539 140.951 188.246 140.564C188.953 140.164 189.713 139.964 190.526 139.964ZM207.747 140.144V151.164H205.467V149.864C205.107 150.317 204.634 150.677 204.047 150.944C203.474 151.197 202.861 151.324 202.207 151.324C201.341 151.324 200.561 151.144 199.867 150.784C199.187 150.424 198.647 149.891 198.247 149.184C197.861 148.477 197.667 147.624 197.667 146.624V140.144H199.927V146.284C199.927 147.271 200.174 148.031 200.667 148.564C201.161 149.084 201.834 149.344 202.687 149.344C203.541 149.344 204.214 149.084 204.707 148.564C205.214 148.031 205.467 147.271 205.467 146.284V140.144H207.747ZM216.115 139.964C216.982 139.964 217.755 140.144 218.435 140.504C219.129 140.864 219.669 141.397 220.055 142.104C220.442 142.811 220.635 143.664 220.635 144.664V151.164H218.375V145.004C218.375 144.017 218.129 143.264 217.635 142.744C217.142 142.211 216.469 141.944 215.615 141.944C214.762 141.944 214.082 142.211 213.575 142.744C213.082 143.264 212.835 144.017 212.835 145.004V151.164H210.555V140.144H212.835V141.404C213.209 140.951 213.682 140.597 214.255 140.344C214.842 140.091 215.462 139.964 216.115 139.964ZM224.504 138.684C224.09 138.684 223.744 138.544 223.464 138.264C223.184 137.984 223.044 137.637 223.044 137.224C223.044 136.811 223.184 136.464 223.464 136.184C223.744 135.904 224.09 135.764 224.504 135.764C224.904 135.764 225.244 135.904 225.524 136.184C225.804 136.464 225.944 136.811 225.944 137.224C225.944 137.637 225.804 137.984 225.524 138.264C225.244 138.544 224.904 138.684 224.504 138.684ZM225.624 140.144V151.164H223.344V140.144H225.624ZM227.657 145.644C227.657 144.511 227.884 143.517 228.337 142.664C228.804 141.797 229.444 141.131 230.257 140.664C231.071 140.197 232.004 139.964 233.057 139.964C234.391 139.964 235.491 140.284 236.357 140.924C237.237 141.551 237.831 142.451 238.137 143.624H235.677C235.477 143.077 235.157 142.651 234.717 142.344C234.277 142.037 233.724 141.884 233.057 141.884C232.124 141.884 231.377 142.217 230.817 142.884C230.271 143.537 229.997 144.457 229.997 145.644C229.997 146.831 230.271 147.757 230.817 148.424C231.377 149.091 232.124 149.424 233.057 149.424C234.377 149.424 235.251 148.844 235.677 147.684H238.137C237.817 148.804 237.217 149.697 236.337 150.364C235.457 151.017 234.364 151.344 233.057 151.344C232.004 151.344 231.071 151.111 230.257 150.644C229.444 150.164 228.804 149.497 228.337 148.644C227.884 147.777 227.657 146.777 227.657 145.644ZM239.449 145.604C239.449 144.497 239.676 143.517 240.129 142.664C240.596 141.811 241.223 141.151 242.009 140.684C242.809 140.204 243.689 139.964 244.649 139.964C245.516 139.964 246.269 140.137 246.909 140.484C247.563 140.817 248.083 141.237 248.469 141.744V140.144H250.769V151.164H248.469V149.524C248.083 150.044 247.556 150.477 246.889 150.824C246.223 151.171 245.463 151.344 244.609 151.344C243.663 151.344 242.796 151.104 242.009 150.624C241.223 150.131 240.596 149.451 240.129 148.584C239.676 147.704 239.449 146.711 239.449 145.604ZM248.469 145.644C248.469 144.884 248.309 144.224 247.989 143.664C247.683 143.104 247.276 142.677 246.769 142.384C246.263 142.091 245.716 141.944 245.129 141.944C244.543 141.944 243.996 142.091 243.489 142.384C242.983 142.664 242.569 143.084 242.249 143.644C241.943 144.191 241.789 144.844 241.789 145.604C241.789 146.364 241.943 147.031 242.249 147.604C242.569 148.177 242.983 148.617 243.489 148.924C244.009 149.217 244.556 149.364 245.129 149.364C245.716 149.364 246.263 149.217 246.769 148.924C247.276 148.631 247.683 148.204 247.989 147.644C248.309 147.071 248.469 146.404 248.469 145.644ZM256.224 142.004V148.104C256.224 148.517 256.317 148.817 256.504 149.004C256.704 149.177 257.037 149.264 257.504 149.264H258.904V151.164H257.104C256.077 151.164 255.291 150.924 254.744 150.444C254.197 149.964 253.924 149.184 253.924 148.104V142.004H252.624V140.144H253.924V137.404H256.224V140.144H258.904V142.004H256.224ZM261.965 138.684C261.552 138.684 261.205 138.544 260.925 138.264C260.645 137.984 260.505 137.637 260.505 137.224C260.505 136.811 260.645 136.464 260.925 136.184C261.205 135.904 261.552 135.764 261.965 135.764C262.365 135.764 262.705 135.904 262.985 136.184C263.265 136.464 263.405 136.811 263.405 137.224C263.405 137.637 263.265 137.984 262.985 138.264C262.705 138.544 262.365 138.684 261.965 138.684ZM263.085 140.144V151.164H260.805V140.144H263.085ZM270.659 151.344C269.619 151.344 268.679 151.111 267.839 150.644C266.999 150.164 266.339 149.497 265.859 148.644C265.379 147.777 265.139 146.777 265.139 145.644C265.139 144.524 265.386 143.531 265.879 142.664C266.372 141.797 267.046 141.131 267.899 140.664C268.752 140.197 269.706 139.964 270.759 139.964C271.812 139.964 272.766 140.197 273.619 140.664C274.472 141.131 275.146 141.797 275.639 142.664C276.132 143.531 276.379 144.524 276.379 145.644C276.379 146.764 276.126 147.757 275.619 148.624C275.112 149.491 274.419 150.164 273.539 150.644C272.672 151.111 271.712 151.344 270.659 151.344ZM270.659 149.364C271.246 149.364 271.792 149.224 272.299 148.944C272.819 148.664 273.239 148.244 273.559 147.684C273.879 147.124 274.039 146.444 274.039 145.644C274.039 144.844 273.886 144.171 273.579 143.624C273.272 143.064 272.866 142.644 272.359 142.364C271.852 142.084 271.306 141.944 270.719 141.944C270.132 141.944 269.586 142.084 269.079 142.364C268.586 142.644 268.192 143.064 267.899 143.624C267.606 144.171 267.459 144.844 267.459 145.644C267.459 146.831 267.759 147.751 268.359 148.404C268.972 149.044 269.739 149.364 270.659 149.364ZM283.993 139.964C284.859 139.964 285.633 140.144 286.313 140.504C287.006 140.864 287.546 141.397 287.933 142.104C288.319 142.811 288.513 143.664 288.513 144.664V151.164H286.253V145.004C286.253 144.017 286.006 143.264 285.513 142.744C285.019 142.211 284.346 141.944 283.493 141.944C282.639 141.944 281.959 142.211 281.453 142.744C280.959 143.264 280.713 144.017 280.713 145.004V151.164H278.433V140.144H280.713V141.404C281.086 140.951 281.559 140.597 282.133 140.344C282.719 140.091 283.339 139.964 283.993 139.964ZM295.221 151.344C294.354 151.344 293.574 151.191 292.881 150.884C292.201 150.564 291.661 150.137 291.261 149.604C290.861 149.057 290.648 148.451 290.621 147.784H292.981C293.021 148.251 293.241 148.644 293.641 148.964C294.054 149.271 294.568 149.424 295.181 149.424C295.821 149.424 296.314 149.304 296.661 149.064C297.021 148.811 297.201 148.491 297.201 148.104C297.201 147.691 297.001 147.384 296.601 147.184C296.214 146.984 295.594 146.764 294.741 146.524C293.914 146.297 293.241 146.077 292.721 145.864C292.201 145.651 291.748 145.324 291.361 144.884C290.988 144.444 290.801 143.864 290.801 143.144C290.801 142.557 290.974 142.024 291.321 141.544C291.668 141.051 292.161 140.664 292.801 140.384C293.454 140.104 294.201 139.964 295.041 139.964C296.294 139.964 297.301 140.284 298.061 140.924C298.834 141.551 299.248 142.411 299.301 143.504H297.021C296.981 143.011 296.781 142.617 296.421 142.324C296.061 142.031 295.574 141.884 294.961 141.884C294.361 141.884 293.901 141.997 293.581 142.224C293.261 142.451 293.101 142.751 293.101 143.124C293.101 143.417 293.208 143.664 293.421 143.864C293.634 144.064 293.894 144.224 294.201 144.344C294.508 144.451 294.961 144.591 295.561 144.764C296.361 144.977 297.014 145.197 297.521 145.424C298.041 145.637 298.488 145.957 298.861 146.384C299.234 146.811 299.428 147.377 299.441 148.084C299.441 148.711 299.268 149.271 298.921 149.764C298.574 150.257 298.081 150.644 297.441 150.924C296.814 151.204 296.074 151.344 295.221 151.344ZM305.94 144.184C305.94 142.824 306.253 141.604 306.88 140.524C307.52 139.444 308.38 138.604 309.46 138.004C310.553 137.391 311.747 137.084 313.04 137.084C314.52 137.084 315.833 137.451 316.98 138.184C318.14 138.904 318.98 139.931 319.5 141.264H316.76C316.4 140.531 315.9 139.984 315.26 139.624C314.62 139.264 313.88 139.084 313.04 139.084C312.12 139.084 311.3 139.291 310.58 139.704C309.86 140.117 309.293 140.711 308.88 141.484C308.48 142.257 308.28 143.157 308.28 144.184C308.28 145.211 308.48 146.111 308.88 146.884C309.293 147.657 309.86 148.257 310.58 148.684C311.3 149.097 312.12 149.304 313.04 149.304C313.88 149.304 314.62 149.124 315.26 148.764C315.9 148.404 316.4 147.857 316.76 147.124H319.5C318.98 148.457 318.14 149.484 316.98 150.204C315.833 150.924 314.52 151.284 313.04 151.284C311.733 151.284 310.54 150.984 309.46 150.384C308.38 149.771 307.52 148.924 306.88 147.844C306.253 146.764 305.94 145.544 305.94 144.184ZM326.749 151.344C325.709 151.344 324.769 151.111 323.929 150.644C323.089 150.164 322.429 149.497 321.949 148.644C321.469 147.777 321.229 146.777 321.229 145.644C321.229 144.524 321.475 143.531 321.969 142.664C322.462 141.797 323.135 141.131 323.989 140.664C324.842 140.197 325.795 139.964 326.849 139.964C327.902 139.964 328.855 140.197 329.709 140.664C330.562 141.131 331.235 141.797 331.729 142.664C332.222 143.531 332.469 144.524 332.469 145.644C332.469 146.764 332.215 147.757 331.709 148.624C331.202 149.491 330.509 150.164 329.629 150.644C328.762 151.111 327.802 151.344 326.749 151.344ZM326.749 149.364C327.335 149.364 327.882 149.224 328.389 148.944C328.909 148.664 329.329 148.244 329.649 147.684C329.969 147.124 330.129 146.444 330.129 145.644C330.129 144.844 329.975 144.171 329.669 143.624C329.362 143.064 328.955 142.644 328.449 142.364C327.942 142.084 327.395 141.944 326.809 141.944C326.222 141.944 325.675 142.084 325.169 142.364C324.675 142.644 324.282 143.064 323.989 143.624C323.695 144.171 323.549 144.844 323.549 145.644C323.549 146.831 323.849 147.751 324.449 148.404C325.062 149.044 325.829 149.364 326.749 149.364ZM347.863 139.964C348.729 139.964 349.503 140.144 350.183 140.504C350.876 140.864 351.416 141.397 351.803 142.104C352.203 142.811 352.403 143.664 352.403 144.664V151.164H350.143V145.004C350.143 144.017 349.896 143.264 349.403 142.744C348.909 142.211 348.236 141.944 347.383 141.944C346.529 141.944 345.849 142.211 345.343 142.744C344.849 143.264 344.603 144.017 344.603 145.004V151.164H342.343V145.004C342.343 144.017 342.096 143.264 341.603 142.744C341.109 142.211 340.436 141.944 339.583 141.944C338.729 141.944 338.049 142.211 337.543 142.744C337.049 143.264 336.803 144.017 336.803 145.004V151.164H334.523V140.144H336.803V141.404C337.176 140.951 337.649 140.597 338.223 140.344C338.796 140.091 339.409 139.964 340.063 139.964C340.943 139.964 341.729 140.151 342.423 140.524C343.116 140.897 343.649 141.437 344.023 142.144C344.356 141.477 344.876 140.951 345.583 140.564C346.289 140.164 347.049 139.964 347.863 139.964ZM357.384 141.764C357.771 141.257 358.297 140.831 358.964 140.484C359.631 140.137 360.384 139.964 361.224 139.964C362.184 139.964 363.057 140.204 363.844 140.684C364.644 141.151 365.271 141.811 365.724 142.664C366.177 143.517 366.404 144.497 366.404 145.604C366.404 146.711 366.177 147.704 365.724 148.584C365.271 149.451 364.644 150.131 363.844 150.624C363.057 151.104 362.184 151.344 361.224 151.344C360.384 151.344 359.637 151.177 358.984 150.844C358.331 150.497 357.797 150.071 357.384 149.564V156.404H355.104V140.144H357.384V141.764ZM364.084 145.604C364.084 144.844 363.924 144.191 363.604 143.644C363.297 143.084 362.884 142.664 362.364 142.384C361.857 142.091 361.311 141.944 360.724 141.944C360.151 141.944 359.604 142.091 359.084 142.384C358.577 142.677 358.164 143.104 357.844 143.664C357.537 144.224 357.384 144.884 357.384 145.644C357.384 146.404 357.537 147.071 357.844 147.644C358.164 148.204 358.577 148.631 359.084 148.924C359.604 149.217 360.151 149.364 360.724 149.364C361.311 149.364 361.857 149.217 362.364 148.924C362.884 148.617 363.297 148.177 363.604 147.604C363.924 147.031 364.084 146.364 364.084 145.604ZM367.699 145.604C367.699 144.497 367.925 143.517 368.379 142.664C368.845 141.811 369.472 141.151 370.259 140.684C371.059 140.204 371.939 139.964 372.899 139.964C373.765 139.964 374.519 140.137 375.159 140.484C375.812 140.817 376.332 141.237 376.719 141.744V140.144H379.019V151.164H376.719V149.524C376.332 150.044 375.805 150.477 375.139 150.824C374.472 151.171 373.712 151.344 372.859 151.344C371.912 151.344 371.045 151.104 370.259 150.624C369.472 150.131 368.845 149.451 368.379 148.584C367.925 147.704 367.699 146.711 367.699 145.604ZM376.719 145.644C376.719 144.884 376.559 144.224 376.239 143.664C375.932 143.104 375.525 142.677 375.019 142.384C374.512 142.091 373.965 141.944 373.379 141.944C372.792 141.944 372.245 142.091 371.739 142.384C371.232 142.664 370.819 143.084 370.499 143.644C370.192 144.191 370.039 144.844 370.039 145.604C370.039 146.364 370.192 147.031 370.499 147.604C370.819 148.177 371.232 148.617 371.739 148.924C372.259 149.217 372.805 149.364 373.379 149.364C373.965 149.364 374.512 149.217 375.019 148.924C375.525 148.631 375.932 148.204 376.239 147.644C376.559 147.071 376.719 146.404 376.719 145.644ZM387.373 139.964C388.24 139.964 389.013 140.144 389.693 140.504C390.387 140.864 390.927 141.397 391.313 142.104C391.7 142.811 391.893 143.664 391.893 144.664V151.164H389.633V145.004C389.633 144.017 389.387 143.264 388.893 142.744C388.4 142.211 387.727 141.944 386.873 141.944C386.02 141.944 385.34 142.211 384.833 142.744C384.34 143.264 384.093 144.017 384.093 145.004V151.164H381.813V140.144H384.093V141.404C384.467 140.951 384.94 140.597 385.513 140.344C386.1 140.091 386.72 139.964 387.373 139.964ZM404.522 140.144L397.762 156.344H395.402L397.642 150.984L393.302 140.144H395.842L398.942 148.544L402.162 140.144H404.522Z" fill="#050505"/>
<path d="M192.636 233.237C192.263 228.835 195.53 224.964 199.932 224.591L279.721 217.837C284.123 217.465 287.994 220.732 288.367 225.134L289.011 232.74C289.383 237.142 286.116 241.014 281.714 241.386L241.82 244.763L217.887 246.789L205.921 247.802L199.937 248.308C198.033 248.469 196.287 249.431 195.134 250.955L194.236 252.142L192.636 233.237Z" fill="#B89FFF"/>
<path d="M221.759 238.854L219.565 235.692L218.524 235.78L218.806 239.104L217.443 239.219L216.739 230.909L219.609 230.666C220.247 230.612 220.794 230.678 221.252 230.864C221.717 231.05 222.073 231.321 222.32 231.677C222.575 232.033 222.722 232.442 222.761 232.904C222.807 233.446 222.689 233.954 222.408 234.427C222.134 234.892 221.677 235.232 221.037 235.447L223.385 238.716L221.759 238.854ZM218.432 234.692L219.939 234.564C220.449 234.521 220.821 234.361 221.054 234.084C221.296 233.807 221.398 233.453 221.362 233.023C221.326 232.592 221.17 232.268 220.894 232.051C220.618 231.825 220.221 231.734 219.703 231.778L218.197 231.906L218.432 234.692ZM230.744 234.613C230.765 234.86 230.767 235.085 230.752 235.287L225.718 235.713C225.803 236.235 226.034 236.641 226.412 236.931C226.789 237.22 227.233 237.343 227.743 237.3C228.477 237.238 228.969 236.887 229.22 236.247L230.691 236.123C230.543 236.746 230.222 237.274 229.729 237.71C229.243 238.136 228.614 238.382 227.841 238.447C227.211 238.501 226.633 238.409 226.107 238.173C225.589 237.928 225.164 237.562 224.834 237.076C224.511 236.582 224.321 235.996 224.264 235.318C224.207 234.64 224.292 234.035 224.52 233.502C224.755 232.96 225.108 232.529 225.578 232.208C226.057 231.887 226.619 231.698 227.265 231.644C227.887 231.591 228.452 231.68 228.961 231.91C229.47 232.14 229.881 232.49 230.194 232.961C230.507 233.425 230.69 233.975 230.744 234.613ZM229.284 234.303C229.234 233.801 229.02 233.414 228.644 233.141C228.268 232.868 227.82 232.753 227.302 232.797C226.832 232.837 226.442 233.022 226.133 233.353C225.823 233.677 225.658 234.096 225.637 234.612L229.284 234.303ZM233.265 232.22C233.471 231.897 233.764 231.616 234.145 231.375C234.526 231.134 234.967 230.992 235.47 230.949C236.044 230.901 236.578 231 237.073 231.247C237.574 231.486 237.982 231.849 238.297 232.336C238.611 232.823 238.796 233.398 238.852 234.059C238.908 234.721 238.823 235.326 238.596 235.875C238.369 236.416 238.029 236.855 237.576 237.19C237.13 237.517 236.62 237.704 236.046 237.753C235.543 237.796 235.089 237.734 234.681 237.567C234.273 237.393 233.932 237.165 233.66 236.883L234.006 240.973L232.643 241.088L231.82 231.367L233.183 231.251L233.265 232.22ZM237.465 234.177C237.427 233.722 237.298 233.34 237.079 233.029C236.867 232.71 236.599 232.48 236.274 232.338C235.956 232.189 235.622 232.129 235.271 232.158C234.928 232.187 234.609 232.303 234.313 232.504C234.025 232.705 233.799 232.981 233.636 233.332C233.481 233.683 233.423 234.085 233.461 234.54C233.5 234.994 233.625 235.385 233.838 235.712C234.057 236.031 234.326 236.265 234.644 236.414C234.969 236.564 235.304 236.624 235.646 236.595C235.997 236.565 236.317 236.45 236.605 236.248C236.9 236.039 237.125 235.755 237.279 235.397C237.442 235.038 237.503 234.631 237.465 234.177ZM241.096 228.305L241.845 237.154L240.481 237.269L239.732 228.421L241.096 228.305ZM242.898 233.717C242.842 233.055 242.928 232.458 243.156 231.925C243.392 231.391 243.733 230.964 244.18 230.646C244.634 230.318 245.148 230.13 245.722 230.082C246.24 230.038 246.699 230.103 247.099 230.278C247.507 230.444 247.839 230.669 248.096 230.952L248.015 229.996L249.39 229.879L249.948 236.468L248.573 236.584L248.49 235.604C248.285 235.934 247.992 236.22 247.611 236.461C247.23 236.702 246.784 236.844 246.274 236.887C245.708 236.935 245.178 236.836 244.683 236.588C244.188 236.333 243.779 235.958 243.456 235.464C243.14 234.961 242.954 234.378 242.898 233.717ZM248.293 233.284C248.255 232.83 248.126 232.443 247.906 232.125C247.694 231.805 247.43 231.571 247.112 231.421C246.794 231.271 246.46 231.211 246.109 231.241C245.758 231.271 245.439 231.386 245.151 231.587C244.862 231.78 244.636 232.052 244.473 232.403C244.318 232.745 244.259 233.144 244.297 233.598C244.336 234.053 244.461 234.443 244.674 234.771C244.894 235.097 245.163 235.339 245.482 235.497C245.808 235.646 246.142 235.706 246.485 235.677C246.835 235.647 247.155 235.532 247.443 235.331C247.731 235.13 247.952 234.854 248.107 234.504C248.27 234.145 248.332 233.738 248.293 233.284ZM251.004 233.055C250.947 232.377 251.032 231.772 251.26 231.239C251.495 230.697 251.844 230.266 252.307 229.946C252.769 229.626 253.316 229.439 253.945 229.385C254.742 229.318 255.416 229.454 255.967 229.792C256.525 230.123 256.925 230.631 257.168 231.317L255.697 231.441C255.55 231.124 255.337 230.885 255.058 230.724C254.78 230.563 254.441 230.5 254.042 230.533C253.484 230.581 253.055 230.818 252.754 231.245C252.46 231.663 252.343 232.227 252.403 232.936C252.463 233.646 252.674 234.186 253.034 234.557C253.403 234.927 253.866 235.088 254.424 235.041C255.213 234.974 255.706 234.584 255.902 233.868L257.373 233.744C257.238 234.43 256.925 234.994 256.433 235.437C255.94 235.872 255.302 236.123 254.521 236.189C253.891 236.242 253.322 236.15 252.812 235.912C252.301 235.667 251.885 235.3 251.563 234.814C251.248 234.319 251.062 233.732 251.004 233.055ZM264.654 231.743C264.674 231.99 264.677 232.214 264.662 232.416L259.628 232.842C259.713 233.365 259.944 233.771 260.322 234.06C260.699 234.35 261.143 234.473 261.653 234.429C262.387 234.367 262.879 234.016 263.13 233.377L264.601 233.253C264.453 233.875 264.132 234.404 263.639 234.839C263.153 235.266 262.524 235.512 261.751 235.577C261.121 235.631 260.543 235.539 260.017 235.302C259.499 235.057 259.074 234.692 258.744 234.206C258.421 233.711 258.231 233.125 258.174 232.448C258.117 231.77 258.202 231.165 258.43 230.632C258.665 230.09 259.018 229.659 259.488 229.338C259.967 229.016 260.529 228.828 261.175 228.774C261.797 228.721 262.362 228.81 262.871 229.039C263.38 229.269 263.791 229.62 264.104 230.091C264.417 230.554 264.6 231.105 264.654 231.743ZM263.194 231.433C263.144 230.931 262.93 230.544 262.554 230.271C262.178 229.997 261.73 229.883 261.212 229.927C260.742 229.966 260.352 230.152 260.043 230.483C259.733 230.806 259.568 231.226 259.547 231.741L263.194 231.433Z" fill="black"/>
<mask id="mask0_2919_10892" style="mask-type:alpha" maskUnits="userSpaceOnUse" x="164" y="244" width="59" height="58">
<rect x="164.961" y="256.688" width="46.2812" height="46.2812" transform="rotate(-15.7005 164.961 256.688)" fill="#D9D9D9"/>
</mask>
<g mask="url(#mask0_2919_10892)">
<path d="M195.888 292.063C195.022 292.307 194.157 292.349 193.295 292.191C192.432 292.033 191.643 291.688 190.925 291.155L177.194 281.143L177.815 279.967C178.251 279.143 178.885 278.548 179.716 278.18C180.548 277.813 181.4 277.757 182.273 278.012L186.295 279.136L182.016 263.913C181.868 263.387 181.922 262.896 182.178 262.44C182.433 261.984 182.824 261.682 183.35 261.534C183.876 261.387 184.375 261.438 184.846 261.69C185.318 261.941 185.627 262.33 185.775 262.856L191.933 284.762L186.648 283.243L193.21 288.059C193.456 288.223 193.721 288.332 194.003 288.387C194.285 288.441 194.566 288.429 194.844 288.35L205.101 285.467C206.122 285.18 206.894 284.571 207.417 283.639C207.94 282.708 208.057 281.732 207.77 280.711L205.683 273.285C205.535 272.759 205.233 272.368 204.777 272.112C204.322 271.856 203.831 271.802 203.305 271.95L193.141 274.807L192.097 271.095L202.261 268.237C203.808 267.803 205.275 267.974 206.663 268.753C208.05 269.531 208.961 270.694 209.396 272.241L211.483 279.667C212.057 281.709 211.822 283.662 210.776 285.525C209.731 287.388 208.187 288.606 206.145 289.18L195.888 292.063ZM177.148 270.289C176.554 269.721 176.038 269.073 175.6 268.345C175.161 267.617 174.825 266.835 174.59 266C173.868 263.432 174.158 260.989 175.459 258.67C176.76 256.351 178.695 254.831 181.263 254.109C183.831 253.387 186.274 253.677 188.593 254.978C190.912 256.279 192.432 258.214 193.154 260.782C193.389 261.617 193.509 262.46 193.514 263.31C193.52 264.159 193.417 264.981 193.206 265.775L189.482 264.819C189.607 264.316 189.669 263.823 189.667 263.34C189.664 262.856 189.589 262.351 189.441 261.825C189.007 260.278 188.095 259.116 186.708 258.337C185.321 257.559 183.854 257.387 182.307 257.822C180.76 258.256 179.597 259.168 178.818 260.555C178.04 261.942 177.868 263.409 178.303 264.956C178.451 265.482 178.65 265.952 178.899 266.366C179.149 266.78 179.459 267.169 179.828 267.532L177.148 270.289Z" fill="#1C1B1F"/>
</g>
<defs>
<filter id="filter0_d_2919_10892" x="0" y="0.742188" width="745.996" height="521.969" filterUnits="userSpaceOnUse" color-interpolation-filters="sRGB">
<feFlood flood-opacity="0" result="BackgroundImageFix"/>
<feColorMatrix in="SourceAlpha" type="matrix" values="0 0 0 0 0 0 0 0 0 0 0 0 0 0 0 0 0 0 127 0" result="hardAlpha"/>
<feOffset dx="20" dy="24"/>
<feGaussianBlur stdDeviation="42"/>
<feComposite in2="hardAlpha" operator="out"/>
<feColorMatrix type="matrix" values="0 0 0 0 0 0 0 0 0 0 0 0 0 0 0 0 0 0 0.15 0"/>
<feBlend mode="multiply" in2="BackgroundImageFix" result="effect1_dropShadow_2919_10892"/>
<feBlend mode="normal" in="SourceGraphic" in2="effect1_dropShadow_2919_10892" result="shape"/>
</filter>
</defs>
</svg>
