<svg width="222" height="270" viewBox="0 0 222 270" fill="none" xmlns="http://www.w3.org/2000/svg">
<rect x="1" y="1" width="220" height="268" rx="19" fill="#353535" stroke="url(#paint0_linear_2445_19951)" stroke-width="2" stroke-linecap="round" stroke-linejoin="round"/>
<path d="M125.059 99.664C128.54 93.2138 128.703 78.7138 128.624 73.0132V70.645C117.278 68.8579 105.722 68.8579 94.3761 70.645C94.3761 70.645 93.5004 91.5381 97.8817 99.664C100.724 104.933 105.589 108.735 108.662 110.758C108.355 110.851 108.126 111.133 108.126 111.473V112.54C108.126 112.953 108.464 113.29 108.88 113.29H109.546V123.327L107.68 126.521H105.578L101.749 130.391V136.695H99.8588V138.191H123.084V136.695H121.194V130.329L117.221 126.521H115.263L113.402 123.314H113.394V113.287H113.78C114.197 113.287 114.534 112.953 114.534 112.537V111.47C114.534 111.198 114.387 110.962 114.167 110.832C117.232 108.827 122.184 104.995 125.059 99.664Z" fill="url(#paint1_linear_2445_19951)"/>
<path d="M123.085 138.487H99.8592C99.6933 138.487 99.5573 138.354 99.5573 138.189V136.692C99.5573 136.527 99.6933 136.394 99.8592 136.394H101.447V130.389C101.447 130.31 101.477 130.234 101.534 130.177L105.364 126.307C105.421 126.25 105.497 126.217 105.579 126.217H107.507L109.245 123.243V113.586H108.88C108.298 113.586 107.825 113.116 107.825 112.537V111.47C107.825 111.196 107.931 110.94 108.11 110.753C104.73 108.472 100.3 104.789 97.6128 99.8054C95.7744 96.397 94.6185 90.4465 94.1807 82.1224C93.8543 75.9411 94.0692 70.6832 94.0719 70.6316C94.0773 70.4903 94.1834 70.3708 94.3275 70.3464C105.723 68.5512 117.276 68.5512 128.671 70.3464C128.817 70.3708 128.926 70.4958 128.926 70.6424V73.0107C129.008 78.9041 128.823 93.3199 125.326 99.8027C122.467 105.099 117.537 108.942 114.648 110.873C114.768 111.044 114.836 111.25 114.836 111.467V112.535C114.836 113.113 114.363 113.583 113.781 113.583H113.697V123.216L115.437 126.217H117.221C117.3 126.217 117.373 126.247 117.431 126.301L121.404 130.109C121.464 130.166 121.496 130.242 121.496 130.326V136.394H123.085C123.25 136.394 123.386 136.527 123.386 136.692V138.189C123.386 138.354 123.25 138.487 123.085 138.487ZM100.164 137.887H122.785V136.991H121.197C121.031 136.991 120.895 136.858 120.895 136.692V130.454L117.101 126.82H115.266C115.157 126.82 115.059 126.763 115.005 126.671L113.169 123.504C113.125 123.452 113.098 123.387 113.098 123.314V113.29C113.098 113.124 113.234 112.991 113.4 112.991H113.786C114.036 112.991 114.238 112.79 114.238 112.543V111.475C114.238 111.318 114.156 111.177 114.017 111.093C113.928 111.038 113.873 110.943 113.871 110.843C113.871 110.739 113.92 110.642 114.007 110.587C116.791 108.765 121.896 104.906 124.798 99.5284C128.23 93.1678 128.41 78.8742 128.328 73.0242V70.9086C117.161 69.1759 105.842 69.1759 94.6757 70.9086C94.5968 73.2768 94.1154 92.0407 98.1567 99.5284C100.887 104.591 105.472 108.298 108.839 110.514C108.937 110.579 108.989 110.693 108.973 110.807C108.956 110.921 108.875 111.016 108.763 111.052C108.573 111.109 108.442 111.28 108.442 111.478V112.546C108.442 112.793 108.644 112.994 108.894 112.994H109.56C109.726 112.994 109.862 113.127 109.862 113.292V123.33C109.862 123.385 109.848 123.436 109.821 123.482L107.955 126.676C107.901 126.769 107.803 126.826 107.694 126.826H105.72L102.065 130.519V136.7C102.065 136.866 101.929 136.999 101.763 136.999H100.175V137.895L100.164 137.887Z" fill="url(#paint2_linear_2445_19951)"/>
<path d="M138.18 72.3898C134.617 71.0129 131.019 72.474 129.624 75.8661C128.974 77.4467 128.974 79.1632 129.624 80.5727C130.22 81.8627 131.332 82.835 132.754 83.3103C133.187 83.4542 133.652 83.2234 133.796 82.7943C133.94 82.3652 133.709 81.9008 133.277 81.7568C132.398 81.4635 131.718 80.9339 131.288 80.2115C131.136 79.6629 131.076 79.1224 131.117 78.4842C131.133 78.2208 131.158 77.9546 131.231 77.702C131.68 76.1323 133.306 75.0649 134.903 75.1002C136.997 75.1464 138.177 76.7895 138.683 78.6526C139.238 80.7004 139.129 82.998 138.495 85.1028C137.299 87.5036 135.308 89.842 132.409 92.2808C131.985 92.6366 131.555 92.9869 131.12 93.3291C130.785 93.5926 130.435 93.8479 130.081 94.1032C128.675 95.1243 127.084 96.2786 126.293 98.1797C125.716 99.562 125.817 101.2 126.562 102.566C127.345 104.002 128.738 104.825 130.212 104.825C130.658 104.825 131.112 104.749 131.558 104.592C133.377 103.951 134.968 102.218 134.329 100.268C134.188 99.8391 133.723 99.6028 133.29 99.744C132.858 99.8852 132.621 100.347 132.763 100.776C133.13 101.898 131.74 102.791 131.008 103.049C129.866 103.448 128.634 102.93 128.009 101.784C127.5 100.849 127.427 99.7359 127.813 98.807C128.427 97.3296 129.703 96.4035 131.052 95.4258C131.422 95.1569 131.789 94.888 132.142 94.6137C132.591 94.2607 133.037 93.8995 133.472 93.5328C137.941 89.7741 140.407 86.181 141.237 82.224C141.628 80.3473 142.572 74.0872 138.177 72.3898H138.18Z" fill="url(#paint3_linear_2445_19951)"/>
<path d="M130.213 105.131C128.587 105.131 127.124 104.226 126.3 102.714C125.514 101.272 125.408 99.5334 126.017 98.0695C126.841 96.0924 128.47 94.9082 129.906 93.8653C130.259 93.6073 130.605 93.3575 130.937 93.0968C131.41 92.722 131.829 92.3825 132.218 92.0566C135.081 89.6476 137.045 87.3364 138.217 84.9953C138.851 82.8742 138.913 80.6527 138.394 78.7353C138.062 77.5131 137.167 75.4545 134.899 75.4029C133.373 75.3621 131.921 76.3915 131.524 77.7874C131.462 78.0047 131.437 78.2301 131.421 78.5071C131.383 79.0775 131.432 79.5717 131.57 80.0959C131.965 80.7368 132.587 81.2148 133.376 81.4756C133.964 81.6711 134.282 82.3066 134.086 82.8932C133.991 83.1757 133.79 83.4065 133.52 83.5396C133.251 83.6727 132.946 83.6944 132.661 83.5994C131.157 83.0969 129.982 82.0676 129.351 80.7015C128.666 79.216 128.666 77.4153 129.346 75.7587C130.803 72.209 134.565 70.6746 138.29 72.1167C142.903 73.8983 141.94 80.3539 141.535 82.2903C140.692 86.3152 138.193 89.9599 133.67 93.7649C133.246 94.1206 132.808 94.4764 132.332 94.8512C131.984 95.1255 131.627 95.3835 131.233 95.6714C129.92 96.6274 128.677 97.5263 128.095 98.9277C127.741 99.7751 127.809 100.791 128.277 101.646C128.829 102.659 129.914 103.121 130.912 102.771C131.527 102.553 132.778 101.777 132.481 100.872C132.389 100.587 132.413 100.286 132.549 100.019C132.685 99.7533 132.919 99.5551 133.205 99.4627C133.488 99.3704 133.792 99.3921 134.059 99.5279C134.328 99.6637 134.529 99.8946 134.622 100.18C135.321 102.312 133.618 104.194 131.663 104.878C131.192 105.044 130.706 105.128 130.216 105.128L130.213 105.131ZM134.826 74.8027C134.856 74.8027 134.886 74.8027 134.913 74.8027C136.857 74.8461 138.339 76.2231 138.976 78.5777C139.525 80.6092 139.457 82.9557 138.785 85.1909C138.78 85.2072 138.775 85.2235 138.766 85.237C137.559 87.6596 135.544 90.0414 132.604 92.5128C132.209 92.8442 131.785 93.1891 131.307 93.5666C130.969 93.83 130.618 94.088 130.262 94.3461C128.883 95.3482 127.328 96.478 126.569 98.3004C126.028 99.5985 126.123 101.144 126.825 102.428C127.543 103.746 128.81 104.531 130.208 104.531C130.629 104.531 131.048 104.457 131.453 104.316C133.14 103.724 134.619 102.138 134.04 100.367C133.996 100.234 133.904 100.128 133.779 100.063C133.654 100 133.515 99.9896 133.384 100.033C133.251 100.077 133.142 100.169 133.08 100.291C133.017 100.413 133.006 100.555 133.05 100.688C133.471 101.972 132.082 102.993 131.108 103.338C129.822 103.789 128.44 103.211 127.744 101.934C127.192 100.921 127.113 99.7099 127.534 98.6996C128.182 97.1461 129.49 96.1956 130.874 95.1907C131.241 94.9245 131.606 94.6584 131.954 94.3841C132.427 94.012 132.859 93.6617 133.278 93.3086C137.692 89.5933 140.126 86.0545 140.942 82.1681C141.323 80.3485 142.242 74.2867 138.07 72.6762C134.668 71.3617 131.23 72.7522 129.903 75.9868C129.286 77.4914 129.283 79.1209 129.898 80.4544C130.458 81.6684 131.505 82.5836 132.851 83.0318C132.985 83.0779 133.126 83.0671 133.251 83.0046C133.376 82.9421 133.469 82.8362 133.512 82.7058C133.605 82.4343 133.455 82.1409 133.183 82.0486C132.242 81.7363 131.497 81.1551 131.029 80.3702C131.016 80.3485 131.005 80.3213 130.999 80.2969C130.833 79.6967 130.776 79.1182 130.817 78.4718C130.833 78.2002 130.861 77.9096 130.942 77.6272C131.404 76.0058 133.063 74.8054 134.823 74.8054L134.826 74.8027Z" fill="url(#paint4_linear_2445_19951)"/>
<path d="M96.6062 98.1875C95.8148 96.2864 94.2211 95.1294 92.8178 94.111C92.4642 93.8557 92.1134 93.6004 91.7789 93.3369C91.3437 92.9947 90.914 92.6471 90.4898 92.2886C87.5907 89.8498 85.6 87.5114 84.4033 85.1106C83.7697 83.0058 83.6609 80.7082 84.2157 78.6604C84.7215 76.7973 85.9018 75.1542 87.9959 75.108C89.5923 75.0727 91.2186 76.1374 91.6674 77.7098C91.7408 77.9651 91.7653 78.2286 91.7816 78.492C91.8224 79.1302 91.7626 79.6707 91.6103 80.2193C91.1806 80.9417 90.4979 81.474 89.6222 81.7646C89.1898 81.9086 88.9587 82.373 89.1028 82.8021C89.2469 83.2312 89.712 83.4621 90.1444 83.3181C91.5695 82.8428 92.6818 81.8706 93.2747 80.5805C93.9246 79.171 93.9246 77.4546 93.2747 75.8739C91.8795 72.4818 88.2815 71.0207 84.7188 72.3976C80.3267 74.095 81.2676 80.3524 81.6593 82.2318C82.4887 86.1861 84.9554 89.7792 89.4237 93.5406C89.8616 93.9073 90.3049 94.2685 90.7536 94.6216C91.1044 94.8986 91.4716 95.1647 91.8442 95.4336C93.1931 96.414 94.4686 97.3401 95.0832 98.8149C95.4721 99.7437 95.3987 100.857 94.8874 101.791C94.2619 102.938 93.0299 103.456 91.8877 103.057C91.1561 102.799 89.7637 101.906 90.1335 100.784C90.2749 100.355 90.0383 99.893 89.6059 99.7518C89.1762 99.6106 88.7085 99.8469 88.567 100.276C87.9279 102.226 89.5189 103.959 91.3383 104.6C91.7843 104.757 92.2385 104.833 92.6845 104.833C94.1585 104.833 95.551 104.008 96.3342 102.574C97.0794 101.21 97.18 99.5699 96.6035 98.1875H96.6062Z" fill="url(#paint5_linear_2445_19951)"/>
<path d="M92.69 105.135C92.2005 105.135 91.7137 105.051 91.2432 104.885C89.2878 104.198 87.5881 102.318 88.2843 100.186C88.3767 99.9012 88.578 99.6704 88.8472 99.5346C89.1165 99.3988 89.4183 99.3771 89.7039 99.4694C89.9895 99.5618 90.2206 99.76 90.3566 100.026C90.4926 100.292 90.5171 100.596 90.4246 100.879C90.1282 101.783 91.3792 102.56 91.9938 102.777C92.9919 103.128 94.0743 102.663 94.6264 101.653C95.0941 100.797 95.1621 99.779 94.8086 98.9344C94.2266 97.5357 92.9837 96.634 91.6702 95.6781C91.2758 95.3929 90.9196 95.1322 90.5715 94.8579C90.0928 94.4831 89.655 94.1273 89.2334 93.7715C84.7107 89.9666 82.2114 86.3192 81.3683 82.297C80.9631 80.3606 80.0004 73.905 84.6128 72.1233C88.3359 70.6839 92.0971 72.2157 93.5576 75.7653C94.2375 77.422 94.2375 79.2253 93.5521 80.7082C92.9212 82.0743 91.7463 83.1036 90.2424 83.606C89.9568 83.7011 89.6522 83.6794 89.383 83.5463C89.1138 83.4132 88.9125 83.1851 88.8173 82.8999C88.6188 82.316 88.937 81.6805 89.5271 81.4849C90.3158 81.2215 90.9386 80.7462 91.3329 80.1053C91.4744 79.5811 91.5206 79.0868 91.4825 78.5165C91.4635 78.2395 91.439 78.0113 91.3792 77.7968C90.9821 76.4036 89.5299 75.3634 88.0042 75.415C85.7333 75.4666 84.8413 77.5252 84.5095 78.7473C83.99 80.6647 84.0526 82.8863 84.6862 85.0074C85.8584 87.3485 87.8219 89.657 90.6857 92.0687C91.0773 92.4 91.4988 92.7395 91.9693 93.1089C92.2957 93.3641 92.6356 93.614 92.9783 93.8639C94.4333 94.9203 96.0623 96.1045 96.8891 98.0816C97.4983 99.5455 97.3949 101.281 96.6062 102.726C95.7795 104.238 94.3163 105.143 92.6927 105.143L92.69 105.135ZM89.3504 100.013C89.2715 100.013 89.1899 100.032 89.1165 100.07C88.9914 100.132 88.8989 100.241 88.8554 100.374C88.2761 102.145 89.7556 103.731 91.4417 104.323C91.8469 104.467 92.2685 104.537 92.6873 104.537C94.0879 104.537 95.3525 103.752 96.0705 102.435C96.7721 101.151 96.8673 99.6052 96.3261 98.307C95.5646 96.4847 94.009 95.3549 92.6384 94.3581C92.2685 94.0893 91.9231 93.8367 91.5913 93.576C91.1154 93.2012 90.6911 92.8563 90.2941 92.5222C87.3569 90.0508 85.3417 87.6717 84.1315 85.2464C84.1233 85.2301 84.1179 85.2165 84.1124 85.2002C83.4407 82.9651 83.3727 80.6186 83.922 78.5871C84.5611 76.2325 86.0406 74.8555 87.9851 74.8121C89.7855 74.774 91.4825 75.9826 91.953 77.6311C92.0346 77.9136 92.0618 78.2042 92.0781 78.4758C92.1189 79.1221 92.0618 79.7033 91.8959 80.3008C91.8877 80.3253 91.8769 80.3524 91.866 80.3742C91.3982 81.159 90.6558 81.7375 89.7121 82.0526C89.4401 82.1449 89.2932 82.4382 89.383 82.7098C89.4265 82.8402 89.5217 82.9488 89.6441 83.0085C89.7665 83.0683 89.9106 83.0792 90.0439 83.0357C91.3901 82.5876 92.4371 81.6723 92.9973 80.4583C93.612 79.1249 93.612 77.4953 92.9919 75.9907C91.662 72.7561 88.2272 71.3656 84.8249 72.6801C80.6531 74.2906 81.5723 80.3524 81.953 82.1721C82.7662 86.0585 85.203 89.5972 89.6169 93.3125C90.0357 93.6629 90.4681 94.0159 90.9413 94.388C91.2813 94.6569 91.6321 94.9122 92.021 95.1946C93.4053 96.2022 94.7134 97.1501 95.3607 98.7063C95.7822 99.7193 95.7061 100.928 95.1513 101.941C94.455 103.217 93.0735 103.796 91.7871 103.345C90.8135 103.003 89.4238 101.982 89.8453 100.694C89.8888 100.564 89.878 100.423 89.8154 100.298C89.7529 100.173 89.6441 100.083 89.5108 100.04C89.4564 100.023 89.402 100.013 89.3476 100.013H89.3504Z" fill="url(#paint6_linear_2445_19951)"/>
<path d="M149.704 46.9576C152.725 49.7088 153.266 54.027 153.266 54.027C153.266 54.027 148.912 53.8831 145.891 51.1319C142.869 48.3807 142.328 44.0625 142.328 44.0625C142.328 44.0625 146.682 44.2064 149.704 46.9576Z" fill="url(#paint7_linear_2445_19951)"/>
<path d="M128.461 148.346C125.861 151.679 125.703 155.614 125.738 155.625C125.727 155.674 131.194 154.147 133.65 150.473C136.103 146.844 134.909 143.083 134.944 143.094C134.93 143.129 131.058 145.044 128.461 148.344V148.346Z" fill="url(#paint8_linear_2445_19951)"/>
<path d="M132.29 159.882C127.493 159.068 125.7 155.445 125.703 155.477C125.76 155.494 130.903 154.013 135.333 154.532C139.807 155.075 142.437 157.851 142.437 157.881C142.499 157.894 137.142 160.713 132.293 159.88L132.29 159.882Z" fill="url(#paint9_linear_2445_19951)"/>
<path d="M137.946 144.186C136.159 147.839 136.801 151.66 136.834 151.668C136.828 151.72 141.634 149.335 143.252 145.37C144.876 141.448 143.029 138.01 143.062 138.016C143.054 138.054 139.733 140.563 137.946 144.186Z" fill="url(#paint10_linear_2445_19951)"/>
<path d="M143.809 154.69C139.145 154.703 136.771 151.504 136.773 151.537C136.825 151.545 141.334 149.258 145.634 149.016C149.977 148.788 153.02 151.026 153.023 151.056C153.083 151.061 148.522 154.69 143.809 154.692V154.69Z" fill="url(#paint11_linear_2445_19951)"/>
<path d="M146.139 138.556C145.124 142.396 146.476 145.981 146.506 145.981C146.506 146.03 150.623 142.915 151.447 138.792C152.279 134.715 149.875 131.695 149.905 131.695C149.905 131.733 147.158 134.743 146.139 138.553V138.556Z" fill="url(#paint12_linear_2445_19951)"/>
<path d="M153.727 147.718C149.275 148.525 146.414 145.828 146.422 145.858C146.471 145.858 150.319 142.884 154.412 141.912C158.546 140.948 161.899 142.594 161.907 142.621C161.962 142.615 158.228 146.917 153.729 147.718H153.727Z" fill="url(#paint13_linear_2445_19951)"/>
<path d="M152.973 131.692C152.69 135.595 154.657 138.835 154.686 138.832C154.695 138.881 158.091 135.152 158.162 131.002C158.246 126.893 155.38 124.373 155.41 124.367C155.413 124.405 153.267 127.816 152.976 131.692H152.973Z" fill="url(#paint14_linear_2445_19951)"/>
<path d="M161.973 139.276C157.812 140.824 154.57 138.703 154.578 138.73C154.622 138.722 157.785 135.178 161.592 133.518C165.435 131.861 168.995 132.874 169.006 132.902C169.057 132.888 166.177 137.72 161.973 139.273V139.276Z" fill="url(#paint15_linear_2445_19951)"/>
<path d="M158.396 123.825C158.798 127.676 161.289 130.481 161.314 130.473C161.327 130.519 163.979 126.301 163.34 122.238C162.717 118.216 159.492 116.258 159.519 116.25C159.527 116.288 158.007 120.001 158.396 123.825Z" fill="url(#paint16_linear_2445_19951)"/>
<path d="M168.492 129.627C164.706 131.862 161.182 130.363 161.195 130.388C161.233 130.374 163.689 126.374 167.127 124.084C170.597 121.792 174.255 122.151 174.268 122.175C174.315 122.153 172.319 127.379 168.492 129.625V129.627Z" fill="url(#paint17_linear_2445_19951)"/>
<path d="M162.354 115.186C163.398 118.882 166.314 121.177 166.335 121.166C166.354 121.21 168.234 116.623 166.928 112.755C165.647 108.926 162.161 107.576 162.183 107.562C162.199 107.598 161.326 111.514 162.351 115.183L162.354 115.186Z" fill="url(#paint18_linear_2445_19951)"/>
<path d="M173.219 119.072C169.893 121.927 166.195 121.082 166.211 121.107C166.246 121.088 167.968 116.748 170.951 113.893C173.967 111.031 177.612 110.729 177.628 110.751C177.671 110.724 176.586 116.202 173.219 119.072Z" fill="url(#paint19_linear_2445_19951)"/>
<path d="M164.783 106.013C166.422 109.457 169.659 111.187 169.681 111.171C169.708 111.211 170.782 106.377 168.859 102.803C166.964 99.2615 163.322 98.5554 163.344 98.5391C163.366 98.5717 163.164 102.591 164.783 106.013Z" fill="url(#paint20_linear_2445_19951)"/>
<path d="M176.074 107.888C173.292 111.285 169.525 111.114 169.547 111.133C169.577 111.109 170.542 106.546 172.987 103.2C175.462 99.8408 178.979 98.8875 179 98.9065C179.038 98.8739 178.894 104.466 176.074 107.885V107.888Z" fill="url(#paint21_linear_2445_19951)"/>
<path d="M165.63 96.5412C167.813 99.6481 171.273 100.767 171.292 100.751C171.324 100.786 171.569 95.8296 169.075 92.6358C166.614 89.469 162.926 89.4202 162.945 89.3984C162.973 89.4283 163.47 93.4532 165.63 96.5412Z" fill="url(#paint22_linear_2445_19951)"/>
<path d="M176.997 96.3689C174.846 100.22 171.128 100.725 171.152 100.741C171.177 100.712 171.359 96.043 173.181 92.2924C175.031 88.5228 178.302 86.9448 178.327 86.9611C178.359 86.9231 179.183 92.4906 176.997 96.3689Z" fill="url(#paint23_linear_2445_19951)"/>
<path d="M164.832 87.0057C167.511 89.6998 171.087 90.186 171.104 90.1642C171.145 90.1941 170.527 85.2377 167.514 82.5028C164.539 79.7896 160.913 80.3926 160.93 80.3708C160.965 80.3953 162.183 84.3251 164.832 87.0057Z" fill="url(#paint24_linear_2445_19951)"/>
<path d="M175.923 84.7989C174.489 89.0085 170.935 90.1709 170.962 90.1844C170.984 90.1518 170.355 85.4914 171.468 81.4285C172.602 77.3438 175.509 75.182 175.536 75.1956C175.564 75.1521 177.386 80.5567 175.92 84.7989H175.923Z" fill="url(#paint25_linear_2445_19951)"/>
<path d="M162.336 77.6525C165.458 79.8686 169.04 79.7111 169.053 79.6894C169.1 79.7138 167.596 74.8796 164.115 72.6716C160.677 70.4799 157.229 71.7183 157.242 71.6939C157.283 71.7129 159.249 75.4472 162.336 77.6525Z" fill="url(#paint26_linear_2445_19951)"/>
<path d="M172.79 73.4661C172.167 77.9255 168.89 79.718 168.923 79.7261C168.939 79.6908 167.481 75.1553 167.789 70.886C168.118 66.5922 170.538 63.9062 170.571 63.9144C170.595 63.8682 173.44 68.9686 172.787 73.4661H172.79Z" fill="url(#paint27_linear_2445_19951)"/>
<path d="M158.086 68.6986C161.597 70.3797 165.075 69.5867 165.086 69.5623C165.141 69.5813 162.717 64.9942 158.823 63.3674C154.975 61.7514 151.817 63.5955 151.828 63.5683C151.877 63.5819 154.616 67.0202 158.086 68.6959V68.6986Z" fill="url(#paint28_linear_2445_19951)"/>
<path d="M167.529 62.6593C167.809 67.2518 164.932 69.6227 164.967 69.6282C164.978 69.5901 162.664 65.2936 162.079 60.9347C161.511 56.5486 163.322 53.4117 163.357 53.4144C163.376 53.3656 167.274 58.026 167.529 62.6565V62.6593Z" fill="url(#paint29_linear_2445_19951)"/>
<path d="M152.014 60.4026C155.86 61.5025 159.12 60.0957 159.126 60.0713C159.186 60.0821 155.819 55.8671 151.565 54.8731C147.364 53.8818 144.617 56.2799 144.625 56.2528C144.679 56.2582 148.215 59.3 152.014 60.4026Z" fill="url(#paint30_linear_2445_19951)"/>
<path d="M160.058 52.6695C161.333 57.2675 158.978 60.1572 159.019 60.1572C159.025 60.1192 155.829 56.1784 154.257 51.8521C152.699 47.4958 153.77 44.0005 153.811 44.0005C153.825 43.9489 158.804 48.0281 160.058 52.6695Z" fill="url(#paint31_linear_2445_19951)"/>
<path d="M110.36 156.828L110.436 155.986C117.428 156.619 124.398 155.839 131.151 153.675C137.732 151.565 143.824 148.232 149.261 143.773C160.542 134.517 167.817 121.307 169.745 106.576C171.325 94.515 170.515 83.7656 167.335 74.6294C163.922 64.817 157.847 57.142 149.272 51.8107L149.72 51.0938C158.461 56.5282 164.657 64.3553 168.135 74.3524C171.358 83.6135 172.179 94.4933 170.583 106.688C168.624 121.63 161.243 135.033 149.794 144.427C144.276 148.957 138.089 152.339 131.404 154.481C124.54 156.681 117.458 157.472 110.352 156.831L110.36 156.828Z" fill="url(#paint32_linear_2445_19951)"/>
<path d="M73.2971 46.9576C70.2756 49.7088 69.7344 54.027 69.7344 54.027C69.7344 54.027 74.0885 53.8831 77.1099 51.1319C80.1287 48.3807 80.6726 44.0625 80.6726 44.0625C80.6726 44.0625 76.3185 44.2064 73.2971 46.9576Z" fill="url(#paint33_linear_2445_19951)"/>
<path d="M94.5402 148.346C97.1401 151.679 97.2979 155.614 97.2625 155.625C97.2734 155.674 91.807 154.147 89.3512 150.473C86.8981 146.844 88.092 143.083 88.0567 143.094C88.0703 143.129 91.943 145.044 94.5402 148.344V148.346Z" fill="url(#paint34_linear_2445_19951)"/>
<path d="M90.7099 159.882C95.5072 159.068 97.2995 155.445 97.2967 155.477C97.2396 155.494 92.0969 154.013 87.6666 154.532C83.1929 155.075 80.563 157.851 80.563 157.881C80.5005 157.894 85.8581 160.713 90.7071 159.88L90.7099 159.882Z" fill="url(#paint35_linear_2445_19951)"/>
<path d="M85.0491 144.186C86.8359 147.839 86.194 151.66 86.1614 151.668C86.1668 151.72 81.3613 149.335 79.7432 145.37C78.1196 141.448 79.9662 138.01 79.9335 138.016C79.9417 138.054 83.2623 140.563 85.0491 144.186Z" fill="url(#paint36_linear_2445_19951)"/>
<path d="M79.1911 154.69C83.8553 154.703 86.2295 151.504 86.2267 151.537C86.1751 151.545 81.666 149.258 77.3663 149.016C73.0231 148.788 69.9799 151.026 69.9771 151.056C69.9173 151.061 74.4781 154.69 79.1911 154.692V154.69Z" fill="url(#paint37_linear_2445_19951)"/>
<path d="M76.8667 138.556C77.8811 142.396 76.5295 145.981 76.4995 145.981C76.4995 146.03 72.3821 142.915 71.558 138.792C70.7258 134.715 73.13 131.695 73.1 131.695C73.1 131.733 75.8468 134.743 76.8667 138.553V138.556Z" fill="url(#paint38_linear_2445_19951)"/>
<path d="M69.2788 147.718C73.7308 148.525 76.5918 145.828 76.5836 145.858C76.5347 145.858 72.6865 142.884 68.5935 141.912C64.4597 140.948 61.1064 142.594 61.0982 142.621C61.0439 142.615 64.7779 146.917 69.2761 147.718H69.2788Z" fill="url(#paint39_linear_2445_19951)"/>
<path d="M70.0268 131.692C70.3096 135.595 68.3433 138.835 68.3134 138.832C68.3053 138.881 64.9085 135.152 64.8378 131.002C64.7535 126.893 67.6199 124.373 67.59 124.367C67.5873 124.405 69.733 127.816 70.024 131.692H70.0268Z" fill="url(#paint40_linear_2445_19951)"/>
<path d="M61.0258 139.276C65.1867 140.824 68.4285 138.703 68.4203 138.73C68.3768 138.722 65.2139 135.178 61.4065 133.518C57.5637 131.861 54.0038 132.874 53.9929 132.902C53.9412 132.888 56.8213 137.72 61.0258 139.273V139.276Z" fill="url(#paint41_linear_2445_19951)"/>
<path d="M64.6022 123.825C64.1997 127.676 61.7086 130.481 61.6841 130.473C61.6705 130.519 59.0189 126.301 59.658 122.238C60.2808 118.216 63.5062 116.258 63.479 116.25C63.4709 116.288 64.9911 120.001 64.6022 123.825Z" fill="url(#paint42_linear_2445_19951)"/>
<path d="M54.5077 129.627C58.2934 131.862 61.818 130.363 61.8044 130.388C61.7636 130.374 59.3105 126.374 55.8729 124.084C52.4027 121.792 48.7449 122.151 48.7313 122.175C48.685 122.153 50.6812 127.379 54.5077 129.625V129.627Z" fill="url(#paint43_linear_2445_19951)"/>
<path d="M60.6526 115.186C59.6083 118.882 56.6929 121.177 56.6711 121.166C56.6521 121.21 54.7729 116.623 56.0783 112.755C57.3592 108.926 60.8457 107.576 60.824 107.562C60.8076 107.598 61.6806 111.514 60.6553 115.183L60.6526 115.186Z" fill="url(#paint44_linear_2445_19951)"/>
<path d="M49.7886 119.072C53.1147 121.927 56.8133 121.082 56.797 121.107C56.7617 121.088 55.0402 116.748 52.0568 113.893C49.0407 111.031 45.3965 110.729 45.3802 110.751C45.3366 110.724 46.4218 116.202 49.7886 119.072Z" fill="url(#paint45_linear_2445_19951)"/>
<path d="M58.2176 106.013C56.5777 109.457 53.3414 111.187 53.3196 111.171C53.2924 111.211 52.2182 106.377 54.1409 102.803C56.0365 99.2615 59.678 98.5554 59.6563 98.5391C59.6345 98.5717 59.8358 102.591 58.2176 106.013Z" fill="url(#paint46_linear_2445_19951)"/>
<path d="M46.9307 107.893C49.7129 111.291 53.4768 111.119 53.4578 111.138C53.4279 111.114 52.4624 106.551 50.0175 103.205C47.5399 99.8486 44.0235 98.8953 44.0045 98.9143C43.9664 98.8817 44.1105 104.474 46.9307 107.893Z" fill="url(#paint47_linear_2445_19951)"/>
<path d="M57.3711 96.5412C55.1873 99.6481 51.728 100.767 51.7089 100.751C51.6763 100.786 51.4315 95.8296 53.9254 92.6358C56.3866 89.469 60.0744 89.4202 60.0554 89.3984C60.0282 89.4283 59.5305 93.4532 57.3711 96.5412Z" fill="url(#paint48_linear_2445_19951)"/>
<path d="M46.0049 96.3689C48.1561 100.22 51.8738 100.725 51.8493 100.741C51.8248 100.712 51.6426 96.043 49.8205 92.2924C47.9711 88.5228 44.6995 86.9448 44.675 86.9611C44.6424 86.9231 43.8183 92.4906 46.0049 96.3689Z" fill="url(#paint49_linear_2445_19951)"/>
<path d="M58.1717 87.0057C55.4929 89.6998 51.9166 90.186 51.9003 90.1642C51.8595 90.1941 52.4768 85.2377 55.4902 82.5028C58.4654 79.7896 62.0906 80.3926 62.0743 80.3708C62.0389 80.3953 60.8206 84.3251 58.1717 87.0057Z" fill="url(#paint50_linear_2445_19951)"/>
<path d="M47.0749 84.7989C48.5081 89.0085 52.0626 90.1709 52.0354 90.1844C52.0137 90.1518 52.6419 85.4914 51.5296 81.4285C50.3955 77.3438 47.4883 75.182 47.4611 75.1956C47.4339 75.1521 45.6117 80.5567 47.0776 84.7989H47.0749Z" fill="url(#paint51_linear_2445_19951)"/>
<path d="M60.6638 77.6525C57.5417 79.8686 53.9599 79.7111 53.9463 79.6894C53.9001 79.7138 55.404 74.8796 58.8851 72.6716C62.3227 70.4799 65.7712 71.7183 65.7576 71.6939C65.7168 71.7129 63.7505 75.4472 60.6638 77.6525Z" fill="url(#paint52_linear_2445_19951)"/>
<path d="M50.2117 73.4661C50.8345 77.9255 54.1116 79.718 54.079 79.7261C54.0627 79.6908 55.5204 75.1553 55.2131 70.886C54.884 66.5922 52.4636 63.9062 52.4309 63.9144C52.4065 63.8682 49.5618 68.9686 50.2145 73.4661H50.2117Z" fill="url(#paint53_linear_2445_19951)"/>
<path d="M64.9152 68.6986C61.4042 70.3797 57.9258 69.5867 57.915 69.5623C57.8606 69.5813 60.2837 64.9942 64.1782 63.3674C68.0264 61.7514 71.1839 63.5955 71.173 63.5683C71.124 63.5819 68.3854 67.0202 64.9152 68.6959V68.6986Z" fill="url(#paint54_linear_2445_19951)"/>
<path d="M55.4801 62.6593C55.2 67.2518 58.0774 69.6227 58.042 69.6282C58.0311 69.5901 60.3455 65.2936 60.9302 60.9347C61.4986 56.5486 59.6874 53.4117 59.652 53.4144C59.633 53.3656 55.7358 58.026 55.4801 62.6565V62.6593Z" fill="url(#paint55_linear_2445_19951)"/>
<path d="M70.9836 60.4026C67.1381 61.5025 63.8773 60.0957 63.8719 60.0713C63.812 60.0821 67.1789 55.8671 71.4324 54.8731C75.6341 53.8818 78.3809 56.2799 78.3728 56.2528C78.3184 56.2582 74.7829 59.3 70.9836 60.4026Z" fill="url(#paint56_linear_2445_19951)"/>
<path d="M62.9377 52.6695C61.6622 57.2675 64.0174 60.1572 63.9766 60.1572C63.9712 60.1192 67.1667 56.1784 68.7386 51.8521C70.2969 47.4958 69.2227 44.0005 69.1846 44.0005C69.171 43.9489 64.1914 48.0281 62.9377 52.6695Z" fill="url(#paint57_linear_2445_19951)"/>
<path d="M112.643 156.828L112.567 155.986C105.575 156.619 98.6043 155.839 91.8515 153.675C85.2701 151.565 79.1782 148.232 73.7417 143.773C62.4608 134.517 55.1859 121.307 53.2577 106.576C51.6776 94.515 52.4881 83.7656 55.6673 74.6294C59.0804 64.817 65.1559 57.142 73.7308 51.8107L73.2821 51.0938C64.5413 56.5282 58.3461 64.3553 54.8677 74.3524C51.645 83.6135 50.8237 94.4933 52.4201 106.688C54.3782 121.63 61.7592 135.033 73.2087 144.427C78.7267 148.957 84.9138 152.339 91.5986 154.481C98.4629 156.681 105.545 157.472 112.651 156.831L112.643 156.828Z" fill="url(#paint58_linear_2445_19951)"/>
<path d="M111.252 152.523L104.848 157.227L111.252 161.928L117.654 157.227L111.252 152.523Z" fill="url(#paint59_linear_2445_19951)"/>
<path d="M38.5816 183.03V184.89H34.8816V196.93H32.6016V184.89H28.8816V183.03H38.5816ZM50.9906 191.15C50.9906 191.563 50.964 191.936 50.9106 192.27H42.4906C42.5573 193.15 42.884 193.856 43.4706 194.39C44.0573 194.923 44.7773 195.19 45.6306 195.19C46.8573 195.19 47.724 194.676 48.2306 193.65H50.6906C50.3573 194.663 49.7506 195.496 48.8706 196.15C48.004 196.79 46.924 197.11 45.6306 197.11C44.5773 197.11 43.6306 196.876 42.7906 196.41C41.964 195.93 41.3106 195.263 40.8306 194.41C40.364 193.543 40.1306 192.543 40.1306 191.41C40.1306 190.276 40.3573 189.283 40.8106 188.43C41.2773 187.563 41.924 186.896 42.7506 186.43C43.5906 185.963 44.5506 185.73 45.6306 185.73C46.6706 185.73 47.5973 185.956 48.4106 186.41C49.224 186.863 49.8573 187.503 50.3106 188.33C50.764 189.143 50.9906 190.083 50.9906 191.15ZM48.6106 190.43C48.5973 189.59 48.2973 188.916 47.7106 188.41C47.124 187.903 46.3973 187.65 45.5306 187.65C44.744 187.65 44.0706 187.903 43.5106 188.41C42.9506 188.903 42.6173 189.576 42.5106 190.43H48.6106ZM52.4744 191.41C52.4744 190.276 52.701 189.283 53.1544 188.43C53.621 187.563 54.261 186.896 55.0744 186.43C55.8877 185.963 56.821 185.73 57.8744 185.73C59.2077 185.73 60.3077 186.05 61.1744 186.69C62.0544 187.316 62.6477 188.216 62.9544 189.39H60.4944C60.2944 188.843 59.9744 188.416 59.5344 188.11C59.0944 187.803 58.541 187.65 57.8744 187.65C56.941 187.65 56.1944 187.983 55.6344 188.65C55.0877 189.303 54.8144 190.223 54.8144 191.41C54.8144 192.596 55.0877 193.523 55.6344 194.19C56.1944 194.856 56.941 195.19 57.8744 195.19C59.1944 195.19 60.0677 194.61 60.4944 193.45H62.9544C62.6344 194.57 62.0344 195.463 61.1544 196.13C60.2744 196.783 59.181 197.11 57.8744 197.11C56.821 197.11 55.8877 196.876 55.0744 196.41C54.261 195.93 53.621 195.263 53.1544 194.41C52.701 193.543 52.4744 192.543 52.4744 191.41ZM70.9266 185.73C71.7666 185.73 72.5132 185.91 73.1666 186.27C73.8332 186.63 74.3532 187.163 74.7266 187.87C75.1132 188.576 75.3066 189.43 75.3066 190.43V196.93H73.0466V190.77C73.0466 189.783 72.7999 189.03 72.3066 188.51C71.8132 187.976 71.1399 187.71 70.2866 187.71C69.4332 187.71 68.7532 187.976 68.2466 188.51C67.7532 189.03 67.5066 189.783 67.5066 190.77V196.93H65.2266V182.13H67.5066V187.19C67.8932 186.723 68.3799 186.363 68.9666 186.11C69.5666 185.856 70.2199 185.73 70.9266 185.73ZM83.7748 185.73C84.6415 185.73 85.4148 185.91 86.0948 186.27C86.7882 186.63 87.3282 187.163 87.7148 187.87C88.1015 188.576 88.2948 189.43 88.2948 190.43V196.93H86.0348V190.77C86.0348 189.783 85.7882 189.03 85.2948 188.51C84.8015 187.976 84.1282 187.71 83.2748 187.71C82.4215 187.71 81.7415 187.976 81.2348 188.51C80.7415 189.03 80.4948 189.783 80.4948 190.77V196.93H78.2148V185.91H80.4948V187.17C80.8682 186.716 81.3415 186.363 81.9148 186.11C82.5015 185.856 83.1215 185.73 83.7748 185.73ZM95.9831 197.11C94.9431 197.11 94.0031 196.876 93.1631 196.41C92.3231 195.93 91.6631 195.263 91.1831 194.41C90.7031 193.543 90.4631 192.543 90.4631 191.41C90.4631 190.29 90.7098 189.296 91.2031 188.43C91.6965 187.563 92.3698 186.896 93.2231 186.43C94.0765 185.963 95.0298 185.73 96.0831 185.73C97.1365 185.73 98.0898 185.963 98.9431 186.43C99.7965 186.896 100.47 187.563 100.963 188.43C101.456 189.296 101.703 190.29 101.703 191.41C101.703 192.53 101.45 193.523 100.943 194.39C100.436 195.256 99.7431 195.93 98.8631 196.41C97.9965 196.876 97.0365 197.11 95.9831 197.11ZM95.9831 195.13C96.5698 195.13 97.1165 194.99 97.6231 194.71C98.1431 194.43 98.5631 194.01 98.8831 193.45C99.2031 192.89 99.3631 192.21 99.3631 191.41C99.3631 190.61 99.2098 189.936 98.9031 189.39C98.5965 188.83 98.1898 188.41 97.6831 188.13C97.1765 187.85 96.6298 187.71 96.0431 187.71C95.4565 187.71 94.9098 187.85 94.4031 188.13C93.9098 188.41 93.5165 188.83 93.2231 189.39C92.9298 189.936 92.7831 190.61 92.7831 191.41C92.7831 192.596 93.0831 193.516 93.6831 194.17C94.2965 194.81 95.0631 195.13 95.9831 195.13ZM106.237 182.13V196.93H103.957V182.13H106.237ZM114.01 197.11C112.97 197.11 112.03 196.876 111.19 196.41C110.35 195.93 109.69 195.263 109.21 194.41C108.73 193.543 108.49 192.543 108.49 191.41C108.49 190.29 108.737 189.296 109.23 188.43C109.724 187.563 110.397 186.896 111.25 186.43C112.104 185.963 113.057 185.73 114.11 185.73C115.164 185.73 116.117 185.963 116.97 186.43C117.824 186.896 118.497 187.563 118.99 188.43C119.484 189.296 119.73 190.29 119.73 191.41C119.73 192.53 119.477 193.523 118.97 194.39C118.464 195.256 117.77 195.93 116.89 196.41C116.024 196.876 115.064 197.11 114.01 197.11ZM114.01 195.13C114.597 195.13 115.144 194.99 115.65 194.71C116.17 194.43 116.59 194.01 116.91 193.45C117.23 192.89 117.39 192.21 117.39 191.41C117.39 190.61 117.237 189.936 116.93 189.39C116.624 188.83 116.217 188.41 115.71 188.13C115.204 187.85 114.657 187.71 114.07 187.71C113.484 187.71 112.937 187.85 112.43 188.13C111.937 188.41 111.544 188.83 111.25 189.39C110.957 189.936 110.81 190.61 110.81 191.41C110.81 192.596 111.11 193.516 111.71 194.17C112.324 194.81 113.09 195.13 114.01 195.13ZM126.424 185.73C127.278 185.73 128.031 185.903 128.684 186.25C129.351 186.583 129.871 187.003 130.244 187.51V185.91H132.544V197.11C132.544 198.123 132.331 199.023 131.904 199.81C131.478 200.61 130.858 201.236 130.044 201.69C129.244 202.143 128.284 202.37 127.164 202.37C125.671 202.37 124.431 202.016 123.444 201.31C122.458 200.616 121.898 199.67 121.764 198.47H124.024C124.198 199.043 124.564 199.503 125.124 199.85C125.698 200.21 126.378 200.39 127.164 200.39C128.084 200.39 128.824 200.11 129.384 199.55C129.958 198.99 130.244 198.176 130.244 197.11V195.27C129.858 195.79 129.331 196.23 128.664 196.59C128.011 196.936 127.264 197.11 126.424 197.11C125.464 197.11 124.584 196.87 123.784 196.39C122.998 195.896 122.371 195.216 121.904 194.35C121.451 193.47 121.224 192.476 121.224 191.37C121.224 190.263 121.451 189.283 121.904 188.43C122.371 187.576 122.998 186.916 123.784 186.45C124.584 185.97 125.464 185.73 126.424 185.73ZM130.244 191.41C130.244 190.65 130.084 189.99 129.764 189.43C129.458 188.87 129.051 188.443 128.544 188.15C128.038 187.856 127.491 187.71 126.904 187.71C126.318 187.71 125.771 187.856 125.264 188.15C124.758 188.43 124.344 188.85 124.024 189.41C123.718 189.956 123.564 190.61 123.564 191.37C123.564 192.13 123.718 192.796 124.024 193.37C124.344 193.943 124.758 194.383 125.264 194.69C125.784 194.983 126.331 195.13 126.904 195.13C127.491 195.13 128.038 194.983 128.544 194.69C129.051 194.396 129.458 193.97 129.764 193.41C130.084 192.836 130.244 192.17 130.244 191.41ZM145.459 185.91L138.699 202.11H136.339L138.579 196.75L134.239 185.91H136.779L139.879 194.31L143.099 185.91H145.459ZM160.555 183.03V184.89H154.655V188.99H159.255V190.85H154.655V196.93H152.375V183.03H160.555ZM163.828 184.45C163.415 184.45 163.068 184.31 162.788 184.03C162.508 183.75 162.368 183.403 162.368 182.99C162.368 182.576 162.508 182.23 162.788 181.95C163.068 181.67 163.415 181.53 163.828 181.53C164.228 181.53 164.568 181.67 164.848 181.95C165.128 182.23 165.268 182.576 165.268 182.99C165.268 183.403 165.128 183.75 164.848 184.03C164.568 184.31 164.228 184.45 163.828 184.45ZM164.948 185.91V196.93H162.668V185.91H164.948ZM170.221 187.51C170.555 186.95 170.995 186.516 171.541 186.21C172.101 185.89 172.761 185.73 173.521 185.73V188.09H172.941C172.048 188.09 171.368 188.316 170.901 188.77C170.448 189.223 170.221 190.01 170.221 191.13V196.93H167.941V185.91H170.221V187.51ZM188.957 185.73C189.824 185.73 190.597 185.91 191.277 186.27C191.971 186.63 192.511 187.163 192.897 187.87C193.297 188.576 193.497 189.43 193.497 190.43V196.93H191.237V190.77C191.237 189.783 190.991 189.03 190.497 188.51C190.004 187.976 189.331 187.71 188.477 187.71C187.624 187.71 186.944 187.976 186.437 188.51C185.944 189.03 185.697 189.783 185.697 190.77V196.93H183.437V190.77C183.437 189.783 183.191 189.03 182.697 188.51C182.204 187.976 181.531 187.71 180.677 187.71C179.824 187.71 179.144 187.976 178.637 188.51C178.144 189.03 177.897 189.783 177.897 190.77V196.93H175.617V185.91H177.897V187.17C178.271 186.716 178.744 186.363 179.317 186.11C179.891 185.856 180.504 185.73 181.157 185.73C182.037 185.73 182.824 185.916 183.517 186.29C184.211 186.663 184.744 187.203 185.117 187.91C185.451 187.243 185.971 186.716 186.677 186.33C187.384 185.93 188.144 185.73 188.957 185.73ZM66.2566 221.11C65.2166 221.11 64.2766 220.876 63.4366 220.41C62.5966 219.93 61.9366 219.263 61.4566 218.41C60.9766 217.543 60.7366 216.543 60.7366 215.41C60.7366 214.29 60.9832 213.296 61.4766 212.43C61.9699 211.563 62.6432 210.896 63.4966 210.43C64.3499 209.963 65.3032 209.73 66.3566 209.73C67.4099 209.73 68.3632 209.963 69.2166 210.43C70.0699 210.896 70.7432 211.563 71.2366 212.43C71.7299 213.296 71.9766 214.29 71.9766 215.41C71.9766 216.53 71.7232 217.523 71.2166 218.39C70.7099 219.256 70.0166 219.93 69.1366 220.41C68.2699 220.876 67.3099 221.11 66.2566 221.11ZM66.2566 219.13C66.8432 219.13 67.3899 218.99 67.8966 218.71C68.4166 218.43 68.8366 218.01 69.1566 217.45C69.4766 216.89 69.6366 216.21 69.6366 215.41C69.6366 214.61 69.4832 213.936 69.1766 213.39C68.8699 212.83 68.4632 212.41 67.9566 212.13C67.4499 211.85 66.9032 211.71 66.3166 211.71C65.7299 211.71 65.1832 211.85 64.6766 212.13C64.1832 212.41 63.7899 212.83 63.4966 213.39C63.2032 213.936 63.0566 214.61 63.0566 215.41C63.0566 216.596 63.3566 217.516 63.9566 218.17C64.5699 218.81 65.3366 219.13 66.2566 219.13ZM78.8505 211.77H76.8105V220.93H74.5105V211.77H73.2105V209.91H74.5105V209.13C74.5105 207.863 74.8438 206.943 75.5105 206.37C76.1905 205.783 77.2505 205.49 78.6905 205.49V207.39C77.9971 207.39 77.5105 207.523 77.2305 207.79C76.9505 208.043 76.8105 208.49 76.8105 209.13V209.91H78.8505V211.77ZM88.7264 211.77V217.87C88.7264 218.283 88.8197 218.583 89.0064 218.77C89.2064 218.943 89.5397 219.03 90.0064 219.03H91.4064V220.93H89.6064C88.5797 220.93 87.7931 220.69 87.2464 220.21C86.6997 219.73 86.4264 218.95 86.4264 217.87V211.77H85.1264V209.91H86.4264V207.17H88.7264V209.91H91.4064V211.77H88.7264ZM99.2078 209.73C100.048 209.73 100.794 209.91 101.448 210.27C102.114 210.63 102.634 211.163 103.008 211.87C103.394 212.576 103.588 213.43 103.588 214.43V220.93H101.328V214.77C101.328 213.783 101.081 213.03 100.588 212.51C100.094 211.976 99.4211 211.71 98.5678 211.71C97.7145 211.71 97.0345 211.976 96.5278 212.51C96.0345 213.03 95.7878 213.783 95.7878 214.77V220.93H93.5078V206.13H95.7878V211.19C96.1745 210.723 96.6611 210.363 97.2478 210.11C97.8478 209.856 98.5011 209.73 99.2078 209.73ZM116.596 215.15C116.596 215.563 116.569 215.936 116.516 216.27H108.096C108.163 217.15 108.489 217.856 109.076 218.39C109.663 218.923 110.383 219.19 111.236 219.19C112.463 219.19 113.329 218.676 113.836 217.65H116.296C115.963 218.663 115.356 219.496 114.476 220.15C113.609 220.79 112.529 221.11 111.236 221.11C110.183 221.11 109.236 220.876 108.396 220.41C107.569 219.93 106.916 219.263 106.436 218.41C105.969 217.543 105.736 216.543 105.736 215.41C105.736 214.276 105.963 213.283 106.416 212.43C106.883 211.563 107.529 210.896 108.356 210.43C109.196 209.963 110.156 209.73 111.236 209.73C112.276 209.73 113.203 209.956 114.016 210.41C114.829 210.863 115.463 211.503 115.916 212.33C116.369 213.143 116.596 214.083 116.596 215.15ZM114.216 214.43C114.203 213.59 113.903 212.916 113.316 212.41C112.729 211.903 112.003 211.65 111.136 211.65C110.349 211.65 109.676 211.903 109.116 212.41C108.556 212.903 108.223 213.576 108.116 214.43H114.216ZM134.335 207.03L129.735 215.89V220.93H127.455V215.89L122.835 207.03H125.375L128.595 213.85L131.815 207.03H134.335ZM146.245 215.15C146.245 215.563 146.218 215.936 146.165 216.27H137.745C137.811 217.15 138.138 217.856 138.725 218.39C139.311 218.923 140.031 219.19 140.885 219.19C142.111 219.19 142.978 218.676 143.485 217.65H145.945C145.611 218.663 145.005 219.496 144.125 220.15C143.258 220.79 142.178 221.11 140.885 221.11C139.831 221.11 138.885 220.876 138.045 220.41C137.218 219.93 136.565 219.263 136.085 218.41C135.618 217.543 135.385 216.543 135.385 215.41C135.385 214.276 135.611 213.283 136.065 212.43C136.531 211.563 137.178 210.896 138.005 210.43C138.845 209.963 139.805 209.73 140.885 209.73C141.925 209.73 142.851 209.956 143.665 210.41C144.478 210.863 145.111 211.503 145.565 212.33C146.018 213.143 146.245 214.083 146.245 215.15ZM143.865 214.43C143.851 213.59 143.551 212.916 142.965 212.41C142.378 211.903 141.651 211.65 140.785 211.65C139.998 211.65 139.325 211.903 138.765 212.41C138.205 212.903 137.871 213.576 137.765 214.43H143.865ZM147.728 215.37C147.728 214.263 147.955 213.283 148.408 212.43C148.875 211.576 149.502 210.916 150.288 210.45C151.088 209.97 151.968 209.73 152.928 209.73C153.795 209.73 154.548 209.903 155.188 210.25C155.842 210.583 156.362 211.003 156.748 211.51V209.91H159.048V220.93H156.748V219.29C156.362 219.81 155.835 220.243 155.168 220.59C154.502 220.936 153.742 221.11 152.888 221.11C151.942 221.11 151.075 220.87 150.288 220.39C149.502 219.896 148.875 219.216 148.408 218.35C147.955 217.47 147.728 216.476 147.728 215.37ZM156.748 215.41C156.748 214.65 156.588 213.99 156.268 213.43C155.962 212.87 155.555 212.443 155.048 212.15C154.542 211.856 153.995 211.71 153.408 211.71C152.822 211.71 152.275 211.856 151.768 212.15C151.262 212.43 150.848 212.85 150.528 213.41C150.222 213.956 150.068 214.61 150.068 215.37C150.068 216.13 150.222 216.796 150.528 217.37C150.848 217.943 151.262 218.383 151.768 218.69C152.288 218.983 152.835 219.13 153.408 219.13C153.995 219.13 154.542 218.983 155.048 218.69C155.555 218.396 155.962 217.97 156.268 217.41C156.588 216.836 156.748 216.17 156.748 215.41ZM164.323 211.51C164.656 210.95 165.096 210.516 165.643 210.21C166.203 209.89 166.863 209.73 167.623 209.73V212.09H167.043C166.15 212.09 165.47 212.316 165.003 212.77C164.55 213.223 164.323 214.01 164.323 215.13V220.93H162.043V209.91H164.323V211.51Z" fill="white"/>
<defs>
<linearGradient id="paint0_linear_2445_19951" x1="111" y1="270" x2="111" y2="0" gradientUnits="userSpaceOnUse">
<stop stop-color="#868686"/>
<stop offset="1" stop-color="#434343"/>
</linearGradient>
<linearGradient id="paint1_linear_2445_19951" x1="94.3027" y1="103.746" x2="128.635" y2="103.746" gradientUnits="userSpaceOnUse">
<stop stop-color="#A57D24"/>
<stop offset="0.21" stop-color="#D8BD62"/>
<stop offset="0.33" stop-color="#F1DD80"/>
<stop offset="0.52" stop-color="#FBF2A8"/>
<stop offset="0.73" stop-color="#F1DD80"/>
<stop offset="1" stop-color="#A57D24"/>
</linearGradient>
<linearGradient id="paint2_linear_2445_19951" x1="87.1886" y1="77.3968" x2="135.721" y2="125.996" gradientUnits="userSpaceOnUse">
<stop stop-color="#A57D24"/>
<stop offset="0.21" stop-color="#D8BD62"/>
<stop offset="0.33" stop-color="#F1DD80"/>
<stop offset="0.52" stop-color="#FBF2A8"/>
<stop offset="0.73" stop-color="#F1DD80"/>
<stop offset="1" stop-color="#A57D24"/>
</linearGradient>
<linearGradient id="paint3_linear_2445_19951" x1="125.923" y1="88.351" x2="141.601" y2="88.351" gradientUnits="userSpaceOnUse">
<stop stop-color="#A57D24"/>
<stop offset="0.21" stop-color="#D8BD62"/>
<stop offset="0.33" stop-color="#F1DD80"/>
<stop offset="0.52" stop-color="#FBF2A8"/>
<stop offset="0.73" stop-color="#F1DD80"/>
<stop offset="1" stop-color="#A57D24"/>
</linearGradient>
<linearGradient id="paint4_linear_2445_19951" x1="124.679" y1="79.6342" x2="141.164" y2="96.1422" gradientUnits="userSpaceOnUse">
<stop stop-color="#A57D24"/>
<stop offset="0.21" stop-color="#D8BD62"/>
<stop offset="0.33" stop-color="#F1DD80"/>
<stop offset="0.52" stop-color="#FBF2A8"/>
<stop offset="0.73" stop-color="#F1DD80"/>
<stop offset="1" stop-color="#A57D24"/>
</linearGradient>
<linearGradient id="paint5_linear_2445_19951" x1="81.2975" y1="88.3588" x2="96.976" y2="88.3588" gradientUnits="userSpaceOnUse">
<stop stop-color="#A57D24"/>
<stop offset="0.21" stop-color="#D8BD62"/>
<stop offset="0.33" stop-color="#F1DD80"/>
<stop offset="0.52" stop-color="#FBF2A8"/>
<stop offset="0.73" stop-color="#F1DD80"/>
<stop offset="1" stop-color="#A57D24"/>
</linearGradient>
<linearGradient id="paint6_linear_2445_19951" x1="79.0812" y1="77.0065" x2="100.83" y2="98.785" gradientUnits="userSpaceOnUse">
<stop stop-color="#A57D24"/>
<stop offset="0.21" stop-color="#D8BD62"/>
<stop offset="0.33" stop-color="#F1DD80"/>
<stop offset="0.52" stop-color="#FBF2A8"/>
<stop offset="0.73" stop-color="#F1DD80"/>
<stop offset="1" stop-color="#A57D24"/>
</linearGradient>
<linearGradient id="paint7_linear_2445_19951" x1="142.328" y1="49.0461" x2="153.266" y2="49.0461" gradientUnits="userSpaceOnUse">
<stop stop-color="#A57D24"/>
<stop offset="0.21" stop-color="#D8BD62"/>
<stop offset="0.33" stop-color="#F1DD80"/>
<stop offset="0.52" stop-color="#FBF2A8"/>
<stop offset="0.73" stop-color="#F1DD80"/>
<stop offset="1" stop-color="#A57D24"/>
</linearGradient>
<linearGradient id="paint8_linear_2445_19951" x1="125.733" y1="149.362" x2="135.202" y2="149.362" gradientUnits="userSpaceOnUse">
<stop stop-color="#A57D24"/>
<stop offset="0.21" stop-color="#D8BD62"/>
<stop offset="0.33" stop-color="#F1DD80"/>
<stop offset="0.52" stop-color="#FBF2A8"/>
<stop offset="0.73" stop-color="#F1DD80"/>
<stop offset="1" stop-color="#A57D24"/>
</linearGradient>
<linearGradient id="paint9_linear_2445_19951" x1="125.703" y1="157.229" x2="142.434" y2="157.229" gradientUnits="userSpaceOnUse">
<stop stop-color="#A57D24"/>
<stop offset="0.21" stop-color="#D8BD62"/>
<stop offset="0.33" stop-color="#F1DD80"/>
<stop offset="0.52" stop-color="#FBF2A8"/>
<stop offset="0.73" stop-color="#F1DD80"/>
<stop offset="1" stop-color="#A57D24"/>
</linearGradient>
<linearGradient id="paint10_linear_2445_19951" x1="136.695" y1="144.841" x2="143.921" y2="144.841" gradientUnits="userSpaceOnUse">
<stop stop-color="#A57D24"/>
<stop offset="0.21" stop-color="#D8BD62"/>
<stop offset="0.33" stop-color="#F1DD80"/>
<stop offset="0.52" stop-color="#FBF2A8"/>
<stop offset="0.73" stop-color="#F1DD80"/>
<stop offset="1" stop-color="#A57D24"/>
</linearGradient>
<linearGradient id="paint11_linear_2445_19951" x1="136.773" y1="151.844" x2="153.023" y2="151.844" gradientUnits="userSpaceOnUse">
<stop stop-color="#A57D24"/>
<stop offset="0.21" stop-color="#D8BD62"/>
<stop offset="0.33" stop-color="#F1DD80"/>
<stop offset="0.52" stop-color="#FBF2A8"/>
<stop offset="0.73" stop-color="#F1DD80"/>
<stop offset="1" stop-color="#A57D24"/>
</linearGradient>
<linearGradient id="paint12_linear_2445_19951" x1="145.763" y1="138.841" x2="151.621" y2="138.841" gradientUnits="userSpaceOnUse">
<stop stop-color="#A57D24"/>
<stop offset="0.21" stop-color="#D8BD62"/>
<stop offset="0.33" stop-color="#F1DD80"/>
<stop offset="0.52" stop-color="#FBF2A8"/>
<stop offset="0.73" stop-color="#F1DD80"/>
<stop offset="1" stop-color="#A57D24"/>
</linearGradient>
<linearGradient id="paint13_linear_2445_19951" x1="146.422" y1="144.739" x2="161.905" y2="144.739" gradientUnits="userSpaceOnUse">
<stop stop-color="#A57D24"/>
<stop offset="0.21" stop-color="#D8BD62"/>
<stop offset="0.33" stop-color="#F1DD80"/>
<stop offset="0.52" stop-color="#FBF2A8"/>
<stop offset="0.73" stop-color="#F1DD80"/>
<stop offset="1" stop-color="#A57D24"/>
</linearGradient>
<linearGradient id="paint14_linear_2445_19951" x1="152.943" y1="131.6" x2="158.162" y2="131.6" gradientUnits="userSpaceOnUse">
<stop stop-color="#A57D24"/>
<stop offset="0.21" stop-color="#D8BD62"/>
<stop offset="0.33" stop-color="#F1DD80"/>
<stop offset="0.52" stop-color="#FBF2A8"/>
<stop offset="0.73" stop-color="#F1DD80"/>
<stop offset="1" stop-color="#A57D24"/>
</linearGradient>
<linearGradient id="paint15_linear_2445_19951" x1="154.578" y1="136.207" x2="169.006" y2="136.207" gradientUnits="userSpaceOnUse">
<stop stop-color="#A57D24"/>
<stop offset="0.21" stop-color="#D8BD62"/>
<stop offset="0.33" stop-color="#F1DD80"/>
<stop offset="0.52" stop-color="#FBF2A8"/>
<stop offset="0.73" stop-color="#F1DD80"/>
<stop offset="1" stop-color="#A57D24"/>
</linearGradient>
<linearGradient id="paint16_linear_2445_19951" x1="158.333" y1="123.363" x2="163.441" y2="123.363" gradientUnits="userSpaceOnUse">
<stop stop-color="#A57D24"/>
<stop offset="0.21" stop-color="#D8BD62"/>
<stop offset="0.33" stop-color="#F1DD80"/>
<stop offset="0.52" stop-color="#FBF2A8"/>
<stop offset="0.73" stop-color="#F1DD80"/>
<stop offset="1" stop-color="#A57D24"/>
</linearGradient>
<linearGradient id="paint17_linear_2445_19951" x1="161.195" y1="126.501" x2="174.268" y2="126.501" gradientUnits="userSpaceOnUse">
<stop stop-color="#A57D24"/>
<stop offset="0.21" stop-color="#D8BD62"/>
<stop offset="0.33" stop-color="#F1DD80"/>
<stop offset="0.52" stop-color="#FBF2A8"/>
<stop offset="0.73" stop-color="#F1DD80"/>
<stop offset="1" stop-color="#A57D24"/>
</linearGradient>
<linearGradient id="paint18_linear_2445_19951" x1="161.854" y1="114.366" x2="167.391" y2="114.366" gradientUnits="userSpaceOnUse">
<stop stop-color="#A57D24"/>
<stop offset="0.21" stop-color="#D8BD62"/>
<stop offset="0.33" stop-color="#F1DD80"/>
<stop offset="0.52" stop-color="#FBF2A8"/>
<stop offset="0.73" stop-color="#F1DD80"/>
<stop offset="1" stop-color="#A57D24"/>
</linearGradient>
<linearGradient id="paint19_linear_2445_19951" x1="166.208" y1="115.979" x2="177.628" y2="115.979" gradientUnits="userSpaceOnUse">
<stop stop-color="#A57D24"/>
<stop offset="0.21" stop-color="#D8BD62"/>
<stop offset="0.33" stop-color="#F1DD80"/>
<stop offset="0.52" stop-color="#FBF2A8"/>
<stop offset="0.73" stop-color="#F1DD80"/>
<stop offset="1" stop-color="#A57D24"/>
</linearGradient>
<linearGradient id="paint20_linear_2445_19951" x1="163.347" y1="104.853" x2="170.004" y2="104.853" gradientUnits="userSpaceOnUse">
<stop stop-color="#A57D24"/>
<stop offset="0.21" stop-color="#D8BD62"/>
<stop offset="0.33" stop-color="#F1DD80"/>
<stop offset="0.52" stop-color="#FBF2A8"/>
<stop offset="0.73" stop-color="#F1DD80"/>
<stop offset="1" stop-color="#A57D24"/>
</linearGradient>
<linearGradient id="paint21_linear_2445_19951" x1="169.547" y1="105.023" x2="179.006" y2="105.023" gradientUnits="userSpaceOnUse">
<stop stop-color="#A57D24"/>
<stop offset="0.21" stop-color="#D8BD62"/>
<stop offset="0.33" stop-color="#F1DD80"/>
<stop offset="0.52" stop-color="#FBF2A8"/>
<stop offset="0.73" stop-color="#F1DD80"/>
<stop offset="1" stop-color="#A57D24"/>
</linearGradient>
<linearGradient id="paint22_linear_2445_19951" x1="162.948" y1="95.0746" x2="171.314" y2="95.0746" gradientUnits="userSpaceOnUse">
<stop stop-color="#A57D24"/>
<stop offset="0.21" stop-color="#D8BD62"/>
<stop offset="0.33" stop-color="#F1DD80"/>
<stop offset="0.52" stop-color="#FBF2A8"/>
<stop offset="0.73" stop-color="#F1DD80"/>
<stop offset="1" stop-color="#A57D24"/>
</linearGradient>
<linearGradient id="paint23_linear_2445_19951" x1="171.152" y1="93.8513" x2="178.506" y2="93.8513" gradientUnits="userSpaceOnUse">
<stop stop-color="#A57D24"/>
<stop offset="0.21" stop-color="#D8BD62"/>
<stop offset="0.33" stop-color="#F1DD80"/>
<stop offset="0.52" stop-color="#FBF2A8"/>
<stop offset="0.73" stop-color="#F1DD80"/>
<stop offset="1" stop-color="#A57D24"/>
</linearGradient>
<linearGradient id="paint24_linear_2445_19951" x1="160.93" y1="85.2485" x2="171.104" y2="85.2485" gradientUnits="userSpaceOnUse">
<stop stop-color="#A57D24"/>
<stop offset="0.21" stop-color="#D8BD62"/>
<stop offset="0.33" stop-color="#F1DD80"/>
<stop offset="0.52" stop-color="#FBF2A8"/>
<stop offset="0.73" stop-color="#F1DD80"/>
<stop offset="1" stop-color="#A57D24"/>
</linearGradient>
<linearGradient id="paint25_linear_2445_19951" x1="170.807" y1="82.6886" x2="176.494" y2="82.6886" gradientUnits="userSpaceOnUse">
<stop stop-color="#A57D24"/>
<stop offset="0.21" stop-color="#D8BD62"/>
<stop offset="0.33" stop-color="#F1DD80"/>
<stop offset="0.52" stop-color="#FBF2A8"/>
<stop offset="0.73" stop-color="#F1DD80"/>
<stop offset="1" stop-color="#A57D24"/>
</linearGradient>
<linearGradient id="paint26_linear_2445_19951" x1="157.242" y1="75.5314" x2="169.056" y2="75.5314" gradientUnits="userSpaceOnUse">
<stop stop-color="#A57D24"/>
<stop offset="0.21" stop-color="#D8BD62"/>
<stop offset="0.33" stop-color="#F1DD80"/>
<stop offset="0.52" stop-color="#FBF2A8"/>
<stop offset="0.73" stop-color="#F1DD80"/>
<stop offset="1" stop-color="#A57D24"/>
</linearGradient>
<linearGradient id="paint27_linear_2445_19951" x1="167.745" y1="71.823" x2="172.885" y2="71.823" gradientUnits="userSpaceOnUse">
<stop stop-color="#A57D24"/>
<stop offset="0.21" stop-color="#D8BD62"/>
<stop offset="0.33" stop-color="#F1DD80"/>
<stop offset="0.52" stop-color="#FBF2A8"/>
<stop offset="0.73" stop-color="#F1DD80"/>
<stop offset="1" stop-color="#A57D24"/>
</linearGradient>
<linearGradient id="paint28_linear_2445_19951" x1="151.831" y1="66.2353" x2="165.086" y2="66.2353" gradientUnits="userSpaceOnUse">
<stop stop-color="#A57D24"/>
<stop offset="0.21" stop-color="#D8BD62"/>
<stop offset="0.33" stop-color="#F1DD80"/>
<stop offset="0.52" stop-color="#FBF2A8"/>
<stop offset="0.73" stop-color="#F1DD80"/>
<stop offset="1" stop-color="#A57D24"/>
</linearGradient>
<linearGradient id="paint29_linear_2445_19951" x1="161.97" y1="61.524" x2="167.548" y2="61.524" gradientUnits="userSpaceOnUse">
<stop stop-color="#A57D24"/>
<stop offset="0.21" stop-color="#D8BD62"/>
<stop offset="0.33" stop-color="#F1DD80"/>
<stop offset="0.52" stop-color="#FBF2A8"/>
<stop offset="0.73" stop-color="#F1DD80"/>
<stop offset="1" stop-color="#A57D24"/>
</linearGradient>
<linearGradient id="paint30_linear_2445_19951" x1="144.625" y1="57.7275" x2="159.126" y2="57.7275" gradientUnits="userSpaceOnUse">
<stop stop-color="#A57D24"/>
<stop offset="0.21" stop-color="#D8BD62"/>
<stop offset="0.33" stop-color="#F1DD80"/>
<stop offset="0.52" stop-color="#FBF2A8"/>
<stop offset="0.73" stop-color="#F1DD80"/>
<stop offset="1" stop-color="#A57D24"/>
</linearGradient>
<linearGradient id="paint31_linear_2445_19951" x1="153.414" y1="52.0802" x2="160.436" y2="52.0802" gradientUnits="userSpaceOnUse">
<stop stop-color="#A57D24"/>
<stop offset="0.21" stop-color="#D8BD62"/>
<stop offset="0.33" stop-color="#F1DD80"/>
<stop offset="0.52" stop-color="#FBF2A8"/>
<stop offset="0.73" stop-color="#F1DD80"/>
<stop offset="1" stop-color="#A57D24"/>
</linearGradient>
<linearGradient id="paint32_linear_2445_19951" x1="110.36" y1="104.067" x2="171.379" y2="104.067" gradientUnits="userSpaceOnUse">
<stop stop-color="#A57D24"/>
<stop offset="0.21" stop-color="#D8BD62"/>
<stop offset="0.33" stop-color="#F1DD80"/>
<stop offset="0.52" stop-color="#FBF2A8"/>
<stop offset="0.73" stop-color="#F1DD80"/>
<stop offset="1" stop-color="#A57D24"/>
</linearGradient>
<linearGradient id="paint33_linear_2445_19951" x1="69.7317" y1="49.0461" x2="80.6726" y2="49.0461" gradientUnits="userSpaceOnUse">
<stop stop-color="#A57D24"/>
<stop offset="0.21" stop-color="#D8BD62"/>
<stop offset="0.33" stop-color="#F1DD80"/>
<stop offset="0.52" stop-color="#FBF2A8"/>
<stop offset="0.73" stop-color="#F1DD80"/>
<stop offset="1" stop-color="#A57D24"/>
</linearGradient>
<linearGradient id="paint34_linear_2445_19951" x1="87.7983" y1="149.362" x2="97.2652" y2="149.362" gradientUnits="userSpaceOnUse">
<stop stop-color="#A57D24"/>
<stop offset="0.21" stop-color="#D8BD62"/>
<stop offset="0.33" stop-color="#F1DD80"/>
<stop offset="0.52" stop-color="#FBF2A8"/>
<stop offset="0.73" stop-color="#F1DD80"/>
<stop offset="1" stop-color="#A57D24"/>
</linearGradient>
<linearGradient id="paint35_linear_2445_19951" x1="80.563" y1="157.229" x2="97.2967" y2="157.229" gradientUnits="userSpaceOnUse">
<stop stop-color="#A57D24"/>
<stop offset="0.21" stop-color="#D8BD62"/>
<stop offset="0.33" stop-color="#F1DD80"/>
<stop offset="0.52" stop-color="#FBF2A8"/>
<stop offset="0.73" stop-color="#F1DD80"/>
<stop offset="1" stop-color="#A57D24"/>
</linearGradient>
<linearGradient id="paint36_linear_2445_19951" x1="79.0741" y1="144.841" x2="86.3001" y2="144.841" gradientUnits="userSpaceOnUse">
<stop stop-color="#A57D24"/>
<stop offset="0.21" stop-color="#D8BD62"/>
<stop offset="0.33" stop-color="#F1DD80"/>
<stop offset="0.52" stop-color="#FBF2A8"/>
<stop offset="0.73" stop-color="#F1DD80"/>
<stop offset="1" stop-color="#A57D24"/>
</linearGradient>
<linearGradient id="paint37_linear_2445_19951" x1="69.9744" y1="151.844" x2="86.2267" y2="151.844" gradientUnits="userSpaceOnUse">
<stop stop-color="#A57D24"/>
<stop offset="0.21" stop-color="#D8BD62"/>
<stop offset="0.33" stop-color="#F1DD80"/>
<stop offset="0.52" stop-color="#FBF2A8"/>
<stop offset="0.73" stop-color="#F1DD80"/>
<stop offset="1" stop-color="#A57D24"/>
</linearGradient>
<linearGradient id="paint38_linear_2445_19951" x1="71.3813" y1="138.841" x2="77.242" y2="138.841" gradientUnits="userSpaceOnUse">
<stop stop-color="#A57D24"/>
<stop offset="0.21" stop-color="#D8BD62"/>
<stop offset="0.33" stop-color="#F1DD80"/>
<stop offset="0.52" stop-color="#FBF2A8"/>
<stop offset="0.73" stop-color="#F1DD80"/>
<stop offset="1" stop-color="#A57D24"/>
</linearGradient>
<linearGradient id="paint39_linear_2445_19951" x1="61.0982" y1="144.739" x2="76.5836" y2="144.739" gradientUnits="userSpaceOnUse">
<stop stop-color="#A57D24"/>
<stop offset="0.21" stop-color="#D8BD62"/>
<stop offset="0.33" stop-color="#F1DD80"/>
<stop offset="0.52" stop-color="#FBF2A8"/>
<stop offset="0.73" stop-color="#F1DD80"/>
<stop offset="1" stop-color="#A57D24"/>
</linearGradient>
<linearGradient id="paint40_linear_2445_19951" x1="64.8378" y1="131.6" x2="70.054" y2="131.6" gradientUnits="userSpaceOnUse">
<stop stop-color="#A57D24"/>
<stop offset="0.21" stop-color="#D8BD62"/>
<stop offset="0.33" stop-color="#F1DD80"/>
<stop offset="0.52" stop-color="#FBF2A8"/>
<stop offset="0.73" stop-color="#F1DD80"/>
<stop offset="1" stop-color="#A57D24"/>
</linearGradient>
<linearGradient id="paint41_linear_2445_19951" x1="53.9929" y1="136.207" x2="68.4203" y2="136.207" gradientUnits="userSpaceOnUse">
<stop stop-color="#A57D24"/>
<stop offset="0.21" stop-color="#D8BD62"/>
<stop offset="0.33" stop-color="#F1DD80"/>
<stop offset="0.52" stop-color="#FBF2A8"/>
<stop offset="0.73" stop-color="#F1DD80"/>
<stop offset="1" stop-color="#A57D24"/>
</linearGradient>
<linearGradient id="paint42_linear_2445_19951" x1="59.5601" y1="123.363" x2="64.6675" y2="123.363" gradientUnits="userSpaceOnUse">
<stop stop-color="#A57D24"/>
<stop offset="0.21" stop-color="#D8BD62"/>
<stop offset="0.33" stop-color="#F1DD80"/>
<stop offset="0.52" stop-color="#FBF2A8"/>
<stop offset="0.73" stop-color="#F1DD80"/>
<stop offset="1" stop-color="#A57D24"/>
</linearGradient>
<linearGradient id="paint43_linear_2445_19951" x1="48.7313" y1="126.501" x2="61.8044" y2="126.501" gradientUnits="userSpaceOnUse">
<stop stop-color="#A57D24"/>
<stop offset="0.21" stop-color="#D8BD62"/>
<stop offset="0.33" stop-color="#F1DD80"/>
<stop offset="0.52" stop-color="#FBF2A8"/>
<stop offset="0.73" stop-color="#F1DD80"/>
<stop offset="1" stop-color="#A57D24"/>
</linearGradient>
<linearGradient id="paint44_linear_2445_19951" x1="55.6159" y1="114.366" x2="61.153" y2="114.366" gradientUnits="userSpaceOnUse">
<stop stop-color="#A57D24"/>
<stop offset="0.21" stop-color="#D8BD62"/>
<stop offset="0.33" stop-color="#F1DD80"/>
<stop offset="0.52" stop-color="#FBF2A8"/>
<stop offset="0.73" stop-color="#F1DD80"/>
<stop offset="1" stop-color="#A57D24"/>
</linearGradient>
<linearGradient id="paint45_linear_2445_19951" x1="45.3802" y1="115.979" x2="56.797" y2="115.979" gradientUnits="userSpaceOnUse">
<stop stop-color="#A57D24"/>
<stop offset="0.21" stop-color="#D8BD62"/>
<stop offset="0.33" stop-color="#F1DD80"/>
<stop offset="0.52" stop-color="#FBF2A8"/>
<stop offset="0.73" stop-color="#F1DD80"/>
<stop offset="1" stop-color="#A57D24"/>
</linearGradient>
<linearGradient id="paint46_linear_2445_19951" x1="52.996" y1="104.853" x2="59.6563" y2="104.853" gradientUnits="userSpaceOnUse">
<stop stop-color="#A57D24"/>
<stop offset="0.21" stop-color="#D8BD62"/>
<stop offset="0.33" stop-color="#F1DD80"/>
<stop offset="0.52" stop-color="#FBF2A8"/>
<stop offset="0.73" stop-color="#F1DD80"/>
<stop offset="1" stop-color="#A57D24"/>
</linearGradient>
<linearGradient id="paint47_linear_2445_19951" x1="43.999" y1="105.028" x2="53.4578" y2="105.028" gradientUnits="userSpaceOnUse">
<stop stop-color="#A57D24"/>
<stop offset="0.21" stop-color="#D8BD62"/>
<stop offset="0.33" stop-color="#F1DD80"/>
<stop offset="0.52" stop-color="#FBF2A8"/>
<stop offset="0.73" stop-color="#F1DD80"/>
<stop offset="1" stop-color="#A57D24"/>
</linearGradient>
<linearGradient id="paint48_linear_2445_19951" x1="51.6872" y1="95.0746" x2="60.0554" y2="95.0746" gradientUnits="userSpaceOnUse">
<stop stop-color="#A57D24"/>
<stop offset="0.21" stop-color="#D8BD62"/>
<stop offset="0.33" stop-color="#F1DD80"/>
<stop offset="0.52" stop-color="#FBF2A8"/>
<stop offset="0.73" stop-color="#F1DD80"/>
<stop offset="1" stop-color="#A57D24"/>
</linearGradient>
<linearGradient id="paint49_linear_2445_19951" x1="44.4955" y1="93.8513" x2="51.8493" y2="93.8513" gradientUnits="userSpaceOnUse">
<stop stop-color="#A57D24"/>
<stop offset="0.21" stop-color="#D8BD62"/>
<stop offset="0.33" stop-color="#F1DD80"/>
<stop offset="0.52" stop-color="#FBF2A8"/>
<stop offset="0.73" stop-color="#F1DD80"/>
<stop offset="1" stop-color="#A57D24"/>
</linearGradient>
<linearGradient id="paint50_linear_2445_19951" x1="51.9003" y1="85.2485" x2="62.0743" y2="85.2485" gradientUnits="userSpaceOnUse">
<stop stop-color="#A57D24"/>
<stop offset="0.21" stop-color="#D8BD62"/>
<stop offset="0.33" stop-color="#F1DD80"/>
<stop offset="0.52" stop-color="#FBF2A8"/>
<stop offset="0.73" stop-color="#F1DD80"/>
<stop offset="1" stop-color="#A57D24"/>
</linearGradient>
<linearGradient id="paint51_linear_2445_19951" x1="46.5065" y1="82.6886" x2="52.1932" y2="82.6886" gradientUnits="userSpaceOnUse">
<stop stop-color="#A57D24"/>
<stop offset="0.21" stop-color="#D8BD62"/>
<stop offset="0.33" stop-color="#F1DD80"/>
<stop offset="0.52" stop-color="#FBF2A8"/>
<stop offset="0.73" stop-color="#F1DD80"/>
<stop offset="1" stop-color="#A57D24"/>
</linearGradient>
<linearGradient id="paint52_linear_2445_19951" x1="53.9436" y1="75.5314" x2="65.7576" y2="75.5314" gradientUnits="userSpaceOnUse">
<stop stop-color="#A57D24"/>
<stop offset="0.21" stop-color="#D8BD62"/>
<stop offset="0.33" stop-color="#F1DD80"/>
<stop offset="0.52" stop-color="#FBF2A8"/>
<stop offset="0.73" stop-color="#F1DD80"/>
<stop offset="1" stop-color="#A57D24"/>
</linearGradient>
<linearGradient id="paint53_linear_2445_19951" x1="50.1166" y1="71.823" x2="55.2539" y2="71.823" gradientUnits="userSpaceOnUse">
<stop stop-color="#A57D24"/>
<stop offset="0.21" stop-color="#D8BD62"/>
<stop offset="0.33" stop-color="#F1DD80"/>
<stop offset="0.52" stop-color="#FBF2A8"/>
<stop offset="0.73" stop-color="#F1DD80"/>
<stop offset="1" stop-color="#A57D24"/>
</linearGradient>
<linearGradient id="paint54_linear_2445_19951" x1="57.915" y1="66.2353" x2="71.173" y2="66.2353" gradientUnits="userSpaceOnUse">
<stop stop-color="#A57D24"/>
<stop offset="0.21" stop-color="#D8BD62"/>
<stop offset="0.33" stop-color="#F1DD80"/>
<stop offset="0.52" stop-color="#FBF2A8"/>
<stop offset="0.73" stop-color="#F1DD80"/>
<stop offset="1" stop-color="#A57D24"/>
</linearGradient>
<linearGradient id="paint55_linear_2445_19951" x1="55.4611" y1="61.524" x2="61.039" y2="61.524" gradientUnits="userSpaceOnUse">
<stop stop-color="#A57D24"/>
<stop offset="0.21" stop-color="#D8BD62"/>
<stop offset="0.33" stop-color="#F1DD80"/>
<stop offset="0.52" stop-color="#FBF2A8"/>
<stop offset="0.73" stop-color="#F1DD80"/>
<stop offset="1" stop-color="#A57D24"/>
</linearGradient>
<linearGradient id="paint56_linear_2445_19951" x1="63.8719" y1="57.7275" x2="78.3728" y2="57.7275" gradientUnits="userSpaceOnUse">
<stop stop-color="#A57D24"/>
<stop offset="0.21" stop-color="#D8BD62"/>
<stop offset="0.33" stop-color="#F1DD80"/>
<stop offset="0.52" stop-color="#FBF2A8"/>
<stop offset="0.73" stop-color="#F1DD80"/>
<stop offset="1" stop-color="#A57D24"/>
</linearGradient>
<linearGradient id="paint57_linear_2445_19951" x1="62.5597" y1="52.0802" x2="69.5817" y2="52.0802" gradientUnits="userSpaceOnUse">
<stop stop-color="#A57D24"/>
<stop offset="0.21" stop-color="#D8BD62"/>
<stop offset="0.33" stop-color="#F1DD80"/>
<stop offset="0.52" stop-color="#FBF2A8"/>
<stop offset="0.73" stop-color="#F1DD80"/>
<stop offset="1" stop-color="#A57D24"/>
</linearGradient>
<linearGradient id="paint58_linear_2445_19951" x1="51.6232" y1="104.067" x2="112.643" y2="104.067" gradientUnits="userSpaceOnUse">
<stop stop-color="#A57D24"/>
<stop offset="0.21" stop-color="#D8BD62"/>
<stop offset="0.33" stop-color="#F1DD80"/>
<stop offset="0.52" stop-color="#FBF2A8"/>
<stop offset="0.73" stop-color="#F1DD80"/>
<stop offset="1" stop-color="#A57D24"/>
</linearGradient>
<linearGradient id="paint59_linear_2445_19951" x1="104.848" y1="157.227" x2="117.654" y2="157.227" gradientUnits="userSpaceOnUse">
<stop stop-color="#A57D24"/>
<stop offset="0.21" stop-color="#D8BD62"/>
<stop offset="0.33" stop-color="#F1DD80"/>
<stop offset="0.52" stop-color="#FBF2A8"/>
<stop offset="0.73" stop-color="#F1DD80"/>
<stop offset="1" stop-color="#A57D24"/>
</linearGradient>
</defs>
</svg>
