<svg width="222" height="270" viewBox="0 0 222 270" fill="none" xmlns="http://www.w3.org/2000/svg">
<rect x="1" y="1" width="220" height="268" rx="19" fill="#353535" stroke="url(#paint0_linear_2445_20145)" stroke-width="2" stroke-linecap="round" stroke-linejoin="round"/>
<path d="M125.059 99.664C128.54 93.2138 128.703 78.7138 128.624 73.0132V70.645C117.278 68.8579 105.722 68.8579 94.3761 70.645C94.3761 70.645 93.5004 91.5381 97.8817 99.664C100.724 104.933 105.589 108.735 108.662 110.758C108.355 110.851 108.126 111.133 108.126 111.473V112.54C108.126 112.953 108.464 113.29 108.88 113.29H109.546V123.327L107.68 126.521H105.578L101.749 130.391V136.695H99.8588V138.191H123.084V136.695H121.194V130.329L117.221 126.521H115.263L113.402 123.314H113.394V113.287H113.78C114.197 113.287 114.534 112.953 114.534 112.537V111.47C114.534 111.198 114.387 110.962 114.167 110.832C117.232 108.827 122.184 104.995 125.059 99.664Z" fill="url(#paint1_linear_2445_20145)"/>
<path d="M123.085 138.487H99.8592C99.6933 138.487 99.5573 138.354 99.5573 138.189V136.692C99.5573 136.527 99.6933 136.394 99.8592 136.394H101.447V130.389C101.447 130.31 101.477 130.234 101.534 130.177L105.364 126.307C105.421 126.25 105.497 126.217 105.579 126.217H107.507L109.245 123.243V113.586H108.88C108.298 113.586 107.825 113.116 107.825 112.537V111.47C107.825 111.196 107.931 110.94 108.11 110.753C104.73 108.472 100.3 104.789 97.6128 99.8054C95.7744 96.397 94.6185 90.4465 94.1807 82.1224C93.8543 75.9411 94.0692 70.6832 94.0719 70.6316C94.0773 70.4903 94.1834 70.3708 94.3275 70.3464C105.723 68.5512 117.276 68.5512 128.671 70.3464C128.817 70.3708 128.926 70.4958 128.926 70.6424V73.0107C129.008 78.9041 128.823 93.3199 125.326 99.8027C122.467 105.099 117.537 108.942 114.648 110.873C114.768 111.044 114.836 111.25 114.836 111.467V112.535C114.836 113.113 114.363 113.583 113.781 113.583H113.697V123.216L115.437 126.217H117.221C117.3 126.217 117.373 126.247 117.431 126.301L121.404 130.109C121.464 130.166 121.496 130.242 121.496 130.326V136.394H123.085C123.25 136.394 123.386 136.527 123.386 136.692V138.189C123.386 138.354 123.25 138.487 123.085 138.487ZM100.164 137.887H122.785V136.991H121.197C121.031 136.991 120.895 136.858 120.895 136.692V130.454L117.101 126.82H115.266C115.157 126.82 115.059 126.763 115.005 126.671L113.169 123.504C113.125 123.452 113.098 123.387 113.098 123.314V113.29C113.098 113.124 113.234 112.991 113.4 112.991H113.786C114.036 112.991 114.238 112.79 114.238 112.543V111.475C114.238 111.318 114.156 111.177 114.017 111.093C113.928 111.038 113.873 110.943 113.871 110.843C113.871 110.739 113.92 110.642 114.007 110.587C116.791 108.765 121.896 104.906 124.798 99.5284C128.23 93.1678 128.41 78.8742 128.328 73.0242V70.9086C117.161 69.1759 105.842 69.1759 94.6757 70.9086C94.5968 73.2768 94.1154 92.0407 98.1567 99.5284C100.887 104.591 105.472 108.298 108.839 110.514C108.937 110.579 108.989 110.693 108.973 110.807C108.956 110.921 108.875 111.016 108.763 111.052C108.573 111.109 108.442 111.28 108.442 111.478V112.546C108.442 112.793 108.644 112.994 108.894 112.994H109.56C109.726 112.994 109.862 113.127 109.862 113.292V123.33C109.862 123.385 109.848 123.436 109.821 123.482L107.955 126.676C107.901 126.769 107.803 126.826 107.694 126.826H105.72L102.065 130.519V136.7C102.065 136.866 101.929 136.999 101.763 136.999H100.175V137.895L100.164 137.887Z" fill="url(#paint2_linear_2445_20145)"/>
<path d="M138.18 72.3898C134.617 71.0129 131.019 72.474 129.624 75.8661C128.974 77.4467 128.974 79.1632 129.624 80.5727C130.22 81.8627 131.332 82.835 132.754 83.3103C133.187 83.4542 133.652 83.2234 133.796 82.7943C133.94 82.3652 133.709 81.9008 133.277 81.7568C132.398 81.4635 131.718 80.9339 131.288 80.2115C131.136 79.6629 131.076 79.1224 131.117 78.4842C131.133 78.2208 131.158 77.9546 131.231 77.702C131.68 76.1323 133.306 75.0649 134.903 75.1002C136.997 75.1464 138.177 76.7895 138.683 78.6526C139.238 80.7004 139.129 82.998 138.495 85.1028C137.299 87.5036 135.308 89.842 132.409 92.2808C131.985 92.6366 131.555 92.9869 131.12 93.3291C130.785 93.5926 130.435 93.8479 130.081 94.1032C128.675 95.1243 127.084 96.2786 126.293 98.1797C125.716 99.562 125.817 101.2 126.562 102.566C127.345 104.002 128.738 104.825 130.212 104.825C130.658 104.825 131.112 104.749 131.558 104.592C133.377 103.951 134.968 102.218 134.329 100.268C134.188 99.8391 133.723 99.6028 133.29 99.744C132.858 99.8852 132.621 100.347 132.763 100.776C133.13 101.898 131.74 102.791 131.008 103.049C129.866 103.448 128.634 102.93 128.009 101.784C127.5 100.849 127.427 99.7359 127.813 98.807C128.427 97.3296 129.703 96.4035 131.052 95.4258C131.422 95.1569 131.789 94.888 132.142 94.6137C132.591 94.2607 133.037 93.8995 133.472 93.5328C137.941 89.7741 140.407 86.181 141.237 82.224C141.628 80.3473 142.572 74.0872 138.177 72.3898H138.18Z" fill="url(#paint3_linear_2445_20145)"/>
<path d="M130.213 105.131C128.587 105.131 127.124 104.226 126.3 102.714C125.514 101.272 125.408 99.5334 126.017 98.0695C126.841 96.0924 128.47 94.9082 129.906 93.8653C130.259 93.6073 130.605 93.3575 130.937 93.0968C131.41 92.722 131.829 92.3825 132.218 92.0566C135.081 89.6476 137.045 87.3364 138.217 84.9953C138.851 82.8742 138.913 80.6527 138.394 78.7353C138.062 77.5131 137.167 75.4545 134.899 75.4029C133.373 75.3621 131.921 76.3915 131.524 77.7874C131.462 78.0047 131.437 78.2301 131.421 78.5071C131.383 79.0775 131.432 79.5717 131.57 80.0959C131.965 80.7368 132.587 81.2148 133.376 81.4756C133.964 81.6711 134.282 82.3066 134.086 82.8932C133.991 83.1757 133.79 83.4065 133.52 83.5396C133.251 83.6727 132.946 83.6944 132.661 83.5994C131.157 83.0969 129.982 82.0676 129.351 80.7015C128.666 79.216 128.666 77.4153 129.346 75.7587C130.803 72.209 134.565 70.6746 138.29 72.1167C142.903 73.8983 141.94 80.3539 141.535 82.2903C140.692 86.3152 138.193 89.9599 133.67 93.7649C133.246 94.1206 132.808 94.4764 132.332 94.8512C131.984 95.1255 131.627 95.3835 131.233 95.6714C129.92 96.6274 128.677 97.5263 128.095 98.9277C127.741 99.7751 127.809 100.791 128.277 101.646C128.829 102.659 129.914 103.121 130.912 102.771C131.527 102.553 132.778 101.777 132.481 100.872C132.389 100.587 132.413 100.286 132.549 100.019C132.685 99.7533 132.919 99.5551 133.205 99.4627C133.488 99.3704 133.792 99.3921 134.059 99.5279C134.328 99.6637 134.529 99.8946 134.622 100.18C135.321 102.312 133.618 104.194 131.663 104.878C131.192 105.044 130.706 105.128 130.216 105.128L130.213 105.131ZM134.826 74.8027C134.856 74.8027 134.886 74.8027 134.913 74.8027C136.857 74.8461 138.339 76.2231 138.976 78.5777C139.525 80.6092 139.457 82.9557 138.785 85.1909C138.78 85.2072 138.775 85.2235 138.766 85.237C137.559 87.6596 135.544 90.0414 132.604 92.5128C132.209 92.8442 131.785 93.1891 131.307 93.5666C130.969 93.83 130.618 94.088 130.262 94.3461C128.883 95.3482 127.328 96.478 126.569 98.3004C126.028 99.5985 126.123 101.144 126.825 102.428C127.543 103.746 128.81 104.531 130.208 104.531C130.629 104.531 131.048 104.457 131.453 104.316C133.14 103.724 134.619 102.138 134.04 100.367C133.996 100.234 133.904 100.128 133.779 100.063C133.654 100 133.515 99.9896 133.384 100.033C133.251 100.077 133.142 100.169 133.08 100.291C133.017 100.413 133.006 100.555 133.05 100.688C133.471 101.972 132.082 102.993 131.108 103.338C129.822 103.789 128.44 103.211 127.744 101.934C127.192 100.921 127.113 99.7099 127.534 98.6996C128.182 97.1461 129.49 96.1956 130.874 95.1907C131.241 94.9245 131.606 94.6584 131.954 94.3841C132.427 94.012 132.859 93.6617 133.278 93.3086C137.692 89.5933 140.126 86.0545 140.942 82.1681C141.323 80.3485 142.242 74.2867 138.07 72.6762C134.668 71.3617 131.23 72.7522 129.903 75.9868C129.286 77.4914 129.283 79.1209 129.898 80.4544C130.458 81.6684 131.505 82.5836 132.851 83.0318C132.985 83.0779 133.126 83.0671 133.251 83.0046C133.376 82.9421 133.469 82.8362 133.512 82.7058C133.605 82.4343 133.455 82.1409 133.183 82.0486C132.242 81.7363 131.497 81.1551 131.029 80.3702C131.016 80.3485 131.005 80.3213 130.999 80.2969C130.833 79.6967 130.776 79.1182 130.817 78.4718C130.833 78.2002 130.861 77.9096 130.942 77.6272C131.404 76.0058 133.063 74.8054 134.823 74.8054L134.826 74.8027Z" fill="url(#paint4_linear_2445_20145)"/>
<path d="M96.6062 98.1875C95.8148 96.2864 94.2211 95.1294 92.8178 94.111C92.4642 93.8557 92.1134 93.6004 91.7789 93.3369C91.3437 92.9947 90.914 92.6471 90.4898 92.2886C87.5907 89.8498 85.6 87.5114 84.4033 85.1106C83.7697 83.0058 83.6609 80.7082 84.2157 78.6604C84.7215 76.7973 85.9018 75.1542 87.9959 75.108C89.5923 75.0727 91.2186 76.1374 91.6674 77.7098C91.7408 77.9651 91.7653 78.2286 91.7816 78.492C91.8224 79.1302 91.7626 79.6707 91.6103 80.2193C91.1806 80.9417 90.4979 81.474 89.6222 81.7646C89.1898 81.9086 88.9587 82.373 89.1028 82.8021C89.2469 83.2312 89.712 83.4621 90.1444 83.3181C91.5695 82.8428 92.6818 81.8706 93.2747 80.5805C93.9246 79.171 93.9246 77.4546 93.2747 75.8739C91.8795 72.4818 88.2815 71.0207 84.7188 72.3976C80.3267 74.095 81.2676 80.3524 81.6593 82.2318C82.4887 86.1861 84.9554 89.7792 89.4237 93.5406C89.8616 93.9073 90.3049 94.2685 90.7536 94.6216C91.1044 94.8986 91.4716 95.1647 91.8442 95.4336C93.1931 96.414 94.4686 97.3401 95.0832 98.8149C95.4721 99.7437 95.3987 100.857 94.8874 101.791C94.2619 102.938 93.0299 103.456 91.8877 103.057C91.1561 102.799 89.7637 101.906 90.1335 100.784C90.2749 100.355 90.0383 99.893 89.6059 99.7518C89.1762 99.6106 88.7085 99.8469 88.567 100.276C87.9279 102.226 89.5189 103.959 91.3383 104.6C91.7843 104.757 92.2385 104.833 92.6845 104.833C94.1585 104.833 95.551 104.008 96.3342 102.574C97.0794 101.21 97.18 99.5699 96.6035 98.1875H96.6062Z" fill="url(#paint5_linear_2445_20145)"/>
<path d="M92.69 105.135C92.2005 105.135 91.7137 105.051 91.2432 104.885C89.2878 104.198 87.5881 102.318 88.2843 100.186C88.3767 99.9012 88.578 99.6704 88.8472 99.5346C89.1165 99.3988 89.4183 99.3771 89.7039 99.4694C89.9895 99.5618 90.2206 99.76 90.3566 100.026C90.4926 100.292 90.5171 100.596 90.4246 100.879C90.1282 101.783 91.3792 102.56 91.9938 102.777C92.9919 103.128 94.0743 102.663 94.6264 101.653C95.0941 100.797 95.1621 99.779 94.8086 98.9344C94.2266 97.5357 92.9837 96.634 91.6702 95.6781C91.2758 95.3929 90.9196 95.1322 90.5715 94.8579C90.0928 94.4831 89.655 94.1273 89.2334 93.7715C84.7107 89.9666 82.2114 86.3192 81.3683 82.297C80.9631 80.3606 80.0004 73.905 84.6128 72.1233C88.3359 70.6839 92.0971 72.2157 93.5576 75.7653C94.2375 77.422 94.2375 79.2253 93.5521 80.7082C92.9212 82.0743 91.7463 83.1036 90.2424 83.606C89.9568 83.7011 89.6522 83.6794 89.383 83.5463C89.1138 83.4132 88.9125 83.1851 88.8173 82.8999C88.6188 82.316 88.937 81.6805 89.5271 81.4849C90.3158 81.2215 90.9386 80.7462 91.3329 80.1053C91.4744 79.5811 91.5206 79.0868 91.4825 78.5165C91.4635 78.2395 91.439 78.0113 91.3792 77.7968C90.9821 76.4036 89.5299 75.3634 88.0042 75.415C85.7333 75.4666 84.8413 77.5252 84.5095 78.7473C83.99 80.6647 84.0526 82.8863 84.6862 85.0074C85.8584 87.3485 87.8219 89.657 90.6857 92.0687C91.0773 92.4 91.4988 92.7395 91.9693 93.1089C92.2957 93.3641 92.6356 93.614 92.9783 93.8639C94.4333 94.9203 96.0623 96.1045 96.8891 98.0816C97.4983 99.5455 97.3949 101.281 96.6062 102.726C95.7795 104.238 94.3163 105.143 92.6927 105.143L92.69 105.135ZM89.3504 100.013C89.2715 100.013 89.1899 100.032 89.1165 100.07C88.9914 100.132 88.8989 100.241 88.8554 100.374C88.2761 102.145 89.7556 103.731 91.4417 104.323C91.8469 104.467 92.2685 104.537 92.6873 104.537C94.0879 104.537 95.3525 103.752 96.0705 102.435C96.7721 101.151 96.8673 99.6052 96.3261 98.307C95.5646 96.4847 94.009 95.3549 92.6384 94.3581C92.2685 94.0893 91.9231 93.8367 91.5913 93.576C91.1154 93.2012 90.6911 92.8563 90.2941 92.5222C87.3569 90.0508 85.3417 87.6717 84.1315 85.2464C84.1233 85.2301 84.1179 85.2165 84.1124 85.2002C83.4407 82.9651 83.3727 80.6186 83.922 78.5871C84.5611 76.2325 86.0406 74.8555 87.9851 74.8121C89.7855 74.774 91.4825 75.9826 91.953 77.6311C92.0346 77.9136 92.0618 78.2042 92.0781 78.4758C92.1189 79.1221 92.0618 79.7033 91.8959 80.3008C91.8877 80.3253 91.8769 80.3524 91.866 80.3742C91.3982 81.159 90.6558 81.7375 89.7121 82.0526C89.4401 82.1449 89.2932 82.4382 89.383 82.7098C89.4265 82.8402 89.5217 82.9488 89.6441 83.0085C89.7665 83.0683 89.9106 83.0792 90.0439 83.0357C91.3901 82.5876 92.4371 81.6723 92.9973 80.4583C93.612 79.1249 93.612 77.4953 92.9919 75.9907C91.662 72.7561 88.2272 71.3656 84.8249 72.6801C80.6531 74.2906 81.5723 80.3524 81.953 82.1721C82.7662 86.0585 85.203 89.5972 89.6169 93.3125C90.0357 93.6629 90.4681 94.0159 90.9413 94.388C91.2813 94.6569 91.6321 94.9122 92.021 95.1946C93.4053 96.2022 94.7134 97.1501 95.3607 98.7063C95.7822 99.7193 95.7061 100.928 95.1513 101.941C94.455 103.217 93.0735 103.796 91.7871 103.345C90.8135 103.003 89.4238 101.982 89.8453 100.694C89.8888 100.564 89.878 100.423 89.8154 100.298C89.7529 100.173 89.6441 100.083 89.5108 100.04C89.4564 100.023 89.402 100.013 89.3476 100.013H89.3504Z" fill="url(#paint6_linear_2445_20145)"/>
<path d="M149.704 46.9576C152.725 49.7088 153.266 54.027 153.266 54.027C153.266 54.027 148.912 53.8831 145.891 51.1319C142.869 48.3807 142.328 44.0625 142.328 44.0625C142.328 44.0625 146.682 44.2064 149.704 46.9576Z" fill="url(#paint7_linear_2445_20145)"/>
<path d="M128.461 148.346C125.861 151.679 125.703 155.614 125.738 155.625C125.727 155.674 131.194 154.147 133.65 150.473C136.103 146.844 134.909 143.083 134.944 143.094C134.93 143.129 131.058 145.044 128.461 148.344V148.346Z" fill="url(#paint8_linear_2445_20145)"/>
<path d="M132.29 159.882C127.493 159.068 125.7 155.445 125.703 155.477C125.76 155.494 130.903 154.013 135.333 154.532C139.807 155.075 142.437 157.851 142.437 157.881C142.499 157.894 137.142 160.713 132.293 159.88L132.29 159.882Z" fill="url(#paint9_linear_2445_20145)"/>
<path d="M137.946 144.186C136.159 147.839 136.801 151.66 136.834 151.668C136.828 151.72 141.634 149.335 143.252 145.37C144.876 141.448 143.029 138.01 143.062 138.016C143.054 138.054 139.733 140.563 137.946 144.186Z" fill="url(#paint10_linear_2445_20145)"/>
<path d="M143.809 154.69C139.145 154.703 136.771 151.504 136.773 151.537C136.825 151.545 141.334 149.258 145.634 149.016C149.977 148.788 153.02 151.026 153.023 151.056C153.083 151.061 148.522 154.69 143.809 154.692V154.69Z" fill="url(#paint11_linear_2445_20145)"/>
<path d="M146.139 138.556C145.124 142.396 146.476 145.981 146.506 145.981C146.506 146.03 150.623 142.915 151.447 138.792C152.279 134.715 149.875 131.695 149.905 131.695C149.905 131.733 147.158 134.743 146.139 138.553V138.556Z" fill="url(#paint12_linear_2445_20145)"/>
<path d="M153.727 147.718C149.275 148.525 146.414 145.828 146.422 145.858C146.471 145.858 150.319 142.884 154.412 141.912C158.546 140.948 161.899 142.594 161.907 142.621C161.962 142.615 158.228 146.917 153.729 147.718H153.727Z" fill="url(#paint13_linear_2445_20145)"/>
<path d="M152.973 131.692C152.69 135.595 154.657 138.835 154.686 138.832C154.695 138.881 158.091 135.152 158.162 131.002C158.246 126.893 155.38 124.373 155.41 124.367C155.413 124.405 153.267 127.816 152.976 131.692H152.973Z" fill="url(#paint14_linear_2445_20145)"/>
<path d="M161.973 139.276C157.812 140.824 154.57 138.703 154.578 138.73C154.622 138.722 157.785 135.178 161.592 133.518C165.435 131.861 168.995 132.874 169.006 132.902C169.057 132.888 166.177 137.72 161.973 139.273V139.276Z" fill="url(#paint15_linear_2445_20145)"/>
<path d="M158.396 123.825C158.798 127.676 161.289 130.481 161.314 130.473C161.327 130.519 163.979 126.301 163.34 122.238C162.717 118.216 159.492 116.258 159.519 116.25C159.527 116.288 158.007 120.001 158.396 123.825Z" fill="url(#paint16_linear_2445_20145)"/>
<path d="M168.492 129.627C164.706 131.862 161.182 130.363 161.195 130.388C161.233 130.374 163.689 126.374 167.127 124.084C170.597 121.792 174.255 122.151 174.268 122.175C174.315 122.153 172.319 127.379 168.492 129.625V129.627Z" fill="url(#paint17_linear_2445_20145)"/>
<path d="M162.354 115.186C163.398 118.882 166.314 121.177 166.335 121.166C166.354 121.21 168.234 116.623 166.928 112.755C165.647 108.926 162.161 107.576 162.183 107.562C162.199 107.598 161.326 111.514 162.351 115.183L162.354 115.186Z" fill="url(#paint18_linear_2445_20145)"/>
<path d="M173.219 119.072C169.893 121.927 166.195 121.082 166.211 121.107C166.246 121.088 167.968 116.748 170.951 113.893C173.967 111.031 177.612 110.729 177.628 110.751C177.671 110.724 176.586 116.202 173.219 119.072Z" fill="url(#paint19_linear_2445_20145)"/>
<path d="M164.783 106.013C166.422 109.457 169.659 111.187 169.681 111.171C169.708 111.211 170.782 106.377 168.859 102.803C166.964 99.2615 163.322 98.5554 163.344 98.5391C163.366 98.5717 163.164 102.591 164.783 106.013Z" fill="url(#paint20_linear_2445_20145)"/>
<path d="M176.074 107.888C173.292 111.285 169.525 111.114 169.547 111.133C169.577 111.109 170.542 106.546 172.987 103.2C175.462 99.8408 178.979 98.8875 179 98.9065C179.038 98.8739 178.894 104.466 176.074 107.885V107.888Z" fill="url(#paint21_linear_2445_20145)"/>
<path d="M165.63 96.5412C167.813 99.6481 171.273 100.767 171.292 100.751C171.324 100.786 171.569 95.8296 169.075 92.6358C166.614 89.469 162.926 89.4202 162.945 89.3984C162.973 89.4283 163.47 93.4532 165.63 96.5412Z" fill="url(#paint22_linear_2445_20145)"/>
<path d="M176.997 96.3689C174.846 100.22 171.128 100.725 171.152 100.741C171.177 100.712 171.359 96.043 173.181 92.2924C175.031 88.5228 178.302 86.9448 178.327 86.9611C178.359 86.9231 179.183 92.4906 176.997 96.3689Z" fill="url(#paint23_linear_2445_20145)"/>
<path d="M164.832 87.0057C167.511 89.6998 171.087 90.186 171.104 90.1642C171.145 90.1941 170.527 85.2377 167.514 82.5028C164.539 79.7896 160.913 80.3926 160.93 80.3708C160.965 80.3953 162.183 84.3251 164.832 87.0057Z" fill="url(#paint24_linear_2445_20145)"/>
<path d="M175.923 84.7989C174.489 89.0085 170.935 90.1709 170.962 90.1844C170.984 90.1518 170.355 85.4914 171.468 81.4285C172.602 77.3438 175.509 75.182 175.536 75.1956C175.564 75.1521 177.386 80.5567 175.92 84.7989H175.923Z" fill="url(#paint25_linear_2445_20145)"/>
<path d="M162.336 77.6525C165.458 79.8686 169.04 79.7111 169.053 79.6894C169.1 79.7138 167.596 74.8796 164.115 72.6716C160.677 70.4799 157.229 71.7183 157.242 71.6939C157.283 71.7129 159.249 75.4472 162.336 77.6525Z" fill="url(#paint26_linear_2445_20145)"/>
<path d="M172.79 73.4661C172.167 77.9255 168.89 79.718 168.923 79.7261C168.939 79.6908 167.481 75.1553 167.789 70.886C168.118 66.5922 170.538 63.9062 170.571 63.9144C170.595 63.8682 173.44 68.9686 172.787 73.4661H172.79Z" fill="url(#paint27_linear_2445_20145)"/>
<path d="M158.086 68.6986C161.597 70.3797 165.075 69.5867 165.086 69.5623C165.141 69.5813 162.717 64.9942 158.823 63.3674C154.975 61.7514 151.817 63.5955 151.828 63.5683C151.877 63.5819 154.616 67.0202 158.086 68.6959V68.6986Z" fill="url(#paint28_linear_2445_20145)"/>
<path d="M167.529 62.6593C167.809 67.2518 164.932 69.6227 164.967 69.6282C164.978 69.5901 162.664 65.2936 162.079 60.9347C161.511 56.5486 163.322 53.4117 163.357 53.4144C163.376 53.3656 167.274 58.026 167.529 62.6565V62.6593Z" fill="url(#paint29_linear_2445_20145)"/>
<path d="M152.014 60.4026C155.86 61.5025 159.12 60.0957 159.126 60.0713C159.186 60.0821 155.819 55.8671 151.565 54.8731C147.364 53.8818 144.617 56.2799 144.625 56.2528C144.679 56.2582 148.215 59.3 152.014 60.4026Z" fill="url(#paint30_linear_2445_20145)"/>
<path d="M160.058 52.6695C161.333 57.2675 158.978 60.1572 159.019 60.1572C159.025 60.1192 155.829 56.1784 154.257 51.8521C152.699 47.4958 153.77 44.0005 153.811 44.0005C153.825 43.9489 158.804 48.0281 160.058 52.6695Z" fill="url(#paint31_linear_2445_20145)"/>
<path d="M110.36 156.828L110.436 155.986C117.428 156.619 124.398 155.839 131.151 153.675C137.732 151.565 143.824 148.232 149.261 143.773C160.542 134.517 167.817 121.307 169.745 106.576C171.325 94.515 170.515 83.7656 167.335 74.6294C163.922 64.817 157.847 57.142 149.272 51.8107L149.72 51.0938C158.461 56.5282 164.657 64.3553 168.135 74.3524C171.358 83.6135 172.179 94.4933 170.583 106.688C168.624 121.63 161.243 135.033 149.794 144.427C144.276 148.957 138.089 152.339 131.404 154.481C124.54 156.681 117.458 157.472 110.352 156.831L110.36 156.828Z" fill="url(#paint32_linear_2445_20145)"/>
<path d="M73.2971 46.9576C70.2756 49.7088 69.7344 54.027 69.7344 54.027C69.7344 54.027 74.0885 53.8831 77.1099 51.1319C80.1287 48.3807 80.6726 44.0625 80.6726 44.0625C80.6726 44.0625 76.3185 44.2064 73.2971 46.9576Z" fill="url(#paint33_linear_2445_20145)"/>
<path d="M94.5402 148.346C97.1401 151.679 97.2979 155.614 97.2625 155.625C97.2734 155.674 91.807 154.147 89.3512 150.473C86.8981 146.844 88.092 143.083 88.0567 143.094C88.0703 143.129 91.943 145.044 94.5402 148.344V148.346Z" fill="url(#paint34_linear_2445_20145)"/>
<path d="M90.7099 159.882C95.5072 159.068 97.2995 155.445 97.2967 155.477C97.2396 155.494 92.0969 154.013 87.6666 154.532C83.1929 155.075 80.563 157.851 80.563 157.881C80.5005 157.894 85.8581 160.713 90.7071 159.88L90.7099 159.882Z" fill="url(#paint35_linear_2445_20145)"/>
<path d="M85.0491 144.186C86.8359 147.839 86.194 151.66 86.1614 151.668C86.1668 151.72 81.3613 149.335 79.7432 145.37C78.1196 141.448 79.9662 138.01 79.9335 138.016C79.9417 138.054 83.2623 140.563 85.0491 144.186Z" fill="url(#paint36_linear_2445_20145)"/>
<path d="M79.1911 154.69C83.8553 154.703 86.2295 151.504 86.2267 151.537C86.1751 151.545 81.666 149.258 77.3663 149.016C73.0231 148.788 69.9799 151.026 69.9771 151.056C69.9173 151.061 74.4781 154.69 79.1911 154.692V154.69Z" fill="url(#paint37_linear_2445_20145)"/>
<path d="M76.8667 138.556C77.8811 142.396 76.5295 145.981 76.4995 145.981C76.4995 146.03 72.3821 142.915 71.558 138.792C70.7258 134.715 73.13 131.695 73.1 131.695C73.1 131.733 75.8468 134.743 76.8667 138.553V138.556Z" fill="url(#paint38_linear_2445_20145)"/>
<path d="M69.2788 147.718C73.7308 148.525 76.5918 145.828 76.5836 145.858C76.5347 145.858 72.6865 142.884 68.5935 141.912C64.4597 140.948 61.1064 142.594 61.0982 142.621C61.0439 142.615 64.7779 146.917 69.2761 147.718H69.2788Z" fill="url(#paint39_linear_2445_20145)"/>
<path d="M70.0268 131.692C70.3096 135.595 68.3433 138.835 68.3134 138.832C68.3053 138.881 64.9085 135.152 64.8378 131.002C64.7535 126.893 67.6199 124.373 67.59 124.367C67.5873 124.405 69.733 127.816 70.024 131.692H70.0268Z" fill="url(#paint40_linear_2445_20145)"/>
<path d="M61.0258 139.276C65.1867 140.824 68.4285 138.703 68.4203 138.73C68.3768 138.722 65.2139 135.178 61.4065 133.518C57.5637 131.861 54.0038 132.874 53.9929 132.902C53.9412 132.888 56.8213 137.72 61.0258 139.273V139.276Z" fill="url(#paint41_linear_2445_20145)"/>
<path d="M64.6022 123.825C64.1997 127.676 61.7086 130.481 61.6841 130.473C61.6705 130.519 59.0189 126.301 59.658 122.238C60.2808 118.216 63.5062 116.258 63.479 116.25C63.4709 116.288 64.9911 120.001 64.6022 123.825Z" fill="url(#paint42_linear_2445_20145)"/>
<path d="M54.5077 129.627C58.2934 131.862 61.818 130.363 61.8044 130.388C61.7636 130.374 59.3105 126.374 55.8729 124.084C52.4027 121.792 48.7449 122.151 48.7313 122.175C48.685 122.153 50.6812 127.379 54.5077 129.625V129.627Z" fill="url(#paint43_linear_2445_20145)"/>
<path d="M60.6526 115.186C59.6083 118.882 56.6929 121.177 56.6711 121.166C56.6521 121.21 54.7729 116.623 56.0783 112.755C57.3592 108.926 60.8457 107.576 60.824 107.562C60.8076 107.598 61.6806 111.514 60.6553 115.183L60.6526 115.186Z" fill="url(#paint44_linear_2445_20145)"/>
<path d="M49.7886 119.072C53.1147 121.927 56.8133 121.082 56.797 121.107C56.7617 121.088 55.0402 116.748 52.0568 113.893C49.0407 111.031 45.3965 110.729 45.3802 110.751C45.3366 110.724 46.4218 116.202 49.7886 119.072Z" fill="url(#paint45_linear_2445_20145)"/>
<path d="M58.2176 106.013C56.5777 109.457 53.3414 111.187 53.3196 111.171C53.2924 111.211 52.2182 106.377 54.1409 102.803C56.0365 99.2615 59.678 98.5554 59.6563 98.5391C59.6345 98.5717 59.8358 102.591 58.2176 106.013Z" fill="url(#paint46_linear_2445_20145)"/>
<path d="M46.9307 107.893C49.7129 111.291 53.4768 111.119 53.4578 111.138C53.4279 111.114 52.4624 106.551 50.0175 103.205C47.5399 99.8486 44.0235 98.8953 44.0045 98.9143C43.9664 98.8817 44.1105 104.474 46.9307 107.893Z" fill="url(#paint47_linear_2445_20145)"/>
<path d="M57.3711 96.5412C55.1873 99.6481 51.728 100.767 51.7089 100.751C51.6763 100.786 51.4315 95.8296 53.9254 92.6358C56.3866 89.469 60.0744 89.4202 60.0554 89.3984C60.0282 89.4283 59.5305 93.4532 57.3711 96.5412Z" fill="url(#paint48_linear_2445_20145)"/>
<path d="M46.0049 96.3689C48.1561 100.22 51.8738 100.725 51.8493 100.741C51.8248 100.712 51.6426 96.043 49.8205 92.2924C47.9711 88.5228 44.6995 86.9448 44.675 86.9611C44.6424 86.9231 43.8183 92.4906 46.0049 96.3689Z" fill="url(#paint49_linear_2445_20145)"/>
<path d="M58.1717 87.0057C55.4929 89.6998 51.9166 90.186 51.9003 90.1642C51.8595 90.1941 52.4768 85.2377 55.4902 82.5028C58.4654 79.7896 62.0906 80.3926 62.0743 80.3708C62.0389 80.3953 60.8206 84.3251 58.1717 87.0057Z" fill="url(#paint50_linear_2445_20145)"/>
<path d="M47.0749 84.7989C48.5081 89.0085 52.0626 90.1709 52.0354 90.1844C52.0137 90.1518 52.6419 85.4914 51.5296 81.4285C50.3955 77.3438 47.4883 75.182 47.4611 75.1956C47.4339 75.1521 45.6117 80.5567 47.0776 84.7989H47.0749Z" fill="url(#paint51_linear_2445_20145)"/>
<path d="M60.6638 77.6525C57.5417 79.8686 53.9599 79.7111 53.9463 79.6894C53.9001 79.7138 55.404 74.8796 58.8851 72.6716C62.3227 70.4799 65.7712 71.7183 65.7576 71.6939C65.7168 71.7129 63.7505 75.4472 60.6638 77.6525Z" fill="url(#paint52_linear_2445_20145)"/>
<path d="M50.2117 73.4661C50.8345 77.9255 54.1116 79.718 54.079 79.7261C54.0627 79.6908 55.5204 75.1553 55.2131 70.886C54.884 66.5922 52.4636 63.9062 52.4309 63.9144C52.4065 63.8682 49.5618 68.9686 50.2145 73.4661H50.2117Z" fill="url(#paint53_linear_2445_20145)"/>
<path d="M64.9152 68.6986C61.4042 70.3797 57.9258 69.5867 57.915 69.5623C57.8606 69.5813 60.2837 64.9942 64.1782 63.3674C68.0264 61.7514 71.1839 63.5955 71.173 63.5683C71.124 63.5819 68.3854 67.0202 64.9152 68.6959V68.6986Z" fill="url(#paint54_linear_2445_20145)"/>
<path d="M55.4801 62.6593C55.2 67.2518 58.0774 69.6227 58.042 69.6282C58.0311 69.5901 60.3455 65.2936 60.9302 60.9347C61.4986 56.5486 59.6874 53.4117 59.652 53.4144C59.633 53.3656 55.7358 58.026 55.4801 62.6565V62.6593Z" fill="url(#paint55_linear_2445_20145)"/>
<path d="M70.9836 60.4026C67.1381 61.5025 63.8773 60.0957 63.8719 60.0713C63.812 60.0821 67.1789 55.8671 71.4324 54.8731C75.6341 53.8818 78.3809 56.2799 78.3728 56.2528C78.3184 56.2582 74.7829 59.3 70.9836 60.4026Z" fill="url(#paint56_linear_2445_20145)"/>
<path d="M62.9377 52.6695C61.6622 57.2675 64.0174 60.1572 63.9766 60.1572C63.9712 60.1192 67.1667 56.1784 68.7386 51.8521C70.2969 47.4958 69.2227 44.0005 69.1846 44.0005C69.171 43.9489 64.1914 48.0281 62.9377 52.6695Z" fill="url(#paint57_linear_2445_20145)"/>
<path d="M112.643 156.828L112.567 155.986C105.575 156.619 98.6043 155.839 91.8515 153.675C85.2701 151.565 79.1782 148.232 73.7417 143.773C62.4608 134.517 55.1859 121.307 53.2577 106.576C51.6776 94.515 52.4881 83.7656 55.6673 74.6294C59.0804 64.817 65.1559 57.142 73.7308 51.8107L73.2821 51.0938C64.5413 56.5282 58.3461 64.3553 54.8677 74.3524C51.645 83.6135 50.8237 94.4933 52.4201 106.688C54.3782 121.63 61.7592 135.033 73.2087 144.427C78.7267 148.957 84.9138 152.339 91.5986 154.481C98.4629 156.681 105.545 157.472 112.651 156.831L112.643 156.828Z" fill="url(#paint58_linear_2445_20145)"/>
<path d="M111.252 152.523L104.848 157.227L111.252 161.928L117.654 157.227L111.252 152.523Z" fill="url(#paint59_linear_2445_20145)"/>
<path d="M50.1348 193.89V192.17L56.8548 182.53H59.6148V191.91H61.4748V193.89H59.6148V196.93H57.3748V193.89H50.1348ZM57.4748 184.85L52.7548 191.91H57.4748V184.85ZM64.5841 197.07C64.1707 197.07 63.8241 196.93 63.5441 196.65C63.2641 196.37 63.1241 196.023 63.1241 195.61C63.1241 195.196 63.2641 194.85 63.5441 194.57C63.8241 194.29 64.1707 194.15 64.5841 194.15C64.9841 194.15 65.3241 194.29 65.6041 194.57C65.8841 194.85 66.0241 195.196 66.0241 195.61C66.0241 196.023 65.8841 196.37 65.6041 196.65C65.3241 196.93 64.9841 197.07 64.5841 197.07ZM71.0283 192.97C71.1616 193.636 71.4483 194.143 71.8883 194.49C72.3283 194.836 72.9216 195.01 73.6683 195.01C74.6149 195.01 75.3083 194.636 75.7483 193.89C76.1883 193.143 76.4083 191.87 76.4083 190.07C76.0883 190.523 75.6349 190.876 75.0483 191.13C74.4749 191.37 73.8483 191.49 73.1683 191.49C72.3016 191.49 71.5149 191.316 70.8083 190.97C70.1016 190.61 69.5416 190.083 69.1283 189.39C68.7283 188.683 68.5283 187.83 68.5283 186.83C68.5283 185.363 68.9549 184.196 69.8083 183.33C70.6749 182.45 71.8616 182.01 73.3683 182.01C75.1816 182.01 76.4683 182.616 77.2283 183.83C78.0016 185.03 78.3883 186.876 78.3883 189.37C78.3883 191.09 78.2416 192.496 77.9483 193.59C77.6683 194.683 77.1749 195.51 76.4683 196.07C75.7616 196.63 74.7816 196.91 73.5283 196.91C72.1016 196.91 71.0016 196.536 70.2283 195.79C69.4549 195.043 69.0216 194.103 68.9283 192.97H71.0283ZM73.5683 189.57C74.3683 189.57 74.9949 189.323 75.4483 188.83C75.9149 188.323 76.1483 187.656 76.1483 186.83C76.1483 185.91 75.9016 185.196 75.4083 184.69C74.9283 184.17 74.2683 183.91 73.4283 183.91C72.5883 183.91 71.9216 184.176 71.4283 184.71C70.9483 185.23 70.7083 185.916 70.7083 186.77C70.7083 187.583 70.9416 188.256 71.4083 188.79C71.8883 189.31 72.6083 189.57 73.5683 189.57ZM93.5989 196.93L90.3989 191.37H88.6589V196.93H86.3789V183.03H91.1789C92.2456 183.03 93.1456 183.216 93.8789 183.59C94.6256 183.963 95.1789 184.463 95.5389 185.09C95.9122 185.716 96.0989 186.416 96.0989 187.19C96.0989 188.096 95.8322 188.923 95.2989 189.67C94.7789 190.403 93.9722 190.903 92.8789 191.17L96.3189 196.93H93.5989ZM88.6589 189.55H91.1789C92.0322 189.55 92.6722 189.336 93.0989 188.91C93.5389 188.483 93.7589 187.91 93.7589 187.19C93.7589 186.47 93.5456 185.91 93.1189 185.51C92.6922 185.096 92.0456 184.89 91.1789 184.89H88.6589V189.55ZM98.2556 191.37C98.2556 190.263 98.4823 189.283 98.9356 188.43C99.4023 187.576 100.029 186.916 100.816 186.45C101.616 185.97 102.496 185.73 103.456 185.73C104.322 185.73 105.076 185.903 105.716 186.25C106.369 186.583 106.889 187.003 107.276 187.51V185.91H109.576V196.93H107.276V195.29C106.889 195.81 106.362 196.243 105.696 196.59C105.029 196.936 104.269 197.11 103.416 197.11C102.469 197.11 101.602 196.87 100.816 196.39C100.029 195.896 99.4023 195.216 98.9356 194.35C98.4823 193.47 98.2556 192.476 98.2556 191.37ZM107.276 191.41C107.276 190.65 107.116 189.99 106.796 189.43C106.489 188.87 106.082 188.443 105.576 188.15C105.069 187.856 104.522 187.71 103.936 187.71C103.349 187.71 102.802 187.856 102.296 188.15C101.789 188.43 101.376 188.85 101.056 189.41C100.749 189.956 100.596 190.61 100.596 191.37C100.596 192.13 100.749 192.796 101.056 193.37C101.376 193.943 101.789 194.383 102.296 194.69C102.816 194.983 103.362 195.13 103.936 195.13C104.522 195.13 105.069 194.983 105.576 194.69C106.082 194.396 106.489 193.97 106.796 193.41C107.116 192.836 107.276 192.17 107.276 191.41ZM115.23 187.77V193.87C115.23 194.283 115.324 194.583 115.51 194.77C115.71 194.943 116.044 195.03 116.51 195.03H117.91V196.93H116.11C115.084 196.93 114.297 196.69 113.75 196.21C113.204 195.73 112.93 194.95 112.93 193.87V187.77H111.63V185.91H112.93V183.17H115.23V185.91H117.91V187.77H115.23ZM121.172 184.45C120.758 184.45 120.412 184.31 120.132 184.03C119.852 183.75 119.712 183.403 119.712 182.99C119.712 182.576 119.852 182.23 120.132 181.95C120.412 181.67 120.758 181.53 121.172 181.53C121.572 181.53 121.912 181.67 122.192 181.95C122.472 182.23 122.612 182.576 122.612 182.99C122.612 183.403 122.472 183.75 122.192 184.03C121.912 184.31 121.572 184.45 121.172 184.45ZM122.292 185.91V196.93H120.012V185.91H122.292ZM130.845 185.73C131.712 185.73 132.485 185.91 133.165 186.27C133.858 186.63 134.398 187.163 134.785 187.87C135.172 188.576 135.365 189.43 135.365 190.43V196.93H133.105V190.77C133.105 189.783 132.858 189.03 132.365 188.51C131.872 187.976 131.198 187.71 130.345 187.71C129.492 187.71 128.812 187.976 128.305 188.51C127.812 189.03 127.565 189.783 127.565 190.77V196.93H125.285V185.91H127.565V187.17C127.938 186.716 128.412 186.363 128.985 186.11C129.572 185.856 130.192 185.73 130.845 185.73ZM142.713 185.73C143.567 185.73 144.32 185.903 144.973 186.25C145.64 186.583 146.16 187.003 146.533 187.51V185.91H148.833V197.11C148.833 198.123 148.62 199.023 148.193 199.81C147.767 200.61 147.147 201.236 146.333 201.69C145.533 202.143 144.573 202.37 143.453 202.37C141.96 202.37 140.72 202.016 139.733 201.31C138.747 200.616 138.187 199.67 138.053 198.47H140.313C140.487 199.043 140.853 199.503 141.413 199.85C141.987 200.21 142.667 200.39 143.453 200.39C144.373 200.39 145.113 200.11 145.673 199.55C146.247 198.99 146.533 198.176 146.533 197.11V195.27C146.147 195.79 145.62 196.23 144.953 196.59C144.3 196.936 143.553 197.11 142.713 197.11C141.753 197.11 140.873 196.87 140.073 196.39C139.287 195.896 138.66 195.216 138.193 194.35C137.74 193.47 137.513 192.476 137.513 191.37C137.513 190.263 137.74 189.283 138.193 188.43C138.66 187.576 139.287 186.916 140.073 186.45C140.873 185.97 141.753 185.73 142.713 185.73ZM146.533 191.41C146.533 190.65 146.373 189.99 146.053 189.43C145.747 188.87 145.34 188.443 144.833 188.15C144.327 187.856 143.78 187.71 143.193 187.71C142.607 187.71 142.06 187.856 141.553 188.15C141.047 188.43 140.633 188.85 140.313 189.41C140.007 189.956 139.853 190.61 139.853 191.37C139.853 192.13 140.007 192.796 140.313 193.37C140.633 193.943 141.047 194.383 141.553 194.69C142.073 194.983 142.62 195.13 143.193 195.13C143.78 195.13 144.327 194.983 144.833 194.69C145.34 194.396 145.747 193.97 146.053 193.41C146.373 192.836 146.533 192.17 146.533 191.41ZM158.183 184.45C157.77 184.45 157.423 184.31 157.143 184.03C156.863 183.75 156.723 183.403 156.723 182.99C156.723 182.576 156.863 182.23 157.143 181.95C157.423 181.67 157.77 181.53 158.183 181.53C158.583 181.53 158.923 181.67 159.203 181.95C159.483 182.23 159.623 182.576 159.623 182.99C159.623 183.403 159.483 183.75 159.203 184.03C158.923 184.31 158.583 184.45 158.183 184.45ZM159.303 185.91V196.93H157.023V185.91H159.303ZM167.857 185.73C168.724 185.73 169.497 185.91 170.177 186.27C170.87 186.63 171.41 187.163 171.797 187.87C172.184 188.576 172.377 189.43 172.377 190.43V196.93H170.117V190.77C170.117 189.783 169.87 189.03 169.377 188.51C168.884 187.976 168.21 187.71 167.357 187.71C166.504 187.71 165.824 187.976 165.317 188.51C164.824 189.03 164.577 189.783 164.577 190.77V196.93H162.297V185.91H164.577V187.17C164.95 186.716 165.424 186.363 165.997 186.11C166.584 185.856 167.204 185.73 167.857 185.73ZM43.7338 211.03C43.3738 210.336 42.8738 209.816 42.2338 209.47C41.5938 209.11 40.8538 208.93 40.0138 208.93C39.0938 208.93 38.2738 209.136 37.5538 209.55C36.8338 209.963 36.2672 210.55 35.8538 211.31C35.4538 212.07 35.2538 212.95 35.2538 213.95C35.2538 214.95 35.4538 215.836 35.8538 216.61C36.2672 217.37 36.8338 217.956 37.5538 218.37C38.2738 218.783 39.0938 218.99 40.0138 218.99C41.2538 218.99 42.2605 218.643 43.0338 217.95C43.8072 217.256 44.2805 216.316 44.4538 215.13H39.2338V213.31H46.8938V215.09C46.7472 216.17 46.3605 217.163 45.7338 218.07C45.1205 218.976 44.3138 219.703 43.3138 220.25C42.3272 220.783 41.2272 221.05 40.0138 221.05C38.7072 221.05 37.5138 220.75 36.4338 220.15C35.3538 219.536 34.4938 218.69 33.8538 217.61C33.2272 216.53 32.9138 215.31 32.9138 213.95C32.9138 212.59 33.2272 211.37 33.8538 210.29C34.4938 209.21 35.3538 208.37 36.4338 207.77C37.5272 207.156 38.7205 206.85 40.0138 206.85C41.4938 206.85 42.8072 207.216 43.9538 207.95C45.1138 208.67 45.9538 209.696 46.4738 211.03H43.7338ZM53.9226 221.11C52.8826 221.11 51.9426 220.876 51.1026 220.41C50.2626 219.93 49.6026 219.263 49.1226 218.41C48.6426 217.543 48.4026 216.543 48.4026 215.41C48.4026 214.29 48.6492 213.296 49.1426 212.43C49.6359 211.563 50.3092 210.896 51.1626 210.43C52.0159 209.963 52.9692 209.73 54.0226 209.73C55.0759 209.73 56.0292 209.963 56.8826 210.43C57.7359 210.896 58.4092 211.563 58.9026 212.43C59.3959 213.296 59.6426 214.29 59.6426 215.41C59.6426 216.53 59.3892 217.523 58.8826 218.39C58.3759 219.256 57.6826 219.93 56.8026 220.41C55.9359 220.876 54.9759 221.11 53.9226 221.11ZM53.9226 219.13C54.5092 219.13 55.0559 218.99 55.5626 218.71C56.0826 218.43 56.5026 218.01 56.8226 217.45C57.1426 216.89 57.3026 216.21 57.3026 215.41C57.3026 214.61 57.1492 213.936 56.8426 213.39C56.5359 212.83 56.1292 212.41 55.6226 212.13C55.1159 211.85 54.5692 211.71 53.9826 211.71C53.3959 211.71 52.8492 211.85 52.3426 212.13C51.8492 212.41 51.4559 212.83 51.1626 213.39C50.8692 213.936 50.7226 214.61 50.7226 215.41C50.7226 216.596 51.0226 217.516 51.6226 218.17C52.2359 218.81 53.0026 219.13 53.9226 219.13ZM66.6765 221.11C65.6365 221.11 64.6965 220.876 63.8565 220.41C63.0165 219.93 62.3565 219.263 61.8765 218.41C61.3965 217.543 61.1565 216.543 61.1565 215.41C61.1565 214.29 61.4032 213.296 61.8965 212.43C62.3898 211.563 63.0632 210.896 63.9165 210.43C64.7698 209.963 65.7232 209.73 66.7765 209.73C67.8298 209.73 68.7832 209.963 69.6365 210.43C70.4898 210.896 71.1632 211.563 71.6565 212.43C72.1498 213.296 72.3965 214.29 72.3965 215.41C72.3965 216.53 72.1432 217.523 71.6365 218.39C71.1298 219.256 70.4365 219.93 69.5565 220.41C68.6898 220.876 67.7298 221.11 66.6765 221.11ZM66.6765 219.13C67.2632 219.13 67.8098 218.99 68.3165 218.71C68.8365 218.43 69.2565 218.01 69.5765 217.45C69.8965 216.89 70.0565 216.21 70.0565 215.41C70.0565 214.61 69.9032 213.936 69.5965 213.39C69.2898 212.83 68.8832 212.41 68.3765 212.13C67.8698 211.85 67.3232 211.71 66.7365 211.71C66.1498 211.71 65.6032 211.85 65.0965 212.13C64.6032 212.41 64.2098 212.83 63.9165 213.39C63.6232 213.936 63.4765 214.61 63.4765 215.41C63.4765 216.596 63.7765 217.516 64.3765 218.17C64.9898 218.81 65.7565 219.13 66.6765 219.13ZM79.0904 209.73C79.9437 209.73 80.6971 209.903 81.3504 210.25C82.0171 210.583 82.5371 211.003 82.9104 211.51V209.91H85.2104V221.11C85.2104 222.123 84.9971 223.023 84.5704 223.81C84.1437 224.61 83.5237 225.236 82.7104 225.69C81.9104 226.143 80.9504 226.37 79.8304 226.37C78.3371 226.37 77.0971 226.016 76.1104 225.31C75.1237 224.616 74.5637 223.67 74.4304 222.47H76.6904C76.8637 223.043 77.2304 223.503 77.7904 223.85C78.3637 224.21 79.0437 224.39 79.8304 224.39C80.7504 224.39 81.4904 224.11 82.0504 223.55C82.6237 222.99 82.9104 222.176 82.9104 221.11V219.27C82.5237 219.79 81.9971 220.23 81.3304 220.59C80.6771 220.936 79.9304 221.11 79.0904 221.11C78.1304 221.11 77.2504 220.87 76.4504 220.39C75.6637 219.896 75.0371 219.216 74.5704 218.35C74.1171 217.47 73.8904 216.476 73.8904 215.37C73.8904 214.263 74.1171 213.283 74.5704 212.43C75.0371 211.576 75.6637 210.916 76.4504 210.45C77.2504 209.97 78.1304 209.73 79.0904 209.73ZM82.9104 215.41C82.9104 214.65 82.7504 213.99 82.4304 213.43C82.1237 212.87 81.7171 212.443 81.2104 212.15C80.7037 211.856 80.1571 211.71 79.5704 211.71C78.9837 211.71 78.4371 211.856 77.9304 212.15C77.4237 212.43 77.0104 212.85 76.6904 213.41C76.3837 213.956 76.2304 214.61 76.2304 215.37C76.2304 216.13 76.3837 216.796 76.6904 217.37C77.0104 217.943 77.4237 218.383 77.9304 218.69C78.4504 218.983 78.9971 219.13 79.5704 219.13C80.1571 219.13 80.7037 218.983 81.2104 218.69C81.7171 218.396 82.1237 217.97 82.4304 217.41C82.7504 216.836 82.9104 216.17 82.9104 215.41ZM90.4851 206.13V220.93H88.2051V206.13H90.4851ZM103.579 215.15C103.579 215.563 103.552 215.936 103.499 216.27H95.0785C95.1452 217.15 95.4718 217.856 96.0585 218.39C96.6452 218.923 97.3652 219.19 98.2185 219.19C99.4452 219.19 100.312 218.676 100.819 217.65H103.279C102.945 218.663 102.339 219.496 101.459 220.15C100.592 220.79 99.5118 221.11 98.2185 221.11C97.1652 221.11 96.2185 220.876 95.3785 220.41C94.5518 219.93 93.8985 219.263 93.4185 218.41C92.9518 217.543 92.7185 216.543 92.7185 215.41C92.7185 214.276 92.9452 213.283 93.3985 212.43C93.8652 211.563 94.5118 210.896 95.3385 210.43C96.1785 209.963 97.1385 209.73 98.2185 209.73C99.2585 209.73 100.185 209.956 100.999 210.41C101.812 210.863 102.445 211.503 102.899 212.33C103.352 213.143 103.579 214.083 103.579 215.15ZM101.199 214.43C101.185 213.59 100.885 212.916 100.299 212.41C99.7118 211.903 98.9852 211.65 98.1185 211.65C97.3318 211.65 96.6585 211.903 96.0985 212.41C95.5385 212.903 95.2052 213.576 95.0985 214.43H101.199ZM118.238 220.93L115.038 215.37H113.298V220.93H111.018V207.03H115.818C116.884 207.03 117.784 207.216 118.518 207.59C119.264 207.963 119.818 208.463 120.178 209.09C120.551 209.716 120.738 210.416 120.738 211.19C120.738 212.096 120.471 212.923 119.938 213.67C119.418 214.403 118.611 214.903 117.518 215.17L120.958 220.93H118.238ZM113.298 213.55H115.818C116.671 213.55 117.311 213.336 117.738 212.91C118.178 212.483 118.398 211.91 118.398 211.19C118.398 210.47 118.184 209.91 117.758 209.51C117.331 209.096 116.684 208.89 115.818 208.89H113.298V213.55ZM133.754 215.15C133.754 215.563 133.728 215.936 133.674 216.27H125.254C125.321 217.15 125.648 217.856 126.234 218.39C126.821 218.923 127.541 219.19 128.394 219.19C129.621 219.19 130.488 218.676 130.994 217.65H133.454C133.121 218.663 132.514 219.496 131.634 220.15C130.768 220.79 129.688 221.11 128.394 221.11C127.341 221.11 126.394 220.876 125.554 220.41C124.728 219.93 124.074 219.263 123.594 218.41C123.128 217.543 122.894 216.543 122.894 215.41C122.894 214.276 123.121 213.283 123.574 212.43C124.041 211.563 124.688 210.896 125.514 210.43C126.354 209.963 127.314 209.73 128.394 209.73C129.434 209.73 130.361 209.956 131.174 210.41C131.988 210.863 132.621 211.503 133.074 212.33C133.528 213.143 133.754 214.083 133.754 215.15ZM131.374 214.43C131.361 213.59 131.061 212.916 130.474 212.41C129.888 211.903 129.161 211.65 128.294 211.65C127.508 211.65 126.834 211.903 126.274 212.41C125.714 212.903 125.381 213.576 125.274 214.43H131.374ZM140.258 218.89L143.378 209.91H145.798L141.598 220.93H138.878L134.698 209.91H137.138L140.258 218.89ZM148.681 208.45C148.268 208.45 147.921 208.31 147.641 208.03C147.361 207.75 147.221 207.403 147.221 206.99C147.221 206.576 147.361 206.23 147.641 205.95C147.921 205.67 148.268 205.53 148.681 205.53C149.081 205.53 149.421 205.67 149.701 205.95C149.981 206.23 150.121 206.576 150.121 206.99C150.121 207.403 149.981 207.75 149.701 208.03C149.421 208.31 149.081 208.45 148.681 208.45ZM149.801 209.91V220.93H147.521V209.91H149.801ZM162.895 215.15C162.895 215.563 162.868 215.936 162.815 216.27H154.395C154.462 217.15 154.788 217.856 155.375 218.39C155.962 218.923 156.682 219.19 157.535 219.19C158.762 219.19 159.628 218.676 160.135 217.65H162.595C162.262 218.663 161.655 219.496 160.775 220.15C159.908 220.79 158.828 221.11 157.535 221.11C156.482 221.11 155.535 220.876 154.695 220.41C153.868 219.93 153.215 219.263 152.735 218.41C152.268 217.543 152.035 216.543 152.035 215.41C152.035 214.276 152.262 213.283 152.715 212.43C153.182 211.563 153.828 210.896 154.655 210.43C155.495 209.963 156.455 209.73 157.535 209.73C158.575 209.73 159.502 209.956 160.315 210.41C161.128 210.863 161.762 211.503 162.215 212.33C162.668 213.143 162.895 214.083 162.895 215.15ZM160.515 214.43C160.502 213.59 160.202 212.916 159.615 212.41C159.028 211.903 158.302 211.65 157.435 211.65C156.648 211.65 155.975 211.903 155.415 212.41C154.855 212.903 154.522 213.576 154.415 214.43H160.515ZM179.939 209.91L176.519 220.93H174.119L171.899 212.79L169.679 220.93H167.279L163.839 209.91H166.159L168.459 218.77L170.799 209.91H173.179L175.419 218.73L177.699 209.91H179.939ZM185.643 221.11C184.776 221.11 183.996 220.956 183.303 220.65C182.623 220.33 182.083 219.903 181.683 219.37C181.283 218.823 181.069 218.216 181.043 217.55H183.403C183.443 218.016 183.663 218.41 184.063 218.73C184.476 219.036 184.989 219.19 185.603 219.19C186.243 219.19 186.736 219.07 187.083 218.83C187.443 218.576 187.623 218.256 187.623 217.87C187.623 217.456 187.423 217.15 187.023 216.95C186.636 216.75 186.016 216.53 185.163 216.29C184.336 216.063 183.663 215.843 183.143 215.63C182.623 215.416 182.169 215.09 181.783 214.65C181.409 214.21 181.223 213.63 181.223 212.91C181.223 212.323 181.396 211.79 181.743 211.31C182.089 210.816 182.583 210.43 183.223 210.15C183.876 209.87 184.623 209.73 185.463 209.73C186.716 209.73 187.723 210.05 188.483 210.69C189.256 211.316 189.669 212.176 189.723 213.27H187.443C187.403 212.776 187.203 212.383 186.843 212.09C186.483 211.796 185.996 211.65 185.383 211.65C184.783 211.65 184.323 211.763 184.003 211.99C183.683 212.216 183.523 212.516 183.523 212.89C183.523 213.183 183.629 213.43 183.843 213.63C184.056 213.83 184.316 213.99 184.623 214.11C184.929 214.216 185.383 214.356 185.983 214.53C186.783 214.743 187.436 214.963 187.943 215.19C188.463 215.403 188.909 215.723 189.283 216.15C189.656 216.576 189.849 217.143 189.863 217.85C189.863 218.476 189.689 219.036 189.343 219.53C188.996 220.023 188.503 220.41 187.863 220.69C187.236 220.97 186.496 221.11 185.643 221.11Z" fill="white"/>
<defs>
<linearGradient id="paint0_linear_2445_20145" x1="111" y1="270" x2="111" y2="0" gradientUnits="userSpaceOnUse">
<stop stop-color="#868686"/>
<stop offset="1" stop-color="#434343"/>
</linearGradient>
<linearGradient id="paint1_linear_2445_20145" x1="94.3027" y1="103.746" x2="128.635" y2="103.746" gradientUnits="userSpaceOnUse">
<stop stop-color="#A57D24"/>
<stop offset="0.21" stop-color="#D8BD62"/>
<stop offset="0.33" stop-color="#F1DD80"/>
<stop offset="0.52" stop-color="#FBF2A8"/>
<stop offset="0.73" stop-color="#F1DD80"/>
<stop offset="1" stop-color="#A57D24"/>
</linearGradient>
<linearGradient id="paint2_linear_2445_20145" x1="87.1886" y1="77.3968" x2="135.721" y2="125.996" gradientUnits="userSpaceOnUse">
<stop stop-color="#A57D24"/>
<stop offset="0.21" stop-color="#D8BD62"/>
<stop offset="0.33" stop-color="#F1DD80"/>
<stop offset="0.52" stop-color="#FBF2A8"/>
<stop offset="0.73" stop-color="#F1DD80"/>
<stop offset="1" stop-color="#A57D24"/>
</linearGradient>
<linearGradient id="paint3_linear_2445_20145" x1="125.923" y1="88.351" x2="141.601" y2="88.351" gradientUnits="userSpaceOnUse">
<stop stop-color="#A57D24"/>
<stop offset="0.21" stop-color="#D8BD62"/>
<stop offset="0.33" stop-color="#F1DD80"/>
<stop offset="0.52" stop-color="#FBF2A8"/>
<stop offset="0.73" stop-color="#F1DD80"/>
<stop offset="1" stop-color="#A57D24"/>
</linearGradient>
<linearGradient id="paint4_linear_2445_20145" x1="124.679" y1="79.6342" x2="141.164" y2="96.1422" gradientUnits="userSpaceOnUse">
<stop stop-color="#A57D24"/>
<stop offset="0.21" stop-color="#D8BD62"/>
<stop offset="0.33" stop-color="#F1DD80"/>
<stop offset="0.52" stop-color="#FBF2A8"/>
<stop offset="0.73" stop-color="#F1DD80"/>
<stop offset="1" stop-color="#A57D24"/>
</linearGradient>
<linearGradient id="paint5_linear_2445_20145" x1="81.2975" y1="88.3588" x2="96.976" y2="88.3588" gradientUnits="userSpaceOnUse">
<stop stop-color="#A57D24"/>
<stop offset="0.21" stop-color="#D8BD62"/>
<stop offset="0.33" stop-color="#F1DD80"/>
<stop offset="0.52" stop-color="#FBF2A8"/>
<stop offset="0.73" stop-color="#F1DD80"/>
<stop offset="1" stop-color="#A57D24"/>
</linearGradient>
<linearGradient id="paint6_linear_2445_20145" x1="79.0812" y1="77.0065" x2="100.83" y2="98.785" gradientUnits="userSpaceOnUse">
<stop stop-color="#A57D24"/>
<stop offset="0.21" stop-color="#D8BD62"/>
<stop offset="0.33" stop-color="#F1DD80"/>
<stop offset="0.52" stop-color="#FBF2A8"/>
<stop offset="0.73" stop-color="#F1DD80"/>
<stop offset="1" stop-color="#A57D24"/>
</linearGradient>
<linearGradient id="paint7_linear_2445_20145" x1="142.328" y1="49.0461" x2="153.266" y2="49.0461" gradientUnits="userSpaceOnUse">
<stop stop-color="#A57D24"/>
<stop offset="0.21" stop-color="#D8BD62"/>
<stop offset="0.33" stop-color="#F1DD80"/>
<stop offset="0.52" stop-color="#FBF2A8"/>
<stop offset="0.73" stop-color="#F1DD80"/>
<stop offset="1" stop-color="#A57D24"/>
</linearGradient>
<linearGradient id="paint8_linear_2445_20145" x1="125.733" y1="149.362" x2="135.202" y2="149.362" gradientUnits="userSpaceOnUse">
<stop stop-color="#A57D24"/>
<stop offset="0.21" stop-color="#D8BD62"/>
<stop offset="0.33" stop-color="#F1DD80"/>
<stop offset="0.52" stop-color="#FBF2A8"/>
<stop offset="0.73" stop-color="#F1DD80"/>
<stop offset="1" stop-color="#A57D24"/>
</linearGradient>
<linearGradient id="paint9_linear_2445_20145" x1="125.703" y1="157.229" x2="142.434" y2="157.229" gradientUnits="userSpaceOnUse">
<stop stop-color="#A57D24"/>
<stop offset="0.21" stop-color="#D8BD62"/>
<stop offset="0.33" stop-color="#F1DD80"/>
<stop offset="0.52" stop-color="#FBF2A8"/>
<stop offset="0.73" stop-color="#F1DD80"/>
<stop offset="1" stop-color="#A57D24"/>
</linearGradient>
<linearGradient id="paint10_linear_2445_20145" x1="136.695" y1="144.841" x2="143.921" y2="144.841" gradientUnits="userSpaceOnUse">
<stop stop-color="#A57D24"/>
<stop offset="0.21" stop-color="#D8BD62"/>
<stop offset="0.33" stop-color="#F1DD80"/>
<stop offset="0.52" stop-color="#FBF2A8"/>
<stop offset="0.73" stop-color="#F1DD80"/>
<stop offset="1" stop-color="#A57D24"/>
</linearGradient>
<linearGradient id="paint11_linear_2445_20145" x1="136.773" y1="151.844" x2="153.023" y2="151.844" gradientUnits="userSpaceOnUse">
<stop stop-color="#A57D24"/>
<stop offset="0.21" stop-color="#D8BD62"/>
<stop offset="0.33" stop-color="#F1DD80"/>
<stop offset="0.52" stop-color="#FBF2A8"/>
<stop offset="0.73" stop-color="#F1DD80"/>
<stop offset="1" stop-color="#A57D24"/>
</linearGradient>
<linearGradient id="paint12_linear_2445_20145" x1="145.763" y1="138.841" x2="151.621" y2="138.841" gradientUnits="userSpaceOnUse">
<stop stop-color="#A57D24"/>
<stop offset="0.21" stop-color="#D8BD62"/>
<stop offset="0.33" stop-color="#F1DD80"/>
<stop offset="0.52" stop-color="#FBF2A8"/>
<stop offset="0.73" stop-color="#F1DD80"/>
<stop offset="1" stop-color="#A57D24"/>
</linearGradient>
<linearGradient id="paint13_linear_2445_20145" x1="146.422" y1="144.739" x2="161.905" y2="144.739" gradientUnits="userSpaceOnUse">
<stop stop-color="#A57D24"/>
<stop offset="0.21" stop-color="#D8BD62"/>
<stop offset="0.33" stop-color="#F1DD80"/>
<stop offset="0.52" stop-color="#FBF2A8"/>
<stop offset="0.73" stop-color="#F1DD80"/>
<stop offset="1" stop-color="#A57D24"/>
</linearGradient>
<linearGradient id="paint14_linear_2445_20145" x1="152.943" y1="131.6" x2="158.162" y2="131.6" gradientUnits="userSpaceOnUse">
<stop stop-color="#A57D24"/>
<stop offset="0.21" stop-color="#D8BD62"/>
<stop offset="0.33" stop-color="#F1DD80"/>
<stop offset="0.52" stop-color="#FBF2A8"/>
<stop offset="0.73" stop-color="#F1DD80"/>
<stop offset="1" stop-color="#A57D24"/>
</linearGradient>
<linearGradient id="paint15_linear_2445_20145" x1="154.578" y1="136.207" x2="169.006" y2="136.207" gradientUnits="userSpaceOnUse">
<stop stop-color="#A57D24"/>
<stop offset="0.21" stop-color="#D8BD62"/>
<stop offset="0.33" stop-color="#F1DD80"/>
<stop offset="0.52" stop-color="#FBF2A8"/>
<stop offset="0.73" stop-color="#F1DD80"/>
<stop offset="1" stop-color="#A57D24"/>
</linearGradient>
<linearGradient id="paint16_linear_2445_20145" x1="158.333" y1="123.363" x2="163.441" y2="123.363" gradientUnits="userSpaceOnUse">
<stop stop-color="#A57D24"/>
<stop offset="0.21" stop-color="#D8BD62"/>
<stop offset="0.33" stop-color="#F1DD80"/>
<stop offset="0.52" stop-color="#FBF2A8"/>
<stop offset="0.73" stop-color="#F1DD80"/>
<stop offset="1" stop-color="#A57D24"/>
</linearGradient>
<linearGradient id="paint17_linear_2445_20145" x1="161.195" y1="126.501" x2="174.268" y2="126.501" gradientUnits="userSpaceOnUse">
<stop stop-color="#A57D24"/>
<stop offset="0.21" stop-color="#D8BD62"/>
<stop offset="0.33" stop-color="#F1DD80"/>
<stop offset="0.52" stop-color="#FBF2A8"/>
<stop offset="0.73" stop-color="#F1DD80"/>
<stop offset="1" stop-color="#A57D24"/>
</linearGradient>
<linearGradient id="paint18_linear_2445_20145" x1="161.854" y1="114.366" x2="167.391" y2="114.366" gradientUnits="userSpaceOnUse">
<stop stop-color="#A57D24"/>
<stop offset="0.21" stop-color="#D8BD62"/>
<stop offset="0.33" stop-color="#F1DD80"/>
<stop offset="0.52" stop-color="#FBF2A8"/>
<stop offset="0.73" stop-color="#F1DD80"/>
<stop offset="1" stop-color="#A57D24"/>
</linearGradient>
<linearGradient id="paint19_linear_2445_20145" x1="166.208" y1="115.979" x2="177.628" y2="115.979" gradientUnits="userSpaceOnUse">
<stop stop-color="#A57D24"/>
<stop offset="0.21" stop-color="#D8BD62"/>
<stop offset="0.33" stop-color="#F1DD80"/>
<stop offset="0.52" stop-color="#FBF2A8"/>
<stop offset="0.73" stop-color="#F1DD80"/>
<stop offset="1" stop-color="#A57D24"/>
</linearGradient>
<linearGradient id="paint20_linear_2445_20145" x1="163.347" y1="104.853" x2="170.004" y2="104.853" gradientUnits="userSpaceOnUse">
<stop stop-color="#A57D24"/>
<stop offset="0.21" stop-color="#D8BD62"/>
<stop offset="0.33" stop-color="#F1DD80"/>
<stop offset="0.52" stop-color="#FBF2A8"/>
<stop offset="0.73" stop-color="#F1DD80"/>
<stop offset="1" stop-color="#A57D24"/>
</linearGradient>
<linearGradient id="paint21_linear_2445_20145" x1="169.547" y1="105.023" x2="179.006" y2="105.023" gradientUnits="userSpaceOnUse">
<stop stop-color="#A57D24"/>
<stop offset="0.21" stop-color="#D8BD62"/>
<stop offset="0.33" stop-color="#F1DD80"/>
<stop offset="0.52" stop-color="#FBF2A8"/>
<stop offset="0.73" stop-color="#F1DD80"/>
<stop offset="1" stop-color="#A57D24"/>
</linearGradient>
<linearGradient id="paint22_linear_2445_20145" x1="162.948" y1="95.0746" x2="171.314" y2="95.0746" gradientUnits="userSpaceOnUse">
<stop stop-color="#A57D24"/>
<stop offset="0.21" stop-color="#D8BD62"/>
<stop offset="0.33" stop-color="#F1DD80"/>
<stop offset="0.52" stop-color="#FBF2A8"/>
<stop offset="0.73" stop-color="#F1DD80"/>
<stop offset="1" stop-color="#A57D24"/>
</linearGradient>
<linearGradient id="paint23_linear_2445_20145" x1="171.152" y1="93.8513" x2="178.506" y2="93.8513" gradientUnits="userSpaceOnUse">
<stop stop-color="#A57D24"/>
<stop offset="0.21" stop-color="#D8BD62"/>
<stop offset="0.33" stop-color="#F1DD80"/>
<stop offset="0.52" stop-color="#FBF2A8"/>
<stop offset="0.73" stop-color="#F1DD80"/>
<stop offset="1" stop-color="#A57D24"/>
</linearGradient>
<linearGradient id="paint24_linear_2445_20145" x1="160.93" y1="85.2485" x2="171.104" y2="85.2485" gradientUnits="userSpaceOnUse">
<stop stop-color="#A57D24"/>
<stop offset="0.21" stop-color="#D8BD62"/>
<stop offset="0.33" stop-color="#F1DD80"/>
<stop offset="0.52" stop-color="#FBF2A8"/>
<stop offset="0.73" stop-color="#F1DD80"/>
<stop offset="1" stop-color="#A57D24"/>
</linearGradient>
<linearGradient id="paint25_linear_2445_20145" x1="170.807" y1="82.6886" x2="176.494" y2="82.6886" gradientUnits="userSpaceOnUse">
<stop stop-color="#A57D24"/>
<stop offset="0.21" stop-color="#D8BD62"/>
<stop offset="0.33" stop-color="#F1DD80"/>
<stop offset="0.52" stop-color="#FBF2A8"/>
<stop offset="0.73" stop-color="#F1DD80"/>
<stop offset="1" stop-color="#A57D24"/>
</linearGradient>
<linearGradient id="paint26_linear_2445_20145" x1="157.242" y1="75.5314" x2="169.056" y2="75.5314" gradientUnits="userSpaceOnUse">
<stop stop-color="#A57D24"/>
<stop offset="0.21" stop-color="#D8BD62"/>
<stop offset="0.33" stop-color="#F1DD80"/>
<stop offset="0.52" stop-color="#FBF2A8"/>
<stop offset="0.73" stop-color="#F1DD80"/>
<stop offset="1" stop-color="#A57D24"/>
</linearGradient>
<linearGradient id="paint27_linear_2445_20145" x1="167.745" y1="71.823" x2="172.885" y2="71.823" gradientUnits="userSpaceOnUse">
<stop stop-color="#A57D24"/>
<stop offset="0.21" stop-color="#D8BD62"/>
<stop offset="0.33" stop-color="#F1DD80"/>
<stop offset="0.52" stop-color="#FBF2A8"/>
<stop offset="0.73" stop-color="#F1DD80"/>
<stop offset="1" stop-color="#A57D24"/>
</linearGradient>
<linearGradient id="paint28_linear_2445_20145" x1="151.831" y1="66.2353" x2="165.086" y2="66.2353" gradientUnits="userSpaceOnUse">
<stop stop-color="#A57D24"/>
<stop offset="0.21" stop-color="#D8BD62"/>
<stop offset="0.33" stop-color="#F1DD80"/>
<stop offset="0.52" stop-color="#FBF2A8"/>
<stop offset="0.73" stop-color="#F1DD80"/>
<stop offset="1" stop-color="#A57D24"/>
</linearGradient>
<linearGradient id="paint29_linear_2445_20145" x1="161.97" y1="61.524" x2="167.548" y2="61.524" gradientUnits="userSpaceOnUse">
<stop stop-color="#A57D24"/>
<stop offset="0.21" stop-color="#D8BD62"/>
<stop offset="0.33" stop-color="#F1DD80"/>
<stop offset="0.52" stop-color="#FBF2A8"/>
<stop offset="0.73" stop-color="#F1DD80"/>
<stop offset="1" stop-color="#A57D24"/>
</linearGradient>
<linearGradient id="paint30_linear_2445_20145" x1="144.625" y1="57.7275" x2="159.126" y2="57.7275" gradientUnits="userSpaceOnUse">
<stop stop-color="#A57D24"/>
<stop offset="0.21" stop-color="#D8BD62"/>
<stop offset="0.33" stop-color="#F1DD80"/>
<stop offset="0.52" stop-color="#FBF2A8"/>
<stop offset="0.73" stop-color="#F1DD80"/>
<stop offset="1" stop-color="#A57D24"/>
</linearGradient>
<linearGradient id="paint31_linear_2445_20145" x1="153.414" y1="52.0802" x2="160.436" y2="52.0802" gradientUnits="userSpaceOnUse">
<stop stop-color="#A57D24"/>
<stop offset="0.21" stop-color="#D8BD62"/>
<stop offset="0.33" stop-color="#F1DD80"/>
<stop offset="0.52" stop-color="#FBF2A8"/>
<stop offset="0.73" stop-color="#F1DD80"/>
<stop offset="1" stop-color="#A57D24"/>
</linearGradient>
<linearGradient id="paint32_linear_2445_20145" x1="110.36" y1="104.067" x2="171.379" y2="104.067" gradientUnits="userSpaceOnUse">
<stop stop-color="#A57D24"/>
<stop offset="0.21" stop-color="#D8BD62"/>
<stop offset="0.33" stop-color="#F1DD80"/>
<stop offset="0.52" stop-color="#FBF2A8"/>
<stop offset="0.73" stop-color="#F1DD80"/>
<stop offset="1" stop-color="#A57D24"/>
</linearGradient>
<linearGradient id="paint33_linear_2445_20145" x1="69.7317" y1="49.0461" x2="80.6726" y2="49.0461" gradientUnits="userSpaceOnUse">
<stop stop-color="#A57D24"/>
<stop offset="0.21" stop-color="#D8BD62"/>
<stop offset="0.33" stop-color="#F1DD80"/>
<stop offset="0.52" stop-color="#FBF2A8"/>
<stop offset="0.73" stop-color="#F1DD80"/>
<stop offset="1" stop-color="#A57D24"/>
</linearGradient>
<linearGradient id="paint34_linear_2445_20145" x1="87.7983" y1="149.362" x2="97.2652" y2="149.362" gradientUnits="userSpaceOnUse">
<stop stop-color="#A57D24"/>
<stop offset="0.21" stop-color="#D8BD62"/>
<stop offset="0.33" stop-color="#F1DD80"/>
<stop offset="0.52" stop-color="#FBF2A8"/>
<stop offset="0.73" stop-color="#F1DD80"/>
<stop offset="1" stop-color="#A57D24"/>
</linearGradient>
<linearGradient id="paint35_linear_2445_20145" x1="80.563" y1="157.229" x2="97.2967" y2="157.229" gradientUnits="userSpaceOnUse">
<stop stop-color="#A57D24"/>
<stop offset="0.21" stop-color="#D8BD62"/>
<stop offset="0.33" stop-color="#F1DD80"/>
<stop offset="0.52" stop-color="#FBF2A8"/>
<stop offset="0.73" stop-color="#F1DD80"/>
<stop offset="1" stop-color="#A57D24"/>
</linearGradient>
<linearGradient id="paint36_linear_2445_20145" x1="79.0741" y1="144.841" x2="86.3001" y2="144.841" gradientUnits="userSpaceOnUse">
<stop stop-color="#A57D24"/>
<stop offset="0.21" stop-color="#D8BD62"/>
<stop offset="0.33" stop-color="#F1DD80"/>
<stop offset="0.52" stop-color="#FBF2A8"/>
<stop offset="0.73" stop-color="#F1DD80"/>
<stop offset="1" stop-color="#A57D24"/>
</linearGradient>
<linearGradient id="paint37_linear_2445_20145" x1="69.9744" y1="151.844" x2="86.2267" y2="151.844" gradientUnits="userSpaceOnUse">
<stop stop-color="#A57D24"/>
<stop offset="0.21" stop-color="#D8BD62"/>
<stop offset="0.33" stop-color="#F1DD80"/>
<stop offset="0.52" stop-color="#FBF2A8"/>
<stop offset="0.73" stop-color="#F1DD80"/>
<stop offset="1" stop-color="#A57D24"/>
</linearGradient>
<linearGradient id="paint38_linear_2445_20145" x1="71.3813" y1="138.841" x2="77.242" y2="138.841" gradientUnits="userSpaceOnUse">
<stop stop-color="#A57D24"/>
<stop offset="0.21" stop-color="#D8BD62"/>
<stop offset="0.33" stop-color="#F1DD80"/>
<stop offset="0.52" stop-color="#FBF2A8"/>
<stop offset="0.73" stop-color="#F1DD80"/>
<stop offset="1" stop-color="#A57D24"/>
</linearGradient>
<linearGradient id="paint39_linear_2445_20145" x1="61.0982" y1="144.739" x2="76.5836" y2="144.739" gradientUnits="userSpaceOnUse">
<stop stop-color="#A57D24"/>
<stop offset="0.21" stop-color="#D8BD62"/>
<stop offset="0.33" stop-color="#F1DD80"/>
<stop offset="0.52" stop-color="#FBF2A8"/>
<stop offset="0.73" stop-color="#F1DD80"/>
<stop offset="1" stop-color="#A57D24"/>
</linearGradient>
<linearGradient id="paint40_linear_2445_20145" x1="64.8378" y1="131.6" x2="70.054" y2="131.6" gradientUnits="userSpaceOnUse">
<stop stop-color="#A57D24"/>
<stop offset="0.21" stop-color="#D8BD62"/>
<stop offset="0.33" stop-color="#F1DD80"/>
<stop offset="0.52" stop-color="#FBF2A8"/>
<stop offset="0.73" stop-color="#F1DD80"/>
<stop offset="1" stop-color="#A57D24"/>
</linearGradient>
<linearGradient id="paint41_linear_2445_20145" x1="53.9929" y1="136.207" x2="68.4203" y2="136.207" gradientUnits="userSpaceOnUse">
<stop stop-color="#A57D24"/>
<stop offset="0.21" stop-color="#D8BD62"/>
<stop offset="0.33" stop-color="#F1DD80"/>
<stop offset="0.52" stop-color="#FBF2A8"/>
<stop offset="0.73" stop-color="#F1DD80"/>
<stop offset="1" stop-color="#A57D24"/>
</linearGradient>
<linearGradient id="paint42_linear_2445_20145" x1="59.5601" y1="123.363" x2="64.6675" y2="123.363" gradientUnits="userSpaceOnUse">
<stop stop-color="#A57D24"/>
<stop offset="0.21" stop-color="#D8BD62"/>
<stop offset="0.33" stop-color="#F1DD80"/>
<stop offset="0.52" stop-color="#FBF2A8"/>
<stop offset="0.73" stop-color="#F1DD80"/>
<stop offset="1" stop-color="#A57D24"/>
</linearGradient>
<linearGradient id="paint43_linear_2445_20145" x1="48.7313" y1="126.501" x2="61.8044" y2="126.501" gradientUnits="userSpaceOnUse">
<stop stop-color="#A57D24"/>
<stop offset="0.21" stop-color="#D8BD62"/>
<stop offset="0.33" stop-color="#F1DD80"/>
<stop offset="0.52" stop-color="#FBF2A8"/>
<stop offset="0.73" stop-color="#F1DD80"/>
<stop offset="1" stop-color="#A57D24"/>
</linearGradient>
<linearGradient id="paint44_linear_2445_20145" x1="55.6159" y1="114.366" x2="61.153" y2="114.366" gradientUnits="userSpaceOnUse">
<stop stop-color="#A57D24"/>
<stop offset="0.21" stop-color="#D8BD62"/>
<stop offset="0.33" stop-color="#F1DD80"/>
<stop offset="0.52" stop-color="#FBF2A8"/>
<stop offset="0.73" stop-color="#F1DD80"/>
<stop offset="1" stop-color="#A57D24"/>
</linearGradient>
<linearGradient id="paint45_linear_2445_20145" x1="45.3802" y1="115.979" x2="56.797" y2="115.979" gradientUnits="userSpaceOnUse">
<stop stop-color="#A57D24"/>
<stop offset="0.21" stop-color="#D8BD62"/>
<stop offset="0.33" stop-color="#F1DD80"/>
<stop offset="0.52" stop-color="#FBF2A8"/>
<stop offset="0.73" stop-color="#F1DD80"/>
<stop offset="1" stop-color="#A57D24"/>
</linearGradient>
<linearGradient id="paint46_linear_2445_20145" x1="52.996" y1="104.853" x2="59.6563" y2="104.853" gradientUnits="userSpaceOnUse">
<stop stop-color="#A57D24"/>
<stop offset="0.21" stop-color="#D8BD62"/>
<stop offset="0.33" stop-color="#F1DD80"/>
<stop offset="0.52" stop-color="#FBF2A8"/>
<stop offset="0.73" stop-color="#F1DD80"/>
<stop offset="1" stop-color="#A57D24"/>
</linearGradient>
<linearGradient id="paint47_linear_2445_20145" x1="43.999" y1="105.028" x2="53.4578" y2="105.028" gradientUnits="userSpaceOnUse">
<stop stop-color="#A57D24"/>
<stop offset="0.21" stop-color="#D8BD62"/>
<stop offset="0.33" stop-color="#F1DD80"/>
<stop offset="0.52" stop-color="#FBF2A8"/>
<stop offset="0.73" stop-color="#F1DD80"/>
<stop offset="1" stop-color="#A57D24"/>
</linearGradient>
<linearGradient id="paint48_linear_2445_20145" x1="51.6872" y1="95.0746" x2="60.0554" y2="95.0746" gradientUnits="userSpaceOnUse">
<stop stop-color="#A57D24"/>
<stop offset="0.21" stop-color="#D8BD62"/>
<stop offset="0.33" stop-color="#F1DD80"/>
<stop offset="0.52" stop-color="#FBF2A8"/>
<stop offset="0.73" stop-color="#F1DD80"/>
<stop offset="1" stop-color="#A57D24"/>
</linearGradient>
<linearGradient id="paint49_linear_2445_20145" x1="44.4955" y1="93.8513" x2="51.8493" y2="93.8513" gradientUnits="userSpaceOnUse">
<stop stop-color="#A57D24"/>
<stop offset="0.21" stop-color="#D8BD62"/>
<stop offset="0.33" stop-color="#F1DD80"/>
<stop offset="0.52" stop-color="#FBF2A8"/>
<stop offset="0.73" stop-color="#F1DD80"/>
<stop offset="1" stop-color="#A57D24"/>
</linearGradient>
<linearGradient id="paint50_linear_2445_20145" x1="51.9003" y1="85.2485" x2="62.0743" y2="85.2485" gradientUnits="userSpaceOnUse">
<stop stop-color="#A57D24"/>
<stop offset="0.21" stop-color="#D8BD62"/>
<stop offset="0.33" stop-color="#F1DD80"/>
<stop offset="0.52" stop-color="#FBF2A8"/>
<stop offset="0.73" stop-color="#F1DD80"/>
<stop offset="1" stop-color="#A57D24"/>
</linearGradient>
<linearGradient id="paint51_linear_2445_20145" x1="46.5065" y1="82.6886" x2="52.1932" y2="82.6886" gradientUnits="userSpaceOnUse">
<stop stop-color="#A57D24"/>
<stop offset="0.21" stop-color="#D8BD62"/>
<stop offset="0.33" stop-color="#F1DD80"/>
<stop offset="0.52" stop-color="#FBF2A8"/>
<stop offset="0.73" stop-color="#F1DD80"/>
<stop offset="1" stop-color="#A57D24"/>
</linearGradient>
<linearGradient id="paint52_linear_2445_20145" x1="53.9436" y1="75.5314" x2="65.7576" y2="75.5314" gradientUnits="userSpaceOnUse">
<stop stop-color="#A57D24"/>
<stop offset="0.21" stop-color="#D8BD62"/>
<stop offset="0.33" stop-color="#F1DD80"/>
<stop offset="0.52" stop-color="#FBF2A8"/>
<stop offset="0.73" stop-color="#F1DD80"/>
<stop offset="1" stop-color="#A57D24"/>
</linearGradient>
<linearGradient id="paint53_linear_2445_20145" x1="50.1166" y1="71.823" x2="55.2539" y2="71.823" gradientUnits="userSpaceOnUse">
<stop stop-color="#A57D24"/>
<stop offset="0.21" stop-color="#D8BD62"/>
<stop offset="0.33" stop-color="#F1DD80"/>
<stop offset="0.52" stop-color="#FBF2A8"/>
<stop offset="0.73" stop-color="#F1DD80"/>
<stop offset="1" stop-color="#A57D24"/>
</linearGradient>
<linearGradient id="paint54_linear_2445_20145" x1="57.915" y1="66.2353" x2="71.173" y2="66.2353" gradientUnits="userSpaceOnUse">
<stop stop-color="#A57D24"/>
<stop offset="0.21" stop-color="#D8BD62"/>
<stop offset="0.33" stop-color="#F1DD80"/>
<stop offset="0.52" stop-color="#FBF2A8"/>
<stop offset="0.73" stop-color="#F1DD80"/>
<stop offset="1" stop-color="#A57D24"/>
</linearGradient>
<linearGradient id="paint55_linear_2445_20145" x1="55.4611" y1="61.524" x2="61.039" y2="61.524" gradientUnits="userSpaceOnUse">
<stop stop-color="#A57D24"/>
<stop offset="0.21" stop-color="#D8BD62"/>
<stop offset="0.33" stop-color="#F1DD80"/>
<stop offset="0.52" stop-color="#FBF2A8"/>
<stop offset="0.73" stop-color="#F1DD80"/>
<stop offset="1" stop-color="#A57D24"/>
</linearGradient>
<linearGradient id="paint56_linear_2445_20145" x1="63.8719" y1="57.7275" x2="78.3728" y2="57.7275" gradientUnits="userSpaceOnUse">
<stop stop-color="#A57D24"/>
<stop offset="0.21" stop-color="#D8BD62"/>
<stop offset="0.33" stop-color="#F1DD80"/>
<stop offset="0.52" stop-color="#FBF2A8"/>
<stop offset="0.73" stop-color="#F1DD80"/>
<stop offset="1" stop-color="#A57D24"/>
</linearGradient>
<linearGradient id="paint57_linear_2445_20145" x1="62.5597" y1="52.0802" x2="69.5817" y2="52.0802" gradientUnits="userSpaceOnUse">
<stop stop-color="#A57D24"/>
<stop offset="0.21" stop-color="#D8BD62"/>
<stop offset="0.33" stop-color="#F1DD80"/>
<stop offset="0.52" stop-color="#FBF2A8"/>
<stop offset="0.73" stop-color="#F1DD80"/>
<stop offset="1" stop-color="#A57D24"/>
</linearGradient>
<linearGradient id="paint58_linear_2445_20145" x1="51.6232" y1="104.067" x2="112.643" y2="104.067" gradientUnits="userSpaceOnUse">
<stop stop-color="#A57D24"/>
<stop offset="0.21" stop-color="#D8BD62"/>
<stop offset="0.33" stop-color="#F1DD80"/>
<stop offset="0.52" stop-color="#FBF2A8"/>
<stop offset="0.73" stop-color="#F1DD80"/>
<stop offset="1" stop-color="#A57D24"/>
</linearGradient>
<linearGradient id="paint59_linear_2445_20145" x1="104.848" y1="157.227" x2="117.654" y2="157.227" gradientUnits="userSpaceOnUse">
<stop stop-color="#A57D24"/>
<stop offset="0.21" stop-color="#D8BD62"/>
<stop offset="0.33" stop-color="#F1DD80"/>
<stop offset="0.52" stop-color="#FBF2A8"/>
<stop offset="0.73" stop-color="#F1DD80"/>
<stop offset="1" stop-color="#A57D24"/>
</linearGradient>
</defs>
</svg>
