<svg width="319" height="319" viewBox="0 0 319 319" fill="none" xmlns="http://www.w3.org/2000/svg">
<circle cx="159" cy="159" r="115" fill="#FFF3E5"/>
<path d="M133.748 308.974L138.163 292.146L141.258 292.049L145.158 304.556L148.478 291.821L151.548 291.7L156.801 308.246L153.898 308.338L150.015 294.87L146.702 308.565L143.631 308.662L139.726 295.267L136.675 308.882L133.748 308.974Z" fill="black"/>
<path d="M119.946 294.905C120.021 294.415 120.12 293.977 120.244 293.591L130.232 295.117C130.312 294.061 130.053 293.163 129.454 292.424C128.854 291.685 128.048 291.239 127.036 291.084C125.581 290.862 124.46 291.314 123.673 292.44L120.755 291.994C121.334 290.853 122.204 289.974 123.367 289.358C124.511 288.756 125.85 288.572 127.384 288.807C128.634 288.997 129.714 289.446 130.626 290.151C131.52 290.871 132.174 291.78 132.589 292.879C132.985 293.992 133.081 295.22 132.876 296.565C132.67 297.909 132.222 299.046 131.529 299.976C130.819 300.92 129.931 301.594 128.865 301.997C127.784 302.399 126.603 302.502 125.322 302.306C124.089 302.118 123.03 301.681 122.148 300.996C121.265 300.311 120.63 299.437 120.242 298.374C119.851 297.327 119.753 296.171 119.946 294.905ZM122.639 296.191C122.502 297.19 122.736 298.043 123.34 298.75C123.945 299.457 124.761 299.889 125.789 300.047C126.722 300.189 127.567 300.011 128.323 299.511C129.076 299.027 129.594 298.289 129.875 297.296L122.639 296.191Z" fill="black"/>
<path d="M111.853 290.673C111.338 291.897 110.631 292.876 109.732 293.609C108.819 294.335 107.819 294.774 106.731 294.924C105.623 295.082 104.538 294.938 103.476 294.492C102.518 294.088 101.765 293.546 101.218 292.865C100.651 292.192 100.271 291.486 100.079 290.745L99.3347 292.515L96.7907 291.445L101.919 279.255L104.463 280.326L103.7 282.14C104.369 281.745 105.154 281.51 106.052 281.437C106.951 281.364 107.872 281.526 108.816 281.923C109.863 282.363 110.71 283.032 111.357 283.929C111.998 284.841 112.374 285.885 112.487 287.061C112.579 288.245 112.368 289.449 111.853 290.673ZM101.894 286.431C101.541 287.272 101.41 288.077 101.504 288.845C101.582 289.607 101.834 290.268 102.258 290.828C102.681 291.389 103.218 291.805 103.867 292.078C104.516 292.351 105.189 292.443 105.885 292.355C106.576 292.281 107.229 292.009 107.843 291.538C108.437 291.076 108.911 290.425 109.264 289.584C109.618 288.744 109.759 287.935 109.686 287.158C109.599 286.375 109.347 285.696 108.929 285.121C108.49 284.554 107.954 284.138 107.32 283.871C106.671 283.598 105.998 283.506 105.301 283.595C104.604 283.683 103.956 283.966 103.356 284.443C102.735 284.928 102.248 285.591 101.894 286.431Z" fill="black"/>
<path d="M85.6406 283.246C84.9533 283.619 84.2337 283.796 83.4818 283.777C82.7079 283.763 81.9291 283.524 81.1452 283.057L82.5928 280.623L83.191 280.979C84.1124 281.527 84.9527 281.71 85.7121 281.529C86.4578 281.34 87.1741 280.667 87.8611 279.512L91.4187 273.53L93.7703 274.929L87.0108 286.294L84.6592 284.896L85.6406 283.246Z" fill="black"/>
<path d="M67.3571 264.924C67.6641 264.535 67.9665 264.203 68.2643 263.928L76.2007 270.181C76.7914 269.303 77.0084 268.394 76.8515 267.455C76.6946 266.517 76.214 265.731 75.4097 265.097C74.2535 264.186 73.0554 264.026 71.8153 264.618L69.4966 262.791C70.5634 262.083 71.7541 261.748 73.0688 261.786C74.361 261.826 75.6166 262.327 76.8356 263.287C77.8285 264.07 78.5475 264.993 78.9926 266.056C79.4153 267.123 79.536 268.236 79.3547 269.397C79.1509 270.561 78.6282 271.677 77.7865 272.745C76.9448 273.813 75.9934 274.581 74.9323 275.049C73.8488 275.519 72.7442 275.667 71.6184 275.493C70.4801 275.309 69.4019 274.816 68.384 274.014C67.4037 273.241 66.6986 272.34 66.2686 271.308C65.8387 270.277 65.7171 269.203 65.9037 268.087C66.0805 266.984 66.5649 265.93 67.3571 264.924ZM69.0657 267.371C68.4544 268.172 68.2371 269.03 68.4138 269.943C68.5905 270.856 69.0873 271.635 69.9042 272.278C70.6456 272.863 71.4684 273.124 72.3726 273.062C73.2668 273.013 74.0811 272.626 74.8153 271.901L69.0657 267.371Z" fill="black"/>
<path d="M47.3402 249.892L53.0011 245.252C53.3847 244.937 53.5921 244.622 53.6233 244.307C53.6321 243.99 53.4589 243.614 53.1039 243.181L52.0388 241.882L53.802 240.437L55.1714 242.107C55.9525 243.06 56.3282 243.972 56.2987 244.845C56.2691 245.717 55.7532 246.564 54.7509 247.386L49.0899 252.027L50.0789 253.233L48.3528 254.648L47.3638 253.442L44.821 255.526L43.0712 253.392L45.614 251.307L43.5752 248.82L45.3013 247.405L47.3402 249.892Z" fill="black"/>
<path d="M34.2818 235.718C33.7499 234.861 33.4605 233.986 33.4138 233.092C33.3586 232.185 33.573 231.317 34.0569 230.489C34.5324 229.648 35.2798 228.91 36.2991 228.277L42.9248 224.161L44.3559 226.465L38.0768 230.365C37.071 230.99 36.4593 231.719 36.2417 232.551C36.0104 233.391 36.165 234.247 36.7053 235.116C37.2456 235.986 37.948 236.51 38.8125 236.689C39.655 236.863 40.579 236.637 41.5848 236.012L47.8639 232.112L49.3076 234.436L34.2215 243.808L32.7777 241.483L37.9356 238.279C37.215 238.181 36.5399 237.913 35.9102 237.475C35.272 237.024 34.7292 236.438 34.2818 235.718Z" fill="black"/>
<path d="M27.7493 207.917C28.2056 207.722 28.6303 207.576 29.0234 207.478L32.9825 216.774C33.9227 216.287 34.5493 215.594 34.8623 214.695C35.1753 213.797 35.1311 212.877 34.7299 211.935C34.1531 210.58 33.1789 209.865 31.8071 209.788L30.6504 207.072C31.9259 206.964 33.1312 207.242 34.2663 207.906C35.3804 208.562 36.2415 209.604 36.8496 211.032C37.3449 212.195 37.5324 213.35 37.4122 214.496C37.271 215.635 36.8421 216.67 36.1257 217.601C35.3883 218.523 34.394 219.251 33.1427 219.784C31.8915 220.317 30.6882 220.534 29.5329 220.435C28.3567 220.327 27.3166 219.926 26.4127 219.233C25.5025 218.525 24.7935 217.575 24.2856 216.383C23.7966 215.234 23.6112 214.105 23.7292 212.994C23.8473 211.883 24.2561 210.882 24.9556 209.993C25.6404 209.11 26.5716 208.418 27.7493 207.917ZM28.0734 210.883C27.1523 211.292 26.55 211.94 26.2665 212.826C25.9829 213.712 26.0449 214.633 26.4524 215.59C26.8223 216.459 27.4186 217.083 28.2413 217.463C29.0493 217.849 29.9494 217.901 30.9417 217.617L28.0734 210.883Z" fill="black"/>
<path d="M20.4667 188.427C18.8527 188.668 17.3492 188.513 15.9562 187.961C14.5608 187.393 13.4112 186.522 12.5075 185.346C11.5855 184.158 11.0097 182.796 10.7801 181.261C10.5174 179.504 10.7194 177.881 11.3862 176.39C12.0348 174.885 13.1041 173.706 14.5942 172.852L15.0806 176.104C14.2742 176.661 13.7141 177.352 13.4005 178.175C13.0868 178.999 13.0046 179.909 13.1537 180.906C13.317 181.998 13.7078 182.934 14.3262 183.715C14.9445 184.496 15.7493 185.064 16.7405 185.417C17.7293 185.754 18.8329 185.832 20.0513 185.65C21.2698 185.467 22.3024 185.07 23.1492 184.458C23.9936 183.831 24.6051 183.051 24.9836 182.121C25.3464 181.193 25.4461 180.184 25.2828 179.092C25.1337 178.095 24.7887 177.248 24.2478 176.553C23.707 175.857 22.9694 175.361 22.0352 175.064L21.5488 171.812C23.2235 172.192 24.5911 173.007 25.6515 174.256C26.7095 175.489 27.3699 176.984 27.6326 178.74C27.8646 180.291 27.7204 181.76 27.2 183.149C26.6638 184.539 25.8117 185.71 24.6435 186.662C23.473 187.597 22.0808 188.185 20.4667 188.427Z" fill="black"/>
<path d="M14.711 159.855C14.0379 159.457 13.5165 158.93 13.1467 158.275C12.7609 157.604 12.5668 156.813 12.5643 155.901L15.3963 155.893L15.3982 156.589C15.4011 157.661 15.6753 158.476 16.2208 159.035C16.7663 159.577 17.711 159.847 19.055 159.843L26.015 159.824L26.0224 162.56L12.7984 162.596L12.791 159.86L14.711 159.855Z" fill="black"/>
<path d="M21.0455 134.758C21.5374 134.821 21.9777 134.91 22.3662 135.024L21.0754 145.046C22.133 145.101 23.0241 144.821 23.7488 144.204C24.4735 143.588 24.9012 142.772 25.0321 141.756C25.2201 140.296 24.742 139.186 23.5978 138.426L23.9749 135.498C25.1299 136.05 26.0287 136.9 26.6713 138.047C27.3002 139.177 27.5155 140.511 27.3172 142.051C27.1557 143.304 26.7329 144.395 26.0487 145.323C25.3507 146.234 24.4571 146.909 23.3679 147.349C22.2648 147.772 21.0389 147.896 19.69 147.723C18.3412 147.549 17.1937 147.127 16.2476 146.456C15.2877 145.768 14.5934 144.896 14.1647 143.841C13.738 142.77 13.6075 141.591 13.7731 140.306C13.9325 139.068 14.3444 138 15.0086 137.101C15.6728 136.203 16.5316 135.547 17.585 135.135C18.6225 134.72 19.776 134.594 21.0455 134.758ZM19.8237 137.48C18.8219 137.367 17.9746 137.621 17.2816 138.241C16.5887 138.862 16.1757 139.688 16.0429 140.719C15.9223 141.656 16.1206 142.496 16.6377 143.24C17.139 143.982 17.8893 144.482 18.8886 144.74L19.8237 137.48Z" fill="black"/>
<path d="M22.8367 127.03C21.5623 126.656 20.5103 126.065 19.6806 125.255C18.8554 124.429 18.3069 123.485 18.0349 122.421C17.7522 121.338 17.7728 120.244 18.0968 119.138C18.3893 118.14 18.8431 117.331 19.4583 116.711C20.0626 116.071 20.7218 115.614 21.4357 115.34L19.5932 114.8L20.3695 112.151L33.0597 115.871L32.2835 118.519L30.3949 117.966C30.8633 118.586 31.1845 119.339 31.3587 120.224C31.533 121.109 31.4761 122.042 31.1881 123.025C30.8686 124.115 30.2998 125.032 29.4815 125.776C28.6479 126.515 27.6534 127.008 26.4979 127.252C25.3315 127.478 24.1111 127.403 22.8367 127.03ZM25.9269 116.656C25.0517 116.4 24.2376 116.361 23.4848 116.541C22.7364 116.705 22.1078 117.029 21.599 117.514C21.0902 117.998 20.7369 118.578 20.5389 119.254C20.3409 119.929 20.3253 120.608 20.4921 121.291C20.6435 121.969 20.9877 122.587 21.5246 123.144C22.0506 123.682 22.7512 124.079 23.6264 124.335C24.5016 124.592 25.3211 124.64 26.0848 124.48C26.853 124.305 27.4992 123.978 28.0233 123.498C28.5366 122.998 28.89 122.418 29.0835 121.758C29.2815 121.082 29.2971 120.403 29.1303 119.721C28.9635 119.038 28.6094 118.426 28.068 117.884C27.5158 117.322 26.802 116.913 25.9269 116.656Z" fill="black"/>
<path d="M27.7124 99.8937L34.3973 102.876C34.8503 103.078 35.2247 103.122 35.5205 103.009C35.8082 102.875 36.0662 102.552 36.2943 102.04L36.9788 100.506L39.061 101.435L38.181 103.408C37.679 104.533 37.0314 105.278 36.2381 105.642C35.4448 106.006 34.4564 105.925 33.2728 105.397L26.5879 102.414L25.9523 103.839L23.914 102.929L24.5496 101.505L21.5468 100.165L22.6713 97.6447L25.6741 98.9843L26.9843 96.0473L29.0227 96.9567L27.7124 99.8937Z" fill="black"/>
<path d="M30.2083 86.1622C29.9633 86.5934 29.6116 86.872 29.1535 86.9981C28.6954 87.1242 28.2507 87.0648 27.8195 86.8197C27.3882 86.5746 27.1096 86.223 26.9835 85.7649C26.8574 85.3067 26.9169 84.862 27.162 84.4308C27.3991 84.0135 27.7468 83.7418 28.2049 83.6157C28.6631 83.4896 29.1077 83.5491 29.539 83.7942C29.9702 84.0392 30.2489 84.3909 30.3749 84.849C30.501 85.3071 30.4455 85.7449 30.2083 86.1622ZM32.3956 85.8594L43.8926 92.3935L42.5407 94.7721L31.0437 88.2381L32.3956 85.8594Z" fill="black"/>
<path d="M49.7251 78.9928L43.2487 69.6016L44.9658 67.2597L52.6501 79.1435L50.7201 81.7758L37.0896 78.0016L38.821 75.6403L49.7251 78.9928Z" fill="black"/>
<path d="M63.8792 56.1859C64.2324 56.5341 64.5289 56.8715 64.7688 57.1979L57.674 64.3921C58.4821 65.0766 59.3611 65.393 60.3112 65.3411C61.2612 65.2892 62.0957 64.8987 62.8147 64.1696C63.8483 63.1216 64.14 61.9485 63.6897 60.6505L65.7625 58.5487C66.3474 59.6873 66.5482 60.9078 66.365 62.2102C66.1815 63.49 65.5449 64.6824 64.4552 65.7874C63.5676 66.6874 62.5706 67.2996 61.4641 67.6241C60.3574 67.926 59.2373 67.9225 58.1038 67.6136C56.9701 67.2821 55.919 66.6388 54.9507 65.6839C53.9824 64.7289 53.3246 63.6983 52.9775 62.5919C52.6302 61.4629 52.6055 60.3487 52.9033 59.2492C53.2124 58.1382 53.8219 57.1214 54.7319 56.1986C55.6083 55.31 56.5827 54.7093 57.6554 54.3963C58.728 54.0834 59.8085 54.0815 60.8968 54.3907C61.9737 54.6887 62.9678 55.2871 63.8792 56.1859ZM61.2586 57.6127C60.5297 56.9163 59.7016 56.6053 58.7744 56.6796C57.8472 56.754 57.0184 57.1614 56.2882 57.9019C55.6253 58.574 55.2744 59.3628 55.2355 60.2682C55.1851 61.1623 55.4796 62.0145 56.1188 62.8246L61.2586 57.6127Z" fill="black"/>
<path d="M89.0419 46.1033C88.0889 46.6918 87.1304 47.058 86.1663 47.202C85.1937 47.3324 84.3005 47.2257 83.4866 46.8821C82.6727 46.5385 82.0135 45.9582 81.5092 45.1414L84.0005 43.6031C84.4333 44.1821 84.9825 44.5387 85.6483 44.6729C86.3277 44.7987 87.0555 44.6221 87.8314 44.1429C88.6347 43.647 89.1432 43.0697 89.3571 42.4111C89.5626 41.7389 89.4762 41.0965 89.0979 40.4839C88.8037 40.0074 88.4212 39.7077 87.9504 39.5847C87.4932 39.4533 87.0031 39.4362 86.4802 39.5334C85.9709 39.6222 85.2899 39.7983 84.437 40.0616C83.36 40.3882 82.4531 40.6097 81.7164 40.7261C80.9849 40.8205 80.251 40.7283 79.5148 40.4495C78.7785 40.1708 78.1372 39.5889 77.5908 38.704C77.0864 37.8872 76.8493 37.0464 76.8795 36.1816C76.9096 35.3167 77.1914 34.494 77.7248 33.7134C78.2582 32.9327 79.0082 32.244 79.9748 31.6471C81.3498 30.7981 82.6873 30.4518 83.9873 30.6081C85.2925 30.7424 86.3626 31.3792 87.1977 32.5183L84.6246 34.1071C84.2644 33.615 83.7461 33.3238 83.0699 33.2336C82.3937 33.1435 81.688 33.3253 80.9528 33.7793C80.2857 34.1912 79.8463 34.6976 79.6344 35.2985C79.4225 35.8994 79.5141 36.5198 79.9092 37.1597C80.1782 37.5953 80.5303 37.8763 80.9655 38.0024C81.4059 38.1066 81.8807 38.1143 82.39 38.0254C82.8993 37.9366 83.5667 37.769 84.3923 37.5225C85.4914 37.2011 86.4135 36.989 87.1586 36.8862C87.9173 36.775 88.669 36.8656 89.4137 37.158C90.1636 37.4284 90.8159 38.0128 91.3707 38.9113C91.8162 39.6329 92.0391 40.4354 92.0394 41.3191C92.0533 42.1943 91.8077 43.0605 91.3027 43.9176C90.8029 44.7527 90.0493 45.4813 89.0419 46.1033Z" fill="black"/>
<path d="M99.936 27.6987L102.961 34.3642C103.166 34.8159 103.417 35.0974 103.714 35.2088C104.018 35.299 104.425 35.2284 104.935 34.9969L106.465 34.3026L107.408 36.3787L105.441 37.2715C104.319 37.7806 103.34 37.9086 102.505 37.6552C101.669 37.4018 100.984 36.6851 100.448 35.5049L97.4228 28.8394L96.0023 29.4841L95.0798 27.4517L96.5003 26.8069L95.1414 23.8129L97.6546 22.6722L99.0136 25.6662L101.942 24.337L102.865 26.3695L99.936 27.6987Z" fill="black"/>
<path d="M121.976 17.4439L125.824 30.0956L123.206 30.8918L122.752 29.3993C122.497 30.0454 122.08 30.624 121.499 31.135C120.929 31.6261 120.269 31.9857 119.519 32.2138C118.524 32.5165 117.566 32.5822 116.644 32.411C115.738 32.2351 114.932 31.8114 114.226 31.1398C113.535 30.4635 113.015 29.5513 112.666 28.4032L110.403 20.9637L112.998 20.1746L115.142 27.2237C115.486 28.3565 116.035 29.1429 116.788 29.5829C117.536 30.0076 118.399 30.071 119.379 29.773C120.359 29.4751 121.041 28.9414 121.426 28.1722C121.821 27.3829 121.847 26.4219 121.502 25.2892L119.358 18.24L121.976 17.4439Z" fill="black"/>
<path d="M132.715 21.6338C132.537 20.3178 132.649 19.1159 133.05 18.0282C133.468 16.9384 134.107 16.0526 134.967 15.3711C135.841 14.6715 136.857 14.2434 138.014 14.0867C138.871 13.9708 139.737 14.0473 140.613 14.3162C141.502 14.5671 142.235 14.9685 142.81 15.5203L141.954 9.19402L144.689 8.82377L147.071 26.4233L144.336 26.7935L144.069 24.8195C143.711 25.5138 143.163 26.1207 142.426 26.6403C141.705 27.1577 140.837 27.4851 139.823 27.6225C138.681 27.777 137.596 27.6333 136.567 27.1913C135.552 26.7312 134.698 26.0235 134.003 25.068C133.323 24.0945 132.893 22.9498 132.715 21.6338ZM143.448 20.2294C143.325 19.3256 143.029 18.5665 142.558 17.9521C142.103 17.3355 141.551 16.8936 140.901 16.6264C140.251 16.3591 139.578 16.2727 138.88 16.3672C138.183 16.4616 137.556 16.724 137.001 17.1544C136.443 17.5689 136.019 18.1349 135.729 18.8523C135.452 19.5518 135.375 20.3534 135.498 21.2571C135.62 22.1609 135.91 22.929 136.367 23.5614C136.839 24.1916 137.402 24.6483 138.054 24.9314C138.719 25.1966 139.393 25.283 140.075 25.1907C140.772 25.0962 141.399 24.8338 141.954 24.4034C142.509 23.9731 142.924 23.4002 143.199 22.6849C143.487 21.9516 143.57 21.1331 143.448 20.2294Z" fill="black"/>
<path d="M157.579 11.0526C157.083 11.0563 156.666 10.8914 156.327 10.5579C155.989 10.2244 155.818 9.8097 155.814 9.31371C155.81 8.81772 155.975 8.40048 156.309 8.06198C156.642 7.72348 157.057 7.55237 157.553 7.54866C158.033 7.54508 158.442 7.71002 158.781 8.0435C159.119 8.37698 159.29 8.79171 159.294 9.2877C159.298 9.78368 159.133 10.2009 158.799 10.5394C158.466 10.8779 158.059 11.049 157.579 11.0526ZM158.936 12.7945L159.035 26.0181L156.299 26.0386L156.2 12.8149L158.936 12.7945Z" fill="black"/>
<path d="M173.881 27.0745C172.641 26.9302 171.553 26.5217 170.616 25.8489C169.682 25.1603 168.987 24.2741 168.534 23.1904C168.082 22.0907 167.934 20.8655 168.092 19.5146C168.247 18.1796 168.679 17.0298 169.387 16.0652C170.095 15.1007 170.99 14.3994 172.072 13.9616C173.154 13.5237 174.323 13.3778 175.578 13.5239C176.834 13.6701 177.938 14.0804 178.89 14.7551C179.843 15.4297 180.553 16.3177 181.021 17.4192C181.488 18.5207 181.645 19.7389 181.489 21.0739C181.334 22.4089 180.894 23.5577 180.17 24.5205C179.446 25.4832 178.526 26.1896 177.41 26.6397C176.313 27.0757 175.136 27.2206 173.881 27.0745ZM174.155 24.7144C174.855 24.7958 175.526 24.7048 176.168 24.4413C176.827 24.1797 177.386 23.7374 177.845 23.1143C178.304 22.4912 178.589 21.7028 178.7 20.7493C178.811 19.7957 178.722 18.9718 178.432 18.2777C178.144 17.5677 177.718 17.0106 177.153 16.6066C176.588 16.2026 175.955 15.9599 175.256 15.8785C174.557 15.7971 173.886 15.8881 173.243 16.1516C172.616 16.4169 172.089 16.8629 171.662 17.4897C171.236 18.1007 170.968 18.8829 170.857 19.8365C170.692 21.2509 170.922 22.3891 171.547 23.2511C172.189 24.099 173.059 24.5868 174.155 24.7144Z" fill="black"/>
<path d="M209.166 24.0141L206.852 23.2147L203.263 33.6042L200.654 32.7029L204.243 22.3135L202.769 21.8041L203.498 19.6944L204.972 20.2038L205.278 19.3191C205.774 17.8824 206.513 16.9696 207.493 16.5805C208.495 16.1816 209.812 16.2642 211.445 16.8285L210.701 18.9835C209.914 18.7118 209.31 18.6724 208.888 18.8651C208.471 19.0427 208.137 19.4945 207.886 20.2204L207.581 21.1051L209.895 21.9044L209.166 24.0141Z" fill="black"/>
<path d="M217.481 39.8154C216.363 39.2617 215.476 38.5103 214.821 37.5612C214.173 36.5977 213.819 35.5294 213.757 34.3561C213.702 33.1685 213.976 31.9653 214.58 30.7465C215.176 29.5421 215.97 28.6052 216.962 27.9358C217.954 27.2664 219.033 26.908 220.199 26.8605C221.365 26.813 222.515 27.0696 223.648 27.6305C224.78 28.1913 225.681 28.9498 226.351 29.906C227.02 30.8622 227.389 31.9377 227.458 33.1324C227.527 34.327 227.264 35.5266 226.667 36.7311C226.071 37.9356 225.27 38.8689 224.263 39.5312C223.257 40.1934 222.153 40.5484 220.951 40.596C219.77 40.6365 218.614 40.3763 217.481 39.8154ZM218.535 37.6861C219.166 37.9985 219.829 38.139 220.523 38.1076C221.231 38.0834 221.906 37.8553 222.548 37.4235C223.191 36.9916 223.725 36.3455 224.151 35.4852C224.577 34.6249 224.77 33.8191 224.732 33.0679C224.7 32.3024 224.486 31.6342 224.091 31.0633C223.695 30.4925 223.181 30.0508 222.55 29.7385C221.92 29.4261 221.257 29.2856 220.563 29.317C219.884 29.3554 219.237 29.5977 218.623 30.0437C218.017 30.4754 217.501 31.1214 217.075 31.9818C216.443 33.2579 216.276 34.407 216.573 35.4291C216.892 36.4439 217.546 37.1963 218.535 37.6861Z" fill="black"/>
<path d="M239.393 39.1937C240.101 38.8609 240.83 38.7257 241.579 38.7881C242.351 38.8462 243.115 39.1305 243.87 39.6412L242.285 41.9876L241.708 41.5979C240.82 40.9977 239.991 40.7662 239.223 40.9034C238.467 41.0496 237.714 41.6794 236.961 42.793L233.064 48.5598L230.797 47.0279L238.201 36.071L240.468 37.6029L239.393 39.1937Z" fill="black"/>
<path d="M269.605 63.1655L249.924 70.6734L247.974 68.6201L254.488 66.139L260.332 53.404L262.432 55.6138L257.686 65.2534L267.655 61.1123L269.605 63.1655Z" fill="black"/>
<path d="M267.526 82.5373C266.811 81.5146 266.394 80.4297 266.275 79.2827C266.169 78.1266 266.371 77.0191 266.88 75.9602C267.402 74.8922 268.221 73.9685 269.335 73.1891C270.437 72.4189 271.583 71.9784 272.775 71.8675C273.966 71.7567 275.085 71.9604 276.131 72.4786C277.176 72.9969 278.061 73.7739 278.786 74.8098C279.51 75.8457 279.936 76.9436 280.064 78.1037C280.192 79.2638 280 80.3844 279.487 81.4656C278.974 82.5467 278.166 83.4724 277.065 84.2426C275.963 85.0128 274.812 85.4468 273.612 85.5445C272.411 85.6422 271.272 85.4235 270.195 84.8881C269.14 84.3568 268.25 83.5732 267.526 82.5373ZM269.473 81.1757C269.876 81.7526 270.39 82.1939 271.014 82.4997C271.647 82.8185 272.349 82.9427 273.119 82.8723C273.89 82.8019 274.669 82.4916 275.456 81.9414C276.242 81.3913 276.799 80.7774 277.126 80.0999C277.466 79.4132 277.599 78.7245 277.526 78.0337C277.453 77.3429 277.215 76.709 276.811 76.1321C276.408 75.5551 275.894 75.1138 275.27 74.8081C274.656 74.5155 273.972 74.4175 273.22 74.5142C272.48 74.6016 271.717 74.9205 270.931 75.4706C269.764 76.2867 269.065 77.2143 268.835 78.2537C268.628 79.297 268.84 80.271 269.473 81.1757Z" fill="black"/>
<path d="M292.961 100.169L281.072 105.96L279.874 103.5L281.277 102.817C280.598 102.667 279.961 102.346 279.365 101.853C278.791 101.367 278.332 100.772 277.988 100.067C277.533 99.1324 277.317 98.1963 277.341 97.2592C277.372 96.3364 277.664 95.4736 278.216 94.6707C278.775 93.8822 279.594 93.2252 280.673 92.6997L287.664 89.2945L288.851 91.7327L282.228 94.9592C281.163 95.4777 280.473 96.1432 280.157 96.9556C279.855 97.7611 279.928 98.6241 280.377 99.5447C280.825 100.465 281.459 101.055 282.28 101.314C283.121 101.58 284.074 101.454 285.139 100.936L291.763 97.7094L292.961 100.169Z" fill="black"/>
<path d="M295.864 113.348C296.627 113.517 297.287 113.856 297.842 114.364C298.417 114.881 298.847 115.573 299.133 116.439L296.444 117.327L296.226 116.666C295.89 115.648 295.376 114.958 294.684 114.597C293.997 114.251 293.015 114.288 291.739 114.709L285.129 116.89L284.272 114.292L296.83 110.148L297.687 112.746L295.864 113.348Z" fill="black"/>
<path d="M308.356 148.301L306.136 148.536L305.389 141.496L300.497 142.015L301.079 147.504L298.86 147.739L298.277 142.25L291.022 143.02L290.733 140.299L307.32 138.54L308.356 148.301Z" fill="black"/>
<path d="M304.846 170.63L291.633 170.1L291.743 167.366L293.301 167.429C292.775 166.975 292.366 166.39 292.075 165.674C291.798 164.974 291.676 164.233 291.707 163.45C291.749 162.41 292.002 161.484 292.467 160.67C292.932 159.872 293.597 159.25 294.464 158.804C295.33 158.375 296.362 158.184 297.561 158.232L305.331 158.544L305.222 161.253L297.86 160.958C296.677 160.911 295.754 161.17 295.091 161.736C294.444 162.302 294.1 163.097 294.058 164.12C294.017 165.144 294.297 165.963 294.897 166.58C295.512 167.213 296.411 167.553 297.594 167.601L304.956 167.896L304.846 170.63Z" fill="black"/>
<path d="M300.78 183.969L293.566 182.725C293.077 182.64 292.704 182.689 292.445 182.872C292.199 183.073 292.029 183.45 291.933 184.001L291.648 185.657L289.401 185.269L289.768 183.141C289.978 181.927 290.422 181.045 291.101 180.497C291.78 179.948 292.759 179.784 294.036 180.005L301.249 181.25L301.514 179.712L303.714 180.092L303.448 181.629L306.689 182.188L306.219 184.908L302.979 184.349L302.432 187.518L300.233 187.139L300.78 183.969Z" fill="black"/>
<path d="M296.875 207.96L284.249 204.03L285.062 201.418L286.551 201.881C286.16 201.307 285.917 200.637 285.82 199.869C285.734 199.122 285.808 198.374 286.041 197.625C286.35 196.632 286.834 195.803 287.494 195.137C288.149 194.486 288.953 194.058 289.905 193.851C290.853 193.66 291.899 193.743 293.045 194.1L300.47 196.41L299.664 199L292.629 196.81C291.498 196.458 290.54 196.47 289.752 196.845C288.981 197.225 288.443 197.904 288.138 198.881C287.834 199.859 287.892 200.723 288.312 201.474C288.742 202.245 289.523 202.806 290.653 203.158L297.688 205.347L296.875 207.96Z" fill="black"/>
<path d="M289.955 219.547C290.395 220.193 290.643 220.892 290.7 221.642C290.764 222.413 290.603 223.212 290.218 224.038L287.651 222.842L287.945 222.211C288.398 221.239 288.496 220.385 288.24 219.647C287.977 218.925 287.236 218.279 286.018 217.711L279.71 214.77L280.866 212.29L292.851 217.878L291.695 220.358L289.955 219.547Z" fill="black"/>
<path d="M273.556 239.572C273.138 239.305 272.777 239.038 272.474 238.769L277.901 230.246C276.968 229.747 276.042 229.622 275.124 229.872C274.206 230.122 273.472 230.679 272.922 231.542C272.131 232.784 272.092 233.992 272.805 235.167L271.219 237.657C270.408 236.666 269.956 235.515 269.862 234.203C269.772 232.913 270.145 231.614 270.978 230.305C271.657 229.239 272.504 228.431 273.518 227.881C274.536 227.354 275.632 227.123 276.805 227.187C277.983 227.273 279.146 227.682 280.293 228.412C281.44 229.143 282.3 230.012 282.871 231.021C283.447 232.052 283.705 233.137 283.645 234.274C283.576 235.425 283.193 236.547 282.497 237.64C281.827 238.693 281 239.485 280.017 240.016C279.034 240.547 277.977 240.775 276.849 240.701C275.733 240.636 274.636 240.259 273.556 239.572ZM275.819 237.627C276.678 238.155 277.553 238.285 278.444 238.018C279.335 237.751 280.059 237.179 280.618 236.302C281.125 235.505 281.303 234.66 281.151 233.767C281.013 232.882 280.546 232.111 279.751 231.453L275.819 237.627Z" fill="black"/>
<path d="M254.609 263.403C253.85 263.905 252.974 264.087 251.981 263.949C250.989 263.811 250.151 263.383 249.467 262.665C248.882 262.051 248.515 261.34 248.365 260.533C248.214 259.748 248.303 258.924 248.629 258.061C248.967 257.209 249.536 256.403 250.336 255.641L255.168 251.041L266.669 263.122L262.062 267.508C261.239 268.291 260.4 268.825 259.544 269.109C258.688 269.394 257.884 269.442 257.13 269.253C256.388 269.077 255.74 268.699 255.189 268.119C254.527 267.424 254.161 266.668 254.09 265.851C254.02 265.035 254.193 264.219 254.609 263.403ZM259.855 259.933L257.404 262.266C256.755 262.884 256.389 263.509 256.305 264.14C256.221 264.795 256.444 265.4 256.974 265.956C257.492 266.501 258.08 266.747 258.738 266.696C259.395 266.667 260.048 266.343 260.697 265.725L263.148 263.392L259.855 259.933ZM252.048 257.093C251.376 257.732 251.003 258.397 250.93 259.085C250.856 259.774 251.095 260.408 251.647 260.987C252.209 261.578 252.859 261.854 253.596 261.816C254.332 261.777 255.037 261.438 255.709 260.798L258.316 258.316L254.725 254.544L252.048 257.093Z" fill="black"/>
<path d="M243.93 275.631C244 276.41 243.877 277.141 243.561 277.823C243.242 278.528 242.713 279.148 241.974 279.683L240.314 277.388L240.878 276.98C241.746 276.352 242.248 275.653 242.383 274.884C242.505 274.125 242.172 273.2 241.384 272.111L237.305 266.472L239.522 264.868L247.272 275.583L245.056 277.187L243.93 275.631Z" fill="black"/>
<path d="M231.186 278.784C231.808 279.957 232.119 281.124 232.119 282.283C232.104 283.45 231.811 284.502 231.24 285.439C230.662 286.398 229.864 287.148 228.847 287.688C227.928 288.175 227.032 288.415 226.159 288.408C225.279 288.422 224.491 288.27 223.796 287.95L224.697 289.646L222.259 290.94L216.059 279.259L218.497 277.965L219.42 279.704C219.537 278.935 219.851 278.179 220.363 277.437C220.875 276.694 221.583 276.083 222.487 275.603C223.491 275.07 224.544 274.837 225.648 274.903C226.76 274.984 227.806 275.352 228.789 276.008C229.764 276.686 230.563 277.611 231.186 278.784ZM221.602 283.816C222.03 284.622 222.571 285.231 223.225 285.645C223.865 286.066 224.536 286.289 225.238 286.315C225.94 286.341 226.602 286.189 227.224 285.859C227.846 285.529 228.343 285.066 228.715 284.47C229.095 283.888 229.296 283.211 229.321 282.437C229.338 281.685 229.133 280.906 228.705 280.101C228.278 279.295 227.74 278.675 227.093 278.24C226.431 277.812 225.745 277.578 225.036 277.538C224.32 277.52 223.658 277.672 223.05 277.994C222.428 278.324 221.931 278.787 221.559 279.383C221.187 279.979 220.996 280.66 220.986 281.426C220.969 282.214 221.175 283.011 221.602 283.816Z" fill="black"/>
<path d="M205.605 297.8C204.62 298.134 203.672 298.228 202.76 298.081C201.833 297.94 201.014 297.542 200.302 296.888C199.59 296.234 199.041 295.339 198.656 294.203L196.149 286.817L198.717 285.945L201.093 292.945C201.473 294.066 202.044 294.827 202.805 295.227C203.571 295.643 204.439 295.687 205.409 295.357C206.379 295.028 207.049 294.463 207.419 293.662C207.779 292.88 207.768 291.929 207.388 290.808L205.012 283.808L207.603 282.929L211.853 295.451L209.262 296.331L208.776 294.899C208.527 295.558 208.125 296.142 207.572 296.651C207.003 297.165 206.347 297.548 205.605 297.8Z" fill="black"/>
<path d="M192.653 295.589C192.873 296.899 192.8 298.104 192.433 299.204C192.051 300.307 191.44 301.212 190.602 301.921C189.751 302.648 188.749 303.108 187.598 303.302C186.746 303.445 185.877 303.396 184.993 303.156C184.096 302.933 183.351 302.556 182.759 302.022L183.817 308.318L181.095 308.776L178.151 291.261L180.873 290.804L181.203 292.768C181.539 292.063 182.067 291.439 182.787 290.896C183.491 290.356 184.348 290.001 185.358 289.831C186.494 289.64 187.583 289.749 188.625 290.158C189.654 290.585 190.531 291.265 191.256 292.198C191.967 293.149 192.433 294.28 192.653 295.589ZM181.971 297.336C182.122 298.235 182.443 298.985 182.933 299.584C183.407 300.185 183.973 300.609 184.631 300.856C185.289 301.102 185.965 301.167 186.659 301.05C187.354 300.934 187.971 300.651 188.513 300.203C189.057 299.771 189.462 299.192 189.73 298.466C189.984 297.758 190.035 296.954 189.884 296.055C189.733 295.155 189.419 294.397 188.942 293.78C188.449 293.165 187.873 292.726 187.212 292.464C186.538 292.22 185.862 292.155 185.184 292.27C184.489 292.386 183.872 292.668 183.33 293.116C182.789 293.564 182.393 294.15 182.141 294.874C181.877 295.616 181.82 296.437 181.971 297.336Z" fill="black"/>
<path d="M165.286 303.488L164.349 301.495L167.717 300.513L164.527 299.053L165.771 297.17L168.342 299.523L168.093 296.016L170.295 296.176L169.587 299.614L172.476 297.611L173.477 299.729L170.133 300.713L173.303 302.123L172.059 304.005L169.415 301.647L169.639 305.177L167.413 305.014L168.194 301.558L165.286 303.488Z" fill="black"/>
<mask id="mask0_746_19869" style="mask-type:luminance" maskUnits="userSpaceOnUse" x="140" y="120" width="45" height="56">
<path d="M140.475 120.191C140.475 120.191 156.322 131.24 157.564 145.971C158.807 160.703 150.107 170.831 164.4 175.127C177.14 179.117 185.53 164.999 184.287 152.109L181.179 154.258C181.179 154.258 179.004 138.913 173.411 130.012L172.168 136.15C172.168 136.15 162.847 124.488 156.322 121.112L156.943 124.795C157.254 125.102 151.039 120.805 140.475 120.191Z" fill="white"/>
</mask>
<g mask="url(#mask0_746_19869)">
<path d="M158.2 187.714L194.244 171.755L165.657 109.146L129.613 125.105L158.2 187.714Z" fill="url(#paint0_linear_746_19869)"/>
</g>
<mask id="mask1_746_19869" style="mask-type:luminance" maskUnits="userSpaceOnUse" x="140" y="120" width="34" height="56">
<path d="M140.475 120.191C140.475 120.191 156.322 131.24 157.564 145.971C158.807 160.703 150.418 170.524 164.4 175.127C181.801 165.92 173.101 137.378 140.475 120.191Z" fill="white"/>
</mask>
<g mask="url(#mask1_746_19869)">
<path d="M154.471 179.723L186.165 165.605L161.307 110.977L129.613 125.094L154.471 179.723Z" fill="url(#paint1_linear_746_19869)"/>
</g>
<path fill-rule="evenodd" clip-rule="evenodd" d="M187.72 219C188.653 213.169 185.545 202.734 183.06 197.21C183.992 199.665 184.302 201.507 184.613 203.348C182.749 199.358 179.331 194.755 174.359 190.765C158.512 177.875 140.801 184.013 132.101 191.686C123.401 199.358 106 214.397 106 214.397C106 214.397 119.05 199.972 129.615 186.468C130.547 138.285 211.646 166.52 196.11 206.417C196.11 202.121 194.246 198.438 194.246 198.438C196.421 207.645 193.624 212.555 187.72 219Z" fill="#561F5B"/>
<mask id="mask2_746_19869" style="mask-type:luminance" maskUnits="userSpaceOnUse" x="136" y="174" width="49" height="30">
<path d="M184.578 203.319C182.714 199.329 179.296 194.725 174.325 190.736C160.653 179.687 145.738 182.756 136.105 188.587C153.195 162.194 179.296 177.846 184.578 203.319Z" fill="white"/>
</mask>
<g mask="url(#mask2_746_19869)">
<path d="M149.789 218.963L189.873 200.856L169.054 155.127L128.971 173.234L149.789 218.963Z" fill="url(#paint2_linear_746_19869)"/>
</g>
<mask id="mask3_746_19869" style="mask-type:luminance" maskUnits="userSpaceOnUse" x="163" y="99" width="49" height="91">
<path d="M175.61 99C175.61 99 188.35 123.245 180.271 142.887C172.192 162.529 154.481 169.588 169.706 184.319C183.378 197.516 203.264 185.24 210.1 168.053L204.818 168.974C204.818 168.974 212.275 148.105 211.032 133.373L205.439 140.125C205.439 140.125 201.4 119.256 195.496 110.662L193.943 115.88C193.632 115.88 188.66 106.366 175.61 99Z" fill="white"/>
</mask>
<g mask="url(#mask3_746_19869)">
<path d="M170.007 203.343L230.598 176.642L191.757 91.6299L131.166 118.637L170.007 203.343Z" fill="url(#paint3_linear_746_19869)"/>
</g>
<mask id="mask4_746_19869" style="mask-type:luminance" maskUnits="userSpaceOnUse" x="163" y="99" width="32" height="86">
<path d="M175.612 99C175.612 99 188.352 123.245 180.273 142.887C172.194 162.222 154.793 169.281 169.397 184.012C197.363 183.705 205.441 141.967 175.612 99Z" fill="white"/>
</mask>
<g mask="url(#mask4_746_19869)">
<path d="M167.192 197.203L219.705 173.571L183.971 95.3105L131.459 118.635L167.192 197.203Z" fill="url(#paint4_linear_746_19869)"/>
</g>
<path fill-rule="evenodd" clip-rule="evenodd" d="M139.881 172.657C139.881 172.657 139.57 175.419 138.016 176.647C136.463 177.875 134.599 177.568 134.909 179.409C137.084 180.944 139.881 177.875 139.881 172.657Z" fill="#F9F9FA"/>
<mask id="mask5_746_19869" style="mask-type:luminance" maskUnits="userSpaceOnUse" x="133" y="173" width="8" height="7">
<path d="M133.711 173.555C133.711 173.555 136.507 174.168 137.44 176.01C138.372 177.851 137.75 179.386 139.615 179.386C141.479 177.544 138.683 174.168 133.711 173.555Z" fill="white"/>
</mask>
<g mask="url(#mask5_746_19869)">
<path d="M134.908 172.153L133.711 180.354L139.247 181.142L140.443 172.941L134.908 172.153Z" fill="#F9F9FA"/>
</g>
<defs>
<linearGradient id="paint0_linear_746_19869" x1="174.391" y1="171.422" x2="150.766" y2="126.695" gradientUnits="userSpaceOnUse">
<stop stop-color="#03A672"/>
<stop offset="1" stop-color="#68C4A3"/>
</linearGradient>
<linearGradient id="paint1_linear_746_19869" x1="146.531" y1="120.832" x2="171.487" y2="176.043" gradientUnits="userSpaceOnUse">
<stop stop-color="#03A672"/>
<stop offset="1" stop-color="#65C3A1"/>
</linearGradient>
<linearGradient id="paint2_linear_746_19869" x1="145.573" y1="178.552" x2="181.297" y2="200.957" gradientUnits="userSpaceOnUse">
<stop stop-color="#F9A13A"/>
<stop offset="1" stop-color="#B9539F"/>
</linearGradient>
<linearGradient id="paint3_linear_746_19869" x1="181.417" y1="185.203" x2="180.415" y2="113.599" gradientUnits="userSpaceOnUse">
<stop stop-color="#03A672"/>
<stop offset="1" stop-color="#68C4A3"/>
</linearGradient>
<linearGradient id="paint4_linear_746_19869" x1="177.781" y1="103.304" x2="173.478" y2="189.123" gradientUnits="userSpaceOnUse">
<stop stop-color="#03A672"/>
<stop offset="1" stop-color="#72C7A9"/>
</linearGradient>
</defs>
</svg>
