<svg width="1440" height="1024" viewBox="0 0 1440 1024" fill="none" xmlns="http://www.w3.org/2000/svg">
<rect width="1440" height="1024" fill="white"/>
<mask id="path-1-outside-1_746_18791" maskUnits="userSpaceOnUse" x="194" y="447" width="1059" height="130" fill="black">
<rect fill="white" x="194" y="447" width="1059" height="130"/>
<path d="M226.441 571H196.492V453.766H229.885C242.964 453.766 252.146 454.406 257.432 455.688C262.717 456.969 267.201 459.158 270.885 462.254C275.209 465.831 278.492 470.315 280.734 475.707C283.03 481.046 284.178 486.998 284.178 493.564C284.178 500.558 283.057 506.724 280.814 512.062C278.572 517.348 275.262 521.699 270.885 525.115C267.575 527.678 263.678 529.52 259.193 530.641C254.709 531.762 247.529 532.322 237.652 532.322H232.207H226.441V571ZM226.441 506.537H232.527C240.215 506.537 245.58 505.496 248.623 503.414C251.666 501.279 253.188 497.675 253.188 492.604C253.188 487.692 251.693 484.195 248.703 482.113C245.714 480.031 240.428 478.99 232.848 478.99H226.441V506.537ZM305.152 571V490.121H332.058V509.18C334.834 502.24 338.624 497.035 343.429 493.564C348.234 490.094 354.053 488.359 360.886 488.359C362.007 488.359 363.128 488.413 364.249 488.52C365.424 488.573 366.598 488.68 367.773 488.84L365.05 514.785C363.342 514.198 361.66 513.771 360.005 513.504C358.35 513.237 356.749 513.104 355.201 513.104C348.261 513.104 342.895 515.239 339.105 519.51C335.368 523.727 333.499 529.733 333.499 537.527V571H305.152ZM442.319 530.801C442.319 524.768 440.798 520.017 437.755 516.547C434.712 513.077 430.601 511.342 425.423 511.342C420.191 511.342 416.054 513.077 413.011 516.547C410.021 520.017 408.526 524.768 408.526 530.801C408.526 536.833 410.021 541.585 413.011 545.055C416 548.471 420.138 550.18 425.423 550.18C430.655 550.18 434.765 548.471 437.755 545.055C440.798 541.585 442.319 536.833 442.319 530.801ZM470.667 530.801C470.667 536.62 469.519 542.145 467.224 547.377C464.981 552.609 461.698 557.307 457.374 561.471C452.996 565.635 448.085 568.785 442.64 570.92C437.248 573.055 431.509 574.123 425.423 574.123C419.23 574.123 413.411 573.055 407.966 570.92C402.574 568.785 397.742 565.635 393.472 561.471C389.201 557.413 385.944 552.769 383.702 547.537C381.46 542.252 380.339 536.673 380.339 530.801C380.339 524.875 381.433 519.296 383.622 514.064C385.864 508.833 389.147 504.135 393.472 499.971C397.689 495.86 402.494 492.764 407.886 490.682C413.331 488.6 419.177 487.559 425.423 487.559C431.669 487.559 437.488 488.6 442.88 490.682C448.272 492.764 453.103 495.86 457.374 499.971C461.752 504.188 465.061 508.913 467.304 514.145C469.546 519.376 470.667 524.928 470.667 530.801ZM558.82 533.123C563.571 538.515 568.243 542.546 572.834 545.215C577.478 547.884 582.096 549.219 586.687 549.219C590.958 549.219 594.455 548.071 597.177 545.775C599.954 543.48 601.342 540.57 601.342 537.047C601.342 533.15 600.14 530.16 597.738 528.078C595.389 525.943 590.024 523.754 581.642 521.512C570.164 518.415 562.05 514.385 557.299 509.42C552.547 504.455 550.172 497.648 550.172 489C550.172 477.789 553.909 468.66 561.383 461.613C568.91 454.513 578.653 450.963 590.611 450.963C597.071 450.963 603.183 451.844 608.949 453.605C614.768 455.314 620.267 457.93 625.445 461.453L615.435 484.436C611.805 481.339 608.068 479.017 604.224 477.469C600.434 475.867 596.67 475.066 592.933 475.066C589.09 475.066 585.967 476.001 583.564 477.869C581.162 479.684 579.961 482.033 579.961 484.916C579.961 487.852 581.002 490.201 583.084 491.963C585.219 493.725 589.303 495.406 595.336 497.008L596.777 497.408C609.803 500.932 618.372 504.802 622.482 509.02C625.258 511.902 627.367 515.372 628.808 519.43C630.25 523.434 630.97 527.891 630.97 532.803C630.97 545.242 626.886 555.251 618.719 562.832C610.551 570.359 599.66 574.123 586.047 574.123C577.879 574.123 570.431 572.735 563.705 569.959C557.032 567.183 550.599 562.832 544.406 556.906L558.82 533.123ZM709.2 520.15C708.667 515.559 706.905 511.876 703.915 509.1C700.979 506.324 697.349 504.936 693.025 504.936C688.38 504.936 684.67 506.217 681.894 508.779C679.171 511.288 677.356 515.079 676.448 520.15H709.2ZM737.308 536.246H675.808C675.861 542.492 677.463 547.324 680.612 550.74C683.762 554.104 688.22 555.785 693.986 555.785C698.31 555.785 701.94 554.984 704.876 553.383C707.866 551.728 710.135 549.299 711.683 546.096L733.144 554.744C730.581 560.937 726.043 565.715 719.53 569.078C713.017 572.441 705.036 574.123 695.587 574.123C681.493 574.123 670.176 570.226 661.634 562.432C653.146 554.584 648.902 544.254 648.902 531.441C648.902 518.842 653.146 508.379 661.634 500.051C670.176 491.723 680.959 487.559 693.986 487.559C707.385 487.559 717.956 491.776 725.696 500.211C733.437 508.646 737.308 520.204 737.308 534.885V536.246ZM760.444 571V490.121H787.35V509.18C790.126 502.24 793.917 497.035 798.721 493.564C803.526 490.094 809.345 488.359 816.178 488.359C817.299 488.359 818.421 488.413 819.542 488.52C820.716 488.573 821.891 488.68 823.065 488.84L820.342 514.785C818.634 514.198 816.952 513.771 815.297 513.504C813.643 513.237 812.041 513.104 810.493 513.104C803.553 513.104 798.187 515.239 794.397 519.51C790.66 523.727 788.792 529.733 788.792 537.527V571H760.444ZM864.619 571L828.264 490.121H858.693L872.467 525.836C872.627 526.21 872.814 526.663 873.027 527.197C874.789 531.895 875.884 535.659 876.311 538.488C876.684 535.872 877.725 532.376 879.434 527.998C879.807 527.037 880.074 526.316 880.234 525.836L894.008 490.121H923.717L886.961 571H864.619ZM938.685 464.896C938.685 460.572 940.207 456.889 943.25 453.846C946.346 450.803 950.056 449.281 954.38 449.281C958.865 449.281 962.602 450.776 965.591 453.766C968.634 456.755 970.156 460.465 970.156 464.896C970.156 469.327 968.608 473.091 965.511 476.188C962.468 479.284 958.758 480.832 954.38 480.832C950.11 480.832 946.426 479.257 943.33 476.107C940.233 472.958 938.685 469.221 938.685 464.896ZM940.126 571V490.121H968.714V571H940.126ZM1055.19 516.707C1052.42 514.251 1049.75 512.463 1047.18 511.342C1044.62 510.221 1041.93 509.66 1039.1 509.66C1033.44 509.66 1028.93 511.529 1025.56 515.266C1022.25 519.003 1020.6 524.074 1020.6 530.48C1020.6 536.673 1022.33 541.611 1025.8 545.295C1029.27 548.979 1033.94 550.82 1039.82 550.82C1042.7 550.82 1045.4 550.26 1047.91 549.139C1050.47 547.964 1052.9 546.176 1055.19 543.773V568.518C1051.78 570.439 1048.36 571.854 1044.94 572.762C1041.53 573.669 1038 574.123 1034.37 574.123C1021.93 574.123 1011.84 570.146 1004.1 562.191C996.415 554.184 992.571 543.667 992.571 530.641C992.571 517.988 996.495 507.658 1004.34 499.65C1012.24 491.589 1022.36 487.559 1034.69 487.559C1038.8 487.559 1042.51 487.959 1045.82 488.76C1049.13 489.561 1052.26 490.842 1055.19 492.604V516.707ZM1135.02 520.15C1134.49 515.559 1132.73 511.876 1129.74 509.1C1126.8 506.324 1123.17 504.936 1118.85 504.936C1114.2 504.936 1110.49 506.217 1107.72 508.779C1104.99 511.288 1103.18 515.079 1102.27 520.15H1135.02ZM1163.13 536.246H1101.63C1101.68 542.492 1103.29 547.324 1106.44 550.74C1109.59 554.104 1114.04 555.785 1119.81 555.785C1124.13 555.785 1127.76 554.984 1130.7 553.383C1133.69 551.728 1135.96 549.299 1137.51 546.096L1158.97 554.744C1156.4 560.937 1151.87 565.715 1145.35 569.078C1138.84 572.441 1130.86 574.123 1121.41 574.123C1107.32 574.123 1096 570.226 1087.46 562.432C1078.97 554.584 1074.72 544.254 1074.72 531.441C1074.72 518.842 1078.97 508.379 1087.46 500.051C1096 491.723 1106.78 487.559 1119.81 487.559C1133.21 487.559 1143.78 491.776 1151.52 500.211C1159.26 508.646 1163.13 520.204 1163.13 534.885V536.246ZM1178.58 564.273L1184.51 542.492C1188.67 546.122 1193.23 548.925 1198.2 550.9C1203.22 552.822 1208.26 553.783 1213.33 553.783C1216.91 553.783 1219.63 553.223 1221.5 552.102C1223.37 550.927 1224.3 549.245 1224.3 547.057C1224.3 543.48 1220.54 540.811 1213.01 539.049C1210.56 538.462 1208.58 537.954 1207.09 537.527C1198.55 535.178 1192.33 532.109 1188.43 528.318C1184.59 524.475 1182.66 519.51 1182.66 513.424C1182.66 505.576 1185.6 499.303 1191.47 494.605C1197.4 489.908 1205.41 487.559 1215.5 487.559C1220.67 487.559 1225.93 488.173 1231.27 489.4C1236.66 490.575 1242.16 492.417 1247.77 494.926L1241.84 514.545C1238.05 511.982 1234.21 510.034 1230.31 508.699C1226.41 507.365 1222.52 506.697 1218.62 506.697C1215.36 506.697 1212.91 507.204 1211.25 508.219C1209.6 509.233 1208.77 510.701 1208.77 512.623C1208.77 515.506 1212.51 517.935 1219.98 519.91C1221.69 520.391 1222.97 520.738 1223.82 520.951C1233.7 523.781 1240.56 527.117 1244.4 530.961C1248.3 534.751 1250.25 539.903 1250.25 546.416C1250.25 554.691 1247.07 561.391 1240.72 566.516C1234.37 571.587 1225.96 574.123 1215.5 574.123C1208.4 574.123 1201.8 573.296 1195.72 571.641C1189.63 570.039 1183.92 567.583 1178.58 564.273Z"/>
</mask>
<path d="M226.441 571V573H228.441V571H226.441ZM196.492 571H194.492V573H196.492V571ZM196.492 453.766V451.766H194.492V453.766H196.492ZM270.885 462.254L269.598 463.785L269.604 463.79L269.61 463.795L270.885 462.254ZM280.734 475.707L278.888 476.475L278.892 476.486L278.897 476.497L280.734 475.707ZM280.814 512.062L282.656 512.844L282.658 512.837L280.814 512.062ZM270.885 525.115L272.109 526.697L272.115 526.692L270.885 525.115ZM226.441 532.322V530.322H224.441V532.322H226.441ZM226.441 506.537H224.441V508.537H226.441V506.537ZM248.623 503.414L249.752 505.065L249.762 505.058L249.772 505.051L248.623 503.414ZM248.703 482.113L247.56 483.754L248.703 482.113ZM226.441 478.99V476.99H224.441V478.99H226.441ZM226.441 569H196.492V573H226.441V569ZM198.492 571V453.766H194.492V571H198.492ZM196.492 455.766H229.885V451.766H196.492V455.766ZM229.885 455.766C242.965 455.766 251.932 456.412 256.96 457.631L257.903 453.744C252.361 452.4 242.963 451.766 229.885 451.766V455.766ZM256.96 457.631C261.985 458.849 266.18 460.912 269.598 463.785L272.172 460.723C268.223 457.403 263.449 455.088 257.903 453.744L256.96 457.631ZM269.61 463.795C273.673 467.156 276.765 471.371 278.888 476.475L282.581 474.939C280.219 469.259 276.745 464.506 272.16 460.713L269.61 463.795ZM278.897 476.497C281.072 481.556 282.178 487.234 282.178 493.564H286.178C286.178 486.762 284.988 480.536 282.572 474.917L278.897 476.497ZM282.178 493.564C282.178 500.346 281.091 506.24 278.97 511.288L282.658 512.837C285.023 507.208 286.178 500.77 286.178 493.564H282.178ZM278.973 511.281C276.859 516.265 273.755 520.338 269.654 523.539L272.115 526.692C276.77 523.059 280.285 518.43 282.656 512.844L278.973 511.281ZM269.66 523.534C266.591 525.91 262.952 527.639 258.708 528.7L259.678 532.581C264.403 531.4 268.558 529.446 272.109 526.697L269.66 523.534ZM258.708 528.7C254.478 529.758 247.507 530.322 237.652 530.322V534.322C247.551 534.322 254.94 533.765 259.678 532.581L258.708 528.7ZM237.652 530.322H232.207V534.322H237.652V530.322ZM232.207 530.322H226.441V534.322H232.207V530.322ZM224.441 532.322V571H228.441V532.322H224.441ZM226.441 508.537H232.527V504.537H226.441V508.537ZM232.527 508.537C240.263 508.537 246.171 507.515 249.752 505.065L247.494 501.763C244.989 503.477 240.167 504.537 232.527 504.537V508.537ZM249.772 505.051C253.53 502.414 255.188 498.068 255.188 492.604H251.188C251.188 497.282 249.802 500.143 247.474 501.777L249.772 505.051ZM255.188 492.604C255.188 487.287 253.549 483.051 249.846 480.472L247.56 483.754C249.836 485.34 251.188 488.097 251.188 492.604H255.188ZM249.846 480.472C246.314 478.012 240.478 476.99 232.848 476.99V480.99C240.379 480.99 245.113 482.05 247.56 483.754L249.846 480.472ZM232.848 476.99H226.441V480.99H232.848V476.99ZM224.441 478.99V506.537H228.441V478.99H224.441ZM305.152 571H303.152V573H305.152V571ZM305.152 490.121V488.121H303.152V490.121H305.152ZM332.058 490.121H334.058V488.121H332.058V490.121ZM332.058 509.18H330.058L333.915 509.922L332.058 509.18ZM364.249 488.52L364.06 490.511L364.109 490.515L364.159 490.517L364.249 488.52ZM367.773 488.84L369.762 489.049L369.964 487.12L368.043 486.858L367.773 488.84ZM365.05 514.785L364.4 516.677L366.777 517.494L367.039 514.994L365.05 514.785ZM339.105 519.51L337.609 518.182L337.608 518.183L339.105 519.51ZM333.499 571V573H335.499V571H333.499ZM307.152 571V490.121H303.152V571H307.152ZM305.152 492.121H332.058V488.121H305.152V492.121ZM330.058 490.121V509.18H334.058V490.121H330.058ZM333.915 509.922C336.587 503.243 340.174 498.383 344.6 495.186L342.258 491.943C337.075 495.686 333.081 501.236 330.201 508.437L333.915 509.922ZM344.6 495.186C349.014 491.998 354.407 490.359 360.886 490.359V486.359C353.699 486.359 347.454 488.191 342.258 491.943L344.6 495.186ZM360.886 490.359C361.944 490.359 363.001 490.41 364.06 490.511L364.439 486.529C363.255 486.416 362.071 486.359 360.886 486.359V490.359ZM364.159 490.517C365.273 490.568 366.387 490.669 367.503 490.822L368.043 486.858C366.81 486.69 365.575 486.578 364.34 486.522L364.159 490.517ZM365.784 488.631L363.061 514.576L367.039 514.994L369.762 489.049L365.784 488.631ZM365.7 512.894C363.892 512.272 362.1 511.816 360.324 511.529L359.687 515.478C361.221 515.726 362.791 516.124 364.4 516.677L365.7 512.894ZM360.324 511.529C358.572 511.247 356.864 511.104 355.201 511.104V515.104C356.634 515.104 358.129 515.227 359.687 515.478L360.324 511.529ZM355.201 511.104C347.823 511.104 341.86 513.393 337.609 518.182L340.601 520.837C343.931 517.085 348.698 515.104 355.201 515.104V511.104ZM337.608 518.183C333.441 522.886 331.499 529.432 331.499 537.527H335.499C335.499 530.034 337.295 524.568 340.602 520.836L337.608 518.183ZM331.499 537.527V571H335.499V537.527H331.499ZM333.499 569H305.152V573H333.499V569ZM413.011 516.547L411.507 515.228L411.501 515.235L411.495 515.241L413.011 516.547ZM413.011 545.055L411.495 546.36L411.5 546.366L411.505 546.372L413.011 545.055ZM437.755 545.055L436.251 543.736L436.25 543.738L437.755 545.055ZM467.224 547.377L465.392 546.573L465.389 546.581L465.385 546.589L467.224 547.377ZM457.374 561.471L458.752 562.92L458.761 562.911L457.374 561.471ZM442.64 570.92L441.909 569.058L441.903 569.06L442.64 570.92ZM407.966 570.92L407.229 572.779L407.236 572.782L407.966 570.92ZM393.472 561.471L394.868 560.039L394.858 560.03L394.849 560.021L393.472 561.471ZM383.702 547.537L381.861 548.318L381.864 548.325L383.702 547.537ZM383.622 514.064L381.784 513.277L381.78 513.285L381.777 513.293L383.622 514.064ZM393.472 499.971L394.859 501.411L394.868 501.403L393.472 499.971ZM407.886 490.682L407.171 488.814L407.165 488.816L407.886 490.682ZM442.88 490.682L442.159 492.547L442.88 490.682ZM457.374 499.971L458.762 498.53L458.761 498.53L457.374 499.971ZM444.319 530.801C444.319 524.435 442.709 519.163 439.258 515.228L436.251 517.866C438.886 520.871 440.319 525.101 440.319 530.801H444.319ZM439.258 515.228C435.787 511.269 431.099 509.342 425.423 509.342V513.342C430.104 513.342 433.637 514.884 436.251 517.866L439.258 515.228ZM425.423 509.342C419.701 509.342 414.983 511.265 411.507 515.228L414.514 517.866C417.125 514.889 420.681 513.342 425.423 513.342V509.342ZM411.495 515.241C408.105 519.176 406.526 524.443 406.526 530.801H410.526C410.526 525.093 411.937 520.857 414.526 517.852L411.495 515.241ZM406.526 530.801C406.526 537.158 408.105 542.425 411.495 546.36L414.526 543.749C411.937 540.744 410.526 536.508 410.526 530.801H406.526ZM411.505 546.372C414.939 550.295 419.665 552.18 425.423 552.18V548.18C420.61 548.18 417.062 546.647 414.516 543.738L411.505 546.372ZM425.423 552.18C431.134 552.18 435.831 550.291 439.26 546.372L436.25 543.738C433.7 546.652 430.175 548.18 425.423 548.18V552.18ZM439.258 546.373C442.709 542.438 444.319 537.166 444.319 530.801H440.319C440.319 536.5 438.886 540.731 436.251 543.736L439.258 546.373ZM468.667 530.801C468.667 536.348 467.574 541.6 465.392 546.573L469.055 548.181C471.464 542.691 472.667 536.891 472.667 530.801H468.667ZM465.385 546.589C463.254 551.562 460.129 556.041 455.987 560.03L458.761 562.911C463.267 558.572 466.709 553.655 469.062 548.165L465.385 546.589ZM455.995 560.022C451.799 564.013 447.106 567.02 441.909 569.058L443.37 572.782C449.064 570.549 454.194 567.256 458.752 562.92L455.995 560.022ZM441.903 569.06C436.757 571.098 431.269 572.123 425.423 572.123V576.123C431.748 576.123 437.738 575.012 443.376 572.779L441.903 569.06ZM425.423 572.123C419.465 572.123 413.895 571.097 408.696 569.058L407.236 572.782C412.927 575.014 418.995 576.123 425.423 576.123V572.123ZM408.702 569.06C403.563 567.025 398.955 564.023 394.868 560.039L392.075 562.903C396.53 567.246 401.584 570.544 407.229 572.779L408.702 569.06ZM394.849 560.021C390.768 556.144 387.672 551.723 385.54 546.749L381.864 548.325C384.217 553.815 387.633 558.683 392.094 562.921L394.849 560.021ZM385.543 546.756C383.408 541.724 382.339 536.411 382.339 530.801H378.339C378.339 536.935 379.511 542.78 381.861 548.318L385.543 546.756ZM382.339 530.801C382.339 525.128 383.385 519.813 385.467 514.836L381.777 513.293C379.481 518.78 378.339 524.622 378.339 530.801H382.339ZM385.46 514.852C387.592 509.879 390.716 505.4 394.859 501.411L392.084 498.53C387.578 502.869 384.137 507.786 381.784 513.277L385.46 514.852ZM394.868 501.403C398.895 497.477 403.471 494.53 408.606 492.547L407.165 488.816C401.516 490.997 396.483 494.243 392.076 498.538L394.868 501.403ZM408.6 492.55C413.801 490.561 419.403 489.559 425.423 489.559V485.559C418.95 485.559 412.861 486.638 407.171 488.814L408.6 492.55ZM425.423 489.559C431.442 489.559 437.015 490.561 442.159 492.547L443.6 488.816C437.961 486.638 431.895 485.559 425.423 485.559V489.559ZM442.159 492.547C447.297 494.531 451.903 497.481 455.987 501.412L458.761 498.53C454.303 494.239 449.247 490.996 443.6 488.816L442.159 492.547ZM455.986 501.411C460.185 505.456 463.335 509.962 465.465 514.932L469.142 513.357C466.788 507.863 463.318 502.92 458.762 498.53L455.986 501.411ZM465.465 514.932C467.597 519.907 468.667 525.19 468.667 530.801H472.667C472.667 524.666 471.494 518.845 469.142 513.357L465.465 514.932ZM558.82 533.123L560.321 531.801L558.521 529.758L557.11 532.086L558.82 533.123ZM572.834 545.215L571.828 546.944L571.837 546.949L572.834 545.215ZM597.177 545.775L595.903 544.234L595.896 544.24L595.888 544.246L597.177 545.775ZM597.738 528.078L596.393 529.558L596.41 529.574L596.428 529.59L597.738 528.078ZM581.642 521.512L581.121 523.443L581.125 523.444L581.642 521.512ZM561.383 461.613L562.755 463.068L562.755 463.068L561.383 461.613ZM608.949 453.605L608.365 455.518L608.375 455.521L608.386 455.524L608.949 453.605ZM625.445 461.453L627.279 462.252L627.941 460.732L626.57 459.8L625.445 461.453ZM615.435 484.436L614.137 485.957L616.191 487.709L617.269 485.234L615.435 484.436ZM604.224 477.469L603.446 479.311L603.461 479.318L603.477 479.324L604.224 477.469ZM583.564 477.869L584.77 479.465L584.781 479.456L584.792 479.448L583.564 477.869ZM583.084 491.963L581.792 493.49L581.801 493.498L581.811 493.506L583.084 491.963ZM595.336 497.008L595.871 495.081L595.86 495.078L595.849 495.075L595.336 497.008ZM596.777 497.408L596.242 499.335L596.255 499.339L596.777 497.408ZM622.482 509.02L623.923 507.632L623.914 507.624L622.482 509.02ZM628.808 519.43L626.924 520.099L626.927 520.107L628.808 519.43ZM618.719 562.832L620.074 564.303L620.079 564.298L618.719 562.832ZM563.705 569.959L562.937 571.806L562.942 571.808L563.705 569.959ZM544.406 556.906L542.696 555.87L541.864 557.242L543.023 558.351L544.406 556.906ZM557.32 534.445C562.166 539.945 566.999 544.136 571.828 546.944L573.839 543.486C569.486 540.955 564.977 537.084 560.321 531.801L557.32 534.445ZM571.837 546.949C576.734 549.763 581.692 551.219 586.687 551.219V547.219C582.5 547.219 578.223 546.005 573.83 543.481L571.837 546.949ZM586.687 551.219C591.332 551.219 595.315 549.962 598.467 547.304L595.888 544.246C593.595 546.18 590.584 547.219 586.687 547.219V551.219ZM598.452 547.317C601.676 544.651 603.342 541.182 603.342 537.047H599.342C599.342 539.959 598.231 542.309 595.903 544.234L598.452 547.317ZM603.342 537.047C603.342 532.712 601.986 529.113 599.048 526.567L596.428 529.59C598.295 531.207 599.342 533.587 599.342 537.047H603.342ZM599.083 526.598C597.647 525.293 595.459 524.105 592.708 522.983C589.919 521.846 586.395 520.713 582.159 519.58L581.125 523.444C585.271 524.553 588.62 525.636 591.197 526.687C593.811 527.753 595.48 528.728 596.393 529.558L599.083 526.598ZM582.163 519.581C570.812 516.519 563.119 512.61 558.744 508.037L555.854 510.803C560.98 516.16 569.517 520.312 581.121 523.443L582.163 519.581ZM558.744 508.037C554.434 503.534 552.172 497.273 552.172 489H548.172C548.172 498.024 550.66 505.376 555.854 510.803L558.744 508.037ZM552.172 489C552.172 478.284 555.72 469.701 562.755 463.068L560.011 460.158C552.097 467.62 548.172 477.294 548.172 489H552.172ZM562.755 463.068C569.853 456.372 579.078 452.963 590.611 452.963V448.963C578.228 448.963 567.966 452.654 560.01 460.158L562.755 463.068ZM590.611 452.963C596.887 452.963 602.801 453.818 608.365 455.518L609.533 451.693C603.565 449.869 597.255 448.963 590.611 448.963V452.963ZM608.386 455.524C613.998 457.172 619.308 459.697 624.32 463.107L626.57 459.8C621.225 456.163 615.538 453.455 609.512 451.686L608.386 455.524ZM623.611 460.655L613.602 483.637L617.269 485.234L627.279 462.252L623.611 460.655ZM616.733 482.914C612.963 479.698 609.043 477.254 604.972 475.614L603.477 479.324C607.093 480.78 610.647 482.98 614.137 485.957L616.733 482.914ZM605.003 475.626C600.991 473.931 596.964 473.066 592.933 473.066V477.066C596.377 477.066 599.877 477.803 603.446 479.311L605.003 475.626ZM592.933 473.066C588.764 473.066 585.173 474.084 582.336 476.29L584.792 479.448C586.76 477.917 589.416 477.066 592.933 477.066V473.066ZM582.359 476.273C579.482 478.447 577.961 481.374 577.961 484.916H581.961C581.961 482.692 582.842 480.922 584.77 479.465L582.359 476.273ZM577.961 484.916C577.961 488.389 579.223 491.316 581.792 493.49L584.376 490.436C582.78 489.086 581.961 487.315 581.961 484.916H577.961ZM581.811 493.506C584.311 495.568 588.776 497.336 594.823 498.941L595.849 495.075C589.831 493.477 586.127 491.881 584.357 490.42L581.811 493.506ZM594.8 498.935L596.242 499.335L597.312 495.481L595.871 495.081L594.8 498.935ZM596.255 499.339C602.705 501.084 607.995 502.899 612.15 504.776C616.326 506.663 619.242 508.561 621.05 510.415L623.914 507.624C621.612 505.261 618.189 503.115 613.796 501.131C609.383 499.137 603.875 497.256 597.299 495.478L596.255 499.339ZM621.042 510.407C623.606 513.069 625.57 516.289 626.924 520.099L630.693 518.76C629.164 514.455 626.911 510.735 623.923 507.632L621.042 510.407ZM626.927 520.107C628.279 523.863 628.97 528.087 628.97 532.803H632.97C632.97 527.695 632.221 523.004 630.69 518.752L626.927 520.107ZM628.97 532.803C628.97 544.757 625.069 554.21 617.358 561.366L620.079 564.298C628.704 556.293 632.97 545.726 632.97 532.803H628.97ZM617.363 561.361C609.644 568.475 599.277 572.123 586.047 572.123V576.123C600.043 576.123 611.458 572.243 620.074 564.303L617.363 561.361ZM586.047 572.123C578.108 572.123 570.924 570.775 564.468 568.11L562.942 571.808C569.938 574.695 577.649 576.123 586.047 576.123V572.123ZM564.473 568.112C558.066 565.447 551.836 561.247 545.789 555.461L543.023 558.351C549.362 564.417 555.998 568.919 562.937 571.806L564.473 568.112ZM546.116 557.943L560.53 534.16L557.11 532.086L542.696 555.87L546.116 557.943ZM709.2 520.15V522.15H711.446L711.187 519.919L709.2 520.15ZM703.915 509.1L702.541 510.553L702.548 510.559L702.554 510.565L703.915 509.1ZM681.894 508.779L683.249 510.25L683.25 510.249L681.894 508.779ZM676.448 520.15L674.48 519.798L674.059 522.15H676.448V520.15ZM737.308 536.246V538.246H739.308V536.246H737.308ZM675.808 536.246V534.246H673.791L673.808 536.263L675.808 536.246ZM680.612 550.74L679.142 552.096L679.147 552.102L679.153 552.107L680.612 550.74ZM704.876 553.383L705.834 555.139L705.845 555.133L704.876 553.383ZM711.683 546.096L712.43 544.241L710.696 543.542L709.882 545.225L711.683 546.096ZM733.144 554.744L734.992 555.509L735.764 553.644L733.891 552.889L733.144 554.744ZM661.634 562.432L660.276 563.9L660.286 563.909L661.634 562.432ZM661.634 500.051L660.238 498.619L660.233 498.623L661.634 500.051ZM725.696 500.211L724.223 501.563L725.696 500.211ZM711.187 519.919C710.606 514.922 708.661 510.777 705.276 507.634L702.554 510.565C705.149 512.974 706.727 516.196 707.214 520.381L711.187 519.919ZM705.289 507.646C701.954 504.493 697.82 502.936 693.025 502.936V506.936C696.877 506.936 700.004 508.154 702.541 510.553L705.289 507.646ZM693.025 502.936C687.998 502.936 683.763 504.332 680.537 507.31L683.25 510.249C685.577 508.101 688.762 506.936 693.025 506.936V502.936ZM680.538 507.309C677.39 510.21 675.435 514.462 674.48 519.798L678.417 520.503C679.277 515.696 680.952 512.367 683.249 510.25L680.538 507.309ZM676.448 522.15H709.2V518.15H676.448V522.15ZM737.308 534.246H675.808V538.246H737.308V534.246ZM673.808 536.263C673.864 542.832 675.554 548.204 679.142 552.096L682.083 549.385C679.371 546.443 677.858 542.152 677.808 536.229L673.808 536.263ZM679.153 552.107C682.771 555.971 687.815 557.785 693.986 557.785V553.785C688.625 553.785 684.753 552.236 682.072 549.373L679.153 552.107ZM693.986 557.785C698.549 557.785 702.53 556.941 705.834 555.139L703.918 551.627C701.35 553.028 698.07 553.785 693.986 553.785V557.785ZM705.845 555.133C709.211 553.269 711.763 550.525 713.484 546.966L709.882 545.225C708.506 548.073 706.52 550.187 703.908 551.633L705.845 555.133ZM710.935 547.951L732.396 556.599L733.891 552.889L712.43 544.241L710.935 547.951ZM731.296 553.979C728.931 559.693 724.748 564.133 718.613 567.301L720.448 570.855C727.339 567.297 732.231 562.18 734.992 555.509L731.296 553.979ZM718.613 567.301C712.454 570.482 704.807 572.123 695.587 572.123V576.123C705.266 576.123 713.581 574.401 720.448 570.855L718.613 567.301ZM695.587 572.123C681.878 572.123 671.079 568.342 662.982 560.954L660.286 563.909C669.273 572.11 681.109 576.123 695.587 576.123V572.123ZM662.992 560.963C654.96 553.537 650.902 543.763 650.902 531.441H646.902C646.902 544.744 651.332 555.631 660.276 563.9L662.992 560.963ZM650.902 531.441C650.902 519.344 654.954 509.406 663.035 501.478L660.233 498.623C651.337 507.352 646.902 518.341 646.902 531.441H650.902ZM663.03 501.483C671.162 493.554 681.429 489.559 693.986 489.559V485.559C680.49 485.559 669.189 489.891 660.238 498.619L663.03 501.483ZM693.986 489.559C706.93 489.559 716.926 493.612 724.223 501.563L727.17 498.859C718.985 489.94 707.841 485.559 693.986 485.559V489.559ZM724.223 501.563C731.538 509.534 735.308 520.558 735.308 534.885H739.308C739.308 519.849 735.337 507.758 727.17 498.859L724.223 501.563ZM735.308 534.885V536.246H739.308V534.885H735.308ZM760.444 571H758.444V573H760.444V571ZM760.444 490.121V488.121H758.444V490.121H760.444ZM787.35 490.121H789.35V488.121H787.35V490.121ZM787.35 509.18H785.35L789.207 509.922L787.35 509.18ZM819.542 488.52L819.352 490.511L819.401 490.515L819.451 490.517L819.542 488.52ZM823.065 488.84L825.054 489.049L825.257 487.12L823.335 486.858L823.065 488.84ZM820.342 514.785L819.692 516.677L822.069 517.494L822.331 514.994L820.342 514.785ZM794.397 519.51L792.901 518.182L792.9 518.183L794.397 519.51ZM788.792 571V573H790.792V571H788.792ZM762.444 571V490.121H758.444V571H762.444ZM760.444 492.121H787.35V488.121H760.444V492.121ZM785.35 490.121V509.18H789.35V490.121H785.35ZM789.207 509.922C791.879 503.243 795.466 498.383 799.892 495.186L797.55 491.943C792.367 495.686 788.374 501.236 785.493 508.437L789.207 509.922ZM799.892 495.186C804.306 491.998 809.699 490.359 816.178 490.359V486.359C808.991 486.359 802.746 488.191 797.55 491.943L799.892 495.186ZM816.178 490.359C817.236 490.359 818.294 490.41 819.352 490.511L819.731 486.529C818.547 486.416 817.363 486.359 816.178 486.359V490.359ZM819.451 490.517C820.565 490.568 821.679 490.669 822.795 490.822L823.335 486.858C822.102 486.69 820.867 486.578 819.632 486.522L819.451 490.517ZM821.076 488.631L818.353 514.576L822.331 514.994L825.054 489.049L821.076 488.631ZM820.993 512.894C819.185 512.272 817.392 511.816 815.616 511.529L814.979 515.478C816.513 515.726 818.084 516.124 819.692 516.677L820.993 512.894ZM815.616 511.529C813.864 511.247 812.156 511.104 810.493 511.104V515.104C811.926 515.104 813.421 515.227 814.979 515.478L815.616 511.529ZM810.493 511.104C803.115 511.104 797.152 513.393 792.901 518.182L795.893 520.837C799.223 517.085 803.991 515.104 810.493 515.104V511.104ZM792.9 518.183C788.733 522.886 786.792 529.432 786.792 537.527H790.792C790.792 530.034 792.587 524.568 795.894 520.836L792.9 518.183ZM786.792 537.527V571H790.792V537.527H786.792ZM788.792 569H760.444V573H788.792V569ZM864.619 571L862.795 571.82L863.325 573H864.619V571ZM828.264 490.121V488.121H825.172L826.44 490.941L828.264 490.121ZM858.693 490.121L860.559 489.401L860.066 488.121H858.693V490.121ZM872.467 525.836L870.601 526.556L870.614 526.59L870.629 526.624L872.467 525.836ZM873.027 527.197L874.9 526.495L874.892 526.475L874.884 526.454L873.027 527.197ZM876.311 538.488L874.333 538.787L878.291 538.771L876.311 538.488ZM879.434 527.998L881.297 528.725L881.298 528.723L879.434 527.998ZM880.234 525.836L878.368 525.116L878.352 525.16L878.337 525.203L880.234 525.836ZM894.008 490.121V488.121H892.636L892.142 489.401L894.008 490.121ZM923.717 490.121L925.538 490.949L926.823 488.121H923.717V490.121ZM886.961 571V573H888.249L888.782 571.827L886.961 571ZM866.443 570.18L830.088 489.301L826.44 490.941L862.795 571.82L866.443 570.18ZM828.264 492.121H858.693V488.121H828.264V492.121ZM856.827 490.841L870.601 526.556L874.333 525.116L860.559 489.401L856.827 490.841ZM870.629 526.624C870.78 526.978 870.961 527.416 871.17 527.94L874.884 526.454C874.667 525.911 874.474 525.441 874.305 525.048L870.629 526.624ZM871.155 527.9C872.898 532.549 873.937 536.161 874.333 538.787L878.288 538.19C877.83 535.157 876.68 531.242 874.9 526.495L871.155 527.9ZM878.291 538.771C878.632 536.381 879.608 533.052 881.297 528.725L877.57 527.271C875.842 531.699 874.737 535.364 874.331 538.205L878.291 538.771ZM881.298 528.723C881.674 527.756 881.955 526.998 882.132 526.468L878.337 525.203C878.193 525.635 877.941 526.318 877.57 527.273L881.298 528.723ZM882.1 526.556L895.874 490.841L892.142 489.401L878.368 525.116L882.1 526.556ZM894.008 492.121H923.717V488.121H894.008V492.121ZM921.896 489.294L885.14 570.173L888.782 571.827L925.538 490.949L921.896 489.294ZM886.961 569H864.619V573H886.961V569ZM943.25 453.846L941.848 452.419L941.841 452.425L941.835 452.431L943.25 453.846ZM965.591 453.766L964.177 455.18L964.183 455.186L964.19 455.192L965.591 453.766ZM965.511 476.188L964.097 474.773L964.091 474.779L964.085 474.786L965.511 476.188ZM940.126 571H938.126V573H940.126V571ZM940.126 490.121V488.121H938.126V490.121H940.126ZM968.714 490.121H970.714V488.121H968.714V490.121ZM968.714 571V573H970.714V571H968.714ZM940.685 464.896C940.685 461.1 941.998 457.926 944.664 455.26L941.835 452.431C938.415 455.852 936.685 460.045 936.685 464.896H940.685ZM944.651 455.272C947.375 452.595 950.583 451.281 954.38 451.281V447.281C949.529 447.281 945.316 449.01 941.848 452.419L944.651 455.272ZM954.38 451.281C958.37 451.281 961.587 452.59 964.177 455.18L967.005 452.351C963.616 448.962 959.359 447.281 954.38 447.281V451.281ZM964.19 455.192C966.834 457.79 968.156 460.979 968.156 464.896H972.156C972.156 459.952 970.435 455.721 966.993 452.339L964.19 455.192ZM968.156 464.896C968.156 468.804 966.813 472.057 964.097 474.773L966.925 477.602C970.402 474.125 972.156 469.851 972.156 464.896H968.156ZM964.085 474.786C961.421 477.496 958.227 478.832 954.38 478.832V482.832C959.289 482.832 963.515 481.072 966.938 477.589L964.085 474.786ZM954.38 478.832C950.666 478.832 947.491 477.487 944.756 474.705L941.903 477.509C945.361 481.027 949.553 482.832 954.38 482.832V478.832ZM944.756 474.705C942.018 471.921 940.685 468.684 940.685 464.896H936.685C936.685 469.758 938.448 473.995 941.903 477.509L944.756 474.705ZM942.126 571V490.121H938.126V571H942.126ZM940.126 492.121H968.714V488.121H940.126V492.121ZM966.714 490.121V571H970.714V490.121H966.714ZM968.714 569H940.126V573H968.714V569ZM1055.19 516.707L1053.87 518.205L1057.19 521.146V516.707H1055.19ZM1025.56 515.266L1024.08 513.928L1024.07 513.934L1024.07 513.94L1025.56 515.266ZM1025.8 545.295L1024.35 546.666L1025.8 545.295ZM1047.91 549.139L1048.72 550.965L1048.73 550.961L1048.74 550.957L1047.91 549.139ZM1055.19 543.773H1057.19V538.785L1053.75 542.392L1055.19 543.773ZM1055.19 568.518L1056.17 570.261L1057.19 569.687V568.518H1055.19ZM1044.94 572.762L1044.43 570.829L1044.94 572.762ZM1004.1 562.191L1002.66 563.577L1002.67 563.586L1004.1 562.191ZM1004.34 499.65L1002.91 498.25L1002.91 498.251L1004.34 499.65ZM1055.19 492.604H1057.19V491.471L1056.22 490.889L1055.19 492.604ZM1056.52 515.209C1053.63 512.657 1050.79 510.736 1047.99 509.509L1046.38 513.174C1048.7 514.19 1051.2 515.845 1053.87 518.205L1056.52 515.209ZM1047.99 509.509C1045.17 508.276 1042.2 507.66 1039.1 507.66V511.66C1041.65 511.66 1044.08 512.165 1046.38 513.174L1047.99 509.509ZM1039.1 507.66C1032.95 507.66 1027.87 509.714 1024.08 513.928L1027.05 516.604C1029.98 513.343 1033.93 511.66 1039.1 511.66V507.66ZM1024.07 513.94C1020.35 518.136 1018.6 523.728 1018.6 530.48H1022.6C1022.6 524.42 1024.16 519.869 1027.06 516.592L1024.07 513.94ZM1018.6 530.48C1018.6 537.063 1020.45 542.533 1024.35 546.666L1027.26 543.924C1024.21 540.69 1022.6 536.284 1022.6 530.48H1018.6ZM1024.35 546.666C1028.26 550.816 1033.49 552.82 1039.82 552.82V548.82C1034.4 548.82 1030.29 547.141 1027.26 543.924L1024.35 546.666ZM1039.82 552.82C1042.97 552.82 1045.94 552.206 1048.72 550.965L1047.09 547.313C1044.85 548.313 1042.43 548.82 1039.82 548.82V552.82ZM1048.74 550.957C1051.57 549.66 1054.2 547.708 1056.64 545.155L1053.75 542.392C1051.59 544.643 1049.37 546.269 1047.07 547.321L1048.74 550.957ZM1053.19 543.773V568.518H1057.19V543.773H1053.19ZM1054.21 566.774C1050.93 568.622 1047.67 569.969 1044.43 570.829L1045.46 574.695C1049.05 573.739 1052.62 572.256 1056.17 570.261L1054.21 566.774ZM1044.43 570.829C1041.18 571.691 1037.83 572.123 1034.37 572.123V576.123C1038.17 576.123 1041.87 575.648 1045.46 574.695L1044.43 570.829ZM1034.37 572.123C1022.4 572.123 1012.85 568.316 1005.54 560.797L1002.67 563.586C1010.83 571.976 1021.46 576.123 1034.37 576.123V572.123ZM1005.55 560.806C998.277 553.235 994.571 543.246 994.571 530.641H990.571C990.571 544.087 994.553 555.132 1002.66 563.576L1005.55 560.806ZM994.571 530.641C994.571 518.439 998.338 508.635 1005.77 501.05L1002.91 498.251C994.652 506.681 990.571 517.538 990.571 530.641H994.571ZM1005.77 501.05C1013.26 493.41 1022.84 489.559 1034.69 489.559V485.559C1021.88 485.559 1011.23 489.768 1002.91 498.25L1005.77 501.05ZM1034.69 489.559C1038.68 489.559 1042.22 489.947 1045.35 490.704L1046.29 486.816C1042.8 485.971 1038.93 485.559 1034.69 485.559V489.559ZM1045.35 490.704C1048.46 491.457 1051.4 492.66 1054.16 494.319L1056.22 490.889C1053.11 489.023 1049.8 487.664 1046.29 486.816L1045.35 490.704ZM1053.19 492.604V516.707H1057.19V492.604H1053.19ZM1135.02 520.15V522.15H1137.27L1137.01 519.919L1135.02 520.15ZM1129.74 509.1L1128.36 510.553L1128.37 510.559L1128.38 510.565L1129.74 509.1ZM1107.72 508.779L1109.07 510.25L1109.07 510.249L1107.72 508.779ZM1102.27 520.15L1100.3 519.798L1099.88 522.15H1102.27V520.15ZM1163.13 536.246V538.246H1165.13V536.246H1163.13ZM1101.63 536.246V534.246H1099.61L1099.63 536.263L1101.63 536.246ZM1106.44 550.74L1104.97 552.096L1104.97 552.102L1104.98 552.107L1106.44 550.74ZM1130.7 553.383L1131.66 555.139L1131.67 555.133L1130.7 553.383ZM1137.51 546.096L1138.25 544.241L1136.52 543.542L1135.71 545.225L1137.51 546.096ZM1158.97 554.744L1160.82 555.509L1161.59 553.644L1159.71 552.889L1158.97 554.744ZM1087.46 562.432L1086.1 563.9L1086.11 563.909L1087.46 562.432ZM1087.46 500.051L1086.06 498.619L1086.06 498.623L1087.46 500.051ZM1151.52 500.211L1150.05 501.563L1151.52 500.211ZM1137.01 519.919C1136.43 514.922 1134.48 510.777 1131.1 507.634L1128.38 510.565C1130.97 512.974 1132.55 516.196 1133.04 520.381L1137.01 519.919ZM1131.11 507.646C1127.78 504.493 1123.64 502.936 1118.85 502.936V506.936C1122.7 506.936 1125.83 508.154 1128.36 510.553L1131.11 507.646ZM1118.85 502.936C1113.82 502.936 1109.59 504.332 1106.36 507.31L1109.07 510.249C1111.4 508.101 1114.59 506.936 1118.85 506.936V502.936ZM1106.36 507.309C1103.21 510.21 1101.26 514.462 1100.3 519.798L1104.24 520.503C1105.1 515.696 1106.78 512.367 1109.07 510.25L1106.36 507.309ZM1102.27 522.15H1135.02V518.15H1102.27V522.15ZM1163.13 534.246H1101.63V538.246H1163.13V534.246ZM1099.63 536.263C1099.69 542.832 1101.38 548.204 1104.97 552.096L1107.91 549.385C1105.19 546.443 1103.68 542.152 1103.63 536.229L1099.63 536.263ZM1104.98 552.107C1108.59 555.971 1113.64 557.785 1119.81 557.785V553.785C1114.45 553.785 1110.58 552.236 1107.9 549.373L1104.98 552.107ZM1119.81 557.785C1124.37 557.785 1128.35 556.941 1131.66 555.139L1129.74 551.627C1127.17 553.028 1123.89 553.785 1119.81 553.785V557.785ZM1131.67 555.133C1135.03 553.269 1137.59 550.525 1139.31 546.966L1135.71 545.225C1134.33 548.073 1132.34 550.187 1129.73 551.633L1131.67 555.133ZM1136.76 547.951L1158.22 556.599L1159.71 552.889L1138.25 544.241L1136.76 547.951ZM1157.12 553.979C1154.75 559.693 1150.57 564.133 1144.44 567.301L1146.27 570.855C1153.16 567.297 1158.05 562.18 1160.82 555.509L1157.12 553.979ZM1144.44 567.301C1138.28 570.482 1130.63 572.123 1121.41 572.123V576.123C1131.09 576.123 1139.4 574.401 1146.27 570.855L1144.44 567.301ZM1121.41 572.123C1107.7 572.123 1096.9 568.342 1088.81 560.954L1086.11 563.909C1095.1 572.11 1106.93 576.123 1121.41 576.123V572.123ZM1088.82 560.963C1080.78 553.537 1076.72 543.763 1076.72 531.441H1072.72C1072.72 544.744 1077.16 555.631 1086.1 563.9L1088.82 560.963ZM1076.72 531.441C1076.72 519.344 1080.78 509.406 1088.86 501.478L1086.06 498.623C1077.16 507.352 1072.72 518.341 1072.72 531.441H1076.72ZM1088.85 501.483C1096.99 493.554 1107.25 489.559 1119.81 489.559V485.559C1106.31 485.559 1095.01 489.891 1086.06 498.619L1088.85 501.483ZM1119.81 489.559C1132.75 489.559 1142.75 493.612 1150.05 501.563L1152.99 498.859C1144.81 489.94 1133.66 485.559 1119.81 485.559V489.559ZM1150.05 501.563C1157.36 509.534 1161.13 520.558 1161.13 534.885H1165.13C1165.13 519.849 1161.16 507.758 1152.99 498.859L1150.05 501.563ZM1161.13 534.885V536.246H1165.13V534.885H1161.13ZM1178.58 564.273L1176.65 563.748L1176.26 565.187L1177.53 565.973L1178.58 564.273ZM1184.51 542.492L1185.82 540.985L1183.41 538.887L1182.58 541.967L1184.51 542.492ZM1198.2 550.9L1197.46 552.759L1197.47 552.763L1197.48 552.768L1198.2 550.9ZM1221.5 552.102L1222.53 553.817L1222.55 553.806L1222.57 553.795L1221.5 552.102ZM1213.01 539.049L1212.55 540.994L1212.56 540.996L1213.01 539.049ZM1207.09 537.527L1207.64 535.604L1207.63 535.602L1207.62 535.599L1207.09 537.527ZM1188.43 528.318L1187.02 529.733L1187.03 529.742L1187.04 529.752L1188.43 528.318ZM1191.47 494.605L1190.23 493.038L1190.22 493.044L1191.47 494.605ZM1231.27 489.4L1230.82 491.35L1230.83 491.352L1230.85 491.355L1231.27 489.4ZM1247.77 494.926L1249.68 495.504L1250.19 493.819L1248.58 493.1L1247.77 494.926ZM1241.84 514.545L1240.72 516.202L1242.97 517.723L1243.76 515.123L1241.84 514.545ZM1219.98 519.91L1220.52 517.985L1220.51 517.981L1220.49 517.977L1219.98 519.91ZM1223.82 520.951L1224.37 519.029L1224.34 519.019L1224.31 519.011L1223.82 520.951ZM1244.4 530.961L1242.99 532.375L1243 532.385L1243.01 532.395L1244.4 530.961ZM1240.72 566.516L1241.97 568.079L1241.98 568.072L1240.72 566.516ZM1195.72 571.641L1196.24 569.711L1196.23 569.709L1196.23 569.706L1195.72 571.641ZM1180.51 564.798L1186.44 543.017L1182.58 541.967L1176.65 563.748L1180.51 564.798ZM1183.19 544C1187.52 547.773 1192.28 550.697 1197.46 552.759L1198.94 549.042C1194.19 547.153 1189.82 544.471 1185.82 540.985L1183.19 544ZM1197.48 552.768C1202.72 554.772 1208 555.783 1213.33 555.783V551.783C1208.52 551.783 1203.72 550.872 1198.91 549.033L1197.48 552.768ZM1213.33 555.783C1217.06 555.783 1220.21 555.208 1222.53 553.817L1220.47 550.387C1219.06 551.237 1216.76 551.783 1213.33 551.783V555.783ZM1222.57 553.795C1225.01 552.258 1226.3 549.94 1226.3 547.057H1222.3C1222.3 548.551 1221.73 549.596 1220.44 550.408L1222.57 553.795ZM1226.3 547.057C1226.3 544.436 1224.88 542.33 1222.64 540.741C1220.45 539.188 1217.34 538.007 1213.47 537.101L1212.56 540.996C1216.22 541.853 1218.75 542.886 1220.32 544.003C1221.85 545.084 1222.3 546.1 1222.3 547.057H1226.3ZM1213.48 537.104C1211.04 536.52 1209.09 536.02 1207.64 535.604L1206.54 539.45C1208.07 539.889 1210.08 540.404 1212.55 540.994L1213.48 537.104ZM1207.62 535.599C1199.22 533.289 1193.37 530.336 1189.82 526.885L1187.04 529.752C1191.28 533.881 1197.87 537.068 1206.56 539.456L1207.62 535.599ZM1189.84 526.904C1186.42 523.482 1184.66 519.049 1184.66 513.424H1180.66C1180.66 519.971 1182.75 525.467 1187.02 529.733L1189.84 526.904ZM1184.66 513.424C1184.66 506.153 1187.35 500.467 1192.72 496.167L1190.22 493.044C1183.85 498.14 1180.66 504.999 1180.66 513.424H1184.66ZM1192.71 496.173C1198.18 491.836 1205.71 489.559 1215.5 489.559V485.559C1205.11 485.559 1196.61 487.979 1190.23 493.038L1192.71 496.173ZM1215.5 489.559C1220.52 489.559 1225.62 490.154 1230.82 491.35L1231.72 487.451C1226.24 486.192 1220.83 485.559 1215.5 485.559V489.559ZM1230.85 491.355C1236.09 492.497 1241.46 494.292 1246.95 496.751L1248.58 493.1C1242.87 490.541 1237.24 488.653 1231.7 487.446L1230.85 491.355ZM1245.85 494.348L1239.93 513.967L1243.76 515.123L1249.68 495.504L1245.85 494.348ZM1242.96 512.888C1239.04 510.237 1235.04 508.205 1230.96 506.807L1229.66 510.591C1233.38 511.863 1237.06 513.727 1240.72 516.202L1242.96 512.888ZM1230.96 506.807C1226.86 505.405 1222.75 504.697 1218.62 504.697V508.697C1222.28 508.697 1225.96 509.324 1229.66 510.591L1230.96 506.807ZM1218.62 504.697C1215.22 504.697 1212.32 505.216 1210.21 506.514L1212.3 509.924C1213.49 509.192 1215.51 508.697 1218.62 508.697V504.697ZM1210.21 506.514C1207.97 507.887 1206.77 509.997 1206.77 512.623H1210.77C1210.77 511.405 1211.23 510.579 1212.3 509.924L1210.21 506.514ZM1206.77 512.623C1206.77 515.055 1208.37 516.912 1210.48 518.284C1212.61 519.669 1215.65 520.836 1219.47 521.844L1220.49 517.977C1216.83 517.01 1214.27 515.974 1212.66 514.93C1211.04 513.873 1210.77 513.074 1210.77 512.623H1206.77ZM1219.44 521.835C1221.15 522.317 1222.46 522.671 1223.34 522.891L1224.31 519.011C1223.48 518.805 1222.23 518.464 1220.52 517.985L1219.44 521.835ZM1223.27 522.874C1233.07 525.679 1239.52 528.902 1242.99 532.375L1245.82 529.547C1241.6 525.332 1234.33 521.882 1224.37 519.029L1223.27 522.874ZM1243.01 532.395C1246.44 535.735 1248.25 540.328 1248.25 546.416H1252.25C1252.25 539.478 1250.16 533.767 1245.8 529.527L1243.01 532.395ZM1248.25 546.416C1248.25 554.096 1245.34 560.22 1239.46 564.959L1241.98 568.072C1248.81 562.562 1252.25 555.286 1252.25 546.416H1248.25ZM1239.47 564.953C1233.57 569.669 1225.64 572.123 1215.5 572.123V576.123C1226.28 576.123 1235.17 573.506 1241.97 568.079L1239.47 564.953ZM1215.5 572.123C1208.55 572.123 1202.14 571.314 1196.24 569.711L1195.19 573.571C1201.47 575.277 1208.24 576.123 1215.5 576.123V572.123ZM1196.23 569.706C1190.33 568.155 1184.8 565.779 1179.63 562.574L1177.53 565.973C1183.03 569.388 1188.93 571.923 1195.21 573.575L1196.23 569.706Z" fill="black" mask="url(#path-1-outside-1_746_18791)"/>
<path d="M1179.16 252.844C1177.42 252.493 1175.97 251.849 1174.8 250.912C1173.61 249.988 1172.8 248.827 1172.34 247.43C1171.87 246.046 1171.8 244.522 1172.14 242.86C1172.47 241.197 1173.12 239.827 1174.09 238.749C1175.05 237.668 1176.25 236.931 1177.7 236.537C1179.13 236.157 1180.71 236.142 1182.46 236.493L1187.8 237.569L1184.5 253.92L1179.16 252.844ZM1182.01 238.681C1180.1 238.295 1178.53 238.517 1177.3 239.347C1176.07 240.176 1175.27 241.532 1174.89 243.415C1174.51 245.312 1174.72 246.897 1175.52 248.169C1176.33 249.441 1177.69 250.27 1179.6 250.656L1182.26 251.192L1184.67 239.216L1182.01 238.681Z" fill="black"/>
<path d="M1156.76 243.196L1159.01 238.848L1153.9 236.201L1154.92 234.219L1160.04 236.866L1162.39 232.326L1156.63 229.348L1157.66 227.365L1165.84 231.601L1158.17 246.436L1149.98 242.201L1151.01 240.218L1156.76 243.196Z" fill="black"/>
<path d="M1146.53 218.769C1147.36 219.521 1147.98 220.339 1148.39 221.226C1148.78 222.123 1148.93 223.011 1148.82 223.888C1148.72 224.766 1148.35 225.56 1147.7 226.272L1145.53 224.307C1145.97 223.73 1146.16 223.103 1146.1 222.426C1146.03 221.739 1145.66 221.089 1144.98 220.477C1144.28 219.843 1143.59 219.515 1142.9 219.493C1142.19 219.483 1141.6 219.744 1141.12 220.278C1140.74 220.693 1140.56 221.144 1140.57 221.631C1140.57 222.106 1140.69 222.582 1140.93 223.057C1141.16 223.521 1141.52 224.127 1142.01 224.873C1142.62 225.816 1143.09 226.626 1143.4 227.301C1143.7 227.977 1143.81 228.708 1143.75 229.493C1143.69 230.277 1143.31 231.055 1142.61 231.826C1141.96 232.538 1141.22 233 1140.38 233.211C1139.54 233.423 1138.68 233.381 1137.78 233.086C1136.88 232.791 1136.01 232.262 1135.17 231.499C1133.97 230.415 1133.26 229.226 1133.05 227.934C1132.82 226.643 1133.13 225.438 1134 224.319L1136.24 226.349C1135.86 226.832 1135.73 227.41 1135.83 228.085C1135.93 228.76 1136.3 229.387 1136.94 229.967C1137.52 230.493 1138.13 230.774 1138.77 230.811C1139.41 230.847 1139.98 230.586 1140.48 230.029C1140.82 229.649 1141 229.233 1141 228.78C1140.97 228.328 1140.85 227.87 1140.62 227.405C1140.4 226.941 1140.05 226.346 1139.58 225.622C1138.97 224.656 1138.51 223.829 1138.2 223.142C1137.88 222.444 1137.76 221.697 1137.84 220.9C1137.89 220.105 1138.27 219.315 1138.98 218.533C1139.54 217.904 1140.25 217.467 1141.1 217.221C1141.94 216.964 1142.84 216.959 1143.8 217.205C1144.74 217.453 1145.65 217.974 1146.53 218.769Z" fill="black"/>
<path d="M1121.58 215.762L1135.18 206.103L1136.77 208.334L1123.17 217.992L1121.58 215.762Z" fill="black"/>
<path d="M1114.68 191.578C1114.07 192.283 1113.7 193.069 1113.6 193.936C1113.47 194.809 1113.6 195.714 1113.96 196.653C1114.37 197.681 1114.95 198.507 1115.73 199.131C1116.51 199.755 1117.41 200.132 1118.44 200.262C1119.47 200.376 1120.54 200.215 1121.65 199.778C1122.77 199.341 1123.68 198.73 1124.36 197.945C1125.03 197.15 1125.44 196.261 1125.59 195.275C1125.74 194.29 1125.61 193.283 1125.21 192.255C1124.66 190.869 1123.84 189.896 1122.72 189.335C1121.61 188.774 1120.35 188.656 1118.95 188.981L1121.23 194.814L1119.2 195.61L1115.85 187.05L1117.84 186.272C1119.11 185.963 1120.39 185.961 1121.68 186.265C1122.96 186.554 1124.12 187.138 1125.17 188.016C1126.2 188.886 1126.98 189.999 1127.51 191.355C1128.08 192.815 1128.27 194.28 1128.07 195.749C1127.85 197.224 1127.28 198.555 1126.36 199.742C1125.42 200.915 1124.2 201.798 1122.68 202.393C1121.16 202.988 1119.66 203.171 1118.18 202.943C1116.69 202.7 1115.37 202.106 1114.23 201.161C1113.07 200.207 1112.2 199.008 1111.64 197.562C1110.99 195.909 1110.83 194.281 1111.15 192.679C1111.44 191.067 1112.22 189.68 1113.49 188.516L1114.68 191.578Z" fill="black"/>
<path d="M1122.1 162.205L1122.24 164.937L1110.25 173.823L1122.68 173.157L1122.83 175.889L1106.15 176.782L1106 174.05L1117.98 165.165L1105.56 165.83L1105.42 163.097L1122.1 162.205Z" fill="black"/>
<path d="M1113.77 128.398L1115.96 128.125L1115.85 131.632L1118.22 129.052L1119.63 130.819L1116.59 132.533L1120 133.384L1119.17 135.428L1116.12 133.688L1117.13 137.057L1114.8 137.351L1114.91 133.866L1112.58 136.442L1111.18 134.675L1114.24 132.894L1110.82 132.012L1111.66 129.946L1114.7 131.761L1113.77 128.398Z" fill="black"/>
<path d="M1133.45 99.9814C1134.76 98.7828 1136.14 97.9893 1137.59 97.6008C1139.03 97.1897 1140.45 97.2134 1141.85 97.6721C1143.24 98.1082 1144.51 98.952 1145.66 100.204C1146.8 101.455 1147.52 102.79 1147.82 104.207C1148.13 105.614 1148.02 107.019 1147.48 108.422C1146.94 109.802 1146.02 111.092 1144.71 112.29L1140.69 115.967L1129.43 103.658L1133.45 99.9814ZM1143.2 110.643C1144.64 109.326 1145.39 107.927 1145.45 106.446C1145.5 104.964 1144.88 103.515 1143.58 102.099C1142.28 100.67 1140.87 99.905 1139.37 99.804C1137.87 99.703 1136.4 100.311 1134.96 101.628L1132.96 103.459L1141.2 112.473L1143.2 110.643Z" fill="black"/>
<path d="M1152.91 85.9348L1160.95 100.55L1158.55 101.868L1150.51 87.2535L1152.91 85.9348Z" fill="black"/>
<path d="M1177.72 81.8492C1177.09 81.1551 1176.35 80.705 1175.5 80.499C1174.64 80.2774 1173.73 80.2954 1172.76 80.5528C1171.69 80.8348 1170.8 81.3259 1170.09 82.0261C1169.38 82.7263 1168.91 83.5806 1168.66 84.589C1168.43 85.5934 1168.47 86.6757 1168.77 87.8359C1169.08 88.9961 1169.58 89.9635 1170.28 90.7381C1171 91.4932 1171.83 92.0002 1172.79 92.2591C1173.76 92.518 1174.77 92.5064 1175.84 92.2245C1177.28 91.8445 1178.34 91.1338 1179.02 90.0923C1179.71 89.0509 1179.97 87.8153 1179.81 86.3854L1173.75 87.9852L1173.19 85.8736L1182.08 83.526L1182.63 85.5912C1182.79 86.8892 1182.64 88.1601 1182.19 89.4041C1181.76 90.644 1181.05 91.7343 1180.05 92.675C1179.07 93.5962 1177.88 94.2427 1176.47 94.6145C1174.95 95.015 1173.48 95.0326 1172.04 94.6675C1170.6 94.2869 1169.34 93.5681 1168.27 92.5113C1167.21 91.4503 1166.47 90.1309 1166.06 88.553C1165.64 86.9751 1165.63 85.4636 1166.03 84.0186C1166.44 82.5694 1167.18 81.3313 1168.25 80.3042C1169.33 79.2575 1170.62 78.536 1172.12 78.1396C1173.84 77.686 1175.47 77.7089 1177.03 78.2083C1178.59 78.6882 1179.88 79.6219 1180.89 81.0095L1177.72 81.8492Z" fill="black"/>
<path d="M1194.93 75.3522L1195.16 92.0307L1192.42 92.0679L1192.19 75.3894L1194.93 75.3522Z" fill="black"/>
<path d="M1218.1 78.1822L1217.66 80.371L1213.3 79.5016L1210.48 93.6699L1207.79 93.1341L1210.62 78.9658L1206.24 78.0917L1206.68 75.9029L1218.1 78.1822Z" fill="black"/>
<path d="M1232.98 98.6265L1226.78 95.428L1224.15 97.908L1221.61 96.5999L1234.57 84.4877L1237.39 85.9386L1235.05 103.525L1232.49 102.206L1232.98 98.6265ZM1233.32 96.2906L1234.46 88.1574L1228.48 93.7955L1233.32 96.2906Z" fill="black"/>
<path d="M1244.62 108.49L1248.81 112.268L1247.33 113.908L1241.11 108.297L1252.28 95.9121L1254.31 97.7447L1244.62 108.49Z" fill="black"/>
<path d="M1276.84 129.288L1275.57 131.086L1273.05 128.639L1273.36 132.135L1271.11 131.98L1271.89 128.582L1268.96 130.528L1268.01 128.533L1271.35 127.455L1268.18 125.928L1269.53 124.013L1272.04 126.438L1271.7 122.985L1273.95 123.14L1273.2 126.603L1276.17 124.668L1277.12 126.685L1273.73 127.709L1276.84 129.288Z" fill="black"/>
<path d="M1276.48 166.359C1276.34 167.257 1275.88 168.024 1275.1 168.66C1274.33 169.295 1273.44 169.62 1272.45 169.634C1271.6 169.646 1270.83 169.433 1270.14 168.995C1269.46 168.573 1268.92 167.949 1268.5 167.123C1268.11 166.297 1267.9 165.331 1267.89 164.228L1267.79 157.556L1284.47 157.315L1284.56 163.674C1284.58 164.81 1284.4 165.789 1284.03 166.61C1283.65 167.432 1283.14 168.055 1282.49 168.48C1281.86 168.906 1281.14 169.124 1280.34 169.136C1279.38 169.15 1278.58 168.905 1277.93 168.403C1277.28 167.9 1276.8 167.219 1276.48 166.359ZM1277.5 160.152L1277.55 163.536C1277.56 164.431 1277.77 165.125 1278.18 165.615C1278.6 166.121 1279.2 166.368 1279.97 166.357C1280.72 166.346 1281.3 166.082 1281.71 165.564C1282.13 165.061 1282.34 164.362 1282.32 163.466L1282.27 160.083L1277.5 160.152ZM1270.11 163.955C1270.13 164.883 1270.36 165.608 1270.82 166.129C1271.27 166.651 1271.9 166.906 1272.7 166.894C1273.52 166.882 1274.16 166.593 1274.63 166.026C1275.1 165.459 1275.33 164.712 1275.32 163.784L1275.27 160.184L1270.06 160.26L1270.11 163.955Z" fill="black"/>
<path d="M1282.23 185.501L1272.01 182.586C1270.79 182.24 1269.79 182.294 1268.99 182.749C1268.19 183.22 1267.63 184.025 1267.3 185.163C1266.98 186.318 1267.03 187.298 1267.46 188.104C1267.9 188.926 1268.72 189.51 1269.93 189.856L1280.16 192.772L1279.41 195.403L1269.23 192.501C1267.92 192.128 1266.9 191.527 1266.15 190.699C1265.4 189.871 1264.94 188.916 1264.77 187.835C1264.6 186.754 1264.67 185.636 1265 184.482C1265.33 183.328 1265.86 182.338 1266.57 181.511C1267.29 180.7 1268.18 180.147 1269.24 179.852C1270.31 179.556 1271.5 179.595 1272.8 179.968L1282.98 182.87L1282.23 185.501Z" fill="black"/>
<path d="M1272.72 209.29L1258.16 201.165L1259.49 198.775L1274.06 206.901L1272.72 209.29Z" fill="black"/>
<path d="M1253.12 212.324L1249.49 216.641L1247.8 215.22L1253.19 208.809L1265.96 219.543L1264.2 221.637L1253.12 212.324Z" fill="black"/>
<path d="M1247.55 237.301C1246.09 238.314 1244.62 238.916 1243.13 239.108C1241.65 239.322 1240.24 239.109 1238.92 238.467C1237.59 237.849 1236.45 236.842 1235.48 235.449C1234.51 234.056 1233.98 232.637 1233.87 231.192C1233.75 229.756 1234.05 228.379 1234.77 227.06C1235.49 225.764 1236.58 224.61 1238.04 223.598L1242.51 220.492L1252.02 234.195L1247.55 237.301ZM1239.31 225.431C1237.71 226.544 1236.78 227.831 1236.53 229.291C1236.27 230.752 1236.69 232.271 1237.79 233.848C1238.89 235.439 1240.18 236.385 1241.66 236.685C1243.13 236.986 1244.67 236.58 1246.27 235.468L1248.5 233.921L1241.54 223.885L1239.31 225.431Z" fill="black"/>
<path d="M1206.86 253.147L1205.48 251.43L1208.53 249.683L1205.08 249.015L1205.85 246.893L1208.9 248.574L1207.83 245.224L1210.01 244.862L1210.13 248.369L1212.47 245.742L1213.94 247.566L1210.92 249.309L1214.33 249.933L1213.57 252.056L1210.44 250.386L1211.49 253.763L1209.29 254.13L1209.23 250.587L1206.86 253.147Z" fill="black"/>
<mask id="mask0_746_18791" style="mask-type:luminance" maskUnits="userSpaceOnUse" x="1185" y="144" width="24" height="30">
<path d="M1185.03 144.082C1185.03 144.082 1193.32 149.86 1193.97 157.564C1194.62 165.268 1190.07 170.564 1197.54 172.811C1204.2 174.897 1208.59 167.515 1207.94 160.774L1206.32 161.897C1206.32 161.897 1205.18 153.872 1202.25 149.218L1201.6 152.428C1201.6 152.428 1196.73 146.329 1193.32 144.564L1193.64 146.489C1193.8 146.65 1190.55 144.403 1185.03 144.082Z" fill="white"/>
</mask>
<g mask="url(#mask0_746_18791)">
<path d="M1194.3 179.394L1213.15 171.048L1198.2 138.307L1179.35 146.652L1194.3 179.394Z" fill="url(#paint0_linear_746_18791)"/>
</g>
<mask id="mask1_746_18791" style="mask-type:luminance" maskUnits="userSpaceOnUse" x="1185" y="144" width="18" height="29">
<path d="M1185.03 144.082C1185.03 144.082 1193.32 149.86 1193.97 157.564C1194.62 165.268 1190.23 170.404 1197.54 172.811C1206.64 167.996 1202.09 153.07 1185.03 144.082Z" fill="white"/>
</mask>
<g mask="url(#mask1_746_18791)">
<path d="M1192.35 175.214L1208.92 167.831L1195.92 139.263L1179.35 146.646L1192.35 175.214Z" fill="url(#paint1_linear_746_18791)"/>
</g>
<path fill-rule="evenodd" clip-rule="evenodd" d="M1209.74 195.754C1210.22 192.705 1208.6 187.248 1207.3 184.359C1207.79 185.643 1207.95 186.606 1208.11 187.569C1207.14 185.483 1205.35 183.075 1202.75 180.989C1194.46 174.248 1185.2 177.458 1180.65 181.47C1176.1 185.483 1167 193.347 1167 193.347C1167 193.347 1173.82 185.804 1179.35 178.742C1179.84 153.544 1222.25 168.309 1214.12 189.174C1214.12 186.927 1213.15 185.001 1213.15 185.001C1214.29 189.816 1212.82 192.384 1209.74 195.754Z" fill="#561F5B"/>
<mask id="mask2_746_18791" style="mask-type:luminance" maskUnits="userSpaceOnUse" x="1182" y="172" width="27" height="16">
<path d="M1208.1 187.554C1207.12 185.468 1205.33 183.06 1202.73 180.974C1195.59 175.196 1187.79 176.801 1182.75 179.85C1191.69 166.048 1205.33 174.233 1208.1 187.554Z" fill="white"/>
</mask>
<g mask="url(#mask2_746_18791)">
<path d="M1189.9 195.735L1210.86 186.266L1199.98 162.352L1179.01 171.821L1189.9 195.735Z" fill="url(#paint2_linear_746_18791)"/>
</g>
<mask id="mask3_746_18791" style="mask-type:luminance" maskUnits="userSpaceOnUse" x="1197" y="133" width="25" height="48">
<path d="M1203.4 133C1203.4 133 1210.07 145.679 1205.84 155.951C1201.62 166.223 1192.35 169.914 1200.32 177.618C1207.47 184.52 1217.86 178.1 1221.44 169.112L1218.68 169.593C1218.68 169.593 1222.58 158.68 1221.93 150.976L1219 154.507C1219 154.507 1216.89 143.593 1213.8 139.099L1212.99 141.827C1212.83 141.827 1210.23 136.852 1203.4 133Z" fill="white"/>
</mask>
<g mask="url(#mask3_746_18791)">
<path d="M1200.47 187.566L1232.16 173.603L1211.85 129.146L1180.16 143.269L1200.47 187.566Z" fill="url(#paint3_linear_746_18791)"/>
</g>
<mask id="mask4_746_18791" style="mask-type:luminance" maskUnits="userSpaceOnUse" x="1197" y="133" width="17" height="45">
<path d="M1203.41 133C1203.41 133 1210.07 145.679 1205.84 155.951C1201.62 166.062 1192.52 169.754 1200.16 177.458C1214.78 177.297 1219.01 155.47 1203.41 133Z" fill="white"/>
</mask>
<g mask="url(#mask4_746_18791)">
<path d="M1199 184.355L1226.46 171.997L1207.78 131.07L1180.31 143.268L1199 184.355Z" fill="url(#paint4_linear_746_18791)"/>
</g>
<path fill-rule="evenodd" clip-rule="evenodd" d="M1184.72 171.52C1184.72 171.52 1184.55 172.964 1183.74 173.606C1182.93 174.248 1181.96 174.087 1182.12 175.05C1183.25 175.853 1184.72 174.248 1184.72 171.52Z" fill="#F9F9FA"/>
<mask id="mask5_746_18791" style="mask-type:luminance" maskUnits="userSpaceOnUse" x="1181" y="171" width="4" height="5">
<path d="M1181.49 171.989C1181.49 171.989 1182.95 172.31 1183.44 173.273C1183.93 174.236 1183.6 175.039 1184.58 175.039C1185.55 174.076 1184.09 172.31 1181.49 171.989Z" fill="white"/>
</mask>
<g mask="url(#mask5_746_18791)">
<path d="M1182.12 171.256L1181.49 175.545L1184.39 175.957L1185.01 171.668L1182.12 171.256Z" fill="#F9F9FA"/>
</g>
<defs>
<linearGradient id="paint0_linear_746_18791" x1="1202.76" y1="170.874" x2="1190.41" y2="147.484" gradientUnits="userSpaceOnUse">
<stop stop-color="#03A672"/>
<stop offset="1" stop-color="#68C4A3"/>
</linearGradient>
<linearGradient id="paint1_linear_746_18791" x1="1188.19" y1="144.417" x2="1201.25" y2="173.289" gradientUnits="userSpaceOnUse">
<stop stop-color="#03A672"/>
<stop offset="1" stop-color="#65C3A1"/>
</linearGradient>
<linearGradient id="paint2_linear_746_18791" x1="1187.7" y1="174.602" x2="1206.38" y2="186.319" gradientUnits="userSpaceOnUse">
<stop stop-color="#F9A13A"/>
<stop offset="1" stop-color="#B9539F"/>
</linearGradient>
<linearGradient id="paint3_linear_746_18791" x1="1206.44" y1="178.08" x2="1205.92" y2="140.634" gradientUnits="userSpaceOnUse">
<stop stop-color="#03A672"/>
<stop offset="1" stop-color="#68C4A3"/>
</linearGradient>
<linearGradient id="paint4_linear_746_18791" x1="1204.54" y1="135.25" x2="1202.29" y2="180.13" gradientUnits="userSpaceOnUse">
<stop stop-color="#03A672"/>
<stop offset="1" stop-color="#72C7A9"/>
</linearGradient>
</defs>
</svg>
