<svg width="1440" height="1024" viewBox="0 0 1440 1024" fill="none" xmlns="http://www.w3.org/2000/svg">
<g opacity="0.5">
<mask id="mask0_1903_40605" style="mask-type:luminance" maskUnits="userSpaceOnUse" x="-209" y="-9" width="1858" height="1042">
<path d="M-209 -9L-209 1033L1648.95 1033L1648.95 -9L-209 -9Z" fill="white"/>
</mask>
<g mask="url(#mask0_1903_40605)">
<path d="M-309.816 713.863L7.57556 956.142L-39.3888 818.147L-309.816 713.863Z" fill="#636885"/>
<path d="M7.57556 396.193L-309.816 713.864L-39.3888 818.147L7.57556 396.193Z" fill="#BBBCC4"/>
<path d="M148.525 818.147L7.57679 956.142L-39.3906 818.147H148.525Z" fill="#BBBCC4"/>
<path d="M7.57679 396.193L148.525 818.147H-39.3906L7.57679 396.193Z" fill="#1F1F1F"/>
</g>
<mask id="mask1_1903_40605" style="mask-type:luminance" maskUnits="userSpaceOnUse" x="-209" y="-9" width="1858" height="1042">
<path d="M-209 -9L-209 1033L1648.95 1033L1648.95 -9L-209 -9Z" fill="white"/>
</mask>
<g mask="url(#mask1_1903_40605)">
<path d="M120.395 1073.59L287.358 896.009L259.622 1165.36L120.395 1073.59Z" fill="#1F1F1F"/>
<path d="M414.632 1103.89L287.359 896.009L259.623 1165.36L414.632 1103.89Z" fill="#BBBCC4"/>
</g>
<mask id="mask2_1903_40605" style="mask-type:luminance" maskUnits="userSpaceOnUse" x="-209" y="-9" width="1858" height="1042">
<path d="M-209 -9L-209 1033L1648.95 1033L1648.95 -9L-209 -9Z" fill="white"/>
</mask>
<g mask="url(#mask2_1903_40605)">
<path d="M1539.51 510.452L1429.93 728.176L1507.42 684.446L1539.51 510.452Z" fill="#636885"/>
<path d="M1528.6 797.185L1429.93 728.176L1507.42 684.446L1528.6 797.185Z" fill="#BBBCC4"/>
</g>
<mask id="mask3_1903_40605" style="mask-type:luminance" maskUnits="userSpaceOnUse" x="-209" y="-9" width="1858" height="1042">
<path d="M-209 -9L-209 1033L1648.95 1033L1648.95 -9L-209 -9Z" fill="white"/>
</mask>
<g mask="url(#mask3_1903_40605)">
<path d="M906.973 -30.888L724.937 -62.8989L662.572 66.2441L906.973 -30.888Z" fill="#636885"/>
<path d="M662.57 66.2441L724.935 -62.8989L586.678 -185.564L662.57 66.2441Z" fill="#BBBCC4"/>
</g>
<mask id="mask4_1903_40605" style="mask-type:luminance" maskUnits="userSpaceOnUse" x="-209" y="-9" width="1858" height="1042">
<path d="M-209 -9L-209 1033L1648.95 1033L1648.95 -9L-209 -9Z" fill="white"/>
</mask>
<g mask="url(#mask4_1903_40605)">
<path d="M937.057 -186.262L953.755 56.9111L998.138 -20.2124L937.057 -186.262Z" fill="#636885"/>
<path d="M998.139 -20.2124L1176.03 -138.253L953.756 56.9111L998.139 -20.2124Z" fill="#1F1F1F"/>
</g>
<mask id="mask5_1903_40605" style="mask-type:luminance" maskUnits="userSpaceOnUse" x="-209" y="-9" width="1858" height="1042">
<path d="M-209 -9L-209 1033L1648.95 1033L1648.95 -9L-209 -9Z" fill="white"/>
</mask>
<g mask="url(#mask5_1903_40605)">
<path d="M1257.31 356.403L1085.99 183.024L1354.14 220.644L1257.31 356.403Z" fill="#636885"/>
<path d="M1298.4 63.4806L1085.99 183.024L1354.14 220.645L1298.4 63.4806Z" fill="#BBBCC4"/>
</g>
<mask id="mask6_1903_40605" style="mask-type:luminance" maskUnits="userSpaceOnUse" x="-209" y="-9" width="1858" height="1042">
<path d="M-209 -9L-209 1033L1648.95 1033L1648.95 -9L-209 -9Z" fill="white"/>
</mask>
<g mask="url(#mask6_1903_40605)">
<path d="M0.609663 348.739L-31.2402 195.794L110.284 283.985L119.147 450.502L0.609663 348.739Z" stroke="white" stroke-width="2" stroke-miterlimit="10" stroke-linecap="round" stroke-linejoin="round"/>
<path d="M119.148 450.502L0.610433 348.739L-122.883 421.654L119.148 450.502Z" stroke="white" stroke-width="2" stroke-miterlimit="10" stroke-linecap="round" stroke-linejoin="round"/>
<path d="M-122.883 421.654L0.610433 348.739L-31.2395 195.794L-122.883 421.654Z" stroke="white" stroke-width="2" stroke-miterlimit="10" stroke-linecap="round" stroke-linejoin="round"/>
</g>
<mask id="mask7_1903_40605" style="mask-type:luminance" maskUnits="userSpaceOnUse" x="-209" y="-9" width="1858" height="1042">
<path d="M-209 -9L-209 1033L1648.95 1033L1648.95 -9L-209 -9Z" fill="white"/>
</mask>
<g mask="url(#mask7_1903_40605)">
<path d="M1409.68 181.539L1201.65 54.525L1470.97 26.4544L1409.68 181.539Z" stroke="white" stroke-width="2" stroke-miterlimit="10" stroke-linecap="round" stroke-linejoin="round"/>
<path d="M1379.02 -112.659L1201.65 54.5254L1470.97 26.4549L1379.02 -112.659Z" stroke="white" stroke-width="2" stroke-miterlimit="10" stroke-linecap="round" stroke-linejoin="round"/>
</g>
<mask id="mask8_1903_40605" style="mask-type:luminance" maskUnits="userSpaceOnUse" x="-209" y="-9" width="1858" height="1042">
<path d="M-209 -9L-209 1033L1648.95 1033L1648.95 -9L-209 -9Z" fill="white"/>
</mask>
<g mask="url(#mask8_1903_40605)">
<path d="M334.93 1028.58L567.483 955.576L411.341 1176.8L334.93 1028.58Z" stroke="white" stroke-width="2" stroke-miterlimit="10" stroke-linecap="round" stroke-linejoin="round"/>
<path d="M576.589 1199.15L567.484 955.576L411.342 1176.8L576.589 1199.15Z" stroke="white" stroke-width="2" stroke-miterlimit="10" stroke-linecap="round" stroke-linejoin="round"/>
</g>
</g>
</svg>
