<svg width="82" height="64" viewBox="0 0 82 64" fill="none" xmlns="http://www.w3.org/2000/svg">
<path d="M43.4782 56.8375C43.2558 56.1663 43.0334 55.3832 42.811 54.712C41.0319 48.8947 39.6976 40.9518 38.9192 32.5615C37.6961 17.1233 38.9192 0.454534 43.7006 0.00704965C46.3692 -0.216692 48.4819 4.92937 49.8162 9.18047C51.5954 14.9978 52.9297 22.9406 53.708 31.3309C54.9312 46.7691 53.708 63.4379 48.9267 63.8854C46.5916 63.9973 44.7013 60.5293 43.4782 56.8375ZM48.0371 7.39053C46.3692 2.69195 44.7013 1.01389 43.7006 1.12576C40.6983 1.3495 38.4744 14.3265 40.0311 32.4496C40.6983 40.84 42.0326 48.5591 43.8117 54.3764C45.7021 60.753 47.7036 62.8786 48.8155 62.7667C51.8177 62.5429 54.0416 49.5659 52.4849 31.4428C51.8177 23.0525 50.4834 15.3334 48.7043 9.51609C48.4819 8.73299 48.2595 7.94989 48.0371 7.39053Z" fill="#FD6D0B"/>
<path d="M28.3564 14.4387C27.0221 10.7469 26.2438 6.83143 28.1341 5.48898C32.0259 2.69221 43.5901 14.7743 52.3744 27.5276C57.1558 34.4636 61.0476 41.3996 63.3827 47.105C65.0506 51.2442 66.7185 56.614 64.4946 58.0684C60.6028 60.8651 49.0386 48.7831 40.2542 36.0298C35.3617 29.2056 31.4699 22.2696 29.1348 16.5642C28.8012 15.893 28.5788 15.2218 28.3564 14.4387ZM63.1603 49.678C62.9379 49.0068 62.7155 48.3356 62.3819 47.5525C60.0468 41.9589 56.155 35.1348 51.4849 28.1988C41.1438 13.2081 31.2475 4.70588 28.8012 6.38395C27.9117 7.05518 27.8005 9.96382 30.2467 16.0049C32.5818 21.5984 36.4736 28.4225 41.1438 35.3585C51.4849 50.3493 61.3812 58.8515 63.8274 57.1734C64.6058 56.7259 64.8282 54.3766 63.1603 49.678Z" fill="#FD6D0B"/>
<path d="M27.9116 38.7148L8.3414 45.7627L8.00781 58.516L19.9056 54.153L31.9146 49.7901L27.9116 38.7148Z" fill="#FFBE22"/>
<path d="M23.9068 27.5273L11.8978 31.7784L0 36.1414L8.33958 45.7623L27.9098 38.7144L23.9068 27.5273Z" fill="#F89920"/>
<path d="M81.2804 19.3594C83.949 26.631 70.6057 38.1537 51.5915 45.0897C32.5772 51.9138 15.0085 51.5782 12.3398 44.3066C16.1205 55.0462 34.6899 58.1786 53.7042 51.2426C72.8296 44.3066 85.1722 30.099 81.2804 19.3594Z" fill="#F0670B"/>
<path d="M51.5915 45.0897C70.6057 38.1537 83.949 26.7429 81.2804 19.3594L12.3398 44.3066C15.0085 51.5782 32.5772 51.9138 51.5915 45.0897Z" fill="#F89920"/>
<path d="M42.1445 18.5784C61.1587 11.6424 78.7274 12.0899 81.3961 19.3615C77.6155 8.62188 59.046 5.4895 40.0318 12.4255C21.0176 19.3615 8.5638 33.5691 12.3444 44.3087C9.78694 36.9252 23.0191 25.4025 42.1445 18.5784Z" fill="#FFD00E"/>
<path d="M42.142 18.5763C23.1278 25.5123 9.78444 36.9231 12.4531 44.3066L81.3936 19.3594C78.7249 11.9759 61.1562 11.6403 42.142 18.5763Z" fill="#FFBE22"/>
<path d="M43.8092 54.2653C42.3637 49.4548 41.1405 43.19 40.3622 36.3659C49.1465 49.0073 60.4884 60.8656 64.3802 58.1807L63.713 57.2858C61.2667 58.9638 51.3704 50.4616 41.0293 35.4709C40.6958 35.0234 40.3622 34.576 40.0286 34.1285C40.0286 33.5691 39.9174 33.0098 39.9174 32.4504C38.4719 14.3273 40.6958 1.35026 43.5868 1.12652L43.4756 0.0078125C38.6943 0.455297 37.4711 16.7885 38.6943 32.2267C34.9136 26.5212 31.9114 20.9277 30.0211 16.2291C27.4636 10.0762 27.5748 7.16755 28.5756 6.6082L27.9084 5.71323C26.0181 7.05569 26.9077 10.9712 28.1308 14.6629C28.3532 15.3341 28.6868 16.1172 28.9092 16.7885C31.0218 22.0464 34.5801 28.3112 38.8055 34.6878C39.5838 42.4069 40.807 49.4548 42.4749 54.8246C42.6973 55.4958 42.9196 56.2789 43.142 56.9502C44.4764 60.6419 46.3667 64.1099 48.5906 63.998L48.4794 62.8793C47.5898 62.7674 45.6995 60.6419 43.8092 54.2653Z" fill="#FD6D0B"/>
</svg>
