<svg width="82" height="82" viewBox="0 0 82 82" fill="none" xmlns="http://www.w3.org/2000/svg">
<path d="M63.7664 0H18.2336C8.16347 0 0 8.41333 0 18.7917V63.2083C0 73.5867 8.16347 82 18.2336 82H63.7664C73.8365 82 82 73.5867 82 63.2083V18.7917C82 8.41333 73.8365 0 63.7664 0Z" fill="#2E0020"/>
<path d="M63.767 3.91211H18.2342C10.2607 3.91211 3.79688 10.5738 3.79688 18.7913V63.2079C3.79688 71.4255 10.2607 78.0871 18.2342 78.0871H63.767C71.7405 78.0871 78.2043 71.4255 78.2043 63.2079V18.7913C78.2043 10.5738 71.7405 3.91211 63.767 3.91211Z" fill="#2E0020"/>
<path d="M32.534 38.8469L42.0817 55.0838C42.119 55.1325 42.1426 55.1909 42.1499 55.2525C42.1572 55.3142 42.1479 55.3767 42.123 55.4333C42.0981 55.4899 42.0586 55.5383 42.0088 55.5732C41.959 55.6082 41.9008 55.6284 41.8406 55.6315H34.994C34.5593 55.6315 34.3183 55.4828 34.174 55.1835C32.0519 51.3082 29.9297 47.4309 27.7602 43.3561H27.7108C25.7823 47.3331 23.6602 51.3571 21.6367 55.2344C21.5801 55.366 21.4838 55.4753 21.362 55.5458C21.2402 55.6163 21.0995 55.6443 20.961 55.6256H14.4522C14.1144 55.6256 14.1144 55.3263 14.2624 55.1287L23.5216 39.3262L14.4522 23.5882C14.4127 23.5438 14.3873 23.4881 14.3791 23.4285C14.371 23.3688 14.3807 23.3081 14.4068 23.2542C14.4329 23.2004 14.4743 23.1559 14.5255 23.1268C14.5766 23.0978 14.6352 23.0854 14.6933 23.0913H21.4925C21.8303 23.0913 21.9746 23.1402 22.1189 23.4825C24.0474 27.4087 26.3138 31.3349 28.2916 35.2611H28.3391C30.2202 31.2841 32.3404 27.4576 34.3183 23.4825C34.4625 23.2341 34.5593 23.0913 34.994 23.0913H41.2142C41.5502 23.0913 41.5939 23.3397 41.404 23.6371L32.534 38.8469Z" fill="#FBDAF1"/>
<path d="M42.6602 43.5095C42.6602 36.4025 47.8193 30.4399 56.6438 30.4399C57.0234 30.4399 57.5113 30.4888 58.2345 30.5377V20.7564C58.2293 20.7094 58.2345 20.6618 58.2497 20.6172C58.2649 20.5725 58.2896 20.532 58.3221 20.4985C58.3545 20.465 58.3939 20.4396 58.4372 20.4239C58.4805 20.4083 58.5267 20.4029 58.5723 20.4082H64.6464C64.8875 20.4082 64.9349 20.508 64.9349 20.7075V50.0688C64.9222 51.2808 64.9856 52.4922 65.1247 53.6957C65.1247 53.9442 65.0754 54.0439 64.7869 54.1437C61.7852 55.4573 58.5572 56.1333 55.2961 56.1312C48.1572 56.1312 42.6602 51.9547 42.6602 43.5095ZM58.2345 36.4514C57.7523 36.2558 57.1259 36.203 56.4502 36.203C52.7374 36.203 49.5561 38.5387 49.5561 43.1613C49.5561 48.0813 52.3046 50.2175 55.9681 50.2175C56.7881 50.2175 57.5606 50.1686 58.2345 49.9182V36.4514Z" fill="#FBDAF1"/>
</svg>
    