<svg width="82" height="82" viewBox="0 0 82 82" fill="none" xmlns="http://www.w3.org/2000/svg">
<path d="M63.7664 0H18.2336C8.16347 0 0 8.41333 0 18.7917V63.2083C0 73.5867 8.16347 82 18.2336 82H63.7664C73.8365 82 82 73.5867 82 63.2083V18.7917C82 8.41333 73.8365 0 63.7664 0Z" fill="#001D23"/>
<path d="M63.767 3.91211H18.2342C10.2607 3.91211 3.79688 10.5738 3.79688 18.7913V63.2079C3.79688 71.4255 10.2607 78.0871 18.2342 78.0871H63.767C71.7405 78.0871 78.2043 71.4255 78.2043 63.2079V18.7913C78.2043 10.5738 71.7405 3.91211 63.767 3.91211Z" fill="#001D23"/>
<path d="M20.4844 23.5321C20.4844 23.2328 20.5318 23.1409 20.7729 23.1409C22.7508 23.092 26.5584 22.9922 30.2238 22.9922C39.9632 22.9922 43.34 28.5577 43.34 33.9746C43.34 42.0265 37.3115 45.4538 29.8859 45.4538H27.1431V55.235C27.1431 55.4835 27.0463 55.6263 26.7634 55.6263H20.8203C20.5793 55.6263 20.4844 55.4776 20.4844 55.235V23.5321ZM27.1431 39.3347C27.9631 39.3836 28.4927 39.3836 29.8441 39.3836C33.6537 39.3836 36.6908 38.1903 36.6908 34.1154C36.6908 30.9854 34.618 28.9979 30.4269 28.9979C28.8837 28.9979 27.5797 29.0468 27.1469 29.0976L27.1431 39.3347Z" fill="#01C8FE"/>
<path d="M55.7321 35.9522C53.4657 35.9522 52.7425 36.7973 52.7425 37.6424C52.7425 38.4875 53.3708 39.133 56.1592 40.2266C61.9941 42.4137 63.8258 44.7494 63.8258 48.2765C63.8258 52.9989 60.2573 56.1289 53.8928 56.1289C50.9525 56.1289 48.3881 55.5812 46.9019 54.738C46.7995 54.6911 46.7129 54.6141 46.6528 54.5167C46.5927 54.4192 46.5618 54.3057 46.564 54.1903V48.8223C46.564 48.523 46.7538 48.3743 46.9436 48.523C49.1626 49.9648 51.8617 50.5106 54.0313 50.5106C56.2977 50.5106 57.3113 49.865 57.3113 48.8223C57.3113 47.8775 56.4913 47.181 53.646 46.0836C48.1983 43.9963 46.4141 41.6096 46.4141 38.0317C46.4141 34.1563 49.4511 30.4297 55.8156 30.4297C58.6628 30.4297 60.8798 30.8209 62.0795 31.4235C62.1932 31.4822 62.2866 31.5758 62.3467 31.6914C62.4069 31.8069 62.4309 31.9388 62.4154 32.069V37.0379C62.4154 37.3372 62.2256 37.5348 61.9333 37.3861C60.3635 36.5488 57.896 35.9522 55.7321 35.9522Z" fill="#01C8FE"/>
</svg>
