<svg width="101" height="99" viewBox="0 0 101 99" fill="none" xmlns="http://www.w3.org/2000/svg">
<path d="M49.2785 4.5092V9.03681H41V11.9816H49.2785V21H52.5146V11.9816H61V9.03681H52.5146V0H49.2785V4.5092Z" fill="#7099A6"/>
<path d="M22.1548 16.6548V23.3097H10V27.4853H22.1548V41H26.6627V27.4853H39V23.3097H26.6627V10H22.1548V16.6548Z" fill="#EB912C"/>
<path d="M74.1548 16.6548V23.3097H62V27.6903H74.1548V41H78.8452V27.6903H91V23.3097H78.8452V10H74.1548V16.6548Z" fill="#59879B"/>
<path d="M47.7222 38.5869V46.1739H34V51.8261H47.7222V67H53.2778V51.8261H67V46.1739H53.2778V31H47.7222V38.5869Z" fill="#E8762C"/>
<path d="M88.4037 42.7718V47.5627H80V51.4373H88.4037V61H92.5963V51.4373H101V47.5627H92.5963V38H88.4037V42.7718Z" fill="#5B6591"/>
<path d="M8.27846 43.4602V47.9204H0V51.0796H8.27846V60H11.5146V51.0796L20 50.7823V47.9204H11.5146V39H8.27846V43.4602Z" fill="#7099A6"/>
<path d="M22.1548 64.6548V71.3097H10V75.6903H22.1548V89H26.8452V75.6903H39V71.3097H26.8452V58H22.1548V64.6548Z" fill="#C72035"/>
<path d="M74.1548 64.6548V71.3097H62V75.4853H74.1548V89H78.8452V75.4853H91V71.3097H78.8452V58H74.1548V64.6548Z" fill="#1F447E"/>
<path d="M48.4037 80.7909V85.5627H40V89.4373H48.4037V99H52.5963V89.4373H61V85.5627H52.5963V76H48.4037V80.7909Z" fill="#5B6591"/>
</svg>
