<svg width="44" height="44" viewBox="0 0 44 44" fill="none" xmlns="http://www.w3.org/2000/svg">
<mask id="mask0_2445_11610" style="mask-type:alpha" maskUnits="userSpaceOnUse" x="0" y="0" width="44" height="44">
<rect x="2.65137" y="0.117188" width="40.96" height="40.96" transform="rotate(3 2.65137 0.117188)" fill="#D9D9D9"/>
</mask>
<g mask="url(#mask0_2445_11610)">
<path d="M8.11586 16.2464C7.87441 16.2338 7.67631 16.1413 7.52156 15.9692C7.3668 15.797 7.29576 15.59 7.30842 15.3483C7.32109 15.1066 7.41336 14.9086 7.58522 14.7544C7.75708 14.6002 7.96373 14.5294 8.20518 14.5421L13.515 14.8204C14.059 14.8489 14.5362 15.0333 14.9468 15.3735C15.3574 15.7137 15.6369 16.1387 15.7853 16.6484L8.11586 16.2464ZM10.7897 31.7018C12.3193 31.782 13.6475 31.3148 14.7742 30.3003C15.9009 29.2858 16.5044 28.0138 16.5845 26.4841C16.6647 24.9545 16.1975 23.6263 15.183 22.4996C14.1685 21.3729 12.8965 20.7695 11.3668 20.6893C9.8372 20.6091 8.50903 21.0763 7.38232 22.0908C6.25561 23.1053 5.65217 24.3774 5.572 25.907C5.49184 27.4366 5.959 28.7648 6.9735 29.8915C7.98799 31.0182 9.26006 31.6217 10.7897 31.7018ZM34.257 32.9317C35.1856 32.9804 36.0035 32.6864 36.7108 32.0498C37.4178 31.413 37.7956 30.6303 37.8443 29.7017C37.893 28.7731 37.599 27.9552 36.9624 27.2479C36.3256 26.5409 35.5429 26.1631 34.6143 26.1144C33.6857 26.0657 32.8678 26.3597 32.1605 26.9962C31.4535 27.6331 31.0757 28.4158 31.027 29.3444C30.9783 30.273 31.2723 31.0909 31.9088 31.7982C32.5457 32.5052 33.3284 32.883 34.257 32.9317ZM10.971 28.0963C10.4406 28.0686 10.0023 27.8594 9.65585 27.469C9.30945 27.0786 9.15013 26.6183 9.17791 26.0883C9.20571 25.558 9.41468 25.1196 9.80483 24.7732C10.1953 24.4265 10.6555 24.267 11.1856 24.2948C11.7159 24.3226 12.1543 24.5317 12.5007 24.9221C12.8474 25.3126 13.0068 25.7728 12.979 26.3029C12.9512 26.8332 12.7421 27.2716 12.3517 27.618C11.9615 27.9647 11.5013 28.1241 10.971 28.0963ZM35.4879 24.4939C35.8293 24.5884 36.1189 24.6863 36.3565 24.7876C36.5945 24.8887 36.8608 25.0533 37.1556 25.2816L37.6273 16.281C37.667 15.524 37.4314 14.8618 36.9205 14.2944C36.4097 13.727 35.7757 13.4235 35.0187 13.3838L26.2478 12.9242L24.5565 10.9556L27.0676 8.69459L25.9371 7.43904L19.5697 13.1723L20.7854 14.4323L23.2965 12.1713L24.9923 14.0547L24.8555 16.6636C24.7875 17.9614 24.2671 19.0483 23.2944 19.9241C22.3216 20.8 21.1863 21.2039 19.8885 21.1359L16.0111 20.9327C16.3216 21.2361 16.5709 21.5176 16.759 21.7773C16.9471 22.0366 17.1542 22.3487 17.3803 22.7135L19.7992 22.8402C21.5864 22.9339 23.1367 22.3897 24.4499 21.2075C25.7629 20.025 26.4662 18.5401 26.5599 16.7529L26.6698 14.6553L34.9294 15.0881C35.2353 15.1042 35.4814 15.2156 35.6677 15.4225C35.8539 15.6296 35.939 15.886 35.923 16.1917L35.4879 24.4939ZM29.529 28.017C29.6522 27.6709 29.7746 27.3785 29.8962 27.1399C30.0178 26.9013 30.2016 26.6401 30.4474 26.3562L18.2615 25.7175C18.2924 26.0473 18.3014 26.333 18.2888 26.5747C18.2761 26.8165 18.2372 27.0988 18.1722 27.4219L29.529 28.017ZM34.1677 34.636C32.7386 34.5611 31.5552 34.0028 30.6174 32.961C29.6794 31.9195 29.2478 30.6842 29.3227 29.2551C29.3976 27.826 29.9559 26.6426 30.9977 25.7048C32.0392 24.7667 33.2745 24.3352 34.7036 24.4101C36.1327 24.485 37.3161 25.0433 38.2539 26.0851C39.1919 27.1266 39.6235 28.3619 39.5486 29.791C39.4737 31.2201 38.9154 32.4035 37.8736 33.3413C36.8321 34.2793 35.5968 34.7109 34.1677 34.636ZM10.7004 33.4062C8.70546 33.3016 7.04181 32.5094 5.70943 31.0297C4.37704 29.5499 3.76313 27.8126 3.86768 25.8177C3.97223 23.8228 4.76438 22.1591 6.24414 20.8267C7.7239 19.4944 9.46124 18.8804 11.4562 18.985C13.4511 19.0895 15.1147 19.8817 16.4471 21.3614C17.7795 22.8412 18.3933 24.5798 18.2888 26.5747C18.1842 28.5697 17.3921 30.232 15.9124 31.5644C14.4326 32.8968 12.6953 33.5107 10.7004 33.4062Z" fill="white"/>
</g>
</svg>
