<svg width="42" height="42" viewBox="0 0 42 42" fill="none" xmlns="http://www.w3.org/2000/svg">
<mask id="mask0_2445_11646" style="mask-type:alpha" maskUnits="userSpaceOnUse" x="0" y="0" width="42" height="42">
<rect x="0.520508" y="0.515625" width="40.96" height="40.96" fill="#D9D9D9"/>
</mask>
<g mask="url(#mask0_2445_11646)">
<path d="M35.5174 19.1229V32.7562C35.5174 33.5418 35.2543 34.1978 34.728 34.724C34.2018 35.2502 33.546 35.5133 32.7607 35.5133H9.26115C8.47552 35.5133 7.81959 35.2502 7.29336 34.724C6.76714 34.1978 6.50403 33.5418 6.50403 32.7562V19.0572C5.7841 18.5256 5.25731 17.8287 4.92366 16.9666C4.59 16.1044 4.58289 15.1844 4.90232 14.2065L6.56334 8.73189C6.79089 8.03614 7.15783 7.49015 7.66414 7.09392C8.17073 6.69797 8.79708 6.5 9.54318 6.5H32.4125C33.1586 6.5 33.7833 6.68546 34.2864 7.05637C34.7899 7.42729 35.1587 7.96389 35.3928 8.66619L37.1191 14.2065C37.4385 15.1844 37.4314 16.1121 37.0977 16.9896C36.7641 17.8668 36.2373 18.5779 35.5174 19.1229ZM24.7654 18.4467C25.8616 18.4467 26.68 18.1397 27.2204 17.5259C27.7609 16.9124 27.9884 16.2785 27.9031 15.6243L26.7673 8.20667H21.864V15.3747C21.864 16.2126 22.1506 16.9341 22.7238 17.5391C23.2972 18.1442 23.9777 18.4467 24.7654 18.4467ZM17.0854 18.4467C18.0021 18.4467 18.7434 18.1442 19.3092 17.5391C19.8746 16.9341 20.1574 16.2126 20.1574 15.3747V8.20667H15.2541L14.1183 15.7553C14.0484 16.2849 14.2797 16.8659 14.8125 17.4982C15.3453 18.1305 16.1029 18.4467 17.0854 18.4467ZM9.4907 18.4467C10.2433 18.4467 10.8828 18.1907 11.409 17.6787C11.9352 17.1667 12.2629 16.5278 12.392 15.7621L13.4621 8.20667H9.54318C9.17112 8.20667 8.87573 8.28873 8.65699 8.45285C8.43825 8.61698 8.27413 8.86317 8.16462 9.19141L6.58936 14.5802C6.30919 15.4774 6.42894 16.346 6.94862 17.1863C7.4683 18.0265 8.31566 18.4467 9.4907 18.4467ZM32.5307 18.4467C33.5524 18.4467 34.3686 18.0484 34.9793 17.252C35.5898 16.4556 35.7407 15.565 35.432 14.5802L33.7714 9.12571C33.6619 8.79746 33.4978 8.56222 33.2791 8.42C33.0603 8.27778 32.7649 8.20667 32.3929 8.20667H28.5593L29.6294 15.7621C29.7585 16.5278 30.0862 17.1667 30.6124 17.6787C31.1386 18.1907 31.7781 18.4467 32.5307 18.4467ZM9.26115 33.8067H32.7607C33.0667 33.8067 33.3183 33.7082 33.5154 33.5114C33.7123 33.3143 33.8107 33.0626 33.8107 32.7562V19.9366C33.5809 20.0154 33.3626 20.0713 33.1558 20.1043C32.9493 20.137 32.7409 20.1533 32.5307 20.1533C31.7627 20.1533 31.0871 20.0034 30.504 19.7036C29.9209 19.4038 29.3668 18.9258 28.8417 18.2696C28.3954 18.8251 27.8452 19.278 27.191 19.6281C26.5367 19.9783 25.7413 20.1533 24.8046 20.1533C24.1242 20.1533 23.4771 19.9948 22.8633 19.6776C22.2497 19.3602 21.6322 18.8908 21.0107 18.2696C20.4395 18.8908 19.8066 19.3602 19.112 19.6776C18.4174 19.9948 17.7549 20.1533 17.1246 20.1533C16.4092 20.1533 15.7119 20.0165 15.0327 19.7429C14.3531 19.4695 13.7574 18.9784 13.2454 18.2696C12.4074 19.1076 11.6749 19.6309 11.048 19.8397C10.4211 20.0488 9.902 20.1533 9.4907 20.1533C9.28078 20.1533 9.06915 20.137 8.85582 20.1043C8.64249 20.0713 8.42744 20.0154 8.2107 19.9366V32.7562C8.2107 33.0626 8.30912 33.3143 8.50595 33.5114C8.70307 33.7082 8.95481 33.8067 9.26115 33.8067Z" fill="white"/>
</g>
</svg>
