<svg width="42" height="42" viewBox="0 0 42 42" fill="none" xmlns="http://www.w3.org/2000/svg">
<mask id="mask0_2445_11628" style="mask-type:alpha" maskUnits="userSpaceOnUse" x="0" y="0" width="42" height="42">
<rect x="0.520508" y="0.515625" width="40.96" height="40.96" fill="#D9D9D9"/>
</mask>
<g mask="url(#mask0_2445_11628)">
<path d="M23.5605 21.7201C22.5976 21.7201 21.7881 21.392 21.1319 20.7358C20.4754 20.0793 20.1471 19.2696 20.1471 18.3068C20.1471 17.3442 20.4754 16.5347 21.1319 15.8782C21.7881 15.2217 22.5976 14.8934 23.5605 14.8934C24.5233 14.8934 25.3328 15.2217 25.989 15.8782C26.6455 16.5347 26.9738 17.3442 26.9738 18.3068C26.9738 19.2696 26.6455 20.0793 25.989 20.7358C25.3328 21.392 24.5233 21.7201 23.5605 21.7201ZM12.9924 27.1686C12.234 27.1686 11.5849 26.8985 11.045 26.3584C10.5052 25.8185 10.2352 25.1695 10.2352 24.4115V12.2024C10.2352 11.4441 10.5052 10.795 11.045 10.2551C11.5849 9.71525 12.234 9.44531 12.9924 9.44531H34.1286C34.8869 9.44531 35.536 9.71525 36.0759 10.2551C36.6158 10.795 36.8857 11.4441 36.8857 12.2024V24.4115C36.8857 25.1695 36.6158 25.8185 36.0759 26.3584C35.536 26.8985 34.8869 27.1686 34.1286 27.1686H12.9924ZM14.699 25.462H32.4219C32.4219 24.6982 32.6918 24.0477 33.2317 23.5104C33.7716 22.9733 34.4207 22.7048 35.179 22.7048V13.9091C34.4153 13.9091 33.7649 13.6392 33.2279 13.0993C32.6906 12.5591 32.4219 11.91 32.4219 11.152H14.699C14.699 11.9157 14.4291 12.5661 13.8892 13.1031C13.3493 13.6404 12.7002 13.9091 11.9419 13.9091V22.7048C12.7056 22.7048 13.356 22.9748 13.893 23.5146C14.4304 24.0545 14.699 24.7036 14.699 25.462ZM31.8314 32.2886H7.87235C7.11403 32.2886 6.46492 32.0185 5.92505 31.4784C5.38517 30.9385 5.11523 30.2895 5.11523 29.5315V14.4996H6.8219V29.5315C6.8219 29.794 6.93127 30.0347 7.15001 30.2534C7.36903 30.4724 7.60981 30.582 7.87235 30.582H31.8314V32.2886ZM12.9924 25.462H11.9419V11.152H12.9924C12.7079 11.152 12.4617 11.2559 12.2538 11.4639C12.0459 11.6718 11.9419 11.918 11.9419 12.2024V24.4115C11.9419 24.6959 12.0459 24.9421 12.2538 25.1501C12.4617 25.358 12.7079 25.462 12.9924 25.462Z" fill="white"/>
</g>
</svg>
