<svg width="42" height="42" viewBox="0 0 42 42" fill="none" xmlns="http://www.w3.org/2000/svg">
<mask id="mask0_2445_11664" style="mask-type:alpha" maskUnits="userSpaceOnUse" x="0" y="0" width="42" height="42">
<rect x="0.520508" y="0.515625" width="40.96" height="40.96" fill="#D9D9D9"/>
</mask>
<g mask="url(#mask0_2445_11664)">
<path d="M18.1142 30.1182H19.5581V24.3415C20.1599 24.3415 20.6715 24.1309 21.0928 23.7096C21.5138 23.2887 21.7243 22.7772 21.7243 22.1753V17.843H20.2804V22.1753H19.5581V17.843H18.1142V22.1753H17.3919V17.843H15.948V22.1753C15.948 22.7772 16.1587 23.2887 16.5799 23.7096C17.0009 24.1309 17.5123 24.3415 18.1142 24.3415V30.1182ZM23.8904 30.1182H25.3347V17.843C24.5491 17.843 23.8712 18.1258 23.3012 18.6916C22.7315 19.2571 22.4466 19.937 22.4466 20.7315V25.0634H23.8904V30.1182ZM9.05566 34.6472V16.7272L21.0023 7.73438L32.949 16.7272V34.6472H9.05566ZM10.7623 32.9406H31.2423V17.5806L21.0023 9.90056L10.7623 17.5806V32.9406Z" fill="white"/>
</g>
</svg>
