<svg width="42" height="42" viewBox="0 0 42 42" fill="none" xmlns="http://www.w3.org/2000/svg">
<mask id="mask0_2445_11673" style="mask-type:alpha" maskUnits="userSpaceOnUse" x="0" y="0" width="42" height="42">
<rect x="0.520508" y="0.515625" width="40.96" height="40.96" fill="#D9D9D9"/>
</mask>
<g mask="url(#mask0_2445_11673)">
<path d="M17.5607 34.7347L13.9929 28.0002L7.22559 24.3996L9.07305 22.5619L14.9645 23.5629L20.1698 18.3576L7.36639 12.8928L9.73609 10.5363L25.3094 13.2077L30.6329 7.85174C31.1122 7.37246 31.6986 7.13281 32.3921 7.13281C33.0859 7.13281 33.6722 7.37246 34.1512 7.85174C34.6305 8.33075 34.8702 8.91543 34.8702 9.60577C34.8702 10.2961 34.6305 10.8809 34.1512 11.3602L28.7851 16.6936L31.4568 32.2571L29.0773 34.6366L23.6356 21.8332L18.4303 27.0385L19.4086 32.8873L17.5607 34.7347Z" fill="white"/>
</g>
</svg>
