<svg width="100" height="100" viewBox="0 0 100 100" fill="none" xmlns="http://www.w3.org/2000/svg">
<rect width="100" height="100" rx="8" fill="#FFFEFA"/>
<path d="M56.7274 40.1162H58.2524L62.5986 35.3637L62.8121 33.346C60.3223 30.943 57.3134 29.2737 54.0696 28.4959C50.8258 27.718 47.4541 27.8572 44.2732 28.9003C41.0922 29.9435 38.207 31.8561 35.89 34.4576C33.573 37.0591 31.9008 40.2635 31.0312 43.7681C31.5154 43.5511 32.0518 43.5159 32.5562 43.6681L41.2487 42.1006C41.2487 42.1006 41.691 41.3002 41.9197 41.3502C43.7822 39.1135 46.3562 37.7398 49.1147 37.5104C51.8731 37.281 54.6075 38.2132 56.7579 40.1162H56.7274Z" fill="#EA4335"/>
<path d="M68.7903 43.7687C67.7913 39.746 65.7402 36.1296 62.8886 33.3633L56.7886 40.0334C58.0599 41.1693 59.0787 42.606 59.7682 44.2352C60.4577 45.8644 60.7998 47.6435 60.7688 49.4384V50.6223C61.4818 50.6223 62.1877 50.7759 62.8464 51.0742C63.5051 51.3725 64.1036 51.8098 64.6077 52.3611C65.1118 52.9123 65.5117 53.5667 65.7846 54.287C66.0574 55.0072 66.1978 55.7792 66.1978 56.5588C66.1978 57.3383 66.0574 58.1103 65.7846 58.8305C65.5117 59.5508 65.1118 60.2052 64.6077 60.7564C64.1036 61.3077 63.5051 61.745 62.8464 62.0433C62.1877 62.3416 61.4818 62.4952 60.7688 62.4952H49.9109L48.8281 63.6958V70.8162L49.9109 72.0002H60.7688C63.8009 72.026 66.76 70.9839 69.2085 69.0282C71.6569 67.0725 73.4647 64.307 74.3644 61.1407C75.264 57.9744 75.2077 54.5756 74.2039 51.447C73.2 48.3185 71.3019 45.6263 68.7903 43.7687Z" fill="#4285F4"/>
<path d="M39.0403 71.9331H49.8983V62.4281H39.0403C38.2668 62.428 37.5023 62.246 36.7986 61.8945L35.2736 62.4115L30.8969 67.164L30.5156 68.8315C32.97 70.8581 35.9649 71.9477 39.0403 71.9331Z" fill="#34A853"/>
<path d="M39.0371 41.0997C36.0951 41.1189 33.2321 42.1424 30.8479 44.0272C28.4637 45.9121 26.6774 48.5641 25.7384 51.6129C24.7995 54.6617 24.7549 57.9551 25.6108 61.033C26.4666 64.1109 28.1803 66.8196 30.5124 68.7809L36.8106 61.8939C36.0102 61.4985 35.3095 60.8967 34.7686 60.1401C34.2277 59.3834 33.8628 58.4946 33.7051 57.5499C33.5474 56.6051 33.6017 55.6326 33.8633 54.7158C34.1249 53.7991 34.586 52.9654 35.207 52.2863C35.828 51.6072 36.5904 51.103 37.4289 50.817C38.2673 50.531 39.1566 50.4716 40.0206 50.644C40.8846 50.8165 41.6975 51.2155 42.3894 51.807C43.0813 52.3984 43.6317 53.1646 43.9933 54.0398L50.2916 47.1529C48.9696 45.2631 47.2658 43.7334 45.3134 42.6833C43.361 41.6332 41.2129 41.0912 39.0371 41.0997Z" fill="#FBBC05"/>
</svg>
