<svg width="100" height="100" viewBox="0 0 100 100" fill="none" xmlns="http://www.w3.org/2000/svg">
<rect width="100" height="100" rx="8" fill="#FFFEFA"/>
<path d="M37.782 43.98C37.782 44.8855 37.8565 45.6196 37.9869 46.158C38.1359 46.6964 38.3221 47.2837 38.5829 47.92C38.676 48.1157 38.7133 48.3115 38.7133 48.4828C38.7133 48.7275 38.6015 48.9722 38.3594 49.217L37.186 50.2448C37.0184 50.3916 36.8508 50.465 36.7018 50.465C36.5155 50.465 36.3293 50.3426 36.1431 50.1224C35.8823 49.7553 35.6588 49.3638 35.4726 48.9722C35.2863 48.5562 35.1001 48.0913 34.8952 47.5284C33.4425 49.7798 31.6173 50.9055 29.4196 50.9055C27.8551 50.9055 26.6072 50.3182 25.6946 49.1435C24.782 47.9689 24.3164 46.4027 24.3164 44.445C24.3164 42.3649 24.8751 40.6763 26.0112 39.4038C27.1474 38.1313 28.6559 37.495 30.5743 37.495C31.2075 37.495 31.8594 37.5684 32.5485 37.6908C33.2376 37.8131 33.9453 38.0089 34.6903 38.2292V36.4427C34.6903 34.5829 34.3923 33.2859 33.815 32.5273C33.219 31.7686 32.2133 31.4016 30.7792 31.4016C30.1273 31.4016 29.4568 31.4995 28.7677 31.7197C28.0786 31.9399 27.4081 32.2091 26.7562 32.5517C26.4582 32.723 26.2347 32.8209 26.1044 32.8699C25.974 32.9188 25.8809 32.9433 25.8064 32.9433C25.5456 32.9433 25.4153 32.6986 25.4153 32.1847V30.9855C25.4153 30.594 25.4525 30.3003 25.5456 30.129C25.6388 29.9577 25.8064 29.7864 26.0671 29.6151C26.719 29.1746 27.5012 28.8076 28.4138 28.5139C29.3264 28.1958 30.2949 28.0489 31.3193 28.0489C33.5356 28.0489 35.156 28.7097 36.1989 30.0311C37.2233 31.3526 37.7448 33.3593 37.7448 36.0512V43.98H37.782ZM30.2204 47.6997C30.835 47.6997 31.4683 47.5529 32.1388 47.2592C32.8092 46.9656 33.4052 46.4272 33.9081 45.693C34.2061 45.2281 34.4296 44.7142 34.5413 44.1268C34.6531 43.5395 34.7276 42.8298 34.7276 41.9978V40.97C34.1875 40.7987 33.6101 40.6519 33.0141 40.554C32.4181 40.4561 31.8408 40.4071 31.2634 40.4071C30.0155 40.4071 29.1029 40.7253 28.4883 41.386C27.8737 42.0467 27.5757 42.9767 27.5757 44.2003C27.5757 45.3504 27.7992 46.2069 28.2648 46.7943C28.7118 47.406 29.3637 47.6997 30.2204 47.6997ZM45.176 50.3426C44.8408 50.3426 44.6173 50.2692 44.4683 50.0979C44.3193 49.9511 44.1889 49.6085 44.0772 49.1435L39.7004 30.2269C39.5886 29.7375 39.5327 29.4194 39.5327 29.2481C39.5327 28.8565 39.6817 28.6363 39.9797 28.6363H41.8049C42.1588 28.6363 42.4009 28.7097 42.5313 28.881C42.6803 29.0278 42.7921 29.3704 42.9038 29.8354L46.0327 46.0356L48.9382 29.8354C49.0313 29.3459 49.1431 29.0278 49.2921 28.881C49.4411 28.7342 49.7018 28.6363 50.037 28.6363H51.527C51.8809 28.6363 52.123 28.7097 52.272 28.881C52.421 29.0278 52.5514 29.3704 52.6259 29.8354L55.5686 46.2314L58.7906 29.8354C58.9024 29.3459 59.0327 29.0278 59.1631 28.881C59.3121 28.7342 59.5542 28.6363 59.8895 28.6363H61.6216C61.9196 28.6363 62.0872 28.832 62.0872 29.2481C62.0872 29.3704 62.0686 29.4928 62.0499 29.6396C62.0313 29.7864 61.9941 29.9822 61.9196 30.2514L57.431 49.168C57.3193 49.6574 57.1889 49.9756 57.0399 50.1224C56.8909 50.2692 56.6488 50.3671 56.3322 50.3671H54.7304C54.3766 50.3671 54.1345 50.2937 53.9855 50.1224C53.8365 49.9511 53.7061 49.633 53.6316 49.1435L50.7448 33.3593L47.8766 49.1191C47.7835 49.6085 47.6717 49.9266 47.5227 50.0979C47.3737 50.2692 47.113 50.3426 46.7777 50.3426H45.176ZM69.1087 51.0034C68.1402 51.0034 67.1717 50.8566 66.2405 50.5629C65.3092 50.2692 64.5829 49.9511 64.0986 49.584C63.8007 49.3638 63.5958 49.1191 63.5213 48.8988C63.4468 48.6786 63.4095 48.4339 63.4095 48.2136V46.9656C63.4095 46.4517 63.5585 46.2069 63.8379 46.2069C63.9496 46.2069 64.0614 46.2314 64.1731 46.2803C64.2849 46.3293 64.4525 46.4272 64.6388 46.5251C65.272 46.8921 65.9611 47.1858 66.6875 47.3816C67.4325 47.5773 68.1588 47.6752 68.9038 47.6752C70.0772 47.6752 70.9898 47.406 71.623 46.8677C72.2562 46.3293 72.5915 45.5462 72.5915 44.5429C72.5915 43.8577 72.4239 43.2948 72.0886 42.8298C71.7534 42.3649 71.1201 41.9489 70.2075 41.5573L67.507 40.4561C66.1474 39.8932 65.1416 39.0612 64.527 37.96C63.9124 36.8832 63.5958 35.6841 63.5958 34.4116C63.5958 33.3838 63.7634 32.4783 64.0986 31.6952C64.4339 30.9121 64.8809 30.2269 65.4396 29.6885C65.9984 29.1257 66.6316 28.7097 67.3766 28.416C68.1216 28.1224 68.9038 28 69.7233 28C70.133 28 70.5614 28.0245 70.9711 28.0979C71.3995 28.1713 71.7906 28.2692 72.1817 28.3671C72.5542 28.4894 72.9081 28.6118 73.2433 28.7586C73.5786 28.9055 73.8393 29.0523 74.0256 29.1991C74.2863 29.3949 74.4726 29.5907 74.5843 29.8109C74.6961 30.0067 74.7519 30.2759 74.7519 30.6185V31.7686C74.7519 32.2825 74.6029 32.5517 74.3236 32.5517C74.1746 32.5517 73.9325 32.4538 73.6158 32.2581C72.5542 31.6218 71.3623 31.3037 70.0399 31.3037C68.9783 31.3037 68.1402 31.5239 67.5628 31.9889C66.9855 32.4538 66.6875 33.1635 66.6875 34.1669C66.6875 34.8521 66.8737 35.4394 67.2462 35.9044C67.6187 36.3693 68.3078 36.8343 69.2949 37.2503L71.9396 38.3515C73.2806 38.9144 74.2491 39.6975 74.8264 40.7008C75.4038 41.7041 75.6832 42.8543 75.6832 44.1268C75.6832 45.1791 75.5156 46.1335 75.1989 46.9656C74.8637 47.7976 74.4167 48.5317 73.8393 49.1191C73.262 49.7309 72.5729 50.1713 71.772 50.4895C70.9339 50.8321 70.0585 51.0034 69.1087 51.0034Z" fill="#252F3E"/>
<path fill-rule="evenodd" clip-rule="evenodd" d="M72.6277 62.8982C66.5002 68.8448 57.5977 72.0017 49.9429 72.0017C39.2151 72.0017 29.5489 66.7892 22.2481 58.1262C21.6707 57.441 22.1922 56.5111 22.8813 57.0495C30.7782 63.0695 40.5189 66.7158 50.5948 66.7158C57.3928 66.7158 64.8613 64.8559 71.7338 61.0383C72.7581 60.4266 73.6335 61.9193 72.6277 62.8982Z" fill="#FF9900"/>
<path fill-rule="evenodd" clip-rule="evenodd" d="M75.1798 59.0798C74.3975 57.7583 70.0021 58.4436 68.0093 58.7617C67.4133 58.8596 67.3201 58.1744 67.8603 57.6605C71.3617 54.4302 77.1167 55.3601 77.7872 56.4369C78.4577 57.5381 77.601 65.0999 74.323 68.7217C73.8202 69.2845 73.3359 68.9909 73.5594 68.2567C74.3044 65.834 75.962 60.3768 75.1798 59.0798Z" fill="#FF9900"/>
</svg>
