<svg width="44" height="44" viewBox="0 0 44 44" fill="none" xmlns="http://www.w3.org/2000/svg">
<path d="M43.6102 32.0132L39.1018 29.7589L36.2325 22.2953C36.1987 22.2071 36.1471 22.1267 36.0809 22.0593C36.0146 21.9919 35.9352 21.9389 35.8476 21.9036L18.0442 14.787C17.9197 14.7375 17.7834 14.7254 17.6522 14.7522C17.5209 14.7791 17.4004 14.8437 17.3054 14.9382L14.9309 17.3127C14.8377 17.4078 14.7741 17.5279 14.7478 17.6584C14.7216 17.789 14.7339 17.9244 14.7831 18.0481L21.8997 35.8515C21.935 35.9391 21.988 36.0185 22.0554 36.0848C22.1228 36.151 22.2032 36.2026 22.2914 36.2364L29.7551 39.1057L32.0093 43.6141C32.0567 43.7135 32.1274 43.8 32.2153 43.8664C32.3032 43.9328 32.4058 43.9771 32.5144 43.9955C32.551 43.9989 32.5878 43.9989 32.6244 43.9955C32.8063 43.9947 32.9806 43.9218 33.1089 43.7928L43.7889 33.1128C43.8675 33.0369 43.9269 32.9434 43.9621 32.84C43.9974 32.7367 44.0075 32.6264 43.9916 32.5183C43.9732 32.4097 43.9289 32.3071 43.8625 32.2192C43.7961 32.1313 43.7096 32.0606 43.6102 32.0132ZM16.2229 17.9587L16.6044 17.5807L25.4666 26.4429C24.8825 27.2705 24.6303 28.2872 24.7597 29.2918C24.8891 30.2964 25.3908 31.2159 26.1656 31.8684C26.9403 32.521 27.9318 32.859 28.9438 32.8158C29.9558 32.7725 30.9147 32.3511 31.631 31.6349C32.3472 30.9186 32.7686 29.9597 32.8119 28.9477C32.8551 27.9356 32.5171 26.9442 31.8645 26.1695C31.212 25.3947 30.2925 24.893 29.2879 24.7636C28.2833 24.6342 27.2666 24.8864 26.439 25.4705L17.5768 16.6083L17.9548 16.2268L35.0573 23.0685L37.7547 30.0854L30.0815 37.7586L23.0646 35.0611L16.2229 17.9587ZM28.7688 26.1027C29.3865 26.1037 29.9848 26.3187 30.4617 26.7112C30.9386 27.1037 31.2646 27.6495 31.3843 28.2554C31.5039 28.8614 31.4098 29.4901 31.1179 30.0345C30.826 30.5788 30.3545 31.0051 29.7835 31.2408C29.2125 31.4764 28.5776 31.5068 27.9867 31.3268C27.3958 31.1468 26.8857 30.7675 26.5431 30.2535C26.2006 29.7396 26.0468 29.1227 26.108 28.5081C26.1692 27.8935 26.4417 27.3191 26.8789 26.8828C27.3806 26.3826 28.0604 26.1021 28.7688 26.1027ZM32.8134 42.1468L31.0952 38.7105L38.6997 31.106L42.136 32.8241L32.8134 42.1468Z" fill="white"/>
<path d="M13.154 36.779C13.0226 36.6548 12.8486 36.5856 12.6678 36.5856C12.4869 36.5856 12.3129 36.6548 12.1815 36.779L11.3087 37.6518C8.97951 34.4906 7.69457 30.6815 7.63298 26.7553C7.57138 22.8292 8.73619 18.9816 10.9651 15.7489C11.6328 16.1163 12.4017 16.2575 13.1565 16.1512C13.9112 16.0449 14.6112 15.6968 15.1515 15.1593C15.6918 14.6217 16.0433 13.9234 16.1534 13.1693C16.2635 12.4151 16.1262 11.6455 15.7621 10.9759C18.9949 8.747 22.8424 7.58219 26.7686 7.64378C30.6947 7.70538 34.5038 8.99031 37.6651 11.3195L36.7785 12.182C36.6507 12.3109 36.579 12.485 36.5792 12.6665C36.5787 12.757 36.596 12.8466 36.6302 12.9304C36.6644 13.0141 36.7148 13.0903 36.7785 13.1545L39.8093 16.1612C39.9381 16.2892 40.1123 16.3611 40.2938 16.3611C40.4754 16.3611 40.6496 16.2892 40.7783 16.1612L43.792 13.1476C43.8559 13.0838 43.9066 13.008 43.9411 12.9246C43.9757 12.8411 43.9935 12.7517 43.9935 12.6614C43.9935 12.5711 43.9757 12.4816 43.9411 12.3982C43.9066 12.3148 43.8559 12.239 43.792 12.1751L40.7783 9.16151C40.6496 9.03351 40.4754 8.96166 40.2938 8.96166C40.1123 8.96166 39.9381 9.03351 39.8093 9.16151L38.6444 10.3195C35.7734 8.15913 32.3791 6.8018 28.8101 6.38692C25.2411 5.97204 21.6259 6.51458 18.3359 7.95881L22.298 4.00707C22.7472 4.22173 23.258 4.27032 23.7396 4.14422C24.2213 4.01812 24.6427 3.72549 24.9291 3.31823C25.2155 2.91098 25.3484 2.41543 25.3043 1.9195C25.2601 1.42358 25.0416 0.959335 24.6877 0.609135C24.3338 0.258934 23.8673 0.0454162 23.3709 0.00646039C22.8746 -0.0324954 22.3805 0.105629 21.9762 0.39633C21.572 0.687032 21.2839 1.11152 21.1628 1.59448C21.0418 2.07744 21.0958 2.58765 21.3152 3.0346L14.6282 9.73194C13.9492 9.27649 13.1332 9.07091 12.3195 9.15031C11.5058 9.22971 10.7449 9.58916 10.1668 10.1673C9.58867 10.7454 9.22922 11.5063 9.14982 12.32C9.07042 13.1337 9.276 13.9497 9.73144 14.6287L3.03411 21.3157C2.5854 21.097 2.07372 21.0445 1.58997 21.1675C1.10623 21.2905 0.68175 21.5811 0.391974 21.9875C0.102197 22.3939 -0.0341127 22.8899 0.00726549 23.3873C0.0486437 23.8847 0.26503 24.3513 0.617974 24.7043C0.970917 25.0572 1.43756 25.2736 1.93498 25.315C2.4324 25.3564 2.92838 25.2201 3.33479 24.9303C3.7412 24.6405 4.03171 24.216 4.15471 23.7323C4.27771 23.2485 4.22522 22.7369 4.00658 22.2882L7.96862 18.3364C6.52295 21.6255 5.9787 25.2402 6.39176 28.8092C6.80482 32.3782 8.16031 35.7729 10.319 38.6449L9.15758 39.8098C9.02958 39.9386 8.95773 40.1128 8.95773 40.2943C8.95773 40.4759 9.02958 40.6501 9.15758 40.7788L12.1712 43.7925C12.2995 43.9215 12.4737 43.9944 12.6557 43.9952C12.7464 43.9953 12.8362 43.9774 12.92 43.9426C13.0037 43.9078 13.0797 43.8568 13.1437 43.7925L16.1607 40.7788C16.2887 40.6501 16.3606 40.4759 16.3606 40.2943C16.3606 40.1128 16.2887 39.9386 16.1607 39.8098L13.154 36.779ZM40.3007 10.6116L42.3419 12.6528L40.3007 14.6939L38.2595 12.6528L40.3007 10.6116ZM22.6897 1.60167C22.7918 1.49871 22.9222 1.42841 23.0644 1.39968C23.2065 1.37096 23.354 1.38511 23.4881 1.44033C23.6222 1.49555 23.7368 1.58936 23.8175 1.70985C23.8982 1.83035 23.9413 1.9721 23.9413 2.11711C23.9413 2.26213 23.8982 2.40387 23.8175 2.52437C23.7368 2.64486 23.6222 2.73867 23.4881 2.7939C23.354 2.84912 23.2065 2.86326 23.0644 2.83454C22.9222 2.80581 22.7918 2.73551 22.6897 2.63256C22.622 2.5649 22.5682 2.48455 22.5315 2.3961C22.4949 2.30766 22.476 2.21286 22.476 2.11711C22.476 2.02137 22.4949 1.92656 22.5315 1.83812C22.5682 1.74968 22.622 1.66933 22.6897 1.60167ZM11.1438 11.1443C11.3433 10.9437 11.5805 10.7846 11.8418 10.676C12.103 10.5675 12.3831 10.5116 12.666 10.5116C12.9489 10.5116 13.2291 10.5675 13.4903 10.676C13.7515 10.7846 13.9887 10.9437 14.1883 11.1443C14.49 11.4454 14.6955 11.8293 14.7789 12.2474C14.8624 12.6654 14.8199 13.0988 14.6569 13.4927C14.4939 13.8866 14.2178 14.2233 13.8634 14.4602C13.509 14.6971 13.0923 14.8235 12.666 14.8235C12.2398 14.8235 11.8231 14.6971 11.4687 14.4602C11.1143 14.2233 10.8381 13.8866 10.6752 13.4927C10.5122 13.0988 10.4697 12.6654 10.5531 12.2474C10.6365 11.8293 10.8421 11.4454 11.1438 11.1443ZM2.6355 23.7211C2.49519 23.8381 2.3162 23.8984 2.13369 23.8902C1.95118 23.8819 1.77836 23.8057 1.64917 23.6765C1.51999 23.5473 1.44379 23.3745 1.43554 23.192C1.4273 23.0095 1.4876 22.8305 1.60461 22.6902C1.74213 22.555 1.92723 22.4793 2.12005 22.4793C2.31287 22.4793 2.49797 22.555 2.6355 22.6902C2.70324 22.7579 2.75698 22.8382 2.79365 22.9266C2.83031 23.0151 2.84919 23.1099 2.84919 23.2056C2.84919 23.3014 2.83031 23.3962 2.79365 23.4846C2.75698 23.5731 2.70324 23.6534 2.6355 23.7211ZM12.666 42.3217L10.6249 40.2806L12.666 38.2394L14.7072 40.2806L12.666 42.3217Z" fill="white"/>
</svg>
