<svg width="53" height="42" viewBox="0 0 53 42" fill="none" xmlns="http://www.w3.org/2000/svg">
<path d="M42.9259 9.55534C42.9235 9.51999 42.9194 9.48507 42.9129 9.45101C42.9126 9.4493 42.9125 9.44769 42.9122 9.44598C42.9047 9.40828 42.8942 9.37186 42.8819 9.33608C42.8796 9.32912 42.877 9.32226 42.8745 9.31541C42.862 9.28188 42.848 9.24922 42.8316 9.21783C42.8304 9.21548 42.8294 9.21301 42.8282 9.21066C42.8104 9.17735 42.7901 9.14564 42.7681 9.11511C42.7632 9.10826 42.7582 9.10162 42.7531 9.09487C42.7298 9.06424 42.7051 9.03467 42.678 9.00747L33.9432 0.251603C33.9161 0.224397 33.8866 0.199654 33.856 0.176304C33.8494 0.17127 33.8428 0.166236 33.836 0.161309C33.8055 0.139244 33.7738 0.118786 33.7403 0.100898C33.7384 0.0998272 33.7364 0.0990774 33.7344 0.0981134C33.7026 0.0814041 33.6694 0.0670512 33.6353 0.0544121C33.6289 0.0520557 33.6224 0.0495924 33.616 0.047343C33.58 0.0349182 33.5433 0.0243143 33.5052 0.0167095C33.5045 0.0166024 33.5037 0.016495 33.5031 0.0163879C33.468 0.00953283 33.4321 0.00546263 33.3958 0.00299908C33.3862 0.00235642 33.3765 0.00182087 33.3669 0.00149954C33.3572 0.00117821 33.3477 0 33.3379 0H17.7694C16.0885 0 14.7209 1.36952 14.7209 3.05287V15.1854L10.3065 15.8336C9.82378 15.9045 9.40684 16.1792 9.13511 16.6027L0.280157 30.2257C-0.241602 31.0341 -0.0134727 32.1185 0.788988 32.6429L10.7388 39.1404C11.032 39.332 11.3618 39.4235 11.6881 39.4235C12.2577 39.4235 12.8163 39.1445 13.1496 38.6319L14.721 36.2145V38.9469C14.721 40.6303 16.0886 41.9998 17.7695 41.9998H39.8835C41.5627 41.9998 42.929 40.6303 42.929 38.9469V9.61425C42.929 9.60472 42.9279 9.5955 42.9276 9.58608C42.9272 9.5758 42.9267 9.56562 42.926 9.55534H42.9259ZM40.0074 8.75651H34.4222C34.2983 8.75651 34.1935 8.65154 34.1935 8.52718V2.92851L40.0074 8.75651ZM11.7157 37.6953C11.7075 37.7081 11.6864 37.7118 11.673 37.7032L1.72341 31.2058C1.71091 31.1977 1.70557 31.1753 1.7155 31.1599L10.5717 17.5352C10.5735 17.5325 10.5751 17.53 10.5765 17.528L18.3919 16.3803C18.4355 16.3741 18.4603 16.3912 18.4719 16.4327L20.5794 24.0603C20.5775 24.0636 20.5752 24.0674 20.5724 24.0719L14.869 32.8453C14.8674 32.8476 14.8659 32.85 14.8644 32.8523L11.716 37.6953H11.7157ZM41.2176 38.947C41.2176 39.6845 40.619 40.2845 39.8835 40.2845H17.7694C17.0321 40.2845 16.4322 39.6845 16.4322 38.947V33.5822L22.0055 25.0089C22.283 24.5827 22.3641 24.0909 22.2348 23.6251L20.1207 15.9738C20.1207 15.9738 20.1205 15.9733 20.1204 15.973C19.8758 15.0915 19.0431 14.5495 18.1421 14.6832L16.4322 14.9342V3.05297C16.4322 2.31552 17.032 1.71548 17.7694 1.71548H32.4822V8.52718C32.4822 9.59947 33.3525 10.4719 34.4222 10.4719H41.2175V38.947H41.2176ZM22.3324 18.6075C22.3324 20.6563 23.145 22.5697 24.6211 23.9953C25.2013 24.5551 25.5529 24.9583 25.7682 25.3235C25.495 25.7145 25.3341 26.1896 25.3341 26.702C25.3341 27.5145 25.7378 28.2337 26.3542 28.6704C26.3452 28.7204 26.3397 28.7717 26.3397 28.8243C26.3397 30.4675 27.6732 31.8044 29.3125 31.8044H30.2757C31.9149 31.8044 33.2486 30.4675 33.2486 28.8243C33.2486 28.7716 33.2431 28.7203 33.234 28.6703C33.8505 28.2337 34.2541 27.5145 34.2541 26.702C34.2541 26.1896 34.0931 25.7145 33.82 25.3235C34.0353 24.9582 34.3871 24.555 34.9675 23.995C36.4431 22.5697 37.2557 20.6564 37.2557 18.6075C37.2557 14.4832 33.9085 11.1278 29.7941 11.1278C25.6798 11.1278 22.3324 14.4832 22.3324 18.6075ZM27.3041 26.1619C27.4228 26.0659 27.5734 26.0082 27.7375 26.0082H31.8507C32.0147 26.0082 32.1653 26.0659 32.2841 26.1619C32.2874 26.1644 32.2906 26.1672 32.294 26.1698C32.4459 26.2972 32.5428 26.4883 32.5428 26.702C32.5428 27.0845 32.2324 27.3958 31.8507 27.3958H27.7375C27.3559 27.3958 27.0454 27.0845 27.0454 26.702C27.0454 26.4885 27.1423 26.2972 27.2942 26.1698C27.2975 26.1672 27.3007 26.1646 27.3041 26.1619ZM30.2469 24.2928H29.3412V20.8375H30.2469V24.2928ZM27.63 19.1221H27.274C27.1458 19.1221 26.7274 19.0896 26.7274 18.6713C26.7274 18.421 26.9291 18.2174 27.1771 18.2174C27.5858 18.2174 27.63 18.6028 27.63 18.7685V19.1221ZM30.2757 30.089H29.3125C28.7155 30.089 28.2151 29.6706 28.085 29.1113H31.5032C31.3731 29.6706 30.8727 30.089 30.2757 30.089ZM35.5445 18.6076C35.5445 20.1862 34.9179 21.6608 33.7805 22.7595C33.1978 23.3216 32.7363 23.8218 32.403 24.3579C32.2592 24.3239 32.1107 24.3024 31.9582 24.2957V20.8377H32.3141C33.6014 20.8377 34.5722 19.9064 34.5722 18.6714C34.5722 17.4752 33.6028 16.5021 32.4111 16.5021C31.1772 16.5021 30.2469 17.4765 30.2469 18.7687V19.1224H29.3412V18.7687C29.3412 17.4766 28.4108 16.5021 27.177 16.5021C25.9854 16.5021 25.0159 17.4752 25.0159 18.6714C25.0159 19.9064 25.9867 20.8377 27.2739 20.8377H27.6299V24.2957C27.4775 24.3024 27.3288 24.3239 27.185 24.3579C26.8518 23.8219 26.3904 23.3218 25.808 22.7598C24.6703 21.6609 24.0436 20.1863 24.0436 18.6076C24.0436 15.4292 26.6232 12.8434 29.7939 12.8434C32.9647 12.8434 35.5442 15.4293 35.5442 18.6076H35.5445ZM31.9583 19.1222V18.7686C31.9583 18.6029 32.0025 18.2175 32.4112 18.2175C32.6592 18.2175 32.8609 18.4211 32.8609 18.6714C32.8609 19.0898 32.4425 19.1222 32.3143 19.1222H31.9583ZM22.8884 5.70835H19.2174C18.7448 5.70835 18.3617 5.32436 18.3617 4.85061C18.3617 4.37686 18.7448 3.99287 19.2174 3.99287H22.8884C23.361 3.99287 23.7441 4.37686 23.7441 4.85061C23.7441 5.32436 23.361 5.70835 22.8884 5.70835ZM24.9313 4.85061C24.9313 4.37686 25.3144 3.99287 25.787 3.99287H27.0227C27.4953 3.99287 27.8784 4.37686 27.8784 4.85061C27.8784 5.32436 27.4953 5.70835 27.0227 5.70835H25.787C25.3144 5.70835 24.9313 5.32436 24.9313 4.85061ZM27.8784 7.69858C27.8784 8.17233 27.4953 8.55632 27.0227 8.55632H23.3518C22.8792 8.55632 22.4961 8.17233 22.4961 7.69858C22.4961 7.22482 22.8792 6.84083 23.3518 6.84083H27.0227C27.4953 6.84083 27.8784 7.22482 27.8784 7.69858ZM21.3088 7.69858C21.3088 8.17233 20.9257 8.55632 20.4531 8.55632H19.2174C18.7448 8.55632 18.3617 8.17233 18.3617 7.69858C18.3617 7.22482 18.7448 6.84083 19.2174 6.84083H20.4531C20.9257 6.84083 21.3088 7.22482 21.3088 7.69858ZM13.9562 23.289C14.4546 23.6138 15.0152 23.7691 15.57 23.769C16.5401 23.769 17.4918 23.294 18.0599 22.421C18.9509 21.0473 18.5628 19.2024 17.1951 18.3082C16.5317 17.8746 15.7393 17.726 14.9641 17.8897C14.1887 18.0534 13.5235 18.5097 13.091 19.1745C12.1979 20.5475 12.5855 22.393 13.9562 23.289ZM14.5243 20.1115C14.7071 19.8305 14.9886 19.6377 15.3167 19.5684C15.4037 19.55 15.4914 19.5409 15.5783 19.5409C15.8187 19.5409 16.0542 19.6106 16.2601 19.7451C16.8386 20.1233 17.0023 20.9042 16.6258 21.485C16.2484 22.0649 15.4696 22.229 14.89 21.8514C14.3106 21.4727 14.1467 20.6922 14.5243 20.1115ZM15.3031 26.3909C15.2161 25.9808 14.9755 25.6304 14.6291 25.4065L11.7517 23.5272C11.0329 23.057 10.0663 23.2596 9.59532 23.9809L5.94333 29.5983C5.71904 29.9467 5.64275 30.3631 5.72813 30.7703C5.81436 31.1814 6.05467 31.5324 6.40119 31.7564L9.27744 33.6351C9.53987 33.8072 9.83531 33.8895 10.1278 33.8895C10.6365 33.8895 11.1359 33.6404 11.4349 33.1821L15.0838 27.5695C15.312 27.2198 15.3897 26.8013 15.3028 26.391L15.3031 26.3909ZM10.0859 32.1155L7.46319 30.4025L10.9447 25.0475L13.5672 26.7605L10.0859 32.1155ZM52.9823 33.2401C52.9943 33.182 53 33.1236 53 33.0657V9.96043C53 7.57561 51.0645 5.63541 48.6854 5.63541C46.3063 5.63541 44.3707 7.57561 44.3707 9.96043V33.0658C44.3707 33.1236 44.3764 33.182 44.3885 33.24C44.4002 33.2969 44.4176 33.3518 44.4401 33.404V33.4043L47.8991 41.4806C48.034 41.7957 48.3433 42 48.6853 42C49.0273 42 49.3367 41.7957 49.4715 41.4806L52.9304 33.4043C52.9304 33.4043 52.9304 33.4042 52.9304 33.404C52.9528 33.3518 52.9703 33.2969 52.9821 33.24L52.9823 33.2401ZM50.1813 35.4753H47.1895L46.525 33.9238H50.8459L50.1813 35.4753ZM51.2887 32.2083H49.5411V16.684H51.2887V32.2082V32.2083ZM46.082 32.2083V16.684H47.8296V32.2082H46.082V32.2083ZM51.2887 14.9687H46.082V13.4172H51.2887V14.9687ZM48.6854 7.35089C50.1209 7.35089 51.2887 8.52161 51.2887 9.96054V11.7018H46.082V9.96054C46.082 8.52161 47.2499 7.35089 48.6853 7.35089H48.6854ZM48.6854 38.9681L47.9241 37.1907H49.4466L48.6854 38.9681ZM28.3404 35.1595H20.6985C20.2258 35.1595 19.8428 34.7755 19.8428 34.3017C19.8428 33.828 20.2258 33.444 20.6985 33.444H28.3404C28.813 33.444 29.1961 33.828 29.1961 34.3017C29.1961 34.7755 28.813 35.1595 28.3404 35.1595ZM36.9515 33.444C37.4241 33.444 37.8072 33.828 37.8072 34.3017C37.8072 34.7755 37.4241 35.1595 36.9515 35.1595H32.8383C32.3657 35.1595 31.9826 34.7755 31.9826 34.3017C31.9826 33.828 32.3657 33.444 32.8383 33.444H36.9515ZM37.8072 37.1497C37.8072 37.6235 37.4241 38.0075 36.9515 38.0075H29.3096C28.837 38.0075 28.4539 37.6235 28.4539 37.1497C28.4539 36.676 28.837 36.292 29.3096 36.292H36.9515C37.4241 36.292 37.8072 36.676 37.8072 37.1497ZM25.3767 37.1497C25.3767 37.6235 24.9936 38.0075 24.521 38.0075H20.6986C20.2259 38.0075 19.8429 37.6235 19.8429 37.1497C19.8429 36.676 20.2259 36.292 20.6986 36.292H24.521C24.9936 36.292 25.3767 36.676 25.3767 37.1497Z" fill="white"/>
</svg>
