<svg width="82" height="96" viewBox="0 0 82 96" fill="none" xmlns="http://www.w3.org/2000/svg">
<path d="M50.612 0.0327805L82 0L29.3395 49.8809L15.6152 62.8146L0 47.9978L50.612 0.0327805ZM50.3199 44.5704C50.7273 44.0605 51.4768 44.3118 52.0456 44.2463L81.9731 44.2536L54.6974 70.0772L39.0015 55.2933L50.3199 44.5704Z" fill="#44D1FD"/>
<path d="M23.3594 70.1024L39.0053 55.293L54.7012 70.0769L54.7666 70.1425L39.0092 84.9374L23.3594 70.1024Z" fill="#1FBCFD"/>
<path d="M39.0078 84.9375L54.7652 70.1426L81.9871 95.9663C71.7333 95.9881 61.4833 95.959 51.2333 95.9808C50.6491 96.1047 50.2878 95.5984 49.915 95.2852L39.0078 84.9375Z" fill="#08589C"/>
</svg>
