<svg width="82" height="82" viewBox="0 0 82 82" fill="none" xmlns="http://www.w3.org/2000/svg">
<g clip-path="url(#clip0_746_36711)">
<rect width="82" height="82" fill="white"/>
<path d="M82 0H0V82H82V0Z" fill="#F7DF1E"/>
<path d="M55.0823 64.0627C56.734 66.7596 58.8829 68.7419 62.6836 68.7419C65.8764 68.7419 67.9159 67.1461 67.9159 64.9413C67.9159 62.299 65.8204 61.3632 62.3061 59.826L60.3797 58.9995C54.8194 56.6306 51.1255 53.663 51.1255 47.3893C51.1255 41.6103 55.5287 37.2109 62.4102 37.2109C67.3094 37.2109 70.8315 38.916 73.3696 43.3805L67.3693 47.2332C66.0482 44.8643 64.6229 43.931 62.4102 43.931C60.1533 43.931 58.7228 45.3628 58.7228 47.2332C58.7228 49.5448 60.1546 50.4806 63.4606 51.9124L65.387 52.7376C71.9339 55.5451 75.6305 58.4073 75.6305 64.8423C75.6305 71.7798 70.1807 75.5804 62.8619 75.5804C55.7057 75.5804 51.0825 72.1703 48.8204 67.7006L55.0823 64.0627ZM27.8622 64.7304C29.0727 66.878 30.1738 68.6937 32.8212 68.6937C35.3528 68.6937 36.9499 67.7032 36.9499 63.8518V37.6509H44.6553V63.956C44.6553 71.9347 39.9774 75.5661 33.1492 75.5661C26.9797 75.5661 23.4069 72.3733 21.5898 68.5278L27.8622 64.7304Z" fill="black"/>
</g>
<defs>
<clipPath id="clip0_746_36711">
<rect width="82" height="82" fill="white"/>
</clipPath>
</defs>
</svg>
