<svg width="84" height="82" viewBox="0 0 84 82" fill="none" xmlns="http://www.w3.org/2000/svg">
<path d="M41.4729 47.943C45.6929 47.943 49.1138 44.7063 49.1138 40.7137C49.1138 36.721 45.6929 33.4844 41.4729 33.4844C37.253 33.4844 33.832 36.721 33.832 40.7137C33.832 44.7063 37.253 47.943 41.4729 47.943Z" fill="#61DAFB"/>
<path d="M42 55.812C64.6437 55.812 83 49.1808 83 41.0007C83 32.8207 64.6437 26.1895 42 26.1895C19.3563 26.1895 1 32.8207 1 41.0007C1 49.1808 19.3563 55.812 42 55.812Z" stroke="#61DAFB"/>
<path d="M28.4402 48.4056C39.7621 66.9593 55.01 78.6844 62.4975 74.5944C69.9849 70.5043 66.8765 52.148 55.5547 33.5944C44.2328 15.0407 28.9849 3.31562 21.4975 7.40564C14.01 11.4957 17.1184 29.852 28.4402 48.4056Z" stroke="#61DAFB"/>
<path d="M28.4441 33.5936C17.1223 52.1473 14.0139 70.5036 21.5014 74.5936C28.9888 78.6837 44.2368 66.9586 55.5586 48.4049C66.8804 29.8513 69.9888 11.4949 62.5014 7.40491C55.0139 3.31489 39.766 15.04 28.4441 33.5936Z" stroke="#61DAFB"/>
</svg>
