<svg width="100" height="100" viewBox="0 0 100 100" fill="none" xmlns="http://www.w3.org/2000/svg">
<rect width="100" height="100" rx="8" fill="#FFFEFA"/>
<path d="M71.2162 43.4691C66.052 28.5951 55.2884 24.6354 52.5426 21.8363C51.4104 20.6033 50.4074 19.3216 49.5406 18C49.3955 19.3214 49.129 20.1538 47.4087 21.1558C43.9547 23.1665 29.285 30.9713 28.0504 47.8714C26.9002 63.6286 45.793 73.3449 48.2891 74.3492C50.2084 74.9658 52.546 74.3624 53.6861 73.7964C62.7935 69.7156 75.237 58.8365 71.2263 43.4691" fill="#10AA50"/>
<path d="M50.3207 65.959C49.8451 69.8592 49.5045 72.1253 48.2969 74.354C48.2969 74.354 49.0896 78.067 49.6461 82.0002H51.616C52.0859 79.2305 52.8034 76.4811 53.7647 73.766C51.2146 72.9467 50.4186 69.3813 50.3207 65.959Z" fill="#B8C4C2"/>
<path d="M53.7638 73.767C51.1868 72.9896 50.4413 69.3493 50.3266 65.9578C50.9639 60.3633 51.1497 54.7508 50.8832 49.1436C50.7483 46.2014 50.9473 21.8928 49.7734 18.334C50.5764 19.5393 51.5016 20.7084 52.5428 21.8334C55.2885 24.6346 66.0555 28.5943 71.2164 43.4684C75.2371 58.8093 62.8611 69.6598 53.7638 73.767Z" fill="#12924F"/>
</svg>
