<svg width="34" height="34" viewBox="0 0 34 34" fill="none" xmlns="http://www.w3.org/2000/svg">
<mask id="mask0_746_18036" style="mask-type:alpha" maskUnits="userSpaceOnUse" x="0" y="0" width="34" height="34">
<rect width="34" height="34" fill="#D9D9D9"/>
</mask>
<g mask="url(#mask0_746_18036)">
<path d="M15.4785 19.5499L22.5101 12.5536L21.4993 11.5429L15.4785 17.5637L12.468 14.5533L11.4654 15.5559L15.4785 19.5499ZM2.50781 27.5703V26.1536H31.4949V27.5703H2.50781ZM6.54 24.737C5.88786 24.737 5.34339 24.5186 4.90658 24.0818C4.46978 23.645 4.25138 23.1006 4.25138 22.4487V8.60894C4.25138 7.9568 4.46978 7.41233 4.90658 6.97552C5.34339 6.53872 5.88786 6.32031 6.54 6.32031H27.4628C28.1149 6.32031 28.6594 6.53872 29.0962 6.97552C29.533 7.41233 29.7514 7.9568 29.7514 8.60894V22.4487C29.7514 23.1006 29.533 23.645 29.0962 24.0818C28.6594 24.5186 28.1149 24.737 27.4628 24.737H6.54ZM6.54 23.3203H27.4628C27.6809 23.3203 27.8808 23.2295 28.0624 23.048C28.2439 22.8664 28.3347 22.6666 28.3347 22.4487V8.60894C28.3347 8.39101 28.2439 8.19114 28.0624 8.00933C27.8808 7.82776 27.6809 7.73698 27.4628 7.73698H6.54C6.32183 7.73698 6.12197 7.82776 5.9404 8.00933C5.75883 8.19114 5.66804 8.39101 5.66804 8.60894V22.4487C5.66804 22.6666 5.75883 22.8664 5.9404 23.048C6.12197 23.2295 6.32183 23.3203 6.54 23.3203Z" fill="#1C1B1F"/>
</g>
</svg>
