<svg width="550" height="135" viewBox="0 0 550 135" fill="none" xmlns="http://www.w3.org/2000/svg">
<path d="M27.9329 123.266C27.9329 123.266 28.2073 125.169 28.5089 125.685C28.8109 126.202 29.627 128.846 30.0042 129.342C30.3745 129.838 31.1979 133.535 30.0042 133.984C28.8109 134.426 25.9917 135.166 25.0454 133.685C24.0987 132.203 23.9754 130.721 24.1262 129.587C24.2769 128.451 25.4157 123.239 25.3951 122.722C25.3813 122.206 27.9329 123.266 27.9329 123.266Z" fill="#FFF9D7"/>
<path d="M29.5256 128.309C29.5256 128.309 29.6557 131.183 27.4611 131.183C25.2661 131.183 24.2992 128.567 24.2992 128.567C24.2992 128.567 23.5513 129.851 24.2992 132.59C25.0466 135.329 28.1605 134.765 28.8602 134.663C29.5599 134.561 32.8658 133.698 29.5324 128.309H29.5256Z" fill="black"/>
<path d="M32.2757 37.1738C32.1387 40.7488 30.4102 44.8674 30.4102 44.8674C30.2594 44.3643 30.1078 43.882 29.957 43.4334C30.9308 40.7352 32.2826 37.1738 32.2826 37.1738H32.2757Z" fill="#3D2F23"/>
<path d="M32.5998 28.7729C32.5998 28.7729 28.8755 28.3038 26.9207 32.0283C24.9658 35.7527 24.9795 37.3365 24.7188 39.1578C24.4718 40.8774 23.3609 45.5604 23.251 46.0427C23.1414 46.5253 20.6174 52.2958 21.7763 54.3142C22.9357 56.3395 30.7617 63.6188 30.693 64.0675C30.6174 64.5157 34.486 60.9407 34.486 60.9407C34.486 60.9407 30.8029 56.3803 30.0208 55.5716C28.7519 54.253 27.202 52.0582 27.7506 50.4204C28.3953 48.4969 30.3365 42.013 30.7892 41.0681C31.2416 40.1167 35.4739 29.9894 32.5998 28.7797V28.7729Z" fill="black"/>
<path d="M270.15 11.4219L269.246 16.6401L298.707 21.651L299.611 16.4328L270.15 11.4219Z" fill="#999999"/>
<path d="M294.716 44.5728L295.62 39.3547L266.16 34.3438L265.256 39.5619L294.716 44.5728Z" fill="#999999"/>
<path d="M183.487 123.118C183.487 123.118 185.565 125.279 187.671 125.734C189.776 126.19 191.258 126.767 191.272 128.004C191.285 129.241 185.202 130.064 182.787 128.813C179.186 126.944 178.816 127.509 178.418 126.577C178.02 125.646 178.898 123.152 178.871 122.853C178.836 122.486 183.48 123.118 183.48 123.118H183.487Z" fill="black"/>
<path d="M183.25 122.083C183.25 122.083 183.525 123.096 183.483 123.116C183.442 123.137 178.73 123.66 178.874 122.851C178.991 122.192 179.155 121.479 179.155 121.479L183.25 122.09V122.083Z" fill="#FF8E3A"/>
<path d="M160.021 123.681C160.021 123.681 161.55 125.788 163.594 126.271C165.61 126.747 166.914 127.657 167.017 128.867C167.113 130.07 162.263 131.654 158.854 129.534C156.619 128.14 155.782 128.221 155.329 127.338C154.876 126.455 155.562 123.973 155.521 123.688C155.466 123.335 160.021 123.681 160.021 123.681Z" fill="black"/>
<path d="M159.959 122.642C159.959 122.642 160.062 123.662 160.021 123.682C159.98 123.703 155.494 124.491 155.522 123.689C155.542 123.05 155.803 122.262 155.803 122.262L159.959 122.642Z" fill="#FF8E3A"/>
<path d="M178.494 61.2743C178.494 61.2743 180.675 76.9811 181.566 82.2893C182.609 88.4944 182.959 93.6259 183.254 96.8408C183.618 100.885 183.419 121.56 183.672 122.742C183.926 123.925 178.515 123.307 178.515 123.307C178.515 123.307 174.543 96.3445 173.453 92.0421C172.437 88.0325 169.652 71.5166 168.727 72.6109C167.801 73.7053 164.81 92.5248 164.125 95.6852C163.439 98.8456 160.674 123.721 160.674 123.721C160.674 123.721 156.072 124.713 154.816 123.721C154.816 123.721 155.098 101.537 155.537 95.6103C155.702 93.354 154.096 68.5805 157.951 58.5897C159.988 53.3087 178.501 61.2743 178.501 61.2743H178.494Z" fill="black"/>
<path d="M194.21 40.2809C194.21 40.2809 196.329 40.2128 196.638 39.7778C196.947 39.3496 197.783 39.0235 198.134 38.6903C198.483 38.3574 199.121 37.1137 199.601 36.9098C199.8 36.8281 201.213 36.7736 201.597 36.5629C201.981 36.3522 202.701 35.8291 202.88 36.1551C203.058 36.4816 202.544 37.1205 202.544 37.1205C202.544 37.1205 202.9 36.9435 203.154 37.1882C203.634 37.6504 203.497 38.0446 203.497 38.0446C203.497 38.0446 203.984 38.0991 204.128 38.3438C204.457 38.8806 204.32 39.2543 204.32 39.2543C204.32 39.2543 204.643 39.4245 204.78 39.8323C204.951 40.3486 204.567 40.7428 204.567 40.7428C204.567 40.7428 204.938 41.3408 204.691 41.6536C204.444 41.9596 204.087 42.0614 203.826 42.2449C203.566 42.4351 200.795 43.3528 198.613 43.217C196.432 43.0808 194.416 43.5703 194.416 43.5703L194.203 40.2809H194.21Z" fill="#FFF9D7"/>
<path d="M197.429 43.399C197.429 43.399 189.369 46.4441 186.701 45.7984C185.467 45.4996 183.841 43.8072 182.291 41.8224C181.783 41.1699 181.282 40.4837 180.803 39.804C178.903 37.0922 177.421 34.489 177.421 34.489C177.421 34.489 171.81 27.9779 176.31 25.0758C176.31 25.0758 177.942 24.4709 179.444 26.0612C180.947 27.6518 182.709 30.9889 183.1 31.8384C183.491 32.688 188.999 40.5583 189.287 40.7349C189.575 40.9119 191.983 40.2867 193.91 40.1233C197.058 39.8653 196.434 39.7291 196.434 39.7291L197.429 43.4058V43.399Z" fill="#F79752"/>
<path d="M172.101 23.6082C172.101 23.6082 177.876 24.7911 178.562 25.3891C179.302 26.028 180.619 32.2944 180.695 34.0412C180.77 35.7877 180.002 43.0738 179.254 45.7925C178.514 48.5042 180.235 60.0652 178.857 61.9683C178.857 61.9683 166.956 65.754 155.529 64.2791C155.529 64.2791 157.985 53.3707 157.525 49.6527C156.942 44.8884 155.529 33.905 155.529 33.905C155.529 33.905 157.059 26.5103 158.074 25.6607C159.089 24.8111 166.168 23.418 166.168 23.418L172.107 23.6082H172.101Z" fill="#F79752"/>
<path d="M174.71 24.1926C174.71 24.1926 175.06 22.6296 170.115 22.2623C165.169 21.9022 161.829 23.0033 161.733 24.4033C161.637 25.8104 174.257 29.3173 174.257 29.3173L174.71 24.1861V24.1926Z" fill="#F79752"/>
<path d="M169.711 5.92388C169.711 5.92388 176.652 3.3755 176.22 12.5239C175.788 21.6651 174.155 22.5964 169.588 21.3186C165.019 20.0408 164.635 14.2703 164.039 11.4905C163.442 8.71058 167.434 6.31842 169.704 5.91745L169.711 5.92388Z" fill="#FFF9D7"/>
<path d="M173.242 25.0544C173.242 25.0544 171.575 25.7822 166.156 23.4169C166.156 23.4169 166.307 19.733 165.244 16.2942C164.181 12.855 172.515 20.8818 172.515 20.8818C172.425 20.9431 172.412 21.2896 172.46 21.7654C172.501 22.1732 172.59 22.6759 172.727 23.1858C173.029 24.3346 172.961 24.13 173.235 25.0544H173.242Z" fill="#FFF9D7"/>
<path d="M165.015 16.0293C165.015 16.0293 164.994 13.5899 166.023 13.3588C167.045 13.1344 167.573 14.5476 167.573 14.5476L168.396 14.5068C168.396 14.5068 167.656 12.0333 168.636 11.4625C169.617 10.8917 175.461 11.394 176.195 10.5581C176.929 9.7221 175.866 4.77437 174.267 4.2917C172.67 3.80903 168.314 2.82364 165.55 5.26346C165.55 5.26346 163.17 6.28327 163.074 8.22C162.978 10.1639 164.178 14.7039 165.008 16.0293H165.015Z" fill="black"/>
<path d="M167.182 12.3263C166.873 11.5171 165.145 11.6193 165.323 12.8971C165.502 14.1749 166.935 16.1388 167.504 15.7719C168.081 15.405 167.607 13.4338 167.182 12.3263Z" fill="#FFF9D7"/>
<path d="M373.305 120.575C373.305 120.575 370.624 123.246 368.312 123.532C366.001 123.817 363.325 124.68 363.01 126.407C362.694 128.133 369.848 129.961 372.667 128.615C376.872 126.604 378.093 127.406 378.737 126.169C379.375 124.932 379.259 120.677 379.355 120.269C379.478 119.766 373.305 120.582 373.305 120.582V120.575Z" fill="black"/>
<path d="M420.742 113.018C420.742 113.018 419.967 116.674 418.253 118.074C416.539 119.474 414.833 121.561 415.471 123.212C416.116 124.864 422.212 124.667 424.392 120.303C425.77 117.544 427.377 117.068 427.247 115.675C427.121 114.288 424.991 111.312 424.858 110.911C424.693 110.414 420.739 113.018 420.739 113.018H420.742Z" fill="black"/>
<path d="M392.112 60.1807C392.112 60.1807 383.851 76.8124 381.759 81.6311C379.825 86.0966 378.227 92.1587 377.96 95.2987C377.624 99.2406 373.255 118.951 373.021 120.107C372.788 121.262 379.839 122.05 379.839 122.05C379.839 122.05 387.096 94.4559 388.737 90.5071C389.84 87.8426 399.62 70.7158 400.464 71.7829C401.315 72.85 406.473 85.7092 407.103 88.7879C407.736 91.8734 419.937 114.322 419.937 114.322C419.937 114.322 425.197 114.363 426.281 112.277C426.281 112.277 417.345 89.0796 416.364 84.8456C415.863 82.691 415.272 68.4795 411.733 58.7335C409.866 53.5815 392.096 60.1743 392.096 60.1743L392.112 60.1807Z" fill="black"/>
<path d="M398.171 15.5886C397.823 16.7646 397.35 17.8995 396.792 18.8784C394.865 22.2832 389.287 23.1941 387.932 14.848C387.669 13.2642 387.677 11.9527 387.841 10.8652C388.417 6.98418 391.009 5.96475 391.009 5.96475C392.979 5.55698 396.525 5.52294 398.075 7.90866C399.175 9.60784 399.041 12.707 398.178 15.5818L398.171 15.5886Z" fill="#FFF9D7"/>
<path d="M398.911 13.8762L397.869 16.5271C397.869 16.5271 398.224 15.8133 396.8 13.788C396.51 13.3803 396.396 13.7199 396.27 13.5433L394.426 13.1287C394.426 13.1287 395.716 10.0159 393.334 9.56051C390.914 9.09827 387.826 10.8587 387.826 10.8587C386.764 4.59879 390.922 5.47561 390.922 5.47561C393.006 5.04741 396.766 5.00656 398.404 7.5417C399.568 9.3362 399.816 10.8179 398.904 13.8694L398.911 13.8762Z" fill="black"/>
<path d="M395.554 12.7486C395.589 12.171 396.631 11.5253 397.291 12.6533C397.948 13.7817 396.558 15.2974 396.096 15.0935C395.638 14.8896 395.493 13.7068 395.554 12.7486Z" fill="#FFF9D7"/>
<path d="M393.072 23.1603C393.072 23.1603 388.518 24.8187 387.992 25.4507C387.415 26.1169 386.976 32.0776 387.14 33.6406C387.304 35.204 388.69 41.5452 389.717 43.8629C390.748 46.1805 390.706 58.5298 390.797 61.935C390.797 61.935 406.227 64.9388 413.148 59.3862C413.148 59.3862 409.163 47.3085 409.06 43.9374C408.938 39.6149 409.22 30.1133 409.22 30.1133C409.22 30.1133 406.353 23.1331 405.185 22.8343C401.345 21.8417 398.951 22.3244 398.951 22.3244L393.065 23.1603H393.072Z" fill="#F79752"/>
<path d="M392.141 24.6155C392.141 24.6155 393.84 25.5263 398.608 22.529C398.608 22.529 397.36 19.9197 397.868 16.5281C398.375 13.1366 392.111 20.8234 392.111 20.8234C392.18 20.8574 392.229 21.034 392.264 21.2992C392.279 21.4013 392.283 21.5231 392.29 21.6453V21.7342C392.306 22.013 392.29 22.3387 392.271 22.6852C392.271 22.7465 392.264 22.8081 392.256 22.8694C392.256 22.9235 392.248 22.9708 392.245 23.0184C392.119 24.1464 391.989 23.6645 392.141 24.609V24.6155Z" fill="#FFF9D7"/>
<path d="M392.074 23.5339C392.074 23.5339 391.215 25.3284 392.8 25.3761C394.384 25.4234 397.56 24.6419 398.953 22.3242C398.953 22.3242 394.147 22.5894 392.074 23.5407V23.5339Z" fill="#FFF9D7"/>
<path d="M63.7243 52.1816C63.7243 52.1816 65.9189 52.2698 66.2552 52.2902C66.5912 52.3174 67.3321 52.8886 68.1208 53.6157C68.9095 54.3431 69.6504 55.6817 69.6229 55.8652C69.5954 56.049 69.6504 56.2461 69.3141 56.5858C68.9782 56.9255 68.5117 57.0276 68.5117 57.0276C68.5117 57.0276 68.2991 57.6393 67.7093 57.721C67.7093 57.721 67.4829 58.285 66.7969 58.2782C66.7969 58.2782 66.5637 58.8217 66.0632 58.7745C66.0632 58.7745 65.3223 58.2033 64.9863 58.0675C64.65 57.9317 63.3403 56.5177 62.1328 55.0633C62.1328 55.0633 60.5898 53.6361 63.7312 52.1884L63.7243 52.1816Z" fill="#FFF9D7"/>
<path d="M54.7279 120.683C54.7279 120.683 56.2781 123.428 57.197 123.986C58.3426 124.679 60.5716 126.901 61.3469 127.01C62.1218 127.112 64.9203 127.601 64.3783 129.165C63.9393 130.443 57.2726 130.259 56.5179 129.62C55.7635 128.975 53.5208 126.67 52.6085 126.725C51.703 126.779 52.0393 130.048 52.0393 130.048H51.0514C51.0514 130.048 50.7086 126.861 50.6673 126.317C50.544 124.699 51.7099 123.503 51.7648 122.579C51.8198 121.654 51.8675 120.961 51.8675 120.961L54.721 120.676L54.7279 120.683Z" fill="black"/>
<path d="M61.1214 126.929C61.1214 126.929 58.9268 127.683 57.2326 126.718C55.5384 125.753 52.294 124.292 51.1484 124.285C51.1484 124.285 51.7726 122.389 51.7863 122.178C51.8001 121.967 51.8688 120.968 51.8688 120.968L54.7085 120.52C54.7085 120.52 56.5466 123.197 57.3628 123.829C58.1721 124.461 60.2502 126.032 61.1282 126.942L61.1214 126.929Z" fill="#FFF9D7"/>
<path d="M31.5515 57.7275C31.5515 57.7275 28.7186 61.3089 27.7173 63.6742C26.716 66.0392 25.0494 71.232 25.2757 75.2488C25.4952 79.2653 26.8325 86.8102 26.4416 88.5158C26.0507 90.2218 25.6666 93.7495 25.2483 94.9592C24.8299 96.1689 23.1632 99.6958 22.9983 103.325C22.8338 106.962 24.1851 122.899 24.0752 124.388C23.9656 125.876 28.9313 124.966 28.9313 124.966C28.9313 124.966 29.055 110.597 29.6104 108.117C30.1662 105.636 30.8312 97.2152 31.332 96.6103C31.8329 96.0055 33.2388 89.6165 33.3281 88.5767C33.4171 87.5641 39.357 70.104 39.6933 67.1339C40.0292 64.1637 47.4712 57.7275 47.4712 57.7275C47.4712 57.7275 40.1731 54.9612 31.5584 57.7275H31.5515Z" fill="black"/>
<path d="M50.0104 121.474C48.9541 121.31 46.1281 105.202 46.4571 102.341C46.7934 99.4795 47.1225 93.3766 46.1762 90.8959C45.5589 89.2645 41.6835 80.9793 39.077 75.1611C38.7067 74.3388 38.3708 73.5713 38.0619 72.8711C37.232 70.9749 36.6903 69.6362 36.6766 69.3574C36.6216 68.2563 33.0001 49.2873 47.308 57.7283C47.308 57.7283 47.452 59.2304 47.6165 59.7812C47.781 60.3316 51.6152 74.3728 52.0061 79.7696C52.397 85.1659 53.3987 89.7403 53.5632 90.8959C53.7277 92.0511 53.3987 95.9045 53.0624 96.8967C52.7264 97.8889 55.2299 120.263 55.3944 120.814C55.5593 121.365 51.0529 121.643 49.9966 121.48L50.0104 121.474Z" fill="black"/>
<path d="M45.8237 29.25C45.8237 29.25 48.1558 29.8548 49.0613 31.9618C49.9664 34.0756 49.7538 36.9303 49.8293 37.9157C49.9118 38.8943 51.9556 48.4436 52.1751 48.722C52.3946 49.0008 56.1467 49.7146 58.3692 50.299C61.4899 51.1146 64.2469 52.0391 64.2469 52.0391L62.9986 56.0964C62.9986 56.0964 48.7181 53.1398 47.9569 51.7399C46.2834 48.6475 43.2447 38.5069 43.2447 38.5069C43.2447 38.5069 40.316 30.5074 45.8237 29.25Z" fill="black"/>
<path d="M41.7048 27.7526C41.7048 27.7526 44.4143 29.0167 45.3538 29.207C46.2936 29.3909 49.9427 34.0874 50.5806 35.807C51.2185 37.5198 50.5806 40.0958 49.2636 43.1132C47.9466 46.1311 49.188 47.1369 48.5913 50.1615C47.9878 53.1789 47.4663 59.5747 47.5763 61.2466C47.6858 62.9253 32.3632 63.2446 28.865 60.1863C28.865 60.1863 32.3766 54.9666 32.8293 54.2188C33.2821 53.4713 32.9049 49.4133 32.4865 48.3666C32.075 47.3199 29.1188 38.7291 29.1188 38.7291C29.1188 38.7291 27.3834 32.0486 29.4204 30.4852C31.1901 29.1261 35.6897 28.222 36.554 27.93C37.4182 27.6308 39.9354 27.5014 41.7048 27.7594V27.7526Z" fill="#F79752"/>
<path d="M42.5753 33.7358L44.2214 31.8263L42.7875 26.7969C42.7875 26.7969 42.3077 29.5968 42.5753 33.7358Z" fill="#999999"/>
<path d="M43.0032 24.6617C43.0032 24.6617 42.4615 29.583 42.5779 31.1868C42.5779 31.1868 39.7657 33.9803 36.5625 27.9243C36.5625 27.9243 37.907 25.43 36.8919 22.0248C35.8769 18.6269 43.0032 24.6553 43.0032 24.6553V24.6617Z" fill="#FFF9D7"/>
<path d="M42.5657 31.1875L42.5725 33.7363L39.3281 31.3437L42.5657 31.1875Z" fill="#FFF9D7"/>
<path d="M42.5747 33.7361L41.2233 32.0914L36.6963 27.6191L35.2285 29.0123L42.5747 33.7361Z" fill="#999999"/>
<path d="M37.3661 63.6607C36.0904 69.7096 26.8652 62.981 26.8652 62.981C26.8652 62.981 32.846 53.0174 30.4658 45.0587C30.4456 44.9974 30.425 44.9293 30.4112 44.8684C30.2601 44.3653 30.1093 43.8826 29.9585 43.434C27.7704 36.8484 25.8086 35.3122 25.8086 35.3122C25.8086 35.3122 28.5796 29.2702 31.1518 28.876C33.724 28.4819 36.0629 28.0469 36.0629 28.0469C36.0629 28.0469 39.8627 33.7625 40.0478 36.2776C40.233 38.7923 38.6419 57.6118 37.3661 63.6607Z" fill="black"/>
<path d="M50.9609 36.9628C50.9609 36.9628 51.2488 40.4288 48.8415 44.9892C48.8415 44.9892 48.8892 51.0857 48.9717 53.2131C49.0473 55.3405 49.5546 63.3673 49.5546 63.3673L46.9141 64.9034C46.3789 65.2091 45.7204 64.7809 45.796 64.176C46.5434 58.0591 48.9717 34.8694 43.7109 28.6367L45.8235 29.2552C45.8235 29.2552 50.9609 34.5362 50.9609 36.9628Z" fill="black"/>
<path d="M44.2094 31.825L46.2876 32.3958L42.7832 26.8027L44.2094 31.825Z" fill="#F79752"/>
<path d="M41.2182 32.0914L39.3252 34.552L35.457 28.1559L36.6916 27.6191L41.2182 32.0914Z" fill="#F79752"/>
<path d="M41.0387 8.77144C43.0211 8.58117 47.4726 9.36267 48.4052 14.5483C48.4052 14.5483 48.3162 15.9619 48.0211 17.0835C47.7264 18.205 48.8854 21.4127 48.6315 21.5898C48.378 21.7596 47.308 22.018 47.308 22.018C47.308 22.018 46.3201 25.6334 45.0581 25.6607C43.796 25.6879 38.9743 24.9405 36.5117 20.6176C34.0495 16.2952 33.0344 9.53251 41.0319 8.77144H41.0387Z" fill="#FFF9D7"/>
<path d="M48.3964 14.5474C48.3964 14.5474 45.2753 16.8787 42.0996 17.4699C38.9239 18.0611 37.2023 23.5392 37.2023 23.5392C37.2023 23.5392 31.8732 15.6009 35.5631 10.517C39.2534 5.43305 48.801 8.43725 48.3964 14.5474Z" fill="black"/>
<path d="M40.7612 17.3828C40.7131 16.7711 39.979 15.8807 39.0048 16.7643C38.031 17.6475 39.5335 20.5023 40.3566 20.1827C41.1727 19.8566 40.8093 18.0148 40.7612 17.3828Z" fill="#FFF9D7"/>
<path d="M37.7871 16.282C38.7613 18.4771 38.1711 20.8632 36.4701 21.6039C34.7691 22.3449 32.6019 21.162 31.6278 18.9666C30.6539 16.7711 31.2437 14.3858 32.9448 13.6448C34.6458 12.9041 36.8133 14.0866 37.794 16.282H37.7871Z" fill="black"/>
<path d="M284.532 2.92501L276.589 1.57422L268.025 51.0095L275.968 52.3603L284.532 2.92501Z" fill="#EBEBEA"/>
<path d="M549.705 47.2385V49.8482C545.307 53.267 538.772 54.1502 529.912 52.5324C527.178 52.0297 524.346 51.3299 521.46 50.4735C520.265 50.1202 519.051 49.7396 517.837 49.3387C517.494 49.2229 517.154 49.1144 516.81 48.9986C516.726 48.9714 516.638 48.9441 516.562 48.9173C515.944 48.7066 515.329 48.4891 514.711 48.2716C513.436 47.823 512.145 47.3539 510.855 46.8712C506.893 45.3896 502.884 43.7789 498.93 42.1682C498.865 42.141 498.804 42.1206 498.75 42.0933C498.552 42.0116 498.338 41.9235 498.139 41.8486C498.029 41.8009 497.926 41.7605 497.819 41.7128C497.674 41.6583 497.544 41.5971 497.399 41.5498C497.116 41.4272 496.838 41.3187 496.563 41.2029H496.536C496.204 41.0671 495.876 40.9381 495.555 40.8088C493.604 40.0204 491.684 39.2458 489.814 38.5115C479.656 34.5424 470.868 31.7216 466.932 33.815C464.611 35.0523 463.268 36.5063 462.821 38.2528C462.183 40.7607 463.428 43.7789 465.272 46.9121C466.169 48.455 467.219 50.0317 468.261 51.595C468.322 51.6832 468.379 51.7649 468.432 51.8534C471.124 55.8971 473.62 59.7032 473.907 63.2241C474.105 65.6639 473.078 66.8868 472.17 67.4781C471.28 68.0693 470.085 68.3076 468.749 68.3076C463.26 68.3076 455.175 64.2776 453.877 63.6114C439.531 58.1943 426.663 55.3263 415.638 55.0883H415.531C414.214 55.0611 412.973 55.0747 411.798 55.1292C410.996 55.1564 410.229 55.2041 409.496 55.265C402.983 55.8021 399.006 57.3855 396.784 58.6497C396.44 58.84 396.139 59.0371 395.879 59.2073C394.68 60.0092 393.184 60.7635 391.489 61.4092C391.264 61.5045 391.023 61.5858 390.783 61.6675C386.515 63.1628 381.112 63.9167 375.858 62.8837C375.59 62.836 375.323 62.7755 375.048 62.7142C374.946 62.6938 374.849 62.6665 374.747 62.6325C374.246 62.5171 373.745 62.3813 373.258 62.2179C372.95 62.123 372.648 62.0208 372.353 61.9055C372.298 61.8918 372.243 61.8714 372.188 61.8442C372.12 61.8237 372.058 61.7965 372.003 61.7761C371.866 61.7152 371.736 61.6603 371.598 61.6059C371.29 61.4837 370.988 61.3547 370.693 61.2053C367.092 59.5061 364.177 56.8284 362.14 53.3078C356.735 43.9351 348.12 41.2982 344.279 40.564C343.079 40.3465 320.543 35.6877 320.516 35.6877L320.564 34.6951L320.605 33.7574L342.53 38.3689C342.825 38.3894 343.559 38.4503 344.615 38.6405C348.799 39.3952 357.963 42.1682 363.834 52.3357C365.727 55.6118 368.354 58.0244 371.681 59.5401C371.701 59.5538 371.729 59.567 371.756 59.5738C372.325 59.8322 372.922 60.0633 373.539 60.2672C374.17 60.4847 374.822 60.6753 375.501 60.8247C375.81 60.8996 376.118 60.9605 376.427 61.015C381.537 61.9667 386.763 61.1372 390.756 59.6082C392.314 59.017 393.684 58.3168 394.795 57.5758C398.124 55.3467 403.247 53.7088 410.103 53.2397C410.477 53.2125 410.847 53.1921 411.229 53.1785C412.588 53.1107 414 53.0903 415.497 53.1176C425.598 53.3078 438.672 55.7609 454.625 61.7961L454.736 61.8442C459.599 64.3453 468.337 67.6483 471.089 65.8406C471.341 65.6707 472.109 65.1676 471.96 63.3531C471.712 60.3012 469.2 56.5015 466.753 52.8112C466.703 52.7499 466.665 52.6825 466.623 52.6281C465.589 51.0715 464.539 49.5013 463.619 47.9311C461.538 44.4038 460.114 40.9177 460.916 37.7437C461.5 35.4669 463.206 33.5638 465.997 32.0821C470.784 29.5334 480.182 32.5917 491.478 37.0571C492.955 37.6347 494.448 38.2392 495.979 38.8576C496.376 39.0211 496.773 39.1777 497.174 39.3475C497.624 39.5242 498.078 39.714 498.536 39.8979C498.559 39.8979 498.571 39.9115 498.594 39.9183C498.613 39.9183 498.632 39.9384 498.655 39.9452C498.697 39.9588 498.727 39.9796 498.769 39.9932C499.01 40.0953 499.258 40.1903 499.506 40.2924C499.621 40.3329 499.731 40.3802 499.846 40.4278C505.018 42.528 510.336 44.6693 515.528 46.4907C515.864 46.6133 516.207 46.7214 516.543 46.8436C516.684 46.8913 516.818 46.9393 516.959 46.987C517.043 47.0142 517.123 47.0479 517.207 47.0751C517.516 47.1841 517.826 47.279 518.135 47.3879C519.265 47.7617 520.376 48.115 521.487 48.4482C533.324 52.03 543.887 53.1312 549.697 47.2113L549.705 47.2385Z" fill="black"/>
<path d="M415.031 57.6716C415.031 57.6716 415.336 57.1958 415.371 56.9174C415.371 56.9174 415.394 56.4143 415.428 56.0542C415.439 55.9384 415.455 55.8435 415.47 55.7754C415.531 55.5102 415.749 54.953 415.722 54.2801C415.695 53.6072 414.825 50.7392 414.825 50.7392L413.122 50.7664L411.53 50.5625C411.53 50.5625 409.53 54.1784 409.48 54.8036V54.9803C409.496 55.517 409.729 55.9112 409.767 56.19C409.782 56.2921 410.003 57.3115 410.274 57.4541C410.66 57.6512 411.011 57.6376 411.271 57.495C411.271 57.495 412.038 57.8551 412.595 57.7193C412.595 57.7193 413.294 58.0726 413.939 57.7057C413.939 57.7057 414.687 57.9841 415.035 57.658L415.031 57.6716Z" fill="#FFF9D7"/>
<path d="M402.14 24.247C401.484 25.1647 403.121 27.7951 404.832 29.6846C406.317 31.3293 407.847 32.5863 408.657 33.0485C409.466 33.5108 415.024 36.3723 415.181 37.1474C415.379 38.1328 414.089 42.6251 414.043 43.0465C413.917 44.1544 411.264 50.6584 411.264 50.6584L415.734 52.8402C415.734 52.8402 421.033 39.9946 420.975 38.275C420.941 37.1402 421.078 35.1759 418.883 33.2116C416.654 31.2135 411.852 26.2794 411.34 25.9738C410.825 25.6678 405.065 20.1625 402.133 24.2406L402.14 24.247Z" fill="#F79752"/>
<path d="M521.53 47.2325C521.412 49.3936 521.763 53.4036 520.213 53.5602C519.724 53.6075 518.552 53.4172 517.022 53.0843C516.942 53.0639 516.865 53.0503 516.777 53.0299C516.445 52.955 516.098 52.8736 515.739 52.7919C515.667 52.7715 515.59 52.7579 515.514 52.7375C509.998 51.4328 501.844 49.0403 501.844 49.0403L504.936 45.3567C504.936 45.3567 513.326 47.5722 516.651 48.1498C516.709 48.1566 516.754 48.1703 516.804 48.1771C516.781 48.0549 516.754 47.9323 516.735 47.8102C516.686 47.5586 516.64 47.3002 516.59 47.0491C516.014 44.1671 515.357 41.6523 515.357 41.6523C515.357 41.6523 510.616 30.1527 516.377 31.0499C516.377 31.0499 519.362 32.6606 520.007 36.3373C520.652 40.0144 521.645 45.0575 521.53 47.2189V47.2325Z" fill="#F79752"/>
<path d="M495.625 126.624C495.625 126.624 493.136 126.38 492.491 126.237C491.846 126.094 491.441 125.319 490.983 125.734C490.525 126.149 488.837 128.82 487.582 129.227C486.299 129.635 482.512 130.328 482.417 132.395C482.321 134.461 494.564 133.047 495.797 133.38C497.033 133.713 495.632 126.624 495.632 126.624H495.625Z" fill="black"/>
<path d="M512.527 125.087C512.527 125.087 510.038 124.843 509.393 124.7C508.748 124.557 508.343 123.782 507.877 124.197C507.419 124.611 505.732 127.283 504.476 127.691C503.193 128.098 499.407 128.791 499.311 130.858C499.216 132.924 511.458 131.51 512.691 131.843C513.928 132.176 512.527 125.087 512.527 125.087Z" fill="black"/>
<path d="M506.045 24.2271C506.045 24.2271 507.461 27.8362 506.362 30.6225C506.362 30.6225 511.546 30.2964 511.74 29.712C511.939 29.1276 511.534 23.724 512.248 22.127C512.962 20.5296 506.045 24.2271 506.045 24.2271Z" fill="#FFF9D7"/>
<path d="M505.542 29.3991C505.542 29.3991 502.477 30.4526 501.099 30.7446C499.713 31.037 496.819 32.3625 497.052 37.3378C497.285 42.3196 498.148 46.6352 498.465 48.7759C498.782 50.9168 498.583 56.3609 498.075 59.0118C498.075 59.0118 505.42 60.7991 514.055 59.0118C514.055 59.0118 512.524 54.4987 512.559 53.3298C512.601 52.1606 517.662 42.5503 517.903 41.0346C518.136 39.5189 519.159 32.8243 516.842 31.3427C514.521 29.861 512.635 30.0581 511.654 29.3991C510.673 28.7398 506.97 28.9233 505.538 29.3991H505.542Z" fill="#F79752"/>
<path d="M498.069 59.0108C498.069 59.0108 496.733 62.1376 496.615 62.9259C496.5 63.7142 492.317 74.045 492.019 77.0629C491.725 80.1143 490.839 88.2701 490.53 89.4394C490.225 90.6082 491.236 95.8211 491.397 96.9903C491.553 98.1592 491.477 117.223 490.057 126.644C490.057 126.644 495.08 127.915 497.596 126.514C497.596 126.514 500.039 111.936 499.799 103.454C499.566 94.9715 499.173 91.6549 500.497 88.2293C501.829 84.8041 508.907 74.2694 509.689 73.1818C510.472 72.0943 515.396 66.0727 510.739 59.548C506.082 53.0232 498.069 59.0176 498.069 59.0176V59.0108Z" fill="black"/>
<path d="M514.153 86.8706C513.745 89.596 514.176 93.171 515.039 103.135C515.905 113.099 514.504 125.169 514.504 125.169C511.523 126.182 507.11 125.163 507.11 125.163C507.186 124.462 507.11 100.878 507.11 98.7781C507.11 96.6779 506.499 94.2926 506.343 91.8796C506.232 90.2349 505.465 87.2039 504.594 84.1112C504.335 83.1871 504.064 82.2558 503.804 81.3517C503.659 80.8422 503.518 80.3459 503.373 79.87C502.151 75.6698 500.506 59.4395 500.506 59.4395C500.506 59.4395 509.828 52.0383 514.058 59.0116C518.249 65.9305 516.218 70.8374 516.062 71.6938C515.905 72.5502 514.565 84.1452 514.153 86.8706Z" fill="black"/>
<path d="M497.364 46.2684C497.364 46.2684 498.261 59.5625 495.314 66.624C495.314 66.624 504.018 69.3423 516.57 66.1346C516.57 66.1346 515.062 56.9797 515.279 55.6342C515.493 54.2884 519.738 38.6293 518.291 34.9862C516.845 31.3431 498.811 34.7755 497.364 46.2684Z" fill="#F79752"/>
<path d="M508.947 10.0227C506.759 9.77795 501.09 10.2198 501.526 18.6612C501.957 27.1026 505.057 26.5995 508.164 25.7022C511.264 24.805 514.955 18.267 514.955 16.5202C514.955 14.7733 515.188 10.7229 508.947 10.0227Z" fill="#FFF9D7"/>
<path d="M501.844 14.7928C501.844 14.7928 504.306 17.9056 506.791 18.6534C506.791 18.6534 508.696 22.031 512.029 22.8942C512.029 22.8942 519.129 16.1655 513.162 11.1089C507.196 6.05221 501.809 12.21 501.851 14.7928H501.844Z" fill="black"/>
<path d="M506.323 17.4916C506.403 17.0297 507.437 16.0916 508.235 17.1451C509.029 18.1986 507.575 20.6452 507.029 20.6452C506.479 20.6452 506.006 19.2452 506.323 17.4916Z" fill="#FFF9D7"/>
<path d="M514.152 12.6312C514.332 12.3664 519.711 9.96027 520.829 14.9829C521.947 20.0055 516.492 25.8373 515.538 28.3524C514.588 30.8603 515.973 36.7457 515.973 36.7457C515.973 36.7457 512.694 33.7551 511.698 30.622C510.61 27.1828 510.243 18.517 514.152 12.6312Z" fill="black"/>
<path d="M514.419 12.4624C514.419 12.4624 512.774 13.7198 512.56 15.7045C512.56 15.7045 512.255 14.1548 512.919 13.2099C513.583 12.2653 514.419 12.4624 514.419 12.4624Z" fill="#F79752"/>
<path d="M466.081 46.5121C466.081 46.5121 465.093 47.0156 464.577 47.2467C464.058 47.4775 463.497 47.838 463.535 48.3138C463.577 48.7961 463.394 50.0603 463.428 50.7809C463.463 51.5011 466.608 53.0168 467.253 52.9355C467.891 52.8538 469.689 50.3731 469.49 49.2447C469.292 48.1232 468.956 46.4648 468.956 46.4648L466.089 46.5121H466.081Z" fill="#FFF9D7"/>
<path d="M504.199 31.4987C504.199 31.4987 501.714 28.7937 495.541 33.7483C491.022 37.3777 488.567 39.6886 487.735 40.0963C486.906 40.5109 483.875 42.2101 481.551 42.6042C479.23 43.0052 468.621 46.4985 468.621 46.4985L469.285 49.9037C469.285 49.9037 483.005 47.9261 484.677 47.2395C486.349 46.5598 497.072 41.1021 498.759 39.9061C500.084 38.968 506.784 34.6183 504.199 31.4987Z" fill="#F79752"/>
<path d="M489.388 44.84C489.388 44.84 487.586 43.44 486.949 40.5039C486.949 40.5039 483.108 42.4611 481.555 42.604C480.005 42.7467 468.629 46.4983 468.629 46.4983L469.182 49.9447C469.182 49.9447 482.707 48.1979 484.685 47.2329C486.658 46.2744 489.396 44.8332 489.396 44.8332L489.388 44.84Z" fill="#FFF9D7"/>
<path d="M93.4043 124.551C93.4043 124.551 92.4576 126.304 91.8335 127.005C91.2158 127.704 88.836 128.949 88.8223 131.015C88.8086 133.257 92.8283 132.639 94.3987 132.557C95.9696 132.476 96.0929 131.279 96.7514 130.009C97.4099 128.738 98.0818 128.955 98.2051 127.929C98.3287 126.902 97.5676 124.558 97.5676 124.558H93.4043V124.551Z" fill="black"/>
<path d="M117.334 124.346C117.334 124.346 119.268 126.487 121.237 126.936C123.205 127.384 124.577 127.956 124.591 129.186C124.605 130.416 118.932 131.225 116.683 129.988C113.322 128.139 112.985 128.696 112.608 127.772C112.238 126.848 113.054 124.374 113.033 124.081C113.006 123.714 117.334 124.346 117.334 124.346Z" fill="black"/>
<path d="M117.114 123.32C117.114 123.32 117.367 124.326 117.333 124.346C117.292 124.366 112.902 124.883 113.032 124.081C113.142 123.429 113.293 122.715 113.293 122.715L117.114 123.32Z" fill="#FFF9D7"/>
<path d="M97.5126 123.871C97.5126 123.871 97.6978 124.829 97.6634 124.849C97.629 124.87 93.2051 125.652 93.2325 124.856C93.2532 124.224 93.6372 123.49 93.6372 123.49L97.5126 123.864V123.871Z" fill="#FFF9D7"/>
<path d="M113.124 63.2194C113.124 63.2194 114.722 78.5929 115.552 83.8603C116.526 90.0181 116.855 95.102 117.123 98.2829C117.466 102.293 117.528 121.996 117.768 123.172C118.008 124.341 112.473 123.499 112.473 123.499C112.473 123.499 109.75 97.7457 108.734 93.4777C107.788 89.5014 104.283 72.395 103.419 73.4825C102.554 74.5697 101.484 93.4441 100.846 96.5773C100.209 99.7104 98.2678 124.246 98.2678 124.246C98.2678 124.246 93.8641 125.116 92.6914 124.13C92.6914 124.13 92.1562 102.986 92.5681 97.1136C92.7257 94.8777 89.9203 70.2677 93.5144 60.3582C95.4143 55.1249 113.117 63.213 113.117 63.213L113.124 63.2194Z" fill="black"/>
<path d="M98.781 59.8075C98.781 59.8075 99.851 58.21 100.976 58.0062C102.107 57.8023 85.4266 49.8095 85.4678 46.9551C85.5022 44.6374 91.4764 40.7973 91.4764 40.7973V40.8109V40.8177C91.5997 41.2731 93.3282 47.6212 93.39 50.6659C93.4515 53.8263 93.1976 64.7143 93.1976 64.7143L97.4708 65.8495L111.127 65.9785L114.241 64.7143C114.241 64.7143 113.898 61.2142 113.775 58.7608C113.699 57.1974 113.391 54.4039 113.466 51.6785C113.466 51.6785 113.418 48.8037 113.706 47.5736C113.734 42.1159 114.07 36.7128 114.07 36.7128C114.255 34.2385 114.385 31.9277 114.454 29.7666C113.85 29.4538 113.13 29.0801 112.547 28.8081C110.75 27.9585 108.253 26.8237 106.648 26.0895C105.708 25.6613 104.79 25.3489 104.79 25.3489C104.79 25.3489 98.3763 24.7372 97.8617 24.7709C97.6972 24.7777 96.8948 25.0565 95.8454 25.4574C93.5752 26.3138 89.1921 28.0539 88.4927 28.5498C87.4704 29.2772 80.7694 46.8393 80.6732 48.0494C80.4949 50.2241 98.7741 59.8143 98.7741 59.8143L98.781 59.8075Z" fill="#141414"/>
<path d="M113.84 63.5664C113.84 63.5664 104.458 64.3547 96.2402 63.5664V66.2373C96.2402 66.2373 108.477 67.393 114.252 65.7274L113.84 63.5664Z" fill="black"/>
<path d="M105.844 25.7344C105.844 25.7344 107.367 29.2889 108.512 37.2273C108.951 40.2791 109.767 45.4103 110.357 50.6504C110.823 54.783 111.893 59.0241 112.229 62.1842C112.579 65.4603 113.635 75.1114 113.635 75.1114L116.201 73.5076C116.564 73.1743 117.079 72.7325 116.934 72.2639C116.228 70.0071 114.877 62.5447 114.081 56.0404V56.0267C114.047 55.7139 114.006 55.4015 113.971 55.0954V55.0478C113.821 53.75 113.697 52.4994 113.608 51.3574C113.539 50.4806 113.608 49.6242 113.725 48.7882C114.081 42.9501 114.26 36.7922 114.26 36.7922C114.445 34.2707 114.555 31.919 114.63 29.724C114.63 29.724 106.577 25.9519 105.851 25.7412L105.844 25.7344Z" fill="black"/>
<path d="M87.3796 46.1535C86.2684 48.5729 97.5927 52.8821 97.332 53.4733C96.7216 54.9005 94.2177 57.8162 94.2177 57.8162C94.2177 57.8162 79.3066 50.51 79.478 48.8517C79.6013 47.642 86.5837 29.4069 87.606 28.6863C88.1958 28.2649 92.5786 26.7287 94.7255 25.886C95.1164 25.7297 96.4608 25.2335 96.8105 25.0977C97.2633 25.6007 100.411 29.0328 101.516 42.0145C101.701 44.2028 101.111 48.8313 100.72 52.6169C100.302 56.6474 99.8354 59.801 99.4926 63.1721C98.8204 69.819 98.347 75.1068 98.347 75.1068L91.6731 72.1639C90.5966 71.6271 88.7237 70.2336 89.1284 69.1056C90.6718 64.8236 92.9901 56.7019 92.9901 52.9502C92.9901 52.9502 91.8994 42.5785 91.3097 40.5597C91.3097 40.5597 88.6211 43.4553 87.3728 46.1535H87.3796Z" fill="black"/>
<path d="M98.4689 25.451C98.4689 25.451 98.428 23.2695 97.5775 18.8586C97.3512 17.6761 104.498 21.9649 104.498 21.9649C104.498 21.9649 104.477 22.3795 104.463 22.9366C104.456 23.2291 104.45 23.5687 104.45 23.9016V24.2553C104.45 24.5677 104.47 24.8669 104.498 25.1185C104.525 25.3765 104.683 25.8387 104.738 25.9681C105.033 26.6406 100.877 27.1505 98.4689 25.4446V25.451Z" fill="#FFF9D7"/>
<path d="M102.926 27.7344L104.113 29.3114C104.113 29.3114 103.42 30.2355 102.186 29.5561L102.926 27.7344Z" fill="#F79752"/>
<path d="M103.79 29.3729C103.79 29.3729 108.283 46.5137 107.357 59.8555L105.848 62.4924L104.435 59.7262C104.435 59.7262 104.051 35.8636 102.816 29.332L103.797 29.3729H103.79Z" fill="#F79752"/>
<path d="M104.193 26.2587L102.924 27.7267C102.924 27.7267 100.887 27.3394 100.291 26.2859C99.6942 25.2325 104.193 26.2587 104.193 26.2587Z" fill="#FFF9D7"/>
<path d="M104.485 24.9746C104.485 24.9746 104.341 26.0965 102.928 27.7344L104.471 29.7869L105.307 25.5326L104.491 24.9818L104.485 24.9746Z" fill="black"/>
<path d="M98.3324 23.7305C98.3324 23.7305 100.87 26.9246 102.928 27.7333L101.968 30.0785L97.5918 24.8384L98.3255 23.7305H98.3324Z" fill="black"/>
<path d="M106.925 63.707H102.535V67.0036H106.925V63.707Z" fill="#999999"/>
<path d="M108.256 11.1096C108.256 11.1096 109.826 13.9913 109.044 14.4399C108.4 14.8068 109.799 17.6412 109.977 18.103C110.163 18.5653 108.812 18.8985 108.53 19.1974C108.242 19.4966 107.399 23.1597 106.288 23.2686C105.176 23.3772 100.176 21.6576 98.8177 20.2508C97.4598 18.8509 96.3421 12.5164 97.2476 9.83866C98.1527 7.16734 105.485 6.06658 108.256 11.1028V11.1096Z" fill="#FFF9D7"/>
<path d="M108.57 11.7354C108.57 11.7354 110.174 8.62227 107.259 6.31144C104.351 4.00061 98.9807 8.05828 98.3771 8.20769C97.7736 8.36429 94.3372 8.59504 96.0726 14.5694C97.561 19.6941 97.7667 19.9116 97.7667 19.9116C97.7667 19.9116 98.878 16.9415 99.509 16.4861C100.49 15.7791 102.65 15.9489 102.65 15.9489C102.65 15.9489 101.622 13.2507 103.226 12.8634C104.832 12.4829 106.944 11.1302 108.57 11.7286V11.7354Z" fill="black"/>
<path d="M100.935 14.3982C100.791 14.0245 100.338 12.4339 98.9597 13.372C97.5809 14.3097 99.8167 17.3071 100.057 17.3479C100.297 17.3888 102.129 17.5178 100.935 14.3982Z" fill="#FFF9D7"/>
<path d="M132.238 57.4487C132.238 57.4487 134.2 58.9848 134.495 59.2296C134.789 59.4739 135.078 60.4869 135.318 61.683C135.558 62.8791 135.332 64.5987 135.181 64.7481C135.03 64.8979 134.947 65.1154 134.412 65.2035C133.877 65.2921 133.37 65.0814 133.37 65.0814C133.37 65.0814 132.759 65.5031 132.163 65.1903C132.163 65.1903 131.573 65.5569 130.949 65.095C130.949 65.095 130.365 65.4415 129.94 65.0609C129.94 65.0609 129.646 64.0419 129.426 63.695C129.207 63.3485 128.96 61.1731 128.829 59.0325C128.829 59.0325 128.37 56.6944 132.252 57.4487H132.238Z" fill="#FFF9D7"/>
<path d="M128.5 59.8603C128.5 59.8603 123.493 52.2756 121.483 50.4267C120.591 49.6043 118.966 47.1849 117.484 45.2819C116.997 44.6566 116.517 43.9973 116.057 43.3447C114.24 40.7415 112.813 38.2472 112.813 38.2472C112.813 38.2472 107.436 32.0013 111.75 29.2214C111.75 29.2214 113.602 29.1805 114.61 29.7245C115.653 30.2885 117.875 34.8829 118.252 35.6985C118.63 36.5144 122.718 44.079 122.992 44.2488C123.266 44.4186 124.419 46.4507 125.681 47.7966C127.697 49.9512 133.486 57.8146 133.486 57.8146L128.5 59.8603Z" fill="black"/>
<path d="M245.846 20.3793L245.331 22.3504C245.03 22.2755 215.056 14.7246 205.35 23.4788C202.84 25.742 201.948 28.8615 202.621 33.021C203.478 38.3224 201.468 43.3382 196.653 47.9394C182.867 61.1114 147.783 68.1593 121.582 63.0209C109.956 60.7441 103.426 57.4003 98.1726 54.7157C88.5493 49.788 84.1597 47.5453 60.1533 60.221C52.6704 64.1765 44.3436 66.1477 35.4132 66.1477C25.8243 66.1477 15.5291 63.8705 4.81525 59.3169C3.15545 58.61 1.55024 57.8761 0 57.1219V54.8447C1.81058 55.7487 3.71126 56.6256 5.67951 57.4615C19.6649 63.4018 40.3036 68.3904 59.1795 58.4265C84.146 45.2412 89.146 47.8036 99.1189 52.9012C104.256 55.5312 110.642 58.8006 121.98 61.0229C147.626 66.0524 181.851 59.2489 195.226 46.4714C199.527 42.3596 201.331 37.9486 200.59 33.3474C199.808 28.5219 200.947 24.6953 203.965 21.9699C214.494 12.475 244.57 20.0464 245.846 20.3793Z" fill="black"/>
<path d="M99.594 60.0032C99.594 60.0032 99.045 59.9828 98.8118 59.8538C98.8118 59.8538 98.4071 59.5954 98.1056 59.4256C98.0094 59.3711 97.9269 59.3303 97.8654 59.303C97.6253 59.2081 97.0695 59.0715 96.5553 58.6842C96.0407 58.2968 94.3672 56.7474 94.3672 56.7474L95.4509 55.0959L95.9518 53.4648C95.9518 53.4648 99.8543 53.8522 100.376 54.1582C100.424 54.1854 100.478 54.2191 100.52 54.2532C100.938 54.5524 101.116 54.9533 101.315 55.1368C101.391 55.2049 102.07 55.9251 102.029 56.2175C101.974 56.6253 101.775 56.8836 101.521 57.0058C101.521 57.0058 101.384 57.7941 100.972 58.1478C100.972 58.1478 100.87 58.8816 100.232 59.174C100.232 59.174 100.039 59.9079 99.6008 59.9964L99.594 60.0032Z" fill="#FFF9D7"/>
<path d="M94.2289 57.8148C94.2289 57.8148 96.4025 56.0483 97.5756 53.4723L90.5245 51.4062L88.4395 54.8451L94.2289 57.8148Z" fill="black"/>
<path d="M135.136 64.4355C135.136 64.4355 134.464 61.4173 133.964 61.4649C133.463 61.5126 133.305 61.8318 133.305 61.8318L132.462 60.7103C132.462 60.7103 131.48 60.2821 131.295 61.4649C131.295 61.4649 130.424 60.969 130.383 62.1382C130.383 62.1382 129.663 62.0698 129.547 62.5997C129.43 63.1369 129.944 65.0604 129.944 65.0604C129.944 65.0604 130.239 65.4205 130.952 65.0944C130.952 65.0944 131.522 65.5767 132.166 65.1893C132.166 65.1893 132.681 65.5022 133.374 65.0808C133.374 65.0808 134.581 65.6928 135.184 64.7479C135.184 64.7479 135.164 64.5576 135.136 64.4355Z" fill="#FFF9D7"/>
<path d="M134.53 59.3235C134.53 59.3235 133.988 61.3763 133.193 62.3617C133.014 62.586 132.795 62.7695 132.521 62.6878C132.246 62.6061 132.006 62.1034 132.198 61.2061C132.39 60.302 132.219 59.0587 132.219 59.0587C132.219 59.0587 132.685 58.1883 134.53 59.3167V59.3235Z" fill="#FFF9D7"/>
<path d="M169.696 62.9878C169.696 62.9878 169.215 62.7566 169.051 62.5528C169.051 62.5528 168.783 62.1586 168.578 61.8934C168.509 61.8117 168.454 61.7372 168.413 61.6964C168.234 61.5197 167.789 61.1796 167.473 60.6361C167.164 60.0921 166.438 57.3871 166.438 57.3871L167.795 56.5852L168.962 55.6543C168.962 55.6543 172.336 57.5505 172.679 58.026C172.713 58.0737 172.748 58.1214 172.768 58.169C173.022 58.5972 173.029 59.0254 173.139 59.2698C173.18 59.3583 173.509 60.2692 173.358 60.5203C173.152 60.8672 172.864 61.0234 172.59 61.037C172.59 61.037 172.158 61.6964 171.643 61.8526C171.643 61.8526 171.266 62.471 170.573 62.4915C170.573 62.4915 170.114 63.0759 169.682 62.9878H169.696Z" fill="#FFF9D7"/>
<path d="M161.248 25.5037C162.002 25.7957 162.805 27.6106 162.208 31.172C161.57 34.9917 160.294 36.6228 159.787 37.5133C159.272 38.4033 156.46 43.9086 156.968 44.6292C157.475 45.3495 162.249 50.0188 162.523 50.3993C162.798 50.7802 169.746 55.6531 169.746 55.6531L165.418 59.3234C165.418 59.3234 153.901 50.4129 153.003 49.5229C152.105 48.6324 149.423 46.7634 150.41 43.6571C151.419 40.497 153.236 33.1023 153.559 32.5243C153.881 31.9467 156.24 23.587 161.241 25.5037H161.248Z" fill="#F79752"/>
<path d="M202.271 37.1273C202.271 37.1273 199.912 37.9561 199.631 38.7308C199.342 39.5055 200.214 39.2547 200.214 39.2547C200.214 39.2547 199.349 39.4926 199.473 40.172C199.589 40.8585 200.591 40.512 200.591 40.512C200.591 40.512 199.987 40.8585 200.358 41.4838C200.735 42.1091 201.496 41.6397 201.496 41.6397C201.496 41.6397 200.92 42.5849 201.846 42.7139C203.403 42.9246 204.699 41.6605 204.699 41.6605C204.699 41.6605 204.981 41.3276 204.576 40.75C204.576 40.75 205.324 39.9817 204.329 39.2683C204.329 39.2683 204.542 38.0718 203.506 38.0582C203.506 38.0582 203.657 36.7736 202.278 37.1341L202.271 37.1273Z" fill="#FFF9D7"/>
<path d="M66.3251 52.3379C66.3251 52.3379 67.0111 54.0711 66.963 55.1791C66.9493 55.4302 66.8943 55.6682 66.6542 55.7567C66.4141 55.838 65.9888 55.6073 65.6529 54.873C65.3169 54.1392 64.5485 53.3369 64.5485 53.3369C64.5485 53.3369 64.4252 52.4805 66.3251 52.3379Z" fill="#FFF9D7"/>
<path d="M69.4187 55.6601C69.4187 55.6601 67.368 53.8591 67.0386 54.1512C66.7027 54.4436 66.7645 54.7496 66.7645 54.7496L65.5846 54.3891C65.5846 54.3891 64.6653 54.5862 65.1521 55.5243C65.1521 55.5243 64.2744 55.6192 64.8509 56.4688C64.8509 56.4688 64.3015 56.7884 64.5004 57.2303C64.6993 57.6721 66.0644 58.7728 66.0644 58.7728C66.0644 58.7728 66.4553 58.875 66.7981 58.2769C66.7981 58.2769 67.4566 58.3246 67.7105 57.7194C67.7105 57.7194 68.2392 57.6789 68.5133 57.0264C68.5133 57.0264 69.6928 56.8429 69.6241 55.864C69.6241 55.864 69.5146 55.7418 69.4252 55.6669L69.4187 55.6601Z" fill="#FFF9D7"/>
<path d="M33.3271 60.5625C33.3271 60.5625 35.9405 63.2607 36.1325 63.7978C36.1532 63.8523 36.1669 63.9064 36.1806 63.954C36.2971 64.4299 36.1806 64.8309 36.2215 65.0824C36.2352 65.1774 36.2833 66.1155 36.0776 66.3057C35.7894 66.5709 35.4809 66.6386 35.2202 66.5777C35.2202 66.5777 34.6304 67.0736 34.1089 67.0804C34.1089 67.0804 33.581 67.5563 32.9294 67.3864C32.9294 67.3864 32.3396 67.8078 31.962 67.6039C31.962 67.6039 31.578 67.2571 31.4822 67.0259C31.4822 67.0259 31.3448 66.5913 31.2283 66.2853C31.194 66.19 31.1528 66.1018 31.1253 66.0542C31.0088 65.8367 30.6867 65.4017 30.5492 64.8036C30.4122 64.2056 30.4874 61.4938 30.4874 61.4938L33.3271 60.5693V60.5625Z" fill="#FFF9D7"/>
<path d="M263.395 1.16748L279.092 3.83729L271.15 49.6825L255.454 47.0127C246.625 45.511 240.683 37.1838 242.199 28.4356L244.647 14.3013C246.163 5.55311 254.567 -0.334235 263.395 1.16748Z" fill="#EBEBEA"/>
<path d="M246.528 15.7942L242.39 15.0918L240.346 26.9081L244.483 27.6109L246.528 15.7942Z" fill="#999999"/>
</svg>
