<svg width="34" height="34" viewBox="0 0 34 34" fill="none" xmlns="http://www.w3.org/2000/svg">
<mask id="mask0_746_18010" style="mask-type:alpha" maskUnits="userSpaceOnUse" x="0" y="0" width="34" height="34">
<rect width="34" height="34" fill="#D9D9D9"/>
</mask>
<g mask="url(#mask0_746_18010)">
<path d="M16.9987 28.1701C16.4757 28.1701 16.0253 28.0179 15.6476 27.7135C15.2698 27.4094 15.0482 27.0185 14.9828 26.5409H14.1654C13.7857 26.5409 13.4547 26.3996 13.1723 26.117C12.8899 25.8346 12.7487 25.5035 12.7487 25.1239V20.8576C11.2829 20.0458 10.1491 18.9388 9.34728 17.5366C8.54545 16.1345 8.14453 14.6571 8.14453 13.1042C8.14453 10.6285 9.00138 8.534 10.7151 6.82054C12.4285 5.10685 14.5231 4.25 16.9987 4.25C19.4743 4.25 21.5689 5.10685 23.2823 6.82054C24.996 8.534 25.8529 10.6285 25.8529 13.1042C25.8529 14.6679 25.4519 16.1481 24.6501 17.5447C23.8483 18.9415 22.7145 20.0458 21.2487 20.8576V25.1239C21.2487 25.5035 21.1075 25.8346 20.8251 26.117C20.5427 26.3996 20.2117 26.5409 19.832 26.5409H19.0146C18.9492 27.0185 18.7276 27.4094 18.3498 27.7135C17.9721 28.0179 17.5217 28.1701 16.9987 28.1701ZM14.1654 25.1239H19.832V23.7401H14.1654V25.1239ZM14.1654 22.6504H19.832V21.25H14.1654V22.6504ZM13.882 19.8333H16.3722V15.4091L13.4188 12.4557L14.307 11.5678L16.9987 14.2595L19.6904 11.5678L20.5786 12.4557L17.6252 15.4091V19.8333H20.1154C21.3904 19.2194 22.4293 18.3163 23.232 17.124C24.0348 15.9316 24.4362 14.5917 24.4362 13.1042C24.4362 11.0264 23.7161 9.26736 22.2758 7.82708C20.8355 6.38681 19.0765 5.66667 16.9987 5.66667C14.9209 5.66667 13.1619 6.38681 11.7216 7.82708C10.2813 9.26736 9.5612 11.0264 9.5612 13.1042C9.5612 14.5917 9.96259 15.9316 10.7654 17.124C11.5681 18.3163 12.607 19.2194 13.882 19.8333Z" fill="#1C1B1F"/>
</g>
</svg>
