<svg width="64" height="64" viewBox="0 0 64 64" fill="none" xmlns="http://www.w3.org/2000/svg">
<rect width="64" height="64" rx="16" fill="black"/>
<rect x="5.39062" y="5" width="54" height="54" rx="8" fill="white" fill-opacity="0.01"/>
<path d="M32.6483 15.8047L23.3721 16.9094L16.1914 27.0222L32.6486 48.7185L49.1045 27.0222L41.9238 16.9094L32.6483 15.8047Z" fill="#FDB300"/>
<path d="M16.1914 27.0234L32.6486 48.7205L22.8571 27.0234H16.1914Z" fill="#EA6C00"/>
<path d="M42.4386 27.0234L32.6484 48.7205L49.1044 27.0234H42.4386Z" fill="#EA6C00"/>
<path d="M23.3704 16.9094L22.8555 27.0222L32.6466 15.8047L23.3704 16.9094Z" fill="#FDD231"/>
<path d="M42.4389 27.0222L41.9239 16.9094L32.6484 15.8047L42.4389 27.0222Z" fill="#FDD231"/>
<path d="M42.4407 27.019H49.1065L41.9258 16.9062L42.4407 27.019Z" fill="#FDAD00"/>
<path d="M16.1914 27.019H22.8571L23.3721 16.9062L16.1914 27.019Z" fill="#FDAD00"/>
<path d="M32.6466 15.8047L22.8555 27.0222H42.4371L32.6466 15.8047Z" fill="#FEEEB7"/>
<path d="M22.8555 27.0234L32.6469 48.7205H32.6476L42.4378 27.0234H22.8555Z" fill="#FDAD00"/>
<path d="M32.6483 15.8047L23.3721 16.9094L16.1914 27.0222L32.6486 48.7185L49.1045 27.0222L41.9238 16.9094L32.6483 15.8047Z" fill="url(#paint0_linear_3373_11677)"/>
<defs>
<linearGradient id="paint0_linear_3373_11677" x1="17.9256" y1="22.9651" x2="45.7542" y2="34.8601" gradientUnits="userSpaceOnUse">
<stop stop-color="white" stop-opacity="0.2"/>
<stop offset="1" stop-color="white" stop-opacity="0"/>
</linearGradient>
</defs>
</svg>
