<svg width="64" height="64" viewBox="0 0 64 64" fill="none" xmlns="http://www.w3.org/2000/svg">
<rect width="64" height="64" rx="16" fill="black"/>
<rect x="5.14453" y="4.78125" width="54" height="54" rx="8" fill="white" fill-opacity="0.01"/>
<path d="M41.5407 15.5781H23.2642C19.2221 15.5781 15.9453 18.9552 15.9453 23.121V40.9495C15.9453 45.1153 19.2221 48.4924 23.2642 48.4924H41.5407C45.5828 48.4924 48.8596 45.1153 48.8596 40.9495V23.121C48.8596 18.9552 45.5828 15.5781 41.5407 15.5781Z" fill="#2C083D"/>
<path d="M41.5404 17.1484H23.2638C20.0633 17.1484 17.4688 19.8224 17.4688 23.1209V40.9494C17.4688 44.2479 20.0633 46.9218 23.2638 46.9218H41.5404C44.7409 46.9218 47.3354 44.2479 47.3354 40.9494V23.1209C47.3354 19.8224 44.7409 17.1484 41.5404 17.1484Z" fill="#2C083D"/>
<path d="M24.7812 25.0292C24.7812 24.9091 24.8003 24.8722 24.8971 24.8722C25.691 24.8525 27.2193 24.8125 28.6906 24.8125C32.5999 24.8125 33.9553 27.0465 33.9553 29.2208C33.9553 32.4527 31.5355 33.8285 28.555 33.8285H27.454V37.7546C27.454 37.8543 27.4152 37.9116 27.3016 37.9116H24.9169C24.8193 37.9116 24.7812 37.8519 24.7812 37.7546V25.0292ZM27.454 31.3723C27.7832 31.3919 27.9957 31.3919 28.5382 31.3919C30.0673 31.3919 31.2864 30.9129 31.2864 29.2773C31.2864 28.0209 30.4544 27.2231 28.7721 27.2231C28.1527 27.2231 27.6293 27.2428 27.4555 27.2632L27.454 31.3723Z" fill="#ED9EFB"/>
<path d="M37.6827 28.0002C37.7355 27.9956 37.7881 28.0113 37.8304 28.0444C37.8726 28.0775 37.9014 28.1255 37.9112 28.1792C38.0362 28.5386 38.1078 28.9153 38.1238 29.2966C38.5006 28.8322 38.9711 28.4582 39.5026 28.2005C40.0341 27.9428 40.6138 27.8077 41.2011 27.8047C41.3177 27.8047 41.3535 27.8439 41.3535 27.9617V30.4148C41.3535 30.5145 41.3147 30.5545 41.179 30.5545C39.7855 30.4949 38.6647 30.9338 38.2564 31.4128L38.2373 37.7558C38.2373 37.8752 38.1985 37.9129 38.0628 37.9129H35.7512C35.5988 37.9129 35.5577 37.8532 35.5577 37.7331V30.8521C35.5577 29.9947 35.5379 28.838 35.4609 28.1392C35.4609 28.0395 35.48 28.0002 35.5767 28.0002H37.6827Z" fill="#ED9EFB"/>
</svg>
