<svg width="64" height="64" viewBox="0 0 64 64" fill="none" xmlns="http://www.w3.org/2000/svg">
<rect width="64" height="64" rx="16" fill="black"/>
<rect x="5.14453" y="5" width="54" height="54" rx="8" fill="white" fill-opacity="0.01"/>
<path d="M41.5407 15.7969H23.2642C19.2221 15.7969 15.9453 19.1739 15.9453 23.3397V41.1683C15.9453 45.3341 19.2221 48.7112 23.2642 48.7112H41.5407C45.5828 48.7112 48.8596 45.3341 48.8596 41.1683V23.3397C48.8596 19.1739 45.5828 15.7969 41.5407 15.7969Z" fill="#2E0020"/>
<path d="M41.5404 17.3672H23.2638C20.0633 17.3672 17.4688 20.0411 17.4688 23.3396V41.1681C17.4688 44.4666 20.0633 47.1406 23.2638 47.1406H41.5404C44.7409 47.1406 47.3354 44.4666 47.3354 41.1681V23.3396C47.3354 20.0411 44.7409 17.3672 41.5404 17.3672Z" fill="#2E0020"/>
<path d="M29.0048 31.3873L32.8372 37.9047C32.8522 37.9242 32.8617 37.9477 32.8646 37.9724C32.8675 37.9972 32.8638 38.0223 32.8538 38.045C32.8438 38.0677 32.8279 38.0871 32.808 38.1011C32.788 38.1152 32.7646 38.1233 32.7404 38.1245H29.9922C29.8178 38.1245 29.721 38.0648 29.6631 37.9447C28.8113 36.3892 27.9595 34.8329 27.0886 33.1972H27.0688C26.2947 34.7936 25.4429 36.4088 24.6307 37.9651C24.608 38.018 24.5693 38.0618 24.5204 38.0901C24.4715 38.1184 24.4151 38.1297 24.3595 38.1222H21.7469C21.6113 38.1222 21.6113 38.002 21.6707 37.9227L25.3873 31.5797L21.7469 25.2625C21.7311 25.2447 21.7208 25.2224 21.7176 25.1984C21.7143 25.1745 21.7182 25.1501 21.7287 25.1285C21.7392 25.1069 21.7558 25.089 21.7763 25.0774C21.7968 25.0657 21.8203 25.0607 21.8437 25.0631H24.5728C24.7084 25.0631 24.7663 25.0827 24.8242 25.2201C25.5983 26.7961 26.5081 28.372 27.302 29.948H27.321C28.0761 28.3516 28.9271 26.8157 29.721 25.2201C29.7789 25.1204 29.8178 25.0631 29.9922 25.0631H32.489C32.6239 25.0631 32.6414 25.1628 32.5652 25.2822L29.0048 31.3873Z" fill="#FBDAF1"/>
<path d="M33.0703 33.2657C33.0703 30.413 35.1412 28.0196 38.6833 28.0196C38.8356 28.0196 39.0315 28.0392 39.3217 28.0589V24.1328C39.3197 24.1139 39.3218 24.0948 39.3279 24.0768C39.3339 24.0589 39.3439 24.0426 39.3569 24.0292C39.3699 24.0158 39.3857 24.0056 39.4031 23.9993C39.4205 23.993 39.439 23.9909 39.4574 23.993H41.8955C41.9922 23.993 42.0113 24.033 42.0113 24.1131V35.8986C42.0062 36.385 42.0316 36.8713 42.0875 37.3544C42.0875 37.4541 42.0676 37.4941 41.9518 37.5342C40.747 38.0615 39.4513 38.3328 38.1423 38.332C35.2768 38.332 33.0703 36.6555 33.0703 33.2657ZM39.3217 30.4326C39.1282 30.3541 38.8768 30.3329 38.6055 30.3329C37.1153 30.3329 35.8383 31.2704 35.8383 33.1259C35.8383 35.1008 36.9415 35.9582 38.412 35.9582C38.7412 35.9582 39.0513 35.9386 39.3217 35.8381V30.4326Z" fill="#FBDAF1"/>
</svg>
