<svg width="64" height="64" viewBox="0 0 64 64" fill="none" xmlns="http://www.w3.org/2000/svg">
<rect width="64" height="64" rx="16" fill="black"/>
<rect x="5" y="4.78125" width="54" height="54" rx="8" fill="white" fill-opacity="0.01"/>
<path d="M41.3962 15.5781H23.1196C19.0775 15.5781 15.8008 18.9552 15.8008 23.121V40.9495C15.8008 45.1153 19.0775 48.4924 23.1196 48.4924H41.3962C45.4383 48.4924 48.7151 45.1153 48.7151 40.9495V23.121C48.7151 18.9552 45.4383 15.5781 41.3962 15.5781Z" fill="#001D23"/>
<path d="M41.3997 17.1484H23.1232C19.9227 17.1484 17.3281 19.8224 17.3281 23.1209V40.9494C17.3281 44.2479 19.9227 46.9218 23.1232 46.9218H41.3997C44.6003 46.9218 47.1948 44.2479 47.1948 40.9494V23.1209C47.1948 19.8224 44.6003 17.1484 41.3997 17.1484Z" fill="#001D23"/>
<path d="M24.0234 25.0292C24.0234 24.9091 24.0425 24.8722 24.1392 24.8722C24.9332 24.8525 26.4615 24.8125 27.9328 24.8125C31.8421 24.8125 33.1975 27.0465 33.1975 29.2208C33.1975 32.4527 30.7777 33.8285 27.7972 33.8285H26.6962V37.7546C26.6962 37.8543 26.6573 37.9116 26.5438 37.9116H24.1583C24.0615 37.9116 24.0234 37.8519 24.0234 37.7546V25.0292ZM26.6962 31.3723C27.0253 31.3919 27.2379 31.3919 27.7804 31.3919C29.3095 31.3919 30.5286 30.9129 30.5286 29.2773C30.5286 28.0209 29.6966 27.2231 28.0143 27.2231C27.3949 27.2231 26.8714 27.2428 26.6977 27.2632L26.6962 31.3723Z" fill="#01C8FE"/>
<path d="M38.1699 30.0058C37.2602 30.0058 36.9699 30.345 36.9699 30.6842C36.9699 31.0234 37.2221 31.2825 38.3413 31.7215C40.6834 32.5994 41.4186 33.5369 41.4186 34.9527C41.4186 36.8482 39.9863 38.1046 37.4316 38.1046C36.2514 38.1046 35.2221 37.8847 34.6255 37.5463C34.5844 37.5274 34.5496 37.4965 34.5255 37.4574C34.5014 37.4183 34.489 37.3727 34.4899 37.3264V35.1718C34.4899 35.0516 34.5661 34.9919 34.6423 35.0516C35.5329 35.6303 36.6164 35.8494 37.4872 35.8494C38.3969 35.8494 38.8038 35.5903 38.8038 35.1718C38.8038 34.7925 38.4746 34.5129 37.3325 34.0724C35.1459 33.2346 34.4297 32.2766 34.4297 30.8404C34.4297 29.2849 35.6487 27.7891 38.2034 27.7891C39.3463 27.7891 40.2362 27.9461 40.7177 28.188C40.7634 28.2115 40.8008 28.2491 40.825 28.2955C40.8491 28.3419 40.8587 28.3948 40.8525 28.4471V30.4416C40.8525 30.5617 40.7764 30.641 40.659 30.5813C40.0289 30.2452 39.0384 30.0058 38.1699 30.0058Z" fill="#01C8FE"/>
</svg>
