<svg width="273" height="66" viewBox="0 0 273 66" fill="none" xmlns="http://www.w3.org/2000/svg">
<path d="M113.907 17.288C117.133 17.288 119.964 17.9187 122.399 19.18C124.863 20.4413 126.755 22.2453 128.075 24.592C129.424 26.9093 130.099 29.608 130.099 32.688C130.099 35.768 129.424 38.4667 128.075 40.784C126.755 43.072 124.863 44.8467 122.399 46.108C119.964 47.3693 117.133 48 113.907 48H103.171V17.288H113.907ZM113.687 42.764C116.913 42.764 119.407 41.884 121.167 40.124C122.927 38.364 123.807 35.8853 123.807 32.688C123.807 29.4907 122.927 26.9973 121.167 25.208C119.407 23.3893 116.913 22.48 113.687 22.48H109.331V42.764H113.687ZM140.87 22.26V29.96H151.21V34.844H140.87V42.984H152.53V48H134.71V17.244H152.53V22.26H140.87ZM180.524 26.792C180.524 28.4347 180.128 29.9747 179.336 31.412C178.573 32.8493 177.356 34.008 175.684 34.888C174.041 35.768 171.958 36.208 169.436 36.208H164.288V48H158.128V17.288H169.436C171.812 17.288 173.836 17.6987 175.508 18.52C177.18 19.3413 178.426 20.4707 179.248 21.908C180.098 23.3453 180.524 24.9733 180.524 26.792ZM169.172 31.236C170.873 31.236 172.134 30.8547 172.956 30.092C173.777 29.3 174.188 28.2 174.188 26.792C174.188 23.8 172.516 22.304 169.172 22.304H164.288V31.236H169.172ZM203.729 42.148H191.497L189.473 48H183.005L194.049 17.244H201.221L212.265 48H205.753L203.729 42.148ZM202.057 37.22L197.613 24.372L193.169 37.22H202.057ZM232.233 48L225.457 36.032H222.553V48H216.393V17.288H227.921C230.297 17.288 232.321 17.7133 233.993 18.564C235.665 19.3853 236.912 20.5147 237.733 21.952C238.584 23.36 239.009 24.944 239.009 26.704C239.009 28.728 238.423 30.5613 237.249 32.204C236.076 33.8173 234.331 34.932 232.013 35.548L239.361 48H232.233ZM222.553 31.412H227.701C229.373 31.412 230.62 31.016 231.441 30.224C232.263 29.4027 232.673 28.2733 232.673 26.836C232.673 25.428 232.263 24.3427 231.441 23.58C230.62 22.788 229.373 22.392 227.701 22.392H222.553V31.412ZM265.481 17.288V22.26H257.297V48H251.137V22.26H242.953V17.288H265.481Z" fill="white"/>
<path d="M65.4681 25.0837C65.4681 25.0837 65.5851 25.0837 65.702 25.5203C65.936 25.8476 66.1699 26.2842 66.4039 26.8298C66.7548 27.4846 67.1057 28.1394 67.4566 29.1216C67.8075 29.9946 68.1584 31.0859 68.3924 32.3955C68.8603 34.9055 68.9772 38.0703 68.1584 41.6716C67.9245 42.5446 67.6906 43.5268 67.3396 44.3998C66.9887 45.2729 66.6378 46.2551 66.1699 47.2372C65.2341 49.0924 63.9475 50.9477 62.4268 52.8029C60.9062 54.549 59.0346 56.2951 57.0461 57.8229C54.9406 59.3507 52.6012 60.7694 50.0278 61.8607C47.4544 62.952 44.6471 63.8251 41.6058 64.3707C38.6815 64.9164 35.5232 65.1346 32.365 64.9164C31.5462 64.9164 30.7274 64.9164 30.0256 64.6981C29.6746 64.6981 29.2068 64.6981 28.8558 64.4798H27.6861C27.6861 64.4798 27.3352 64.2616 27.1013 64.2616H26.5164C26.1655 64.0433 25.6976 63.9342 25.3467 63.8251C24.5279 63.6068 23.7091 63.3885 23.0072 63.0611C21.4866 62.5155 19.849 61.8607 18.4453 61.0968C16.9247 60.3329 15.521 59.4598 14.2343 58.4777C11.544 56.5133 9.20454 54.1124 7.21601 51.4933C5.22749 48.8742 3.70685 46.0368 2.53713 42.9811C0.314662 36.979 -0.153232 30.4311 1.13346 24.3198C1.48438 22.792 1.8353 21.2642 2.42016 19.7363C3.00502 18.2085 3.70685 16.7898 4.52565 15.3711C6.16326 12.6429 8.26876 10.1329 10.7252 8.16851C13.1816 6.09503 15.8719 4.45807 18.6793 3.36677C21.4866 2.16633 24.5279 1.51155 27.4522 1.18416C30.3765 0.856766 33.1838 0.965897 35.8742 1.51155C37.1609 1.72981 38.4475 2.0572 39.7342 2.49372H40.2021C40.2021 2.60285 40.67 2.71199 40.67 2.71199C40.904 2.82112 41.2549 2.93025 41.6058 3.03938C41.9567 3.14851 42.1907 3.25764 42.5416 3.36677C42.7755 3.4759 43.1264 3.58503 43.3604 3.80329C45.5828 4.8946 47.5714 6.31329 49.092 7.84112C50.7296 9.36894 51.8993 11.0059 52.8351 12.6429C53.7709 14.2798 54.3557 15.9168 54.8236 17.4446C55.1745 18.9724 55.4085 20.3911 55.4085 21.7007V23.5559C55.4085 24.1016 55.4085 24.6472 55.1745 25.0837C54.9406 25.5203 54.9406 26.0659 54.9406 26.3933C54.9406 26.8298 54.7067 27.1572 54.5897 27.4846C54.5897 27.812 54.3557 28.0303 54.2388 28.3576C54.2388 28.5759 54.0048 28.7942 54.0048 28.9033C54.0048 29.2307 53.7709 29.3398 53.7709 29.3398C53.7709 29.3398 53.7709 29.1216 53.7709 28.7942C53.7709 28.5759 53.7709 28.4668 53.7709 28.1394C53.7709 27.9211 53.7709 27.5937 53.7709 27.2663V24.8655C53.7709 23.8833 53.5369 22.9011 53.303 21.7007C53.0691 20.5003 52.6012 19.2998 52.0163 17.9903C51.4314 16.6807 50.6126 15.3711 49.5599 14.1707C47.5714 11.6607 44.5301 9.36895 40.787 8.16851C40.553 8.05938 40.3191 8.05938 40.0852 7.95025C40.0852 7.95025 39.8512 7.84112 39.7342 7.84112H39.3833C39.1494 7.62286 38.9154 7.62286 38.6815 7.51373H38.2136C38.2136 7.4046 37.9797 7.4046 37.9797 7.4046C36.9269 7.18633 35.8742 7.0772 34.8214 6.96807C32.7159 6.85894 30.4935 6.96807 28.271 7.4046C23.826 8.27764 19.615 10.3511 16.2229 13.5159C14.5852 15.1529 13.1816 16.8989 12.0119 18.9724C10.9591 21.0459 10.2573 23.1194 9.78939 25.5203C8.97059 30.2129 9.43848 35.2329 11.0761 39.8163C12.8307 44.3998 15.755 48.5468 19.615 51.4933C20.5508 52.2572 21.6036 52.912 22.6563 53.5668C23.7091 54.2216 24.7618 54.6581 25.9315 55.0946C27.1013 55.5311 27.1013 55.5311 27.6861 55.7494C27.9201 55.7494 28.271 55.9677 28.5049 55.9677H28.8558C28.8558 55.9677 29.0898 56.1859 29.3237 56.1859H29.7916H30.1425C30.4934 56.1859 30.7274 56.1859 31.0783 56.4042C31.6632 56.4042 32.248 56.6224 32.9499 56.7316C37.8627 57.2772 42.7755 56.7316 47.1035 55.3129C51.4314 53.8942 55.2915 51.6024 58.2158 48.8742C61.1401 46.1459 63.2456 43.0903 64.5323 40.1437C65.819 37.1972 66.2869 34.3598 66.4039 31.959C66.4039 29.5581 66.1699 27.7029 65.819 26.3933C65.702 25.7385 65.5851 25.302 65.4681 24.9746C65.1172 25.1929 65.1172 24.9746 65.1172 24.9746L65.4681 25.0837Z" fill="white"/>
<path d="M57.1063 26.6532C57.1063 26.6532 57.183 26.6532 57.2596 26.9379C57.4129 27.1515 57.5662 27.4363 57.7194 27.7923C57.9493 28.2194 58.1793 28.6466 58.4092 29.2874C58.6391 29.8569 58.869 30.5689 59.0223 31.4232C59.3288 33.0607 59.4055 35.1253 58.869 37.4747C58.7157 38.0443 58.5624 38.6851 58.3325 39.2546C58.1026 39.8242 57.8727 40.4649 57.5662 41.1057C56.9531 42.316 56.1101 43.5263 55.1138 44.7366C54.1175 45.8757 52.8913 47.0148 51.5885 48.0115C50.209 49.0083 48.6762 49.9338 46.9902 50.6457C45.3042 51.3577 43.4649 51.9272 41.4723 52.2832C39.5564 52.6392 37.4872 52.7816 35.418 52.6392C34.8815 52.6392 34.3451 52.6392 33.8852 52.4968C33.6553 52.4968 33.3488 52.4968 33.1189 52.3544H32.3525C32.3525 52.3544 32.1226 52.212 31.9693 52.212H31.5861C31.3562 52.0696 31.0497 51.9984 30.8198 51.9272C30.2833 51.7849 29.7468 51.6425 29.287 51.4289C28.2907 51.0729 27.2178 50.6457 26.2982 50.1474C25.3019 49.649 24.3822 49.0795 23.5392 48.4387C21.7766 47.1572 20.2438 45.5909 18.941 43.8823C17.6381 42.1736 16.6419 40.3225 15.8755 38.3291C14.4194 34.4134 14.1128 30.1417 14.9558 26.1548C15.1858 25.1581 15.4157 24.1614 15.7989 23.1646C16.182 22.1679 16.6419 21.2424 17.1783 20.3168C18.2512 18.537 19.6307 16.8995 21.2401 15.618C22.8495 14.2653 24.6121 13.1974 26.4514 12.4854C28.2907 11.7023 30.2833 11.2751 32.1992 11.0615C34.1152 10.848 35.9545 10.9192 37.7171 11.2751C38.5601 11.4175 39.4031 11.6311 40.2461 11.9159H40.5527C40.5527 11.9871 40.8592 12.0583 40.8592 12.0583C41.0125 12.1295 41.2424 12.2007 41.4723 12.2719C41.7022 12.343 41.8555 12.4142 42.0854 12.4854C42.2387 12.5566 42.4686 12.6278 42.6219 12.7702C44.078 13.4822 45.3808 14.4077 46.3771 15.4044C47.45 16.4011 48.2164 17.4691 48.8295 18.537C49.4426 19.6049 49.8258 20.6728 50.1323 21.6695C50.3623 22.6663 50.5155 23.5918 50.5155 24.4461V25.6564C50.5155 26.0124 50.5155 26.3684 50.3623 26.6532C50.209 26.9379 50.209 27.2939 50.209 27.5075C50.209 27.7923 50.0557 28.0059 49.9791 28.2194C49.9791 28.433 49.8258 28.5754 49.7492 28.789C49.7492 28.9314 49.5959 29.0738 49.5959 29.145C49.5959 29.3586 49.4426 29.4298 49.4426 29.4298C49.4426 29.4298 49.4426 29.2874 49.4426 29.0738C49.4426 28.9314 49.4426 28.8602 49.4426 28.6466C49.4426 28.5042 49.4426 28.2906 49.4426 28.0771V26.5108C49.4426 25.87 49.2893 25.2293 49.1361 24.4461C48.9828 23.663 48.6762 22.8799 48.293 22.0255C47.9099 21.1712 47.3734 20.3168 46.6837 19.5337C45.3808 17.8962 43.3883 16.4011 40.9359 15.618C40.7826 15.5468 40.6293 15.5468 40.4761 15.4756C40.4761 15.4756 40.3228 15.4044 40.2461 15.4044H40.0162C39.863 15.262 39.7097 15.262 39.5564 15.1908H39.2499C39.2499 15.1196 39.0966 15.1196 39.0966 15.1196C38.4068 14.9773 37.7171 14.9061 37.0274 14.8349C35.6479 14.7637 34.1918 14.8349 32.7357 15.1196C29.8235 15.6892 27.0645 17.0419 24.842 19.1065C23.7691 20.1745 22.8495 21.3136 22.0831 22.6663C21.3934 24.019 20.9335 25.3717 20.627 26.9379C20.0905 29.9993 20.3971 33.2743 21.47 36.2644C22.6196 39.2546 24.5355 41.96 27.0645 43.8823C27.6776 44.3806 28.3674 44.8078 29.0571 45.235C29.7468 45.6621 30.4366 45.9469 31.2029 46.2317C31.9693 46.5165 31.9693 46.5165 32.3525 46.6588C32.5058 46.6588 32.7357 46.8012 32.889 46.8012H33.1189C33.1189 46.8012 33.2722 46.9436 33.4254 46.9436H33.732H33.9619C34.1918 46.9436 34.3451 46.9436 34.575 47.086C34.9582 47.086 35.3414 47.2284 35.8012 47.2996C39.0199 47.6556 42.2387 47.2996 45.0743 46.3741C47.9099 45.4485 50.4389 43.9535 52.3548 42.1736C54.2708 40.3937 55.6502 38.4003 56.4932 36.478C57.3362 34.5558 57.6428 32.7047 57.7194 31.1384C57.7194 29.5721 57.5662 28.3618 57.3362 27.5075C57.2596 27.0803 57.183 26.7956 57.1063 26.582C56.8764 26.7244 56.8764 26.582 56.8764 26.582L57.1063 26.6532Z" fill="white"/>
<path d="M50.724 28.7181C50.724 28.7181 50.77 28.7181 50.816 28.8889C50.908 29.0171 50.9999 29.188 51.0919 29.4015C51.2298 29.6578 51.3678 29.9141 51.5057 30.2986C51.6437 30.6403 51.7816 31.0675 51.8736 31.5801C52.0575 32.5626 52.1035 33.8014 51.7816 35.211C51.6896 35.5528 51.5977 35.9372 51.4597 36.2789C51.3218 36.6207 51.1839 37.0051 50.9999 37.3896C50.6321 38.1158 50.1263 38.8419 49.5285 39.5681C48.9308 40.2516 48.1951 40.9351 47.4134 41.5331C46.5857 42.1311 45.6661 42.6865 44.6545 43.1136C43.643 43.5408 42.5394 43.8825 41.3439 44.0961C40.1944 44.3097 38.9529 44.3951 37.7114 44.3097C37.3895 44.3097 37.0677 44.3097 36.7918 44.2243C36.6538 44.2243 36.4699 44.2243 36.332 44.1388H35.8721C35.8721 44.1388 35.7342 44.0534 35.6422 44.0534H35.4123C35.2744 43.968 35.0905 43.9252 34.9525 43.8825C34.6307 43.7971 34.3088 43.7117 34.0329 43.5835C33.4352 43.3699 32.7914 43.1136 32.2396 42.8146C31.6419 42.5156 31.0901 42.1738 30.5843 41.7894C29.5268 41.0205 28.6071 40.0807 27.8255 39.0555C27.0438 38.0303 26.446 36.9197 25.9862 35.7236C25.1126 33.3742 24.9286 30.8112 25.4344 28.4191C25.5724 27.821 25.7103 27.223 25.9402 26.6249C26.1701 26.0269 26.446 25.4716 26.7679 24.9163C27.4116 23.8484 28.2393 22.8659 29.2049 22.097C30.1705 21.2854 31.2281 20.6446 32.3316 20.2174C33.4351 19.7476 34.6307 19.4913 35.7802 19.3631C36.9297 19.2349 38.0333 19.2777 39.0908 19.4913C39.5966 19.5767 40.1024 19.7048 40.6082 19.8757H40.7921C40.7921 19.9184 40.9761 19.9611 40.9761 19.9611C41.068 20.0039 41.206 20.0466 41.3439 20.0893C41.4818 20.132 41.5738 20.1747 41.7117 20.2174C41.8037 20.2602 41.9417 20.3029 42.0336 20.3883C42.9073 20.8155 43.6889 21.3708 44.2867 21.9688C44.9304 22.5669 45.3902 23.2076 45.7581 23.8484C46.1259 24.4891 46.3558 25.1299 46.5398 25.7279C46.6777 26.3259 46.7697 26.8812 46.7697 27.3939V28.12C46.7697 28.3336 46.7697 28.5472 46.6777 28.7181C46.5857 28.8889 46.5857 29.1025 46.5857 29.2307C46.5857 29.4015 46.4938 29.5297 46.4478 29.6578C46.4478 29.786 46.3558 29.8714 46.3099 29.9996C46.3099 30.085 46.2179 30.1704 46.2179 30.2132C46.2179 30.3413 46.1259 30.384 46.1259 30.384C46.1259 30.384 46.1259 30.2986 46.1259 30.1704C46.1259 30.085 46.1259 30.0423 46.1259 29.9141C46.1259 29.8287 46.1259 29.7006 46.1259 29.5724V28.6326C46.1259 28.2482 46.034 27.8637 45.942 27.3939C45.85 26.924 45.6661 26.4541 45.4362 25.9415C45.2063 25.4289 44.8844 24.9163 44.4706 24.4464C43.6889 23.4639 42.4934 22.5669 41.022 22.097C40.9301 22.0543 40.8381 22.0543 40.7461 22.0115C40.7461 22.0115 40.6542 21.9688 40.6082 21.9688H40.4703C40.3783 21.8834 40.2863 21.8834 40.1944 21.8407H40.0104C40.0104 21.798 39.9185 21.798 39.9185 21.798C39.5047 21.7125 39.0908 21.6698 38.677 21.6271C37.8493 21.5844 36.9757 21.6271 36.1021 21.798C34.3548 22.1397 32.6995 22.9513 31.366 24.1901C30.7223 24.8308 30.1705 25.5143 29.7107 26.3259C29.2968 27.1376 29.021 27.9492 28.837 28.8889C28.5152 30.7258 28.6991 32.6907 29.3428 34.4848C30.0325 36.2789 31.1821 37.9022 32.6995 39.0555C33.0673 39.3545 33.4811 39.6108 33.895 39.8671C34.3088 40.1234 34.7226 40.2943 35.1824 40.4652C35.6422 40.636 35.6422 40.636 35.8721 40.7215C35.9641 40.7215 36.1021 40.8069 36.194 40.8069H36.332C36.332 40.8069 36.4239 40.8923 36.5159 40.8923H36.6998H36.8378C36.9757 40.8923 37.0677 40.8923 37.2056 40.9778C37.4355 40.9778 37.6654 41.0632 37.9413 41.1059C39.8725 41.3195 41.8037 41.1059 43.505 40.5506C45.2063 39.9953 46.7237 39.0982 47.8732 38.0303C49.0227 36.9624 49.8504 35.7663 50.3562 34.613C50.862 33.4596 51.0459 32.349 51.0919 31.4092C51.0919 30.4695 50.9999 29.7433 50.862 29.2307C50.816 28.9744 50.77 28.8035 50.724 28.6754C50.5861 28.7608 50.5861 28.6754 50.5861 28.6754L50.724 28.7181Z" fill="white"/>
</svg>
