<svg width="300" height="66" viewBox="0 0 300 66" fill="none" xmlns="http://www.w3.org/2000/svg">
<path d="M115.169 17.288C118.396 17.288 121.226 17.9187 123.661 19.18C126.125 20.4413 128.017 22.2453 129.337 24.592C130.686 26.9093 131.361 29.608 131.361 32.688C131.361 35.768 130.686 38.4667 129.337 40.784C128.017 43.072 126.125 44.8467 123.661 46.108C121.226 47.3693 118.396 48 115.169 48H104.433V17.288H115.169ZM114.949 42.764C118.176 42.764 120.669 41.884 122.429 40.124C124.189 38.364 125.069 35.8853 125.069 32.688C125.069 29.4907 124.189 26.9973 122.429 25.208C120.669 23.3893 118.176 22.48 114.949 22.48H110.593V42.764H114.949ZM142.132 22.26V29.96H152.472V34.844H142.132V42.984H153.792V48H135.972V17.244H153.792V22.26H142.132ZM186.978 17.288L175.714 48H168.234L156.97 17.288H163.57L172.018 41.708L180.422 17.288H186.978ZM196.831 22.26V29.96H207.171V34.844H196.831V42.984H208.491V48H190.671V17.244H208.491V22.26H196.831ZM220.249 43.116H230.369V48H214.089V17.288H220.249V43.116ZM248.541 48.308C245.666 48.308 243.026 47.6333 240.621 46.284C238.215 44.9347 236.309 43.072 234.901 40.696C233.493 38.2907 232.789 35.5773 232.789 32.556C232.789 29.564 233.493 26.88 234.901 24.504C236.309 22.0987 238.215 20.2213 240.621 18.872C243.026 17.5227 245.666 16.848 248.541 16.848C251.445 16.848 254.085 17.5227 256.461 18.872C258.866 20.2213 260.758 22.0987 262.137 24.504C263.545 26.88 264.249 29.564 264.249 32.556C264.249 35.5773 263.545 38.2907 262.137 40.696C260.758 43.072 258.866 44.9347 256.461 46.284C254.055 47.6333 251.415 48.308 248.541 48.308ZM248.541 42.808C250.389 42.808 252.017 42.3973 253.425 41.576C254.833 40.7253 255.933 39.5227 256.725 37.968C257.517 36.4133 257.913 34.6093 257.913 32.556C257.913 30.5027 257.517 28.7133 256.725 27.188C255.933 25.6333 254.833 24.4453 253.425 23.624C252.017 22.8027 250.389 22.392 248.541 22.392C246.693 22.392 245.05 22.8027 243.613 23.624C242.205 24.4453 241.105 25.6333 240.313 27.188C239.521 28.7133 239.125 30.5027 239.125 32.556C239.125 34.6093 239.521 36.4133 240.313 37.968C241.105 39.5227 242.205 40.7253 243.613 41.576C245.05 42.3973 246.693 42.808 248.541 42.808ZM291.227 26.792C291.227 28.4347 290.831 29.9747 290.039 31.412C289.277 32.8493 288.059 34.008 286.387 34.888C284.745 35.768 282.662 36.208 280.139 36.208H274.991V48H268.831V17.288H280.139C282.515 17.288 284.539 17.6987 286.211 18.52C287.883 19.3413 289.13 20.4707 289.951 21.908C290.802 23.3453 291.227 24.9733 291.227 26.792ZM279.875 31.236C281.577 31.236 282.838 30.8547 283.659 30.092C284.481 29.3 284.891 28.2 284.891 26.792C284.891 23.8 283.219 22.304 279.875 22.304H274.991V31.236H279.875Z" fill="white"/>
<path d="M65.5618 25.0837C65.5618 25.0837 65.6788 25.0837 65.7958 25.5203C66.0297 25.8476 66.2637 26.2842 66.4976 26.8298C66.8485 27.4846 67.1994 28.1394 67.5504 29.1216C67.9013 29.9946 68.2522 31.0859 68.4861 32.3955C68.954 34.9055 69.071 38.0703 68.2522 41.6716C68.0182 42.5446 67.7843 43.5268 67.4334 44.3998C67.0825 45.2729 66.7316 46.2551 66.2637 47.2372C65.3279 49.0924 64.0412 50.9477 62.5206 52.8029C60.9999 54.549 59.1284 56.2951 57.1399 57.8229C55.0344 59.3507 52.6949 60.7694 50.1215 61.8607C47.5481 62.952 44.7408 63.8251 41.6995 64.3707C38.7752 64.9164 35.617 65.1346 32.4588 64.9164C31.6399 64.9164 30.8211 64.9164 30.1193 64.6981C29.7684 64.6981 29.3005 64.6981 28.9496 64.4798H27.7799C27.7799 64.4798 27.429 64.2616 27.195 64.2616H26.6101C26.2592 64.0433 25.7913 63.9342 25.4404 63.8251C24.6216 63.6068 23.8028 63.3885 23.101 63.0611C21.5804 62.5155 19.9427 61.8607 18.5391 61.0968C17.0184 60.3329 15.6148 59.4598 14.3281 58.4777C11.6377 56.5133 9.29829 54.1124 7.30976 51.4933C5.32124 48.8742 3.8006 46.0368 2.63088 42.9811C0.408412 36.979 -0.059482 30.4311 1.22721 24.3198C1.57813 22.792 1.92905 21.2642 2.51391 19.7363C3.09877 18.2085 3.8006 16.7898 4.6194 15.3711C6.25701 12.6429 8.36251 10.1329 10.8189 8.16851C13.2753 6.09503 15.9657 4.45807 18.773 3.36677C21.5803 2.16633 24.6216 1.51155 27.5459 1.18416C30.4702 0.856766 33.2776 0.965897 35.9679 1.51155C37.2546 1.72981 38.5413 2.0572 39.828 2.49372H40.2959C40.2959 2.60285 40.7638 2.71199 40.7638 2.71199C40.9977 2.82112 41.3486 2.93025 41.6995 3.03938C42.0505 3.14851 42.2844 3.25764 42.6353 3.36677C42.8693 3.4759 43.2202 3.58503 43.4541 3.80329C45.6766 4.8946 47.6651 6.31329 49.1857 7.84112C50.8234 9.36894 51.9931 11.0059 52.9289 12.6429C53.8646 14.2798 54.4495 15.9168 54.9174 17.4446C55.2683 18.9724 55.5022 20.3911 55.5022 21.7007V23.5559C55.5022 24.1016 55.5022 24.6472 55.2683 25.0837C55.0344 25.5203 55.0344 26.0659 55.0344 26.3933C55.0344 26.8298 54.8004 27.1572 54.6834 27.4846C54.6834 27.812 54.4495 28.0303 54.3325 28.3576C54.3325 28.5759 54.0986 28.7942 54.0986 28.9033C54.0986 29.2307 53.8646 29.3398 53.8646 29.3398C53.8646 29.3398 53.8646 29.1216 53.8646 28.7942C53.8646 28.5759 53.8646 28.4668 53.8646 28.1394C53.8646 27.9211 53.8646 27.5937 53.8646 27.2663V24.8655C53.8646 23.8833 53.6307 22.9011 53.3967 21.7007C53.1628 20.5003 52.6949 19.2998 52.1101 17.9903C51.5252 16.6807 50.7064 15.3711 49.6536 14.1707C47.6651 11.6607 44.6238 9.36895 40.8807 8.16851C40.6468 8.05938 40.4128 8.05938 40.1789 7.95025C40.1789 7.95025 39.945 7.84112 39.828 7.84112H39.4771C39.2431 7.62286 39.0092 7.62286 38.7752 7.51373H38.3074C38.3074 7.4046 38.0734 7.4046 38.0734 7.4046C37.0207 7.18633 35.9679 7.0772 34.9152 6.96807C32.8097 6.85894 30.5872 6.96807 28.3647 7.4046C23.9198 8.27764 19.7088 10.3511 16.3166 13.5159C14.679 15.1529 13.2753 16.8989 12.1056 18.9724C11.0529 21.0459 10.351 23.1194 9.88314 25.5203C9.06434 30.2129 9.53223 35.2329 11.1698 39.8163C12.9244 44.3998 15.8487 48.5468 19.7088 51.4933C20.6446 52.2572 21.6973 52.912 22.7501 53.5668C23.8028 54.2216 24.8556 54.6581 26.0253 55.0946C27.195 55.5311 27.195 55.5311 27.7799 55.7494C28.0138 55.7494 28.3647 55.9677 28.5987 55.9677H28.9496C28.9496 55.9677 29.1835 56.1859 29.4175 56.1859H29.8854H30.2363C30.5872 56.1859 30.8211 56.1859 31.1721 56.4042C31.7569 56.4042 32.3418 56.6224 33.0436 56.7316C37.9564 57.2772 42.8693 56.7316 47.1972 55.3129C51.5252 53.8942 55.3853 51.6024 58.3096 48.8742C61.2339 46.1459 63.3394 43.0903 64.6261 40.1437C65.9128 37.1972 66.3806 34.3598 66.4976 31.959C66.4976 29.5581 66.2637 27.7029 65.9128 26.3933C65.7958 25.7385 65.6788 25.302 65.5618 24.9746C65.2109 25.1929 65.2109 24.9746 65.2109 24.9746L65.5618 25.0837Z" fill="white"/>
<path d="M57.202 26.6532C57.202 26.6532 57.2787 26.6532 57.3553 26.9379C57.5086 27.1515 57.6619 27.4363 57.8151 27.7923C58.045 28.2194 58.275 28.6466 58.5049 29.2874C58.7348 29.8569 58.9647 30.5689 59.118 31.4232C59.4245 33.0607 59.5012 35.1253 58.9647 37.4747C58.8114 38.0443 58.6581 38.6851 58.4282 39.2546C58.1983 39.8242 57.9684 40.4649 57.6619 41.1057C57.0488 42.316 56.2058 43.5263 55.2095 44.7366C54.2132 45.8757 52.987 47.0148 51.6842 48.0115C50.3047 49.0083 48.7719 49.9338 47.0859 50.6457C45.3999 51.3577 43.5606 51.9272 41.568 52.2832C39.6521 52.6392 37.5829 52.7816 35.5137 52.6392C34.9772 52.6392 34.4408 52.6392 33.981 52.4968C33.751 52.4968 33.4445 52.4968 33.2146 52.3544H32.4482C32.4482 52.3544 32.2183 52.212 32.065 52.212H31.6818C31.4519 52.0696 31.1454 51.9984 30.9155 51.9272C30.379 51.7849 29.8425 51.6425 29.3827 51.4289C28.3864 51.0729 27.3135 50.6457 26.3939 50.1474C25.3976 49.649 24.4779 49.0795 23.6349 48.4387C21.8723 47.1572 20.3395 45.5909 19.0367 43.8823C17.7339 42.1736 16.7376 40.3225 15.9712 38.3291C14.5151 34.4134 14.2085 30.1417 15.0515 26.1548C15.2815 25.1581 15.5114 24.1614 15.8946 23.1646C16.2777 22.1679 16.7376 21.2424 17.274 20.3168C18.3469 18.537 19.7264 16.8995 21.3358 15.618C22.9452 14.2653 24.7078 13.1974 26.5471 12.4854C28.3864 11.7023 30.379 11.2751 32.2949 11.0615C34.2109 10.848 36.0502 10.9192 37.8128 11.2751C38.6558 11.4175 39.4988 11.6311 40.3418 11.9159H40.6484C40.6484 11.9871 40.9549 12.0583 40.9549 12.0583C41.1082 12.1295 41.3381 12.2007 41.568 12.2719C41.798 12.343 41.9512 12.4142 42.1811 12.4854C42.3344 12.5566 42.5643 12.6278 42.7176 12.7702C44.1737 13.4822 45.4765 14.4077 46.4728 15.4044C47.5457 16.4011 48.3121 17.4691 48.9252 18.537C49.5383 19.6049 49.9215 20.6728 50.228 21.6695C50.458 22.6663 50.6112 23.5918 50.6112 24.4461V25.6564C50.6112 26.0124 50.6112 26.3684 50.458 26.6532C50.3047 26.9379 50.3047 27.2939 50.3047 27.5075C50.3047 27.7923 50.1514 28.0059 50.0748 28.2194C50.0748 28.433 49.9215 28.5754 49.8449 28.789C49.8449 28.9314 49.6916 29.0738 49.6916 29.145C49.6916 29.3586 49.5383 29.4298 49.5383 29.4298C49.5383 29.4298 49.5383 29.2874 49.5383 29.0738C49.5383 28.9314 49.5383 28.8602 49.5383 28.6466C49.5383 28.5042 49.5383 28.2906 49.5383 28.0771V26.5108C49.5383 25.87 49.385 25.2293 49.2318 24.4461C49.0785 23.663 48.7719 22.8799 48.3888 22.0255C48.0056 21.1712 47.4691 20.3168 46.7794 19.5337C45.4765 17.8962 43.484 16.4011 41.0316 15.618C40.8783 15.5468 40.725 15.5468 40.5718 15.4756C40.5718 15.4756 40.4185 15.4044 40.3418 15.4044H40.1119C39.9587 15.262 39.8054 15.262 39.6521 15.1908H39.3456C39.3456 15.1196 39.1923 15.1196 39.1923 15.1196C38.5025 14.9773 37.8128 14.9061 37.1231 14.8349C35.7436 14.7637 34.2875 14.8349 32.8314 15.1196C29.9192 15.6892 27.1602 17.0419 24.9378 19.1065C23.8648 20.1745 22.9452 21.3136 22.1788 22.6663C21.4891 24.019 21.0293 25.3717 20.7227 26.9379C20.1862 29.9993 20.4928 33.2743 21.5657 36.2644C22.7153 39.2546 24.6312 41.96 27.1602 43.8823C27.7733 44.3806 28.4631 44.8078 29.1528 45.235C29.8425 45.6621 30.5323 45.9469 31.2986 46.2317C32.065 46.5165 32.065 46.5165 32.4482 46.6588C32.6015 46.6588 32.8314 46.8012 32.9847 46.8012H33.2146C33.2146 46.8012 33.3679 46.9436 33.5211 46.9436H33.8277H34.0576C34.2875 46.9436 34.4408 46.9436 34.6707 47.086C35.0539 47.086 35.4371 47.2284 35.8969 47.2996C39.1156 47.6556 42.3344 47.2996 45.17 46.3741C48.0056 45.4485 50.5346 43.9535 52.4505 42.1736C54.3665 40.3937 55.7459 38.4003 56.5889 36.478C57.4319 34.5558 57.7385 32.7047 57.8151 31.1384C57.8151 29.5721 57.6619 28.3618 57.4319 27.5075C57.3553 27.0803 57.2787 26.7956 57.202 26.582C56.9721 26.7244 56.9721 26.582 56.9721 26.582L57.202 26.6532Z" fill="white"/>
<path d="M50.8178 28.7181C50.8178 28.7181 50.8638 28.7181 50.9098 28.8889C51.0017 29.0171 51.0937 29.188 51.1856 29.4015C51.3236 29.6578 51.4615 29.9141 51.5995 30.2986C51.7374 30.6403 51.8754 31.0675 51.9673 31.5801C52.1512 32.5626 52.1972 33.8014 51.8754 35.211C51.7834 35.5528 51.6914 35.9372 51.5535 36.2789C51.4156 36.6207 51.2776 37.0051 51.0937 37.3896C50.7258 38.1158 50.22 38.8419 49.6223 39.5681C49.0245 40.2516 48.2888 40.9351 47.5072 41.5331C46.6795 42.1311 45.7599 42.6865 44.7483 43.1136C43.7367 43.5408 42.6332 43.8825 41.4377 44.0961C40.2881 44.3097 39.0466 44.3951 37.8051 44.3097C37.4833 44.3097 37.1614 44.3097 36.8855 44.2243C36.7476 44.2243 36.5637 44.2243 36.4257 44.1388H35.9659C35.9659 44.1388 35.828 44.0534 35.736 44.0534H35.5061C35.3681 43.968 35.1842 43.9252 35.0463 43.8825C34.7244 43.7971 34.4025 43.7117 34.1267 43.5835C33.5289 43.3699 32.8852 43.1136 32.3334 42.8146C31.7356 42.5156 31.1839 42.1738 30.6781 41.7894C29.6205 41.0205 28.7009 40.0807 27.9192 39.0555C27.1375 38.0303 26.5398 36.9197 26.08 35.7236C25.2063 33.3742 25.0224 30.8112 25.5282 28.4191C25.6661 27.821 25.8041 27.223 26.034 26.6249C26.2639 26.0269 26.5398 25.4716 26.8616 24.9163C27.5054 23.8484 28.333 22.8659 29.2986 22.097C30.2642 21.2854 31.3218 20.6446 32.4254 20.2174C33.5289 19.7476 34.7244 19.4913 35.8739 19.3631C37.0235 19.2349 38.127 19.2777 39.1846 19.4913C39.6904 19.5767 40.1962 19.7048 40.702 19.8757H40.8859C40.8859 19.9184 41.0698 19.9611 41.0698 19.9611C41.1618 20.0039 41.2997 20.0466 41.4377 20.0893C41.5756 20.132 41.6676 20.1747 41.8055 20.2174C41.8975 20.2602 42.0354 20.3029 42.1274 20.3883C43.001 20.8155 43.7827 21.3708 44.3804 21.9688C45.0242 22.5669 45.484 23.2076 45.8518 23.8484C46.2197 24.4891 46.4496 25.1299 46.6335 25.7279C46.7715 26.3259 46.8634 26.8812 46.8634 27.3939V28.12C46.8634 28.3336 46.8634 28.5472 46.7715 28.7181C46.6795 28.8889 46.6795 29.1025 46.6795 29.2307C46.6795 29.4015 46.5875 29.5297 46.5416 29.6578C46.5416 29.786 46.4496 29.8714 46.4036 29.9996C46.4036 30.085 46.3116 30.1704 46.3116 30.2132C46.3116 30.3413 46.2197 30.384 46.2197 30.384C46.2197 30.384 46.2197 30.2986 46.2197 30.1704C46.2197 30.085 46.2197 30.0423 46.2197 29.9141C46.2197 29.8287 46.2197 29.7006 46.2197 29.5724V28.6326C46.2197 28.2482 46.1277 27.8637 46.0358 27.3939C45.9438 26.924 45.7599 26.4541 45.53 25.9415C45.3001 25.4289 44.9782 24.9163 44.5644 24.4464C43.7827 23.4639 42.5872 22.5669 41.1158 22.097C41.0238 22.0543 40.9319 22.0543 40.8399 22.0115C40.8399 22.0115 40.7479 21.9688 40.702 21.9688H40.564C40.472 21.8834 40.3801 21.8834 40.2881 21.8407H40.1042C40.1042 21.798 40.0122 21.798 40.0122 21.798C39.5984 21.7125 39.1846 21.6698 38.7707 21.6271C37.9431 21.5844 37.0694 21.6271 36.1958 21.798C34.4485 22.1397 32.7932 22.9513 31.4597 24.1901C30.816 24.8308 30.2642 25.5143 29.8044 26.3259C29.3906 27.1376 29.1147 27.9492 28.9308 28.8889C28.6089 30.7258 28.7928 32.6907 29.4366 34.4848C30.1263 36.2789 31.2758 37.9022 32.7932 39.0555C33.1611 39.3545 33.5749 39.6108 33.9887 39.8671C34.4025 40.1234 34.8164 40.2943 35.2762 40.4652C35.736 40.636 35.736 40.636 35.9659 40.7215C36.0579 40.7215 36.1958 40.8069 36.2878 40.8069H36.4257C36.4257 40.8069 36.5177 40.8923 36.6096 40.8923H36.7936H36.9315C37.0694 40.8923 37.1614 40.8923 37.2994 40.9778C37.5293 40.9778 37.7592 41.0632 38.035 41.1059C39.9663 41.3195 41.8975 41.1059 43.5988 40.5506C45.3001 39.9953 46.8174 39.0982 47.967 38.0303C49.1165 36.9624 49.9442 35.7663 50.4499 34.613C50.9557 33.4596 51.1397 32.349 51.1856 31.4092C51.1856 30.4695 51.0937 29.7433 50.9557 29.2307C50.9098 28.9744 50.8638 28.8035 50.8178 28.6754C50.6799 28.7608 50.6799 28.6754 50.6799 28.6754L50.8178 28.7181Z" fill="white"/>
</svg>
