<svg width="56" height="56" viewBox="0 0 56 56" fill="none" xmlns="http://www.w3.org/2000/svg">
<mask id="mask0_746_16418" style="mask-type:alpha" maskUnits="userSpaceOnUse" x="0" y="0" width="56" height="56">
<rect width="56" height="56" fill="#D9D9D9"/>
</mask>
<g mask="url(#mask0_746_16418)">
<path d="M16.332 49V40.2232C14.1154 38.2009 12.3945 35.9281 11.1695 33.4046C9.94453 30.8815 9.33203 28.2913 9.33203 25.634C9.33203 20.4579 11.1468 16.0582 14.7763 12.4349C18.4062 8.81164 22.8136 7 27.9987 7C32.2018 7 36.0003 8.27964 39.3941 10.8389C42.7879 13.3982 44.9889 16.703 45.9969 20.7533L48.4159 30.3298C48.5711 30.9213 48.4603 31.4588 48.0834 31.9422C47.7066 32.4252 47.204 32.6667 46.5755 32.6667H41.9987V40.5638C41.9987 41.6006 41.6296 42.4881 40.8915 43.2262C40.1534 43.9643 39.266 44.3333 38.2292 44.3333H32.6654V49H30.332V42H38.2292C38.648 42 38.9922 41.8654 39.2617 41.5963C39.5308 41.3268 39.6654 40.9827 39.6654 40.5638V30.3333H45.9654L43.7487 21.2917C42.8543 17.7228 40.9337 14.8377 37.9871 12.6362C35.0405 10.4343 31.711 9.33333 27.9987 9.33333C23.4876 9.33333 19.6376 10.9126 16.4487 14.0712C13.2598 17.2301 11.6654 21.0714 11.6654 25.5949C11.6654 27.9205 12.1418 30.1298 13.0945 32.2227C14.0473 34.3161 15.3987 36.1768 17.1487 37.8047L18.6654 39.2V49H16.332ZM27.5484 36.8847C28.031 36.8847 28.4362 36.7214 28.764 36.3948C29.0915 36.0685 29.2552 35.6638 29.2552 35.1808C29.2552 34.6982 29.0919 34.2932 28.7652 33.9657C28.4389 33.6383 28.0343 33.4746 27.5513 33.4746C27.0687 33.4746 26.6636 33.6377 26.3362 33.964C26.0088 34.2907 25.845 34.6953 25.845 35.1779C25.845 35.6605 26.0082 36.0656 26.3344 36.393C26.6611 36.7208 27.0658 36.8847 27.5484 36.8847ZM26.5625 30.4949H28.6404C28.6404 29.7918 28.7891 29.1239 29.0866 28.4912C29.3845 27.8584 29.9223 27.1293 30.7001 26.3037C31.3702 25.5558 32.0058 24.7983 32.607 24.031C33.2083 23.2637 33.5089 22.3432 33.5089 21.2695C33.5089 19.8119 32.9668 18.5799 31.8825 17.5735C30.7979 16.5671 29.4121 16.0638 27.7251 16.0638C26.4387 16.0638 25.2607 16.4064 24.1913 17.0917C23.1218 17.7769 22.3194 18.6892 21.7839 19.8287L23.6459 20.6768C24.0379 19.8812 24.6041 19.2432 25.3445 18.7629C26.085 18.283 26.8785 18.0431 27.7251 18.0431C28.7599 18.0431 29.6342 18.3431 30.3478 18.9432C31.0614 19.5436 31.4182 20.3191 31.4182 21.2695C31.4182 22.1457 31.1526 22.8972 30.6214 23.5241C30.0905 24.1506 29.5095 24.7944 28.8784 25.4555C28.1006 26.2426 27.5202 27.0445 27.1371 27.8612C26.7541 28.6778 26.5625 29.5557 26.5625 30.4949Z" fill="white"/>
</g>
</svg>
