<svg width="56" height="56" viewBox="0 0 56 56" fill="none" xmlns="http://www.w3.org/2000/svg">
<mask id="mask0_746_16426" style="mask-type:alpha" maskUnits="userSpaceOnUse" x="0" y="0" width="56" height="56">
<rect width="56" height="56" fill="#D9D9D9"/>
</mask>
<g mask="url(#mask0_746_16426)">
<path d="M28.0013 46.3978C27.1399 46.3978 26.3981 46.1471 25.7759 45.6458C25.1537 45.1449 24.7887 44.5011 24.681 43.7144H23.3346C22.7093 43.7144 22.1641 43.4817 21.699 43.0162C21.2339 42.5511 21.0013 42.0058 21.0013 41.3805V34.3537C18.5871 33.0167 16.7196 31.1934 15.399 28.8837C14.0783 26.5745 13.418 24.1411 13.418 21.5833C13.418 17.5058 14.8292 14.056 17.6518 11.2338C20.474 8.41128 23.9238 7 28.0013 7C32.0788 7 35.5286 8.41128 38.3508 11.2338C41.1734 14.056 42.5846 17.5058 42.5846 21.5833C42.5846 24.1589 41.9243 26.5969 40.6036 28.8972C39.283 31.1978 37.4155 33.0167 35.0013 34.3537V41.3805C35.0013 42.0058 34.7687 42.5511 34.3036 43.0162C33.8385 43.4817 33.2933 43.7144 32.668 43.7144H31.3216C31.2139 44.5011 30.8489 45.1449 30.2267 45.6458C29.6045 46.1471 28.8627 46.3978 28.0013 46.3978ZM23.3346 41.3805H32.668V39.1014H23.3346V41.3805ZM23.3346 37.3065H32.668V35H23.3346V37.3065ZM22.868 32.6667H26.9694V25.3797L22.105 20.5153L23.568 19.0528L28.0013 23.4862L32.4346 19.0528L33.8976 20.5153L29.0332 25.3797V32.6667H33.1346C35.2346 31.6556 36.9457 30.1681 38.268 28.2042C39.5902 26.2403 40.2513 24.0333 40.2513 21.5833C40.2513 18.1611 39.0652 15.2639 36.693 12.8917C34.3207 10.5194 31.4235 9.33333 28.0013 9.33333C24.5791 9.33333 21.6819 10.5194 19.3096 12.8917C16.9374 15.2639 15.7513 18.1611 15.7513 21.5833C15.7513 24.0333 16.4124 26.2403 17.7346 28.2042C19.0569 30.1681 20.768 31.6556 22.868 32.6667Z" fill="white"/>
</g>
</svg>
