<svg width="205" height="980" viewBox="0 0 205 980" fill="none" xmlns="http://www.w3.org/2000/svg">
<path d="M44.0447 702.134L29.0744 684.791C27.9968 683.543 27.9968 681.552 29.0744 680.304C30.152 679.055 31.8704 679.055 32.948 680.304L47.9183 697.647L62.8885 680.304C63.9661 679.055 65.6845 679.055 66.7622 680.304C67.8398 681.552 67.8398 683.543 66.7622 684.791L51.7919 702.134L66.7622 719.478C67.8398 720.726 67.8398 722.717 66.7622 723.965C65.6845 725.214 63.9661 725.214 62.8885 723.965L47.9183 706.622L32.948 723.965C31.8704 725.214 30.152 725.214 29.0744 723.965C27.9968 722.717 27.9968 720.726 29.0744 719.478L44.0447 702.134Z" fill="white"/>
<path d="M91.4894 828.251C91.4894 840.533 100.081 850.487 110.683 850.487C121.284 850.487 129.876 840.533 129.876 828.251C129.876 815.969 121.284 806.016 110.683 806.016C100.081 806.016 91.4894 815.969 91.4894 828.251Z" fill="white"/>
<path d="M11.5128 980.029H13.406V253.4C13.406 114.857 110.684 2.15947 230.271 2.15947C349.858 2.15947 447.107 114.857 447.107 253.4V980.029H449V253.4C449 113.676 350.878 0 230.271 0C109.664 0 11.542 113.676 11.542 253.4V980.029H11.5128Z" fill="#B3B3B3"/>
<path d="M43.2871 980.023H45.1803V253.395C45.1803 135.164 128.216 38.9666 230.27 38.9666C332.324 38.9666 415.359 135.164 415.359 253.395V980.023H417.253V253.395C417.253 133.95 333.373 36.7734 230.27 36.7734C127.167 36.7734 43.2871 133.95 43.2871 253.395V980.023Z" fill="#B3B3B3"/>
<path d="M75.0324 980.024H76.9255V253.396C76.9255 155.443 145.719 75.7454 230.269 75.7454C314.819 75.7454 383.612 155.443 383.612 253.396V980.024H385.505V253.396C385.505 154.229 315.867 73.5859 230.269 73.5859C144.67 73.5859 75.0324 154.262 75.0324 253.396V980.024Z" fill="#B3B3B3"/>
<path d="M106.814 980.034H108.707V253.406C108.707 175.733 163.258 112.534 230.304 112.534C297.35 112.534 351.901 175.733 351.901 253.406V980.034H353.794V253.406C353.794 174.552 298.399 110.375 230.333 110.375C162.268 110.375 106.872 174.552 106.872 253.406V980.034H106.814Z" fill="#B3B3B3"/>
<path d="M138.559 980.029H140.452V253.401C140.452 196.006 180.761 149.342 230.273 149.342C279.786 149.342 320.095 196.04 320.095 253.401V980.029H321.988V253.401C321.988 194.826 280.834 147.148 230.273 147.148C179.712 147.148 138.559 194.826 138.559 253.401V980.029Z" fill="#B3B3B3"/>
<circle cx="153.984" cy="15.8253" r="11.5128" fill="#B3B3B3"/>
<circle cx="11.5128" cy="575.638" r="11.5128" fill="#FF8C00"/>
<circle cx="47.4904" cy="217.302" r="11.5128" fill="#B3B3B3"/>
<circle cx="43.1731" cy="755.521" r="11.5128" fill="#03A672"/>
<circle cx="74.8333" cy="392.872" r="11.5128" fill="#353535"/>
<circle cx="74.8333" cy="915.263" r="11.5128" fill="#B3B3B3"/>
<circle cx="142.471" cy="153.982" r="11.5128" fill="#FF8C00"/>
<circle cx="106.494" cy="643.271" r="11.5128" fill="#B3B3B3"/>
<circle cx="138.154" cy="312.278" r="11.5128" fill="#03A672"/>
<circle cx="139.593" cy="826.036" r="11.5128" fill="#FF8C00"/>
</svg>
