<svg width="163" height="105" viewBox="0 0 163 105" fill="none" xmlns="http://www.w3.org/2000/svg">
<path d="M76.6211 53.6699C76.6211 69.5293 73.2487 81.9935 66.5039 91.0625C59.8047 100.132 50.5762 104.666 38.8184 104.666C27.0605 104.666 17.7865 100.063 10.9961 90.8574C4.2513 81.6061 0.878906 68.8913 0.878906 52.7129C0.878906 36.5801 4.2513 23.9108 10.9961 14.7051C17.7865 5.49935 27.0605 0.896484 38.8184 0.896484C50.7585 0.896484 60.0326 5.52214 66.6406 14.7734C73.2943 23.9792 76.6211 36.9447 76.6211 53.6699ZM26.1035 52.7129C26.1035 63.6504 27.1061 71.6484 29.1113 76.707C31.1621 81.7201 34.3978 84.2266 38.8184 84.2266C43.1478 84.2266 46.3151 81.6973 48.3203 76.6387C50.3711 71.5801 51.3965 63.6048 51.3965 52.7129C51.3965 41.9121 50.3711 33.9596 48.3203 28.8555C46.3151 23.7513 43.1478 21.1992 38.8184 21.1992C34.3522 21.1992 31.1165 23.7057 29.1113 28.7188C27.1061 33.6862 26.1035 41.6842 26.1035 52.7129ZM161.592 102H85.166L130.078 48.8164C132.812 45.5807 134.818 42.6641 136.094 40.0664C137.415 37.4232 138.076 34.9622 138.076 32.6836C138.076 29.1745 136.96 26.3262 134.727 24.1387C132.539 21.9056 129.645 20.7891 126.045 20.7891C121.761 20.7891 118.457 22.1562 116.133 24.8906C113.854 27.625 112.715 31.5898 112.715 36.7852V38.0156H88.6523V37.332C88.6523 25.9844 91.9564 17.0521 98.5645 10.5352C105.218 4.01823 114.287 0.759766 125.771 0.759766C136.982 0.759766 145.915 3.65365 152.568 9.44141C159.222 15.2292 162.549 22.931 162.549 32.5469C162.549 37.2409 161.501 41.821 159.404 46.2871C157.308 50.7077 153.844 55.5612 149.014 60.8477L130.967 80.7402H161.592V102Z" fill="url(#paint0_linear_746_13715)"/>
<defs>
<linearGradient id="paint0_linear_746_13715" x1="82.5" y1="-33" x2="82.5" y2="135" gradientUnits="userSpaceOnUse">
<stop stop-color="white"/>
<stop offset="0.784" stop-color="#252D30"/>
</linearGradient>
</defs>
</svg>
