<svg width="82" height="82" viewBox="0 0 82 82" fill="none" xmlns="http://www.w3.org/2000/svg">
<path d="M63.7664 0H18.2336C8.16347 0 0 8.41333 0 18.7917V63.2083C0 73.5867 8.16347 82 18.2336 82H63.7664C73.8365 82 82 73.5867 82 63.2083V18.7917C82 8.41333 73.8365 0 63.7664 0Z" fill="#2C083D"/>
<path d="M63.767 3.91211H18.2342C10.2607 3.91211 3.79688 10.5738 3.79688 18.7913V63.2079C3.79688 71.4255 10.2607 78.0871 18.2342 78.0871H63.767C71.7405 78.0871 78.2043 71.4255 78.2043 63.2079V18.7913C78.2043 10.5738 71.7405 3.91211 63.767 3.91211Z" fill="#2C083D"/>
<path d="M22 23.5321C22 23.2328 22.0475 23.1409 22.2885 23.1409C24.2664 23.092 28.0741 22.9922 31.7394 22.9922C41.4788 22.9922 44.8556 28.5577 44.8556 33.9746C44.8556 42.0265 38.8271 45.4538 31.4015 45.4538H28.6587V55.235C28.6587 55.4835 28.5619 55.6263 28.2791 55.6263H22.3379C22.0949 55.6263 22 55.4776 22 55.235V23.5321ZM28.6587 39.3347C29.4787 39.3836 30.0083 39.3836 31.3598 39.3836C35.1694 39.3836 38.2064 38.1903 38.2064 34.1154C38.2064 30.9854 36.1336 28.9979 31.9425 28.9979C30.3993 28.9979 29.0953 29.0468 28.6625 29.0976L28.6587 39.3347Z" fill="#ED9EFB"/>
<path d="M54.1639 30.9363C54.2956 30.9248 54.4267 30.964 54.5319 31.0464C54.6371 31.1288 54.7089 31.2485 54.7334 31.3823C55.0447 32.2775 55.2232 33.216 55.2629 34.1661C56.2016 33.0092 57.3739 32.0773 58.6981 31.4353C60.0222 30.7934 61.4663 30.4568 62.9296 30.4492C63.22 30.4492 63.3092 30.547 63.3092 30.8405V36.9518C63.3092 37.2002 63.2124 37.3 62.8745 37.3C59.4028 37.1513 56.6106 38.2449 55.5932 39.4382L55.5458 55.2407C55.5458 55.5381 55.449 55.632 55.1111 55.632H49.3521C48.9725 55.632 48.87 55.4833 48.87 55.184V38.0414C48.87 35.9052 48.8206 33.0236 48.6289 31.2826C48.6289 31.0341 48.6764 30.9363 48.9174 30.9363H54.1639Z" fill="#ED9EFB"/>
</svg>
