<svg width="82" height="82" viewBox="0 0 82 82" fill="none" xmlns="http://www.w3.org/2000/svg">
<path d="M74.1905 0H7.80952C3.50335 0 0 3.34411 0 7.45455V74.5455C0 78.6559 3.50335 82 7.80952 82H74.1905C78.4967 82 82 78.6559 82 74.5455V7.45455C82 3.34411 78.4967 0 74.1905 0Z" fill="black"/>
<path d="M78.0967 74.544C78.0967 76.594 76.3396 78.2713 74.192 78.2713H7.81101C5.66339 78.2713 3.90625 76.594 3.90625 74.544V11.1804C3.90625 9.1304 5.66339 7.45312 7.81101 7.45312H74.192C76.3396 7.45312 78.0967 9.1304 78.0967 11.1804V74.544Z" fill="url(#paint0_linear_746_37290)"/>
<path d="M74.192 7.45312H7.81101C5.66339 7.45312 3.90625 9.1304 3.90625 11.1804V13.044C3.90625 10.994 5.66339 9.31676 7.81101 9.31676H74.192C76.3396 9.31676 78.0967 10.994 78.0967 13.044V11.1804C78.0967 9.1304 76.3396 7.45312 74.192 7.45312Z" fill="url(#paint1_linear_746_37290)"/>
<path d="M74.192 3.72656H7.81101C5.66339 3.72656 3.90625 5.40384 3.90625 7.45384V11.1811C3.90625 9.13111 5.66339 7.45384 7.81101 7.45384H74.192C76.3396 7.45384 78.0967 9.13111 78.0967 11.1811V7.45384C78.0967 5.40384 76.3396 3.72656 74.192 3.72656Z" fill="url(#paint2_linear_746_37290)"/>
<path d="M21.2064 26.8555H31.9168L43.6933 61.4997H35.1148L32.6276 53.7958H19.4805L16.9932 61.4997H9.27734L21.2064 26.8555ZM21.257 48.2235H30.851L26.0793 33.2515L21.257 48.2235Z" fill="#9999FF"/>
<path d="M45.6211 49.145V48.7574C45.6211 40.7628 51.56 35.5781 59.2757 35.5781C66.1283 35.5781 72.2195 39.406 72.2195 48.4669V50.4047H53.0827C53.2857 54.6204 55.6716 57.0427 59.6816 57.0427C63.0826 57.0427 64.7577 55.6377 65.2146 53.5057H72.1688C71.3058 58.9809 66.7375 62.0337 59.4785 62.0337C51.4585 62.0339 45.6211 57.2369 45.6211 49.145ZM65.0623 46.0926C64.8085 42.2649 62.7782 40.4236 59.2757 40.4236C55.9761 40.4236 53.7426 42.5069 53.1842 46.0926H65.0623Z" fill="#9999FF"/>
<defs>
<linearGradient id="paint0_linear_746_37290" x1="41.0015" y1="7.57803" x2="41.0015" y2="76.4577" gradientUnits="userSpaceOnUse">
<stop stop-color="#4747A7"/>
<stop offset="1" stop-color="#00005B"/>
</linearGradient>
<linearGradient id="paint1_linear_746_37290" x1="3.90625" y1="10.2486" x2="78.0967" y2="10.2486" gradientUnits="userSpaceOnUse">
<stop stop-color="#4747A7"/>
<stop offset="0.5" stop-color="#8484C4"/>
<stop offset="1" stop-color="#4747A7"/>
</linearGradient>
<linearGradient id="paint2_linear_746_37290" x1="3.90625" y1="7.45384" x2="78.0967" y2="7.45384" gradientUnits="userSpaceOnUse">
<stop stop-color="#00005B"/>
<stop offset="0.5" stop-color="#4D4D98"/>
<stop offset="1" stop-color="#00005B"/>
</linearGradient>
</defs>
</svg>
