<svg width="82" height="82" viewBox="0 0 82 82" fill="none" xmlns="http://www.w3.org/2000/svg">
<path d="M74.5691 0H7.43121C3.33136 0 0 3.33135 0 7.43136V74.5688C0 78.6685 3.33136 82 7.43121 82H74.569C78.6688 82 82 78.6687 82 74.5688V7.43118C82 3.33117 78.669 0 74.5691 0Z" fill="#FF3366"/>
<path d="M32.2353 20.7927C32.3087 25.0758 28.1356 25.7898 27.3666 25.808C24.6392 25.808 22.4062 23.6116 22.4062 20.866C22.4248 14.4229 32.1256 14.3682 32.2353 20.7927Z" fill="white"/>
<path d="M60.9174 63.1475C48.9106 63.1475 54.6763 49.603 56.3416 43.6361C58.9227 35.1432 48.0685 32.837 45.3776 43.7643L40.6555 62.6717H32.4007L33.8829 56.7233C28.1172 66.2042 16.568 64.8499 16.568 55.936C16.5862 53.3184 16.7325 53.3734 20.7778 36.8821H14.957L16.7325 30.3658H30.7163C24.5664 54.8373 24.7495 53.5932 24.6946 55.6609C24.6946 59.4866 32.1807 58.1321 35.201 51.4149L38.8253 36.8821H32.9132L34.6885 30.3658H47.2813L45.6523 37.7788C53.0652 23.9598 69.0626 29.0297 64.2857 44.7344C61.6863 54.0872 61.6132 54.0143 61.5581 55.4965C61.5581 58.3339 64.7611 59.6334 67.3786 52.4035L70.655 53.63C68.7332 60.3472 65.2736 63.1475 60.9174 63.1475Z" fill="white"/>
</svg>
