<svg width="64" height="82" viewBox="0 0 64 82" fill="none" xmlns="http://www.w3.org/2000/svg">
<path d="M16.0005 82.0013C24.8328 82.0013 32.0011 75.8786 32.0011 68.3346V54.668H16.0005C7.16824 54.668 0 60.7906 0 68.3346C0 75.8786 7.16824 82.0013 16.0005 82.0013Z" fill="#0ACF83"/>
<path d="M0 40.9987C0 33.4547 7.16824 27.332 16.0005 27.332H32.0011V54.6654H16.0005C7.16824 54.6654 0 48.5427 0 40.9987Z" fill="#A259FF"/>
<path d="M0 13.6667C0 6.12267 7.16824 0 16.0005 0H32.0011V27.3333H16.0005C7.16824 27.3333 0 21.2107 0 13.6667Z" fill="#F24E1E"/>
<path d="M32 0H48.0005C56.8328 0 64.0011 6.12267 64.0011 13.6667C64.0011 21.2107 56.8328 27.3333 48.0005 27.3333H32V0Z" fill="#FF7262"/>
<path d="M64.0011 40.9987C64.0011 48.5427 56.8328 54.6654 48.0005 54.6654C39.1682 54.6654 32 48.5427 32 40.9987C32 33.4547 39.1682 27.332 48.0005 27.332C56.8328 27.332 64.0011 33.4547 64.0011 40.9987Z" fill="#1ABCFE"/>
</svg>
