<svg width="82" height="82" viewBox="0 0 82 82" fill="none" xmlns="http://www.w3.org/2000/svg">
<path d="M41.0002 0L17.8897 2.75214L0 27.9461L41.0009 81.9981L81.9986 27.9461L64.1089 2.75214L41.0002 0Z" fill="#FDB300"/>
<path d="M0 27.9453L41.0009 81.9992L16.6068 27.9453H0Z" fill="#EA6C00"/>
<path d="M65.3949 27.9453L41.0039 81.9992L82.0017 27.9453H65.3949Z" fill="#EA6C00"/>
<path d="M17.8884 2.75214L16.6055 27.9461L40.9989 0L17.8884 2.75214Z" fill="#FDD231"/>
<path d="M65.3917 27.9461L64.1087 2.75214L41 0L65.3917 27.9461Z" fill="#FDD231"/>
<path d="M65.3923 27.9459H81.9991L64.1094 2.75195L65.3923 27.9459Z" fill="#FDAD00"/>
<path d="M0 27.9459H16.6068L17.8897 2.75195L0 27.9459Z" fill="#FDAD00"/>
<path d="M40.9989 0L16.6055 27.9461H65.3906L40.9989 0Z" fill="#FEEEB7"/>
<path d="M16.6055 27.9453L40.9995 81.9992H41.0013L65.3923 27.9453H16.6055Z" fill="#FDAD00"/>
<path d="M41.0002 0L17.8897 2.75214L0 27.9461L41.0009 81.9981L81.9986 27.9461L64.1089 2.75214L41.0002 0Z" fill="url(#paint0_linear_746_37248)"/>
<defs>
<linearGradient id="paint0_linear_746_37248" x1="4.32048" y1="17.8386" x2="73.6512" y2="47.4743" gradientUnits="userSpaceOnUse">
<stop stop-color="white" stop-opacity="0.2"/>
<stop offset="1" stop-color="white" stop-opacity="0"/>
</linearGradient>
</defs>
</svg>
