<svg width="82" height="82" viewBox="0 0 82 82" fill="none" xmlns="http://www.w3.org/2000/svg">
<path d="M63.7664 0H18.2336C8.16347 0 0 8.41333 0 18.7917V63.2083C0 73.5867 8.16347 82 18.2336 82H63.7664C73.8365 82 82 73.5867 82 63.2083V18.7917C82 8.41333 73.8365 0 63.7664 0Z" fill="#271302"/>
<path d="M63.767 3.91211H18.2342C10.2607 3.91211 3.79688 10.5738 3.79688 18.7913V63.2079C3.79688 71.4255 10.2607 78.0871 18.2342 78.0871H63.767C71.7405 78.0871 78.2043 71.4255 78.2043 63.2079V18.7913C78.2043 10.5738 71.7405 3.91211 63.767 3.91211Z" fill="#271302"/>
<path d="M28.7298 47.8814L26.416 55.2369C26.3838 55.3543 26.3139 55.457 26.2177 55.5281C26.1215 55.5992 26.0046 55.6345 25.8864 55.6281H20.2925C19.9547 55.6281 19.8579 55.4325 19.9129 55.1312L29.5555 26.4566C29.7453 25.9108 29.9351 25.3141 30.0376 23.4263C30.0333 23.3409 30.0611 23.2571 30.1152 23.1923C30.1693 23.1274 30.2455 23.0866 30.3281 23.0781H38.0421C38.2832 23.0781 38.38 23.127 38.4218 23.3755L49.3684 55.1801C49.4652 55.4286 49.4158 55.6281 49.1273 55.6281H42.8634C42.7488 55.6451 42.6322 55.6193 42.5344 55.5555C42.4366 55.4916 42.3641 55.3939 42.33 55.2799L39.8624 47.8755L28.7298 47.8814ZM38.0858 41.6703C37.1215 38.3897 35.1911 32.3762 34.2762 28.8491H34.2268C33.4562 32.1747 31.7194 37.6522 30.4666 41.6703H38.0858Z" fill="#FF7C01"/>
<path d="M52.2578 24.426C52.2578 22.19 53.8485 20.5996 56.018 20.5996C58.3319 20.5996 59.7308 22.19 59.7308 24.426C59.7308 26.7618 58.237 28.3014 55.9706 28.3014C53.7042 28.3014 52.2578 26.7618 52.2578 24.426ZM52.5938 31.3335C52.5938 31.0851 52.6906 30.9423 52.9734 30.9423H58.9032C59.1936 30.9423 59.2829 31.0401 59.2829 31.3335V55.1861C59.2829 55.4854 59.2354 55.634 58.8501 55.634H53.0759C52.7399 55.634 52.5938 55.4854 52.5938 55.1861V31.3335Z" fill="#FF7C01"/>
</svg>
