<svg width="117" height="88" viewBox="0 0 117 88" fill="none" xmlns="http://www.w3.org/2000/svg">
<path d="M58.5057 58.5578V47.2032C70.5244 47.2032 79.8538 35.2841 75.2389 22.6346C73.5457 17.9865 69.794 14.2348 65.1127 12.5416C52.4632 7.95987 40.5441 17.2561 40.5441 29.2748H29.2227C29.2227 10.1179 47.7487 -4.82243 67.8351 1.45252C76.6001 4.20818 83.6055 11.1803 86.328 19.9453C92.6029 40.0318 77.6626 58.5578 58.5057 58.5578Z" fill="#0080FF"/>
<path fill-rule="evenodd" clip-rule="evenodd" d="M58.5363 47.2687H47.2148V35.9473H58.5363V47.2687Z" fill="#0080FF"/>
<path fill-rule="evenodd" clip-rule="evenodd" d="M47.2162 55.9349H38.5508V47.2695H47.2162V55.9349Z" fill="#0080FF"/>
<path fill-rule="evenodd" clip-rule="evenodd" d="M38.5522 47.269H31.2812V39.998H38.5522V47.269Z" fill="#0080FF"/>
<path d="M10.093 70.0448C8.6322 69.0156 6.77295 68.5176 4.64811 68.5176H0V83.2919H4.68131C6.80616 83.2919 8.6654 82.7607 10.1262 81.6651C10.923 81.1007 11.5539 80.3038 12.0187 79.3078C12.4503 78.3118 12.6827 77.1166 12.6827 75.8217C12.6827 74.5269 12.4503 73.3649 12.0187 72.3689C11.5539 71.3728 10.923 70.576 10.093 70.0448ZM2.72246 71.0076H4.1833C5.81013 71.0076 7.13816 71.3396 8.16739 71.9705C9.29621 72.6677 9.86063 73.9625 9.86063 75.8217C9.86063 77.7474 9.29621 79.1086 8.16739 79.839C7.20456 80.4699 5.87653 80.8019 4.2165 80.8019H2.72246V71.0076Z" fill="#0080FF"/>
<path d="M15.9003 68.3184C15.4355 68.3184 15.0703 68.4844 14.7382 68.7832C14.4394 69.082 14.2734 69.4472 14.2734 69.912C14.2734 70.3768 14.4394 70.742 14.7382 71.074C15.0371 71.3728 15.4355 71.5388 15.9003 71.5388C16.3319 71.5388 16.7303 71.3728 17.0623 71.074C17.3611 70.7752 17.5271 70.3768 17.5271 69.912C17.5271 69.4472 17.3611 69.082 17.0623 68.7832C16.7303 68.4844 16.3319 68.3184 15.9003 68.3184Z" fill="#0080FF"/>
<path d="M17.1971 72.8672H14.5742V83.2922H17.1971V72.8672Z" fill="#0080FF"/>
<path d="M26.726 73.7304C25.9292 73.0332 25.066 72.6016 24.1032 72.6016C22.6423 72.6016 21.4471 73.0996 20.5175 74.0956C19.5879 75.0584 19.0898 76.3201 19.0898 77.8473C19.0898 79.3081 19.5547 80.5697 20.4843 81.5658C21.4139 82.5286 22.6423 83.0266 24.07 83.0266C25.066 83.0266 25.9624 82.761 26.6596 82.1966V82.429C26.6596 83.2922 26.4272 83.9562 25.9624 84.421C25.4976 84.8858 24.8668 85.1183 24.07 85.1183C22.8747 85.1183 22.1111 84.6534 21.1815 83.3918L19.3887 85.1183L19.4219 85.1847C19.8203 85.7159 20.3847 86.2471 21.1815 86.7451C21.9451 87.2431 22.9411 87.5087 24.1032 87.5087C25.6636 87.5087 26.9252 87.0439 27.8548 86.0811C28.7845 85.1183 29.2493 83.8566 29.2493 82.2962V72.834H26.6596V73.7304H26.726ZM26.0288 79.9057C25.564 80.4369 24.9664 80.6694 24.236 80.6694C23.4723 80.6694 22.9079 80.4037 22.4431 79.9057C21.9783 79.3745 21.7791 78.7105 21.7791 77.8805C21.7791 77.0173 22.0115 76.3533 22.4431 75.822C22.8747 75.2908 23.5055 75.0584 24.236 75.0584C24.9996 75.0584 25.564 75.324 26.0288 75.822C26.4936 76.3533 26.726 77.0505 26.726 77.8805C26.726 78.7105 26.4936 79.3745 26.0288 79.9057Z" fill="#0080FF"/>
<path d="M34.1658 72.8672H31.543V83.2922H34.1658V72.8672Z" fill="#0080FF"/>
<path d="M32.869 68.3184C32.4042 68.3184 32.039 68.4844 31.707 68.7832C31.4082 69.082 31.2422 69.4472 31.2422 69.912C31.2422 70.3768 31.4082 70.742 31.707 71.074C32.0058 71.3728 32.4042 71.5388 32.869 71.5388C33.3006 71.5388 33.699 71.3728 34.0311 71.074C34.3299 70.7752 34.4959 70.3768 34.4959 69.912C34.4959 69.4472 34.3299 69.082 34.0311 68.7832C33.699 68.4844 33.3338 68.3184 32.869 68.3184Z" fill="#0080FF"/>
<path d="M39.9079 70.0449H37.3183V72.867H35.8242V75.2574H37.3183V79.5735C37.3183 80.9348 37.5839 81.8976 38.1151 82.462C38.6463 83.0264 39.6091 83.292 40.9371 83.292C41.3687 83.292 41.8004 83.292 42.1988 83.2588H42.3316V80.8684L41.4351 80.9016C40.8043 80.9016 40.4059 80.802 40.2067 80.5696C40.0075 80.3372 39.9079 79.8723 39.9079 79.1751V75.2242H42.3648V72.8338H39.9079V70.0449Z" fill="#0080FF"/>
<path d="M57.2713 68.4844H54.6484V83.2919H57.2713V68.4844Z" fill="#0080FF"/>
<path d="M83.767 79.5737C83.3022 80.1049 82.8042 80.5697 82.439 80.8022C82.0738 81.0346 81.609 81.1674 81.0777 81.1674C80.3141 81.1674 79.6833 80.9018 79.1853 80.3041C78.6873 79.7397 78.4217 78.9761 78.4217 78.1129C78.4217 77.2165 78.6873 76.4861 79.1853 75.9216C79.6833 75.3572 80.3141 75.0584 81.0777 75.0584C81.9078 75.0584 82.8042 75.5896 83.5678 76.4861L85.2942 74.826C84.1654 73.3652 82.7378 72.668 81.0113 72.668C79.5837 72.668 78.3221 73.1992 77.2929 74.2284C76.2636 75.2576 75.7656 76.5525 75.7656 78.1129C75.7656 79.6733 76.2968 80.9682 77.2929 81.9974C78.3221 83.0266 79.5505 83.5578 81.0113 83.5578C82.9038 83.5578 84.431 82.7278 85.4934 81.2338L83.767 79.5737Z" fill="#0080FF"/>
<path d="M94.556 74.328C94.1908 73.7968 93.6928 73.3984 93.062 73.0996C92.4312 72.8008 91.7008 72.6348 90.904 72.6348C89.4431 72.6348 88.2479 73.166 87.3515 74.2284C86.4882 75.2908 86.0234 76.5857 86.0234 78.1461C86.0234 79.7397 86.5215 81.0346 87.4511 82.0306C88.4139 83.0266 89.6755 83.5246 91.236 83.5246C92.9956 83.5246 94.4564 82.7942 95.5521 81.3998L95.6185 81.3334L93.892 79.6733C93.726 79.8725 93.4936 80.0717 93.2944 80.2709C93.0288 80.5033 92.7964 80.7026 92.5308 80.8354C92.1324 81.0346 91.7008 81.1342 91.2028 81.1342C90.4723 81.1342 89.8747 80.935 89.4099 80.5034C88.9783 80.1049 88.7127 79.5737 88.6463 78.9097H95.5853L95.6185 77.9469C95.6185 77.2829 95.5189 76.6189 95.3529 76.0212C95.1868 75.4236 94.9212 74.8592 94.556 74.328ZM88.8123 76.7849C88.9451 76.2868 89.1775 75.8552 89.5095 75.5564C89.8747 75.1912 90.3395 75.0252 90.8708 75.0252C91.5016 75.0252 91.9996 75.1912 92.3316 75.5564C92.6304 75.8884 92.8296 76.2868 92.8628 76.7849H88.8123Z" fill="#0080FF"/>
<path d="M104.617 73.664C103.82 73 102.724 72.6348 101.363 72.6348C100.5 72.6348 99.6697 72.834 98.9393 73.1992C98.2421 73.5312 97.5781 74.1288 97.1465 74.8592L97.1797 74.8924L98.8729 76.4861C99.5701 75.3904 100.334 74.992 101.363 74.992C101.927 74.992 102.359 75.1248 102.724 75.4236C103.056 75.7224 103.255 76.0877 103.255 76.5525V77.0505C102.591 76.8513 101.961 76.7517 101.33 76.7517C100.035 76.7517 98.9725 77.0505 98.1757 77.6481C97.3789 78.2457 96.9805 79.1421 96.9805 80.2709C96.9805 81.267 97.3125 82.0306 98.0097 82.6282C98.7069 83.1926 99.5369 83.4914 100.533 83.4914C101.529 83.4914 102.459 83.093 103.322 82.3958V83.259H105.911V76.5525C105.812 75.324 105.413 74.328 104.617 73.664ZM99.9685 79.3081C100.267 79.1089 100.699 79.0093 101.23 79.0093C101.861 79.0093 102.525 79.1421 103.222 79.3745V80.4037C102.658 80.935 101.894 81.2006 100.965 81.2006C100.5 81.2006 100.168 81.101 99.9021 80.9018C99.6697 80.7025 99.5369 80.4701 99.5369 80.1381C99.5369 79.7729 99.6697 79.5073 99.9685 79.3081Z" fill="#0080FF"/>
<path d="M115.904 73.8632C115.173 73.0332 114.144 72.6348 112.849 72.6348C111.82 72.6348 110.957 72.9336 110.326 73.5312V72.9004H107.77V83.2922H110.392V77.5485C110.392 76.7517 110.592 76.1208 110.957 75.6892C111.322 75.2576 111.82 75.0252 112.517 75.0252C113.115 75.0252 113.546 75.2244 113.878 75.6228C114.21 76.0212 114.376 76.5857 114.376 77.2497V83.2922H116.999V77.2497C116.999 75.822 116.634 74.66 115.904 73.8632Z" fill="#0080FF"/>
<path d="M51.3627 73.664C50.5659 73 49.4703 72.6348 48.1091 72.6348C47.2458 72.6348 46.4158 72.834 45.6854 73.1992C44.9882 73.5312 44.3242 74.1288 43.8926 74.8592L43.9258 74.8924L45.619 76.4861C46.3162 75.3904 47.0798 74.992 48.1091 74.992C48.6735 74.992 49.1051 75.1248 49.4703 75.4236C49.8023 75.7224 50.0015 76.0877 50.0015 76.5525V77.0505C49.3375 76.8513 48.7067 76.7517 48.0759 76.7517C46.781 76.7517 45.7186 77.0505 44.9218 77.6481C44.125 78.2457 43.7266 79.1421 43.7266 80.2709C43.7266 81.267 44.0586 82.0306 44.7558 82.6282C45.453 83.1926 46.283 83.4914 47.279 83.4914C48.2751 83.4914 49.2047 83.093 50.0679 82.3958V83.259H52.6576V76.5525C52.558 75.324 52.1596 74.328 51.3627 73.664ZM46.7146 79.3081C47.0134 79.1089 47.445 79.0093 47.9763 79.0093C48.6071 79.0093 49.2711 79.1421 49.9683 79.3745V80.4037C49.4039 80.935 48.6403 81.2006 47.7107 81.2006C47.2458 81.2006 46.9138 81.101 46.6482 80.9018C46.4158 80.7025 46.283 80.4701 46.283 80.1381C46.283 79.7729 46.4158 79.5073 46.7146 79.3081Z" fill="#0080FF"/>
<path d="M66.8002 83.5243C62.5837 83.5243 59.1641 80.1046 59.1641 75.8881C59.1641 71.6716 62.5837 68.252 66.8002 68.252C71.0167 68.252 74.4364 71.6716 74.4364 75.8881C74.4364 80.1046 71.0167 83.5243 66.8002 83.5243ZM66.8002 70.9412C64.0778 70.9412 61.8533 73.1657 61.8533 75.8881C61.8533 78.6106 64.0778 80.835 66.8002 80.835C69.5227 80.835 71.7471 78.6106 71.7471 75.8881C71.7471 73.1657 69.5227 70.9412 66.8002 70.9412Z" fill="#0080FF"/>
</svg>
