<svg width="107" height="64" viewBox="0 0 107 64" fill="none" xmlns="http://www.w3.org/2000/svg">
<path d="M30.0283 23.1339C30.0283 24.4447 30.1701 25.5075 30.4182 26.2869C30.7017 27.0663 31.0561 27.9166 31.5522 28.8377C31.7294 29.1211 31.8003 29.4045 31.8003 29.6525C31.8003 30.0068 31.5876 30.361 31.1269 30.7153L28.8943 32.2032C28.5753 32.4158 28.2564 32.5221 27.9729 32.5221C27.6185 32.5221 27.2641 32.3449 26.9097 32.0261C26.4136 31.4947 25.9883 30.9279 25.6339 30.361C25.2795 29.7588 24.9251 29.0857 24.5353 28.2708C21.7711 31.5301 18.2981 33.1598 14.1163 33.1598C11.1394 33.1598 8.76499 32.3095 7.02848 30.609C5.29198 28.9085 4.40601 26.6412 4.40601 23.807C4.40601 20.7957 5.46917 18.3512 7.63095 16.509C9.79272 14.6668 12.6633 13.7457 16.3135 13.7457C17.5184 13.7457 18.7588 13.852 20.07 14.0291C21.3812 14.2063 22.7279 14.4897 24.1455 14.8085V12.2224C24.1455 9.52989 23.5785 7.65225 22.4798 6.55401C21.3458 5.45577 19.4321 4.92437 16.7033 4.92437C15.4629 4.92437 14.1871 5.06608 12.8759 5.38492C11.5647 5.70376 10.2889 6.09346 9.0485 6.58944C8.48148 6.83743 8.05621 6.97914 7.80814 7.04999C7.56007 7.12085 7.38287 7.15627 7.24112 7.15627C6.74497 7.15627 6.4969 6.802 6.4969 6.05803V4.32211C6.4969 3.75527 6.56778 3.33015 6.74497 3.08216C6.92217 2.83417 7.24112 2.58618 7.73726 2.33819C8.97762 1.7005 10.4661 1.16909 12.2026 0.743969C13.9391 0.283417 15.7819 0.0708542 17.731 0.0708542C21.9483 0.0708542 25.0314 1.02739 27.016 2.94045C28.9652 4.85351 29.9575 7.75854 29.9575 11.6555V23.1339H30.0283ZM15.6401 28.5188C16.8096 28.5188 18.0145 28.3063 19.2903 27.8811C20.5661 27.456 21.7002 26.6766 22.657 25.6138C23.2241 24.9407 23.6493 24.1967 23.862 23.3465C24.0746 22.4962 24.2164 21.4688 24.2164 20.2643V18.7764C23.1886 18.5284 22.09 18.3158 20.956 18.1741C19.8219 18.0324 18.7233 17.9615 17.6247 17.9615C15.2503 17.9615 13.5138 18.4221 12.3443 19.3786C11.1748 20.3352 10.6078 21.6814 10.6078 23.4527C10.6078 25.1178 11.0331 26.3578 11.9191 27.208C12.7696 28.0937 14.0099 28.5188 15.6401 28.5188ZM44.0976 32.3449C43.4597 32.3449 43.0344 32.2387 42.7509 31.9907C42.4674 31.7781 42.2193 31.2821 42.0067 30.609L33.6785 3.22387C33.4659 2.51532 33.3596 2.05477 33.3596 1.80678C33.3596 1.23995 33.6431 0.921105 34.2101 0.921105H37.6831C38.3565 0.921105 38.8172 1.02739 39.0653 1.27538C39.3488 1.48794 39.5614 1.98392 39.774 2.65703L45.7278 26.1098L51.2562 2.65703C51.4334 1.94849 51.6461 1.48794 51.9296 1.27538C52.2131 1.06281 52.7092 0.921105 53.3471 0.921105H56.1822C56.8556 0.921105 57.3163 1.02739 57.5998 1.27538C57.8833 1.48794 58.1314 1.98392 58.2731 2.65703L63.8725 26.3932L70.0034 2.65703C70.216 1.94849 70.4641 1.48794 70.7122 1.27538C70.9957 1.06281 71.4564 0.921105 72.0943 0.921105H75.3901C75.9571 0.921105 76.2761 1.20452 76.2761 1.80678C76.2761 1.98392 76.2407 2.16105 76.2052 2.37362C76.1698 2.58618 76.0989 2.8696 75.9572 3.25929L67.4164 30.6444C67.2037 31.353 66.9557 31.8135 66.6722 32.0261C66.3886 32.2387 65.9279 32.3804 65.3255 32.3804H62.2777C61.6044 32.3804 61.1437 32.2741 60.8602 32.0261C60.5767 31.7781 60.3286 31.3176 60.1868 30.609L54.6938 7.75854L49.2362 30.5736C49.059 31.2821 48.8464 31.7427 48.5629 31.9907C48.2794 32.2387 47.7832 32.3449 47.1453 32.3449H44.0976ZM89.6366 33.3015C87.7937 33.3015 85.9509 33.0889 84.179 32.6638C82.407 32.2387 81.0249 31.7781 80.1035 31.2467C79.5365 30.9279 79.1467 30.5736 79.0049 30.2547C78.8631 29.9359 78.7923 29.5816 78.7923 29.2628V27.456C78.7923 26.712 79.0758 26.3578 79.6074 26.3578C79.82 26.3578 80.0326 26.3932 80.2453 26.464C80.4579 26.5349 80.7768 26.6766 81.1312 26.8183C82.3362 27.3497 83.6474 27.7749 85.0295 28.0583C86.4471 28.3417 87.8292 28.4834 89.2467 28.4834C91.4794 28.4834 93.2159 28.0937 94.4208 27.3143C95.6257 26.5349 96.2636 25.4012 96.2636 23.9487C96.2636 22.9568 95.9447 22.1419 95.3068 21.4688C94.6689 20.7957 93.464 20.1934 91.7275 19.6266L86.5888 18.0324C84.0018 17.2176 82.0881 16.0131 80.9186 14.4188C79.7491 12.86 79.1467 11.1241 79.1467 9.2819C79.1467 7.79396 79.4656 6.48316 80.1035 5.34949C80.7414 4.21583 81.5919 3.22387 82.6551 2.44447C83.7183 1.62965 84.9232 1.02739 86.3408 0.602261C87.7583 0.177135 89.2467 0 90.8061 0C91.5857 0 92.4008 0.0354271 93.1805 0.141708C93.9956 0.24799 94.7398 0.389698 95.484 0.531407C96.1928 0.708542 96.8661 0.885678 97.504 1.09824C98.1419 1.3108 98.638 1.52337 98.9924 1.73593C99.4886 2.01934 99.843 2.30276 100.056 2.62161C100.268 2.90502 100.375 3.29472 100.375 3.7907V5.45577C100.375 6.19974 100.091 6.58944 99.5595 6.58944C99.276 6.58944 98.8152 6.44773 98.2128 6.16432C96.1928 5.24321 93.9247 4.78266 91.4085 4.78266C89.3885 4.78266 87.7937 5.1015 86.6951 5.77462C85.5965 6.44773 85.0295 7.47512 85.0295 8.92763C85.0295 9.91959 85.3839 10.7698 86.0927 11.443C86.8015 12.1161 88.1127 12.7892 89.991 13.3914L95.0233 14.9857C97.5749 15.8005 99.4177 16.9342 100.516 18.3867C101.615 19.8392 102.146 21.5043 102.146 23.3465C102.146 24.8698 101.828 26.2515 101.225 27.456C100.587 28.6605 99.7367 29.7233 98.638 30.5736C97.5394 31.4593 96.2282 32.097 94.7043 32.5575C93.1096 33.0535 91.444 33.3015 89.6366 33.3015Z" fill="#252F3E"/>
<path fill-rule="evenodd" clip-rule="evenodd" d="M96.3343 50.5202C84.6749 59.1289 67.7351 63.699 53.1697 63.699C32.7569 63.699 14.3641 56.1531 0.472052 43.6119C-0.626554 42.6199 0.365736 41.2737 1.67698 42.0531C16.7031 50.7682 35.2376 56.0468 54.4101 56.0468C67.3453 56.0468 81.5563 53.3543 94.6332 47.8277C96.5824 46.942 98.248 49.1031 96.3343 50.5202Z" fill="#FF9900"/>
<path fill-rule="evenodd" clip-rule="evenodd" d="M101.192 44.9923C99.7031 43.0793 91.3395 44.0712 87.5475 44.5318C86.4135 44.6735 86.2363 43.6815 87.264 42.9376C93.9265 38.2612 104.877 39.6074 106.153 41.1662C107.429 42.7604 105.799 53.7074 99.5613 58.9506C98.6045 59.7654 97.6831 59.3403 98.1083 58.2775C99.5259 54.7702 102.68 46.87 101.192 44.9923Z" fill="#FF9900"/>
</svg>
