<svg width="121" height="84" viewBox="0 0 121 84" fill="none" xmlns="http://www.w3.org/2000/svg">
<mask id="mask0_746_37415" style="mask-type:luminance" maskUnits="userSpaceOnUse" x="0" y="0" width="121" height="84">
<path d="M0 0H120.19V84H0V0Z" fill="white"/>
</mask>
<g mask="url(#mask0_746_37415)">
<path fill-rule="evenodd" clip-rule="evenodd" d="M49.905 9.19624C53.7846 5.1554 59.1843 2.65308 65.1496 2.65308C73.1034 2.65308 79.9966 7.07413 83.7083 13.6615C87.0031 12.1879 90.5718 11.427 94.1808 11.4289C108.497 11.4289 120.119 23.1447 120.119 37.6015C120.119 52.0583 108.497 63.7741 94.1808 63.7741C92.4309 63.7741 90.7253 63.5982 89.055 63.2657C85.8073 69.0573 79.5989 72.992 72.5289 72.992C69.6505 72.9977 66.8089 72.3444 64.2217 71.0821C60.9297 78.819 53.2632 84.2569 44.3374 84.2569C35.0138 84.2569 27.1043 78.3769 24.0554 70.1095C22.6984 70.396 21.3152 70.5401 19.9283 70.5392C8.83723 70.5392 -0.132812 61.4319 -0.132812 50.2466C-0.132812 42.7308 3.90591 36.1876 9.89773 32.6508C8.62656 29.721 7.97225 26.5606 7.97557 23.3666C7.97557 10.4571 18.448 0.0234375 31.3507 0.0234375C38.9067 0.0234375 45.6674 3.6266 49.9094 9.21923" fill="#00A1E0"/>
</g>
<path fill-rule="evenodd" clip-rule="evenodd" d="M17.3867 43.6794C17.3111 43.8766 17.4137 43.9177 17.438 43.9526C17.6638 44.1162 17.8931 44.2347 18.1229 44.3677C19.3513 45.0176 20.509 45.2077 21.7197 45.2077C24.1854 45.2077 25.7187 43.8947 25.7187 41.7814V41.7399C25.7187 39.7858 23.9865 39.074 22.3693 38.5655L22.1576 38.497C20.9336 38.1 19.8775 37.7543 19.8775 36.9497V36.9085C19.8775 36.2189 20.4962 35.7104 21.4506 35.7104C22.5111 35.7104 23.7749 36.0637 24.5835 36.5106C24.5835 36.5106 24.823 36.6654 24.91 36.4342C24.9573 36.309 25.3696 35.2051 25.4138 35.0813C25.4606 34.9518 25.3784 34.8541 25.294 34.8037C24.3661 34.2378 23.0847 33.8531 21.759 33.8531L21.5129 33.854C19.2549 33.854 17.6775 35.2201 17.6775 37.1742V37.2162C17.6775 39.2765 19.4184 39.9485 21.0445 40.4127L21.3061 40.494C22.4903 40.8583 23.5155 41.1748 23.5155 42.006V42.0476C23.5155 42.8124 22.8483 43.3827 21.7789 43.3827C21.3631 43.3827 20.0379 43.3756 18.6019 42.4676C18.4282 42.3663 18.3292 42.2934 18.1953 42.2116C18.1246 42.1687 17.9479 42.0913 17.871 42.323L17.3849 43.6758M53.486 43.6758C53.4105 43.873 53.513 43.9141 53.5382 43.9491C53.7631 44.1126 53.9933 44.2311 54.2231 44.3642C55.4515 45.0141 56.6092 45.2042 57.8199 45.2042C60.2856 45.2042 61.8189 43.8911 61.8189 41.7779V41.7363C61.8189 39.7822 60.0912 39.0704 58.4695 38.562L58.2578 38.4935C57.0338 38.0965 55.9778 37.7507 55.9778 36.9461V36.905C55.9778 36.2153 56.5964 35.7069 57.5508 35.7069C58.6113 35.7069 59.8707 36.0601 60.6837 36.5071C60.6837 36.5071 60.9232 36.6618 61.0107 36.4306C61.0575 36.3055 61.4703 35.2016 61.51 35.0778C61.5573 34.9482 61.4747 34.8505 61.3907 34.8001C60.4628 34.2342 59.1813 33.8496 57.8557 33.8496L57.6092 33.8505C55.3512 33.8505 53.7737 35.2166 53.7737 37.1707V37.2127C53.7737 39.2729 55.5147 39.9449 57.1408 40.4091L57.4019 40.4905C58.5906 40.8548 59.6113 41.1713 59.6113 42.0025V42.044C59.6113 42.8089 58.9441 43.3792 57.8747 43.3792C57.458 43.3792 56.1293 43.3721 54.6977 42.464C54.524 42.3628 54.4224 42.2929 54.2907 42.208C54.2461 42.1798 54.0379 42.0984 53.9668 42.3195L53.4807 43.6723M78.1373 39.5342C78.1373 40.7279 77.9146 41.6696 77.4789 42.3371C77.0441 42.9959 76.3875 43.3186 75.4728 43.3186C74.5581 43.3186 73.9041 42.9985 73.4755 42.3416C73.0438 41.6784 72.826 40.7323 72.826 39.5386C72.826 38.3449 73.0451 37.4077 73.4755 36.7489C73.9033 36.0946 74.5537 35.7807 75.4728 35.7807C76.3919 35.7807 77.0459 36.0977 77.4789 36.7489C77.9172 37.4077 78.1373 38.3449 78.1373 39.5386M80.1964 37.3237C79.9936 36.6384 79.6794 36.0371 79.2597 35.5331C78.8394 35.0291 78.3096 34.6224 77.6777 34.3306C77.0503 34.0366 76.3079 33.8885 75.4684 33.8885C74.6288 33.8885 73.8909 34.0375 73.259 34.3306C72.6315 34.6242 72.0969 35.0291 71.6771 35.5331C71.2582 36.0371 70.9436 36.6384 70.7403 37.3237C70.5393 38.0045 70.4372 38.7472 70.4372 39.5386C70.4372 40.33 70.5393 41.0727 70.7403 41.7536C70.9423 42.4388 71.2573 43.0401 71.6771 43.5441C72.0973 44.0481 72.6315 44.4504 73.259 44.7378C73.8909 45.0243 74.6332 45.1702 75.4684 45.1702C76.3035 45.1702 77.0459 45.0243 77.6733 44.7378C78.3008 44.4513 78.8355 44.0481 79.2552 43.5441C79.6746 43.0401 79.9887 42.4388 80.192 41.7536C80.3926 41.0727 80.4947 40.33 80.4947 39.5386C80.4947 38.7517 80.3926 38.0045 80.192 37.3237M97.1158 42.9826C97.0482 42.7823 96.8529 42.8579 96.8529 42.8579C96.5537 42.9725 96.2342 43.0786 95.894 43.1316C95.5511 43.1855 95.1693 43.2125 94.7672 43.2125C93.773 43.2125 92.9776 42.9159 92.412 42.3283C91.842 41.7403 91.5239 40.7942 91.5283 39.5121C91.5314 38.3449 91.8133 37.4696 92.3192 36.7976C92.8186 36.1344 93.5874 35.7896 94.6037 35.7896C95.4521 35.7896 96.1017 35.8882 96.7822 36.1012C96.7822 36.1012 96.9435 36.1715 97.0208 35.9589C97.2015 35.4593 97.335 35.1012 97.5289 34.553C97.5837 34.396 97.4494 34.3297 97.4003 34.3107C97.1335 34.2064 96.5033 34.0353 96.0261 33.9632C95.5798 33.8951 95.0628 33.8598 94.4796 33.8598C93.6135 33.8598 92.8446 34.0079 92.1862 34.3014C91.5278 34.5946 90.9711 35 90.5292 35.504C90.0873 36.008 89.7515 36.6092 89.5262 37.2945C89.303 37.9753 89.1903 38.7225 89.1903 39.5139C89.1903 41.2204 89.6499 42.6042 90.5601 43.6166C91.4704 44.6334 92.8402 45.1463 94.6254 45.1463C95.6815 45.1463 96.7641 44.9327 97.5417 44.6246C97.5417 44.6246 97.6902 44.553 97.6257 44.3797L97.1175 42.9826M100.719 38.3847C100.817 37.7216 100.999 37.1689 101.284 36.7401C101.712 36.0858 102.363 35.7277 103.277 35.7277C104.192 35.7277 104.797 36.0875 105.23 36.7401C105.518 37.1711 105.643 37.7437 105.69 38.3847L100.697 38.3838L100.719 38.3847ZM107.656 36.9258C107.481 36.267 107.046 35.5995 106.764 35.2944C106.313 34.8125 105.875 34.4721 105.438 34.2864C104.806 34.0177 104.127 33.8798 103.441 33.881C102.57 33.881 101.779 34.0282 101.139 34.3275C100.498 34.629 99.9588 35.0393 99.5346 35.5522C99.1108 36.065 98.7923 36.6707 98.589 37.3648C98.3857 38.05 98.2832 38.8016 98.2832 39.5886C98.2832 40.3932 98.3897 41.1404 98.5992 41.8168C98.8108 42.4976 99.1515 43.0945 99.611 43.5896C100.071 44.0892 100.658 44.4783 101.365 44.7524C102.068 45.0243 102.921 45.1653 103.897 45.1622C105.912 45.1556 106.973 44.7068 107.406 44.4637C107.483 44.4203 107.556 44.3456 107.465 44.1303L107.01 42.8526C106.94 42.6621 106.747 42.7311 106.747 42.7311C106.248 42.9176 105.541 43.2527 103.884 43.2483C102.801 43.2466 102.002 42.9269 101.498 42.426C100.985 41.9132 100.729 41.166 100.689 40.105L107.671 40.1103C107.671 40.1103 107.855 40.1085 107.874 39.929C107.881 39.8547 108.113 38.4966 107.666 36.9271L107.656 36.9258ZM44.9101 38.3847C45.0087 37.7216 45.1907 37.1689 45.4757 36.7401C45.9035 36.0858 46.5539 35.7277 47.4686 35.7277C48.3833 35.7277 48.9886 36.0875 49.4217 36.7401C49.7085 37.1711 49.8339 37.7437 49.8812 38.3847L44.8881 38.3838L44.9101 38.3847ZM51.8476 36.9258C51.6726 36.267 51.2378 35.5995 50.955 35.2944C50.5043 34.8125 50.0668 34.4721 49.6294 34.2864C48.9978 34.0177 48.3184 33.8798 47.6321 33.881C46.7616 33.881 45.9706 34.0282 45.3299 34.3275C44.6892 34.629 44.1501 35.0393 43.7259 35.5522C43.3031 36.065 42.9836 36.6707 42.7803 37.3648C42.5775 38.05 42.4754 38.8016 42.4754 39.5886C42.4754 40.3932 42.581 41.1404 42.7918 41.8168C43.003 42.4976 43.3441 43.0945 43.7993 43.5896C44.2588 44.0892 44.8465 44.4783 45.5535 44.7524C46.2561 45.0243 47.1045 45.1653 48.0854 45.1622C50.1004 45.1556 51.1609 44.7068 51.5939 44.4637C51.6708 44.4203 51.7442 44.3456 51.6527 44.1303L51.1976 42.8526C51.1273 42.6621 50.9347 42.7311 50.9347 42.7311C50.4353 42.9176 49.7283 43.2527 48.0713 43.2483C46.9931 43.2466 46.1889 42.9269 45.6852 42.426C45.1726 41.9132 44.9163 41.166 44.8766 40.105L51.8582 40.1103C51.8582 40.1103 52.042 40.1085 52.061 39.929C52.0685 39.8547 52.3 38.4966 51.8524 36.9271L51.8476 36.9258ZM29.8422 42.9384C29.5687 42.72 29.5307 42.6665 29.4401 42.5246C29.3018 42.3111 29.2311 42.0073 29.2311 41.6183C29.2311 41.0082 29.4344 40.5661 29.8542 40.2699C29.8498 40.2707 30.4551 39.7482 31.878 39.7659C32.5113 39.7772 33.1431 39.8311 33.7692 39.9272V43.0971H33.7701C33.7701 43.0971 32.8863 43.2877 31.8877 43.3478C30.4693 43.4331 29.8418 42.9393 29.8462 42.9406L29.8422 42.9384ZM32.6172 38.031C32.3344 38.0103 31.9677 38.0001 31.5302 38.0001C30.9337 38.0001 30.3548 38.0744 29.8157 38.2203C29.2722 38.367 28.7817 38.5943 28.362 38.8967C27.941 39.1971 27.5948 39.5904 27.3501 40.0462C27.1031 40.5059 26.9771 41.0453 26.9771 41.6554C26.9771 42.2744 27.0845 42.8093 27.2966 43.247C27.5044 43.6811 27.8173 44.0565 28.2069 44.339C28.5944 44.6211 29.0729 44.8297 29.6253 44.9535C30.1732 45.0786 30.7918 45.1419 31.4723 45.1419C32.1882 45.1419 32.8996 45.0817 33.5889 44.9655C34.176 44.8641 34.7609 44.7504 35.3431 44.6242C35.5756 44.5707 35.8336 44.5004 35.8336 44.5004C36.0059 44.4566 35.9927 44.2722 35.9927 44.2722L35.9887 37.9059C35.9887 36.5089 35.6158 35.4699 34.8796 34.8289C34.1461 34.1878 33.0723 33.8651 31.6804 33.8651C31.159 33.8651 30.315 33.9358 29.8113 34.0371C29.8113 34.0371 28.2913 34.3324 27.6638 34.824C27.6638 34.824 27.5259 34.9089 27.6011 35.1012L28.096 36.4275C28.1574 36.5995 28.3249 36.5407 28.3249 36.5407C28.3249 36.5407 28.3774 36.5199 28.4393 36.4832C29.7782 35.7538 31.475 35.7759 31.475 35.7759C32.2262 35.7759 32.8094 35.9284 33.1983 36.2268C33.5787 36.519 33.7727 36.9607 33.7727 37.8891V38.184C33.1762 38.0974 32.6238 38.0474 32.6238 38.0474L32.6172 38.031ZM88.7352 34.4367C88.7452 34.4134 88.7505 34.3883 88.7507 34.3629C88.7508 34.3375 88.7458 34.3124 88.7361 34.2889C88.7263 34.2655 88.7119 34.2443 88.6938 34.2265C88.6756 34.2088 88.6541 34.1949 88.6305 34.1856C88.5116 34.1405 87.9191 34.0154 87.4639 33.9871C86.589 33.9323 86.103 34.0799 85.6655 34.2762C85.2334 34.4712 84.7552 34.7847 84.4901 35.1472L84.4892 34.2983C84.4892 34.1816 84.4066 34.0875 84.2891 34.0875H82.5039C82.3881 34.0875 82.3042 34.1816 82.3042 34.2983V44.6878C82.3043 44.7439 82.3266 44.7977 82.3663 44.8374C82.406 44.8771 82.4597 44.8995 82.5158 44.8996H84.3452C84.4012 44.8995 84.455 44.8771 84.4946 44.8374C84.5342 44.7977 84.5564 44.7439 84.5564 44.6878V39.471C84.5564 38.7724 84.6333 38.0783 84.7866 37.6407C84.9377 37.2078 85.1432 36.8626 85.3964 36.615C85.638 36.3759 85.9335 36.1984 86.2581 36.0977C86.5626 36.0103 86.878 35.9659 87.1948 35.966C87.5594 35.966 87.9593 36.0597 87.9593 36.0597C88.0936 36.0747 88.1683 35.9925 88.2138 35.8714C88.3335 35.5526 88.6733 34.5981 88.7396 34.408" fill="#FFFFFE"/>
<path fill-rule="evenodd" clip-rule="evenodd" d="M71.6467 29.6435C71.4206 29.5752 71.1905 29.5205 70.9578 29.48C70.6448 29.4277 70.3278 29.4031 70.0104 29.4066C68.7498 29.4066 67.756 29.7629 67.0583 30.4667C66.3654 31.1653 65.8939 32.2294 65.6575 33.6296L65.5722 34.1022H63.9899C63.9899 34.1022 63.7968 34.0942 63.7561 34.3051L63.4963 35.7552C63.4782 35.894 63.5379 35.9807 63.7234 35.9798H65.2638L63.7009 44.7083C63.5785 45.4112 63.4384 45.9895 63.2833 46.4276C63.1305 46.86 62.9811 47.1841 62.7973 47.4193C62.6192 47.6469 62.4504 47.8145 62.1592 47.9122C61.9188 47.9931 61.6422 48.0303 61.3391 48.0303C61.1703 48.0303 60.9458 48.002 60.7801 47.9688C60.6144 47.9361 60.5283 47.8989 60.4041 47.8468C60.4041 47.8468 60.2234 47.7778 60.1522 47.9591C60.0943 48.1072 59.6838 49.2368 59.6352 49.3765C59.5857 49.5144 59.6551 49.6232 59.7426 49.6545C59.9476 49.7279 60.1001 49.7748 60.3793 49.8407C60.7673 49.9322 61.0943 49.9379 61.4005 49.9379C62.0421 49.9379 62.6267 49.8477 63.1115 49.6727C63.5993 49.4963 64.0239 49.189 64.3995 48.773C64.8056 48.3243 65.061 47.8543 65.3054 47.2132C65.5471 46.5779 65.753 45.7892 65.9178 44.8701L67.4882 35.9798H69.7842C69.7842 35.9798 69.9777 35.9869 70.0179 35.7769L70.2778 34.3268C70.2959 34.1879 70.2367 34.1013 70.0502 34.1022H67.8218C67.8329 34.0518 67.9341 33.2675 68.1899 32.5292C68.2991 32.2139 68.5045 31.9597 68.6786 31.7851C68.8412 31.6188 69.0414 31.4941 69.2623 31.4217C69.5045 31.3468 69.757 31.3104 70.0104 31.3138C70.2203 31.3138 70.4262 31.339 70.5831 31.3717C70.7992 31.4177 70.8831 31.442 70.9397 31.4588C71.1668 31.5282 71.1973 31.461 71.2419 31.3509L71.7748 29.8867C71.8296 29.7293 71.6962 29.663 71.6467 29.6435ZM40.5061 44.7268C40.5061 44.8436 40.423 44.9386 40.3063 44.9386H38.458C38.3409 44.9386 38.2578 44.8436 38.2578 44.7268V29.842C38.2578 29.7258 38.3409 29.6316 38.458 29.6316H40.3063C40.423 29.6316 40.5061 29.7258 40.5061 29.842V44.7268Z" fill="#FFFFFE"/>
</svg>
