<svg width="82" height="100" viewBox="0 0 82 100" fill="none" xmlns="http://www.w3.org/2000/svg">
<g clip-path="url(#clip0_746_37479)">
<path d="M82.0006 43.8548L62.0926 44.6789L49.1875 43.8564L70.5331 41.8125L82.0006 43.8548Z" fill="#634B1E"/>
<path d="M70.4856 42.7053L81.9993 43.8548V20.6839L70.4856 14.9316L69.6016 15.8853V41.7194L70.4856 42.7053Z" fill="#D9A740"/>
<path d="M49.1875 20.6714L70.487 14.9121V42.7063L49.1875 43.8574V20.6714Z" fill="#886A2A"/>
<path d="M0 43.856L19.9081 44.6801L32.8131 43.8576L11.5284 41.5801L0 43.856Z" fill="#634B1E"/>
<path d="M11.5136 42.7063L0 43.8216V20.5805L11.5136 14.8379L12.0437 15.8271V41.8381L11.5136 42.7063Z" fill="#886A2A"/>
<path d="M32.8112 20.6714L11.5117 14.9121V42.7063L32.8112 43.8574V20.6714Z" fill="#D9A740"/>
<path d="M82.0006 55.838L62.0926 55.0137L49.1875 55.8364L70.4402 57.9828L82.0006 55.838Z" fill="#FAD791"/>
<path d="M70.4876 56.9874L82.0012 55.8379V79.0085L70.4876 84.7608L69.8828 83.4452V58.1695L70.4876 56.9874Z" fill="#D9A740"/>
<path d="M49.1875 79.0219L70.487 84.7812V56.987L49.1875 55.8359V79.0219Z" fill="#886A2A"/>
<path d="M0 55.838L19.9081 55.0137L32.8131 55.8364L11.3743 58.1687L0 55.838Z" fill="#FAD791"/>
<path d="M11.5136 56.9874L0 55.8379V79.0085L11.5136 84.7608L12.2116 83.7239V58.1686L11.5136 56.9874Z" fill="#886A2A"/>
<path d="M32.8112 79.0219L11.5117 84.7812V56.987L32.8112 55.8359V79.0219Z" fill="#D9A740"/>
<path d="M30.6094 34.1234L41.1688 32.2734L62.2498 35.2556L64.0657 36.2992L53.8266 37.4186L30.6094 34.1234Z" fill="#634B1E"/>
<path d="M51.3938 34.1234L40.8344 32.2734L18.8456 35.6822L17.9375 36.2992L28.1766 37.4186L51.3938 34.1234Z" fill="#634B1E"/>
<path d="M30.6094 65.5706L41.1688 67.4206L62.1967 64.4828L64.0657 63.3948L53.8266 62.2754L30.6094 65.5706Z" fill="#FAD791"/>
<path d="M51.3938 65.5706L40.8344 67.4206L18.6854 64.2694L17.9375 63.3948L28.1766 62.2754L51.3938 65.5706Z" fill="#FAD791"/>
<path d="M64.0624 36.2988V24.8464L53.2637 21.3183V6.32883L40.9993 0.203125L40.4877 1.01724L40.3945 97.8497L40.9993 99.0948L53.2637 92.9691V78.3755L64.0624 74.8474V63.395L53.2637 65.2943V34.3995L64.0624 36.2988Z" fill="#D9A740"/>
<path d="M28.7362 6.32883V21.3183L17.9375 24.8464V36.2988L28.7362 34.3995V65.2943L17.9375 63.395V74.8474L28.7362 78.3755V92.9691L41.0006 99.0948V0.203125L28.7362 6.32883Z" fill="#886A2A"/>
</g>
<defs>
<clipPath id="clip0_746_37479">
<rect width="82" height="99.2044" fill="white"/>
</clipPath>
</defs>
</svg>
