<svg width="82" height="82" viewBox="0 0 82 82" fill="none" xmlns="http://www.w3.org/2000/svg">
<path d="M70.7321 3.74764C62.2102 -2.23208 50.9913 -0.807451 40.9852 6.25347C31.0109 -0.807451 19.785 -2.23208 11.2736 3.74764C-2.19047 13.1969 -3.8273 37.5331 7.62065 58.1064C16.0593 73.2742 29.2557 82.1615 41.0028 81.9978C52.7499 82.1618 65.9462 73.2742 74.3848 58.1066C85.8192 37.5331 84.1964 13.1972 70.7321 3.74764ZM13.8106 53.7623C11.45 49.5596 9.66889 44.9801 8.52776 40.1792C7.51401 36.0119 7.12644 31.6839 7.38099 27.3733C7.8921 19.7699 10.648 13.8488 15.1382 10.6991C19.6287 7.54931 25.5648 7.35805 31.8867 10.176C32.8354 10.6014 33.7739 11.0934 34.7053 11.6358C31.1922 15.2332 28.1375 19.3573 25.6273 23.8917C18.6763 36.3817 16.5562 50.2807 18.9823 61.3618C17.0479 59.0183 15.3162 56.4737 13.8106 53.7623ZM73.4814 40.1756C72.3387 44.9759 70.5577 49.5552 68.1985 53.7587C66.6916 56.4739 64.9601 59.0235 63.0269 61.3736C65.1958 51.44 63.722 39.27 58.4046 27.8573C58.3196 27.6693 58.2005 27.5034 58.055 27.3704C57.9094 27.2373 57.7406 27.1401 57.5594 27.0849C57.3783 27.0297 57.1888 27.0178 57.0033 27.05C56.8178 27.0822 56.6404 27.1577 56.4825 27.2717L39.9046 38.9032C39.7534 39.0091 39.6223 39.1476 39.5188 39.3105C39.4152 39.4734 39.3413 39.6577 39.3013 39.8528C39.2613 40.0478 39.2559 40.2498 39.2854 40.4472C39.315 40.6446 39.379 40.8335 39.4736 41.0031L41.9065 45.3708C42.0005 45.5405 42.1235 45.6876 42.2682 45.8038C42.413 45.92 42.5768 46.0029 42.7502 46.0479C42.9235 46.0928 43.1031 46.0989 43.2786 46.0657C43.4541 46.0326 43.622 45.9608 43.7727 45.8546L54.5188 38.3138C54.8665 39.4847 55.214 40.6556 55.4747 41.8267C56.4883 45.9887 56.877 50.3113 56.6251 54.6173C56.114 62.2167 53.3581 68.1376 48.8679 71.2915C46.5518 72.8818 43.8979 73.7444 41.1834 73.7893H40.8396C38.1251 73.7454 35.471 72.8826 33.1552 71.2915C28.6613 68.1376 25.9052 62.2167 25.3945 54.6173C25.1415 50.3066 25.529 45.9786 26.5413 41.8108C28.8706 32.1687 33.6854 23.5147 40.3807 16.9364C43.268 14.09 46.5567 11.8027 50.1122 10.168C56.4166 7.34985 62.3631 7.53725 66.8569 10.6911C71.3508 13.8447 74.1033 19.7617 74.6142 27.3653C74.872 31.6764 74.4893 36.0058 73.4814 40.1756Z" fill="#1BDBDB"/>
</svg>
