<svg width="82" height="82" viewBox="0 0 82 82" fill="none" xmlns="http://www.w3.org/2000/svg">
<path d="M81.2039 61.5911C74.538 65.3472 66.7997 67.4325 58.5729 67.2624C34.323 66.7694 15.055 46.9197 15.5303 22.9383C15.7006 14.7938 18.1115 7.23485 22.1882 0.804688C9.20472 8.12577 0.331084 21.8167 0.0087624 37.6639C-0.471024 61.6488 18.8123 81.4966 43.069 81.9912C59.0849 82.32 73.2824 74.1194 81.2039 61.5907" fill="#1F3244"/>
<path d="M57.9757 61.8923C58.2435 61.8971 58.5128 61.902 58.7822 61.902C65.0896 61.902 71.3112 60.3247 76.8426 57.3561C80.1023 51.713 82 45.1633 82 38.1496C82 17.084 65.1338 0 44.3235 0C37.7628 0 31.5963 1.70501 26.2266 4.69136C22.7521 10.3363 20.8454 16.8212 20.7064 23.4662C20.2949 44.2225 37.0121 61.465 57.9757 61.8923Z" fill="#3E95BE"/>
</svg>
