<svg width="91" height="70" viewBox="0 0 91 70" fill="none" xmlns="http://www.w3.org/2000/svg">
<path d="M41.8133 66.2617C53.4254 64.2106 63.0163 62.5133 63.1265 62.49L63.3267 62.4475L52.3638 49.4087C46.3342 42.2373 41.4008 36.342 41.4008 36.308C41.4008 36.2437 52.721 5.0733 52.7846 4.96241C52.8059 4.92533 60.5096 18.2243 71.459 37.2001C81.7099 54.9655 90.1614 69.6132 90.2399 69.7504L90.3828 70L55.5416 69.9955L20.7004 69.991L41.8133 66.2617ZM0 62.2855C0 62.2672 5.16569 53.3008 11.4793 42.3602L22.9586 22.4683L36.3364 11.2427C43.6942 5.06856 49.7341 0.00948015 49.7583 0.00025361C49.7825 -0.0089711 49.6857 0.234615 49.5432 0.541558C49.4007 0.848502 42.8638 14.8681 35.0168 31.6962L20.7495 62.2929L10.3747 62.3059C4.66863 62.313 0 62.3039 0 62.2855Z" fill="#0089D6"/>
</svg>
