<svg width="82" height="66" viewBox="0 0 82 66" fill="none" xmlns="http://www.w3.org/2000/svg">
<path d="M52.0327 18.1759H54.5338L61.6617 11.0466L62.0118 8.01971C57.9285 4.41489 52.9938 1.91076 47.6739 0.743844C42.3539 -0.423069 36.8244 -0.214231 31.6076 1.35063C26.3908 2.91549 21.6589 5.78471 17.8591 9.68726C14.0592 13.5898 11.3167 18.3968 9.89062 23.6543C10.6847 23.3287 11.5643 23.2759 12.3916 23.5042L26.6474 21.1527C26.6474 21.1527 27.3727 19.952 27.7479 20.027C30.8024 16.6717 35.0238 14.611 39.5477 14.2668C44.0716 13.9227 48.556 15.3212 52.0828 18.1759H52.0327Z" fill="#EA4335"/>
<path d="M71.8164 23.6545C70.178 17.6199 66.8142 12.1948 62.1375 8.04492L52.1334 18.051C54.2184 19.755 55.8893 21.9102 57.02 24.3542C58.1508 26.7982 58.7119 29.4671 58.6611 32.1597V33.9357C59.8303 33.9357 60.9881 34.1661 62.0683 34.6136C63.1486 35.0612 64.1301 35.7171 64.9569 36.5441C65.7837 37.371 66.4395 38.3528 66.887 39.4332C67.3344 40.5137 67.5647 41.6717 67.5647 42.8412C67.5647 44.0107 67.3344 45.1687 66.887 46.2491C66.4395 47.3296 65.7837 48.3113 64.9569 49.1383C64.1301 49.9652 63.1486 50.6212 62.0683 51.0687C60.9881 51.5163 59.8303 51.7466 58.6611 51.7466H40.8538L39.0781 53.5477V64.2292L40.8538 66.0053H58.6611C63.6337 66.044 68.4867 64.4809 72.5022 61.547C76.5178 58.6132 79.4825 54.4645 80.9579 49.7147C82.4334 44.9649 82.3411 39.8662 80.6948 35.1729C79.0484 30.4797 75.9355 26.441 71.8164 23.6545Z" fill="#4285F4"/>
<path d="M23.0197 65.9049H40.827V51.6462H23.0197C21.7511 51.6459 20.4973 51.3729 19.3432 50.8457L16.8422 51.6212L9.66432 58.7505L9.03906 61.2521C13.0643 64.2922 17.9759 65.9268 23.0197 65.9049Z" fill="#34A853"/>
<path d="M23.0211 19.6525C18.1962 19.6813 13.5007 21.2167 9.5906 24.0442C5.68046 26.8717 2.75088 30.85 1.21105 35.4237C-0.328792 39.9973 -0.401995 44.9377 1.00166 49.555C2.40532 54.1723 5.21574 58.2357 9.04039 61.1779L19.3696 50.8465C18.057 50.2534 16.9078 49.3506 16.0207 48.2155C15.1336 47.0805 14.5351 45.7472 14.2765 44.3299C14.0179 42.9126 14.1069 41.4538 14.5359 40.0785C14.9649 38.7032 15.7211 37.4526 16.7396 36.4339C17.7581 35.4151 19.0085 34.6588 20.3835 34.2297C21.7585 33.8006 23.2171 33.7116 24.634 33.9702C26.051 34.2289 27.3841 34.8275 28.5189 35.7148C29.6537 36.6021 30.5563 37.7515 31.1494 39.0644L41.4786 28.733C39.3106 25.8982 36.5163 23.6034 33.3143 22.0281C30.1123 20.4528 26.5894 19.6398 23.0211 19.6525Z" fill="#FBBC05"/>
</svg>
