<svg width="82" height="82" viewBox="0 0 82 82" fill="none" xmlns="http://www.w3.org/2000/svg">
<path d="M76.5928 33.5622C78.4782 27.9784 77.8289 21.8615 74.8139 16.7826C70.2795 8.99239 61.1641 4.98455 52.2617 6.87059C48.3013 2.46812 42.6113 -0.0354954 36.646 0.000380343C27.5462 -0.0201201 19.4722 5.761 16.6727 14.3046C10.8269 15.4859 5.78093 19.0965 2.82816 24.214C-1.73992 31.9836 -0.698535 41.7777 5.40437 48.4404C3.51896 54.0242 4.16821 60.141 7.1833 65.22C11.7176 73.0101 20.833 77.018 29.7355 75.1319C33.6933 79.5344 39.3859 82.038 45.3511 81.9996C54.4561 82.0226 62.5327 76.2364 65.3323 67.6851C71.1781 66.5038 76.224 62.8932 79.1768 57.7757C83.7397 50.0061 82.6957 40.2197 76.5954 33.557L76.5928 33.5622ZM45.3563 76.6413C41.7127 76.6464 38.1835 75.3882 35.3865 73.0844C35.5138 73.0178 35.7345 72.8974 35.8773 72.8103L52.4253 63.38C53.2719 62.906 53.7913 62.0168 53.7861 61.0558V38.0364L60.7798 42.0212C60.8551 42.057 60.9044 42.1288 60.9148 42.2108V61.2736C60.9044 69.7506 53.9471 76.6233 45.3563 76.6413ZM11.8968 62.5395C10.0711 59.4286 9.41411 55.7821 10.04 52.2432C10.162 52.3149 10.3776 52.4456 10.5308 52.5328L27.0788 61.963C27.9176 62.4473 28.9564 62.4473 29.7978 61.963L49.9997 50.452V58.4215C50.0049 58.5035 49.966 58.5829 49.901 58.6342L33.1739 68.1643C25.7231 72.3977 16.2078 69.8812 11.8994 62.5395H11.8968ZM7.54168 26.897C9.35957 23.7809 12.2292 21.3977 15.6469 20.16C15.6469 20.3009 15.6391 20.5495 15.6391 20.7238V39.5867C15.6339 40.5451 16.1533 41.4343 16.9973 41.9084L37.1992 53.4168L30.2055 57.4016C30.1354 57.4477 30.0471 57.4554 29.9692 57.4221L13.2395 47.8843C5.8043 43.6356 3.25407 34.2489 7.53909 26.8995L7.54168 26.897ZM65.0025 40.0915L44.8006 28.5806L51.7942 24.5983C51.8643 24.5522 51.9526 24.5445 52.0305 24.5778L68.7603 34.108C76.2084 38.3541 78.7613 47.7561 74.4581 55.1056C72.6376 58.2165 69.7705 60.5997 66.3555 61.84V42.4132C66.3633 41.4548 65.8465 40.5682 65.0051 40.0915H65.0025ZM71.9624 29.7542C71.8403 29.6799 71.6248 29.5518 71.4715 29.4646L54.9236 20.0344C54.0848 19.5501 53.046 19.5501 52.2045 20.0344L32.0026 31.5454V23.5759C31.9974 23.4939 32.0364 23.4144 32.1013 23.3632L48.8285 13.8407C56.2792 9.59971 65.8049 12.1238 70.1003 19.4784C71.9156 22.5842 72.5727 26.2204 71.9572 29.7542H71.9624ZM28.2007 43.9584L21.2044 39.9737C21.1291 39.9378 21.0797 39.866 21.0694 39.784V20.7212C21.0745 12.234 28.0526 5.35612 36.6538 5.36124C40.2922 5.36124 43.8137 6.62202 46.6107 8.91807C46.4834 8.9847 46.2653 9.10514 46.1198 9.19226L29.5719 18.6225C28.7252 19.0965 28.2059 19.9832 28.211 20.9441L28.2007 43.9533V43.9584ZM32 35.8761L40.9986 30.7485L49.9971 35.8736V46.1264L40.9986 51.2515L32 46.1264V35.8761Z" fill="black"/>
</svg>
