<svg width="82" height="82" viewBox="0 0 82 82" fill="none" xmlns="http://www.w3.org/2000/svg">
<path d="M74.8265 18.2372C74.3577 16.6851 73.2324 15.4241 71.8259 14.648L43.2258 0.485033C42.4757 0.0970066 41.6317 0 40.8816 0C40.1314 0 39.2875 0 38.5373 0.194013L9.93728 14.454C8.53072 15.133 7.49924 16.3941 7.12416 18.0432L0.0913662 49.9584C-0.189946 51.6075 0.185137 53.2566 1.12284 54.6147L20.9084 79.9335C22.0337 81.0975 23.6278 81.8736 25.2219 81.9706H56.7288C58.4167 82.1646 60.0108 81.3886 61.0423 79.9335L80.8279 54.6147C81.7656 53.2566 82.1407 51.6075 81.9531 49.9584L74.8265 18.2372Z" fill="#326DE6"/>
<path d="M70.4242 48.6956C70.3304 48.6956 70.2366 48.6956 70.2366 48.5986C70.2366 48.5016 70.0491 48.5016 69.8615 48.5016C69.4865 48.4046 69.1114 48.4046 68.7363 48.4046C68.5487 48.4046 68.3612 48.4046 68.1737 48.3076H68.0799C67.0484 48.2105 65.9232 48.0165 64.8917 47.7255C64.6104 47.6285 64.3291 47.3375 64.2353 47.0465L63.4851 46.8525C63.8602 44.0393 63.6727 41.1291 63.1101 38.3159C62.4537 35.5027 61.3284 32.7865 59.8281 30.3613L60.3907 29.7793V29.6823C60.3907 29.3913 60.4845 29.0032 60.672 28.8092C61.5159 28.0332 62.3599 27.4511 63.2976 26.8691C63.4851 26.7721 63.6727 26.6751 63.8602 26.5781C64.2353 26.3841 64.5166 26.19 64.8917 25.996C64.9855 25.899 65.0792 25.899 65.173 25.802C65.2668 25.705 65.173 25.705 65.173 25.608C66.0169 24.929 66.2045 23.7649 65.5481 22.8918C65.2668 22.5038 64.7041 22.2128 64.2353 22.2128C63.7664 22.2128 63.2976 22.4068 62.9225 22.6978L62.8287 22.7948C62.735 22.8918 62.6412 22.9888 62.5474 22.9888C62.2661 23.2798 61.9848 23.5709 61.7973 23.8619C61.7035 24.0559 61.5159 24.1529 61.4222 24.2499C60.7658 25.026 59.9218 25.802 59.0779 26.3841C58.8904 26.4811 58.7028 26.5781 58.5153 26.5781C58.4215 26.5781 58.234 26.5781 58.1402 26.4811H58.0464L57.2963 26.9661C56.5461 26.19 55.7022 25.414 54.952 24.6379C51.4825 21.8247 47.169 20.0786 42.7618 19.5936L42.6681 18.8175V18.9145C42.3867 18.7205 42.293 18.4295 42.1992 18.1385C42.1992 17.0714 42.1992 16.0043 42.3867 14.8403V14.7433C42.3867 14.5492 42.4805 14.3552 42.4805 14.1612C42.5743 13.7732 42.5743 13.3852 42.6681 12.9971V12.4151C42.7618 11.445 42.0117 10.475 41.074 10.378C40.5113 10.281 39.9487 10.572 39.4799 11.057C39.1048 11.445 38.9172 11.9301 38.9172 12.4151V12.9001C38.9172 13.2882 39.011 13.6762 39.1048 14.0642C39.1985 14.2582 39.1985 14.4522 39.1985 14.6463V14.7433C39.3861 15.8103 39.3861 16.8774 39.3861 18.0415C39.2923 18.3325 39.1985 18.6235 38.9172 18.8175V19.0116L38.8235 19.7876C37.792 19.8846 36.7605 20.0786 35.6353 20.2726C31.228 21.2427 27.1959 23.6679 24.1015 27.0631L23.5388 26.6751H23.4451C23.3513 26.6751 23.2575 26.7721 23.07 26.7721C22.8825 26.7721 22.6949 26.6751 22.5074 26.5781C21.6634 25.899 20.8195 25.123 20.1631 24.3469C20.0693 24.1529 19.8818 24.0559 19.788 23.9589C19.5067 23.6679 19.3192 23.3769 19.0379 23.0858C18.9441 22.9888 18.8503 22.9888 18.7565 22.8918C18.6628 22.7948 18.6628 22.7948 18.6628 22.7948C18.2877 22.5038 17.8188 22.3098 17.35 22.3098C16.7874 22.3098 16.3185 22.5038 16.0372 22.9888C15.4746 23.8619 15.6621 25.026 16.4123 25.705C16.5061 25.705 16.5061 25.802 16.5061 25.802C16.5061 25.802 16.6936 25.996 16.7874 25.996C17.0687 26.19 17.4438 26.3841 17.8188 26.5781C18.0064 26.6751 18.1939 26.7721 18.3815 26.8691C19.3192 27.4511 20.2569 28.0332 21.007 28.8092C21.1946 29.0032 21.3821 29.3913 21.2884 29.6823V29.5853L21.851 30.1673C21.7572 30.3613 21.6634 30.4583 21.5697 30.6523C18.6628 35.4057 17.4438 41.0321 18.2877 46.5614L17.5375 46.7555C17.5375 46.8525 17.4438 46.8525 17.4438 46.8525C17.35 47.1435 17.0687 47.3375 16.7874 47.5315C15.7559 47.8225 14.7244 48.0165 13.5992 48.1135C13.4116 48.1135 13.2241 48.1135 13.0365 48.2106C12.6615 48.2106 12.2864 48.3076 11.9113 48.3076C11.8175 48.3076 11.7238 48.4046 11.5362 48.4046C11.4424 48.4046 11.4424 48.4046 11.3487 48.5016C10.3172 48.6956 9.6608 49.6656 9.84834 50.7327C10.0359 51.6058 10.8798 52.1878 11.7238 52.0908C11.9113 52.0908 12.0051 52.0908 12.1926 51.9938C12.2864 51.9938 12.2864 51.9938 12.2864 51.8968C12.2864 51.7998 12.5677 51.8968 12.6615 51.8968C13.0365 51.7998 13.4116 51.6058 13.6929 51.5088C13.8805 51.4118 14.068 51.3148 14.2556 51.3148H14.3493C15.3808 50.9267 16.3185 50.6357 17.4438 50.4417H17.5375C17.8188 50.4417 18.1002 50.5387 18.2877 50.7327C18.3815 50.7327 18.3815 50.8297 18.3815 50.8297L19.2254 50.7327C20.632 55.195 23.2575 59.1723 26.9146 62.0825C27.7585 62.7615 28.5087 63.3436 29.4464 63.8286L28.9775 64.5077C28.9775 64.6047 29.0713 64.6047 29.0713 64.6047C29.2589 64.8957 29.2589 65.2837 29.1651 65.5747C28.79 66.5448 28.2274 67.5149 27.6648 68.3879V68.4849C27.571 68.6789 27.4772 68.776 27.2897 68.97C27.1021 69.164 26.9146 69.552 26.6333 69.94C26.5395 70.037 26.5395 70.1341 26.4457 70.2311C26.4457 70.2311 26.4457 70.3281 26.352 70.3281C25.8831 71.2981 26.2582 72.4622 27.1021 72.9472C27.2897 73.0442 27.571 73.1413 27.7585 73.1413C28.5087 73.1413 29.1651 72.6562 29.5402 71.9772C29.5402 71.9772 29.5402 71.8802 29.6339 71.8802C29.6339 71.7832 29.7277 71.6862 29.8215 71.5892C29.9152 71.2011 30.1028 70.9101 30.1966 70.5221L30.3841 69.94C30.6654 68.873 31.1343 67.9029 31.6031 66.9328C31.7907 66.6418 32.072 66.4478 32.3533 66.3508C32.4471 66.3508 32.4471 66.3508 32.4471 66.2538L32.8221 65.4777C35.4477 66.5448 38.1671 67.0298 40.9802 67.0298C42.6681 67.0298 44.3559 66.8358 46.0438 66.3508C47.0753 66.1568 48.1067 65.7688 49.0445 65.4777L49.4195 66.1568C49.5133 66.1568 49.5133 66.1568 49.5133 66.2538C49.7946 66.3508 50.0759 66.5448 50.2635 66.8358C50.7323 67.8059 51.2012 68.776 51.4825 69.843V69.94L51.67 70.5221C51.7638 70.9101 51.8576 71.2981 52.0451 71.5892C52.1389 71.6862 52.1389 71.7832 52.2327 71.8802C52.2327 71.8802 52.2327 71.9772 52.3264 71.9772C52.7015 72.6562 53.3579 73.1413 54.1081 73.1413C54.3894 73.1413 54.5769 73.0442 54.8582 72.9472C55.2333 72.7532 55.6084 72.3652 55.7022 71.8802C55.7959 71.3951 55.7959 70.9101 55.6084 70.4251C55.6084 70.3281 55.5146 70.3281 55.5146 70.3281C55.5146 70.2311 55.4209 70.134 55.3271 70.037C55.1395 69.649 54.952 69.358 54.6707 69.067C54.5769 68.873 54.4831 68.776 54.2956 68.5819V68.3879C53.6392 67.5149 53.1704 66.5448 52.7953 65.5747C52.7015 65.2837 52.7015 64.8957 52.889 64.6047C52.889 64.5077 52.9828 64.5077 52.9828 64.5077L52.7015 63.7316C57.4838 60.7244 61.1409 56.0681 62.8287 50.5387L63.5789 50.6357C63.6727 50.6357 63.6727 50.5387 63.6727 50.5387C63.8602 50.3447 64.1415 50.2477 64.4228 50.2477H64.5166C65.5481 50.4417 66.5796 50.7327 67.5173 51.1208H67.611C67.7986 51.2178 67.9861 51.3148 68.1737 51.3148C68.5487 51.5088 68.8301 51.7028 69.2051 51.7998C69.2989 51.7998 69.3927 51.8968 69.5802 51.8968C69.674 51.8968 69.674 51.8968 69.7678 51.9938C69.9553 52.0908 70.0491 52.0908 70.2366 52.0908C71.0806 52.0908 71.8307 51.5088 72.112 50.7327C72.0183 49.6656 71.2681 48.8896 70.4242 48.6956ZM43.3244 45.6884L40.7926 46.9495L38.2608 45.6884L37.6044 42.8752L39.3861 40.547H42.1992L43.9808 42.8752L43.3244 45.6884ZM58.6091 39.3829C59.0779 41.4201 59.1717 43.4572 58.9841 45.4944L50.0759 42.8752C49.232 42.6812 48.7631 41.8081 48.9507 40.9351C49.0445 40.644 49.1382 40.45 49.3258 40.256L56.3586 33.6596C57.39 35.4057 58.1402 37.3458 58.6091 39.3829ZM53.5454 30.0703L45.8563 35.6967C45.1999 36.0847 44.2622 35.9877 43.7933 35.3087C43.6058 35.1147 43.512 34.9206 43.512 34.6296L42.9494 24.832C47.0753 25.317 50.7323 27.1601 53.5454 30.0703ZM36.573 25.123L38.4484 24.7349L37.9795 34.4356C37.9795 35.3087 37.2294 35.9877 36.3854 35.9877C36.1041 35.9877 35.9166 35.8907 35.6353 35.7937L27.8523 30.0703C30.2903 27.6451 33.291 25.899 36.573 25.123ZM25.1329 33.6596L32.072 40.062C32.7284 40.644 32.8221 41.6141 32.2595 42.2931C32.072 42.5842 31.8844 42.6812 31.5093 42.7782L22.4136 45.4944C22.1323 41.4201 23.07 37.2488 25.1329 33.6596ZM23.5388 50.0537L32.8221 48.4046C33.5723 48.4046 34.3225 48.8896 34.4162 49.6656C34.51 49.9567 34.51 50.3447 34.3225 50.6357L30.7592 59.5603C27.4772 57.3292 24.8516 53.9339 23.5388 50.0537ZM44.8248 62.0825C43.512 62.3735 42.1992 62.5675 40.7926 62.5675C38.8235 62.5675 36.7605 62.1795 34.8851 61.5975L39.4799 52.9639C39.9487 52.3818 40.6989 52.1878 41.3553 52.5759C41.6366 52.7699 41.8241 52.9639 42.1054 53.2549L46.6064 61.6945C46.0438 61.7915 45.4812 61.8885 44.8248 62.0825ZM56.2648 53.6429C54.8582 55.9711 52.889 58.0082 50.6386 59.4633L46.9815 50.3447C46.794 49.5686 47.169 48.7926 47.8254 48.5016C48.1067 48.4046 48.3881 48.3076 48.6694 48.3076L58.0464 49.9567C57.5776 51.3148 57.015 52.5758 56.2648 53.6429Z" fill="white"/>
</svg>
