<svg width="101" height="79" viewBox="0 0 101 79" fill="none" xmlns="http://www.w3.org/2000/svg">
<path d="M52.4549 24.8929H62.774V37.6164H67.9917C70.4011 37.6164 72.8794 37.0987 75.1612 36.1661C76.2824 35.7076 77.5409 35.0694 78.6469 34.2668C77.1902 31.9729 76.4465 29.0763 76.2275 26.2211C75.9303 22.3377 76.5797 17.283 78.7588 14.2436L79.8435 12.7303L81.1361 13.9836C84.3904 17.1373 87.1274 21.5439 87.6098 26.5674C91.5283 25.1772 96.1289 25.506 99.583 27.9105L101 28.8967L100.254 30.6525C97.333 37.5292 91.2262 39.6594 85.2557 39.2825C76.3215 66.1224 56.8709 78.8293 33.2871 78.8293C21.1029 78.8293 9.92417 73.3355 3.55848 60.2966C3.18526 59.4866 2.86566 58.6397 2.5267 57.8078C0.374918 52.0684 -0.339764 45.7808 0.14507 39.4985L0.290568 37.6167H9.1145V24.8932H19.4336V12.4466H40.0717V0H52.4548L52.4549 24.8929Z" fill="#394D54"/>
<mask id="mask0_746_37667" style="mask-type:luminance" maskUnits="userSpaceOnUse" x="1" y="1" width="98" height="76">
<path d="M20.2033 1.08984V26.1289H10.2751V38.6484H1.96274C1.92746 39.0108 1.89889 39.374 1.86989 39.7371C1.35039 46.558 2.33761 52.8486 4.6058 58.2272L5.36735 59.8772C5.82378 60.8661 6.35622 61.7949 6.91863 62.7009C7.48036 63.6059 7.67937 64.1067 8.03274 64.7081C14.0297 72.8381 22.9694 76.7514 33.2906 76.7514C56.1474 76.7514 75.5456 64.5378 84.1305 37.1005C90.2214 37.8544 96.064 35.9705 98.7268 29.7011C94.4853 26.7488 89.0339 27.6951 85.8934 29.599L94.2139 1.08984L61.7215 26.1289H51.3419V1.08984H20.2033Z" fill="white"/>
</mask>
<g mask="url(#mask0_746_37667)">
<path d="M41.7969 2.07812H50.7402V12.8656H41.7969V2.07812Z" fill="#20C2EF"/>
<path d="M42.8945 11.9665V2.97656V11.9665ZM44.2357 11.9665V2.97656V11.9665ZM45.5904 11.9665V2.97656V11.9665ZM46.9458 11.9665V2.97656V11.9665ZM48.3009 11.9665V2.97656V11.9665ZM49.6418 11.9665V2.97656V11.9665Z" fill="black"/>
<path d="M42.8945 11.9665V2.97656M44.2357 11.9665V2.97656M45.5904 11.9665V2.97656M46.9458 11.9665V2.97656M48.3009 11.9665V2.97656M49.6418 11.9665V2.97656" stroke="#394D54" stroke-width="1.56"/>
<path d="M52.1172 12.8633H61.0605V2.07636H52.1172V12.8633Z" fill="#00ACD3"/>
<path d="M53.2148 2.97487V11.9648V2.97487ZM54.556 2.97487V11.9648V2.97487ZM55.9107 2.97487V11.9648V2.97487ZM57.2661 2.97487V11.9648V2.97487ZM58.6213 2.97487V11.9648V2.97487ZM59.9622 2.97487V11.9648V2.97487Z" fill="black"/>
<path d="M53.2148 2.97487V11.9648M54.556 2.97487V11.9648M55.9107 2.97487V11.9648M57.2661 2.97487V11.9648M58.6212 2.97487V11.9648M59.9622 2.97487V11.9648" stroke="#394D54" stroke-width="1.56"/>
<path d="M0.527344 14.5234H9.47067V25.3104H0.527344V14.5234Z" fill="#00ACD3"/>
<path d="M0.527344 26.9688H9.47067V37.7563H0.527344V26.9688Z" fill="#20C2EF"/>
<path d="M1.625 24.4119V15.4219V24.4119ZM2.96615 24.4119V15.4219V24.4119ZM4.32083 24.4119V15.4219V24.4119ZM5.67624 24.4119V15.4219V24.4119ZM7.03141 24.4119V15.4219V24.4119ZM8.37231 24.4119V15.4219V24.4119Z" fill="black"/>
<path d="M1.625 24.4119V15.4219M2.96615 24.4119V15.4219M4.32083 24.4119V15.4219M5.67624 24.4119V15.4219M7.03141 24.4119V15.4219M8.37231 24.4119V15.4219" stroke="#394D54" stroke-width="1.56"/>
<path d="M1.625 36.8572V27.8672V36.8572ZM2.96615 36.8572V27.8672V36.8572ZM4.32083 36.8572V27.8672V36.8572ZM5.67624 36.8572V27.8672V36.8572ZM7.03141 36.8572V27.8672V36.8572ZM8.37231 36.8572V27.8672V36.8572Z" fill="black"/>
<path d="M1.625 36.8572V27.8672M2.96615 36.8572V27.8672M4.32083 36.8572V27.8672M5.67624 36.8572V27.8672M7.03141 36.8572V27.8672M8.37231 36.8572V27.8672" stroke="#394D54" stroke-width="1.56"/>
<path d="M10.8477 37.7578H19.791V26.9709H10.8477V37.7578Z" fill="#00ACD3"/>
<path d="M10.8477 25.3125H19.791V14.525H10.8477V25.3125Z" fill="#20C2EF"/>
<path d="M11.9453 27.8694V36.8594V27.8694ZM13.2865 27.8694V36.8594V27.8694ZM14.6411 27.8694V36.8594V27.8694ZM15.9966 27.8694V36.8594V27.8694ZM17.3517 27.8694V36.8594V27.8694ZM18.6926 27.8694V36.8594V27.8694Z" fill="black"/>
<path d="M11.9453 27.8694V36.8594M13.2865 27.8694V36.8594M14.6411 27.8694V36.8594M15.9966 27.8694V36.8594M17.3517 27.8694V36.8594M18.6926 27.8694V36.8594" stroke="#394D54" stroke-width="1.56"/>
<path d="M11.9453 15.4241V24.4141V15.4241ZM13.2865 15.4241V24.4141V15.4241ZM14.6411 15.4241V24.4141V15.4241ZM15.9966 15.4241V24.4141V15.4241ZM17.3517 15.4241V24.4141V15.4241ZM18.6926 15.4241V24.4141V15.4241Z" fill="black"/>
<path d="M11.9453 15.4241V24.4141M13.2865 15.4241V24.4141M14.6411 15.4241V24.4141M15.9966 15.4241V24.4141M17.3517 15.4241V24.4141M18.6926 15.4241V24.4141" stroke="#394D54" stroke-width="1.56"/>
<path d="M21.1602 14.5234H30.1035V25.3104H21.1602V14.5234Z" fill="#00ACD3"/>
<path d="M21.1602 26.9688H30.1035V37.7563H21.1602V26.9688Z" fill="#20C2EF"/>
<path d="M22.2578 24.4119V15.4219V24.4119ZM23.599 24.4119V15.4219V24.4119ZM24.9536 24.4119V15.4219V24.4119ZM26.3091 24.4119V15.4219V24.4119ZM27.6642 24.4119V15.4219V24.4119ZM29.0051 24.4119V15.4219V24.4119Z" fill="black"/>
<path d="M22.2578 24.4119V15.4219M23.599 24.4119V15.4219M24.9536 24.4119V15.4219M26.3091 24.4119V15.4219M27.6642 24.4119V15.4219M29.0051 24.4119V15.4219" stroke="#394D54" stroke-width="1.56"/>
<path d="M22.2578 36.8572V27.8672V36.8572ZM23.599 36.8572V27.8672V36.8572ZM24.9536 36.8572V27.8672V36.8572ZM26.3091 36.8572V27.8672V36.8572ZM27.6642 36.8572V27.8672V36.8572ZM29.0051 36.8572V27.8672V36.8572Z" fill="black"/>
<path d="M22.2578 36.8572V27.8672M23.599 36.8572V27.8672M24.9536 36.8572V27.8672M26.3091 36.8572V27.8672M27.6642 36.8572V27.8672M29.0051 36.8572V27.8672" stroke="#394D54" stroke-width="1.56"/>
<path d="M31.4805 37.7578H40.4238V26.9709H31.4805V37.7578Z" fill="#00ACD3"/>
<path d="M31.4805 25.3125H40.4238V14.525H31.4805V25.3125Z" fill="#20C2EF"/>
<path d="M32.5781 27.8694V36.8594V27.8694ZM33.9193 27.8694V36.8594V27.8694ZM35.274 27.8694V36.8594V27.8694ZM36.6294 27.8694V36.8594V27.8694ZM37.9845 27.8694V36.8594V27.8694ZM39.3254 27.8694V36.8594V27.8694Z" fill="black"/>
<path d="M32.5781 27.8694V36.8594M33.9193 27.8694V36.8594M35.274 27.8694V36.8594M36.6294 27.8694V36.8594M37.9845 27.8694V36.8594M39.3254 27.8694V36.8594" stroke="#394D54" stroke-width="1.56"/>
<path d="M32.5781 15.4241V24.4141V15.4241ZM33.9193 15.4241V24.4141V15.4241ZM35.274 15.4241V24.4141V15.4241ZM36.6294 15.4241V24.4141V15.4241ZM37.9845 15.4241V24.4141V15.4241ZM39.3254 15.4241V24.4141V15.4241Z" fill="black"/>
<path d="M32.5781 15.4241V24.4141M33.9193 15.4241V24.4141M35.274 15.4241V24.4141M36.6294 15.4241V24.4141M37.9845 15.4241V24.4141M39.3254 15.4241V24.4141" stroke="#394D54" stroke-width="1.56"/>
<path d="M41.7969 14.5234H50.7402V25.3104H41.7969V14.5234Z" fill="#00ACD3"/>
<path d="M41.7969 26.9688H50.7402V37.7563H41.7969V26.9688Z" fill="#20C2EF"/>
<path d="M42.8945 24.4119V15.4219V24.4119ZM44.2357 24.4119V15.4219V24.4119ZM45.5904 24.4119V15.4219V24.4119ZM46.9458 24.4119V15.4219V24.4119ZM48.3009 24.4119V15.4219V24.4119ZM49.6418 24.4119V15.4219V24.4119Z" fill="black"/>
<path d="M42.8945 24.4119V15.4219M44.2357 24.4119V15.4219M45.5904 24.4119V15.4219M46.9458 24.4119V15.4219M48.3009 24.4119V15.4219M49.6418 24.4119V15.4219" stroke="#394D54" stroke-width="1.56"/>
<path d="M42.8945 36.8572V27.8672V36.8572ZM44.2357 36.8572V27.8672V36.8572ZM45.5904 36.8572V27.8672V36.8572ZM46.9458 36.8572V27.8672V36.8572ZM48.3009 36.8572V27.8672V36.8572ZM49.6418 36.8572V27.8672V36.8572Z" fill="black"/>
<path d="M42.8945 36.8572V27.8672M44.2357 36.8572V27.8672M45.5904 36.8572V27.8672M46.9458 36.8572V27.8672M48.3009 36.8572V27.8672M49.6418 36.8572V27.8672" stroke="#394D54" stroke-width="1.56"/>
<path d="M52.1172 37.7578H61.0605V26.9709H52.1172V37.7578Z" fill="#00ACD3"/>
<path d="M52.1172 25.3125H61.0605V14.525H52.1172V25.3125Z" fill="#20C2EF"/>
<path d="M53.2148 27.8694V36.8594V27.8694ZM54.556 27.8694V36.8594V27.8694ZM55.9107 27.8694V36.8594V27.8694ZM57.2661 27.8694V36.8594V27.8694ZM58.6213 27.8694V36.8594V27.8694ZM59.9622 27.8694V36.8594V27.8694Z" fill="black"/>
<path d="M53.2148 27.8694V36.8594M54.556 27.8694V36.8594M55.9107 27.8694V36.8594M57.2661 27.8694V36.8594M58.6212 27.8694V36.8594M59.9622 27.8694V36.8594" stroke="#394D54" stroke-width="1.56"/>
<path d="M53.2148 15.4241V24.4141V15.4241ZM54.556 15.4241V24.4141V15.4241ZM55.9107 15.4241V24.4141V15.4241ZM57.2661 15.4241V24.4141V15.4241ZM58.6213 15.4241V24.4141V15.4241ZM59.9622 15.4241V24.4141V15.4241Z" fill="black"/>
<path d="M53.2148 15.4241V24.4141M54.556 15.4241V24.4141M55.9107 15.4241V24.4141M57.2661 15.4241V24.4141M58.6212 15.4241V24.4141M59.9622 15.4241V24.4141" stroke="#394D54" stroke-width="1.56"/>
</g>
<mask id="mask1_746_37667" style="mask-type:luminance" maskUnits="userSpaceOnUse" x="1" y="1" width="98" height="76">
<path d="M20.2033 1.08984V26.1289H10.2751V38.6484H1.96274C1.92746 39.0108 1.89889 39.374 1.86989 39.7371C1.35039 46.558 2.33761 52.8486 4.6058 58.2272L5.36735 59.8772C5.82378 60.8661 6.35622 61.7949 6.91863 62.7009C7.48036 63.6059 7.67937 64.1067 8.03274 64.7081C14.0297 72.8381 22.9694 76.7514 33.2906 76.7514C56.1474 76.7514 75.5456 64.5378 84.1305 37.1005C90.2214 37.8544 96.064 35.9705 98.7268 29.7011C94.4853 26.7488 89.0339 27.6951 85.8934 29.599L94.2139 1.08984L61.7215 26.1289H51.3419V1.08984H20.2033Z" fill="white"/>
</mask>
<g mask="url(#mask1_746_37667)">
<path d="M85.894 29.6008C86.5859 23.115 82.5618 18.0203 80.0661 15.6016C77.1902 19.612 76.7433 30.1229 81.2552 34.5482C78.7372 37.246 73.4311 39.6912 67.9984 39.6912H1.24654C0.718197 46.5318 1.24654 79.4723 1.24654 79.4723H99.1752L98.73 29.7077C94.4885 26.7554 89.0345 27.6968 85.894 29.6008Z" fill="#17B5EB"/>
</g>
<mask id="mask2_746_37667" style="mask-type:luminance" maskUnits="userSpaceOnUse" x="1" y="1" width="98" height="76">
<path d="M20.2033 1.08984V26.1289H10.2751V38.6484H1.96274C1.92746 39.0108 1.89889 39.374 1.86989 39.7371C1.35039 46.558 2.33761 52.8486 4.6058 58.2272L5.36735 59.8772C5.82378 60.8661 6.35622 61.7949 6.91863 62.7009C7.48036 63.6059 7.67937 64.1067 8.03274 64.7081C14.0297 72.8381 22.9694 76.7514 33.2906 76.7514C56.1474 76.7514 75.5456 64.5378 84.1305 37.1005C90.2214 37.8544 96.064 35.9705 98.7268 29.7011C94.4853 26.7488 89.0339 27.6951 85.8934 29.599L94.2139 1.08984L61.7215 26.1289H51.3419V1.08984H20.2033Z" fill="white"/>
</mask>
<g mask="url(#mask2_746_37667)">
<path d="M1.24609 48.4492V79.4759H99.1748V48.4492" fill="black" fill-opacity="0.17"/>
</g>
<mask id="mask3_746_37667" style="mask-type:luminance" maskUnits="userSpaceOnUse" x="1" y="1" width="98" height="76">
<path d="M20.2033 1.08984V26.1289H10.2751V38.6484H1.96274C1.92746 39.0108 1.89889 39.374 1.86989 39.7371C1.35039 46.558 2.33761 52.8486 4.6058 58.2272L5.36735 59.8772C5.82378 60.8661 6.35622 61.7949 6.91863 62.7009C7.48036 63.6059 7.67937 64.1067 8.03274 64.7081C14.0297 72.8381 22.9694 76.7514 33.2906 76.7514C56.1474 76.7514 75.5456 64.5378 84.1305 37.1005C90.2214 37.8544 96.064 35.9705 98.7268 29.7011C94.4853 26.7488 89.0339 27.6951 85.8934 29.599L94.2139 1.08984L61.7215 26.1289H51.3419V1.08984H20.2033Z" fill="white"/>
</mask>
<g mask="url(#mask3_746_37667)">
<path d="M36.0989 76.6957C29.9887 73.1983 26.6347 68.4442 24.7686 63.2539L6.20703 64.2361L15.684 79.4773L36.0989 76.6957Z" fill="#D4EDF1"/>
</g>
<path d="M6.49219 63.7013C12.8847 64.1233 19.7069 64.199 25.6577 61.9492" stroke="#394D54" stroke-width="3.4" stroke-linecap="round"/>
<path d="M32.0086 58.2183C32.0086 59.8617 30.9041 61.1939 29.5417 61.1939C28.179 61.1939 27.0742 59.8617 27.0742 58.2183C27.0742 56.575 28.179 55.2422 29.5417 55.2422C30.9041 55.2422 32.0086 56.575 32.0086 58.2183Z" fill="#D4EDF1"/>
<path d="M30.1765 56.2341C29.9612 56.3843 29.8155 56.6656 29.8155 56.9874C29.8155 57.4679 30.1384 57.8568 30.5367 57.8568C30.8095 57.8568 31.0466 57.674 31.1692 57.404C31.2557 57.6556 31.3038 57.932 31.3038 58.2217C31.3038 59.3986 30.5127 60.3528 29.5368 60.3528C28.5611 60.3528 27.7695 59.3986 27.7695 58.2217C27.7695 57.0443 28.5611 56.0898 29.5368 56.0898C29.7625 56.0898 29.9779 56.1412 30.1765 56.2341Z" fill="#394D54"/>
</svg>
