<svg width="56" height="56" viewBox="0 0 56 56" fill="none" xmlns="http://www.w3.org/2000/svg">
<mask id="mask0_746_16408" style="mask-type:alpha" maskUnits="userSpaceOnUse" x="0" y="0" width="56" height="56">
<rect width="56" height="56" fill="#D9D9D9"/>
</mask>
<g mask="url(#mask0_746_16408)">
<path d="M49 46.8463L41.8203 39.6667H10.7695C9.69539 39.6667 8.79861 39.3069 8.07917 38.5875C7.35972 37.8681 7 36.9713 7 35.8972V10.7695C7 9.69539 7.35972 8.79861 8.07917 8.07917C8.79861 7.35972 9.69539 7 10.7695 7H45.2305C46.3046 7 47.2014 7.35972 47.9208 8.07917C48.6403 8.79861 49 9.69539 49 10.7695V46.8463ZM10.7695 37.3333H42.8167L46.6667 41.1699V10.7695C46.6667 10.4102 46.5171 10.081 46.2181 9.78192C45.919 9.48286 45.5898 9.33333 45.2305 9.33333H10.7695C10.4102 9.33333 10.081 9.48286 9.78192 9.78192C9.48286 10.081 9.33333 10.4102 9.33333 10.7695V35.8972C9.33333 36.2565 9.48286 36.5857 9.78192 36.8848C10.081 37.1838 10.4102 37.3333 10.7695 37.3333Z" fill="white"/>
</g>
</svg>
