<svg width="274" height="66" viewBox="0 0 274 66" fill="none" xmlns="http://www.w3.org/2000/svg">
<path d="M114.26 17.288C117.487 17.288 120.317 17.9187 122.752 19.18C125.216 20.4413 127.108 22.2453 128.428 24.592C129.777 26.9093 130.452 29.608 130.452 32.688C130.452 35.768 129.777 38.4667 128.428 40.784C127.108 43.072 125.216 44.8467 122.752 46.108C120.317 47.3693 117.487 48 114.26 48H103.524V17.288H114.26ZM114.04 42.764C117.267 42.764 119.76 41.884 121.52 40.124C123.28 38.364 124.16 35.8853 124.16 32.688C124.16 29.4907 123.28 26.9973 121.52 25.208C119.76 23.3893 117.267 22.48 114.04 22.48H109.684V42.764H114.04ZM141.223 17.288V48H135.063V17.288H141.223ZM168.693 26.528C167.989 25.2373 167.021 24.2547 165.789 23.58C164.557 22.9053 163.12 22.568 161.477 22.568C159.659 22.568 158.045 22.9787 156.637 23.8C155.229 24.6213 154.129 25.7947 153.337 27.32C152.545 28.8453 152.149 30.6053 152.149 32.6C152.149 34.6533 152.545 36.4427 153.337 37.968C154.159 39.4933 155.288 40.6667 156.725 41.488C158.163 42.3093 159.835 42.72 161.741 42.72C164.088 42.72 166.009 42.104 167.505 40.872C169.001 39.6107 169.984 37.8653 170.453 35.636H159.893V30.928H176.525V36.296C176.115 38.4373 175.235 40.4173 173.885 42.236C172.536 44.0547 170.791 45.5213 168.649 46.636C166.537 47.7213 164.161 48.264 161.521 48.264C158.559 48.264 155.875 47.604 153.469 46.284C151.093 44.9347 149.216 43.072 147.837 40.696C146.488 38.32 145.813 35.6213 145.813 32.6C145.813 29.5787 146.488 26.88 147.837 24.504C149.216 22.0987 151.093 20.236 153.469 18.916C155.875 17.5667 158.544 16.892 161.477 16.892C164.939 16.892 167.945 17.7427 170.497 19.444C173.049 21.116 174.809 23.4773 175.777 26.528H168.693ZM187.243 17.288V48H181.083V17.288H187.243ZM214.229 17.288V22.26H206.045V48H199.885V22.26H191.701V17.288H214.229ZM237.555 42.148H225.323L223.299 48H216.831L227.875 17.244H235.047L246.091 48H239.579L237.555 42.148ZM235.883 37.22L231.439 24.372L226.995 37.22H235.883ZM256.379 43.116H266.499V48H250.219V17.288H256.379V43.116Z" fill="white"/>
<path d="M65.8685 25.0837C65.8685 25.0837 65.9854 25.0837 66.1024 25.5203C66.3364 25.8476 66.5703 26.2842 66.8043 26.8298C67.1552 27.4846 67.5061 28.1394 67.857 29.1216C68.2079 29.9946 68.5588 31.0859 68.7928 32.3955C69.2607 34.9055 69.3776 38.0703 68.5588 41.6716C68.3249 42.5446 68.091 43.5268 67.74 44.3998C67.3891 45.2729 67.0382 46.2551 66.5703 47.2372C65.6345 49.0924 64.3479 50.9477 62.8272 52.8029C61.3066 54.549 59.435 56.2951 57.4465 57.8229C55.341 59.3507 53.0016 60.7694 50.4282 61.8607C47.8548 62.952 45.0475 63.8251 42.0062 64.3707C39.0819 64.9164 35.9236 65.1346 32.7654 64.9164C31.9466 64.9164 31.1278 64.9164 30.426 64.6981C30.075 64.6981 29.6071 64.6981 29.2562 64.4798H28.0865C28.0865 64.4798 27.7356 64.2616 27.5016 64.2616H26.9168C26.5659 64.0433 26.098 63.9342 25.7471 63.8251C24.9283 63.6068 24.1095 63.3885 23.4076 63.0611C21.887 62.5155 20.2494 61.8607 18.8457 61.0968C17.3251 60.3329 15.9214 59.4598 14.6347 58.4777C11.9444 56.5133 9.60493 54.1124 7.6164 51.4933C5.62788 48.8742 4.10724 46.0368 2.93752 42.9811C0.715052 36.979 0.247159 30.4311 1.53385 24.3198C1.88477 22.792 2.23569 21.2642 2.82055 19.7363C3.40541 18.2085 4.10724 16.7898 4.92604 15.3711C6.56365 12.6429 8.66915 10.1329 11.1256 8.16851C13.582 6.09503 16.2723 4.45807 19.0797 3.36677C21.887 2.16633 24.9283 1.51155 27.8526 1.18416C30.7769 0.856766 33.5842 0.965897 36.2746 1.51155C37.5612 1.72981 38.8479 2.0572 40.1346 2.49372H40.6025C40.6025 2.60285 41.0704 2.71199 41.0704 2.71199C41.3043 2.82112 41.6553 2.93025 42.0062 3.03938C42.3571 3.14851 42.591 3.25764 42.942 3.36677C43.1759 3.4759 43.5268 3.58503 43.7608 3.80329C45.9832 4.8946 47.9718 6.31329 49.4924 7.84112C51.13 9.36894 52.2997 11.0059 53.2355 12.6429C54.1713 14.2798 54.7561 15.9168 55.224 17.4446C55.5749 18.9724 55.8089 20.3911 55.8089 21.7007V23.5559C55.8089 24.1016 55.8089 24.6472 55.5749 25.0837C55.341 25.5203 55.341 26.0659 55.341 26.3933C55.341 26.8298 55.1071 27.1572 54.9901 27.4846C54.9901 27.812 54.7561 28.0303 54.6392 28.3576C54.6392 28.5759 54.4052 28.7942 54.4052 28.9033C54.4052 29.2307 54.1713 29.3398 54.1713 29.3398C54.1713 29.3398 54.1713 29.1216 54.1713 28.7942C54.1713 28.5759 54.1713 28.4668 54.1713 28.1394C54.1713 27.9211 54.1713 27.5937 54.1713 27.2663V24.8655C54.1713 23.8833 53.9373 22.9011 53.7034 21.7007C53.4694 20.5003 53.0015 19.2998 52.4167 17.9903C51.8318 16.6807 51.013 15.3711 49.9603 14.1707C47.9718 11.6607 44.9305 9.36895 41.1874 8.16851C40.9534 8.05938 40.7195 8.05938 40.4855 7.95025C40.4855 7.95025 40.2516 7.84112 40.1346 7.84112H39.7837C39.5498 7.62286 39.3158 7.62286 39.0819 7.51373H38.614C38.614 7.4046 38.38 7.4046 38.38 7.4046C37.3273 7.18633 36.2746 7.0772 35.2218 6.96807C33.1163 6.85894 30.8938 6.96807 28.6714 7.4046C24.2264 8.27764 20.0154 10.3511 16.6232 13.5159C14.9856 15.1529 13.582 16.8989 12.4123 18.9724C11.3595 21.0459 10.6577 23.1194 10.1898 25.5203C9.37098 30.2129 9.83887 35.2329 11.4765 39.8163C13.2311 44.3998 16.1554 48.5468 20.0154 51.4933C20.9512 52.2572 22.004 52.912 23.0567 53.5668C24.1095 54.2216 25.1622 54.6581 26.3319 55.0946C27.5016 55.5311 27.5016 55.5311 28.0865 55.7494C28.3205 55.7494 28.6714 55.9677 28.9053 55.9677H29.2562C29.2562 55.9677 29.4902 56.1859 29.7241 56.1859H30.192H30.5429C30.8938 56.1859 31.1278 56.1859 31.4787 56.4042C32.0636 56.4042 32.6484 56.6224 33.3503 56.7316C38.2631 57.2772 43.1759 56.7316 47.5039 55.3129C51.8318 53.8942 55.6919 51.6024 58.6162 48.8742C61.5405 46.1459 63.646 43.0903 64.9327 40.1437C66.2194 37.1972 66.6873 34.3598 66.8043 31.959C66.8043 29.5581 66.5703 27.7029 66.2194 26.3933C66.1024 25.7385 65.9854 25.302 65.8685 24.9746C65.5176 25.1929 65.5176 24.9746 65.5176 24.9746L65.8685 25.0837Z" fill="white"/>
<path d="M57.5087 26.6532C57.5087 26.6532 57.5853 26.6532 57.6619 26.9379C57.8152 27.1515 57.9685 27.4363 58.1218 27.7923C58.3517 28.2194 58.5816 28.6466 58.8115 29.2874C59.0414 29.8569 59.2713 30.5689 59.4246 31.4232C59.7312 33.0607 59.8078 35.1253 59.2713 37.4747C59.1181 38.0443 58.9648 38.6851 58.7349 39.2546C58.505 39.8242 58.2751 40.4649 57.9685 41.1057C57.3554 42.316 56.5124 43.5263 55.5161 44.7366C54.5198 45.8757 53.2936 47.0148 51.9908 48.0115C50.6113 49.0083 49.0786 49.9338 47.3926 50.6457C45.7065 51.3577 43.8673 51.9272 41.8747 52.2832C39.9587 52.6392 37.8895 52.7816 35.8203 52.6392C35.2839 52.6392 34.7474 52.6392 34.2876 52.4968C34.0577 52.4968 33.7511 52.4968 33.5212 52.3544H32.7548C32.7548 52.3544 32.5249 52.212 32.3717 52.212H31.9885C31.7586 52.0696 31.452 51.9984 31.2221 51.9272C30.6856 51.7849 30.1492 51.6425 29.6894 51.4289C28.6931 51.0729 27.6201 50.6457 26.7005 50.1474C25.7042 49.649 24.7846 49.0795 23.9416 48.4387C22.1789 47.1572 20.6462 45.5909 19.3433 43.8823C18.0405 42.1736 17.0442 40.3225 16.2778 38.3291C14.8217 34.4134 14.5152 30.1417 15.3582 26.1548C15.5881 25.1581 15.818 24.1614 16.2012 23.1646C16.5844 22.1679 17.0442 21.2424 17.5807 20.3168C18.6536 18.537 20.0331 16.8995 21.6424 15.618C23.2518 14.2653 25.0145 13.1974 26.8538 12.4854C28.6931 11.7023 30.6856 11.2751 32.6016 11.0615C34.5175 10.848 36.3568 10.9192 38.1195 11.2751C38.9625 11.4175 39.8055 11.6311 40.6485 11.9159H40.955C40.955 11.9871 41.2616 12.0583 41.2616 12.0583C41.4149 12.1295 41.6448 12.2007 41.8747 12.2719C42.1046 12.343 42.2579 12.4142 42.4878 12.4854C42.6411 12.5566 42.871 12.6278 43.0242 12.7702C44.4803 13.4822 45.7832 14.4077 46.7795 15.4044C47.8524 16.4011 48.6188 17.4691 49.2319 18.537C49.845 19.6049 50.2281 20.6728 50.5347 21.6695C50.7646 22.6663 50.9179 23.5918 50.9179 24.4461V25.6564C50.9179 26.0124 50.9179 26.3684 50.7646 26.6532C50.6113 26.9379 50.6113 27.2939 50.6113 27.5075C50.6113 27.7923 50.4581 28.0059 50.3814 28.2194C50.3814 28.433 50.2281 28.5754 50.1515 28.789C50.1515 28.9314 49.9982 29.0738 49.9982 29.145C49.9982 29.3586 49.845 29.4298 49.845 29.4298C49.845 29.4298 49.845 29.2874 49.845 29.0738C49.845 28.9314 49.845 28.8602 49.845 28.6466C49.845 28.5042 49.845 28.2906 49.845 28.0771V26.5108C49.845 25.87 49.6917 25.2293 49.5384 24.4461C49.3851 23.663 49.0786 22.8799 48.6954 22.0255C48.3122 21.1712 47.7757 20.3168 47.086 19.5337C45.7832 17.8962 43.7906 16.4011 41.3382 15.618C41.1849 15.5468 41.0317 15.5468 40.8784 15.4756C40.8784 15.4756 40.7251 15.4044 40.6485 15.4044H40.4186C40.2653 15.262 40.112 15.262 39.9587 15.1908H39.6522C39.6522 15.1196 39.4989 15.1196 39.4989 15.1196C38.8092 14.9773 38.1195 14.9061 37.4297 14.8349C36.0502 14.7637 34.5941 14.8349 33.138 15.1196C30.2258 15.6892 27.4669 17.0419 25.2444 19.1065C24.1715 20.1745 23.2518 21.3136 22.4855 22.6663C21.7957 24.019 21.3359 25.3717 21.0293 26.9379C20.4929 29.9993 20.7994 33.2743 21.8724 36.2644C23.0219 39.2546 24.9378 41.96 27.4669 43.8823C28.08 44.3806 28.7697 44.8078 29.4594 45.235C30.1492 45.6621 30.8389 45.9469 31.6053 46.2317C32.3717 46.5165 32.3717 46.5165 32.7548 46.6588C32.9081 46.6588 33.138 46.8012 33.2913 46.8012H33.5212C33.5212 46.8012 33.6745 46.9436 33.8278 46.9436H34.1343H34.3642C34.5941 46.9436 34.7474 46.9436 34.9773 47.086C35.3605 47.086 35.7437 47.2284 36.2035 47.2996C39.4223 47.6556 42.6411 47.2996 45.4766 46.3741C48.3122 45.4485 50.8412 43.9535 52.7572 42.1736C54.6731 40.3937 56.0526 38.4003 56.8956 36.478C57.7386 34.5558 58.0451 32.7047 58.1218 31.1384C58.1218 29.5721 57.9685 28.3618 57.7386 27.5075C57.662 27.0803 57.5853 26.7956 57.5087 26.582C57.2788 26.7244 57.2788 26.582 57.2788 26.582L57.5087 26.6532Z" fill="white"/>
<path d="M51.1244 28.7181C51.1244 28.7181 51.1704 28.7181 51.2164 28.8889C51.3084 29.0171 51.4003 29.188 51.4923 29.4015C51.6302 29.6578 51.7682 29.9141 51.9061 30.2986C52.0441 30.6403 52.182 31.0675 52.274 31.5801C52.4579 32.5626 52.5039 33.8014 52.182 35.211C52.09 35.5528 51.9981 35.9372 51.8601 36.2789C51.7222 36.6207 51.5842 37.0051 51.4003 37.3896C51.0325 38.1158 50.5267 38.8419 49.9289 39.5681C49.3312 40.2516 48.5955 40.9351 47.8138 41.5331C46.9861 42.1311 46.0665 42.6865 45.0549 43.1136C44.0433 43.5408 42.9398 43.8825 41.7443 44.0961C40.5948 44.3097 39.3533 44.3951 38.1118 44.3097C37.7899 44.3097 37.468 44.3097 37.1922 44.2243C37.0542 44.2243 36.8703 44.2243 36.7324 44.1388H36.2725C36.2725 44.1388 36.1346 44.0534 36.0426 44.0534H35.8127C35.6748 43.968 35.4909 43.9252 35.3529 43.8825C35.031 43.7971 34.7092 43.7117 34.4333 43.5835C33.8355 43.3699 33.1918 43.1136 32.64 42.8146C32.0423 42.5156 31.4905 42.1738 30.9847 41.7894C29.9271 41.0205 29.0075 40.0807 28.2258 39.0555C27.4442 38.0303 26.8464 36.9197 26.3866 35.7236C25.513 33.3742 25.329 30.8112 25.8348 28.4191C25.9728 27.821 26.1107 27.223 26.3406 26.6249C26.5705 26.0269 26.8464 25.4716 27.1683 24.9163C27.812 23.8484 28.6397 22.8659 29.6053 22.097C30.5709 21.2854 31.6284 20.6446 32.732 20.2174C33.8355 19.7476 35.031 19.4913 36.1806 19.3631C37.3301 19.2349 38.4337 19.2777 39.4912 19.4913C39.997 19.5767 40.5028 19.7048 41.0086 19.8757H41.1925C41.1925 19.9184 41.3764 19.9611 41.3764 19.9611C41.4684 20.0039 41.6063 20.0466 41.7443 20.0893C41.8822 20.132 41.9742 20.1747 42.1121 20.2174C42.2041 20.2602 42.342 20.3029 42.434 20.3883C43.3076 20.8155 44.0893 21.3708 44.6871 21.9688C45.3308 22.5669 45.7906 23.2076 46.1585 23.8484C46.5263 24.4891 46.7562 25.1299 46.9402 25.7279C47.0781 26.3259 47.1701 26.8812 47.1701 27.3939V28.12C47.1701 28.3336 47.1701 28.5472 47.0781 28.7181C46.9861 28.8889 46.9861 29.1025 46.9861 29.2307C46.9861 29.4015 46.8942 29.5297 46.8482 29.6578C46.8482 29.786 46.7562 29.8714 46.7103 29.9996C46.7103 30.085 46.6183 30.1704 46.6183 30.2132C46.6183 30.3413 46.5263 30.384 46.5263 30.384C46.5263 30.384 46.5263 30.2986 46.5263 30.1704C46.5263 30.085 46.5263 30.0423 46.5263 29.9141C46.5263 29.8287 46.5263 29.7006 46.5263 29.5724V28.6326C46.5263 28.2482 46.4344 27.8637 46.3424 27.3939C46.2504 26.924 46.0665 26.4541 45.8366 25.9415C45.6067 25.4289 45.2848 24.9163 44.871 24.4464C44.0893 23.4639 42.8938 22.5669 41.4224 22.097C41.3305 22.0543 41.2385 22.0543 41.1465 22.0115C41.1465 22.0115 41.0546 21.9688 41.0086 21.9688H40.8707C40.7787 21.8834 40.6867 21.8834 40.5948 21.8407H40.4108C40.4108 21.798 40.3189 21.798 40.3189 21.798C39.905 21.7125 39.4912 21.6698 39.0774 21.6271C38.2497 21.5844 37.3761 21.6271 36.5024 21.798C34.7552 22.1397 33.0998 22.9513 31.7664 24.1901C31.1227 24.8308 30.5709 25.5143 30.1111 26.3259C29.6972 27.1376 29.4214 27.9492 29.2374 28.8889C28.9156 30.7258 29.0995 32.6907 29.7432 34.4848C30.4329 36.2789 31.5825 37.9022 33.0998 39.0555C33.4677 39.3545 33.8815 39.6108 34.2954 39.8671C34.7092 40.1234 35.123 40.2943 35.5828 40.4652C36.0426 40.636 36.0426 40.636 36.2725 40.7215C36.3645 40.7215 36.5024 40.8069 36.5944 40.8069H36.7324C36.7324 40.8069 36.8243 40.8923 36.9163 40.8923H37.1002H37.2381C37.3761 40.8923 37.4681 40.8923 37.606 40.9778C37.8359 40.9778 38.0658 41.0632 38.3417 41.1059C40.2729 41.3195 42.2041 41.1059 43.9054 40.5506C45.6067 39.9953 47.1241 39.0982 48.2736 38.0303C49.4231 36.9624 50.2508 35.7663 50.7566 34.613C51.2624 33.4596 51.4463 32.349 51.4923 31.4092C51.4923 30.4695 51.4003 29.7433 51.2624 29.2307C51.2164 28.9744 51.1704 28.8035 51.1244 28.6754C50.9865 28.7608 50.9865 28.6754 50.9865 28.6754L51.1244 28.7181Z" fill="white"/>
</svg>
