<svg width="267" height="66" viewBox="0 0 267 66" fill="none" xmlns="http://www.w3.org/2000/svg">
<path d="M113.948 17.288C117.174 17.288 120.005 17.9187 122.44 19.18C124.904 20.4413 126.796 22.2453 128.116 24.592C129.465 26.9093 130.14 29.608 130.14 32.688C130.14 35.768 129.465 38.4667 128.116 40.784C126.796 43.072 124.904 44.8467 122.44 46.108C120.005 47.3693 117.174 48 113.948 48H103.212V17.288H113.948ZM113.728 42.764C116.954 42.764 119.448 41.884 121.208 40.124C122.968 38.364 123.848 35.8853 123.848 32.688C123.848 29.4907 122.968 26.9973 121.208 25.208C119.448 23.3893 116.954 22.48 113.728 22.48H109.372V42.764H113.728ZM140.911 22.26V29.96H151.251V34.844H140.911V42.984H152.571V48H134.751V17.244H152.571V22.26H140.911ZM168.773 48.308C166.631 48.308 164.695 47.9413 162.965 47.208C161.263 46.4747 159.914 45.4187 158.917 44.04C157.919 42.6613 157.406 41.0333 157.377 39.156H163.977C164.065 40.4173 164.505 41.4147 165.297 42.148C166.118 42.8813 167.233 43.248 168.641 43.248C170.078 43.248 171.207 42.9107 172.029 42.236C172.85 41.532 173.261 40.6227 173.261 39.508C173.261 38.5987 172.982 37.8507 172.425 37.264C171.867 36.6773 171.163 36.2227 170.313 35.9C169.491 35.548 168.347 35.1667 166.881 34.756C164.886 34.1693 163.258 33.5973 161.997 33.04C160.765 32.4533 159.694 31.588 158.785 30.444C157.905 29.2707 157.465 27.716 157.465 25.78C157.465 23.9613 157.919 22.3773 158.829 21.028C159.738 19.6787 161.014 18.652 162.657 17.948C164.299 17.2147 166.177 16.848 168.289 16.848C171.457 16.848 174.023 17.6253 175.989 19.18C177.983 20.7053 179.083 22.8467 179.289 25.604H172.513C172.454 24.548 171.999 23.6827 171.149 23.008C170.327 22.304 169.227 21.952 167.849 21.952C166.646 21.952 165.678 22.26 164.945 22.876C164.241 23.492 163.889 24.3867 163.889 25.56C163.889 26.3813 164.153 27.0707 164.681 27.628C165.238 28.156 165.913 28.596 166.705 28.948C167.526 29.2707 168.67 29.652 170.137 30.092C172.131 30.6787 173.759 31.2653 175.021 31.852C176.282 32.4387 177.367 33.3187 178.277 34.492C179.186 35.6653 179.641 37.2053 179.641 39.112C179.641 40.7547 179.215 42.28 178.365 43.688C177.514 45.096 176.267 46.2253 174.625 47.076C172.982 47.8973 171.031 48.308 168.773 48.308ZM191.141 17.288V48H184.981V17.288H191.141ZM218.611 26.528C217.907 25.2373 216.939 24.2547 215.707 23.58C214.475 22.9053 213.038 22.568 211.395 22.568C209.577 22.568 207.963 22.9787 206.555 23.8C205.147 24.6213 204.047 25.7947 203.255 27.32C202.463 28.8453 202.067 30.6053 202.067 32.6C202.067 34.6533 202.463 36.4427 203.255 37.968C204.077 39.4933 205.206 40.6667 206.643 41.488C208.081 42.3093 209.753 42.72 211.659 42.72C214.006 42.72 215.927 42.104 217.423 40.872C218.919 39.6107 219.902 37.8653 220.371 35.636H209.811V30.928H226.443V36.296C226.033 38.4373 225.153 40.4173 223.803 42.236C222.454 44.0547 220.709 45.5213 218.567 46.636C216.455 47.7213 214.079 48.264 211.439 48.264C208.477 48.264 205.793 47.604 203.387 46.284C201.011 44.9347 199.134 43.072 197.755 40.696C196.406 38.32 195.731 35.6213 195.731 32.6C195.731 29.5787 196.406 26.88 197.755 24.504C199.134 22.0987 201.011 20.236 203.387 18.916C205.793 17.5667 208.462 16.892 211.395 16.892C214.857 16.892 217.863 17.7427 220.415 19.444C222.967 21.116 224.727 23.4773 225.695 26.528H218.611ZM257.269 48H251.109L237.161 26.924V48H231.001V17.244H237.161L251.109 38.364V17.244H257.269V48Z" fill="white"/>
<path d="M65.388 25.0837C65.388 25.0837 65.505 25.0837 65.6219 25.5203C65.8559 25.8476 66.0898 26.2842 66.3238 26.8298C66.6747 27.4846 67.0256 28.1394 67.3765 29.1216C67.7274 29.9946 68.0784 31.0859 68.3123 32.3955C68.7802 34.9055 68.8972 38.0703 68.0784 41.6716C67.8444 42.5446 67.6105 43.5268 67.2596 44.3998C66.9087 45.2729 66.5577 46.2551 66.0898 47.2372C65.1541 49.0924 63.8674 50.9477 62.3467 52.8029C60.8261 54.549 58.9545 56.2951 56.966 57.8229C54.8605 59.3507 52.5211 60.7694 49.9477 61.8607C47.3743 62.952 44.567 63.8251 41.5257 64.3707C38.6014 64.9164 35.4432 65.1346 32.2849 64.9164C31.4661 64.9164 30.6473 64.9164 29.9455 64.6981C29.5946 64.6981 29.1267 64.6981 28.7758 64.4798H27.606C27.606 64.4798 27.2551 64.2616 27.0212 64.2616H26.4363C26.0854 64.0433 25.6175 63.9342 25.2666 63.8251C24.4478 63.6068 23.629 63.3885 22.9272 63.0611C21.4065 62.5155 19.7689 61.8607 18.3652 61.0968C16.8446 60.3329 15.4409 59.4598 14.1543 58.4777C11.4639 56.5133 9.12446 54.1124 7.13593 51.4933C5.14741 48.8742 3.62677 46.0368 2.45705 42.9811C0.234583 36.979 -0.23331 30.4311 1.05338 24.3198C1.4043 22.792 1.75522 21.2642 2.34008 19.7363C2.92494 18.2085 3.62677 16.7898 4.44557 15.3711C6.08318 12.6429 8.18868 10.1329 10.6451 8.16851C13.1015 6.09503 15.7919 4.45807 18.5992 3.36677C21.4065 2.16633 24.4478 1.51155 27.3721 1.18416C30.2964 0.856766 33.1037 0.965897 35.7941 1.51155C37.0808 1.72981 38.3675 2.0572 39.6542 2.49372H40.122C40.122 2.60285 40.5899 2.71199 40.5899 2.71199C40.8239 2.82112 41.1748 2.93025 41.5257 3.03938C41.8766 3.14851 42.1106 3.25764 42.4615 3.36677C42.6954 3.4759 43.0464 3.58503 43.2803 3.80329C45.5028 4.8946 47.4913 6.31329 49.0119 7.84112C50.6495 9.36894 51.8193 11.0059 52.755 12.6429C53.6908 14.2798 54.2757 15.9168 54.7436 17.4446C55.0945 18.9724 55.3284 20.3911 55.3284 21.7007V23.5559C55.3284 24.1016 55.3284 24.6472 55.0945 25.0837C54.8605 25.5203 54.8605 26.0659 54.8605 26.3933C54.8605 26.8298 54.6266 27.1572 54.5096 27.4846C54.5096 27.812 54.2757 28.0303 54.1587 28.3576C54.1587 28.5759 53.9248 28.7942 53.9248 28.9033C53.9248 29.2307 53.6908 29.3398 53.6908 29.3398C53.6908 29.3398 53.6908 29.1216 53.6908 28.7942C53.6908 28.5759 53.6908 28.4668 53.6908 28.1394C53.6908 27.9211 53.6908 27.5937 53.6908 27.2663V24.8655C53.6908 23.8833 53.4569 22.9011 53.2229 21.7007C52.989 20.5003 52.5211 19.2998 51.9362 17.9903C51.3514 16.6807 50.5326 15.3711 49.4798 14.1707C47.4913 11.6607 44.45 9.36895 40.7069 8.16851C40.473 8.05938 40.239 8.05938 40.0051 7.95025C40.0051 7.95025 39.7711 7.84112 39.6542 7.84112H39.3032C39.0693 7.62286 38.8354 7.62286 38.6014 7.51373H38.1335C38.1335 7.4046 37.8996 7.4046 37.8996 7.4046C36.8468 7.18633 35.7941 7.0772 34.7413 6.96807C32.6358 6.85894 30.4134 6.96807 28.1909 7.4046C23.746 8.27764 19.535 10.3511 16.1428 13.5159C14.5052 15.1529 13.1015 16.8989 11.9318 18.9724C10.879 21.0459 10.1772 23.1194 9.70932 25.5203C8.89051 30.2129 9.3584 35.2329 10.996 39.8163C12.7506 44.3998 15.6749 48.5468 19.535 51.4933C20.4707 52.2572 21.5235 52.912 22.5762 53.5668C23.629 54.2216 24.6817 54.6581 25.8515 55.0946C27.0212 55.5311 27.0212 55.5311 27.606 55.7494C27.84 55.7494 28.1909 55.9677 28.4248 55.9677H28.7758C28.7758 55.9677 29.0097 56.1859 29.2437 56.1859H29.7115H30.0625C30.4134 56.1859 30.6473 56.1859 30.9982 56.4042C31.5831 56.4042 32.168 56.6224 32.8698 56.7316C37.7826 57.2772 42.6954 56.7316 47.0234 55.3129C51.3514 53.8942 55.2114 51.6024 58.1357 48.8742C61.06 46.1459 63.1655 43.0903 64.4522 40.1437C65.7389 37.1972 66.2068 34.3598 66.3238 31.959C66.3238 29.5581 66.0898 27.7029 65.7389 26.3933C65.622 25.7385 65.505 25.302 65.388 24.9746C65.0371 25.1929 65.0371 24.9746 65.0371 24.9746L65.388 25.0837Z" fill="white"/>
<path d="M57.0282 26.6532C57.0282 26.6532 57.1048 26.6532 57.1815 26.9379C57.3348 27.1515 57.488 27.4363 57.6413 27.7923C57.8712 28.2194 58.1011 28.6466 58.331 29.2874C58.561 29.8569 58.7909 30.5689 58.9441 31.4232C59.2507 33.0607 59.3273 35.1253 58.7909 37.4747C58.6376 38.0443 58.4843 38.6851 58.2544 39.2546C58.0245 39.8242 57.7946 40.4649 57.488 41.1057C56.8749 42.316 56.0319 43.5263 55.0356 44.7366C54.0394 45.8757 52.8132 47.0148 51.5103 48.0115C50.1309 49.0083 48.5981 49.9338 46.9121 50.6457C45.2261 51.3577 43.3868 51.9272 41.3942 52.2832C39.4783 52.6392 37.4091 52.7816 35.3399 52.6392C34.8034 52.6392 34.2669 52.6392 33.8071 52.4968C33.5772 52.4968 33.2707 52.4968 33.0408 52.3544H32.2744C32.2744 52.3544 32.0445 52.212 31.8912 52.212H31.508C31.2781 52.0696 30.9715 51.9984 30.7416 51.9272C30.2052 51.7849 29.6687 51.6425 29.2089 51.4289C28.2126 51.0729 27.1397 50.6457 26.22 50.1474C25.2237 49.649 24.3041 49.0795 23.4611 48.4387C21.6984 47.1572 20.1657 45.5909 18.8629 43.8823C17.56 42.1736 16.5637 40.3225 15.7974 38.3291C14.3413 34.4134 14.0347 30.1417 14.8777 26.1548C15.1076 25.1581 15.3375 24.1614 15.7207 23.1646C16.1039 22.1679 16.5637 21.2424 17.1002 20.3168C18.1731 18.537 19.5526 16.8995 21.162 15.618C22.7714 14.2653 24.534 13.1974 26.3733 12.4854C28.2126 11.7023 30.2052 11.2751 32.1211 11.0615C34.037 10.848 35.8763 10.9192 37.639 11.2751C38.482 11.4175 39.325 11.6311 40.168 11.9159H40.4746C40.4746 11.9871 40.7811 12.0583 40.7811 12.0583C40.9344 12.1295 41.1643 12.2007 41.3942 12.2719C41.6241 12.343 41.7774 12.4142 42.0073 12.4854C42.1606 12.5566 42.3905 12.6278 42.5438 12.7702C43.9999 13.4822 45.3027 14.4077 46.299 15.4044C47.3719 16.4011 48.1383 17.4691 48.7514 18.537C49.3645 19.6049 49.7477 20.6728 50.0542 21.6695C50.2841 22.6663 50.4374 23.5918 50.4374 24.4461V25.6564C50.4374 26.0124 50.4374 26.3684 50.2841 26.6532C50.1309 26.9379 50.1309 27.2939 50.1309 27.5075C50.1309 27.7923 49.9776 28.0059 49.9009 28.2194C49.9009 28.433 49.7477 28.5754 49.671 28.789C49.671 28.9314 49.5178 29.0738 49.5178 29.145C49.5178 29.3586 49.3645 29.4298 49.3645 29.4298C49.3645 29.4298 49.3645 29.2874 49.3645 29.0738C49.3645 28.9314 49.3645 28.8602 49.3645 28.6466C49.3645 28.5042 49.3645 28.2906 49.3645 28.0771V26.5108C49.3645 25.87 49.2112 25.2293 49.0579 24.4461C48.9047 23.663 48.5981 22.8799 48.2149 22.0255C47.8317 21.1712 47.2953 20.3168 46.6055 19.5337C45.3027 17.8962 43.3101 16.4011 40.8577 15.618C40.7045 15.5468 40.5512 15.5468 40.3979 15.4756C40.3979 15.4756 40.2446 15.4044 40.168 15.4044H39.9381C39.7848 15.262 39.6316 15.262 39.4783 15.1908H39.1717C39.1717 15.1196 39.0185 15.1196 39.0185 15.1196C38.3287 14.9773 37.639 14.9061 36.9492 14.8349C35.5698 14.7637 34.1137 14.8349 32.6576 15.1196C29.7453 15.6892 26.9864 17.0419 24.7639 19.1065C23.691 20.1745 22.7714 21.3136 22.005 22.6663C21.3152 24.019 20.8554 25.3717 20.5489 26.9379C20.0124 29.9993 20.319 33.2743 21.3919 36.2644C22.5414 39.2546 24.4574 41.96 26.9864 43.8823C27.5995 44.3806 28.2892 44.8078 28.979 45.235C29.6687 45.6621 30.3584 45.9469 31.1248 46.2317C31.8912 46.5165 31.8912 46.5165 32.2744 46.6588C32.4277 46.6588 32.6576 46.8012 32.8108 46.8012H33.0408C33.0408 46.8012 33.194 46.9436 33.3473 46.9436H33.6538H33.8838C34.1137 46.9436 34.2669 46.9436 34.4969 47.086C34.88 47.086 35.2632 47.2284 35.7231 47.2996C38.9418 47.6556 42.1606 47.2996 44.9962 46.3741C47.8317 45.4485 50.3608 43.9535 52.2767 42.1736C54.1926 40.3937 55.5721 38.4003 56.4151 36.478C57.2581 34.5558 57.5647 32.7047 57.6413 31.1384C57.6413 29.5721 57.488 28.3618 57.2581 27.5075C57.1815 27.0803 57.1048 26.7956 57.0282 26.582C56.7983 26.7244 56.7983 26.582 56.7983 26.582L57.0282 26.6532Z" fill="white"/>
<path d="M50.644 28.7181C50.644 28.7181 50.6899 28.7181 50.7359 28.8889C50.8279 29.0171 50.9199 29.188 51.0118 29.4015C51.1498 29.6578 51.2877 29.9141 51.4256 30.2986C51.5636 30.6403 51.7015 31.0675 51.7935 31.5801C51.9774 32.5626 52.0234 33.8014 51.7015 35.211C51.6096 35.5528 51.5176 35.9372 51.3797 36.2789C51.2417 36.6207 51.1038 37.0051 50.9199 37.3896C50.552 38.1158 50.0462 38.8419 49.4485 39.5681C48.8507 40.2516 48.115 40.9351 47.3333 41.5331C46.5057 42.1311 45.586 42.6865 44.5745 43.1136C43.5629 43.5408 42.4593 43.8825 41.2638 44.0961C40.1143 44.3097 38.8728 44.3951 37.6313 44.3097C37.3094 44.3097 36.9876 44.3097 36.7117 44.2243C36.5738 44.2243 36.3898 44.2243 36.2519 44.1388H35.7921C35.7921 44.1388 35.6541 44.0534 35.5622 44.0534H35.3323C35.1943 43.968 35.0104 43.9252 34.8724 43.8825C34.5506 43.7971 34.2287 43.7117 33.9528 43.5835C33.3551 43.3699 32.7113 43.1136 32.1596 42.8146C31.5618 42.5156 31.01 42.1738 30.5042 41.7894C29.4467 41.0205 28.5271 40.0807 27.7454 39.0555C26.9637 38.0303 26.3659 36.9197 25.9061 35.7236C25.0325 33.3742 24.8486 30.8112 25.3544 28.4191C25.4923 27.821 25.6302 27.223 25.8602 26.6249C26.0901 26.0269 26.3659 25.4716 26.6878 24.9163C27.3315 23.8484 28.1592 22.8659 29.1248 22.097C30.0904 21.2854 31.148 20.6446 32.2515 20.2174C33.3551 19.7476 34.5506 19.4913 35.7001 19.3631C36.8496 19.2349 37.9532 19.2777 39.0107 19.4913C39.5165 19.5767 40.0223 19.7048 40.5281 19.8757H40.712C40.712 19.9184 40.896 19.9611 40.896 19.9611C40.9879 20.0039 41.1259 20.0466 41.2638 20.0893C41.4018 20.132 41.4937 20.1747 41.6317 20.2174C41.7236 20.2602 41.8616 20.3029 41.9535 20.3883C42.8272 20.8155 43.6089 21.3708 44.2066 21.9688C44.8503 22.5669 45.3102 23.2076 45.678 23.8484C46.0459 24.4891 46.2758 25.1299 46.4597 25.7279C46.5976 26.3259 46.6896 26.8812 46.6896 27.3939V28.12C46.6896 28.3336 46.6896 28.5472 46.5976 28.7181C46.5057 28.8889 46.5057 29.1025 46.5057 29.2307C46.5057 29.4015 46.4137 29.5297 46.3677 29.6578C46.3677 29.786 46.2758 29.8714 46.2298 29.9996C46.2298 30.085 46.1378 30.1704 46.1378 30.2132C46.1378 30.3413 46.0459 30.384 46.0459 30.384C46.0459 30.384 46.0459 30.2986 46.0459 30.1704C46.0459 30.085 46.0459 30.0423 46.0459 29.9141C46.0459 29.8287 46.0459 29.7006 46.0459 29.5724V28.6326C46.0459 28.2482 45.9539 27.8637 45.8619 27.3939C45.77 26.924 45.586 26.4541 45.3561 25.9415C45.1262 25.4289 44.8044 24.9163 44.3905 24.4464C43.6089 23.4639 42.4133 22.5669 40.942 22.097C40.85 22.0543 40.758 22.0543 40.6661 22.0115C40.6661 22.0115 40.5741 21.9688 40.5281 21.9688H40.3902C40.2982 21.8834 40.2063 21.8834 40.1143 21.8407H39.9304C39.9304 21.798 39.8384 21.798 39.8384 21.798C39.4246 21.7125 39.0107 21.6698 38.5969 21.6271C37.7693 21.5844 36.8956 21.6271 36.022 21.798C34.2747 22.1397 32.6194 22.9513 31.2859 24.1901C30.6422 24.8308 30.0904 25.5143 29.6306 26.3259C29.2168 27.1376 28.9409 27.9492 28.757 28.8889C28.4351 30.7258 28.619 32.6907 29.2628 34.4848C29.9525 36.2789 31.102 37.9022 32.6194 39.0555C32.9872 39.3545 33.4011 39.6108 33.8149 39.8671C34.2287 40.1234 34.6425 40.2943 35.1024 40.4652C35.5622 40.636 35.5622 40.636 35.7921 40.7215C35.884 40.7215 36.022 40.8069 36.1139 40.8069H36.2519C36.2519 40.8069 36.3438 40.8923 36.4358 40.8923H36.6197H36.7577C36.8956 40.8923 36.9876 40.8923 37.1255 40.9778C37.3554 40.9778 37.5853 41.0632 37.8612 41.1059C39.7924 41.3195 41.7236 41.1059 43.4249 40.5506C45.1262 39.9953 46.6436 39.0982 47.7931 38.0303C48.9427 36.9624 49.7703 35.7663 50.2761 34.613C50.7819 33.4596 50.9658 32.349 51.0118 31.4092C51.0118 30.4695 50.9199 29.7433 50.7819 29.2307C50.7359 28.9744 50.6899 28.8035 50.644 28.6754C50.506 28.7608 50.506 28.6754 50.506 28.6754L50.644 28.7181Z" fill="white"/>
</svg>
