<svg width="308" height="233" viewBox="0 0 308 233" fill="none" xmlns="http://www.w3.org/2000/svg">
<path d="M57.4741 224.343L253.739 190.703L248.322 159.095L52.0566 192.735L57.4741 224.343Z" fill="#FF8C00"/>
<path d="M248.29 159.117L283.313 163.001L305.691 165.472L286.412 174.843L253.758 191.027L248.29 159.117Z" fill="#D0B693"/>
<path d="M53.8257 203.069L250.091 169.43L248.319 159.092L52.0539 192.732L53.8257 203.069Z" fill="black"/>
<path d="M57.5132 224.655L253.778 191.016L252.267 182.198L56.0019 215.838L57.5132 224.655Z" fill="black"/>
<path d="M18.4937 198.502L58.8938 191.578L64.366 223.505L23.9659 230.43C18.1129 231.433 12.5453 227.494 11.5421 221.641L9.70554 210.926C8.70234 205.073 12.6406 199.506 18.4937 198.502Z" fill="#263238"/>
<path d="M58.9161 191.587L18.5227 198.511C12.664 199.516 8.72781 205.08 9.73291 210.938C10.738 216.797 16.3012 220.733 22.16 219.728L62.5534 212.804L58.9161 191.587Z" fill="#38474F"/>
<path d="M66.5513 223.122L61.0791 191.195L29.4711 196.613L34.9434 228.54L66.5513 223.122Z" fill="#DBDBDB"/>
<path d="M53.2232 225.411L47.751 193.484L42.7545 194.341L48.2267 226.268L53.2232 225.411Z" fill="#EBEBEB"/>
<path d="M44.3538 226.973L38.876 195.047L33.8796 195.904L39.3575 227.83L44.3538 226.973Z" fill="#EBEBEB"/>
<path d="M61.8404 223.935L56.3682 192.008L51.3717 192.864L56.8439 224.791L61.8404 223.935Z" fill="#EBEBEB"/>
<path d="M283.307 162.991L305.685 165.47L286.406 174.842C285.847 173.902 285.361 172.907 284.961 171.901C283.837 169.091 283.273 166.037 283.308 162.999L283.307 162.991Z" fill="#263238"/>
<path d="M99.3145 124.532L88.7761 118.886L93.1627 114.097L99.3145 124.532Z" fill="#263238"/>
<path d="M94.0339 90.2591L67.0877 113.204L83.8909 128.931L110.31 110.493L94.0339 90.2591Z" fill="#D0B693"/>
<path d="M108.573 168.725C106.241 159.903 113.755 148.178 117.979 136.685L151.551 140.109C158.43 144.928 165.272 151.079 164.932 158.222C163.934 179.122 114.472 191.007 108.573 168.725Z" fill="#263238"/>
<path d="M157.691 134.255C157.85 138.051 157.963 141.756 158.016 145.25C141.811 154.722 126.134 154.008 117.708 152.571C117.313 152.511 116.926 152.434 116.565 152.364C116.505 152.349 116.453 152.343 116.393 152.328C113.177 151.687 111.307 151.024 111.307 151.024L115.692 136.062C111.972 131.954 109.1 125.5 106.933 118.573C106.729 117.977 106.55 117.37 106.38 116.763C101.974 101.821 100.635 85.3679 100.635 85.3679C100.635 85.3679 101.699 84.9224 104.672 83.8254C104.705 83.807 104.747 83.7967 104.789 83.7778C104.974 83.7104 105.175 83.6337 105.377 83.557C107.93 82.6226 111.703 81.2873 117.099 79.4318C124.728 79.3416 133.933 79.8417 141.278 80.7354C141.621 80.7722 141.972 80.8171 142.307 80.8627C142.71 80.914 143.104 80.9657 143.499 81.0173C143.713 81.0424 143.989 81.1161 144.309 81.222C147.293 82.2223 154.267 86.2527 154.267 86.2527C154.267 86.2527 156.744 111.722 157.691 134.255Z" fill="#FF8C00"/>
<path d="M142.412 92.6403L139.86 92.9777L122.992 95.1958C119.817 91.2702 115.16 85.3687 109.37 82.1243C111.462 81.3797 114.017 80.4964 117.102 79.4288C123.401 79.3603 130.782 79.6812 137.297 80.2943C137.899 81.2155 138.421 82.0719 138.889 82.8624L138.944 82.9624C140.971 86.3479 141.91 88.8155 142.421 92.6399L142.412 92.6403Z" fill="#D0B693"/>
<path d="M132.009 80.837C131.643 83.8797 129.695 86.6306 126.626 87.6805C126.164 87.8363 125.708 87.9493 125.242 88.02C121.616 88.5817 117.985 86.5939 116.575 83.0716L108.115 61.955L127.413 60.931L128.96 67.1251L129.523 69.3527L130.752 74.247L131.769 77.9563C132.054 79.0614 132.125 79.9368 132.018 80.8452L132.009 80.837Z" fill="#D0B693"/>
<path d="M132.354 79.8881C125.59 81.6731 115.751 78.667 113.907 68.4689C117.059 66.5543 127.995 69.0794 129.515 69.3396L130.744 74.2339L132.354 79.8881Z" fill="#263238"/>
<path d="M114.59 26.7626C113.236 23.7667 110.024 21.8039 106.722 22.3605C105.003 22.6544 103.556 23.5253 102.434 24.826C101.844 24.5864 101.152 24.3512 100.357 24.1117C97.3868 23.2387 95.0853 23.4634 93.4257 24.3517C92.7008 24.5527 91.9958 24.8211 91.3124 25.1994C89.2287 26.3444 87.7244 28.2922 87.1648 30.601C86.6194 32.8411 86.9898 35.3667 88.4234 37.2166C89.983 39.2232 92.4601 40.3386 94.9176 40.7811C97.0742 41.168 99.4839 41.0838 101.629 40.3882C102.732 40.4442 103.907 40.4119 105.179 40.2391L110.857 37.7663C111.9 36.8356 112.661 35.8486 113.189 34.8287C114.083 33.9725 114.671 32.7455 114.971 31.5816C115.39 29.9779 115.267 28.2691 114.59 26.7626ZM96.3983 39.4909C94.1662 39.3374 91.841 38.5909 90.1652 37.0666C86.9554 34.1402 87.9165 29.0089 91.1643 26.5445C88.9244 30.4674 90.9775 37.1178 97.346 39.5193C97.0307 39.524 96.7151 39.5202 96.3898 39.4913L96.3983 39.4909ZM114.118 30.7562C114.118 30.7562 114.103 30.7995 114.103 30.8165C113.906 26.1262 109.488 22.2528 104.651 23.8204C106.482 22.9504 108.694 22.8319 110.504 23.6939C113.149 24.9556 114.712 27.8575 114.118 30.7477L114.118 30.7562Z" fill="#263238"/>
<path d="M111.717 43.1824L111.197 37.4995C107.313 35.9657 103.373 40.4376 103.373 40.4376L108.025 46.0322L111.726 43.1906L111.717 43.1824Z" fill="#FF8C00"/>
<path d="M122.845 38.9348C108.234 37.0416 98.8704 42.2957 98.0283 54.3206C97.1862 66.3455 109.826 71.6728 110.095 71.7894C110.364 71.906 122.845 38.9433 122.845 38.9433L122.845 38.9348Z" fill="#263238"/>
<path d="M134.102 42.9444C132.404 41.3102 130.177 40.4487 127.752 40.1754C121.557 39.4636 114.022 42.6027 110.592 46.8144C105.572 52.9689 106.249 60.9477 110.102 67.207C111.86 70.0921 114.303 72.6245 117.168 74.4313C122.188 77.6143 128.924 78.8236 134.014 75.7616C137.69 73.552 139.947 69.4152 140.604 65.175C141.727 58.0075 139.479 48.1334 134.102 42.9444Z" fill="#D0B693"/>
<path d="M103.414 55.377C103.414 55.377 108.042 43.1333 106.444 43.4563C113.262 33.0222 129.6 31.7985 135.77 42.045C137.048 43.8418 137.964 46.1739 138.292 49.1021C134.374 40.0827 127.57 52.486 116 43.6005C117.253 47.641 115.556 51.49 113.182 54.6511C114.264 60.1228 112.519 64.6475 110.124 65.6946C110.124 65.6946 103.698 60.1063 103.423 55.3766L103.414 55.377Z" fill="#263238"/>
<path d="M135.443 56.2222C135.752 57.079 135.516 57.9673 134.929 58.2136C134.334 58.4603 133.606 57.9623 133.297 57.114C132.988 56.2571 133.224 55.3689 133.81 55.1226C134.405 54.8758 135.134 55.3739 135.443 56.2222Z" fill="#263238"/>
<path d="M133.272 60.4045C132.064 58.4428 130.766 56.5616 129.433 54.6819C129.306 54.4996 129.006 54.6572 129.125 54.8569C130.08 56.4711 131.033 58.0597 132.063 59.6282C132.555 60.392 133.203 61.1834 133.394 62.0963C133.546 62.8574 133.147 63.5138 132.658 64.046C132.536 64.1875 132.606 64.4404 132.819 64.4314C133.534 64.4099 134.033 63.6982 134.108 63.0385C134.213 62.0875 133.757 61.1772 133.272 60.396L133.272 60.4045Z" fill="#263238"/>
<path d="M136.061 47.0298C138.959 49.6453 130.216 51.4112 130.226 48.8099C130.238 46.8566 134.847 45.9382 136.061 47.0298Z" fill="#263238"/>
<path d="M115.232 54.7435C114.699 52.8132 119.239 51.0619 120.625 51.3874C124.501 52.3075 116.258 58.461 115.232 54.7435Z" fill="#263238"/>
<path d="M123.92 66.0055C124.117 65.4004 129.532 65.8209 130.04 66.5329C130.357 66.9886 129.031 69.125 126.719 68.8896C124.809 68.6969 123.694 66.7143 123.92 66.0055Z" fill="#EBEBEB"/>
<path d="M106.552 60.6309C104.579 60.1425 102.229 60.6335 101.054 62.2945C100.08 63.6828 100.107 65.5491 100.509 67.1951C101.033 69.322 102.158 71.3298 103.861 72.6994C105.565 74.069 107.878 74.7392 110.007 74.2575C112.136 73.7758 113.999 72.0517 114.429 69.9018C115.245 65.7829 110.103 61.5135 106.552 60.6309Z" fill="#D0B693"/>
<path d="M110.877 67.7191C110.076 66.9171 109.052 66.2864 107.949 66.0087C107.44 65.8766 106.933 65.7871 106.404 65.7752C105.883 65.7629 105.358 65.8532 104.831 65.8924C104.491 65.9152 104.464 66.4877 104.815 66.5071C105.046 66.523 105.268 66.5392 105.493 66.615C105.717 66.6824 105.935 66.7841 106.152 66.8688C106.377 66.9531 106.603 67.0545 106.82 67.1477C106.924 67.1945 107.037 67.2409 107.133 67.2965C107.238 67.3518 107.385 67.4053 107.465 67.4872C107.439 67.4713 107.413 67.4553 107.395 67.439C107.43 67.4631 107.465 67.4872 107.5 67.5028C107.588 67.5589 107.675 67.6149 107.771 67.6705C107.824 67.7024 107.885 67.734 107.937 67.7659C107.937 67.7659 107.937 67.7659 107.946 67.7655C108.163 67.8672 108.367 68.0548 108.553 68.2005C108.941 68.5082 109.312 68.8167 109.651 69.1776C109.811 69.3414 110.138 69.413 110.359 69.3867C110.588 69.36 110.847 69.2297 110.993 69.0445C111.324 68.6042 111.242 68.0875 110.868 67.7024L110.877 67.7191Z" fill="#263238"/>
<path d="M126.361 58.9672C124.495 58.5936 122.555 58.4875 120.662 58.695C120.382 58.7238 120.427 59.1909 120.708 59.1876C121.868 59.1816 123.013 59.2528 124.144 59.3844C123.021 59.6447 121.918 59.964 120.899 60.4843C120.482 60.698 120.716 61.4044 121.188 61.2652C122.905 60.7411 124.556 60.0407 126.333 59.7103C126.697 59.6438 126.74 59.0451 126.361 58.9672Z" fill="#263238"/>
<path d="M195.392 119.16C193.293 125.823 172.388 122.873 157.697 118.851L157.161 88.0385L189.887 107.888L195.393 119.169L195.392 119.16Z" fill="#D0B693"/>
<path d="M162.534 47.5183C181.04 59.7535 200.641 97.8065 195.381 119.15L174.714 103.816C168.905 63.5976 162.458 61.9584 162.458 61.9584L162.534 47.5183Z" fill="#D0B693"/>
<path d="M137.488 56.2641C137.753 57.7026 138.514 58.7621 139.174 58.6406C139.834 58.5191 140.156 57.252 139.891 55.8135C139.626 54.375 138.865 53.3154 138.205 53.437C137.545 53.5585 137.223 54.8256 137.488 56.2641Z" fill="#38474F"/>
<path d="M138.202 53.4429L145.227 51.1779L146.539 58.2432L139.18 58.6547L138.202 53.4429Z" fill="#38474F"/>
<path d="M144.672 54.9326C145.606 59.916 148.226 63.6092 150.527 63.1799C152.829 62.7506 153.949 58.3631 153.015 53.3797C152.081 48.3963 149.461 44.7031 147.16 45.1324C144.858 45.5617 143.738 49.9492 144.672 54.9326Z" fill="#263238"/>
<path d="M201.759 56.8666L201.112 56.8938L201.104 56.9112L184.018 59.019L181.592 59.3256L177.062 59.8826L177.054 59.883L174.433 60.2148L150.535 63.1717L147.167 45.1157L170.437 39.2091L171.425 38.9544L175.795 37.8498L176.934 37.5632L196.568 32.5769L196.577 32.5765L197.191 32.3717L201.768 56.8748L201.759 56.8666Z" fill="#263238"/>
<path d="M177.046 59.9166L174.425 60.2484C174.141 59.979 173.881 59.6829 173.647 59.3857C172.331 57.7014 171.471 55.6995 170.806 53.6809C170.141 51.6452 169.762 49.5292 169.613 47.3951C169.429 44.64 169.731 41.89 170.438 39.2338L171.425 38.9792C171.243 39.9163 171.095 40.8691 171.024 41.8186C170.699 45.644 171.221 49.5447 172.507 53.166C173.099 54.8636 173.874 56.6645 174.992 58.1013C175.56 58.8364 176.235 59.4817 177.055 59.9162L177.046 59.9166Z" fill="#FF8C00"/>
<path d="M184.014 59.0487L181.588 59.3553C180.974 58.7416 180.401 58.1005 179.87 57.4236C177.401 54.2784 175.675 50.5391 175.124 46.5629C174.718 43.6039 174.996 40.6843 175.791 37.871L176.93 37.5844C176.712 38.7021 176.581 39.8418 176.535 40.9779C176.399 44.8465 177.093 48.7741 178.8 52.2583C180.068 54.84 181.845 57.1615 184.014 59.0487Z" fill="#FF8C00"/>
<path d="M193.799 45.675C195.064 52.4438 198.617 57.4536 201.748 56.8701C204.879 56.2866 206.385 50.3309 205.129 43.5618C203.864 36.793 200.31 31.7832 197.18 32.3667C194.049 32.9502 192.543 38.9059 193.799 45.675Z" fill="#FF8C00"/>
<path d="M195.296 45.4028C196.078 49.591 198.049 52.868 200.03 53.5522C200.411 53.6812 200.788 53.7165 201.151 53.6416C203.453 53.2123 204.573 48.8248 203.639 43.8414C202.704 38.8495 200.085 35.1563 197.783 35.5856C197.419 35.652 197.077 35.8199 196.772 36.08C195.175 37.4348 194.515 41.206 195.296 45.3943L195.296 45.4028Z" fill="#263238"/>
<path d="M195.296 45.408C196.078 49.5962 198.049 52.8732 200.03 53.5574C201.628 52.2112 202.297 48.4395 201.515 44.2428C200.733 40.0375 198.753 36.7694 196.772 36.0852C195.175 37.44 194.514 41.2112 195.296 45.3995L195.296 45.408Z" fill="#EBEBEB"/>
<path d="M168.834 39.619C164.037 34.6444 161.583 40.1794 161.583 40.1794C157.198 35.665 155.162 41.6004 155.162 41.6004C150.722 37.4038 149.011 44.5791 149.608 48.2208C150.204 51.8625 153.773 49.9389 154.987 45.1296C155.092 50.8812 158.157 51.5796 160.61 44.015C161.071 50.5106 164.305 50.5538 165.528 40.7044L168.834 39.619Z" fill="#D0B693"/>
<path d="M158.959 63.5987C153.78 61.693 153.653 60.5045 155.067 57.4093C156.48 54.3142 162.124 50.4273 162.046 53.8586C161.969 57.2899 160.623 58.7449 160.623 58.7449C160.623 58.7449 167.229 60.1131 171.388 64.7137C171.388 64.7137 165.836 66.1153 158.959 63.5987Z" fill="#D0B693"/>
<path d="M148.458 83.2116C159.772 88.8419 170.535 96.1752 170.535 96.1752L161.719 120.764L150.44 117.596L148.467 83.2028L148.458 83.2116Z" fill="#FF8C00"/>
<path d="M100.636 85.4033C96.8044 87.7728 83.9805 98.5616 83.9805 98.5616L99.322 124.557L110.911 114.417L100.627 85.4036L100.636 85.4033Z" fill="#FF8C00"/>
<path d="M92.8849 98.8064C92.8295 98.7064 92.7252 98.6596 92.6213 98.6213C92.6213 98.6213 92.6127 98.6217 92.6042 98.622C92.6552 98.4152 92.6977 98.2088 92.7487 98.002C92.7923 97.8211 92.6975 97.5948 92.5148 97.5087C92.3495 97.4304 92.1115 97.4489 91.9814 97.5993C91.7871 97.8463 91.5925 98.0847 91.3982 98.3316C91.2525 98.5168 91.2302 98.7992 91.4247 98.9615C91.4775 99.002 91.5385 99.0335 91.5988 99.048C91.578 99.1598 91.5652 99.2626 91.5358 99.3747C91.4852 99.59 91.6321 99.8397 91.8641 99.8811C92.0961 99.9225 92.3205 99.7852 92.3705 99.5528C92.3705 99.5528 92.3705 99.5528 92.3701 99.5443C92.3697 99.5358 92.3775 99.5184 92.3857 99.5096C92.3857 99.5096 92.3935 99.4922 92.402 99.4918C92.4105 99.4915 92.4268 99.4737 92.4353 99.4734C92.5034 99.4705 92.5708 99.4506 92.6382 99.4307C92.8067 99.381 92.9439 99.1962 92.9278 99.0178C92.925 98.9497 92.8962 98.8741 92.8682 98.8156L92.8849 98.8064Z" fill="black"/>
<path d="M104.015 101.867C104.01 101.748 104.013 101.62 104.017 101.501L103.994 101.365C103.974 101.298 103.946 101.239 103.893 101.19C103.866 101.149 103.83 101.116 103.787 101.092C103.733 101.043 103.673 101.02 103.604 101.006C103.535 100.992 103.458 100.987 103.39 100.981C103.356 100.983 103.33 100.984 103.296 100.985C103.228 100.988 103.152 101.008 103.085 101.028C103.017 101.048 102.951 101.085 102.883 101.113C102.858 101.123 102.833 101.141 102.809 101.159C102.751 101.204 102.693 101.249 102.644 101.302C102.595 101.356 102.555 101.426 102.515 101.487C102.499 101.513 102.484 101.539 102.476 101.574C102.445 101.635 102.422 101.696 102.425 101.772C102.411 101.841 102.422 101.909 102.433 101.968C102.453 102.035 102.481 102.094 102.534 102.143C102.571 102.201 102.624 102.25 102.694 102.281C102.772 102.32 102.867 102.333 102.952 102.33C102.953 102.364 102.946 102.398 102.956 102.432C102.975 102.474 102.994 102.524 103.013 102.566C103.067 102.649 103.139 102.723 103.234 102.77C103.296 102.81 103.365 102.824 103.441 102.821C103.51 102.835 103.586 102.823 103.654 102.803C103.73 102.783 103.788 102.747 103.845 102.693C103.912 102.648 103.952 102.595 103.992 102.525C104.039 102.438 104.052 102.343 104.057 102.249C104.054 102.19 104.043 102.122 104.032 102.063C104.029 102.003 104.027 101.944 104.024 101.884L104.015 101.867Z" fill="black"/>
<path d="M104.883 89.2911C104.821 89.251 104.768 89.2106 104.708 89.1876C104.744 89.0411 104.789 88.8857 104.808 88.7399C104.828 88.6112 104.822 88.4665 104.741 88.3505C104.677 88.2509 104.588 88.1778 104.476 88.1399C104.225 88.0481 103.965 88.1614 103.838 88.3884C103.814 88.4235 103.799 88.4583 103.775 88.4934C103.686 88.6165 103.597 88.7396 103.509 88.8713C103.46 88.9245 103.428 88.977 103.406 89.0462C103.374 89.1072 103.368 89.1671 103.371 89.2352C103.376 89.3459 103.432 89.4629 103.503 89.5452C103.481 89.6314 103.46 89.7261 103.429 89.8126C103.377 89.9939 103.454 90.1953 103.587 90.3176C103.711 90.4318 103.936 90.5076 104.103 90.4324C104.212 90.3852 104.321 90.338 104.43 90.2907C104.488 90.2627 104.54 90.2606 104.598 90.241C104.792 90.1732 104.998 90.0111 105.023 89.7883C105.044 89.6936 105.041 89.6085 105.011 89.5159C104.982 89.4233 104.936 89.3485 104.865 89.2833L104.883 89.2911Z" fill="black"/>
<path d="M116.599 91.058C116.553 90.9832 116.491 90.9176 116.421 90.8779C116.385 90.8453 116.333 90.8304 116.282 90.8155C116.263 90.7737 116.244 90.7403 116.226 90.6985C116.19 90.6573 116.163 90.6244 116.127 90.5832C116.073 90.5258 116.004 90.4946 115.935 90.4719C115.891 90.4482 115.84 90.4418 115.797 90.4436C115.746 90.4372 115.703 90.439 115.652 90.4497C115.601 90.4518 115.559 90.4621 115.518 90.4895C115.442 90.5182 115.384 90.5548 115.335 90.6165C115.237 90.7229 115.131 90.8212 115.032 90.9106C114.983 90.9639 114.943 91.0252 114.929 91.0941C114.897 91.1551 114.892 91.2235 114.895 91.3001C114.897 91.3427 114.907 91.3934 114.918 91.4356C114.938 91.503 114.975 91.5697 115.019 91.619C115.02 91.6445 115.021 91.67 115.014 91.6959L115.015 91.73C115.017 91.7811 114.994 91.8332 114.996 91.8843C114.999 91.9609 115.02 92.0368 115.057 92.1034C115.085 92.179 115.131 92.2453 115.193 92.2939C115.237 92.3261 115.281 92.3584 115.324 92.3821C115.394 92.4218 115.463 92.436 115.54 92.4413C115.592 92.4562 115.643 92.454 115.693 92.4349C115.77 92.4316 115.845 92.4029 115.903 92.3578C116.019 92.2762 116.108 92.1616 116.145 92.0236C116.179 92.0222 116.212 91.9952 116.254 91.9934C116.305 91.9743 116.355 91.9466 116.405 91.9274C116.48 91.8816 116.546 91.8192 116.585 91.7493C116.626 91.7049 116.65 91.6613 116.664 91.601C116.695 91.523 116.709 91.4456 116.705 91.3605C116.701 91.2499 116.662 91.1491 116.607 91.0491L116.599 91.058Z" fill="black"/>
<path d="M116.453 102.175C116.434 102.124 116.406 102.083 116.387 102.033C116.351 101.991 116.315 101.95 116.288 101.909C116.244 101.877 116.2 101.844 116.156 101.821C116.087 101.781 116.009 101.759 115.932 101.762C115.88 101.747 115.829 101.749 115.779 101.768C115.728 101.77 115.678 101.789 115.636 101.817C115.586 101.836 115.544 101.863 115.503 101.899C115.437 101.945 115.388 102.006 115.349 102.085C115.261 102.225 115.173 102.356 115.085 102.497C115.045 102.566 115.031 102.635 115.026 102.712C115.012 102.79 115.023 102.857 115.043 102.933C115.062 102.975 115.081 103.025 115.109 103.067C115.146 103.134 115.199 103.191 115.269 103.231C115.305 103.263 115.348 103.287 115.4 103.302C115.47 103.333 115.538 103.347 115.615 103.344C115.641 103.343 115.658 103.342 115.683 103.333C115.726 103.348 115.753 103.381 115.805 103.396C115.882 103.418 115.968 103.415 116.043 103.394C116.129 103.391 116.196 103.362 116.27 103.317C116.345 103.271 116.403 103.217 116.451 103.138C116.508 103.076 116.538 102.998 116.552 102.921C116.574 102.818 116.569 102.707 116.539 102.606C116.508 102.471 116.485 102.335 116.462 102.2L116.453 102.175Z" fill="black"/>
<path d="M102.015 113.805C101.986 113.729 101.941 113.654 101.87 113.606C101.791 113.533 101.695 113.477 101.583 113.456C101.583 113.456 101.574 113.457 101.566 113.457C101.532 113.458 101.506 113.451 101.472 113.452C101.455 113.453 101.429 113.454 101.412 113.455C101.403 113.447 101.394 113.421 101.385 113.413C101.341 113.381 101.297 113.349 101.244 113.317C101.174 113.277 101.097 113.255 101.012 113.258C100.96 113.244 100.909 113.246 100.85 113.265C100.765 113.269 100.689 113.298 100.623 113.343C100.582 113.379 100.541 113.415 100.491 113.451C100.418 113.531 100.362 113.635 100.341 113.739C100.304 113.868 100.267 113.998 100.221 114.127C100.199 114.205 100.202 114.29 100.223 114.366C100.226 114.451 100.255 114.527 100.3 114.593C100.319 114.635 100.362 114.65 100.389 114.683C100.389 114.683 100.39 114.692 100.39 114.7C100.397 114.862 100.464 115.03 100.596 115.135C100.64 115.167 100.684 115.199 100.736 115.231C100.806 115.271 100.884 115.293 100.969 115.29C101.021 115.305 101.072 115.303 101.131 115.283C101.216 115.279 101.291 115.251 101.358 115.205C101.49 115.114 101.621 114.972 101.64 114.81C101.639 114.801 101.639 114.793 101.639 114.784C101.638 114.776 101.646 114.767 101.655 114.758C101.679 114.731 101.703 114.696 101.736 114.669C101.711 114.687 101.695 114.705 101.67 114.723C101.72 114.687 101.778 114.642 101.818 114.597C101.835 114.58 101.843 114.571 101.859 114.553C101.917 114.5 101.957 114.438 101.988 114.369C102.035 114.273 102.065 114.169 102.06 114.059C102.056 113.974 102.036 113.898 101.999 113.831L102.015 113.805Z" fill="black"/>
<path d="M119.331 117.895C119.331 117.895 119.328 117.827 119.326 117.785C119.32 117.623 119.244 117.438 119.111 117.333C119.067 117.301 119.015 117.269 118.971 117.237C118.892 117.197 118.815 117.175 118.729 117.17C118.592 117.159 118.44 117.182 118.324 117.264C118.283 117.3 118.233 117.336 118.192 117.372C118.11 117.46 118.063 117.556 118.034 117.677C117.973 117.85 117.921 118.023 117.86 118.196C117.838 118.282 117.841 118.359 117.862 118.443C117.865 118.528 117.894 118.604 117.948 118.678C117.984 118.719 118.02 118.769 118.056 118.81C118.056 118.81 118.065 118.81 118.074 118.818C118.075 118.843 118.076 118.869 118.077 118.894C118.083 119.048 118.168 119.24 118.283 119.338C118.327 119.37 118.38 119.402 118.424 119.434C118.502 119.473 118.58 119.496 118.657 119.501C118.785 119.513 118.938 119.489 119.045 119.408C119.178 119.317 119.316 119.166 119.327 119.004C119.357 118.721 119.397 118.438 119.393 118.157C119.39 118.072 119.36 117.979 119.323 117.896L119.331 117.895Z" fill="black"/>
<path d="M129.061 100.553C129.057 100.442 129.053 100.357 129.023 100.248C129.022 100.231 129.013 100.205 129.003 100.189C128.999 100.078 128.986 99.9764 128.973 99.8661C128.97 99.8065 128.951 99.7561 128.94 99.6969C128.919 99.6125 128.873 99.5292 128.811 99.4721C128.775 99.4224 128.731 99.3817 128.678 99.3497C128.607 99.293 128.529 99.2537 128.443 99.2402C128.332 99.2193 128.212 99.2244 128.103 99.2545C128.018 99.2751 127.935 99.3213 127.878 99.3834C127.803 99.4377 127.747 99.5083 127.707 99.5867C127.585 99.9244 127.463 100.271 127.341 100.608C127.302 100.687 127.279 100.764 127.274 100.85C127.261 100.936 127.264 101.012 127.293 101.096C127.314 101.181 127.36 101.256 127.422 101.313C127.476 101.387 127.538 101.444 127.617 101.484C127.764 101.554 127.945 101.581 128.104 101.523C128.23 101.475 128.354 101.384 128.435 101.27C128.596 101.246 128.764 101.188 128.869 101.056C128.991 100.914 129.061 100.741 129.053 100.553L129.061 100.553Z" fill="black"/>
<path d="M141.393 104.231C141.393 104.231 141.348 104.165 141.329 104.131C141.308 104.038 141.287 103.945 141.267 103.861C141.248 103.819 141.229 103.769 141.201 103.727C141.164 103.661 141.111 103.603 141.041 103.564C141.005 103.531 140.962 103.507 140.91 103.492C140.84 103.461 140.772 103.447 140.695 103.459L140.551 103.482C140.51 103.501 140.459 103.52 140.418 103.547C140.351 103.584 140.294 103.638 140.254 103.707C140.205 103.769 140.174 103.83 140.16 103.908C140.154 103.959 140.155 104.002 140.149 104.053C140.149 104.053 140.149 104.061 140.15 104.07C140.15 104.079 140.15 104.087 140.151 104.096C140.139 104.224 140.11 104.353 140.09 104.473C140.076 104.542 140.07 104.611 140.098 104.669C140.101 104.737 140.129 104.804 140.166 104.862C140.203 104.929 140.256 104.978 140.317 105.01C140.37 105.058 140.431 105.081 140.5 105.096C140.525 105.095 140.551 105.093 140.576 105.092C140.611 105.108 140.654 105.123 140.689 105.13C140.767 105.153 140.843 105.149 140.919 105.129C140.97 105.127 141.02 105.108 141.07 105.08C141.121 105.061 141.171 105.033 141.203 104.998C141.253 104.97 141.286 104.926 141.309 104.883C141.358 104.821 141.398 104.751 141.411 104.665C141.425 104.596 141.422 104.52 141.427 104.443C141.433 104.366 141.412 104.29 141.392 104.214L141.393 104.231Z" fill="black"/>
<path d="M148.104 85.3538C148.085 85.3034 148.058 85.2534 148.038 85.2031C148.038 85.2031 148.038 85.2031 148.038 85.1946C148.002 85.1449 147.957 85.0871 147.912 85.0378C147.903 85.0297 147.894 85.0215 147.885 85.0134C147.78 84.9325 147.674 84.8602 147.537 84.8404C147.46 84.8266 147.392 84.8295 147.315 84.8242C147.315 84.8242 147.315 84.8242 147.306 84.8245C147.297 84.8078 147.287 84.7827 147.27 84.7664C147.224 84.7 147.162 84.6515 147.084 84.6121C147.014 84.5724 146.936 84.5501 146.86 84.5533C146.783 84.5395 146.706 84.5427 146.63 84.5715C146.479 84.6205 146.338 84.7202 146.268 84.8681C146.205 85.0072 146.17 85.1792 146.227 85.3218C146.285 85.4814 146.351 85.6321 146.409 85.7917C146.428 85.8421 146.455 85.8836 146.474 85.9339C146.52 86.0087 146.574 86.0662 146.644 86.1059C146.688 86.1467 146.732 86.1704 146.783 86.1768C146.853 86.208 146.93 86.2218 147.015 86.2182C147.066 86.216 147.117 86.1969 147.168 86.1947C147.209 86.1759 147.251 86.1571 147.302 86.1379C147.336 86.1535 147.363 86.178 147.397 86.1851C147.501 86.2063 147.603 86.202 147.704 86.1722C147.813 86.142 147.896 86.0788 147.978 85.9987C148.051 85.9188 148.099 85.823 148.128 85.711C148.134 85.651 148.14 85.5825 148.146 85.5226C148.143 85.4715 148.103 85.3112 148.121 85.3531L148.104 85.3538Z" fill="black"/>
<path d="M160.01 96.8469C159.991 96.7965 159.963 96.7465 159.944 96.6962C159.908 96.655 159.872 96.6139 159.836 96.5643C159.818 96.5479 159.801 96.5401 159.775 96.5242C159.766 96.3114 159.613 96.1132 159.43 96.0185C159.22 95.9079 158.982 95.9265 158.783 96.0457C158.633 96.1288 158.491 96.22 158.35 96.3112C158.201 96.4027 158.088 96.5695 158.053 96.733C158.031 96.8192 158.034 96.9043 158.055 96.9887C158.058 97.0739 158.087 97.1579 158.142 97.2324C158.233 97.3735 158.374 97.487 158.546 97.5224C158.547 97.5309 158.547 97.5479 158.548 97.5564C158.55 97.6075 158.569 97.6578 158.571 97.7089C158.592 97.7933 158.629 97.86 158.691 97.9171C158.718 97.9671 158.762 97.9993 158.815 98.0312C158.877 98.0798 158.946 98.1195 159.032 98.133C159.136 98.1542 159.246 98.1496 159.347 98.1197C159.389 98.1094 159.422 98.074 159.464 98.0551C159.506 98.0534 159.55 98.0686 159.592 98.0498C159.643 98.0476 159.693 98.0285 159.743 98.0008C159.819 97.972 159.885 97.9266 159.942 97.8645C159.974 97.8205 160.007 97.7765 160.039 97.7325C160.086 97.6367 160.107 97.5335 160.103 97.4229C160.12 97.226 160.061 97.0324 160.019 96.8465L160.01 96.8469Z" fill="black"/>
<path d="M162.879 114.697C162.86 114.655 162.841 114.605 162.814 114.564C162.759 114.472 162.679 114.407 162.583 114.352C162.478 114.288 162.367 114.275 162.247 114.272C162.203 114.231 162.175 114.181 162.114 114.15C161.922 114.047 161.675 114.057 161.493 114.176C161.343 114.267 161.202 114.358 161.061 114.458C160.92 114.549 160.807 114.699 160.771 114.863C160.735 115.009 160.769 115.212 160.851 115.337C160.942 115.478 161.083 115.591 161.255 115.627C161.281 115.626 161.306 115.625 161.332 115.624C161.36 115.691 161.397 115.749 161.459 115.797C161.503 115.83 161.547 115.862 161.591 115.894C161.66 115.934 161.738 115.956 161.815 115.953C161.867 115.968 161.918 115.966 161.968 115.946C162.045 115.943 162.12 115.914 162.186 115.869C162.319 115.778 162.441 115.645 162.46 115.482C162.477 115.473 162.493 115.455 162.51 115.446C162.526 115.437 162.552 115.427 162.576 115.409C162.618 115.373 162.659 115.338 162.7 115.302C162.741 115.257 162.773 115.213 162.796 115.161C162.796 115.161 162.804 115.144 162.812 115.135C162.875 115.013 162.893 114.833 162.854 114.698L162.879 114.697Z" fill="black"/>
<path d="M156.152 111.843C156.123 111.758 156.078 111.692 156.007 111.627C155.944 111.561 155.866 111.522 155.78 111.5C155.701 111.461 155.624 111.447 155.531 111.459C155.48 111.461 155.421 111.481 155.37 111.483C155.261 111.522 155.161 111.577 155.079 111.666C155.047 111.71 155.015 111.762 154.983 111.806C154.927 111.911 154.906 112.014 154.911 112.133C154.92 112.338 154.928 112.534 154.936 112.738C154.94 112.823 154.961 112.907 154.998 112.974C155.027 113.058 155.072 113.124 155.143 113.181C155.205 113.247 155.284 113.286 155.361 113.308C155.439 113.339 155.517 113.362 155.602 113.349L155.763 113.326C155.872 113.295 155.972 113.232 156.045 113.143C156.077 113.099 156.109 113.047 156.141 113.003C156.197 112.898 156.218 112.795 156.213 112.684C156.205 112.48 156.197 112.284 156.188 112.08C156.184 111.995 156.164 111.91 156.126 111.835L156.152 111.843Z" fill="black"/>
<path d="M139.093 116.453C139.093 116.453 139.058 116.428 139.041 116.421C139.054 116.326 139.067 116.232 139.08 116.138C139.1 116 139.093 115.847 139.011 115.723C138.929 115.598 138.806 115.51 138.66 115.473C138.557 115.452 138.437 115.44 138.326 115.453C138.157 115.477 138.047 115.507 137.897 115.59C137.705 115.684 137.525 115.87 137.44 116.07C137.377 116.209 137.358 116.355 137.398 116.507C137.438 116.642 137.555 116.79 137.686 116.853C137.747 116.884 137.816 116.899 137.885 116.913C137.887 116.981 137.873 117.05 137.893 117.117C137.913 117.193 137.95 117.251 138.004 117.308C138.049 117.375 138.102 117.424 138.18 117.455C138.25 117.486 138.318 117.491 138.387 117.497C138.559 117.532 138.719 117.483 138.878 117.425C139.013 117.377 139.153 117.277 139.216 117.138L139.27 116.999C139.292 116.93 139.289 116.854 139.269 116.786C139.247 116.668 139.191 116.542 139.102 116.461L139.093 116.453Z" fill="black"/>
<path d="M138.493 117.505C138.493 117.505 138.433 117.507 138.407 117.5C138.424 117.499 138.442 117.516 138.459 117.515C138.468 117.515 138.485 117.514 138.493 117.513L138.493 117.505Z" fill="black"/>
<path d="M129.538 111.462C129.51 111.404 129.439 111.33 129.412 111.306C129.412 111.306 129.403 111.297 129.394 111.289C129.35 111.257 129.306 111.225 129.262 111.192C129.262 111.192 129.262 111.192 129.245 111.193C129.185 111.17 129.124 111.147 129.063 111.124C129.02 111.109 128.969 111.111 128.926 111.113C128.89 111.055 128.837 111.014 128.776 110.983C128.715 110.951 128.655 110.937 128.586 110.931C128.517 110.917 128.458 110.928 128.39 110.939C128.265 110.987 128.14 111.069 128.086 111.191C128.031 111.312 128.011 111.45 128.051 111.576C128.089 111.685 128.128 111.794 128.167 111.904C128.169 111.955 128.171 112.006 128.19 112.056C128.22 112.166 128.293 112.282 128.382 112.355C128.435 112.404 128.496 112.444 128.565 112.458C128.626 112.49 128.695 112.495 128.763 112.493C128.805 112.491 128.856 112.48 128.898 112.47C128.94 112.459 128.973 112.433 129.006 112.406L129.074 112.403C129.151 112.408 129.228 112.396 129.303 112.35C129.353 112.331 129.403 112.304 129.436 112.268C129.502 112.223 129.559 112.161 129.59 112.083C129.605 112.031 129.628 111.987 129.643 111.935C129.664 111.832 129.66 111.73 129.63 111.629C129.619 111.561 129.582 111.503 129.554 111.444L129.538 111.462Z" fill="black"/>
<path d="M130.858 126.588C130.839 126.547 130.812 126.505 130.793 126.463C130.754 126.354 130.715 126.245 130.677 126.136C130.599 125.917 130.43 125.745 130.198 125.695C130.086 125.674 129.975 125.679 129.874 125.709C129.765 125.739 129.665 125.803 129.592 125.891C129.46 126.008 129.338 126.141 129.216 126.274L128.848 126.664C128.734 126.788 128.674 126.97 128.68 127.132C128.687 127.294 128.763 127.478 128.887 127.584C129.019 127.689 129.185 127.767 129.355 127.752C129.525 127.744 129.684 127.67 129.806 127.545C129.847 127.501 129.888 127.456 129.937 127.412C129.972 127.436 129.999 127.469 130.034 127.493C130.13 127.54 130.234 127.57 130.344 127.565C130.43 127.561 130.505 127.541 130.581 127.504C130.656 127.475 130.731 127.429 130.788 127.359C130.845 127.297 130.893 127.226 130.915 127.14C130.946 127.062 130.96 126.985 130.956 126.9C130.951 126.789 130.922 126.688 130.858 126.597L130.858 126.588Z" fill="black"/>
<path d="M149.125 123.58C149.097 123.53 149.077 123.471 149.05 123.421C149.05 123.421 149.049 123.412 149.049 123.404C148.985 123.304 148.905 123.231 148.801 123.175C148.705 123.128 148.601 123.098 148.491 123.103C148.491 123.103 148.42 123.055 148.386 123.048C148.316 123.017 148.231 123.003 148.154 123.006C148.103 123.009 148.053 123.028 147.993 123.03C147.943 123.049 147.893 123.077 147.842 123.096C147.767 123.142 147.71 123.196 147.662 123.274C147.605 123.336 147.574 123.414 147.56 123.492C147.515 123.63 147.478 123.768 147.433 123.906C147.411 123.984 147.414 124.061 147.434 124.145C147.438 124.222 147.466 124.297 147.512 124.372C147.558 124.447 147.611 124.504 147.69 124.544C147.743 124.584 147.803 124.607 147.864 124.622C147.881 124.638 147.891 124.655 147.908 124.663C147.97 124.72 148.048 124.75 148.134 124.764C148.185 124.762 148.237 124.777 148.296 124.774C148.348 124.772 148.398 124.753 148.457 124.75C148.542 124.73 148.608 124.684 148.674 124.63C148.732 124.594 148.772 124.532 148.804 124.471C148.796 124.489 148.788 124.498 148.772 124.515L148.926 124.33C148.926 124.33 148.893 124.357 148.868 124.375C148.86 124.384 148.843 124.393 148.835 124.402C148.901 124.356 148.959 124.303 148.999 124.233C149.023 124.206 149.039 124.18 149.055 124.145C149.062 124.128 149.07 124.111 149.078 124.093C149.133 123.98 149.179 123.859 149.165 123.731C149.163 123.672 149.143 123.621 149.132 123.562L149.125 123.58Z" fill="black"/>
<path d="M141.231 128.314C141.231 128.314 141.186 128.273 141.16 128.257C141.159 128.232 141.158 128.206 141.157 128.172C141.153 128.095 141.133 128.019 141.096 127.953C141.068 127.877 141.022 127.811 140.96 127.762L140.829 127.674C140.759 127.634 140.69 127.612 140.605 127.615C140.553 127.6 140.502 127.603 140.451 127.622C140.375 127.625 140.299 127.654 140.233 127.699C140.117 127.781 140.036 127.895 139.991 128.025C139.99 128.008 139.998 127.999 140.006 127.982C140.007 127.999 139.99 128.016 139.983 128.042C139.984 128.059 139.967 128.068 139.968 128.085C139.968 128.085 139.968 128.102 139.969 128.111C139.938 128.189 139.907 128.276 139.877 128.354C139.837 128.424 139.823 128.492 139.817 128.569C139.818 128.578 139.819 128.595 139.819 128.603C139.819 128.603 139.82 128.62 139.811 128.629C139.797 128.681 139.773 128.725 139.766 128.776C139.739 128.939 139.751 129.016 139.783 129.176C139.804 129.252 139.841 129.327 139.878 129.394C139.914 129.444 139.958 129.484 139.994 129.534C140.057 129.6 140.135 129.639 140.222 129.669C140.274 129.693 140.334 129.707 140.385 129.705C140.471 129.719 140.556 129.715 140.64 129.686C140.69 129.658 140.749 129.639 140.799 129.611C140.849 129.575 140.89 129.53 140.939 129.494C140.989 129.45 141.012 129.389 141.035 129.328C141.068 129.31 141.102 129.3 141.135 129.273C141.184 129.237 141.225 129.192 141.257 129.14C141.314 129.069 141.353 128.991 141.366 128.896C141.387 128.785 141.382 128.666 141.352 128.556C141.331 128.463 141.285 128.388 141.223 128.331L141.231 128.314Z" fill="black"/>
<path d="M119.465 128.267C119.426 128.158 119.362 128.059 119.282 127.968C119.219 127.903 119.141 127.863 119.054 127.833C118.976 127.793 118.89 127.78 118.805 127.792C118.788 127.793 118.763 127.794 118.746 127.795C118.692 127.729 118.629 127.654 118.551 127.615C118.446 127.56 118.334 127.539 118.224 127.544C118.104 127.549 118.003 127.578 117.904 127.642C117.788 127.732 117.681 127.814 117.565 127.904C117.49 127.95 117.425 128.012 117.377 128.091C117.32 128.161 117.289 128.231 117.267 128.326C117.245 128.412 117.249 128.488 117.269 128.573C117.273 128.658 117.302 128.734 117.356 128.808C117.456 128.949 117.597 129.071 117.769 129.098C117.786 129.097 117.803 129.096 117.828 129.095C117.846 129.111 117.865 129.145 117.89 129.152C117.961 129.209 118.039 129.248 118.125 129.262C118.228 129.274 118.331 129.279 118.425 129.283C118.493 129.28 118.569 129.269 118.637 129.257C118.645 129.257 118.662 129.256 118.671 129.256C118.696 129.255 118.721 129.237 118.746 129.227C118.898 129.178 119.039 129.095 119.181 129.021L119.321 128.904C119.387 128.842 119.426 128.764 119.457 128.677C119.48 128.625 119.495 128.573 119.492 128.514C119.506 128.428 119.502 128.343 119.473 128.259L119.465 128.267Z" fill="black"/>
<path d="M145.751 93.6484C145.748 93.5803 145.737 93.5126 145.717 93.4452C145.707 93.403 145.679 93.3615 145.669 93.3278C145.651 93.2945 145.64 93.2438 145.613 93.2108C145.613 93.2108 145.613 93.2023 145.604 93.1941C145.568 93.1445 145.523 93.0867 145.478 93.0459C145.47 93.0377 145.461 93.0296 145.451 93.0129C145.451 93.0129 145.443 93.0133 145.434 93.0051C145.381 92.9647 145.328 92.9243 145.276 92.8924C145.267 92.8927 145.258 92.8761 145.241 92.8768C145.18 92.8452 145.111 92.8226 145.042 92.8084C144.99 92.7935 144.93 92.7875 144.879 92.7897C144.828 92.7918 144.768 92.7773 144.717 92.7879C144.649 92.7908 144.582 92.8107 144.514 92.8221C144.497 92.8228 144.48 92.8235 144.472 92.8324C144.463 92.8327 144.446 92.8334 144.438 92.8423C144.371 92.8707 144.313 92.8988 144.245 92.9271C144.17 92.9644 144.097 93.0357 144.031 93.0897C144.006 93.1078 143.99 93.134 143.974 93.1518C143.933 93.2046 143.885 93.2664 143.853 93.3274C143.821 93.3884 143.799 93.4746 143.776 93.5267C143.777 93.5438 143.769 93.5526 143.761 93.57C143.747 93.6388 143.741 93.7158 143.744 93.7839C143.748 93.869 143.768 93.9534 143.806 94.0286C143.835 94.1127 143.889 94.1871 143.951 94.2442C143.96 94.2524 143.977 94.2602 143.986 94.2683C143.998 94.3361 144.017 94.3949 144.054 94.4531L144.171 94.5931C144.259 94.6747 144.364 94.73 144.484 94.759C144.501 94.7583 144.51 94.7665 144.527 94.7658C144.587 94.7718 144.656 94.7774 144.716 94.7834C144.716 94.7834 144.733 94.7827 144.741 94.7824C144.861 94.7944 144.947 94.8078 145.073 94.7684C145.107 94.767 145.132 94.7489 145.166 94.7389L145.317 94.6729C145.358 94.6371 145.407 94.6009 145.448 94.565C145.481 94.521 145.513 94.4685 145.545 94.4245C145.577 94.372 145.575 94.321 145.59 94.2692C145.59 94.2692 145.59 94.2692 145.598 94.2603C145.614 94.2341 145.63 94.2078 145.645 94.173C145.668 94.1039 145.699 94.0428 145.714 93.974C145.713 93.957 145.721 93.9396 145.72 93.9311C145.726 93.8627 145.74 93.7938 145.737 93.7257C145.737 93.7087 145.736 93.6917 145.735 93.6747L145.751 93.6484Z" fill="black"/>
<path d="M66.1829 26.4368C66.3448 32.1178 63.5945 37.8956 59.272 41.1641C58.528 41.7241 57.9264 42.423 57.5248 43.2159C57.2965 43.6689 57.1289 44.1449 57.0386 44.6348C56.9611 45.0218 56.9268 45.424 56.9351 45.8244C56.9732 47.1361 56.5554 48.356 55.8287 49.3245C55.8287 49.3245 55.8259 49.3275 55.8205 49.3334C55.6616 49.4083 55.4935 49.4665 55.3339 49.5244C54.4182 49.8528 49.5913 50.8572 46.1912 50.7101C44.9807 49.9082 44.0918 48.6409 43.7905 47.1527C43.7269 46.8569 43.6881 46.543 43.6749 46.2281L43.6735 46.194C43.621 44.3373 42.6139 42.6912 41.0866 41.6553C36.5937 38.6377 33.5269 33.0276 33.3731 27.3378C33.1206 18.2838 40.265 10.7353 49.319 10.4828C58.3816 10.2299 65.93 17.3743 66.1829 26.4368Z" fill="#FF8C00"/>
<path d="M55.729 26.3247C54.9546 25.9565 54.04 26.3104 53.5025 26.9129C52.8512 27.648 52.7412 28.6844 52.6444 29.6265C52.6018 29.6283 52.5593 29.6301 52.5167 29.6319C51.5878 29.6453 50.662 29.5307 49.7578 29.3214C49.3013 29.2127 48.8519 29.0696 48.4187 28.9087C48.3408 28.2724 48.2718 27.6443 48.1854 27.0083C48.04 25.9826 47.8403 24.8825 47.0505 24.1482C46.4029 23.5529 45.3849 23.2716 44.5962 23.7823C43.8743 24.256 43.6068 25.1968 43.7603 26.009C43.9561 27.0155 44.7725 27.7742 45.5722 28.3376C46.2398 28.8041 46.9635 29.183 47.7188 29.5009C47.8394 30.5447 47.9348 31.5981 48.038 32.6341C48.532 37.491 48.7377 42.3857 48.6443 47.2673C48.6416 47.6085 49.2393 47.626 49.2505 47.2844C49.432 41.8619 49.2641 36.4455 48.6791 31.0467C48.6368 30.6476 48.577 30.2408 48.5262 29.8422C49.7287 30.2521 51.166 30.567 52.5557 30.5597C52.0455 36.2775 52.2873 42.0319 52.5195 47.7611C52.5431 48.3229 53.4092 48.2353 53.3941 47.6732C53.2135 43.3744 53.041 39.0668 53.1754 34.7548C53.2073 33.6875 53.2566 32.628 53.331 31.559C53.3504 31.2085 53.3783 30.8577 53.3977 30.5073C53.924 30.4511 54.4393 30.3356 54.9174 30.145C55.7313 29.8294 56.3961 29.2131 56.5725 28.3359C56.7283 27.5789 56.4602 26.6777 55.7205 26.3251L55.729 26.3247ZM47.1583 28.3391C46.3562 27.9209 45.447 27.3878 44.9285 26.6165C44.5098 25.986 44.3241 24.6124 45.3562 24.4155C46.4394 24.2165 47.0204 25.4627 47.2094 26.3075C47.3764 27.0338 47.4933 27.7878 47.5929 28.5341C47.445 28.4635 47.2977 28.41 47.1583 28.3391ZM55.1618 29.0603C54.6724 29.3878 54.0808 29.515 53.4864 29.5741C53.5235 29.24 53.561 28.9143 53.6329 28.5958C53.7735 27.8821 54.4515 26.566 55.4019 27.0633C56.2388 27.4971 55.7426 28.6777 55.1618 29.0603Z" fill="white"/>
<path d="M59.8895 48.8569C59.5633 50.0218 58.1128 50.6115 56.6668 50.9025C56.6668 50.9025 56.6612 50.9027 56.6498 50.9032C56.4469 50.9458 56.2352 50.9803 56.0401 51.0056C54.896 51.173 48.9489 51.295 44.8925 50.5444C42.0388 50.0077 40.131 49.0475 41.4761 47.3708C41.7516 47.0267 42.142 46.78 42.5952 46.6075C43.0892 46.3906 43.6467 46.2648 44.1876 46.1483C47.359 45.5205 50.6373 45.2037 53.9309 45.2529C55.3302 45.2708 56.7922 45.3629 58.0278 45.9506C58.3322 46.0913 58.6213 46.2752 58.8686 46.478C59.6374 47.1194 60.118 48.0031 59.8892 48.8484L59.8895 48.8569Z" fill="#263238"/>
<path d="M42.8832 53.7122C43.4136 53.1441 44.2052 52.9062 44.9648 52.7208C48.055 51.9855 51.2567 51.8766 54.4248 51.7776C55.1824 51.7458 55.9577 51.7302 56.6828 51.9385C57.4078 52.1468 58.1018 52.6293 58.3701 53.3344C58.6769 54.1401 58.358 55.0745 57.7879 55.7124C57.2092 56.3507 56.4067 56.734 55.6095 57.0404C52.7646 58.132 49.6129 58.418 46.622 57.8614C45.118 57.5835 40.9409 55.7892 42.8917 53.7118L42.8832 53.7122Z" fill="#263238"/>
<path d="M48.2477 60.0317C48.3052 60.3874 48.5809 60.6572 48.8552 60.893C49.9256 61.8116 51.2439 62.5407 52.6488 62.4902C54.2746 62.4219 57.0792 59.5583 54.581 58.9555C53.4008 58.6725 47.964 58.3551 48.2388 60.0235L48.2477 60.0317Z" fill="#263238"/>
<path d="M54.5301 13.4225C53.9114 13.1074 52.9917 12.9329 52.6762 13.5431C52.3526 14.1621 53.0448 14.8067 53.616 15.2091C55.1802 16.3116 56.5271 17.7217 57.5665 19.3238C58.1049 20.1625 58.5599 21.0473 58.9227 21.97C59.228 22.7417 59.3949 24.2782 60.0736 24.804C61.7652 26.0973 62.0478 23.6892 61.7814 22.6259C61.3214 20.8119 60.4987 19.0898 59.3862 17.576C58.1112 15.8474 56.4468 14.3909 54.5301 13.4225Z" fill="white"/>
<path d="M60.873 30.4271C61.3591 30.8331 62.05 30.8381 62.5188 30.4262C63.6127 29.4678 62.9362 27.1682 61.5937 27.0797C60.1827 26.9855 59.7775 29.5181 60.8645 30.4275L60.873 30.4271Z" fill="white"/>
<path d="M46.7119 64.0625C58.8692 67.0394 66.9487 69.369 63.7994 79.4529L47.3394 78.5924L46.7119 64.0625Z" fill="#D0B693"/>
<path d="M33.0065 57.583L31.4329 66.2021C31.2867 66.9842 31.5168 67.7932 32.0533 68.3846L42.0865 77.0277C43.2191 78.0034 44.6579 78.557 46.1596 78.5791L63.8672 78.8926C61.9571 77.6766 63.0578 72.8209 58.2641 69.5432C53.4095 65.6284 40.8437 66.7277 40.8437 66.7277L36.4204 64.7561L36.203 57.7557C36.1793 56.9892 35.6056 56.3226 34.7908 56.2119C33.942 56.1026 33.1672 56.7406 33.015 57.5826L33.0065 57.583Z" fill="#D0B693"/>
<path d="M39.213 66.477C39.5184 62.3795 40.232 60.2859 40.6543 59.7821C40.9709 59.4021 44.0562 57.1321 45.6204 56.0004C46.1416 55.6204 46.8592 55.6499 47.3541 56.064C47.92 56.5434 48.0143 57.3666 47.5789 57.9647L44.7476 61.4094L43.6807 67.4746L39.2045 66.4773L39.213 66.477Z" fill="#D0B693"/>
<path d="M43.3628 67.5631C44.4142 62.7521 47.2751 59.6046 47.8198 59.3771C48.1886 59.2251 50.6124 58.6628 52.141 58.3087C52.8421 58.1513 53.5424 58.5824 53.7168 59.2828C53.8706 59.8989 53.5562 60.5346 52.9789 60.7976L50.7192 61.8135C50.3844 61.964 50.133 62.273 50.0629 62.6341L49.2255 66.6516L43.371 67.5542L43.3628 67.5631Z" fill="#D0B693"/>
<path d="M49.0605 65.8225C50.6377 63.377 52.5151 61.5842 53.0893 61.4492C53.4777 61.3561 55.9601 61.1751 57.5246 61.0667C58.2474 61.0193 58.8669 61.556 58.9225 62.27C58.9748 62.9074 58.5728 63.4871 57.9571 63.6494L55.5629 64.3043C55.2004 64.4048 54.9128 64.6641 54.7824 65.0107L53.332 68.8493L49.0605 65.8225Z" fill="#D0B693"/>
<path d="M38.9155 67.5262C38.6557 68.0403 38.531 68.523 38.5124 69.0951C38.4942 69.6758 38.577 70.2266 38.7201 70.7919C39.0046 71.88 39.3636 72.9138 39.9413 73.8787C40.0421 74.045 40.3336 73.8793 40.241 73.7041C39.7668 72.7689 39.3905 71.7273 39.3121 70.6732C39.2736 70.1632 39.2692 69.6517 39.2477 69.141C39.2252 68.6047 39.2033 68.0855 39.1297 67.5513C39.1159 67.424 38.9538 67.4223 38.8985 67.5269L38.9155 67.5262Z" fill="#263238"/>
<path d="M63.6797 72.0197C67.6806 82.4085 82.8276 109.051 82.8276 109.051L83.8929 128.927C70.5345 137.546 59.9058 127.112 57.4191 102.632C55.2402 81.2172 54.7577 74.6031 54.7577 74.6031L63.6797 72.0197Z" fill="#D0B693"/>
<path d="M132.349 136.475C131.176 136.771 129.925 136.815 128.726 136.891C127.535 136.967 126.334 137.009 125.15 137.024C123.734 137.033 122.326 136.99 120.924 136.912C120.981 138.266 120.704 139.607 120.418 140.907C119.084 146.907 119.216 146.807 117.712 152.601C117.256 152.526 116.818 152.442 116.397 152.358C116.995 149.357 116.265 152.056 117.049 148.8C117.745 145.897 118.459 143.002 119.139 140.091C119.312 139.333 119.484 138.567 119.545 137.789C119.575 137.489 119.579 137.173 119.558 136.867L119.555 136.816C119.034 136.778 118.512 136.749 117.99 136.703C117.493 136.647 117.552 135.817 118.048 135.839C118.432 135.857 118.833 135.849 119.226 135.866C118.897 135.351 118.742 134.701 118.447 134.177C118.125 133.61 117.777 133.062 117.439 132.513C114.292 127.435 111.303 122.265 108.565 116.957C108.263 117.277 107.97 117.605 107.65 117.908C107.42 118.131 107.192 118.388 106.937 118.594C106.69 118.809 106.398 118.967 106.067 118.998C105.599 119.034 105.136 118.551 105.252 118.068C105.398 117.491 105.92 117.136 106.383 116.784C106.432 116.731 106.499 116.694 106.556 116.641C106.968 116.299 107.38 115.958 107.783 115.608C108.639 114.865 109.459 114.08 110.243 113.262C111.828 111.618 113.272 109.852 114.548 107.956C114.797 107.588 115.42 108.014 115.188 108.373C113.94 110.336 112.596 112.242 111.129 114.044C110.423 114.909 109.674 115.751 108.915 116.576C110.95 119.321 112.9 122.113 114.776 124.959C116.48 127.548 118.191 130.12 119.778 132.782C120.136 133.381 120.469 133.998 120.726 134.644C120.861 135.005 120.907 135.301 120.889 135.686C120.892 135.754 120.895 135.813 120.898 135.881C122.296 135.882 123.685 135.858 125.08 135.774C126.271 135.698 127.451 135.58 128.647 135.436C129.793 135.303 130.933 135.042 132.082 134.994C132.908 134.959 133.218 136.242 132.366 136.457L132.349 136.475Z" fill="black"/>
<path d="M149.92 108.411C148.77 108.655 147.624 109.181 146.515 109.577C145.456 109.954 144.398 110.34 143.349 110.733C141.242 111.53 139.153 112.359 137.075 113.223C132.885 114.976 128.771 116.914 124.721 118.969C124.204 119.229 124.704 119.976 125.222 119.724C129.282 117.711 133.426 115.874 137.626 114.163C139.705 113.317 141.811 112.503 143.919 111.733C144.978 111.347 146.036 110.97 147.095 110.602C148.146 110.242 149.286 109.981 150.29 109.521C150.985 109.21 150.655 108.252 149.92 108.411Z" fill="black"/>
<path d="M158.852 104.81C157.525 100.636 154.561 97.0598 152.027 93.5677C150.542 91.5238 148.995 89.3972 148.043 87.041C147.929 86.7729 147.5 86.9103 147.614 87.187C148.388 89.1669 149.295 91.056 150.394 92.8688C151.494 94.6986 152.71 96.4468 153.844 98.2582C156.119 101.881 157.967 105.879 157.802 110.26C157.76 111.49 157.539 112.727 157.187 113.902C157.008 114.515 156.778 115.121 156.521 115.704C156.256 116.303 155.879 116.865 155.675 117.479C155.379 118.361 156.385 119.171 157.096 118.417C157.888 117.582 158.345 116.301 158.71 115.236C159.097 114.103 159.381 112.94 159.519 111.749C159.795 109.401 159.577 107.056 158.86 104.81L158.852 104.81Z" fill="black"/>
<path d="M158.88 146.941C147.758 156.831 115.406 154.413 115.406 154.413C115.406 154.413 115.869 153.669 116.565 152.369C118.574 148.652 122.566 140.349 123.528 131.593L127.605 131.004C127.44 130.116 127.266 129.219 127.067 128.332C126.616 126.339 126.098 124.356 125.53 122.393C123.449 115.292 120.644 108.409 117.114 101.906C113.602 95.4619 109.443 89.4116 104.672 83.8305C104.705 83.812 104.747 83.8017 104.789 83.7829C104.974 83.7155 105.175 83.6388 105.377 83.5621C108.085 86.5267 110.596 89.6616 112.917 92.941C117.241 99.061 120.861 105.654 123.727 112.577C125.161 116.056 126.402 119.611 127.432 123.226C127.942 125.012 128.411 126.826 128.819 128.642C128.977 129.343 129.134 130.053 129.284 130.763L151.804 127.506C151.834 125.987 151.839 124.469 151.792 122.944C151.572 115.68 150.544 108.466 148.79 101.419C147.036 94.3812 144.536 87.4511 141.329 80.9345C141.3 80.8675 141.28 80.8001 141.278 80.7405C141.62 80.7773 141.972 80.8222 142.306 80.8678C144.203 84.4038 145.873 88.026 147.293 91.7866C149.902 98.6695 151.671 105.869 152.651 113.161C153.282 117.816 153.591 122.545 153.533 127.254L155.517 126.975C156.487 129.569 157.179 132.021 157.69 134.26C159.389 141.812 158.88 146.941 158.88 146.941Z" fill="#263238"/>
<path d="M152.34 149.831C150.512 150.155 148.727 150.69 146.909 151.074C145.041 151.468 143.171 151.811 141.281 152.086C137.585 152.608 133.813 152.937 130.078 152.949C129.754 152.954 129.783 153.431 130.099 153.443C133.926 153.606 137.719 153.558 141.531 153.167C143.399 152.978 145.256 152.729 147.102 152.404C148.981 152.07 150.929 151.749 152.717 151.094C153.532 150.795 153.145 149.695 152.332 149.831L152.34 149.831Z" fill="#38474F"/>
<path d="M139.636 164.858C132.833 159.226 92.1561 134.645 85.7159 152.661C79.2842 170.677 97.4196 190.713 122.996 196.469C148.573 202.225 165.724 186.445 139.635 164.849L139.636 164.858Z" fill="#263238"/>
<path d="M199.763 198.592L203.692 171.327C200.05 171.105 197.03 171.496 197.03 171.496L189.948 198.373C198.118 199.608 199.763 198.592 199.763 198.592Z" fill="#EBEBEB"/>
<path d="M192.479 195.856C191.734 196.791 190.891 197.637 189.95 198.375C188.457 198.148 186.506 197.787 184.109 197.367C181.884 196.975 179.263 196.488 176.282 195.965C173.051 195.393 169.392 194.754 165.314 194.098C164.167 189.541 163.574 184.347 164.015 179.63L164.024 179.63C171.892 179.376 183.467 174.788 192.043 172.475C194.251 171.871 196.009 171.498 197.016 171.499C198.311 172.502 199.279 187.426 192.471 195.865L192.479 195.856Z" fill="#38474F"/>
<path d="M148.623 178.126C147.393 177.862 146.076 177.568 144.646 177.219C146.076 177.568 147.393 177.871 148.623 178.126Z" fill="#FF8C00"/>
<path d="M136.013 174.976C136.479 175.11 136.937 175.236 137.385 175.353C136.936 175.219 136.479 175.102 136.005 174.977L136.013 174.976Z" fill="#FF8C00"/>
<path d="M164.028 179.631C163.587 184.348 164.18 189.542 165.327 194.099C158.363 192.959 149.892 194.108 140.753 192.931L136.017 174.992C136.482 175.118 136.94 175.243 137.388 175.361C138.294 175.604 139.173 175.832 140.009 176.052C140.837 176.273 141.639 176.479 142.415 176.676L142.423 176.676C143.19 176.865 143.931 177.056 144.638 177.222L144.646 177.222C146.076 177.571 147.394 177.874 148.624 178.129C150.784 178.593 152.665 178.923 154.415 179.165C154.904 179.238 155.384 179.295 155.864 179.352C156.104 179.376 156.344 179.4 156.583 179.415C157.046 179.472 157.499 179.505 157.952 179.537C158.183 179.553 158.406 179.569 158.645 179.584C159.09 179.608 159.526 179.633 159.978 179.648C161.319 179.685 162.64 179.681 164.045 179.63L164.028 179.631Z" fill="#D0B693"/>
<path d="M140.75 192.924L136.014 174.993L136.013 174.976L136.005 174.985L140.75 192.924Z" fill="#D0B693"/>
<path d="M184.235 197.412C181.941 197.005 179.242 196.513 176.184 195.968C178.278 194.677 182.556 194.591 184.235 197.412Z" fill="#EBEBEB"/>
<path d="M197.033 171.489C199.952 174.189 200.725 188.739 192.488 195.856C186.819 186.756 187.609 173.088 197.033 171.489Z" fill="#EBEBEB"/>
<path d="M163.198 173.211C162.272 173.505 161.773 174.413 161.791 175.444C161.835 177.711 164.039 180.023 165.708 181.394C167.368 182.757 169.224 183.702 171.171 184.174C169.781 184.565 168.495 185.216 167.374 186.142C165.759 187.489 164.323 189.442 163.889 191.678C163.495 193.681 164.458 196.497 166.786 196.902C169.097 197.309 170.694 194.939 171.671 193.235C172.816 191.251 173.68 188.682 173.685 186.149C173.932 187.776 174.366 189.387 174.919 190.967C175.006 191.219 175.335 191.12 175.273 190.875C174.805 189.078 174.542 187.265 174.397 185.454C174.326 184.562 174.297 183.668 174.319 182.789C174.344 181.952 174.536 181.04 174.432 180.2C174.381 179.784 173.792 179.579 173.647 179.977C173.402 180.636 173.411 181.462 173.417 182.213C172.232 178.578 169.266 175.156 165.945 173.641C165.075 173.243 164.048 172.953 163.19 173.228L163.198 173.211ZM171.582 191.098C170.87 192.834 169.727 195.056 167.958 195.77C167.069 196.132 166.086 195.874 165.417 194.973C164.712 194.031 164.637 192.857 164.876 191.832C165.324 189.912 166.576 188.247 167.975 187.046C169.333 185.88 170.996 185.086 172.78 184.704C172.78 184.721 172.772 184.721 172.773 184.738C172.602 186.979 172.426 189.076 171.59 191.098L171.582 191.098ZM166.057 174.694C167.707 175.588 169.194 176.898 170.367 178.435C171.55 179.989 172.366 181.754 172.954 183.579C172.92 183.572 172.893 183.556 172.859 183.549C170.93 183.298 168.995 182.501 167.291 181.336C165.685 180.235 164.022 178.608 163.152 176.794C162.703 175.849 162.569 174.482 163.621 174.139C164.386 173.894 165.324 174.281 166.065 174.685L166.057 174.694Z" fill="#EBEBEB"/>
<path d="M176.826 180.769C176.522 184.295 177.484 188.109 179.208 191.405C179.347 191.663 179.749 191.493 179.627 191.217C178.876 189.585 178.31 187.878 177.964 186.153C177.609 184.403 177.547 182.709 177.594 180.984C177.595 180.822 177.535 180.603 177.361 180.525C177.292 180.494 177.239 180.47 177.162 180.465C177 180.463 176.835 180.581 176.825 180.76L176.826 180.769Z" fill="#EBEBEB"/>
<path d="M181.137 179.71C180.455 183.176 180.678 187.046 181.452 190.672C181.547 191.094 182.162 191.128 182.093 190.688C181.804 188.901 181.643 187.091 181.611 185.31C181.577 183.487 181.776 181.73 181.983 179.956C182.053 179.391 181.242 179.16 181.137 179.71Z" fill="#EBEBEB"/>
<path d="M184.981 178.938C184.981 178.938 184.906 178.975 184.873 178.985C184.738 179.042 184.712 179.214 184.709 179.35C184.706 180.289 184.599 181.205 184.613 182.143C184.627 183.08 184.683 184.024 184.774 184.967C184.963 186.827 185.314 188.671 185.843 190.508C185.943 190.862 186.52 190.803 186.437 190.44C186.028 188.632 185.721 186.803 185.559 184.985C185.48 184.11 185.435 183.234 185.432 182.356C185.426 181.401 185.384 180.396 185.524 179.47C185.543 179.324 185.485 179.164 185.37 179.05C185.343 179.025 185.316 178.992 185.29 178.968C185.201 178.878 185.09 178.882 184.989 178.921L184.981 178.938Z" fill="#EBEBEB"/>
<path d="M140.396 194.82L152.74 194.933L154.38 177.152L132.071 170.219L140.396 194.82Z" fill="#263238"/>
<path d="M169.144 142.249C161.111 145.904 121.205 171.738 134.605 185.408C147.995 199.069 173.943 191.523 190.307 171.035C206.672 150.547 199.978 128.222 169.152 142.249L169.144 142.249Z" fill="#263238"/>
<path d="M100.025 216.829L85.251 193.582C88.4798 191.886 91.3929 190.996 91.3929 190.996L108.886 212.594C101.945 217.073 100.033 216.82 100.033 216.82L100.025 216.829Z" fill="#EBEBEB"/>
<path d="M124.816 184.865C127.155 188.987 128.754 193.96 129.58 198.59C126.137 200.866 123.06 202.948 120.35 204.802C117.846 206.51 115.658 208.018 113.785 209.299C111.77 210.671 110.138 211.797 108.876 212.617C107.713 212.325 106.603 211.903 105.54 211.359C95.8776 206.461 90.6247 192.458 91.3911 191.01C92.3032 190.597 94.0694 190.215 96.323 189.865C105.09 188.456 117.533 187.882 124.808 184.882L124.817 184.882L124.816 184.865Z" fill="#38474F"/>
<path d="M138.251 177.183C139.268 176.433 140.343 175.629 141.507 174.718C140.352 175.628 139.269 176.441 138.251 177.183Z" fill="#FF8C00"/>
<path d="M148.462 169.132C148.083 169.446 147.721 169.751 147.358 170.048C147.712 169.743 148.083 169.446 148.453 169.132L148.462 169.132Z" fill="#FF8C00"/>
<path d="M151.507 187.445C143.659 192.269 135.464 194.702 129.582 198.599C128.757 193.978 127.158 188.997 124.819 184.874C126.118 184.342 127.323 183.805 128.527 183.226C128.928 183.03 129.32 182.826 129.712 182.622C129.921 182.511 130.121 182.409 130.321 182.298C130.722 182.085 131.122 181.864 131.521 181.625C131.73 181.514 131.937 181.386 132.146 181.275C132.553 181.027 132.969 180.78 133.385 180.515C134.88 179.574 136.455 178.501 138.242 177.19C139.26 176.456 140.334 175.635 141.498 174.725C141.498 174.725 141.507 174.733 141.507 174.725C142.085 174.283 142.679 173.806 143.298 173.311L143.306 173.31C143.933 172.815 144.577 172.302 145.245 171.754C145.912 171.205 146.622 170.647 147.347 170.045C147.702 169.749 148.073 169.452 148.452 169.137L151.498 187.437L151.507 187.445Z" fill="#D0B693"/>
<path d="M151.5 187.441L148.454 169.141L148.454 169.133L148.463 169.132L151.5 187.441Z" fill="#D0B693"/>
<path d="M113.701 209.379C115.624 208.062 117.878 206.509 120.449 204.764C118.005 204.44 114.076 206.123 113.701 209.379Z" fill="#EBEBEB"/>
<path d="M91.3872 191.008C89.8353 194.664 95.1051 208.257 105.536 211.357C106.966 200.732 100.632 188.599 91.3872 191.008Z" fill="#EBEBEB"/>
<path d="M120.606 180.191C118.197 182.936 116.896 187.271 117.311 191.074C117.009 190.379 116.679 189.625 116.181 189.126C115.887 188.831 115.436 189.26 115.563 189.655C115.819 190.471 116.371 191.216 116.735 191.968C117.118 192.762 117.451 193.592 117.759 194.432C118.369 196.146 118.886 197.906 119.193 199.735C119.238 199.989 119.577 199.941 119.549 199.678C119.411 198.012 119.137 196.361 118.695 194.776C119.747 197.086 121.587 199.072 123.443 200.41C125.026 201.554 127.46 203.063 129.4 201.745C131.356 200.418 131.079 197.462 129.892 195.798C128.577 193.943 126.472 192.753 124.444 192.181C123.046 191.788 121.603 191.729 120.179 191.943C121.765 190.716 123.069 189.092 124.02 187.168C124.979 185.226 126.029 182.214 125.149 180.128C124.742 179.173 123.923 178.551 122.955 178.668C122.056 178.774 121.241 179.465 120.614 180.182L120.606 180.191ZM118.958 193.128C118.958 193.128 118.94 193.112 118.932 193.104C120.715 192.722 122.55 192.764 124.277 193.271C126.047 193.794 127.871 194.792 129.063 196.362C129.695 197.197 130.107 198.296 129.857 199.449C129.622 200.542 128.83 201.181 127.868 201.213C125.961 201.293 124.011 199.729 122.644 198.448C121.054 196.946 120.03 195.104 118.95 193.128L118.958 193.128ZM122.957 179.717C124.052 179.594 124.499 180.897 124.466 181.947C124.414 183.962 123.567 186.121 122.554 187.784C121.477 189.543 120.04 191.062 118.386 192.086C118.352 192.105 118.336 192.131 118.312 192.149C118.095 190.239 118.107 188.295 118.556 186.391C118.997 184.505 119.816 182.706 120.956 181.208C121.465 180.539 122.159 179.802 122.956 179.708L122.957 179.717Z" fill="#EBEBEB"/>
<path d="M113.627 191.18C115.352 194.271 116.043 198.148 115.824 201.858C115.802 202.149 115.359 202.159 115.364 201.86C115.382 200.069 115.196 198.269 114.8 196.554C114.403 194.814 113.774 193.237 113.018 191.692C112.943 191.541 112.909 191.321 113.039 191.179C113.088 191.126 113.129 191.081 113.195 191.045C113.346 190.979 113.544 191.021 113.627 191.171L113.627 191.18Z" fill="#EBEBEB"/>
<path d="M109.259 191.979C111.299 194.861 112.696 198.478 113.471 202.104C113.565 202.526 113.006 202.814 112.894 202.375C112.428 200.621 111.827 198.915 111.128 197.282C110.409 195.606 109.51 194.084 108.584 192.554C108.291 192.071 108.933 191.524 109.259 191.979Z" fill="#EBEBEB"/>
<path d="M105.441 192.861C105.441 192.861 105.527 192.858 105.561 192.856C105.705 192.85 105.797 192.991 105.853 193.125C106.239 193.979 106.715 194.769 107.093 195.632C107.47 196.494 107.806 197.375 108.108 198.275C108.702 200.049 109.137 201.873 109.413 203.763C109.462 204.128 108.916 204.313 108.84 203.941C108.474 202.123 107.998 200.326 107.405 198.603C107.114 197.771 106.799 196.957 106.441 196.154C106.054 195.274 105.683 194.344 105.172 193.555C105.09 193.43 105.083 193.26 105.137 193.113C105.152 193.078 105.168 193.043 105.175 193.009C105.221 192.888 105.322 192.849 105.432 192.845L105.441 192.861Z" fill="#EBEBEB"/>
<path d="M148.281 166.462C147.838 166.677 130.802 180.329 130.802 180.329L136.858 196.191L157.063 188.358L148.28 166.453L148.281 166.462Z" fill="#263238"/>
<path d="M161.123 148.061C159.952 149.219 158.781 150.368 157.467 151.361C156.144 152.364 154.749 153.258 153.327 154.111C150.54 155.78 147.654 157.299 145.041 159.243C142.503 161.14 140.186 163.446 138.816 166.343C138.737 166.508 138.676 166.673 138.606 166.838C137.644 165.864 136.584 164.979 135.533 164.11C134.172 162.991 132.821 161.871 131.436 160.786C128.676 158.617 125.821 156.631 122.819 154.804C122.741 154.756 122.652 154.888 122.723 154.945C125.48 157.046 128.19 159.234 130.809 161.495C132.11 162.617 133.395 163.774 134.614 164.985C135.744 166.106 136.843 167.296 138.039 168.346C137.358 170.608 137.237 173.027 137.702 175.344C137.128 175.496 136.616 176.097 136.196 176.439C135.626 176.898 135.048 177.34 134.452 177.757C133.259 178.592 132.02 179.36 130.736 180.045C130.461 180.193 130.41 180.605 130.574 180.854C130.647 180.961 130.743 181.025 130.847 181.064C131.414 184.016 132.405 186.899 133.486 189.693C134.051 191.162 134.633 192.63 135.29 194.06C135.572 194.671 135.811 195.505 136.35 195.943C136.791 196.3 137.449 196.332 137.804 195.848C137.804 195.839 137.812 195.831 137.82 195.822C137.846 195.821 137.863 195.82 137.887 195.802C139.589 194.886 141.289 193.962 142.99 193.046C143.807 192.603 144.633 192.159 145.45 191.715C145.859 191.493 146.267 191.263 146.675 191.041C147.092 190.81 147.527 190.604 147.756 190.177C148.383 190.688 149.066 191.12 149.83 191.437C150.585 191.746 151.378 191.952 152.193 192.063C152.956 192.158 154.105 192.323 154.795 191.885C155.135 191.666 155.143 191.043 154.728 190.899C154.338 190.753 153.956 190.803 153.547 190.812C153.181 190.827 152.814 190.809 152.446 190.773C151.684 190.703 150.935 190.546 150.201 190.33C148.734 189.906 147.274 189.251 146.187 188.154C146.027 187.99 145.808 188.255 145.951 188.419C146.3 188.814 146.666 189.191 147.048 189.55C146.743 189.614 146.477 189.77 146.177 189.936C145.769 190.167 145.36 190.388 144.961 190.627C144.128 191.105 143.296 191.601 142.464 192.088C140.799 193.062 139.143 194.026 137.479 195C137.41 194.995 137.333 194.989 137.249 195.018C136.904 195.127 136.48 193.755 136.366 193.487C136.111 192.9 135.857 192.323 135.61 191.736C135.081 190.496 134.576 189.238 134.097 187.979C133.215 185.663 132.4 183.309 131.459 181.012C132.762 180.369 134.028 179.642 135.221 178.808C135.817 178.39 136.404 177.957 136.965 177.498C137.27 177.255 137.71 176.955 138.027 176.601C139.02 179.944 141.263 182.587 144.181 184.452C144.392 184.588 144.624 184.237 144.422 184.083C139.255 180.259 137.441 172.805 140.174 167.019C142.845 161.364 148.899 158.518 153.999 155.481C156.977 153.701 160.175 151.691 162.106 148.736C162.483 148.158 161.575 147.658 161.141 148.095L161.123 148.061Z" fill="#38474F"/>
<path d="M142.41 92.6503L139.857 92.9878L137.286 80.3047L138.878 82.8728L138.933 82.9728C140.96 86.3583 141.899 88.8259 142.41 92.6503Z" fill="#263238"/>
<path d="M81.6922 107.617C81.4569 106.075 81.152 104.501 80.4868 103.08C80.1493 102.352 79.1229 102.685 79.3013 103.479C79.6277 104.958 80.1145 106.395 80.4576 107.865C80.8104 109.359 81.0365 110.885 81.1349 112.416C81.3307 115.452 81.0356 118.576 80.384 121.537C80.2909 121.959 80.9354 122.077 81.0374 121.663C81.8468 118.602 82.1688 115.51 82.0787 112.35C82.0377 110.766 81.9116 109.185 81.6752 107.617L81.6922 107.617Z" fill="#263238"/>
<path d="M181.481 118.015C178.913 115.548 177.029 112.319 175.807 108.993C175.209 107.364 174.754 105.66 174.494 103.94C174.365 103.084 174.285 102.218 174.249 101.35C174.211 100.439 174.25 99.5503 174.05 98.6548C173.967 98.2917 173.369 98.2571 173.238 98.6037C172.608 100.25 172.925 102.318 173.176 104.03C173.46 105.902 173.945 107.724 174.667 109.467C176.109 112.946 178.372 115.869 181.172 118.361C181.393 118.556 181.686 118.22 181.473 118.016L181.481 118.015Z" fill="#263238"/>
<path d="M115.692 136.062L117.765 154.539L111.613 149.988L115.692 136.062Z" fill="#263238"/>
<path d="M121.602 150.165C121.497 150.093 121.335 150.099 121.246 150.206C121.156 150.303 121.066 150.401 120.985 150.498C120.895 150.595 120.832 150.7 120.751 150.806C120.598 151.017 120.453 151.228 120.3 151.448C120.244 151.535 120.204 151.605 120.201 151.716C120.206 151.835 120.27 151.935 120.357 151.999C120.437 152.056 120.531 152.077 120.633 152.056C120.751 152.034 120.834 151.971 120.898 151.866C121.033 151.647 121.178 151.428 121.313 151.209C121.386 151.104 121.45 150.999 121.513 150.877C121.567 150.755 121.631 150.641 121.685 150.52C121.748 150.398 121.708 150.254 121.594 150.174L121.602 150.165Z" fill="#38474F"/>
<path d="M123.168 147.718C123.149 147.668 123.121 147.627 123.077 147.594C122.981 147.53 122.845 147.536 122.763 147.625C122.681 147.713 122.583 147.803 122.519 147.908C122.463 147.995 122.407 148.083 122.351 148.162C122.327 148.197 122.32 148.24 122.321 148.274C122.323 148.317 122.324 148.351 122.326 148.393C122.346 148.469 122.409 148.543 122.479 148.583C122.549 148.614 122.635 148.628 122.71 148.607C122.794 148.578 122.852 148.525 122.9 148.455C122.948 148.367 123.004 148.28 123.043 148.193C123.066 148.149 123.081 148.097 123.097 148.054C123.111 148.002 123.135 147.959 123.15 147.907C123.166 147.881 123.173 147.846 123.172 147.821C123.171 147.787 123.169 147.761 123.168 147.727L123.168 147.718Z" fill="#38474F"/>
<path d="M124.435 143.324C124.214 143.563 124.056 143.86 123.915 144.147C123.782 144.434 123.658 144.721 123.542 145.016C123.457 145.224 123.502 145.486 123.728 145.588C123.919 145.673 124.216 145.627 124.3 145.402C124.423 145.081 124.555 144.76 124.66 144.431C124.758 144.12 124.855 143.801 124.859 143.477C124.858 143.255 124.573 143.173 124.435 143.324Z" fill="#38474F"/>
<path d="M126.037 138.401C125.924 138.363 125.763 138.379 125.682 138.484C125.577 138.625 125.464 138.775 125.386 138.94C125.315 139.08 125.262 139.227 125.208 139.374C125.085 139.703 124.989 140.048 124.884 140.385C124.846 140.498 124.895 140.658 124.951 140.758C125.015 140.866 125.147 140.963 125.267 140.983C125.55 141.031 125.782 140.868 125.865 140.6C125.955 140.298 126.053 139.995 126.133 139.685C126.214 139.357 126.268 139.031 126.245 138.691C126.239 138.555 126.149 138.439 126.028 138.393L126.037 138.401Z" fill="#38474F"/>
<path d="M126.785 134.711C126.759 134.499 126.615 134.326 126.402 134.309C126.316 134.304 126.214 134.317 126.14 134.372C126.04 134.435 125.984 134.523 125.955 134.644C125.925 134.739 125.886 134.834 125.865 134.937C125.852 135.032 125.839 135.126 125.826 135.229C125.809 135.426 125.792 135.623 125.775 135.828C125.763 135.956 125.768 136.067 125.832 136.184C125.896 136.283 126.02 136.381 126.14 136.401C126.26 136.422 126.396 136.407 126.496 136.344C126.595 136.271 126.693 136.165 126.713 136.036C126.739 135.839 126.756 135.633 126.781 135.436C126.793 135.299 126.813 135.17 126.816 135.034C126.811 134.932 126.799 134.83 126.786 134.737L126.785 134.711Z" fill="#38474F"/>
<path d="M131.839 132.261C131.3 132.224 130.75 132.324 130.236 132.482C129.723 132.649 129.221 132.874 128.756 133.158C128.523 133.296 128.435 133.641 128.589 133.865C128.752 134.096 129.046 134.178 129.295 134.031C129.395 133.967 129.503 133.911 129.612 133.856C129.67 133.828 129.737 133.791 129.796 133.763C129.821 133.753 129.821 133.745 129.829 133.744C129.829 133.744 129.838 133.744 129.863 133.734C130.089 133.64 130.324 133.544 130.568 133.474C130.795 133.405 131.032 133.344 131.268 133.292C131.327 133.281 131.387 133.27 131.446 133.258C131.505 133.256 131.514 133.247 131.471 133.257C131.497 133.256 131.522 133.255 131.548 133.246C131.7 133.222 131.843 133.182 131.996 133.15C132.215 133.107 132.341 132.846 132.298 132.643C132.254 132.406 132.07 132.286 131.839 132.27L131.839 132.261Z" fill="#38474F"/>
<path d="M138.494 131.487C138.211 131.465 137.938 131.443 137.656 131.429C137.391 131.414 137.128 131.451 136.864 131.462C136.337 131.51 135.803 131.575 135.277 131.64C135.014 131.668 134.767 131.883 134.788 132.172C134.807 132.444 135.031 132.682 135.32 132.661C135.847 132.622 136.383 132.599 136.909 132.543C137.198 132.514 137.487 132.493 137.774 132.422C138.027 132.36 138.281 132.298 138.533 132.228C138.693 132.178 138.814 132.011 138.807 131.841C138.801 131.688 138.673 131.497 138.502 131.479L138.494 131.487Z" fill="#38474F"/>
<path d="M144.516 130.491C144.32 130.499 144.124 130.499 143.937 130.515C143.708 130.542 143.488 130.577 143.259 130.62C143.064 130.654 142.879 130.696 142.684 130.738C142.591 130.759 142.49 130.781 142.397 130.81C142.288 130.84 142.205 130.895 142.122 130.95C141.972 131.033 141.875 131.165 141.9 131.343C141.933 131.537 142.091 131.642 142.279 131.651C142.167 131.621 142.176 131.63 142.306 131.675C142.349 131.682 142.392 131.689 142.434 131.687C142.485 131.685 142.536 131.683 142.587 131.681C142.681 131.677 142.765 131.656 142.859 131.644C143.079 131.617 143.299 131.574 143.511 131.539C143.706 131.506 143.892 131.472 144.086 131.421C144.271 131.371 144.456 131.304 144.641 131.236C145.053 131.099 144.958 130.464 144.515 130.482L144.516 130.491Z" fill="#38474F"/>
<path d="M150.49 129.817C150.277 129.801 150.053 129.767 149.84 129.768C149.636 129.768 149.422 129.768 149.218 129.777C148.8 129.777 148.375 129.812 147.949 129.822C147.669 129.833 147.415 130.091 147.444 130.371C147.464 130.652 147.696 130.89 147.994 130.877C148.419 130.859 148.837 130.842 149.262 130.815C149.466 130.807 149.679 130.789 149.882 130.772C150.095 130.755 150.314 130.703 150.526 130.668C150.746 130.634 150.953 130.471 150.934 130.225C150.915 129.97 150.73 129.841 150.49 129.817Z" fill="#38474F"/>
<path d="M155.204 131.955C155.036 131.391 154.85 130.836 154.665 130.281C154.587 130.063 154.342 129.902 154.107 129.989C153.888 130.066 153.728 130.312 153.815 130.547C154.009 131.102 154.211 131.656 154.43 132.201C154.506 132.394 154.717 132.547 154.936 132.47C155.146 132.393 155.265 132.183 155.205 131.964L155.204 131.955Z" fill="#38474F"/>
<path d="M155.973 135.07C155.964 134.84 155.759 134.627 155.512 134.646C155.283 134.664 155.069 134.86 155.088 135.107C155.164 135.888 155.222 136.679 155.484 137.427C155.561 137.637 155.894 137.648 155.935 137.408C156.073 136.626 156.023 135.852 155.965 135.07L155.973 135.07Z" fill="#38474F"/>
<path d="M156.876 141.046C156.824 140.621 156.781 140.205 156.729 139.781C156.701 139.535 156.504 139.305 156.241 139.333C155.994 139.352 155.773 139.557 155.792 139.821C155.819 140.246 155.854 140.679 155.88 141.105C155.889 141.317 155.915 141.529 155.942 141.75C155.969 141.988 156.029 142.215 156.082 142.452C156.134 142.663 156.369 142.781 156.572 142.747C156.792 142.712 156.921 142.528 156.929 142.306C156.937 142.092 156.953 141.878 156.935 141.657C156.927 141.453 156.901 141.241 156.875 141.037L156.876 141.046Z" fill="#38474F"/>
<path d="M157.447 145.837C157.447 145.837 157.42 145.787 157.402 145.771C157.384 145.746 157.358 145.739 157.332 145.731C157.306 145.724 157.28 145.717 157.255 145.718C157.204 145.72 157.145 145.739 157.104 145.784C157.096 145.801 157.08 145.819 157.072 145.828C157.056 145.862 157.049 145.897 157.051 145.931C157.063 146.016 157.075 146.1 157.087 146.185C157.088 146.211 157.089 146.236 157.107 146.253C157.108 146.278 157.126 146.294 157.152 146.31C157.17 146.327 157.187 146.343 157.213 146.35C157.239 146.358 157.256 146.366 157.282 146.365C157.333 146.362 157.383 146.343 157.408 146.308C157.415 146.291 157.423 146.282 157.44 146.264C157.456 146.238 157.463 146.203 157.461 146.169C157.466 146.084 157.471 145.998 157.476 145.913C157.475 145.887 157.474 145.862 157.456 145.837L157.447 145.837Z" fill="#38474F"/>
</svg>
