<svg width="40" height="40" viewBox="0 0 40 40" fill="none" xmlns="http://www.w3.org/2000/svg">
<path d="M7.7224 18.9974L7.1724 16.2474C6.80573 16.0946 6.46198 15.9342 6.14115 15.7661C5.82031 15.5981 5.49184 15.3918 5.15573 15.1474L2.4974 15.9724L0.664062 12.8557L2.7724 11.0224C2.71128 10.6252 2.68073 10.228 2.68073 9.83073C2.68073 9.43351 2.71128 9.03628 2.7724 8.63906L0.664062 6.80573L2.4974 3.68906L5.15573 4.51406C5.49184 4.26962 5.82031 4.06337 6.14115 3.89531C6.46198 3.72726 6.80573 3.56684 7.1724 3.41406L7.7224 0.664062H11.3891L11.9391 3.41406C12.3057 3.56684 12.6495 3.72726 12.9703 3.89531C13.2911 4.06337 13.6196 4.26962 13.9557 4.51406L16.6141 3.68906L18.4474 6.80573L16.3391 8.63906C16.4002 9.03628 16.4307 9.43351 16.4307 9.83073C16.4307 10.228 16.4002 10.6252 16.3391 11.0224L18.4474 12.8557L16.6141 15.9724L13.9557 15.1474C13.6196 15.3918 13.2911 15.5981 12.9703 15.7661C12.6495 15.9342 12.3057 16.0946 11.9391 16.2474L11.3891 18.9974H7.7224ZM9.55573 13.4974C10.5641 13.4974 11.4273 13.1384 12.1453 12.4203C12.8634 11.7023 13.2224 10.8391 13.2224 9.83073C13.2224 8.8224 12.8634 7.9592 12.1453 7.24115C11.4273 6.52309 10.5641 6.16406 9.55573 6.16406C8.5474 6.16406 7.6842 6.52309 6.96615 7.24115C6.24809 7.9592 5.88906 8.8224 5.88906 9.83073C5.88906 10.8391 6.24809 11.7023 6.96615 12.4203C7.6842 13.1384 8.5474 13.4974 9.55573 13.4974ZM24.1307 39.1641L23.3057 35.3141C22.7863 35.1307 22.305 34.9092 21.862 34.6495C21.4189 34.3898 20.9835 34.0918 20.5557 33.7557L16.8891 34.9474L14.3224 30.5474L17.2557 27.9807C17.1946 27.4307 17.1641 26.8807 17.1641 26.3307C17.1641 25.7807 17.1946 25.2307 17.2557 24.6807L14.3224 22.1141L16.8891 17.7141L20.5557 18.9057C20.9835 18.5696 21.4189 18.2717 21.862 18.012C22.305 17.7523 22.7863 17.5307 23.3057 17.3474L24.1307 13.4974H29.2641L30.0891 17.3474C30.6085 17.5307 31.0898 17.7523 31.5328 18.012C31.9759 18.2717 32.4113 18.5696 32.8391 18.9057L36.5057 17.7141L39.0724 22.1141L36.1391 24.6807C36.2002 25.2307 36.2307 25.7807 36.2307 26.3307C36.2307 26.8807 36.2002 27.4307 36.1391 27.9807L39.0724 30.5474L36.5057 34.9474L32.8391 33.7557C32.4113 34.0918 31.9759 34.3898 31.5328 34.6495C31.0898 34.9092 30.6085 35.1307 30.0891 35.3141L29.2641 39.1641H24.1307ZM26.6974 31.8307C28.2252 31.8307 29.5238 31.296 30.5932 30.2266C31.6627 29.1571 32.1974 27.8585 32.1974 26.3307C32.1974 24.803 31.6627 23.5043 30.5932 22.4349C29.5238 21.3655 28.2252 20.8307 26.6974 20.8307C25.1696 20.8307 23.871 21.3655 22.8016 22.4349C21.7321 23.5043 21.1974 24.803 21.1974 26.3307C21.1974 27.8585 21.7321 29.1571 22.8016 30.2266C23.871 31.296 25.1696 31.8307 26.6974 31.8307Z" fill="black"/>
</svg>
