<svg width="44" height="44" viewBox="0 0 44 44" fill="currentColor" xmlns="http://www.w3.org/2000/svg">
<mask id="mask0_746_35917" style="mask-type:alpha" maskUnits="userSpaceOnUse" x="0" y="0" width="44" height="44">
<rect width="44" height="44" fill="currentColor"/>
</mask>
<g mask="url(#mask0_746_35917)">
<path d="M0 33V30.1125C0 28.7986 0.672222 27.7292 2.01667 26.9042C3.36111 26.0792 5.13333 25.6667 7.33333 25.6667C7.73056 25.6667 8.1125 25.6743 8.47917 25.6896C8.84583 25.7049 9.19722 25.7431 9.53333 25.8042C9.10556 26.4458 8.78472 27.1181 8.57083 27.8208C8.35695 28.5236 8.25 29.2569 8.25 30.0208V33H0ZM11 33V30.0208C11 29.0431 11.2674 28.1493 11.8021 27.3396C12.3368 26.5299 13.0931 25.8194 14.0708 25.2083C15.0486 24.5972 16.2174 24.1389 17.5771 23.8333C18.9368 23.5278 20.4111 23.375 22 23.375C23.6194 23.375 25.109 23.5278 26.4688 23.8333C27.8285 24.1389 28.9972 24.5972 29.975 25.2083C30.9528 25.8194 31.7014 26.5299 32.2208 27.3396C32.7403 28.1493 33 29.0431 33 30.0208V33H11ZM35.75 33V30.0208C35.75 29.2264 35.6507 28.4778 35.4521 27.775C35.2535 27.0722 34.9556 26.4153 34.5583 25.8042C34.8944 25.7431 35.2382 25.7049 35.5896 25.6896C35.941 25.6743 36.3 25.6667 36.6667 25.6667C38.8667 25.6667 40.6389 26.0715 41.9833 26.8813C43.3278 27.691 44 28.7681 44 30.1125V33H35.75ZM14.8958 29.3333H29.15C28.8444 28.7222 27.9965 28.1875 26.6063 27.7292C25.216 27.2708 23.6806 27.0417 22 27.0417C20.3194 27.0417 18.784 27.2708 17.3938 27.7292C16.0035 28.1875 15.1708 28.7222 14.8958 29.3333ZM7.33333 23.8333C6.325 23.8333 5.46181 23.4743 4.74375 22.7563C4.02569 22.0382 3.66667 21.175 3.66667 20.1667C3.66667 19.1278 4.02569 18.2569 4.74375 17.5542C5.46181 16.8514 6.325 16.5 7.33333 16.5C8.37222 16.5 9.24306 16.8514 9.94583 17.5542C10.6486 18.2569 11 19.1278 11 20.1667C11 21.175 10.6486 22.0382 9.94583 22.7563C9.24306 23.4743 8.37222 23.8333 7.33333 23.8333ZM36.6667 23.8333C35.6583 23.8333 34.7951 23.4743 34.0771 22.7563C33.359 22.0382 33 21.175 33 20.1667C33 19.1278 33.359 18.2569 34.0771 17.5542C34.7951 16.8514 35.6583 16.5 36.6667 16.5C37.7056 16.5 38.5764 16.8514 39.2792 17.5542C39.9819 18.2569 40.3333 19.1278 40.3333 20.1667C40.3333 21.175 39.9819 22.0382 39.2792 22.7563C38.5764 23.4743 37.7056 23.8333 36.6667 23.8333ZM22 22C20.4722 22 19.1736 21.4653 18.1042 20.3958C17.0347 19.3264 16.5 18.0278 16.5 16.5C16.5 14.9417 17.0347 13.6354 18.1042 12.5813C19.1736 11.5271 20.4722 11 22 11C23.5583 11 24.8646 11.5271 25.9188 12.5813C26.9729 13.6354 27.5 14.9417 27.5 16.5C27.5 18.0278 26.9729 19.3264 25.9188 20.3958C24.8646 21.4653 23.5583 22 22 22ZM22 18.3333C22.5194 18.3333 22.9549 18.1576 23.3063 17.8063C23.6576 17.4549 23.8333 17.0194 23.8333 16.5C23.8333 15.9806 23.6576 15.5451 23.3063 15.1938C22.9549 14.8424 22.5194 14.6667 22 14.6667C21.4806 14.6667 21.0451 14.8424 20.6938 15.1938C20.3424 15.5451 20.1667 15.9806 20.1667 16.5C20.1667 17.0194 20.3424 17.4549 20.6938 17.8063C21.0451 18.1576 21.4806 18.3333 22 18.3333Z" fill="currentColor"/>
</g>
</svg>
