<svg width="44" height="44" viewBox="0 0 44 44" fill="none" xmlns="http://www.w3.org/2000/svg">
<path d="M38.3204 43.999H5.6796C4.17539 44.0002 2.73221 43.4565 1.66721 42.4875C0.602222 41.5186 0.00255546 40.2035 0 38.8314V17.0308C0 16.8558 0.0761951 16.688 0.211823 16.5643C0.347451 16.4406 0.531402 16.3711 0.723208 16.3711H43.2768C43.4686 16.3711 43.6525 16.4406 43.7882 16.5643C43.9238 16.688 44 16.8558 44 17.0308V38.8314C43.9974 40.2035 43.3978 41.5186 42.3328 42.4875C41.2678 43.4565 39.8246 44.0002 38.3204 43.999ZM1.44642 17.6905V38.8314C1.44897 39.8536 1.89625 40.833 2.68998 41.5546C3.48372 42.2761 4.559 42.6808 5.6796 42.6796H38.3204C39.441 42.6808 40.5163 42.2761 41.31 41.5546C42.1038 40.833 42.551 39.8536 42.5536 38.8314V17.6905H1.44642Z" fill="white"/>
<path d="M43.2768 17.3953H0.723208C0.531402 17.3953 0.347451 17.3239 0.211823 17.1969C0.0761951 17.0698 0 16.8975 0 16.7179V10.4225C0.00255546 9.0136 0.602222 7.66325 1.66721 6.66825C2.73221 5.67325 4.17539 5.11501 5.6796 5.11621H9.75367C9.84905 5.11621 9.94349 5.13388 10.0315 5.16821C10.1196 5.20253 10.1995 5.25283 10.2668 5.31621C10.334 5.3796 10.3872 5.45481 10.4232 5.53751C10.4593 5.62022 10.4775 5.7088 10.4769 5.79813V7.96582C10.4807 8.48927 10.7054 8.99006 11.1019 9.35894C11.4984 9.72781 12.0346 9.93482 12.5935 9.93481C12.8702 9.9354 13.1443 9.88495 13.4001 9.78632C13.656 9.68769 13.8886 9.54282 14.0847 9.35998C14.2808 9.17714 14.4365 8.95992 14.543 8.72071C14.6495 8.4815 14.7046 8.22499 14.7052 7.96582V5.79813C14.7052 5.61847 14.7814 5.44617 14.9171 5.31914C15.0527 5.1921 15.2366 5.12073 15.4284 5.12073H28.5716C28.7634 5.12073 28.9473 5.1921 29.0829 5.31914C29.2186 5.44617 29.2948 5.61847 29.2948 5.79813V7.96582C29.2986 8.48849 29.5226 8.9886 29.9181 9.35735C30.3136 9.72609 30.8485 9.93363 31.4065 9.93481C31.9658 9.93601 32.5027 9.72938 32.8995 9.36025C33.2963 8.99113 33.5206 8.48964 33.5231 7.96582V5.79813C33.5231 5.61847 33.5993 5.44617 33.7349 5.31914C33.8706 5.1921 34.0545 5.12073 34.2463 5.12073H38.3204C39.8238 5.11953 41.2662 5.67715 42.3311 6.67117C43.3959 7.6652 43.9962 9.01439 44 10.4225V16.7179C44 16.8975 43.9238 17.0698 43.7882 17.1969C43.6525 17.3239 43.4686 17.3953 43.2768 17.3953ZM1.44642 16.0405H42.5536V10.4225C42.5498 9.37329 42.1021 8.36823 41.3086 7.62757C40.5151 6.8869 39.4406 6.47101 38.3204 6.47102H34.9695V7.96582C34.9679 8.62443 34.758 9.26782 34.3663 9.81478C33.9747 10.3617 33.4187 10.7877 32.7688 11.039C32.1188 11.2902 31.4039 11.3555 30.7144 11.2265C30.0249 11.0975 29.3916 10.78 28.8946 10.3142C28.5617 10.0079 28.2976 9.6424 28.1179 9.23909C27.9383 8.83577 27.8466 8.40284 27.8483 7.96582V6.47102H16.1517V7.96582C16.15 8.62443 15.9401 9.26782 15.5485 9.81478C15.1568 10.3617 14.6008 10.7877 13.9509 11.039C13.3009 11.2902 12.586 11.3555 11.8965 11.2265C11.207 11.0975 10.5738 10.78 10.0767 10.3142C9.74382 10.0079 9.47974 9.6424 9.30006 9.23909C9.12037 8.83577 9.0287 8.40284 9.03046 7.96582V6.47102H5.65549C4.53528 6.47101 3.46074 6.8869 2.66728 7.62757C1.87382 8.36823 1.42614 9.37329 1.42231 10.4225L1.44642 16.0405Z" fill="white"/>
<path d="M31.3474 11.2558C30.3292 11.2547 29.353 10.9145 28.6321 10.3096C27.9111 9.7047 27.5041 8.88432 27.5 8.02773V3.22946C27.5017 2.58982 27.7287 1.96495 28.1522 1.43374C28.5757 0.902536 29.1769 0.488808 29.8796 0.244792C30.5824 0.000776485 31.3554 -0.062587 32.101 0.0627014C32.8465 0.18799 33.5313 0.496313 34.0687 0.948745C34.4286 1.24614 34.7142 1.60116 34.9085 1.99286C35.1028 2.38456 35.2019 2.80502 35.2 3.22946V8.02773C35.1958 8.88508 34.7881 9.70612 34.0661 10.3111C33.344 10.9161 32.3664 11.2558 31.3474 11.2558ZM31.3474 1.31717C31.0482 1.31659 30.7518 1.3656 30.4752 1.46139C30.1985 1.55718 29.947 1.69787 29.7349 1.87545C29.5229 2.05302 29.3545 2.26399 29.2394 2.49631C29.1243 2.72863 29.0647 2.97776 29.064 3.22946V8.02773C29.0681 8.53535 29.3103 9.02106 29.738 9.37918C30.1656 9.73731 30.744 9.93887 31.3474 9.94002C31.9521 9.94118 32.5326 9.74051 32.9617 9.38201C33.3907 9.02351 33.6332 8.53646 33.636 8.02773V3.22946C33.6362 2.97864 33.5769 2.73031 33.4614 2.49907C33.3459 2.26784 33.1766 2.05836 32.9635 1.88296C32.7519 1.70347 32.5002 1.56105 32.2228 1.46393C31.9454 1.36681 31.6478 1.31693 31.3474 1.31717Z" fill="white"/>
<path d="M12.6534 11.2558C12.1479 11.2567 11.6473 11.1735 11.1802 11.0109C10.7132 10.8483 10.289 10.6095 9.93208 10.3084C9.57214 10.011 9.2866 9.65602 9.09231 9.26432C8.89802 8.87262 8.79891 8.45216 8.80081 8.02772V3.22946C8.80255 2.58982 9.0295 1.96495 9.45303 1.43374C9.87655 0.902535 10.4777 0.488808 11.1804 0.244792C11.8832 0.000776485 12.6562 -0.062587 13.4018 0.0627014C14.1473 0.18799 14.832 0.496312 15.3695 0.948744C15.7294 1.24614 16.015 1.60115 16.2093 1.99286C16.4035 2.38456 16.5027 2.80502 16.5008 3.22946V8.02772C16.498 8.88467 16.0914 9.70572 15.3702 10.3109C14.649 10.916 13.672 11.2558 12.6534 11.2558ZM12.6534 1.31717C12.0487 1.316 11.4681 1.51668 11.0391 1.87518C10.61 2.23368 10.3675 2.72072 10.3648 3.22946V8.02772C10.3689 8.5361 10.6119 9.02247 11.0406 9.38072C11.4694 9.73897 12.0491 9.94002 12.6534 9.94001C12.9526 9.94059 13.2489 9.89158 13.5256 9.79579C13.8023 9.7 14.0538 9.55931 14.2658 9.38173C14.4779 9.20416 14.6463 8.99319 14.7614 8.76087C14.8765 8.52855 14.9361 8.27942 14.9368 8.02772V3.22946C14.937 2.97864 14.8776 2.73031 14.7622 2.49907C14.6467 2.26783 14.4774 2.05836 14.2643 1.88296C14.0537 1.7036 13.8028 1.56122 13.5263 1.4641C13.2498 1.36697 12.9531 1.31703 12.6534 1.31717Z" fill="white"/>
<path d="M23.5191 38.8846H19.3884C19.2084 38.8858 19.0351 38.8226 18.9062 38.7087C18.7772 38.5949 18.7028 38.4395 18.6992 38.2764V33.3648C18.699 33.2659 18.725 33.1684 18.775 33.0806C18.8251 32.9927 18.8977 32.9171 18.9868 32.86C19.0759 32.8033 19.1785 32.7662 19.2863 32.7519C19.3941 32.7375 19.5041 32.7462 19.6075 32.7772C20.8017 33.1455 22.0967 33.1455 23.2909 32.7772C23.3943 32.7462 23.5043 32.7375 23.6121 32.7519C23.7199 32.7662 23.8225 32.8033 23.9117 32.86C24.0007 32.9171 24.0734 32.9927 24.1234 33.0806C24.1735 33.1684 24.1995 33.2659 24.1992 33.3648V38.2764C24.1957 38.4381 24.1226 38.5922 23.9955 38.7058C23.8685 38.8194 23.6976 38.8836 23.5191 38.8846ZM20.0731 37.6433H22.8345V34.1758C21.9226 34.3372 20.9849 34.3372 20.0731 34.1758V37.6433Z" fill="white"/>
<path d="M21.9834 33.7662C21.1376 33.7668 20.2974 33.6462 19.4972 33.4092C18.386 33.0791 17.376 32.535 16.5435 31.8179C15.8284 31.2001 15.262 30.4658 14.8771 29.6574C14.4922 28.8491 14.2963 27.9828 14.3009 27.1086V21.5606C14.3009 21.2704 14.4338 20.9921 14.6705 20.7866C14.9072 20.5811 15.2285 20.465 15.5639 20.4639H28.4477C28.7814 20.4673 29.1001 20.5843 29.3347 20.7896C29.5693 20.9949 29.7008 21.2719 29.7008 21.5606V27.1086C29.7008 27.3365 29.7008 27.5602 29.661 27.7881C29.5073 29.0562 28.9367 30.2596 28.0166 31.2559C27.0965 32.2521 25.8656 32.9994 24.4697 33.4092C23.6695 33.6465 22.8293 33.7672 21.9834 33.7662ZM15.7777 21.724V27.1086C15.7767 28.2306 16.1832 29.3245 16.9398 30.2359C17.6964 31.1472 18.7649 31.83 19.9944 32.1878C20.878 32.448 21.818 32.5326 22.7446 32.4356C23.6713 32.3385 24.5607 32.0622 25.347 31.6272C26.1332 31.1921 26.7961 30.6095 27.2864 29.9226C27.7767 29.2356 28.0819 28.462 28.1792 27.6591C28.1792 27.4741 28.209 27.2935 28.209 27.1086V21.7369L15.7777 21.724Z" fill="white"/>
<path d="M30.7538 28.1628H28.7019C28.604 28.1626 28.5073 28.1434 28.4178 28.1064C28.3283 28.0694 28.2479 28.0154 28.1818 27.9479C28.1156 27.8804 28.0655 27.8006 28.0348 27.7136C28.0041 27.6266 27.9935 27.5345 28.0038 27.4434C28.0038 27.2504 28.0319 27.0574 28.0319 26.8776V21.6579C28.0319 21.4834 28.106 21.3161 28.2378 21.1927C28.3695 21.0693 28.5483 21 28.7347 21H30.7772C31.2792 21 31.7763 21.0926 32.2401 21.2725C32.7039 21.4523 33.1254 21.716 33.4803 22.0483C33.8353 22.3807 34.1169 22.7753 34.309 23.2095C34.5011 23.6437 34.6 24.1092 34.6 24.5792C34.6 25.0492 34.5011 25.5147 34.309 25.9489C34.1169 26.3832 33.8353 26.7777 33.4803 27.1101C33.1254 27.4424 32.7039 27.7061 32.2401 27.886C31.7763 28.0658 31.2792 28.1584 30.7772 28.1584L30.7538 28.1628ZM29.4139 26.8469H30.7538C31.3949 26.8469 32.0098 26.6085 32.4631 26.184C32.9165 25.7595 33.1711 25.1839 33.1711 24.5836C33.1711 23.9833 32.9165 23.4076 32.4631 22.9832C32.0098 22.5587 31.3949 22.3203 30.7538 22.3203H29.4139V26.8469Z" fill="white"/>
<path d="M14.6906 28.6501H12.6181C11.6057 28.6501 10.6348 28.2727 9.91886 27.6011C9.20297 26.9295 8.80078 26.0185 8.80078 25.0687C8.80078 24.1188 9.20297 23.2079 9.91886 22.5363C10.6348 21.8646 11.6057 21.4873 12.6181 21.4873H14.6672C14.8533 21.4873 15.0318 21.5567 15.1634 21.6801C15.295 21.8036 15.3689 21.971 15.3689 22.1456V27.3641C15.3689 27.544 15.3689 27.7372 15.397 27.9303C15.4072 28.0214 15.3967 28.1136 15.3661 28.2006C15.3354 28.2876 15.2853 28.3675 15.2192 28.435C15.1521 28.5037 15.0704 28.5583 14.9793 28.5954C14.8882 28.6324 14.7898 28.6511 14.6906 28.6501ZM12.6181 22.804C11.9779 22.804 11.3639 23.0426 10.9112 23.4673C10.4585 23.892 10.2042 24.468 10.2042 25.0687C10.2042 25.6693 10.4585 26.2453 10.9112 26.6701C11.3639 27.0948 11.9779 27.3334 12.6181 27.3334H13.9561V22.804H12.6181Z" fill="white"/>
<path d="M26.8173 38.8846H17.1827C17.0016 38.8846 16.828 38.8307 16.6999 38.7347C16.5719 38.6388 16.5 38.5086 16.5 38.373C16.5 38.2373 16.5719 38.1071 16.6999 38.0112C16.828 37.9152 17.0016 37.8613 17.1827 37.8613H26.8173C26.9984 37.8613 27.172 37.9152 27.3001 38.0112C27.4281 38.1071 27.5 38.2373 27.5 38.373C27.5 38.5086 27.4281 38.6388 27.3001 38.7347C27.172 38.8307 26.9984 38.8846 26.8173 38.8846Z" fill="white"/>
<path d="M19.9196 30.6989C19.7196 30.6981 19.5221 30.6555 19.3409 30.5743C19.1597 30.493 18.999 30.3749 18.87 30.2282C18.7411 30.0814 18.6468 29.9095 18.5939 29.7244C18.5409 29.5393 18.5306 29.3453 18.5634 29.156L18.736 28.2094L18.016 27.5326C17.8321 27.3608 17.7018 27.1431 17.6401 26.904C17.5783 26.665 17.5874 26.4141 17.6664 26.1797C17.7454 25.9454 17.8911 25.7369 18.0871 25.5779C18.2831 25.4188 18.5215 25.3156 18.7755 25.2798L19.7618 25.1425L20.2056 24.2764C20.3181 24.0545 20.4934 23.8674 20.7114 23.7364C20.9294 23.6055 21.1814 23.5361 21.4385 23.5361C21.6957 23.5361 21.9477 23.6055 22.1657 23.7364C22.3837 23.8674 22.5589 24.0545 22.6714 24.2764L23.1202 25.1425L24.1065 25.2798C24.3621 25.3126 24.6028 25.4138 24.8014 25.5716C25 25.7295 25.1483 25.9377 25.2295 26.1725C25.3108 26.4074 25.3216 26.6594 25.2608 26.8999C25.2 27.1404 25.07 27.3596 24.8857 27.5326L24.1657 28.2047L24.3383 29.1512C24.3774 29.3906 24.3472 29.6358 24.2508 29.8598C24.1545 30.0838 23.9958 30.278 23.7921 30.4212C23.5884 30.5644 23.3475 30.6511 23.0959 30.6716C22.8443 30.6922 22.5917 30.646 22.3657 30.538L21.473 30.0647L20.5854 30.538C20.3814 30.6453 20.1522 30.7007 19.9196 30.6989ZM19.1996 26.6523L19.8062 27.2202C19.9668 27.3691 20.0868 27.5536 20.1556 27.7574C20.2244 27.9613 20.2399 28.1783 20.2007 28.3892L20.0577 29.1938L20.8122 28.8152C21.0089 28.7149 21.2282 28.6625 21.4509 28.6625C21.6735 28.6625 21.8928 28.7149 22.0895 28.8152L22.844 29.1938L22.701 28.3892C22.6618 28.1783 22.6773 27.9613 22.7461 27.7574C22.8149 27.5536 22.9349 27.3691 23.0955 27.2202L23.7021 26.6523L22.8637 26.534C22.6431 26.5042 22.4333 26.4231 22.2528 26.2977C22.0723 26.1723 21.9265 26.0065 21.8281 25.8146L21.4336 25.081L21.0588 25.8146C20.9609 26.0059 20.8158 26.1713 20.6362 26.2967C20.4566 26.4221 20.2479 26.5035 20.0281 26.534L19.1996 26.6523Z" fill="white"/>
</svg>
