<svg width="510" height="68" viewBox="0 0 510 68" fill="none" xmlns="http://www.w3.org/2000/svg">
<path d="M153.672 26.792C153.672 28.4347 153.276 29.9747 152.484 31.412C151.722 32.8493 150.504 34.008 148.832 34.888C147.19 35.768 145.107 36.208 142.584 36.208H137.436V48H131.276V17.288H142.584C144.96 17.288 146.984 17.6987 148.656 18.52C150.328 19.3413 151.575 20.4707 152.396 21.908C153.247 23.3453 153.672 24.9733 153.672 26.792ZM142.32 31.236C144.022 31.236 145.283 30.8547 146.104 30.092C146.926 29.3 147.336 28.2 147.336 26.792C147.336 23.8 145.664 22.304 142.32 22.304H137.436V31.236H142.32ZM173.886 48L167.11 36.032H164.206V48H158.046V17.288H169.574C171.95 17.288 173.974 17.7133 175.646 18.564C177.318 19.3853 178.564 20.5147 179.386 21.952C180.236 23.36 180.662 24.944 180.662 26.704C180.662 28.728 180.075 30.5613 178.902 32.204C177.728 33.8173 175.983 34.932 173.666 35.548L181.014 48H173.886ZM164.206 31.412H169.354C171.026 31.412 172.272 31.016 173.094 30.224C173.915 29.4027 174.326 28.2733 174.326 26.836C174.326 25.428 173.915 24.3427 173.094 23.58C172.272 22.788 171.026 22.392 169.354 22.392H164.206V31.412ZM200.489 48.308C197.615 48.308 194.975 47.6333 192.569 46.284C190.164 44.9347 188.257 43.072 186.849 40.696C185.441 38.2907 184.737 35.5773 184.737 32.556C184.737 29.564 185.441 26.88 186.849 24.504C188.257 22.0987 190.164 20.2213 192.569 18.872C194.975 17.5227 197.615 16.848 200.489 16.848C203.393 16.848 206.033 17.5227 208.409 18.872C210.815 20.2213 212.707 22.0987 214.085 24.504C215.493 26.88 216.197 29.564 216.197 32.556C216.197 35.5773 215.493 38.2907 214.085 40.696C212.707 43.072 210.815 44.9347 208.409 46.284C206.004 47.6333 203.364 48.308 200.489 48.308ZM200.489 42.808C202.337 42.808 203.965 42.3973 205.373 41.576C206.781 40.7253 207.881 39.5227 208.673 37.968C209.465 36.4133 209.861 34.6093 209.861 32.556C209.861 30.5027 209.465 28.7133 208.673 27.188C207.881 25.6333 206.781 24.4453 205.373 23.624C203.965 22.8027 202.337 22.392 200.489 22.392C198.641 22.392 196.999 22.8027 195.561 23.624C194.153 24.4453 193.053 25.6333 192.261 27.188C191.469 28.7133 191.073 30.5027 191.073 32.556C191.073 34.6093 191.469 36.4133 192.261 37.968C193.053 39.5227 194.153 40.7253 195.561 41.576C196.999 42.3973 198.641 42.808 200.489 42.808ZM231.516 17.288C234.743 17.288 237.573 17.9187 240.008 19.18C242.472 20.4413 244.364 22.2453 245.684 24.592C247.033 26.9093 247.708 29.608 247.708 32.688C247.708 35.768 247.033 38.4667 245.684 40.784C244.364 43.072 242.472 44.8467 240.008 46.108C237.573 47.3693 234.743 48 231.516 48H220.78V17.288H231.516ZM231.296 42.764C234.523 42.764 237.016 41.884 238.776 40.124C240.536 38.364 241.416 35.8853 241.416 32.688C241.416 29.4907 240.536 26.9973 238.776 25.208C237.016 23.3893 234.523 22.48 231.296 22.48H226.94V42.764H231.296ZM258.391 17.288V36.296C258.391 38.3787 258.934 39.9773 260.019 41.092C261.105 42.1773 262.63 42.72 264.595 42.72C266.59 42.72 268.13 42.1773 269.215 41.092C270.301 39.9773 270.843 38.3787 270.843 36.296V17.288H277.047V36.252C277.047 38.8627 276.475 41.0773 275.331 42.896C274.217 44.6853 272.706 46.0347 270.799 46.944C268.922 47.8533 266.825 48.308 264.507 48.308C262.219 48.308 260.137 47.8533 258.259 46.944C256.411 46.0347 254.945 44.6853 253.859 42.896C252.774 41.0773 252.231 38.8627 252.231 36.252V17.288H258.391ZM281.503 32.6C281.503 29.5787 282.178 26.88 283.527 24.504C284.906 22.0987 286.768 20.236 289.115 18.916C291.491 17.5667 294.146 16.892 297.079 16.892C300.511 16.892 303.518 17.772 306.099 19.532C308.68 21.292 310.484 23.7267 311.511 26.836H304.427C303.723 25.3693 302.726 24.2693 301.435 23.536C300.174 22.8027 298.707 22.436 297.035 22.436C295.246 22.436 293.647 22.8613 292.239 23.712C290.86 24.5333 289.775 25.7067 288.983 27.232C288.22 28.7573 287.839 30.5467 287.839 32.6C287.839 34.624 288.22 36.4133 288.983 37.968C289.775 39.4933 290.86 40.6813 292.239 41.532C293.647 42.3533 295.246 42.764 297.035 42.764C298.707 42.764 300.174 42.3973 301.435 41.664C302.726 40.9013 303.723 39.7867 304.427 38.32H311.511C310.484 41.4587 308.68 43.908 306.099 45.668C303.547 47.3987 300.54 48.264 297.079 48.264C294.146 48.264 291.491 47.604 289.115 46.284C286.768 44.9347 284.906 43.072 283.527 40.696C282.178 38.32 281.503 35.6213 281.503 32.6ZM337.672 17.288V22.26H329.488V48H323.328V22.26H315.144V17.288H337.672ZM363.387 17.288C366.614 17.288 369.445 17.9187 371.879 19.18C374.343 20.4413 376.235 22.2453 377.555 24.592C378.905 26.9093 379.579 29.608 379.579 32.688C379.579 35.768 378.905 38.4667 377.555 40.784C376.235 43.072 374.343 44.8467 371.879 46.108C369.445 47.3693 366.614 48 363.387 48H352.651V17.288H363.387ZM363.167 42.764C366.394 42.764 368.887 41.884 370.647 40.124C372.407 38.364 373.287 35.8853 373.287 32.688C373.287 29.4907 372.407 26.9973 370.647 25.208C368.887 23.3893 366.394 22.48 363.167 22.48H358.811V42.764H363.167ZM390.35 22.26V29.96H400.69V34.844H390.35V42.984H402.01V48H384.19V17.244H402.01V22.26H390.35ZM418.212 48.308C416.071 48.308 414.135 47.9413 412.404 47.208C410.703 46.4747 409.354 45.4187 408.356 44.04C407.359 42.6613 406.846 41.0333 406.816 39.156H413.416C413.504 40.4173 413.944 41.4147 414.736 42.148C415.558 42.8813 416.672 43.248 418.08 43.248C419.518 43.248 420.647 42.9107 421.468 42.236C422.29 41.532 422.7 40.6227 422.7 39.508C422.7 38.5987 422.422 37.8507 421.864 37.264C421.307 36.6773 420.603 36.2227 419.752 35.9C418.931 35.548 417.787 35.1667 416.32 34.756C414.326 34.1693 412.698 33.5973 411.436 33.04C410.204 32.4533 409.134 31.588 408.224 30.444C407.344 29.2707 406.904 27.716 406.904 25.78C406.904 23.9613 407.359 22.3773 408.268 21.028C409.178 19.6787 410.454 18.652 412.096 17.948C413.739 17.2147 415.616 16.848 417.728 16.848C420.896 16.848 423.463 17.6253 425.428 19.18C427.423 20.7053 428.523 22.8467 428.728 25.604H421.952C421.894 24.548 421.439 23.6827 420.588 23.008C419.767 22.304 418.667 21.952 417.288 21.952C416.086 21.952 415.118 22.26 414.384 22.876C413.68 23.492 413.328 24.3867 413.328 25.56C413.328 26.3813 413.592 27.0707 414.12 27.628C414.678 28.156 415.352 28.596 416.144 28.948C416.966 29.2707 418.11 29.652 419.576 30.092C421.571 30.6787 423.199 31.2653 424.46 31.852C425.722 32.4387 426.807 33.3187 427.716 34.492C428.626 35.6653 429.08 37.2053 429.08 39.112C429.08 40.7547 428.655 42.28 427.804 43.688C426.954 45.096 425.707 46.2253 424.064 47.076C422.422 47.8973 420.471 48.308 418.212 48.308ZM440.581 17.288V48H434.421V17.288H440.581ZM468.051 26.528C467.347 25.2373 466.379 24.2547 465.147 23.58C463.915 22.9053 462.478 22.568 460.835 22.568C459.016 22.568 457.403 22.9787 455.995 23.8C454.587 24.6213 453.487 25.7947 452.695 27.32C451.903 28.8453 451.507 30.6053 451.507 32.6C451.507 34.6533 451.903 36.4427 452.695 37.968C453.516 39.4933 454.646 40.6667 456.083 41.488C457.52 42.3093 459.192 42.72 461.099 42.72C463.446 42.72 465.367 42.104 466.863 40.872C468.359 39.6107 469.342 37.8653 469.811 35.636H459.251V30.928H475.883V36.296C475.472 38.4373 474.592 40.4173 473.243 42.236C471.894 44.0547 470.148 45.5213 468.007 46.636C465.895 47.7213 463.519 48.264 460.879 48.264C457.916 48.264 455.232 47.604 452.827 46.284C450.451 44.9347 448.574 43.072 447.195 40.696C445.846 38.32 445.171 35.6213 445.171 32.6C445.171 29.5787 445.846 26.88 447.195 24.504C448.574 22.0987 450.451 20.236 452.827 18.916C455.232 17.5667 457.902 16.892 460.835 16.892C464.296 16.892 467.303 17.7427 469.855 19.444C472.407 21.116 474.167 23.4773 475.135 26.528H468.051ZM506.708 48H500.548L486.6 26.924V48H480.44V17.244H486.6L500.548 38.364V17.244H506.708V48Z" fill="white"/>
<path d="M6.78719 21.4434L32 6.88675L57.2128 21.4434V50.5566L32 65.1133L6.78719 50.5566V21.4434Z" stroke="white" stroke-width="5"/>
<path d="M16.7465 27.1934L32 18.3868L47.2535 27.1934V44.8066L32 53.6133L16.7465 44.8066V27.1934Z" stroke="white" stroke-width="5"/>
<path d="M26.3116 32.7156L31.9995 29.4317L37.6873 32.7156V39.2834L31.9995 42.5673L26.3116 39.2834V32.7156Z" fill="white" stroke="white" stroke-width="5"/>
</svg>
