<svg width="548" height="68" viewBox="0 0 548 68" fill="none" xmlns="http://www.w3.org/2000/svg">
<path d="M172.508 17.288L163.928 48H156.668L150.904 26.132L144.876 48L137.66 48.044L129.388 17.288H135.988L141.4 41.136L147.648 17.288H154.512L160.408 41.004L165.864 17.288H172.508ZM182.69 22.26V29.96H193.03V34.844H182.69V42.984H194.35V48H176.53V17.244H194.35V22.26H182.69ZM217.372 32.248C219.103 32.5707 220.525 33.436 221.64 34.844C222.755 36.252 223.312 37.8653 223.312 39.684C223.312 41.3267 222.901 42.7787 222.08 44.04C221.288 45.272 220.129 46.24 218.604 46.944C217.079 47.648 215.275 48 213.192 48H199.948V17.288H212.62C214.703 17.288 216.492 17.6253 217.988 18.3C219.513 18.9747 220.657 19.9133 221.42 21.116C222.212 22.3187 222.608 23.6827 222.608 25.208C222.608 26.9973 222.124 28.4933 221.156 29.696C220.217 30.8987 218.956 31.7493 217.372 32.248ZM206.108 29.96H211.74C213.207 29.96 214.336 29.6373 215.128 28.992C215.92 28.3173 216.316 27.364 216.316 26.132C216.316 24.9 215.92 23.9467 215.128 23.272C214.336 22.5973 213.207 22.26 211.74 22.26H206.108V29.96ZM212.312 42.984C213.808 42.984 214.967 42.632 215.788 41.928C216.639 41.224 217.064 40.2267 217.064 38.936C217.064 37.616 216.624 36.5893 215.744 35.856C214.864 35.0933 213.676 34.712 212.18 34.712H206.108V42.984H212.312ZM249.442 17.288C252.669 17.288 255.499 17.9187 257.934 19.18C260.398 20.4413 262.29 22.2453 263.61 24.592C264.959 26.9093 265.634 29.608 265.634 32.688C265.634 35.768 264.959 38.4667 263.61 40.784C262.29 43.072 260.398 44.8467 257.934 46.108C255.499 47.3693 252.669 48 249.442 48H238.706V17.288H249.442ZM249.222 42.764C252.449 42.764 254.942 41.884 256.702 40.124C258.462 38.364 259.342 35.8853 259.342 32.688C259.342 29.4907 258.462 26.9973 256.702 25.208C254.942 23.3893 252.449 22.48 249.222 22.48H244.866V42.764H249.222ZM276.405 22.26V29.96H286.745V34.844H276.405V42.984H288.065V48H270.245V17.244H288.065V22.26H276.405ZM321.251 17.288L309.987 48H302.507L291.243 17.288H297.843L306.291 41.708L314.695 17.288H321.251ZM331.104 22.26V29.96H341.444V34.844H331.104V42.984H342.764V48H324.944V17.244H342.764V22.26H331.104ZM354.522 43.116H364.642V48H348.362V17.288H354.522V43.116ZM382.813 48.308C379.939 48.308 377.299 47.6333 374.893 46.284C372.488 44.9347 370.581 43.072 369.173 40.696C367.765 38.2907 367.061 35.5773 367.061 32.556C367.061 29.564 367.765 26.88 369.173 24.504C370.581 22.0987 372.488 20.2213 374.893 18.872C377.299 17.5227 379.939 16.848 382.813 16.848C385.717 16.848 388.357 17.5227 390.733 18.872C393.139 20.2213 395.031 22.0987 396.409 24.504C397.817 26.88 398.521 29.564 398.521 32.556C398.521 35.5773 397.817 38.2907 396.409 40.696C395.031 43.072 393.139 44.9347 390.733 46.284C388.328 47.6333 385.688 48.308 382.813 48.308ZM382.813 42.808C384.661 42.808 386.289 42.3973 387.697 41.576C389.105 40.7253 390.205 39.5227 390.997 37.968C391.789 36.4133 392.185 34.6093 392.185 32.556C392.185 30.5027 391.789 28.7133 390.997 27.188C390.205 25.6333 389.105 24.4453 387.697 23.624C386.289 22.8027 384.661 22.392 382.813 22.392C380.965 22.392 379.323 22.8027 377.885 23.624C376.477 24.4453 375.377 25.6333 374.585 27.188C373.793 28.7133 373.397 30.5027 373.397 32.556C373.397 34.6093 373.793 36.4133 374.585 37.968C375.377 39.5227 376.477 40.7253 377.885 41.576C379.323 42.3973 380.965 42.808 382.813 42.808ZM425.5 26.792C425.5 28.4347 425.104 29.9747 424.312 31.412C423.55 32.8493 422.332 34.008 420.66 34.888C419.018 35.768 416.935 36.208 414.412 36.208H409.264V48H403.104V17.288H414.412C416.788 17.288 418.812 17.6987 420.484 18.52C422.156 19.3413 423.403 20.4707 424.224 21.908C425.075 23.3453 425.5 24.9733 425.5 26.792ZM414.148 31.236C415.85 31.236 417.111 30.8547 417.932 30.092C418.754 29.3 419.164 28.2 419.164 26.792C419.164 23.8 417.492 22.304 414.148 22.304H409.264V31.236H414.148ZM463.358 17.288V48H457.198V28.024L448.97 48H444.306L436.034 28.024V48H429.874V17.288H436.87L446.638 40.124L456.406 17.288H463.358ZM475.608 22.26V29.96H485.948V34.844H475.608V42.984H487.268V48H469.448V17.244H487.268V22.26H475.608ZM519.134 48H512.974L499.026 26.924V48H492.866V17.244H499.026L512.974 38.364V17.244H519.134V48ZM546.122 17.288V22.26H537.938V48H531.778V22.26H523.594V17.288H546.122Z" fill="white"/>
<path d="M6.78719 21.4434L32 6.88675L57.2128 21.4434V50.5566L32 65.1133L6.78719 50.5566V21.4434Z" stroke="white" stroke-width="5"/>
<path d="M16.7465 27.1934L32 18.3868L47.2535 27.1934V44.8066L32 53.6133L16.7465 44.8066V27.1934Z" stroke="white" stroke-width="5"/>
<path d="M26.3116 32.7156L31.9995 29.4317L37.6873 32.7156V39.2834L31.9995 42.5673L26.3116 39.2834V32.7156Z" fill="white" stroke="white" stroke-width="5"/>
</svg>
