<svg width="541" height="68" viewBox="0 0 541 68" fill="none" xmlns="http://www.w3.org/2000/svg">
<path d="M164.856 17.288V48H158.696V28.024L150.468 48H145.804L137.532 28.024V48H131.372V17.288H138.368L148.136 40.124L157.904 17.288H164.856ZM185.202 48.308C182.327 48.308 179.687 47.6333 177.282 46.284C174.877 44.9347 172.97 43.072 171.562 40.696C170.154 38.2907 169.45 35.5773 169.45 32.556C169.45 29.564 170.154 26.88 171.562 24.504C172.97 22.0987 174.877 20.2213 177.282 18.872C179.687 17.5227 182.327 16.848 185.202 16.848C188.106 16.848 190.746 17.5227 193.122 18.872C195.527 20.2213 197.419 22.0987 198.798 24.504C200.206 26.88 200.91 29.564 200.91 32.556C200.91 35.5773 200.206 38.2907 198.798 40.696C197.419 43.072 195.527 44.9347 193.122 46.284C190.717 47.6333 188.077 48.308 185.202 48.308ZM185.202 42.808C187.05 42.808 188.678 42.3973 190.086 41.576C191.494 40.7253 192.594 39.5227 193.386 37.968C194.178 36.4133 194.574 34.6093 194.574 32.556C194.574 30.5027 194.178 28.7133 193.386 27.188C192.594 25.6333 191.494 24.4453 190.086 23.624C188.678 22.8027 187.05 22.392 185.202 22.392C183.354 22.392 181.711 22.8027 180.274 23.624C178.866 24.4453 177.766 25.6333 176.974 27.188C176.182 28.7133 175.786 30.5027 175.786 32.556C175.786 34.6093 176.182 36.4133 176.974 37.968C177.766 39.5227 178.866 40.7253 180.274 41.576C181.711 42.3973 183.354 42.808 185.202 42.808ZM222.917 32.248C224.648 32.5707 226.07 33.436 227.185 34.844C228.3 36.252 228.857 37.8653 228.857 39.684C228.857 41.3267 228.446 42.7787 227.625 44.04C226.833 45.272 225.674 46.24 224.149 46.944C222.624 47.648 220.82 48 218.737 48H205.493V17.288H218.165C220.248 17.288 222.037 17.6253 223.533 18.3C225.058 18.9747 226.202 19.9133 226.965 21.116C227.757 22.3187 228.153 23.6827 228.153 25.208C228.153 26.9973 227.669 28.4933 226.701 29.696C225.762 30.8987 224.501 31.7493 222.917 32.248ZM211.653 29.96H217.285C218.752 29.96 219.881 29.6373 220.673 28.992C221.465 28.3173 221.861 27.364 221.861 26.132C221.861 24.9 221.465 23.9467 220.673 23.272C219.881 22.5973 218.752 22.26 217.285 22.26H211.653V29.96ZM217.857 42.984C219.353 42.984 220.512 42.632 221.333 41.928C222.184 41.224 222.609 40.2267 222.609 38.936C222.609 37.616 222.169 36.5893 221.289 35.856C220.409 35.0933 219.221 34.712 217.725 34.712H211.653V42.984H217.857ZM239.926 17.288V48H233.766V17.288H239.926ZM252.173 43.116H262.293V48H246.013V17.288H252.173V43.116ZM272.368 22.26V29.96H282.708V34.844H272.368V42.984H284.028V48H266.208V17.244H284.028V22.26H272.368ZM310.714 48.308C308.573 48.308 306.637 47.9413 304.906 47.208C303.205 46.4747 301.856 45.4187 300.858 44.04C299.861 42.6613 299.348 41.0333 299.318 39.156H305.918C306.006 40.4173 306.446 41.4147 307.238 42.148C308.06 42.8813 309.174 43.248 310.582 43.248C312.02 43.248 313.149 42.9107 313.97 42.236C314.792 41.532 315.202 40.6227 315.202 39.508C315.202 38.5987 314.924 37.8507 314.366 37.264C313.809 36.6773 313.105 36.2227 312.254 35.9C311.433 35.548 310.289 35.1667 308.822 34.756C306.828 34.1693 305.2 33.5973 303.938 33.04C302.706 32.4533 301.636 31.588 300.726 30.444C299.846 29.2707 299.406 27.716 299.406 25.78C299.406 23.9613 299.861 22.3773 300.77 21.028C301.68 19.6787 302.956 18.652 304.598 17.948C306.241 17.2147 308.118 16.848 310.23 16.848C313.398 16.848 315.965 17.6253 317.93 19.18C319.925 20.7053 321.025 22.8467 321.23 25.604H314.454C314.396 24.548 313.941 23.6827 313.09 23.008C312.269 22.304 311.169 21.952 309.79 21.952C308.588 21.952 307.62 22.26 306.886 22.876C306.182 23.492 305.83 24.3867 305.83 25.56C305.83 26.3813 306.094 27.0707 306.622 27.628C307.18 28.156 307.854 28.596 308.646 28.948C309.468 29.2707 310.612 29.652 312.078 30.092C314.073 30.6787 315.701 31.2653 316.962 31.852C318.224 32.4387 319.309 33.3187 320.218 34.492C321.128 35.6653 321.582 37.2053 321.582 39.112C321.582 40.7547 321.157 42.28 320.306 43.688C319.456 45.096 318.209 46.2253 316.566 47.076C314.924 47.8973 312.973 48.308 310.714 48.308ZM341.179 48.308C338.304 48.308 335.664 47.6333 333.259 46.284C330.853 44.9347 328.947 43.072 327.539 40.696C326.131 38.2907 325.427 35.5773 325.427 32.556C325.427 29.564 326.131 26.88 327.539 24.504C328.947 22.0987 330.853 20.2213 333.259 18.872C335.664 17.5227 338.304 16.848 341.179 16.848C344.083 16.848 346.723 17.5227 349.099 18.872C351.504 20.2213 353.396 22.0987 354.775 24.504C356.183 26.88 356.887 29.564 356.887 32.556C356.887 35.5773 356.183 38.2907 354.775 40.696C353.396 43.072 351.504 44.9347 349.099 46.284C346.693 47.6333 344.053 48.308 341.179 48.308ZM341.179 42.808C343.027 42.808 344.655 42.3973 346.063 41.576C347.471 40.7253 348.571 39.5227 349.363 37.968C350.155 36.4133 350.551 34.6093 350.551 32.556C350.551 30.5027 350.155 28.7133 349.363 27.188C348.571 25.6333 347.471 24.4453 346.063 23.624C344.655 22.8027 343.027 22.392 341.179 22.392C339.331 22.392 337.688 22.8027 336.251 23.624C334.843 24.4453 333.743 25.6333 332.951 27.188C332.159 28.7133 331.763 30.5027 331.763 32.556C331.763 34.6093 332.159 36.4133 332.951 37.968C333.743 39.5227 334.843 40.7253 336.251 41.576C337.688 42.3973 339.331 42.808 341.179 42.808ZM367.63 43.116H377.75V48H361.47V17.288H367.63V43.116ZM387.737 17.288V36.296C387.737 38.3787 388.28 39.9773 389.365 41.092C390.45 42.1773 391.976 42.72 393.941 42.72C395.936 42.72 397.476 42.1773 398.561 41.092C399.646 39.9773 400.189 38.3787 400.189 36.296V17.288H406.393V36.252C406.393 38.8627 405.821 41.0773 404.677 42.896C403.562 44.6853 402.052 46.0347 400.145 46.944C398.268 47.8533 396.17 48.308 393.853 48.308C391.565 48.308 389.482 47.8533 387.605 46.944C385.757 46.0347 384.29 44.6853 383.205 42.896C382.12 41.0773 381.577 38.8627 381.577 36.252V17.288H387.737ZM433.245 17.288V22.26H425.061V48H418.901V22.26H410.717V17.288H433.245ZM443.899 17.288V48H437.739V17.288H443.899ZM464.241 48.308C461.367 48.308 458.727 47.6333 456.321 46.284C453.916 44.9347 452.009 43.072 450.601 40.696C449.193 38.2907 448.489 35.5773 448.489 32.556C448.489 29.564 449.193 26.88 450.601 24.504C452.009 22.0987 453.916 20.2213 456.321 18.872C458.727 17.5227 461.367 16.848 464.241 16.848C467.145 16.848 469.785 17.5227 472.161 18.872C474.567 20.2213 476.459 22.0987 477.837 24.504C479.245 26.88 479.949 29.564 479.949 32.556C479.949 35.5773 479.245 38.2907 477.837 40.696C476.459 43.072 474.567 44.9347 472.161 46.284C469.756 47.6333 467.116 48.308 464.241 48.308ZM464.241 42.808C466.089 42.808 467.717 42.3973 469.125 41.576C470.533 40.7253 471.633 39.5227 472.425 37.968C473.217 36.4133 473.613 34.6093 473.613 32.556C473.613 30.5027 473.217 28.7133 472.425 27.188C471.633 25.6333 470.533 24.4453 469.125 23.624C467.717 22.8027 466.089 22.392 464.241 22.392C462.393 22.392 460.751 22.8027 459.313 23.624C457.905 24.4453 456.805 25.6333 456.013 27.188C455.221 28.7133 454.825 30.5027 454.825 32.556C454.825 34.6093 455.221 36.4133 456.013 37.968C456.805 39.5227 457.905 40.7253 459.313 41.576C460.751 42.3973 462.393 42.808 464.241 42.808ZM510.8 48H504.64L490.692 26.924V48H484.532V17.244H490.692L504.64 38.364V17.244H510.8V48ZM527.492 48.308C525.35 48.308 523.414 47.9413 521.684 47.208C519.982 46.4747 518.633 45.4187 517.636 44.04C516.638 42.6613 516.125 41.0333 516.096 39.156H522.696C522.784 40.4173 523.224 41.4147 524.016 42.148C524.837 42.8813 525.952 43.248 527.36 43.248C528.797 43.248 529.926 42.9107 530.748 42.236C531.569 41.532 531.98 40.6227 531.98 39.508C531.98 38.5987 531.701 37.8507 531.144 37.264C530.586 36.6773 529.882 36.2227 529.032 35.9C528.21 35.548 527.066 35.1667 525.6 34.756C523.605 34.1693 521.977 33.5973 520.716 33.04C519.484 32.4533 518.413 31.588 517.504 30.444C516.624 29.2707 516.184 27.716 516.184 25.78C516.184 23.9613 516.638 22.3773 517.548 21.028C518.457 19.6787 519.733 18.652 521.376 17.948C523.018 17.2147 524.896 16.848 527.008 16.848C530.176 16.848 532.742 17.6253 534.708 19.18C536.702 20.7053 537.802 22.8467 538.008 25.604H531.232C531.173 24.548 530.718 23.6827 529.868 23.008C529.046 22.304 527.946 21.952 526.568 21.952C525.365 21.952 524.397 22.26 523.664 22.876C522.96 23.492 522.608 24.3867 522.608 25.56C522.608 26.3813 522.872 27.0707 523.4 27.628C523.957 28.156 524.632 28.596 525.424 28.948C526.245 29.2707 527.389 29.652 528.856 30.092C530.85 30.6787 532.478 31.2653 533.74 31.852C535.001 32.4387 536.086 33.3187 536.996 34.492C537.905 35.6653 538.36 37.2053 538.36 39.112C538.36 40.7547 537.934 42.28 537.084 43.688C536.233 45.096 534.986 46.2253 533.344 47.076C531.701 47.8973 529.75 48.308 527.492 48.308Z" fill="white"/>
<path d="M6.78719 21.4434L32 6.88675L57.2128 21.4434V50.5566L32 65.1133L6.78719 50.5566V21.4434Z" stroke="white" stroke-width="5"/>
<path d="M16.7465 27.1934L32 18.3868L47.2535 27.1934V44.8066L32 53.6133L16.7465 44.8066V27.1934Z" stroke="white" stroke-width="5"/>
<path d="M26.3116 32.7156L31.9995 29.4317L37.6873 32.7156V39.2834L31.9995 42.5673L26.3116 39.2834V32.7156Z" fill="white" stroke="white" stroke-width="5"/>
</svg>
