<svg width="82" height="82" viewBox="0 0 82 82" fill="none" xmlns="http://www.w3.org/2000/svg">
<path fill-rule="evenodd" clip-rule="evenodd" d="M41 0C18.3475 0 0 18.8116 0 42.037C0 60.6384 11.7362 76.3498 28.0337 81.9197C30.0837 82.2875 30.8525 81.0264 30.8525 79.9229C30.8525 78.9246 30.8013 75.6141 30.8013 72.0935C20.5 74.0378 17.835 69.5188 17.015 67.1542C16.5537 65.9456 14.555 62.2148 12.8125 61.2164C11.3775 60.4283 9.3275 58.484 12.7613 58.4315C15.99 58.379 18.2962 61.4792 19.065 62.7403C22.755 69.0984 28.6488 67.3118 31.0063 66.2084C31.365 63.4759 32.4412 61.6368 33.62 60.5859C24.4975 59.535 14.965 55.9093 14.965 39.8301C14.965 35.2586 16.5538 31.4752 19.1675 28.5326C18.7575 27.4817 17.3225 23.1729 19.5775 17.3928C19.5775 17.3928 23.0112 16.2894 30.8525 21.7016C34.1325 20.7558 37.6175 20.2829 41.1025 20.2829C44.5875 20.2829 48.0725 20.7558 51.3525 21.7016C59.1938 16.2368 62.6275 17.3928 62.6275 17.3928C64.8825 23.1729 63.4475 27.4817 63.0375 28.5326C65.6513 31.4752 67.24 35.206 67.24 39.8301C67.24 55.9618 57.6562 59.535 48.5338 60.5859C50.02 61.8996 51.3013 64.4218 51.3013 68.3628C51.3013 73.9852 51.25 78.5042 51.25 79.9229C51.25 81.0264 52.0187 82.3401 54.0688 81.9197C70.2637 76.3498 82 60.5859 82 42.037C82 18.8116 63.6525 0 41 0Z" fill="#1B1F23"/>
</svg>
