<svg width="90" height="98" viewBox="0 0 90 98" fill="none" xmlns="http://www.w3.org/2000/svg">
<path fill-rule="evenodd" clip-rule="evenodd" d="M87.9471 47.2227C87.9471 66.6388 68.5611 82.3789 44.6472 82.3789C20.7337 82.3789 1.34766 66.6388 1.34766 47.2227C1.34766 27.8061 20.7337 12.0658 44.6472 12.0658C68.5611 12.0658 87.9471 27.8061 87.9471 47.2227Z" fill="#D33833"/>
<path d="M3.11037 55.9297C3.11037 55.9297 -0.0242346 19.2675 42.5336 18.2199L39.5647 14.2918L16.4715 20.4459L9.87328 26.4689L4.10008 35.2419L0.800781 45.455L1.79049 52.2636" fill="#EF3D3A"/>
<path d="M14.9884 23.2405C7.39132 29.4108 2.6902 37.9301 2.6902 47.3548C2.6902 56.7775 7.39132 65.2979 14.9884 71.467C22.589 77.6361 33.0639 81.4428 44.6443 81.4428C56.2251 81.4428 66.7007 77.6361 74.3007 71.467C81.8972 65.2979 86.5993 56.7775 86.5993 47.3548C86.5993 37.9301 81.8972 29.4108 74.3007 23.2405C66.7007 17.0726 56.2251 13.2659 44.6443 13.2651C33.0639 13.2659 22.589 17.0726 14.9884 23.2405ZM13.0653 72.9594C4.99147 66.405 0 57.3467 0 47.3548C0 37.3613 4.99147 28.3039 13.0653 21.749C21.1373 15.193 32.311 11.1294 44.6443 11.1306C56.9777 11.1294 68.1526 15.193 76.2232 21.749C84.2978 28.3039 89.2899 37.3621 89.2889 47.3548C89.2899 57.3467 84.2978 66.405 76.2232 72.9594C68.1526 79.515 56.9777 83.5781 44.6443 83.5781C32.311 83.5781 21.1373 79.515 13.0653 72.9594Z" fill="#231F20"/>
<path fill-rule="evenodd" clip-rule="evenodd" d="M62.8726 47.419L56.2742 48.2047L47.3667 48.9903L41.5931 49.1211L35.985 48.9903L31.696 47.9427L27.902 44.6694L24.9329 37.9916L24.2732 36.5512L20.3143 35.5039L18.0049 32.4923L16.3555 28.1713L18.1702 24.374L22.4586 23.1956L25.9226 24.5052L27.5725 27.3857L29.5519 27.1237L30.2114 26.4693L29.5519 23.4576L29.3866 19.6603L30.3763 14.423L30.3377 11.4313L33.3455 7.6144L38.624 4.60272L47.8616 1.46024L58.0884 2.63867L66.9958 7.7452L71.1199 12.9825L73.759 16.7798L74.4186 26.2073L72.4392 34.3255L68.8104 41.5269L65.3464 45.3242" fill="#F0D6B7"/>
<path fill-rule="evenodd" clip-rule="evenodd" d="M57.2627 70.0705L33.6742 70.8561V73.9986L35.6536 84.9972L34.6639 85.9141L18.1689 81.462L17.0139 79.8907L15.3645 65.0951L11.5711 56.1913L10.7461 54.0964L23.9419 46.895L28.0661 45.5854L31.6947 49.1207L34.8288 51.3468L38.458 52.2632L40.1073 52.656L42.0867 59.4646L43.5713 60.9049L47.3655 59.8574L44.7259 63.9167L59.0768 69.2848L57.2627 70.0705Z" fill="#335061"/>
<path fill-rule="evenodd" clip-rule="evenodd" d="M18.168 24.375L22.4564 23.1966L25.9204 24.5062L27.5702 27.3867L29.5496 27.1247L30.0445 25.5535L29.0548 22.5422L30.0445 15.3404L29.2195 11.4123L32.1886 8.66263L38.6217 4.60372L36.8072 2.63967L27.7349 6.17496L23.9409 8.53183L21.7966 12.1979L18.4975 15.7332L17.5078 19.9233L18.168 24.375Z" fill="#6D6B6D"/>
<path fill-rule="evenodd" clip-rule="evenodd" d="M24.9342 12.0661C24.9342 12.0661 27.4085 7.22159 37.3056 4.86473C47.2027 2.50787 37.8005 3.16229 37.8005 3.16229L27.0789 6.43597L22.9548 9.70926L21.1406 12.3281L24.9342 12.0661Z" fill="#DCD9D8"/>
<path fill-rule="evenodd" clip-rule="evenodd" d="M19.9821 23.4586C19.9821 23.4586 16.5181 14.2927 29.7143 12.9835L29.2195 11.4123L20.1474 13.1147L17.5078 19.9233L18.168 24.375L19.9821 23.4586Z" fill="#DCD9D8"/>
<path fill-rule="evenodd" clip-rule="evenodd" d="M25.2617 35.6357L27.4215 33.9745C27.4215 33.9745 28.3963 34.0644 28.561 34.9808C28.7257 35.8977 29.2206 44.1467 36.3134 48.5988C36.9604 49.005 31.0353 47.9436 31.0353 47.9436L25.7566 41.397" fill="#F7E4CD"/>
<path fill-rule="evenodd" clip-rule="evenodd" d="M55.6136 33.1445C55.6136 33.1445 55.9981 29.1756 57.3447 29.4808C58.6912 29.786 58.6912 30.8548 58.6912 30.8548C58.6912 30.8548 55.4211 32.5341 55.6136 33.1445Z" fill="#F7E4CD"/>
<path d="M69.3033 18.6118C69.3033 18.6118 66.5846 19.0675 66.3342 20.9687C66.0838 22.8703 69.3033 21.3615 69.7982 21.2307" fill="#F7E4CD"/>
<path d="M49.3441 18.7447C49.3441 18.7447 45.7148 19.1376 45.7148 20.9704C45.7148 22.8037 49.8391 22.6728 50.9936 21.8872" fill="#F7E4CD"/>
<path fill-rule="evenodd" clip-rule="evenodd" d="M26.9091 27.2532C26.9091 27.2532 20.6406 24.2415 19.9811 27.1224C19.3213 30.0028 17.8364 32.0981 20.9708 35.1094L18.8265 34.5858L16.847 30.5269L16.1875 26.5987L19.9811 23.4559L24.2699 23.7179L26.7442 25.2891L26.9091 27.2532Z" fill="#F7E4CD"/>
<path fill-rule="evenodd" clip-rule="evenodd" d="M29.8825 19.0039C29.8825 19.0039 32.6867 7.4816 46.8729 5.25555C58.5521 3.42309 64.6873 5.64835 66.9968 7.74321C66.9968 7.74321 56.6048 -2.07665 46.7076 0.934631C36.8105 3.94631 29.5529 9.44565 29.7176 12.9806C29.9985 19.0015 29.8825 19.0039 29.8825 19.0039Z" fill="#F7E4CD"/>
<path fill-rule="evenodd" clip-rule="evenodd" d="M68.1517 9.05409C68.1517 9.05409 63.3684 8.92328 63.2031 12.3278C63.2031 12.3278 63.2026 12.8514 63.5327 13.375C63.5327 13.375 67.3273 9.97051 69.6363 11.8038" fill="#F7E4CD"/>
<path fill-rule="evenodd" clip-rule="evenodd" d="M47.2021 13.7285C47.2021 13.7285 46.3786 8.50299 40.7661 11.541C37.1372 13.505 37.4674 16.2547 38.1269 16.7783C38.7866 17.3023 38.6073 18.357 39.1095 17.6331C39.6115 16.9091 39.4462 14.5523 41.2609 13.8978C43.0755 13.243 46.05 12.5116 47.2021 13.7285Z" fill="#F7E4CD"/>
<path fill-rule="evenodd" clip-rule="evenodd" d="M31.6947 49.1196L16.1895 54.6189C16.1895 54.6189 22.6226 74.9143 19.3233 81.1992L17.0139 80.5448L16.8491 72.8193L12.5608 58.1546L10.7461 54.0953L26.9111 45.4539L31.6947 49.1196Z" fill="#49728B"/>
<path fill-rule="evenodd" clip-rule="evenodd" d="M33.2928 60.3453L35.4926 62.4758V70.332H32.853C32.853 70.332 32.5234 64.8327 32.5234 64.1778C32.5234 63.5231 32.853 61.1662 32.853 61.1662" fill="#49728B"/>
<path fill-rule="evenodd" clip-rule="evenodd" d="M33.3447 71.5107L25.9219 71.7723L28.0666 72.9507L33.3447 73.6055" fill="#49728B"/>
<path fill-rule="evenodd" clip-rule="evenodd" d="M58.75 70.2035L64.8531 70.0726L66.3376 82.119L60.0693 82.7734L58.75 70.2035Z" fill="#335061"/>
<path fill-rule="evenodd" clip-rule="evenodd" d="M60.3945 70.2031L69.632 69.8103C69.632 69.8103 73.4256 62.216 73.4256 61.8232C73.4256 61.4304 76.7248 50.8246 76.7248 50.8246L69.3019 44.6708L67.8174 43.6232L63.8585 46.7657V58.9428L60.3945 70.2031Z" fill="#335061"/>
<path fill-rule="evenodd" clip-rule="evenodd" d="M64.523 69.2837L58.75 70.2002L59.5744 73.8667C61.7186 74.6523 65.3479 72.5571 65.3479 72.5571" fill="#49728B"/>
<path fill-rule="evenodd" clip-rule="evenodd" d="M64.6875 46.3711L76.234 53.1797L76.564 50.0372L67.8214 43.6214L64.6875 46.3711Z" fill="#49728B"/>
<path fill-rule="evenodd" clip-rule="evenodd" d="M39.0703 95.9993L35.6552 84.999L33.9567 76.8825L33.6758 70.8579L49.1325 70.2047L58.7489 70.2034L57.8744 83.9531L59.359 94.5589L59.1942 96.523L46.6582 97.3086L39.0703 95.9993Z" fill="white"/>
<path fill-rule="evenodd" clip-rule="evenodd" d="M56.6038 70.0703C56.6038 70.0703 55.7794 83.688 58.2537 93.377C58.2537 93.377 53.3051 95.8651 46.0469 96.5195L59.903 96.1267L61.5524 95.3411L59.573 73.8677L59.0781 69.2844" fill="#DCD9D8"/>
<path fill-rule="evenodd" clip-rule="evenodd" d="M66.6172 81.0703L73.0503 79.63L85.2565 79.1063L87.0711 74.6546L83.7719 66.9291L79.9783 66.5363L74.6997 67.8456L69.6353 69.8084L66.9468 69.4169L64.8516 70.0704" fill="white"/>
<path fill-rule="evenodd" clip-rule="evenodd" d="M66.5 78.4495C66.5 78.4495 70.7884 76.8786 71.4486 77.0095L69.6344 69.8077L71.7786 69.1533C71.7786 69.1533 73.2632 75.9618 73.2632 76.7474C73.2632 76.7474 82.5002 77.1402 83.3251 77.1402C83.3251 77.1402 85.3045 74.1286 84.8097 70.9862L86.6243 75.1762L86.7891 77.533L84.15 80.6755L81.1809 81.1992L76.2323 81.0683L74.583 79.3664L68.8095 80.0208L66.9949 80.5448" fill="#DCD9D8"/>
<path d="M60.0166 69.1562L56.3878 61.8236L52.5938 57.5027C52.5938 57.5027 53.4182 55.6695 54.5732 55.6695C55.7282 55.6695 58.3672 55.6695 58.3672 55.6695L61.996 56.7171L61.6664 61.5617L60.0166 69.1562Z" fill="white"/>
<path fill-rule="evenodd" clip-rule="evenodd" d="M60.7251 66.6669C60.7251 66.6669 56.1061 59.5967 56.1061 58.5491C56.1061 58.5491 56.9305 56.9779 58.0855 57.3707C59.2405 57.7635 61.7148 58.8107 61.7148 58.8107V56.3231L56.1061 55.4062L52.3125 55.7991L58.7456 67.8454L60.0649 67.9766" fill="#DCD9D8"/>
<path d="M40.554 49.3848L35.9843 48.9904L31.6953 47.9428V49.1212L33.7909 50.9556L40.3889 53.3125" fill="white"/>
<path fill-rule="evenodd" clip-rule="evenodd" d="M33.1784 49.7769C33.1784 49.7769 38.2923 51.4794 39.9418 51.0866L40.1058 52.6562L35.488 51.8722L32.6836 50.301L33.1784 49.7769Z" fill="#DCD9D8"/>
<path fill-rule="evenodd" clip-rule="evenodd" d="M66.5993 56.1133C63.8004 56.0481 61.2717 55.7841 59.0577 55.2884C59.2081 54.568 58.9266 53.8609 59.1527 53.342C59.7698 52.9893 60.804 52.9948 61.7368 52.9119C60.9302 52.5972 59.797 52.4727 58.8662 52.6546C58.8444 52.1545 58.5618 51.8446 58.3906 51.4534C59.9643 51.0075 63.6792 48.0846 65.7689 49.0525C66.7646 49.5129 67.1877 52.1424 67.2649 53.421C67.3292 54.4815 67.1436 55.5516 66.5993 56.1133Z" fill="#D33833"/>
<path d="M66.5993 56.1133C63.8004 56.0481 61.2717 55.7841 59.0577 55.2884C59.2081 54.568 58.9266 53.8609 59.1527 53.342C59.7698 52.9893 60.804 52.9948 61.7368 52.9119C60.9302 52.5972 59.797 52.4727 58.8662 52.6546C58.8444 52.1545 58.5618 51.8446 58.3906 51.4534C59.9643 51.0075 63.6792 48.0846 65.7689 49.0525C66.7646 49.5129 67.1877 52.1424 67.2649 53.421C67.3292 54.4815 67.1436 55.5516 66.5993 56.1133Z" stroke="#D33833" stroke-width="2.5"/>
<path fill-rule="evenodd" clip-rule="evenodd" d="M53.2168 52.4819C53.2094 52.65 53.2005 52.8193 53.192 52.989C52.3181 53.4446 50.9073 53.4392 49.9483 53.8221C51.3621 53.8712 52.475 54.1415 53.438 54.5225C53.4167 54.946 53.3964 55.369 53.3756 55.7925C51.7738 56.6629 50.3105 57.9592 48.4245 58.7755C47.5328 59.1616 44.4032 60.1549 43.4545 59.9794C42.9177 59.8805 42.8693 59.3517 42.6548 58.8533C42.1976 57.786 41.1451 56.0871 41.0533 54.4805C40.9363 52.4512 40.6783 49.0503 43.4332 49.4682C45.6558 49.8049 48.2409 50.6176 49.9616 51.3639C51.0132 51.8204 51.6214 52.3845 53.2168 52.4819Z" fill="#D33833"/>
<path d="M53.2168 52.4819C53.2094 52.65 53.2005 52.8193 53.192 52.989C52.3181 53.4446 50.9073 53.4392 49.9483 53.8221C51.3621 53.8712 52.475 54.1415 53.438 54.5225C53.4167 54.946 53.3964 55.369 53.3756 55.7925C51.7738 56.6629 50.3105 57.9592 48.4245 58.7755C47.5328 59.1616 44.4032 60.1549 43.4545 59.9794C42.9177 59.8805 42.8693 59.3517 42.6548 58.8533C42.1976 57.786 41.1451 56.0871 41.0533 54.4805C40.9363 52.4512 40.6783 49.0503 43.4332 49.4682C45.6558 49.8049 48.2409 50.6176 49.9616 51.3639C51.0132 51.8204 51.6214 52.3845 53.2168 52.4819Z" stroke="#D33833" stroke-width="2.5"/>
<path fill-rule="evenodd" clip-rule="evenodd" d="M54.8052 54.9035C54.5607 53.7981 54.2781 53.4827 54.3875 52.5183C58.1014 50.5527 58.7986 55.8945 54.8052 54.9035Z" fill="#D33833"/>
<path d="M54.8052 54.9035C54.5607 53.7981 54.2781 53.4827 54.3875 52.5183C58.1014 50.5527 58.7986 55.8945 54.8052 54.9035Z" stroke="#D33833" stroke-width="2.5"/>
<path fill-rule="evenodd" clip-rule="evenodd" d="M60.1806 55.8008C60.1806 55.8008 59.0256 54.4912 59.8505 54.0983C60.6754 53.7055 61.5004 54.0987 61.9952 53.4439C62.4901 52.7891 61.9952 52.3963 62.16 51.6107C62.3248 50.8251 63.1502 50.6939 63.9746 50.563C64.7991 50.4322 67.1091 50.1702 67.4386 50.8251L66.4489 48.4682L64.4695 47.9446L58.2012 50.8251L57.8711 52.2655V55.146" fill="#EF3D3A"/>
<path fill-rule="evenodd" clip-rule="evenodd" d="M42.8673 60.1211C42.6691 58.0777 42.4594 56.037 42.2261 53.9956C41.877 50.9474 43.1485 51.4792 46.4772 51.4792C46.9856 51.4792 49.6076 51.9604 49.7951 52.2648C50.6948 53.7234 48.2908 53.3993 50.8314 54.4992C52.9761 55.4274 56.7647 53.9355 55.8982 51.872C55.4132 51.4132 53.3715 51.7291 52.6396 51.4278C51.351 50.8975 50.0624 50.3672 48.7736 49.8369C47.1341 49.1616 43.3447 48.1773 41.5967 49.1208C37.1675 51.5118 41.8762 57.4861 43.4562 59.9804" fill="#EF3D3A"/>
<path fill-rule="evenodd" clip-rule="evenodd" d="M47.2052 13.7322C42.7093 12.901 40.4753 15.2256 39.1126 17.6367C37.8957 17.4026 38.3799 16.089 38.6873 15.4197C39.492 13.6631 42.735 11.3246 45.3849 11.6416C46.5252 11.7779 48.0683 12.6056 47.2052 13.7322Z" fill="#231F20"/>
<path fill-rule="evenodd" clip-rule="evenodd" d="M69.111 17.7929C69.1818 17.7953 69.2535 17.7973 69.3243 17.7996C70.3402 19.475 71.2196 21.2497 72.5013 22.7286C71.6427 24.316 65.9998 25.7206 66.0869 22.8704C67.3073 22.447 69.4139 22.784 70.4956 22.2431C69.8701 20.8804 68.9675 19.7205 69.111 17.7929Z" fill="#231F20"/>
<path fill-rule="evenodd" clip-rule="evenodd" d="M49.5055 17.8378C50.4695 19.2405 50.7833 20.7143 52.1535 21.7745C52.7706 22.2518 53.9706 22.8335 53.3758 24.1609C53.2367 24.4739 52.2208 25.172 51.6344 25.309C49.4922 25.8111 44.5005 25.4127 46.1909 23.2927C47.9625 23.3583 50.3438 24.206 51.6681 23.1851C50.6511 21.8947 48.8382 19.3419 49.5055 17.8378Z" fill="#231F20"/>
<path fill-rule="evenodd" clip-rule="evenodd" d="M68.3038 32.0928C65.0784 33.7375 61.4818 35.526 56.1967 35.1112C55.0674 34.3318 54.6369 32.5976 55.734 31.4522C56.3051 32.2315 55.9463 33.6649 57.5378 33.8805C60.5366 34.2879 64.0268 32.4244 66.1839 31.7731C67.5215 29.983 66.0686 29.3247 64.8636 28.1726C62.3967 25.8122 59.0876 22.8865 59.2079 19.3528C60.205 18.7789 60.2911 20.2288 60.4341 20.4927C61.7223 22.8857 64.9641 25.9461 67.33 27.9942C67.9109 28.4986 68.8675 28.9826 68.9739 29.316C69.2807 30.2859 68.1757 31.4478 68.3038 32.0928Z" fill="#231F20"/>
<path fill-rule="evenodd" clip-rule="evenodd" d="M25.7823 30.3646C24.7713 29.9066 24.5307 27.8891 23.3438 27.8317C21.6475 27.75 21.9568 30.449 21.9636 32.0273C20.796 31.1859 20.5907 28.5954 21.4485 27.2649C20.4709 26.8839 20.0344 27.6852 19.4922 27.9676C20.189 23.9492 26.8977 26.1038 25.7823 30.3646Z" fill="#231F20"/>
<path fill-rule="evenodd" clip-rule="evenodd" d="M70.3631 33.766C68.8617 36.0345 66.7378 38.5328 62.3321 38.6055C62.2425 37.8729 62.1737 36.7581 62.337 36.317C65.705 36.0601 67.7844 34.6994 70.3631 33.766Z" fill="#231F20"/>
<path fill-rule="evenodd" clip-rule="evenodd" d="M49.25 35.2365C52.06 36.4094 57.2243 36.5355 61.0436 36.4467C61.2485 37.111 61.2435 37.9315 61.2514 38.7415C56.342 38.9359 50.5373 37.9716 49.25 35.2365Z" fill="#231F20"/>
<path fill-rule="evenodd" clip-rule="evenodd" d="M48.7166 37.4239C50.6598 41.2966 57.3383 40.8508 62.9703 40.7439C62.7224 41.2467 62.185 41.8406 61.5169 42.0555C59.7122 42.6384 54.7344 43.0808 52.229 42.0245C50.64 41.354 49.6191 39.8389 48.7485 38.9507C48.3281 38.5218 46.2346 37.4262 48.7166 37.4239Z" fill="#231F20"/>
<path fill-rule="evenodd" clip-rule="evenodd" d="M68.0737 58.7899C65.7935 61.89 63.6116 65.0741 60.9062 67.8086C62.0405 65.1614 62.5259 60.7308 62.6971 57.3531C65.07 56.4716 67.1019 57.5515 68.0737 58.7899Z" fill="#81B0C4"/>
<path fill-rule="evenodd" clip-rule="evenodd" d="M80.3413 69.9289C77.7884 70.3346 75.9945 72.3042 73.5039 72.1778C74.8727 70.6461 77.2712 70.0004 80.3413 69.9289Z" fill="#231F20"/>
<path fill-rule="evenodd" clip-rule="evenodd" d="M81.4676 73.1031C79.3867 73.2776 76.9426 73.545 74.832 73.4072C75.8311 72.1958 79.6806 72.6138 81.4676 73.1031Z" fill="#231F20"/>
<path fill-rule="evenodd" clip-rule="evenodd" d="M82.191 75.8364C79.8523 75.8766 76.9456 75.8396 74.7227 75.6916C76.0375 74.5705 80.6743 75.2756 82.191 75.8364Z" fill="#231F20"/>
<path fill-rule="evenodd" clip-rule="evenodd" d="M63.6725 83.317C64.008 85.6484 65.1724 88.0106 65.0264 90.5639C63.7334 90.91 62.9906 91.2128 61.2581 91.2109C61.1359 89.041 60.7702 85.7237 60.8795 83.6552C61.7317 83.7 62.9881 83.172 63.6725 83.317Z" fill="#DCD9D8"/>
<path fill-rule="evenodd" clip-rule="evenodd" d="M59.8999 48.9581C58.7256 49.5666 57.7255 50.3263 56.5977 50.976C54.0967 51.0742 52.7319 50.8385 50.8945 49.6986C50.9247 49.607 51.1093 49.6479 51.1162 49.5355C53.7934 50.4826 57.1965 49.1498 59.8999 48.9581Z" fill="#F0D6B7"/>
<path fill-rule="evenodd" clip-rule="evenodd" d="M45.8438 63.4436C46.5793 60.9136 49.4614 59.6032 52.0787 58.2099C54.7801 60.9314 56.423 64.4312 58.2322 67.8086C53.9577 66.7858 49.5901 65.1261 45.8438 63.4436Z" fill="#81B0C4"/>
<path fill-rule="evenodd" clip-rule="evenodd" d="M60.8733 83.6561C60.7639 85.7246 61.1296 89.0419 61.2518 91.2118C62.9843 91.2137 63.7271 90.9109 65.0202 90.5648C65.1661 88.0115 64.0017 85.6493 63.6662 83.3179C62.9818 83.1729 61.7254 83.7009 60.8733 83.6561ZM33.8966 71.8919C35.039 80.2285 36.6937 87.2365 39.7285 94.6187C46.4642 96.2421 54.5841 96.3836 60.5378 94.9187C59.4446 90.7521 59.9221 85.6795 59.2833 81.2332C58.8018 77.8913 59.0472 74.5287 58.3871 71.1191C51.1731 69.9278 40.9763 70.8406 33.8966 71.8919ZM60.0929 71.1715C60.032 74.7519 60.2948 78.2836 60.6392 81.8685C62.3712 81.6621 63.5465 81.5243 65.1557 81.2443C64.6332 77.7931 64.6975 73.9096 63.6331 70.8567C62.4029 70.8661 61.3196 70.8454 60.0929 71.1715ZM68.879 70.5943C68.0571 70.4448 67.1 70.5885 66.3147 70.6006C66.6839 73.5193 67.5796 76.7399 67.8948 79.8035C69.1304 79.834 69.7906 79.3714 70.807 79.2158C70.8614 76.5266 70.5111 72.8216 68.879 70.5943ZM82.1828 80.2429C84.7585 79.7464 86.3782 77.2422 85.6576 74.6705C85.1742 72.9422 84.3131 69.6877 83.3917 68.582C82.7108 67.7641 80.8645 66.6934 79.3903 67.4428C76.9922 68.6618 72.7676 69.0156 71.0188 70.4911C71.8957 72.8087 72.1679 75.992 72.5296 78.9285C75.5255 79.0768 79.2116 78.2741 81.7032 79.1259C79.9638 79.5731 77.7068 79.5767 76.2039 80.2285C77.4321 80.6994 80.3077 80.6043 82.1828 80.2429ZM58.2302 67.8089C56.421 64.4315 54.7781 60.9317 52.0767 58.2102C49.4595 59.6035 46.5773 60.9139 45.8418 63.444C49.5881 65.1265 53.9557 66.7861 58.2302 67.8089ZM62.6899 57.3504C62.5187 60.7281 62.0332 65.1587 60.899 67.8059C63.6044 65.0714 65.7862 61.8873 68.0665 58.7872C67.0946 57.5487 65.0627 56.4689 62.6899 57.3504ZM57.6344 55.9245C56.6096 55.8369 55.7396 56.8597 54.407 56.4174C54.1017 56.6853 53.824 56.9756 53.5128 57.2372C56.4562 60.0529 57.7938 64.0478 60.0671 67.3567C61.287 64.1782 61.1464 60.6958 61.4151 57.2266C59.7391 57.3111 58.8092 56.0234 57.6344 55.9245ZM54.3837 52.5188C54.2744 53.4831 54.5569 53.7986 54.8014 54.9039C58.7949 55.895 58.0976 50.5532 54.3837 52.5188ZM49.9552 51.3647C48.2345 50.6184 45.6495 49.8056 43.4269 49.469C40.6719 49.0507 40.93 52.452 41.0469 54.4813C41.1387 56.0879 42.1913 57.7868 42.6484 58.8541C42.863 59.3525 42.9113 59.8812 43.4481 59.9802C44.3968 60.1557 47.5264 59.1623 48.4181 58.7763C50.3041 57.96 51.7674 56.6637 53.3693 55.7933C53.39 55.3698 53.4103 54.9467 53.4316 54.5233C52.4686 54.1423 51.3557 53.872 49.9419 53.8229C50.9009 53.4399 52.3118 53.4454 53.1857 52.9898C53.1941 52.8201 53.203 52.6508 53.2104 52.4827C51.615 52.3852 51.0068 51.8212 49.9552 51.3647ZM33.5193 48.9949C32.0911 50.1458 37.5249 51.7147 39.255 51.7992C39.2453 51.0709 39.7778 50.3843 39.6706 49.8618C37.6158 49.5755 34.9153 49.7644 33.5193 48.9949ZM51.1122 49.5354C51.1053 49.6477 50.9207 49.6069 50.8905 49.6984C52.7279 50.8383 54.0927 51.074 56.5937 50.9758C57.7215 50.3261 58.7216 49.5664 59.8959 48.958C57.1925 49.1497 53.7894 50.4825 51.1122 49.5354ZM67.2604 53.4223C67.1832 52.1437 66.7601 49.5142 65.7644 49.0538C63.6746 48.0855 59.9598 51.0088 58.3861 51.4547C58.5573 51.8459 58.8399 52.1558 58.8617 52.6559C59.7925 52.474 60.9257 52.5985 61.7323 52.9132C60.7995 52.9961 59.7653 52.9906 59.1482 53.3433C58.922 53.8622 59.2036 54.5693 59.0532 55.2897C61.2672 55.7854 63.7959 56.0494 66.5948 56.1146C67.1391 55.5529 67.3247 54.4828 67.2604 53.4223ZM31.115 50.1081C30.6665 49.8544 27.6326 46.7209 27.217 46.8509C21.7272 48.5695 16.594 51.5411 12.007 54.3516C16.3804 61.8009 18.1459 70.9275 18.4578 79.724C23.4679 81.584 27.8684 84.2654 34.6669 84.5454C33.8802 80.1271 33.1621 76.1851 32.7155 72.0254C31.0073 71.4538 28.5566 72.0513 26.958 71.8481C26.9444 70.3189 29.3994 71.1785 29.6039 70.1502C29.758 69.3724 28.2531 69.3134 28.7431 68.0886C29.9928 68.4492 30.6491 69.2458 31.9819 69.5448C33.1998 67.4299 31.9649 63.688 32.1404 61.9203C32.1737 61.5884 32.3492 60.0816 33.2858 60.346C34.1147 60.58 33.2384 64.3534 33.3293 66.0264C33.412 67.5677 33.0948 69.0592 33.8811 70.0268C40.4505 69.317 47.1263 68.8582 54.2343 68.7034C52.6705 68.1707 50.8128 67.6667 48.7761 66.7554C47.672 66.2613 44.1916 65.2333 43.873 64.4008C43.3646 63.0743 45.2068 62.3678 45.5218 61.2306C42.2058 62.6662 41.5588 59.8545 40.7743 57.8626C40.0636 56.0584 39.659 54.7107 39.4846 53.6701C36.628 52.5891 33.5738 51.4943 31.115 50.1081ZM64.359 47.23C68.933 45.4694 69.7574 53.81 67.9646 56.4968C68.2417 57.2981 69.1948 57.6049 69.5837 58.3253C67.0312 61.9548 64.1962 65.3428 61.5918 68.9297C63.5292 67.9723 66.2964 68.7584 68.5762 68.0419C69.4095 67.7803 70.0128 66.2659 70.6437 65.0545C72.3792 61.7216 74.2012 57.5197 75.0118 54.3391C75.1949 53.6143 75.6937 52.0352 75.5819 51.3902C75.3824 50.2354 73.4085 49.3791 72.4044 48.6649C70.5546 47.3459 69.3897 46.1851 67.4603 44.9517C66.6779 45.8685 64.9989 46.4844 64.359 47.23ZM20.6544 15.0321C18.4749 16.9357 18.9311 20.5024 19.1949 23.0399C23.1344 21.0728 28.3633 23.1955 28.314 26.5415C30.1948 26.5018 29.0166 24.6768 28.6764 23.5011C27.5646 19.661 30.5496 15.489 28.8118 11.9772C25.4376 12.1803 22.6657 13.2743 20.6544 15.0321ZM36.2491 3.98394C31.3151 5.09402 24.9915 7.93993 22.964 11.4583C24.5339 11.2772 25.6238 10.6488 27.1726 10.571C27.7579 10.5407 28.5247 10.7658 29.1974 10.633C30.538 10.3691 31.6694 7.98313 32.6807 7.09538C33.6666 6.22845 34.8515 5.85803 35.6624 5.0677C36.1834 4.86816 36.9537 4.8819 36.9833 4.26087C36.7575 4.06918 36.5197 3.92305 36.2491 3.98394ZM61.9337 5.02802C56.8125 2.73441 48.144 1.00918 42.6964 3.16492C38.3006 4.90468 32.3589 7.7832 30.3331 11.4308C32.2255 14.9508 29.7725 18.1762 29.6159 21.75C29.5328 23.6516 30.7438 25.3116 30.8366 27.3817C30.1891 28.2298 28.2106 28.3342 26.841 28.2761C26.38 26.4448 25.5729 24.3865 23.1973 24.1799C19.8357 23.888 17.3779 26.0964 17.2252 28.4042C17.0444 31.1181 19.8512 35.6162 23.8294 35.3039C25.3661 35.1833 25.7437 33.9605 27.4181 33.973C28.3256 35.4103 26.0182 35.8617 25.7808 36.8896C25.7189 37.1552 25.9721 38.193 26.1194 38.6797C26.842 41.0495 28.4528 44.1166 30.0383 45.9208C32.0506 48.2093 36.004 48.5542 40.2573 48.7785C41.0169 47.4794 43.8154 47.5863 45.6388 47.9261C43.4535 47.239 41.4219 45.5735 39.7382 44.0993C37.8042 42.4079 35.8451 40.5935 35.7461 38.3827C39.4009 42.4075 42.4203 45.9223 49.0661 47.6927C54.0947 49.0314 59.9677 47.0791 63.8315 44.9254C65.4348 44.0302 66.3919 42.6098 67.5316 41.3096C71.7957 36.4407 73.7855 29.4911 73.3481 22.7552C73.168 19.9772 73.1759 17.2087 72.0016 15.3397C70.7743 13.3855 66.6235 11.6371 64.1937 13.4047C63.7434 11.5043 66.2142 10.329 69.1166 11.0129C67.0471 8.89288 64.8752 6.3455 61.9337 5.02802ZM71.4751 67.7077C75.477 66.1284 82.9542 63.457 85.4632 67.7135C86.389 69.2824 87.4752 71.9347 87.9548 73.5543C88.6322 75.8391 87.2204 80.6417 84.2617 81.4085C81.6483 82.0856 78.599 82.0443 75.4512 81.5424C75.0806 81.2977 74.6679 80.8711 74.3794 80.4264C72.1317 80.3572 70.0271 80.5222 68.2516 81.2556C68.4198 82.5751 67.2955 82.7868 66.2415 83.0586C65.4601 85.5179 67.8047 88.7296 67.2435 90.9722C66.8432 92.5698 64.3669 92.8168 62.5469 93.1157C62.4875 94.0036 62.6265 94.7447 62.7507 95.4958C62.3346 96.713 60.468 97.406 58.6994 97.5757C52.8803 98.1311 44.045 98.3806 38.4479 96.783C36.886 93.7419 35.6556 90.0432 34.3547 86.5707C28.8959 87.0335 24.4808 84.701 20.3186 83.1729C18.8775 82.6426 16.884 82.3505 16.3457 81.4399C15.8237 80.5584 16.0373 78.8689 15.9078 77.2729C15.5782 73.1967 15.296 69.2651 13.94 65.0915C13.3311 63.2186 12.2698 61.566 11.5295 59.7614C10.8452 58.0888 9.64961 56.0219 9.3378 54.354C8.87545 51.882 11.8078 51.7446 13.6829 50.6734C16.5815 49.0169 18.8567 48.1008 21.9959 46.6058C22.9257 46.1631 25.7296 45.0424 26.0485 44.5263C26.6825 43.503 24.9602 42.0602 24.4997 41.2581C23.7714 39.9897 23.3915 38.9122 23.2872 37.6607C20.6538 37.3304 18.6575 36.0864 17.4517 34.6836C15.457 32.3621 14.0737 28.0671 15.7995 24.8001C15.9349 24.5428 16.6099 24.0369 16.7094 23.6417C16.9058 22.8636 16.3398 21.8289 16.3046 21.0013C16.1233 16.755 17.2097 13.0963 20.8109 11.8158C22.2729 7.1928 27.5054 5.65574 32.4352 3.35819C34.278 2.4995 36.3094 1.95074 38.4073 1.33797C45.9332 -0.860596 57.48 -0.446571 63.7261 3.30319C66.3746 4.8933 70.6081 8.25064 72.1223 10.6814C76.1218 17.0987 75.8377 27.8236 73.0403 35.6299C72.6642 36.6779 72.1189 38.2185 71.3573 39.4775C70.8263 40.3566 69.176 42.1156 69.3764 42.8918C69.5827 43.6943 73.1393 45.8379 73.9018 46.4216C75.2751 47.4731 77.8839 48.8688 78.0952 50.1957C78.3224 51.6079 77.3114 53.5397 76.7992 54.9024C75.087 59.4499 73.4164 63.6534 71.4751 67.7077Z" fill="#231F20"/>
<path fill-rule="evenodd" clip-rule="evenodd" d="M44.7761 36.2297C44.9932 36.0003 46.1869 35.6519 47.857 36.2902C47.857 36.2902 45.8776 36.5522 46.0423 39.1719L45.2174 39.0407C45.2174 39.0407 44.365 36.6654 44.7761 36.2297Z" fill="#F7E4CD"/>
<path fill-rule="evenodd" clip-rule="evenodd" d="M59.2443 58.7449C59.2443 59.1425 58.838 59.4648 58.3368 59.4648C57.836 59.4648 57.4297 59.1425 57.4297 58.7449C57.4297 58.3474 57.836 58.0245 58.3368 58.0245C58.838 58.0245 59.2443 58.3474 59.2443 58.7449Z" fill="#1D1919"/>
<path fill-rule="evenodd" clip-rule="evenodd" d="M60.1467 62.0847C60.1467 62.4823 59.7404 62.8047 59.2391 62.8047C58.7383 62.8047 58.332 62.4823 58.332 62.0847C58.332 61.6872 58.7383 61.3643 59.2391 61.3643C59.7404 61.3643 60.1467 61.6872 60.1467 62.0847Z" fill="#1D1919"/>
</svg>
