<svg width="34" height="34" viewBox="0 0 34 34" fill="none" xmlns="http://www.w3.org/2000/svg">
<path d="M10.1742 14.1632C10.8234 13.5136 11.6399 13.1354 12.4881 13.0227C13.2441 12.9246 14.026 13.0429 14.727 13.3779L15.8852 12.723C16.6382 12.2972 17.1777 11.5744 17.3717 10.7313C17.037 10.0267 16.9216 9.24722 17.0197 8.48788C17.1294 7.64196 17.5102 6.82191 18.1594 6.17227C18.9413 5.38981 19.9655 5 20.9926 5C22.0168 5 23.0439 5.38981 23.8257 6.17227C24.6076 6.95758 25 7.98257 25 9.01051C25 10.0355 24.6076 11.0633 23.8257 11.8458C23.1766 12.4954 22.3601 12.8737 21.5119 12.9863C20.7559 13.0845 19.974 12.9661 19.273 12.6311C18.4305 12.8253 17.7085 13.3647 17.2834 14.1175L16.6283 15.2778C16.8879 15.8234 17.0149 16.4124 17.0149 16.9985C17.0149 17.5876 16.885 18.1765 16.6283 18.7194L17.0014 19.4325C17.4798 20.3467 18.2941 21.0398 19.273 21.366C19.974 21.0311 20.7559 20.9156 21.5119 21.0138C22.3601 21.1235 23.1766 21.5047 23.8257 22.1543C24.6076 22.9368 25 23.9618 25 24.9896C25 26.0146 24.6076 27.0424 23.8257 27.8249C23.0439 28.6073 22.0168 29 20.9926 29C19.9655 29 18.9413 28.6073 18.1594 27.8249C17.5102 27.1752 17.1294 26.3581 17.0197 25.5093C16.9216 24.7528 17.037 23.9703 17.3717 23.2687C17.0457 22.2891 16.3526 21.4739 15.4381 20.9947L14.727 20.6221C14.026 20.957 13.2441 21.0725 12.4881 20.9743C11.6399 20.8646 10.8234 20.4835 10.1742 19.8368C9.39237 19.0514 9 18.0265 9 16.9985C9 15.9735 9.39237 14.9457 10.1742 14.1632Z" fill="black"/>
</svg>
