<svg width="34" height="34" viewBox="0 0 34 34" fill="none" xmlns="http://www.w3.org/2000/svg">
<path d="M23.8258 14.1632C23.1766 13.5136 22.3601 13.1354 21.5119 13.0227C20.7559 12.9246 19.974 13.0429 19.273 13.3779L18.1148 12.723C17.3618 12.2972 16.8223 11.5744 16.6283 10.7313C16.963 10.0267 17.0784 9.24722 16.9803 8.48788C16.8706 7.64196 16.4898 6.82191 15.8406 6.17227C15.0587 5.38981 14.0345 5 13.0074 5C11.9832 5 10.9561 5.38981 10.1743 6.17227C9.39237 6.95758 9 7.98257 9 9.01051C9 10.0355 9.39237 11.0633 10.1743 11.8458C10.8234 12.4954 11.6399 12.8737 12.4881 12.9863C13.2441 13.0845 14.026 12.9661 14.727 12.6311C15.5695 12.8253 16.2915 13.3647 16.7166 14.1175L17.3717 15.2778C17.1121 15.8234 16.9851 16.4124 16.9851 16.9985C16.9851 17.5876 17.115 18.1765 17.3717 18.7194L16.9986 19.4325C16.5202 20.3467 15.7059 21.0398 14.727 21.366C14.026 21.0311 13.2441 20.9156 12.4881 21.0138C11.6399 21.1235 10.8234 21.5047 10.1743 22.1543C9.39237 22.9368 9 23.9618 9 24.9896C9 26.0146 9.39237 27.0424 10.1743 27.8249C10.9561 28.6073 11.9832 29 13.0074 29C14.0345 29 15.0587 28.6073 15.8406 27.8249C16.4898 27.1752 16.8706 26.3581 16.9803 25.5093C17.0784 24.7528 16.963 23.9703 16.6283 23.2687C16.9543 22.2891 17.6474 21.4739 18.5619 20.9947L19.273 20.6221C19.974 20.957 20.7559 21.0725 21.5119 20.9743C22.3601 20.8646 23.1766 20.4835 23.8258 19.8368C24.6076 19.0514 25 18.0265 25 16.9985C25 15.9735 24.6076 14.9457 23.8258 14.1632Z" fill="black"/>
</svg>
