<svg width="42" height="36" viewBox="0 0 42 36" fill="none" xmlns="http://www.w3.org/2000/svg">
<path d="M3.024 15.992C3.792 15.912 4.376 15.68 4.776 15.296C5.192 14.912 5.4 14.408 5.4 13.784C5.4 13.208 5.336 12.152 5.208 10.616C5.064 9.176 4.992 8.024 4.992 7.16C4.992 6.024 5.32 5.136 5.976 4.496C6.648 3.856 7.528 3.536 8.616 3.536H10.224V5.912H9.168C8.656 5.912 8.272 6.032 8.016 6.272C7.776 6.496 7.656 6.864 7.656 7.376C7.656 7.76 7.68 8.272 7.728 8.912C7.776 9.552 7.808 10.008 7.824 10.28C7.968 11.752 8.04 12.952 8.04 13.88C8.04 14.696 7.832 15.376 7.416 15.92C7.016 16.464 6.392 16.824 5.544 17V17.048C6.392 17.224 7.016 17.584 7.416 18.128C7.832 18.672 8.04 19.352 8.04 20.168C8.04 21.096 7.968 22.296 7.824 23.768C7.808 24.04 7.776 24.496 7.728 25.136C7.68 25.776 7.656 26.288 7.656 26.672C7.656 27.184 7.776 27.552 8.016 27.776C8.272 28.016 8.656 28.136 9.168 28.136H10.224V30.512H8.616C7.528 30.512 6.648 30.192 5.976 29.552C5.32 28.912 4.992 28.024 4.992 26.888C4.992 26.024 5.064 24.872 5.208 23.432C5.336 21.896 5.4 20.84 5.4 20.264C5.4 19.64 5.192 19.136 4.776 18.752C4.376 18.368 3.792 18.136 3.024 18.056V15.992Z" fill="white"/>
<path d="M38.36 18.056C37.592 18.136 37 18.368 36.584 18.752C36.184 19.136 35.984 19.64 35.984 20.264C35.984 20.84 36.048 21.896 36.176 23.432C36.32 24.872 36.392 26.024 36.392 26.888C36.392 28.024 36.056 28.912 35.384 29.552C34.728 30.192 33.856 30.512 32.768 30.512H31.16V28.136H32.216C32.728 28.136 33.104 28.016 33.344 27.776C33.6 27.552 33.728 27.184 33.728 26.672C33.728 26.288 33.704 25.776 33.656 25.136C33.608 24.496 33.576 24.04 33.56 23.768C33.416 22.296 33.344 21.096 33.344 20.168C33.344 19.352 33.544 18.672 33.944 18.128C34.36 17.584 34.992 17.224 35.84 17.048V17C34.992 16.824 34.36 16.464 33.944 15.92C33.544 15.376 33.344 14.696 33.344 13.88C33.344 12.952 33.416 11.752 33.56 10.28C33.576 10.008 33.608 9.552 33.656 8.912C33.704 8.272 33.728 7.76 33.728 7.376C33.728 6.864 33.6 6.496 33.344 6.272C33.104 6.032 32.728 5.912 32.216 5.912H31.16V3.536H32.768C33.856 3.536 34.728 3.856 35.384 4.496C36.056 5.136 36.392 6.024 36.392 7.16C36.392 8.024 36.32 9.176 36.176 10.616C36.048 12.152 35.984 13.208 35.984 13.784C35.984 14.408 36.184 14.912 36.584 15.296C37 15.68 37.592 15.912 38.36 15.992V18.056Z" fill="white"/>
<path d="M26.1374 10.7692L15.5477 20.6742C15.2452 20.9571 15.2294 21.4318 15.5123 21.7343C15.7953 22.0368 16.2699 22.0526 16.5724 21.7697L27.1621 11.8647C27.4646 11.5818 27.4805 11.1072 27.1975 10.8047C26.9146 10.5022 26.44 10.4863 26.1374 10.7692Z" fill="white"/>
<path d="M26.3466 21.4599L16.78 10.5636C16.5067 10.2523 16.0328 10.2215 15.7216 10.4948C15.4103 10.7681 15.3795 11.242 15.6528 11.5533L25.2194 22.4496C25.4927 22.7608 25.9666 22.7916 26.2778 22.5183C26.5891 22.2451 26.6199 21.7712 26.3466 21.4599Z" fill="white"/>
</svg>
