<svg width="52" height="52" viewBox="0 0 52 52" fill="none" xmlns="http://www.w3.org/2000/svg">
<g filter="url(#filter0_d_746_18542)">
<circle cx="26" cy="24" r="22" fill="white"/>
</g>
<mask id="mask0_746_18542" style="mask-type:alpha" maskUnits="userSpaceOnUse" x="14" y="12" width="24" height="24">
<rect x="14" y="12" width="24" height="24" fill="#D9D9D9"/>
</mask>
<g mask="url(#mask0_746_18542)">
<path d="M33.95 33C31.8667 33 29.8083 32.5458 27.775 31.6375C25.7417 30.7292 23.8917 29.4417 22.225 27.775C20.5583 26.1083 19.2708 24.2583 18.3625 22.225C17.4542 20.1917 17 18.1333 17 16.05C17 15.75 17.1 15.5 17.3 15.3C17.5 15.1 17.75 15 18.05 15H22.1C22.3333 15 22.5417 15.0792 22.725 15.2375C22.9083 15.3958 23.0167 15.5833 23.05 15.8L23.7 19.3C23.7333 19.5667 23.725 19.7917 23.675 19.975C23.625 20.1583 23.5333 20.3167 23.4 20.45L20.975 22.9C21.3083 23.5167 21.7042 24.1125 22.1625 24.6875C22.6208 25.2625 23.125 25.8167 23.675 26.35C24.1917 26.8667 24.7333 27.3458 25.3 27.7875C25.8667 28.2292 26.4667 28.6333 27.1 29L29.45 26.65C29.6 26.5 29.7958 26.3875 30.0375 26.3125C30.2792 26.2375 30.5167 26.2167 30.75 26.25L34.2 26.95C34.4333 27.0167 34.625 27.1375 34.775 27.3125C34.925 27.4875 35 27.6833 35 27.9V31.95C35 32.25 34.9 32.5 34.7 32.7C34.5 32.9 34.25 33 33.95 33Z" fill="#FF8C00"/>
</g>
<defs>
<filter id="filter0_d_746_18542" x="0" y="0" width="52" height="52" filterUnits="userSpaceOnUse" color-interpolation-filters="sRGB">
<feFlood flood-opacity="0" result="BackgroundImageFix"/>
<feColorMatrix in="SourceAlpha" type="matrix" values="0 0 0 0 0 0 0 0 0 0 0 0 0 0 0 0 0 0 127 0" result="hardAlpha"/>
<feOffset dy="2"/>
<feGaussianBlur stdDeviation="2"/>
<feComposite in2="hardAlpha" operator="out"/>
<feColorMatrix type="matrix" values="0 0 0 0 0 0 0 0 0 0 0 0 0 0 0 0 0 0 0.16 0"/>
<feBlend mode="normal" in2="BackgroundImageFix" result="effect1_dropShadow_746_18542"/>
<feBlend mode="normal" in="SourceGraphic" in2="effect1_dropShadow_746_18542" result="shape"/>
</filter>
</defs>
</svg>
