<svg width="749" height="548" viewBox="0 0 749 548" fill="none" xmlns="http://www.w3.org/2000/svg">
<path d="M213.154 324.967V255.777L164.785 324.967H213.154ZM213.154 384V347.818H137.236V324.967L214.805 214.264H258.223V324.967H279.551V347.818H258.223V384H213.154ZM396.221 301.1C396.221 276.64 394.189 258.74 390.127 247.398C386.064 236.057 379.717 230.387 371.084 230.387C362.705 230.387 356.442 235.973 352.295 247.145C348.148 258.316 346.074 275.159 346.074 297.672C346.074 322.301 348.063 340.286 352.041 351.627C356.104 362.968 362.451 368.639 371.084 368.639C379.463 368.639 385.726 362.968 389.873 351.627C394.105 340.286 396.221 323.443 396.221 301.1ZM378.574 210.582C398.717 210.582 414.502 217.776 425.928 232.164C437.354 246.467 443.066 266.399 443.066 291.959C443.066 305.247 441.289 317.519 437.734 328.775C434.264 340.032 429.102 350.019 422.246 358.736C414.629 368.3 405.827 375.621 395.84 380.699C385.853 385.693 375.146 388.189 363.721 388.189C343.747 388.189 327.962 381.249 316.367 367.369C304.857 353.489 299.102 334.404 299.102 310.113C299.102 280.576 306.507 256.624 321.318 238.258C336.13 219.807 355.215 210.582 378.574 210.582ZM534.6 324.967V255.777L486.23 324.967H534.6ZM534.6 384V347.818H458.682V324.967L536.25 214.264H579.668V324.967H600.996V347.818H579.668V384H534.6Z" fill="black"/>
<path d="M69.0449 242.689H142.95" stroke="black" stroke-width="2.1628" stroke-miterlimit="10" stroke-linecap="round" stroke-linejoin="round"/>
<path d="M160.688 242.689H176.465" stroke="black" stroke-width="2.1628" stroke-miterlimit="10" stroke-linecap="round" stroke-linejoin="round"/>
<path d="M55.6611 221.89H187.966" stroke="black" stroke-width="2.1628" stroke-miterlimit="10" stroke-linecap="round" stroke-linejoin="round"/>
<path d="M44.7717 221.89H33.8818" stroke="black" stroke-width="2.1628" stroke-miterlimit="10" stroke-linecap="round" stroke-linejoin="round"/>
<path d="M55.6611 202.129H99.5861" stroke="black" stroke-width="2.1628" stroke-miterlimit="10" stroke-linecap="round" stroke-linejoin="round"/>
<path d="M111.347 202.129H203.595" stroke="black" stroke-width="2.1628" stroke-miterlimit="10" stroke-linecap="round" stroke-linejoin="round"/>
<path d="M591.445 407.716H670.532" stroke="black" stroke-width="2.1628" stroke-miterlimit="10" stroke-linecap="round" stroke-linejoin="round"/>
<path d="M683.394 407.716H694.833" stroke="black" stroke-width="2.1628" stroke-miterlimit="10" stroke-linecap="round" stroke-linejoin="round"/>
<path d="M607.239 386.914H710.883" stroke="black" stroke-width="2.1628" stroke-miterlimit="10" stroke-linecap="round" stroke-linejoin="round"/>
<path d="M599.341 386.914H591.445" stroke="black" stroke-width="2.1628" stroke-miterlimit="10" stroke-linecap="round" stroke-linejoin="round"/>
<path d="M591.445 367.153H639.089" stroke="black" stroke-width="2.1628" stroke-miterlimit="10" stroke-linecap="round" stroke-linejoin="round"/>
<path d="M647.615 367.153H683.394" stroke="black" stroke-width="2.1628" stroke-miterlimit="10" stroke-linecap="round" stroke-linejoin="round"/>
<path d="M625.957 238.183V221.234" stroke="black" stroke-width="2.1628" stroke-miterlimit="10" stroke-linecap="round" stroke-linejoin="round"/>
<path d="M614.127 243.083L602.144 231.099" stroke="black" stroke-width="2.1628" stroke-miterlimit="10" stroke-linecap="round" stroke-linejoin="round"/>
<path d="M609.227 254.914H592.279" stroke="black" stroke-width="2.1628" stroke-miterlimit="10" stroke-linecap="round" stroke-linejoin="round"/>
<path d="M614.127 266.744L602.144 278.729" stroke="black" stroke-width="2.1628" stroke-miterlimit="10" stroke-linecap="round" stroke-linejoin="round"/>
<path d="M625.957 271.645V288.593" stroke="black" stroke-width="2.1628" stroke-miterlimit="10" stroke-linecap="round" stroke-linejoin="round"/>
<path d="M637.788 266.744L649.773 278.729" stroke="black" stroke-width="2.1628" stroke-miterlimit="10" stroke-linecap="round" stroke-linejoin="round"/>
<path d="M642.689 254.914H659.638" stroke="black" stroke-width="2.1628" stroke-miterlimit="10" stroke-linecap="round" stroke-linejoin="round"/>
<path d="M637.788 243.083L649.773 231.099" stroke="black" stroke-width="2.1628" stroke-miterlimit="10" stroke-linecap="round" stroke-linejoin="round"/>
<path d="M84.3945 322.571V310.321" stroke="black" stroke-width="2.1628" stroke-miterlimit="10" stroke-linecap="round" stroke-linejoin="round"/>
<path d="M75.8409 326.115L67.1787 317.453" stroke="black" stroke-width="2.1628" stroke-miterlimit="10" stroke-linecap="round" stroke-linejoin="round"/>
<path d="M72.3 334.667H60.0498" stroke="black" stroke-width="2.1628" stroke-miterlimit="10" stroke-linecap="round" stroke-linejoin="round"/>
<path d="M75.8409 343.219L67.1787 351.881" stroke="black" stroke-width="2.1628" stroke-miterlimit="10" stroke-linecap="round" stroke-linejoin="round"/>
<path d="M84.3945 346.76V359.01" stroke="black" stroke-width="2.1628" stroke-miterlimit="10" stroke-linecap="round" stroke-linejoin="round"/>
<path d="M92.9453 343.219L101.607 351.881" stroke="black" stroke-width="2.1628" stroke-miterlimit="10" stroke-linecap="round" stroke-linejoin="round"/>
<path d="M96.4873 334.667H108.739" stroke="black" stroke-width="2.1628" stroke-miterlimit="10" stroke-linecap="round" stroke-linejoin="round"/>
<path d="M92.9453 326.115L101.607 317.453" stroke="black" stroke-width="2.1628" stroke-miterlimit="10" stroke-linecap="round" stroke-linejoin="round"/>
<path d="M425.9 69.5359V57.2842" stroke="black" stroke-width="2.1628" stroke-miterlimit="10" stroke-linecap="round" stroke-linejoin="round"/>
<path d="M417.347 73.0782L408.685 64.416" stroke="black" stroke-width="2.1628" stroke-miterlimit="10" stroke-linecap="round" stroke-linejoin="round"/>
<path d="M413.806 81.6299H401.556" stroke="black" stroke-width="2.1628" stroke-miterlimit="10" stroke-linecap="round" stroke-linejoin="round"/>
<path d="M417.347 90.1807L408.685 98.8428" stroke="black" stroke-width="2.1628" stroke-miterlimit="10" stroke-linecap="round" stroke-linejoin="round"/>
<path d="M425.9 93.7227V105.973" stroke="black" stroke-width="2.1628" stroke-miterlimit="10" stroke-linecap="round" stroke-linejoin="round"/>
<path d="M434.45 90.1807L443.112 98.8428" stroke="black" stroke-width="2.1628" stroke-miterlimit="10" stroke-linecap="round" stroke-linejoin="round"/>
<path d="M437.993 81.6299H450.243" stroke="black" stroke-width="2.1628" stroke-miterlimit="10" stroke-linecap="round" stroke-linejoin="round"/>
<path d="M434.45 73.0782L443.112 64.416" stroke="black" stroke-width="2.1628" stroke-miterlimit="10" stroke-linecap="round" stroke-linejoin="round"/>
<path d="M187.967 172.315V119.303H463.543V237.091" stroke="black" stroke-width="2.1628" stroke-miterlimit="10" stroke-linecap="round" stroke-linejoin="round"/>
<path d="M366.411 81.6289V148H549.155V178.196" stroke="black" stroke-width="2.1628" stroke-miterlimit="10" stroke-linecap="round" stroke-linejoin="round"/>
<path d="M194.542 178.89C194.542 182.523 191.597 185.466 187.966 185.466C184.334 185.466 181.391 182.521 181.391 178.89C181.391 175.259 184.335 172.314 187.966 172.314C191.599 172.314 194.542 175.258 194.542 178.89Z" stroke="black" stroke-width="2.1628" stroke-miterlimit="10" stroke-linecap="round" stroke-linejoin="round"/>
<path d="M366.411 81.6299C370.042 81.6299 372.986 78.6859 372.986 75.0542C372.986 71.4225 370.042 68.4785 366.411 68.4785C362.779 68.4785 359.835 71.4225 359.835 75.0542C359.835 78.6859 362.779 81.6299 366.411 81.6299Z" stroke="black" stroke-width="2.1628" stroke-miterlimit="10" stroke-linecap="round" stroke-linejoin="round"/>
<path d="M555.731 185.466C555.731 189.097 552.786 192.042 549.155 192.042C545.522 192.042 542.579 189.097 542.579 185.466C542.579 181.834 545.524 178.891 549.155 178.891C552.786 178.891 555.731 181.835 555.731 185.466Z" stroke="black" stroke-width="2.1628" stroke-miterlimit="10" stroke-linecap="round" stroke-linejoin="round"/>
<path d="M470.118 244.758C470.118 248.389 467.173 251.334 463.542 251.334C459.911 251.334 456.967 248.389 456.967 244.758C456.967 241.126 459.911 238.183 463.542 238.183C467.173 238.183 470.118 241.127 470.118 244.758Z" stroke="black" stroke-width="2.1628" stroke-miterlimit="10" stroke-linecap="round" stroke-linejoin="round"/>
<path d="M135.111 376.458L119.553 392.017" stroke="black" stroke-width="2.1628" stroke-miterlimit="10" stroke-linecap="round" stroke-linejoin="round"/>
<path d="M119.553 376.458L135.111 392.017" stroke="black" stroke-width="2.1628" stroke-miterlimit="10" stroke-linecap="round" stroke-linejoin="round"/>
<path d="M152.89 150.517L137.331 166.077" stroke="black" stroke-width="2.1628" stroke-miterlimit="10" stroke-linecap="round" stroke-linejoin="round"/>
<path d="M137.331 150.517L152.89 166.077" stroke="black" stroke-width="2.1628" stroke-miterlimit="10" stroke-linecap="round" stroke-linejoin="round"/>
<path d="M657.552 326.886L641.992 342.446" stroke="black" stroke-width="2.1628" stroke-miterlimit="10" stroke-linecap="round" stroke-linejoin="round"/>
<path d="M641.992 326.886L657.552 342.446" stroke="black" stroke-width="2.1628" stroke-miterlimit="10" stroke-linecap="round" stroke-linejoin="round"/>
<path d="M216.005 61.7168C211.043 61.7168 206.501 63.5023 202.975 66.4593C199.373 55.617 189.166 47.79 177.116 47.79C163.625 47.79 152.451 57.5991 150.268 70.468C148.846 70.0611 147.349 69.8293 145.796 69.8293C136.825 69.8293 129.554 77.102 129.554 86.0712C129.554 94.3235 135.713 101.122 143.682 102.161V102.315H216.005C227.216 102.315 236.305 93.2273 236.305 82.015C236.305 70.8057 227.216 61.7168 216.005 61.7168Z" stroke="black" stroke-width="2.2614" stroke-miterlimit="10" stroke-linecap="round" stroke-linejoin="round"/>
<path d="M592.36 164.975C595.965 164.975 599.264 166.272 601.827 168.42C604.443 160.544 611.859 154.857 620.613 154.857C630.414 154.857 638.531 161.984 640.117 171.333C641.151 171.036 642.238 170.869 643.366 170.869C649.883 170.869 655.166 176.152 655.166 182.669C655.166 188.665 650.692 193.604 644.903 194.358V194.468H592.362C584.217 194.468 577.615 187.865 577.615 179.722C577.615 171.578 584.215 164.975 592.36 164.975Z" stroke="black" stroke-width="2.1628" stroke-miterlimit="10" stroke-linecap="round" stroke-linejoin="round"/>
<path d="M734.801 443.933C731.778 443.933 729.011 445.021 726.862 446.822C724.668 440.217 718.449 435.447 711.107 435.447C702.887 435.447 696.079 441.424 694.75 449.265C693.884 449.018 692.972 448.877 692.024 448.877C686.559 448.877 682.128 453.307 682.128 458.773C682.128 463.801 685.88 467.943 690.736 468.576V468.67H734.799C741.63 468.67 747.168 463.133 747.168 456.303C747.168 449.471 741.632 443.933 734.801 443.933Z" stroke="black" stroke-width="2.1628" stroke-miterlimit="10" stroke-linecap="round" stroke-linejoin="round"/>
<path d="M16.7466 417.834C20.3514 417.834 23.6508 419.132 26.2132 421.28C28.8294 413.404 36.2449 407.717 44.9992 407.717C54.8005 407.717 62.9177 414.844 64.5036 424.192C65.5369 423.896 66.6239 423.728 67.7523 423.728C74.2697 423.728 79.5526 429.011 79.5526 435.529C79.5526 441.524 75.0788 446.463 69.2891 447.217V447.328H16.7466C8.60179 447.328 2 440.726 2 432.581C2 424.436 8.60179 417.834 16.7466 417.834Z" stroke="black" stroke-width="2.1628" stroke-miterlimit="10" stroke-linecap="round" stroke-linejoin="round"/>
<path d="M236.303 51.9781C236.303 51.9781 329.096 -23.6769 455.175 11.1775C587.615 47.7898 614.126 142.226 614.126 142.226" stroke="black" stroke-width="2.1628" stroke-miterlimit="10" stroke-linecap="round" stroke-linejoin="round" stroke-dasharray="3.27 7.62"/>
<path d="M86.1939 271.867C50.2203 277.446 32.136 353.795 72.6003 384.104" stroke="black" stroke-width="2.0166" stroke-miterlimit="10" stroke-linecap="round" stroke-linejoin="round" stroke-dasharray="3.05 7.11"/>
<path d="M619.155 492.161C619.155 492.161 680.779 519.099 707.791 481.517" stroke="black" stroke-width="2.1628" stroke-miterlimit="10" stroke-linecap="round" stroke-linejoin="round" stroke-dasharray="3.27 7.62"/>
<path d="M255.987 185.466V146.553" stroke="black" stroke-width="2.1628" stroke-miterlimit="10" stroke-linecap="round" stroke-linejoin="round"/>
<path d="M246.595 185.466V166.077" stroke="black" stroke-width="2.1628" stroke-miterlimit="10" stroke-linecap="round" stroke-linejoin="round"/>
<path d="M399.012 194.47V166.01" stroke="black" stroke-width="2.1628" stroke-miterlimit="10" stroke-linecap="round" stroke-linejoin="round"/>
<path d="M388.342 192.042V180.238" stroke="black" stroke-width="2.1628" stroke-miterlimit="10" stroke-linecap="round" stroke-linejoin="round"/>
<path d="M378.875 192.042V172.314" stroke="black" stroke-width="2.1628" stroke-miterlimit="10" stroke-linecap="round" stroke-linejoin="round"/>
<path d="M265.017 185.467V166.01" stroke="black" stroke-width="2.1628" stroke-miterlimit="10" stroke-linecap="round" stroke-linejoin="round"/>
<path d="M522.948 190.883V182.178" stroke="black" stroke-width="2.1628" stroke-miterlimit="10" stroke-linecap="round" stroke-linejoin="round"/>
<path d="M513.556 190.883V169.681" stroke="black" stroke-width="2.1628" stroke-miterlimit="10" stroke-linecap="round" stroke-linejoin="round"/>
<path d="M531.978 190.883V175.738" stroke="black" stroke-width="2.1628" stroke-miterlimit="10" stroke-linecap="round" stroke-linejoin="round"/>
</svg>
