<svg width="44" height="44" viewBox="0 0 44 44" fill="none" xmlns="http://www.w3.org/2000/svg">
<rect width="44" height="44" fill="#EEEEEE"/>
<mask id="mask0_292_80986" style="mask-type:alpha" maskUnits="userSpaceOnUse" x="10" y="10" width="24" height="24">
<rect x="10" y="10" width="24" height="24" fill="#D9D9D9"/>
</mask>
<g mask="url(#mask0_292_80986)">
<path d="M16.5 21L22 12L27.5 21H16.5ZM27.5 32C26.25 32 25.1875 31.5625 24.3125 30.6875C23.4375 29.8125 23 28.75 23 27.5C23 26.25 23.4375 25.1875 24.3125 24.3125C25.1875 23.4375 26.25 23 27.5 23C28.75 23 29.8125 23.4375 30.6875 24.3125C31.5625 25.1875 32 26.25 32 27.5C32 28.75 31.5625 29.8125 30.6875 30.6875C29.8125 31.5625 28.75 32 27.5 32ZM13 31.5V23.5H21V31.5H13ZM27.5 30C28.2 30 28.7917 29.7583 29.275 29.275C29.7583 28.7917 30 28.2 30 27.5C30 26.8 29.7583 26.2083 29.275 25.725C28.7917 25.2417 28.2 25 27.5 25C26.8 25 26.2083 25.2417 25.725 25.725C25.2417 26.2083 25 26.8 25 27.5C25 28.2 25.2417 28.7917 25.725 29.275C26.2083 29.7583 26.8 30 27.5 30ZM15 29.5H19V25.5H15V29.5ZM20.05 19H23.95L22 15.85L20.05 19Z" fill="#1C1B1F"/>
</g>
</svg>
