<svg width="24" height="24" viewBox="0 0 24 24" fill="none" xmlns="http://www.w3.org/2000/svg">
<path d="M16.8186 9.99747C16.3603 9.53889 15.784 9.27193 15.1852 9.19241C14.6516 9.1231 14.0997 9.20665 13.6049 9.44312L12.7873 8.98083C12.2558 8.68023 11.875 8.17005 11.738 7.5749C11.9742 7.07758 12.0557 6.52734 11.9865 5.99133C11.9091 5.39421 11.6402 4.81535 11.182 4.35678C10.6301 3.80445 9.90711 3.5293 9.18212 3.5293C8.45914 3.5293 7.73414 3.80445 7.18223 4.35678C6.63031 4.91112 6.35334 5.63464 6.35334 6.36024C6.35334 7.08376 6.63031 7.80929 7.18223 8.36162C7.64046 8.82019 8.2168 9.08722 8.81556 9.16667C9.34916 9.23598 9.90108 9.15244 10.3959 8.91596C10.9906 9.05302 11.5003 9.43378 11.8003 9.96519L12.2628 10.7842C12.0795 11.1693 11.9899 11.5851 11.9899 11.9988C11.9899 12.4146 12.0816 12.8304 12.2628 13.2136L11.9994 13.7169C11.6617 14.3623 11.087 14.8515 10.3959 15.0818C9.90108 14.8454 9.34916 14.7639 8.81556 14.8332C8.2168 14.9106 7.64046 15.1796 7.18223 15.6382C6.63031 16.1905 6.35334 16.9141 6.35334 17.6396C6.35334 18.3631 6.63031 19.0886 7.18223 19.641C7.73414 20.1933 8.45914 20.4705 9.18212 20.4705C9.90711 20.4705 10.6301 20.1933 11.182 19.641C11.6402 19.1824 11.9091 18.6056 11.9865 18.0064C12.0557 17.4724 11.9742 16.9201 11.738 16.4249C11.9681 15.7333 12.4574 15.158 13.1029 14.8197L13.6049 14.5566C14.0997 14.793 14.6516 14.8746 15.1852 14.8053C15.784 14.7278 16.3603 14.4588 16.8186 14.0023C17.3705 13.448 17.6475 12.7244 17.6475 11.9988C17.6475 11.2753 17.3705 10.5498 16.8186 9.99747Z" fill="white"/>
</svg>
