<svg width="67" height="67" viewBox="0 0 67 67" fill="none" xmlns="http://www.w3.org/2000/svg">
<mask id="mask0_2453_21693" style="mask-type:alpha" maskUnits="userSpaceOnUse" x="0" y="0" width="67" height="67">
<rect x="2.60742" y="0.578125" width="64" height="64" transform="rotate(2 2.60742 0.578125)" fill="#D9D9D9"/>
</mask>
<g mask="url(#mask0_2453_21693)">
<path d="M17.5891 30.0413L9.75331 25.2003L10.0719 16.0778L18.2263 11.7958L26.0621 16.6362L25.7436 25.7587L17.5891 30.0413ZM17.6709 27.6988L23.7355 24.4831L23.97 17.7692L18.1445 14.1377L12.0799 17.354L11.8454 24.0679L17.6709 27.6988ZM44.6733 30.2994L44.7556 27.9415L52.1864 32.635L51.5886 49.7526L36.632 57.7995L22.2731 48.7289L22.8709 31.6113L30.6104 27.4629L30.5286 29.8054L24.8789 32.8868L24.3629 47.6652L36.7161 55.391L49.5782 48.5457L50.0942 33.7674L44.6733 30.2994ZM36.2802 38.4935L37.2825 9.79296L58.3103 10.5273L53.891 16.7355L57.8665 23.2375L38.888 22.5748L38.3296 38.565L36.2802 38.4935Z" fill="white"/>
</g>
</svg>
