<svg width="135" height="118" viewBox="0 0 135 118" fill="none" xmlns="http://www.w3.org/2000/svg">
<path d="M81.0586 55.664C84.5397 49.2138 84.7029 34.7138 84.624 29.0132V26.645C73.2778 24.8579 61.7223 24.8579 50.3761 26.645C50.3761 26.645 49.5004 47.5381 53.8817 55.664C56.7237 60.9328 61.589 64.735 64.6622 66.7583C64.3548 66.8507 64.1264 67.1331 64.1264 67.4726V68.5399C64.1264 68.9527 64.4636 69.2895 64.8797 69.2895H65.546V79.3274L63.6804 82.5212H61.5781L57.7489 86.3913V92.6948H55.8588V94.1913H79.0842V92.6948H77.1941V86.3289L73.2207 82.5212H71.2626L69.4024 79.3138H69.3943V69.2868H69.7804C70.1965 69.2868 70.5338 68.9527 70.5338 68.5372V67.4699C70.5338 67.1983 70.3869 66.962 70.1666 66.8316C73.2316 64.8273 78.184 60.9952 81.0586 55.664Z" fill="url(#paint0_linear_2445_19857)"/>
<path d="M79.0846 94.4875H55.8592C55.6933 94.4875 55.5573 94.3544 55.5573 94.1887V92.6923C55.5573 92.5266 55.6933 92.3936 55.8592 92.3936H57.4475V86.3888C57.4475 86.31 57.4774 86.234 57.5345 86.1769L61.3637 82.3068C61.4208 82.2498 61.4969 82.2172 61.5785 82.2172H63.5067L65.2445 79.2433V69.5857H64.8801C64.2981 69.5857 63.8249 69.1159 63.8249 68.5374V67.47C63.8249 67.1957 63.931 66.9405 64.1105 66.7531C60.73 64.4717 56.2998 60.789 53.6128 55.8054C51.7744 52.397 50.6185 46.4465 50.1807 38.1224C49.8543 31.9411 50.0692 26.6832 50.0719 26.6316C50.0773 26.4903 50.1834 26.3708 50.3275 26.3464C61.7227 24.5512 73.2755 24.5512 84.6706 26.3464C84.8175 26.3708 84.9263 26.4958 84.9263 26.6424V29.0107C85.0079 34.9041 84.8229 49.3199 81.3255 55.8027C78.4672 61.0986 73.5366 64.9416 70.6484 66.8726C70.768 67.0437 70.836 67.2501 70.836 67.4673V68.5347C70.836 69.1131 70.3628 69.583 69.7808 69.583H69.6965V79.2162L71.4371 82.2172H73.2211C73.3 82.2172 73.3734 82.2471 73.4305 82.3014L77.4039 86.109C77.4637 86.1661 77.4963 86.2421 77.4963 86.3263V92.3936H79.0846C79.2505 92.3936 79.3864 92.5266 79.3864 92.6923V94.1887C79.3864 94.3544 79.2505 94.4875 79.0846 94.4875ZM56.1638 93.8873H78.7854V92.991H77.1972C77.0313 92.991 76.8953 92.858 76.8953 92.6923V86.454L73.1015 82.8201H71.2657C71.1569 82.8201 71.059 82.7631 71.0047 82.6707L69.1689 79.504C69.1254 79.4524 69.0982 79.3873 69.0982 79.3139V69.2897C69.0982 69.124 69.2342 68.9909 69.4001 68.9909H69.7863C70.0365 68.9909 70.2377 68.79 70.2377 68.5428V67.4755C70.2377 67.318 70.1561 67.1767 70.0174 67.0925C69.9277 67.0382 69.8733 66.9432 69.8706 66.8427C69.8706 66.7395 69.9195 66.6417 70.0066 66.5874C72.7914 64.765 77.8961 60.9058 80.7979 55.5284C84.23 49.1678 84.4095 34.8742 84.328 29.0242V26.9086C73.1613 25.1759 61.8423 25.1759 50.6757 26.9086C50.5968 29.2768 50.1154 48.0407 54.1567 55.5284C56.8872 60.5908 61.4725 64.2979 64.8393 66.5141C64.9372 66.5792 64.9889 66.6933 64.9726 66.8074C64.9563 66.9214 64.8747 67.0165 64.7632 67.0518C64.5728 67.1088 64.4423 67.2799 64.4423 67.4782V68.5455C64.4423 68.7927 64.6435 68.9936 64.8937 68.9936H65.56C65.7259 68.9936 65.8619 69.1267 65.8619 69.2924V79.3302C65.8619 79.3846 65.8483 79.4362 65.8211 79.4823L63.9554 82.6762C63.9011 82.7685 63.8032 82.8256 63.6944 82.8256H61.7199L58.0648 86.5191V92.7005C58.0648 92.8661 57.9288 92.9992 57.7629 92.9992H56.1747V93.8954L56.1638 93.8873Z" fill="url(#paint1_linear_2445_19857)"/>
<path d="M94.18 28.3898C90.6173 27.0129 87.0193 28.474 85.6241 31.8661C84.9741 33.4467 84.9741 35.1632 85.6241 36.5727C86.2197 37.8627 87.332 38.835 88.7544 39.3103C89.1868 39.4542 89.6518 39.2234 89.796 38.7943C89.9401 38.3652 89.7089 37.9008 89.2765 37.7568C88.3981 37.4635 87.7182 36.9339 87.2885 36.2115C87.1362 35.6629 87.0764 35.1224 87.1172 34.4842C87.1335 34.2208 87.158 33.9546 87.2314 33.702C87.6801 32.1323 89.3064 31.0649 90.9028 31.1002C92.9969 31.1464 94.1772 32.7895 94.6831 34.6526C95.2379 36.7004 95.1291 38.998 94.4954 41.1028C93.2988 43.5036 91.3081 45.842 88.409 48.2808C87.9847 48.6366 87.555 48.9869 87.1199 49.3291C86.7854 49.5926 86.4345 49.8479 86.081 50.1032C84.675 51.1243 83.084 52.2786 82.2926 54.1797C81.716 55.562 81.8167 57.1997 82.5618 58.5658C83.3451 60.0025 84.7375 60.8254 86.2115 60.8254C86.6576 60.8254 87.1117 60.7494 87.5577 60.5918C89.3772 59.9509 90.9681 58.2182 90.329 56.2682C90.1876 55.8391 89.7225 55.6028 89.2901 55.744C88.8577 55.8852 88.6211 56.3469 88.7625 56.776C89.1297 57.8977 87.7399 58.7912 87.0084 59.0492C85.8661 59.4485 84.6342 58.9297 84.0087 57.7836C83.5001 56.8494 83.4267 55.7359 83.8128 54.807C84.4275 53.3296 85.703 52.4035 87.0519 51.4258C87.4218 51.1569 87.7889 50.888 88.1425 50.6137C88.5912 50.2607 89.0372 49.8995 89.4723 49.5328C93.9406 45.7741 96.4073 42.181 97.2368 38.224C97.6284 36.3473 98.5721 30.0872 94.1772 28.3898H94.18Z" fill="url(#paint2_linear_2445_19857)"/>
<path d="M86.2133 61.1308C84.5869 61.1308 83.1238 60.2264 82.2997 58.7136C81.5138 57.2715 81.4077 55.5334 82.0169 54.0695C82.841 52.0924 84.47 50.9082 85.9059 49.8653C86.2595 49.6073 86.6049 49.3575 86.9367 49.0968C87.4099 48.722 87.8287 48.3825 88.2176 48.0566C91.0813 45.6476 93.0449 43.3364 94.217 40.9953C94.8507 38.8742 94.9132 36.6527 94.3938 34.7353C94.062 33.5131 93.1673 31.4545 90.8991 31.4029C89.3734 31.3621 87.9212 32.3915 87.5241 33.7874C87.4616 34.0047 87.4371 34.2301 87.4208 34.5071C87.3827 35.0775 87.4316 35.5717 87.5703 36.0959C87.9647 36.7368 88.5875 37.2148 89.3762 37.4756C89.9636 37.6711 90.2818 38.3066 90.086 38.8932C89.9908 39.1757 89.7895 39.4065 89.5203 39.5396C89.251 39.6727 88.9465 39.6944 88.6609 39.5994C87.157 39.0969 85.9821 38.0676 85.3511 36.7015C84.6658 35.216 84.6658 33.4153 85.3457 31.7587C86.8034 28.209 90.5646 26.6746 94.2905 28.1167C98.9029 29.8983 97.9402 36.3539 97.5349 38.2903C96.6919 42.3152 94.1926 45.9599 89.6699 49.7649C89.2456 50.1206 88.8078 50.4764 88.3318 50.8512C87.9837 51.1255 87.6274 51.3835 87.2331 51.6714C85.9195 52.6274 84.6767 53.5263 84.0947 54.9277C83.7411 55.7751 83.8091 56.7908 84.2769 57.6463C84.829 58.6593 85.9141 59.121 86.9122 58.7707C87.5268 58.5534 88.7778 57.7767 88.4814 56.8723C88.3889 56.5871 88.4134 56.2857 88.5494 56.0195C88.6854 55.7533 88.9193 55.5551 89.2048 55.4627C89.4877 55.3704 89.7922 55.3921 90.0588 55.5279C90.328 55.6637 90.5293 55.8946 90.6217 56.1797C91.3207 58.3117 89.6182 60.1938 87.6628 60.8782C87.1923 61.0439 86.7055 61.128 86.216 61.128L86.2133 61.1308ZM90.8257 30.8027C90.8556 30.8027 90.8855 30.8027 90.9127 30.8027C92.8572 30.8461 94.3394 32.2231 94.9758 34.5777C95.5252 36.6092 95.4572 38.9557 94.7854 41.1909C94.78 41.2072 94.7746 41.2235 94.7664 41.237C93.5589 43.6596 91.5437 46.0414 88.6038 48.5128C88.2094 48.8442 87.7852 49.1891 87.3065 49.5666C86.9693 49.83 86.6185 50.088 86.2622 50.3461C84.8834 51.3482 83.3278 52.478 82.569 54.3004C82.0278 55.5985 82.123 57.1439 82.8246 58.4285C83.5426 59.7457 84.8099 60.5306 86.2078 60.5306C86.6294 60.5306 87.0482 60.4572 87.4534 60.316C89.1395 59.7239 90.619 58.1379 90.0397 56.3671C89.9962 56.2341 89.9037 56.1281 89.7786 56.063C89.6535 56.0005 89.5148 55.9896 89.3843 56.0331C89.251 56.0765 89.1423 56.1689 89.0797 56.2911C89.0172 56.4133 89.0063 56.5545 89.0498 56.6876C89.4713 57.9722 88.0816 58.9934 87.108 59.3383C85.8216 59.7891 84.4401 59.2106 83.7439 57.9342C83.1918 56.9212 83.1129 55.7099 83.5344 54.6996C84.1817 53.1461 85.4898 52.1956 86.8741 51.1907C87.2413 50.9245 87.6057 50.6584 87.9538 50.3841C88.427 50.012 88.8594 49.6617 89.2782 49.3086C93.6921 45.5933 96.1262 42.0545 96.9421 38.1681C97.3228 36.3485 98.242 30.2867 94.0702 28.6762C90.668 27.3617 87.2304 28.7522 85.9032 31.9868C85.2859 33.4914 85.2832 35.1209 85.8978 36.4544C86.458 37.6684 87.5051 38.5836 88.8513 39.0318C88.9845 39.0779 89.1259 39.0671 89.251 39.0046C89.3761 38.9421 89.4686 38.8362 89.5121 38.7058C89.6046 38.4343 89.455 38.1409 89.1831 38.0486C88.2421 37.7363 87.4969 37.1551 87.0291 36.3702C87.0155 36.3485 87.0047 36.3213 86.9992 36.2969C86.8333 35.6967 86.7762 35.1182 86.817 34.4718C86.8333 34.2002 86.8605 33.9096 86.9421 33.6272C87.4044 32.0058 89.0634 30.8054 90.823 30.8054L90.8257 30.8027Z" fill="url(#paint3_linear_2445_19857)"/>
<path d="M52.6062 54.1875C51.8148 52.2864 50.2211 51.1294 48.8178 50.111C48.4642 49.8557 48.1134 49.6004 47.7789 49.3369C47.3437 48.9947 46.914 48.6471 46.4898 48.2886C43.5907 45.8498 41.6 43.5114 40.4033 41.1106C39.7697 39.0058 39.6609 36.7082 40.2157 34.6604C40.7215 32.7973 41.9018 31.1542 43.9959 31.108C45.5923 31.0727 47.2186 32.1374 47.6674 33.7098C47.7408 33.9651 47.7653 34.2286 47.7816 34.492C47.8224 35.1302 47.7626 35.6707 47.6103 36.2193C47.1806 36.9417 46.4979 37.474 45.6222 37.7646C45.1898 37.9086 44.9587 38.373 45.1028 38.8021C45.2469 39.2312 45.712 39.4621 46.1444 39.3181C47.5695 38.8428 48.6818 37.8706 49.2747 36.5805C49.9246 35.171 49.9246 33.4546 49.2747 31.8739C47.8795 28.4818 44.2815 27.0207 40.7188 28.3976C36.3267 30.095 37.2676 36.3524 37.6593 38.2318C38.4887 42.1861 40.9554 45.7792 45.4237 49.5406C45.8616 49.9073 46.3049 50.2685 46.7536 50.6216C47.1044 50.8986 47.4716 51.1647 47.8442 51.4336C49.1931 52.414 50.4686 53.3401 51.0832 54.8149C51.4721 55.7437 51.3987 56.8572 50.8874 57.7914C50.2619 58.9375 49.0299 59.4563 47.8877 59.057C47.1561 58.799 45.7637 57.9055 46.1335 56.7839C46.2749 56.3547 46.0383 55.893 45.6059 55.7518C45.1762 55.6106 44.7085 55.8469 44.567 56.276C43.9279 58.226 45.5189 59.9587 47.3383 60.5996C47.7843 60.7572 48.2385 60.8332 48.6845 60.8332C50.1585 60.8332 51.551 60.0076 52.3342 58.5736C53.0794 57.2102 53.18 55.5699 52.6035 54.1875H52.6062Z" fill="url(#paint4_linear_2445_19857)"/>
<path d="M48.69 61.1347C48.2005 61.1347 47.7137 61.0505 47.2432 60.8848C45.2878 60.1977 43.5881 58.3184 44.2843 56.1864C44.3767 55.9012 44.578 55.6704 44.8472 55.5346C45.1165 55.3988 45.4183 55.3771 45.7039 55.4694C45.9895 55.5618 46.2206 55.76 46.3566 56.0262C46.4926 56.2923 46.5171 56.5965 46.4246 56.8789C46.1282 57.7833 47.3792 58.5601 47.9938 58.7773C48.9919 59.1277 50.0743 58.6633 50.6264 57.653C51.0941 56.7975 51.1621 55.779 50.8086 54.9344C50.2266 53.5357 48.9837 52.634 47.6702 51.6781C47.2758 51.3929 46.9196 51.1322 46.5715 50.8579C46.0928 50.4831 45.655 50.1273 45.2334 49.7715C40.7107 45.9666 38.2114 42.3192 37.3683 38.297C36.9631 36.3606 36.0004 29.905 40.6128 28.1233C44.3359 26.6839 48.0971 28.2157 49.5576 31.7653C50.2375 33.422 50.2375 35.2253 49.5521 36.7082C48.9212 38.0743 47.7463 39.1036 46.2424 39.606C45.9568 39.7011 45.6522 39.6794 45.383 39.5463C45.1138 39.4132 44.9125 39.1851 44.8173 38.8999C44.6188 38.316 44.937 37.6805 45.5271 37.4849C46.3158 37.2215 46.9386 36.7462 47.3329 36.1053C47.4744 35.5811 47.5206 35.0868 47.4825 34.5165C47.4635 34.2395 47.439 34.0113 47.3792 33.7968C46.9821 32.4036 45.5299 31.3634 44.0042 31.415C41.7333 31.4666 40.8413 33.5252 40.5095 34.7473C39.99 36.6647 40.0526 38.8863 40.6862 41.0074C41.8584 43.3485 43.8219 45.657 46.6857 48.0687C47.0773 48.4 47.4988 48.7395 47.9693 49.1089C48.2957 49.3641 48.6356 49.614 48.9783 49.8639C50.4333 50.9203 52.0623 52.1045 52.8891 54.0816C53.4983 55.5455 53.3949 57.2809 52.6062 58.7257C51.7795 60.2385 50.3163 61.1429 48.6927 61.1429L48.69 61.1347ZM45.3504 56.0126C45.2715 56.0126 45.1899 56.0316 45.1165 56.0696C44.9914 56.1321 44.8989 56.2407 44.8554 56.3738C44.2761 58.1445 45.7556 59.7306 47.4417 60.3227C47.8469 60.4666 48.2685 60.5372 48.6873 60.5372C50.0879 60.5372 51.3525 59.7523 52.0705 58.4351C52.7721 57.1505 52.8673 55.6052 52.3261 54.307C51.5646 52.4847 50.009 51.3549 48.6384 50.3581C48.2685 50.0893 47.9231 49.8367 47.5913 49.576C47.1154 49.2012 46.6911 48.8563 46.2941 48.5222C43.3569 46.0508 41.3417 43.6717 40.1315 41.2464C40.1233 41.2301 40.1179 41.2165 40.1124 41.2002C39.4407 38.9651 39.3727 36.6186 39.922 34.5871C40.5611 32.2325 42.0406 30.8555 43.9851 30.8121C45.7855 30.774 47.4825 31.9826 47.953 33.6311C48.0346 33.9136 48.0618 34.2042 48.0781 34.4758C48.1189 35.1221 48.0618 35.7033 47.8959 36.3008C47.8877 36.3253 47.8769 36.3524 47.866 36.3742C47.3982 37.159 46.6558 37.7375 45.7121 38.0526C45.4401 38.1449 45.2932 38.4382 45.383 38.7098C45.4265 38.8402 45.5217 38.9488 45.6441 39.0085C45.7665 39.0683 45.9106 39.0792 46.0439 39.0357C47.3901 38.5876 48.4371 37.6723 48.9973 36.4583C49.612 35.1249 49.612 33.4953 48.9919 31.9907C47.662 28.7561 44.2272 27.3656 40.8249 28.6801C36.6531 30.2906 37.5723 36.3524 37.953 38.1721C38.7662 42.0585 41.203 45.5972 45.6169 49.3125C46.0357 49.6629 46.4681 50.0159 46.9413 50.388C47.2813 50.6569 47.6321 50.9122 48.021 51.1946C49.4053 52.2022 50.7134 53.1501 51.3607 54.7063C51.7822 55.7193 51.7061 56.9278 51.1513 57.9408C50.455 59.2173 49.0735 59.7958 47.7871 59.345C46.8135 59.0028 45.4238 57.9816 45.8453 56.6943C45.8888 56.5639 45.878 56.4227 45.8154 56.2978C45.7529 56.1728 45.6441 56.0832 45.5108 56.0397C45.4564 56.0234 45.402 56.0126 45.3476 56.0126H45.3504Z" fill="url(#paint5_linear_2445_19857)"/>
<path d="M105.704 2.95761C108.725 5.70879 109.266 10.027 109.266 10.027C109.266 10.027 104.912 9.88307 101.891 7.1319C98.8693 4.38073 98.3281 0.0625 98.3281 0.0625C98.3281 0.0625 102.682 0.206441 105.704 2.95761Z" fill="url(#paint6_linear_2445_19857)"/>
<path d="M84.4605 104.346C81.8606 107.679 81.7029 111.614 81.7382 111.625C81.7273 111.674 87.1937 110.147 89.6495 106.473C92.1026 102.844 90.9087 99.0829 90.944 99.0938C90.9304 99.1291 87.0577 101.044 84.4605 104.344V104.346Z" fill="url(#paint7_linear_2445_19857)"/>
<path d="M88.29 115.882C83.4926 115.068 81.7004 111.445 81.7031 111.477C81.7602 111.494 86.903 110.013 91.3332 110.532C95.807 111.075 98.4368 113.851 98.4368 113.881C98.4994 113.894 93.1418 116.713 88.2927 115.88L88.29 115.882Z" fill="url(#paint8_linear_2445_19857)"/>
<path d="M93.9461 100.186C92.1594 103.839 92.8012 107.66 92.8338 107.668C92.8284 107.72 97.6339 105.335 99.2521 101.37C100.876 97.4485 99.0291 94.0102 99.0617 94.0156C99.0536 94.0537 95.7329 96.5631 93.9461 100.186Z" fill="url(#paint9_linear_2445_19857)"/>
<path d="M99.809 110.69C95.1449 110.703 92.7707 107.504 92.7734 107.537C92.8251 107.545 97.3342 105.258 101.634 105.016C105.977 104.788 109.02 107.026 109.023 107.056C109.083 107.061 104.522 110.69 99.809 110.692V110.69Z" fill="url(#paint10_linear_2445_19857)"/>
<path d="M102.139 94.5556C101.124 98.3958 102.476 101.981 102.506 101.981C102.506 102.03 106.623 98.9146 107.447 94.7919C108.279 90.7153 105.875 87.6953 105.905 87.6953C105.905 87.7333 103.158 90.7425 102.139 94.5529V94.5556Z" fill="url(#paint11_linear_2445_19857)"/>
<path d="M109.727 103.718C105.275 104.525 102.414 101.828 102.422 101.858C102.471 101.858 106.319 98.8842 110.412 97.912C114.546 96.9478 117.899 98.5936 117.907 98.6208C117.962 98.6154 114.228 102.917 109.729 103.718H109.727Z" fill="url(#paint12_linear_2445_19857)"/>
<path d="M108.973 87.6919C108.69 91.5946 110.657 94.8346 110.686 94.8319C110.695 94.8808 114.091 91.1519 114.162 87.002C114.246 82.8929 111.38 80.3726 111.41 80.3672C111.413 80.4052 109.267 83.8163 108.976 87.6919H108.973Z" fill="url(#paint13_linear_2445_19857)"/>
<path d="M117.973 95.2758C113.812 96.8238 110.57 94.7027 110.578 94.7299C110.622 94.7217 113.785 91.1775 117.592 89.5181C121.435 87.8614 124.995 88.8745 125.006 88.9016C125.057 88.888 122.177 93.7196 117.973 95.273V95.2758Z" fill="url(#paint14_linear_2445_19857)"/>
<path d="M114.396 79.8246C114.798 83.6757 117.289 86.4811 117.314 86.473C117.327 86.5192 119.979 82.3014 119.34 78.2385C118.717 74.2163 115.492 72.2581 115.519 72.25C115.527 72.288 114.007 76.0006 114.396 79.8246Z" fill="url(#paint15_linear_2445_19857)"/>
<path d="M124.492 85.6273C120.706 87.8625 117.182 86.3633 117.195 86.3878C117.233 86.3742 119.689 82.3737 123.127 80.0843C126.597 77.7921 130.255 78.1506 130.268 78.175C130.315 78.1533 128.319 83.3786 124.492 85.6246V85.6273Z" fill="url(#paint16_linear_2445_19857)"/>
<path d="M118.354 71.1859C119.398 74.8822 122.314 77.1771 122.335 77.1663C122.354 77.2097 124.234 72.6226 122.928 68.7552C121.647 64.9259 118.161 63.5761 118.183 63.5625C118.199 63.5978 117.326 67.5141 118.351 71.1832L118.354 71.1859Z" fill="url(#paint17_linear_2445_19857)"/>
<path d="M129.219 75.0724C125.893 77.9268 122.195 77.0822 122.211 77.1066C122.246 77.0876 123.968 72.7477 126.951 69.8933C129.967 67.0308 133.612 66.7293 133.628 66.751C133.671 66.7239 132.586 72.2018 129.219 75.0724Z" fill="url(#paint18_linear_2445_19857)"/>
<path d="M120.783 62.0131C122.422 65.4568 125.659 67.1869 125.681 67.1706C125.708 67.2113 126.782 62.3771 124.859 58.803C122.964 55.2615 119.322 54.5554 119.344 54.5391C119.366 54.5717 119.164 58.5911 120.783 62.0131Z" fill="url(#paint19_linear_2445_19857)"/>
<path d="M132.074 63.8879C129.292 67.2855 125.525 67.1144 125.547 67.1334C125.577 67.1089 126.542 62.5463 128.987 59.2003C131.462 55.8408 134.979 54.8875 135 54.9065C135.038 54.8739 134.894 60.4659 132.074 63.8852V63.8879Z" fill="url(#paint20_linear_2445_19857)"/>
<path d="M121.63 52.5412C123.813 55.6481 127.273 56.7671 127.292 56.7508C127.324 56.7861 127.569 51.8296 125.075 48.6358C122.614 45.469 118.926 45.4202 118.945 45.3984C118.973 45.4283 119.47 49.4532 121.63 52.5412Z" fill="url(#paint21_linear_2445_19857)"/>
<path d="M132.997 52.3689C130.846 56.22 127.128 56.7251 127.152 56.7414C127.177 56.7116 127.359 52.043 129.181 48.2924C131.031 44.5228 134.302 42.9448 134.327 42.9611C134.359 42.9231 135.183 48.4906 132.997 52.3689Z" fill="url(#paint22_linear_2445_19857)"/>
<path d="M120.832 43.0057C123.511 45.6998 127.087 46.186 127.104 46.1642C127.145 46.1941 126.527 41.2377 123.514 38.5028C120.539 35.7896 116.913 36.3926 116.93 36.3708C116.965 36.3953 118.183 40.3251 120.832 43.0057Z" fill="url(#paint23_linear_2445_19857)"/>
<path d="M131.923 40.7989C130.489 45.0085 126.935 46.1709 126.962 46.1844C126.984 46.1518 126.355 41.4914 127.468 37.4285C128.602 33.3438 131.509 31.182 131.536 31.1956C131.564 31.1521 133.386 36.5567 131.92 40.7989H131.923Z" fill="url(#paint24_linear_2445_19857)"/>
<path d="M118.336 33.6525C121.458 35.8686 125.04 35.7111 125.053 35.6894C125.1 35.7138 123.596 30.8796 120.115 28.6716C116.677 26.4799 113.229 27.7183 113.242 27.6939C113.283 27.7129 115.249 31.4472 118.336 33.6525Z" fill="url(#paint25_linear_2445_19857)"/>
<path d="M128.79 29.4661C128.167 33.9255 124.89 35.718 124.923 35.7261C124.939 35.6908 123.481 31.1553 123.789 26.886C124.118 22.5922 126.538 19.9062 126.571 19.9144C126.595 19.8682 129.44 24.9686 128.787 29.4661H128.79Z" fill="url(#paint26_linear_2445_19857)"/>
<path d="M114.086 24.6986C117.597 26.3797 121.075 25.5867 121.086 25.5623C121.141 25.5813 118.717 20.9942 114.823 19.3674C110.975 17.7514 107.817 19.5955 107.828 19.5683C107.877 19.5819 110.616 23.0202 114.086 24.6959V24.6986Z" fill="url(#paint27_linear_2445_19857)"/>
<path d="M123.529 18.6593C123.809 23.2518 120.932 25.6227 120.967 25.6282C120.978 25.5901 118.664 21.2936 118.079 16.9347C117.511 12.5486 119.322 9.41173 119.357 9.41444C119.376 9.36556 123.274 14.026 123.529 18.6565V18.6593Z" fill="url(#paint28_linear_2445_19857)"/>
<path d="M108.014 16.4026C111.86 17.5025 115.12 16.0957 115.126 16.0713C115.186 16.0821 111.819 11.8671 107.565 10.8731C103.364 9.8818 100.617 12.2799 100.625 12.2528C100.679 12.2582 104.215 15.3 108.014 16.4026Z" fill="url(#paint29_linear_2445_19857)"/>
<path d="M116.058 8.66953C117.333 13.2675 114.978 16.1572 115.019 16.1572C115.025 16.1192 111.829 12.1784 110.257 7.85206C108.699 3.4958 109.77 0.000484319 109.811 0.000484319C109.825 -0.0511172 114.804 4.02811 116.058 8.66953Z" fill="url(#paint30_linear_2445_19857)"/>
<path d="M66.3597 112.828L66.4359 111.986C73.428 112.619 80.3983 111.839 87.1511 109.675C93.7325 107.565 99.8244 104.232 105.261 99.7727C116.542 90.517 123.817 77.307 125.745 62.5762C127.325 50.515 126.515 39.7656 123.335 30.6294C119.922 20.817 113.847 13.142 105.272 7.81074L105.72 7.09375C114.461 12.5282 120.657 20.3553 124.135 30.3524C127.358 39.6135 128.179 50.4933 126.583 62.6875C124.624 77.6302 117.243 91.033 105.794 100.427C100.276 104.957 94.0887 108.339 87.404 110.481C80.5397 112.681 73.4579 113.472 66.3516 112.831L66.3597 112.828Z" fill="url(#paint31_linear_2445_19857)"/>
<path d="M29.2971 2.95761C26.2756 5.70879 25.7344 10.027 25.7344 10.027C25.7344 10.027 30.0885 9.88307 33.1099 7.1319C36.1287 4.38073 36.6726 0.0625 36.6726 0.0625C36.6726 0.0625 32.3185 0.206441 29.2971 2.95761Z" fill="url(#paint32_linear_2445_19857)"/>
<path d="M50.5402 104.346C53.1401 107.679 53.2979 111.614 53.2625 111.625C53.2734 111.674 47.807 110.147 45.3512 106.473C42.8981 102.844 44.092 99.0829 44.0567 99.0938C44.0703 99.1291 47.943 101.044 50.5402 104.344V104.346Z" fill="url(#paint33_linear_2445_19857)"/>
<path d="M46.7099 115.882C51.5072 115.068 53.2995 111.445 53.2967 111.477C53.2396 111.494 48.0969 110.013 43.6666 110.532C39.1929 111.075 36.563 113.851 36.563 113.881C36.5005 113.894 41.8581 116.713 46.7071 115.88L46.7099 115.882Z" fill="url(#paint34_linear_2445_19857)"/>
<path d="M41.0491 100.186C42.8359 103.839 42.194 107.66 42.1614 107.668C42.1668 107.72 37.3613 105.335 35.7432 101.37C34.1196 97.4485 35.9662 94.0102 35.9335 94.0156C35.9417 94.0537 39.2623 96.5631 41.0491 100.186Z" fill="url(#paint35_linear_2445_19857)"/>
<path d="M35.1911 110.69C39.8553 110.703 42.2295 107.504 42.2267 107.537C42.1751 107.545 37.666 105.258 33.3663 105.016C29.0231 104.788 25.9799 107.026 25.9771 107.056C25.9173 107.061 30.4781 110.69 35.1911 110.692V110.69Z" fill="url(#paint36_linear_2445_19857)"/>
<path d="M32.8667 94.5556C33.8811 98.3958 32.5295 101.981 32.4995 101.981C32.4995 102.03 28.3821 98.9146 27.558 94.7919C26.7258 90.7153 29.13 87.6953 29.1 87.6953C29.1 87.7333 31.8468 90.7425 32.8667 94.5529V94.5556Z" fill="url(#paint37_linear_2445_19857)"/>
<path d="M25.2788 103.718C29.7308 104.525 32.5918 101.828 32.5836 101.858C32.5347 101.858 28.6865 98.8842 24.5935 97.912C20.4597 96.9478 17.1064 98.5936 17.0982 98.6208C17.0439 98.6154 20.7779 102.917 25.2761 103.718H25.2788Z" fill="url(#paint38_linear_2445_19857)"/>
<path d="M26.0268 87.6919C26.3096 91.5946 24.3433 94.8346 24.3134 94.8319C24.3053 94.8808 20.9085 91.1519 20.8378 87.002C20.7535 82.8929 23.6199 80.3726 23.59 80.3672C23.5873 80.4052 25.733 83.8163 26.024 87.6919H26.0268Z" fill="url(#paint39_linear_2445_19857)"/>
<path d="M17.0258 95.2758C21.1867 96.8238 24.4285 94.7027 24.4203 94.7299C24.3768 94.7217 21.2139 91.1775 17.4065 89.5181C13.5637 87.8614 10.0038 88.8745 9.99287 88.9016C9.9412 88.888 12.8213 93.7196 17.0258 95.273V95.2758Z" fill="url(#paint40_linear_2445_19857)"/>
<path d="M20.6022 79.8246C20.1997 83.6757 17.7086 86.4811 17.6841 86.473C17.6705 86.5192 15.0189 82.3014 15.658 78.2385C16.2808 74.2163 19.5062 72.2581 19.479 72.25C19.4709 72.288 20.9911 76.0006 20.6022 79.8246Z" fill="url(#paint41_linear_2445_19857)"/>
<path d="M10.5077 85.6273C14.2934 87.8625 17.818 86.3633 17.8044 86.3878C17.7636 86.3742 15.3105 82.3737 11.8729 80.0843C8.40271 77.7921 4.74485 78.1506 4.73125 78.175C4.68502 78.1533 6.68121 83.3786 10.5077 85.6246V85.6273Z" fill="url(#paint42_linear_2445_19857)"/>
<path d="M16.6526 71.1859C15.6083 74.8822 12.6929 77.1771 12.6711 77.1663C12.6521 77.2097 10.7729 72.6226 12.0783 68.7552C13.3592 64.9259 16.8457 63.5761 16.824 63.5625C16.8076 63.5978 17.6806 67.5141 16.6553 71.1832L16.6526 71.1859Z" fill="url(#paint43_linear_2445_19857)"/>
<path d="M5.78863 75.0724C9.11469 77.9268 12.8133 77.0822 12.797 77.1066C12.7617 77.0876 11.0402 72.7477 8.05677 69.8933C5.04074 67.0308 1.39647 66.7293 1.38016 66.751C1.33664 66.7239 2.42176 72.2018 5.78863 75.0724Z" fill="url(#paint44_linear_2445_19857)"/>
<path d="M14.2176 62.0131C12.5777 65.4568 9.34137 67.1869 9.31962 67.1706C9.29242 67.2113 8.21818 62.3771 10.1409 58.803C12.0365 55.2615 15.678 54.5554 15.6563 54.5391C15.6345 54.5717 15.8358 58.5911 14.2176 62.0131Z" fill="url(#paint45_linear_2445_19857)"/>
<path d="M2.93075 63.893C5.7129 67.2905 9.47682 67.1194 9.45779 67.1385C9.42787 67.114 8.46241 62.5514 6.01749 59.2054C3.53994 55.8486 0.0234991 54.8953 0.00446194 54.9143C-0.0336124 54.8817 0.110526 60.4737 2.93075 63.893Z" fill="url(#paint46_linear_2445_19857)"/>
<path d="M13.3711 52.5412C11.1873 55.6481 7.72797 56.7671 7.70893 56.7508C7.6763 56.7861 7.43153 51.8296 9.9254 48.6358C12.3866 45.469 16.0744 45.4202 16.0554 45.3984C16.0282 45.4283 15.5305 49.4532 13.3711 52.5412Z" fill="url(#paint47_linear_2445_19857)"/>
<path d="M2.00487 52.3689C4.15608 56.22 7.87377 56.7251 7.84929 56.7414C7.82482 56.7116 7.6426 52.043 5.82047 48.2924C3.97114 44.5228 0.699468 42.9448 0.674992 42.9611C0.642356 42.9231 -0.181682 48.4906 2.00487 52.3689Z" fill="url(#paint48_linear_2445_19857)"/>
<path d="M14.1717 43.0057C11.4929 45.6998 7.9166 46.186 7.90029 46.1642C7.85949 46.1941 8.47684 41.2377 11.4902 38.5028C14.4654 35.7896 18.0906 36.3926 18.0743 36.3708C18.0389 36.3953 16.8206 40.3251 14.1717 43.0057Z" fill="url(#paint49_linear_2445_19857)"/>
<path d="M3.07488 40.7989C4.50811 45.0085 8.06262 46.1709 8.03542 46.1844C8.01367 46.1518 8.6419 41.4914 7.52958 37.4285C6.39551 33.3438 3.48826 31.182 3.46106 31.1956C3.43386 31.1521 1.61173 36.5567 3.0776 40.7989H3.07488Z" fill="url(#paint50_linear_2445_19857)"/>
<path d="M16.6638 33.6525C13.5417 35.8686 9.95994 35.7111 9.94635 35.6894C9.90011 35.7138 11.404 30.8796 14.8851 28.6716C18.3227 26.4799 21.7712 27.7183 21.7576 27.6939C21.7168 27.7129 19.7505 31.4472 16.6638 33.6525Z" fill="url(#paint51_linear_2445_19857)"/>
<path d="M6.21174 29.4661C6.83453 33.9255 10.1116 35.718 10.079 35.7261C10.0627 35.6908 11.5204 31.1553 11.2131 26.886C10.884 22.5922 8.46357 19.9062 8.43094 19.9144C8.40646 19.8682 5.56176 24.9686 6.21446 29.4661H6.21174Z" fill="url(#paint52_linear_2445_19857)"/>
<path d="M20.9152 24.6986C17.4042 26.3797 13.9258 25.5867 13.915 25.5623C13.8606 25.5813 16.2837 20.9942 20.1782 19.3674C24.0264 17.7514 27.1839 19.5955 27.173 19.5683C27.124 19.5819 24.3854 23.0202 20.9152 24.6959V24.6986Z" fill="url(#paint53_linear_2445_19857)"/>
<path d="M11.4801 18.6593C11.2 23.2518 14.0774 25.6227 14.042 25.6282C14.0311 25.5901 16.3455 21.2936 16.9302 16.9347C17.4986 12.5486 15.6874 9.41173 15.652 9.41444C15.633 9.36556 11.7358 14.026 11.4801 18.6565V18.6593Z" fill="url(#paint54_linear_2445_19857)"/>
<path d="M26.9836 16.4026C23.1381 17.5025 19.8773 16.0957 19.8719 16.0713C19.812 16.0821 23.1789 11.8671 27.4324 10.8731C31.6341 9.8818 34.3809 12.2799 34.3728 12.2528C34.3184 12.2582 30.7829 15.3 26.9836 16.4026Z" fill="url(#paint55_linear_2445_19857)"/>
<path d="M18.9377 8.66953C17.6622 13.2675 20.0174 16.1572 19.9766 16.1572C19.9712 16.1192 23.1667 12.1784 24.7386 7.85206C26.2969 3.4958 25.2227 0.000484319 25.1846 0.000484319C25.171 -0.0511172 20.1914 4.02811 18.9377 8.66953Z" fill="url(#paint56_linear_2445_19857)"/>
<path d="M68.6428 112.828L68.5667 111.986C61.5746 112.619 54.6043 111.839 47.8515 109.675C41.2701 107.565 35.1782 104.232 29.7417 99.7727C18.4608 90.517 11.1859 77.307 9.2577 62.5762C7.67761 50.515 8.48806 39.7656 11.6673 30.6294C15.0804 20.817 21.1559 13.142 29.7308 7.81074L29.2821 7.09375C20.5413 12.5282 14.3461 20.3553 10.8677 30.3524C7.64498 39.6135 6.82366 50.4933 8.42006 62.6875C10.3782 77.6302 17.7592 91.033 29.2087 100.427C34.7267 104.957 40.9138 108.339 47.5986 110.481C54.4629 112.681 61.5447 113.472 68.651 112.831L68.6428 112.828Z" fill="url(#paint57_linear_2445_19857)"/>
<path d="M67.2523 108.523L60.8477 113.227L67.2523 117.928L73.6542 113.227L67.2523 108.523Z" fill="url(#paint58_linear_2445_19857)"/>
<defs>
<linearGradient id="paint0_linear_2445_19857" x1="50.3027" y1="59.746" x2="84.6349" y2="59.746" gradientUnits="userSpaceOnUse">
<stop stop-color="#A57D24"/>
<stop offset="0.21" stop-color="#D8BD62"/>
<stop offset="0.33" stop-color="#F1DD80"/>
<stop offset="0.52" stop-color="#FBF2A8"/>
<stop offset="0.73" stop-color="#F1DD80"/>
<stop offset="1" stop-color="#A57D24"/>
</linearGradient>
<linearGradient id="paint1_linear_2445_19857" x1="43.1886" y1="33.3968" x2="91.7211" y2="81.996" gradientUnits="userSpaceOnUse">
<stop stop-color="#A57D24"/>
<stop offset="0.21" stop-color="#D8BD62"/>
<stop offset="0.33" stop-color="#F1DD80"/>
<stop offset="0.52" stop-color="#FBF2A8"/>
<stop offset="0.73" stop-color="#F1DD80"/>
<stop offset="1" stop-color="#A57D24"/>
</linearGradient>
<linearGradient id="paint2_linear_2445_19857" x1="81.9227" y1="44.351" x2="97.6012" y2="44.351" gradientUnits="userSpaceOnUse">
<stop stop-color="#A57D24"/>
<stop offset="0.21" stop-color="#D8BD62"/>
<stop offset="0.33" stop-color="#F1DD80"/>
<stop offset="0.52" stop-color="#FBF2A8"/>
<stop offset="0.73" stop-color="#F1DD80"/>
<stop offset="1" stop-color="#A57D24"/>
</linearGradient>
<linearGradient id="paint3_linear_2445_19857" x1="80.6789" y1="35.6342" x2="97.1642" y2="52.1422" gradientUnits="userSpaceOnUse">
<stop stop-color="#A57D24"/>
<stop offset="0.21" stop-color="#D8BD62"/>
<stop offset="0.33" stop-color="#F1DD80"/>
<stop offset="0.52" stop-color="#FBF2A8"/>
<stop offset="0.73" stop-color="#F1DD80"/>
<stop offset="1" stop-color="#A57D24"/>
</linearGradient>
<linearGradient id="paint4_linear_2445_19857" x1="37.2975" y1="44.3588" x2="52.976" y2="44.3588" gradientUnits="userSpaceOnUse">
<stop stop-color="#A57D24"/>
<stop offset="0.21" stop-color="#D8BD62"/>
<stop offset="0.33" stop-color="#F1DD80"/>
<stop offset="0.52" stop-color="#FBF2A8"/>
<stop offset="0.73" stop-color="#F1DD80"/>
<stop offset="1" stop-color="#A57D24"/>
</linearGradient>
<linearGradient id="paint5_linear_2445_19857" x1="35.0812" y1="33.0065" x2="56.8298" y2="54.785" gradientUnits="userSpaceOnUse">
<stop stop-color="#A57D24"/>
<stop offset="0.21" stop-color="#D8BD62"/>
<stop offset="0.33" stop-color="#F1DD80"/>
<stop offset="0.52" stop-color="#FBF2A8"/>
<stop offset="0.73" stop-color="#F1DD80"/>
<stop offset="1" stop-color="#A57D24"/>
</linearGradient>
<linearGradient id="paint6_linear_2445_19857" x1="98.3281" y1="5.04611" x2="109.266" y2="5.04611" gradientUnits="userSpaceOnUse">
<stop stop-color="#A57D24"/>
<stop offset="0.21" stop-color="#D8BD62"/>
<stop offset="0.33" stop-color="#F1DD80"/>
<stop offset="0.52" stop-color="#FBF2A8"/>
<stop offset="0.73" stop-color="#F1DD80"/>
<stop offset="1" stop-color="#A57D24"/>
</linearGradient>
<linearGradient id="paint7_linear_2445_19857" x1="81.7328" y1="105.362" x2="91.2024" y2="105.362" gradientUnits="userSpaceOnUse">
<stop stop-color="#A57D24"/>
<stop offset="0.21" stop-color="#D8BD62"/>
<stop offset="0.33" stop-color="#F1DD80"/>
<stop offset="0.52" stop-color="#FBF2A8"/>
<stop offset="0.73" stop-color="#F1DD80"/>
<stop offset="1" stop-color="#A57D24"/>
</linearGradient>
<linearGradient id="paint8_linear_2445_19857" x1="81.7031" y1="113.229" x2="98.4341" y2="113.229" gradientUnits="userSpaceOnUse">
<stop stop-color="#A57D24"/>
<stop offset="0.21" stop-color="#D8BD62"/>
<stop offset="0.33" stop-color="#F1DD80"/>
<stop offset="0.52" stop-color="#FBF2A8"/>
<stop offset="0.73" stop-color="#F1DD80"/>
<stop offset="1" stop-color="#A57D24"/>
</linearGradient>
<linearGradient id="paint9_linear_2445_19857" x1="92.6951" y1="100.841" x2="99.9211" y2="100.841" gradientUnits="userSpaceOnUse">
<stop stop-color="#A57D24"/>
<stop offset="0.21" stop-color="#D8BD62"/>
<stop offset="0.33" stop-color="#F1DD80"/>
<stop offset="0.52" stop-color="#FBF2A8"/>
<stop offset="0.73" stop-color="#F1DD80"/>
<stop offset="1" stop-color="#A57D24"/>
</linearGradient>
<linearGradient id="paint10_linear_2445_19857" x1="92.7734" y1="107.844" x2="109.023" y2="107.844" gradientUnits="userSpaceOnUse">
<stop stop-color="#A57D24"/>
<stop offset="0.21" stop-color="#D8BD62"/>
<stop offset="0.33" stop-color="#F1DD80"/>
<stop offset="0.52" stop-color="#FBF2A8"/>
<stop offset="0.73" stop-color="#F1DD80"/>
<stop offset="1" stop-color="#A57D24"/>
</linearGradient>
<linearGradient id="paint11_linear_2445_19857" x1="101.763" y1="94.8408" x2="107.621" y2="94.8408" gradientUnits="userSpaceOnUse">
<stop stop-color="#A57D24"/>
<stop offset="0.21" stop-color="#D8BD62"/>
<stop offset="0.33" stop-color="#F1DD80"/>
<stop offset="0.52" stop-color="#FBF2A8"/>
<stop offset="0.73" stop-color="#F1DD80"/>
<stop offset="1" stop-color="#A57D24"/>
</linearGradient>
<linearGradient id="paint12_linear_2445_19857" x1="102.422" y1="100.739" x2="117.905" y2="100.739" gradientUnits="userSpaceOnUse">
<stop stop-color="#A57D24"/>
<stop offset="0.21" stop-color="#D8BD62"/>
<stop offset="0.33" stop-color="#F1DD80"/>
<stop offset="0.52" stop-color="#FBF2A8"/>
<stop offset="0.73" stop-color="#F1DD80"/>
<stop offset="1" stop-color="#A57D24"/>
</linearGradient>
<linearGradient id="paint13_linear_2445_19857" x1="108.943" y1="87.5995" x2="114.162" y2="87.5995" gradientUnits="userSpaceOnUse">
<stop stop-color="#A57D24"/>
<stop offset="0.21" stop-color="#D8BD62"/>
<stop offset="0.33" stop-color="#F1DD80"/>
<stop offset="0.52" stop-color="#FBF2A8"/>
<stop offset="0.73" stop-color="#F1DD80"/>
<stop offset="1" stop-color="#A57D24"/>
</linearGradient>
<linearGradient id="paint14_linear_2445_19857" x1="110.578" y1="92.2068" x2="125.006" y2="92.2068" gradientUnits="userSpaceOnUse">
<stop stop-color="#A57D24"/>
<stop offset="0.21" stop-color="#D8BD62"/>
<stop offset="0.33" stop-color="#F1DD80"/>
<stop offset="0.52" stop-color="#FBF2A8"/>
<stop offset="0.73" stop-color="#F1DD80"/>
<stop offset="1" stop-color="#A57D24"/>
</linearGradient>
<linearGradient id="paint15_linear_2445_19857" x1="114.333" y1="79.3629" x2="119.441" y2="79.3629" gradientUnits="userSpaceOnUse">
<stop stop-color="#A57D24"/>
<stop offset="0.21" stop-color="#D8BD62"/>
<stop offset="0.33" stop-color="#F1DD80"/>
<stop offset="0.52" stop-color="#FBF2A8"/>
<stop offset="0.73" stop-color="#F1DD80"/>
<stop offset="1" stop-color="#A57D24"/>
</linearGradient>
<linearGradient id="paint16_linear_2445_19857" x1="117.195" y1="82.5014" x2="130.268" y2="82.5014" gradientUnits="userSpaceOnUse">
<stop stop-color="#A57D24"/>
<stop offset="0.21" stop-color="#D8BD62"/>
<stop offset="0.33" stop-color="#F1DD80"/>
<stop offset="0.52" stop-color="#FBF2A8"/>
<stop offset="0.73" stop-color="#F1DD80"/>
<stop offset="1" stop-color="#A57D24"/>
</linearGradient>
<linearGradient id="paint17_linear_2445_19857" x1="117.854" y1="70.3657" x2="123.391" y2="70.3657" gradientUnits="userSpaceOnUse">
<stop stop-color="#A57D24"/>
<stop offset="0.21" stop-color="#D8BD62"/>
<stop offset="0.33" stop-color="#F1DD80"/>
<stop offset="0.52" stop-color="#FBF2A8"/>
<stop offset="0.73" stop-color="#F1DD80"/>
<stop offset="1" stop-color="#A57D24"/>
</linearGradient>
<linearGradient id="paint18_linear_2445_19857" x1="122.208" y1="71.9791" x2="133.628" y2="71.9791" gradientUnits="userSpaceOnUse">
<stop stop-color="#A57D24"/>
<stop offset="0.21" stop-color="#D8BD62"/>
<stop offset="0.33" stop-color="#F1DD80"/>
<stop offset="0.52" stop-color="#FBF2A8"/>
<stop offset="0.73" stop-color="#F1DD80"/>
<stop offset="1" stop-color="#A57D24"/>
</linearGradient>
<linearGradient id="paint19_linear_2445_19857" x1="119.347" y1="60.8535" x2="126.004" y2="60.8535" gradientUnits="userSpaceOnUse">
<stop stop-color="#A57D24"/>
<stop offset="0.21" stop-color="#D8BD62"/>
<stop offset="0.33" stop-color="#F1DD80"/>
<stop offset="0.52" stop-color="#FBF2A8"/>
<stop offset="0.73" stop-color="#F1DD80"/>
<stop offset="1" stop-color="#A57D24"/>
</linearGradient>
<linearGradient id="paint20_linear_2445_19857" x1="125.547" y1="61.0227" x2="135.006" y2="61.0227" gradientUnits="userSpaceOnUse">
<stop stop-color="#A57D24"/>
<stop offset="0.21" stop-color="#D8BD62"/>
<stop offset="0.33" stop-color="#F1DD80"/>
<stop offset="0.52" stop-color="#FBF2A8"/>
<stop offset="0.73" stop-color="#F1DD80"/>
<stop offset="1" stop-color="#A57D24"/>
</linearGradient>
<linearGradient id="paint21_linear_2445_19857" x1="118.948" y1="51.0746" x2="127.314" y2="51.0746" gradientUnits="userSpaceOnUse">
<stop stop-color="#A57D24"/>
<stop offset="0.21" stop-color="#D8BD62"/>
<stop offset="0.33" stop-color="#F1DD80"/>
<stop offset="0.52" stop-color="#FBF2A8"/>
<stop offset="0.73" stop-color="#F1DD80"/>
<stop offset="1" stop-color="#A57D24"/>
</linearGradient>
<linearGradient id="paint22_linear_2445_19857" x1="127.152" y1="49.8513" x2="134.506" y2="49.8513" gradientUnits="userSpaceOnUse">
<stop stop-color="#A57D24"/>
<stop offset="0.21" stop-color="#D8BD62"/>
<stop offset="0.33" stop-color="#F1DD80"/>
<stop offset="0.52" stop-color="#FBF2A8"/>
<stop offset="0.73" stop-color="#F1DD80"/>
<stop offset="1" stop-color="#A57D24"/>
</linearGradient>
<linearGradient id="paint23_linear_2445_19857" x1="116.93" y1="41.2485" x2="127.104" y2="41.2485" gradientUnits="userSpaceOnUse">
<stop stop-color="#A57D24"/>
<stop offset="0.21" stop-color="#D8BD62"/>
<stop offset="0.33" stop-color="#F1DD80"/>
<stop offset="0.52" stop-color="#FBF2A8"/>
<stop offset="0.73" stop-color="#F1DD80"/>
<stop offset="1" stop-color="#A57D24"/>
</linearGradient>
<linearGradient id="paint24_linear_2445_19857" x1="126.807" y1="38.6886" x2="132.494" y2="38.6886" gradientUnits="userSpaceOnUse">
<stop stop-color="#A57D24"/>
<stop offset="0.21" stop-color="#D8BD62"/>
<stop offset="0.33" stop-color="#F1DD80"/>
<stop offset="0.52" stop-color="#FBF2A8"/>
<stop offset="0.73" stop-color="#F1DD80"/>
<stop offset="1" stop-color="#A57D24"/>
</linearGradient>
<linearGradient id="paint25_linear_2445_19857" x1="113.242" y1="31.5314" x2="125.056" y2="31.5314" gradientUnits="userSpaceOnUse">
<stop stop-color="#A57D24"/>
<stop offset="0.21" stop-color="#D8BD62"/>
<stop offset="0.33" stop-color="#F1DD80"/>
<stop offset="0.52" stop-color="#FBF2A8"/>
<stop offset="0.73" stop-color="#F1DD80"/>
<stop offset="1" stop-color="#A57D24"/>
</linearGradient>
<linearGradient id="paint26_linear_2445_19857" x1="123.745" y1="27.823" x2="128.885" y2="27.823" gradientUnits="userSpaceOnUse">
<stop stop-color="#A57D24"/>
<stop offset="0.21" stop-color="#D8BD62"/>
<stop offset="0.33" stop-color="#F1DD80"/>
<stop offset="0.52" stop-color="#FBF2A8"/>
<stop offset="0.73" stop-color="#F1DD80"/>
<stop offset="1" stop-color="#A57D24"/>
</linearGradient>
<linearGradient id="paint27_linear_2445_19857" x1="107.831" y1="22.2353" x2="121.086" y2="22.2353" gradientUnits="userSpaceOnUse">
<stop stop-color="#A57D24"/>
<stop offset="0.21" stop-color="#D8BD62"/>
<stop offset="0.33" stop-color="#F1DD80"/>
<stop offset="0.52" stop-color="#FBF2A8"/>
<stop offset="0.73" stop-color="#F1DD80"/>
<stop offset="1" stop-color="#A57D24"/>
</linearGradient>
<linearGradient id="paint28_linear_2445_19857" x1="117.97" y1="17.524" x2="123.548" y2="17.524" gradientUnits="userSpaceOnUse">
<stop stop-color="#A57D24"/>
<stop offset="0.21" stop-color="#D8BD62"/>
<stop offset="0.33" stop-color="#F1DD80"/>
<stop offset="0.52" stop-color="#FBF2A8"/>
<stop offset="0.73" stop-color="#F1DD80"/>
<stop offset="1" stop-color="#A57D24"/>
</linearGradient>
<linearGradient id="paint29_linear_2445_19857" x1="100.625" y1="13.7275" x2="115.126" y2="13.7275" gradientUnits="userSpaceOnUse">
<stop stop-color="#A57D24"/>
<stop offset="0.21" stop-color="#D8BD62"/>
<stop offset="0.33" stop-color="#F1DD80"/>
<stop offset="0.52" stop-color="#FBF2A8"/>
<stop offset="0.73" stop-color="#F1DD80"/>
<stop offset="1" stop-color="#A57D24"/>
</linearGradient>
<linearGradient id="paint30_linear_2445_19857" x1="109.414" y1="8.08019" x2="116.436" y2="8.08019" gradientUnits="userSpaceOnUse">
<stop stop-color="#A57D24"/>
<stop offset="0.21" stop-color="#D8BD62"/>
<stop offset="0.33" stop-color="#F1DD80"/>
<stop offset="0.52" stop-color="#FBF2A8"/>
<stop offset="0.73" stop-color="#F1DD80"/>
<stop offset="1" stop-color="#A57D24"/>
</linearGradient>
<linearGradient id="paint31_linear_2445_19857" x1="66.3597" y1="60.0667" x2="127.379" y2="60.0667" gradientUnits="userSpaceOnUse">
<stop stop-color="#A57D24"/>
<stop offset="0.21" stop-color="#D8BD62"/>
<stop offset="0.33" stop-color="#F1DD80"/>
<stop offset="0.52" stop-color="#FBF2A8"/>
<stop offset="0.73" stop-color="#F1DD80"/>
<stop offset="1" stop-color="#A57D24"/>
</linearGradient>
<linearGradient id="paint32_linear_2445_19857" x1="25.7317" y1="5.04611" x2="36.6726" y2="5.04611" gradientUnits="userSpaceOnUse">
<stop stop-color="#A57D24"/>
<stop offset="0.21" stop-color="#D8BD62"/>
<stop offset="0.33" stop-color="#F1DD80"/>
<stop offset="0.52" stop-color="#FBF2A8"/>
<stop offset="0.73" stop-color="#F1DD80"/>
<stop offset="1" stop-color="#A57D24"/>
</linearGradient>
<linearGradient id="paint33_linear_2445_19857" x1="43.7983" y1="105.362" x2="53.2652" y2="105.362" gradientUnits="userSpaceOnUse">
<stop stop-color="#A57D24"/>
<stop offset="0.21" stop-color="#D8BD62"/>
<stop offset="0.33" stop-color="#F1DD80"/>
<stop offset="0.52" stop-color="#FBF2A8"/>
<stop offset="0.73" stop-color="#F1DD80"/>
<stop offset="1" stop-color="#A57D24"/>
</linearGradient>
<linearGradient id="paint34_linear_2445_19857" x1="36.563" y1="113.229" x2="53.2967" y2="113.229" gradientUnits="userSpaceOnUse">
<stop stop-color="#A57D24"/>
<stop offset="0.21" stop-color="#D8BD62"/>
<stop offset="0.33" stop-color="#F1DD80"/>
<stop offset="0.52" stop-color="#FBF2A8"/>
<stop offset="0.73" stop-color="#F1DD80"/>
<stop offset="1" stop-color="#A57D24"/>
</linearGradient>
<linearGradient id="paint35_linear_2445_19857" x1="35.0741" y1="100.841" x2="42.3001" y2="100.841" gradientUnits="userSpaceOnUse">
<stop stop-color="#A57D24"/>
<stop offset="0.21" stop-color="#D8BD62"/>
<stop offset="0.33" stop-color="#F1DD80"/>
<stop offset="0.52" stop-color="#FBF2A8"/>
<stop offset="0.73" stop-color="#F1DD80"/>
<stop offset="1" stop-color="#A57D24"/>
</linearGradient>
<linearGradient id="paint36_linear_2445_19857" x1="25.9744" y1="107.844" x2="42.2267" y2="107.844" gradientUnits="userSpaceOnUse">
<stop stop-color="#A57D24"/>
<stop offset="0.21" stop-color="#D8BD62"/>
<stop offset="0.33" stop-color="#F1DD80"/>
<stop offset="0.52" stop-color="#FBF2A8"/>
<stop offset="0.73" stop-color="#F1DD80"/>
<stop offset="1" stop-color="#A57D24"/>
</linearGradient>
<linearGradient id="paint37_linear_2445_19857" x1="27.3813" y1="94.8408" x2="33.242" y2="94.8408" gradientUnits="userSpaceOnUse">
<stop stop-color="#A57D24"/>
<stop offset="0.21" stop-color="#D8BD62"/>
<stop offset="0.33" stop-color="#F1DD80"/>
<stop offset="0.52" stop-color="#FBF2A8"/>
<stop offset="0.73" stop-color="#F1DD80"/>
<stop offset="1" stop-color="#A57D24"/>
</linearGradient>
<linearGradient id="paint38_linear_2445_19857" x1="17.0982" y1="100.739" x2="32.5836" y2="100.739" gradientUnits="userSpaceOnUse">
<stop stop-color="#A57D24"/>
<stop offset="0.21" stop-color="#D8BD62"/>
<stop offset="0.33" stop-color="#F1DD80"/>
<stop offset="0.52" stop-color="#FBF2A8"/>
<stop offset="0.73" stop-color="#F1DD80"/>
<stop offset="1" stop-color="#A57D24"/>
</linearGradient>
<linearGradient id="paint39_linear_2445_19857" x1="20.8378" y1="87.5995" x2="26.054" y2="87.5995" gradientUnits="userSpaceOnUse">
<stop stop-color="#A57D24"/>
<stop offset="0.21" stop-color="#D8BD62"/>
<stop offset="0.33" stop-color="#F1DD80"/>
<stop offset="0.52" stop-color="#FBF2A8"/>
<stop offset="0.73" stop-color="#F1DD80"/>
<stop offset="1" stop-color="#A57D24"/>
</linearGradient>
<linearGradient id="paint40_linear_2445_19857" x1="9.99287" y1="92.2068" x2="24.4203" y2="92.2068" gradientUnits="userSpaceOnUse">
<stop stop-color="#A57D24"/>
<stop offset="0.21" stop-color="#D8BD62"/>
<stop offset="0.33" stop-color="#F1DD80"/>
<stop offset="0.52" stop-color="#FBF2A8"/>
<stop offset="0.73" stop-color="#F1DD80"/>
<stop offset="1" stop-color="#A57D24"/>
</linearGradient>
<linearGradient id="paint41_linear_2445_19857" x1="15.5601" y1="79.3629" x2="20.6675" y2="79.3629" gradientUnits="userSpaceOnUse">
<stop stop-color="#A57D24"/>
<stop offset="0.21" stop-color="#D8BD62"/>
<stop offset="0.33" stop-color="#F1DD80"/>
<stop offset="0.52" stop-color="#FBF2A8"/>
<stop offset="0.73" stop-color="#F1DD80"/>
<stop offset="1" stop-color="#A57D24"/>
</linearGradient>
<linearGradient id="paint42_linear_2445_19857" x1="4.73125" y1="82.5014" x2="17.8044" y2="82.5014" gradientUnits="userSpaceOnUse">
<stop stop-color="#A57D24"/>
<stop offset="0.21" stop-color="#D8BD62"/>
<stop offset="0.33" stop-color="#F1DD80"/>
<stop offset="0.52" stop-color="#FBF2A8"/>
<stop offset="0.73" stop-color="#F1DD80"/>
<stop offset="1" stop-color="#A57D24"/>
</linearGradient>
<linearGradient id="paint43_linear_2445_19857" x1="11.6159" y1="70.3657" x2="17.153" y2="70.3657" gradientUnits="userSpaceOnUse">
<stop stop-color="#A57D24"/>
<stop offset="0.21" stop-color="#D8BD62"/>
<stop offset="0.33" stop-color="#F1DD80"/>
<stop offset="0.52" stop-color="#FBF2A8"/>
<stop offset="0.73" stop-color="#F1DD80"/>
<stop offset="1" stop-color="#A57D24"/>
</linearGradient>
<linearGradient id="paint44_linear_2445_19857" x1="1.38016" y1="71.9791" x2="12.797" y2="71.9791" gradientUnits="userSpaceOnUse">
<stop stop-color="#A57D24"/>
<stop offset="0.21" stop-color="#D8BD62"/>
<stop offset="0.33" stop-color="#F1DD80"/>
<stop offset="0.52" stop-color="#FBF2A8"/>
<stop offset="0.73" stop-color="#F1DD80"/>
<stop offset="1" stop-color="#A57D24"/>
</linearGradient>
<linearGradient id="paint45_linear_2445_19857" x1="8.99598" y1="60.8535" x2="15.6563" y2="60.8535" gradientUnits="userSpaceOnUse">
<stop stop-color="#A57D24"/>
<stop offset="0.21" stop-color="#D8BD62"/>
<stop offset="0.33" stop-color="#F1DD80"/>
<stop offset="0.52" stop-color="#FBF2A8"/>
<stop offset="0.73" stop-color="#F1DD80"/>
<stop offset="1" stop-color="#A57D24"/>
</linearGradient>
<linearGradient id="paint46_linear_2445_19857" x1="-0.000977259" y1="61.0278" x2="9.45779" y2="61.0278" gradientUnits="userSpaceOnUse">
<stop stop-color="#A57D24"/>
<stop offset="0.21" stop-color="#D8BD62"/>
<stop offset="0.33" stop-color="#F1DD80"/>
<stop offset="0.52" stop-color="#FBF2A8"/>
<stop offset="0.73" stop-color="#F1DD80"/>
<stop offset="1" stop-color="#A57D24"/>
</linearGradient>
<linearGradient id="paint47_linear_2445_19857" x1="7.68717" y1="51.0746" x2="16.0554" y2="51.0746" gradientUnits="userSpaceOnUse">
<stop stop-color="#A57D24"/>
<stop offset="0.21" stop-color="#D8BD62"/>
<stop offset="0.33" stop-color="#F1DD80"/>
<stop offset="0.52" stop-color="#FBF2A8"/>
<stop offset="0.73" stop-color="#F1DD80"/>
<stop offset="1" stop-color="#A57D24"/>
</linearGradient>
<linearGradient id="paint48_linear_2445_19857" x1="0.495498" y1="49.8513" x2="7.84929" y2="49.8513" gradientUnits="userSpaceOnUse">
<stop stop-color="#A57D24"/>
<stop offset="0.21" stop-color="#D8BD62"/>
<stop offset="0.33" stop-color="#F1DD80"/>
<stop offset="0.52" stop-color="#FBF2A8"/>
<stop offset="0.73" stop-color="#F1DD80"/>
<stop offset="1" stop-color="#A57D24"/>
</linearGradient>
<linearGradient id="paint49_linear_2445_19857" x1="7.90029" y1="41.2485" x2="18.0743" y2="41.2485" gradientUnits="userSpaceOnUse">
<stop stop-color="#A57D24"/>
<stop offset="0.21" stop-color="#D8BD62"/>
<stop offset="0.33" stop-color="#F1DD80"/>
<stop offset="0.52" stop-color="#FBF2A8"/>
<stop offset="0.73" stop-color="#F1DD80"/>
<stop offset="1" stop-color="#A57D24"/>
</linearGradient>
<linearGradient id="paint50_linear_2445_19857" x1="2.50648" y1="38.6886" x2="8.19316" y2="38.6886" gradientUnits="userSpaceOnUse">
<stop stop-color="#A57D24"/>
<stop offset="0.21" stop-color="#D8BD62"/>
<stop offset="0.33" stop-color="#F1DD80"/>
<stop offset="0.52" stop-color="#FBF2A8"/>
<stop offset="0.73" stop-color="#F1DD80"/>
<stop offset="1" stop-color="#A57D24"/>
</linearGradient>
<linearGradient id="paint51_linear_2445_19857" x1="9.94363" y1="31.5314" x2="21.7576" y2="31.5314" gradientUnits="userSpaceOnUse">
<stop stop-color="#A57D24"/>
<stop offset="0.21" stop-color="#D8BD62"/>
<stop offset="0.33" stop-color="#F1DD80"/>
<stop offset="0.52" stop-color="#FBF2A8"/>
<stop offset="0.73" stop-color="#F1DD80"/>
<stop offset="1" stop-color="#A57D24"/>
</linearGradient>
<linearGradient id="paint52_linear_2445_19857" x1="6.11656" y1="27.823" x2="11.2539" y2="27.823" gradientUnits="userSpaceOnUse">
<stop stop-color="#A57D24"/>
<stop offset="0.21" stop-color="#D8BD62"/>
<stop offset="0.33" stop-color="#F1DD80"/>
<stop offset="0.52" stop-color="#FBF2A8"/>
<stop offset="0.73" stop-color="#F1DD80"/>
<stop offset="1" stop-color="#A57D24"/>
</linearGradient>
<linearGradient id="paint53_linear_2445_19857" x1="13.915" y1="22.2353" x2="27.173" y2="22.2353" gradientUnits="userSpaceOnUse">
<stop stop-color="#A57D24"/>
<stop offset="0.21" stop-color="#D8BD62"/>
<stop offset="0.33" stop-color="#F1DD80"/>
<stop offset="0.52" stop-color="#FBF2A8"/>
<stop offset="0.73" stop-color="#F1DD80"/>
<stop offset="1" stop-color="#A57D24"/>
</linearGradient>
<linearGradient id="paint54_linear_2445_19857" x1="11.4611" y1="17.524" x2="17.039" y2="17.524" gradientUnits="userSpaceOnUse">
<stop stop-color="#A57D24"/>
<stop offset="0.21" stop-color="#D8BD62"/>
<stop offset="0.33" stop-color="#F1DD80"/>
<stop offset="0.52" stop-color="#FBF2A8"/>
<stop offset="0.73" stop-color="#F1DD80"/>
<stop offset="1" stop-color="#A57D24"/>
</linearGradient>
<linearGradient id="paint55_linear_2445_19857" x1="19.8719" y1="13.7275" x2="34.3728" y2="13.7275" gradientUnits="userSpaceOnUse">
<stop stop-color="#A57D24"/>
<stop offset="0.21" stop-color="#D8BD62"/>
<stop offset="0.33" stop-color="#F1DD80"/>
<stop offset="0.52" stop-color="#FBF2A8"/>
<stop offset="0.73" stop-color="#F1DD80"/>
<stop offset="1" stop-color="#A57D24"/>
</linearGradient>
<linearGradient id="paint56_linear_2445_19857" x1="18.5597" y1="8.08019" x2="25.5817" y2="8.08019" gradientUnits="userSpaceOnUse">
<stop stop-color="#A57D24"/>
<stop offset="0.21" stop-color="#D8BD62"/>
<stop offset="0.33" stop-color="#F1DD80"/>
<stop offset="0.52" stop-color="#FBF2A8"/>
<stop offset="0.73" stop-color="#F1DD80"/>
<stop offset="1" stop-color="#A57D24"/>
</linearGradient>
<linearGradient id="paint57_linear_2445_19857" x1="7.62322" y1="60.0667" x2="68.6428" y2="60.0667" gradientUnits="userSpaceOnUse">
<stop stop-color="#A57D24"/>
<stop offset="0.21" stop-color="#D8BD62"/>
<stop offset="0.33" stop-color="#F1DD80"/>
<stop offset="0.52" stop-color="#FBF2A8"/>
<stop offset="0.73" stop-color="#F1DD80"/>
<stop offset="1" stop-color="#A57D24"/>
</linearGradient>
<linearGradient id="paint58_linear_2445_19857" x1="60.8477" y1="113.227" x2="73.6542" y2="113.227" gradientUnits="userSpaceOnUse">
<stop stop-color="#A57D24"/>
<stop offset="0.21" stop-color="#D8BD62"/>
<stop offset="0.33" stop-color="#F1DD80"/>
<stop offset="0.52" stop-color="#FBF2A8"/>
<stop offset="0.73" stop-color="#F1DD80"/>
<stop offset="1" stop-color="#A57D24"/>
</linearGradient>
</defs>
</svg>
