<svg width="67" height="67" viewBox="0 0 67 67" fill="none" xmlns="http://www.w3.org/2000/svg">
<mask id="mask0_2453_21690" style="mask-type:alpha" maskUnits="userSpaceOnUse" x="0" y="0" width="67" height="67">
<rect x="2.85156" y="0.617188" width="64" height="64" transform="rotate(2 2.85156 0.617188)" fill="#D9D9D9"/>
</mask>
<g mask="url(#mask0_2453_21690)">
<path d="M10.2096 19.1447L10.3458 15.2444C10.3814 14.2228 10.7707 13.365 11.5136 12.671C12.257 11.9769 13.1405 11.6478 14.1644 11.6835L54.7556 13.101C55.7772 13.1367 56.635 13.5266 57.329 14.2709C58.023 15.0151 58.3522 15.898 58.3165 16.9196L58.1803 20.8199L56.1302 20.7483L56.2664 16.848C56.2831 16.3701 56.1432 15.9719 55.8465 15.6533C55.5495 15.3352 55.162 15.1678 54.684 15.1511L14.0928 13.7336C13.6148 13.7169 13.2166 13.8569 12.8981 14.1535C12.5799 14.4506 12.4125 14.8381 12.3958 15.316L12.2596 19.2163L10.2096 19.1447ZM25.2836 54.7645L25.4698 49.4344L12.8614 48.9941C11.8376 48.9584 10.9792 48.5684 10.286 47.8242C9.59337 47.08 9.26487 46.1971 9.30054 45.1755L9.44356 41.08L11.4936 41.1516L11.3506 45.2471C11.3339 45.7251 11.4739 46.1233 11.7705 46.4418C12.0676 46.76 12.4551 46.9274 12.933 46.944L53.5243 48.3615C54.0022 48.3782 54.4005 48.2382 54.719 47.9416C55.0371 47.6446 55.2045 47.257 55.2212 46.7791L55.3642 42.6836L57.4143 42.7552L57.2713 46.8507C57.2356 47.8723 56.8457 48.7301 56.1015 49.4241C55.3572 50.1181 54.4743 50.4473 53.4527 50.4116L40.8444 49.9713L40.6583 55.3014L25.2836 54.7645ZM12.7547 30.3124L20.3609 23.2195L18.9463 21.7025L9.82315 30.21L18.3306 39.3331L19.8476 37.9185L12.7547 30.3124ZM54.8624 31.7828L47.2562 38.8757L48.6708 40.3926L57.7939 31.8852L49.2865 22.762L47.7695 24.1766L54.8624 31.7828Z" fill="#FF8C00"/>
</g>
</svg>
