<svg width="456" height="456" viewBox="0 0 456 456" fill="none" xmlns="http://www.w3.org/2000/svg">
<path d="M231.253 171.93H45.9764C45.7822 171.93 45.625 171.773 45.625 171.579V98.5388C45.625 98.3446 45.7822 98.1875 45.9764 98.1875H206.628C206.823 98.1875 206.98 98.3446 206.98 98.5388V135.059C206.98 135.253 206.823 135.41 206.628 135.41C206.434 135.41 206.277 135.253 206.277 135.059V98.8901H46.3278V171.227H231.253C231.447 171.227 231.604 171.384 231.604 171.579C231.604 171.773 231.447 171.93 231.253 171.93Z" fill="black"/>
<path d="M156.434 86.6484H82.7949V110.456H156.434V86.6484Z" fill="#E2EAFF"/>
<path d="M124.809 103.876C124.719 103.876 124.63 103.841 124.561 103.773C124.424 103.636 124.424 103.413 124.561 103.276L129.29 98.5472L124.561 93.8184C124.424 93.6812 124.424 93.4588 124.561 93.3216C124.698 93.1845 124.921 93.1845 125.058 93.3216L130.035 98.2988C130.173 98.436 130.173 98.6584 130.035 98.7956L125.058 103.773C124.989 103.841 124.899 103.876 124.809 103.876Z" fill="black"/>
<path d="M114.422 103.876C114.332 103.876 114.242 103.841 114.173 103.773L109.196 98.7956C109.058 98.6584 109.058 98.436 109.196 98.2988L114.173 93.3216C114.31 93.1845 114.533 93.1845 114.67 93.3216C114.807 93.4588 114.807 93.6812 114.67 93.8184L109.941 98.5472L114.67 103.276C114.807 103.413 114.807 103.636 114.67 103.773C114.601 103.841 114.511 103.876 114.422 103.876Z" fill="black"/>
<path d="M116.964 104.002C116.911 104.002 116.856 103.989 116.806 103.964C116.633 103.875 116.564 103.664 116.651 103.491L121.841 93.2938C121.929 93.1206 122.141 93.052 122.313 93.1397C122.486 93.2279 122.555 93.4392 122.467 93.6121L117.278 103.809C117.216 103.932 117.093 104.002 116.964 104.002Z" fill="black"/>
<path d="M82.7945 123.172H9.15527V146.979H82.7945V123.172Z" fill="#E2EAFF"/>
<path d="M40.3075 137.341C40.1702 138.604 39.7184 139.571 38.9523 140.241C38.1861 140.911 37.1659 141.246 35.8916 141.246C35.0019 141.246 34.2152 141.024 33.5313 140.579C32.8475 140.134 32.319 139.503 31.9454 138.688C31.572 137.872 31.3824 136.94 31.377 135.891V134.334C31.377 133.269 31.5637 132.324 31.9371 131.5C32.3105 130.676 32.8474 130.041 33.5476 129.593C34.2479 129.146 35.0539 128.922 35.9657 128.922C37.2508 128.922 38.2656 129.268 39.0097 129.96C39.7539 130.652 40.1865 131.61 40.3073 132.835H39.2858C39.0332 130.797 37.9265 129.779 35.9657 129.779C34.8781 129.779 34.0117 130.185 33.3663 130.999C32.721 131.812 32.3983 132.937 32.3983 134.371V135.838C32.3983 137.223 32.7127 138.328 33.3416 139.152C33.9705 139.977 34.8205 140.389 35.8914 140.389C36.9514 140.389 37.7506 140.135 38.2889 139.627C38.8272 139.119 39.1594 138.357 39.2858 137.341H40.3075Z" fill="black"/>
<path d="M49.559 138.132C49.559 137.468 49.3255 136.942 48.8587 136.554C48.3919 136.167 47.5378 135.799 46.2966 135.451C45.0553 135.102 44.149 134.721 43.5779 134.31C42.765 133.727 42.3587 132.964 42.3587 132.019C42.3587 131.102 42.7362 130.357 43.4914 129.783C44.2466 129.209 45.2119 128.922 46.3872 128.922C47.1835 128.922 47.8963 129.076 48.525 129.383C49.1539 129.691 49.6413 130.119 49.9873 130.668C50.3333 131.218 50.5063 131.83 50.5063 132.505H49.4848C49.4848 131.685 49.2047 131.025 48.6444 130.526C48.0842 130.028 47.3318 129.779 46.3871 129.779C45.4699 129.779 44.7394 129.983 44.1956 130.393C43.6519 130.803 43.38 131.338 43.38 131.998C43.38 132.609 43.6243 133.107 44.1133 133.492C44.6021 133.877 45.3847 134.217 46.4613 134.511C47.5378 134.805 48.3533 135.11 48.908 135.426C49.4627 135.742 49.8802 136.119 50.1603 136.559C50.4404 136.998 50.5805 137.517 50.5805 138.116C50.5805 139.06 50.2029 139.818 49.4477 140.389C48.6926 140.961 47.6971 141.246 46.4613 141.246C45.6155 141.246 44.8397 141.095 44.1339 140.793C43.4282 140.491 42.8926 140.068 42.5274 139.524C42.1621 138.981 41.9795 138.357 41.9795 137.654H42.9929C42.9929 138.5 43.3087 139.167 43.9403 139.656C44.5719 140.145 45.4123 140.389 46.4613 140.389C47.395 140.389 48.1447 140.183 48.7103 139.772C49.2762 139.36 49.559 138.813 49.559 138.132Z" fill="black"/>
<path d="M59.552 138.132C59.552 137.468 59.3185 136.942 58.8517 136.554C58.3849 136.167 57.5308 135.799 56.2896 135.451C55.0483 135.102 54.1421 134.721 53.5709 134.31C52.758 133.727 52.3517 132.964 52.3517 132.019C52.3517 131.102 52.7293 130.357 53.4844 129.783C54.2396 129.209 55.2049 128.922 56.3802 128.922C57.1766 128.922 57.8893 129.076 58.5182 129.383C59.1471 129.691 59.6345 130.119 59.9805 130.668C60.3264 131.218 60.4994 131.83 60.4994 132.505H59.4779C59.4779 131.685 59.1978 131.025 58.6375 130.526C58.0774 130.028 57.3248 129.779 56.3802 129.779C55.4631 129.779 54.7325 129.983 54.1888 130.393C53.6451 130.803 53.3732 131.338 53.3732 131.998C53.3732 132.609 53.6175 133.107 54.1063 133.492C54.5951 133.877 55.3777 134.217 56.4543 134.511C57.5308 134.805 58.3463 135.11 58.9012 135.426C59.4559 135.742 59.8734 136.119 60.1534 136.559C60.4335 136.998 60.5736 137.517 60.5736 138.116C60.5736 139.06 60.1961 139.818 59.4409 140.389C58.6858 140.961 57.6903 141.246 56.4544 141.246C55.6086 141.246 54.8329 141.095 54.127 140.793C53.4214 140.491 52.8858 140.068 52.5205 139.524C52.1552 138.981 51.9727 138.357 51.9727 137.654H52.986C52.986 138.5 53.3018 139.167 53.9335 139.656C54.5651 140.145 55.4055 140.389 56.4544 140.389C57.3882 140.389 58.1379 140.183 58.7036 139.772C59.269 139.36 59.552 138.813 59.552 138.132Z" fill="black"/>
<path d="M228.235 123.312H154.596V147.12H228.235V123.312Z" fill="#E2EAFF"/>
<path d="M178.647 141.213H177.625V135.463H170.771V141.213H169.758V129.219H170.771V134.606H177.625V129.219H178.647V141.213Z" fill="black"/>
<path d="M189.596 130.075H185.485V141.213H184.472V130.075H180.369V129.219H189.596L189.596 130.075Z" fill="black"/>
<path d="M192.874 129.219L197.298 139.805L201.739 129.219H203.09V141.213H202.076V135.991L202.159 130.636L197.694 141.213H196.911L192.462 130.677L192.545 135.958V141.213H191.531V129.219H192.874Z" fill="black"/>
<path d="M207.152 140.357H213.076V141.213H206.131V129.219H207.152V140.357Z" fill="black"/>
<path d="M246.745 328.499H358.375C364.766 328.499 369.995 323.271 369.995 316.882V94.4057C369.995 88.0165 364.766 82.7891 358.374 82.7891H246.744C240.353 82.7891 235.124 88.0165 235.124 94.4057V316.882C235.124 323.271 240.353 328.499 246.745 328.499Z" fill="white"/>
<path d="M358.375 328.842H246.745C240.144 328.842 234.773 323.474 234.773 316.874V94.3977C234.773 87.7983 240.144 82.4297 246.745 82.4297H358.375C364.976 82.4297 370.347 87.7983 370.347 94.3977V316.874C370.347 323.473 364.976 328.842 358.375 328.842ZM246.745 83.1323C240.531 83.1323 235.476 88.186 235.476 94.3977V316.874C235.476 323.086 240.531 328.139 246.745 328.139H358.375C364.589 328.139 369.644 323.086 369.644 316.874V94.3977C369.644 88.186 364.589 83.1323 358.375 83.1323H246.745Z" fill="black"/>
<path d="M250.547 320.67H354.574C359.417 320.67 363.379 316.709 363.379 311.867V98.6858C363.379 93.8442 359.417 89.8828 354.574 89.8828H250.547C245.704 89.8828 241.741 93.8442 241.741 98.6858V311.867C241.741 316.709 245.704 320.67 250.547 320.67Z" fill="white"/>
<path d="M354.574 321.014H250.548C245.498 321.014 241.391 316.907 241.391 311.859V98.6779C241.391 93.63 245.498 89.5234 250.548 89.5234H354.574C359.624 89.5234 363.731 93.6299 363.731 98.6779V311.859C363.731 316.907 359.624 321.014 354.574 321.014ZM250.548 90.2262C245.886 90.2262 242.093 94.0177 242.093 98.6779V311.859C242.093 316.519 245.886 320.311 250.548 320.311H354.574C359.236 320.311 363.028 316.519 363.028 311.859V98.6779C363.028 94.0177 359.236 90.2262 354.574 90.2262H250.548Z" fill="black"/>
<path d="M315.199 97.2026H288.394C288.2 97.2026 288.043 97.0454 288.043 96.8513C288.043 96.6571 288.2 96.5 288.394 96.5H315.199C315.393 96.5 315.55 96.6571 315.55 96.8513C315.55 97.0454 315.393 97.2026 315.199 97.2026Z" fill="black"/>
<path d="M354.059 275.151H251.064C250.87 275.151 250.713 274.994 250.713 274.8V165.633C250.713 165.438 250.87 165.281 251.064 165.281H354.059C354.253 165.281 354.41 165.438 354.41 165.633V274.8C354.41 274.994 354.253 275.151 354.059 275.151ZM251.416 274.448H353.707V165.984H251.416V274.448Z" fill="black"/>
<path d="M263.567 147.732C270.472 147.732 276.07 142.134 276.07 135.229C276.07 128.324 270.472 122.727 263.567 122.727C256.661 122.727 251.063 128.324 251.063 135.229C251.063 142.134 256.661 147.732 263.567 147.732Z" fill="#E2EAFF"/>
<path d="M352.997 123.671H341.419C341.225 123.671 341.067 123.514 341.067 123.32C341.067 123.126 341.225 122.969 341.419 122.969H352.997C353.192 122.969 353.349 123.126 353.349 123.32C353.349 123.514 353.192 123.671 352.997 123.671Z" fill="black"/>
<path d="M325.788 123.671H283.192C282.998 123.671 282.841 123.514 282.841 123.32C282.841 123.126 282.998 122.969 283.192 122.969H325.788C325.982 122.969 326.139 123.126 326.139 123.32C326.139 123.514 325.982 123.671 325.788 123.671Z" fill="black"/>
<path d="M345.905 135.585H283.192C282.998 135.585 282.841 135.428 282.841 135.234C282.841 135.04 282.998 134.883 283.192 134.883H345.905C346.1 134.883 346.257 135.04 346.257 135.234C346.257 135.428 346.1 135.585 345.905 135.585Z" fill="black"/>
<path d="M352.997 147.484H316.525C316.331 147.484 316.174 147.327 316.174 147.133C316.174 146.938 316.331 146.781 316.525 146.781H352.997C353.191 146.781 353.349 146.938 353.349 147.133C353.349 147.327 353.192 147.484 352.997 147.484Z" fill="black"/>
<path d="M304.49 147.484H283.192C282.998 147.484 282.841 147.327 282.841 147.133C282.841 146.938 282.998 146.781 283.192 146.781H304.49C304.684 146.781 304.841 146.938 304.841 147.133C304.841 147.327 304.684 147.484 304.49 147.484Z" fill="black"/>
<path d="M264.122 251.12C264.06 251.12 263.997 251.104 263.94 251.069C263.773 250.968 263.721 250.752 263.822 250.586L291.645 204.895C291.707 204.793 291.817 204.73 291.937 204.727C292.057 204.735 292.169 204.782 292.236 204.881L323.255 250.572C323.365 250.732 323.323 250.951 323.162 251.06C323.001 251.169 322.783 251.127 322.674 250.966L291.962 205.727L264.422 250.951C264.356 251.06 264.241 251.12 264.122 251.12Z" fill="#FF8C00"/>
<path d="M340.999 235.924C340.894 235.924 340.79 235.878 340.72 235.788L321.4 210.855L311.41 224.906C311.297 225.064 311.078 225.102 310.919 224.989C310.761 224.877 310.724 224.658 310.836 224.5L321.101 210.062C321.166 209.971 321.27 209.916 321.381 209.914C321.485 209.913 321.598 209.962 321.666 210.05L341.276 235.358C341.395 235.511 341.367 235.732 341.213 235.851C341.15 235.901 341.074 235.924 340.999 235.924Z" fill="#FF8C00"/>
<path d="M332.33 202.414C328.698 202.414 325.743 199.46 325.743 195.828C325.743 192.196 328.698 189.242 332.33 189.242C335.962 189.242 338.916 192.197 338.916 195.828C338.916 199.46 335.962 202.414 332.33 202.414ZM332.33 189.945C329.086 189.945 326.446 192.584 326.446 195.828C326.446 199.072 329.086 201.711 332.33 201.711C335.574 201.711 338.213 199.072 338.213 195.828C338.213 192.584 335.574 189.945 332.33 189.945Z" fill="#FF8C00"/>
<path d="M296.849 242.309C296.552 242.309 296.256 242.286 295.963 242.241C293.168 241.805 291.013 239.352 289.448 237.264C289.219 236.958 288.991 236.648 288.763 236.337C287.355 234.42 285.899 232.437 283.958 231.345C282.698 230.636 281.165 230.46 279.858 230.877C278.811 231.211 278.02 231.891 277.569 232.846C277.486 233.021 277.276 233.097 277.101 233.014C276.925 232.931 276.85 232.721 276.933 232.546C277.469 231.41 278.407 230.602 279.644 230.208C281.134 229.733 282.876 229.929 284.303 230.733C286.377 231.899 287.878 233.944 289.329 235.921C289.557 236.23 289.783 236.538 290.011 236.842C291.496 238.824 293.527 241.15 296.072 241.546C298.095 241.863 300.411 240.858 302.259 238.861C303.972 237.009 305.149 234.615 306.288 232.299C306.373 232.125 306.582 232.054 306.758 232.139C306.932 232.225 307.004 232.435 306.918 232.609C305.757 234.97 304.557 237.411 302.775 239.338C300.998 241.258 298.882 242.309 296.849 242.309Z" fill="#FF8C00"/>
<path d="M69.8416 319.036C95.4133 319.036 116.143 298.307 116.143 272.737C116.143 247.166 95.4133 226.438 69.8416 226.438C44.27 226.438 23.54 247.166 23.54 272.737C23.54 298.307 44.27 319.036 69.8416 319.036Z" fill="white"/>
<path d="M69.8424 319.379C44.118 319.379 23.1895 298.452 23.1895 272.728C23.1895 247.005 44.118 226.078 69.8424 226.078C95.5668 226.078 116.495 247.005 116.495 272.728C116.495 298.452 95.5668 319.379 69.8424 319.379ZM69.8424 226.781C44.5055 226.781 23.8923 247.393 23.8923 272.728C23.8923 298.064 44.5055 318.676 69.8424 318.676C95.1794 318.676 115.793 298.064 115.793 272.728C115.792 247.393 95.1794 226.781 69.8424 226.781Z" fill="black"/>
<path d="M72.1961 302.245C72.1875 302.245 72.179 302.245 72.1704 302.244C50.5609 300.679 45.4758 289.853 45.2699 289.393C45.1909 289.216 45.2699 289.009 45.447 288.929C45.6237 288.85 45.8315 288.929 45.9114 289.105C45.9604 289.215 51.0684 300.012 72.2213 301.544C72.4149 301.558 72.5605 301.726 72.5464 301.92C72.5327 302.104 72.3787 302.245 72.1961 302.245Z" fill="black"/>
<path d="M14.1532 365.872C14.1045 365.872 14.0552 365.862 14.008 365.841C13.8312 365.76 13.7531 365.552 13.8332 365.375L39.8537 308.112C39.9336 307.936 40.1406 307.857 40.319 307.938C40.4954 308.018 40.5737 308.227 40.4933 308.403L14.4733 365.666C14.4144 365.796 14.2866 365.872 14.1532 365.872Z" fill="black"/>
<path d="M15.9002 369.845C15.9002 371.685 14.4093 373.175 12.5701 373.175C10.7311 373.175 9.24023 371.685 9.24023 369.845C9.24023 368.006 10.7311 366.516 12.5701 366.516C14.4092 366.516 15.9002 368.006 15.9002 369.845Z" fill="black"/>
<path d="M125.53 365.872C125.396 365.872 125.269 365.796 125.21 365.666L99.1898 308.403C99.1095 308.227 99.1877 308.018 99.364 307.938C99.5421 307.857 99.7494 307.936 99.8294 308.112L125.85 365.375C125.93 365.552 125.852 365.76 125.675 365.841C125.628 365.862 125.579 365.872 125.53 365.872Z" fill="black"/>
<path d="M123.783 369.845C123.783 371.685 125.274 373.175 127.113 373.175C128.952 373.175 130.443 371.685 130.443 369.845C130.443 368.006 128.952 366.516 127.113 366.516C125.274 366.516 123.783 368.006 123.783 369.845Z" fill="black"/>
<path d="M170.301 373.413H117.357C110.271 373.413 105.395 366.298 107.952 359.689L137.706 282.781H192.595L162.922 359.477L172.104 369.243C173.589 370.823 172.469 373.413 170.301 373.413Z" fill="white"/>
<path d="M170.3 373.756H117.356C113.913 373.756 110.695 372.061 108.748 369.221C106.801 366.38 106.38 362.767 107.623 359.554L137.377 282.647C137.43 282.511 137.56 282.422 137.705 282.422H192.594C192.71 282.422 192.818 282.479 192.883 282.575C192.949 282.67 192.963 282.792 192.921 282.9L163.328 359.389L172.359 368.994C173.144 369.829 173.348 371 172.894 372.052C172.439 373.103 171.445 373.756 170.3 373.756ZM137.946 283.125L108.278 359.808C107.102 362.849 107.484 366.134 109.328 368.824C111.171 371.512 114.097 373.053 117.357 373.053H170.3C171.16 373.053 171.907 372.563 172.249 371.773C172.591 370.983 172.437 370.103 171.847 369.475L162.665 359.709C162.572 359.611 162.545 359.468 162.593 359.342L192.081 283.125H137.946V283.125Z" fill="black"/>
<path d="M162.816 359.742H116.473C116.279 359.742 116.122 359.584 116.122 359.39C116.122 359.196 116.279 359.039 116.473 359.039H162.816C163.01 359.039 163.168 359.196 163.168 359.39C163.168 359.584 163.01 359.742 162.816 359.742Z" fill="black"/>
<path d="M64.2021 258.016L58.8322 273.602C54.8167 285.257 63.4756 297.398 75.8037 297.398H152.499L186.613 367.267C188.614 371.365 192.776 373.964 197.337 373.964H252.945C254.517 373.964 255.172 371.952 253.901 371.026L239.036 360.203L206.527 283.997C199.806 268.24 184.328 258.016 167.197 258.016L64.2021 258.016Z" fill="white"/>
<path d="M252.945 374.307H197.337C192.676 374.307 188.343 371.601 186.298 367.413L152.279 297.741H75.8038C69.814 297.741 64.3836 294.944 60.9048 290.069C57.4248 285.191 56.5483 279.144 58.5001 273.479L63.8698 257.893C63.9184 257.751 64.052 257.656 64.202 257.656H167.197C184.498 257.656 200.063 267.938 206.851 283.851L239.322 359.968L254.108 370.734C254.812 371.247 255.094 372.114 254.823 372.943C254.554 373.772 253.816 374.307 252.945 374.307ZM64.4526 258.359L59.1646 273.708C57.288 279.156 58.1309 284.97 61.4774 289.661C64.8222 294.349 70.0442 297.038 75.8038 297.038H152.499C152.633 297.038 152.756 297.115 152.814 297.236L186.929 367.105C188.857 371.053 192.942 373.604 197.337 373.604H252.945C253.626 373.604 254.017 373.151 254.155 372.726C254.294 372.301 254.245 371.703 253.694 371.302L238.829 360.479C238.778 360.441 238.738 360.391 238.713 360.333L206.204 284.126C199.527 268.473 184.216 258.359 167.197 258.359H64.4526V258.359Z" fill="black"/>
<path d="M239.037 360.554H192.597C192.403 360.554 192.246 360.397 192.246 360.203C192.246 360.009 192.403 359.852 192.597 359.852H239.037C239.231 359.852 239.389 360.009 239.389 360.203C239.389 360.397 239.232 360.554 239.037 360.554Z" fill="black"/>
<path d="M144.626 207.492L146.606 195.102H124.557L96.5693 251.457L130.79 250.3L144.626 207.492Z" fill="white"/>
<path d="M146.105 195.086H153.251C161.851 195.086 169.618 200.227 172.978 208.142L191.413 251.573H127.396L146.105 195.086Z" fill="#FF8C00"/>
<path d="M148.86 242.187C148.82 242.187 148.78 242.18 148.74 242.166C148.558 242.099 148.464 241.897 148.53 241.715L158.295 214.95C158.731 213.753 159.254 212.542 160.408 212.031C160.585 211.951 160.793 212.032 160.871 212.209C160.95 212.387 160.87 212.594 160.692 212.673C159.791 213.073 159.34 214.136 158.955 215.191L149.191 241.956C149.138 242.098 149.004 242.187 148.86 242.187Z" fill="black"/>
<path d="M124.557 195.098L88.9194 285.42L64.8465 283.734C59.1178 283.333 55.1344 277.864 56.5135 272.29C57.7584 267.258 59.6238 261.103 62.298 255.304C66.2882 246.652 77.3869 227.628 84.327 212.512C93.9519 191.549 124.242 195.016 124.557 195.098Z" fill="#FF8C00"/>
<path d="M204.663 253.828H159.405L174.443 212.461H219.701L204.663 253.828Z" fill="#E2EAFF"/>
<path d="M145.725 248.883H206.625L204.664 254.184H143.442L145.725 248.883Z" fill="#E2EAFF"/>
<path d="M102.459 233.21L112.077 209.664L85.7696 217.972L77.9833 237.833C74.8868 245.732 80.6743 254.281 89.1587 254.34C101.534 254.425 116.924 254.517 128.615 254.505C129.857 246.247 133.653 237.979 135.876 233.665C118.815 233.418 102.459 233.21 102.459 233.21Z" fill="#FF8C00"/>
<path d="M108.537 233.554H102.46C102.343 233.554 102.233 233.495 102.168 233.398C102.103 233.301 102.09 233.178 102.134 233.07L111.753 209.524C111.826 209.344 112.032 209.257 112.211 209.331C112.391 209.405 112.477 209.61 112.404 209.789L102.983 232.851H108.537C108.732 232.851 108.889 233.008 108.889 233.202C108.889 233.397 108.732 233.554 108.537 233.554Z" fill="black"/>
<path d="M126.436 254.853C114.565 254.853 99.6156 254.76 89.1568 254.687C84.9966 254.659 81.2722 252.667 78.9391 249.222C76.6047 245.775 76.1372 241.576 77.6565 237.7L85.4429 217.84C85.5136 217.66 85.7174 217.571 85.8984 217.641C86.0789 217.712 86.1681 217.916 86.0971 218.097L78.3106 237.957C76.8771 241.614 77.3185 245.576 79.5211 248.828C81.7224 252.078 85.2364 253.958 89.1616 253.985C100.27 254.062 116.442 254.165 128.615 254.15C128.809 254.15 128.966 254.307 128.967 254.501C128.967 254.694 128.81 254.852 128.616 254.852C127.903 254.853 127.175 254.853 126.436 254.853Z" fill="black"/>
<path d="M135.876 233.664C133.654 237.978 129.858 246.247 128.615 254.504C138.211 254.494 158.509 254.414 159.405 254.202C162.294 253.52 157.721 233.664 135.876 233.664Z" fill="white"/>
<path d="M96.5678 233.936C96.3802 233.936 96.2242 233.788 96.2171 233.599C96.2096 233.405 96.3605 233.241 96.5544 233.234L100.744 233.071C100.943 233.061 101.102 233.214 101.109 233.408C101.116 233.602 100.966 233.765 100.772 233.773L96.5819 233.936C96.5772 233.936 96.5728 233.936 96.5678 233.936Z" fill="black"/>
<path d="M155.193 253.909C155.026 253.909 154.877 253.789 154.847 253.618C154.261 250.231 152.506 247.125 149.907 244.874C147.307 242.624 143.983 241.331 140.547 241.234C140.353 241.229 140.2 241.067 140.205 240.873C140.211 240.679 140.379 240.53 140.567 240.531C144.165 240.633 147.645 241.987 150.367 244.343C153.088 246.7 154.926 249.951 155.54 253.498C155.573 253.689 155.445 253.871 155.254 253.904C155.234 253.908 155.213 253.909 155.193 253.909Z" fill="black"/>
<path d="M149.655 253.456C149.529 253.456 149.407 253.388 149.344 253.268C147.366 249.522 143.523 246.897 139.313 246.419C139.12 246.398 138.981 246.224 139.003 246.031C139.025 245.838 139.193 245.697 139.392 245.721C143.829 246.225 147.881 248.991 149.966 252.94C150.056 253.112 149.99 253.324 149.819 253.415C149.767 253.443 149.711 253.456 149.655 253.456Z" fill="black"/>
<path d="M163.398 168.503C163.877 163.817 161.872 158.811 157.937 156.22C154.002 153.63 148.227 153.938 144.956 157.327C144.42 157.881 143.888 158.542 143.128 158.673C142.338 158.808 141.596 158.322 140.874 157.973C138.067 156.612 134.393 157.357 132.337 159.703C130.281 162.049 130.026 165.789 131.744 168.393C130.521 168.525 129.606 169.702 129.426 170.919C129.245 172.135 129.649 173.363 130.17 174.477C132.425 179.296 137.099 182.905 142.331 183.868C151.929 185.635 162.393 178.34 163.398 168.503Z" fill="black"/>
<path d="M145.217 195.302H144.449C143.757 195.302 143.293 194.594 143.569 193.96L146.583 187.043C146.583 187.043 148.192 173.23 135.078 179.688L128.891 193.103C128.272 194.444 126.931 195.302 125.454 195.302C125.454 195.302 136.308 204.912 145.217 195.302Z" fill="white"/>
<path d="M136.172 199.893C130.223 199.893 125.296 195.621 125.222 195.556C125.113 195.459 125.075 195.305 125.126 195.169C125.178 195.032 125.309 194.942 125.455 194.942C126.79 194.942 128.013 194.159 128.572 192.947L134.759 179.532C134.793 179.459 134.851 179.4 134.923 179.364C139.027 177.343 142.169 177.066 144.26 178.541C147.61 180.904 146.962 186.823 146.933 187.074C146.928 187.109 146.919 187.142 146.906 187.174L143.892 194.091C143.809 194.283 143.826 194.492 143.94 194.667C144.055 194.842 144.24 194.942 144.449 194.942H145.217C145.357 194.942 145.484 195.025 145.539 195.153C145.595 195.281 145.57 195.43 145.475 195.532C142.442 198.803 139.177 199.893 136.172 199.893ZM126.338 195.548C127.354 196.313 129.478 197.742 132.121 198.568C136.792 200.027 140.915 199.042 144.387 195.643C143.968 195.623 143.584 195.406 143.353 195.052C143.11 194.681 143.071 194.217 143.248 193.811L146.24 186.943C146.294 186.375 146.713 181.129 143.854 179.114C142.007 177.813 139.145 178.091 135.345 179.94L129.211 193.241C128.663 194.428 127.586 195.274 126.338 195.548Z" fill="black"/>
<path d="M137.827 182.64C138.07 184.696 138.741 186.73 139.976 188.39C141.212 190.05 143.044 191.31 145.088 191.636C148.508 192.181 151.91 190.032 153.854 187.166C155.799 184.3 156.579 180.824 157.291 177.434C157.291 177.434 157.278 173.431 155.198 170.602C154.612 169.805 153.732 169.278 152.755 169.121C137.452 166.668 144.303 177.967 140.707 178.7C140.707 178.7 139.201 175.286 137.71 175.036C136.098 174.767 134.388 175.811 133.861 177.357C133.334 178.903 133.971 180.737 135.276 181.72C136.013 182.275 136.754 182.715 137.827 182.64Z" fill="white"/>
<path d="M146.164 192.065C145.784 192.065 145.407 192.036 145.033 191.976C142.999 191.652 141.053 190.419 139.694 188.593C138.57 187.082 137.821 185.151 137.519 182.992C136.454 182.969 135.697 182.47 135.065 181.993C133.609 180.898 132.963 178.897 133.529 177.237C134.118 175.506 135.98 174.387 137.768 174.683C139.178 174.919 140.467 177.365 140.894 178.26C141.514 177.937 141.597 176.95 141.671 175.455C141.763 173.601 141.877 171.292 143.686 169.826C145.434 168.409 148.418 168.063 152.811 168.768C153.893 168.941 154.841 169.517 155.481 170.387C157.605 173.276 157.642 177.258 157.643 177.427C157.643 177.451 157.64 177.476 157.635 177.5C156.996 180.541 156.201 184.326 154.145 187.356C152.144 190.305 149.109 192.065 146.164 192.065ZM137.827 182.282C138.003 182.282 138.155 182.414 138.176 182.592C138.433 184.757 139.153 186.687 140.259 188.173C141.509 189.853 143.289 190.987 145.143 191.282C148.566 191.826 151.838 189.505 153.564 186.962C155.534 184.059 156.314 180.368 156.939 177.394C156.93 176.998 156.799 173.366 154.915 170.803C154.385 170.082 153.598 169.605 152.7 169.461C148.515 168.79 145.712 169.088 144.129 170.372C142.564 171.64 142.462 173.686 142.373 175.49C142.29 177.164 142.212 178.745 140.778 179.037C140.613 179.072 140.453 178.986 140.386 178.835C139.833 177.582 138.601 175.534 137.652 175.376C136.218 175.137 134.668 176.073 134.194 177.463C133.724 178.844 134.267 180.514 135.488 181.432C136.247 182.004 136.896 182.347 137.802 182.282C137.811 182.282 137.819 182.282 137.827 182.282Z" fill="black"/>
<path d="M138.106 180.773C137.994 180.773 137.883 180.719 137.816 180.62C137.339 179.922 136.978 179.158 136.744 178.347C136.69 178.161 136.798 177.966 136.985 177.912C137.173 177.858 137.366 177.967 137.42 178.152C137.633 178.891 137.961 179.588 138.395 180.223C138.505 180.383 138.464 180.602 138.304 180.711C138.243 180.753 138.174 180.773 138.106 180.773Z" fill="black"/>
<path d="M271.276 252.906H83.4326V258.589H271.276V252.906Z" fill="black"/>
<path d="M305.932 366.426C305.798 366.426 305.671 366.35 305.612 366.222L256.806 260.186C256.724 260.01 256.802 259.801 256.978 259.72C257.155 259.638 257.363 259.716 257.444 259.892L306.25 365.928C306.332 366.104 306.255 366.313 306.078 366.394C306.03 366.416 305.981 366.426 305.932 366.426Z" fill="black"/>
<path d="M307.59 373.998C309.497 373.994 311.039 372.445 311.035 370.538C311.031 368.632 309.482 367.09 307.575 367.094C305.669 367.098 304.126 368.647 304.131 370.553C304.135 372.46 305.684 374.002 307.59 373.998Z" fill="black"/>
<path d="M65.7007 366.426C65.6517 366.426 65.6019 366.416 65.5542 366.394C65.3779 366.313 65.3006 366.104 65.382 365.928L114.188 259.892C114.269 259.716 114.477 259.638 114.654 259.72C114.831 259.801 114.908 260.009 114.827 260.186L66.0205 366.222C65.9611 366.35 65.8338 366.426 65.7007 366.426Z" fill="black"/>
<path d="M67.5115 370.548C67.5157 368.641 65.9735 367.092 64.0669 367.088C62.1603 367.084 60.6114 368.626 60.6072 370.533C60.603 372.439 62.1452 373.988 64.0517 373.992C65.9583 373.996 67.5073 372.454 67.5115 370.548Z" fill="black"/>
<path d="M316.367 356.492H446.408V288.542H316.367V356.492Z" fill="white"/>
<path d="M446.409 356.848H316.367C316.173 356.848 316.016 356.691 316.016 356.496V288.547C316.016 288.352 316.173 288.195 316.367 288.195H446.409C446.603 288.195 446.76 288.352 446.76 288.547V356.496C446.76 356.691 446.603 356.848 446.409 356.848ZM316.719 356.145H446.057V288.898H316.719V356.145Z" fill="black"/>
<path d="M398.592 324.16C398.696 324.113 398.793 324.059 398.888 324.002C399.596 324.896 400.425 325.666 401.341 326.296C401.29 326.394 401.243 326.495 401.203 326.601C400.666 328.028 401.389 329.619 402.816 330.155C404.243 330.69 405.834 329.968 406.371 328.541C406.41 328.435 406.441 328.328 406.468 328.22C407.572 328.349 408.703 328.315 409.826 328.107C409.859 328.213 409.897 328.318 409.944 328.422C410.574 329.809 412.21 330.424 413.598 329.794C414.986 329.163 415.601 327.528 414.971 326.14C414.924 326.037 414.87 325.939 414.812 325.844C415.708 325.136 416.478 324.307 417.108 323.391C417.206 323.442 417.307 323.49 417.414 323.529C418.841 324.065 420.433 323.343 420.969 321.916C421.505 320.489 420.783 318.898 419.356 318.363C419.249 318.323 419.142 318.292 419.034 318.266C419.164 317.162 419.13 316.031 418.923 314.909C419.028 314.875 419.133 314.838 419.237 314.79C420.625 314.16 421.24 312.525 420.61 311.137C419.98 309.749 418.344 309.135 416.956 309.765C416.852 309.812 416.755 309.866 416.66 309.924C415.952 309.029 415.123 308.259 414.207 307.63C414.258 307.531 414.305 307.43 414.345 307.324C414.882 305.897 414.159 304.306 412.732 303.771C411.305 303.235 409.714 303.957 409.178 305.384C409.138 305.49 409.107 305.598 409.08 305.705C407.976 305.576 406.845 305.61 405.722 305.818C405.689 305.712 405.651 305.607 405.604 305.504C404.974 304.116 403.338 303.502 401.95 304.132C400.562 304.762 399.947 306.398 400.577 307.785C400.624 307.889 400.678 307.986 400.736 308.081C399.84 308.789 399.07 309.618 398.44 310.534C398.342 310.483 398.241 310.436 398.134 310.396C396.707 309.86 395.116 310.583 394.579 312.009C394.043 313.436 394.765 315.027 396.192 315.563C396.299 315.603 396.406 315.633 396.514 315.66C396.385 316.764 396.418 317.895 396.626 319.017C396.52 319.05 396.415 319.088 396.311 319.135C394.923 319.765 394.308 321.401 394.938 322.788C395.568 324.176 397.204 324.79 398.592 324.16ZM405.656 312.296C408.234 311.126 411.272 312.267 412.442 314.844C413.612 317.421 412.47 320.459 409.892 321.629C407.314 322.799 404.275 321.659 403.106 319.081C401.936 316.504 403.078 313.466 405.656 312.296Z" fill="#FF8C00"/>
<path d="M421.006 337.697C421.068 337.669 421.127 337.636 421.185 337.601C421.613 338.143 422.114 338.608 422.669 338.989C422.638 339.049 422.609 339.11 422.585 339.174C422.26 340.037 422.697 340.999 423.56 341.324C424.423 341.648 425.386 341.211 425.71 340.348C425.735 340.283 425.753 340.218 425.769 340.153C426.437 340.231 427.121 340.211 427.8 340.085C427.82 340.149 427.843 340.213 427.872 340.275C428.253 341.115 429.242 341.486 430.082 341.105C430.922 340.724 431.294 339.735 430.913 338.895C430.884 338.833 430.852 338.774 430.817 338.716C431.358 338.288 431.824 337.787 432.205 337.233C432.264 337.264 432.326 337.292 432.39 337.316C433.253 337.64 434.216 337.204 434.54 336.34C434.864 335.478 434.428 334.515 433.565 334.191C433.5 334.167 433.435 334.148 433.37 334.132C433.448 333.465 433.428 332.781 433.303 332.102C433.367 332.082 433.43 332.059 433.493 332.03C434.333 331.649 434.704 330.66 434.323 329.821C433.942 328.981 432.953 328.61 432.113 328.991C432.051 329.019 431.992 329.052 431.934 329.087C431.506 328.546 431.005 328.08 430.45 327.699C430.481 327.64 430.51 327.579 430.534 327.514C430.859 326.651 430.422 325.689 429.559 325.365C428.696 325.041 427.733 325.478 427.408 326.341C427.384 326.405 427.366 326.47 427.35 326.535C426.682 326.457 425.998 326.477 425.319 326.603C425.299 326.539 425.276 326.476 425.247 326.413C424.866 325.574 423.877 325.202 423.037 325.583C422.197 325.964 421.825 326.954 422.206 327.793C422.235 327.856 422.267 327.915 422.302 327.972C421.761 328.4 421.295 328.902 420.914 329.456C420.854 329.425 420.793 329.396 420.729 329.372C419.866 329.048 418.903 329.485 418.579 330.348C418.255 331.211 418.691 332.173 419.554 332.497C419.619 332.522 419.684 332.54 419.749 332.556C419.671 333.224 419.691 333.908 419.816 334.587C419.752 334.607 419.689 334.63 419.626 334.658C418.786 335.039 418.415 336.028 418.795 336.868C419.176 337.707 420.166 338.079 421.006 337.697ZM425.278 330.522C426.837 329.814 428.675 330.504 429.383 332.063C430.09 333.622 429.4 335.459 427.84 336.167C426.281 336.874 424.443 336.184 423.736 334.626C423.028 333.067 423.719 331.229 425.278 330.522Z" fill="#FF8C00"/>
<path d="M385.36 304.742H346.52C346.326 304.742 346.169 304.585 346.169 304.39C346.169 304.196 346.326 304.039 346.52 304.039H385.36C385.554 304.039 385.711 304.196 385.711 304.39C385.711 304.585 385.554 304.742 385.36 304.742Z" fill="black"/>
<path d="M335.785 313.804H325.456C325.262 313.804 325.104 313.647 325.104 313.453C325.104 313.259 325.262 313.102 325.456 313.102H335.785C335.979 313.102 336.137 313.259 336.137 313.453C336.137 313.647 335.979 313.804 335.785 313.804Z" fill="black"/>
<path d="M358.655 313.804H340.762C340.567 313.804 340.41 313.647 340.41 313.453C340.41 313.259 340.567 313.102 340.762 313.102H358.655C358.849 313.102 359.006 313.259 359.006 313.453C359.006 313.647 358.849 313.804 358.655 313.804Z" fill="black"/>
<path d="M385.359 313.804H368.254C368.06 313.804 367.902 313.647 367.902 313.453C367.902 313.259 368.06 313.102 368.254 313.102H385.359C385.554 313.102 385.711 313.259 385.711 313.453C385.711 313.647 385.554 313.804 385.359 313.804Z" fill="black"/>
<path d="M385.36 322.867H345.431C345.237 322.867 345.08 322.71 345.08 322.515C345.08 322.321 345.237 322.164 345.431 322.164H385.36C385.554 322.164 385.712 322.321 385.712 322.515C385.712 322.71 385.555 322.867 385.36 322.867Z" fill="black"/>
<path d="M357.362 331.921H325.456C325.262 331.921 325.104 331.764 325.104 331.57C325.104 331.376 325.262 331.219 325.456 331.219H357.362C357.556 331.219 357.713 331.376 357.713 331.57C357.713 331.764 357.556 331.921 357.362 331.921Z" fill="black"/>
<path d="M385.362 331.921H365.06C364.866 331.921 364.709 331.764 364.709 331.57C364.709 331.376 364.866 331.219 365.06 331.219H385.362C385.556 331.219 385.713 331.376 385.713 331.57C385.713 331.764 385.556 331.921 385.362 331.921Z" fill="black"/>
<path d="M385.361 340.984H343.7C343.506 340.984 343.349 340.827 343.349 340.633C343.349 340.438 343.506 340.281 343.7 340.281H385.361C385.555 340.281 385.712 340.438 385.712 340.633C385.712 340.827 385.555 340.984 385.361 340.984Z" fill="black"/>
<path d="M415.551 282.523C415.356 282.523 415.199 282.366 415.199 282.172V167.015H381.488C381.294 167.015 381.137 166.858 381.137 166.664C381.137 166.47 381.294 166.312 381.488 166.312H415.551C415.745 166.312 415.902 166.47 415.902 166.664V282.172C415.902 282.366 415.745 282.523 415.551 282.523Z" fill="black"/>
</svg>
