<svg width="458" height="456" viewBox="0 0 458 456" fill="none" xmlns="http://www.w3.org/2000/svg">
<path d="M456.939 327.882H4.43632C4.30459 327.882 4.19824 327.776 4.19824 327.644C4.19824 327.513 4.30511 327.406 4.43632 327.406H456.938C457.069 327.406 457.176 327.513 457.176 327.644C457.177 327.776 457.07 327.882 456.939 327.882Z" fill="#271F4A"/>
<path d="M109.841 283.031C108.631 277.251 104.781 276.587 104.96 273.41C105.139 270.233 107.779 267.266 107.779 267.266H103.119H98.4579C98.4579 267.266 101.098 270.233 101.277 273.41C101.456 276.587 97.6067 277.251 96.3962 283.031C95.1662 288.909 100.161 289.484 103.119 289.484C106.077 289.485 111.071 288.909 109.841 283.031Z" fill="#FF8C00"/>
<path d="M103.119 285.143C100.64 285.143 98.623 283.754 98.623 282.048C98.623 280.341 100.64 278.953 103.119 278.953C105.598 278.953 107.614 280.341 107.614 282.048C107.614 283.754 105.598 285.143 103.119 285.143ZM103.119 279.43C100.903 279.43 99.0997 280.605 99.0997 282.048C99.0997 283.492 100.903 284.667 103.119 284.667C105.335 284.667 107.138 283.492 107.138 282.048C107.138 280.604 105.335 279.43 103.119 279.43Z" fill="#271F4A"/>
<path d="M139.828 343.062H93.6895C91.6167 343.062 89.9307 341.376 89.9307 339.303V295.844C89.9307 293.771 91.6167 292.086 93.6895 292.086H139.828C141.901 292.086 143.587 293.771 143.587 295.844V339.303C143.587 341.376 141.901 343.062 139.828 343.062ZM93.6895 292.561C91.8796 292.561 90.4068 294.034 90.4068 295.844V339.303C90.4068 341.113 91.8796 342.586 93.6895 342.586H139.828C141.639 342.586 143.111 341.113 143.111 339.303V295.844C143.111 294.034 141.639 292.561 139.828 292.561H93.6895Z" fill="#271F4A"/>
<path d="M146.066 288.414H87.4512V293.275H146.066V288.414Z" fill="#D27D5F"/>
<path d="M142.65 284.07H115.091V288.429H142.65V284.07Z" fill="#7C98DB"/>
<path d="M145.035 277.812H117.476V284.07H145.035V277.812Z" fill="#FF8C00"/>
<path d="M140.121 274.922H112.562V278.051H140.121V274.922Z" fill="#F8D2C7"/>
<path d="M150.913 153.33H149.961V152.854H150.913C151.113 152.854 151.314 152.837 151.512 152.802L151.593 153.271C151.37 153.31 151.141 153.33 150.913 153.33ZM148.057 153.33H147.104V152.854H148.057V153.33ZM145.2 153.33H144.247V152.854H145.2V153.33ZM142.343 153.33H141.39V152.854H142.342V153.33H142.343ZM139.486 153.33H138.533V152.854H139.486V153.33ZM136.575 153.146C136.254 153.044 135.946 152.9 135.659 152.717L135.914 152.316C136.166 152.475 136.438 152.602 136.719 152.692L136.575 153.146ZM153.414 152.432L153.111 152.064C153.34 151.875 153.545 151.657 153.718 151.416L154.105 151.694C153.907 151.968 153.675 152.216 153.414 152.432ZM134.297 151.248C134.138 150.949 134.018 150.631 133.94 150.302L134.403 150.192C134.471 150.482 134.577 150.761 134.717 151.023L134.297 151.248ZM154.822 149.822L154.348 149.772C154.361 149.649 154.368 149.525 154.368 149.399V148.845H154.844V149.399C154.844 149.541 154.837 149.683 154.822 149.822ZM134.312 148.351H133.836V147.398H134.312V148.351ZM154.844 146.941H154.368V145.988H154.844V146.941ZM134.312 145.494H133.836V144.541H134.312V145.494ZM154.844 144.084H154.368V143.132H154.844V144.084ZM134.312 142.637H133.836V141.685H134.312V142.637ZM154.844 141.227H154.368V140.274H154.844V141.227ZM134.312 139.78H133.836V138.828H134.312V139.78ZM154.844 138.37H154.368V137.418H154.844V138.37ZM134.312 136.923H133.836V135.971H134.312V136.923ZM154.844 135.513H154.368V134.561H154.844V135.513ZM134.312 134.066H133.836V133.114H134.312V134.066ZM154.844 132.657H154.368V131.704H154.844V132.657ZM134.312 131.21H133.836V130.257H134.312V131.21ZM154.844 129.8H154.368V128.847H154.844V129.8ZM134.312 128.353H133.836V127.401H134.312V128.353ZM154.844 126.943H154.368V125.99H154.844V126.943ZM134.312 125.496H133.836V124.544H134.312V125.496ZM154.844 124.086H154.368V123.134H154.844V124.086ZM134.312 122.639H133.836V121.687H134.312V122.639ZM154.844 121.229H154.368V120.277H154.844V121.229ZM134.312 119.782H133.836V118.83H134.312V119.782ZM154.844 118.372H154.368V117.42H154.844V118.372ZM134.312 116.926H133.836V115.973H134.312V116.926ZM154.844 115.516H154.368V114.563H154.844V115.516ZM134.312 114.069H133.836V113.836C133.836 113.581 133.86 113.325 133.909 113.076L134.377 113.167C134.334 113.386 134.312 113.612 134.312 113.836V114.069ZM154.195 112.754C154.102 112.472 153.972 112.203 153.81 111.954L154.209 111.693C154.394 111.977 154.541 112.283 154.647 112.605L154.195 112.754ZM135.148 111.583L134.787 111.272C135.008 111.016 135.261 110.789 135.539 110.597L135.81 110.99C135.564 111.158 135.342 111.358 135.148 111.583ZM152.504 110.77C152.242 110.632 151.962 110.53 151.67 110.465L151.775 110C152.106 110.074 152.426 110.191 152.724 110.347L152.504 110.77ZM137.466 110.395L137.424 109.921C137.537 109.911 137.651 109.906 137.767 109.906H138.397V110.382H137.767C137.666 110.382 137.566 110.386 137.466 110.395ZM149.825 110.382H148.872V109.906H149.825V110.382ZM146.968 110.382H146.016V109.906H146.968V110.382ZM144.111 110.382H143.159V109.906H144.111V110.382ZM141.254 110.382H140.302V109.906H141.254V110.382Z" fill="#F97A59"/>
<path d="M247.404 157.902H246.451V157.427H247.404V157.902ZM244.547 157.902H243.595V157.427H244.547V157.902ZM241.69 157.902H240.738V157.427H241.69V157.902ZM238.833 157.902H237.881V157.427H238.833V157.902ZM235.976 157.902H235.024V157.427H235.976V157.902ZM233.12 157.902H232.167V157.427H233.12V157.902ZM230.263 157.902H229.31V157.427H230.263V157.902ZM227.406 157.902H226.454V157.427H227.406V157.902ZM224.549 157.902H223.597V157.427H224.549V157.902ZM221.692 157.902H220.74V157.427H221.692V157.902ZM218.835 157.902H217.883V157.427H218.835V157.902ZM215.979 157.902H215.026V157.427H215.979V157.902ZM213.122 157.902H212.17V157.427H213.122V157.902ZM210.265 157.902H209.313V157.427H210.265V157.902ZM207.408 157.902H206.456V157.427H207.408V157.902ZM204.551 157.902H204.444C204.143 157.902 203.843 157.869 203.553 157.801L203.661 157.337C203.916 157.396 204.18 157.427 204.444 157.427H204.551V157.902ZM247.462 157.902L247.455 157.426C247.753 157.422 248.048 157.38 248.334 157.3L248.463 157.758C248.137 157.849 247.8 157.897 247.462 157.902ZM201.781 156.862C201.532 156.633 201.314 156.372 201.132 156.088L201.532 155.832C201.692 156.082 201.885 156.311 202.103 156.512L201.781 156.862ZM250.191 156.744L249.853 156.408C250.063 156.196 250.246 155.959 250.394 155.702L250.806 155.942C250.636 156.233 250.429 156.502 250.191 156.744ZM200.52 154.18C200.516 154.111 200.514 154.042 200.514 153.972V153.215H200.99V153.972C200.99 154.033 200.992 154.095 200.995 154.156L200.52 154.18ZM250.858 154.005V153.053H251.334V153.972L250.858 154.005ZM200.99 151.311H200.514V150.359H200.99V151.311ZM251.334 151.148H250.858V150.196H251.334V151.148ZM200.99 148.454H200.514V147.502H200.99V148.454ZM251.334 148.292H250.858V147.339H251.334V148.292ZM200.99 145.597H200.514V144.644H200.99V145.597ZM251.334 145.435H250.858V144.483H251.334V145.435ZM200.99 142.74H200.514V141.788H200.99V142.74ZM251.334 142.578H250.858V141.626H251.334V142.578ZM200.99 139.884H200.514V138.931H200.99V139.884ZM251.334 139.721H250.858V138.769H251.334V139.721ZM200.99 137.027H200.514V136.075H200.99V137.027ZM251.334 136.864H250.858V135.912H251.334V136.864ZM200.99 134.17H200.514V133.218H200.99V134.17ZM251.334 134.008H250.858V133.055H251.334V134.008ZM200.99 131.313H200.514V130.36H200.99V131.313ZM251.334 131.151H250.858V130.198H251.334V131.151ZM200.99 128.456H200.514V127.504H200.99V128.456ZM251.334 128.294H250.858V127.342H251.334V128.294ZM200.99 125.6H200.514V124.647H200.99V125.6ZM251.334 125.437H250.858V124.485H251.334V125.437ZM200.99 122.743H200.514V121.79H200.99V122.743ZM251.334 122.58H250.858V121.628H251.334V122.58ZM201.118 119.963L200.66 119.834C200.751 119.508 200.885 119.194 201.057 118.903L201.467 119.146C201.316 119.401 201.199 119.676 201.118 119.963ZM250.686 119.818C250.593 119.537 250.464 119.267 250.301 119.017L250.7 118.758C250.885 119.042 251.032 119.349 251.138 119.67L250.686 119.818ZM202.719 117.906L202.481 117.495C202.774 117.325 203.088 117.194 203.414 117.106L203.539 117.565C203.253 117.642 202.977 117.757 202.719 117.906ZM248.996 117.833C248.732 117.695 248.452 117.592 248.162 117.528L248.266 117.063C248.596 117.137 248.915 117.254 249.217 117.411L248.996 117.833ZM246.316 117.444H245.364V116.969H246.316V117.444ZM243.46 117.444H242.508V116.969H243.46V117.444ZM240.603 117.444H239.651V116.969H240.603V117.444ZM237.746 117.444H236.794V116.969H237.746V117.444ZM234.89 117.444H233.937V116.969H234.89V117.444ZM232.032 117.444H231.08V116.969H232.032V117.444ZM229.176 117.444H228.224V116.969H229.176V117.444ZM226.319 117.444H225.367V116.969H226.319V117.444ZM223.462 117.444H222.51V116.969H223.462V117.444ZM220.606 117.444H219.653V116.969H220.606V117.444ZM217.748 117.444H216.796V116.969H217.748V117.444ZM214.892 117.444H213.94V116.969H214.892V117.444ZM212.035 117.444H211.083V116.969H212.035V117.444ZM209.178 117.444H208.226V116.969H209.178V117.444ZM206.321 117.444H205.369V116.969H206.321V117.444Z" fill="#7C98DB"/>
<path d="M310.535 261.773H159.722V257.987L200.219 192.404L351.032 188.617V192.404L310.535 261.773Z" fill="#271F4A"/>
<path d="M310.535 257.987H159.722L200.219 188.617H351.032L310.535 257.987Z" fill="white"/>
<path d="M310.535 257.987H278.624L319.121 188.617H351.032L310.535 257.987Z" fill="#FFEAE0"/>
<path d="M216.145 222.781H189.498L176.212 246.255H202.86L216.145 222.781Z" fill="white"/>
<path d="M209.194 235.073L202.861 246.265H176.213L178.679 241.909L184.954 237.883C185.49 237.54 186.085 237.526 186.251 237.863L188.737 242.804C188.9 243.133 189.49 243.126 190.022 242.79L206.94 232.075C207.505 231.719 208.125 231.739 208.254 232.115L209.194 235.073Z" fill="#F97A59"/>
<path d="M196.976 229.482C197.887 227.874 197.184 226.57 195.407 226.57C193.629 226.57 191.451 227.874 190.541 229.482C189.631 231.09 190.333 232.395 192.111 232.395C193.888 232.395 196.067 231.09 196.976 229.482Z" fill="#F97A59"/>
<path d="M252.893 222.781H226.245L212.959 246.255H239.607L252.893 222.781Z" fill="white"/>
<path d="M245.941 235.073L239.606 246.265H212.959L215.424 241.909L221.7 237.883C222.236 237.54 222.83 237.526 222.996 237.863L225.482 242.804C225.645 243.133 226.236 243.126 226.767 242.79L243.686 232.075C244.251 231.719 244.871 231.739 244.999 232.115L245.941 235.073Z" fill="#F97A59"/>
<path d="M233.724 229.482C234.634 227.874 233.931 226.57 232.154 226.57C230.377 226.57 228.198 227.874 227.288 229.482C226.378 231.09 227.081 232.395 228.858 232.395C230.635 232.395 232.815 231.09 233.724 229.482Z" fill="#F97A59"/>
<path d="M289.637 222.781H262.99L249.704 246.255H276.352L289.637 222.781Z" fill="white"/>
<path d="M282.686 235.073L276.352 246.265H249.704L252.169 241.909L258.445 237.883C258.981 237.54 259.575 237.526 259.742 237.863L262.228 242.804C262.39 243.133 262.981 243.126 263.513 242.79L280.431 232.075C280.996 231.719 281.616 231.739 281.745 232.115L282.686 235.073Z" fill="#F97A59"/>
<path d="M270.469 229.482C271.379 227.874 270.676 226.57 268.899 226.57C267.122 226.57 264.943 227.874 264.033 229.482C263.123 231.09 263.826 232.395 265.603 232.395C267.38 232.395 269.559 231.09 270.469 229.482Z" fill="#F97A59"/>
<path d="M292.215 215.964H191.75L206.039 191.711H306.505L292.215 215.964Z" fill="white"/>
<path d="M293.657 200.306H259.978C258.024 200.306 256.868 198.119 257.968 196.504L258.441 195.811C259.17 194.742 260.381 194.102 261.676 194.102H295.355C297.308 194.102 298.464 196.289 297.364 197.903L296.892 198.597C296.163 199.666 294.952 200.306 293.657 200.306Z" fill="#7C98DB"/>
<path d="M360.497 261.773H147.403V266.217H360.497V261.773Z" fill="#271F4A"/>
<path d="M345.843 200.305L353.193 264H349.518L343.334 203.84L345.843 200.305Z" fill="#271F4A"/>
<path d="M224.94 194.827H209.612C209.48 194.827 209.374 194.721 209.374 194.59C209.374 194.458 209.48 194.352 209.612 194.352H224.94C225.072 194.352 225.179 194.458 225.179 194.59C225.179 194.721 225.072 194.827 224.94 194.827Z" fill="#271F4A"/>
<path d="M246.114 197.429H207.665C207.533 197.429 207.427 197.323 207.427 197.191C207.427 197.059 207.534 196.953 207.665 196.953H246.114C246.246 196.953 246.353 197.059 246.353 197.191C246.352 197.323 246.246 197.429 246.114 197.429Z" fill="#271F4A"/>
<path d="M244.165 200.038H205.716C205.584 200.038 205.478 199.932 205.478 199.801C205.478 199.669 205.584 199.562 205.716 199.562H244.165C244.297 199.562 244.403 199.669 244.403 199.801C244.403 199.932 244.297 200.038 244.165 200.038Z" fill="#271F4A"/>
<path d="M242.17 204.875H203.72C203.589 204.875 203.482 204.768 203.482 204.637C203.482 204.505 203.589 204.398 203.72 204.398H242.17C242.301 204.398 242.408 204.505 242.408 204.637C242.408 204.768 242.301 204.875 242.17 204.875Z" fill="#271F4A"/>
<path d="M240.223 207.499H201.773C201.641 207.499 201.535 207.393 201.535 207.261C201.535 207.13 201.641 207.023 201.773 207.023H240.223C240.355 207.023 240.461 207.13 240.461 207.261C240.461 207.393 240.355 207.499 240.223 207.499Z" fill="#271F4A"/>
<path d="M289.869 204.875H251.42C251.289 204.875 251.182 204.768 251.182 204.637C251.182 204.505 251.288 204.398 251.42 204.398H289.869C290.001 204.398 290.107 204.505 290.107 204.637C290.107 204.768 290.001 204.875 289.869 204.875Z" fill="#271F4A"/>
<path d="M287.922 207.499H249.473C249.342 207.499 249.235 207.393 249.235 207.261C249.235 207.13 249.342 207.023 249.473 207.023H287.922C288.054 207.023 288.161 207.13 288.161 207.261C288.161 207.393 288.054 207.499 287.922 207.499Z" fill="#271F4A"/>
<path d="M338.68 200.217H316.882L320.393 194.188H342.192L338.68 200.217Z" fill="#7C98DB"/>
<path d="M334.064 209.217H312.265L315.776 203.188H337.576L334.064 209.217Z" fill="#F97A59"/>
<path d="M322.548 227.99H300.749L304.26 221.961H326.059L322.548 227.99Z" fill="#FF8C00"/>
<path d="M317.93 236.983H296.132L299.643 230.953H321.442L317.93 236.983Z" fill="#FF8C00"/>
<path d="M355.254 266.219H314.828V270.143H355.254V266.219Z" fill="#271F4A"/>
<path d="M360.498 266.455H311.906V261.773H312.382V265.98H360.498V266.455Z" fill="#8676A1"/>
<path d="M310.535 261.531H159.722V262.007H310.535V261.531Z" fill="#8676A1"/>
<path d="M308.787 374.218C308.777 374.218 308.768 374.217 308.759 374.215C308.628 374.201 308.535 374.082 308.551 373.951L321.206 268.148C321.222 268.017 321.344 267.922 321.47 267.94C321.601 267.955 321.694 268.074 321.678 268.204L309.023 374.008C309.008 374.128 308.906 374.218 308.787 374.218Z" fill="#271F4A"/>
<path d="M363.687 374.217C363.568 374.217 363.466 374.128 363.451 374.007L350.796 268.204C350.78 268.074 350.873 267.955 351.004 267.939C351.131 267.923 351.252 268.017 351.268 268.148L363.923 373.951C363.939 374.081 363.846 374.2 363.715 374.215C363.706 374.216 363.697 374.217 363.687 374.217Z" fill="#271F4A"/>
<path d="M194.16 266.219H153.733V270.143H194.16V266.219Z" fill="#271F4A"/>
<path d="M147.693 374.218C147.684 374.218 147.674 374.217 147.665 374.215C147.534 374.201 147.441 374.082 147.457 373.951L160.112 268.148C160.127 268.017 160.249 267.922 160.377 267.94C160.507 267.955 160.6 268.074 160.584 268.204L147.929 374.008C147.915 374.128 147.812 374.218 147.693 374.218Z" fill="#271F4A"/>
<path d="M202.592 374.217C202.474 374.217 202.37 374.128 202.356 374.007L189.701 268.204C189.685 268.074 189.778 267.955 189.909 267.939C190.035 267.923 190.158 268.017 190.173 268.148L202.829 373.951C202.844 374.081 202.751 374.2 202.621 374.215C202.611 374.216 202.602 374.217 202.592 374.217Z" fill="#271F4A"/>
<path d="M280.497 324.812C280.497 324.812 287.543 314.722 288.145 313.743C291.429 308.401 300.481 305.514 301.857 312.236C303.478 320.155 297.033 336.635 294.21 340.807C291.387 344.978 287.219 348.204 281.975 346.725C276.733 345.247 270.437 337.699 270.437 337.699L280.497 324.812Z" fill="#F8D2C7"/>
<path d="M282.015 346.963L281.938 346.493C287.074 345.644 290.196 343.073 293.869 336.665C299.317 327.16 301.6 312.351 301.622 312.203L302.093 312.274C302.07 312.424 299.774 327.321 294.283 336.902C290.574 343.372 287.25 346.099 282.015 346.963Z" fill="#271F4A"/>
<path d="M260.058 331.068C260.058 331.068 267.322 335.705 275.273 340.79C279.959 341.223 288.564 332.743 284.026 325.149L258.876 305.055L260.058 331.068Z" fill="#FFA38C"/>
<path d="M281.197 337.325C280.571 337.092 279.901 336.973 279.236 336.934C277.876 336.855 276.49 337.175 275.285 337.802C274.634 338.141 274.027 338.626 273.746 339.323C273.459 340.035 273.575 340.847 274.113 341.406C274.352 341.654 274.643 341.668 274.879 341.553C274.915 341.558 274.951 341.563 274.991 341.563C276.484 341.541 278.025 341.517 279.458 341.046C280.063 340.848 280.658 340.582 281.183 340.221C281.675 339.884 282.413 339.356 282.566 338.744C282.773 337.912 281.801 337.55 281.197 337.325Z" fill="#F8D2C7"/>
<path d="M274.88 341.793C274.813 341.793 274.748 341.765 274.701 341.712C274.614 341.613 274.624 341.463 274.722 341.376C277.586 338.861 281.775 338.395 281.951 338.376C282.088 338.362 282.199 338.457 282.213 338.588C282.227 338.719 282.132 338.836 282.001 338.85C281.96 338.855 277.784 339.32 275.037 341.733C274.992 341.773 274.936 341.793 274.88 341.793Z" fill="#271F4A"/>
<path d="M282.53 316.284C282.383 316.128 239.011 280.149 225.906 270.66C217.153 264.322 196.774 286.38 196.774 286.38L265.694 342.382C268.848 345.922 288.358 322.474 282.53 316.284Z" fill="#FF8C00"/>
<path d="M211.515 291.797C213.259 290.17 204.017 266.197 204.74 262.304L171.403 258.396L164.689 250.633L136.768 266.598C136.768 266.598 137.585 289.352 149.344 291.503C160.119 293.473 207.633 292.011 211.515 291.797Z" fill="#FF8C00"/>
<path d="M220.659 349.065C220.659 349.07 220.654 349.079 220.649 349.089C220.496 349.365 220.397 349.546 220.354 349.622C220.349 349.636 220.34 349.651 220.33 349.665C215.487 356.655 188.491 342.461 191.296 338.638C195.614 332.758 223.521 342.114 220.659 349.065Z" fill="#271F4A"/>
<path d="M220.65 349.086C220.574 349.262 220.478 349.443 220.354 349.619C220.397 349.543 220.497 349.362 220.65 349.086Z" fill="#271F4A"/>
<path d="M199.397 333.147L192.101 349.662C192.101 349.662 201.061 359.065 208.889 355.935L224.928 328.023L199.397 333.147Z" fill="#FFA38C"/>
<path d="M225.286 373.92H209.027C205.392 373.92 201.86 372.687 199.031 370.404C194.289 366.575 187.628 360.513 187.914 356.86C187.933 356.593 187.971 356.318 188.024 356.027C188.571 352.894 190.762 348.557 192.214 346.162C192.714 345.338 193.994 343.572 194.756 342.4C195.447 341.339 196.442 340.482 197.637 340.053C199.246 339.472 201.242 339.639 201.803 343.581C201.803 343.581 206.796 351.486 210.829 352.563L216.416 361.556C216.416 361.556 225.286 363.302 225.286 373.92Z" fill="#F8D2C7"/>
<path d="M201.805 343.82C201.751 343.82 201.698 343.802 201.653 343.765C198.746 341.372 194.868 342.614 194.829 342.627C194.704 342.67 194.57 342.601 194.529 342.477C194.487 342.352 194.555 342.217 194.68 342.176C194.848 342.12 198.844 340.835 201.956 343.399C202.058 343.482 202.072 343.632 201.988 343.734C201.941 343.79 201.873 343.82 201.805 343.82Z" fill="#271F4A"/>
<path d="M203.541 369.413C206.403 371.955 208.312 373.593 215.83 373.917H209.919C205.631 373.917 201.478 372.429 198.171 369.699C193.524 365.863 187.644 360.293 187.913 356.857C187.917 356.797 187.923 356.736 187.929 356.675C187.977 356.203 188.149 355.74 188.459 355.38C189.113 354.62 190.249 354.028 192.213 354.391C196.585 355.195 197.594 364.123 203.541 369.413Z" fill="#7C98DB"/>
<path d="M219.256 373.265C209.709 373.265 207.942 371.673 205.091 369.105C204.908 368.941 204.722 368.772 204.527 368.6C201.675 366.064 199.861 362.566 198.26 359.479C196.544 356.171 195.061 353.313 192.877 352.91C191.431 352.644 190.117 352.845 188.966 353.508L188.728 353.095C189.98 352.375 191.403 352.156 192.963 352.442C195.376 352.888 196.908 355.841 198.682 359.261C200.264 362.311 202.057 365.767 204.843 368.245C205.038 368.418 205.226 368.588 205.409 368.752C208.792 371.8 210.494 373.327 225.274 372.629L225.296 373.104C222.991 373.213 220.994 373.265 219.256 373.265Z" fill="#271F4A"/>
<path d="M253.567 285.637C247.044 300.368 224.059 342.927 220.659 349.064C223.521 342.112 195.614 332.756 191.296 338.637L217.319 291.636C217.319 291.636 190.25 293.245 178.495 291.098C166.735 288.946 158.525 267.258 158.525 267.258L193.836 250.227L194.855 259.306L244.43 263.135C255.138 264.596 257.938 275.753 253.567 285.637Z" fill="#FF8C00"/>
<path d="M204.039 337.928C203.997 337.928 203.957 337.918 203.919 337.896C203.806 337.83 203.767 337.685 203.832 337.571L236.141 281.82C236.715 280.836 236.721 279.658 236.158 278.67C235.594 277.681 234.579 277.088 233.441 277.081C222.161 277.015 195.413 276.723 190.669 275.425C184.486 273.733 183.37 261.797 183.325 261.29C183.314 261.159 183.411 261.043 183.542 261.032C183.667 261.022 183.789 261.118 183.8 261.248C183.811 261.368 184.931 273.361 190.795 274.966C195.484 276.249 222.183 276.54 233.444 276.605C234.754 276.613 235.923 277.297 236.572 278.434C237.221 279.572 237.214 280.928 236.553 282.06L204.245 337.81C204.2 337.886 204.12 337.928 204.039 337.928Z" fill="#271F4A"/>
<path d="M231.224 330.063C231.187 330.063 231.151 330.055 231.116 330.038C230.999 329.978 230.952 329.835 231.011 329.718L253.352 285.537C253.412 285.419 253.555 285.373 253.672 285.432C253.789 285.491 253.837 285.635 253.777 285.752L231.436 329.933C231.394 330.015 231.31 330.063 231.224 330.063Z" fill="#271F4A"/>
<path d="M205.382 313.102C205.342 313.102 205.302 313.092 205.265 313.071C205.151 313.007 205.11 312.861 205.175 312.747L216.908 291.886L191.142 292.506C191.013 292.528 190.902 292.405 190.899 292.273C190.895 292.142 191 292.033 191.131 292.03L217.315 291.399C217.394 291.393 217.481 291.441 217.525 291.515C217.569 291.588 217.57 291.679 217.528 291.754L205.589 312.98C205.546 313.058 205.465 313.102 205.382 313.102Z" fill="#271F4A"/>
<path d="M178.822 302.579H175.577C173.998 302.579 172.719 301.299 172.719 299.721V295.141H181.681V299.721C181.681 301.299 180.4 302.579 178.822 302.579Z" fill="#271F4A"/>
<path d="M178.678 301.062H175.72V361.272H178.678V301.062Z" fill="#271F4A"/>
<path d="M161.197 370.261H159.769V364.782C159.769 362.443 161.672 360.539 164.012 360.539H177.198V361.967H164.011C162.459 361.967 161.196 363.231 161.196 364.782V370.261H161.197Z" fill="#271F4A"/>
<path d="M163.343 370.829C163.343 369.25 162.063 367.969 160.483 367.969C158.903 367.969 157.623 369.25 157.623 370.829C157.623 372.408 158.903 373.689 160.483 373.689C162.062 373.689 163.343 372.408 163.343 370.829Z" fill="#271F4A"/>
<path d="M152.841 370.261H151.412V364.782C151.412 362.443 153.316 360.539 155.656 360.539H168.841V361.967H155.656C154.103 361.967 152.841 363.231 152.841 364.782V370.261Z" fill="#271F4A"/>
<path d="M154.986 370.829C154.986 369.25 153.706 367.969 152.127 367.969C150.547 367.969 149.267 369.25 149.267 370.829C149.267 372.408 150.547 373.689 152.127 373.689C153.706 373.689 154.986 372.408 154.986 370.829Z" fill="#271F4A"/>
<path d="M193.485 370.261H192.057V364.782C192.057 363.23 190.794 361.967 189.242 361.967H176.056V360.539H189.242C191.582 360.539 193.485 362.443 193.485 364.782V370.261Z" fill="#271F4A"/>
<path d="M189.91 370.829C189.91 369.25 191.191 367.969 192.77 367.969C194.349 367.969 195.63 369.25 195.63 370.829C195.63 372.408 194.349 373.689 192.77 373.689C191.191 373.689 189.91 372.408 189.91 370.829Z" fill="#271F4A"/>
<path d="M201.842 370.261H200.414V364.782C200.414 363.23 199.151 361.967 197.599 361.967H184.413V360.539H197.599C199.939 360.539 201.842 362.443 201.842 364.782V370.261Z" fill="#271F4A"/>
<path d="M198.268 370.829C198.268 369.25 199.548 367.969 201.128 367.969C202.707 367.969 203.987 369.25 203.987 370.829C203.987 372.408 202.707 373.689 201.128 373.689C199.548 373.689 198.268 372.408 198.268 370.829Z" fill="#271F4A"/>
<path d="M180.348 183.924C180.198 182.768 179.858 181.67 179.477 180.575C179.792 177.645 179.73 174.67 178.517 171.936C178.487 171.866 178.442 171.807 178.393 171.754C178.889 170.781 177.372 169.934 176.758 170.908C175.67 172.636 174.644 174.432 173.445 176.086C172.459 177.445 171.178 178.574 169.809 179.533C167.027 181.481 163.904 182.883 161.158 184.887C161.016 184.99 160.902 185.121 160.822 185.266C160.527 185.359 160.27 185.582 160.213 185.892C159.865 187.77 159.388 189.621 158.771 191.428C158.488 192.256 158.177 193.074 157.839 193.88C157.654 194.321 157.455 194.753 157.609 195.237C157.735 195.636 158.047 195.926 158.405 196.122C159.904 196.94 161.762 197.382 163.431 197.678C165.254 198 167.105 198.105 168.952 197.969C169.472 197.931 169.764 197.548 169.825 197.142C170.148 197.104 170.445 196.907 170.559 196.501C171.263 193.966 171.787 191.395 172.172 188.796C173.685 189.099 175.305 189.104 176.599 188.162C177.307 187.648 177.817 186.983 178.198 186.244C178.739 186.307 179.314 186.285 179.774 185.999C180.512 185.539 180.445 184.672 180.348 183.924Z" fill="#FFA38C"/>
<path d="M177.659 189.793C177.803 188.727 178.549 187.896 178.556 186.783C178.558 186.299 178.131 185.841 177.634 185.861C176.269 185.915 175.828 184.25 175.537 183.209C175.189 181.964 174.887 180.707 174.625 179.442C174.586 179.126 174.532 178.811 174.452 178.499C174.175 177.416 172.579 177.788 172.645 178.8C172.644 178.871 172.648 178.945 172.663 179.023C172.711 179.277 172.764 179.535 172.814 179.791C172.999 181.489 172.503 183.36 171.783 184.848C170.987 186.494 168.902 187.1 168.654 189.096C168.409 191.071 170.435 192.192 171.962 192.891C172.875 193.31 173.815 193.615 174.821 193.705C175.636 193.778 176.605 193.728 177.194 193.081C177.988 192.209 177.517 190.844 177.659 189.793Z" fill="#271F4A"/>
<path d="M180.209 175.395C180.031 175.231 179.806 175.12 179.557 175.125C178.715 175.139 177.891 175.483 177.296 176.083C177.129 176.25 177.025 176.497 177.025 176.734C177.025 176.961 177.126 177.231 177.296 177.386C177.471 177.548 177.702 177.668 177.948 177.657C178.191 177.646 178.424 177.564 178.599 177.386C178.644 177.341 178.694 177.302 178.743 177.26C178.841 177.193 178.943 177.133 179.051 177.08C179.172 177.037 179.297 177.003 179.424 176.979C179.469 176.976 179.512 176.97 179.557 176.97C179.797 176.966 180.039 176.87 180.209 176.7C180.369 176.539 180.49 176.277 180.48 176.048C180.468 175.809 180.39 175.562 180.209 175.395Z" fill="#271F4A"/>
<path d="M179.798 163.314C179.44 162.889 178.585 162.985 178.35 163.501C177.839 164.625 176.036 164.518 175.009 164.613C173.136 164.784 171.261 164.955 169.387 165.128C169.254 165.14 169.126 165.175 169.01 165.229C168.336 165.181 167.657 165.181 166.984 165.225C165.088 165.348 163.124 165.691 161.401 166.522C158.348 167.997 156.525 171.218 156.112 174.492C155.888 176.269 156.072 178.076 156.515 179.809C156.509 179.898 156.513 179.99 156.536 180.089C157.023 182.207 157.908 184.247 159.153 186.031C159.735 186.865 160.465 188.052 161.432 188.465C162.415 188.884 163.605 188.261 164.502 187.859C166.42 186.997 168.116 185.68 169.638 184.243C171.174 182.793 172.626 181.206 173.922 179.538C175.266 177.809 176.355 175.901 176.68 173.737C178.578 173.088 180.397 172.004 181.249 170.111C182.3 167.778 181.364 165.172 179.798 163.314Z" fill="#271F4A"/>
<path d="M172.857 180.756C172.881 180.41 172.881 179.368 172.451 179.108C171.951 178.806 171.196 178.464 170.599 178.494C170.04 178.522 169.506 178.705 169.062 179.048C168.62 179.389 168.291 179.848 168.147 180.393C168.012 180.904 168.025 181.494 168.218 181.988C168.44 182.557 168.808 183.042 169.347 183.345C169.898 183.655 170.561 183.76 171.176 183.595C171.75 183.44 172.15 183.264 172.436 182.737C172.729 182.196 172.815 181.359 172.857 180.756Z" fill="#FFA38C"/>
<path d="M171.516 182.21C171.467 182.21 171.418 182.195 171.376 182.164C171.27 182.087 171.246 181.938 171.323 181.832C171.352 181.792 172.013 180.852 171.147 180.098C170.289 179.351 169.26 180.439 169.217 180.485C169.128 180.58 168.978 180.587 168.88 180.497C168.784 180.408 168.778 180.258 168.867 180.161C169.341 179.647 170.493 178.897 171.46 179.738C172.419 180.573 172.041 181.656 171.707 182.111C171.661 182.176 171.589 182.21 171.516 182.21Z" fill="#271F4A"/>
<path d="M169.933 181.38C169.873 181.38 169.813 181.358 169.767 181.313C169.673 181.221 169.671 181.071 169.763 180.977C170.161 180.568 171.128 179.95 171.944 180.54C172.05 180.618 172.074 180.766 171.997 180.873C171.919 180.98 171.769 181.002 171.664 180.927C170.977 180.428 170.112 181.301 170.103 181.31C170.057 181.357 169.995 181.38 169.933 181.38Z" fill="#271F4A"/>
<path d="M177.383 172.088C177.27 172.088 177.169 172.007 177.149 171.891C177.127 171.761 177.214 171.638 177.344 171.615C178.599 171.401 179.46 170.866 179.904 170.027C180.827 168.281 179.688 165.746 179.676 165.72C179.622 165.6 179.674 165.46 179.794 165.405C179.914 165.349 180.054 165.403 180.109 165.522C180.161 165.634 181.357 168.293 180.325 170.248C179.81 171.226 178.833 171.844 177.424 172.085C177.41 172.087 177.397 172.088 177.383 172.088Z" fill="#8676A1"/>
<path d="M175.294 171.674C175.241 171.674 175.188 171.673 175.135 171.671C175.003 171.665 174.901 171.555 174.905 171.424C174.911 171.296 175.016 171.195 175.144 171.195C175.147 171.195 175.15 171.195 175.153 171.195C177.231 171.266 178.743 169.421 178.758 169.403C178.84 169.3 178.99 169.282 179.092 169.364C179.195 169.446 179.212 169.595 179.131 169.698C179.066 169.781 177.542 171.674 175.294 171.674Z" fill="#8676A1"/>
<path d="M184.548 208.563C180.111 203.454 176.213 196.598 164.382 194.312C152.552 192.026 145.55 202.567 142.603 207.756C136.419 218.645 135.165 250.213 136.053 271.56C156.189 270.215 203.46 258.036 203.46 258.036L184.548 208.563Z" fill="#7C98DB"/>
<path d="M174.509 238.229C174.509 238.229 185.892 261.711 192.793 263.324C199.694 264.938 237.157 246.922 237.157 246.922L233.214 236.526L205.834 241.635L194.675 224.695L174.509 238.229Z" fill="#FFA38C"/>
<path d="M171.306 200.295C168.461 201.453 160.081 206.681 165.323 222.814C170.567 238.946 171.751 241.635 171.751 241.635C171.751 241.635 186.161 234.644 198.665 226.847C198.665 226.847 185.355 194.582 171.306 200.295Z" fill="#7C98DB"/>
<path d="M171.751 241.879C171.66 241.879 171.573 241.826 171.533 241.737C171.485 241.626 170.284 238.854 165.097 222.893C159.544 205.807 169.22 200.892 171.216 200.081C171.338 200.03 171.477 200.09 171.527 200.212C171.576 200.333 171.518 200.472 171.396 200.522C169.469 201.306 160.127 206.061 165.55 222.747C170.719 238.652 171.957 241.518 171.969 241.545C172.022 241.666 171.968 241.806 171.847 241.859C171.816 241.873 171.784 241.879 171.751 241.879Z" fill="#271F4A"/>
<path d="M252.68 240.76C251.005 239.069 249.189 237.446 247.055 236.456C244.729 235.377 243.005 234.605 240.505 234.816C237.673 235.056 234.865 235.591 232.277 236.877C231.976 237.026 231.881 237.294 231.918 237.553C231.884 237.685 231.868 237.823 231.894 237.965C232.269 240.043 233.016 242.044 234.073 243.837C233.881 245.067 234.634 246.456 235.702 247.134C237.397 248.21 239.35 247.76 241.024 246.89C241.367 247.587 241.605 248.342 242.027 248.997C242.526 249.773 243.173 250.437 243.936 250.915C244.59 251.326 245.388 251.582 246.11 251.287C246.395 251.562 246.71 251.798 247.071 251.967C247.899 252.353 248.921 252.363 249.675 251.783C250.532 251.123 250.705 249.975 250.705 248.922C250.706 247.763 250.566 246.593 250.294 245.471C250.27 245.373 250.239 245.274 250.213 245.176C250.639 245.395 251.068 245.606 251.505 245.79C252.506 246.212 254.457 247.267 255.263 246.439C256.473 245.194 253.456 241.543 252.68 240.76Z" fill="#FFA38C"/>
<path d="M246.11 251.529C246.068 251.529 246.027 251.517 245.988 251.495C245.875 251.427 245.839 251.281 245.906 251.168C245.92 251.144 247.332 248.742 246.611 246.411C245.88 244.045 243.645 242.151 243.623 242.132C243.522 242.047 243.509 241.897 243.594 241.796C243.678 241.696 243.829 241.682 243.929 241.767C244.025 241.847 246.292 243.767 247.066 246.27C247.85 248.808 246.377 251.308 246.314 251.413C246.27 251.488 246.191 251.529 246.11 251.529Z" fill="#271F4A"/>
<path d="M250.582 250.449C250.554 250.449 250.526 250.444 250.498 250.434C250.375 250.388 250.312 250.251 250.359 250.128C250.682 249.267 250.367 247.261 249.978 245.222C249.601 243.242 246.208 239.728 246.174 239.693C246.082 239.599 246.084 239.448 246.178 239.356C246.273 239.265 246.424 239.267 246.515 239.361C246.659 239.509 250.042 243.014 250.446 245.132C250.923 247.637 251.15 249.375 250.804 250.295C250.768 250.391 250.678 250.449 250.582 250.449Z" fill="#271F4A"/>
<path d="M190.023 295.139C173.084 290.568 180.612 272.284 181.418 262.349C182.133 253.537 171.005 224.815 168.479 218.43C168.177 217.667 167.439 217.164 166.618 217.164H121.08C119.671 217.164 118.703 218.579 119.215 219.891C122.522 228.353 132.25 254.092 131.58 262.348C130.773 272.284 123.245 290.568 140.184 295.138H190.023V295.139Z" fill="#F97A59"/>
<path d="M165.459 220.234H121.363C121.231 220.234 121.125 220.128 121.125 219.996C121.125 219.865 121.231 219.758 121.363 219.758H165.459C165.591 219.758 165.697 219.865 165.697 219.996C165.697 220.128 165.591 220.234 165.459 220.234Z" fill="#271F4A"/>
<path d="M184.012 295.135L218.501 294.643C219.7 294.625 220.664 293.648 220.664 292.449C220.664 291.257 219.713 290.283 218.522 290.255L172.855 289.164L172.047 291.169L184.012 295.135Z" fill="#F97A59"/>
<path d="M297.565 174.504H266.384C264.345 174.504 262.691 172.851 262.691 170.811V139.63C262.691 137.591 264.345 135.938 266.384 135.938H297.565C299.604 135.938 301.257 137.591 301.257 139.63V170.811C301.257 172.851 299.604 174.504 297.565 174.504Z" fill="#FF8C00"/>
<path d="M295.952 173.133H294.999V172.657H295.951C296.186 172.657 296.42 172.633 296.647 172.587L296.741 173.054C296.484 173.106 296.219 173.133 295.952 173.133ZM293.094 173.133H292.142V172.657H293.094V173.133ZM290.237 173.133H289.285V172.657H290.237V173.133ZM287.381 173.133H286.428V172.657H287.381V173.133ZM284.524 173.133H283.571V172.657H284.524V173.133ZM281.667 173.133H280.715V172.657H281.667V173.133ZM278.81 173.133H277.858V172.657H278.81V173.133ZM275.953 173.133H275.001V172.657H275.953V173.133ZM273.096 173.133H272.144V172.657H273.096V173.133ZM270.24 173.133H269.287V172.657H270.24V173.133ZM267.347 173.079C267.013 173.024 266.688 172.925 266.379 172.785L266.575 172.352C266.846 172.474 267.132 172.561 267.425 172.609L267.347 173.079ZM298.537 172.163L298.224 171.804C298.448 171.608 298.646 171.385 298.813 171.139L299.207 171.406C299.017 171.686 298.791 171.941 298.537 172.163ZM264.824 171.521C264.624 171.247 264.46 170.95 264.337 170.636L264.78 170.462C264.888 170.738 265.032 171 265.208 171.24L264.824 171.521ZM299.869 169.515L299.395 169.476C299.402 169.386 299.406 169.295 299.406 169.203V168.543H299.882V169.203C299.881 169.308 299.878 169.412 299.869 169.515ZM264.544 168.676H264.068V167.724H264.544V168.676ZM299.881 166.639H299.405V165.686H299.881V166.639ZM264.544 165.819H264.068V164.867H264.544V165.819ZM299.881 163.782H299.405V162.829H299.881V163.782ZM264.544 162.962H264.068V162.01H264.544V162.962ZM299.881 160.925H299.405V159.973H299.881V160.925ZM264.544 160.106H264.068V159.153H264.544V160.106ZM299.881 158.068H299.405V157.116H299.881V158.068ZM264.544 157.249H264.068V156.296H264.544V157.249ZM299.881 155.211H299.405V154.259H299.881V155.211ZM264.544 154.392H264.068V153.44H264.544V154.392ZM299.881 152.355H299.405V151.402H299.881V152.355ZM264.544 151.535H264.068V150.583H264.544V151.535ZM299.881 149.498H299.405V148.545H299.881V149.498ZM264.544 148.678H264.068V147.726H264.544V148.678ZM299.881 146.641H299.405V145.689H299.881V146.641ZM264.544 145.821H264.068V144.869H264.544V145.821ZM299.881 143.784H299.405V142.832H299.881V143.784ZM264.544 142.965H264.068V142.012H264.544V142.965ZM299.392 140.948C299.366 140.651 299.302 140.36 299.202 140.081L299.651 139.919C299.764 140.237 299.837 140.57 299.866 140.907L299.392 140.948ZM264.708 140.199L264.255 140.054C264.357 139.732 264.502 139.424 264.685 139.139L265.085 139.395C264.925 139.645 264.798 139.915 264.708 140.199ZM298.202 138.63C297.977 138.437 297.727 138.272 297.46 138.142L297.668 137.714C297.972 137.862 298.257 138.049 298.513 138.269L298.202 138.63ZM266.379 138.199L266.155 137.778C266.453 137.62 266.772 137.5 267.101 137.423L267.21 137.887C266.921 137.954 266.641 138.059 266.379 138.199ZM295.716 137.796H294.764V137.32H295.716V137.796ZM292.86 137.796H291.908V137.32H292.86V137.796ZM290.002 137.796H289.05V137.32H290.002V137.796ZM287.146 137.796H286.193V137.32H287.146V137.796ZM284.289 137.796H283.337V137.32H284.289V137.796ZM281.432 137.796H280.48V137.32H281.432V137.796ZM278.576 137.796H277.623V137.32H278.576V137.796ZM275.718 137.796H274.766V137.32H275.718V137.796ZM272.862 137.796H271.909V137.32H272.862V137.796ZM270.005 137.796H269.052V137.32H270.005V137.796Z" fill="white"/>
<path d="M294.992 146.222L292.039 143.312L290.62 144.753L293.574 147.662L294.992 146.222Z" fill="white"/>
<path d="M293.045 148.121L290.144 145.262C290.144 145.262 284.7 142.977 281.34 147.17C277.979 151.362 278.504 156.882 275.14 160.492L276.116 161.454L284.123 153.327C283.589 152.391 283.706 151.183 284.499 150.379C285.456 149.408 287.018 149.397 287.988 150.353C288.959 151.309 288.97 152.871 288.014 153.842C287.221 154.647 286.015 154.781 285.072 154.262L277.065 162.389L278.041 163.351C281.601 159.933 287.129 160.376 291.27 156.953C295.411 153.53 293.045 148.121 293.045 148.121Z" fill="white"/>
<path d="M269.678 166.255C268.37 164.968 269.141 162.319 269.954 159.529C270.604 157.294 271.342 154.761 270.689 153.63C270.584 153.447 270.437 153.303 270.244 153.194C269.976 153.043 269.87 152.707 269.943 152.408C270.056 151.946 270.585 151.707 270.995 151.945C271.397 152.18 271.717 152.501 271.95 152.903C272.912 154.573 272.119 157.299 271.352 159.936C270.687 162.217 269.925 164.775 270.865 165.342C271.448 165.675 271.976 165.75 272.48 165.567C273.329 165.259 274.001 164.262 274.371 163.54C274.539 163.214 274.923 163.067 275.267 163.194C275.677 163.345 275.863 163.819 275.664 164.208C275.219 165.073 274.331 166.442 272.982 166.934C272.063 167.268 271.108 167.158 270.142 166.606C269.965 166.503 269.812 166.387 269.678 166.255Z" fill="white"/>
<path d="M220.763 137.228H198.216C196.177 137.228 194.523 135.575 194.523 133.536V110.989C194.523 108.95 196.177 107.297 198.216 107.297H220.763C222.802 107.297 224.455 108.95 224.455 110.989V133.536C224.455 135.575 222.802 137.228 220.763 137.228Z" fill="#7C98DB"/>
<path d="M219.519 136.214C219.516 136.214 219.513 136.214 219.509 136.214H218.557V135.738H219.51C219.688 135.732 219.84 135.727 220.001 135.704L220.069 136.175C219.888 136.201 219.703 136.214 219.519 136.214ZM216.653 136.214H215.7V135.738H216.653V136.214ZM213.796 136.214H212.844V135.738H213.796V136.214ZM210.939 136.214H209.987V135.738H210.939V136.214ZM208.082 136.214H207.13V135.738H208.082V136.214ZM205.225 136.214H204.273V135.738H205.225V136.214ZM202.369 136.214H201.416V135.738H202.369V136.214ZM199.512 136.214H199.469C199.145 136.214 198.822 136.174 198.511 136.097L198.627 135.634C198.9 135.703 199.183 135.737 199.469 135.737L199.512 136.214ZM221.915 135.392L221.624 135.015C221.859 134.833 222.07 134.621 222.251 134.386L222.628 134.677C222.423 134.943 222.183 135.185 221.915 135.392ZM196.757 135.127C196.511 134.894 196.297 134.63 196.12 134.342L196.526 134.093C196.681 134.345 196.869 134.577 197.085 134.783L196.757 135.127ZM223.403 132.827L222.931 132.763C222.953 132.603 222.964 132.443 222.964 132.283V131.845H223.44V132.283C223.44 132.464 223.428 132.647 223.403 132.827ZM195.54 132.422C195.539 132.375 195.538 132.328 195.538 132.281V131.463H196.014V132.283C196.014 132.326 196.015 132.367 196.016 132.407L195.54 132.422ZM223.44 129.94H222.964V128.987H223.44V129.94ZM196.014 129.558H195.538V128.606H196.014V129.558ZM223.44 127.083H222.964V126.131H223.44V127.083ZM196.014 126.701H195.538V125.749H196.014V126.701ZM223.44 124.227H222.964V123.274H223.44V124.227ZM196.014 123.845H195.538V122.892H196.014V123.845ZM223.44 121.369H222.964V120.417H223.44V121.369ZM196.014 120.988H195.538V120.036H196.014V120.988ZM223.44 118.513H222.964V117.561H223.44V118.513ZM196.014 118.131H195.538V117.179H196.014V118.131ZM223.44 115.656H222.964V114.703H223.44V115.656ZM196.014 115.274H195.538V114.322H196.014V115.274ZM223.44 112.799H222.964V112.242C222.964 112.118 222.957 111.995 222.944 111.873L223.418 111.822C223.432 111.96 223.44 112.1 223.44 112.242V112.799ZM196.014 112.417H195.538V112.242C195.538 111.966 195.567 111.689 195.624 111.421L196.09 111.521C196.04 111.757 196.014 111.999 196.014 112.242V112.417ZM222.316 110.228C222.143 109.987 221.939 109.769 221.709 109.579L222.012 109.212C222.274 109.428 222.506 109.676 222.703 109.95L222.316 110.228ZM196.885 109.949L196.529 109.632C196.753 109.381 197.009 109.158 197.291 108.969L197.555 109.365C197.308 109.531 197.082 109.727 196.885 109.949ZM220.111 108.84C219.914 108.806 219.712 108.788 219.51 108.788H219.203V108.312H219.51C219.739 108.312 219.969 108.332 220.193 108.372L220.111 108.84ZM199.221 108.797L199.188 108.322C199.281 108.316 199.374 108.312 199.469 108.312H200.157V108.788H199.469C199.385 108.788 199.303 108.791 199.221 108.797ZM217.298 108.788H216.346V108.312H217.298V108.788ZM214.441 108.788H213.489V108.312H214.441V108.788ZM211.585 108.788H210.632V108.312H211.585V108.788ZM208.728 108.788H207.775V108.312H208.728V108.788ZM205.871 108.788H204.919V108.312H205.871V108.788ZM203.014 108.788H202.062V108.312H203.014V108.788Z" fill="white"/>
<path d="M216.525 113.977L201.346 124.662L208.569 124.604L210.668 131.358L216.525 113.977Z" fill="white"/>
<path d="M208.333 126.7L206.646 125.43L203.544 129.548L205.23 130.818L208.333 126.7Z" fill="white"/>
<path d="M138.056 181.175H99.3043C97.8125 181.175 96.6025 179.966 96.6025 178.473V105.405C96.6025 103.913 97.8125 102.703 99.3043 102.703H138.056C139.547 102.703 140.757 103.913 140.757 105.405V178.473C140.757 179.966 139.547 181.175 138.056 181.175Z" fill="white"/>
<path d="M140.757 107.804V105.405C140.757 103.913 139.548 102.703 138.056 102.703H99.3044C97.8125 102.703 96.6025 103.913 96.6025 105.405V107.804H140.757Z" fill="#FF8C00"/>
<path d="M116.127 127.876H101.16C100.809 127.876 100.525 127.592 100.525 127.242V112.275C100.525 111.925 100.809 111.641 101.16 111.641H116.127C116.477 111.641 116.761 111.925 116.761 112.275V127.242C116.761 127.592 116.477 127.876 116.127 127.876Z" fill="white"/>
<path d="M136.203 127.876H121.237C120.886 127.876 120.603 127.592 120.603 127.242V112.275C120.603 111.925 120.886 111.641 121.237 111.641H136.203C136.554 111.641 136.838 111.925 136.838 112.275V127.242C136.838 127.592 136.554 127.876 136.203 127.876Z" fill="#271F4A"/>
<path d="M116.127 148.845H101.16C100.809 148.845 100.525 148.56 100.525 148.21V133.244C100.525 132.893 100.809 132.609 101.16 132.609H116.127C116.477 132.609 116.761 132.893 116.761 133.244V148.21C116.761 148.56 116.477 148.845 116.127 148.845Z" fill="#FF8C00"/>
<path d="M136.203 148.845H121.237C120.886 148.845 120.603 148.56 120.603 148.21V133.244C120.603 132.893 120.886 132.609 121.237 132.609H136.203C136.554 132.609 136.838 132.893 136.838 133.244V148.21C136.838 148.56 136.554 148.845 136.203 148.845Z" fill="#7C98DB"/>
<path d="M116.127 169.813H101.16C100.809 169.813 100.525 169.53 100.525 169.18V154.213C100.525 153.862 100.809 153.578 101.16 153.578H116.127C116.477 153.578 116.761 153.862 116.761 154.213V169.18C116.761 169.53 116.477 169.813 116.127 169.813Z" fill="#FFA38C"/>
<path d="M136.203 169.813H121.237C120.886 169.813 120.603 169.53 120.603 169.18V154.213C120.603 153.862 120.886 153.578 121.237 153.578H136.203C136.554 153.578 136.838 153.862 136.838 154.213V169.18C136.838 169.53 136.554 169.813 136.203 169.813Z" fill="#F8D2C7"/>
<path d="M116.261 177.265C116.261 176.696 115.799 176.234 115.23 176.234C114.661 176.234 114.199 176.696 114.199 177.265C114.199 177.834 114.661 178.296 115.23 178.296C115.799 178.296 116.261 177.834 116.261 177.265Z" fill="#F97A59"/>
<path d="M119.711 177.265C119.711 176.696 119.249 176.234 118.68 176.234C118.111 176.234 117.649 176.696 117.649 177.265C117.649 177.834 118.111 178.296 118.68 178.296C119.249 178.296 119.711 177.834 119.711 177.265Z" fill="#F97A59"/>
<path d="M123.162 177.265C123.162 176.696 122.701 176.234 122.132 176.234C121.562 176.234 121.101 176.696 121.101 177.265C121.101 177.834 121.562 178.296 122.132 178.296C122.701 178.296 123.162 177.834 123.162 177.265Z" fill="#F97A59"/>
<path d="M140.757 173.602H96.6025V174.078H140.757V173.602Z" fill="#F9D4C5"/>
<path d="M116.393 111.649L100.535 127.516L100.872 127.852L116.73 111.985L116.393 111.649Z" fill="#F97A59"/>
<path d="M38.2207 192.205C38.2207 193.005 47.4715 193.681 59.4982 193.805C60.5875 193.816 61.7001 193.821 62.8248 193.821H63.184C64.3929 193.821 65.5774 193.816 66.7381 193.805C67.265 193.798 67.7793 193.793 68.294 193.788C79.2557 193.641 87.4527 193.022 87.4527 192.272C87.4527 191.535 79.6504 190.904 69.0717 190.713H68.8802C67.2529 190.685 65.553 190.668 63.8178 190.662C63.4946 190.656 63.1835 190.656 62.8608 190.656C62.1783 190.656 61.5085 190.656 60.8504 190.662C60.1918 190.662 59.558 190.668 58.9231 190.668C47.1964 190.775 38.2329 191.411 38.2207 192.205Z" fill="#271F4A"/>
<path d="M60.8329 352.078H64.8018L64.8018 168.758H60.8329L60.8329 352.078Z" fill="white"/>
<path d="M51.8998 161.401H51.9231C51.9231 160.713 56.813 160.156 62.8446 160.156C68.8767 160.156 73.7672 160.713 73.7672 161.401C73.7672 161.413 73.754 161.425 73.7508 161.437L87.4418 192.263H65.1846H60.4502H38.1924L51.8998 161.401Z" fill="white"/>
<path d="M46.877 355.797H78.7575L73.0772 350.32H52.5567L46.877 355.797Z" fill="white"/>
<path d="M49.3437 190.895C49.321 190.895 49.2977 190.892 49.2744 190.885C49.149 190.847 49.0776 190.714 49.1157 190.588L58.001 161.325C58.0391 161.2 58.1702 161.128 58.2983 161.167C58.4237 161.205 58.4951 161.338 58.4565 161.464L49.5712 190.727C49.5405 190.829 49.4464 190.895 49.3437 190.895Z" fill="#271F4A"/>
<path d="M388.805 268.82C388.281 273.326 384.203 276.553 379.698 276.029C375.192 275.506 371.964 271.429 372.487 266.923C373.011 262.417 377.635 254.485 382.141 255.009C386.647 255.533 389.328 264.313 388.805 268.82Z" fill="#FF8C00"/>
<path d="M346.7 288.281C351.237 288.281 354.914 291.959 354.914 296.495C354.914 301.031 351.237 304.708 346.7 304.708C342.164 304.708 333.752 301.031 333.752 296.495C333.752 291.959 342.164 288.281 346.7 288.281Z" fill="#FF8C00"/>
<path d="M377.618 277.98C379.634 280.73 379.039 284.593 376.29 286.608C373.54 288.625 369.677 288.03 367.662 285.28C365.646 282.531 364.136 275.797 366.886 273.782C369.636 271.766 375.603 275.231 377.618 277.98Z" fill="#FF8C00"/>
<path d="M376.735 300.88C376.584 304.287 373.701 306.925 370.295 306.775C366.889 306.623 364.25 303.74 364.402 300.335C364.552 296.928 367.593 290.735 370.999 290.886C374.405 291.036 376.887 297.475 376.735 300.88Z" fill="#FF8C00"/>
<path d="M349.719 300.718C352.598 298.893 356.412 299.747 358.237 302.625C360.064 305.505 359.209 309.318 356.33 311.144C353.451 312.969 346.631 314.022 344.806 311.142C342.98 308.263 346.84 302.544 349.719 300.718Z" fill="#FF8C00"/>
<path d="M396.752 304.86C394.094 306.995 390.209 306.572 388.074 303.914C385.938 301.256 386.362 297.37 389.02 295.236C391.678 293.101 398.337 291.295 400.472 293.953C402.608 296.611 399.41 302.725 396.752 304.86Z" fill="#FF8C00"/>
<path d="M399.219 320.227C397.707 318.225 398.105 315.375 400.108 313.863C402.111 312.351 404.96 312.749 406.473 314.752C407.985 316.754 409.165 321.695 407.162 323.207C405.159 324.719 400.731 322.231 399.219 320.227Z" fill="#FF8C00"/>
<path d="M409.41 320.312C405.564 318.541 403.882 313.988 405.653 310.141C407.424 306.295 411.977 304.614 415.823 306.384C419.669 308.155 425.365 314.557 423.594 318.404C421.824 322.25 413.256 322.083 409.41 320.312Z" fill="#FF8C00"/>
<path d="M380.651 326.974C380.55 326.974 380.456 326.909 380.424 326.808C380.34 326.542 371.729 300.139 345.791 296.716C345.661 296.699 345.569 296.579 345.586 296.449C345.603 296.318 345.727 296.229 345.853 296.244C372.096 299.706 380.793 326.395 380.878 326.664C380.917 326.79 380.848 326.924 380.722 326.963C380.699 326.971 380.675 326.974 380.651 326.974Z" fill="#271F4A"/>
<path d="M384.684 323.359C384.576 323.359 384.479 323.285 384.452 323.177C384.381 322.879 377.329 293.079 380.414 265.485C380.429 265.354 380.549 265.26 380.678 265.275C380.809 265.29 380.902 265.408 380.888 265.539C377.813 293.047 384.844 322.769 384.916 323.065C384.947 323.193 384.868 323.321 384.74 323.353C384.72 323.357 384.702 323.359 384.684 323.359Z" fill="#271F4A"/>
<path d="M388.695 326.042C388.675 326.042 388.653 326.039 388.632 326.033C388.505 325.998 388.431 325.867 388.466 325.741C388.501 325.616 392.016 313.196 400.252 310.4C404.337 309.014 408.892 310.185 413.789 313.882C413.893 313.961 413.914 314.111 413.835 314.215C413.756 314.321 413.607 314.34 413.501 314.262C408.739 310.665 404.333 309.519 400.406 310.851C392.409 313.565 388.958 325.744 388.925 325.867C388.896 325.973 388.8 326.042 388.695 326.042Z" fill="#271F4A"/>
<path d="M382.757 313.505C382.73 313.505 382.702 313.5 382.676 313.49C382.552 313.446 382.488 313.309 382.533 313.186C382.544 313.155 383.653 310.117 385.749 306.896C387.692 303.908 390.908 300.143 395.19 299.179C395.321 299.147 395.447 299.23 395.475 299.358C395.505 299.487 395.424 299.614 395.296 299.643C387.379 301.427 383.024 313.228 382.981 313.347C382.946 313.445 382.854 313.505 382.757 313.505Z" fill="#271F4A"/>
<path d="M373.638 313.82C373.544 313.82 373.454 313.763 373.417 313.671C373.388 313.598 370.514 306.369 370.331 301.708C370.326 301.577 370.429 301.466 370.56 301.461C370.713 301.469 370.803 301.559 370.808 301.689C370.987 306.27 373.83 313.423 373.859 313.494C373.908 313.615 373.849 313.754 373.726 313.803C373.697 313.815 373.667 313.82 373.638 313.82Z" fill="#271F4A"/>
<path d="M354.162 304.331C354.057 304.331 353.961 304.261 353.932 304.155C353.898 304.028 353.973 303.897 354.1 303.863C357.845 302.858 362.899 302.821 362.95 302.82H362.951C363.082 302.82 363.189 302.926 363.189 303.057C363.19 303.189 363.084 303.296 362.953 303.296C362.903 303.297 357.909 303.334 354.225 304.322C354.204 304.328 354.183 304.331 354.162 304.331Z" fill="#271F4A"/>
<path d="M380.277 294.355C380.173 294.355 380.078 294.288 380.048 294.183C378.421 288.532 374.133 282.892 374.09 282.836C374.01 282.732 374.03 282.583 374.134 282.503C374.238 282.422 374.388 282.442 374.467 282.547C374.511 282.603 378.853 288.312 380.505 294.051C380.541 294.177 380.468 294.31 380.342 294.346C380.321 294.353 380.299 294.355 380.277 294.355Z" fill="#271F4A"/>
<path d="M403.304 314.584C403.266 314.584 403.228 314.575 403.192 314.556C400.539 313.133 396.541 313.047 396.501 313.047C396.37 313.044 396.265 312.935 396.268 312.804C396.27 312.673 396.398 312.567 396.51 312.57C396.678 312.573 400.664 312.66 403.418 314.136C403.533 314.198 403.577 314.343 403.515 314.459C403.472 314.539 403.389 314.584 403.304 314.584Z" fill="#271F4A"/>
<path d="M408.174 374.756H358.451L368.189 321.57H398.436L408.174 374.756Z" fill="#F9D4C5"/>
<path d="M405.945 362.836H360.677C360.545 362.836 360.438 362.729 360.438 362.597C360.438 362.466 360.545 362.359 360.677 362.359H405.945C406.076 362.359 406.183 362.466 406.183 362.597C406.184 362.729 406.077 362.836 405.945 362.836Z" fill="#271F4A"/>
<path d="M405.122 357.491H361.66C361.528 357.491 361.422 357.385 361.422 357.253C361.422 357.122 361.528 357.016 361.66 357.016H405.122C405.254 357.016 405.36 357.122 405.36 357.253C405.36 357.385 405.254 357.491 405.122 357.491Z" fill="#271F4A"/>
<path d="M408.173 375.006C408.061 375.006 407.961 374.925 407.939 374.81L398.201 321.624C398.177 321.494 398.264 321.37 398.393 321.347C398.521 321.327 398.646 321.409 398.67 321.538L408.409 374.725C408.432 374.854 408.346 374.978 408.217 375.002C408.202 375.004 408.188 375.006 408.173 375.006Z" fill="#271F4A"/>
<path d="M346.844 121.372C346.712 121.372 346.605 121.265 346.605 121.133V85.2381C346.605 85.1063 346.712 85 346.844 85C346.975 85 347.082 85.1063 347.082 85.2381V121.133C347.081 121.265 346.975 121.372 346.844 121.372Z" fill="white"/>
<path d="M349.925 140.594C349.925 138.773 348.448 137.297 346.628 137.297C344.807 137.297 343.331 138.773 343.331 140.594C343.331 142.415 344.808 143.89 346.628 143.89C348.448 143.89 349.925 142.415 349.925 140.594Z" fill="#FF8C00"/>
<path d="M346.987 121.797L334.921 140.107H336.042H359.054H360.175L346.987 121.797Z" fill="#FF8C00"/>
<path d="M346.846 154.067L346.752 154.017L331.783 145.999V129.841L331.887 129.785L346.846 121.773L346.939 121.823L361.908 129.841V145.999L361.804 146.056L346.846 154.067ZM332.178 145.764L346.846 153.62L361.514 145.764V130.077L346.846 122.221L332.178 130.077V145.764Z" fill="white"/>
<path d="M346.846 145.102L346.782 145.079L331.916 139.967L332.045 139.594L346.846 144.684L361.647 139.594L361.775 139.967L346.846 145.102Z" fill="white"/>
<path d="M347.042 153.841H346.647V122.686L332.147 145.984L331.812 145.775L346.677 121.891C346.723 121.816 346.813 121.779 346.899 121.805C346.983 121.83 347.042 121.907 347.042 121.995V153.841Z" fill="white"/>
<path d="M347.016 121.901L346.681 122.109L361.546 145.994L361.881 145.786L347.016 121.901Z" fill="white"/>
<path d="M347.843 123.572H345.475C345.145 123.572 344.877 123.304 344.877 122.974V120.606C344.877 120.276 345.145 120.008 345.475 120.008H347.843C348.173 120.008 348.441 120.276 348.441 120.606V122.974C348.441 123.304 348.173 123.572 347.843 123.572Z" fill="#C97A39"/>
<path d="M392.334 154.829C392.203 154.829 392.096 154.723 392.096 154.591V85.2381C392.096 85.1063 392.202 85 392.334 85C392.465 85 392.572 85.1063 392.572 85.2381V154.591C392.572 154.723 392.465 154.829 392.334 154.829Z" fill="white"/>
<path d="M395.417 174.039C395.417 172.218 393.941 170.742 392.12 170.742C390.3 170.742 388.823 172.218 388.823 174.039C388.823 175.86 390.299 177.336 392.12 177.336C393.941 177.336 395.417 175.86 395.417 174.039Z" fill="#FF8C00"/>
<path d="M392.479 155.242L380.413 173.553H381.534H404.546H405.667L392.479 155.242Z" fill="#FF8C00"/>
<path d="M392.336 187.504L392.243 187.454L377.273 179.436V163.278L377.378 163.222L392.336 155.211L392.429 155.261L407.398 163.278V179.436L407.294 179.493L392.336 187.504ZM377.669 179.201L392.336 187.058L407.004 179.201V163.514L392.336 155.658L377.669 163.514V179.201Z" fill="white"/>
<path d="M392.336 178.539L392.272 178.516L377.406 173.404L377.535 173.031L392.336 178.121L407.136 173.031L407.265 173.404L392.336 178.539Z" fill="white"/>
<path d="M392.534 187.278H392.139V156.123L377.639 179.42L377.304 179.212L392.169 155.328C392.215 155.253 392.305 155.217 392.391 155.243C392.475 155.267 392.534 155.344 392.534 155.432V187.278Z" fill="white"/>
<path d="M407.033 179.421L392.168 155.536L392.503 155.328L407.368 179.212L407.033 179.421Z" fill="white"/>
<path d="M393.333 157.018H390.966C390.635 157.018 390.367 156.75 390.367 156.419V154.052C390.367 153.721 390.635 153.453 390.966 153.453H393.333C393.664 153.453 393.931 153.721 393.931 154.052V156.419C393.931 156.75 393.664 157.018 393.333 157.018Z" fill="#C97A39"/>
</svg>
