<svg width="456" height="456" viewBox="0 0 456 456" fill="none" xmlns="http://www.w3.org/2000/svg">
<path d="M436.277 362.201C436.277 362.201 435.912 362.208 435.202 362.205C434.486 362.2 433.431 362.193 432.048 362.184C429.27 362.157 425.183 362.119 419.92 362.069C409.383 361.986 394.144 361.867 375.315 361.72C356.483 361.592 334.058 361.529 309.159 361.478C284.259 361.491 256.885 361.506 228.152 361.52C170.667 361.725 118.632 361.91 80.9628 362.043C62.1327 362.108 46.8949 362.159 36.3587 362.195C31.096 362.204 27.0086 362.211 24.2317 362.216C22.8487 362.215 21.7931 362.213 21.0776 362.213C20.3673 362.21 20.0029 362.201 20.0029 362.201C20.0029 362.201 20.3667 362.188 21.0776 362.179C21.7931 362.172 22.8487 362.163 24.2311 362.149C27.008 362.13 31.0953 362.102 36.3574 362.066C46.8937 362.005 62.1314 361.917 80.9608 361.808C118.626 361.603 170.663 361.318 228.15 361.188C256.884 361.129 284.259 361.127 309.159 361.172C334.058 361.239 356.483 361.327 375.315 361.485C384.731 361.569 393.249 361.646 400.731 361.713C408.21 361.801 414.653 361.877 419.92 361.94C425.183 362.017 429.27 362.076 432.048 362.117C433.431 362.14 434.486 362.159 435.202 362.171C435.913 362.185 436.277 362.201 436.277 362.201Z" fill="#263238"/>
<path d="M54.6088 147.379L53.0805 142.266C54.7483 139.559 55.7122 136.372 55.7122 132.959C55.7122 123.144 47.756 115.188 37.9416 115.188C28.1264 115.188 20.1709 123.144 20.1709 132.959C20.1709 142.773 28.1271 150.729 37.9416 150.729C42.0397 150.729 45.8111 149.339 48.8174 147.008L48.811 147.015L54.6088 147.379Z" fill="#FAFAFA"/>
<path d="M54.6095 147.384C54.6095 147.384 54.4942 147.385 54.2502 147.374C53.9871 147.362 53.6233 147.345 53.1519 147.323C52.1492 147.272 50.6941 147.196 48.8072 147.099C48.7651 147.097 48.732 147.061 48.7345 147.019C48.7352 147.003 48.7422 146.987 48.7511 146.975C48.7511 146.975 48.7549 146.97 48.7568 146.968L48.8651 147.076C47.0604 148.489 44.3745 150.024 40.851 150.617C39.1004 150.926 37.1573 150.944 35.1391 150.631C33.1229 150.321 31.025 149.64 29.0438 148.508C27.0638 147.38 25.2043 145.804 23.6944 143.826C22.184 141.854 21.0284 139.479 20.4404 136.879C19.2191 131.702 20.534 125.573 24.4347 121.169C26.3962 118.941 28.8508 117.205 31.5302 116.218C34.1969 115.202 37.0306 114.856 39.7189 115.113C42.4105 115.381 44.9377 116.273 47.0954 117.564C49.2576 118.857 51.0509 120.55 52.4033 122.412C55.1248 126.158 56.0352 130.463 55.7982 133.999C55.5797 137.574 54.3432 140.399 53.1449 142.311L53.1525 142.251C53.629 143.916 53.9979 145.202 54.2527 146.091C54.3699 146.508 54.4604 146.83 54.526 147.065C54.5865 147.281 54.6146 147.389 54.6095 147.384C54.6095 147.384 54.5655 147.265 54.4942 147.042C54.419 146.805 54.3158 146.478 54.1826 146.058C53.9113 145.186 53.5182 143.924 53.0098 142.293C53.0034 142.273 53.0073 142.25 53.0175 142.232C54.1801 140.32 55.3739 137.515 55.5638 133.985C55.7721 130.491 54.8509 126.261 52.16 122.588C50.8222 120.763 49.0543 119.105 46.9279 117.842C44.8058 116.58 42.3245 115.711 39.6839 115.453C37.0458 115.206 34.2683 115.55 31.6557 116.548C29.0304 117.517 26.6255 119.22 24.7035 121.404C20.8812 125.719 19.5867 131.722 20.7748 136.803C21.3469 139.354 22.4745 141.686 23.9524 143.628C25.4291 145.573 27.2511 147.129 29.1929 148.246C31.1365 149.367 33.1961 150.046 35.1805 150.362C37.1663 150.68 39.0825 150.675 40.8121 150.382C44.2917 149.821 46.9616 148.33 48.7696 146.953C48.8033 146.927 48.8518 146.933 48.8779 146.966C48.9002 146.994 48.8989 147.034 48.8779 147.061C48.8753 147.063 48.8715 147.068 48.8715 147.068L48.8154 146.944C50.6769 147.081 52.1122 147.187 53.1009 147.259C53.58 147.297 53.9507 147.326 54.2183 147.347C54.4725 147.368 54.6095 147.384 54.6095 147.384Z" fill="#263238"/>
<path d="M32.9233 132.876C32.9233 133.873 32.1149 134.681 31.1179 134.681C30.1209 134.681 29.3125 133.873 29.3125 132.876C29.3125 131.879 30.1209 131.07 31.1179 131.07C32.1149 131.071 32.9233 131.879 32.9233 132.876Z" fill="#263238"/>
<path d="M40.1509 132.876C40.1509 133.873 39.3424 134.681 38.3455 134.681C37.3485 134.681 36.54 133.873 36.54 132.876C36.54 131.879 37.3485 131.07 38.3455 131.07C39.3424 131.071 40.1509 131.879 40.1509 132.876Z" fill="#263238"/>
<path d="M47.3638 131.973C47.8626 132.837 47.5664 133.941 46.7032 134.439C45.8393 134.938 44.7353 134.642 44.2371 133.779C43.7389 132.916 44.0345 131.811 44.8977 131.313C45.7616 130.814 46.8656 131.11 47.3638 131.973Z" fill="#263238"/>
<path d="M216.941 315.924C216.927 315.926 216.911 316.879 216.896 318.555C215.755 317.518 214.411 316.723 212.948 316.212L212.964 316.212C212.964 316.212 205.002 311.281 201.369 304.998C198.731 300.438 197.846 294.915 197.846 294.915C197.846 294.642 197.817 292.22 197.793 290.238C197.773 288.613 196.475 287.31 194.852 287.252C191.438 287.131 182.344 287.452 181.702 293.759C180.743 303.169 187.739 311.472 188.311 314.179C188.419 314.69 188.507 315.104 188.578 315.441C185.89 315.441 183.813 315.475 183.813 315.52L183.817 315.521L166.157 315.492C166.157 315.492 160.233 315.099 159.649 321.214C159.064 327.328 165.943 327.723 165.943 327.723C165.943 327.723 162.884 328.291 163.257 333.643C163.63 338.995 169.553 339.388 169.553 339.388C169.553 339.388 166.111 339.955 166.294 344.733C166.472 349.384 172.628 350.786 172.956 350.857C172.095 350.871 171.563 350.892 171.563 350.916C171.563 350.937 171.97 350.957 172.646 350.973C170.142 351.9 170.48 355.061 170.48 355.061C170.277 361.749 175.436 361.95 175.436 361.95L207.681 362.009C210.925 362.015 214.075 361.144 216.825 359.538C216.834 360.909 216.845 361.68 216.858 361.682L239.379 361.723C239.428 361.723 239.486 351.479 239.51 338.846C239.533 326.208 239.512 315.966 239.463 315.966L216.941 315.924Z" fill="#FF8C00"/>
<g opacity="0.3">
<path d="M216.941 315.924C216.927 315.926 216.911 316.879 216.896 318.555C215.755 317.518 214.411 316.723 212.948 316.212L212.964 316.212C212.964 316.212 205.002 311.281 201.369 304.998C198.731 300.438 197.846 294.915 197.846 294.915C197.846 294.642 197.817 292.22 197.793 290.238C197.773 288.613 196.475 287.31 194.852 287.252C191.438 287.131 182.344 287.452 181.702 293.759C180.743 303.169 187.739 311.472 188.311 314.179C188.419 314.69 188.507 315.104 188.578 315.441C185.89 315.441 183.813 315.475 183.813 315.52L183.817 315.521L166.157 315.492C166.157 315.492 160.233 315.099 159.649 321.214C159.064 327.328 165.943 327.723 165.943 327.723C165.943 327.723 162.884 328.291 163.257 333.643C163.63 338.995 169.553 339.388 169.553 339.388C169.553 339.388 166.111 339.955 166.294 344.733C166.472 349.384 172.628 350.786 172.956 350.857C172.095 350.871 171.563 350.892 171.563 350.916C171.563 350.937 171.97 350.957 172.646 350.973C170.142 351.9 170.48 355.061 170.48 355.061C170.277 361.749 175.436 361.95 175.436 361.95L207.681 362.009C210.925 362.015 214.075 361.144 216.825 359.538C216.834 360.909 216.845 361.68 216.858 361.682L239.379 361.723C239.428 361.723 239.486 351.479 239.51 338.846C239.533 326.208 239.512 315.966 239.463 315.966L216.941 315.924Z" fill="black"/>
</g>
<path d="M214.221 322.943L215.278 325.624L215.222 356.453C211.799 360.076 207.032 362.125 202.047 362.116L169.802 362.057C169.802 362.057 164.643 361.856 164.846 355.168C164.846 355.168 164.47 351.727 167.338 350.968C167.338 350.968 160.843 349.618 160.661 344.84C160.478 340.062 163.919 339.494 163.919 339.494C163.919 339.494 157.995 339.101 157.623 333.749C157.251 328.397 160.31 327.83 160.31 327.83C160.31 327.83 153.43 327.435 154.015 321.32C154.6 315.206 160.523 315.599 160.523 315.599L183.456 315.636L203.56 315.673C208.269 315.683 212.494 318.564 214.221 322.943Z" fill="#FF8C00"/>
<path d="M207.333 316.338C207.333 316.338 199.371 311.407 195.738 305.124C193.1 300.564 192.215 295.041 192.215 295.041C192.215 294.768 192.186 292.345 192.162 290.364C192.142 288.739 190.844 287.437 189.221 287.379C185.807 287.257 180.378 290.197 179.736 296.504C178.777 305.914 182.108 311.598 182.68 314.305C183.252 317.012 183.252 317.012 183.252 317.012L207.333 316.338Z" fill="#FF8C00"/>
<path d="M211.216 361.811L233.737 361.852L233.82 316.094L211.298 316.054L211.216 361.811Z" fill="#FF8C00"/>
<path d="M211.229 361.827C211.18 361.827 211.159 351.583 211.182 338.95C211.205 326.312 211.264 316.07 211.312 316.07C211.361 316.07 211.382 326.312 211.359 338.95C211.336 351.583 211.277 361.827 211.229 361.827Z" fill="#263238"/>
<path d="M233.744 361.851C233.696 361.851 233.675 351.607 233.698 338.973C233.721 326.335 233.779 316.093 233.828 316.094C233.877 316.094 233.897 326.336 233.874 338.974C233.851 351.607 233.793 361.851 233.744 361.851Z" fill="#263238"/>
<path d="M219.242 326.535C219.238 328.862 221.122 330.753 223.449 330.756C225.776 330.761 227.666 328.878 227.67 326.55C227.675 324.222 225.791 322.332 223.464 322.328C221.136 322.324 219.247 324.207 219.242 326.535Z" fill="white"/>
<path d="M178.182 315.657C178.182 315.608 180.637 315.573 183.665 315.579C186.695 315.584 189.15 315.628 189.15 315.677C189.15 315.725 186.695 315.761 183.665 315.755C180.637 315.75 178.182 315.706 178.182 315.657Z" fill="#263238"/>
<path d="M163.466 339.73C163.466 339.681 165.036 339.645 166.971 339.649C168.908 339.652 170.477 339.695 170.476 339.743C170.476 339.792 168.907 339.828 166.97 339.825C165.035 339.821 163.466 339.779 163.466 339.73Z" fill="#263238"/>
<path d="M159.868 327.728C159.868 327.679 162.096 327.644 164.844 327.649C167.592 327.654 169.819 327.697 169.819 327.746C169.819 327.795 167.592 327.83 164.843 327.825C162.096 327.82 159.868 327.776 159.868 327.728Z" fill="#263238"/>
<path d="M165.93 351.056C165.93 351.007 168.157 350.972 170.905 350.977C173.653 350.982 175.88 351.025 175.88 351.075C175.88 351.123 173.653 351.159 170.905 351.154C168.157 351.148 165.93 351.104 165.93 351.056Z" fill="#263238"/>
<g opacity="0.3">
<path d="M189.536 289.572C190.345 290.039 190.664 291.071 190.615 292.003C190.565 292.935 190.222 293.823 190.017 294.733C189.562 296.746 189.794 298.908 190.664 300.779C190.93 301.35 191.258 302.007 190.984 302.574C190.596 303.379 189.407 303.257 188.595 302.885C185.518 301.476 183.426 298.148 183.489 294.764C183.515 293.339 183.918 291.88 184.841 290.794C185.764 289.707 187.305 288.557 189.536 289.572Z" fill="white"/>
</g>
<g opacity="0.3">
<path d="M158.695 316.828C159.412 316.51 160.225 316.521 161.008 316.538C165.565 316.634 170.122 316.73 174.679 316.827C176.17 316.858 178.885 316.565 179.244 317.995C179.71 318.714 179.319 319.738 178.622 320.238C177.927 320.738 177.03 320.843 176.175 320.902C174.384 321.025 172.587 321.018 170.792 321.006C167.185 320.981 163.561 320.934 160.004 320.336C159.476 320.248 158.939 320.143 158.47 319.886C158 319.63 157.599 319.194 157.513 318.665C157.388 317.891 157.979 317.145 158.695 316.828Z" fill="white"/>
</g>
<path d="M216.618 317.357C216.618 317.308 219.765 317.275 223.647 317.282C227.53 317.289 230.675 317.334 230.675 317.383C230.675 317.432 227.529 317.466 223.646 317.459C219.765 317.451 216.618 317.406 216.618 317.357Z" fill="white"/>
<path d="M160.118 335.625C160.107 335.631 160.057 335.548 159.974 335.392C159.889 335.238 159.792 335.001 159.698 334.7C159.6 334.399 159.528 334.029 159.487 333.613C159.455 333.196 159.462 332.733 159.533 332.255C159.61 331.778 159.744 331.335 159.9 330.947C160.065 330.563 160.246 330.231 160.43 329.974C160.611 329.716 160.775 329.52 160.903 329.398C161.028 329.275 161.101 329.211 161.109 329.219C161.133 329.242 160.861 329.52 160.534 330.043C160.367 330.302 160.202 330.631 160.05 331.008C159.907 331.388 159.781 331.819 159.707 332.282C159.638 332.746 159.627 333.194 159.649 333.6C159.68 334.005 159.738 334.368 159.818 334.666C159.972 335.264 160.148 335.61 160.118 335.625Z" fill="white"/>
<path d="M156.803 324.025C156.793 324.039 156.553 323.892 156.267 323.544C155.981 323.2 155.68 322.634 155.567 321.953C155.457 321.271 155.561 320.638 155.723 320.221C155.883 319.8 156.064 319.584 156.077 319.594C156.105 319.61 155.965 319.846 155.842 320.26C155.716 320.673 155.636 321.275 155.742 321.925C155.85 322.575 156.117 323.12 156.367 323.47C156.616 323.822 156.824 324.001 156.803 324.025Z" fill="white"/>
<path d="M164.068 348.029C164.063 348.045 163.752 347.94 163.362 347.595C162.976 347.259 162.53 346.643 162.395 345.85C162.263 345.055 162.483 344.328 162.738 343.884C162.993 343.43 163.253 343.229 163.264 343.243C163.288 343.263 163.066 343.492 162.849 343.941C162.632 344.383 162.444 345.074 162.569 345.82C162.696 346.566 163.099 347.158 163.448 347.505C163.8 347.858 164.084 348.002 164.068 348.029Z" fill="white"/>
<path d="M168.629 358.914C168.618 358.927 168.383 358.761 168.101 358.395C167.818 358.033 167.515 357.453 167.384 356.757C167.256 356.06 167.329 355.411 167.462 354.971C167.594 354.528 167.754 354.289 167.768 354.297C167.796 354.31 167.68 354.566 167.583 355.002C167.485 355.435 167.435 356.057 167.557 356.725C167.683 357.392 167.954 357.954 168.202 358.323C168.449 358.695 168.65 358.892 168.629 358.914Z" fill="white"/>
<path d="M181.872 306.81C181.862 306.815 181.776 306.65 181.63 306.345C181.556 306.194 181.469 306.006 181.384 305.782C181.297 305.559 181.186 305.308 181.097 305.02C180.894 304.45 180.703 303.754 180.542 302.971C180.392 302.187 180.277 301.313 180.24 300.39C180.21 299.467 180.261 298.587 180.354 297.793C180.458 297 180.598 296.293 180.758 295.71C180.827 295.415 180.918 295.157 180.99 294.928C181.058 294.698 181.131 294.505 181.195 294.348C181.318 294.034 181.391 293.863 181.402 293.867C181.414 293.872 181.362 294.051 181.26 294.371C181.206 294.53 181.144 294.726 181.084 294.957C181.022 295.187 180.94 295.446 180.879 295.74C180.735 296.322 180.61 297.026 180.516 297.812C180.433 298.599 180.388 299.47 180.416 300.384C180.454 301.297 180.562 302.162 180.702 302.941C180.853 303.718 181.029 304.411 181.215 304.981C181.297 305.269 181.398 305.522 181.476 305.747C181.552 305.973 181.628 306.164 181.693 306.319C181.819 306.629 181.883 306.805 181.872 306.81Z" fill="white"/>
<path d="M305.875 277.507H125.577C119.943 277.507 115.376 272.939 115.376 267.306V120.607C115.376 114.973 119.943 110.406 125.577 110.406H305.875C311.509 110.406 316.076 114.973 316.076 120.607V267.307C316.075 272.94 311.509 277.507 305.875 277.507Z" fill="white"/>
<path d="M305.874 277.823H125.576C119.776 277.823 115.058 273.105 115.058 267.304V120.605C115.058 114.805 119.776 110.086 125.576 110.086H305.875C311.675 110.086 316.394 114.805 316.394 120.605V267.304C316.393 273.105 311.675 277.823 305.874 277.823ZM125.576 110.724C120.127 110.724 115.695 115.157 115.695 120.606V267.305C115.695 272.754 120.127 277.187 125.576 277.187H305.875C311.324 277.187 315.757 272.754 315.757 267.305V120.605C315.757 115.156 311.324 110.723 305.875 110.723L125.576 110.724Z" fill="#263238"/>
<path d="M151.382 234.586H147.141V263.976H151.382V234.586Z" fill="#FF8C00"/>
<path d="M143.344 256.633H139.103V263.98H143.344V256.633Z" fill="#FF8C00"/>
<path d="M158.725 249.289H154.483V263.984H158.725V249.289Z" fill="#FF8C00"/>
<path d="M165.942 240.734H161.7V263.988H165.942V240.734Z" fill="#FF8C00"/>
<path d="M174.261 257.773H170.02V263.989H174.261V257.773Z" fill="#FF8C00"/>
<path d="M303.079 257.143C302.921 256.962 302.843 256.725 302.843 256.43C302.843 256.136 302.921 255.898 303.079 255.717C303.236 255.536 303.443 255.445 303.698 255.445C303.955 255.445 304.163 255.535 304.322 255.715C304.481 255.894 304.56 256.133 304.56 256.43C304.56 256.728 304.481 256.967 304.322 257.146C304.163 257.326 303.955 257.415 303.698 257.415C303.443 257.415 303.236 257.325 303.079 257.143ZM304.025 256.891C304.102 256.783 304.14 256.628 304.14 256.43C304.14 256.231 304.101 256.078 304.025 255.968C303.947 255.859 303.839 255.803 303.698 255.803C303.566 255.803 303.458 255.859 303.378 255.97C303.298 256.082 303.257 256.235 303.257 256.429C303.257 256.624 303.298 256.777 303.378 256.888C303.458 256.999 303.566 257.055 303.698 257.055C303.839 257.056 303.947 257.001 304.025 256.891ZM305.853 255.482H306.355L303.903 259.071H303.401L305.853 255.482ZM305.432 258.836C305.275 258.655 305.197 258.417 305.197 258.123C305.197 257.829 305.275 257.592 305.432 257.41C305.59 257.228 305.797 257.138 306.054 257.138C306.31 257.138 306.517 257.228 306.677 257.41C306.836 257.591 306.916 257.829 306.916 258.123C306.916 258.417 306.836 258.655 306.677 258.836C306.518 259.017 306.311 259.107 306.054 259.107C305.796 259.107 305.589 259.017 305.432 258.836ZM306.377 258.582C306.455 258.471 306.494 258.317 306.494 258.123C306.494 257.928 306.455 257.775 306.377 257.664C306.298 257.553 306.191 257.497 306.054 257.497C305.917 257.497 305.809 257.552 305.731 257.662C305.652 257.771 305.613 257.925 305.613 258.123C305.613 258.322 305.652 258.476 305.731 258.585C305.809 258.695 305.917 258.75 306.054 258.75C306.191 258.748 306.298 258.693 306.377 258.582Z" fill="#FF8C00"/>
<path d="M282.18 239.166H296.183C296.76 239.166 297.052 238.471 296.649 238.058L289.647 230.907C289.392 230.646 288.971 230.646 288.716 230.907L281.715 238.058C281.311 238.47 281.603 239.166 282.18 239.166Z" fill="#EBEBEB"/>
<path d="M293.867 237.852H284.889V252.087H293.867V237.852Z" fill="#EBEBEB"/>
<path d="M290.871 264.008V266.911H281.972V264.612L285.985 260.9C286.334 260.572 286.566 260.292 286.683 260.059C286.799 259.827 286.857 259.599 286.857 259.378C286.857 259.102 286.764 258.888 286.58 258.735C286.394 258.582 286.127 258.506 285.778 258.506C285.44 258.506 285.123 258.595 284.826 258.775C284.53 258.955 284.303 259.209 284.145 259.536L281.321 258.125C281.744 257.331 282.363 256.705 283.177 256.245C283.991 255.785 284.974 255.555 286.127 255.555C287.005 255.555 287.782 255.698 288.459 255.983C289.136 256.269 289.665 256.676 290.045 257.205C290.426 257.733 290.617 258.341 290.617 259.029C290.617 259.642 290.487 260.215 290.228 260.75C289.969 261.284 289.464 261.889 288.713 262.565L287.127 264.009L290.871 264.008Z" fill="#FF8C00"/>
<path d="M294.051 266.477C293.295 266.016 292.703 265.351 292.275 264.478C291.847 263.606 291.632 262.567 291.632 261.361C291.632 260.155 291.847 259.116 292.275 258.244C292.703 257.372 293.295 256.705 294.051 256.245C294.808 255.785 295.677 255.555 296.661 255.555C297.644 255.555 298.514 255.785 299.27 256.245C300.026 256.705 300.618 257.371 301.047 258.244C301.475 259.116 301.689 260.155 301.689 261.361C301.689 262.567 301.475 263.605 301.047 264.478C300.618 265.351 300.026 266.016 299.27 266.477C298.515 266.937 297.644 267.167 296.661 267.167C295.677 267.167 294.807 266.937 294.051 266.477ZM297.93 261.361C297.93 259.49 297.507 258.554 296.661 258.554C295.815 258.554 295.392 259.49 295.392 261.361C295.392 263.233 295.815 264.169 296.661 264.169C297.507 264.169 297.93 263.234 297.93 261.361Z" fill="#FF8C00"/>
<path d="M156.667 177.002C156.51 176.822 156.432 176.584 156.432 176.29C156.432 175.996 156.51 175.758 156.667 175.577C156.825 175.395 157.032 175.305 157.287 175.305C157.544 175.305 157.752 175.395 157.911 175.574C158.07 175.754 158.149 175.992 158.149 176.29C158.149 176.588 158.07 176.826 157.911 177.005C157.752 177.185 157.544 177.274 157.287 177.274C157.032 177.274 156.825 177.183 156.667 177.002ZM157.613 176.751C157.69 176.642 157.729 176.488 157.729 176.289C157.729 176.091 157.69 175.937 157.613 175.827C157.536 175.718 157.428 175.663 157.288 175.663C157.155 175.663 157.048 175.719 156.967 175.83C156.887 175.941 156.847 176.094 156.847 176.288C156.847 176.484 156.887 176.636 156.967 176.748C157.048 176.858 157.155 176.914 157.288 176.914C157.428 176.915 157.536 176.86 157.613 176.751ZM159.442 175.34H159.944L157.493 178.93H156.991L159.442 175.34ZM159.021 178.695C158.864 178.514 158.786 178.276 158.786 177.982C158.786 177.688 158.864 177.45 159.021 177.269C159.179 177.087 159.386 176.997 159.642 176.997C159.899 176.997 160.106 177.088 160.265 177.269C160.425 177.45 160.504 177.687 160.504 177.982C160.504 178.276 160.425 178.514 160.265 178.695C160.106 178.876 159.899 178.966 159.642 178.966C159.386 178.966 159.179 178.876 159.021 178.695ZM159.965 178.441C160.044 178.33 160.083 178.177 160.083 177.982C160.083 177.787 160.044 177.634 159.965 177.523C159.887 177.412 159.779 177.356 159.642 177.356C159.505 177.356 159.398 177.411 159.319 177.52C159.241 177.63 159.202 177.783 159.202 177.982C159.202 178.18 159.241 178.334 159.319 178.443C159.398 178.553 159.505 178.608 159.642 178.608C159.779 178.607 159.887 178.552 159.965 178.441Z" fill="#FF8C00"/>
<path d="M122.233 176.157H135.045C135.573 176.157 135.841 175.521 135.471 175.144L129.066 168.601C128.832 168.362 128.447 168.362 128.213 168.601L121.808 175.144C121.437 175.521 121.705 176.157 122.233 176.157Z" fill="#EBEBEB"/>
<path d="M132.924 174.945H124.709V187.971H132.924V174.945Z" fill="#EBEBEB"/>
<path d="M144.053 175.812V186.916H140.309V178.636H138.405V175.812H144.053Z" fill="#FF8C00"/>
<path d="M147.836 186.476C147.08 186.016 146.488 185.349 146.059 184.477C145.631 183.605 145.417 182.565 145.417 181.36C145.417 180.155 145.631 179.116 146.059 178.243C146.487 177.371 147.08 176.705 147.836 176.245C148.591 175.785 149.462 175.555 150.445 175.555C151.428 175.555 152.298 175.785 153.055 176.245C153.81 176.705 154.403 177.371 154.831 178.243C155.259 179.116 155.474 180.155 155.474 181.36C155.474 182.566 155.26 183.605 154.831 184.477C154.403 185.349 153.81 186.016 153.055 186.476C152.298 186.936 151.429 187.166 150.445 187.166C149.462 187.166 148.592 186.935 147.836 186.476ZM151.714 181.36C151.714 179.488 151.291 178.552 150.445 178.552C149.599 178.552 149.176 179.488 149.176 181.36C149.176 183.232 149.599 184.167 150.445 184.167C151.291 184.168 151.714 183.232 151.714 181.36Z" fill="#FF8C00"/>
<path d="M176.633 264.127C176.633 264.218 167.995 264.292 157.34 264.292C146.682 264.292 138.046 264.218 138.046 264.127C138.046 264.035 146.683 263.961 157.34 263.961C167.995 263.96 176.633 264.035 176.633 264.127Z" fill="#263238"/>
<path d="M333.679 136.01H248.181C245.318 136.01 242.997 133.689 242.997 130.826V85.3478C242.997 82.4849 245.318 80.1641 248.181 80.1641H333.679C336.542 80.1641 338.863 82.4849 338.863 85.3478V130.827C338.863 133.689 336.542 136.01 333.679 136.01Z" fill="white"/>
<path d="M333.681 136.012C333.679 135.996 333.94 136.011 334.435 135.933C334.927 135.86 335.669 135.672 336.491 135.141C337.291 134.608 338.189 133.688 338.596 132.312C338.815 131.629 338.823 130.859 338.808 130.032C338.806 129.206 338.803 128.327 338.801 127.396C338.788 119.937 338.77 109.157 338.748 95.8366C338.744 92.5054 338.741 89.0156 338.737 85.3793C338.753 83.6013 337.751 81.8067 336.116 80.925C335.304 80.4848 334.379 80.2682 333.428 80.3013C332.465 80.302 331.495 80.3026 330.515 80.3039C322.681 80.3083 314.31 80.3134 305.502 80.3192C287.885 80.323 268.518 80.3274 248.189 80.3325C246.956 80.3325 245.738 80.8008 244.832 81.6226C243.92 82.438 243.323 83.5904 243.196 84.8008C243.133 87.2733 243.178 89.7947 243.164 92.2614C243.163 97.2126 243.162 102.091 243.161 106.885C243.16 111.679 243.159 116.387 243.157 120.999C243.156 123.304 243.155 125.586 243.154 127.842C243.162 128.965 243.135 130.103 243.172 131.194C243.242 132.275 243.682 133.315 244.384 134.121C245.08 134.934 246.041 135.5 247.069 135.733C247.588 135.849 248.104 135.871 248.651 135.862C249.192 135.862 249.73 135.863 250.266 135.863C252.413 135.864 254.53 135.865 256.617 135.867C260.79 135.87 264.841 135.872 268.759 135.875C276.593 135.882 283.89 135.889 290.553 135.895C303.873 135.918 314.653 135.935 322.11 135.948C325.831 135.961 328.722 135.972 330.69 135.979C331.666 135.986 332.412 135.992 332.921 135.996C333.423 136 333.681 136.012 333.681 136.012C333.681 136.012 333.423 136.023 332.921 136.029C332.411 136.033 331.666 136.039 330.69 136.046C328.722 136.053 325.831 136.063 322.11 136.077C314.652 136.09 303.873 136.107 290.553 136.13C283.89 136.136 276.593 136.142 268.758 136.15C264.841 136.153 260.789 136.155 256.616 136.158C254.529 136.16 252.412 136.161 250.266 136.162C249.729 136.162 249.191 136.163 248.651 136.163C248.118 136.173 247.545 136.151 247.002 136.028C245.911 135.782 244.891 135.182 244.152 134.321C243.406 133.467 242.938 132.363 242.863 131.217C242.823 130.081 242.851 128.975 242.842 127.842C242.841 125.586 242.84 123.305 242.839 120.999C242.838 116.387 242.836 111.679 242.835 106.885C242.835 102.091 242.833 97.2126 242.833 92.2614C242.847 89.7782 242.799 87.3089 242.865 84.7645C243 83.4739 243.638 82.2437 244.609 81.3754C245.574 80.4995 246.875 79.9994 248.188 80C268.517 80.0045 287.884 80.0089 305.501 80.0127C314.309 80.0178 322.679 80.0229 330.514 80.028C331.493 80.0287 332.464 80.0293 333.426 80.0299C334.401 79.9968 335.395 80.2262 336.243 80.6918C337.963 81.6213 339.014 83.5146 338.992 85.3793C338.988 89.0156 338.985 92.5054 338.981 95.8366C338.959 109.157 338.941 119.937 338.928 127.396C338.925 128.327 338.923 129.206 338.92 130.032C338.93 130.852 338.916 131.649 338.688 132.34C338.263 133.741 337.342 134.666 336.526 135.197C335.687 135.726 334.935 135.903 334.439 135.967C334.19 136.011 333.998 136.004 333.872 136.01C333.745 136.014 333.681 136.012 333.681 136.012Z" fill="#263238"/>
<path d="M258.021 115.477H255.272V125.46H258.021V115.477Z" fill="#FF8C00"/>
<path d="M267.816 107.406H265.067V125.464H267.816V107.406Z" fill="#FF8C00"/>
<path d="M263.244 95.5703H259.848V125.471H263.244V95.5703Z" fill="#455A64"/>
<path d="M277.613 118.641H274.864V125.472H277.613V118.641Z" fill="#FF8C00"/>
<path d="M272.717 118.641H269.968V125.472H272.717V118.641Z" fill="#455A64"/>
<path d="M287.407 114.289H284.658V125.478H287.407V114.289Z" fill="#FF8C00"/>
<path d="M282.509 104.586H279.76V125.488H282.509V104.586Z" fill="#455A64"/>
<path d="M302.103 104.586H299.354V125.488H302.103V104.586Z" fill="#455A64"/>
<path d="M292.307 93.9922H289.558V125.475H292.307V93.9922Z" fill="#455A64"/>
<path d="M297.204 117.688H294.455V125.484H297.204V117.688Z" fill="#FF8C00"/>
<path d="M321.692 119.75H318.943V125.475H321.692V119.75Z" fill="#455A64"/>
<path d="M311.898 94.5781H309.149V125.465H311.898V94.5781Z" fill="#455A64"/>
<path d="M316.793 100.914H314.044V125.483H316.793V100.914Z" fill="#FF8C00"/>
<path d="M307.002 100.008H304.253V125.469H307.002V100.008Z" fill="#FF8C00"/>
<path d="M326.589 104.586H323.84V125.488H326.589V104.586Z" fill="#FF8C00"/>
<path d="M261.419 129.557H255.734C255.52 129.557 255.346 129.383 255.346 129.169V128.81C255.346 128.596 255.52 128.422 255.734 128.422H261.418C261.633 128.422 261.807 128.596 261.807 128.81V129.169C261.807 129.383 261.633 129.557 261.419 129.557Z" fill="#E0E0E0"/>
<path d="M280.141 129.557H274.457C274.242 129.557 274.068 129.383 274.068 129.169V128.81C274.068 128.596 274.242 128.422 274.457 128.422H280.141C280.355 128.422 280.529 128.596 280.529 128.81V129.169C280.529 129.383 280.355 129.557 280.141 129.557Z" fill="#E0E0E0"/>
<path d="M296.665 129.557H290.981C290.767 129.557 290.593 129.383 290.593 129.169V128.81C290.593 128.596 290.767 128.422 290.981 128.422H296.665C296.88 128.422 297.054 128.596 297.054 128.81V129.169C297.054 129.383 296.88 129.557 296.665 129.557Z" fill="#E0E0E0"/>
<path d="M313.688 129.557H308.004C307.789 129.557 307.615 129.383 307.615 129.169V128.81C307.615 128.596 307.789 128.422 308.004 128.422H313.688C313.902 128.422 314.076 128.596 314.076 128.81V129.169C314.076 129.383 313.902 129.557 313.688 129.557Z" fill="#E0E0E0"/>
<path d="M328.112 129.557H322.429C322.214 129.557 322.04 129.383 322.04 129.169V128.81C322.04 128.596 322.214 128.422 322.429 128.422H328.112C328.327 128.422 328.501 128.596 328.501 128.81V129.169C328.501 129.383 328.327 129.557 328.112 129.557Z" fill="#E0E0E0"/>
<path d="M330.111 125.478C330.111 125.57 312.417 125.644 290.595 125.644C268.766 125.644 251.076 125.569 251.076 125.478C251.076 125.386 268.766 125.313 290.595 125.313C312.416 125.312 330.111 125.386 330.111 125.478Z" fill="#263238"/>
<path d="M252.152 89.5743C252.986 89.5743 253.662 88.8984 253.662 88.0645C253.662 87.2307 252.986 86.5547 252.152 86.5547C251.319 86.5547 250.643 87.2307 250.643 88.0645C250.643 88.8984 251.319 89.5743 252.152 89.5743Z" fill="#E0E0E0"/>
<path d="M257.765 88.0645C257.765 88.8984 257.089 89.5743 256.255 89.5743C255.421 89.5743 254.745 88.8984 254.745 88.0645C254.745 87.2306 255.421 86.5547 256.255 86.5547C257.089 86.5553 257.765 87.2306 257.765 88.0645Z" fill="#E0E0E0"/>
<path d="M260.318 89.5743C261.152 89.5743 261.828 88.8984 261.828 88.0645C261.828 87.2307 261.152 86.5547 260.318 86.5547C259.485 86.5547 258.809 87.2307 258.809 88.0645C258.809 88.8984 259.485 89.5743 260.318 89.5743Z" fill="#E0E0E0"/>
<path d="M178.938 209.793L188.324 229.361L193.233 228.086L224.603 254.984L233.858 237.502C233.858 237.502 215.177 228.906 211.826 222.034C208.475 215.163 211.625 215.362 211.625 215.362L203.863 203.32L178.938 209.793Z" fill="#263238"/>
<path d="M191.078 183.731C191.078 183.731 200.919 180.841 216.66 169.69C228.171 161.536 237.171 151.825 241.176 147.195C243.099 144.971 246.438 144.626 248.681 146.517C252.143 149.436 256.917 156.763 262.118 175.384C271.287 208.216 264.709 214.459 261.951 213.964C259.192 213.467 241.039 207.467 229.093 206.957C217.148 206.447 198.943 210.003 198.943 210.003L191.078 183.731Z" fill="#E0E0E0"/>
<path d="M191.077 183.736C191.069 183.732 191.106 183.878 191.186 184.172C191.276 184.494 191.399 184.929 191.556 185.487C191.902 186.685 192.399 188.406 193.041 190.628C194.375 195.179 196.306 201.771 198.739 210.071L198.792 210.254L198.981 210.219C204.16 209.275 210.083 208.359 216.63 207.729C219.902 207.425 223.335 207.186 226.899 207.202C230.462 207.209 234.137 207.666 237.9 208.341C245.448 209.67 253.247 211.953 261.494 214.204L261.895 214.293L262.366 214.305C262.682 214.319 262.96 214.172 263.256 214.102C263.508 213.948 263.774 213.805 264.01 213.633L264.634 213.024C265.329 212.119 265.874 211.1 266.174 210.019C266.831 207.872 267.106 205.618 267.119 203.366C267.212 198.851 266.611 194.301 265.81 189.753C265.62 188.744 265.429 187.739 265.24 186.736C265.036 185.737 264.793 184.75 264.573 183.761C264.146 181.78 263.641 179.832 263.121 177.905C262.135 174.035 260.992 170.268 259.764 166.602C258.522 162.942 257.178 159.38 255.56 156.021C253.945 152.677 252.112 149.45 249.557 146.901C248.914 146.294 248.182 145.667 247.308 145.364C246.451 145.042 245.523 144.916 244.63 145.038C243.738 145.154 242.87 145.459 242.134 145.965C241.377 146.455 240.816 147.166 240.28 147.776C238.079 150.285 235.856 152.644 233.644 154.86C229.223 159.296 224.835 163.148 220.654 166.432C212.221 172.913 204.778 177.303 199.496 180.001C196.85 181.349 194.74 182.277 193.294 182.868C192.573 183.167 192.015 183.375 191.641 183.517C191.272 183.653 191.066 183.731 191.077 183.736C191.09 183.742 191.276 183.703 191.664 183.581C192.046 183.461 192.613 183.273 193.345 182.994C194.809 182.442 196.943 181.549 199.613 180.234C204.946 177.601 212.439 173.266 220.942 166.809C225.157 163.536 229.58 159.691 234.033 155.256C236.261 153.04 238.501 150.681 240.719 148.169C241.283 147.529 241.786 146.898 242.461 146.465C243.122 146.012 243.903 145.743 244.702 145.64C246.331 145.424 247.955 146.085 249.134 147.348C251.586 149.803 253.398 152.988 254.987 156.3C256.583 159.627 257.915 163.17 259.147 166.814C260.366 170.463 261.501 174.22 262.482 178.077C262.999 179.998 263.501 181.939 263.925 183.911C264.145 184.895 264.386 185.879 264.589 186.873C264.777 187.87 264.966 188.87 265.156 189.872C265.952 194.391 266.548 198.91 266.458 203.348C266.448 205.563 266.174 207.765 265.551 209.809C265.268 210.846 264.754 211.781 264.143 212.589L263.609 213.113C263.412 213.254 263.199 213.364 262.998 213.496C262.532 213.635 262.17 213.737 261.632 213.561C253.46 211.341 245.579 209.052 238.006 207.741C234.225 207.073 230.502 206.623 226.904 206.628C223.31 206.624 219.865 206.88 216.582 207.199C210.015 207.862 204.093 208.813 198.903 209.798L199.145 209.946C196.633 201.728 194.638 195.201 193.261 190.695C192.57 188.466 192.035 186.739 191.663 185.537C191.483 184.97 191.343 184.527 191.239 184.2C191.141 183.898 191.086 183.741 191.077 183.736Z" fill="#263238"/>
<path d="M165.384 211.562L171.774 210.586L168.101 202.102L162.725 204.97L165.384 211.562Z" fill="#FF8C00"/>
<path d="M167.248 201.157L170.109 207.765L171.671 211.371C173.812 216.318 179.403 218.702 184.395 216.796L210.35 209.689L199.806 176.797L173.533 186.504C168.492 188.775 165.075 194.757 167.248 201.157Z" fill="#FF8C00"/>
<g opacity="0.3">
<path d="M259.971 177.146C264.735 194.652 265.472 209.713 261.616 210.789C257.762 211.865 250.774 198.546 246.009 181.04C241.245 163.535 240.508 148.473 244.364 147.397C248.219 146.321 255.206 159.64 259.971 177.146Z" fill="black"/>
</g>
<path d="M243.568 170.789C243.568 170.789 252.839 166.824 255.674 179.116C258.509 191.406 249.325 191.898 249.325 191.898C246.57 185.609 244.627 178.595 243.568 170.789Z" fill="white"/>
<path d="M194.619 189.608C194.675 189.778 190.219 191.426 184.669 193.288C179.117 195.15 174.573 196.523 174.517 196.352C174.462 196.183 178.916 194.536 184.468 192.673C190.018 190.811 194.563 189.438 194.619 189.608Z" fill="#263238"/>
<path d="M195.76 193.256C195.816 193.427 191.361 195.074 185.811 196.936C180.259 198.799 175.714 200.17 175.659 200.001C175.603 199.831 180.057 198.184 185.61 196.321C191.16 194.459 195.705 193.086 195.76 193.256Z" fill="#263238"/>
<path d="M196.911 196.881C196.966 197.052 192.511 198.699 186.961 200.561C181.409 202.424 176.865 203.796 176.809 203.626C176.753 203.456 181.207 201.809 186.76 199.946C192.31 198.084 196.855 196.711 196.911 196.881Z" fill="#263238"/>
<path d="M198.052 200.491C198.108 200.661 193.653 202.309 188.103 204.17C182.551 206.033 178.007 207.405 177.951 207.235C177.895 207.065 182.35 205.418 187.902 203.555C193.452 201.693 197.997 200.321 198.052 200.491Z" fill="#263238"/>
<path d="M276.467 186.458C276.429 186.569 281.784 188.543 288.425 190.867C295.069 193.192 300.484 194.986 300.522 194.875C300.56 194.764 295.206 192.79 288.562 190.465C281.921 188.141 276.505 186.347 276.467 186.458Z" fill="#263238"/>
<path d="M274.31 173.916C274.327 174.033 282.872 172.841 293.394 171.255C303.919 169.668 312.435 168.288 312.418 168.172C312.401 168.056 303.857 169.247 293.332 170.833C282.81 172.42 274.293 173.8 274.31 173.916Z" fill="#263238"/>
<path d="M272.408 161.002C272.487 161.088 275.481 158.416 279.094 155.033C282.709 151.65 285.574 148.838 285.495 148.752C285.416 148.666 282.424 151.338 278.809 154.721C275.196 158.103 272.329 160.916 272.408 161.002Z" fill="#263238"/>
<path d="M242.517 149.25C242.494 149.249 242.463 149.467 242.425 149.884C242.388 150.38 242.344 150.983 242.291 151.712C242.232 152.506 242.181 153.479 242.179 154.61C242.17 155.74 242.121 157.029 242.188 158.452C242.236 161.301 242.488 164.688 242.955 168.427C243.464 172.159 244.212 176.239 245.296 180.45C246.409 184.654 247.75 188.576 249.13 192.076C250.548 195.561 251.983 198.632 253.332 201.132C253.968 202.403 254.64 203.499 255.2 204.478C255.753 205.46 256.272 206.28 256.711 206.941C257.113 207.548 257.445 208.05 257.719 208.463C257.955 208.806 258.089 208.981 258.108 208.968C258.127 208.955 258.032 208.757 257.832 208.39C257.588 207.96 257.29 207.436 256.932 206.804C256.528 206.124 256.043 205.287 255.523 204.29C254.996 203.298 254.356 202.191 253.749 200.912C252.46 198.396 251.078 195.321 249.699 191.846C248.359 188.355 247.046 184.454 245.94 180.278C244.864 176.096 244.102 172.047 243.563 168.343C243.066 164.632 242.766 161.268 242.658 158.436C242.562 157.021 242.578 155.738 242.551 154.611C242.518 153.485 242.531 152.514 242.55 151.721C242.553 150.991 242.556 150.388 242.558 149.892C242.554 149.473 242.54 149.252 242.517 149.25Z" fill="#263238"/>
<path d="M328.458 230.715C316.015 230.715 305.929 220.629 305.929 208.186C305.929 195.743 316.015 185.656 328.458 185.656C340.901 185.656 350.988 195.743 350.988 208.186C350.988 220.629 340.901 230.715 328.458 230.715Z" fill="#FF8C00"/>
<path d="M339.139 203.549C339.086 202.405 338.905 201.624 338.639 200.941C338.365 200.234 337.997 199.635 337.4 199.037C336.802 198.44 336.203 198.073 335.497 197.798C334.813 197.533 334.032 197.351 332.889 197.299C331.742 197.246 331.377 197.234 328.458 197.234C325.54 197.234 325.174 197.246 324.028 197.299C322.885 197.351 322.104 197.533 321.42 197.798C320.714 198.073 320.114 198.44 319.517 199.037C318.92 199.635 318.552 200.234 318.278 200.941C318.013 201.624 317.83 202.405 317.779 203.549C317.727 204.695 317.714 205.061 317.714 207.979C317.714 210.897 317.726 211.263 317.779 212.409C317.831 213.553 318.013 214.334 318.278 215.017C318.552 215.724 318.92 216.323 319.517 216.92C320.115 217.518 320.714 217.885 321.42 218.159C322.104 218.425 322.885 218.606 324.028 218.659C325.174 218.711 325.541 218.723 328.458 218.723C331.377 218.723 331.742 218.711 332.889 218.659C334.032 218.606 334.813 218.425 335.497 218.159C336.203 217.885 336.803 217.517 337.4 216.92C337.997 216.322 338.365 215.723 338.639 215.017C338.905 214.334 339.086 213.553 339.139 212.409C339.191 211.263 339.203 210.897 339.203 207.979C339.203 205.061 339.191 204.695 339.139 203.549ZM337.205 212.32C337.157 213.368 336.982 213.937 336.834 214.316C336.639 214.818 336.407 215.175 336.03 215.552C335.655 215.927 335.297 216.161 334.795 216.355C334.416 216.502 333.847 216.677 332.8 216.725C331.667 216.777 331.328 216.788 328.458 216.788C325.589 216.788 325.25 216.777 324.116 216.725C323.068 216.677 322.499 216.502 322.121 216.355C321.62 216.16 321.262 215.927 320.885 215.552C320.509 215.176 320.277 214.818 320.081 214.316C319.934 213.937 319.759 213.368 319.711 212.32C319.659 211.188 319.649 210.848 319.649 207.978C319.649 205.109 319.659 204.769 319.711 203.636C319.759 202.588 319.934 202.019 320.081 201.641C320.276 201.14 320.509 200.781 320.885 200.406C321.262 200.03 321.619 199.797 322.121 199.602C322.499 199.455 323.068 199.279 324.116 199.232C325.249 199.18 325.589 199.169 328.458 199.169L332.8 199.232C333.847 199.279 334.417 199.455 334.795 199.602C335.297 199.797 335.655 200.029 336.03 200.406C336.406 200.781 336.639 201.14 336.834 201.641C336.982 202.02 337.157 202.589 337.205 203.636C337.256 204.769 337.267 205.109 337.267 207.978C337.267 210.848 337.256 211.188 337.205 212.32Z" fill="white"/>
<path d="M328.46 202.453C325.413 202.453 322.942 204.924 322.942 207.971C322.942 211.018 325.413 213.488 328.46 213.488C331.508 213.488 333.977 211.018 333.977 207.971C333.977 204.923 331.507 202.453 328.46 202.453ZM328.46 211.552C326.482 211.552 324.878 209.948 324.878 207.971C324.878 205.993 326.482 204.389 328.46 204.389C330.438 204.389 332.041 205.993 332.041 207.971C332.041 209.948 330.438 211.552 328.46 211.552Z" fill="white"/>
<path d="M334.196 200.961C333.483 200.961 332.906 201.538 332.906 202.25C332.906 202.963 333.483 203.54 334.196 203.54C334.908 203.54 335.485 202.962 335.485 202.25C335.485 201.538 334.908 200.961 334.196 200.961Z" fill="white"/>
<path d="M278.73 208.308L278.721 208.945L308.613 209.367L308.622 208.73L278.73 208.308Z" fill="#FF8C00"/>
<path d="M279.975 206.951C280.897 207.645 281.083 208.955 280.388 209.878C279.695 210.8 278.384 210.985 277.462 210.291C276.539 209.597 276.354 208.287 277.048 207.365C277.743 206.443 279.052 206.257 279.975 206.951Z" fill="#FF8C00"/>
<path d="M255.115 293.332C242.672 293.332 232.586 283.246 232.586 270.803C232.586 258.361 242.672 248.273 255.115 248.273C267.558 248.273 277.645 258.36 277.645 270.803C277.645 283.246 267.558 293.332 255.115 293.332Z" fill="#FF8C00"/>
<path d="M244.914 278.668C246.767 279.856 248.966 280.549 251.33 280.549C259.101 280.549 263.491 273.985 263.227 268.097C264.044 267.508 264.754 266.771 265.315 265.931C264.564 266.263 263.758 266.489 262.912 266.59C263.775 266.073 264.439 265.252 264.751 264.274C263.942 264.754 263.047 265.102 262.094 265.29C261.33 264.476 260.243 263.969 259.038 263.969C256.337 263.969 254.351 266.49 254.961 269.108C251.482 268.933 248.398 267.267 246.334 264.734C245.238 266.616 245.765 269.078 247.629 270.323C246.942 270.302 246.296 270.113 245.733 269.8C245.687 271.74 247.077 273.553 249.09 273.957C248.501 274.118 247.855 274.154 247.2 274.028C247.732 275.692 249.278 276.901 251.11 276.935C249.352 278.315 247.135 278.931 244.914 278.668Z" fill="white"/>
<path d="M247.296 231.789L246.685 231.969L252.632 252.155L253.243 251.975L247.296 231.789Z" fill="#FF8C00"/>
<path d="M249.093 231.418C249.093 232.573 248.158 233.508 247.003 233.508C245.849 233.508 244.913 232.573 244.913 231.418C244.913 230.264 245.849 229.328 247.003 229.328C248.158 229.328 249.093 230.264 249.093 231.418Z" fill="#FF8C00"/>
<path d="M199.569 132.626C186.823 132.626 176.49 122.294 176.49 109.547C176.49 96.8011 186.823 86.4688 199.569 86.4688C212.316 86.4688 222.649 96.8018 222.649 109.547C222.649 122.294 212.316 132.626 199.569 132.626Z" fill="#FF8C00"/>
<path d="M196.62 119.86H201.335V108.052H204.624L204.975 104.1H201.335C201.335 104.1 201.335 102.623 201.335 101.848C201.335 100.916 201.522 100.548 202.423 100.548C203.148 100.548 204.975 100.548 204.975 100.548V96.4453C204.975 96.4453 202.284 96.4453 201.71 96.4453C198.201 96.4453 196.62 97.9908 196.62 100.948C196.62 103.524 196.62 104.1 196.62 104.1H194.167V108.102H196.62V119.86Z" fill="white"/>
<path d="M200.406 128.453H199.769V155.488H200.406V128.453Z" fill="#FF8C00"/>
<path d="M197.953 156C198.24 154.882 199.379 154.209 200.497 154.496C201.615 154.783 202.288 155.922 202.001 157.04C201.713 158.158 200.574 158.831 199.457 158.544C198.339 158.257 197.666 157.118 197.953 156Z" fill="#FF8C00"/>
<path d="M145.559 169.684C133.116 169.684 123.029 159.597 123.029 147.154C123.029 134.712 133.116 124.625 145.559 124.625C158.002 124.625 168.088 134.711 168.088 147.154C168.088 159.597 158.001 169.684 145.559 169.684Z" fill="#FF8C00"/>
<path fill-rule="evenodd" clip-rule="evenodd" d="M157.81 146.243C157.646 139.734 152.284 134.508 145.683 134.508C139.162 134.508 133.845 139.614 133.561 146.022C133.556 146.198 133.55 146.374 133.55 146.55C133.55 148.828 134.186 150.953 135.288 152.77L133.928 156.784C133.585 157.798 134.54 158.771 135.56 158.447L139.82 157.093C141.558 158.047 143.557 158.592 145.682 158.592C152.385 158.592 157.815 153.202 157.815 146.55C157.816 146.448 157.816 146.346 157.81 146.243ZM145.683 156.672C143.61 156.672 141.684 156.059 140.071 154.997L136.152 156.247L137.424 152.486C136.203 150.816 135.481 148.766 135.481 146.55C135.481 146.221 135.498 145.891 135.532 145.568C136.032 140.444 140.394 136.428 145.683 136.428C151.039 136.428 155.442 140.546 155.85 145.761C155.873 146.023 155.884 146.283 155.884 146.55C155.884 152.133 151.306 156.672 145.683 156.672Z" fill="white"/>
<path fill-rule="evenodd" clip-rule="evenodd" d="M151.243 148.976C150.943 148.829 149.483 148.113 149.21 148.016C148.937 147.914 148.738 147.868 148.54 148.164C148.341 148.459 147.767 149.124 147.597 149.317C147.421 149.516 147.251 149.539 146.95 149.391C146.654 149.243 145.695 148.937 144.558 147.925C143.678 147.147 143.076 146.182 142.905 145.886C142.735 145.59 142.888 145.432 143.036 145.284C143.172 145.148 143.331 144.937 143.484 144.767C143.524 144.716 143.558 144.67 143.592 144.625C143.66 144.517 143.711 144.415 143.779 144.273C143.882 144.074 143.831 143.904 143.757 143.756C143.683 143.608 143.087 142.155 142.836 141.564C142.592 140.973 142.342 141.075 142.166 141.075C141.996 141.075 141.797 141.047 141.598 141.047C141.4 141.047 141.076 141.121 140.803 141.416C140.531 141.711 139.764 142.427 139.764 143.881C139.764 144.222 139.826 144.563 139.917 144.886C140.219 145.926 140.866 146.784 140.979 146.931C141.127 147.124 143.036 150.203 146.057 151.39C149.084 152.566 149.084 152.174 149.63 152.123C150.175 152.077 151.391 151.412 151.635 150.719C151.886 150.032 151.886 149.441 151.812 149.316C151.737 149.198 151.538 149.124 151.243 148.976Z" fill="white"/>
<path d="M155.437 158.778L154.955 159.195L168.731 175.103L169.213 174.686L155.437 158.778Z" fill="#FF8C00"/>
<path d="M167.265 176.16C166.786 175.109 167.251 173.87 168.301 173.391C169.352 172.913 170.591 173.377 171.069 174.428C171.547 175.478 171.083 176.718 170.033 177.196C168.982 177.674 167.742 177.21 167.265 176.16Z" fill="#FF8C00"/>
<path d="M401.687 360.944H360.262C355.58 360.944 351.784 357.149 351.784 352.466V316.408C351.784 311.725 355.58 307.93 360.262 307.93H401.687C403.405 307.93 404.799 309.323 404.799 311.041V357.832C404.799 359.551 403.405 360.944 401.687 360.944Z" fill="#455A64"/>
<g opacity="0.3">
<path d="M401.687 360.944H360.262C355.58 360.944 351.784 357.149 351.784 352.466V316.408C351.784 311.725 355.58 307.93 360.262 307.93H401.687C403.405 307.93 404.799 309.323 404.799 311.041V357.832C404.799 359.551 403.405 360.944 401.687 360.944Z" fill="black"/>
</g>
<path d="M389.918 360.944H344.85C343.424 360.944 342.268 359.789 342.268 358.362V310.512C342.268 309.086 343.424 307.93 344.85 307.93H389.917C391.343 307.93 392.499 309.086 392.499 310.512V358.362C392.499 359.789 391.344 360.944 389.918 360.944Z" fill="#455A64"/>
<path d="M336.017 244.035C336.017 244.035 330.423 239.164 328.924 238.325C327.425 237.486 324.865 237.989 322.6 237.643C320.334 237.296 317.113 235.77 316.297 236.213C315.33 236.738 316.34 238.934 319.809 240.297L318.799 240.207L316.332 240.405C316.332 240.405 315.421 239.061 314.643 239.071C313.531 239.085 313.563 239.999 313.563 239.999C313.563 239.999 311.878 238.014 311.321 240.161C311.321 240.161 309.337 239.411 309.202 240.911C309.202 240.911 308.763 242.113 313.005 242.442C313.005 242.442 316.611 245.83 317.496 246.175C318.382 246.52 321.448 246.046 321.448 246.046C321.448 246.046 322.344 247.334 323.286 247.389C325.078 247.491 329.673 247.18 329.673 247.18L331.485 249.34L336.017 244.035Z" fill="#FFBF9D"/>
<path d="M321.558 246.097C321.577 246.083 321.411 245.835 321.123 245.384C320.852 244.933 320.405 244.264 320.276 243.338C320.141 242.412 320.563 241.302 321.354 240.341C321.549 240.097 321.762 239.855 321.986 239.611C322.214 239.372 322.432 239.1 322.684 238.921C322.935 238.732 323.234 238.71 323.457 238.916C323.685 239.11 323.77 239.44 323.756 239.779C323.712 240.72 323.208 241.593 322.522 242.106L322.367 242.221L322.514 242.345C322.983 242.742 323.375 243.188 323.691 243.647L323.771 243.765L323.888 243.686C325.34 242.704 326.778 242.255 327.792 242.047C328.812 241.841 329.421 241.835 329.42 241.794C329.42 241.78 329.267 241.768 328.983 241.769C328.7 241.773 328.283 241.798 327.761 241.88C326.722 242.042 325.237 242.461 323.729 243.448L323.926 243.487C323.605 243.003 323.2 242.531 322.712 242.112L322.704 242.351C323.468 241.787 324.022 240.842 324.073 239.79C324.092 239.407 323.993 238.957 323.664 238.677C323.509 238.538 323.291 238.445 323.071 238.454C322.852 238.461 322.658 238.556 322.504 238.665C322.193 238.894 321.989 239.165 321.76 239.406C321.537 239.654 321.321 239.904 321.123 240.159C320.316 241.16 319.876 242.366 320.052 243.367C320.223 244.359 320.716 245.016 321.019 245.452C321.342 245.887 321.541 246.109 321.558 246.097Z" fill="#FF9A6C"/>
<path d="M316.019 240.112C315.952 240.169 316.707 241.176 317.705 242.363C317.96 242.658 318.181 242.944 318.443 243.191C318.71 243.443 319.031 243.571 319.302 243.607C319.584 243.641 319.795 243.573 319.931 243.531C320.069 243.485 320.14 243.447 320.135 243.426C320.131 243.404 320.049 243.401 319.908 243.409C319.767 243.414 319.564 243.44 319.342 243.385C319.117 243.326 318.858 243.203 318.645 242.979C318.428 242.754 318.201 242.45 317.948 242.158C316.95 240.972 316.086 240.055 316.019 240.112Z" fill="#FF9A6C"/>
<path d="M317.689 245.711C317.757 245.644 316.643 244.447 315.479 242.811C314.308 241.181 313.536 239.739 313.451 239.782C313.377 239.815 314.032 241.34 315.221 242.996C316.402 244.657 317.634 245.77 317.689 245.711Z" fill="#FF9A6C"/>
<path d="M314.163 243.509C314.211 243.45 313.526 242.7 312.722 241.72C311.909 240.749 311.251 239.96 311.181 240.01C311.108 240.061 311.658 240.945 312.479 241.924C313.287 242.911 314.099 243.586 314.163 243.509Z" fill="#FF9A6C"/>
<path d="M320.826 240.457C320.837 240.37 320.323 240.264 319.677 240.221C319.031 240.178 318.505 240.214 318.503 240.302C318.5 240.39 319.014 240.496 319.652 240.538C320.289 240.581 320.814 240.544 320.826 240.457Z" fill="#FF9A6C"/>
<path d="M368.127 229.076C368.127 229.076 362.166 228.633 358.705 235.581C356.417 240.175 349.457 252.564 349.457 252.564L335.766 241.064L327.741 249.743C327.741 249.743 341.444 266.063 346.766 267.301C352.089 268.539 358.362 264.925 360.327 262.142C362.292 259.358 368.831 252.564 368.831 252.564L368.127 229.076Z" fill="#FF8C00"/>
<path d="M369.79 243.773L370.741 228.387C370.769 216.442 369.54 202.623 371.001 198.718C373.699 191.504 383.387 189.956 383.387 189.956C396.459 188.623 399.103 198.618 400.703 207.747C400.974 209.296 401.718 212.04 402.655 215.21C404.795 221.805 407.439 228.562 412.42 232.938C414.321 234.608 415.637 236.998 416.133 239.48C416.628 241.962 415.393 245.008 412.911 245.5C414.221 246.675 414.949 248.471 414.826 250.226C414.703 251.982 413.731 253.658 412.27 254.638C410.21 256.019 407.532 255.944 405.061 255.735C402.607 255.526 400.031 255.186 398.057 253.712C396.08 252.235 395.021 249.849 394.199 247.521C393.209 244.718 392.445 241.835 391.909 238.911L369.79 243.773Z" fill="#263238"/>
<path d="M382.913 193.335L383.843 192.688L392.056 197.57C393.312 197.836 394.155 199.019 393.998 200.293L388.592 228.602C388.304 230.539 388.579 232.366 387.172 233.729L377.547 242.77C374.17 246.038 375.689 237.927 374.098 233.505C373.988 233.196 374.823 232.238 374.807 232.028C374.8 231.766 374.757 231.588 374.776 231.369C374.87 229.033 375.162 227.041 375.162 227.041C375.395 224.496 375.504 223.454 375.5 223.478C375.5 223.478 370.232 222.033 369.845 214.923C369.653 211.388 370.517 206.698 371.436 202.094C372.708 195.721 377.757 192.532 382.913 193.335Z" fill="#FFBF9D"/>
<path d="M380.88 208.108C380.814 208.58 381.16 209.025 381.652 209.102C382.142 209.18 382.594 208.862 382.66 208.39C382.726 207.917 382.38 207.472 381.89 207.394C381.398 207.317 380.946 207.636 380.88 208.108Z" fill="#263238"/>
<path d="M372.123 206.733C372.058 207.205 372.403 207.65 372.894 207.727C373.385 207.805 373.836 207.487 373.903 207.015C373.968 206.542 373.623 206.097 373.132 206.019C372.641 205.942 372.189 206.261 372.123 206.733Z" fill="#263238"/>
<path d="M372.035 204.408C372.134 204.537 372.866 204.105 373.831 204.206C374.796 204.295 375.453 204.865 375.57 204.758C375.627 204.71 375.535 204.487 375.25 204.231C374.97 203.976 374.474 203.704 373.873 203.645C373.271 203.586 372.743 203.755 372.429 203.951C372.108 204.149 371.986 204.35 372.035 204.408Z" fill="#263238"/>
<path d="M381.359 205.682C381.471 205.799 382.155 205.294 383.125 205.297C384.094 205.285 384.806 205.785 384.911 205.666C384.962 205.614 384.85 205.401 384.539 205.176C384.234 204.951 383.713 204.732 383.109 204.734C382.504 204.738 381.996 204.96 381.703 205.188C381.406 205.417 381.304 205.629 381.359 205.682Z" fill="#263238"/>
<path d="M377.352 212.13C377.362 212.076 376.773 211.91 375.813 211.685C375.569 211.634 375.341 211.561 375.317 211.388C375.278 211.204 375.408 210.949 375.557 210.674C375.851 210.102 376.158 209.502 376.48 208.873C377.769 206.306 378.73 204.185 378.625 204.134C378.521 204.083 377.393 206.122 376.104 208.689C375.792 209.323 375.494 209.927 375.21 210.505C375.088 210.775 374.895 211.076 374.982 211.459C375.029 211.65 375.197 211.803 375.35 211.862C375.503 211.926 375.641 211.943 375.763 211.963C376.736 212.117 377.343 212.184 377.352 212.13Z" fill="#263238"/>
<path d="M375.503 223.474C375.503 223.474 380.176 224.264 385.128 221.945C385.128 221.945 382.271 226.543 375.339 225.164L375.503 223.474Z" fill="#FF9A6C"/>
<path d="M381.466 201.737C381.554 202.003 382.526 201.906 383.659 202.077C384.797 202.225 385.705 202.585 385.863 202.352C385.934 202.241 385.781 201.989 385.417 201.722C385.057 201.457 384.477 201.197 383.796 201.101C383.115 201.006 382.487 201.097 382.067 201.254C381.645 201.41 381.429 201.61 381.466 201.737Z" fill="#263238"/>
<path d="M372.655 200.531C372.798 200.793 372.966 200.717 373.894 200.938C374.828 201.131 376.224 201.554 376.46 201.376C376.566 201.288 376.496 201.042 376.205 200.754C375.917 200.468 375.394 200.163 374.755 200.02C374.114 199.878 373.516 199.934 373.139 200.073C372.757 200.212 372.594 200.405 372.655 200.531Z" fill="#263238"/>
<path d="M391.942 212.462C391.942 212.462 387.633 213.247 383.664 201.321C382.324 197.295 382.266 192.462 382.266 192.462L383.895 192.234C383.895 192.234 393.147 196.454 393.291 196.601C393.435 196.749 394.959 201.981 394.959 201.981L391.942 212.462Z" fill="#263238"/>
<path d="M390.805 211.815C390.86 211.294 391.589 210.128 392.112 210.102C393.508 210.03 395.972 210.396 395.634 213.887C395.171 218.659 390.476 217.21 390.48 217.073C390.485 216.965 390.614 213.612 390.805 211.815Z" fill="#FFBF9D"/>
<path d="M392.113 215.402C392.136 215.388 392.191 215.468 392.325 215.546C392.456 215.622 392.687 215.688 392.945 215.62C393.467 215.483 393.969 214.725 394.075 213.866C394.129 213.433 394.079 213.011 393.958 212.653C393.847 212.29 393.644 212.025 393.394 211.955C393.148 211.872 392.953 212.007 392.882 212.136C392.804 212.263 392.825 212.361 392.799 212.367C392.785 212.378 392.705 212.277 392.762 212.084C392.791 211.991 392.858 211.884 392.979 211.803C393.103 211.721 393.275 211.69 393.45 211.726C393.816 211.787 394.114 212.158 394.247 212.55C394.4 212.946 394.467 213.422 394.406 213.908C394.282 214.867 393.703 215.719 392.994 215.851C392.65 215.906 392.38 215.778 392.246 215.651C392.111 215.518 392.096 215.409 392.113 215.402Z" fill="#FF9A6C"/>
<path d="M392.944 217.581C392.952 218.26 392.409 218.817 391.73 218.825C391.051 218.833 390.494 218.29 390.485 217.611C390.477 216.932 391.021 216.375 391.7 216.367C392.379 216.36 392.936 216.903 392.944 217.581Z" fill="#455A64"/>
<path d="M407.869 195.343C406.552 193.71 404.259 192.968 402.211 193.419C400.183 193.867 398.446 195.445 397.805 197.42L397.226 209.429C398.02 209.776 399.018 209.592 399.636 208.982C400.253 208.372 400.45 207.377 400.112 206.578C400.682 207.51 401.849 208.057 402.919 207.836C403.989 207.615 404.861 206.606 404.864 205.513C404.868 204.628 404.27 203.781 403.464 203.449C405.313 203.763 407.334 202.848 408.317 201.232C409.407 199.441 409.186 196.975 407.869 195.343Z" fill="#263238"/>
<path d="M399.263 206.71C399.267 206.719 399.192 206.765 399.044 206.844C398.892 206.916 398.681 207.054 398.38 207.164C397.794 207.421 396.893 207.692 395.748 207.807C394.604 207.926 393.213 207.832 391.748 207.415C390.285 206.996 388.756 206.227 387.421 205.074C386.101 203.908 385.106 202.526 384.424 201.171C383.735 199.814 383.332 198.496 383.105 197.374C382.877 196.251 382.801 195.325 382.789 194.687C382.773 194.367 382.791 194.119 382.793 193.951C382.799 193.783 382.808 193.695 382.818 193.695C382.842 193.695 382.854 194.048 382.901 194.68C382.948 195.313 383.056 196.227 383.306 197.33C383.555 198.432 383.973 199.723 384.662 201.048C385.344 202.372 386.324 203.717 387.612 204.855C388.911 205.976 390.398 206.735 391.823 207.158C393.251 207.578 394.608 207.693 395.73 207.602C397.998 207.43 399.239 206.626 399.263 206.71Z" fill="#455A64"/>
<path d="M399.458 208.229C399.487 208.247 399.359 208.538 399.039 208.937C398.721 209.335 398.189 209.821 397.496 210.19C396.802 210.555 396.1 210.72 395.592 210.759C395.082 210.799 394.77 210.74 394.772 210.706C394.764 210.615 396.034 210.648 397.36 209.932C398.699 209.24 399.387 208.171 399.458 208.229Z" fill="#455A64"/>
<path d="M400.615 207.888C400.572 207.893 400.464 207.269 400.274 206.266C400.083 205.262 399.797 203.88 399.406 202.374C399.013 200.867 398.589 199.521 398.265 198.552C397.942 197.583 397.731 196.986 397.771 196.969C397.806 196.955 398.084 197.526 398.459 198.482C398.833 199.438 399.291 200.782 399.688 202.3C400.082 203.817 400.338 205.215 400.477 206.232C400.617 207.249 400.652 207.884 400.615 207.888Z" fill="#455A64"/>
<path d="M380.005 215.233C380.007 214.876 379.855 214.539 379.635 214.291C379.196 213.796 378.475 213.655 377.892 213.949C377.309 214.244 376.901 214.955 376.904 215.669C377.146 216.12 377.566 216.461 378.066 216.575C378.143 216.592 378.222 216.606 378.301 216.615C378.687 216.657 379.095 216.582 379.427 216.34C379.759 216.097 380.002 215.674 380.005 215.233Z" fill="#FF9A6C"/>
<path d="M379.685 213.446C379.535 213.425 379.449 214.438 378.522 215.086C377.597 215.736 376.526 215.534 376.506 215.675C376.487 215.737 376.73 215.891 377.185 215.942C377.631 215.994 378.297 215.904 378.863 215.507C379.429 215.11 379.705 214.539 379.773 214.127C379.848 213.706 379.756 213.446 379.685 213.446Z" fill="#263238"/>
<path d="M367.434 229.071C367.434 229.071 360.079 239 359.472 242.442C358.865 245.885 360.573 268.134 361.454 271.981L355.758 284.791L365.495 287.071L397.856 286.518L396.491 265.22L399.768 251.066L400.103 232.445L388.592 228.617C385.575 234.715 375.633 232.715 375.101 227.836L367.434 229.071Z" fill="#FF8C00"/>
<path d="M400.104 232.445C400.104 232.445 404.067 233.872 406.341 238.441C408.174 242.123 413.202 258.071 414.451 262.106C415.828 266.556 416.268 270.334 413.756 273.396C413.032 274.278 412.911 275.338 407.615 277.548C402.375 279.734 388.473 283.944 388.473 283.944L385.575 276.75L402.653 266.273L397.719 252.979L400.104 232.445Z" fill="#FF8C00"/>
<path d="M401.384 246.094C401.47 246.116 400.438 250.381 399.079 255.619C397.72 260.859 396.549 265.087 396.463 265.065C396.377 265.042 397.409 260.778 398.768 255.538C400.127 250.3 401.298 246.072 401.384 246.094Z" fill="#263238"/>
<path d="M370.919 278.74L372.309 278.085L371.79 278.718C371.79 278.718 371.117 279.431 371.325 280.219C371.533 281.006 372.977 281.176 372.977 281.176C372.977 281.176 372.851 282.006 373.392 282.728C373.897 283.401 375.827 282.908 375.827 282.908L375.561 283.484C375.234 284.098 376.021 284.862 376.386 284.955C376.751 285.048 378.166 284.649 378.803 284.23C379.441 283.811 381.787 283.998 381.787 283.998C381.787 283.998 384.725 284.936 385.975 284.488C387.224 284.041 387.586 283.132 387.586 283.132C387.586 283.132 387.377 277.634 385.577 276.76C384.66 276.315 379.32 274.268 377.73 273.588C377.193 273.359 376.591 273.346 376.044 273.552C374.317 274.204 371.181 275.51 370.397 276.109C370.397 276.109 369.026 276.97 369.301 277.792C369.46 278.266 369.899 278.943 370.919 278.74Z" fill="#FFBF9D"/>
<path d="M374.962 276.212C374.984 276.242 374.361 276.728 373.571 277.297C372.782 277.866 372.124 278.303 372.103 278.273C372.081 278.243 372.704 277.757 373.494 277.188C374.283 276.619 374.941 276.182 374.962 276.212Z" fill="#FF9A6C"/>
<path d="M376.375 279.276C376.391 279.313 375.59 279.665 374.657 280.199C373.726 280.735 372.995 281.218 372.972 281.183C372.962 281.168 373.134 281.031 373.423 280.827C373.713 280.623 374.121 280.352 374.591 280.084C375.062 279.815 375.506 279.604 375.832 279.466C376.159 279.328 376.368 279.26 376.375 279.276Z" fill="#FF9A6C"/>
<path d="M378.358 281.455C378.375 281.487 377.784 281.852 377.036 282.268C376.288 282.685 375.667 282.997 375.649 282.965C375.631 282.933 376.223 282.568 376.971 282.152C377.719 281.735 378.34 281.423 378.358 281.455Z" fill="#FF9A6C"/>
<path d="M360.943 236.703C360.955 236.705 360.95 236.814 360.931 237.02C360.903 237.264 360.87 237.561 360.83 237.92C360.731 238.699 360.604 239.828 360.466 241.224C360.188 244.017 359.936 247.888 359.972 252.168C360.016 256.45 360.341 260.317 360.671 263.103C360.835 264.496 360.983 265.623 361.098 266.399C361.145 266.758 361.184 267.053 361.215 267.296C361.239 267.502 361.245 267.611 361.234 267.613C361.223 267.615 361.194 267.51 361.15 267.308C361.101 267.067 361.042 266.775 360.971 266.421C360.818 265.649 360.634 264.526 360.439 263.133C360.049 260.347 359.685 256.468 359.642 252.171C359.605 247.876 359.895 243.992 360.234 241.199C360.402 239.803 360.566 238.676 360.704 237.902C360.769 237.547 360.822 237.252 360.866 237.011C360.905 236.807 360.932 236.701 360.943 236.703Z" fill="#263238"/>
<path d="M345.459 352.908L352.624 363.837C352.624 363.837 344.29 374.774 345.424 376.922L366.412 363.821L355.922 346.336L345.459 352.908Z" fill="#455A64"/>
<path d="M358.562 358.862C359.038 358.724 359.605 359.02 359.768 359.503C359.931 359.986 359.651 360.574 359.178 360.721C358.705 360.868 358.014 360.533 357.904 360.035C357.795 359.538 358.162 358.867 358.657 358.841" fill="#E0E0E0"/>
<path d="M366.425 363.878L365.301 362.156L345.599 375.361C345.599 375.361 344.92 376.364 345.438 376.979L366.425 363.878Z" fill="#263238"/>
<path d="M352.222 363.932C352.289 364.036 352.831 363.764 353.542 363.79C354.253 363.797 354.791 364.093 354.86 363.993C354.942 363.913 354.405 363.375 353.544 363.36C352.683 363.336 352.14 363.849 352.222 363.932Z" fill="white"/>
<path d="M350.601 366.249C350.639 366.366 351.192 366.269 351.812 366.5C352.438 366.712 352.82 367.141 352.919 367.073C353.026 367.03 352.721 366.366 351.945 366.094C351.171 365.815 350.541 366.146 350.601 366.249Z" fill="white"/>
<path d="M351.015 369.79C351.121 369.754 350.943 369.136 350.328 368.72C349.716 368.3 349.094 368.372 349.104 368.488C349.099 368.611 349.599 368.728 350.098 369.077C350.606 369.415 350.906 369.843 351.015 369.79Z" fill="white"/>
<path d="M350.878 361.339C350.98 361.409 351.361 360.968 351.965 360.648C352.563 360.314 353.135 360.234 353.134 360.11C353.146 359.996 352.469 359.879 351.763 360.267C351.054 360.649 350.778 361.287 350.878 361.339Z" fill="white"/>
<path d="M367.055 286.523C367.055 286.523 332.579 298.017 326.912 302.594C322.349 306.28 322.951 316.854 325.6 321.074C326.678 322.791 350.489 362.737 350.489 362.737L362.311 356.275L346.386 317.27C346.386 317.27 385.279 309.718 392.476 306.478C401.385 302.466 398.531 293.216 398.531 293.216L396.972 286.524H367.055V286.523Z" fill="#263238"/>
<path d="M354.263 342.065L361.429 352.993C361.429 352.993 353.095 363.93 354.229 366.079L375.216 352.977L364.727 335.492L354.263 342.065Z" fill="#455A64"/>
<path d="M367.344 348.019C367.819 347.88 368.386 348.177 368.549 348.66C368.713 349.142 368.432 349.73 367.959 349.877C367.486 350.024 366.795 349.689 366.685 349.191C366.576 348.694 366.943 348.023 367.438 347.997" fill="#E0E0E0"/>
<path d="M375.206 353.034L374.082 351.312L354.38 364.517C354.38 364.517 353.701 365.521 354.219 366.135L375.206 353.034Z" fill="#263238"/>
<path d="M361.402 353.089C361.47 353.192 362.011 352.92 362.722 352.947C363.433 352.953 363.972 353.25 364.041 353.149C364.123 353.069 363.586 352.532 362.725 352.516C361.864 352.492 361.322 353.005 361.402 353.089Z" fill="white"/>
<path d="M359.775 355.413C359.814 355.53 360.367 355.433 360.987 355.664C361.613 355.876 361.995 356.305 362.094 356.237C362.2 356.194 361.895 355.529 361.119 355.257C360.346 354.979 359.716 355.311 359.775 355.413Z" fill="white"/>
<path d="M360.168 359.008C360.275 358.973 360.097 358.355 359.481 357.939C358.869 357.518 358.247 357.591 358.257 357.707C358.252 357.83 358.752 357.947 359.251 358.296C359.76 358.633 360.06 359.062 360.168 359.008Z" fill="white"/>
<path d="M360.306 351.104C360.407 351.174 360.789 350.734 361.393 350.414C361.991 350.08 362.563 349.999 362.561 349.875C362.574 349.762 361.896 349.645 361.19 350.033C360.482 350.415 360.205 351.053 360.306 351.104Z" fill="white"/>
<path d="M329.93 287.499C327.95 289.327 324.92 295.312 328.146 302.342C330.192 306.8 358.4 350.414 358.4 350.414L369.846 342.877C369.846 342.877 360.04 322.318 356.768 312.691C354.28 305.368 348.749 294.081 348.391 293.342L366.169 286.812C366.169 286.812 347.169 280.779 340.251 282.257C333.334 283.733 329.93 287.499 329.93 287.499Z" fill="#263238"/>
<path d="M329.931 287.51C329.931 287.51 330.078 287.329 330.409 287.02C330.74 286.712 331.251 286.271 331.969 285.759C333.396 284.739 335.68 283.411 338.896 282.523C339.3 282.423 339.715 282.32 340.14 282.215C340.572 282.135 341.023 282.087 341.481 282.02C342.401 281.96 343.371 281.931 344.377 282.005C346.39 282.116 348.56 282.408 350.861 282.84C355.465 283.695 360.621 284.992 366.208 286.701L366.567 286.81L366.214 286.94C360.846 288.918 354.844 291.13 348.442 293.488L348.523 293.287C349.897 296.105 351.271 299.035 352.629 302.069C353.979 305.107 355.328 308.243 356.521 311.525C357.65 314.824 358.949 318.127 360.36 321.462C361.764 324.796 363.25 328.164 364.784 331.563C366.517 335.397 368.257 339.161 369.991 342.818L370.051 342.943L369.935 343.02C365.996 345.612 362.168 348.131 358.487 350.553L358.356 350.639L358.271 350.508C352.583 341.692 347.304 333.45 342.598 326.04C337.895 318.626 333.75 312.053 330.417 306.518C329.591 305.128 328.797 303.818 328.137 302.52C327.537 301.198 327.115 299.888 326.889 298.633C326.682 297.375 326.631 296.187 326.705 295.104C326.805 294.024 326.982 293.047 327.243 292.199C327.751 290.496 328.464 289.302 329.001 288.556C329.548 287.811 329.931 287.51 329.931 287.51C329.931 287.51 329.854 287.603 329.692 287.774C329.528 287.94 329.308 288.214 329.044 288.589C328.524 289.341 327.831 290.535 327.344 292.229C327.093 293.073 326.926 294.043 326.834 295.114C326.768 296.188 326.826 297.363 327.038 298.607C327.27 299.848 327.694 301.14 328.295 302.447C328.952 303.724 329.754 305.035 330.584 306.418C333.938 311.935 338.103 318.496 342.822 325.898C347.543 333.298 352.835 341.531 358.531 350.341L358.315 350.296C361.994 347.872 365.821 345.35 369.759 342.755L369.703 342.957C367.966 339.298 366.225 335.534 364.49 331.697C362.956 328.297 361.469 324.927 360.065 321.588C358.655 318.254 357.351 314.929 356.225 311.633C355.039 308.364 353.695 305.229 352.351 302.195C350.998 299.163 349.629 296.234 348.261 293.416L348.19 293.271L348.342 293.215C354.748 290.87 360.755 288.671 366.126 286.703L366.132 286.943C360.562 285.224 355.413 283.912 350.824 283.041C348.531 282.601 346.369 282.301 344.368 282.18C343.367 282.101 342.406 282.125 341.496 282.18C341.044 282.244 340.601 282.287 340.173 282.364C339.75 282.466 339.337 282.566 338.935 282.662C335.732 283.524 333.449 284.825 332.013 285.82C331.292 286.321 330.775 286.75 330.436 287.049C330.144 287.314 330.01 287.437 329.931 287.51Z" fill="#455A64"/>
<path d="M344.223 289.114C344.267 289.044 345.462 289.788 346.649 291.038C347.842 292.283 348.528 293.51 348.457 293.552C348.378 293.604 347.585 292.478 346.416 291.26C345.254 290.036 344.166 289.191 344.223 289.114Z" fill="#455A64"/>
<path d="M354.263 342.07C354.257 342.068 354.314 342.028 354.429 341.951C354.56 341.865 354.733 341.752 354.951 341.609C355.434 341.297 356.12 340.855 356.996 340.29C358.816 339.13 361.426 337.465 364.665 335.4L364.765 335.336L364.826 335.439C367.63 340.088 371.27 346.126 375.354 352.9L375.436 353.036L375.301 353.12C372.579 354.822 369.691 356.626 366.72 358.483C362.355 361.204 358.17 363.812 354.312 366.217L354.161 366.31L354.091 366.157C353.907 365.755 353.967 365.357 354.038 365.002C354.11 364.64 354.228 364.3 354.353 363.968C354.611 363.306 354.918 362.682 355.239 362.079C355.884 360.874 356.58 359.751 357.271 358.682C358.664 356.549 360.041 354.634 361.334 352.927L361.329 353.065C359.137 349.674 357.361 346.923 356.12 345.002C355.523 344.069 355.056 343.339 354.726 342.823C354.578 342.588 354.461 342.402 354.372 342.26C354.294 342.132 354.257 342.068 354.263 342.07C354.268 342.071 354.317 342.137 354.406 342.266C354.504 342.409 354.632 342.596 354.793 342.833C355.138 343.346 355.627 344.074 356.251 345.003C357.508 346.892 359.308 349.597 361.528 352.933L361.574 353.003L361.523 353.071C360.248 354.78 358.883 356.703 357.507 358.834C356.823 359.902 356.135 361.023 355.501 362.218C355.186 362.815 354.886 363.433 354.637 364.077C354.517 364.399 354.405 364.728 354.34 365.063C354.268 365.392 354.241 365.751 354.367 366.012L354.146 365.953C358.001 363.543 362.182 360.929 366.543 358.202C369.516 356.349 372.405 354.546 375.13 352.848L375.077 353.068C371.023 346.275 367.41 340.222 364.627 335.56L364.788 335.598C361.546 337.603 358.934 339.218 357.113 340.344C356.214 340.894 355.511 341.324 355.014 341.628C354.784 341.767 354.601 341.877 354.461 341.961C354.335 342.033 354.268 342.071 354.263 342.07Z" fill="#263238"/>
<g opacity="0.3">
<path d="M331.023 286.507L357.21 287.726L397.889 290.444L396.972 286.507H397.856L397.772 285.18H332.893L331.023 286.507Z" fill="black"/>
</g>
<path d="M399.654 258.188C399.67 258.182 399.763 258.384 399.921 258.766C400.093 259.197 400.313 259.747 400.581 260.417C401.145 261.893 401.907 263.888 402.796 266.213L402.841 266.33L402.732 266.397C401.364 267.241 399.871 268.162 398.304 269.128C395.05 271.124 392.095 272.916 389.948 274.197C388.907 274.811 388.047 275.318 387.396 275.702C386.79 276.051 386.449 276.234 386.437 276.214C386.425 276.195 386.743 275.974 387.329 275.591C387.965 275.185 388.807 274.648 389.825 273.997C391.942 272.664 394.877 270.841 398.131 268.846C399.702 267.886 401.201 266.972 402.572 266.136L402.508 266.32C401.664 263.978 400.941 261.969 400.405 260.482C400.171 259.8 399.979 259.239 399.828 258.8C399.699 258.408 399.637 258.194 399.654 258.188Z" fill="#263238"/>
<path d="M326.233 254.635L360.958 256.359C362.085 256.405 363.139 256.991 363.261 258.113L366.007 283.588L383.899 284.331C384.475 284.354 384.923 284.841 384.899 285.417C384.875 285.993 384.389 286.44 383.813 286.416L366.233 285.687L362.896 285.549L326.667 284.045L323.87 257.162C323.718 255.774 324.837 254.577 326.233 254.635Z" fill="#E0E0E0"/>
<path d="M326.23 254.657C326.23 254.657 326.042 254.625 325.681 254.685C325.33 254.752 324.773 254.944 324.317 255.51C324.09 255.788 323.91 256.163 323.841 256.601C323.766 257.046 323.875 257.523 323.909 258.035C324.013 259.065 324.131 260.25 324.264 261.582C324.808 266.922 325.593 274.618 326.557 284.079L326.567 284.171L326.66 284.175C341.447 284.797 360.879 285.615 382.099 286.508C382.597 286.529 383.094 286.55 383.591 286.57C383.82 286.589 384.142 286.589 384.386 286.453C384.639 286.327 384.84 286.108 384.947 285.848C385.177 285.327 384.955 284.667 384.467 284.383C384.235 284.23 383.918 284.204 383.691 284.204L382.956 284.174C380.999 284.093 379.061 284.012 377.149 283.933C373.325 283.776 369.6 283.622 366.01 283.475L366.139 283.595C365.149 274.471 364.224 265.96 363.396 258.324C363.376 257.842 363.181 257.313 362.808 256.975C362.445 256.625 361.975 256.427 361.504 256.334C361.024 256.241 360.562 256.261 360.106 256.227C359.648 256.204 359.193 256.183 358.742 256.16C356.939 256.073 355.195 255.989 353.513 255.908C350.152 255.747 347.044 255.598 344.222 255.463C338.583 255.2 334.088 254.991 330.994 254.847C329.456 254.78 328.267 254.729 327.454 254.693C327.057 254.678 326.753 254.668 326.54 254.659C326.335 254.654 326.23 254.657 326.23 254.657C326.23 254.657 326.335 254.67 326.54 254.684C326.753 254.698 327.057 254.717 327.453 254.742C328.266 254.787 329.453 254.854 330.99 254.94C334.085 255.103 338.578 255.339 344.216 255.636C347.038 255.781 350.145 255.941 353.506 256.114C355.186 256.2 356.931 256.289 358.733 256.381C359.185 256.404 359.639 256.427 360.097 256.45C360.553 256.485 361.025 256.469 361.461 256.557C361.9 256.644 362.33 256.83 362.65 257.141C362.979 257.453 363.143 257.875 363.166 258.35C363.983 265.987 364.894 274.5 365.87 283.625L365.883 283.741L365.999 283.746C369.589 283.896 373.314 284.052 377.138 284.212C379.05 284.291 380.987 284.372 382.944 284.454L383.679 284.484C383.939 284.488 384.132 284.506 384.322 284.623C384.695 284.841 384.864 285.343 384.688 285.741C384.606 285.939 384.453 286.108 384.26 286.203C384.06 286.306 383.865 286.308 383.603 286.29C383.107 286.269 382.609 286.248 382.111 286.228C360.89 285.36 341.457 284.565 326.669 283.961L326.771 284.057C325.767 274.6 324.951 266.907 324.384 261.57C324.24 260.239 324.112 259.055 324.001 258.026C323.961 257.512 323.85 257.037 323.918 256.613C323.98 256.188 324.148 255.822 324.366 255.549C324.801 254.992 325.342 254.793 325.686 254.717C326.041 254.647 326.23 254.67 326.23 254.657Z" fill="#263238"/>
<path d="M345.116 269.814C345.067 271.015 344.052 271.948 342.851 271.899C341.65 271.849 340.717 270.835 340.767 269.633C340.816 268.432 341.83 267.499 343.032 267.549C344.233 267.598 345.167 268.613 345.116 269.814Z" fill="white"/>
<path d="M364.525 285.406C364.475 285.413 363.638 278.92 362.654 270.906C361.669 262.89 360.911 256.389 360.96 256.383C361.01 256.376 361.848 262.868 362.833 270.884C363.816 278.898 364.574 285.401 364.525 285.406Z" fill="#263238"/>
<path d="M87.4035 342.38L86.9149 355.23C86.9149 355.23 99.8127 360.043 99.9535 362.426L75.0039 362.374L74.9434 342.32L87.4035 342.38Z" fill="#263238"/>
<path d="M79.1845 353.964C78.7016 354.095 78.3665 354.637 78.4773 355.125C78.5882 355.613 79.1367 355.958 79.6221 355.836C80.1076 355.714 80.5293 355.075 80.3643 354.602C80.1993 354.129 79.5329 353.759 79.0914 353.995" fill="#E0E0E0"/>
<path d="M74.9971 362.264L75.0703 360.242L98.9644 361.049C98.9644 361.049 100.074 361.534 99.9467 362.316L74.9971 362.264Z" fill="#455A64"/>
<path d="M87.3108 355.121C87.3064 355.243 86.6973 355.297 86.0972 355.688C85.4869 356.062 85.1767 356.59 85.0646 356.541C84.9524 356.518 85.1353 355.789 85.8704 355.33C86.6011 354.863 87.3376 355.01 87.3108 355.121Z" fill="white"/>
<path d="M89.932 356.144C89.9593 356.261 89.4312 356.468 89.0165 356.982C88.5865 357.484 88.4807 358.041 88.3597 358.036C88.245 358.055 88.1622 357.341 88.6903 356.711C89.2127 356.077 89.9294 356.027 89.932 356.144Z" fill="white"/>
<path d="M91.4062 359.28C91.2954 359.306 91.1272 358.697 91.4413 358.03C91.7509 357.361 92.3255 357.099 92.3771 357.201C92.4459 357.301 92.0752 357.658 91.8254 358.209C91.563 358.755 91.5273 359.269 91.4062 359.28Z" fill="white"/>
<path d="M87.1008 352.002C87.0492 352.113 86.4912 351.944 85.8025 351.99C85.1126 352.021 84.5762 352.251 84.5131 352.146C84.443 352.059 84.9667 351.608 85.7789 351.567C86.5899 351.518 87.1607 351.907 87.1008 352.002Z" fill="white"/>
<path d="M56.8523 340.523L55.5018 356.022L57.9678 368.59C58.1456 369.495 57.5193 370.362 56.6033 370.478C56.0904 370.543 55.5814 370.359 55.2323 369.978C53.009 367.554 44.8732 358.594 45.0356 357.466C45.2235 356.159 45.3752 341.022 45.3752 341.022L56.8523 340.523Z" fill="#263238"/>
<path d="M56.6057 370.443L45.1056 356.383L45.0636 357.041C45.0272 357.609 45.191 358.173 45.5318 358.63C46.4434 359.852 49.0343 363.17 55.1883 369.94C55.5457 370.334 56.0795 370.524 56.6057 370.443Z" fill="#455A64"/>
<g opacity="0.6">
<path d="M48.6149 351.597C48.9869 351.89 49.0761 352.487 48.7977 352.871C48.5193 353.254 47.9135 353.351 47.5363 353.063C47.1598 352.776 47.0305 352.063 47.3497 351.713C47.6695 351.364 48.3868 351.289 48.6837 351.659" fill="white"/>
</g>
<path d="M53.4876 363.431C53.5724 363.479 53.975 362.689 54.9268 362.311C55.8664 361.905 56.7105 362.178 56.736 362.084C56.7519 362.047 56.5634 361.913 56.2034 361.838C55.8467 361.762 55.3179 361.779 54.7962 361.995C54.2751 362.212 53.889 362.574 53.6909 362.88C53.4889 363.188 53.4494 363.416 53.4876 363.431Z" fill="white"/>
<path d="M54.467 365.683C54.5365 365.755 55.0671 365.282 55.8851 365.104C56.6993 364.907 57.3828 365.1 57.4141 365.005C57.4637 364.929 56.7375 364.552 55.8087 364.77C54.8773 364.979 54.3893 365.636 54.467 365.683Z" fill="white"/>
<path d="M51.5975 360.687C51.6656 360.766 52.4779 360.034 53.7252 359.645C54.9669 359.237 56.053 359.359 56.0626 359.256C56.0932 359.174 54.9535 358.885 53.6208 359.32C52.2849 359.741 51.5255 360.639 51.5975 360.687Z" fill="white"/>
<path d="M51.6198 355.911C51.6555 356.006 52.5359 355.703 53.6545 355.734C54.7738 355.75 55.6409 356.09 55.6804 355.996C55.7281 355.923 54.8643 355.412 53.6615 355.392C52.4594 355.362 51.5752 355.835 51.6198 355.911Z" fill="white"/>
<path d="M51.9029 351.37C51.9456 351.463 52.8413 351.001 54.0167 351.13C55.1952 351.233 55.9826 351.862 56.0419 351.779C56.0692 351.749 55.9125 351.543 55.5679 351.313C55.2264 351.083 54.6837 350.854 54.0504 350.79C53.4165 350.729 52.84 350.847 52.4597 351.005C52.0762 351.163 51.8819 351.335 51.9029 351.37Z" fill="white"/>
<path d="M54.0364 350.289C54.0562 350.29 54.1046 350.084 54.095 349.703C54.0848 349.325 54.011 348.764 53.7268 348.135C53.5778 347.835 53.4268 347.454 53.0063 347.221C52.7974 347.104 52.4737 347.124 52.2769 347.317C52.0813 347.506 52.0074 347.757 51.9864 348.003C51.9392 348.989 52.7241 349.997 53.8237 350.209C54.929 350.403 55.9782 349.832 56.4732 349.01C56.584 348.796 56.6681 348.53 56.5643 348.26C56.463 347.988 56.154 347.863 55.9291 347.886C55.4634 347.926 55.1557 348.172 54.8722 348.352C54.3097 348.747 53.9492 349.179 53.7351 349.49C53.5198 349.804 53.4446 350.002 53.4618 350.011C53.5134 350.056 53.9033 349.274 55.006 348.553C55.2831 348.389 55.6036 348.179 55.9374 348.17C56.1005 348.164 56.2355 348.237 56.2846 348.372C56.3362 348.501 56.291 348.693 56.1961 348.861C55.7788 349.534 54.8187 350.053 53.8874 349.875C52.9592 349.705 52.2705 348.818 52.3011 348.024C52.3113 347.833 52.3744 347.644 52.4839 347.537C52.5916 347.432 52.7464 347.411 52.8859 347.478C53.1802 347.619 53.3618 347.958 53.5102 348.24C54.0906 349.421 53.967 350.3 54.0364 350.289Z" fill="white"/>
<path d="M99.4142 233.957C99.4142 233.957 101.306 241.281 100.62 250.204C100.354 253.657 88.7021 349.177 88.7021 349.177H72.9707L77.3925 259.401L76.1043 259.681C76.1043 259.681 67.5168 297.97 66.8161 304.17C66.186 309.742 58.944 350.223 58.944 350.223L44.5605 350.388L49.1544 296.842L54.5005 245.464L56.5117 230.508L99.4142 233.957Z" fill="#263238"/>
<path d="M77.8094 253.442C77.803 253.45 77.8367 253.487 77.9113 253.549C77.9884 253.607 78.1132 253.684 78.2948 253.731C78.6503 253.833 79.244 253.78 79.7868 253.378C80.3525 252.981 80.6908 252.19 80.8054 251.345C80.9182 250.49 80.9354 249.571 80.9991 248.598C81.1048 246.655 81.1832 244.895 81.2252 243.621C81.2667 242.346 81.2711 241.557 81.2291 241.555C81.187 241.553 81.1061 242.338 81.0086 243.609C80.9118 244.881 80.7991 246.639 80.6933 248.581C80.6302 249.55 80.6194 250.487 80.5258 251.306C80.4296 252.12 80.1378 252.836 79.6549 253.206C79.1803 253.591 78.6496 253.673 78.3203 253.614C77.9794 253.561 77.8266 253.413 77.8094 253.442Z" fill="#455A64"/>
<path d="M54.6671 244.2C54.6626 244.219 54.8174 244.281 55.1079 244.359C55.3984 244.437 55.8272 244.522 56.3648 244.57C57.4345 244.672 58.9691 244.571 60.5114 243.951C62.055 243.331 63.2329 242.342 63.935 241.529C64.2898 241.122 64.5414 240.764 64.6969 240.507C64.853 240.249 64.9218 240.097 64.9052 240.087C64.8612 240.058 64.5109 240.622 63.7763 241.382C63.0495 242.14 61.8894 243.067 60.398 243.666C58.9073 244.265 57.4281 244.398 56.3789 244.353C55.322 244.313 54.6786 244.148 54.6671 244.2Z" fill="#455A64"/>
<path d="M94.1359 240.188C94.1041 240.191 94.1302 240.806 94.3748 241.767C94.6163 242.726 95.1189 244.02 95.9572 245.286C96.8001 246.549 97.7983 247.514 98.5889 248.108C99.3802 248.705 99.9369 248.968 99.9522 248.94C100.024 248.859 97.8512 247.62 96.2127 245.116C94.5385 242.636 94.2378 240.153 94.1359 240.188Z" fill="#455A64"/>
<path d="M91.6413 138.239C93.0626 138.329 94.4596 137.217 94.6915 135.812C94.9234 134.406 93.9583 132.905 92.5835 132.533C93.4168 131.587 93.562 130.098 92.9269 129.01C92.2924 127.921 90.9252 127.314 89.6919 127.574C89.5772 126.335 88.7745 125.182 87.6527 124.644C86.5308 124.106 85.1293 124.202 84.0916 124.889C82.6595 123.782 80.4444 123.85 79.083 125.043C77.865 124.881 76.5813 125.591 76.0704 126.707C75.5595 127.825 75.8621 129.259 76.7807 130.075" fill="#263238"/>
<path d="M78.6016 127.961L79.2393 127.93C85.6583 127.61 91.2466 132.274 92.0805 138.646C92.8558 144.573 93.6368 151.132 93.7559 154.327C94.0025 160.941 87.4421 162.297 87.4421 162.297L88.3957 170.211L72.3273 170.512L69.4771 141.778C68.5438 134.944 71.7437 128.705 78.6016 127.961Z" fill="#AE7461"/>
<path d="M87.4936 162.324C87.4936 162.324 83.2846 162.787 78.7061 160.219C78.7061 160.219 81.0823 164.996 87.649 164.073L87.4936 162.324Z" fill="#6F4439"/>
<path d="M90.6801 144.949C90.7228 145.447 90.3361 145.893 89.8175 145.947C89.2996 146 88.8447 145.642 88.802 145.144C88.7594 144.647 89.1461 144.2 89.664 144.146C90.1825 144.092 90.6374 144.452 90.6801 144.949Z" fill="#263238"/>
<path d="M90.8186 141.935C90.7077 142.063 89.9662 141.57 88.9507 141.623C87.9352 141.661 87.2154 142.221 87.0994 142.103C87.0427 142.05 87.1504 141.822 87.4632 141.57C87.7709 141.318 88.3047 141.062 88.938 141.034C89.5706 141.006 90.1146 141.212 90.4325 141.436C90.7568 141.659 90.8734 141.877 90.8186 141.935Z" fill="#263238"/>
<path d="M81.7011 145.371C81.7438 145.869 81.3571 146.315 80.8379 146.369C80.32 146.423 79.8652 146.064 79.8225 145.566C79.7804 145.069 80.1665 144.622 80.6844 144.568C81.2036 144.514 81.6585 144.874 81.7011 145.371Z" fill="#263238"/>
<path d="M81.3036 142.669C81.1928 142.798 80.45 142.305 79.4351 142.357C78.4203 142.396 77.7004 142.956 77.5838 142.837C77.5271 142.784 77.6342 142.556 77.9482 142.304C78.2559 142.053 78.7892 141.797 79.4224 141.768C80.055 141.74 80.599 141.947 80.9169 142.17C81.2412 142.394 81.3584 142.611 81.3036 142.669Z" fill="#263238"/>
<path d="M84.9038 150.044C84.8961 149.987 85.5223 149.846 86.5384 149.664C86.7965 149.625 87.0398 149.561 87.0742 149.381C87.1258 149.191 87.0035 148.917 86.8627 148.621C86.5875 148.005 86.2996 147.36 85.9976 146.683C84.7923 143.924 83.9068 141.65 84.0183 141.602C84.1297 141.555 85.1968 143.753 86.4021 146.512C86.6933 147.192 86.971 147.842 87.236 148.463C87.3488 148.753 87.5342 149.079 87.4214 149.474C87.3615 149.672 87.1781 149.822 87.0137 149.875C86.85 149.934 86.7041 149.945 86.576 149.958C85.5491 150.065 84.9108 150.101 84.9038 150.044Z" fill="#263238"/>
<path d="M81.5343 138.664C81.4133 138.928 80.5284 138.692 79.455 138.711C78.3809 138.705 77.4878 138.953 77.3769 138.689C77.3285 138.564 77.5075 138.323 77.8834 138.098C78.256 137.872 78.8307 137.684 79.4747 137.68C80.1182 137.677 80.6864 137.857 81.0508 138.079C81.4177 138.3 81.5878 138.538 81.5343 138.664Z" fill="#263238"/>
<path d="M90.6643 137.757C90.4617 137.998 89.6112 137.8 88.6028 137.839C87.593 137.849 86.7483 138.087 86.54 137.855C86.4482 137.742 86.5705 137.504 86.933 137.267C87.2898 137.031 87.8956 136.822 88.5894 136.806C89.2831 136.79 89.8941 136.969 90.2566 137.188C90.6248 137.408 90.7535 137.64 90.6643 137.757Z" fill="#263238"/>
<path d="M91.2947 135.681C91.2947 135.681 89.3453 131.627 87.301 130.761C84.826 129.712 83.9176 132.416 81.5828 131.887C79.248 131.357 76.8851 130.35 74.6198 132.247C72.1404 134.324 73.4151 135.631 73.4017 138.572C73.3476 150.496 71.3428 153.966 70.4464 148.396C70.3483 147.786 68.6213 147.382 68.2397 144.802C67.7453 141.456 67.4134 137.381 68.0454 134.957C68.5779 132.915 69.6552 131.469 71.6352 129.835C74.7606 127.255 79.2161 126.982 82.2593 127.136C85.3026 127.289 91.3125 130.483 91.2947 135.681Z" fill="#263238"/>
<path d="M70.8573 148.19C70.7649 147.172 69.8456 146.41 68.834 146.557C67.607 146.736 66.2698 147.504 66.4775 150.048C66.8464 154.56 71.3007 153.259 71.2975 153.129C71.2962 153.041 71.0286 150.077 70.8573 148.19Z" fill="#AE7461"/>
<path d="M70.1786 151.519C70.1576 151.506 70.1041 151.581 69.9767 151.652C69.8518 151.722 69.6327 151.781 69.39 151.712C68.8988 151.576 68.4357 150.852 68.3471 150.04C68.3019 149.631 68.356 149.233 68.4751 148.897C68.586 148.555 68.7803 148.308 69.0166 148.245C69.2511 148.17 69.4326 148.3 69.4983 148.422C69.569 148.543 69.5479 148.636 69.5722 148.642C69.5855 148.652 69.6626 148.559 69.611 148.375C69.5849 148.287 69.5237 148.185 69.4103 148.107C69.295 148.028 69.132 147.996 68.9663 148.028C68.6204 148.08 68.3331 148.426 68.2025 148.794C68.0528 149.166 67.9821 149.614 68.033 150.074C68.1362 150.981 68.6714 151.794 69.339 151.929C69.6633 151.986 69.92 151.869 70.048 151.751C70.1793 151.628 70.1946 151.525 70.1786 151.519Z" fill="#6F4439"/>
<path d="M70.5146 139.429C71.1211 139.8 71.762 140.183 72.4729 140.218C73.1839 140.253 73.9725 139.806 74.0566 139.1C74.0949 138.782 73.9993 138.421 74.1942 138.168C74.4268 137.865 74.8867 137.933 75.2671 137.955C76.5883 138.029 78.051 136.501 78.3224 135.207C78.6823 135.691 79.4238 135.807 79.915 135.455C80.4062 135.103 80.5814 134.907 80.956 134.433C81.3305 133.959 81.8669 133.525 82.469 133.58C82.8053 133.611 83.1283 133.794 83.4628 133.748C84.0539 133.666 84.3088 132.956 84.3693 132.363C84.4298 131.769 84.4655 131.078 84.9522 130.733C85.4032 130.413 86.0154 130.555 86.5659 130.608C87.1163 130.662 87.8151 130.498 87.9285 129.957C87.9878 129.673 87.8533 129.385 87.6858 129.148C86.9271 128.075 85.3682 127.659 84.1756 128.211C83.659 126.739 82.2046 125.647 80.6476 125.56C79.0907 125.474 77.5241 126.399 76.8482 127.804C75.85 126.985 74.444 126.69 73.2004 127.04C71.9569 127.389 70.9102 128.373 70.4847 129.592C69.3711 129.358 68.139 129.845 67.4873 130.778C66.8356 131.712 66.8019 133.036 67.4051 134.001C66.6158 134.506 65.9603 135.347 65.9902 136.284C66.0202 137.22 66.9777 138.107 67.8683 137.816C67.5396 138.563 67.8855 139.536 68.6117 139.908C69.338 140.28 70.3299 139.992 70.744 139.289" fill="#263238"/>
<path d="M84.5716 129.547C84.5754 129.547 84.576 129.575 84.5747 129.63C84.5716 129.685 84.5722 129.767 84.5582 129.873C84.527 130.083 84.4582 130.397 84.2734 130.76C84.0868 131.118 83.7905 131.535 83.3242 131.878C82.8681 132.224 82.2329 132.502 81.499 132.498L81.571 132.394C81.7303 132.774 81.715 133.239 81.5424 133.646C81.3799 134.06 81.1104 134.432 80.8244 134.796C80.6772 134.972 80.5517 135.175 80.3441 135.34C80.1421 135.498 79.8962 135.596 79.6407 135.642C79.1343 135.732 78.5514 135.603 78.1602 135.193L78.3271 135.136C78.2571 136.04 77.7907 136.964 77.0059 137.553C76.5918 137.885 76.0694 138.101 75.5458 138.113C75.0221 138.134 74.5284 138.005 74.0672 137.864L74.1856 137.805C73.9703 138.379 73.6212 138.877 73.1855 139.253C72.758 139.628 72.1757 139.865 71.6323 139.76C70.5544 139.588 69.8027 138.736 69.6186 137.907L69.7231 137.95C69.2083 138.264 68.6413 138.321 68.1814 138.255C67.7151 138.194 67.3424 138.011 67.0742 137.826C66.8047 137.636 66.641 137.437 66.5416 137.299C66.4492 137.154 66.4104 137.073 66.4155 137.071C66.4371 137.051 66.5824 137.407 67.1169 137.762C67.3832 137.932 67.7469 138.098 68.1948 138.146C68.6375 138.199 69.1733 138.133 69.6485 137.833L69.7307 137.78L69.7536 137.875C69.9358 138.647 70.6583 139.441 71.6572 139.59C72.149 139.68 72.6612 139.469 73.0663 139.114C73.4734 138.759 73.806 138.279 74.0054 137.74L74.0366 137.655L74.1232 137.681C74.5774 137.817 75.054 137.938 75.5375 137.917C76.0216 137.904 76.4905 137.711 76.8855 137.397C77.6264 136.84 78.0647 135.976 78.1354 135.119L78.1532 134.904L78.3023 135.063C78.6323 135.414 79.1547 135.539 79.6095 135.459C79.8382 135.42 80.0567 135.333 80.2332 135.197C80.4052 135.066 80.5364 134.864 80.6862 134.687C80.9728 134.329 81.2347 133.971 81.3895 133.586C81.5545 133.206 81.5691 132.796 81.4315 132.452L81.3895 132.346L81.5035 132.348C82.1947 132.36 82.8076 132.107 83.2535 131.782C83.7096 131.46 84.0065 131.063 84.1989 130.721C84.576 130.017 84.5384 129.538 84.5716 129.547Z" fill="#455A64"/>
<path d="M84.8562 153.444C84.8224 153.276 83.7222 153.564 82.6934 152.829C81.6626 152.095 81.4773 150.891 81.3212 150.922C81.2479 150.926 81.1766 151.24 81.2931 151.739C81.4046 152.228 81.7467 152.896 82.3761 153.346C83.0062 153.794 83.7101 153.873 84.1707 153.792C84.6428 153.712 84.8823 153.517 84.8562 153.444Z" fill="#263238"/>
<path d="M120.702 217.36H123.498C124.19 216.313 124.89 216.114 126.345 215.254C130.051 213.063 134.989 211.293 136.043 212.136C137.095 212.979 135.8 213.906 135.395 214.159C134.99 214.412 131.427 215.799 131.59 216.959C131.751 218.12 143.381 220.213 143.896 221.322C144.589 222.814 143.355 223.424 138.416 222.581L137.014 222.334C137.014 222.334 137.824 223.514 136.933 224.441C136.043 225.368 135.314 224.947 135.314 224.947C135.314 224.947 135.395 226.042 134.261 226.548C133.128 227.054 132.645 226.548 132.645 226.548C132.645 226.548 132.913 229.331 130.456 228.908C128.242 228.526 126.726 228.526 124.544 228.071C123.561 227.867 122.717 227.388 122.717 227.388L119.95 226.332C119.498 224.343 120.489 217.898 120.702 217.36Z" fill="#AE7461"/>
<path d="M135.313 224.967C135.273 224.994 134.929 224.418 134.005 223.902C133.557 223.631 132.981 223.362 132.39 222.947C132.106 222.741 131.78 222.505 131.572 222.123C131.474 221.935 131.407 221.716 131.418 221.482C131.426 221.248 131.534 221.012 131.697 220.843C132.025 220.497 132.505 220.399 132.905 220.426C133.315 220.452 133.673 220.552 134.017 220.643C134.705 220.833 135.3 221.094 135.766 221.366C136.234 221.637 136.573 221.917 136.79 222.125C137.007 222.334 137.103 222.471 137.09 222.484C137.052 222.527 136.591 222.042 135.658 221.565C135.193 221.327 134.612 221.097 133.941 220.928C133.606 220.847 133.246 220.757 132.89 220.74C132.536 220.72 132.17 220.809 131.929 221.063C131.683 221.308 131.688 221.678 131.849 221.979C132.006 222.279 132.288 222.504 132.564 222.71C133.115 223.117 133.681 223.409 134.126 223.712C134.575 224.007 134.902 224.314 135.086 224.556C135.27 224.798 135.328 224.958 135.313 224.967Z" fill="#6F4439"/>
<path d="M130.663 217.712C130.699 217.72 130.652 218.136 130.424 218.771C130.199 219.404 129.761 220.245 129.088 221.03C128.411 221.813 127.645 222.37 127.052 222.688C126.457 223.007 126.053 223.116 126.039 223.081C125.989 222.991 127.546 222.354 128.846 220.821C130.167 219.31 130.566 217.675 130.663 217.712Z" fill="#6F4439"/>
<path d="M132.645 226.551C132.625 226.588 132.271 226.441 131.75 226.111C131.492 225.944 131.189 225.735 130.878 225.464C130.569 225.202 130.231 224.825 130.087 224.34C129.934 223.865 129.964 223.336 130.207 222.947C130.447 222.551 130.857 222.374 131.177 222.337C131.859 222.266 132.172 222.64 132.135 222.65C132.113 222.701 131.78 222.441 131.215 222.56C130.944 222.619 130.631 222.785 130.46 223.097C130.284 223.407 130.261 223.835 130.392 224.244C130.518 224.66 130.787 224.976 131.076 225.246C131.362 225.516 131.644 225.74 131.881 225.926C132.357 226.297 132.668 226.51 132.645 226.551Z" fill="#6F4439"/>
<path d="M130.967 228.529C130.94 228.564 130.656 228.399 130.22 228.103C129.801 227.818 129.12 227.395 128.803 226.563C128.655 226.152 128.661 225.709 128.812 225.351C128.957 224.987 129.268 224.749 129.542 224.67C129.819 224.582 130.063 224.617 130.207 224.68C130.354 224.744 130.409 224.815 130.398 224.831C130.382 224.878 130.07 224.685 129.621 224.882C129.403 224.976 129.188 225.167 129.085 225.46C128.979 225.747 128.98 226.114 129.103 226.455C129.363 227.157 129.968 227.597 130.364 227.93C130.762 228.268 130.995 228.495 130.967 228.529Z" fill="#6F4439"/>
<path d="M110.593 213.025L109.382 212.212L105.092 182.134C104.717 179.502 100.721 172.603 92.8604 169.953L94.4485 186.975L101.002 223.37C101.002 223.37 103.272 224.538 107.462 226.011C111.652 227.485 120.028 229.085 120.028 229.085L122.727 216.604L110.593 213.025Z" fill="#E0E0E0"/>
<path d="M58.2038 171.844L69.7995 167.034L71.1723 161.75L85.473 168.51L87.867 164.69L89.7228 168.931L92.8564 169.955L100.181 182.837L100.158 210.287L101.64 233.965L100.052 237.702L86.9312 239.638C85.4965 239.85 84.0389 239.852 82.6037 239.643L55.9709 235.288L55.2842 227.466L58.1293 205.904L58.2038 171.844Z" fill="#E0E0E0"/>
<path d="M84.6037 197.07C84.3743 191.036 85.3255 175.641 85.3255 175.641L87.3137 175.32C87.3137 175.32 91.0284 190.286 92.4153 208.624C92.9765 216.045 92.9765 224.641 92.9765 224.641L88.9822 233.215L84.5674 224.697C84.5674 224.697 84.8821 204.403 84.6037 197.07Z" fill="#FF8C00"/>
<path d="M84.809 170.454L86.4743 169.805L88.0682 171.922L87.5197 175.776L85.5308 176.096L83.5674 173.668L84.809 170.454Z" fill="#FF8C00"/>
<path d="M58.5187 171.844C58.5187 171.844 50.9225 173.812 48.7533 181.298C48.2054 183.188 45.3272 211.186 44.8851 214.816C44.4423 218.445 43.1243 223.803 47.5518 227.506C50.2911 229.797 73.2168 232.18 73.2168 232.18L77.8705 221.121L59.7476 214.062L62.5239 189.907L58.5187 171.844Z" fill="#E0E0E0"/>
<path d="M94.2501 232.619L82.2378 220.572C81.9543 220.288 81.946 219.831 82.2187 219.536C82.5072 219.225 82.9965 219.216 83.2966 219.517L95.3082 231.564C95.5917 231.848 95.6 232.305 95.3273 232.599C95.04 232.911 94.5501 232.92 94.2501 232.619Z" fill="#263238"/>
<path d="M77.308 221.062C77.3863 221.12 82.5962 221.313 84.2054 221.659C85.8146 222.006 89.6331 222.969 90.8543 223.836C92.0755 224.702 94.5365 227.845 93.9166 228.303C93.2974 228.761 92.5406 228.677 92.1405 228.303C91.8035 227.987 88.8106 225.703 88.8106 225.703C88.8106 225.703 87.0141 225.101 86.9587 225.563C86.9033 226.025 91.4187 228.476 90.697 229.574C89.9752 230.671 88.0334 230.383 88.0334 230.383C88.0334 230.383 88.5883 232.14 87.978 233.023C87.3677 233.906 85.8413 234.368 85.8413 234.368C85.8413 234.368 86.337 235.866 84.8545 236.467C83.7792 236.902 82.1585 235.812 82.1585 235.812L75.2146 232.289L73.2168 232.171L77.308 221.062Z" fill="#AE7461"/>
<path d="M50.8037 228.814C50.8044 228.81 50.8407 228.812 50.912 228.821C50.9974 228.833 51.1 228.847 51.2274 228.865C51.5255 228.913 51.9319 228.978 52.4499 229.061C53.5399 229.246 55.0962 229.511 57.0551 229.844C61.0253 230.542 66.6256 231.526 73.2434 232.69L73.0739 232.788C74.3238 229.176 75.7017 225.194 77.1511 221.007L77.2472 221.216C76.1751 220.799 75.0354 220.357 73.8823 219.909C68.5635 217.837 63.5136 215.869 59.0007 214.11L58.8879 214.067L58.9058 213.947C59.9034 207.281 60.7488 201.63 61.3483 197.622C61.6547 195.647 61.898 194.078 62.0688 192.979C62.1548 192.458 62.2223 192.049 62.272 191.749C62.2956 191.622 62.3147 191.519 62.3306 191.434C62.3453 191.363 62.3542 191.327 62.3586 191.328C62.3631 191.329 62.3618 191.366 62.3554 191.437C62.3459 191.524 62.3351 191.628 62.321 191.756C62.2828 192.057 62.2306 192.468 62.1643 192.992C62.014 194.094 61.7987 195.668 61.5279 197.647C60.9571 201.66 60.1531 207.316 59.2039 213.99L59.109 213.828C63.6251 215.578 68.6782 217.536 74.0014 219.599C75.1539 220.047 76.2936 220.49 77.3657 220.907L77.5142 220.965L77.4619 221.115C76.0031 225.299 74.6162 229.277 73.358 232.887L73.3153 233.009L73.1886 232.986C66.5798 231.775 60.9864 230.75 57.0214 230.023C55.0682 229.654 53.5176 229.361 52.4314 229.156C51.9167 229.053 51.5128 228.973 51.2172 228.914C51.0917 228.886 50.9904 228.864 50.9056 228.846C50.8381 228.828 50.8031 228.818 50.8037 228.814Z" fill="#263238"/>
<path d="M58.9818 214.002C58.999 214.107 57.2891 214.231 55.4844 215.219C53.6656 216.183 52.6214 217.543 52.5431 217.47C52.4685 217.441 53.433 215.934 55.327 214.927C57.2095 213.9 58.999 213.924 58.9818 214.002Z" fill="#263238"/>
<path d="M61.8056 183.563C61.7495 183.557 61.8005 182.964 61.7412 182.014C61.6845 181.065 61.473 179.759 60.957 178.405C60.4359 177.053 59.7199 175.94 59.128 175.197C58.5375 174.451 58.1024 174.043 58.14 174.001C58.1623 173.974 58.6566 174.322 59.3077 175.046C59.9588 175.766 60.7296 176.894 61.2666 178.287C61.7979 179.681 61.9789 181.035 61.9757 182.006C61.9757 182.979 61.84 183.568 61.8056 183.563Z" fill="#263238"/>
<path d="M100.768 184.531C100.86 184.531 100.934 194.086 100.934 205.869C100.934 217.657 100.859 227.21 100.768 227.21C100.676 227.21 100.603 217.657 100.603 205.869C100.603 194.086 100.677 184.531 100.768 184.531Z" fill="#263238"/>
<path d="M89.7263 168.922C89.7441 168.932 89.6065 169.224 89.3377 169.752C89.0389 170.324 88.6446 171.077 88.163 171.997L88.0865 172.144L87.9839 172.01C87.2481 171.051 86.3588 169.892 85.3599 168.59L85.6135 168.555C84.9579 170.245 84.2126 172.166 83.4214 174.205L83.3545 174.379L83.1901 174.291C82.9926 174.187 82.7805 174.075 82.5671 173.962C79.0206 172.086 75.8194 170.373 73.51 169.117C72.3946 168.503 71.4747 167.996 70.7834 167.616C70.1432 167.254 69.7941 167.045 69.8049 167.025C69.8158 167.005 70.1853 167.175 70.844 167.502C71.5479 167.858 72.4844 168.334 73.6203 168.91C75.9576 170.112 79.1767 171.793 82.7225 173.669C82.9359 173.782 83.1481 173.894 83.3455 173.999L83.1137 174.085C83.9176 172.051 84.6751 170.135 85.3414 168.449L85.4389 168.202L85.595 168.414C86.5697 169.734 87.438 170.909 88.1559 171.881L87.9769 171.894C88.4936 170.993 88.9166 170.256 89.2377 169.696C89.5364 169.185 89.7084 168.912 89.7263 168.922Z" fill="#263238"/>
</svg>
