<svg width="82" height="90" viewBox="0 0 82 90" fill="none" xmlns="http://www.w3.org/2000/svg">
<path d="M81.1064 36.2521C81.1064 30.86 74.3961 25.7499 64.1078 22.5809C66.4821 12.0288 65.4269 3.63354 60.7772 0.945716C59.7055 0.315239 58.4527 0.0165834 57.0842 0.0165834V3.71649C57.8425 3.71649 58.4527 3.86582 58.9637 4.14786C61.206 5.44198 62.1789 10.3696 61.4202 16.7075C61.2391 18.2672 60.9424 19.9097 60.5796 21.5854C57.3478 20.789 53.8195 20.1752 50.1099 19.777C47.8842 16.7075 45.5759 13.9202 43.251 11.4813C48.626 6.45407 53.6713 3.69987 57.1008 3.69987V0C52.5664 0 46.6311 3.25193 40.6298 8.89299C34.6281 3.2851 28.6927 0.066372 24.1588 0.066372V3.76624C27.5716 3.76624 32.6332 6.50386 38.0081 11.4979C35.6998 13.9368 33.3915 16.7075 31.1986 19.777C27.4724 20.1752 23.9442 20.789 20.7127 21.602C20.3334 19.9429 20.0532 18.3335 19.8552 16.7905C19.0806 10.4526 20.0366 5.52493 22.2627 4.21423C22.7571 3.91557 23.4 3.78287 24.1588 3.78287V0.0829554C22.7736 0.0829554 21.5205 0.381611 20.4325 1.01209C15.7994 3.69987 14.7608 12.0785 17.1513 22.5975C6.89618 25.7831 0.21875 30.8767 0.21875 36.2521C0.21875 41.6446 6.92914 46.7547 17.2173 49.9235C14.843 60.4758 15.8982 68.8708 20.5479 71.5587C21.6197 72.189 22.8725 72.4877 24.2576 72.4877C28.7916 72.4877 34.7272 69.2359 40.7286 63.5948C46.7299 69.2029 52.6656 72.4216 57.1996 72.4216C58.5843 72.4216 59.8374 72.123 60.9258 71.4923C65.5586 68.8044 66.5975 60.4257 64.2066 49.9071C74.4289 46.738 81.1064 41.6279 81.1064 36.2521ZM59.6398 25.1858C59.0297 27.3262 58.2713 29.5325 57.4138 31.7392C56.738 30.4122 56.029 29.0847 55.2541 27.7573C54.4957 26.4301 53.6875 25.136 52.8798 23.875C55.2209 24.2235 57.4797 24.6549 59.6398 25.1858ZM52.0882 42.8555C50.8023 45.0956 49.4835 47.2192 48.115 49.1937C45.6581 49.4092 43.1688 49.5254 40.6626 49.5254C38.1729 49.5254 35.6832 49.4092 33.2433 49.21C31.8748 47.2356 30.5391 45.1287 29.2531 42.9052C28 40.7319 26.8626 38.5252 25.8237 36.3022C26.846 34.0788 28 31.8554 29.2369 29.6821C30.5229 27.4423 31.8416 25.3185 33.2101 23.3441C35.667 23.1284 38.1563 23.0123 40.6626 23.0123C43.1522 23.0123 45.6419 23.1284 48.0818 23.3275C49.4503 25.3019 50.7861 27.4089 52.072 29.6323C53.3251 31.8057 54.4625 34.0124 55.5014 36.2358C54.4625 38.4588 53.3251 40.6822 52.0882 42.8555ZM57.4138 40.6989C58.2793 42.8611 59.0387 45.0648 59.6892 47.302C57.5292 47.8329 55.2541 48.281 52.8964 48.6294C53.7041 47.352 54.5119 46.0413 55.2706 44.6972C56.029 43.3701 56.738 42.026 57.4138 40.6989ZM40.6954 58.4019C39.1621 56.8088 37.6287 55.0336 36.112 53.0925C37.5959 53.1589 39.1127 53.2087 40.646 53.2087C42.1959 53.2087 43.7292 53.1756 45.2297 53.0925C43.8145 54.9433 42.3008 56.7156 40.6954 58.4019ZM28.4288 48.6294C26.0877 48.281 23.8288 47.8496 21.6691 47.3187C22.2789 45.1784 23.0376 42.9716 23.8948 40.7649C24.5709 42.0924 25.2799 43.4198 26.0545 44.7469C26.8295 46.0743 27.621 47.3684 28.4288 48.6294ZM40.6132 14.1027C42.1465 15.6955 43.6798 17.4708 45.1966 19.412C43.7126 19.3456 42.1959 19.2958 40.6626 19.2958C39.1127 19.2958 37.5793 19.329 36.0792 19.412C37.4943 17.5613 39.0079 15.7889 40.6132 14.1027ZM28.4122 23.875C27.6044 25.1526 26.7966 26.4633 26.0383 27.807C25.2799 29.1345 24.5709 30.4619 23.8948 31.789C23.0292 29.6268 22.2699 27.4231 21.6197 25.1858C23.7794 24.6714 26.0545 24.2235 28.4122 23.875ZM13.4911 44.6475C7.65462 42.1421 3.87897 38.8573 3.87897 36.2521C3.87897 33.6473 7.65462 30.3458 13.4911 27.8571C14.909 27.2431 16.459 26.6956 18.0583 26.1813C18.998 29.4331 20.2346 32.8177 21.7679 36.2855C20.2512 39.7365 19.0308 43.1045 18.1077 46.34C16.4755 45.8254 14.9256 45.2615 13.4911 44.6475ZM22.3615 68.3566C20.1192 67.0626 19.1462 62.1349 19.905 55.7968C20.0864 54.2374 20.3828 52.5947 20.7456 50.9188C23.9774 51.7154 27.5056 52.3294 31.2152 52.7275C33.4409 55.7968 35.7492 58.5841 38.0741 61.023C32.6992 66.0505 27.6538 68.8044 24.2244 68.8044C23.4826 68.7881 22.8562 68.6386 22.3615 68.3566ZM61.4699 55.714C62.2445 62.0518 61.2886 66.9794 59.0625 68.2902C58.5681 68.5888 57.9251 68.7217 57.1664 68.7217C53.7535 68.7217 48.692 65.9841 43.317 60.99C45.6253 58.5511 47.9336 55.7804 50.1265 52.7108C53.8527 52.3127 57.3809 51.6987 60.6124 50.8858C60.9918 52.5616 61.2885 54.171 61.4699 55.714ZM67.8174 44.6475C66.3995 45.2615 64.8496 45.8091 63.2503 46.3233C62.3105 43.0714 61.074 39.6868 59.5407 36.2191C61.0578 32.768 62.2777 29.4001 63.2009 26.1646C64.8334 26.679 66.3829 27.2431 67.834 27.8571C73.6705 30.3621 77.4462 33.6473 77.4462 36.2521C77.4296 38.8573 73.654 42.1588 67.8174 44.6475Z" fill="#61DAFB"/>
<path d="M40.6452 43.8346C44.8068 43.8346 48.1802 40.4399 48.1802 36.2521C48.1802 32.0646 44.8068 28.6699 40.6452 28.6699C36.4839 28.6699 33.1105 32.0646 33.1105 36.2521C33.1105 40.4399 36.4839 43.8346 40.6452 43.8346ZM3.8909 85.5428H1.40362V89.8534H0V79.1975H3.50545C4.69815 79.1975 5.61454 79.471 6.25452 80.0174C6.89938 80.5636 7.22182 81.359 7.22182 82.403C7.22182 83.0667 7.04242 83.6447 6.68363 84.1378C6.3297 84.6305 5.83515 84.9989 5.2 85.2426L7.68728 89.7655V89.8534H6.18908L3.8909 85.5428ZM1.40362 84.3938H3.5491C4.24243 84.3938 4.79272 84.2131 5.2 83.8521C5.6121 83.4911 5.81816 83.0081 5.81816 82.403C5.81816 81.7445 5.6218 81.2395 5.22909 80.8882C4.8412 80.5369 4.27879 80.3588 3.5418 80.354H1.40362V84.3938ZM12.2401 90C11.1733 90 10.3054 89.6486 9.63636 88.9459C8.96725 88.2384 8.63271 87.2943 8.63271 86.1137V85.8648C8.63271 85.0794 8.78059 84.3793 9.07634 83.7646C9.37696 83.1446 9.79393 82.6616 10.3273 82.3154C10.8655 81.9641 11.4473 81.7882 12.0727 81.7882C13.0958 81.7882 13.8911 82.1273 14.4581 82.8055C15.0255 83.4837 15.309 84.4546 15.309 85.7182V86.2818H9.97816C9.99755 87.0627 10.223 87.6946 10.6545 88.1776C11.0909 88.6555 11.6436 88.8947 12.3128 88.8947C12.788 88.8947 13.1902 88.7972 13.5198 88.602C13.8498 88.4069 14.1381 88.1483 14.3855 87.8263L15.2072 88.4703C14.5477 89.4898 13.5589 90 12.2401 90ZM12.0727 82.9009C11.5297 82.9009 11.0739 83.1008 10.7054 83.5008C10.337 83.8963 10.1091 84.4524 10.0218 85.1695H13.9637V85.0671C13.925 84.3793 13.7406 83.8473 13.4111 83.4715C13.0811 83.0912 12.635 82.9009 12.0727 82.9009ZM21.731 89.8534C21.6532 89.6972 21.5901 89.4193 21.5418 89.019C20.9162 89.6727 20.1696 90 19.3018 90C18.5261 90 17.8886 89.7803 17.3891 89.3411C16.8947 88.897 16.6473 88.336 16.6473 87.6578C16.6473 86.8335 16.9577 86.1942 17.5782 85.7405C18.2035 85.2816 19.0813 85.0523 20.2109 85.0523H21.5201V84.4305C21.5201 83.9571 21.3793 83.5813 21.0983 83.3034C20.817 83.0203 20.4023 82.879 19.8544 82.879C19.3744 82.879 18.9722 83.0007 18.6474 83.2448C18.3226 83.4885 18.16 83.7838 18.16 84.1304H16.8073C16.8073 83.7352 16.9456 83.3546 17.2217 82.9884C17.503 82.6178 17.8813 82.3251 18.3565 82.1103C18.8365 81.8958 19.3622 81.7882 19.9344 81.7882C20.8414 81.7882 21.5514 82.0175 22.0654 82.4764C22.5793 82.9302 22.8459 83.5572 22.8654 84.357V88.0018C22.8654 88.7289 22.9576 89.3069 23.1419 89.7362V89.8534H21.731ZM19.4983 88.8217C19.92 88.8217 20.3201 88.7118 20.6983 88.4922C21.0762 88.2726 21.3501 87.9873 21.5201 87.6359V86.0113H20.4653C18.817 86.0113 17.9926 86.4966 17.9926 87.4675C17.9926 87.8919 18.1334 88.224 18.4144 88.4629C18.6957 88.7018 19.057 88.8217 19.4983 88.8217ZM28.1308 88.8947C28.6108 88.8947 29.0304 88.7482 29.3891 88.4555C29.7478 88.1628 29.9466 87.797 29.9853 87.3577H31.2583C31.234 87.8114 31.0788 88.2433 30.7927 88.6532C30.5066 89.0632 30.1235 89.39 29.6435 89.6338C29.1683 89.8779 28.6643 90 28.1308 90C27.0595 90 26.206 89.6412 25.5707 88.9241C24.9407 88.2017 24.6255 87.2163 24.6255 85.9672V85.7405C24.6255 84.9696 24.7659 84.284 25.0472 83.684C25.3285 83.0838 25.7307 82.6178 26.2546 82.2861C26.7829 81.9541 27.406 81.7882 28.1235 81.7882C29.0061 81.7882 29.7383 82.0542 30.32 82.5863C30.9066 83.1179 31.2192 83.8083 31.2583 84.6572H29.9853C29.9466 84.1448 29.7526 83.7252 29.4035 83.3984C29.0595 83.0667 28.6326 82.9009 28.1235 82.9009C27.4399 82.9009 26.909 83.1494 26.5308 83.6473C26.1577 84.14 25.9708 84.8549 25.9708 85.7917V86.0477C25.9708 86.96 26.1577 87.6627 26.5308 88.1553C26.9042 88.6484 27.4377 88.8947 28.1308 88.8947ZM34.5963 80.0174V81.9348H36.0655V82.9814H34.5963V87.8919C34.5963 88.2091 34.6619 88.4481 34.7928 88.6091C34.9237 88.7653 35.1467 88.8435 35.462 88.8435C35.6168 88.8435 35.8303 88.8142 36.1016 88.7556V89.8534C35.7477 89.951 35.4037 90 35.069 90C34.468 90 34.0145 89.8167 33.7089 89.4509C33.4036 89.0851 33.251 88.5653 33.251 87.8919V82.9814H31.818V81.9348H33.251V80.0174H34.5963ZM49.6874 89.8534H48.2834L42.9527 81.6421V89.8534H41.5492V79.1975H42.9527L48.2982 87.4456V79.1975H49.6874V89.8534ZM56.8146 89.8534C56.7368 89.6972 56.6738 89.4193 56.6255 89.019C55.9998 89.6727 55.2533 90 54.3854 90C53.6097 90 52.9719 89.7803 52.4727 89.3411C51.9783 88.897 51.7309 88.336 51.7309 87.6578C51.7309 86.8335 52.041 86.1942 52.6618 85.7405C53.2871 85.2816 54.1649 85.0523 55.2945 85.0523H56.6037V84.4305C56.6037 83.9571 56.4629 83.5813 56.1816 83.3034C55.9007 83.0203 55.4859 82.879 54.938 82.879C54.458 82.879 54.0558 83.0007 53.731 83.2448C53.4062 83.4885 53.2436 83.7838 53.2436 84.1304H51.8909C51.8909 83.7352 52.0292 83.3546 52.3053 82.9884C52.5866 82.6178 52.9649 82.3251 53.4401 82.1103C53.9201 81.8958 54.4459 81.7882 55.018 81.7882C55.9246 81.7882 56.6351 82.0175 57.149 82.4764C57.6629 82.9302 57.9295 83.5572 57.949 84.357V88.0018C57.949 88.7289 58.0412 89.3069 58.2255 89.7362V89.8534H56.8146ZM54.5819 88.8217C55.0037 88.8217 55.4037 88.7118 55.7819 88.4922C56.1598 88.2726 56.4338 87.9873 56.6037 87.6359V86.0113H55.5489C53.9006 86.0113 53.0762 86.4966 53.0762 87.4675C53.0762 87.8919 53.2171 88.224 53.498 88.4629C53.7793 88.7018 54.1406 88.8217 54.5819 88.8217ZM61.8835 80.0174V81.9348H63.3527V82.9814H61.8835V87.8919C61.8835 88.2091 61.9492 88.4481 62.08 88.6091C62.2109 88.7653 62.434 88.8435 62.7492 88.8435C62.904 88.8435 63.1175 88.8142 63.3892 88.7556V89.8534C63.0349 89.951 62.6909 90 62.3562 90C61.7552 90 61.3018 89.8167 60.9961 89.4509C60.6909 89.0851 60.5382 88.5653 60.5382 87.8919V82.9814H59.1056V81.9348H60.5382V80.0174H61.8835ZM66.3928 89.8534H65.0471V81.9348H66.3928V89.8534ZM64.938 79.8342C64.938 79.6149 65.0037 79.4294 65.1345 79.278C65.2702 79.1267 65.4689 79.0514 65.7307 79.0514C65.9928 79.0514 66.1915 79.1267 66.3272 79.278C66.4629 79.4294 66.5307 79.6149 66.5307 79.8342C66.5307 80.0538 66.4629 80.2367 66.3272 80.3833C66.1915 80.5294 65.9928 80.6029 65.7307 80.6029C65.4689 80.6029 65.2702 80.5294 65.1345 80.3833C65.0037 80.2367 64.938 80.0538 64.938 79.8342ZM71.1491 88.0166L73.0979 81.9348H74.4727L71.6509 89.8534H70.6252L67.7746 81.9348H69.149L71.1491 88.0166ZM78.9308 90C77.8642 90 76.9963 89.6486 76.3272 88.9459C75.658 88.2384 75.3236 87.2943 75.3236 86.1137V85.8648C75.3236 85.0794 75.4715 84.3793 75.7672 83.7646C76.0676 83.1446 76.4846 82.6616 77.0181 82.3154C77.5564 81.9641 78.1381 81.7882 78.7634 81.7882C79.7865 81.7882 80.5817 82.1273 81.1491 82.8055C81.7161 83.4837 82 84.4546 82 85.7182V86.2818H76.6689C76.6885 87.0627 76.9137 87.6946 77.3455 88.1776C77.7816 88.6555 78.3346 88.8947 79.0034 88.8947C79.4786 88.8947 79.8812 88.7972 80.2108 88.602C80.5404 88.4069 80.8291 88.1483 81.0765 87.8263L81.8983 88.4703C81.2387 89.4898 80.2495 90 78.9308 90ZM78.7634 82.9009C78.2207 82.9009 77.7646 83.1008 77.3963 83.5008C77.0277 83.8963 76.7998 84.4524 76.7128 85.1695H80.6543V85.0671C80.6156 84.3793 80.4313 83.8473 80.1017 83.4715C79.7721 83.0912 79.326 82.9009 78.7634 82.9009Z" fill="#61DAFB"/>
</svg>
