<svg width="82" height="82" viewBox="0 0 82 82" fill="none" xmlns="http://www.w3.org/2000/svg">
<path d="M81.9943 22.7124C81.9894 21.8877 81.9803 21.0634 81.9576 20.2378C81.9095 18.4418 81.8033 16.6295 81.4841 14.8527C81.1602 13.0483 80.6307 11.3705 79.7962 9.73132C78.9771 8.12159 77.9062 6.64854 76.6288 5.37113C75.3517 4.09372 73.8786 3.023 72.2682 2.20343C70.6304 1.36991 68.9523 0.840559 67.1496 0.516651C65.3718 0.196471 63.5595 0.090987 61.7622 0.0423869C60.9369 0.0200199 60.1125 0.0106313 59.2876 0.00552273C58.3084 0 57.3285 0 56.3496 0H34.6431H25.6505C24.6707 0 23.6919 0 22.713 0.0056608C21.8877 0.0107693 21.0624 0.020158 20.2384 0.042525C19.7891 0.054675 19.3389 0.0704148 18.8884 0.0920915C17.5369 0.15726 16.1835 0.276689 14.8508 0.516789C13.4987 0.759789 12.2166 1.11821 10.9693 1.6339C10.5536 1.80566 10.1416 1.99509 9.73207 2.20343C8.52425 2.81811 7.39347 3.57403 6.365 4.45242C6.02218 4.74527 5.69068 5.05164 5.37146 5.37099C4.09378 6.6484 3.02292 8.12145 2.20376 9.73119C1.36928 11.3703 0.840475 13.0481 0.51629 14.8525C0.197352 16.6293 0.0913158 18.4416 0.0429919 20.2376C0.0203487 21.0633 0.0108219 21.8875 0.00543728 22.7122C-0.00077579 23.6917 5.26194e-05 24.6713 5.26194e-05 25.6504V39.0181V56.3491C5.26194e-05 57.3292 -0.000913859 58.3079 0.00543728 59.288C0.0108219 60.1127 0.0203487 60.937 0.0429919 61.7612C0.0913158 63.5582 0.197214 65.3709 0.51629 67.1469C0.840475 68.9507 1.36928 70.63 2.20376 72.2688C3.02292 73.8789 4.09378 75.3516 5.37146 76.6284C6.64818 77.9064 8.12165 78.977 9.73221 79.7971C11.3701 80.6307 13.0481 81.1594 14.8512 81.4833C16.6279 81.8031 18.4416 81.9094 20.2385 81.9574C21.0625 81.9794 21.8879 81.9892 22.7131 81.9939C23.692 82.0009 24.6708 82 25.6507 82H56.3496C57.3285 82 58.3084 82.0009 59.2874 81.9939C60.1124 81.9892 60.9368 81.9794 61.762 81.9574C63.5594 81.9094 65.3717 81.8029 67.1494 81.4833C68.9522 81.1594 70.6303 80.6306 72.2681 79.7971C73.8785 78.9771 75.3515 77.9064 76.6287 76.6284C77.9061 75.3514 78.9771 73.8789 79.7961 72.2688C80.6306 70.63 81.1601 68.9509 81.484 67.1469C81.8032 65.3709 81.9094 63.5582 81.9574 61.7612C81.9801 60.937 81.9892 60.1128 81.9941 59.288C82.0005 58.3079 81.9999 57.3292 81.9999 56.3491V25.6504C82.0001 24.6713 82.0005 23.6917 81.9943 22.7124Z" fill="#F05138"/>
<path d="M64.9753 50.6165C64.9734 50.614 64.9716 50.6122 64.9695 50.6099C65.0602 50.3012 65.1538 49.9944 65.2332 49.6779C68.6366 36.1184 60.3303 20.0873 46.2742 11.6465C52.4339 19.9967 55.1574 30.1108 52.7376 38.9557C52.5218 39.7446 52.2624 40.5018 51.9756 41.2377C51.6644 41.0332 51.2723 40.8011 50.7457 40.5107C50.7457 40.5107 36.7637 31.8778 21.6094 16.6081C21.2118 16.2073 29.6903 28.7264 39.3124 38.8922C34.7791 36.348 22.1453 27.1558 14.1472 19.8356C15.1299 21.4743 16.2986 23.0523 17.5834 24.5715C24.2624 33.0418 32.9727 43.4929 43.4081 51.5181C36.0761 56.005 25.7159 56.3539 15.4006 51.5228C12.8493 50.3271 10.4507 48.8844 8.23047 47.2453C12.5969 54.2295 19.3218 60.2553 27.5066 63.7732C37.2673 67.9678 46.9737 67.6834 54.2029 63.8419L54.1973 63.8502C54.2303 63.8294 54.2723 63.8066 54.3065 63.7855C54.6033 63.6259 54.898 63.4633 55.1861 63.2917C58.6595 61.4888 65.5201 59.6597 69.2025 66.8246C70.1044 68.5781 72.0208 59.2855 64.9753 50.6165Z" fill="white"/>
</svg>
