<svg width="82" height="82" viewBox="0 0 82 82" fill="none" xmlns="http://www.w3.org/2000/svg">
<path d="M40.997 22.332C37.3016 22.332 33.6891 23.4279 30.6165 25.4809C27.5438 27.534 25.149 30.4521 23.7348 33.8663C22.3206 37.2804 21.9506 41.0373 22.6715 44.6617C23.3925 48.2861 25.172 51.6154 27.7851 54.2285C30.3982 56.8415 33.7274 58.6211 37.3519 59.342C40.9763 60.0629 44.7331 59.6929 48.1473 58.2787C51.5614 56.8646 54.4796 54.4697 56.5326 51.3971C58.5857 48.3244 59.6816 44.712 59.6816 41.0165C59.6757 36.0629 57.7052 31.3139 54.2025 27.8111C50.6997 24.3084 45.9507 22.3379 40.997 22.332Z" fill="#478AFF"/>
<path d="M67.8276 23.9892C72.5282 23.9892 76.3388 20.1786 76.3388 15.478C76.3388 10.7774 72.5282 6.9668 67.8276 6.9668C63.127 6.9668 59.3164 10.7774 59.3164 15.478C59.3164 20.1786 63.127 23.9892 67.8276 23.9892Z" fill="#478AFF"/>
<path d="M78.3074 24.0334L77.9504 23.2526L77.3927 23.8995C75.9973 25.4828 74.2329 26.6974 72.2558 27.4357L71.6981 27.6364L71.9212 28.1942C74.927 35.4228 75.3074 43.4756 72.9965 50.9554C70.6856 58.4352 65.8292 64.8701 59.2698 69.1435C52.7104 73.4169 44.8619 75.2592 37.0861 74.3509C29.3103 73.4425 22.0979 69.8407 16.7001 64.1704C11.3023 58.5001 8.05987 51.1192 7.53527 43.3081C7.01068 35.4971 9.23705 27.7488 13.8281 21.4077C18.4192 15.0665 25.0853 10.5326 32.6698 8.59266C40.2542 6.65268 48.2786 7.429 55.3505 10.7869L55.8748 11.0379L56.1035 10.4802C56.937 8.54151 58.2358 6.83841 59.885 5.52181L60.5543 4.96406L59.7902 4.56806C53.9852 1.55099 47.5363 -0.0162614 40.9941 0.000127219C32.1365 0.00139914 23.5176 2.8711 16.4272 8.17976C9.33672 13.4884 4.15613 20.9505 1.66072 29.4493C-0.834687 37.948 -0.51071 47.0264 2.58417 55.3256C5.67905 63.6249 11.3784 70.6987 18.8292 75.4885C26.28 80.2782 35.0816 82.5262 43.9167 81.8961C52.7518 81.266 61.1453 77.7916 67.8409 71.9929C74.5366 66.1943 79.1743 58.3832 81.06 49.7287C82.9458 41.0742 81.9781 32.0418 78.3018 23.9832L78.3074 24.0334Z" fill="#478AFF"/>
</svg>
