<svg width="34" height="34" viewBox="0 0 34 34" fill="none" xmlns="http://www.w3.org/2000/svg">
<mask id="mask0_3116_6881" style="mask-type:alpha" maskUnits="userSpaceOnUse" x="0" y="0" width="34" height="34">
<rect width="34" height="34" fill="#D9D9D9"/>
</mask>
<g mask="url(#mask0_3116_6881)">
<path d="M20.2433 29.2049C20.6993 29.2049 21.0857 29.0465 21.4025 28.7296C21.7194 28.4128 21.8778 28.0264 21.8778 27.5705C21.8778 27.1145 21.7194 26.7281 21.4025 26.4113C21.0857 26.0944 20.6993 25.936 20.2433 25.936C19.7874 25.936 19.401 26.0944 19.0842 26.4113C18.7673 26.7281 18.6089 27.1145 18.6089 27.5705C18.6089 28.0264 18.7673 28.4128 19.0842 28.7296C19.401 29.0465 19.7874 29.2049 20.2433 29.2049ZM28.3346 16.2917C28.7906 16.2917 29.177 16.1332 29.4938 15.8164C29.8107 15.4995 29.9691 15.1131 29.9691 14.6572C29.9691 14.2013 29.8107 13.8149 29.4938 13.498C29.177 13.1809 28.7906 13.0224 28.3346 13.0224C27.8787 13.0224 27.4923 13.1809 27.1754 13.498C26.8586 13.8149 26.7002 14.2013 26.7002 14.6572C26.7002 15.1131 26.8586 15.4995 27.1754 15.8164C27.4923 16.1332 27.8787 16.2917 28.3346 16.2917ZM8.85547 15.2292H16.1297V13.1042H8.85547V15.2292ZM8.85547 20.8958H16.1297V18.7708H8.85547V20.8958ZM6.10395 27.625C5.3883 27.625 4.78255 27.3771 4.28672 26.8813C3.79089 26.3854 3.54297 25.7797 3.54297 25.064V8.93598C3.54297 8.22033 3.79089 7.61458 4.28672 7.11875C4.78255 6.62292 5.3883 6.375 6.10395 6.375H27.8987C28.6143 6.375 29.2201 6.62292 29.7159 7.11875C30.2117 7.61458 30.4596 8.22033 30.4596 8.93598H28.3346C28.3346 8.8269 28.2892 8.72702 28.1983 8.63635C28.1076 8.54545 28.0077 8.5 27.8987 8.5H6.10395C5.99486 8.5 5.89499 8.54545 5.80432 8.63635C5.71342 8.72702 5.66797 8.8269 5.66797 8.93598V25.064C5.66797 25.1731 5.71342 25.273 5.80432 25.3636C5.89499 25.4545 5.99486 25.5 6.10395 25.5H13.6505V27.625H6.10395ZM20.2433 31.3299C19.199 31.3299 18.3114 30.9644 17.5804 30.2334C16.8494 29.5024 16.4839 28.6148 16.4839 27.5705C16.4839 26.7131 16.738 25.9549 17.2464 25.2956C17.755 24.6364 18.3998 24.1969 19.1808 23.9771V20.0511H27.2721V18.2506C26.4911 18.0307 25.8464 17.5912 25.338 16.932C24.8294 16.2725 24.5752 15.5143 24.5752 14.6572C24.5752 13.6129 24.9407 12.7252 25.6717 11.9942C26.4027 11.263 27.2903 10.8974 28.3346 10.8974C29.379 10.8974 30.2666 11.263 30.9976 11.9942C31.7286 12.7252 32.0941 13.6129 32.0941 14.6572C32.0941 15.5143 31.8398 16.2725 31.3312 16.932C30.8229 17.5912 30.1782 18.0307 29.3971 18.2506V22.1761H21.3058V23.9771C22.0869 24.1969 22.7316 24.6364 23.2399 25.2956C23.7485 25.9549 24.0028 26.7131 24.0028 27.5705C24.0028 28.6148 23.6373 29.5024 22.9063 30.2334C22.1753 30.9644 21.2877 31.3299 20.2433 31.3299Z" fill="white"/>
</g>
</svg>
