<svg width="34" height="34" viewBox="0 0 34 34" fill="none" xmlns="http://www.w3.org/2000/svg">
<mask id="mask0_3116_4066" style="mask-type:alpha" maskUnits="userSpaceOnUse" x="0" y="0" width="34" height="34">
<rect width="34" height="34" fill="#D9D9D9"/>
</mask>
<g mask="url(#mask0_3116_4066)">
<path d="M15.2157 20.8934H18.7843L17.9835 16.4199C18.4284 16.2291 18.7865 15.93 19.0581 15.5224C19.3296 15.1147 19.4654 14.6619 19.4654 14.1642C19.4654 13.4849 19.2243 12.9042 18.7421 12.4221C18.26 11.9399 17.6793 11.6989 17 11.6989C16.3207 11.6989 15.74 11.9399 15.2579 12.4221C14.7757 12.9042 14.5346 13.4849 14.5346 14.1642C14.5346 14.6619 14.6704 15.1147 14.9419 15.5224C15.2135 15.93 15.5716 16.2291 16.0165 16.4199L15.2157 20.8934ZM17 30.4286C13.936 29.593 11.3992 27.7895 9.38967 25.018C7.37989 22.2465 6.375 19.148 6.375 15.7225V7.5714L17 3.59375L27.625 7.5714V15.7225C27.625 19.148 26.6201 22.2465 24.6103 25.018C22.6008 27.7895 20.064 29.593 17 30.4286ZM17 28.1892C19.4556 27.41 21.4861 25.8517 23.0917 23.5142C24.6972 21.1767 25.5 18.5795 25.5 15.7225V9.02879L17 5.85475L8.5 9.02879V15.7225C8.5 18.5795 9.30278 21.1767 10.9083 23.5142C12.5139 25.8517 14.5444 27.41 17 28.1892Z" fill="white"/>
</g>
</svg>
