<svg width="34" height="34" viewBox="0 0 34 34" fill="none" xmlns="http://www.w3.org/2000/svg">
<mask id="mask0_3116_9454" style="mask-type:alpha" maskUnits="userSpaceOnUse" x="0" y="0" width="34" height="34">
<rect width="34" height="34" fill="#D9D9D9"/>
</mask>
<g mask="url(#mask0_3116_9454)">
<path d="M21.9214 23.4106L23.4146 21.9175L18.0638 16.5667V9.91406H15.9388V17.4277L21.9214 23.4106ZM17.0038 30.4557C15.1423 30.4557 13.3926 30.1025 11.7547 29.3961C10.1168 28.6896 8.69208 27.7309 7.48059 26.5199C6.26911 25.3089 5.30991 23.8848 4.60299 22.2476C3.89631 20.6104 3.54297 18.8611 3.54297 16.9999C3.54297 15.1384 3.89619 13.3887 4.60264 11.7508C5.30908 10.1129 6.26781 8.68817 7.47882 7.47669C8.68984 6.2652 10.1139 5.306 11.7511 4.59908C13.3883 3.8924 15.1376 3.53906 16.9988 3.53906C18.8603 3.53906 20.61 3.89228 22.2479 4.59873C23.8858 5.30517 25.3105 6.2639 26.522 7.47492C27.7335 8.68593 28.6927 10.11 29.3996 11.7472C30.1063 13.3844 30.4596 15.1337 30.4596 16.9949C30.4596 18.8564 30.1064 20.6061 29.4 22.244C28.6935 23.8819 27.7348 25.3066 26.5238 26.5181C25.3128 27.7296 23.8887 28.6888 22.2515 29.3957C20.6143 30.1024 18.865 30.4557 17.0038 30.4557ZM17.0013 28.3307C20.1416 28.3307 22.8155 27.2269 25.0232 25.0193C27.2308 22.8116 28.3346 20.1377 28.3346 16.9974C28.3346 13.8571 27.2308 11.1832 25.0232 8.97552C22.8155 6.76788 20.1416 5.66406 17.0013 5.66406C13.861 5.66406 11.1871 6.76788 8.97943 8.97552C6.77179 11.1832 5.66797 13.8571 5.66797 16.9974C5.66797 20.1377 6.77179 22.8116 8.97943 25.0193C11.1871 27.2269 13.861 28.3307 17.0013 28.3307Z" fill="white"/>
</g>
</svg>
