<svg width="82" height="82" viewBox="0 0 82 82" fill="none" xmlns="http://www.w3.org/2000/svg">
<path d="M16.7192 65.2704L2.6982 51.2463C1.03592 49.5355 0 47.1258 0 44.7704C0 43.6801 0.614323 41.9752 1.07808 40.9933L14.021 14.0234L16.7192 65.2704Z" fill="#01579B"/>
<path d="M64.721 16.7229L50.7 2.6988C49.4774 1.46988 46.9237 0 44.7676 0C42.9125 0 41.0937 0.373494 39.9132 1.07831L14.0273 14.0241L64.721 16.7229Z" fill="#40C4FF"/>
<path d="M33.4398 81.9945H67.4203V67.4283L42.0705 59.3379L18.8828 67.4283L33.4398 81.9945Z" fill="#40C4FF"/>
<path d="M14.0273 57.7221C14.0273 62.0474 14.5694 63.1136 16.7255 65.2763L18.8817 67.4329H67.4192L43.6895 40.463L14.0273 14.0293V57.7221Z" fill="#29B6F6"/>
<path d="M57.1706 14.0234H14.0234L67.4153 67.427H81.9783V33.9813L64.7231 16.7222C62.3019 14.2885 60.1458 14.0234 57.1706 14.0234Z" fill="#01579B"/>
<path opacity="0.2" d="M17.2637 65.8126C15.1075 63.6439 14.5655 61.5114 14.5655 57.7222V14.5656L14.0234 14.0234V57.7162C14.0295 61.5114 14.0295 62.5596 17.2637 65.8126Z" fill="white"/>
<path opacity="0.2" d="M81.4381 33.4453V66.8911H66.875L67.4171 67.4272H81.9801V33.9875L81.4381 33.4453Z" fill="#263238"/>
<path opacity="0.2" d="M64.721 16.7222C62.0469 14.0475 59.8546 14.0234 56.6324 14.0234H14.0273L14.5694 14.5656H56.6384C58.2405 14.5656 62.3059 14.2945 64.721 16.7222Z" fill="white"/>
<path opacity="0.2" d="M81.4417 33.4458L64.7225 16.7229L50.7015 2.6988C49.4788 1.46988 46.9252 0 44.769 0C42.914 0 41.0951 0.373494 39.9147 1.07831L14.0288 14.0241L1.08589 40.994C0.622135 41.9759 0.0078125 43.6807 0.0078125 44.7711C0.0078125 47.1265 1.04373 49.5361 2.70601 51.247L15.6309 64.0783C15.938 64.4578 16.2994 64.8434 16.733 65.2711L17.2751 65.8132L18.8952 67.4337L32.9162 81.4578L33.4583 82H66.8967H67.4387V67.4337H82.0018V67.3976V33.9879L81.4417 33.4458Z" fill="url(#paint0_radial_746_36918)"/>
<defs>
<radialGradient id="paint0_radial_746_36918" cx="0" cy="0" r="1" gradientUnits="userSpaceOnUse" gradientTransform="translate(41.0018 40.9978) scale(40.994 41.003)">
<stop stop-color="white" stop-opacity="0.1"/>
<stop offset="1" stop-color="white" stop-opacity="0"/>
</radialGradient>
</defs>
</svg>
