<svg width="96" height="82" viewBox="0 0 96 82" fill="none" xmlns="http://www.w3.org/2000/svg">
<path fill-rule="evenodd" clip-rule="evenodd" d="M27.6999 0C25.1071 0.00527819 22.5691 1.41814 21.2639 3.57351L0.963663 37.4265C-0.321221 39.5876 -0.321221 42.4124 0.963663 44.5735L21.2639 78.4265C22.5692 80.5819 25.1071 81.9951 27.6999 82H68.3002C70.8929 81.9947 73.4308 80.5819 74.7362 78.4265L95.0364 44.5735C96.3213 42.4124 96.3211 39.5876 95.0364 37.4265L74.7362 3.57351C73.4308 1.41814 70.8929 0.00488233 68.3002 0H27.6999ZM28.0683 19.8044C28.1241 19.7991 28.1826 19.7991 28.2385 19.8044H35.2415C35.5515 19.8105 35.8522 19.9825 36.007 20.2408L47.8866 40.5635C47.9464 40.664 47.9849 40.776 47.9996 40.8909C48.0142 40.7759 48.0527 40.664 48.1125 40.5635L59.9637 20.2408C60.1234 19.9747 60.4382 19.8018 60.7575 19.8044H67.7605C68.3806 19.8097 68.845 20.5595 68.5544 21.0865L56.9584 41L68.5544 60.8862C68.8725 61.4163 68.3966 62.2009 67.7605 62.1956H60.7575C60.4326 62.193 60.116 62.0081 59.9637 61.7319L48.1125 41.4092C48.0527 41.3087 48.0142 41.1967 47.9996 41.0818C47.9849 41.1968 47.9464 41.3087 47.8866 41.4092L36.007 61.7319C35.8592 62.0003 35.5569 62.1834 35.2415 62.1956H28.2385C27.6023 62.2009 27.1267 61.4163 27.4447 60.8862L39.0407 41L27.4447 21.0865C27.1668 20.6057 27.5059 19.907 28.0683 19.8044Z" fill="#3498DB"/>
</svg>
