<svg width="82" height="82" viewBox="0 0 82 82" fill="none" xmlns="http://www.w3.org/2000/svg">
<path d="M32.8319 12H13.1924C9.23648 12 6 14.9249 6 18.4999C6 22.0751 8.99774 25 12.9537 25H33L32.8319 12Z" fill="#073042"/>
<path d="M76 68H13.0372C9.1666 68 6 65.2127 6 61.8062V19C6 19 5.97887 25.2131 13.4989 25.2131H65.7193C65.7193 25.2131 76 24.4342 76 31.1831V68Z" fill="#4285F4"/>
<path d="M46.6181 46.1629C48.1229 45.1287 49.0976 43.5121 49.0976 41.6929C49.0976 38.6475 46.3749 36.1636 42.9834 36.0529C43.0563 36.0506 43.1273 36.0424 43.2006 36.0424C43.5805 36.0424 43.9506 36.0777 44.3126 36.1348V32.5507C44.3126 32.2627 44.184 31.9866 43.9553 31.7829C43.7265 31.5793 43.4163 31.4649 43.0928 31.4648C42.7693 31.4649 42.4591 31.5793 42.2303 31.7829C42.0016 31.9866 41.873 32.2627 41.873 32.5507V36.1029C38.7878 36.4851 36.4028 38.8428 36.4028 41.6929C36.4028 43.5925 37.4643 45.2722 39.0836 46.2972L27.4805 68.3435H35.0632L40.4204 58.1341C41.412 56.2591 44.4047 56.2513 45.4086 58.1207L50.9328 68.3435H58.5776L46.6181 46.1627V46.1629ZM42.75 45.1721C40.5914 45.1721 38.8418 43.6145 38.8418 41.6929C38.8418 39.7713 40.5916 38.2136 42.75 38.2136C44.9086 38.2136 46.6585 39.7715 46.6585 41.6931C46.6585 43.6147 44.9086 45.1721 42.75 45.1721Z" fill="#3870B2"/>
<path d="M40.6552 38.2136C42.8138 38.2136 44.5638 39.7715 44.5638 41.6931C44.5638 43.6147 42.8138 45.1721 40.6552 45.1721C38.4966 45.1721 36.7468 43.6145 36.7468 41.6929C36.7468 39.7713 38.4966 38.2136 40.6552 38.2136ZM42.2176 36.1348V32.5507C42.2176 32.2627 42.089 31.9866 41.8603 31.7829C41.6315 31.5793 41.3213 31.4649 40.9978 31.4648C40.6743 31.4649 40.3641 31.5793 40.1353 31.7829C39.9066 31.9866 39.7781 32.2627 39.778 32.5507V36.1029C36.693 36.4851 34.3078 38.8428 34.3078 41.6929C34.3078 43.5925 35.3696 45.2722 36.9886 46.2972L22.3378 74.0883C21.2748 76.1196 22.9405 78.4464 25.4578 78.4464C26.1135 78.4464 26.7556 78.2798 27.3085 77.966C27.8613 77.6522 28.302 77.2043 28.5787 76.6751L38.3256 58.1341C39.317 56.2591 42.3099 56.2513 43.3137 58.1207L53.2812 76.5621C53.5623 77.0807 54.0021 77.5183 54.55 77.8245C55.0979 78.1307 55.7316 78.2931 56.3785 78.2931C58.913 78.2931 60.5767 75.9356 59.4769 73.9029L44.5233 46.1629C46.0279 45.1287 47.0028 43.5121 47.0028 41.6929C47.0028 39.0575 44.9638 36.8424 42.217 36.2223" fill="#073042"/>
<path d="M28.0938 15.6133H55.0341V20.0045H28.0938V15.6133Z" fill="white"/>
<path d="M51.1252 19.4893C50.1149 19.4893 49.2929 18.7572 49.2929 17.8577C49.2929 16.9581 50.1149 16.2265 51.1252 16.2265C52.1358 16.2265 52.9575 16.9583 52.9575 17.8577C52.9575 18.7572 52.1358 19.4893 51.1252 19.4893ZM30.8719 19.4893C29.8613 19.4893 29.0396 18.7572 29.0396 17.8577C29.0396 16.9581 29.8613 16.2265 30.8719 16.2265C31.8824 16.2265 32.7042 16.9583 32.7042 17.8577C32.7042 18.7572 31.8822 19.4893 30.8719 19.4893ZM51.7826 9.66352L55.4448 4.01729C55.5456 3.86146 55.5728 3.67641 55.5205 3.50273C55.4682 3.32906 55.3406 3.18095 55.1657 3.09092C54.9907 3.00125 54.7828 2.97704 54.5877 3.0236C54.3927 3.07017 54.2263 3.18371 54.1251 3.33932L50.4171 9.0567C47.5814 7.90464 44.3968 7.26287 40.9987 7.26287C37.6003 7.26287 34.4157 7.90464 31.5802 9.0567L27.8722 3.33897C27.771 3.18331 27.6046 3.06973 27.4095 3.02316C27.2143 2.97659 27.0064 3.00083 26.8314 3.09057C26.6564 3.18053 26.5287 3.32867 26.4764 3.50241C26.424 3.67616 26.4514 3.86129 26.5523 4.01711L30.2147 9.66334C23.9263 12.7081 19.6251 18.3754 18.9961 25.071H63.001C62.3712 18.3754 58.0704 12.7082 51.7826 9.66352Z" fill="#3DDC84"/>
<path d="M69.6692 37.0926H66.7608C66.5681 37.0926 66.4104 37.233 66.4104 37.4045L66.3398 78.0346C66.3398 78.2064 66.4973 78.3467 66.6902 78.3467L69.6692 78.3616C73.152 78.3616 76.0016 75.8249 76.0016 72.7246V31.4492C76.0016 34.5497 73.152 37.0924 69.6694 37.0924L69.6692 37.0926Z" fill="#073042"/>
</svg>
