<svg width="104" height="70" viewBox="0 0 104 70" fill="none" xmlns="http://www.w3.org/2000/svg">
<path fill-rule="evenodd" clip-rule="evenodd" d="M99.5275 9.64505C99.103 9.83368 98.5187 9.90965 98.2698 10.2397C91.2659 19.5086 84.1233 28.6884 78.4872 38.9057C77.4234 40.8417 76.7841 42.6206 76.9989 45.0099C77.143 46.6027 75.7988 48.6069 74.6119 49.9823C72.8197 52.0624 69.4736 51.4441 68.8291 48.8243C68.0928 45.801 66.2246 43.7366 64.3773 41.4993C61.7702 38.3503 59.2863 35.0939 56.5743 31.6593C55.7123 32.5658 54.9315 33.15 54.4546 33.9254C50.0133 41.1247 45.6245 48.358 41.2225 55.586C41.0968 55.7904 41.0286 56.0288 40.9159 56.241C39.8993 58.1482 38.204 59.0651 36.1577 58.9891C34.3654 58.921 32.9688 57.9019 32.3217 56.1178C30.5504 51.224 26.6175 47.9257 23.5702 43.3515C22.3963 44.6719 21.5736 45.4762 20.8949 46.3853C17.1271 51.4231 13.485 56.5606 9.58871 61.4963C8.27598 63.1573 7.92224 64.8628 7.71786 66.8119C7.51611 68.7558 6.18766 69.7539 4.3011 69.9688C2.37525 70.1888 0.795252 69.23 0.273829 67.5952C-0.362882 65.6225 0.103525 63.0761 1.74902 62.5128C5.51164 61.2265 7.43225 58.1063 9.66467 55.3136C11.9312 52.4789 14.0038 49.4845 16.0449 46.4796C17.7821 43.9226 19.8337 41.5858 19.1656 37.9311C18.8092 35.9663 20.8084 34.3813 22.7736 34.0721C24.6287 33.784 26.6856 34.9969 27.3878 36.8334C27.5581 37.2788 27.6446 37.7661 27.7075 38.2429C28.4175 43.6161 32.4684 47.035 35.3323 51.1219C36.4013 52.6466 38.6076 52.2929 39.6321 50.6713C43.7589 44.1165 47.7914 37.5093 51.9366 30.9677C52.9087 29.4377 53.0082 27.9025 53.0449 26.1577C53.0973 23.4907 54.4546 22.1756 56.8704 21.7355C59.2994 21.2927 61.2802 22.655 61.5344 25.0626C61.7545 27.1559 60.806 29.3172 62.4148 31.3266C65.0927 34.6773 67.2098 38.5232 70.9278 40.8653C71.5384 40.3885 72.0624 40.1737 72.272 39.7912C78.5238 28.2719 86.8509 18.1385 94.0119 7.23222C94.1246 7.06455 94.025 6.75802 94.025 6.48294C92.0651 6.15023 90.0842 5.81489 88.106 5.47431C88.2291 4.76696 88.1872 4.40021 88.3261 4.31375C92.0154 1.93759 96.1789 0.850363 100.413 0.0644203C102.376 -0.297113 103.746 0.897505 103.956 2.78377C104.034 3.50159 103.984 4.23515 103.984 4.95821C103.987 7.3632 103.984 9.76557 103.984 12.0789C101.003 13.6036 101.393 9.72627 99.5275 9.64505Z" fill="#1D262D"/>
</svg>
