<svg width="131" height="131" viewBox="0 0 131 131" fill="none" xmlns="http://www.w3.org/2000/svg">
<g opacity="0.84">
<path d="M65.5 131C29.3828 131 0 101.617 0 65.5001C0 29.3829 29.3828 0 65.5 0C101.617 0 131 29.3829 131 65.5001C131 101.617 101.617 131 65.5 131ZM65.5 7.16042C33.3318 7.16042 7.16042 33.3283 7.16042 65.5001C7.16042 97.6683 33.3318 123.84 65.5 123.84C97.6682 123.84 123.839 97.6683 123.839 65.5001C123.839 33.3319 97.6682 7.16042 65.5 7.16042Z" fill="black"/>
<path d="M65.4968 116.962C93.9204 116.962 116.962 93.9204 116.962 65.4968C116.962 37.0732 93.9204 14.0312 65.4968 14.0312C37.0732 14.0312 14.0312 37.0732 14.0312 65.4968C14.0312 93.9204 37.0732 116.962 65.4968 116.962Z" fill="#FFB153"/>
<path d="M65.4943 131C45.8569 131 30.4727 102.229 30.4727 65.5001C30.4727 28.7707 45.8569 0 65.4943 0V7.16042C50.3894 7.16042 37.6332 33.8761 37.6332 65.5001C37.6332 97.1241 50.393 123.84 65.4943 123.84V131Z" fill="black"/>
<path d="M65.5 131V123.84C80.6049 123.84 93.3611 97.1241 93.3611 65.5001C93.3611 33.8761 80.6049 7.16042 65.5 7.16042V0C85.1375 0 100.522 28.7707 100.522 65.5001C100.522 102.229 85.1375 131 65.5 131Z" fill="black"/>
<path d="M69.0745 3.57812H61.9141V126.523H69.0745V3.57812Z" fill="black"/>
<path d="M116.962 28.9531H14.0312V36.1135H116.962V28.9531Z" fill="black"/>
<path d="M116.962 94.875H14.0312V102.035H116.962V94.875Z" fill="black"/>
<path d="M127.414 61.9141H3.57422V69.0745H127.414V61.9141Z" fill="black"/>
</g>
</svg>
