<svg width="93" height="109" viewBox="0 0 93 109" fill="none" xmlns="http://www.w3.org/2000/svg">
<path fill-rule="evenodd" clip-rule="evenodd" d="M86.7977 81.141C85.3015 83.4062 83.3528 84.7783 81.2641 85.901C72.0678 90.8481 62.8342 95.725 53.6136 100.627C53.2308 100.829 52.8201 100.987 52.4185 101.15C47.4035 103.172 45.6862 102.655 42.8525 98.173C42.0726 96.9325 41.4352 95.6045 40.7435 94.31C30.5582 75.267 20.477 56.1661 10.1122 37.2212C7.85687 33.101 8.04789 29.5854 11.1134 26.1778C13.1137 23.954 15.341 21.7463 17.8727 20.1843C25.2879 15.6123 33.0496 11.6637 41.3233 8.84195C45.6785 7.35501 46.6586 7.65547 49.4761 11.3696C50.3597 12.5389 51.2064 13.7528 51.9154 15.0335C55.9821 22.3628 60.1024 29.6703 64.0239 37.0818C70.9839 50.2396 77.8211 63.4585 84.6908 76.6622C85.4526 78.1219 86.0962 79.6424 86.7977 81.141ZM60.1324 41.6872C60.0939 41.7078 60.0554 41.7284 60.0186 41.7481C58.4379 38.7895 56.894 35.8113 55.267 32.8797C53.5363 29.7626 51.7986 26.6492 49.943 23.6101C47.8597 20.1996 44.7148 19.0967 40.6133 19.6466C32.5306 20.727 25.8615 24.7989 19.7914 29.76C14.979 33.6911 14.6943 36.1084 17.237 41.4915C19.5648 46.4174 22.2084 51.1926 24.6336 56.0733C28.1835 63.2193 32.0543 70.1693 36.7429 76.644C37.6003 77.8274 38.4213 79.0775 39.4822 80.0643C41.7692 82.1997 43.6576 82.4427 46.5137 80.9146C52.4613 77.7302 58.4303 74.5817 64.2429 71.1699C71.4768 66.9246 72.144 64.9492 68.6817 57.7945C66.0345 52.3255 62.9971 47.0491 60.1324 41.6872ZM67.291 82.9524C65.7075 80.1823 62.7951 79.2659 60.2055 80.7238C57.1536 82.4376 56.0935 85.1904 57.5316 87.6419C59.1961 90.4792 63.2877 91.504 65.9324 89.7488C68.1344 88.2819 68.7039 85.4242 67.291 82.9524Z" fill="#CECBC7"/>
<path fill-rule="evenodd" clip-rule="evenodd" d="M18.0319 36.4534C18.413 35.6959 18.5749 35.0127 19.0018 34.5685C25.043 28.3393 32.1262 24.0394 40.8479 22.6378C43.8407 22.158 45.8084 23.0679 47.1641 25.6265C48.4393 28.03 49.9377 30.312 51.2532 32.6985C55.1953 39.8535 59.1128 47.0216 63.0031 54.2021C64.7873 57.491 66.8442 60.6792 67.3224 64.9586C65.8686 66.1316 64.5023 67.5191 62.8831 68.4922C57.8489 71.5151 52.7599 74.4479 47.6213 77.2879C42.8075 79.952 41.7872 79.6775 38.9341 74.94C35.4745 69.1979 32.0638 63.4252 28.7949 57.5723C25.527 51.7211 22.4409 45.7637 19.3243 39.8249C18.7547 38.7377 18.4312 37.5168 18.0319 36.4534Z" fill="white"/>
<path fill-rule="evenodd" clip-rule="evenodd" d="M60.4836 83.7297C62.1098 82.5884 63.9402 82.9885 64.5337 84.466C64.7737 85.0628 64.5901 86.1562 64.1529 86.6487C63.1848 87.7446 61.1365 87.5352 60.4006 86.1789C60.0309 85.4869 60.4432 84.3705 60.4836 83.7297Z" fill="#CECBC7"/>
<path fill-rule="evenodd" clip-rule="evenodd" d="M72.2732 45.9735C77.413 55.5937 82.5537 65.2156 87.6942 74.8331C88.1884 75.758 88.7527 76.6499 89.1844 77.6013C90.8191 81.1751 89.9957 84.1098 86.4241 86.3468C83.2928 88.3079 80.0096 90.044 76.7266 91.7507C69.3879 95.568 61.9201 99.148 54.6637 103.119C47.5878 106.999 42.8965 105.648 39.1089 98.0617C36.2053 92.2477 33.2235 86.4643 30.1044 80.7611C26.7835 74.6927 23.0482 68.8435 19.8798 62.6982C15.2674 53.7533 10.9802 44.6413 6.59747 35.5826C4.99949 32.2798 5.49107 29.0359 7.4423 25.8859C9.0479 23.2943 11.0425 21.0893 13.5075 19.1959C19.2662 14.7772 25.7508 11.7044 32.3415 8.83852C35.5266 7.45429 38.8226 6.3283 42.0897 5.14799C45.6005 3.88024 48.0026 4.72242 50.2291 7.8741C55.4509 15.2708 59.9401 23.0748 64.2765 30.9806C67.0016 35.9464 69.6251 40.9665 72.2933 45.9605C72.2872 45.966 72.282 45.9688 72.2732 45.9735ZM86.7969 81.1443C86.0954 79.6458 85.4519 78.1252 84.691 76.6674C77.8213 63.4636 70.984 50.2447 64.024 37.0869C60.1026 29.6754 55.9823 22.368 51.9156 15.0386C51.2048 13.7589 50.3599 12.544 49.4762 11.3747C46.6597 7.66232 45.6786 7.36012 41.3234 8.84707C33.0497 11.6688 25.2872 15.6201 17.8728 20.1893C15.3411 21.7514 13.1156 23.9581 11.1136 26.1829C8.04709 29.5888 7.85608 33.1044 10.1124 37.2264C20.4763 56.1695 30.5574 75.2704 40.7437 94.3151C41.4353 95.6096 42.0727 96.9376 42.8526 98.1781C45.6864 102.66 47.4053 103.176 52.4186 101.155C52.8203 100.993 53.23 100.832 53.6137 100.632C62.8352 95.7319 72.068 90.8532 81.2643 85.9061C83.352 84.7817 85.3007 83.4096 86.7969 81.1443Z" fill="#1D262D"/>
<path fill-rule="evenodd" clip-rule="evenodd" d="M60.1326 41.6944C62.9973 47.0563 66.0365 52.3317 68.6837 57.8007C72.1477 64.9545 71.4788 66.9308 64.2449 71.1762C58.4313 74.5862 52.4615 77.7374 46.5156 80.9208C43.6613 82.448 41.7712 82.2059 39.4842 80.0705C38.4242 79.0854 37.6023 77.8336 36.7449 76.6502C32.058 70.1746 28.1855 63.2256 24.6355 56.0795C22.2103 51.1988 19.5668 46.4236 17.239 41.4977C14.6962 36.1147 14.9809 33.6974 19.7933 29.7663C25.8625 24.8034 32.5325 20.7332 40.6152 19.6528C44.7177 19.1047 47.8599 20.2068 49.945 23.6164C51.8006 26.6555 53.5383 29.7688 55.269 32.886C56.8942 35.8184 58.4399 38.7957 60.0205 41.7543C60.0556 41.7356 60.0941 41.715 60.1326 41.6944ZM18.0338 36.4571C18.4331 37.5205 18.7566 38.7414 19.3272 39.8304C22.4438 45.7692 25.5298 51.7266 28.7978 57.5778C32.0666 63.4307 35.4764 69.2016 38.9369 74.9454C41.7908 79.6803 42.8121 79.9566 47.6241 77.2933C52.761 74.4543 57.8527 71.5223 62.8859 68.4977C64.5051 67.5246 65.8714 66.1371 67.3252 64.9641C66.847 60.6847 64.7901 57.4964 63.0059 54.2075C59.1156 47.0271 55.1981 39.859 51.256 32.7039C49.9405 30.3175 48.4438 28.0345 47.167 25.6319C45.8112 23.0733 43.8435 22.1634 40.8507 22.6433C32.129 24.0449 25.0458 28.3448 19.0046 34.5739C18.5768 35.0164 18.4149 35.6996 18.0338 36.4571Z" fill="#1D262D"/>
<path fill-rule="evenodd" clip-rule="evenodd" d="M67.2907 82.9579C68.7036 85.4297 68.1323 88.2884 65.9329 89.7516C63.2883 91.5069 59.1966 90.482 57.5321 87.6448C56.0932 85.1959 57.1551 82.4422 60.206 80.7266C62.7948 79.2715 65.7072 80.1878 67.2907 82.9579ZM60.4854 83.7319C60.445 84.3728 60.0327 85.4892 60.4041 86.1802C61.14 87.5365 63.1883 87.7459 64.1565 86.65C64.5927 86.1558 64.7764 85.0624 64.5373 84.4673C63.942 82.9908 62.1125 82.5924 60.4854 83.7319Z" fill="#1D262D"/>
</svg>
