<svg width="150" height="149" viewBox="0 0 150 149" fill="none" xmlns="http://www.w3.org/2000/svg">
<path d="M99.4126 0L87.8908 18.2849C87.2239 19.3445 85.5969 19.1296 85.2665 17.9235C84.5497 15.2931 82.6393 12.9806 79.7315 11.868C76.4591 10.6151 72.6289 11.4597 70.1949 13.9779C66.0654 18.2507 67.0627 24.9326 71.803 27.9214C73.7539 29.1525 75.998 29.5357 78.1048 29.1742C79.3794 28.956 80.3362 30.2806 79.6475 31.3745L68.1287 49.6531L86.4851 61.2186C87.5572 61.8949 88.9255 60.9756 88.6886 59.7321C88.1713 57.0394 88.8787 54.1036 91.0167 51.8254C93.4258 49.2542 97.2717 48.3442 100.575 49.5753C106.141 51.6478 108.124 58.1053 105.138 62.8456C103.888 64.8277 101.996 66.1522 99.9021 66.7257C98.643 67.0685 98.3312 68.689 99.4345 69.384L117.782 80.9435L149.069 31.2934L99.4126 0Z" fill="#DDE231"/>
<path d="M31.6674 106.953C30.8665 106.953 30.0592 106.872 29.2583 106.704C24.9263 105.8 21.4358 102.275 20.5725 97.9305C19.9772 94.9417 20.5477 91.953 22.1496 89.4878H0V26.125H63.3597V50.1475C63.3597 51.6684 62.5028 52.9928 61.1159 53.6005C59.7197 54.2083 58.0804 53.9372 56.9429 52.8931C54.2377 50.4092 49.6032 50.7457 47.2751 53.6099C45.9849 55.1993 45.5112 57.2033 45.9413 59.2634C46.4711 61.8003 48.5436 63.8417 51.0961 64.3341C53.2683 64.7455 55.4126 64.147 56.9864 62.6729C58.0897 61.6475 59.6885 61.3701 61.0691 61.9685C62.456 62.57 63.3535 63.9382 63.3535 65.4497V89.4848H41.198C42.3761 91.3048 43.0087 93.4303 43.0087 95.6212C43.0087 99.0526 41.4815 102.259 38.8168 104.422C36.7848 106.077 34.2666 106.953 31.6674 106.953ZM4.67484 84.8099H23.9477C25.453 84.8099 26.8212 85.7013 27.4289 87.0819C28.0367 88.4688 27.7811 90.0207 26.762 91.1364C25.3128 92.7196 24.73 94.8607 25.1569 97.0142C25.6618 99.548 27.6969 101.599 30.2151 102.125C32.2814 102.556 34.2884 102.082 35.8717 100.792C37.4393 99.5201 38.3369 97.6345 38.3369 95.6212C38.3369 93.9819 37.7322 92.408 36.6352 91.1832C35.613 90.0519 35.348 88.422 35.962 87.0414C36.5729 85.667 37.8976 84.8099 39.4122 84.8099H58.6819V67.273C56.2229 68.9029 53.2247 69.5106 50.211 68.9216C45.8291 68.077 42.2763 64.577 41.3631 60.217C40.6494 56.8043 41.4815 53.3201 43.6444 50.6586C45.8073 47.9971 49.0173 46.4667 52.4455 46.4667C54.6832 46.4667 56.8399 47.1213 58.6786 48.3368V30.7966H4.66876V84.8099H4.67484Z" fill="black"/>
<path d="M61.02 146.415V124.804C61.02 123.551 62.5097 122.866 63.4322 123.71C65.4423 125.552 68.2909 126.493 71.3451 125.883C74.7796 125.197 77.5721 122.442 78.2889 119.011C79.5044 113.195 75.0975 108.072 69.4939 108.072C67.1876 108.072 65.084 108.941 63.4945 110.371C62.5346 111.235 61.0169 110.624 61.0169 109.334V87.7266H39.3226C38.0572 87.7266 37.3872 89.235 38.2505 90.1606C40.1235 92.1646 41.0897 95.0255 40.4975 98.0922C39.8275 101.552 37.0598 104.372 33.6129 105.092C27.7974 106.304 22.677 101.901 22.677 96.2971C22.677 93.9566 23.5714 91.8249 25.0393 90.223C25.9213 89.2631 25.3198 87.7266 24.0171 87.7266H2.33203V146.411L61.02 146.415Z" fill="#FAA21B"/>
<path d="M63.3598 148.75H0V85.3906H24.0194C25.5403 85.3906 26.8648 86.2478 27.4725 87.6346C28.0865 89.0309 27.8061 90.6701 26.762 91.8077C25.6401 93.0356 25.0168 94.6312 25.0168 96.2986C25.0168 98.3119 25.9143 100.197 27.4788 101.469C29.0651 102.759 31.0815 103.233 33.1353 102.806C35.6691 102.276 37.7106 100.204 38.203 97.6512C38.6206 95.4852 38.0159 93.3348 36.5448 91.7579C35.5164 90.6608 35.239 89.062 35.8374 87.6752C36.4358 86.2883 37.8071 85.3906 39.3186 85.3906H63.3535V107.543C65.1704 106.368 67.299 105.736 69.49 105.736C72.9182 105.736 76.1253 107.263 78.2882 109.927C80.4542 112.589 81.2862 116.076 80.5726 119.489C79.6656 123.821 76.1377 127.312 71.7964 128.175C68.8045 128.773 65.8156 128.2 63.3535 126.598V148.75H63.3598ZM4.67484 144.076H58.6849V124.803C58.6849 123.297 59.5763 121.929 60.9569 121.322C62.3469 120.717 63.899 120.969 65.0116 121.989C66.5948 123.435 68.7359 124.014 70.8894 123.593C73.4232 123.089 75.477 121.057 76.0037 118.535C76.4369 116.475 75.96 114.465 74.6666 112.879C72.3604 110.036 67.7852 109.678 65.0582 112.115C63.9238 113.137 62.2939 113.393 60.9101 112.785C59.5388 112.174 58.6849 110.853 58.6849 109.335V90.0655H41.148C42.7779 92.5276 43.3796 95.5257 42.7968 98.5363C41.946 102.918 38.4521 106.471 34.0952 107.384C30.667 108.085 27.192 107.26 24.5336 105.1C21.8721 102.937 20.345 99.7269 20.345 96.3018C20.345 94.0641 20.9994 91.9075 22.2118 90.0687H4.67484V144.076Z" fill="black"/>
<path d="M121.578 148.76H58.2188V124.738C58.2188 123.22 59.0759 121.895 60.4565 121.288C61.8558 120.674 63.4951 120.951 64.6295 121.989C67.3503 124.482 71.9721 124.139 74.3001 121.275C75.5904 119.686 76.0642 117.679 75.6341 115.619C75.1074 113.082 73.0349 111.043 70.4794 110.551C68.3071 110.124 66.1628 110.744 64.5858 112.209C63.4856 113.234 61.8839 113.512 60.5063 112.91C59.1195 112.309 58.2218 110.941 58.2218 109.429V85.3973H80.3744C79.1995 83.5772 78.5668 81.4517 78.5668 79.2608C78.5668 75.8294 80.0939 72.6256 82.7554 70.4627C85.4169 68.2967 88.9107 67.4676 92.3202 68.1782C96.6491 69.0851 100.14 72.6132 101.003 76.9546C101.598 79.9433 101.028 82.9321 99.4259 85.3973H121.578V148.76ZM62.8936 144.085H116.904V90.0752H97.6277C96.1224 90.0752 94.7542 89.184 94.1465 87.7971C93.5388 86.4133 93.7943 84.8582 94.8134 83.7456C96.2626 82.1624 96.8455 80.0212 96.4185 77.8676C95.9136 75.337 93.8815 73.2801 91.3602 72.7534C89.3064 72.3202 87.2931 72.7969 85.7036 74.0872C84.1391 75.3587 83.2416 77.2475 83.2416 79.2608C83.2416 80.9001 83.8432 82.474 84.9433 83.6988C85.9624 84.8301 86.2272 86.4599 85.6133 87.8437C85.0024 89.215 83.681 90.0721 82.1632 90.0721H62.8936V107.606C65.3619 105.979 68.3601 105.381 71.3645 105.96C75.7463 106.808 79.3022 110.308 80.2091 114.662C80.9228 118.078 80.0907 121.562 77.9278 124.223C75.7649 126.882 72.5549 128.412 69.1298 128.412C66.8952 128.412 64.7354 127.758 62.8966 126.545L62.8936 144.085Z" fill="black"/>
</svg>
